<?xml version="1.0" encoding="UTF-8" standalone="no"?>
<!DOCTYPE svg PUBLIC "-//W3C//DTD SVG 1.1//EN"
 "http://www.w3.org/Graphics/SVG/1.1/DTD/svg11.dtd">
<!-- Generated by graphviz version 2.40.1 (20161225.0304)
 -->
<!-- Title: A_CO_Basalt_Plugin\_process_xsd Pages: 1 -->
<svg width="286pt" height="74pt"
 viewBox="0.00 0.00 286.13 74.00" xmlns="http://www.w3.org/2000/svg" xmlns:xlink="http://www.w3.org/1999/xlink">
<g id="graph0" class="graph" transform="scale(1 1) rotate(0) translate(4 70)">
<title>A_CO_Basalt_Plugin\_process_xsd</title>
<polygon fill="#ffffff" stroke="transparent" points="-4,4 -4,-70 282.127,-70 282.127,4 -4,4"/>
<!-- Node27 -->
<g id="node1" class="node">
<title>Node27</title>
<polygon fill="#bfbfbf" stroke="#000000" points="0,-16.5 0,-44.5 109.9453,-44.5 109.9453,-16.5 0,-16.5"/>
<text text-anchor="start" x="8" y="-32.5" font-family="Helvetica,sans-Serif" font-size="10.00" fill="#000000">A_CO_Basalt_Plugin</text>
<text text-anchor="middle" x="54.9727" y="-22.5" font-family="Helvetica,sans-Serif" font-size="10.00" fill="#000000">\_process_xsd</text>
</g>
<!-- Node28 -->
<g id="node2" class="node">
<title>Node28</title>
<g id="a_node2"><a xlink:href="a00211.html#abb35c9667f50c3aa6b8ab704a8874f8e" target="_top" xlink:title="CO_places_Basalt_Plugin\l\\_get_xsd">
<polygon fill="#ffffff" stroke="#000000" points="145.9453,-37.5 145.9453,-65.5 278.127,-65.5 278.127,-37.5 145.9453,-37.5"/>
<text text-anchor="start" x="153.9453" y="-53.5" font-family="Helvetica,sans-Serif" font-size="10.00" fill="#000000">CO_places_Basalt_Plugin</text>
<text text-anchor="middle" x="212.0361" y="-43.5" font-family="Helvetica,sans-Serif" font-size="10.00" fill="#000000">\_get_xsd</text>
</a>
</g>
</g>
<!-- Node27&#45;&gt;Node28 -->
<g id="edge1" class="edge">
<title>Node27&#45;&gt;Node28</title>
<path fill="none" stroke="#191970" d="M120.459,-39.2558C128.8539,-40.3782 137.4534,-41.528 145.8592,-42.6519"/>
<polygon fill="#191970" stroke="#191970" points="120.723,-35.76 110.3474,-37.9038 119.7953,-42.6983 120.723,-35.76"/>
</g>
<!-- Node29 -->
<g id="node3" class="node">
<title>Node29</title>
<g id="a_node3"><a xlink:href="a00203.html#a3c3befaca2a0fb5d4800af69f97596f3" target="_top" xlink:title="CO_Basalt\\_get_xsd">
<polygon fill="#ffffff" stroke="#000000" points="158.1768,-.5 158.1768,-18.5 265.8955,-18.5 265.8955,-.5 158.1768,-.5"/>
<text text-anchor="middle" x="212.0361" y="-6.5" font-family="Helvetica,sans-Serif" font-size="10.00" fill="#000000">CO_Basalt\_get_xsd</text>
</a>
</g>
</g>
<!-- Node27&#45;&gt;Node29 -->
<g id="edge2" class="edge">
<title>Node27&#45;&gt;Node29</title>
<path fill="none" stroke="#191970" d="M120.2781,-21.7684C132.8163,-20.092 145.8177,-18.3537 157.9537,-16.731"/>
<polygon fill="#191970" stroke="#191970" points="119.7953,-18.3017 110.3474,-23.0962 120.723,-25.24 119.7953,-18.3017"/>
</g>
</g>
</svg>
