<?xml version="1.0" encoding="UTF-8" standalone="no"?>
<!DOCTYPE svg PUBLIC "-//W3C//DTD SVG 1.1//EN"
 "http://www.w3.org/Graphics/SVG/1.1/DTD/svg11.dtd">
<!-- Generated by graphviz version 2.40.1 (20161225.0304)
 -->
<!-- Title: A_CO_Basalt_Plugin\_condition_response Pages: 1 -->
<svg width="605pt" height="79pt"
 viewBox="0.00 0.00 605.22 79.00" xmlns="http://www.w3.org/2000/svg" xmlns:xlink="http://www.w3.org/1999/xlink">
<g id="graph0" class="graph" transform="scale(1 1) rotate(0) translate(4 75)">
<title>A_CO_Basalt_Plugin\_condition_response</title>
<polygon fill="#ffffff" stroke="transparent" points="-4,4 -4,-75 601.2197,-75 601.2197,4 -4,4"/>
<!-- Node1 -->
<g id="node1" class="node">
<title>Node1</title>
<g id="a_node1"><a xlink:title=" ">
<polygon fill="#bfbfbf" stroke="#000000" points="486.1514,-21.5 486.1514,-49.5 597.2197,-49.5 597.2197,-21.5 486.1514,-21.5"/>
<text text-anchor="start" x="494.1514" y="-37.5" font-family="Helvetica,sans-Serif" font-size="10.00" fill="#000000">A_CO_Basalt_Plugin</text>
<text text-anchor="middle" x="541.6855" y="-27.5" font-family="Helvetica,sans-Serif" font-size="10.00" fill="#000000">\_condition_response</text>
</a>
</g>
</g>
<!-- Node2 -->
<g id="node2" class="node">
<title>Node2</title>
<g id="a_node2"><a xlink:href="a00203.html#a474660b01c925a4d47e918c02944ebf7" target="_top" xlink:title=" ">
<polygon fill="#ffffff" stroke="#000000" points="298.5361,-47.5 298.5361,-65.5 450.1514,-65.5 450.1514,-47.5 298.5361,-47.5"/>
<text text-anchor="middle" x="374.3438" y="-53.5" font-family="Helvetica,sans-Serif" font-size="10.00" fill="#000000">CO_Basalt\process_command</text>
</a>
</g>
</g>
<!-- Node1&#45;&gt;Node2 -->
<g id="edge1" class="edge">
<title>Node1&#45;&gt;Node2</title>
<path fill="none" stroke="#191970" d="M475.9382,-43.7507C466.1769,-44.9757 456.0741,-46.2435 446.1956,-47.4832"/>
<polygon fill="#191970" stroke="#191970" points="476.4768,-47.2107 485.9632,-42.4927 475.6051,-40.2652 476.4768,-47.2107"/>
</g>
<!-- Node5 -->
<g id="node5" class="node">
<title>Node5</title>
<g id="a_node5"><a xlink:href="a00211.html#a66729507ef35bcc83810d707412207fb" target="_top" xlink:title=" ">
<polygon fill="#ffffff" stroke="#000000" points="308.2529,-.5 308.2529,-28.5 440.4346,-28.5 440.4346,-.5 308.2529,-.5"/>
<text text-anchor="start" x="316.2529" y="-16.5" font-family="Helvetica,sans-Serif" font-size="10.00" fill="#000000">CO_places_Basalt_Plugin</text>
<text text-anchor="middle" x="374.3438" y="-6.5" font-family="Helvetica,sans-Serif" font-size="10.00" fill="#000000">\process_command</text>
</a>
</g>
</g>
<!-- Node1&#45;&gt;Node5 -->
<g id="edge4" class="edge">
<title>Node1&#45;&gt;Node5</title>
<path fill="none" stroke="#191970" d="M475.9037,-27.2449C464.2881,-25.7873 452.1899,-24.269 440.5624,-22.8099"/>
<polygon fill="#191970" stroke="#191970" points="475.6051,-30.7348 485.9632,-28.5073 476.4768,-23.7893 475.6051,-30.7348"/>
</g>
<!-- Node3 -->
<g id="node3" class="node">
<title>Node3</title>
<g id="a_node3"><a xlink:href="a00203.html#a528297edc9fb3e5e3c8f2e9270621853" target="_top" xlink:title=" ">
<polygon fill="#ffffff" stroke="#000000" points="154.8271,-42.5 154.8271,-70.5 262.5361,-70.5 262.5361,-42.5 154.8271,-42.5"/>
<text text-anchor="start" x="162.8271" y="-58.5" font-family="Helvetica,sans-Serif" font-size="10.00" fill="#000000">CO_Basalt\_process</text>
<text text-anchor="middle" x="208.6816" y="-48.5" font-family="Helvetica,sans-Serif" font-size="10.00" fill="#000000">_command</text>
</a>
</g>
</g>
<!-- Node2&#45;&gt;Node3 -->
<g id="edge2" class="edge">
<title>Node2&#45;&gt;Node3</title>
<path fill="none" stroke="#191970" d="M288.2306,-56.5C279.6519,-56.5 271.1202,-56.5 263.0045,-56.5"/>
<polygon fill="#191970" stroke="#191970" points="288.3007,-60.0001 298.3007,-56.5 288.3006,-53.0001 288.3007,-60.0001"/>
</g>
<!-- Node4 -->
<g id="node4" class="node">
<title>Node4</title>
<g id="a_node4"><a xlink:href="a00203.html#aad1b60cb5230efedfc34a931546d415b" target="_top" xlink:title=" ">
<polygon fill="#ffffff" stroke="#000000" points="0,-47.5 0,-65.5 118.8271,-65.5 118.8271,-47.5 0,-47.5"/>
<text text-anchor="middle" x="59.4136" y="-53.5" font-family="Helvetica,sans-Serif" font-size="10.00" fill="#000000">CO_Basalt\__construct</text>
</a>
</g>
</g>
<!-- Node3&#45;&gt;Node4 -->
<g id="edge3" class="edge">
<title>Node3&#45;&gt;Node4</title>
<path fill="none" stroke="#191970" d="M144.5744,-56.5C136.0975,-56.5 127.4357,-56.5 119.0384,-56.5"/>
<polygon fill="#191970" stroke="#191970" points="144.7925,-60.0001 154.7924,-56.5 144.7924,-53.0001 144.7925,-60.0001"/>
</g>
</g>
</svg>
