<?xml version="1.0" encoding="UTF-8" standalone="no"?>
<!DOCTYPE svg PUBLIC "-//W3C//DTD SVG 1.1//EN"
 "http://www.w3.org/Graphics/SVG/1.1/DTD/svg11.dtd">
<!-- Generated by graphviz version 2.40.1 (20161225.0304)
 -->
<!-- Title: test_is_assoc Pages: 1 -->
<svg width="391pt" height="37pt"
 viewBox="0.00 0.00 391.47 37.00" xmlns="http://www.w3.org/2000/svg" xmlns:xlink="http://www.w3.org/1999/xlink">
<g id="graph0" class="graph" transform="scale(1 1) rotate(0) translate(4 33)">
<title>test_is_assoc</title>
<polygon fill="#ffffff" stroke="transparent" points="-4,4 -4,-33 387.4668,-33 387.4668,4 -4,4"/>
<!-- Node1 -->
<g id="node1" class="node">
<title>Node1</title>
<g id="a_node1"><a xlink:title=" ">
<polygon fill="#bfbfbf" stroke="#000000" points="306.8809,-5.5 306.8809,-23.5 383.4668,-23.5 383.4668,-5.5 306.8809,-5.5"/>
<text text-anchor="middle" x="345.1738" y="-11.5" font-family="Helvetica,sans-Serif" font-size="10.00" fill="#000000">test_is_assoc</text>
</a>
</g>
</g>
<!-- Node2 -->
<g id="node2" class="node">
<title>Node2</title>
<g id="a_node2"><a xlink:href="a00260.html#a94507f0c219ba9bc342e40d6064941db" target="_top" xlink:title=" ">
<polygon fill="#ffffff" stroke="#000000" points="152.0488,-.5 152.0488,-28.5 270.8809,-28.5 270.8809,-.5 152.0488,-.5"/>
<text text-anchor="start" x="160.0488" y="-16.5" font-family="Helvetica,sans-Serif" font-size="10.00" fill="#000000">CO_Place\set_address</text>
<text text-anchor="middle" x="211.4648" y="-6.5" font-family="Helvetica,sans-Serif" font-size="10.00" fill="#000000">_elements</text>
</a>
</g>
</g>
<!-- Node1&#45;&gt;Node2 -->
<g id="edge1" class="edge">
<title>Node1&#45;&gt;Node2</title>
<path fill="none" stroke="#191970" d="M296.5882,-14.5C288.2741,-14.5 279.5517,-14.5 270.9914,-14.5"/>
<polygon fill="#191970" stroke="#191970" points="296.8582,-18.0001 306.8582,-14.5 296.8582,-11.0001 296.8582,-18.0001"/>
</g>
<!-- Node3 -->
<g id="node3" class="node">
<title>Node3</title>
<g id="a_node3"><a xlink:href="a00260.html#a0828fcac351a2f23404059be980e7b41" target="_top" xlink:title=" ">
<polygon fill="#ffffff" stroke="#000000" points="0,-5.5 0,-23.5 116.0488,-23.5 116.0488,-5.5 0,-5.5"/>
<text text-anchor="middle" x="58.0244" y="-11.5" font-family="Helvetica,sans-Serif" font-size="10.00" fill="#000000">CO_Place\__construct</text>
</a>
</g>
</g>
<!-- Node2&#45;&gt;Node3 -->
<g id="edge2" class="edge">
<title>Node2&#45;&gt;Node3</title>
<path fill="none" stroke="#191970" d="M141.4477,-14.5C132.9738,-14.5 124.3899,-14.5 116.114,-14.5"/>
<polygon fill="#191970" stroke="#191970" points="141.7014,-18.0001 151.7014,-14.5 141.7014,-11.0001 141.7014,-18.0001"/>
</g>
</g>
</svg>
