<?xml version="1.0" encoding="UTF-8" standalone="no"?>
<!DOCTYPE svg PUBLIC "-//W3C//DTD SVG 1.1//EN"
 "http://www.w3.org/Graphics/SVG/1.1/DTD/svg11.dtd">
<!-- Generated by graphviz version 2.40.1 (20161225.0304)
 -->
<!-- Title: test_is_assoc Pages: 1 -->
<svg width="391pt" height="37pt"
 viewBox="0.00 0.00 391.47 37.00" xmlns="http://www.w3.org/2000/svg" xmlns:xlink="http://www.w3.org/1999/xlink">
<g id="graph0" class="graph" transform="scale(1 1) rotate(0) translate(4 33)">
<title>test_is_assoc</title>
<polygon fill="#ffffff" stroke="transparent" points="-4,4 -4,-33 387.4668,-33 387.4668,4 -4,4"/>
<!-- Node1 -->
<g id="node1" class="node">
<title>Node1</title>
<polygon fill="#bfbfbf" stroke="#000000" points="0,-5.5 0,-23.5 76.5859,-23.5 76.5859,-5.5 0,-5.5"/>
<text text-anchor="middle" x="38.293" y="-11.5" font-family="Helvetica,sans-Serif" font-size="10.00" fill="#000000">test_is_assoc</text>
</g>
<!-- Node2 -->
<g id="node2" class="node">
<title>Node2</title>
<g id="a_node2"><a xlink:href="a00263.html#a94507f0c219ba9bc342e40d6064941db" target="_top" xlink:title="CO_Place\\set_address\l_elements">
<polygon fill="#ffffff" stroke="#000000" points="112.5859,-.5 112.5859,-28.5 231.418,-28.5 231.418,-.5 112.5859,-.5"/>
<text text-anchor="start" x="120.5859" y="-16.5" font-family="Helvetica,sans-Serif" font-size="10.00" fill="#000000">CO_Place\set_address</text>
<text text-anchor="middle" x="172.002" y="-6.5" font-family="Helvetica,sans-Serif" font-size="10.00" fill="#000000">_elements</text>
</a>
</g>
</g>
<!-- Node1&#45;&gt;Node2 -->
<g id="edge1" class="edge">
<title>Node1&#45;&gt;Node2</title>
<path fill="none" stroke="#191970" d="M86.8786,-14.5C95.1927,-14.5 103.9151,-14.5 112.4754,-14.5"/>
<polygon fill="#191970" stroke="#191970" points="86.6086,-11.0001 76.6086,-14.5 86.6086,-18.0001 86.6086,-11.0001"/>
</g>
<!-- Node3 -->
<g id="node3" class="node">
<title>Node3</title>
<g id="a_node3"><a xlink:href="a00263.html#a0828fcac351a2f23404059be980e7b41" target="_top" xlink:title="CO_Place\\__construct">
<polygon fill="#ffffff" stroke="#000000" points="267.418,-5.5 267.418,-23.5 383.4668,-23.5 383.4668,-5.5 267.418,-5.5"/>
<text text-anchor="middle" x="325.4424" y="-11.5" font-family="Helvetica,sans-Serif" font-size="10.00" fill="#000000">CO_Place\__construct</text>
</a>
</g>
</g>
<!-- Node2&#45;&gt;Node3 -->
<g id="edge2" class="edge">
<title>Node2&#45;&gt;Node3</title>
<path fill="none" stroke="#191970" d="M242.0191,-14.5C250.493,-14.5 259.0769,-14.5 267.3528,-14.5"/>
<polygon fill="#191970" stroke="#191970" points="241.7654,-11.0001 231.7654,-14.5 241.7654,-18.0001 241.7654,-11.0001"/>
</g>
</g>
</svg>
