<?xml version="1.0" encoding="UTF-8" standalone="no"?>
<!DOCTYPE svg PUBLIC "-//W3C//DTD SVG 1.1//EN"
 "http://www.w3.org/Graphics/SVG/1.1/DTD/svg11.dtd">
<!-- Generated by graphviz version 2.40.1 (20161225.0304)
 -->
<!-- Title: A_CO_Basalt_Plugin\_condition_response Pages: 1 -->
<svg width="605pt" height="79pt"
 viewBox="0.00 0.00 605.22 79.00" xmlns="http://www.w3.org/2000/svg" xmlns:xlink="http://www.w3.org/1999/xlink">
<g id="graph0" class="graph" transform="scale(1 1) rotate(0) translate(4 75)">
<title>A_CO_Basalt_Plugin\_condition_response</title>
<polygon fill="#ffffff" stroke="transparent" points="-4,4 -4,-75 601.2197,-75 601.2197,4 -4,4"/>
<!-- Node3 -->
<g id="node1" class="node">
<title>Node3</title>
<polygon fill="#bfbfbf" stroke="#000000" points="0,-21.5 0,-49.5 111.0684,-49.5 111.0684,-21.5 0,-21.5"/>
<text text-anchor="start" x="8" y="-37.5" font-family="Helvetica,sans-Serif" font-size="10.00" fill="#000000">A_CO_Basalt_Plugin</text>
<text text-anchor="middle" x="55.5342" y="-27.5" font-family="Helvetica,sans-Serif" font-size="10.00" fill="#000000">\_condition_response</text>
</g>
<!-- Node4 -->
<g id="node2" class="node">
<title>Node4</title>
<g id="a_node2"><a xlink:href="a00211.html#a66729507ef35bcc83810d707412207fb" target="_top" xlink:title="CO_places_Basalt_Plugin\l\\process_command">
<polygon fill="#ffffff" stroke="#000000" points="156.7852,-42.5 156.7852,-70.5 288.9668,-70.5 288.9668,-42.5 156.7852,-42.5"/>
<text text-anchor="start" x="164.7852" y="-58.5" font-family="Helvetica,sans-Serif" font-size="10.00" fill="#000000">CO_places_Basalt_Plugin</text>
<text text-anchor="middle" x="222.876" y="-48.5" font-family="Helvetica,sans-Serif" font-size="10.00" fill="#000000">\process_command</text>
</a>
</g>
</g>
<!-- Node3&#45;&gt;Node4 -->
<g id="edge1" class="edge">
<title>Node3&#45;&gt;Node4</title>
<path fill="none" stroke="#191970" d="M121.3161,-43.7551C132.9317,-45.2127 145.0298,-46.731 156.6573,-48.1901"/>
<polygon fill="#191970" stroke="#191970" points="121.6146,-40.2652 111.2566,-42.4927 120.7429,-47.2107 121.6146,-40.2652"/>
</g>
<!-- Node5 -->
<g id="node3" class="node">
<title>Node5</title>
<g id="a_node3"><a xlink:href="a00203.html#a474660b01c925a4d47e918c02944ebf7" target="_top" xlink:title="CO_Basalt\\process_command">
<polygon fill="#ffffff" stroke="#000000" points="147.0684,-5.5 147.0684,-23.5 298.6836,-23.5 298.6836,-5.5 147.0684,-5.5"/>
<text text-anchor="middle" x="222.876" y="-11.5" font-family="Helvetica,sans-Serif" font-size="10.00" fill="#000000">CO_Basalt\process_command</text>
</a>
</g>
</g>
<!-- Node3&#45;&gt;Node5 -->
<g id="edge2" class="edge">
<title>Node3&#45;&gt;Node5</title>
<path fill="none" stroke="#191970" d="M121.2815,-27.2493C131.0428,-26.0243 141.1456,-24.7565 151.0241,-23.5168"/>
<polygon fill="#191970" stroke="#191970" points="120.7429,-23.7893 111.2566,-28.5073 121.6146,-30.7348 120.7429,-23.7893"/>
</g>
<!-- Node6 -->
<g id="node4" class="node">
<title>Node6</title>
<g id="a_node4"><a xlink:href="a00203.html#a528297edc9fb3e5e3c8f2e9270621853" target="_top" xlink:title="CO_Basalt\\_process\l_command">
<polygon fill="#ffffff" stroke="#000000" points="334.6836,-.5 334.6836,-28.5 442.3926,-28.5 442.3926,-.5 334.6836,-.5"/>
<text text-anchor="start" x="342.6836" y="-16.5" font-family="Helvetica,sans-Serif" font-size="10.00" fill="#000000">CO_Basalt\_process</text>
<text text-anchor="middle" x="388.5381" y="-6.5" font-family="Helvetica,sans-Serif" font-size="10.00" fill="#000000">_command</text>
</a>
</g>
</g>
<!-- Node5&#45;&gt;Node6 -->
<g id="edge3" class="edge">
<title>Node5&#45;&gt;Node6</title>
<path fill="none" stroke="#191970" d="M308.9892,-14.5C317.5678,-14.5 326.0995,-14.5 334.2153,-14.5"/>
<polygon fill="#191970" stroke="#191970" points="308.9191,-11.0001 298.9191,-14.5 308.919,-18.0001 308.9191,-11.0001"/>
</g>
<!-- Node7 -->
<g id="node5" class="node">
<title>Node7</title>
<g id="a_node5"><a xlink:href="a00203.html#aad1b60cb5230efedfc34a931546d415b" target="_top" xlink:title="CO_Basalt\\__construct">
<polygon fill="#ffffff" stroke="#000000" points="478.3926,-5.5 478.3926,-23.5 597.2197,-23.5 597.2197,-5.5 478.3926,-5.5"/>
<text text-anchor="middle" x="537.8062" y="-11.5" font-family="Helvetica,sans-Serif" font-size="10.00" fill="#000000">CO_Basalt\__construct</text>
</a>
</g>
</g>
<!-- Node6&#45;&gt;Node7 -->
<g id="edge4" class="edge">
<title>Node6&#45;&gt;Node7</title>
<path fill="none" stroke="#191970" d="M452.6453,-14.5C461.1222,-14.5 469.784,-14.5 478.1814,-14.5"/>
<polygon fill="#191970" stroke="#191970" points="452.4273,-11.0001 442.4273,-14.5 452.4272,-18.0001 452.4273,-11.0001"/>
</g>
</g>
</svg>
