<?xml version="1.0" encoding="UTF-8" standalone="no"?>
<!DOCTYPE svg PUBLIC "-//W3C//DTD SVG 1.1//EN"
 "http://www.w3.org/Graphics/SVG/1.1/DTD/svg11.dtd">
<!-- Generated by graphviz version 2.40.1 (20161225.0304)
 -->
<!-- Title: CO_Place\set_address_elements Pages: 1 -->
<svg width="459pt" height="134pt"
 viewBox="0.00 0.00 458.77 134.00" xmlns="http://www.w3.org/2000/svg" xmlns:xlink="http://www.w3.org/1999/xlink">
<g id="graph0" class="graph" transform="scale(1 1) rotate(0) translate(4 130)">
<title>CO_Place\set_address_elements</title>
<polygon fill="#ffffff" stroke="transparent" points="-4,4 -4,-130 454.7666,-130 454.7666,4 -4,4"/>
<!-- Node1 -->
<g id="node1" class="node">
<title>Node1</title>
<g id="a_node1"><a xlink:title=" ">
<polygon fill="#bfbfbf" stroke="#000000" points="0,-54.5 0,-82.5 118.832,-82.5 118.832,-54.5 0,-54.5"/>
<text text-anchor="start" x="8" y="-70.5" font-family="Helvetica,sans-Serif" font-size="10.00" fill="#000000">CO_Place\set_address</text>
<text text-anchor="middle" x="59.416" y="-60.5" font-family="Helvetica,sans-Serif" font-size="10.00" fill="#000000">_elements</text>
</a>
</g>
</g>
<!-- Node2 -->
<g id="node2" class="node">
<title>Node2</title>
<g id="a_node2"><a xlink:href="a00260.html#a60b73dee76e98e806f4a872cca13ee58" target="_top" xlink:title=" ">
<polygon fill="#ffffff" stroke="#000000" points="317.7378,-97.5 317.7378,-125.5 442.6929,-125.5 442.6929,-97.5 317.7378,-97.5"/>
<text text-anchor="start" x="325.7378" y="-113.5" font-family="Helvetica,sans-Serif" font-size="10.00" fill="#000000">CO_Place\_get_address</text>
<text text-anchor="middle" x="380.2153" y="-103.5" font-family="Helvetica,sans-Serif" font-size="10.00" fill="#000000">_element_labels</text>
</a>
</g>
</g>
<!-- Node1&#45;&gt;Node2 -->
<g id="edge1" class="edge">
<title>Node1&#45;&gt;Node2</title>
<path fill="none" stroke="#191970" d="M81.4888,-82.6921C100.1788,-93.8153 128.1195,-108.397 154.832,-114.5 204.9126,-125.9418 262.897,-124.8602 307.5103,-121.0904"/>
<polygon fill="#191970" stroke="#191970" points="308.0404,-124.5567 317.6822,-120.1651 307.4063,-117.5855 308.0404,-124.5567"/>
</g>
<!-- Node3 -->
<g id="node3" class="node">
<title>Node3</title>
<g id="a_node3"><a xlink:href="a00260.html#a7b99eb196e710f9cf14ad39601e2b3ad" target="_top" xlink:title=" ">
<polygon fill="#ffffff" stroke="#000000" points="154.832,-76.5 154.832,-104.5 273.6641,-104.5 273.6641,-76.5 154.832,-76.5"/>
<text text-anchor="start" x="162.832" y="-92.5" font-family="Helvetica,sans-Serif" font-size="10.00" fill="#000000">CO_Place\set_address</text>
<text text-anchor="middle" x="214.248" y="-82.5" font-family="Helvetica,sans-Serif" font-size="10.00" fill="#000000">_element</text>
</a>
</g>
</g>
<!-- Node1&#45;&gt;Node3 -->
<g id="edge2" class="edge">
<title>Node1&#45;&gt;Node3</title>
<path fill="none" stroke="#191970" d="M118.8353,-76.9429C127.294,-78.1448 136.0562,-79.3898 144.6868,-80.6161"/>
<polygon fill="#191970" stroke="#191970" points="144.339,-84.1017 154.7319,-82.0434 145.3238,-77.1713 144.339,-84.1017"/>
</g>
<!-- Node4 -->
<g id="node4" class="node">
<title>Node4</title>
<g id="a_node4"><a xlink:href="a00332.html#aaa41a4de441030a1bc25875991cf00d0" target="_top" xlink:title=" ">
<polygon fill="#ffffff" stroke="#000000" points="309.6641,-60.5 309.6641,-78.5 450.7666,-78.5 450.7666,-60.5 309.6641,-60.5"/>
<text text-anchor="middle" x="380.2153" y="-66.5" font-family="Helvetica,sans-Serif" font-size="10.00" fill="#000000">CO_LL_Location\update_db</text>
</a>
</g>
</g>
<!-- Node1&#45;&gt;Node4 -->
<g id="edge6" class="edge">
<title>Node1&#45;&gt;Node4</title>
<path fill="none" stroke="#191970" d="M118.9644,-67.0593C130.8452,-66.8261 143.2344,-66.6215 154.832,-66.5 207.6434,-65.9466 220.8551,-65.7567 273.6641,-66.5 281.9764,-66.617 290.6524,-66.7853 299.3085,-66.9833"/>
<polygon fill="#191970" stroke="#191970" points="299.3562,-70.4854 309.4379,-67.2281 299.5254,-63.4874 299.3562,-70.4854"/>
</g>
<!-- Node5 -->
<g id="node5" class="node">
<title>Node5</title>
<g id="a_node5"><a xlink:href="a00119.html#a732056c1b6e305a30aead472a1695e0c" target="_top" xlink:title=" ">
<polygon fill="#ffffff" stroke="#000000" points="175.9551,-.5 175.9551,-18.5 252.541,-18.5 252.541,-.5 175.9551,-.5"/>
<text text-anchor="middle" x="214.248" y="-6.5" font-family="Helvetica,sans-Serif" font-size="10.00" fill="#000000">test_is_assoc</text>
</a>
</g>
</g>
<!-- Node1&#45;&gt;Node5 -->
<g id="edge5" class="edge">
<title>Node1&#45;&gt;Node5</title>
<path fill="none" stroke="#191970" d="M96.5021,-54.368C122.2497,-44.5567 156.2547,-31.5988 181.0988,-22.1318"/>
<polygon fill="#191970" stroke="#191970" points="182.3693,-25.3932 190.4675,-18.5618 179.8767,-18.852 182.3693,-25.3932"/>
</g>
<!-- Node3&#45;&gt;Node2 -->
<g id="edge3" class="edge">
<title>Node3&#45;&gt;Node2</title>
<path fill="none" stroke="#191970" d="M273.6973,-98.0222C284.5928,-99.4008 296.0785,-100.8541 307.3139,-102.2757"/>
<polygon fill="#191970" stroke="#191970" points="307.1774,-105.7863 317.5377,-103.5693 308.0562,-98.8416 307.1774,-105.7863"/>
</g>
<!-- Node3&#45;&gt;Node4 -->
<g id="edge4" class="edge">
<title>Node3&#45;&gt;Node4</title>
<path fill="none" stroke="#191970" d="M273.6973,-82.9778C282.0539,-81.9205 290.7576,-80.8192 299.4293,-79.7219"/>
<polygon fill="#191970" stroke="#191970" points="300.0902,-83.1663 309.5717,-78.4386 299.2115,-76.2217 300.0902,-83.1663"/>
</g>
</g>
</svg>
