<?xml version="1.0" encoding="UTF-8" standalone="no"?>
<!DOCTYPE svg PUBLIC "-//W3C//DTD SVG 1.1//EN"
 "http://www.w3.org/Graphics/SVG/1.1/DTD/svg11.dtd">
<!-- Generated by graphviz version 2.47.1 (20210417.1919)
 -->
<!-- Title: CO_User_Collection\set_tag Pages: 1 -->
<svg width="258pt" height="333pt"
 viewBox="0.00 0.00 258.00 333.00" xmlns="http://www.w3.org/2000/svg" xmlns:xlink="http://www.w3.org/1999/xlink">
<g id="graph0" class="graph" transform="scale(1 1) rotate(0) translate(4 329)">
<title>CO_User_Collection\set_tag</title>
<polygon fill="white" stroke="transparent" points="-4,4 -4,-329 254,-329 254,4 -4,4"/>
<!-- Node1 -->
<g id="node1" class="node">
<title>Node1</title>
<g id="a_node1"><a xlink:title=" ">
<polygon fill="#bfbfbf" stroke="black" points="143,-147.5 143,-177.5 250,-177.5 250,-147.5 143,-147.5"/>
<text text-anchor="start" x="151" y="-165.5" font-family="Helvetica,sans-Serif" font-size="10.00">CO_User_Collection</text>
<text text-anchor="middle" x="196.5" y="-154.5" font-family="Helvetica,sans-Serif" font-size="10.00">\set_tag</text>
</a>
</g>
</g>
<!-- Node2 -->
<g id="node2" class="node">
<title>Node2</title>
<g id="a_node2"><a xlink:href="a00276.html#ad1254d0e49f000883944fba0b4ce670d" target="_top" xlink:title=" ">
<polygon fill="white" stroke="black" points="0,-294.5 0,-324.5 107,-324.5 107,-294.5 0,-294.5"/>
<text text-anchor="start" x="8" y="-312.5" font-family="Helvetica,sans-Serif" font-size="10.00">CO_User_Collection</text>
<text text-anchor="middle" x="53.5" y="-301.5" font-family="Helvetica,sans-Serif" font-size="10.00">\set_given_name</text>
</a>
</g>
</g>
<!-- Node1&#45;&gt;Node2 -->
<g id="edge1" class="edge">
<title>Node1&#45;&gt;Node2</title>
<path fill="none" stroke="midnightblue" d="M183.23,-186.51C168.35,-213.62 141,-257.56 107,-285.5 102.97,-288.81 98.42,-291.76 93.71,-294.37"/>
<polygon fill="midnightblue" stroke="midnightblue" points="186.32,-188.15 187.96,-177.68 180.15,-184.84 186.32,-188.15"/>
</g>
<!-- Node3 -->
<g id="node3" class="node">
<title>Node3</title>
<g id="a_node3"><a xlink:href="a00276.html#a2ba17ba0df27d93adda9eb20d1249338" target="_top" xlink:title=" ">
<polygon fill="white" stroke="black" points="0,-245.5 0,-275.5 107,-275.5 107,-245.5 0,-245.5"/>
<text text-anchor="start" x="8" y="-263.5" font-family="Helvetica,sans-Serif" font-size="10.00">CO_User_Collection</text>
<text text-anchor="middle" x="53.5" y="-252.5" font-family="Helvetica,sans-Serif" font-size="10.00">\set_login</text>
</a>
</g>
</g>
<!-- Node1&#45;&gt;Node3 -->
<g id="edge2" class="edge">
<title>Node1&#45;&gt;Node3</title>
<path fill="none" stroke="midnightblue" d="M172.87,-184.36C155.73,-200.16 131.09,-221.31 107,-236.5 101.91,-239.71 96.33,-242.73 90.76,-245.48"/>
<polygon fill="midnightblue" stroke="midnightblue" points="175.28,-186.9 180.19,-177.51 170.5,-181.79 175.28,-186.9"/>
</g>
<!-- Node4 -->
<g id="node4" class="node">
<title>Node4</title>
<g id="a_node4"><a xlink:href="a00276.html#a4e60c1e03b490e38e441d4b8dbada19f" target="_top" xlink:title=" ">
<polygon fill="white" stroke="black" points="0,-196.5 0,-226.5 107,-226.5 107,-196.5 0,-196.5"/>
<text text-anchor="start" x="8" y="-214.5" font-family="Helvetica,sans-Serif" font-size="10.00">CO_User_Collection</text>
<text text-anchor="middle" x="53.5" y="-203.5" font-family="Helvetica,sans-Serif" font-size="10.00">\set_middle_name</text>
</a>
</g>
</g>
<!-- Node1&#45;&gt;Node4 -->
<g id="edge3" class="edge">
<title>Node1&#45;&gt;Node4</title>
<path fill="none" stroke="midnightblue" d="M142.58,-180.89C127.9,-185.99 112.13,-191.47 98.05,-196.36"/>
<polygon fill="midnightblue" stroke="midnightblue" points="143.75,-184.19 152.04,-177.6 141.45,-177.58 143.75,-184.19"/>
</g>
<!-- Node5 -->
<g id="node5" class="node">
<title>Node5</title>
<g id="a_node5"><a xlink:href="a00276.html#ac70dec96610b3e89b7888a3cab6aef72" target="_top" xlink:title=" ">
<polygon fill="white" stroke="black" points="0,-147.5 0,-177.5 107,-177.5 107,-147.5 0,-147.5"/>
<text text-anchor="start" x="8" y="-165.5" font-family="Helvetica,sans-Serif" font-size="10.00">CO_User_Collection</text>
<text text-anchor="middle" x="53.5" y="-154.5" font-family="Helvetica,sans-Serif" font-size="10.00">\set_nickname</text>
</a>
</g>
</g>
<!-- Node1&#45;&gt;Node5 -->
<g id="edge4" class="edge">
<title>Node1&#45;&gt;Node5</title>
<path fill="none" stroke="midnightblue" d="M132.95,-162.5C124.3,-162.5 115.49,-162.5 107.05,-162.5"/>
<polygon fill="midnightblue" stroke="midnightblue" points="133,-166 143,-162.5 133,-159 133,-166"/>
</g>
<!-- Node6 -->
<g id="node6" class="node">
<title>Node6</title>
<g id="a_node6"><a xlink:href="a00276.html#adbeef6102042c2ec1530502386a275c4" target="_top" xlink:title=" ">
<polygon fill="white" stroke="black" points="0,-98.5 0,-128.5 107,-128.5 107,-98.5 0,-98.5"/>
<text text-anchor="start" x="8" y="-116.5" font-family="Helvetica,sans-Serif" font-size="10.00">CO_User_Collection</text>
<text text-anchor="middle" x="53.5" y="-105.5" font-family="Helvetica,sans-Serif" font-size="10.00">\set_prefix</text>
</a>
</g>
</g>
<!-- Node1&#45;&gt;Node6 -->
<g id="edge5" class="edge">
<title>Node1&#45;&gt;Node6</title>
<path fill="none" stroke="midnightblue" d="M142.58,-144.11C127.9,-139.01 112.13,-133.53 98.05,-128.64"/>
<polygon fill="midnightblue" stroke="midnightblue" points="141.45,-147.42 152.04,-147.4 143.75,-140.81 141.45,-147.42"/>
</g>
<!-- Node7 -->
<g id="node7" class="node">
<title>Node7</title>
<g id="a_node7"><a xlink:href="a00276.html#af4643580a79e531d9e78c75c67c21388" target="_top" xlink:title=" ">
<polygon fill="white" stroke="black" points="0,-49.5 0,-79.5 107,-79.5 107,-49.5 0,-49.5"/>
<text text-anchor="start" x="8" y="-67.5" font-family="Helvetica,sans-Serif" font-size="10.00">CO_User_Collection</text>
<text text-anchor="middle" x="53.5" y="-56.5" font-family="Helvetica,sans-Serif" font-size="10.00">\set_suffix</text>
</a>
</g>
</g>
<!-- Node1&#45;&gt;Node7 -->
<g id="edge6" class="edge">
<title>Node1&#45;&gt;Node7</title>
<path fill="none" stroke="midnightblue" d="M171.65,-140.08C154.51,-124.68 130.39,-104.39 107,-89.5 101.47,-85.98 95.36,-82.63 89.32,-79.6"/>
<polygon fill="midnightblue" stroke="midnightblue" points="169.73,-143.06 179.47,-147.21 174.44,-137.89 169.73,-143.06"/>
</g>
<!-- Node8 -->
<g id="node8" class="node">
<title>Node8</title>
<g id="a_node8"><a xlink:href="a00276.html#a28a62f95bbfbb511f01a2b8a3eb3db6f" target="_top" xlink:title=" ">
<polygon fill="white" stroke="black" points="0,-0.5 0,-30.5 107,-30.5 107,-0.5 0,-0.5"/>
<text text-anchor="start" x="8" y="-18.5" font-family="Helvetica,sans-Serif" font-size="10.00">CO_User_Collection</text>
<text text-anchor="middle" x="53.5" y="-7.5" font-family="Helvetica,sans-Serif" font-size="10.00">\set_surname</text>
</a>
</g>
</g>
<!-- Node1&#45;&gt;Node8 -->
<g id="edge7" class="edge">
<title>Node1&#45;&gt;Node8</title>
<path fill="none" stroke="midnightblue" d="M182.66,-138C167.58,-111.15 140.33,-68.22 107,-40.5 102.5,-36.76 97.34,-33.42 92.06,-30.51"/>
<polygon fill="midnightblue" stroke="midnightblue" points="179.78,-140.02 187.66,-147.1 185.92,-136.65 179.78,-140.02"/>
</g>
</g>
</svg>
