<?xml version="1.0" encoding="UTF-8" standalone="no"?>
<!DOCTYPE svg PUBLIC "-//W3C//DTD SVG 1.1//EN"
 "http://www.w3.org/Graphics/SVG/1.1/DTD/svg11.dtd">
<!-- Generated by graphviz version 2.47.1 (20210417.1919)
 -->
<!-- Title: CO_Place\set_tags_from_address_elements Pages: 1 -->
<svg width="959pt" height="130pt"
 viewBox="0.00 0.00 959.00 130.00" xmlns="http://www.w3.org/2000/svg" xmlns:xlink="http://www.w3.org/1999/xlink">
<g id="graph0" class="graph" transform="scale(1 1) rotate(0) translate(4 126)">
<title>CO_Place\set_tags_from_address_elements</title>
<polygon fill="white" stroke="transparent" points="-4,4 -4,-126 955,-126 955,4 -4,4"/>
<!-- Node1 -->
<g id="node1" class="node">
<title>Node1</title>
<g id="a_node1"><a xlink:title=" ">
<polygon fill="#bfbfbf" stroke="black" points="0,-44.5 0,-74.5 127,-74.5 127,-44.5 0,-44.5"/>
<text text-anchor="start" x="8" y="-62.5" font-family="Helvetica,sans-Serif" font-size="10.00">CO_Place\set_tags_from</text>
<text text-anchor="middle" x="63.5" y="-51.5" font-family="Helvetica,sans-Serif" font-size="10.00">_address_elements</text>
</a>
</g>
</g>
<!-- Node2 -->
<g id="node2" class="node">
<title>Node2</title>
<g id="a_node2"><a xlink:href="a00260.html#a60b73dee76e98e806f4a872cca13ee58" target="_top" xlink:title=" ">
<polygon fill="white" stroke="black" points="179,-66.5 179,-96.5 302,-96.5 302,-66.5 179,-66.5"/>
<text text-anchor="start" x="187" y="-84.5" font-family="Helvetica,sans-Serif" font-size="10.00">CO_Place\_get_address</text>
<text text-anchor="middle" x="240.5" y="-73.5" font-family="Helvetica,sans-Serif" font-size="10.00">_element_labels</text>
</a>
</g>
</g>
<!-- Node1&#45;&gt;Node2 -->
<g id="edge1" class="edge">
<title>Node1&#45;&gt;Node2</title>
<path fill="none" stroke="midnightblue" d="M127.18,-67.38C140.55,-69.06 154.76,-70.85 168.41,-72.56"/>
<polygon fill="midnightblue" stroke="midnightblue" points="168.36,-76.08 178.72,-73.86 169.23,-69.14 168.36,-76.08"/>
</g>
<!-- Node3 -->
<g id="node3" class="node">
<title>Node3</title>
<g id="a_node3"><a xlink:href="a00316.html#a84074211704eba98c263bd7122cd13f7" target="_top" xlink:title=" ">
<polygon fill="white" stroke="black" points="163,-28 163,-47 318,-47 318,-28 163,-28"/>
<text text-anchor="middle" x="240.5" y="-35" font-family="Helvetica,sans-Serif" font-size="10.00">CO_Main_DB_Record\set_tags</text>
</a>
</g>
</g>
<!-- Node1&#45;&gt;Node3 -->
<g id="edge2" class="edge">
<title>Node1&#45;&gt;Node3</title>
<path fill="none" stroke="midnightblue" d="M127.18,-51.62C135.81,-50.54 144.78,-49.41 153.73,-48.28"/>
<polygon fill="midnightblue" stroke="midnightblue" points="154.32,-51.74 163.8,-47.02 153.44,-44.79 154.32,-51.74"/>
</g>
<!-- Node4 -->
<g id="node4" class="node">
<title>Node4</title>
<g id="a_node4"><a xlink:href="a00308.html#a7487697640051c6661b8cdca6f109959" target="_top" xlink:title=" ">
<polygon fill="white" stroke="black" points="354,-44.5 354,-74.5 473,-74.5 473,-44.5 354,-44.5"/>
<text text-anchor="start" x="362" y="-62.5" font-family="Helvetica,sans-Serif" font-size="10.00">A_CO_DB_Table_Base</text>
<text text-anchor="middle" x="413.5" y="-51.5" font-family="Helvetica,sans-Serif" font-size="10.00">\update_db</text>
</a>
</g>
</g>
<!-- Node3&#45;&gt;Node4 -->
<g id="edge3" class="edge">
<title>Node3&#45;&gt;Node4</title>
<path fill="none" stroke="midnightblue" d="M315.51,-47.02C324.92,-48.23 334.52,-49.47 343.85,-50.67"/>
<polygon fill="midnightblue" stroke="midnightblue" points="343.47,-54.15 353.83,-51.95 344.36,-47.2 343.47,-54.15"/>
</g>
<!-- Node10 -->
<g id="node10" class="node">
<title>Node10</title>
<g id="a_node10"><a xlink:href="a00308.html#a7d2537d7675ca572ad78096784fe4fe4" target="_top" xlink:title=" ">
<polygon fill="white" stroke="black" points="509,-0.5 509,-30.5 628,-30.5 628,-0.5 509,-0.5"/>
<text text-anchor="start" x="517" y="-18.5" font-family="Helvetica,sans-Serif" font-size="10.00">A_CO_DB_Table_Base</text>
<text text-anchor="middle" x="568.5" y="-7.5" font-family="Helvetica,sans-Serif" font-size="10.00">\user_can_write</text>
</a>
</g>
</g>
<!-- Node3&#45;&gt;Node10 -->
<g id="edge12" class="edge">
<title>Node3&#45;&gt;Node10</title>
<path fill="none" stroke="midnightblue" d="M318.34,-32.31C372.96,-28.63 445.7,-23.72 498.47,-20.16"/>
<polygon fill="midnightblue" stroke="midnightblue" points="499,-23.63 508.75,-19.46 498.53,-16.65 499,-23.63"/>
</g>
<!-- Node5 -->
<g id="node5" class="node">
<title>Node5</title>
<g id="a_node5"><a xlink:href="a00308.html#adda14b544e11934db3bf8130aeea0610" target="_top" xlink:title=" ">
<polygon fill="white" stroke="black" points="509,-49.5 509,-79.5 628,-79.5 628,-49.5 509,-49.5"/>
<text text-anchor="start" x="517" y="-67.5" font-family="Helvetica,sans-Serif" font-size="10.00">A_CO_DB_Table_Base</text>
<text text-anchor="middle" x="568.5" y="-56.5" font-family="Helvetica,sans-Serif" font-size="10.00">\_write_to_db</text>
</a>
</g>
</g>
<!-- Node4&#45;&gt;Node5 -->
<g id="edge4" class="edge">
<title>Node4&#45;&gt;Node5</title>
<path fill="none" stroke="midnightblue" d="M473.22,-61.42C481.54,-61.69 490.17,-61.97 498.67,-62.25"/>
<polygon fill="midnightblue" stroke="midnightblue" points="498.83,-65.76 508.94,-62.59 499.06,-58.76 498.83,-65.76"/>
</g>
<!-- Node4&#45;&gt;Node10 -->
<g id="edge10" class="edge">
<title>Node4&#45;&gt;Node10</title>
<path fill="none" stroke="midnightblue" d="M466.73,-44.48C479.21,-40.89 492.66,-37.02 505.54,-33.32"/>
<polygon fill="midnightblue" stroke="midnightblue" points="506.61,-36.65 515.25,-30.53 504.67,-29.93 506.61,-36.65"/>
</g>
<!-- Node6 -->
<g id="node6" class="node">
<title>Node6</title>
<g id="a_node6"><a xlink:href="a00308.html#a6109c37c5e61ab04ea710b1ebb7615a5" target="_top" xlink:title=" ">
<polygon fill="white" stroke="black" points="664,-91.5 664,-121.5 785,-121.5 785,-91.5 664,-91.5"/>
<text text-anchor="start" x="672" y="-109.5" font-family="Helvetica,sans-Serif" font-size="10.00">A_CO_DB_Table_Base</text>
<text text-anchor="middle" x="724.5" y="-98.5" font-family="Helvetica,sans-Serif" font-size="10.00">\_build_parameter_array</text>
</a>
</g>
</g>
<!-- Node5&#45;&gt;Node6 -->
<g id="edge5" class="edge">
<title>Node5&#45;&gt;Node6</title>
<path fill="none" stroke="midnightblue" d="M624.66,-79.54C635.68,-82.55 647.34,-85.73 658.65,-88.81"/>
<polygon fill="midnightblue" stroke="midnightblue" points="657.9,-92.24 668.46,-91.49 659.74,-85.48 657.9,-92.24"/>
</g>
<!-- Node8 -->
<g id="node8" class="node">
<title>Node8</title>
<g id="a_node8"><a xlink:href="a00308.html#a78affe18a811930d4012fd265e95cdca" target="_top" xlink:title=" ">
<polygon fill="white" stroke="black" points="821,-53 821,-72 951,-72 951,-53 821,-53"/>
<text text-anchor="middle" x="886" y="-60" font-family="Helvetica,sans-Serif" font-size="10.00">A_CO_DB_Table_Base\id</text>
</a>
</g>
</g>
<!-- Node5&#45;&gt;Node8 -->
<g id="edge9" class="edge">
<title>Node5&#45;&gt;Node8</title>
<path fill="none" stroke="midnightblue" d="M628.1,-64.13C679.61,-63.8 754.82,-63.33 810.57,-62.97"/>
<polygon fill="midnightblue" stroke="midnightblue" points="810.76,-66.47 820.74,-62.91 810.72,-59.47 810.76,-66.47"/>
</g>
<!-- Node9 -->
<g id="node9" class="node">
<title>Node9</title>
<g id="a_node9"><a xlink:href="a00308.html#a8780b40e55827b90bb441671faec2a05" target="_top" xlink:title=" ">
<polygon fill="white" stroke="black" points="665,-2.5 665,-32.5 784,-32.5 784,-2.5 665,-2.5"/>
<text text-anchor="start" x="673" y="-20.5" font-family="Helvetica,sans-Serif" font-size="10.00">A_CO_DB_Table_Base</text>
<text text-anchor="middle" x="724.5" y="-9.5" font-family="Helvetica,sans-Serif" font-size="10.00">\get_access_object</text>
</a>
</g>
</g>
<!-- Node5&#45;&gt;Node9 -->
<g id="edge8" class="edge">
<title>Node5&#45;&gt;Node9</title>
<path fill="none" stroke="midnightblue" d="M618.65,-49.5C633.24,-45.05 649.36,-40.13 664.51,-35.5"/>
<polygon fill="midnightblue" stroke="midnightblue" points="665.75,-38.79 674.29,-32.52 663.7,-32.09 665.75,-38.79"/>
</g>
<!-- Node7 -->
<g id="node7" class="node">
<title>Node7</title>
<g id="a_node7"><a xlink:href="a00308.html#afb32d1e32b8e1c1de2e008c9b88f7846" target="_top" xlink:title=" ">
<polygon fill="white" stroke="black" points="826.5,-91.5 826.5,-121.5 945.5,-121.5 945.5,-91.5 826.5,-91.5"/>
<text text-anchor="start" x="834.5" y="-109.5" font-family="Helvetica,sans-Serif" font-size="10.00">A_CO_DB_Table_Base</text>
<text text-anchor="middle" x="886" y="-98.5" font-family="Helvetica,sans-Serif" font-size="10.00">\_badger_serialize</text>
</a>
</g>
</g>
<!-- Node6&#45;&gt;Node7 -->
<g id="edge6" class="edge">
<title>Node6&#45;&gt;Node7</title>
<path fill="none" stroke="midnightblue" d="M785.35,-106.5C795.42,-106.5 805.95,-106.5 816.23,-106.5"/>
<polygon fill="midnightblue" stroke="midnightblue" points="816.41,-110 826.41,-106.5 816.41,-103 816.41,-110"/>
</g>
<!-- Node6&#45;&gt;Node8 -->
<g id="edge7" class="edge">
<title>Node6&#45;&gt;Node8</title>
<path fill="none" stroke="midnightblue" d="M779.94,-91.48C799.68,-86.04 821.72,-79.96 840.5,-74.78"/>
<polygon fill="midnightblue" stroke="midnightblue" points="841.57,-78.11 850.28,-72.08 839.71,-71.36 841.57,-78.11"/>
</g>
<!-- Node10&#45;&gt;Node9 -->
<g id="edge11" class="edge">
<title>Node10&#45;&gt;Node9</title>
<path fill="none" stroke="midnightblue" d="M628.16,-16.26C636.77,-16.37 645.71,-16.49 654.51,-16.6"/>
<polygon fill="midnightblue" stroke="midnightblue" points="654.7,-20.11 664.75,-16.74 654.79,-13.11 654.7,-20.11"/>
</g>
</g>
</svg>
