<?xml version="1.0" encoding="UTF-8" standalone="no"?>
<!DOCTYPE svg PUBLIC "-//W3C//DTD SVG 1.1//EN"
 "http://www.w3.org/Graphics/SVG/1.1/DTD/svg11.dtd">
<!-- Generated by graphviz version 2.40.1 (20161225.0304)
 -->
<!-- Title: CO_Chameleon\get_user_from_login Pages: 1 -->
<svg width="630pt" height="69pt"
 viewBox="0.00 0.00 630.22 69.00" xmlns="http://www.w3.org/2000/svg" xmlns:xlink="http://www.w3.org/1999/xlink">
<g id="graph0" class="graph" transform="scale(1 1) rotate(0) translate(4 65)">
<title>CO_Chameleon\get_user_from_login</title>
<polygon fill="#ffffff" stroke="transparent" points="-4,4 -4,-65 626.2246,-65 626.2246,4 -4,4"/>
<!-- Node1 -->
<g id="node1" class="node">
<title>Node1</title>
<g id="a_node1"><a xlink:title=" ">
<polygon fill="#bfbfbf" stroke="#000000" points="0,-18.5 0,-46.5 129.3984,-46.5 129.3984,-18.5 0,-18.5"/>
<text text-anchor="start" x="8" y="-34.5" font-family="Helvetica,sans-Serif" font-size="10.00" fill="#000000">CO_Chameleon\get_user</text>
<text text-anchor="middle" x="64.6992" y="-24.5" font-family="Helvetica,sans-Serif" font-size="10.00" fill="#000000">_from_login</text>
</a>
</g>
</g>
<!-- Node2 -->
<g id="node2" class="node">
<title>Node2</title>
<g id="a_node2"><a xlink:href="a00355.html#a18733db78e2a4cfe35c7a7a41e2f2072" target="_top" xlink:title=" ">
<polygon fill="#ffffff" stroke="#000000" points="165.3984,-42.5 165.3984,-60.5 305.3438,-60.5 305.3438,-42.5 165.3984,-42.5"/>
<text text-anchor="middle" x="235.3711" y="-48.5" font-family="Helvetica,sans-Serif" font-size="10.00" fill="#000000">CO_Access\generic_search</text>
</a>
</g>
</g>
<!-- Node1&#45;&gt;Node2 -->
<g id="edge1" class="edge">
<title>Node1&#45;&gt;Node2</title>
<path fill="none" stroke="#191970" d="M129.7098,-39.7373C138.0379,-40.6644 146.6403,-41.6221 155.1738,-42.5721"/>
<polygon fill="#191970" stroke="#191970" points="154.8134,-46.0535 165.1393,-43.6815 155.588,-39.0965 154.8134,-46.0535"/>
</g>
<!-- Node3 -->
<g id="node3" class="node">
<title>Node3</title>
<g id="a_node3"><a xlink:href="a00355.html#adbc6444fbac916f3a280f4a3ce4f067a" target="_top" xlink:title=" ">
<polygon fill="#ffffff" stroke="#000000" points="172.6177,-5.5 172.6177,-23.5 298.1245,-23.5 298.1245,-5.5 172.6177,-5.5"/>
<text text-anchor="middle" x="235.3711" y="-11.5" font-family="Helvetica,sans-Serif" font-size="10.00" fill="#000000">CO_Access\get_login_id</text>
</a>
</g>
</g>
<!-- Node1&#45;&gt;Node3 -->
<g id="edge2" class="edge">
<title>Node1&#45;&gt;Node3</title>
<path fill="none" stroke="#191970" d="M129.7098,-25.6436C140.3466,-24.5218 151.4308,-23.3528 162.2476,-22.212"/>
<polygon fill="#191970" stroke="#191970" points="162.9355,-25.659 172.5132,-21.1293 162.2012,-18.6976 162.9355,-25.659"/>
</g>
<!-- Node4 -->
<g id="node4" class="node">
<title>Node4</title>
<g id="a_node4"><a xlink:href="a00355.html#aeab406fa4ecc249662fa1e2e073341b2" target="_top" xlink:title=" ">
<polygon fill="#ffffff" stroke="#000000" points="341.3438,-.5 341.3438,-28.5 460.7324,-28.5 460.7324,-.5 341.3438,-.5"/>
<text text-anchor="start" x="349.3438" y="-16.5" font-family="Helvetica,sans-Serif" font-size="10.00" fill="#000000">CO_Access\get_single</text>
<text text-anchor="middle" x="401.0381" y="-6.5" font-family="Helvetica,sans-Serif" font-size="10.00" fill="#000000">_security_record_by_id</text>
</a>
</g>
</g>
<!-- Node3&#45;&gt;Node4 -->
<g id="edge3" class="edge">
<title>Node3&#45;&gt;Node4</title>
<path fill="none" stroke="#191970" d="M298.4753,-14.5C309.0773,-14.5 320.1373,-14.5 330.904,-14.5"/>
<polygon fill="#191970" stroke="#191970" points="331.1124,-18.0001 341.1123,-14.5 331.1123,-11.0001 331.1124,-18.0001"/>
</g>
<!-- Node5 -->
<g id="node5" class="node">
<title>Node5</title>
<g id="a_node5"><a xlink:href="a00355.html#a34c23aea84d5c32e600c512167c3497d" target="_top" xlink:title=" ">
<polygon fill="#ffffff" stroke="#000000" points="496.7324,-.5 496.7324,-28.5 622.2246,-28.5 622.2246,-.5 496.7324,-.5"/>
<text text-anchor="start" x="504.7324" y="-16.5" font-family="Helvetica,sans-Serif" font-size="10.00" fill="#000000">CO_Access\get_multiple</text>
<text text-anchor="middle" x="559.4785" y="-6.5" font-family="Helvetica,sans-Serif" font-size="10.00" fill="#000000">_security_records_by_id</text>
</a>
</g>
</g>
<!-- Node4&#45;&gt;Node5 -->
<g id="edge4" class="edge">
<title>Node4&#45;&gt;Node5</title>
<path fill="none" stroke="#191970" d="M460.9376,-14.5C469.3147,-14.5 477.9987,-14.5 486.5831,-14.5"/>
<polygon fill="#191970" stroke="#191970" points="486.5902,-18.0001 496.5902,-14.5 486.5902,-11.0001 486.5902,-18.0001"/>
</g>
</g>
</svg>
