<?xml version="1.0" encoding="UTF-8" standalone="no"?>
<!DOCTYPE svg PUBLIC "-//W3C//DTD SVG 1.1//EN"
 "http://www.w3.org/Graphics/SVG/1.1/DTD/svg11.dtd">
<!-- Generated by graphviz version 2.40.1 (20161225.0304)
 -->
<!-- Title: CO_Andisol\get_all_user_objects_with_access Pages: 1 -->
<svg width="323pt" height="37pt"
 viewBox="0.00 0.00 322.81 37.00" xmlns="http://www.w3.org/2000/svg" xmlns:xlink="http://www.w3.org/1999/xlink">
<g id="graph0" class="graph" transform="scale(1 1) rotate(0) translate(4 33)">
<title>CO_Andisol\get_all_user_objects_with_access</title>
<polygon fill="#ffffff" stroke="transparent" points="-4,4 -4,-33 318.8115,-33 318.8115,4 -4,4"/>
<!-- Node1 -->
<g id="node1" class="node">
<title>Node1</title>
<g id="a_node1"><a xlink:title=" ">
<polygon fill="#bfbfbf" stroke="#000000" points="0,-.5 0,-28.5 138.29,-28.5 138.29,-.5 0,-.5"/>
<text text-anchor="start" x="8" y="-16.5" font-family="Helvetica,sans-Serif" font-size="10.00" fill="#000000">CO_Andisol\get_all</text>
<text text-anchor="middle" x="69.145" y="-6.5" font-family="Helvetica,sans-Serif" font-size="10.00" fill="#000000">_user_objects_with_access</text>
</a>
</g>
</g>
<!-- Node2 -->
<g id="node2" class="node">
<title>Node2</title>
<g id="a_node2"><a xlink:href="a00216.html#acda267f1d6a8e496e167ed46fe590dc6" target="_top" xlink:title=" ">
<polygon fill="#ffffff" stroke="#000000" points="174.29,-.5 174.29,-28.5 314.8115,-28.5 314.8115,-.5 174.29,-.5"/>
<text text-anchor="start" x="182.29" y="-16.5" font-family="Helvetica,sans-Serif" font-size="10.00" fill="#000000">CO_Andisol\get_chameleon</text>
<text text-anchor="middle" x="244.5508" y="-6.5" font-family="Helvetica,sans-Serif" font-size="10.00" fill="#000000">_instance</text>
</a>
</g>
</g>
<!-- Node1&#45;&gt;Node2 -->
<g id="edge1" class="edge">
<title>Node1&#45;&gt;Node2</title>
<path fill="none" stroke="#191970" d="M138.47,-14.5C146.7757,-14.5 155.3116,-14.5 163.7613,-14.5"/>
<polygon fill="#191970" stroke="#191970" points="164.0042,-18.0001 174.0042,-14.5 164.0042,-11.0001 164.0042,-18.0001"/>
</g>
</g>
</svg>
