<?xml version="1.0" encoding="UTF-8" standalone="no"?>
<!DOCTYPE svg PUBLIC "-//W3C//DTD SVG 1.1//EN"
 "http://www.w3.org/Graphics/SVG/1.1/DTD/svg11.dtd">
<!-- Generated by graphviz version 2.40.1 (20161225.0304)
 -->
<!-- Title: CO_Andisol\current_login Pages: 1 -->
<svg width="741pt" height="89pt"
 viewBox="0.00 0.00 741.18 89.00" xmlns="http://www.w3.org/2000/svg" xmlns:xlink="http://www.w3.org/1999/xlink">
<g id="graph0" class="graph" transform="scale(1 1) rotate(0) translate(4 85)">
<title>CO_Andisol\current_login</title>
<polygon fill="#ffffff" stroke="transparent" points="-4,4 -4,-85 737.1797,-85 737.1797,4 -4,4"/>
<!-- Node1 -->
<g id="node1" class="node">
<title>Node1</title>
<g id="a_node1"><a xlink:title=" ">
<polygon fill="#bfbfbf" stroke="#000000" points="0,-52.5 0,-80.5 103.2607,-80.5 103.2607,-52.5 0,-52.5"/>
<text text-anchor="start" x="8" y="-68.5" font-family="Helvetica,sans-Serif" font-size="10.00" fill="#000000">CO_Andisol\current</text>
<text text-anchor="middle" x="51.6304" y="-58.5" font-family="Helvetica,sans-Serif" font-size="10.00" fill="#000000">_login</text>
</a>
</g>
</g>
<!-- Node2 -->
<g id="node2" class="node">
<title>Node2</title>
<g id="a_node2"><a xlink:href="a00219.html#a24cb5350928f501bb7567b6b9d7b20cd" target="_top" xlink:title=" ">
<polygon fill="#ffffff" stroke="#000000" points="139.2607,-57.5 139.2607,-75.5 276.4424,-75.5 276.4424,-57.5 139.2607,-57.5"/>
<text text-anchor="middle" x="207.8516" y="-63.5" font-family="Helvetica,sans-Serif" font-size="10.00" fill="#000000">CO_Andisol\get_login_item</text>
</a>
</g>
</g>
<!-- Node1&#45;&gt;Node2 -->
<g id="edge1" class="edge">
<title>Node1&#45;&gt;Node2</title>
<path fill="none" stroke="#191970" d="M103.6498,-66.5C111.8156,-66.5 120.4113,-66.5 129.0187,-66.5"/>
<polygon fill="#191970" stroke="#191970" points="129.1034,-70.0001 139.1033,-66.5 129.1033,-63.0001 129.1034,-70.0001"/>
</g>
<!-- Node3 -->
<g id="node3" class="node">
<title>Node3</title>
<g id="a_node3"><a xlink:href="a00219.html#acda267f1d6a8e496e167ed46fe590dc6" target="_top" xlink:title=" ">
<polygon fill="#ffffff" stroke="#000000" points="592.6582,-33.5 592.6582,-61.5 733.1797,-61.5 733.1797,-33.5 592.6582,-33.5"/>
<text text-anchor="start" x="600.6582" y="-49.5" font-family="Helvetica,sans-Serif" font-size="10.00" fill="#000000">CO_Andisol\get_chameleon</text>
<text text-anchor="middle" x="662.9189" y="-39.5" font-family="Helvetica,sans-Serif" font-size="10.00" fill="#000000">_instance</text>
</a>
</g>
</g>
<!-- Node2&#45;&gt;Node3 -->
<g id="edge2" class="edge">
<title>Node2&#45;&gt;Node3</title>
<path fill="none" stroke="#191970" d="M276.4947,-68.3676C346.9405,-69.6157 459.6541,-69.7568 556.6582,-61.5 564.9869,-60.7911 573.6646,-59.8999 582.3124,-58.9122"/>
<polygon fill="#191970" stroke="#191970" points="582.909,-62.3661 592.4276,-57.7135 582.0852,-55.4147 582.909,-62.3661"/>
</g>
<!-- Node4 -->
<g id="node4" class="node">
<title>Node4</title>
<g id="a_node4"><a xlink:href="a00219.html#ac2a2dcb99dc927789b0ffa09c24946de" target="_top" xlink:title=" ">
<polygon fill="#ffffff" stroke="#000000" points="312.4424,-38.5 312.4424,-56.5 427.9541,-56.5 427.9541,-38.5 312.4424,-38.5"/>
<text text-anchor="middle" x="370.1982" y="-44.5" font-family="Helvetica,sans-Serif" font-size="10.00" fill="#000000">CO_Andisol\logged_in</text>
</a>
</g>
</g>
<!-- Node2&#45;&gt;Node4 -->
<g id="edge3" class="edge">
<title>Node2&#45;&gt;Node4</title>
<path fill="none" stroke="#191970" d="M276.7012,-58.4423C285.1184,-57.4572 293.7167,-56.4509 302.1226,-55.4671"/>
<polygon fill="#191970" stroke="#191970" points="302.7299,-58.92 312.2553,-54.2813 301.9162,-51.9675 302.7299,-58.92"/>
</g>
<!-- Node4&#45;&gt;Node3 -->
<g id="edge4" class="edge">
<title>Node4&#45;&gt;Node3</title>
<path fill="none" stroke="#191970" d="M428.0304,-47.5C472.1295,-47.5 533.4042,-47.5 582.3123,-47.5"/>
<polygon fill="#191970" stroke="#191970" points="582.5505,-51.0001 592.5505,-47.5 582.5504,-44.0001 582.5505,-51.0001"/>
</g>
<!-- Node5 -->
<g id="node5" class="node">
<title>Node5</title>
<g id="a_node5"><a xlink:href="a00219.html#a4b0ec12b29ce4812cbb4169b68770f66" target="_top" xlink:title=" ">
<polygon fill="#ffffff" stroke="#000000" points="463.9541,-.5 463.9541,-18.5 556.6582,-18.5 556.6582,-.5 463.9541,-.5"/>
<text text-anchor="middle" x="510.3062" y="-6.5" font-family="Helvetica,sans-Serif" font-size="10.00" fill="#000000">CO_Andisol\valid</text>
</a>
</g>
</g>
<!-- Node4&#45;&gt;Node5 -->
<g id="edge5" class="edge">
<title>Node4&#45;&gt;Node5</title>
<path fill="none" stroke="#191970" d="M403.4019,-38.4945C422.4563,-33.3266 446.5956,-26.7795 467.1125,-21.215"/>
<polygon fill="#191970" stroke="#191970" points="468.1202,-24.5682 476.8553,-18.5725 466.2878,-17.8123 468.1202,-24.5682"/>
</g>
<!-- Node5&#45;&gt;Node3 -->
<g id="edge6" class="edge">
<title>Node5&#45;&gt;Node3</title>
<path fill="none" stroke="#191970" d="M546.4733,-18.5055C561.4309,-22.2299 579.265,-26.6705 596.4259,-30.9435"/>
<polygon fill="#191970" stroke="#191970" points="595.8759,-34.4133 606.4253,-33.4333 597.5673,-27.6207 595.8759,-34.4133"/>
</g>
</g>
</svg>
