<?xml version="1.0" encoding="UTF-8" standalone="no"?>
<!DOCTYPE svg PUBLIC "-//W3C//DTD SVG 1.1//EN"
 "http://www.w3.org/Graphics/SVG/1.1/DTD/svg11.dtd">
<!-- Generated by graphviz version 2.40.1 (20161225.0304)
 -->
<!-- Title: CO_Cobra\create_new_manager_login Pages: 1 -->
<svg width="628pt" height="64pt"
 viewBox="0.00 0.00 628.02 64.00" xmlns="http://www.w3.org/2000/svg" xmlns:xlink="http://www.w3.org/1999/xlink">
<g id="graph0" class="graph" transform="scale(1 1) rotate(0) translate(4 60)">
<title>CO_Cobra\create_new_manager_login</title>
<polygon fill="#ffffff" stroke="transparent" points="-4,4 -4,-60 624.0176,-60 624.0176,4 -4,4"/>
<!-- Node1 -->
<g id="node1" class="node">
<title>Node1</title>
<g id="a_node1"><a xlink:title=" ">
<polygon fill="#bfbfbf" stroke="#000000" points="0,-13.5 0,-41.5 118.2754,-41.5 118.2754,-13.5 0,-13.5"/>
<text text-anchor="start" x="8" y="-29.5" font-family="Helvetica,sans-Serif" font-size="10.00" fill="#000000">CO_Cobra\create_new</text>
<text text-anchor="middle" x="59.1377" y="-19.5" font-family="Helvetica,sans-Serif" font-size="10.00" fill="#000000">_manager_login</text>
</a>
</g>
</g>
<!-- Node2 -->
<g id="node2" class="node">
<title>Node2</title>
<g id="a_node2"><a xlink:href="a00239.html#a7710a3275a7b2dfdba8e00a8bd2c0f61" target="_top" xlink:title=" ">
<polygon fill="#ffffff" stroke="#000000" points="154.2754,-13.5 154.2754,-41.5 278.1123,-41.5 278.1123,-13.5 154.2754,-13.5"/>
<text text-anchor="start" x="162.2754" y="-29.5" font-family="Helvetica,sans-Serif" font-size="10.00" fill="#000000">CO_Cobra\_create_new</text>
<text text-anchor="middle" x="216.1938" y="-19.5" font-family="Helvetica,sans-Serif" font-size="10.00" fill="#000000">_login</text>
</a>
</g>
</g>
<!-- Node1&#45;&gt;Node2 -->
<g id="edge1" class="edge">
<title>Node1&#45;&gt;Node2</title>
<path fill="none" stroke="#191970" d="M118.5139,-27.5C126.7893,-27.5 135.3668,-27.5 143.8476,-27.5"/>
<polygon fill="#191970" stroke="#191970" points="144.1176,-31.0001 154.1176,-27.5 144.1175,-24.0001 144.1176,-31.0001"/>
</g>
<!-- Node3 -->
<g id="node3" class="node">
<title>Node3</title>
<g id="a_node3"><a xlink:href="a00239.html#a0815b59b59c157227c283e260ab2576f" target="_top" xlink:title=" ">
<polygon fill="#ffffff" stroke="#000000" points="314.1123,-37.5 314.1123,-55.5 452.9492,-55.5 452.9492,-37.5 314.1123,-37.5"/>
<text text-anchor="middle" x="383.5308" y="-43.5" font-family="Helvetica,sans-Serif" font-size="10.00" fill="#000000">CO_Cobra\get_security_ids</text>
</a>
</g>
</g>
<!-- Node2&#45;&gt;Node3 -->
<g id="edge2" class="edge">
<title>Node2&#45;&gt;Node3</title>
<path fill="none" stroke="#191970" d="M278.5039,-34.5749C286.7856,-35.5152 295.3666,-36.4895 303.8916,-37.4575"/>
<polygon fill="#191970" stroke="#191970" points="303.5212,-40.9378 313.8522,-38.5885 304.3109,-33.9825 303.5212,-40.9378"/>
</g>
<!-- Node4 -->
<g id="node4" class="node">
<title>Node4</title>
<g id="a_node4"><a xlink:href="a00343.html#aac538e52310a1c332914682a9c2ec8d2" target="_top" xlink:title=" ">
<polygon fill="#ffffff" stroke="#000000" points="316.0508,-.5 316.0508,-18.5 451.0107,-18.5 451.0107,-.5 316.0508,-.5"/>
<text text-anchor="middle" x="383.5308" y="-6.5" font-family="Helvetica,sans-Serif" font-size="10.00" fill="#000000">CO_Security_Login\is_god</text>
</a>
</g>
</g>
<!-- Node2&#45;&gt;Node4 -->
<g id="edge3" class="edge">
<title>Node2&#45;&gt;Node4</title>
<path fill="none" stroke="#191970" d="M278.5039,-20.7975C287.3483,-19.8461 296.5338,-18.858 305.6281,-17.8798"/>
<polygon fill="#191970" stroke="#191970" points="306.2657,-21.3315 315.834,-16.782 305.517,-14.3716 306.2657,-21.3315"/>
</g>
<!-- Node5 -->
<g id="node5" class="node">
<title>Node5</title>
<g id="a_node5"><a xlink:href="a00311.html#a78affe18a811930d4012fd265e95cdca" target="_top" xlink:title=" ">
<polygon fill="#ffffff" stroke="#000000" points="488.9492,-.5 488.9492,-18.5 620.0176,-18.5 620.0176,-.5 488.9492,-.5"/>
<text text-anchor="middle" x="554.4834" y="-6.5" font-family="Helvetica,sans-Serif" font-size="10.00" fill="#000000">A_CO_DB_Table_Base\id</text>
</a>
</g>
</g>
<!-- Node4&#45;&gt;Node5 -->
<g id="edge4" class="edge">
<title>Node4&#45;&gt;Node5</title>
<path fill="none" stroke="#191970" d="M451.0958,-9.5C460.1144,-9.5 469.4115,-9.5 478.5608,-9.5"/>
<polygon fill="#191970" stroke="#191970" points="478.8051,-13.0001 488.805,-9.5 478.805,-6.0001 478.8051,-13.0001"/>
</g>
</g>
</svg>
