<?xml version="1.0" encoding="UTF-8" standalone="no"?>
<!DOCTYPE svg PUBLIC "-//W3C//DTD SVG 1.1//EN"
 "http://www.w3.org/Graphics/SVG/1.1/DTD/svg11.dtd">
<!-- Generated by graphviz version 2.47.1 (20210417.1919)
 -->
<!-- Title: CO_Andisol\get_login_item_by_login_string Pages: 1 -->
<svg width="570pt" height="91pt"
 viewBox="0.00 0.00 570.00 90.50" xmlns="http://www.w3.org/2000/svg" xmlns:xlink="http://www.w3.org/1999/xlink">
<g id="graph0" class="graph" transform="scale(1 1) rotate(0) translate(4 86.5)">
<title>CO_Andisol\get_login_item_by_login_string</title>
<polygon fill="white" stroke="transparent" points="-4,4 -4,-86.5 566,-86.5 566,4 -4,4"/>
<!-- Node1 -->
<g id="node1" class="node">
<title>Node1</title>
<g id="a_node1"><a xlink:title=" ">
<polygon fill="#bfbfbf" stroke="black" points="0,-52 0,-82 111,-82 111,-52 0,-52"/>
<text text-anchor="start" x="8" y="-70" font-family="Helvetica,sans-Serif" font-size="10.00">CO_Andisol\get_login</text>
<text text-anchor="middle" x="55.5" y="-59" font-family="Helvetica,sans-Serif" font-size="10.00">_item_by_login_string</text>
</a>
</g>
</g>
<!-- Node2 -->
<g id="node2" class="node">
<title>Node2</title>
<g id="a_node2"><a xlink:href="a00216.html#acda267f1d6a8e496e167ed46fe590dc6" target="_top" xlink:title=" ">
<polygon fill="white" stroke="black" points="424,-33 424,-63 562,-63 562,-33 424,-33"/>
<text text-anchor="start" x="432" y="-51" font-family="Helvetica,sans-Serif" font-size="10.00">CO_Andisol\get_chameleon</text>
<text text-anchor="middle" x="493" y="-40" font-family="Helvetica,sans-Serif" font-size="10.00">_instance</text>
</a>
</g>
</g>
<!-- Node1&#45;&gt;Node2 -->
<g id="edge1" class="edge">
<title>Node1&#45;&gt;Node2</title>
<path fill="none" stroke="midnightblue" d="M111.17,-68.56C176.99,-69.88 290.8,-70.42 388,-62 396.35,-61.28 405.06,-60.36 413.72,-59.35"/>
<polygon fill="midnightblue" stroke="midnightblue" points="414.35,-62.8 423.85,-58.11 413.5,-55.85 414.35,-62.8"/>
</g>
<!-- Node3 -->
<g id="node3" class="node">
<title>Node3</title>
<g id="a_node3"><a xlink:href="a00216.html#ac2a2dcb99dc927789b0ffa09c24946de" target="_top" xlink:title=" ">
<polygon fill="white" stroke="black" points="147,-38.5 147,-57.5 260,-57.5 260,-38.5 147,-38.5"/>
<text text-anchor="middle" x="203.5" y="-45.5" font-family="Helvetica,sans-Serif" font-size="10.00">CO_Andisol\logged_in</text>
</a>
</g>
</g>
<!-- Node1&#45;&gt;Node3 -->
<g id="edge2" class="edge">
<title>Node1&#45;&gt;Node3</title>
<path fill="none" stroke="midnightblue" d="M111.28,-59.87C119.66,-58.78 128.37,-57.65 136.95,-56.53"/>
<polygon fill="midnightblue" stroke="midnightblue" points="137.46,-59.99 146.93,-55.23 136.56,-53.05 137.46,-59.99"/>
</g>
<!-- Node3&#45;&gt;Node2 -->
<g id="edge3" class="edge">
<title>Node3&#45;&gt;Node2</title>
<path fill="none" stroke="midnightblue" d="M260.27,-48C303.95,-48 365.23,-48 413.81,-48"/>
<polygon fill="midnightblue" stroke="midnightblue" points="413.97,-51.5 423.97,-48 413.97,-44.5 413.97,-51.5"/>
</g>
<!-- Node4 -->
<g id="node4" class="node">
<title>Node4</title>
<g id="a_node4"><a xlink:href="a00216.html#a4b0ec12b29ce4812cbb4169b68770f66" target="_top" xlink:title=" ">
<polygon fill="white" stroke="black" points="296,-0.5 296,-19.5 388,-19.5 388,-0.5 296,-0.5"/>
<text text-anchor="middle" x="342" y="-7.5" font-family="Helvetica,sans-Serif" font-size="10.00">CO_Andisol\valid</text>
</a>
</g>
</g>
<!-- Node3&#45;&gt;Node4 -->
<g id="edge4" class="edge">
<title>Node3&#45;&gt;Node4</title>
<path fill="none" stroke="midnightblue" d="M238.94,-38.41C256.48,-33.53 278.01,-27.54 296.76,-22.32"/>
<polygon fill="midnightblue" stroke="midnightblue" points="297.87,-25.64 306.57,-19.59 295.99,-18.9 297.87,-25.64"/>
</g>
<!-- Node4&#45;&gt;Node2 -->
<g id="edge5" class="edge">
<title>Node4&#45;&gt;Node2</title>
<path fill="none" stroke="midnightblue" d="M380.6,-19.59C393.49,-22.88 408.35,-26.67 422.93,-30.38"/>
<polygon fill="midnightblue" stroke="midnightblue" points="422.4,-33.86 432.95,-32.94 424.13,-27.08 422.4,-33.86"/>
</g>
</g>
</svg>
