<?xml version="1.0" encoding="UTF-8" standalone="no"?>
<!DOCTYPE svg PUBLIC "-//W3C//DTD SVG 1.1//EN"
 "http://www.w3.org/Graphics/SVG/1.1/DTD/svg11.dtd">
<!-- Generated by graphviz version 2.40.1 (20161225.0304)
 -->
<!-- Title: CO_Place\__construct Pages: 1 -->
<svg width="629pt" height="134pt"
 viewBox="0.00 0.00 629.15 134.00" xmlns="http://www.w3.org/2000/svg" xmlns:xlink="http://www.w3.org/1999/xlink">
<g id="graph0" class="graph" transform="scale(1 1) rotate(0) translate(4 130)">
<title>CO_Place\__construct</title>
<polygon fill="#ffffff" stroke="transparent" points="-4,4 -4,-130 625.1504,-130 625.1504,4 -4,4"/>
<!-- Node1 -->
<g id="node1" class="node">
<title>Node1</title>
<g id="a_node1"><a xlink:title=" ">
<polygon fill="#bfbfbf" stroke="#000000" points="0,-38.5 0,-56.5 116.0488,-56.5 116.0488,-38.5 0,-38.5"/>
<text text-anchor="middle" x="58.0244" y="-44.5" font-family="Helvetica,sans-Serif" font-size="10.00" fill="#000000">CO_Place\__construct</text>
</a>
</g>
</g>
<!-- Node2 -->
<g id="node2" class="node">
<title>Node2</title>
<g id="a_node2"><a xlink:href="a00260.html#a94507f0c219ba9bc342e40d6064941db" target="_top" xlink:title=" ">
<polygon fill="#ffffff" stroke="#000000" points="161.2163,-54.5 161.2163,-82.5 280.0483,-82.5 280.0483,-54.5 161.2163,-54.5"/>
<text text-anchor="start" x="169.2163" y="-70.5" font-family="Helvetica,sans-Serif" font-size="10.00" fill="#000000">CO_Place\set_address</text>
<text text-anchor="middle" x="220.6323" y="-60.5" font-family="Helvetica,sans-Serif" font-size="10.00" fill="#000000">_elements</text>
</a>
</g>
</g>
<!-- Node1&#45;&gt;Node2 -->
<g id="edge1" class="edge">
<title>Node1&#45;&gt;Node2</title>
<path fill="none" stroke="#191970" d="M116.2703,-55.0222C127.5477,-56.4786 139.4702,-58.0183 151.0673,-59.516"/>
<polygon fill="#191970" stroke="#191970" points="150.7846,-63.0085 161.1505,-60.8182 151.6812,-56.0661 150.7846,-63.0085"/>
</g>
<!-- Node7 -->
<g id="node7" class="node">
<title>Node7</title>
<g id="a_node7"><a xlink:href="a00316.html#a7f4c18f2ed2bda67f3c38fd95c120c0a" target="_top" xlink:title=" ">
<polygon fill="#ffffff" stroke="#000000" points="152.0488,-17.5 152.0488,-35.5 289.2158,-35.5 289.2158,-17.5 152.0488,-17.5"/>
<text text-anchor="middle" x="220.6323" y="-23.5" font-family="Helvetica,sans-Serif" font-size="10.00" fill="#000000">CO_Main_DB_Record\tags</text>
</a>
</g>
</g>
<!-- Node1&#45;&gt;Node7 -->
<g id="edge8" class="edge">
<title>Node1&#45;&gt;Node7</title>
<path fill="none" stroke="#191970" d="M116.2703,-39.9778C124.5888,-38.9035 133.2583,-37.7839 141.8893,-36.6693"/>
<polygon fill="#191970" stroke="#191970" points="142.511,-40.1181 151.9803,-35.3661 141.6144,-33.1758 142.511,-40.1181"/>
</g>
<!-- Node3 -->
<g id="node3" class="node">
<title>Node3</title>
<g id="a_node3"><a xlink:href="a00260.html#a60b73dee76e98e806f4a872cca13ee58" target="_top" xlink:title=" ">
<polygon fill="#ffffff" stroke="#000000" points="488.1216,-97.5 488.1216,-125.5 613.0767,-125.5 613.0767,-97.5 488.1216,-97.5"/>
<text text-anchor="start" x="496.1216" y="-113.5" font-family="Helvetica,sans-Serif" font-size="10.00" fill="#000000">CO_Place\_get_address</text>
<text text-anchor="middle" x="550.5991" y="-103.5" font-family="Helvetica,sans-Serif" font-size="10.00" fill="#000000">_element_labels</text>
</a>
</g>
</g>
<!-- Node2&#45;&gt;Node3 -->
<g id="edge2" class="edge">
<title>Node2&#45;&gt;Node3</title>
<path fill="none" stroke="#191970" d="M245.0125,-82.7043C265.6093,-93.8348 296.2929,-108.4203 325.2158,-114.5 375.3105,-125.03 433.058,-124.0155 477.5577,-120.5051"/>
<polygon fill="#191970" stroke="#191970" points="478.0375,-123.9771 487.7056,-119.6436 477.4453,-117.0022 478.0375,-123.9771"/>
</g>
<!-- Node4 -->
<g id="node4" class="node">
<title>Node4</title>
<g id="a_node4"><a xlink:href="a00260.html#a7b99eb196e710f9cf14ad39601e2b3ad" target="_top" xlink:title=" ">
<polygon fill="#ffffff" stroke="#000000" points="325.2158,-76.5 325.2158,-104.5 444.0479,-104.5 444.0479,-76.5 325.2158,-76.5"/>
<text text-anchor="start" x="333.2158" y="-92.5" font-family="Helvetica,sans-Serif" font-size="10.00" fill="#000000">CO_Place\set_address</text>
<text text-anchor="middle" x="384.6318" y="-82.5" font-family="Helvetica,sans-Serif" font-size="10.00" fill="#000000">_element</text>
</a>
</g>
</g>
<!-- Node2&#45;&gt;Node4 -->
<g id="edge3" class="edge">
<title>Node2&#45;&gt;Node4</title>
<path fill="none" stroke="#191970" d="M280.3038,-76.5047C291.5666,-78.0156 303.4378,-79.6081 314.9753,-81.1558"/>
<polygon fill="#191970" stroke="#191970" points="314.6282,-84.6405 325.0048,-82.5012 315.5589,-77.7027 314.6282,-84.6405"/>
</g>
<!-- Node5 -->
<g id="node5" class="node">
<title>Node5</title>
<g id="a_node5"><a xlink:href="a00332.html#aaa41a4de441030a1bc25875991cf00d0" target="_top" xlink:title=" ">
<polygon fill="#ffffff" stroke="#000000" points="480.0479,-60.5 480.0479,-78.5 621.1504,-78.5 621.1504,-60.5 480.0479,-60.5"/>
<text text-anchor="middle" x="550.5991" y="-66.5" font-family="Helvetica,sans-Serif" font-size="10.00" fill="#000000">CO_LL_Location\update_db</text>
</a>
</g>
</g>
<!-- Node2&#45;&gt;Node5 -->
<g id="edge7" class="edge">
<title>Node2&#45;&gt;Node5</title>
<path fill="none" stroke="#191970" d="M280.085,-67.166C294.8315,-66.8894 310.5975,-66.6398 325.2158,-66.5 378.0276,-65.9951 391.2388,-65.7567 444.0479,-66.5 452.3602,-66.617 461.0362,-66.7853 469.6923,-66.9833"/>
<polygon fill="#191970" stroke="#191970" points="469.74,-70.4854 479.8217,-67.2281 469.9092,-63.4874 469.74,-70.4854"/>
</g>
<!-- Node6 -->
<g id="node6" class="node">
<title>Node6</title>
<g id="a_node6"><a xlink:href="a00119.html#a732056c1b6e305a30aead472a1695e0c" target="_top" xlink:title=" ">
<polygon fill="#ffffff" stroke="#000000" points="346.3389,-.5 346.3389,-18.5 422.9248,-18.5 422.9248,-.5 346.3389,-.5"/>
<text text-anchor="middle" x="384.6318" y="-6.5" font-family="Helvetica,sans-Serif" font-size="10.00" fill="#000000">test_is_assoc</text>
</a>
</g>
</g>
<!-- Node2&#45;&gt;Node6 -->
<g id="edge6" class="edge">
<title>Node2&#45;&gt;Node6</title>
<path fill="none" stroke="#191970" d="M261.2851,-54.3867C270.4794,-51.1634 280.1905,-47.7342 289.2158,-44.5 309.6776,-37.1674 332.5409,-28.7874 350.7565,-22.0658"/>
<polygon fill="#191970" stroke="#191970" points="352.1866,-25.2687 360.3534,-18.5193 349.7601,-18.7027 352.1866,-25.2687"/>
</g>
<!-- Node4&#45;&gt;Node3 -->
<g id="edge4" class="edge">
<title>Node4&#45;&gt;Node3</title>
<path fill="none" stroke="#191970" d="M444.0811,-98.0222C454.9766,-99.4008 466.4623,-100.8541 477.6977,-102.2757"/>
<polygon fill="#191970" stroke="#191970" points="477.5612,-105.7863 487.9215,-103.5693 478.4399,-98.8416 477.5612,-105.7863"/>
</g>
<!-- Node4&#45;&gt;Node5 -->
<g id="edge5" class="edge">
<title>Node4&#45;&gt;Node5</title>
<path fill="none" stroke="#191970" d="M444.0811,-82.9778C452.4377,-81.9205 461.1414,-80.8192 469.8131,-79.7219"/>
<polygon fill="#191970" stroke="#191970" points="470.474,-83.1663 479.9555,-78.4386 469.5952,-76.2217 470.474,-83.1663"/>
</g>
</g>
</svg>
