<?xml version="1.0" encoding="UTF-8" standalone="no"?>
<!DOCTYPE svg PUBLIC "-//W3C//DTD SVG 1.1//EN"
 "http://www.w3.org/Graphics/SVG/1.1/DTD/svg11.dtd">
<!-- Generated by graphviz version 2.40.1 (20161225.0304)
 -->
<!-- Title: tCO_Collection\_set_up_container Pages: 1 -->
<svg width="256pt" height="37pt"
 viewBox="0.00 0.00 256.08 37.00" xmlns="http://www.w3.org/2000/svg" xmlns:xlink="http://www.w3.org/1999/xlink">
<g id="graph0" class="graph" transform="scale(1 1) rotate(0) translate(4 33)">
<title>tCO_Collection\_set_up_container</title>
<polygon fill="#ffffff" stroke="transparent" points="-4,4 -4,-33 252.0781,-33 252.0781,4 -4,4"/>
<!-- Node3 -->
<g id="node1" class="node">
<title>Node3</title>
<polygon fill="#bfbfbf" stroke="#000000" points="0,-.5 0,-28.5 104.9307,-28.5 104.9307,-.5 0,-.5"/>
<text text-anchor="start" x="8" y="-16.5" font-family="Helvetica,sans-Serif" font-size="10.00" fill="#000000">tCO_Collection\_set</text>
<text text-anchor="middle" x="52.4653" y="-6.5" font-family="Helvetica,sans-Serif" font-size="10.00" fill="#000000">_up_container</text>
</g>
<!-- Node4 -->
<g id="node2" class="node">
<title>Node4</title>
<g id="a_node2"><a xlink:href="a00279.html#a5e4a1184f9b7cde503f6749b277a4054" target="_top" xlink:title="CO_User_Collection\l\\load_from_db">
<polygon fill="#ffffff" stroke="#000000" points="140.9307,-.5 140.9307,-28.5 248.0781,-28.5 248.0781,-.5 140.9307,-.5"/>
<text text-anchor="start" x="148.9307" y="-16.5" font-family="Helvetica,sans-Serif" font-size="10.00" fill="#000000">CO_User_Collection</text>
<text text-anchor="middle" x="194.5044" y="-6.5" font-family="Helvetica,sans-Serif" font-size="10.00" fill="#000000">\load_from_db</text>
</a>
</g>
</g>
<!-- Node3&#45;&gt;Node4 -->
<g id="edge1" class="edge">
<title>Node3&#45;&gt;Node4</title>
<path fill="none" stroke="#191970" d="M114.9604,-14.5C123.5791,-14.5 132.3678,-14.5 140.8087,-14.5"/>
<polygon fill="#191970" stroke="#191970" points="114.9519,-11.0001 104.9519,-14.5 114.9518,-18.0001 114.9519,-11.0001"/>
</g>
</g>
</svg>
