<?xml version="1.0" encoding="UTF-8" standalone="no"?>
<!DOCTYPE svg PUBLIC "-//W3C//DTD SVG 1.1//EN"
 "http://www.w3.org/Graphics/SVG/1.1/DTD/svg11.dtd">
<!-- Generated by graphviz version 2.40.1 (20161225.0304)
 -->
<!-- Title: CO_Andisol\get_all_login_users Pages: 1 -->
<svg width="840pt" height="160pt"
 viewBox="0.00 0.00 839.87 160.00" xmlns="http://www.w3.org/2000/svg" xmlns:xlink="http://www.w3.org/1999/xlink">
<g id="graph0" class="graph" transform="scale(1 1) rotate(0) translate(4 156)">
<title>CO_Andisol\get_all_login_users</title>
<polygon fill="#ffffff" stroke="transparent" points="-4,4 -4,-156 835.874,-156 835.874,4 -4,4"/>
<!-- Node129 -->
<g id="node1" class="node">
<title>Node129</title>
<polygon fill="#bfbfbf" stroke="#000000" points="0,-99.5 0,-127.5 101.6055,-127.5 101.6055,-99.5 0,-99.5"/>
<text text-anchor="start" x="8" y="-115.5" font-family="Helvetica,sans-Serif" font-size="10.00" fill="#000000">CO_Andisol\get_all</text>
<text text-anchor="middle" x="50.8027" y="-105.5" font-family="Helvetica,sans-Serif" font-size="10.00" fill="#000000">_login_users</text>
</g>
<!-- Node130 -->
<g id="node2" class="node">
<title>Node130</title>
<g id="a_node2"><a xlink:href="a00219.html#ac76d9996071a383e8723e13ea1544800" target="_top" xlink:title="CO_Andisol\\generic\l_search">
<polygon fill="#ffffff" stroke="#000000" points="265.7627,-123.5 265.7627,-151.5 370.6982,-151.5 370.6982,-123.5 265.7627,-123.5"/>
<text text-anchor="start" x="273.7627" y="-139.5" font-family="Helvetica,sans-Serif" font-size="10.00" fill="#000000">CO_Andisol\generic</text>
<text text-anchor="middle" x="318.2305" y="-129.5" font-family="Helvetica,sans-Serif" font-size="10.00" fill="#000000">_search</text>
</a>
</g>
</g>
<!-- Node129&#45;&gt;Node130 -->
<g id="edge1" class="edge">
<title>Node129&#45;&gt;Node130</title>
<path fill="none" stroke="#191970" d="M101.7333,-118.0707C145.5012,-121.9986 208.7782,-127.6773 255.6287,-131.8819"/>
<polygon fill="#191970" stroke="#191970" points="255.3893,-135.3744 265.6621,-132.7823 256.015,-128.4024 255.3893,-135.3744"/>
</g>
<!-- Node132 -->
<g id="node4" class="node">
<title>Node132</title>
<g id="a_node4"><a xlink:href="a00219.html#a370ab6e2bb53c900f25a6005d0e5077d" target="_top" xlink:title="CO_Andisol\\god">
<polygon fill="#ffffff" stroke="#000000" points="137.6055,-85.5 137.6055,-103.5 226.4277,-103.5 226.4277,-85.5 137.6055,-85.5"/>
<text text-anchor="middle" x="182.0166" y="-91.5" font-family="Helvetica,sans-Serif" font-size="10.00" fill="#000000">CO_Andisol\god</text>
</a>
</g>
</g>
<!-- Node129&#45;&gt;Node132 -->
<g id="edge3" class="edge">
<title>Node129&#45;&gt;Node132</title>
<path fill="none" stroke="#191970" d="M101.9092,-106.0997C110.1967,-104.8996 118.8093,-103.6525 127.1812,-102.4403"/>
<polygon fill="#191970" stroke="#191970" points="127.8406,-105.8814 137.2358,-100.9843 126.8374,-98.9536 127.8406,-105.8814"/>
</g>
<!-- Node131 -->
<g id="node3" class="node">
<title>Node131</title>
<g id="a_node3"><a xlink:href="a00219.html#acda267f1d6a8e496e167ed46fe590dc6" target="_top" xlink:title="CO_Andisol\\get_chameleon\l_instance">
<polygon fill="#ffffff" stroke="#000000" points="691.3525,-61.5 691.3525,-89.5 831.874,-89.5 831.874,-61.5 691.3525,-61.5"/>
<text text-anchor="start" x="699.3525" y="-77.5" font-family="Helvetica,sans-Serif" font-size="10.00" fill="#000000">CO_Andisol\get_chameleon</text>
<text text-anchor="middle" x="761.6133" y="-67.5" font-family="Helvetica,sans-Serif" font-size="10.00" fill="#000000">_instance</text>
</a>
</g>
</g>
<!-- Node130&#45;&gt;Node131 -->
<g id="edge2" class="edge">
<title>Node130&#45;&gt;Node131</title>
<path fill="none" stroke="#191970" d="M370.9826,-136.4658C437.7563,-134.3578 556.0532,-127.954 655.3525,-108.5 674.7063,-104.7084 695.5235,-98.6925 713.5588,-92.8295"/>
<polygon fill="#191970" stroke="#191970" points="714.8798,-96.0788 723.2653,-89.6031 712.6718,-89.4361 714.8798,-96.0788"/>
</g>
<!-- Node132&#45;&gt;Node131 -->
<g id="edge10" class="edge">
<title>Node132&#45;&gt;Node131</title>
<path fill="none" stroke="#191970" d="M226.5342,-93.0407C323.8648,-89.85 556.7841,-82.2146 680.7621,-78.1504"/>
<polygon fill="#191970" stroke="#191970" points="681.0744,-81.6422 690.9544,-77.8163 680.845,-74.6459 681.0744,-81.6422"/>
</g>
<!-- Node133 -->
<g id="node5" class="node">
<title>Node133</title>
<g id="a_node5"><a xlink:href="a00219.html#af5f39aa13714ad544a9099edb0d51cd5" target="_top" xlink:title="CO_Andisol\\manager">
<polygon fill="#ffffff" stroke="#000000" points="262.4277,-47.5 262.4277,-65.5 374.0332,-65.5 374.0332,-47.5 262.4277,-47.5"/>
<text text-anchor="middle" x="318.2305" y="-53.5" font-family="Helvetica,sans-Serif" font-size="10.00" fill="#000000">CO_Andisol\manager</text>
</a>
</g>
</g>
<!-- Node132&#45;&gt;Node133 -->
<g id="edge4" class="edge">
<title>Node132&#45;&gt;Node133</title>
<path fill="none" stroke="#191970" d="M214.2974,-85.4945C232.7381,-80.3501 256.0774,-73.839 275.9651,-68.2909"/>
<polygon fill="#191970" stroke="#191970" points="277.0177,-71.631 285.7093,-65.5725 275.1366,-64.8884 277.0177,-71.631"/>
</g>
<!-- Node134 -->
<g id="node6" class="node">
<title>Node134</title>
<g id="a_node6"><a xlink:href="a00219.html#ac2a2dcb99dc927789b0ffa09c24946de" target="_top" xlink:title="CO_Andisol\\logged_in">
<polygon fill="#ffffff" stroke="#000000" points="410.585,-47.5 410.585,-65.5 526.0967,-65.5 526.0967,-47.5 410.585,-47.5"/>
<text text-anchor="middle" x="468.3408" y="-53.5" font-family="Helvetica,sans-Serif" font-size="10.00" fill="#000000">CO_Andisol\logged_in</text>
</a>
</g>
</g>
<!-- Node133&#45;&gt;Node134 -->
<g id="edge5" class="edge">
<title>Node133&#45;&gt;Node134</title>
<path fill="none" stroke="#191970" d="M374.126,-56.5C382.6336,-56.5 391.4931,-56.5 400.2263,-56.5"/>
<polygon fill="#191970" stroke="#191970" points="400.3915,-60.0001 410.3915,-56.5 400.3915,-53.0001 400.3915,-60.0001"/>
</g>
<!-- Node136 -->
<g id="node8" class="node">
<title>Node136</title>
<g id="a_node8"><a xlink:href="a00219.html#a3605f036c8c634afaa74f67e5853a0ad" target="_top" xlink:title="CO_Andisol\\get_cobra\l_instance">
<polygon fill="#ffffff" stroke="#000000" points="410.0332,-.5 410.0332,-28.5 526.6484,-28.5 526.6484,-.5 410.0332,-.5"/>
<text text-anchor="start" x="418.0332" y="-16.5" font-family="Helvetica,sans-Serif" font-size="10.00" fill="#000000">CO_Andisol\get_cobra</text>
<text text-anchor="middle" x="468.3408" y="-6.5" font-family="Helvetica,sans-Serif" font-size="10.00" fill="#000000">_instance</text>
</a>
</g>
</g>
<!-- Node133&#45;&gt;Node136 -->
<g id="edge9" class="edge">
<title>Node133&#45;&gt;Node136</title>
<path fill="none" stroke="#191970" d="M350.4329,-47.4899C367.3093,-42.768 388.5328,-36.8298 408.3061,-31.2974"/>
<polygon fill="#191970" stroke="#191970" points="409.489,-34.6009 418.1761,-28.5358 407.6028,-27.8598 409.489,-34.6009"/>
</g>
<!-- Node134&#45;&gt;Node131 -->
<g id="edge8" class="edge">
<title>Node134&#45;&gt;Node131</title>
<path fill="none" stroke="#191970" d="M526.282,-60.2538C570.4642,-63.1162 631.8544,-67.0934 680.8547,-70.268"/>
<polygon fill="#191970" stroke="#191970" points="680.9068,-73.7786 691.1122,-70.9325 681.3594,-66.7932 680.9068,-73.7786"/>
</g>
<!-- Node135 -->
<g id="node7" class="node">
<title>Node135</title>
<g id="a_node7"><a xlink:href="a00219.html#a4b0ec12b29ce4812cbb4169b68770f66" target="_top" xlink:title="CO_Andisol\\valid">
<polygon fill="#ffffff" stroke="#000000" points="562.6484,-9.5 562.6484,-27.5 655.3525,-27.5 655.3525,-9.5 562.6484,-9.5"/>
<text text-anchor="middle" x="609.0005" y="-15.5" font-family="Helvetica,sans-Serif" font-size="10.00" fill="#000000">CO_Andisol\valid</text>
</a>
</g>
</g>
<!-- Node134&#45;&gt;Node135 -->
<g id="edge6" class="edge">
<title>Node134&#45;&gt;Node135</title>
<path fill="none" stroke="#191970" d="M501.6752,-47.4945C520.8047,-42.3266 545.0391,-35.7795 565.6368,-30.215"/>
<polygon fill="#191970" stroke="#191970" points="566.6769,-33.5595 575.4179,-27.5725 564.8512,-26.8018 566.6769,-33.5595"/>
</g>
<!-- Node135&#45;&gt;Node131 -->
<g id="edge7" class="edge">
<title>Node135&#45;&gt;Node131</title>
<path fill="none" stroke="#191970" d="M633.1824,-27.5318C654.8905,-35.6397 687.3796,-47.7741 714.2484,-57.8095"/>
<polygon fill="#191970" stroke="#191970" points="713.2702,-61.1802 723.8627,-61.4004 715.7194,-54.6227 713.2702,-61.1802"/>
</g>
</g>
</svg>
