<?xml version="1.0" encoding="UTF-8" standalone="no"?>
<!DOCTYPE svg PUBLIC "-//W3C//DTD SVG 1.1//EN"
 "http://www.w3.org/Graphics/SVG/1.1/DTD/svg11.dtd">
<!-- Generated by graphviz version 2.40.1 (20161225.0304)
 -->
<!-- Title: CO_Andisol\manager Pages: 1 -->
<svg width="504pt" height="341pt"
 viewBox="0.00 0.00 504.31 341.00" xmlns="http://www.w3.org/2000/svg" xmlns:xlink="http://www.w3.org/1999/xlink">
<g id="graph0" class="graph" transform="scale(1 1) rotate(0) translate(4 337)">
<title>CO_Andisol\manager</title>
<polygon fill="#ffffff" stroke="transparent" points="-4,4 -4,-337 500.3086,-337 500.3086,4 -4,4"/>
<!-- Node346 -->
<g id="node1" class="node">
<title>Node346</title>
<polygon fill="#bfbfbf" stroke="#000000" points="0,-164.5 0,-182.5 111.6055,-182.5 111.6055,-164.5 0,-164.5"/>
<text text-anchor="middle" x="55.8027" y="-170.5" font-family="Helvetica,sans-Serif" font-size="10.00" fill="#000000">CO_Andisol\manager</text>
</g>
<!-- Node347 -->
<g id="node2" class="node">
<title>Node347</title>
<g id="a_node2"><a xlink:href="a00219.html#a737ba5cc859a773ab48d09f365fbb4b6" target="_top" xlink:title="CO_Andisol\\_make_security\l_token">
<polygon fill="#ffffff" stroke="#000000" points="164.5708,-304.5 164.5708,-332.5 306.7378,-332.5 306.7378,-304.5 164.5708,-304.5"/>
<text text-anchor="start" x="172.5708" y="-320.5" font-family="Helvetica,sans-Serif" font-size="10.00" fill="#000000">CO_Andisol\_make_security</text>
<text text-anchor="middle" x="235.6543" y="-310.5" font-family="Helvetica,sans-Serif" font-size="10.00" fill="#000000">_token</text>
</a>
</g>
</g>
<!-- Node346&#45;&gt;Node347 -->
<g id="edge1" class="edge">
<title>Node346&#45;&gt;Node347</title>
<path fill="none" stroke="#191970" d="M64.5881,-191.9478C78.3994,-218.9186 107.7788,-268.7987 147.6055,-295.5 152.7234,-298.9312 158.3254,-301.8508 164.1453,-304.335"/>
<polygon fill="#191970" stroke="#191970" points="67.645,-190.2339 60.0677,-182.8288 61.3733,-193.3429 67.645,-190.2339"/>
</g>
<!-- Node349 -->
<g id="node4" class="node">
<title>Node349</title>
<g id="a_node4"><a xlink:href="a00219.html#afe9a7dd6ab7e39f73345fa5ecbb177a7" target="_top" xlink:title="CO_Andisol\\create_new_user">
<polygon fill="#ffffff" stroke="#000000" points="161.2285,-267.5 161.2285,-285.5 310.0801,-285.5 310.0801,-267.5 161.2285,-267.5"/>
<text text-anchor="middle" x="235.6543" y="-273.5" font-family="Helvetica,sans-Serif" font-size="10.00" fill="#000000">CO_Andisol\create_new_user</text>
</a>
</g>
</g>
<!-- Node346&#45;&gt;Node349 -->
<g id="edge3" class="edge">
<title>Node346&#45;&gt;Node349</title>
<path fill="none" stroke="#191970" d="M69.0918,-190.4724C85.4042,-210.0644 114.9511,-241.7358 147.6055,-258.5 154.8231,-262.2054 162.7415,-265.1482 170.7781,-267.4853"/>
<polygon fill="#191970" stroke="#191970" points="71.7696,-188.2177 62.7522,-182.6556 66.3329,-192.6271 71.7696,-188.2177"/>
</g>
<!-- Node350 -->
<g id="node5" class="node">
<title>Node350</title>
<g id="a_node5"><a xlink:href="a00219.html#aa4f45eb1ec9c5acc7709cfd9b08348f3" target="_top" xlink:title="CO_Andisol\\delete_user">
<polygon fill="#ffffff" stroke="#000000" points="173.4551,-230.5 173.4551,-248.5 297.8535,-248.5 297.8535,-230.5 173.4551,-230.5"/>
<text text-anchor="middle" x="235.6543" y="-236.5" font-family="Helvetica,sans-Serif" font-size="10.00" fill="#000000">CO_Andisol\delete_user</text>
</a>
</g>
</g>
<!-- Node346&#45;&gt;Node350 -->
<g id="edge4" class="edge">
<title>Node346&#45;&gt;Node350</title>
<path fill="none" stroke="#191970" d="M78.8432,-187.87C96.931,-198.5686 123.0746,-212.7753 147.6055,-221.5 157.7487,-225.1076 168.8206,-228.0781 179.5836,-230.4929"/>
<polygon fill="#191970" stroke="#191970" points="80.5413,-184.807 70.1699,-182.6427 76.928,-190.8023 80.5413,-184.807"/>
</g>
<!-- Node351 -->
<g id="node6" class="node">
<title>Node351</title>
<g id="a_node6"><a xlink:href="a00219.html#ae0e62c8ade9295c9b5a2d3b725f8f222" target="_top" xlink:title="CO_Andisol\\get_all\l_logins">
<polygon fill="#ffffff" stroke="#000000" points="184.8516,-183.5 184.8516,-211.5 286.457,-211.5 286.457,-183.5 184.8516,-183.5"/>
<text text-anchor="start" x="192.8516" y="-199.5" font-family="Helvetica,sans-Serif" font-size="10.00" fill="#000000">CO_Andisol\get_all</text>
<text text-anchor="middle" x="235.6543" y="-189.5" font-family="Helvetica,sans-Serif" font-size="10.00" fill="#000000">_logins</text>
</a>
</g>
</g>
<!-- Node346&#45;&gt;Node351 -->
<g id="edge5" class="edge">
<title>Node346&#45;&gt;Node351</title>
<path fill="none" stroke="#191970" d="M121.7452,-182.2996C142.5053,-185.0699 165.1052,-188.0857 184.6609,-190.6953"/>
<polygon fill="#191970" stroke="#191970" points="122.0981,-178.8157 111.723,-180.9622 121.1722,-185.7542 122.0981,-178.8157"/>
</g>
<!-- Node352 -->
<g id="node7" class="node">
<title>Node352</title>
<g id="a_node7"><a xlink:href="a00219.html#a61b9a275c4b8b824d9a2b3aadd421bf7" target="_top" xlink:title="CO_Andisol\\get_user\l_from_login">
<polygon fill="#ffffff" stroke="#000000" points="180.1274,-136.5 180.1274,-164.5 291.1812,-164.5 291.1812,-136.5 180.1274,-136.5"/>
<text text-anchor="start" x="188.1274" y="-152.5" font-family="Helvetica,sans-Serif" font-size="10.00" fill="#000000">CO_Andisol\get_user</text>
<text text-anchor="middle" x="235.6543" y="-142.5" font-family="Helvetica,sans-Serif" font-size="10.00" fill="#000000">_from_login</text>
</a>
</g>
</g>
<!-- Node346&#45;&gt;Node352 -->
<g id="edge6" class="edge">
<title>Node346&#45;&gt;Node352</title>
<path fill="none" stroke="#191970" d="M121.8617,-165.0522C140.9859,-162.6065 161.6626,-159.9623 180.0777,-157.6073"/>
<polygon fill="#191970" stroke="#191970" points="121.1982,-161.6084 111.723,-166.3487 122.0862,-168.5519 121.1982,-161.6084"/>
</g>
<!-- Node355 -->
<g id="node10" class="node">
<title>Node355</title>
<g id="a_node10"><a xlink:href="a00219.html#a370ab6e2bb53c900f25a6005d0e5077d" target="_top" xlink:title="CO_Andisol\\god">
<polygon fill="#ffffff" stroke="#000000" points="191.2432,-99.5 191.2432,-117.5 280.0654,-117.5 280.0654,-99.5 191.2432,-99.5"/>
<text text-anchor="middle" x="235.6543" y="-105.5" font-family="Helvetica,sans-Serif" font-size="10.00" fill="#000000">CO_Andisol\god</text>
</a>
</g>
</g>
<!-- Node346&#45;&gt;Node355 -->
<g id="edge9" class="edge">
<title>Node346&#45;&gt;Node355</title>
<path fill="none" stroke="#191970" d="M79.5936,-159.4862C97.7102,-149.3386 123.5493,-135.9695 147.6055,-127.5 161.471,-122.6183 177.0254,-118.7599 191.1589,-115.8315"/>
<polygon fill="#191970" stroke="#191970" points="77.8288,-156.4634 70.874,-164.456 81.2951,-162.5449 77.8288,-156.4634"/>
</g>
<!-- Node359 -->
<g id="node14" class="node">
<title>Node359</title>
<g id="a_node14"><a xlink:href="a00219.html#a73ccfd34793c0197e2dc336b44e3577e" target="_top" xlink:title="CO_Andisol\\make_standalone_user">
<polygon fill="#ffffff" stroke="#000000" points="147.6055,-62.5 147.6055,-80.5 323.7031,-80.5 323.7031,-62.5 147.6055,-62.5"/>
<text text-anchor="middle" x="235.6543" y="-68.5" font-family="Helvetica,sans-Serif" font-size="10.00" fill="#000000">CO_Andisol\make_standalone_user</text>
</a>
</g>
</g>
<!-- Node346&#45;&gt;Node359 -->
<g id="edge13" class="edge">
<title>Node346&#45;&gt;Node359</title>
<path fill="none" stroke="#191970" d="M69.6886,-156.4422C86.2088,-137.3381 115.6061,-106.9081 147.6055,-90.5 155.6764,-86.3615 164.6098,-83.123 173.6005,-80.5891"/>
<polygon fill="#191970" stroke="#191970" points="66.8081,-154.4291 63.0413,-164.3318 72.1613,-158.9395 66.8081,-154.4291"/>
</g>
<!-- Node360 -->
<g id="node15" class="node">
<title>Node360</title>
<g id="a_node15"><a xlink:href="a00219.html#a4a99f9757a91355dd3aca720dcf5a770" target="_top" xlink:title="CO_Andisol\\who_can_see">
<polygon fill="#ffffff" stroke="#000000" points="168.7285,-25.5 168.7285,-43.5 302.5801,-43.5 302.5801,-25.5 168.7285,-25.5"/>
<text text-anchor="middle" x="235.6543" y="-31.5" font-family="Helvetica,sans-Serif" font-size="10.00" fill="#000000">CO_Andisol\who_can_see</text>
</a>
</g>
</g>
<!-- Node346&#45;&gt;Node360 -->
<g id="edge14" class="edge">
<title>Node346&#45;&gt;Node360</title>
<path fill="none" stroke="#191970" d="M64.525,-155.1343C78.2559,-128.3254 107.5343,-78.9104 147.6055,-53.5 154.0767,-49.3964 161.2965,-46.1676 168.7411,-43.6291"/>
<polygon fill="#191970" stroke="#191970" points="61.3344,-153.6903 60.0336,-164.205 67.6075,-156.7965 61.3344,-153.6903"/>
</g>
<!-- Node348 -->
<g id="node3" class="node">
<title>Node348</title>
<g id="a_node3"><a xlink:href="a00219.html#ad0ac8fb3000239301a9f2be905c1a124" target="_top" xlink:title="CO_Andisol\\make_security\l_token">
<polygon fill="#ffffff" stroke="#000000" points="359.7031,-304.5 359.7031,-332.5 496.3086,-332.5 496.3086,-304.5 359.7031,-304.5"/>
<text text-anchor="start" x="367.7031" y="-320.5" font-family="Helvetica,sans-Serif" font-size="10.00" fill="#000000">CO_Andisol\make_security</text>
<text text-anchor="middle" x="428.0059" y="-310.5" font-family="Helvetica,sans-Serif" font-size="10.00" fill="#000000">_token</text>
</a>
</g>
</g>
<!-- Node347&#45;&gt;Node348 -->
<g id="edge2" class="edge">
<title>Node347&#45;&gt;Node348</title>
<path fill="none" stroke="#191970" d="M317.204,-318.5C331.3393,-318.5 345.9062,-318.5 359.6446,-318.5"/>
<polygon fill="#191970" stroke="#191970" points="317.0056,-315.0001 307.0056,-318.5 317.0055,-322.0001 317.0056,-315.0001"/>
</g>
<!-- Node353 -->
<g id="node8" class="node">
<title>Node353</title>
<g id="a_node8"><a xlink:href="a00219.html#a661842aaa6be17af30fbac58b5008c36" target="_top" xlink:title="CO_Andisol\\current_user">
<polygon fill="#ffffff" stroke="#000000" points="363.8682,-188.5 363.8682,-206.5 492.1436,-206.5 492.1436,-188.5 363.8682,-188.5"/>
<text text-anchor="middle" x="428.0059" y="-194.5" font-family="Helvetica,sans-Serif" font-size="10.00" fill="#000000">CO_Andisol\current_user</text>
</a>
</g>
</g>
<!-- Node352&#45;&gt;Node353 -->
<g id="edge7" class="edge">
<title>Node352&#45;&gt;Node353</title>
<path fill="none" stroke="#191970" d="M301.2687,-166.5325C331.2493,-173.8581 365.6514,-182.2641 391.0413,-188.4679"/>
<polygon fill="#191970" stroke="#191970" points="301.8353,-163.0681 291.2903,-164.0943 300.1738,-169.868 301.8353,-163.0681"/>
</g>
<!-- Node354 -->
<g id="node9" class="node">
<title>Node354</title>
<g id="a_node9"><a xlink:href="a00219.html#a7d4be5fe8eb59e59a6ca94a781980e4f" target="_top" xlink:title="CO_Andisol\\get_user\l_from_login_string">
<polygon fill="#ffffff" stroke="#000000" points="372.479,-141.5 372.479,-169.5 483.5327,-169.5 483.5327,-141.5 372.479,-141.5"/>
<text text-anchor="start" x="380.479" y="-157.5" font-family="Helvetica,sans-Serif" font-size="10.00" fill="#000000">CO_Andisol\get_user</text>
<text text-anchor="middle" x="428.0059" y="-147.5" font-family="Helvetica,sans-Serif" font-size="10.00" fill="#000000">_from_login_string</text>
</a>
</g>
</g>
<!-- Node352&#45;&gt;Node354 -->
<g id="edge8" class="edge">
<title>Node352&#45;&gt;Node354</title>
<path fill="none" stroke="#191970" d="M301.3269,-152.2071C324.3645,-152.8059 350.0068,-153.4725 372.1619,-154.0484"/>
<polygon fill="#191970" stroke="#191970" points="301.3779,-148.7073 291.2903,-151.9462 301.196,-155.705 301.3779,-148.7073"/>
</g>
<!-- Node356 -->
<g id="node11" class="node">
<title>Node356</title>
<g id="a_node11"><a xlink:href="a00219.html#a86bc3621ffe539ac5a9239375f0a786b" target="_top" xlink:title="CO_Andisol\\get_all\l_login_users">
<polygon fill="#ffffff" stroke="#000000" points="377.2031,-94.5 377.2031,-122.5 478.8086,-122.5 478.8086,-94.5 377.2031,-94.5"/>
<text text-anchor="start" x="385.2031" y="-110.5" font-family="Helvetica,sans-Serif" font-size="10.00" fill="#000000">CO_Andisol\get_all</text>
<text text-anchor="middle" x="428.0059" y="-100.5" font-family="Helvetica,sans-Serif" font-size="10.00" fill="#000000">_login_users</text>
</a>
</g>
</g>
<!-- Node355&#45;&gt;Node356 -->
<g id="edge10" class="edge">
<title>Node355&#45;&gt;Node356</title>
<path fill="none" stroke="#191970" d="M290.4281,-108.5C317.7044,-108.5 350.4718,-108.5 377.1847,-108.5"/>
<polygon fill="#191970" stroke="#191970" points="290.2671,-105.0001 280.2671,-108.5 290.2671,-112.0001 290.2671,-105.0001"/>
</g>
<!-- Node357 -->
<g id="node12" class="node">
<title>Node357</title>
<g id="a_node12"><a xlink:href="a00219.html#acd1e344f9f0087ee41414e6aa5f13e1e" target="_top" xlink:title="CO_Andisol\\get_all\l_standalone_users">
<polygon fill="#ffffff" stroke="#000000" points="377.2031,-47.5 377.2031,-75.5 478.8086,-75.5 478.8086,-47.5 377.2031,-47.5"/>
<text text-anchor="start" x="385.2031" y="-63.5" font-family="Helvetica,sans-Serif" font-size="10.00" fill="#000000">CO_Andisol\get_all</text>
<text text-anchor="middle" x="428.0059" y="-53.5" font-family="Helvetica,sans-Serif" font-size="10.00" fill="#000000">_standalone_users</text>
</a>
</g>
</g>
<!-- Node355&#45;&gt;Node357 -->
<g id="edge11" class="edge">
<title>Node355&#45;&gt;Node357</title>
<path fill="none" stroke="#191970" d="M290.174,-97.9706C301.2989,-95.6492 312.9028,-93.1021 323.7031,-90.5 342.2494,-86.0317 362.4854,-80.5479 380.1558,-75.5561"/>
<polygon fill="#191970" stroke="#191970" points="289.2198,-94.5934 280.1287,-100.0341 290.6284,-101.4502 289.2198,-94.5934"/>
</g>
<!-- Node358 -->
<g id="node13" class="node">
<title>Node358</title>
<g id="a_node13"><a xlink:href="a00219.html#a9d3578d72df7af2ff07e23ea7b1b1af9" target="_top" xlink:title="CO_Andisol\\get_all\l_users">
<polygon fill="#ffffff" stroke="#000000" points="377.2031,-.5 377.2031,-28.5 478.8086,-28.5 478.8086,-.5 377.2031,-.5"/>
<text text-anchor="start" x="385.2031" y="-16.5" font-family="Helvetica,sans-Serif" font-size="10.00" fill="#000000">CO_Andisol\get_all</text>
<text text-anchor="middle" x="428.0059" y="-6.5" font-family="Helvetica,sans-Serif" font-size="10.00" fill="#000000">_users</text>
</a>
</g>
</g>
<!-- Node355&#45;&gt;Node358 -->
<g id="edge12" class="edge">
<title>Node355&#45;&gt;Node358</title>
<path fill="none" stroke="#191970" d="M290.4463,-103.9842C302.0895,-101.2502 313.8334,-97.0151 323.7031,-90.5 347.162,-75.0144 337.3527,-55.5465 359.7031,-38.5 364.8999,-34.5364 370.8037,-31.1928 376.9128,-28.3809"/>
<polygon fill="#191970" stroke="#191970" points="289.4071,-100.6228 280.2901,-106.02 290.783,-107.4863 289.4071,-100.6228"/>
</g>
</g>
</svg>
