<?xml version="1.0" encoding="UTF-8" standalone="no"?>
<!DOCTYPE svg PUBLIC "-//W3C//DTD SVG 1.1//EN"
 "http://www.w3.org/Graphics/SVG/1.1/DTD/svg11.dtd">
<!-- Generated by graphviz version 2.47.1 (20210417.1919)
 -->
<!-- Title: CO_Chameleon\test_access Pages: 1 -->
<svg width="798pt" height="97pt"
 viewBox="0.00 0.00 798.00 96.50" xmlns="http://www.w3.org/2000/svg" xmlns:xlink="http://www.w3.org/1999/xlink">
<g id="graph0" class="graph" transform="scale(1 1) rotate(0) translate(4 92.5)">
<title>CO_Chameleon\test_access</title>
<polygon fill="white" stroke="transparent" points="-4,4 -4,-92.5 794,-92.5 794,4 -4,4"/>
<!-- Node1 -->
<g id="node1" class="node">
<title>Node1</title>
<g id="a_node1"><a xlink:title=" ">
<polygon fill="#bfbfbf" stroke="black" points="0,-28 0,-47 143,-47 143,-28 0,-28"/>
<text text-anchor="middle" x="71.5" y="-35" font-family="Helvetica,sans-Serif" font-size="10.00">CO_Chameleon\test_access</text>
</a>
</g>
</g>
<!-- Node2 -->
<g id="node2" class="node">
<title>Node2</title>
<g id="a_node2"><a xlink:href="a00352.html#a65c256cad68440723a8de979b1b7a1bb" target="_top" xlink:title=" ">
<polygon fill="white" stroke="black" points="179,-50 179,-69 315,-69 315,-50 179,-50"/>
<text text-anchor="middle" x="247" y="-57" font-family="Helvetica,sans-Serif" font-size="10.00">CO_Access\get_login_item</text>
</a>
</g>
</g>
<!-- Node1&#45;&gt;Node2 -->
<g id="edge1" class="edge">
<title>Node1&#45;&gt;Node2</title>
<path fill="none" stroke="midnightblue" d="M143.07,-46.45C151.57,-47.53 160.28,-48.63 168.86,-49.72"/>
<polygon fill="midnightblue" stroke="midnightblue" points="168.5,-53.2 178.86,-50.99 169.38,-46.26 168.5,-53.2"/>
</g>
<!-- Node6 -->
<g id="node6" class="node">
<title>Node6</title>
<g id="a_node6"><a xlink:href="a00352.html#a22dd3ef5f47a6f4c40a551a1d7767402" target="_top" xlink:title=" ">
<polygon fill="white" stroke="black" points="193.5,-0.5 193.5,-30.5 300.5,-30.5 300.5,-0.5 193.5,-0.5"/>
<text text-anchor="start" x="201.5" y="-18.5" font-family="Helvetica,sans-Serif" font-size="10.00">CO_Access\security</text>
<text text-anchor="middle" x="247" y="-7.5" font-family="Helvetica,sans-Serif" font-size="10.00">_db_available</text>
</a>
</g>
</g>
<!-- Node1&#45;&gt;Node6 -->
<g id="edge6" class="edge">
<title>Node1&#45;&gt;Node6</title>
<path fill="none" stroke="midnightblue" d="M143.07,-28.55C156.32,-26.87 170.09,-25.13 183.09,-23.48"/>
<polygon fill="midnightblue" stroke="midnightblue" points="183.85,-26.91 193.33,-22.18 182.97,-19.96 183.85,-26.91"/>
</g>
<!-- Node3 -->
<g id="node3" class="node">
<title>Node3</title>
<g id="a_node3"><a xlink:href="a00352.html#adbc6444fbac916f3a280f4a3ce4f067a" target="_top" xlink:title=" ">
<polygon fill="white" stroke="black" points="351,-69 351,-88 476,-88 476,-69 351,-69"/>
<text text-anchor="middle" x="413.5" y="-76" font-family="Helvetica,sans-Serif" font-size="10.00">CO_Access\get_login_id</text>
</a>
</g>
</g>
<!-- Node2&#45;&gt;Node3 -->
<g id="edge2" class="edge">
<title>Node2&#45;&gt;Node3</title>
<path fill="none" stroke="midnightblue" d="M315.38,-67.28C323.71,-68.24 332.25,-69.23 340.64,-70.2"/>
<polygon fill="midnightblue" stroke="midnightblue" points="340.44,-73.7 350.77,-71.37 341.24,-66.75 340.44,-73.7"/>
</g>
<!-- Node4 -->
<g id="node4" class="node">
<title>Node4</title>
<g id="a_node4"><a xlink:href="a00352.html#aeab406fa4ecc249662fa1e2e073341b2" target="_top" xlink:title=" ">
<polygon fill="white" stroke="black" points="512,-44.5 512,-74.5 629,-74.5 629,-44.5 512,-44.5"/>
<text text-anchor="start" x="520" y="-62.5" font-family="Helvetica,sans-Serif" font-size="10.00">CO_Access\get_single</text>
<text text-anchor="middle" x="570.5" y="-51.5" font-family="Helvetica,sans-Serif" font-size="10.00">_security_record_by_id</text>
</a>
</g>
</g>
<!-- Node2&#45;&gt;Node4 -->
<g id="edge5" class="edge">
<title>Node2&#45;&gt;Node4</title>
<path fill="none" stroke="midnightblue" d="M315.01,-59.5C369.72,-59.5 446.72,-59.5 501.66,-59.5"/>
<polygon fill="midnightblue" stroke="midnightblue" points="502,-63 512,-59.5 502,-56 502,-63"/>
</g>
<!-- Node3&#45;&gt;Node4 -->
<g id="edge3" class="edge">
<title>Node3&#45;&gt;Node4</title>
<path fill="none" stroke="midnightblue" d="M476.21,-70.94C484.55,-69.91 493.15,-68.86 501.59,-67.82"/>
<polygon fill="midnightblue" stroke="midnightblue" points="502.28,-71.27 511.78,-66.57 501.43,-64.32 502.28,-71.27"/>
</g>
<!-- Node5 -->
<g id="node5" class="node">
<title>Node5</title>
<g id="a_node5"><a xlink:href="a00352.html#a34c23aea84d5c32e600c512167c3497d" target="_top" xlink:title=" ">
<polygon fill="white" stroke="black" points="665,-44.5 665,-74.5 790,-74.5 790,-44.5 665,-44.5"/>
<text text-anchor="start" x="673" y="-62.5" font-family="Helvetica,sans-Serif" font-size="10.00">CO_Access\get_multiple</text>
<text text-anchor="middle" x="727.5" y="-51.5" font-family="Helvetica,sans-Serif" font-size="10.00">_security_records_by_id</text>
</a>
</g>
</g>
<!-- Node4&#45;&gt;Node5 -->
<g id="edge4" class="edge">
<title>Node4&#45;&gt;Node5</title>
<path fill="none" stroke="midnightblue" d="M629.22,-59.5C637.57,-59.5 646.25,-59.5 654.83,-59.5"/>
<polygon fill="midnightblue" stroke="midnightblue" points="654.84,-63 664.84,-59.5 654.84,-56 654.84,-63"/>
</g>
</g>
</svg>
