<?xml version="1.0" encoding="UTF-8" standalone="no"?>
<!DOCTYPE svg PUBLIC "-//W3C//DTD SVG 1.1//EN"
 "http://www.w3.org/Graphics/SVG/1.1/DTD/svg11.dtd">
<!-- Generated by graphviz version 2.40.1 (20161225.0304)
 -->
<!-- Title: CO_Andisol\_create_db_object Pages: 1 -->
<svg width="637pt" height="163pt"
 viewBox="0.00 0.00 636.92 163.00" xmlns="http://www.w3.org/2000/svg" xmlns:xlink="http://www.w3.org/1999/xlink">
<g id="graph0" class="graph" transform="scale(1 1) rotate(0) translate(4 159)">
<title>CO_Andisol\_create_db_object</title>
<polygon fill="#ffffff" stroke="transparent" points="-4,4 -4,-159 632.9238,-159 632.9238,4 -4,4"/>
<!-- Node1 -->
<g id="node1" class="node">
<title>Node1</title>
<g id="a_node1"><a xlink:title=" ">
<polygon fill="#bfbfbf" stroke="#000000" points="523.4316,-89.5 523.4316,-117.5 628.9238,-117.5 628.9238,-89.5 523.4316,-89.5"/>
<text text-anchor="start" x="531.4316" y="-105.5" font-family="Helvetica,sans-Serif" font-size="10.00" fill="#000000">CO_Andisol\_create</text>
<text text-anchor="middle" x="576.1777" y="-95.5" font-family="Helvetica,sans-Serif" font-size="10.00" fill="#000000">_db_object</text>
</a>
</g>
</g>
<!-- Node2 -->
<g id="node2" class="node">
<title>Node2</title>
<g id="a_node2"><a xlink:href="a00216.html#a1783b1403b768959f80f17b08a5e8f82" target="_top" xlink:title=" ">
<polygon fill="#ffffff" stroke="#000000" points="348.5801,-89.5 348.5801,-117.5 487.4316,-117.5 487.4316,-89.5 348.5801,-89.5"/>
<text text-anchor="start" x="356.5801" y="-105.5" font-family="Helvetica,sans-Serif" font-size="10.00" fill="#000000">CO_Andisol\create_general</text>
<text text-anchor="middle" x="418.0059" y="-95.5" font-family="Helvetica,sans-Serif" font-size="10.00" fill="#000000">_data_item</text>
</a>
</g>
</g>
<!-- Node1&#45;&gt;Node2 -->
<g id="edge1" class="edge">
<title>Node1&#45;&gt;Node2</title>
<path fill="none" stroke="#191970" d="M513.0083,-103.5C504.6378,-103.5 496.0191,-103.5 487.5487,-103.5"/>
<polygon fill="#191970" stroke="#191970" points="513.0688,-107.0001 523.0688,-103.5 513.0687,-100.0001 513.0688,-107.0001"/>
</g>
<!-- Node3 -->
<g id="node3" class="node">
<title>Node3</title>
<g id="a_node3"><a xlink:href="a00216.html#a1432efeebcc0952a1236feec7bbceb13" target="_top" xlink:title=" ">
<polygon fill="#ffffff" stroke="#000000" points="165.3984,-136.5 165.3984,-154.5 312.5801,-154.5 312.5801,-136.5 165.3984,-136.5"/>
<text text-anchor="middle" x="238.9893" y="-142.5" font-family="Helvetica,sans-Serif" font-size="10.00" fill="#000000">CO_Andisol\create_collection</text>
</a>
</g>
</g>
<!-- Node2&#45;&gt;Node3 -->
<g id="edge2" class="edge">
<title>Node2&#45;&gt;Node3</title>
<path fill="none" stroke="#191970" d="M348.1159,-119.8972C324.1309,-125.5245 298.1693,-131.6155 277.5879,-136.4442"/>
<polygon fill="#191970" stroke="#191970" points="348.9617,-123.2939 357.8979,-117.6022 347.3628,-116.479 348.9617,-123.2939"/>
</g>
<!-- Node4 -->
<g id="node4" class="node">
<title>Node4</title>
<g id="a_node4"><a xlink:href="a00216.html#a24b15c45e28b5a0fb4971c11b4e5ed99" target="_top" xlink:title=" ">
<polygon fill="#ffffff" stroke="#000000" points="184.0215,-89.5 184.0215,-117.5 293.957,-117.5 293.957,-89.5 184.0215,-89.5"/>
<text text-anchor="start" x="192.0215" y="-105.5" font-family="Helvetica,sans-Serif" font-size="10.00" fill="#000000">CO_Andisol\create_ll</text>
<text text-anchor="middle" x="238.9893" y="-95.5" font-family="Helvetica,sans-Serif" font-size="10.00" fill="#000000">_location</text>
</a>
</g>
</g>
<!-- Node2&#45;&gt;Node4 -->
<g id="edge3" class="edge">
<title>Node2&#45;&gt;Node4</title>
<path fill="none" stroke="#191970" d="M338.2645,-103.5C323.3112,-103.5 307.9899,-103.5 293.9968,-103.5"/>
<polygon fill="#191970" stroke="#191970" points="338.5372,-107.0001 348.5371,-103.5 338.5371,-100.0001 338.5372,-107.0001"/>
</g>
<!-- Node5 -->
<g id="node5" class="node">
<title>Node5</title>
<g id="a_node5"><a xlink:href="a00216.html#a79103b0d231d1dcc1f7c1921e5118621" target="_top" xlink:title=" ">
<polygon fill="#ffffff" stroke="#000000" points="174.29,-52.5 174.29,-70.5 303.6885,-70.5 303.6885,-52.5 174.29,-52.5"/>
<text text-anchor="middle" x="238.9893" y="-58.5" font-family="Helvetica,sans-Serif" font-size="10.00" fill="#000000">CO_Andisol\create_place</text>
</a>
</g>
</g>
<!-- Node2&#45;&gt;Node5 -->
<g id="edge4" class="edge">
<title>Node2&#45;&gt;Node5</title>
<path fill="none" stroke="#191970" d="M348.1159,-87.1028C324.1309,-81.4755 298.1693,-75.3845 277.5879,-70.5558"/>
<polygon fill="#191970" stroke="#191970" points="347.3628,-90.521 357.8979,-89.3978 348.9617,-83.7061 347.3628,-90.521"/>
</g>
<!-- Node6 -->
<g id="node6" class="node">
<title>Node6</title>
<g id="a_node6"><a xlink:href="a00216.html#a58956fb178766e8d0074dcb138d1e650" target="_top" xlink:title=" ">
<polygon fill="#ffffff" stroke="#000000" points="9.7314,-94.5 9.7314,-122.5 119.667,-122.5 119.667,-94.5 9.7314,-94.5"/>
<text text-anchor="start" x="17.7314" y="-110.5" font-family="Helvetica,sans-Serif" font-size="10.00" fill="#000000">CO_Andisol\create_ll</text>
<text text-anchor="middle" x="64.6992" y="-100.5" font-family="Helvetica,sans-Serif" font-size="10.00" fill="#000000">_place</text>
</a>
</g>
</g>
<!-- Node5&#45;&gt;Node6 -->
<g id="edge5" class="edge">
<title>Node5&#45;&gt;Node6</title>
<path fill="none" stroke="#191970" d="M193.5092,-73.1016C184.2016,-75.5154 174.4773,-78.066 165.3984,-80.5 148.8356,-84.9404 130.779,-89.918 114.5885,-94.431"/>
<polygon fill="#191970" stroke="#191970" points="194.5883,-76.4379 203.3951,-70.548 192.8376,-69.6603 194.5883,-76.4379"/>
</g>
<!-- Node7 -->
<g id="node7" class="node">
<title>Node7</title>
<g id="a_node7"><a xlink:href="a00216.html#a5f26c529c4b6d41367241db17d114fb5" target="_top" xlink:title=" ">
<polygon fill="#ffffff" stroke="#000000" points="9.7314,-47.5 9.7314,-75.5 119.667,-75.5 119.667,-47.5 9.7314,-47.5"/>
<text text-anchor="start" x="17.7314" y="-63.5" font-family="Helvetica,sans-Serif" font-size="10.00" fill="#000000">CO_Andisol\create_ll</text>
<text text-anchor="middle" x="64.6992" y="-53.5" font-family="Helvetica,sans-Serif" font-size="10.00" fill="#000000">_us_place</text>
</a>
</g>
</g>
<!-- Node5&#45;&gt;Node7 -->
<g id="edge6" class="edge">
<title>Node5&#45;&gt;Node7</title>
<path fill="none" stroke="#191970" d="M163.9544,-61.5C149.1735,-61.5 133.9186,-61.5 119.9355,-61.5"/>
<polygon fill="#191970" stroke="#191970" points="164.0901,-65.0001 174.0901,-61.5 164.09,-58.0001 164.0901,-65.0001"/>
</g>
<!-- Node8 -->
<g id="node8" class="node">
<title>Node8</title>
<g id="a_node8"><a xlink:href="a00216.html#a492fc0036d5930c325ed14bfcdd5938a" target="_top" xlink:title=" ">
<polygon fill="#ffffff" stroke="#000000" points="0,-.5 0,-28.5 129.3984,-28.5 129.3984,-.5 0,-.5"/>
<text text-anchor="start" x="8" y="-16.5" font-family="Helvetica,sans-Serif" font-size="10.00" fill="#000000">CO_Andisol\create_place</text>
<text text-anchor="middle" x="64.6992" y="-6.5" font-family="Helvetica,sans-Serif" font-size="10.00" fill="#000000">_collection</text>
</a>
</g>
</g>
<!-- Node5&#45;&gt;Node8 -->
<g id="edge7" class="edge">
<title>Node5&#45;&gt;Node8</title>
<path fill="none" stroke="#191970" d="M195.5388,-49.7829C171.6493,-43.3407 141.8497,-35.3048 116.7264,-28.5299"/>
<polygon fill="#191970" stroke="#191970" points="194.818,-53.2135 205.3844,-52.4379 196.6406,-46.4549 194.818,-53.2135"/>
</g>
</g>
</svg>
