<?xml version="1.0" encoding="UTF-8" standalone="no"?>
<!DOCTYPE svg PUBLIC "-//W3C//DTD SVG 1.1//EN"
 "http://www.w3.org/Graphics/SVG/1.1/DTD/svg11.dtd">
<!-- Generated by graphviz version 2.40.1 (20161225.0304)
 -->
<!-- Title: CO_Andisol\logged_in Pages: 1 -->
<!--zoomable 543 -->
<svg id="main" version="1.1" xmlns="http://www.w3.org/2000/svg" xmlns:xlink="http://www.w3.org/1999/xlink" xml:space="preserve" onload="init(evt)">
<style type="text/css"><![CDATA[
.edge:hover path { stroke: red; }
.edge:hover polygon { stroke: red; fill: red; }
]]></style>
<script type="text/javascript"><![CDATA[
var edges = document.getElementsByTagName('g');
if (edges && edges.length) {
  for (var i=0;i<edges.length;i++) {
    if (edges[i].id.substr(0,4)=='edge') {
      edges[i].setAttribute('class','edge');
    }
  }
}
]]></script>
        <defs>
                <circle id="rim" cx="0" cy="0" r="7"/>
                <circle id="rim2" cx="0" cy="0" r="3.5"/>
                <g id="zoomPlus">
                        <use xlink:href="#rim" fill="#404040">
                                <set attributeName="fill" to="#808080" begin="zoomplus.mouseover" end="zoomplus.mouseout"/>
                        </use>
                        <path d="M-4,0h8M0,-4v8" fill="none" stroke="white" stroke-width="1.5" pointer-events="none"/>
                </g>
                <g id="zoomMin">
                        <use xlink:href="#rim" fill="#404040">
                                <set attributeName="fill" to="#808080" begin="zoomminus.mouseover" end="zoomminus.mouseout"/>
                        </use>
                        <path d="M-4,0h8" fill="none" stroke="white" stroke-width="1.5" pointer-events="none"/>
                </g>
                <g id="dirArrow">
                        <path fill="none" stroke="white" stroke-width="1.5" d="M0,-3.0v7 M-2.5,-0.5L0,-3.0L2.5,-0.5"/>
                </g>
               <g id="resetDef">
                       <use xlink:href="#rim2" fill="#404040">
                               <set attributeName="fill" to="#808080" begin="reset.mouseover" end="reset.mouseout"/>
                       </use>
               </g>
        </defs>

<script type="text/javascript">
var viewWidth = 857;
var viewHeight = 543;
var sectionId = 'dynsection-61';
</script>
<script xlink:href="svgpan.js"/>
<svg id="graph" class="graph">
<g id="viewport">
<title>CO_Andisol\logged_in</title>
<polygon fill="#ffffff" stroke="transparent" points="-4,4 -4,-539 853.3711,-539 853.3711,4 -4,4"/>
<!-- Node1 -->
<g id="node1" class="node">
<title>Node1</title>
<g id="a_node1"><a xlink:title=" ">
<polygon fill="#bfbfbf" stroke="#000000" points="733.8594,-364.5 733.8594,-382.5 849.3711,-382.5 849.3711,-364.5 733.8594,-364.5"/>
<text text-anchor="middle" x="791.6152" y="-370.5" font-family="Helvetica,sans-Serif" font-size="10.00" fill="#000000">CO_Andisol\logged_in</text>
</a>
</g>
</g>
<!-- Node2 -->
<g id="node2" class="node">
<title>Node2</title>
<g id="a_node2"><a xlink:href="a00219.html#a190232857416d5f1e7033452ac1bf6c0" target="_top" xlink:title=" ">
<polygon fill="#ffffff" stroke="#000000" points="576.5225,-469.5 576.5225,-497.5 682.0146,-497.5 682.0146,-469.5 576.5225,-469.5"/>
<text text-anchor="start" x="584.5225" y="-485.5" font-family="Helvetica,sans-Serif" font-size="10.00" fill="#000000">CO_Andisol\_create</text>
<text text-anchor="middle" x="629.2686" y="-475.5" font-family="Helvetica,sans-Serif" font-size="10.00" fill="#000000">_db_object</text>
</a>
</g>
</g>
<!-- Node1&#45;&gt;Node2 -->
<g id="edge1" class="edge">
<title>Node1&#45;&gt;Node2</title>
<path fill="none" stroke="#191970" d="M777.4041,-390.4799C760.3336,-409.8934 729.9598,-441.4413 697.8594,-460.5 692.1355,-463.8984 685.8418,-466.8754 679.4594,-469.46"/>
<polygon fill="#191970" stroke="#191970" points="780.1975,-392.5997 784.071,-382.7383 774.8933,-388.0318 780.1975,-392.5997"/>
</g>
<!-- Node10 -->
<g id="node10" class="node">
<title>Node10</title>
<g id="a_node10"><a xlink:href="a00219.html#a3211db47dc4bd5f77983aedc341c0805" target="_top" xlink:title=" ">
<polygon fill="#ffffff" stroke="#000000" points="567.3501,-422.5 567.3501,-450.5 691.187,-450.5 691.187,-422.5 567.3501,-422.5"/>
<text text-anchor="start" x="575.3501" y="-438.5" font-family="Helvetica,sans-Serif" font-size="10.00" fill="#000000">CO_Andisol\delete_item</text>
<text text-anchor="middle" x="629.2686" y="-428.5" font-family="Helvetica,sans-Serif" font-size="10.00" fill="#000000">_by_id</text>
</a>
</g>
</g>
<!-- Node1&#45;&gt;Node10 -->
<g id="edge9" class="edge">
<title>Node1&#45;&gt;Node10</title>
<path fill="none" stroke="#191970" d="M762.3997,-386.6754C744.0239,-394.7847 719.7321,-405.1821 697.8594,-413.5 689.8765,-416.5358 681.295,-419.5816 672.9961,-422.418"/>
<polygon fill="#191970" stroke="#191970" points="763.9679,-389.8086 771.6858,-382.5502 761.126,-383.4115 763.9679,-389.8086"/>
</g>
<!-- Node11 -->
<g id="node11" class="node">
<title>Node11</title>
<g id="a_node11"><a xlink:href="a00219.html#a24cb5350928f501bb7567b6b9d7b20cd" target="_top" xlink:title=" ">
<polygon fill="#ffffff" stroke="#000000" points="560.6777,-385.5 560.6777,-403.5 697.8594,-403.5 697.8594,-385.5 560.6777,-385.5"/>
<text text-anchor="middle" x="629.2686" y="-391.5" font-family="Helvetica,sans-Serif" font-size="10.00" fill="#000000">CO_Andisol\get_login_item</text>
</a>
</g>
</g>
<!-- Node1&#45;&gt;Node11 -->
<g id="edge10" class="edge">
<title>Node1&#45;&gt;Node11</title>
<path fill="none" stroke="#191970" d="M723.3788,-382.3266C715.015,-383.4085 706.463,-384.5147 698.0906,-385.5977"/>
<polygon fill="#191970" stroke="#191970" points="723.9946,-385.7762 733.4629,-381.0222 723.0965,-378.834 723.9946,-385.7762"/>
</g>
<!-- Node13 -->
<g id="node13" class="node">
<title>Node13</title>
<g id="a_node13"><a xlink:href="a00219.html#a05d1a595153707e3c6f232ba9f766124" target="_top" xlink:title=" ">
<polygon fill="#ffffff" stroke="#000000" points="572.6284,-338.5 572.6284,-366.5 685.9087,-366.5 685.9087,-338.5 572.6284,-338.5"/>
<text text-anchor="start" x="580.6284" y="-354.5" font-family="Helvetica,sans-Serif" font-size="10.00" fill="#000000">CO_Andisol\get_login</text>
<text text-anchor="middle" x="629.2686" y="-344.5" font-family="Helvetica,sans-Serif" font-size="10.00" fill="#000000">_item_by_login_string</text>
</a>
</g>
</g>
<!-- Node1&#45;&gt;Node13 -->
<g id="edge12" class="edge">
<title>Node1&#45;&gt;Node13</title>
<path fill="none" stroke="#191970" d="M723.5364,-364.6938C711.0153,-363.0742 698.0673,-361.3993 685.9267,-359.8289"/>
<polygon fill="#191970" stroke="#191970" points="723.0965,-368.166 733.4629,-365.9778 723.9946,-361.2238 723.0965,-368.166"/>
</g>
<!-- Node15 -->
<g id="node15" class="node">
<title>Node15</title>
<g id="a_node15"><a xlink:href="a00219.html#af5f39aa13714ad544a9099edb0d51cd5" target="_top" xlink:title=" ">
<polygon fill="#ffffff" stroke="#000000" points="573.4658,-205.5 573.4658,-223.5 685.0713,-223.5 685.0713,-205.5 573.4658,-205.5"/>
<text text-anchor="middle" x="629.2686" y="-211.5" font-family="Helvetica,sans-Serif" font-size="10.00" fill="#000000">CO_Andisol\manager</text>
</a>
</g>
</g>
<!-- Node1&#45;&gt;Node15 -->
<g id="edge14" class="edge">
<title>Node1&#45;&gt;Node15</title>
<path fill="none" stroke="#191970" d="M775.1791,-357.4027C741.4777,-324.3961 665.4731,-249.9582 638.7657,-223.8014"/>
<polygon fill="#191970" stroke="#191970" points="772.8283,-359.9994 782.4216,-364.4959 777.7262,-354.9983 772.8283,-359.9994"/>
</g>
<!-- Node29 -->
<g id="node29" class="node">
<title>Node29</title>
<g id="a_node29"><a xlink:href="a00219.html#a9e01279d8bb11cb25f5477bb75123cba" target="_top" xlink:title=" ">
<polygon fill="#ffffff" stroke="#000000" points="571.7959,-77.5 571.7959,-105.5 686.7412,-105.5 686.7412,-77.5 571.7959,-77.5"/>
<text text-anchor="start" x="579.7959" y="-93.5" font-family="Helvetica,sans-Serif" font-size="10.00" fill="#000000">CO_Andisol\set_value</text>
<text text-anchor="middle" x="629.2686" y="-83.5" font-family="Helvetica,sans-Serif" font-size="10.00" fill="#000000">_for_key</text>
</a>
</g>
</g>
<!-- Node1&#45;&gt;Node29 -->
<g id="edge29" class="edge">
<title>Node1&#45;&gt;Node29</title>
<path fill="none" stroke="#191970" d="M782.4665,-354.895C766.286,-322.3056 731.1755,-252.987 697.8594,-196.5 678.1696,-163.1163 652.7001,-125.3936 639.0074,-105.5054"/>
<polygon fill="#191970" stroke="#191970" points="779.4591,-356.7094 787.0286,-364.1226 785.7342,-353.6071 779.4591,-356.7094"/>
</g>
<!-- Node3 -->
<g id="node3" class="node">
<title>Node3</title>
<g id="a_node3"><a xlink:href="a00219.html#a1783b1403b768959f80f17b08a5e8f82" target="_top" xlink:title=" ">
<polygon fill="#ffffff" stroke="#000000" points="367.2031,-469.5 367.2031,-497.5 506.0547,-497.5 506.0547,-469.5 367.2031,-469.5"/>
<text text-anchor="start" x="375.2031" y="-485.5" font-family="Helvetica,sans-Serif" font-size="10.00" fill="#000000">CO_Andisol\create_general</text>
<text text-anchor="middle" x="436.6289" y="-475.5" font-family="Helvetica,sans-Serif" font-size="10.00" fill="#000000">_data_item</text>
</a>
</g>
</g>
<!-- Node2&#45;&gt;Node3 -->
<g id="edge2" class="edge">
<title>Node2&#45;&gt;Node3</title>
<path fill="none" stroke="#191970" d="M566.2624,-483.5C547.1092,-483.5 525.9517,-483.5 506.3816,-483.5"/>
<polygon fill="#191970" stroke="#191970" points="566.3742,-487.0001 576.3741,-483.5 566.3741,-480.0001 566.3742,-487.0001"/>
</g>
<!-- Node4 -->
<g id="node4" class="node">
<title>Node4</title>
<g id="a_node4"><a xlink:href="a00219.html#a1432efeebcc0952a1236feec7bbceb13" target="_top" xlink:title=" ">
<polygon fill="#ffffff" stroke="#000000" points="165.3984,-516.5 165.3984,-534.5 312.5801,-534.5 312.5801,-516.5 165.3984,-516.5"/>
<text text-anchor="middle" x="238.9893" y="-522.5" font-family="Helvetica,sans-Serif" font-size="10.00" fill="#000000">CO_Andisol\create_collection</text>
</a>
</g>
</g>
<!-- Node3&#45;&gt;Node4 -->
<g id="edge3" class="edge">
<title>Node3&#45;&gt;Node4</title>
<path fill="none" stroke="#191970" d="M360.7553,-499.6237C333.8506,-505.3412 304.5438,-511.5691 281.4249,-516.4821"/>
<polygon fill="#191970" stroke="#191970" points="361.489,-503.0461 370.543,-497.5438 360.0339,-496.199 361.489,-503.0461"/>
</g>
<!-- Node5 -->
<g id="node5" class="node">
<title>Node5</title>
<g id="a_node5"><a xlink:href="a00219.html#a24b15c45e28b5a0fb4971c11b4e5ed99" target="_top" xlink:title=" ">
<polygon fill="#ffffff" stroke="#000000" points="184.0215,-469.5 184.0215,-497.5 293.957,-497.5 293.957,-469.5 184.0215,-469.5"/>
<text text-anchor="start" x="192.0215" y="-485.5" font-family="Helvetica,sans-Serif" font-size="10.00" fill="#000000">CO_Andisol\create_ll</text>
<text text-anchor="middle" x="238.9893" y="-475.5" font-family="Helvetica,sans-Serif" font-size="10.00" fill="#000000">_location</text>
</a>
</g>
</g>
<!-- Node3&#45;&gt;Node5 -->
<g id="edge4" class="edge">
<title>Node3&#45;&gt;Node5</title>
<path fill="none" stroke="#191970" d="M356.7376,-483.5C335.7074,-483.5 313.489,-483.5 294.087,-483.5"/>
<polygon fill="#191970" stroke="#191970" points="356.9486,-487.0001 366.9486,-483.5 356.9485,-480.0001 356.9486,-487.0001"/>
</g>
<!-- Node6 -->
<g id="node6" class="node">
<title>Node6</title>
<g id="a_node6"><a xlink:href="a00219.html#a79103b0d231d1dcc1f7c1921e5118621" target="_top" xlink:title=" ">
<polygon fill="#ffffff" stroke="#000000" points="174.29,-432.5 174.29,-450.5 303.6885,-450.5 303.6885,-432.5 174.29,-432.5"/>
<text text-anchor="middle" x="238.9893" y="-438.5" font-family="Helvetica,sans-Serif" font-size="10.00" fill="#000000">CO_Andisol\create_place</text>
</a>
</g>
</g>
<!-- Node3&#45;&gt;Node6 -->
<g id="edge5" class="edge">
<title>Node3&#45;&gt;Node6</title>
<path fill="none" stroke="#191970" d="M360.7553,-467.3763C333.8506,-461.6588 304.5438,-455.4309 281.4249,-450.5179"/>
<polygon fill="#191970" stroke="#191970" points="360.0339,-470.801 370.543,-469.4562 361.489,-463.9539 360.0339,-470.801"/>
</g>
<!-- Node7 -->
<g id="node7" class="node">
<title>Node7</title>
<g id="a_node7"><a xlink:href="a00219.html#a58956fb178766e8d0074dcb138d1e650" target="_top" xlink:title=" ">
<polygon fill="#ffffff" stroke="#000000" points="9.7314,-474.5 9.7314,-502.5 119.667,-502.5 119.667,-474.5 9.7314,-474.5"/>
<text text-anchor="start" x="17.7314" y="-490.5" font-family="Helvetica,sans-Serif" font-size="10.00" fill="#000000">CO_Andisol\create_ll</text>
<text text-anchor="middle" x="64.6992" y="-480.5" font-family="Helvetica,sans-Serif" font-size="10.00" fill="#000000">_place</text>
</a>
</g>
</g>
<!-- Node6&#45;&gt;Node7 -->
<g id="edge6" class="edge">
<title>Node6&#45;&gt;Node7</title>
<path fill="none" stroke="#191970" d="M193.5092,-453.1016C184.2016,-455.5154 174.4773,-458.066 165.3984,-460.5 148.8356,-464.9404 130.779,-469.918 114.5885,-474.431"/>
<polygon fill="#191970" stroke="#191970" points="194.5883,-456.4379 203.3951,-450.548 192.8376,-449.6603 194.5883,-456.4379"/>
</g>
<!-- Node8 -->
<g id="node8" class="node">
<title>Node8</title>
<g id="a_node8"><a xlink:href="a00219.html#a5f26c529c4b6d41367241db17d114fb5" target="_top" xlink:title=" ">
<polygon fill="#ffffff" stroke="#000000" points="9.7314,-427.5 9.7314,-455.5 119.667,-455.5 119.667,-427.5 9.7314,-427.5"/>
<text text-anchor="start" x="17.7314" y="-443.5" font-family="Helvetica,sans-Serif" font-size="10.00" fill="#000000">CO_Andisol\create_ll</text>
<text text-anchor="middle" x="64.6992" y="-433.5" font-family="Helvetica,sans-Serif" font-size="10.00" fill="#000000">_us_place</text>
</a>
</g>
</g>
<!-- Node6&#45;&gt;Node8 -->
<g id="edge7" class="edge">
<title>Node6&#45;&gt;Node8</title>
<path fill="none" stroke="#191970" d="M163.9544,-441.5C149.1735,-441.5 133.9186,-441.5 119.9355,-441.5"/>
<polygon fill="#191970" stroke="#191970" points="164.0901,-445.0001 174.0901,-441.5 164.09,-438.0001 164.0901,-445.0001"/>
</g>
<!-- Node9 -->
<g id="node9" class="node">
<title>Node9</title>
<g id="a_node9"><a xlink:href="a00219.html#a492fc0036d5930c325ed14bfcdd5938a" target="_top" xlink:title=" ">
<polygon fill="#ffffff" stroke="#000000" points="0,-380.5 0,-408.5 129.3984,-408.5 129.3984,-380.5 0,-380.5"/>
<text text-anchor="start" x="8" y="-396.5" font-family="Helvetica,sans-Serif" font-size="10.00" fill="#000000">CO_Andisol\create_place</text>
<text text-anchor="middle" x="64.6992" y="-386.5" font-family="Helvetica,sans-Serif" font-size="10.00" fill="#000000">_collection</text>
</a>
</g>
</g>
<!-- Node6&#45;&gt;Node9 -->
<g id="edge8" class="edge">
<title>Node6&#45;&gt;Node9</title>
<path fill="none" stroke="#191970" d="M195.5388,-429.7829C171.6493,-423.3407 141.8497,-415.3048 116.7264,-408.5299"/>
<polygon fill="#191970" stroke="#191970" points="194.818,-433.2135 205.3844,-432.4379 196.6406,-426.4549 194.818,-433.2135"/>
</g>
<!-- Node12 -->
<g id="node12" class="node">
<title>Node12</title>
<g id="a_node12"><a xlink:href="a00219.html#afa726783f29cadc795d892eb9f825fa1" target="_top" xlink:title=" ">
<polygon fill="#ffffff" stroke="#000000" points="384.9985,-402.5 384.9985,-430.5 488.2593,-430.5 488.2593,-402.5 384.9985,-402.5"/>
<text text-anchor="start" x="392.9985" y="-418.5" font-family="Helvetica,sans-Serif" font-size="10.00" fill="#000000">CO_Andisol\current</text>
<text text-anchor="middle" x="436.6289" y="-408.5" font-family="Helvetica,sans-Serif" font-size="10.00" fill="#000000">_login</text>
</a>
</g>
</g>
<!-- Node11&#45;&gt;Node12 -->
<g id="edge11" class="edge">
<title>Node11&#45;&gt;Node12</title>
<path fill="none" stroke="#191970" d="M550.3812,-403.5092C529.4709,-405.8972 507.4267,-408.4147 488.3696,-410.5911"/>
<polygon fill="#191970" stroke="#191970" points="550.9988,-406.9615 560.5371,-402.3493 550.2045,-400.0067 550.9988,-406.9615"/>
</g>
<!-- Node14 -->
<g id="node14" class="node">
<title>Node14</title>
<g id="a_node14"><a xlink:href="a00219.html#a7d4be5fe8eb59e59a6ca94a781980e4f" target="_top" xlink:title=" ">
<polygon fill="#ffffff" stroke="#000000" points="183.4624,-359.5 183.4624,-387.5 294.5161,-387.5 294.5161,-359.5 183.4624,-359.5"/>
<text text-anchor="start" x="191.4624" y="-375.5" font-family="Helvetica,sans-Serif" font-size="10.00" fill="#000000">CO_Andisol\get_user</text>
<text text-anchor="middle" x="238.9893" y="-365.5" font-family="Helvetica,sans-Serif" font-size="10.00" fill="#000000">_from_login_string</text>
</a>
</g>
</g>
<!-- Node13&#45;&gt;Node14 -->
<g id="edge13" class="edge">
<title>Node13&#45;&gt;Node14</title>
<path fill="none" stroke="#191970" d="M562.1649,-356.1107C486.5582,-360.1789 365.0471,-366.7171 294.544,-370.5107"/>
<polygon fill="#191970" stroke="#191970" points="562.7211,-359.5859 572.5186,-355.5536 562.345,-352.596 562.7211,-359.5859"/>
</g>
<!-- Node16 -->
<g id="node16" class="node">
<title>Node16</title>
<g id="a_node16"><a xlink:href="a00219.html#a737ba5cc859a773ab48d09f365fbb4b6" target="_top" xlink:title=" ">
<polygon fill="#ffffff" stroke="#000000" points="365.5454,-158.5 365.5454,-186.5 507.7124,-186.5 507.7124,-158.5 365.5454,-158.5"/>
<text text-anchor="start" x="373.5454" y="-174.5" font-family="Helvetica,sans-Serif" font-size="10.00" fill="#000000">CO_Andisol\_make_security</text>
<text text-anchor="middle" x="436.6289" y="-164.5" font-family="Helvetica,sans-Serif" font-size="10.00" fill="#000000">_token</text>
</a>
</g>
</g>
<!-- Node15&#45;&gt;Node16 -->
<g id="edge15" class="edge">
<title>Node15&#45;&gt;Node16</title>
<path fill="none" stroke="#191970" d="M578.1145,-203.3472C554.4571,-198.1893 526.1007,-192.007 501.0063,-186.5358"/>
<polygon fill="#191970" stroke="#191970" points="577.4264,-206.7793 587.9425,-205.4899 578.9176,-199.94 577.4264,-206.7793"/>
</g>
<!-- Node18 -->
<g id="node18" class="node">
<title>Node18</title>
<g id="a_node18"><a xlink:href="a00219.html#afe9a7dd6ab7e39f73345fa5ecbb177a7" target="_top" xlink:title=" ">
<polygon fill="#ffffff" stroke="#000000" points="362.2031,-121.5 362.2031,-139.5 511.0547,-139.5 511.0547,-121.5 362.2031,-121.5"/>
<text text-anchor="middle" x="436.6289" y="-127.5" font-family="Helvetica,sans-Serif" font-size="10.00" fill="#000000">CO_Andisol\create_new_user</text>
</a>
</g>
</g>
<!-- Node15&#45;&gt;Node18 -->
<g id="edge17" class="edge">
<title>Node15&#45;&gt;Node18</title>
<path fill="none" stroke="#191970" d="M609.7285,-199.1035C589.5546,-183.9723 556.6077,-161.3381 524.6777,-148.5 515.5578,-144.8331 505.5941,-141.881 495.7544,-139.5137"/>
<polygon fill="#191970" stroke="#191970" points="607.73,-201.9812 617.8008,-205.2719 611.9802,-196.4191 607.73,-201.9812"/>
</g>
<!-- Node19 -->
<g id="node19" class="node">
<title>Node19</title>
<g id="a_node19"><a xlink:href="a00219.html#aa4f45eb1ec9c5acc7709cfd9b08348f3" target="_top" xlink:title=" ">
<polygon fill="#ffffff" stroke="#000000" points="374.4297,-84.5 374.4297,-102.5 498.8281,-102.5 498.8281,-84.5 374.4297,-84.5"/>
<text text-anchor="middle" x="436.6289" y="-90.5" font-family="Helvetica,sans-Serif" font-size="10.00" fill="#000000">CO_Andisol\delete_user</text>
</a>
</g>
</g>
<!-- Node15&#45;&gt;Node19 -->
<g id="edge18" class="edge">
<title>Node15&#45;&gt;Node19</title>
<path fill="none" stroke="#191970" d="M616.7765,-197.0157C599.0731,-173.6301 564.3864,-132.6645 524.6777,-111.5 516.6919,-107.2436 507.805,-103.9919 498.8353,-101.5081"/>
<polygon fill="#191970" stroke="#191970" points="614.1457,-199.3451 622.9007,-205.3118 619.7774,-195.1877 614.1457,-199.3451"/>
</g>
<!-- Node20 -->
<g id="node20" class="node">
<title>Node20</title>
<g id="a_node20"><a xlink:href="a00219.html#ae0e62c8ade9295c9b5a2d3b725f8f222" target="_top" xlink:title=" ">
<polygon fill="#ffffff" stroke="#000000" points="385.8262,-37.5 385.8262,-65.5 487.4316,-65.5 487.4316,-37.5 385.8262,-37.5"/>
<text text-anchor="start" x="393.8262" y="-53.5" font-family="Helvetica,sans-Serif" font-size="10.00" fill="#000000">CO_Andisol\get_all</text>
<text text-anchor="middle" x="436.6289" y="-43.5" font-family="Helvetica,sans-Serif" font-size="10.00" fill="#000000">_logins</text>
</a>
</g>
</g>
<!-- Node15&#45;&gt;Node20 -->
<g id="edge19" class="edge">
<title>Node15&#45;&gt;Node20</title>
<path fill="none" stroke="#191970" d="M616.928,-196.6457C592.0174,-160.8092 537.0394,-82.8188 524.6777,-74.5 513.6674,-67.0906 500.4027,-62.0673 487.5485,-58.6619"/>
<polygon fill="#191970" stroke="#191970" points="614.2597,-198.9399 622.834,-205.1633 620.0121,-194.9512 614.2597,-198.9399"/>
</g>
<!-- Node21 -->
<g id="node21" class="node">
<title>Node21</title>
<g id="a_node21"><a xlink:href="a00219.html#a61b9a275c4b8b824d9a2b3aadd421bf7" target="_top" xlink:title=" ">
<polygon fill="#ffffff" stroke="#000000" points="381.1021,-316.5 381.1021,-344.5 492.1558,-344.5 492.1558,-316.5 381.1021,-316.5"/>
<text text-anchor="start" x="389.1021" y="-332.5" font-family="Helvetica,sans-Serif" font-size="10.00" fill="#000000">CO_Andisol\get_user</text>
<text text-anchor="middle" x="436.6289" y="-322.5" font-family="Helvetica,sans-Serif" font-size="10.00" fill="#000000">_from_login</text>
</a>
</g>
</g>
<!-- Node15&#45;&gt;Node21 -->
<g id="edge20" class="edge">
<title>Node15&#45;&gt;Node21</title>
<path fill="none" stroke="#191970" d="M614.8657,-231.5039C596.1829,-252.4738 561.5872,-287.758 524.6777,-307.5 514.7864,-312.7907 503.6089,-316.9158 492.6196,-320.115"/>
<polygon fill="#191970" stroke="#191970" points="617.7109,-233.5665 621.6462,-223.7296 612.4355,-228.9655 617.7109,-233.5665"/>
</g>
<!-- Node23 -->
<g id="node23" class="node">
<title>Node23</title>
<g id="a_node23"><a xlink:href="a00219.html#a370ab6e2bb53c900f25a6005d0e5077d" target="_top" xlink:title=" ">
<polygon fill="#ffffff" stroke="#000000" points="392.2178,-279.5 392.2178,-297.5 481.04,-297.5 481.04,-279.5 392.2178,-279.5"/>
<text text-anchor="middle" x="436.6289" y="-285.5" font-family="Helvetica,sans-Serif" font-size="10.00" fill="#000000">CO_Andisol\god</text>
</a>
</g>
</g>
<!-- Node15&#45;&gt;Node23 -->
<g id="edge23" class="edge">
<title>Node15&#45;&gt;Node23</title>
<path fill="none" stroke="#191970" d="M606.6919,-229.0798C586.0904,-241.7671 554.4124,-259.7599 524.6777,-270.5 510.8837,-275.4824 495.3483,-279.2327 481.2102,-281.984"/>
<polygon fill="#191970" stroke="#191970" points="608.714,-231.9432 615.3312,-223.669 604.9984,-226.0107 608.714,-231.9432"/>
</g>
<!-- Node27 -->
<g id="node27" class="node">
<title>Node27</title>
<g id="a_node27"><a xlink:href="a00219.html#a73ccfd34793c0197e2dc336b44e3577e" target="_top" xlink:title=" ">
<polygon fill="#ffffff" stroke="#000000" points="348.5801,-242.5 348.5801,-260.5 524.6777,-260.5 524.6777,-242.5 348.5801,-242.5"/>
<text text-anchor="middle" x="436.6289" y="-248.5" font-family="Helvetica,sans-Serif" font-size="10.00" fill="#000000">CO_Andisol\make_standalone_user</text>
</a>
</g>
</g>
<!-- Node15&#45;&gt;Node27 -->
<g id="edge27" class="edge">
<title>Node15&#45;&gt;Node27</title>
<path fill="none" stroke="#191970" d="M572.023,-225.4951C543.8307,-230.9099 510.2606,-237.3577 483.6008,-242.4782"/>
<polygon fill="#191970" stroke="#191970" points="572.9833,-228.8747 582.1436,-223.5512 571.6629,-222.0003 572.9833,-228.8747"/>
</g>
<!-- Node28 -->
<g id="node28" class="node">
<title>Node28</title>
<g id="a_node28"><a xlink:href="a00219.html#a4a99f9757a91355dd3aca720dcf5a770" target="_top" xlink:title=" ">
<polygon fill="#ffffff" stroke="#000000" points="369.7031,-205.5 369.7031,-223.5 503.5547,-223.5 503.5547,-205.5 369.7031,-205.5"/>
<text text-anchor="middle" x="436.6289" y="-211.5" font-family="Helvetica,sans-Serif" font-size="10.00" fill="#000000">CO_Andisol\who_can_see</text>
</a>
</g>
</g>
<!-- Node15&#45;&gt;Node28 -->
<g id="edge28" class="edge">
<title>Node15&#45;&gt;Node28</title>
<path fill="none" stroke="#191970" d="M563.126,-214.5C543.916,-214.5 522.9246,-214.5 503.6606,-214.5"/>
<polygon fill="#191970" stroke="#191970" points="563.2905,-218.0001 573.2904,-214.5 563.2904,-211.0001 563.2905,-218.0001"/>
</g>
<!-- Node17 -->
<g id="node17" class="node">
<title>Node17</title>
<g id="a_node17"><a xlink:href="a00219.html#ad0ac8fb3000239301a9f2be905c1a124" target="_top" xlink:title=" ">
<polygon fill="#ffffff" stroke="#000000" points="170.6865,-134.5 170.6865,-162.5 307.292,-162.5 307.292,-134.5 170.6865,-134.5"/>
<text text-anchor="start" x="178.6865" y="-150.5" font-family="Helvetica,sans-Serif" font-size="10.00" fill="#000000">CO_Andisol\make_security</text>
<text text-anchor="middle" x="238.9893" y="-140.5" font-family="Helvetica,sans-Serif" font-size="10.00" fill="#000000">_token</text>
</a>
</g>
</g>
<!-- Node16&#45;&gt;Node17 -->
<g id="edge16" class="edge">
<title>Node16&#45;&gt;Node17</title>
<path fill="none" stroke="#191970" d="M355.0219,-162.5902C339.2583,-160.676 322.8917,-158.6885 307.594,-156.8309"/>
<polygon fill="#191970" stroke="#191970" points="354.9274,-166.1044 365.2765,-163.8354 355.7713,-159.1554 354.9274,-166.1044"/>
</g>
<!-- Node21&#45;&gt;Node14 -->
<g id="edge22" class="edge">
<title>Node21&#45;&gt;Node14</title>
<path fill="none" stroke="#191970" d="M371.0446,-344.769C346.3625,-350.1391 318.5496,-356.1903 294.8365,-361.3494"/>
<polygon fill="#191970" stroke="#191970" points="372.022,-348.1383 381.0493,-342.5923 370.5338,-341.2984 372.022,-348.1383"/>
</g>
<!-- Node22 -->
<g id="node22" class="node">
<title>Node22</title>
<g id="a_node22"><a xlink:href="a00219.html#a661842aaa6be17af30fbac58b5008c36" target="_top" xlink:title=" ">
<polygon fill="#ffffff" stroke="#000000" points="174.8516,-322.5 174.8516,-340.5 303.127,-340.5 303.127,-322.5 174.8516,-322.5"/>
<text text-anchor="middle" x="238.9893" y="-328.5" font-family="Helvetica,sans-Serif" font-size="10.00" fill="#000000">CO_Andisol\current_user</text>
</a>
</g>
</g>
<!-- Node21&#45;&gt;Node22 -->
<g id="edge21" class="edge">
<title>Node21&#45;&gt;Node22</title>
<path fill="none" stroke="#191970" d="M370.8995,-330.8326C349.1108,-330.9428 324.8958,-331.0653 303.2212,-331.175"/>
<polygon fill="#191970" stroke="#191970" points="371.0672,-334.3319 381.0493,-330.7812 371.0317,-327.332 371.0672,-334.3319"/>
</g>
<!-- Node24 -->
<g id="node24" class="node">
<title>Node24</title>
<g id="a_node24"><a xlink:href="a00219.html#a86bc3621ffe539ac5a9239375f0a786b" target="_top" xlink:title=" ">
<polygon fill="#ffffff" stroke="#000000" points="188.1865,-275.5 188.1865,-303.5 289.792,-303.5 289.792,-275.5 188.1865,-275.5"/>
<text text-anchor="start" x="196.1865" y="-291.5" font-family="Helvetica,sans-Serif" font-size="10.00" fill="#000000">CO_Andisol\get_all</text>
<text text-anchor="middle" x="238.9893" y="-281.5" font-family="Helvetica,sans-Serif" font-size="10.00" fill="#000000">_login_users</text>
</a>
</g>
</g>
<!-- Node23&#45;&gt;Node24 -->
<g id="edge24" class="edge">
<title>Node23&#45;&gt;Node24</title>
<path fill="none" stroke="#191970" d="M381.5145,-288.7789C352.8264,-288.924 317.9842,-289.1003 289.9305,-289.2423"/>
<polygon fill="#191970" stroke="#191970" points="381.7993,-292.2776 391.7814,-288.7269 381.7638,-285.2777 381.7993,-292.2776"/>
</g>
<!-- Node25 -->
<g id="node25" class="node">
<title>Node25</title>
<g id="a_node25"><a xlink:href="a00219.html#acd1e344f9f0087ee41414e6aa5f13e1e" target="_top" xlink:title=" ">
<polygon fill="#ffffff" stroke="#000000" points="188.1865,-228.5 188.1865,-256.5 289.792,-256.5 289.792,-228.5 188.1865,-228.5"/>
<text text-anchor="start" x="196.1865" y="-244.5" font-family="Helvetica,sans-Serif" font-size="10.00" fill="#000000">CO_Andisol\get_all</text>
<text text-anchor="middle" x="238.9893" y="-234.5" font-family="Helvetica,sans-Serif" font-size="10.00" fill="#000000">_standalone_users</text>
</a>
</g>
</g>
<!-- Node23&#45;&gt;Node25 -->
<g id="edge25" class="edge">
<title>Node23&#45;&gt;Node25</title>
<path fill="none" stroke="#191970" d="M382.1511,-277.7927C371.023,-275.4849 359.4072,-272.9883 348.5801,-270.5 329.3459,-266.0796 308.3237,-260.8146 289.8817,-256.0494"/>
<polygon fill="#191970" stroke="#191970" points="381.6977,-281.2725 392.1971,-279.8534 383.1044,-274.4153 381.6977,-281.2725"/>
</g>
<!-- Node26 -->
<g id="node26" class="node">
<title>Node26</title>
<g id="a_node26"><a xlink:href="a00219.html#a9d3578d72df7af2ff07e23ea7b1b1af9" target="_top" xlink:title=" ">
<polygon fill="#ffffff" stroke="#000000" points="188.1865,-181.5 188.1865,-209.5 289.792,-209.5 289.792,-181.5 188.1865,-181.5"/>
<text text-anchor="start" x="196.1865" y="-197.5" font-family="Helvetica,sans-Serif" font-size="10.00" fill="#000000">CO_Andisol\get_all</text>
<text text-anchor="middle" x="238.9893" y="-187.5" font-family="Helvetica,sans-Serif" font-size="10.00" fill="#000000">_users</text>
</a>
</g>
</g>
<!-- Node23&#45;&gt;Node26 -->
<g id="edge26" class="edge">
<title>Node23&#45;&gt;Node26</title>
<path fill="none" stroke="#191970" d="M381.8809,-283.9172C370.2354,-281.1867 358.4794,-276.9701 348.5801,-270.5 325.3557,-255.3208 334.9053,-235.9731 312.5801,-219.5 305.8758,-214.5531 298.1024,-210.5946 290.1711,-207.436"/>
<polygon fill="#191970" stroke="#191970" points="381.5439,-287.4193 392.0369,-285.9534 382.92,-280.5558 381.5439,-287.4193"/>
</g>
<!-- Node30 -->
<g id="node30" class="node">
<title>Node30</title>
<g id="a_node30"><a xlink:href="a00219.html#a3a2a831d4194a3ea9b933f98b4ee71f2" target="_top" xlink:title=" ">
<polygon fill="#ffffff" stroke="#000000" points="376.3755,-.5 376.3755,-18.5 496.8823,-18.5 496.8823,-.5 376.3755,-.5"/>
<text text-anchor="middle" x="436.6289" y="-6.5" font-family="Helvetica,sans-Serif" font-size="10.00" fill="#000000">CO_Andisol\delete_key</text>
</a>
</g>
</g>
<!-- Node29&#45;&gt;Node30 -->
<g id="edge30" class="edge">
<title>Node29&#45;&gt;Node30</title>
<path fill="none" stroke="#191970" d="M602.5179,-71.5105C582.162,-57.225 552.9253,-38.6318 524.6777,-27.5 515.3875,-23.8389 505.2394,-20.8834 495.2429,-18.5094"/>
<polygon fill="#191970" stroke="#191970" points="600.4981,-74.3689 610.6693,-77.3348 604.5676,-68.6734 600.4981,-74.3689"/>
</g>
</g>
</svg>
        <g id="navigator" transform="translate(0 0)" fill="#404254">
                <rect fill="#f2f5e9" fill-opacity="0.5" stroke="#606060" stroke-width=".5" x="0" y="0" width="60" height="60"/>
                <use id="zoomplus" xlink:href="#zoomPlus" x="17" y="9" onmousedown="handleZoom(evt,'in')"/>
                <use id="zoomminus" xlink:href="#zoomMin" x="42" y="9" onmousedown="handleZoom(evt,'out')"/>
                <use id="reset" xlink:href="#resetDef" x="30" y="36" onmousedown="handleReset()"/>
                <g id="arrowUp" xlink:href="#dirArrow" transform="translate(30 24)" onmousedown="handlePan(0,-1)">
                  <use xlink:href="#rim" fill="#404040">
                        <set attributeName="fill" to="#808080" begin="arrowUp.mouseover" end="arrowUp.mouseout"/>
                  </use>
                  <path fill="none" stroke="white" stroke-width="1.5" d="M0,-3.0v7 M-2.5,-0.5L0,-3.0L2.5,-0.5"/>
                </g>
                <g id="arrowRight" xlink:href="#dirArrow" transform="rotate(90) translate(36 -43)" onmousedown="handlePan(1,0)">
                  <use xlink:href="#rim" fill="#404040">
                        <set attributeName="fill" to="#808080" begin="arrowRight.mouseover" end="arrowRight.mouseout"/>
                  </use>
                  <path fill="none" stroke="white" stroke-width="1.5" d="M0,-3.0v7 M-2.5,-0.5L0,-3.0L2.5,-0.5"/>
                </g>
                <g id="arrowDown" xlink:href="#dirArrow" transform="rotate(180) translate(-30 -48)" onmousedown="handlePan(0,1)">
                  <use xlink:href="#rim" fill="#404040">
                        <set attributeName="fill" to="#808080" begin="arrowDown.mouseover" end="arrowDown.mouseout"/>
                  </use>
                  <path fill="none" stroke="white" stroke-width="1.5" d="M0,-3.0v7 M-2.5,-0.5L0,-3.0L2.5,-0.5"/>
                </g>
                <g id="arrowLeft" xlink:href="#dirArrow" transform="rotate(270) translate(-36 17)" onmousedown="handlePan(-1,0)">
                  <use xlink:href="#rim" fill="#404040">
                        <set attributeName="fill" to="#808080" begin="arrowLeft.mouseover" end="arrowLeft.mouseout"/>
                  </use>
                  <path fill="none" stroke="white" stroke-width="1.5" d="M0,-3.0v7 M-2.5,-0.5L0,-3.0L2.5,-0.5"/>
                </g>
        </g>
        <svg viewBox="0 0 15 15" width="100%" height="30px" preserveAspectRatio="xMaxYMin meet">
         <g id="arrow_out" transform="scale(0.3 0.3)">
          <a xlink:href="a00219_ac2a2dcb99dc927789b0ffa09c24946de_icgraph_org.svg" target="_base">
           <rect id="button" ry="5" rx="5" y="6" x="6" height="38" width="38"
                fill="#f2f5e9" fill-opacity="0.5" stroke="#606060" stroke-width="1.0"/>
           <path id="arrow"
             d="M 11.500037,31.436501 C 11.940474,20.09759 22.043105,11.32322 32.158766,21.979434 L 37.068811,17.246167 C 37.068811,17.246167 37.088388,32 37.088388,32 L 22.160133,31.978069 C 22.160133,31.978069 26.997745,27.140456 26.997745,27.140456 C 18.528582,18.264221 13.291696,25.230495 11.500037,31.436501 z"
             style="fill:#404040;"/>
          </a>
         </g>
        </svg>
</svg>
