<?xml version="1.0" encoding="UTF-8" standalone="no"?>
<!DOCTYPE svg PUBLIC "-//W3C//DTD SVG 1.1//EN"
 "http://www.w3.org/Graphics/SVG/1.1/DTD/svg11.dtd">
<!-- Generated by graphviz version 2.47.1 (20210417.1919)
 -->
<!-- Title: CO_User_Collection\get_lang Pages: 1 -->
<svg width="573pt" height="78pt"
 viewBox="0.00 0.00 573.00 77.50" xmlns="http://www.w3.org/2000/svg" xmlns:xlink="http://www.w3.org/1999/xlink">
<g id="graph0" class="graph" transform="scale(1 1) rotate(0) translate(4 73.5)">
<title>CO_User_Collection\get_lang</title>
<polygon fill="white" stroke="transparent" points="-4,4 -4,-73.5 569,-73.5 569,4 -4,4"/>
<!-- Node1 -->
<g id="node1" class="node">
<title>Node1</title>
<g id="a_node1"><a xlink:title=" ">
<polygon fill="#bfbfbf" stroke="black" points="0,-17 0,-47 107,-47 107,-17 0,-17"/>
<text text-anchor="start" x="8" y="-35" font-family="Helvetica,sans-Serif" font-size="10.00">CO_User_Collection</text>
<text text-anchor="middle" x="53.5" y="-24" font-family="Helvetica,sans-Serif" font-size="10.00">\get_lang</text>
</a>
</g>
</g>
<!-- Node2 -->
<g id="node2" class="node">
<title>Node2</title>
<g id="a_node2"><a xlink:href="a00276.html#a2cc75e169901df4a8fc859f42e0e9f8c" target="_top" xlink:title=" ">
<polygon fill="white" stroke="black" points="143,-17 143,-47 250,-47 250,-17 143,-17"/>
<text text-anchor="start" x="151" y="-35" font-family="Helvetica,sans-Serif" font-size="10.00">CO_User_Collection</text>
<text text-anchor="middle" x="196.5" y="-24" font-family="Helvetica,sans-Serif" font-size="10.00">\get_login_instance</text>
</a>
</g>
</g>
<!-- Node1&#45;&gt;Node2 -->
<g id="edge1" class="edge">
<title>Node1&#45;&gt;Node2</title>
<path fill="none" stroke="midnightblue" d="M107,-32C115.44,-32 124.26,-32 132.9,-32"/>
<polygon fill="midnightblue" stroke="midnightblue" points="132.95,-35.5 142.95,-32 132.95,-28.5 132.95,-35.5"/>
</g>
<!-- Node3 -->
<g id="node3" class="node">
<title>Node3</title>
<g id="a_node3"><a xlink:href="a00276.html#a67c82465b52bc0d942c84599eb2b62ff" target="_top" xlink:title=" ">
<polygon fill="white" stroke="black" points="286,-17 286,-47 393,-47 393,-17 286,-17"/>
<text text-anchor="start" x="294" y="-35" font-family="Helvetica,sans-Serif" font-size="10.00">CO_User_Collection</text>
<text text-anchor="middle" x="339.5" y="-24" font-family="Helvetica,sans-Serif" font-size="10.00">\_load_login</text>
</a>
</g>
</g>
<!-- Node2&#45;&gt;Node3 -->
<g id="edge2" class="edge">
<title>Node2&#45;&gt;Node3</title>
<path fill="none" stroke="midnightblue" d="M250,-32C258.44,-32 267.26,-32 275.9,-32"/>
<polygon fill="midnightblue" stroke="midnightblue" points="275.95,-35.5 285.95,-32 275.95,-28.5 275.95,-35.5"/>
</g>
<!-- Node4 -->
<g id="node4" class="node">
<title>Node4</title>
<g id="a_node4"><a xlink:href="a00308.html#a8780b40e55827b90bb441671faec2a05" target="_top" xlink:title=" ">
<polygon fill="white" stroke="black" points="437.5,-39 437.5,-69 556.5,-69 556.5,-39 437.5,-39"/>
<text text-anchor="start" x="445.5" y="-57" font-family="Helvetica,sans-Serif" font-size="10.00">A_CO_DB_Table_Base</text>
<text text-anchor="middle" x="497" y="-46" font-family="Helvetica,sans-Serif" font-size="10.00">\get_access_object</text>
</a>
</g>
</g>
<!-- Node3&#45;&gt;Node4 -->
<g id="edge3" class="edge">
<title>Node3&#45;&gt;Node4</title>
<path fill="none" stroke="midnightblue" d="M393.15,-39.45C404.12,-41 415.84,-42.66 427.29,-44.28"/>
<polygon fill="midnightblue" stroke="midnightblue" points="426.87,-47.75 437.26,-45.69 427.85,-40.82 426.87,-47.75"/>
</g>
<!-- Node5 -->
<g id="node5" class="node">
<title>Node5</title>
<g id="a_node5"><a xlink:href="a00316.html#a7f4c18f2ed2bda67f3c38fd95c120c0a" target="_top" xlink:title=" ">
<polygon fill="white" stroke="black" points="429,-0.5 429,-19.5 565,-19.5 565,-0.5 429,-0.5"/>
<text text-anchor="middle" x="497" y="-7.5" font-family="Helvetica,sans-Serif" font-size="10.00">CO_Main_DB_Record\tags</text>
</a>
</g>
</g>
<!-- Node3&#45;&gt;Node5 -->
<g id="edge4" class="edge">
<title>Node3&#45;&gt;Node5</title>
<path fill="none" stroke="midnightblue" d="M393.15,-24.55C401.38,-23.39 410.03,-22.16 418.68,-20.94"/>
<polygon fill="midnightblue" stroke="midnightblue" points="419.39,-24.37 428.8,-19.51 418.41,-17.44 419.39,-24.37"/>
</g>
</g>
</svg>
