<?xml version="1.0" encoding="UTF-8" standalone="no"?>
<!DOCTYPE svg PUBLIC "-//W3C//DTD SVG 1.1//EN"
 "http://www.w3.org/Graphics/SVG/1.1/DTD/svg11.dtd">
<!-- Generated by graphviz version 2.40.1 (20161225.0304)
 -->
<!-- Title: CO_Basalt\_baseline_bulk_loader Pages: 1 -->
<svg width="262pt" height="84pt"
 viewBox="0.00 0.00 261.65 84.00" xmlns="http://www.w3.org/2000/svg" xmlns:xlink="http://www.w3.org/1999/xlink">
<g id="graph0" class="graph" transform="scale(1 1) rotate(0) translate(4 80)">
<title>CO_Basalt\_baseline_bulk_loader</title>
<polygon fill="#ffffff" stroke="transparent" points="-4,4 -4,-80 257.6543,-80 257.6543,4 -4,4"/>
<!-- Node1 -->
<g id="node1" class="node">
<title>Node1</title>
<g id="a_node1"><a xlink:title=" ">
<polygon fill="#bfbfbf" stroke="#000000" points="0,-23.5 0,-51.5 109.9453,-51.5 109.9453,-23.5 0,-23.5"/>
<text text-anchor="start" x="8" y="-39.5" font-family="Helvetica,sans-Serif" font-size="10.00" fill="#000000">CO_Basalt\_baseline</text>
<text text-anchor="middle" x="54.9727" y="-29.5" font-family="Helvetica,sans-Serif" font-size="10.00" fill="#000000">_bulk_loader</text>
</a>
</g>
</g>
<!-- Node2 -->
<g id="node2" class="node">
<title>Node2</title>
<g id="a_node2"><a xlink:href="a00200.html#ad343adeeff085b060c73fc62786aee7b" target="_top" xlink:title=" ">
<polygon fill="#ffffff" stroke="#000000" points="148.4478,-47.5 148.4478,-75.5 251.1519,-75.5 251.1519,-47.5 148.4478,-47.5"/>
<text text-anchor="start" x="156.4478" y="-63.5" font-family="Helvetica,sans-Serif" font-size="10.00" fill="#000000">CO_Basalt\_extract</text>
<text text-anchor="middle" x="199.7998" y="-53.5" font-family="Helvetica,sans-Serif" font-size="10.00" fill="#000000">_csv_data</text>
</a>
</g>
</g>
<!-- Node1&#45;&gt;Node2 -->
<g id="edge1" class="edge">
<title>Node1&#45;&gt;Node2</title>
<path fill="none" stroke="#191970" d="M110.1387,-46.6418C119.2966,-48.1594 128.8452,-49.7418 138.1512,-51.2839"/>
<polygon fill="#191970" stroke="#191970" points="137.6864,-54.7545 148.1241,-52.9366 138.8308,-47.8487 137.6864,-54.7545"/>
</g>
<!-- Node3 -->
<g id="node3" class="node">
<title>Node3</title>
<g id="a_node3"><a xlink:href="a00200.html#a0c8258440777d1e27e88f57f55a9e2a4" target="_top" xlink:title=" ">
<polygon fill="#ffffff" stroke="#000000" points="145.9453,-.5 145.9453,-28.5 253.6543,-28.5 253.6543,-.5 145.9453,-.5"/>
<text text-anchor="start" x="153.9453" y="-16.5" font-family="Helvetica,sans-Serif" font-size="10.00" fill="#000000">CO_Basalt\_process</text>
<text text-anchor="middle" x="199.7998" y="-6.5" font-family="Helvetica,sans-Serif" font-size="10.00" fill="#000000">_bulk_row</text>
</a>
</g>
</g>
<!-- Node1&#45;&gt;Node3 -->
<g id="edge2" class="edge">
<title>Node1&#45;&gt;Node3</title>
<path fill="none" stroke="#191970" d="M110.1387,-28.7391C118.5272,-27.4069 127.2435,-26.0227 135.8009,-24.6637"/>
<polygon fill="#191970" stroke="#191970" points="136.4172,-28.1097 145.7444,-23.0845 135.3192,-21.1964 136.4172,-28.1097"/>
</g>
</g>
</svg>
