<?xml version="1.0" encoding="UTF-8" standalone="no"?>
<!DOCTYPE svg PUBLIC "-//W3C//DTD SVG 1.1//EN"
 "http://www.w3.org/Graphics/SVG/1.1/DTD/svg11.dtd">
<!-- Generated by graphviz version 2.40.1 (20161225.0304)
 -->
<!-- Title: CO_Basalt\_process_baseline_command Pages: 1 -->
<svg width="420pt" height="215pt"
 viewBox="0.00 0.00 420.39 215.00" xmlns="http://www.w3.org/2000/svg" xmlns:xlink="http://www.w3.org/1999/xlink">
<g id="graph0" class="graph" transform="scale(1 1) rotate(0) translate(4 211)">
<title>CO_Basalt\_process_baseline_command</title>
<polygon fill="#ffffff" stroke="transparent" points="-4,4 -4,-211 416.3877,-211 416.3877,4 -4,4"/>
<!-- Node39 -->
<g id="node1" class="node">
<title>Node39</title>
<polygon fill="#bfbfbf" stroke="#000000" points="0,-84.5 0,-112.5 108.2803,-112.5 108.2803,-84.5 0,-84.5"/>
<text text-anchor="start" x="8" y="-100.5" font-family="Helvetica,sans-Serif" font-size="10.00" fill="#000000">CO_Basalt\_process</text>
<text text-anchor="middle" x="54.1401" y="-90.5" font-family="Helvetica,sans-Serif" font-size="10.00" fill="#000000">_baseline_command</text>
</g>
<!-- Node40 -->
<g id="node2" class="node">
<title>Node40</title>
<g id="a_node2"><a xlink:href="a00203.html#a94f153fbc911e113c202f91acc1b270e" target="_top" xlink:title="CO_Basalt\\_baseline\l_bulk_loader">
<polygon fill="#ffffff" stroke="#000000" points="151.5068,-178.5 151.5068,-206.5 261.4521,-206.5 261.4521,-178.5 151.5068,-178.5"/>
<text text-anchor="start" x="159.5068" y="-194.5" font-family="Helvetica,sans-Serif" font-size="10.00" fill="#000000">CO_Basalt\_baseline</text>
<text text-anchor="middle" x="206.4795" y="-184.5" font-family="Helvetica,sans-Serif" font-size="10.00" fill="#000000">_bulk_loader</text>
</a>
</g>
</g>
<!-- Node39&#45;&gt;Node40 -->
<g id="edge1" class="edge">
<title>Node39&#45;&gt;Node40</title>
<path fill="none" stroke="#191970" d="M69.0325,-112.6628C86.0941,-128.282 115.4308,-153.337 144.2803,-169.5 147.2841,-171.1829 150.435,-172.7865 153.6575,-174.3063"/>
<polygon fill="#191970" stroke="#191970" points="152.3042,-177.5347 162.8665,-178.3641 155.1268,-171.129 152.3042,-177.5347"/>
</g>
<!-- Node42 -->
<g id="node4" class="node">
<title>Node42</title>
<g id="a_node4"><a xlink:href="a00203.html#ad72622e9b3a834e50a1a8f4ab488b08a" target="_top" xlink:title="CO_Basalt\\_baseline\l_fetch_backup">
<polygon fill="#ffffff" stroke="#000000" points="151.5068,-131.5 151.5068,-159.5 261.4521,-159.5 261.4521,-131.5 151.5068,-131.5"/>
<text text-anchor="start" x="159.5068" y="-147.5" font-family="Helvetica,sans-Serif" font-size="10.00" fill="#000000">CO_Basalt\_baseline</text>
<text text-anchor="middle" x="206.4795" y="-137.5" font-family="Helvetica,sans-Serif" font-size="10.00" fill="#000000">_fetch_backup</text>
</a>
</g>
</g>
<!-- Node39&#45;&gt;Node42 -->
<g id="edge3" class="edge">
<title>Node39&#45;&gt;Node42</title>
<path fill="none" stroke="#191970" d="M99.847,-112.6015C116.0381,-117.5969 134.4278,-123.2705 151.3216,-128.4826"/>
<polygon fill="#191970" stroke="#191970" points="150.4802,-131.8857 161.0676,-131.4894 152.5439,-125.1968 150.4802,-131.8857"/>
</g>
<!-- Node43 -->
<g id="node5" class="node">
<title>Node43</title>
<g id="a_node5"><a xlink:href="a00203.html#acd909d93bf248e9b07ff9cfdd28df9b9" target="_top" xlink:title="CO_Basalt\\_process\l_serverinfo_command">
<polygon fill="#ffffff" stroke="#000000" points="149.0117,-84.5 149.0117,-112.5 263.9473,-112.5 263.9473,-84.5 149.0117,-84.5"/>
<text text-anchor="start" x="157.0117" y="-100.5" font-family="Helvetica,sans-Serif" font-size="10.00" fill="#000000">CO_Basalt\_process</text>
<text text-anchor="middle" x="206.4795" y="-90.5" font-family="Helvetica,sans-Serif" font-size="10.00" fill="#000000">_serverinfo_command</text>
</a>
</g>
</g>
<!-- Node39&#45;&gt;Node43 -->
<g id="edge4" class="edge">
<title>Node39&#45;&gt;Node43</title>
<path fill="none" stroke="#191970" d="M108.7079,-98.5C118.5047,-98.5 128.8212,-98.5 138.9325,-98.5"/>
<polygon fill="#191970" stroke="#191970" points="138.9485,-102.0001 148.9484,-98.5 138.9484,-95.0001 138.9485,-102.0001"/>
</g>
<!-- Node44 -->
<g id="node6" class="node">
<title>Node44</title>
<g id="a_node6"><a xlink:href="a00203.html#af1b2c5aad7e4010614b891a8e47e469b" target="_top" xlink:title="CO_Basalt\\_process\l_token_command">
<polygon fill="#ffffff" stroke="#000000" points="152.625,-37.5 152.625,-65.5 260.334,-65.5 260.334,-37.5 152.625,-37.5"/>
<text text-anchor="start" x="160.625" y="-53.5" font-family="Helvetica,sans-Serif" font-size="10.00" fill="#000000">CO_Basalt\_process</text>
<text text-anchor="middle" x="206.4795" y="-43.5" font-family="Helvetica,sans-Serif" font-size="10.00" fill="#000000">_token_command</text>
</a>
</g>
</g>
<!-- Node39&#45;&gt;Node44 -->
<g id="edge5" class="edge">
<title>Node39&#45;&gt;Node44</title>
<path fill="none" stroke="#191970" d="M99.847,-84.3985C116.0381,-79.4031 134.4278,-73.7295 151.3216,-68.5174"/>
<polygon fill="#191970" stroke="#191970" points="152.5439,-71.8032 161.0676,-65.5106 150.4802,-65.1143 152.5439,-71.8032"/>
</g>
<!-- Node45 -->
<g id="node7" class="node">
<title>Node45</title>
<g id="a_node7"><a xlink:href="a00203.html#a9917ca310760b3d05cdb027b030f86b4" target="_top" xlink:title="CO_Basalt\\plugin_name">
<polygon fill="#ffffff" stroke="#000000" points="144.2803,-.5 144.2803,-18.5 268.6787,-18.5 268.6787,-.5 144.2803,-.5"/>
<text text-anchor="middle" x="206.4795" y="-6.5" font-family="Helvetica,sans-Serif" font-size="10.00" fill="#000000">CO_Basalt\plugin_name</text>
</a>
</g>
</g>
<!-- Node39&#45;&gt;Node45 -->
<g id="edge6" class="edge">
<title>Node39&#45;&gt;Node45</title>
<path fill="none" stroke="#191970" d="M68.903,-84.2422C85.8485,-68.5791 115.0814,-43.6411 144.2803,-28.5 149.1041,-25.9986 154.3124,-23.7662 159.5901,-21.7901"/>
<polygon fill="#191970" stroke="#191970" points="160.7871,-25.0796 169.0969,-18.5071 158.5022,-18.463 160.7871,-25.0796"/>
</g>
<!-- Node41 -->
<g id="node3" class="node">
<title>Node41</title>
<g id="a_node3"><a xlink:href="a00203.html#a0c8258440777d1e27e88f57f55a9e2a4" target="_top" xlink:title="CO_Basalt\\_process\l_bulk_row">
<polygon fill="#ffffff" stroke="#000000" points="304.6787,-178.5 304.6787,-206.5 412.3877,-206.5 412.3877,-178.5 304.6787,-178.5"/>
<text text-anchor="start" x="312.6787" y="-194.5" font-family="Helvetica,sans-Serif" font-size="10.00" fill="#000000">CO_Basalt\_process</text>
<text text-anchor="middle" x="358.5332" y="-184.5" font-family="Helvetica,sans-Serif" font-size="10.00" fill="#000000">_bulk_row</text>
</a>
</g>
</g>
<!-- Node40&#45;&gt;Node41 -->
<g id="edge2" class="edge">
<title>Node40&#45;&gt;Node41</title>
<path fill="none" stroke="#191970" d="M261.8045,-192.5C272.3577,-192.5 283.487,-192.5 294.2908,-192.5"/>
<polygon fill="#191970" stroke="#191970" points="294.5201,-196.0001 304.52,-192.5 294.52,-189.0001 294.5201,-196.0001"/>
</g>
</g>
</svg>
