<?xml version="1.0" encoding="UTF-8" standalone="no"?>
<!DOCTYPE svg PUBLIC "-//W3C//DTD SVG 1.1//EN"
 "http://www.w3.org/Graphics/SVG/1.1/DTD/svg11.dtd">
<!-- Generated by graphviz version 2.40.1 (20161225.0304)
 -->
<!-- Title: CO_User_Collection\set_given_name Pages: 1 -->
<svg width="571pt" height="113pt"
 viewBox="0.00 0.00 571.31 113.00" xmlns="http://www.w3.org/2000/svg" xmlns:xlink="http://www.w3.org/1999/xlink">
<g id="graph0" class="graph" transform="scale(1 1) rotate(0) translate(4 109)">
<title>CO_User_Collection\set_given_name</title>
<polygon fill="#ffffff" stroke="transparent" points="-4,4 -4,-109 567.3086,-109 567.3086,4 -4,4"/>
<!-- Node1 -->
<g id="node1" class="node">
<title>Node1</title>
<g id="a_node1"><a xlink:title=" ">
<polygon fill="#bfbfbf" stroke="#000000" points="0,-43.5 0,-71.5 107.1475,-71.5 107.1475,-43.5 0,-43.5"/>
<text text-anchor="start" x="8" y="-59.5" font-family="Helvetica,sans-Serif" font-size="10.00" fill="#000000">CO_User_Collection</text>
<text text-anchor="middle" x="53.5737" y="-49.5" font-family="Helvetica,sans-Serif" font-size="10.00" fill="#000000">\set_given_name</text>
</a>
</g>
</g>
<!-- Node2 -->
<g id="node2" class="node">
<title>Node2</title>
<g id="a_node2"><a xlink:href="a00276.html#a9410d46a4cd780a042c738912e11a27d" target="_top" xlink:title=" ">
<polygon fill="#ffffff" stroke="#000000" points="143.1475,-43.5 143.1475,-71.5 250.2949,-71.5 250.2949,-43.5 143.1475,-43.5"/>
<text text-anchor="start" x="151.1475" y="-59.5" font-family="Helvetica,sans-Serif" font-size="10.00" fill="#000000">CO_User_Collection</text>
<text text-anchor="middle" x="196.7212" y="-49.5" font-family="Helvetica,sans-Serif" font-size="10.00" fill="#000000">\set_tag</text>
</a>
</g>
</g>
<!-- Node1&#45;&gt;Node2 -->
<g id="edge1" class="edge">
<title>Node1&#45;&gt;Node2</title>
<path fill="none" stroke="#191970" d="M107.2838,-57.5C115.5184,-57.5 124.0899,-57.5 132.5234,-57.5"/>
<polygon fill="#191970" stroke="#191970" points="132.7101,-61.0001 142.7101,-57.5 132.71,-54.0001 132.7101,-61.0001"/>
</g>
<!-- Node3 -->
<g id="node3" class="node">
<title>Node3</title>
<g id="a_node3"><a xlink:href="a00280.html#a994648913ff9d5f7bb83640bd6239d44" target="_top" xlink:title=" ">
<polygon fill="#ffffff" stroke="#000000" points="291.3022,-86.5 291.3022,-104.5 401.7944,-104.5 401.7944,-86.5 291.3022,-86.5"/>
<text text-anchor="middle" x="346.5483" y="-92.5" font-family="Helvetica,sans-Serif" font-size="10.00" fill="#000000">tCO_Collection\count</text>
</a>
</g>
</g>
<!-- Node2&#45;&gt;Node3 -->
<g id="edge2" class="edge">
<title>Node2&#45;&gt;Node3</title>
<path fill="none" stroke="#191970" d="M250.389,-71.1115C266.9201,-75.3042 284.9559,-79.8786 300.895,-83.9211"/>
<polygon fill="#191970" stroke="#191970" points="300.476,-87.4256 311.0295,-86.4915 302.1969,-80.6404 300.476,-87.4256"/>
</g>
<!-- Node4 -->
<g id="node4" class="node">
<title>Node4</title>
<g id="a_node4"><a xlink:href="a00308.html#a8780b40e55827b90bb441671faec2a05" target="_top" xlink:title=" ">
<polygon fill="#ffffff" stroke="#000000" points="442.8018,-21.5 442.8018,-49.5 563.3086,-49.5 563.3086,-21.5 442.8018,-21.5"/>
<text text-anchor="start" x="450.8018" y="-37.5" font-family="Helvetica,sans-Serif" font-size="10.00" fill="#000000">A_CO_DB_Table_Base</text>
<text text-anchor="middle" x="503.0552" y="-27.5" font-family="Helvetica,sans-Serif" font-size="10.00" fill="#000000">\get_access_object</text>
</a>
</g>
</g>
<!-- Node2&#45;&gt;Node4 -->
<g id="edge3" class="edge">
<title>Node2&#45;&gt;Node4</title>
<path fill="none" stroke="#191970" d="M250.431,-53.6427C300.9925,-50.0115 377.0284,-44.5509 432.4709,-40.5692"/>
<polygon fill="#191970" stroke="#191970" points="432.8492,-44.0511 442.5727,-39.8437 432.3477,-37.0691 432.8492,-44.0511"/>
</g>
<!-- Node5 -->
<g id="node5" class="node">
<title>Node5</title>
<g id="a_node5"><a xlink:href="a00308.html#a7d2537d7675ca572ad78096784fe4fe4" target="_top" xlink:title=" ">
<polygon fill="#ffffff" stroke="#000000" points="286.2949,-.5 286.2949,-28.5 406.8018,-28.5 406.8018,-.5 286.2949,-.5"/>
<text text-anchor="start" x="294.2949" y="-16.5" font-family="Helvetica,sans-Serif" font-size="10.00" fill="#000000">A_CO_DB_Table_Base</text>
<text text-anchor="middle" x="346.5483" y="-6.5" font-family="Helvetica,sans-Serif" font-size="10.00" fill="#000000">\user_can_write</text>
</a>
</g>
</g>
<!-- Node2&#45;&gt;Node5 -->
<g id="edge4" class="edge">
<title>Node2&#45;&gt;Node5</title>
<path fill="none" stroke="#191970" d="M245.7802,-43.4202C259.1718,-39.5768 273.8198,-35.3729 287.6963,-31.3904"/>
<polygon fill="#191970" stroke="#191970" points="288.9887,-34.6608 297.6351,-28.538 287.0576,-27.9325 288.9887,-34.6608"/>
</g>
<!-- Node5&#45;&gt;Node4 -->
<g id="edge5" class="edge">
<title>Node5&#45;&gt;Node4</title>
<path fill="none" stroke="#191970" d="M407.058,-22.6191C415.4662,-23.7474 424.1629,-24.9143 432.7315,-26.064"/>
<polygon fill="#191970" stroke="#191970" points="432.3298,-29.5414 442.7065,-27.4024 433.2608,-22.6036 432.3298,-29.5414"/>
</g>
</g>
</svg>
