<?xml version="1.0" encoding="UTF-8" standalone="no"?>
<!DOCTYPE svg PUBLIC "-//W3C//DTD SVG 1.1//EN"
 "http://www.w3.org/Graphics/SVG/1.1/DTD/svg11.dtd">
<!-- Generated by graphviz version 2.40.1 (20161225.0304)
 -->
<!-- Title: CO_Chameleon\get_lang Pages: 1 -->
<svg width="802pt" height="88pt"
 viewBox="0.00 0.00 802.29 88.00" xmlns="http://www.w3.org/2000/svg" xmlns:xlink="http://www.w3.org/1999/xlink">
<g id="graph0" class="graph" transform="scale(1 1) rotate(0) translate(4 84)">
<title>CO_Chameleon\get_lang</title>
<polygon fill="#ffffff" stroke="transparent" points="-4,4 -4,-84 798.293,-84 798.293,4 -4,4"/>
<!-- Node8 -->
<g id="node1" class="node">
<title>Node8</title>
<polygon fill="#bfbfbf" stroke="#000000" points="0,-37.5 0,-55.5 128.8516,-55.5 128.8516,-37.5 0,-37.5"/>
<text text-anchor="middle" x="64.4258" y="-43.5" font-family="Helvetica,sans-Serif" font-size="10.00" fill="#000000">CO_Chameleon\get_lang</text>
</g>
<!-- Node9 -->
<g id="node2" class="node">
<title>Node9</title>
<g id="a_node2"><a xlink:href="a00355.html#a65c256cad68440723a8de979b1b7a1bb" target="_top" xlink:title="CO_Access\\get_login_item">
<polygon fill="#ffffff" stroke="#000000" points="164.8516,-58.5 164.8516,-76.5 301.4668,-76.5 301.4668,-58.5 164.8516,-58.5"/>
<text text-anchor="middle" x="233.1592" y="-64.5" font-family="Helvetica,sans-Serif" font-size="10.00" fill="#000000">CO_Access\get_login_item</text>
</a>
</g>
</g>
<!-- Node8&#45;&gt;Node9 -->
<g id="edge1" class="edge">
<title>Node8&#45;&gt;Node9</title>
<path fill="none" stroke="#191970" d="M129.18,-54.5591C137.5298,-55.5983 146.1509,-56.6712 154.691,-57.7341"/>
<polygon fill="#191970" stroke="#191970" points="154.3024,-61.2127 164.6581,-58.9746 155.1669,-54.2663 154.3024,-61.2127"/>
</g>
<!-- Node13 -->
<g id="node6" class="node">
<title>Node13</title>
<g id="a_node6"><a xlink:href="a00299.html#a88b451020a7174eeb0c06e216ca517cf" target="_top" xlink:title="CO_Chameleon\\get_user\l_from_login">
<polygon fill="#ffffff" stroke="#000000" points="168.46,-11.5 168.46,-39.5 297.8584,-39.5 297.8584,-11.5 168.46,-11.5"/>
<text text-anchor="start" x="176.46" y="-27.5" font-family="Helvetica,sans-Serif" font-size="10.00" fill="#000000">CO_Chameleon\get_user</text>
<text text-anchor="middle" x="233.1592" y="-17.5" font-family="Helvetica,sans-Serif" font-size="10.00" fill="#000000">_from_login</text>
</a>
</g>
</g>
<!-- Node8&#45;&gt;Node13 -->
<g id="edge6" class="edge">
<title>Node8&#45;&gt;Node13</title>
<path fill="none" stroke="#191970" d="M129.18,-38.4409C138.6987,-37.2562 148.5701,-36.0277 158.2722,-34.8202"/>
<polygon fill="#191970" stroke="#191970" points="158.8084,-38.2806 168.2995,-33.5722 157.9438,-31.3341 158.8084,-38.2806"/>
</g>
<!-- Node10 -->
<g id="node3" class="node">
<title>Node10</title>
<g id="a_node3"><a xlink:href="a00355.html#adbc6444fbac916f3a280f4a3ce4f067a" target="_top" xlink:title="CO_Access\\get_login_id">
<polygon fill="#ffffff" stroke="#000000" points="344.686,-37.5 344.686,-55.5 470.1929,-55.5 470.1929,-37.5 344.686,-37.5"/>
<text text-anchor="middle" x="407.4395" y="-43.5" font-family="Helvetica,sans-Serif" font-size="10.00" fill="#000000">CO_Access\get_login_id</text>
</a>
</g>
</g>
<!-- Node9&#45;&gt;Node10 -->
<g id="edge2" class="edge">
<title>Node9&#45;&gt;Node10</title>
<path fill="none" stroke="#191970" d="M301.5392,-59.2605C312.4179,-57.9497 323.7062,-56.5895 334.6815,-55.267"/>
<polygon fill="#191970" stroke="#191970" points="335.1426,-58.7369 344.6521,-54.0656 334.3051,-51.7871 335.1426,-58.7369"/>
</g>
<!-- Node11 -->
<g id="node4" class="node">
<title>Node11</title>
<g id="a_node4"><a xlink:href="a00355.html#aeab406fa4ecc249662fa1e2e073341b2" target="_top" xlink:title="CO_Access\\get_single\l_security_record_by_id">
<polygon fill="#ffffff" stroke="#000000" points="513.4121,-51.5 513.4121,-79.5 632.8008,-79.5 632.8008,-51.5 513.4121,-51.5"/>
<text text-anchor="start" x="521.4121" y="-67.5" font-family="Helvetica,sans-Serif" font-size="10.00" fill="#000000">CO_Access\get_single</text>
<text text-anchor="middle" x="573.1064" y="-57.5" font-family="Helvetica,sans-Serif" font-size="10.00" fill="#000000">_security_record_by_id</text>
</a>
</g>
</g>
<!-- Node9&#45;&gt;Node11 -->
<g id="edge5" class="edge">
<title>Node9&#45;&gt;Node11</title>
<path fill="none" stroke="#191970" d="M301.5437,-67.0977C360.0733,-66.7533 443.9876,-66.2596 503.0064,-65.9124"/>
<polygon fill="#191970" stroke="#191970" points="503.3778,-69.4104 513.357,-65.8515 503.3366,-62.4105 503.3778,-69.4104"/>
</g>
<!-- Node10&#45;&gt;Node11 -->
<g id="edge3" class="edge">
<title>Node10&#45;&gt;Node11</title>
<path fill="none" stroke="#191970" d="M470.5436,-53.7373C481.1457,-54.9532 492.2056,-56.2217 502.9723,-57.4565"/>
<polygon fill="#191970" stroke="#191970" points="502.847,-60.9649 513.1807,-58.6272 503.6446,-54.0105 502.847,-60.9649"/>
</g>
<!-- Node12 -->
<g id="node5" class="node">
<title>Node12</title>
<g id="a_node5"><a xlink:href="a00355.html#a34c23aea84d5c32e600c512167c3497d" target="_top" xlink:title="CO_Access\\get_multiple\l_security_records_by_id">
<polygon fill="#ffffff" stroke="#000000" points="668.8008,-51.5 668.8008,-79.5 794.293,-79.5 794.293,-51.5 668.8008,-51.5"/>
<text text-anchor="start" x="676.8008" y="-67.5" font-family="Helvetica,sans-Serif" font-size="10.00" fill="#000000">CO_Access\get_multiple</text>
<text text-anchor="middle" x="731.5469" y="-57.5" font-family="Helvetica,sans-Serif" font-size="10.00" fill="#000000">_security_records_by_id</text>
</a>
</g>
</g>
<!-- Node11&#45;&gt;Node12 -->
<g id="edge4" class="edge">
<title>Node11&#45;&gt;Node12</title>
<path fill="none" stroke="#191970" d="M633.006,-65.5C641.383,-65.5 650.0671,-65.5 658.6514,-65.5"/>
<polygon fill="#191970" stroke="#191970" points="658.6586,-69.0001 668.6586,-65.5 658.6585,-62.0001 658.6586,-69.0001"/>
</g>
<!-- Node13&#45;&gt;Node10 -->
<g id="edge7" class="edge">
<title>Node13&#45;&gt;Node10</title>
<path fill="none" stroke="#191970" d="M298.0547,-33.3196C309.9252,-34.75 322.3858,-36.2514 334.4726,-37.7078"/>
<polygon fill="#191970" stroke="#191970" points="334.1695,-41.1965 344.5164,-38.9181 335.007,-34.2468 334.1695,-41.1965"/>
</g>
<!-- Node14 -->
<g id="node7" class="node">
<title>Node14</title>
<g id="a_node7"><a xlink:href="a00355.html#a18733db78e2a4cfe35c7a7a41e2f2072" target="_top" xlink:title="CO_Access\\generic_search">
<polygon fill="#ffffff" stroke="#000000" points="337.4668,-.5 337.4668,-18.5 477.4121,-18.5 477.4121,-.5 337.4668,-.5"/>
<text text-anchor="middle" x="407.4395" y="-6.5" font-family="Helvetica,sans-Serif" font-size="10.00" fill="#000000">CO_Access\generic_search</text>
</a>
</g>
</g>
<!-- Node13&#45;&gt;Node14 -->
<g id="edge8" class="edge">
<title>Node13&#45;&gt;Node14</title>
<path fill="none" stroke="#191970" d="M298.0547,-19.5422C307.5359,-18.6718 317.3937,-17.7668 327.1367,-16.8723"/>
<polygon fill="#191970" stroke="#191970" points="327.5898,-20.3455 337.2279,-15.9459 326.9498,-13.3748 327.5898,-20.3455"/>
</g>
</g>
</svg>
