<?xml version="1.0" encoding="UTF-8" standalone="no"?>
<!DOCTYPE svg PUBLIC "-//W3C//DTD SVG 1.1//EN"
 "http://www.w3.org/Graphics/SVG/1.1/DTD/svg11.dtd">
<!-- Generated by graphviz version 2.47.1 (20210417.1919)
 -->
<!-- Title: CO_Cobra\_make_security_token Pages: 1 -->
<svg width="608pt" height="88pt"
 viewBox="0.00 0.00 608.00 88.00" xmlns="http://www.w3.org/2000/svg" xmlns:xlink="http://www.w3.org/1999/xlink">
<g id="graph0" class="graph" transform="scale(1 1) rotate(0) translate(4 84)">
<title>CO_Cobra\_make_security_token</title>
<polygon fill="white" stroke="transparent" points="-4,4 -4,-84 604,-84 604,4 -4,4"/>
<!-- Node1 -->
<g id="node1" class="node">
<title>Node1</title>
<g id="a_node1"><a xlink:title=" ">
<polygon fill="#bfbfbf" stroke="black" points="465,-24.5 465,-54.5 600,-54.5 600,-24.5 465,-24.5"/>
<text text-anchor="start" x="473" y="-42.5" font-family="Helvetica,sans-Serif" font-size="10.00">CO_Cobra\_make_security</text>
<text text-anchor="middle" x="532.5" y="-31.5" font-family="Helvetica,sans-Serif" font-size="10.00">_token</text>
</a>
</g>
</g>
<!-- Node2 -->
<g id="node2" class="node">
<title>Node2</title>
<g id="a_node2"><a xlink:href="a00236.html#a01a955e518587e995a53000c2638c2a8" target="_top" xlink:title=" ">
<polygon fill="white" stroke="black" points="310,-24.5 310,-54.5 429,-54.5 429,-24.5 310,-24.5"/>
<text text-anchor="start" x="318" y="-42.5" font-family="Helvetica,sans-Serif" font-size="10.00">CO_Cobra\_create_this</text>
<text text-anchor="middle" x="369.5" y="-31.5" font-family="Helvetica,sans-Serif" font-size="10.00">_many_personal_ids</text>
</a>
</g>
</g>
<!-- Node1&#45;&gt;Node2 -->
<g id="edge1" class="edge">
<title>Node1&#45;&gt;Node2</title>
<path fill="none" stroke="midnightblue" d="M454.36,-39.5C445.9,-39.5 437.4,-39.5 429.22,-39.5"/>
<polygon fill="midnightblue" stroke="midnightblue" points="454.62,-43 464.62,-39.5 454.62,-36 454.62,-43"/>
</g>
<!-- Node3 -->
<g id="node3" class="node">
<title>Node3</title>
<g id="a_node3"><a xlink:href="a00236.html#ae1d5d148ccfdfdfa1e0d8636130479ab" target="_top" xlink:title=" ">
<polygon fill="white" stroke="black" points="152,-24.5 152,-54.5 274,-54.5 274,-24.5 152,-24.5"/>
<text text-anchor="start" x="160" y="-42.5" font-family="Helvetica,sans-Serif" font-size="10.00">CO_Cobra\_create_new</text>
<text text-anchor="middle" x="213" y="-31.5" font-family="Helvetica,sans-Serif" font-size="10.00">_login</text>
</a>
</g>
</g>
<!-- Node2&#45;&gt;Node3 -->
<g id="edge2" class="edge">
<title>Node2&#45;&gt;Node3</title>
<path fill="none" stroke="midnightblue" d="M299.47,-39.5C291.05,-39.5 282.5,-39.5 274.22,-39.5"/>
<polygon fill="midnightblue" stroke="midnightblue" points="299.65,-43 309.65,-39.5 299.65,-36 299.65,-43"/>
</g>
<!-- Node4 -->
<g id="node4" class="node">
<title>Node4</title>
<g id="a_node4"><a xlink:href="a00236.html#a8587af0d1680b694bf079f74161b6e2f" target="_top" xlink:title=" ">
<polygon fill="white" stroke="black" points="0,-49.5 0,-79.5 116,-79.5 116,-49.5 0,-49.5"/>
<text text-anchor="start" x="8" y="-67.5" font-family="Helvetica,sans-Serif" font-size="10.00">CO_Cobra\create_new</text>
<text text-anchor="middle" x="58" y="-56.5" font-family="Helvetica,sans-Serif" font-size="10.00">_manager_login</text>
</a>
</g>
</g>
<!-- Node3&#45;&gt;Node4 -->
<g id="edge3" class="edge">
<title>Node3&#45;&gt;Node4</title>
<path fill="none" stroke="midnightblue" d="M141.98,-50.94C133.4,-52.34 124.72,-53.76 116.36,-55.13"/>
<polygon fill="midnightblue" stroke="midnightblue" points="142.66,-54.38 151.97,-49.31 141.54,-47.47 142.66,-54.38"/>
</g>
<!-- Node5 -->
<g id="node5" class="node">
<title>Node5</title>
<g id="a_node5"><a xlink:href="a00236.html#ab407239c70f2b284c8ef0d02efa17b01" target="_top" xlink:title=" ">
<polygon fill="white" stroke="black" points="0,-0.5 0,-30.5 116,-30.5 116,-0.5 0,-0.5"/>
<text text-anchor="start" x="8" y="-18.5" font-family="Helvetica,sans-Serif" font-size="10.00">CO_Cobra\create_new</text>
<text text-anchor="middle" x="58" y="-7.5" font-family="Helvetica,sans-Serif" font-size="10.00">_standard_login</text>
</a>
</g>
</g>
<!-- Node3&#45;&gt;Node5 -->
<g id="edge4" class="edge">
<title>Node3&#45;&gt;Node5</title>
<path fill="none" stroke="midnightblue" d="M141.98,-28.52C133.4,-27.17 124.72,-25.81 116.36,-24.5"/>
<polygon fill="midnightblue" stroke="midnightblue" points="141.55,-31.99 151.97,-30.08 142.63,-25.08 141.55,-31.99"/>
</g>
</g>
</svg>
