<?xml version="1.0" encoding="UTF-8" standalone="no"?>
<!DOCTYPE svg PUBLIC "-//W3C//DTD SVG 1.1//EN"
 "http://www.w3.org/Graphics/SVG/1.1/DTD/svg11.dtd">
<!-- Generated by graphviz version 2.40.1 (20161225.0304)
 -->
<!-- Title: CO_Basalt\_process_bulk_row Pages: 1 -->
<svg width="892pt" height="37pt"
 viewBox="0.00 0.00 892.09 37.00" xmlns="http://www.w3.org/2000/svg" xmlns:xlink="http://www.w3.org/1999/xlink">
<g id="graph0" class="graph" transform="scale(1 1) rotate(0) translate(4 33)">
<title>CO_Basalt\_process_bulk_row</title>
<polygon fill="#ffffff" stroke="transparent" points="-4,4 -4,-33 888.0859,-33 888.0859,4 -4,4"/>
<!-- Node51 -->
<g id="node1" class="node">
<title>Node51</title>
<polygon fill="#bfbfbf" stroke="#000000" points="0,-.5 0,-28.5 107.709,-28.5 107.709,-.5 0,-.5"/>
<text text-anchor="start" x="8" y="-16.5" font-family="Helvetica,sans-Serif" font-size="10.00" fill="#000000">CO_Basalt\_process</text>
<text text-anchor="middle" x="53.8545" y="-6.5" font-family="Helvetica,sans-Serif" font-size="10.00" fill="#000000">_bulk_row</text>
</g>
<!-- Node52 -->
<g id="node2" class="node">
<title>Node52</title>
<g id="a_node2"><a xlink:href="a00203.html#a94f153fbc911e113c202f91acc1b270e" target="_top" xlink:title="CO_Basalt\\_baseline\l_bulk_loader">
<polygon fill="#ffffff" stroke="#000000" points="143.709,-.5 143.709,-28.5 253.6543,-28.5 253.6543,-.5 143.709,-.5"/>
<text text-anchor="start" x="151.709" y="-16.5" font-family="Helvetica,sans-Serif" font-size="10.00" fill="#000000">CO_Basalt\_baseline</text>
<text text-anchor="middle" x="198.6816" y="-6.5" font-family="Helvetica,sans-Serif" font-size="10.00" fill="#000000">_bulk_loader</text>
</a>
</g>
</g>
<!-- Node51&#45;&gt;Node52 -->
<g id="edge1" class="edge">
<title>Node51&#45;&gt;Node52</title>
<path fill="none" stroke="#191970" d="M117.9637,-14.5C126.3978,-14.5 134.9842,-14.5 143.2571,-14.5"/>
<polygon fill="#191970" stroke="#191970" points="117.7828,-11.0001 107.7828,-14.5 117.7827,-18.0001 117.7828,-11.0001"/>
</g>
<!-- Node53 -->
<g id="node3" class="node">
<title>Node53</title>
<g id="a_node3"><a xlink:href="a00203.html#a60ce04d2fc76ab876a428500dccb7dd8" target="_top" xlink:title="CO_Basalt\\_process\l_baseline_command">
<polygon fill="#ffffff" stroke="#000000" points="289.6543,-.5 289.6543,-28.5 397.9346,-28.5 397.9346,-.5 289.6543,-.5"/>
<text text-anchor="start" x="297.6543" y="-16.5" font-family="Helvetica,sans-Serif" font-size="10.00" fill="#000000">CO_Basalt\_process</text>
<text text-anchor="middle" x="343.7944" y="-6.5" font-family="Helvetica,sans-Serif" font-size="10.00" fill="#000000">_baseline_command</text>
</a>
</g>
</g>
<!-- Node52&#45;&gt;Node53 -->
<g id="edge2" class="edge">
<title>Node52&#45;&gt;Node53</title>
<path fill="none" stroke="#191970" d="M264.225,-14.5C272.722,-14.5 281.3485,-14.5 289.6324,-14.5"/>
<polygon fill="#191970" stroke="#191970" points="263.9566,-11.0001 253.9565,-14.5 263.9565,-18.0001 263.9566,-11.0001"/>
</g>
<!-- Node54 -->
<g id="node4" class="node">
<title>Node54</title>
<g id="a_node4"><a xlink:href="a00203.html#a474660b01c925a4d47e918c02944ebf7" target="_top" xlink:title="CO_Basalt\\process_command">
<polygon fill="#ffffff" stroke="#000000" points="433.9346,-5.5 433.9346,-23.5 585.5498,-23.5 585.5498,-5.5 433.9346,-5.5"/>
<text text-anchor="middle" x="509.7422" y="-11.5" font-family="Helvetica,sans-Serif" font-size="10.00" fill="#000000">CO_Basalt\process_command</text>
</a>
</g>
</g>
<!-- Node53&#45;&gt;Node54 -->
<g id="edge3" class="edge">
<title>Node53&#45;&gt;Node54</title>
<path fill="none" stroke="#191970" d="M408.2331,-14.5C416.6435,-14.5 425.3216,-14.5 433.8974,-14.5"/>
<polygon fill="#191970" stroke="#191970" points="408.132,-11.0001 398.1319,-14.5 408.1319,-18.0001 408.132,-11.0001"/>
</g>
<!-- Node55 -->
<g id="node5" class="node">
<title>Node55</title>
<g id="a_node5"><a xlink:href="a00203.html#a528297edc9fb3e5e3c8f2e9270621853" target="_top" xlink:title="CO_Basalt\\_process\l_command">
<polygon fill="#ffffff" stroke="#000000" points="621.5498,-.5 621.5498,-28.5 729.2588,-28.5 729.2588,-.5 621.5498,-.5"/>
<text text-anchor="start" x="629.5498" y="-16.5" font-family="Helvetica,sans-Serif" font-size="10.00" fill="#000000">CO_Basalt\_process</text>
<text text-anchor="middle" x="675.4043" y="-6.5" font-family="Helvetica,sans-Serif" font-size="10.00" fill="#000000">_command</text>
</a>
</g>
</g>
<!-- Node54&#45;&gt;Node55 -->
<g id="edge4" class="edge">
<title>Node54&#45;&gt;Node55</title>
<path fill="none" stroke="#191970" d="M595.8554,-14.5C604.434,-14.5 612.9657,-14.5 621.0815,-14.5"/>
<polygon fill="#191970" stroke="#191970" points="595.7853,-11.0001 585.7853,-14.5 595.7852,-18.0001 595.7853,-11.0001"/>
</g>
<!-- Node56 -->
<g id="node6" class="node">
<title>Node56</title>
<g id="a_node6"><a xlink:href="a00203.html#aad1b60cb5230efedfc34a931546d415b" target="_top" xlink:title="CO_Basalt\\__construct">
<polygon fill="#ffffff" stroke="#000000" points="765.2588,-5.5 765.2588,-23.5 884.0859,-23.5 884.0859,-5.5 765.2588,-5.5"/>
<text text-anchor="middle" x="824.6724" y="-11.5" font-family="Helvetica,sans-Serif" font-size="10.00" fill="#000000">CO_Basalt\__construct</text>
</a>
</g>
</g>
<!-- Node55&#45;&gt;Node56 -->
<g id="edge5" class="edge">
<title>Node55&#45;&gt;Node56</title>
<path fill="none" stroke="#191970" d="M739.5116,-14.5C747.9884,-14.5 756.6502,-14.5 765.0476,-14.5"/>
<polygon fill="#191970" stroke="#191970" points="739.2935,-11.0001 729.2935,-14.5 739.2935,-18.0001 739.2935,-11.0001"/>
</g>
</g>
</svg>
