<?xml version="1.0" encoding="UTF-8" standalone="no"?>
<!DOCTYPE svg PUBLIC "-//W3C//DTD SVG 1.1//EN"
 "http://www.w3.org/Graphics/SVG/1.1/DTD/svg11.dtd">
<!-- Generated by graphviz version 2.40.1 (20161225.0304)
 -->
<!-- Title: CO_Andisol\location_search Pages: 1 -->
<svg width="432pt" height="37pt"
 viewBox="0.00 0.00 432.06 37.00" xmlns="http://www.w3.org/2000/svg" xmlns:xlink="http://www.w3.org/1999/xlink">
<g id="graph0" class="graph" transform="scale(1 1) rotate(0) translate(4 33)">
<title>CO_Andisol\location_search</title>
<polygon fill="#ffffff" stroke="transparent" points="-4,4 -4,-33 428.0625,-33 428.0625,4 -4,4"/>
<!-- Node289 -->
<g id="node1" class="node">
<title>Node289</title>
<polygon fill="#bfbfbf" stroke="#000000" points="0,-.5 0,-28.5 106.6055,-28.5 106.6055,-.5 0,-.5"/>
<text text-anchor="start" x="8" y="-16.5" font-family="Helvetica,sans-Serif" font-size="10.00" fill="#000000">CO_Andisol\location</text>
<text text-anchor="middle" x="53.3027" y="-6.5" font-family="Helvetica,sans-Serif" font-size="10.00" fill="#000000">_search</text>
</g>
<!-- Node290 -->
<g id="node2" class="node">
<title>Node290</title>
<g id="a_node2"><a xlink:href="a00219.html#ac76d9996071a383e8723e13ea1544800" target="_top" xlink:title="CO_Andisol\\generic\l_search">
<polygon fill="#ffffff" stroke="#000000" points="142.6055,-.5 142.6055,-28.5 247.541,-28.5 247.541,-.5 142.6055,-.5"/>
<text text-anchor="start" x="150.6055" y="-16.5" font-family="Helvetica,sans-Serif" font-size="10.00" fill="#000000">CO_Andisol\generic</text>
<text text-anchor="middle" x="195.0732" y="-6.5" font-family="Helvetica,sans-Serif" font-size="10.00" fill="#000000">_search</text>
</a>
</g>
</g>
<!-- Node289&#45;&gt;Node290 -->
<g id="edge1" class="edge">
<title>Node289&#45;&gt;Node290</title>
<path fill="none" stroke="#191970" d="M106.9001,-14.5C115.1505,-14.5 123.7337,-14.5 132.1644,-14.5"/>
<polygon fill="#191970" stroke="#191970" points="132.3398,-18.0001 142.3398,-14.5 132.3398,-11.0001 132.3398,-18.0001"/>
</g>
<!-- Node291 -->
<g id="node3" class="node">
<title>Node291</title>
<g id="a_node3"><a xlink:href="a00219.html#acda267f1d6a8e496e167ed46fe590dc6" target="_top" xlink:title="CO_Andisol\\get_chameleon\l_instance">
<polygon fill="#ffffff" stroke="#000000" points="283.541,-.5 283.541,-28.5 424.0625,-28.5 424.0625,-.5 283.541,-.5"/>
<text text-anchor="start" x="291.541" y="-16.5" font-family="Helvetica,sans-Serif" font-size="10.00" fill="#000000">CO_Andisol\get_chameleon</text>
<text text-anchor="middle" x="353.8018" y="-6.5" font-family="Helvetica,sans-Serif" font-size="10.00" fill="#000000">_instance</text>
</a>
</g>
</g>
<!-- Node290&#45;&gt;Node291 -->
<g id="edge2" class="edge">
<title>Node290&#45;&gt;Node291</title>
<path fill="none" stroke="#191970" d="M247.9275,-14.5C256.0948,-14.5 264.6853,-14.5 273.2937,-14.5"/>
<polygon fill="#191970" stroke="#191970" points="273.3832,-18.0001 283.3832,-14.5 273.3832,-11.0001 273.3832,-18.0001"/>
</g>
</g>
</svg>
