<?xml version="1.0" encoding="UTF-8" standalone="no"?>
<!DOCTYPE svg PUBLIC "-//W3C//DTD SVG 1.1//EN"
 "http://www.w3.org/Graphics/SVG/1.1/DTD/svg11.dtd">
<!-- Generated by graphviz version 2.40.1 (20161225.0304)
 -->
<!-- Title: CO_Andisol\create_general_data_item Pages: 1 -->
<svg width="745pt" height="89pt"
 viewBox="0.00 0.00 745.08 89.00" xmlns="http://www.w3.org/2000/svg" xmlns:xlink="http://www.w3.org/1999/xlink">
<g id="graph0" class="graph" transform="scale(1 1) rotate(0) translate(4 85)">
<title>CO_Andisol\create_general_data_item</title>
<polygon fill="#ffffff" stroke="transparent" points="-4,4 -4,-85 741.0811,-85 741.0811,4 -4,4"/>
<!-- Node1 -->
<g id="node1" class="node">
<title>Node1</title>
<g id="a_node1"><a xlink:title=" ">
<polygon fill="#bfbfbf" stroke="#000000" points="0,-52.5 0,-80.5 138.8516,-80.5 138.8516,-52.5 0,-52.5"/>
<text text-anchor="start" x="8" y="-68.5" font-family="Helvetica,sans-Serif" font-size="10.00" fill="#000000">CO_Andisol\create_general</text>
<text text-anchor="middle" x="69.4258" y="-58.5" font-family="Helvetica,sans-Serif" font-size="10.00" fill="#000000">_data_item</text>
</a>
</g>
</g>
<!-- Node2 -->
<g id="node2" class="node">
<title>Node2</title>
<g id="a_node2"><a xlink:href="a00219.html#a190232857416d5f1e7033452ac1bf6c0" target="_top" xlink:title=" ">
<polygon fill="#ffffff" stroke="#000000" points="174.8516,-52.5 174.8516,-80.5 280.3438,-80.5 280.3438,-52.5 174.8516,-52.5"/>
<text text-anchor="start" x="182.8516" y="-68.5" font-family="Helvetica,sans-Serif" font-size="10.00" fill="#000000">CO_Andisol\_create</text>
<text text-anchor="middle" x="227.5977" y="-58.5" font-family="Helvetica,sans-Serif" font-size="10.00" fill="#000000">_db_object</text>
</a>
</g>
</g>
<!-- Node1&#45;&gt;Node2 -->
<g id="edge1" class="edge">
<title>Node1&#45;&gt;Node2</title>
<path fill="none" stroke="#191970" d="M139.2627,-66.5C147.735,-66.5 156.3509,-66.5 164.7143,-66.5"/>
<polygon fill="#191970" stroke="#191970" points="164.7638,-70.0001 174.7638,-66.5 164.7638,-63.0001 164.7638,-70.0001"/>
</g>
<!-- Node3 -->
<g id="node3" class="node">
<title>Node3</title>
<g id="a_node3"><a xlink:href="a00219.html#acda267f1d6a8e496e167ed46fe590dc6" target="_top" xlink:title=" ">
<polygon fill="#ffffff" stroke="#000000" points="596.5596,-33.5 596.5596,-61.5 737.0811,-61.5 737.0811,-33.5 596.5596,-33.5"/>
<text text-anchor="start" x="604.5596" y="-49.5" font-family="Helvetica,sans-Serif" font-size="10.00" fill="#000000">CO_Andisol\get_chameleon</text>
<text text-anchor="middle" x="666.8203" y="-39.5" font-family="Helvetica,sans-Serif" font-size="10.00" fill="#000000">_instance</text>
</a>
</g>
</g>
<!-- Node2&#45;&gt;Node3 -->
<g id="edge2" class="edge">
<title>Node2&#45;&gt;Node3</title>
<path fill="none" stroke="#191970" d="M280.4769,-67.9796C346.248,-69.2969 461.9125,-69.8966 560.5596,-61.5 568.8883,-60.7911 577.566,-59.8999 586.2137,-58.9122"/>
<polygon fill="#191970" stroke="#191970" points="586.8103,-62.3661 596.329,-57.7135 585.9865,-55.4147 586.8103,-62.3661"/>
</g>
<!-- Node4 -->
<g id="node4" class="node">
<title>Node4</title>
<g id="a_node4"><a xlink:href="a00219.html#ac2a2dcb99dc927789b0ffa09c24946de" target="_top" xlink:title=" ">
<polygon fill="#ffffff" stroke="#000000" points="316.3438,-38.5 316.3438,-56.5 431.8555,-56.5 431.8555,-38.5 316.3438,-38.5"/>
<text text-anchor="middle" x="374.0996" y="-44.5" font-family="Helvetica,sans-Serif" font-size="10.00" fill="#000000">CO_Andisol\logged_in</text>
</a>
</g>
</g>
<!-- Node2&#45;&gt;Node4 -->
<g id="edge3" class="edge">
<title>Node2&#45;&gt;Node4</title>
<path fill="none" stroke="#191970" d="M280.4882,-59.6406C288.8533,-58.5557 297.6032,-57.4209 306.2521,-56.2992"/>
<polygon fill="#191970" stroke="#191970" points="306.8628,-59.7494 316.3296,-54.9923 305.9625,-52.8075 306.8628,-59.7494"/>
</g>
<!-- Node4&#45;&gt;Node3 -->
<g id="edge4" class="edge">
<title>Node4&#45;&gt;Node3</title>
<path fill="none" stroke="#191970" d="M431.9318,-47.5C476.0309,-47.5 537.3055,-47.5 586.2137,-47.5"/>
<polygon fill="#191970" stroke="#191970" points="586.4519,-51.0001 596.4518,-47.5 586.4518,-44.0001 586.4519,-51.0001"/>
</g>
<!-- Node5 -->
<g id="node5" class="node">
<title>Node5</title>
<g id="a_node5"><a xlink:href="a00219.html#a4b0ec12b29ce4812cbb4169b68770f66" target="_top" xlink:title=" ">
<polygon fill="#ffffff" stroke="#000000" points="467.8555,-.5 467.8555,-18.5 560.5596,-18.5 560.5596,-.5 467.8555,-.5"/>
<text text-anchor="middle" x="514.2075" y="-6.5" font-family="Helvetica,sans-Serif" font-size="10.00" fill="#000000">CO_Andisol\valid</text>
</a>
</g>
</g>
<!-- Node4&#45;&gt;Node5 -->
<g id="edge5" class="edge">
<title>Node4&#45;&gt;Node5</title>
<path fill="none" stroke="#191970" d="M407.3032,-38.4945C426.3577,-33.3266 450.497,-26.7795 471.0139,-21.215"/>
<polygon fill="#191970" stroke="#191970" points="472.0216,-24.5682 480.7567,-18.5725 470.1892,-17.8123 472.0216,-24.5682"/>
</g>
<!-- Node5&#45;&gt;Node3 -->
<g id="edge6" class="edge">
<title>Node5&#45;&gt;Node3</title>
<path fill="none" stroke="#191970" d="M550.3746,-18.5055C565.3322,-22.2299 583.1664,-26.6705 600.3273,-30.9435"/>
<polygon fill="#191970" stroke="#191970" points="599.7773,-34.4133 610.3267,-33.4333 601.4686,-27.6207 599.7773,-34.4133"/>
</g>
</g>
</svg>
