<?xml version="1.0" encoding="UTF-8" standalone="no"?>
<!DOCTYPE svg PUBLIC "-//W3C//DTD SVG 1.1//EN"
 "http://www.w3.org/Graphics/SVG/1.1/DTD/svg11.dtd">
<!-- Generated by graphviz version 2.40.1 (20161225.0304)
 -->
<!-- Title: CO_Place\get_readable_address Pages: 1 -->
<svg width="292pt" height="37pt"
 viewBox="0.00 0.00 291.69 37.00" xmlns="http://www.w3.org/2000/svg" xmlns:xlink="http://www.w3.org/1999/xlink">
<g id="graph0" class="graph" transform="scale(1 1) rotate(0) translate(4 33)">
<title>CO_Place\get_readable_address</title>
<polygon fill="#ffffff" stroke="transparent" points="-4,4 -4,-33 287.6934,-33 287.6934,4 -4,4"/>
<!-- Node1 -->
<g id="node1" class="node">
<title>Node1</title>
<g id="a_node1"><a xlink:title=" ">
<polygon fill="#bfbfbf" stroke="#000000" points="0,-.5 0,-28.5 122.7383,-28.5 122.7383,-.5 0,-.5"/>
<text text-anchor="start" x="8" y="-16.5" font-family="Helvetica,sans-Serif" font-size="10.00" fill="#000000">CO_Place\get_readable</text>
<text text-anchor="middle" x="61.3691" y="-6.5" font-family="Helvetica,sans-Serif" font-size="10.00" fill="#000000">_address</text>
</a>
</g>
</g>
<!-- Node2 -->
<g id="node2" class="node">
<title>Node2</title>
<g id="a_node2"><a xlink:href="a00260.html#a60b73dee76e98e806f4a872cca13ee58" target="_top" xlink:title=" ">
<polygon fill="#ffffff" stroke="#000000" points="158.7383,-.5 158.7383,-28.5 283.6934,-28.5 283.6934,-.5 158.7383,-.5"/>
<text text-anchor="start" x="166.7383" y="-16.5" font-family="Helvetica,sans-Serif" font-size="10.00" fill="#000000">CO_Place\_get_address</text>
<text text-anchor="middle" x="221.2158" y="-6.5" font-family="Helvetica,sans-Serif" font-size="10.00" fill="#000000">_element_labels</text>
</a>
</g>
</g>
<!-- Node1&#45;&gt;Node2 -->
<g id="edge1" class="edge">
<title>Node1&#45;&gt;Node2</title>
<path fill="none" stroke="#191970" d="M123.17,-14.5C131.4145,-14.5 139.9306,-14.5 148.3417,-14.5"/>
<polygon fill="#191970" stroke="#191970" points="148.5241,-18.0001 158.524,-14.5 148.524,-11.0001 148.5241,-18.0001"/>
</g>
</g>
</svg>
