<?xml version="1.0" encoding="UTF-8" standalone="no"?>
<!DOCTYPE svg PUBLIC "-//W3C//DTD SVG 1.1//EN"
 "http://www.w3.org/Graphics/SVG/1.1/DTD/svg11.dtd">
<!-- Generated by graphviz version 2.40.1 (20161225.0304)
 -->
<!-- Title: CO_Andisol\get_logins_that_have_any_of_my_ids Pages: 1 -->
<svg width="323pt" height="37pt"
 viewBox="0.00 0.00 322.83 37.00" xmlns="http://www.w3.org/2000/svg" xmlns:xlink="http://www.w3.org/1999/xlink">
<g id="graph0" class="graph" transform="scale(1 1) rotate(0) translate(4 33)">
<title>CO_Andisol\get_logins_that_have_any_of_my_ids</title>
<polygon fill="#ffffff" stroke="transparent" points="-4,4 -4,-33 318.8311,-33 318.8311,4 -4,4"/>
<!-- Node1 -->
<g id="node1" class="node">
<title>Node1</title>
<g id="a_node1"><a xlink:title=" ">
<polygon fill="#bfbfbf" stroke="#000000" points="0,-.5 0,-28.5 138.3096,-28.5 138.3096,-.5 0,-.5"/>
<text text-anchor="start" x="8" y="-16.5" font-family="Helvetica,sans-Serif" font-size="10.00" fill="#000000">CO_Andisol\get_logins</text>
<text text-anchor="middle" x="69.1548" y="-6.5" font-family="Helvetica,sans-Serif" font-size="10.00" fill="#000000">_that_have_any_of_my_ids</text>
</a>
</g>
</g>
<!-- Node2 -->
<g id="node2" class="node">
<title>Node2</title>
<g id="a_node2"><a xlink:href="a00216.html#acda267f1d6a8e496e167ed46fe590dc6" target="_top" xlink:title=" ">
<polygon fill="#ffffff" stroke="#000000" points="174.3096,-.5 174.3096,-28.5 314.8311,-28.5 314.8311,-.5 174.3096,-.5"/>
<text text-anchor="start" x="182.3096" y="-16.5" font-family="Helvetica,sans-Serif" font-size="10.00" fill="#000000">CO_Andisol\get_chameleon</text>
<text text-anchor="middle" x="244.5703" y="-6.5" font-family="Helvetica,sans-Serif" font-size="10.00" fill="#000000">_instance</text>
</a>
</g>
</g>
<!-- Node1&#45;&gt;Node2 -->
<g id="edge1" class="edge">
<title>Node1&#45;&gt;Node2</title>
<path fill="none" stroke="#191970" d="M138.4836,-14.5C146.9499,-14.5 155.6553,-14.5 164.2649,-14.5"/>
<polygon fill="#191970" stroke="#191970" points="164.3078,-18.0001 174.3078,-14.5 164.3077,-11.0001 164.3078,-18.0001"/>
</g>
</g>
</svg>
