<?xml version="1.0" encoding="UTF-8" standalone="no"?>
<!DOCTYPE svg PUBLIC "-//W3C//DTD SVG 1.1//EN"
 "http://www.w3.org/Graphics/SVG/1.1/DTD/svg11.dtd">
<!-- Generated by graphviz version 2.47.1 (20210417.1919)
 -->
<!-- Title: CO_Andisol\set_value_for_key Pages: 1 -->
<svg width="573pt" height="91pt"
 viewBox="0.00 0.00 573.00 90.50" xmlns="http://www.w3.org/2000/svg" xmlns:xlink="http://www.w3.org/1999/xlink">
<g id="graph0" class="graph" transform="scale(1 1) rotate(0) translate(4 86.5)">
<title>CO_Andisol\set_value_for_key</title>
<polygon fill="white" stroke="transparent" points="-4,4 -4,-86.5 569,-86.5 569,4 -4,4"/>
<!-- Node1 -->
<g id="node1" class="node">
<title>Node1</title>
<g id="a_node1"><a xlink:title=" ">
<polygon fill="#bfbfbf" stroke="black" points="0,-52 0,-82 114,-82 114,-52 0,-52"/>
<text text-anchor="start" x="8" y="-70" font-family="Helvetica,sans-Serif" font-size="10.00">CO_Andisol\set_value</text>
<text text-anchor="middle" x="57" y="-59" font-family="Helvetica,sans-Serif" font-size="10.00">_for_key</text>
</a>
</g>
</g>
<!-- Node2 -->
<g id="node2" class="node">
<title>Node2</title>
<g id="a_node2"><a xlink:href="a00216.html#acda267f1d6a8e496e167ed46fe590dc6" target="_top" xlink:title=" ">
<polygon fill="white" stroke="black" points="427,-33 427,-63 565,-63 565,-33 427,-33"/>
<text text-anchor="start" x="435" y="-51" font-family="Helvetica,sans-Serif" font-size="10.00">CO_Andisol\get_chameleon</text>
<text text-anchor="middle" x="496" y="-40" font-family="Helvetica,sans-Serif" font-size="10.00">_instance</text>
</a>
</g>
</g>
<!-- Node1&#45;&gt;Node2 -->
<g id="edge1" class="edge">
<title>Node1&#45;&gt;Node2</title>
<path fill="none" stroke="midnightblue" d="M114.1,-68.59C180.38,-69.91 293.94,-70.41 391,-62 399.35,-61.28 408.06,-60.36 416.72,-59.35"/>
<polygon fill="midnightblue" stroke="midnightblue" points="417.35,-62.8 426.85,-58.11 416.5,-55.85 417.35,-62.8"/>
</g>
<!-- Node3 -->
<g id="node3" class="node">
<title>Node3</title>
<g id="a_node3"><a xlink:href="a00216.html#ac2a2dcb99dc927789b0ffa09c24946de" target="_top" xlink:title=" ">
<polygon fill="white" stroke="black" points="150,-38.5 150,-57.5 263,-57.5 263,-38.5 150,-38.5"/>
<text text-anchor="middle" x="206.5" y="-45.5" font-family="Helvetica,sans-Serif" font-size="10.00">CO_Andisol\logged_in</text>
</a>
</g>
</g>
<!-- Node1&#45;&gt;Node3 -->
<g id="edge2" class="edge">
<title>Node1&#45;&gt;Node3</title>
<path fill="none" stroke="midnightblue" d="M114.18,-59.76C122.61,-58.68 131.36,-57.55 139.96,-56.44"/>
<polygon fill="midnightblue" stroke="midnightblue" points="140.49,-59.9 149.96,-55.15 139.59,-52.96 140.49,-59.9"/>
</g>
<!-- Node3&#45;&gt;Node2 -->
<g id="edge3" class="edge">
<title>Node3&#45;&gt;Node2</title>
<path fill="none" stroke="midnightblue" d="M263.27,-48C306.95,-48 368.23,-48 416.81,-48"/>
<polygon fill="midnightblue" stroke="midnightblue" points="416.97,-51.5 426.97,-48 416.97,-44.5 416.97,-51.5"/>
</g>
<!-- Node4 -->
<g id="node4" class="node">
<title>Node4</title>
<g id="a_node4"><a xlink:href="a00216.html#a4b0ec12b29ce4812cbb4169b68770f66" target="_top" xlink:title=" ">
<polygon fill="white" stroke="black" points="299,-0.5 299,-19.5 391,-19.5 391,-0.5 299,-0.5"/>
<text text-anchor="middle" x="345" y="-7.5" font-family="Helvetica,sans-Serif" font-size="10.00">CO_Andisol\valid</text>
</a>
</g>
</g>
<!-- Node3&#45;&gt;Node4 -->
<g id="edge4" class="edge">
<title>Node3&#45;&gt;Node4</title>
<path fill="none" stroke="midnightblue" d="M241.94,-38.41C259.48,-33.53 281.01,-27.54 299.76,-22.32"/>
<polygon fill="midnightblue" stroke="midnightblue" points="300.87,-25.64 309.57,-19.59 298.99,-18.9 300.87,-25.64"/>
</g>
<!-- Node4&#45;&gt;Node2 -->
<g id="edge5" class="edge">
<title>Node4&#45;&gt;Node2</title>
<path fill="none" stroke="midnightblue" d="M383.6,-19.59C396.49,-22.88 411.35,-26.67 425.93,-30.38"/>
<polygon fill="midnightblue" stroke="midnightblue" points="425.4,-33.86 435.95,-32.94 427.13,-27.08 425.4,-33.86"/>
</g>
</g>
</svg>
