<?xml version="1.0" encoding="UTF-8" standalone="no"?>
<!DOCTYPE svg PUBLIC "-//W3C//DTD SVG 1.1//EN"
 "http://www.w3.org/Graphics/SVG/1.1/DTD/svg11.dtd">
<!-- Generated by graphviz version 2.47.1 (20210417.1919)
 -->
<!-- Title: CO_Chameleon\get_lang Pages: 1 -->
<svg width="795pt" height="91pt"
 viewBox="0.00 0.00 795.00 90.50" xmlns="http://www.w3.org/2000/svg" xmlns:xlink="http://www.w3.org/1999/xlink">
<g id="graph0" class="graph" transform="scale(1 1) rotate(0) translate(4 86.5)">
<title>CO_Chameleon\get_lang</title>
<polygon fill="white" stroke="transparent" points="-4,4 -4,-86.5 791,-86.5 791,4 -4,4"/>
<!-- Node1 -->
<g id="node1" class="node">
<title>Node1</title>
<g id="a_node1"><a xlink:title=" ">
<polygon fill="#bfbfbf" stroke="black" points="0,-38.5 0,-57.5 126,-57.5 126,-38.5 0,-38.5"/>
<text text-anchor="middle" x="63" y="-45.5" font-family="Helvetica,sans-Serif" font-size="10.00">CO_Chameleon\get_lang</text>
</a>
</g>
</g>
<!-- Node2 -->
<g id="node2" class="node">
<title>Node2</title>
<g id="a_node2"><a xlink:href="a00352.html#a65c256cad68440723a8de979b1b7a1bb" target="_top" xlink:title=" ">
<polygon fill="white" stroke="black" points="162,-60.5 162,-79.5 298,-79.5 298,-60.5 162,-60.5"/>
<text text-anchor="middle" x="230" y="-67.5" font-family="Helvetica,sans-Serif" font-size="10.00">CO_Access\get_login_item</text>
</a>
</g>
</g>
<!-- Node1&#45;&gt;Node2 -->
<g id="edge1" class="edge">
<title>Node1&#45;&gt;Node2</title>
<path fill="none" stroke="midnightblue" d="M126.38,-56.32C134.71,-57.43 143.33,-58.58 151.88,-59.72"/>
<polygon fill="midnightblue" stroke="midnightblue" points="151.47,-63.19 161.85,-61.05 152.4,-56.26 151.47,-63.19"/>
</g>
<!-- Node6 -->
<g id="node6" class="node">
<title>Node6</title>
<g id="a_node6"><a xlink:href="a00296.html#a88b451020a7174eeb0c06e216ca517cf" target="_top" xlink:title=" ">
<polygon fill="white" stroke="black" points="166.5,-11 166.5,-41 293.5,-41 293.5,-11 166.5,-11"/>
<text text-anchor="start" x="174.5" y="-29" font-family="Helvetica,sans-Serif" font-size="10.00">CO_Chameleon\get_user</text>
<text text-anchor="middle" x="230" y="-18" font-family="Helvetica,sans-Serif" font-size="10.00">_from_login</text>
</a>
</g>
</g>
<!-- Node1&#45;&gt;Node6 -->
<g id="edge6" class="edge">
<title>Node1&#45;&gt;Node6</title>
<path fill="none" stroke="midnightblue" d="M126.38,-39.68C136.07,-38.39 146.14,-37.05 156.04,-35.73"/>
<polygon fill="midnightblue" stroke="midnightblue" points="156.81,-39.16 166.26,-34.37 155.88,-32.22 156.81,-39.16"/>
</g>
<!-- Node3 -->
<g id="node3" class="node">
<title>Node3</title>
<g id="a_node3"><a xlink:href="a00352.html#adbc6444fbac916f3a280f4a3ce4f067a" target="_top" xlink:title=" ">
<polygon fill="white" stroke="black" points="341,-38.5 341,-57.5 466,-57.5 466,-38.5 341,-38.5"/>
<text text-anchor="middle" x="403.5" y="-45.5" font-family="Helvetica,sans-Serif" font-size="10.00">CO_Access\get_login_id</text>
</a>
</g>
</g>
<!-- Node2&#45;&gt;Node3 -->
<g id="edge2" class="edge">
<title>Node2&#45;&gt;Node3</title>
<path fill="none" stroke="midnightblue" d="M298.29,-61.37C308.96,-60 320.02,-58.58 330.79,-57.2"/>
<polygon fill="midnightblue" stroke="midnightblue" points="331.52,-60.63 340.99,-55.89 330.63,-53.69 331.52,-60.63"/>
</g>
<!-- Node4 -->
<g id="node4" class="node">
<title>Node4</title>
<g id="a_node4"><a xlink:href="a00352.html#aeab406fa4ecc249662fa1e2e073341b2" target="_top" xlink:title=" ">
<polygon fill="white" stroke="black" points="509,-52 509,-82 626,-82 626,-52 509,-52"/>
<text text-anchor="start" x="517" y="-70" font-family="Helvetica,sans-Serif" font-size="10.00">CO_Access\get_single</text>
<text text-anchor="middle" x="567.5" y="-59" font-family="Helvetica,sans-Serif" font-size="10.00">_security_record_by_id</text>
</a>
</g>
</g>
<!-- Node2&#45;&gt;Node4 -->
<g id="edge5" class="edge">
<title>Node2&#45;&gt;Node4</title>
<path fill="none" stroke="midnightblue" d="M298.09,-69.4C356.26,-68.88 440.07,-68.13 498.51,-67.61"/>
<polygon fill="midnightblue" stroke="midnightblue" points="498.79,-71.11 508.75,-67.52 498.72,-64.11 498.79,-71.11"/>
</g>
<!-- Node3&#45;&gt;Node4 -->
<g id="edge3" class="edge">
<title>Node3&#45;&gt;Node4</title>
<path fill="none" stroke="midnightblue" d="M466.21,-55.24C476.85,-56.49 487.96,-57.79 498.74,-59.05"/>
<polygon fill="midnightblue" stroke="midnightblue" points="498.62,-62.56 508.96,-60.25 499.44,-55.61 498.62,-62.56"/>
</g>
<!-- Node5 -->
<g id="node5" class="node">
<title>Node5</title>
<g id="a_node5"><a xlink:href="a00352.html#a34c23aea84d5c32e600c512167c3497d" target="_top" xlink:title=" ">
<polygon fill="white" stroke="black" points="662,-52 662,-82 787,-82 787,-52 662,-52"/>
<text text-anchor="start" x="670" y="-70" font-family="Helvetica,sans-Serif" font-size="10.00">CO_Access\get_multiple</text>
<text text-anchor="middle" x="724.5" y="-59" font-family="Helvetica,sans-Serif" font-size="10.00">_security_records_by_id</text>
</a>
</g>
</g>
<!-- Node4&#45;&gt;Node5 -->
<g id="edge4" class="edge">
<title>Node4&#45;&gt;Node5</title>
<path fill="none" stroke="midnightblue" d="M626.22,-67C634.57,-67 643.25,-67 651.83,-67"/>
<polygon fill="midnightblue" stroke="midnightblue" points="651.84,-70.5 661.84,-67 651.84,-63.5 651.84,-70.5"/>
</g>
<!-- Node6&#45;&gt;Node3 -->
<g id="edge8" class="edge">
<title>Node6&#45;&gt;Node3</title>
<path fill="none" stroke="midnightblue" d="M293.89,-34.07C305.84,-35.6 318.42,-37.21 330.63,-38.78"/>
<polygon fill="midnightblue" stroke="midnightblue" points="330.4,-42.28 340.77,-40.08 331.29,-35.34 330.4,-42.28"/>
</g>
<!-- Node7 -->
<g id="node7" class="node">
<title>Node7</title>
<g id="a_node7"><a xlink:href="a00352.html#a18733db78e2a4cfe35c7a7a41e2f2072" target="_top" xlink:title=" ">
<polygon fill="white" stroke="black" points="334,-0.5 334,-19.5 473,-19.5 473,-0.5 334,-0.5"/>
<text text-anchor="middle" x="403.5" y="-7.5" font-family="Helvetica,sans-Serif" font-size="10.00">CO_Access\generic_search</text>
</a>
</g>
</g>
<!-- Node6&#45;&gt;Node7 -->
<g id="edge7" class="edge">
<title>Node6&#45;&gt;Node7</title>
<path fill="none" stroke="midnightblue" d="M293.89,-20.13C303.64,-19.22 313.81,-18.27 323.86,-17.34"/>
<polygon fill="midnightblue" stroke="midnightblue" points="324.21,-20.82 333.84,-16.41 323.56,-13.85 324.21,-20.82"/>
</g>
</g>
</svg>
