<?xml version="1.0" encoding="UTF-8" standalone="no"?>
<!DOCTYPE svg PUBLIC "-//W3C//DTD SVG 1.1//EN"
 "http://www.w3.org/Graphics/SVG/1.1/DTD/svg11.dtd">
<!-- Generated by graphviz version 2.47.1 (20210417.1919)
 -->
<!-- Title: CO_Place\lookup_address Pages: 1 -->
<svg width="456pt" height="88pt"
 viewBox="0.00 0.00 456.00 88.00" xmlns="http://www.w3.org/2000/svg" xmlns:xlink="http://www.w3.org/1999/xlink">
<g id="graph0" class="graph" transform="scale(1 1) rotate(0) translate(4 84)">
<title>CO_Place\lookup_address</title>
<polygon fill="white" stroke="transparent" points="-4,4 -4,-84 452,-84 452,4 -4,4"/>
<!-- Node1 -->
<g id="node1" class="node">
<title>Node1</title>
<g id="a_node1"><a xlink:title=" ">
<polygon fill="#bfbfbf" stroke="black" points="0,-30 0,-49 133,-49 133,-30 0,-30"/>
<text text-anchor="middle" x="66.5" y="-37" font-family="Helvetica,sans-Serif" font-size="10.00">CO_Place\lookup_address</text>
</a>
</g>
</g>
<!-- Node2 -->
<g id="node2" class="node">
<title>Node2</title>
<g id="a_node2"><a xlink:href="a00300.html#a56d54ef8e9ee5bf99897dbc4e09e7839" target="_top" xlink:title="This is a function that returns the results of an HTTP call to a URI. It is a lot more secure than fi...">
<polygon fill="white" stroke="black" points="173,-49.5 173,-79.5 285,-79.5 285,-49.5 173,-49.5"/>
<text text-anchor="start" x="181" y="-67.5" font-family="Helvetica,sans-Serif" font-size="10.00">CO_Chameleon_Utils</text>
<text text-anchor="middle" x="229" y="-56.5" font-family="Helvetica,sans-Serif" font-size="10.00">\call_curl</text>
</a>
</g>
</g>
<!-- Node1&#45;&gt;Node2 -->
<g id="edge1" class="edge">
<title>Node1&#45;&gt;Node2</title>
<path fill="none" stroke="midnightblue" d="M128.64,-49.02C139.76,-50.76 151.4,-52.57 162.64,-54.32"/>
<polygon fill="midnightblue" stroke="midnightblue" points="162.41,-57.82 172.82,-55.91 163.48,-50.91 162.41,-57.82"/>
</g>
<!-- Node3 -->
<g id="node3" class="node">
<title>Node3</title>
<g id="a_node3"><a xlink:href="a00260.html#ac6cd579fa87a0f4fe7e88e265722319a" target="_top" xlink:title=" ">
<polygon fill="white" stroke="black" points="169,-0.5 169,-30.5 289,-30.5 289,-0.5 169,-0.5"/>
<text text-anchor="start" x="177" y="-18.5" font-family="Helvetica,sans-Serif" font-size="10.00">CO_Place\get_readable</text>
<text text-anchor="middle" x="229" y="-7.5" font-family="Helvetica,sans-Serif" font-size="10.00">_address</text>
</a>
</g>
</g>
<!-- Node1&#45;&gt;Node3 -->
<g id="edge2" class="edge">
<title>Node1&#45;&gt;Node3</title>
<path fill="none" stroke="midnightblue" d="M131.4,-29.95C140.35,-28.61 149.59,-27.22 158.64,-25.87"/>
<polygon fill="midnightblue" stroke="midnightblue" points="159.38,-29.3 168.75,-24.36 158.35,-22.38 159.38,-29.3"/>
</g>
<!-- Node4 -->
<g id="node4" class="node">
<title>Node4</title>
<g id="a_node4"><a xlink:href="a00260.html#a60b73dee76e98e806f4a872cca13ee58" target="_top" xlink:title=" ">
<polygon fill="white" stroke="black" points="325,-0.5 325,-30.5 448,-30.5 448,-0.5 325,-0.5"/>
<text text-anchor="start" x="333" y="-18.5" font-family="Helvetica,sans-Serif" font-size="10.00">CO_Place\_get_address</text>
<text text-anchor="middle" x="386.5" y="-7.5" font-family="Helvetica,sans-Serif" font-size="10.00">_element_labels</text>
</a>
</g>
</g>
<!-- Node3&#45;&gt;Node4 -->
<g id="edge3" class="edge">
<title>Node3&#45;&gt;Node4</title>
<path fill="none" stroke="midnightblue" d="M289.23,-15.5C297.53,-15.5 306.13,-15.5 314.61,-15.5"/>
<polygon fill="midnightblue" stroke="midnightblue" points="314.89,-19 324.89,-15.5 314.89,-12 314.89,-19"/>
</g>
</g>
</svg>
