<?xml version="1.0" encoding="UTF-8" standalone="no"?>
<!DOCTYPE svg PUBLIC "-//W3C//DTD SVG 1.1//EN"
 "http://www.w3.org/Graphics/SVG/1.1/DTD/svg11.dtd">
<!-- Generated by graphviz version 2.40.1 (20161225.0304)
 -->
<!-- Title: CO_Andisol\delete_key Pages: 1 -->
<svg width="736pt" height="89pt"
 viewBox="0.00 0.00 736.19 89.00" xmlns="http://www.w3.org/2000/svg" xmlns:xlink="http://www.w3.org/1999/xlink">
<g id="graph0" class="graph" transform="scale(1 1) rotate(0) translate(4 85)">
<title>CO_Andisol\delete_key</title>
<polygon fill="#ffffff" stroke="transparent" points="-4,4 -4,-85 732.1895,-85 732.1895,4 -4,4"/>
<!-- Node109 -->
<g id="node1" class="node">
<title>Node109</title>
<polygon fill="#bfbfbf" stroke="#000000" points="0,-5.5 0,-23.5 120.5068,-23.5 120.5068,-5.5 0,-5.5"/>
<text text-anchor="middle" x="60.2534" y="-11.5" font-family="Helvetica,sans-Serif" font-size="10.00" fill="#000000">CO_Andisol\delete_key</text>
</g>
<!-- Node110 -->
<g id="node2" class="node">
<title>Node110</title>
<g id="a_node2"><a xlink:href="a00219.html#a9e01279d8bb11cb25f5477bb75123cba" target="_top" xlink:title="CO_Andisol\\set_value\l_for_key">
<polygon fill="#ffffff" stroke="#000000" points="156.5068,-.5 156.5068,-28.5 271.4521,-28.5 271.4521,-.5 156.5068,-.5"/>
<text text-anchor="start" x="164.5068" y="-16.5" font-family="Helvetica,sans-Serif" font-size="10.00" fill="#000000">CO_Andisol\set_value</text>
<text text-anchor="middle" x="213.9795" y="-6.5" font-family="Helvetica,sans-Serif" font-size="10.00" fill="#000000">_for_key</text>
</a>
</g>
</g>
<!-- Node109&#45;&gt;Node110 -->
<g id="edge1" class="edge">
<title>Node109&#45;&gt;Node110</title>
<path fill="none" stroke="#191970" d="M120.5688,-14.5C128.941,-14.5 137.5881,-14.5 146.0869,-14.5"/>
<polygon fill="#191970" stroke="#191970" points="146.3515,-18.0001 156.3515,-14.5 146.3515,-11.0001 146.3515,-18.0001"/>
</g>
<!-- Node111 -->
<g id="node3" class="node">
<title>Node111</title>
<g id="a_node3"><a xlink:href="a00219.html#ac2a2dcb99dc927789b0ffa09c24946de" target="_top" xlink:title="CO_Andisol\\logged_in">
<polygon fill="#ffffff" stroke="#000000" points="307.4521,-24.5 307.4521,-42.5 422.9639,-42.5 422.9639,-24.5 307.4521,-24.5"/>
<text text-anchor="middle" x="365.208" y="-30.5" font-family="Helvetica,sans-Serif" font-size="10.00" fill="#000000">CO_Andisol\logged_in</text>
</a>
</g>
</g>
<!-- Node110&#45;&gt;Node111 -->
<g id="edge2" class="edge">
<title>Node110&#45;&gt;Node111</title>
<path fill="none" stroke="#191970" d="M271.5839,-21.7373C279.9832,-22.7926 288.6972,-23.8874 297.2779,-24.9654"/>
<polygon fill="#191970" stroke="#191970" points="296.9045,-28.4459 307.2628,-26.2199 297.7771,-21.5005 296.9045,-28.4459"/>
</g>
<!-- Node113 -->
<g id="node5" class="node">
<title>Node113</title>
<g id="a_node5"><a xlink:href="a00219.html#acda267f1d6a8e496e167ed46fe590dc6" target="_top" xlink:title="CO_Andisol\\get_chameleon\l_instance">
<polygon fill="#ffffff" stroke="#000000" points="587.668,-19.5 587.668,-47.5 728.1895,-47.5 728.1895,-19.5 587.668,-19.5"/>
<text text-anchor="start" x="595.668" y="-35.5" font-family="Helvetica,sans-Serif" font-size="10.00" fill="#000000">CO_Andisol\get_chameleon</text>
<text text-anchor="middle" x="657.9287" y="-25.5" font-family="Helvetica,sans-Serif" font-size="10.00" fill="#000000">_instance</text>
</a>
</g>
</g>
<!-- Node110&#45;&gt;Node113 -->
<g id="edge6" class="edge">
<title>Node110&#45;&gt;Node113</title>
<path fill="none" stroke="#191970" d="M271.6624,-13.2509C313.6418,-12.6462 371.8479,-12.4367 422.9639,-14.5 474.4771,-16.5794 532.1881,-21.213 577.5238,-25.3836"/>
<polygon fill="#191970" stroke="#191970" points="577.3083,-28.8786 587.5897,-26.3207 577.9572,-21.9088 577.3083,-28.8786"/>
</g>
<!-- Node112 -->
<g id="node4" class="node">
<title>Node112</title>
<g id="a_node4"><a xlink:href="a00219.html#a4b0ec12b29ce4812cbb4169b68770f66" target="_top" xlink:title="CO_Andisol\\valid">
<polygon fill="#ffffff" stroke="#000000" points="458.9639,-62.5 458.9639,-80.5 551.668,-80.5 551.668,-62.5 458.9639,-62.5"/>
<text text-anchor="middle" x="505.3159" y="-68.5" font-family="Helvetica,sans-Serif" font-size="10.00" fill="#000000">CO_Andisol\valid</text>
</a>
</g>
</g>
<!-- Node111&#45;&gt;Node112 -->
<g id="edge3" class="edge">
<title>Node111&#45;&gt;Node112</title>
<path fill="none" stroke="#191970" d="M398.4116,-42.5055C417.4661,-47.6734 441.6054,-54.2205 462.1223,-59.785"/>
<polygon fill="#191970" stroke="#191970" points="461.2976,-63.1877 471.8651,-62.4275 463.13,-56.4318 461.2976,-63.1877"/>
</g>
<!-- Node111&#45;&gt;Node113 -->
<g id="edge5" class="edge">
<title>Node111&#45;&gt;Node113</title>
<path fill="none" stroke="#191970" d="M423.0402,-33.5C467.1393,-33.5 528.4139,-33.5 577.3221,-33.5"/>
<polygon fill="#191970" stroke="#191970" points="577.5603,-37.0001 587.5602,-33.5 577.5602,-30.0001 577.5603,-37.0001"/>
</g>
<!-- Node112&#45;&gt;Node113 -->
<g id="edge4" class="edge">
<title>Node112&#45;&gt;Node113</title>
<path fill="none" stroke="#191970" d="M541.483,-62.4945C556.4406,-58.7701 574.2748,-54.3295 591.4356,-50.0565"/>
<polygon fill="#191970" stroke="#191970" points="592.577,-53.3793 601.4351,-47.5667 590.8857,-46.5867 592.577,-53.3793"/>
</g>
</g>
</svg>
