<?xml version="1.0" encoding="UTF-8" standalone="no"?>
<!DOCTYPE svg PUBLIC "-//W3C//DTD SVG 1.1//EN"
 "http://www.w3.org/Graphics/SVG/1.1/DTD/svg11.dtd">
<!-- Generated by graphviz version 2.40.1 (20161225.0304)
 -->
<!-- Title: CO_Andisol\get_all_users Pages: 1 -->
<svg width="840pt" height="160pt"
 viewBox="0.00 0.00 839.87 160.00" xmlns="http://www.w3.org/2000/svg" xmlns:xlink="http://www.w3.org/1999/xlink">
<g id="graph0" class="graph" transform="scale(1 1) rotate(0) translate(4 156)">
<title>CO_Andisol\get_all_users</title>
<polygon fill="#ffffff" stroke="transparent" points="-4,4 -4,-156 835.874,-156 835.874,4 -4,4"/>
<!-- Node1 -->
<g id="node1" class="node">
<title>Node1</title>
<g id="a_node1"><a xlink:title=" ">
<polygon fill="#bfbfbf" stroke="#000000" points="0,-99.5 0,-127.5 101.6055,-127.5 101.6055,-99.5 0,-99.5"/>
<text text-anchor="start" x="8" y="-115.5" font-family="Helvetica,sans-Serif" font-size="10.00" fill="#000000">CO_Andisol\get_all</text>
<text text-anchor="middle" x="50.8027" y="-105.5" font-family="Helvetica,sans-Serif" font-size="10.00" fill="#000000">_users</text>
</a>
</g>
</g>
<!-- Node2 -->
<g id="node2" class="node">
<title>Node2</title>
<g id="a_node2"><a xlink:href="a00216.html#ac76d9996071a383e8723e13ea1544800" target="_top" xlink:title=" ">
<polygon fill="#ffffff" stroke="#000000" points="265.7627,-123.5 265.7627,-151.5 370.6982,-151.5 370.6982,-123.5 265.7627,-123.5"/>
<text text-anchor="start" x="273.7627" y="-139.5" font-family="Helvetica,sans-Serif" font-size="10.00" fill="#000000">CO_Andisol\generic</text>
<text text-anchor="middle" x="318.2305" y="-129.5" font-family="Helvetica,sans-Serif" font-size="10.00" fill="#000000">_search</text>
</a>
</g>
</g>
<!-- Node1&#45;&gt;Node2 -->
<g id="edge1" class="edge">
<title>Node1&#45;&gt;Node2</title>
<path fill="none" stroke="#191970" d="M101.7333,-118.0707C145.5012,-121.9986 208.7782,-127.6773 255.6287,-131.8819"/>
<polygon fill="#191970" stroke="#191970" points="255.3893,-135.3744 265.6621,-132.7823 256.015,-128.4024 255.3893,-135.3744"/>
</g>
<!-- Node4 -->
<g id="node4" class="node">
<title>Node4</title>
<g id="a_node4"><a xlink:href="a00216.html#a370ab6e2bb53c900f25a6005d0e5077d" target="_top" xlink:title=" ">
<polygon fill="#ffffff" stroke="#000000" points="137.6055,-85.5 137.6055,-103.5 226.4277,-103.5 226.4277,-85.5 137.6055,-85.5"/>
<text text-anchor="middle" x="182.0166" y="-91.5" font-family="Helvetica,sans-Serif" font-size="10.00" fill="#000000">CO_Andisol\god</text>
</a>
</g>
</g>
<!-- Node1&#45;&gt;Node4 -->
<g id="edge3" class="edge">
<title>Node1&#45;&gt;Node4</title>
<path fill="none" stroke="#191970" d="M101.9092,-106.0997C110.1967,-104.8996 118.8093,-103.6525 127.1812,-102.4403"/>
<polygon fill="#191970" stroke="#191970" points="127.8406,-105.8814 137.2358,-100.9843 126.8374,-98.9536 127.8406,-105.8814"/>
</g>
<!-- Node3 -->
<g id="node3" class="node">
<title>Node3</title>
<g id="a_node3"><a xlink:href="a00216.html#acda267f1d6a8e496e167ed46fe590dc6" target="_top" xlink:title=" ">
<polygon fill="#ffffff" stroke="#000000" points="691.3525,-60.5 691.3525,-88.5 831.874,-88.5 831.874,-60.5 691.3525,-60.5"/>
<text text-anchor="start" x="699.3525" y="-76.5" font-family="Helvetica,sans-Serif" font-size="10.00" fill="#000000">CO_Andisol\get_chameleon</text>
<text text-anchor="middle" x="761.6133" y="-66.5" font-family="Helvetica,sans-Serif" font-size="10.00" fill="#000000">_instance</text>
</a>
</g>
</g>
<!-- Node2&#45;&gt;Node3 -->
<g id="edge2" class="edge">
<title>Node2&#45;&gt;Node3</title>
<path fill="none" stroke="#191970" d="M370.7191,-136.6107C437.4678,-134.6539 555.9934,-128.4077 655.3525,-108.5 675.3148,-104.5003 696.7981,-98.0534 715.1881,-91.843"/>
<polygon fill="#191970" stroke="#191970" points="716.4662,-95.1046 724.7769,-88.5331 714.1821,-88.4877 716.4662,-95.1046"/>
</g>
<!-- Node4&#45;&gt;Node3 -->
<g id="edge4" class="edge">
<title>Node4&#45;&gt;Node3</title>
<path fill="none" stroke="#191970" d="M226.5342,-92.9638C323.8648,-89.6053 556.7841,-81.568 680.7621,-77.2899"/>
<polygon fill="#191970" stroke="#191970" points="681.081,-80.7811 690.9544,-76.9382 680.8396,-73.7852 681.081,-80.7811"/>
</g>
<!-- Node5 -->
<g id="node5" class="node">
<title>Node5</title>
<g id="a_node5"><a xlink:href="a00216.html#af5f39aa13714ad544a9099edb0d51cd5" target="_top" xlink:title=" ">
<polygon fill="#ffffff" stroke="#000000" points="262.4277,-42.5 262.4277,-60.5 374.0332,-60.5 374.0332,-42.5 262.4277,-42.5"/>
<text text-anchor="middle" x="318.2305" y="-48.5" font-family="Helvetica,sans-Serif" font-size="10.00" fill="#000000">CO_Andisol\manager</text>
</a>
</g>
</g>
<!-- Node4&#45;&gt;Node5 -->
<g id="edge5" class="edge">
<title>Node4&#45;&gt;Node5</title>
<path fill="none" stroke="#191970" d="M210.5715,-85.4858C230.7316,-79.1217 257.9672,-70.5239 280.0002,-63.5685"/>
<polygon fill="#191970" stroke="#191970" points="281.2307,-66.8504 289.7132,-60.5023 279.1234,-60.1751 281.2307,-66.8504"/>
</g>
<!-- Node6 -->
<g id="node6" class="node">
<title>Node6</title>
<g id="a_node6"><a xlink:href="a00216.html#a3605f036c8c634afaa74f67e5853a0ad" target="_top" xlink:title=" ">
<polygon fill="#ffffff" stroke="#000000" points="410.0332,-37.5 410.0332,-65.5 526.6484,-65.5 526.6484,-37.5 410.0332,-37.5"/>
<text text-anchor="start" x="418.0332" y="-53.5" font-family="Helvetica,sans-Serif" font-size="10.00" fill="#000000">CO_Andisol\get_cobra</text>
<text text-anchor="middle" x="468.3408" y="-43.5" font-family="Helvetica,sans-Serif" font-size="10.00" fill="#000000">_instance</text>
</a>
</g>
</g>
<!-- Node5&#45;&gt;Node6 -->
<g id="edge6" class="edge">
<title>Node5&#45;&gt;Node6</title>
<path fill="none" stroke="#191970" d="M374.126,-51.5C382.5138,-51.5 391.2436,-51.5 399.8572,-51.5"/>
<polygon fill="#191970" stroke="#191970" points="399.8879,-55.0001 409.8878,-51.5 399.8878,-48.0001 399.8879,-55.0001"/>
</g>
<!-- Node7 -->
<g id="node7" class="node">
<title>Node7</title>
<g id="a_node7"><a xlink:href="a00216.html#ac2a2dcb99dc927789b0ffa09c24946de" target="_top" xlink:title=" ">
<polygon fill="#ffffff" stroke="#000000" points="410.585,-.5 410.585,-18.5 526.0967,-18.5 526.0967,-.5 410.585,-.5"/>
<text text-anchor="middle" x="468.3408" y="-6.5" font-family="Helvetica,sans-Serif" font-size="10.00" fill="#000000">CO_Andisol\logged_in</text>
</a>
</g>
</g>
<!-- Node5&#45;&gt;Node7 -->
<g id="edge7" class="edge">
<title>Node5&#45;&gt;Node7</title>
<path fill="none" stroke="#191970" d="M350.4329,-42.4899C372.5189,-36.3104 402.0499,-28.0478 426.0324,-21.3376"/>
<polygon fill="#191970" stroke="#191970" points="427.2459,-24.6326 435.933,-18.5675 425.3598,-17.8915 427.2459,-24.6326"/>
</g>
<!-- Node7&#45;&gt;Node3 -->
<g id="edge8" class="edge">
<title>Node7&#45;&gt;Node3</title>
<path fill="none" stroke="#191970" d="M508.7233,-18.5058C525.4148,-22.2246 544.9629,-26.5754 562.6484,-30.5 604.1804,-39.7164 650.5969,-49.983 688.1445,-58.2796"/>
<polygon fill="#191970" stroke="#191970" points="687.4686,-61.7146 697.9882,-60.4544 688.9788,-54.8794 687.4686,-61.7146"/>
</g>
<!-- Node8 -->
<g id="node8" class="node">
<title>Node8</title>
<g id="a_node8"><a xlink:href="a00216.html#a4b0ec12b29ce4812cbb4169b68770f66" target="_top" xlink:title=" ">
<polygon fill="#ffffff" stroke="#000000" points="562.6484,-3.5 562.6484,-21.5 655.3525,-21.5 655.3525,-3.5 562.6484,-3.5"/>
<text text-anchor="middle" x="609.0005" y="-9.5" font-family="Helvetica,sans-Serif" font-size="10.00" fill="#000000">CO_Andisol\valid</text>
</a>
</g>
</g>
<!-- Node7&#45;&gt;Node8 -->
<g id="edge9" class="edge">
<title>Node7&#45;&gt;Node8</title>
<path fill="none" stroke="#191970" d="M526.3646,-10.7375C534.8652,-10.9188 543.6133,-11.1054 552.0912,-11.2862"/>
<polygon fill="#191970" stroke="#191970" points="552.1912,-14.7891 562.2636,-11.5032 552.3406,-7.7907 552.1912,-14.7891"/>
</g>
<!-- Node8&#45;&gt;Node3 -->
<g id="edge10" class="edge">
<title>Node8&#45;&gt;Node3</title>
<path fill="none" stroke="#191970" d="M631.1917,-21.5153C653.7708,-30.6883 689.3739,-45.1523 717.6806,-56.652"/>
<polygon fill="#191970" stroke="#191970" points="716.3891,-59.9051 726.9712,-60.4264 719.0239,-53.4199 716.3891,-59.9051"/>
</g>
</g>
</svg>
