<?xml version="1.0" encoding="UTF-8" standalone="no"?>
<!DOCTYPE svg PUBLIC "-//W3C//DTD SVG 1.1//EN"
 "http://www.w3.org/Graphics/SVG/1.1/DTD/svg11.dtd">
<!-- Generated by graphviz version 2.40.1 (20161225.0304)
 -->
<!-- Title: CO_User_Collection\has_login_i_cant_see Pages: 1 -->
<svg width="583pt" height="74pt"
 viewBox="0.00 0.00 582.98 74.00" xmlns="http://www.w3.org/2000/svg" xmlns:xlink="http://www.w3.org/1999/xlink">
<g id="graph0" class="graph" transform="scale(1 1) rotate(0) translate(4 70)">
<title>CO_User_Collection\has_login_i_cant_see</title>
<polygon fill="#ffffff" stroke="transparent" points="-4,4 -4,-70 578.9834,-70 578.9834,4 -4,4"/>
<!-- Node1 -->
<g id="node1" class="node">
<title>Node1</title>
<g id="a_node1"><a xlink:title=" ">
<polygon fill="#bfbfbf" stroke="#000000" points="0,-15.5 0,-43.5 115.5215,-43.5 115.5215,-15.5 0,-15.5"/>
<text text-anchor="start" x="8" y="-31.5" font-family="Helvetica,sans-Serif" font-size="10.00" fill="#000000">CO_User_Collection</text>
<text text-anchor="middle" x="57.7607" y="-21.5" font-family="Helvetica,sans-Serif" font-size="10.00" fill="#000000">\has_login_i_cant_see</text>
</a>
</g>
</g>
<!-- Node2 -->
<g id="node2" class="node">
<title>Node2</title>
<g id="a_node2"><a xlink:href="a00276.html#a2cc75e169901df4a8fc859f42e0e9f8c" target="_top" xlink:title=" ">
<polygon fill="#ffffff" stroke="#000000" points="151.5215,-37.5 151.5215,-65.5 258.6689,-65.5 258.6689,-37.5 151.5215,-37.5"/>
<text text-anchor="start" x="159.5215" y="-53.5" font-family="Helvetica,sans-Serif" font-size="10.00" fill="#000000">CO_User_Collection</text>
<text text-anchor="middle" x="205.0952" y="-43.5" font-family="Helvetica,sans-Serif" font-size="10.00" fill="#000000">\get_login_instance</text>
</a>
</g>
</g>
<!-- Node1&#45;&gt;Node2 -->
<g id="edge1" class="edge">
<title>Node1&#45;&gt;Node2</title>
<path fill="none" stroke="#191970" d="M115.5684,-38.1318C124.0282,-39.3951 132.7811,-40.702 141.3514,-41.9818"/>
<polygon fill="#191970" stroke="#191970" points="140.8926,-45.452 151.2999,-43.4673 141.9264,-38.5287 140.8926,-45.452"/>
</g>
<!-- Node5 -->
<g id="node5" class="node">
<title>Node5</title>
<g id="a_node5"><a xlink:href="a00316.html#a7f4c18f2ed2bda67f3c38fd95c120c0a" target="_top" xlink:title=" ">
<polygon fill="#ffffff" stroke="#000000" points="437.8164,-.5 437.8164,-18.5 574.9834,-18.5 574.9834,-.5 437.8164,-.5"/>
<text text-anchor="middle" x="506.3999" y="-6.5" font-family="Helvetica,sans-Serif" font-size="10.00" fill="#000000">CO_Main_DB_Record\tags</text>
</a>
</g>
</g>
<!-- Node1&#45;&gt;Node5 -->
<g id="edge5" class="edge">
<title>Node1&#45;&gt;Node5</title>
<path fill="none" stroke="#191970" d="M115.9525,-26.9059C195.5127,-23.3591 338.5035,-16.9847 427.6039,-13.0127"/>
<polygon fill="#191970" stroke="#191970" points="427.8246,-16.5064 437.6587,-12.5644 427.5127,-9.5133 427.8246,-16.5064"/>
</g>
<!-- Node3 -->
<g id="node3" class="node">
<title>Node3</title>
<g id="a_node3"><a xlink:href="a00276.html#a67c82465b52bc0d942c84599eb2b62ff" target="_top" xlink:title=" ">
<polygon fill="#ffffff" stroke="#000000" points="294.6689,-37.5 294.6689,-65.5 401.8164,-65.5 401.8164,-37.5 294.6689,-37.5"/>
<text text-anchor="start" x="302.6689" y="-53.5" font-family="Helvetica,sans-Serif" font-size="10.00" fill="#000000">CO_User_Collection</text>
<text text-anchor="middle" x="348.2427" y="-43.5" font-family="Helvetica,sans-Serif" font-size="10.00" fill="#000000">\_load_login</text>
</a>
</g>
</g>
<!-- Node2&#45;&gt;Node3 -->
<g id="edge2" class="edge">
<title>Node2&#45;&gt;Node3</title>
<path fill="none" stroke="#191970" d="M258.8053,-51.5C267.0399,-51.5 275.6114,-51.5 284.0449,-51.5"/>
<polygon fill="#191970" stroke="#191970" points="284.2316,-55.0001 294.2315,-51.5 284.2315,-48.0001 284.2316,-55.0001"/>
</g>
<!-- Node4 -->
<g id="node4" class="node">
<title>Node4</title>
<g id="a_node4"><a xlink:href="a00308.html#a8780b40e55827b90bb441671faec2a05" target="_top" xlink:title=" ">
<polygon fill="#ffffff" stroke="#000000" points="446.1465,-37.5 446.1465,-65.5 566.6533,-65.5 566.6533,-37.5 446.1465,-37.5"/>
<text text-anchor="start" x="454.1465" y="-53.5" font-family="Helvetica,sans-Serif" font-size="10.00" fill="#000000">A_CO_DB_Table_Base</text>
<text text-anchor="middle" x="506.3999" y="-43.5" font-family="Helvetica,sans-Serif" font-size="10.00" fill="#000000">\get_access_object</text>
</a>
</g>
</g>
<!-- Node3&#45;&gt;Node4 -->
<g id="edge3" class="edge">
<title>Node3&#45;&gt;Node4</title>
<path fill="none" stroke="#191970" d="M402.2291,-51.5C413.0541,-51.5 424.579,-51.5 435.8687,-51.5"/>
<polygon fill="#191970" stroke="#191970" points="436.144,-55.0001 446.1439,-51.5 436.1439,-48.0001 436.144,-55.0001"/>
</g>
<!-- Node3&#45;&gt;Node5 -->
<g id="edge4" class="edge">
<title>Node3&#45;&gt;Node5</title>
<path fill="none" stroke="#191970" d="M400.3323,-37.495C412.6214,-34.2043 425.6783,-30.7189 437.8164,-27.5 445.6836,-25.4137 454.0618,-23.2044 462.1623,-21.0748"/>
<polygon fill="#191970" stroke="#191970" points="463.0693,-24.4553 471.8524,-18.5303 461.2914,-17.6849 463.0693,-24.4553"/>
</g>
</g>
</svg>
