<?xml version="1.0" encoding="UTF-8" standalone="no"?>
<!DOCTYPE svg PUBLIC "-//W3C//DTD SVG 1.1//EN"
 "http://www.w3.org/Graphics/SVG/1.1/DTD/svg11.dtd">
<!-- Generated by graphviz version 2.47.1 (20210417.1919)
 -->
<!-- Title: CO_Place\set_address_elements Pages: 1 -->
<svg width="453pt" height="149pt"
 viewBox="0.00 0.00 453.00 148.50" xmlns="http://www.w3.org/2000/svg" xmlns:xlink="http://www.w3.org/1999/xlink">
<g id="graph0" class="graph" transform="scale(1 1) rotate(0) translate(4 144.5)">
<title>CO_Place\set_address_elements</title>
<polygon fill="white" stroke="transparent" points="-4,4 -4,-144.5 449,-144.5 449,4 -4,4"/>
<!-- Node1 -->
<g id="node1" class="node">
<title>Node1</title>
<g id="a_node1"><a xlink:title=" ">
<polygon fill="#bfbfbf" stroke="black" points="0,-55 0,-85 118,-85 118,-55 0,-55"/>
<text text-anchor="start" x="8" y="-73" font-family="Helvetica,sans-Serif" font-size="10.00">CO_Place\set_address</text>
<text text-anchor="middle" x="59" y="-62" font-family="Helvetica,sans-Serif" font-size="10.00">_elements</text>
</a>
</g>
</g>
<!-- Node2 -->
<g id="node2" class="node">
<title>Node2</title>
<g id="a_node2"><a xlink:href="a00260.html#a60b73dee76e98e806f4a872cca13ee58" target="_top" xlink:title=" ">
<polygon fill="white" stroke="black" points="315,-110 315,-140 438,-140 438,-110 315,-110"/>
<text text-anchor="start" x="323" y="-128" font-family="Helvetica,sans-Serif" font-size="10.00">CO_Place\_get_address</text>
<text text-anchor="middle" x="376.5" y="-117" font-family="Helvetica,sans-Serif" font-size="10.00">_element_labels</text>
</a>
</g>
</g>
<!-- Node1&#45;&gt;Node2 -->
<g id="edge1" class="edge">
<title>Node1&#45;&gt;Node2</title>
<path fill="none" stroke="midnightblue" d="M83.23,-85.16C101.61,-96.25 128.37,-110.46 154,-117 203.29,-129.58 260.74,-131.3 304.78,-130.02"/>
<polygon fill="midnightblue" stroke="midnightblue" points="304.95,-133.52 314.82,-129.67 304.7,-126.52 304.95,-133.52"/>
</g>
<!-- Node3 -->
<g id="node3" class="node">
<title>Node3</title>
<g id="a_node3"><a xlink:href="a00260.html#a7b99eb196e710f9cf14ad39601e2b3ad" target="_top" xlink:title=" ">
<polygon fill="white" stroke="black" points="154,-77 154,-107 272,-107 272,-77 154,-77"/>
<text text-anchor="start" x="162" y="-95" font-family="Helvetica,sans-Serif" font-size="10.00">CO_Place\set_address</text>
<text text-anchor="middle" x="213" y="-84" font-family="Helvetica,sans-Serif" font-size="10.00">_element</text>
</a>
</g>
</g>
<!-- Node1&#45;&gt;Node3 -->
<g id="edge2" class="edge">
<title>Node1&#45;&gt;Node3</title>
<path fill="none" stroke="midnightblue" d="M118.33,-78.44C126.7,-79.65 135.36,-80.91 143.9,-82.14"/>
<polygon fill="midnightblue" stroke="midnightblue" points="143.43,-85.61 153.82,-83.58 144.43,-78.68 143.43,-85.61"/>
</g>
<!-- Node4 -->
<g id="node4" class="node">
<title>Node4</title>
<g id="a_node4"><a xlink:href="a00332.html#aaa41a4de441030a1bc25875991cf00d0" target="_top" xlink:title=" ">
<polygon fill="white" stroke="black" points="308,-60.5 308,-79.5 445,-79.5 445,-60.5 308,-60.5"/>
<text text-anchor="middle" x="376.5" y="-67.5" font-family="Helvetica,sans-Serif" font-size="10.00">CO_LL_Location\update_db</text>
</a>
</g>
</g>
<!-- Node1&#45;&gt;Node4 -->
<g id="edge6" class="edge">
<title>Node1&#45;&gt;Node4</title>
<path fill="none" stroke="midnightblue" d="M118.16,-67.85C130.02,-67.5 142.41,-67.18 154,-67 206.44,-66.16 219.56,-66.24 272,-67 280.33,-67.12 289.04,-67.3 297.72,-67.5"/>
<polygon fill="midnightblue" stroke="midnightblue" points="297.78,-71 307.86,-67.76 297.95,-64.01 297.78,-71"/>
</g>
<!-- Node5 -->
<g id="node5" class="node">
<title>Node5</title>
<g id="a_node5"><a xlink:href="a00119.html#a732056c1b6e305a30aead472a1695e0c" target="_top" xlink:title=" ">
<polygon fill="white" stroke="black" points="174.5,-0.5 174.5,-19.5 251.5,-19.5 251.5,-0.5 174.5,-0.5"/>
<text text-anchor="middle" x="213" y="-7.5" font-family="Helvetica,sans-Serif" font-size="10.00">test_is_assoc</text>
</a>
</g>
</g>
<!-- Node1&#45;&gt;Node5 -->
<g id="edge5" class="edge">
<title>Node1&#45;&gt;Node5</title>
<path fill="none" stroke="midnightblue" d="M98.36,-54.86C122.98,-45.14 154.66,-32.63 178.31,-23.3"/>
<polygon fill="midnightblue" stroke="midnightblue" points="179.9,-26.43 187.92,-19.51 177.33,-19.92 179.9,-26.43"/>
</g>
<!-- Node3&#45;&gt;Node2 -->
<g id="edge3" class="edge">
<title>Node3&#45;&gt;Node2</title>
<path fill="none" stroke="midnightblue" d="M272.31,-103.91C282.89,-106.08 294.03,-108.35 304.92,-110.58"/>
<polygon fill="midnightblue" stroke="midnightblue" points="304.33,-114.03 314.83,-112.6 305.74,-107.17 304.33,-114.03"/>
</g>
<!-- Node3&#45;&gt;Node4 -->
<g id="edge4" class="edge">
<title>Node3&#45;&gt;Node4</title>
<path fill="none" stroke="midnightblue" d="M272.31,-84.06C280.62,-82.93 289.27,-81.75 297.88,-80.57"/>
<polygon fill="midnightblue" stroke="midnightblue" points="298.51,-84.02 307.95,-79.2 297.56,-77.08 298.51,-84.02"/>
</g>
</g>
</svg>
