<?xml version="1.0" encoding="UTF-8" standalone="no"?>
<!DOCTYPE svg PUBLIC "-//W3C//DTD SVG 1.1//EN"
 "http://www.w3.org/Graphics/SVG/1.1/DTD/svg11.dtd">
<!-- Generated by graphviz version 2.47.1 (20210417.1919)
 -->
<!-- Title: CO_Basalt\_process_baseline_command Pages: 1 -->
<svg width="450pt" height="369pt"
 viewBox="0.00 0.00 450.00 368.50" xmlns="http://www.w3.org/2000/svg" xmlns:xlink="http://www.w3.org/1999/xlink">
<g id="graph0" class="graph" transform="scale(1 1) rotate(0) translate(4 364.5)">
<title>CO_Basalt\_process_baseline_command</title>
<polygon fill="white" stroke="transparent" points="-4,4 -4,-364.5 446,-364.5 446,4 -4,4"/>
<!-- Node1 -->
<g id="node1" class="node">
<title>Node1</title>
<g id="a_node1"><a xlink:title=" ">
<polygon fill="#bfbfbf" stroke="black" points="0,-137 0,-167 107,-167 107,-137 0,-137"/>
<text text-anchor="start" x="8" y="-155" font-family="Helvetica,sans-Serif" font-size="10.00">CO_Basalt\_process</text>
<text text-anchor="middle" x="53.5" y="-144" font-family="Helvetica,sans-Serif" font-size="10.00">_baseline_command</text>
</a>
</g>
</g>
<!-- Node2 -->
<g id="node2" class="node">
<title>Node2</title>
<g id="a_node2"><a xlink:href="a00200.html#a94f153fbc911e113c202f91acc1b270e" target="_top" xlink:title=" ">
<polygon fill="white" stroke="black" points="149.5,-284 149.5,-314 258.5,-314 258.5,-284 149.5,-284"/>
<text text-anchor="start" x="157.5" y="-302" font-family="Helvetica,sans-Serif" font-size="10.00">CO_Basalt\_baseline</text>
<text text-anchor="middle" x="204" y="-291" font-family="Helvetica,sans-Serif" font-size="10.00">_bulk_loader</text>
</a>
</g>
</g>
<!-- Node1&#45;&gt;Node2 -->
<g id="edge1" class="edge">
<title>Node1&#45;&gt;Node2</title>
<path fill="none" stroke="midnightblue" d="M61.96,-167.2C75.09,-192.54 104.62,-243.65 143,-274 145.24,-275.77 147.62,-277.44 150.1,-279"/>
<polygon fill="midnightblue" stroke="midnightblue" points="148.38,-282.05 158.81,-283.93 151.83,-275.96 148.38,-282.05"/>
</g>
<!-- Node5 -->
<g id="node5" class="node">
<title>Node5</title>
<g id="a_node5"><a xlink:href="a00200.html#ad72622e9b3a834e50a1a8f4ab488b08a" target="_top" xlink:title=" ">
<polygon fill="white" stroke="black" points="149.5,-235 149.5,-265 258.5,-265 258.5,-235 149.5,-235"/>
<text text-anchor="start" x="157.5" y="-253" font-family="Helvetica,sans-Serif" font-size="10.00">CO_Basalt\_baseline</text>
<text text-anchor="middle" x="204" y="-242" font-family="Helvetica,sans-Serif" font-size="10.00">_fetch_backup</text>
</a>
</g>
</g>
<!-- Node1&#45;&gt;Node5 -->
<g id="edge4" class="edge">
<title>Node1&#45;&gt;Node5</title>
<path fill="none" stroke="midnightblue" d="M70.04,-167.27C86.92,-183.23 115.19,-208.25 143,-225 146.18,-226.92 149.54,-228.76 152.98,-230.5"/>
<polygon fill="midnightblue" stroke="midnightblue" points="151.65,-233.75 162.18,-234.91 154.67,-227.43 151.65,-233.75"/>
</g>
<!-- Node7 -->
<g id="node7" class="node">
<title>Node7</title>
<g id="a_node7"><a xlink:href="a00196.html#a772e319259d2ce50837c099acdfd3625" target="_top" xlink:title=" ">
<polygon fill="white" stroke="black" points="149.5,-186 149.5,-216 258.5,-216 258.5,-186 149.5,-186"/>
<text text-anchor="start" x="157.5" y="-204" font-family="Helvetica,sans-Serif" font-size="10.00">A_CO_Basalt_Plugin</text>
<text text-anchor="middle" x="204" y="-193" font-family="Helvetica,sans-Serif" font-size="10.00">\_get_handler</text>
</a>
</g>
</g>
<!-- Node1&#45;&gt;Node7 -->
<g id="edge6" class="edge">
<title>Node1&#45;&gt;Node7</title>
<path fill="none" stroke="midnightblue" d="M100.27,-167.1C115.3,-172.06 132.17,-177.63 147.82,-182.79"/>
<polygon fill="midnightblue" stroke="midnightblue" points="146.79,-186.14 157.38,-185.95 148.98,-179.49 146.79,-186.14"/>
</g>
<!-- Node8 -->
<g id="node8" class="node">
<title>Node8</title>
<g id="a_node8"><a xlink:href="a00200.html#a1daa98964a634b41fef4edf4dc1f82ad" target="_top" xlink:title=" ">
<polygon fill="white" stroke="black" points="150.5,-137 150.5,-167 257.5,-167 257.5,-137 150.5,-137"/>
<text text-anchor="start" x="158.5" y="-155" font-family="Helvetica,sans-Serif" font-size="10.00">CO_Basalt\_process</text>
<text text-anchor="middle" x="204" y="-144" font-family="Helvetica,sans-Serif" font-size="10.00">_ping_command</text>
</a>
</g>
</g>
<!-- Node1&#45;&gt;Node8 -->
<g id="edge7" class="edge">
<title>Node1&#45;&gt;Node8</title>
<path fill="none" stroke="midnightblue" d="M107.27,-152C117.89,-152 129.14,-152 140.06,-152"/>
<polygon fill="midnightblue" stroke="midnightblue" points="140.4,-155.5 150.4,-152 140.4,-148.5 140.4,-155.5"/>
</g>
<!-- Node9 -->
<g id="node9" class="node">
<title>Node9</title>
<g id="a_node9"><a xlink:href="a00200.html#acd909d93bf248e9b07ff9cfdd28df9b9" target="_top" xlink:title=" ">
<polygon fill="white" stroke="black" points="147.5,-88 147.5,-118 260.5,-118 260.5,-88 147.5,-88"/>
<text text-anchor="start" x="155.5" y="-106" font-family="Helvetica,sans-Serif" font-size="10.00">CO_Basalt\_process</text>
<text text-anchor="middle" x="204" y="-95" font-family="Helvetica,sans-Serif" font-size="10.00">_serverinfo_command</text>
</a>
</g>
</g>
<!-- Node1&#45;&gt;Node9 -->
<g id="edge8" class="edge">
<title>Node1&#45;&gt;Node9</title>
<path fill="none" stroke="midnightblue" d="M100.27,-136.9C115.3,-131.94 132.17,-126.37 147.82,-121.21"/>
<polygon fill="midnightblue" stroke="midnightblue" points="148.98,-124.51 157.38,-118.05 146.79,-117.86 148.98,-124.51"/>
</g>
<!-- Node10 -->
<g id="node10" class="node">
<title>Node10</title>
<g id="a_node10"><a xlink:href="a00200.html#af1b2c5aad7e4010614b891a8e47e469b" target="_top" xlink:title=" ">
<polygon fill="white" stroke="black" points="150.5,-39 150.5,-69 257.5,-69 257.5,-39 150.5,-39"/>
<text text-anchor="start" x="158.5" y="-57" font-family="Helvetica,sans-Serif" font-size="10.00">CO_Basalt\_process</text>
<text text-anchor="middle" x="204" y="-46" font-family="Helvetica,sans-Serif" font-size="10.00">_token_command</text>
</a>
</g>
</g>
<!-- Node1&#45;&gt;Node10 -->
<g id="edge9" class="edge">
<title>Node1&#45;&gt;Node10</title>
<path fill="none" stroke="midnightblue" d="M69.65,-136.72C86.41,-120.48 114.8,-94.84 143,-78 145.66,-76.41 148.44,-74.89 151.29,-73.43"/>
<polygon fill="midnightblue" stroke="midnightblue" points="153.03,-76.48 160.55,-69.02 150.02,-70.16 153.03,-76.48"/>
</g>
<!-- Node11 -->
<g id="node11" class="node">
<title>Node11</title>
<g id="a_node11"><a xlink:href="a00200.html#a9917ca310760b3d05cdb027b030f86b4" target="_top" xlink:title=" ">
<polygon fill="white" stroke="black" points="143,-0.5 143,-19.5 265,-19.5 265,-0.5 143,-0.5"/>
<text text-anchor="middle" x="204" y="-7.5" font-family="Helvetica,sans-Serif" font-size="10.00">CO_Basalt\plugin_name</text>
</a>
</g>
</g>
<!-- Node1&#45;&gt;Node11 -->
<g id="edge10" class="edge">
<title>Node1&#45;&gt;Node11</title>
<path fill="none" stroke="midnightblue" d="M61.44,-136.72C73.99,-110.75 102.95,-58.01 143,-29 145.65,-27.08 148.51,-25.34 151.49,-23.78"/>
<polygon fill="midnightblue" stroke="midnightblue" points="153.03,-26.93 160.68,-19.6 150.13,-20.55 153.03,-26.93"/>
</g>
<!-- Node3 -->
<g id="node3" class="node">
<title>Node3</title>
<g id="a_node3"><a xlink:href="a00200.html#ad343adeeff085b060c73fc62786aee7b" target="_top" xlink:title=" ">
<polygon fill="white" stroke="black" points="320,-330 320,-360 423,-360 423,-330 320,-330"/>
<text text-anchor="start" x="328" y="-348" font-family="Helvetica,sans-Serif" font-size="10.00">CO_Basalt\_extract</text>
<text text-anchor="middle" x="371.5" y="-337" font-family="Helvetica,sans-Serif" font-size="10.00">_csv_data</text>
</a>
</g>
</g>
<!-- Node2&#45;&gt;Node3 -->
<g id="edge2" class="edge">
<title>Node2&#45;&gt;Node3</title>
<path fill="none" stroke="midnightblue" d="M258.73,-313.93C275.14,-318.5 293.3,-323.54 310.12,-328.22"/>
<polygon fill="midnightblue" stroke="midnightblue" points="309.27,-331.62 319.85,-330.92 311.15,-324.87 309.27,-331.62"/>
</g>
<!-- Node4 -->
<g id="node4" class="node">
<title>Node4</title>
<g id="a_node4"><a xlink:href="a00200.html#a0c8258440777d1e27e88f57f55a9e2a4" target="_top" xlink:title=" ">
<polygon fill="white" stroke="black" points="318,-281 318,-311 425,-311 425,-281 318,-281"/>
<text text-anchor="start" x="326" y="-299" font-family="Helvetica,sans-Serif" font-size="10.00">CO_Basalt\_process</text>
<text text-anchor="middle" x="371.5" y="-288" font-family="Helvetica,sans-Serif" font-size="10.00">_bulk_row</text>
</a>
</g>
</g>
<!-- Node2&#45;&gt;Node4 -->
<g id="edge3" class="edge">
<title>Node2&#45;&gt;Node4</title>
<path fill="none" stroke="midnightblue" d="M258.73,-298.03C274.3,-297.74 291.43,-297.43 307.5,-297.14"/>
<polygon fill="midnightblue" stroke="midnightblue" points="307.95,-300.63 317.88,-296.95 307.82,-293.64 307.95,-300.63"/>
</g>
<!-- Node6 -->
<g id="node6" class="node">
<title>Node6</title>
<g id="a_node6"><a xlink:href="a00200.html#a43999add0a0623b6cc1376defb359b9b" target="_top" xlink:title=" ">
<polygon fill="white" stroke="black" points="301,-240.5 301,-259.5 442,-259.5 442,-240.5 301,-240.5"/>
<text text-anchor="middle" x="371.5" y="-247.5" font-family="Helvetica,sans-Serif" font-size="10.00">CO_Basalt\_output_one_line</text>
</a>
</g>
</g>
<!-- Node5&#45;&gt;Node6 -->
<g id="edge5" class="edge">
<title>Node5&#45;&gt;Node6</title>
<path fill="none" stroke="midnightblue" d="M258.73,-250C268.89,-250 279.71,-250 290.48,-250"/>
<polygon fill="midnightblue" stroke="midnightblue" points="290.75,-253.5 300.75,-250 290.75,-246.5 290.75,-253.5"/>
</g>
</g>
</svg>
