<?xml version="1.0" encoding="UTF-8" standalone="no"?>
<!DOCTYPE svg PUBLIC "-//W3C//DTD SVG 1.1//EN"
 "http://www.w3.org/Graphics/SVG/1.1/DTD/svg11.dtd">
<!-- Generated by graphviz version 2.47.1 (20210417.1919)
 -->
<!-- Title: CO_Cobra\delete_login Pages: 1 -->
<svg width="493pt" height="88pt"
 viewBox="0.00 0.00 493.00 88.00" xmlns="http://www.w3.org/2000/svg" xmlns:xlink="http://www.w3.org/1999/xlink">
<g id="graph0" class="graph" transform="scale(1 1) rotate(0) translate(4 84)">
<title>CO_Cobra\delete_login</title>
<polygon fill="white" stroke="transparent" points="-4,4 -4,-84 489,-84 489,4 -4,4"/>
<!-- Node1 -->
<g id="node1" class="node">
<title>Node1</title>
<g id="a_node1"><a xlink:title=" ">
<polygon fill="#bfbfbf" stroke="black" points="0,-30 0,-49 118,-49 118,-30 0,-30"/>
<text text-anchor="middle" x="59" y="-37" font-family="Helvetica,sans-Serif" font-size="10.00">CO_Cobra\delete_login</text>
</a>
</g>
</g>
<!-- Node2 -->
<g id="node2" class="node">
<title>Node2</title>
<g id="a_node2"><a xlink:href="a00236.html#a3eaa5ad2b11d99851df8f298bdbd6e47" target="_top" xlink:title=" ">
<polygon fill="white" stroke="black" points="165.5,-49.5 165.5,-79.5 270.5,-79.5 270.5,-49.5 165.5,-49.5"/>
<text text-anchor="start" x="173.5" y="-67.5" font-family="Helvetica,sans-Serif" font-size="10.00">CO_Cobra\get_login</text>
<text text-anchor="middle" x="218" y="-56.5" font-family="Helvetica,sans-Serif" font-size="10.00">_instance</text>
</a>
</g>
</g>
<!-- Node1&#45;&gt;Node2 -->
<g id="edge1" class="edge">
<title>Node1&#45;&gt;Node2</title>
<path fill="none" stroke="midnightblue" d="M118.01,-48.74C130.16,-50.67 143.01,-52.72 155.29,-54.67"/>
<polygon fill="midnightblue" stroke="midnightblue" points="155.01,-58.17 165.44,-56.29 156.11,-51.26 155.01,-58.17"/>
</g>
<!-- Node3 -->
<g id="node3" class="node">
<title>Node3</title>
<g id="a_node3"><a xlink:href="a00236.html#ad5bb2d69d9ca618b755ceb4eaba247e8" target="_top" xlink:title=" ">
<polygon fill="white" stroke="black" points="154,-0.5 154,-30.5 282,-30.5 282,-0.5 154,-0.5"/>
<text text-anchor="start" x="162" y="-18.5" font-family="Helvetica,sans-Serif" font-size="10.00">CO_Cobra\get_user_from</text>
<text text-anchor="middle" x="218" y="-7.5" font-family="Helvetica,sans-Serif" font-size="10.00">_login</text>
</a>
</g>
</g>
<!-- Node1&#45;&gt;Node3 -->
<g id="edge2" class="edge">
<title>Node1&#45;&gt;Node3</title>
<path fill="none" stroke="midnightblue" d="M118.01,-30.63C126.43,-29.35 135.18,-28.01 143.84,-26.68"/>
<polygon fill="midnightblue" stroke="midnightblue" points="144.59,-30.11 153.95,-25.14 143.53,-23.19 144.59,-30.11"/>
</g>
<!-- Node4 -->
<g id="node4" class="node">
<title>Node4</title>
<g id="a_node4"><a xlink:href="a00236.html#a7d6421cfa6abf3aa5885bfe694ee898d" target="_top" xlink:title=" ">
<polygon fill="white" stroke="black" points="318,-6 318,-25 485,-25 485,-6 318,-6"/>
<text text-anchor="middle" x="401.5" y="-13" font-family="Helvetica,sans-Serif" font-size="10.00">CO_Cobra\make_standalone_user</text>
</a>
</g>
</g>
<!-- Node3&#45;&gt;Node4 -->
<g id="edge3" class="edge">
<title>Node3&#45;&gt;Node4</title>
<path fill="none" stroke="midnightblue" d="M282.23,-15.5C290.46,-15.5 299.03,-15.5 307.63,-15.5"/>
<polygon fill="midnightblue" stroke="midnightblue" points="307.71,-19 317.71,-15.5 307.71,-12 307.71,-19"/>
</g>
</g>
</svg>
