<?xml version="1.0" encoding="UTF-8" standalone="no"?>
<!DOCTYPE svg PUBLIC "-//W3C//DTD SVG 1.1//EN"
 "http://www.w3.org/Graphics/SVG/1.1/DTD/svg11.dtd">
<!-- Generated by graphviz version 2.40.1 (20161225.0304)
 -->
<!-- Title: CO_places_Basalt_Plugin\_get_xsd Pages: 1 -->
<svg width="286pt" height="37pt"
 viewBox="0.00 0.00 286.13 37.00" xmlns="http://www.w3.org/2000/svg" xmlns:xlink="http://www.w3.org/1999/xlink">
<g id="graph0" class="graph" transform="scale(1 1) rotate(0) translate(4 33)">
<title>CO_places_Basalt_Plugin\_get_xsd</title>
<polygon fill="#ffffff" stroke="transparent" points="-4,4 -4,-33 282.127,-33 282.127,4 -4,4"/>
<!-- Node11 -->
<g id="node1" class="node">
<title>Node11</title>
<polygon fill="#bfbfbf" stroke="#000000" points="0,-.5 0,-28.5 132.1816,-28.5 132.1816,-.5 0,-.5"/>
<text text-anchor="start" x="8" y="-16.5" font-family="Helvetica,sans-Serif" font-size="10.00" fill="#000000">CO_places_Basalt_Plugin</text>
<text text-anchor="middle" x="66.0908" y="-6.5" font-family="Helvetica,sans-Serif" font-size="10.00" fill="#000000">\_get_xsd</text>
</g>
<!-- Node12 -->
<g id="node2" class="node">
<title>Node12</title>
<g id="a_node2"><a xlink:href="a00199.html#ab5b1776c92954ac9500e669c037c68ab" target="_top" xlink:title="A_CO_Basalt_Plugin\l\\_process_xsd">
<polygon fill="#ffffff" stroke="#000000" points="168.1816,-.5 168.1816,-28.5 278.127,-28.5 278.127,-.5 168.1816,-.5"/>
<text text-anchor="start" x="176.1816" y="-16.5" font-family="Helvetica,sans-Serif" font-size="10.00" fill="#000000">A_CO_Basalt_Plugin</text>
<text text-anchor="middle" x="223.1543" y="-6.5" font-family="Helvetica,sans-Serif" font-size="10.00" fill="#000000">\_process_xsd</text>
</a>
</g>
</g>
<!-- Node11&#45;&gt;Node12 -->
<g id="edge1" class="edge">
<title>Node11&#45;&gt;Node12</title>
<path fill="none" stroke="#191970" d="M132.2447,-14.5C140.7082,-14.5 149.3686,-14.5 157.819,-14.5"/>
<polygon fill="#191970" stroke="#191970" points="157.9953,-18.0001 167.9953,-14.5 157.9952,-11.0001 157.9953,-18.0001"/>
</g>
</g>
</svg>
