<?xml version="1.0" encoding="UTF-8" standalone="no"?>
<!DOCTYPE svg PUBLIC "-//W3C//DTD SVG 1.1//EN"
 "http://www.w3.org/Graphics/SVG/1.1/DTD/svg11.dtd">
<!-- Generated by graphviz version 2.40.1 (20161225.0304)
 -->
<!-- Title: CO_places_Basalt_Plugin\_process_place_put Pages: 1 -->
<svg width="477pt" height="59pt"
 viewBox="0.00 0.00 476.54 59.00" xmlns="http://www.w3.org/2000/svg" xmlns:xlink="http://www.w3.org/1999/xlink">
<g id="graph0" class="graph" transform="scale(1 1) rotate(0) translate(4 55)">
<title>CO_places_Basalt_Plugin\_process_place_put</title>
<polygon fill="#ffffff" stroke="transparent" points="-4,4 -4,-55 472.5449,-55 472.5449,4 -4,4"/>
<!-- Node40 -->
<g id="node1" class="node">
<title>Node40</title>
<polygon fill="#bfbfbf" stroke="#000000" points="0,-.5 0,-28.5 132.1816,-28.5 132.1816,-.5 0,-.5"/>
<text text-anchor="start" x="8" y="-16.5" font-family="Helvetica,sans-Serif" font-size="10.00" fill="#000000">CO_places_Basalt_Plugin</text>
<text text-anchor="middle" x="66.0908" y="-6.5" font-family="Helvetica,sans-Serif" font-size="10.00" fill="#000000">\_process_place_put</text>
</g>
<!-- Node41 -->
<g id="node2" class="node">
<title>Node41</title>
<g id="a_node2"><a xlink:href="a00211.html#a3b060bbae1171b584997696bc5874a2f" target="_top" xlink:title="CO_places_Basalt_Plugin\l\\_process_place_post">
<polygon fill="#ffffff" stroke="#000000" points="168.1816,-22.5 168.1816,-50.5 300.3633,-50.5 300.3633,-22.5 168.1816,-22.5"/>
<text text-anchor="start" x="176.1816" y="-38.5" font-family="Helvetica,sans-Serif" font-size="10.00" fill="#000000">CO_places_Basalt_Plugin</text>
<text text-anchor="middle" x="234.2725" y="-28.5" font-family="Helvetica,sans-Serif" font-size="10.00" fill="#000000">\_process_place_post</text>
</a>
</g>
</g>
<!-- Node40&#45;&gt;Node41 -->
<g id="edge1" class="edge">
<title>Node40&#45;&gt;Node41</title>
<path fill="none" stroke="#191970" d="M142.4904,-24.4939C151.0087,-25.6082 159.6331,-26.7364 168.0101,-27.8322"/>
<polygon fill="#191970" stroke="#191970" points="142.9302,-21.0217 132.5607,-23.195 142.0222,-27.9626 142.9302,-21.0217"/>
</g>
<!-- Node42 -->
<g id="node3" class="node">
<title>Node42</title>
<g id="a_node3"><a xlink:href="a00211.html#a66729507ef35bcc83810d707412207fb" target="_top" xlink:title="CO_places_Basalt_Plugin\l\\process_command">
<polygon fill="#ffffff" stroke="#000000" points="336.3633,-.5 336.3633,-28.5 468.5449,-28.5 468.5449,-.5 336.3633,-.5"/>
<text text-anchor="start" x="344.3633" y="-16.5" font-family="Helvetica,sans-Serif" font-size="10.00" fill="#000000">CO_places_Basalt_Plugin</text>
<text text-anchor="middle" x="402.4541" y="-6.5" font-family="Helvetica,sans-Serif" font-size="10.00" fill="#000000">\process_command</text>
</a>
</g>
</g>
<!-- Node40&#45;&gt;Node42 -->
<g id="edge3" class="edge">
<title>Node40&#45;&gt;Node42</title>
<path fill="none" stroke="#191970" d="M142.4209,-13.6707C151.1092,-13.6005 159.8372,-13.5409 168.1816,-13.5 226.9283,-13.2123 241.6166,-13.2123 300.3633,-13.5 311.973,-13.5569 324.3251,-13.6501 336.2796,-13.7573"/>
<polygon fill="#191970" stroke="#191970" points="142.235,-10.172 132.2653,-13.7573 142.2949,-17.1718 142.235,-10.172"/>
</g>
<!-- Node41&#45;&gt;Node42 -->
<g id="edge2" class="edge">
<title>Node41&#45;&gt;Node42</title>
<path fill="none" stroke="#191970" d="M310.6721,-26.5061C319.1903,-25.3918 327.8147,-24.2636 336.1917,-23.1678"/>
<polygon fill="#191970" stroke="#191970" points="310.2038,-23.0374 300.7423,-27.805 311.1118,-29.9783 310.2038,-23.0374"/>
</g>
</g>
</svg>
