<?xml version="1.0" encoding="UTF-8" standalone="no"?>
<!DOCTYPE svg PUBLIC "-//W3C//DTD SVG 1.1//EN"
 "http://www.w3.org/Graphics/SVG/1.1/DTD/svg11.dtd">
<!-- Generated by graphviz version 2.40.1 (20161225.0304)
 -->
<!-- Title: CO_User_Collection\set_tag Pages: 1 -->
<svg width="258pt" height="319pt"
 viewBox="0.00 0.00 258.29 319.00" xmlns="http://www.w3.org/2000/svg" xmlns:xlink="http://www.w3.org/1999/xlink">
<g id="graph0" class="graph" transform="scale(1 1) rotate(0) translate(4 315)">
<title>CO_User_Collection\set_tag</title>
<polygon fill="#ffffff" stroke="transparent" points="-4,4 -4,-315 254.2949,-315 254.2949,4 -4,4"/>
<!-- Node1 -->
<g id="node1" class="node">
<title>Node1</title>
<g id="a_node1"><a xlink:title=" ">
<polygon fill="#bfbfbf" stroke="#000000" points="143.1475,-141.5 143.1475,-169.5 250.2949,-169.5 250.2949,-141.5 143.1475,-141.5"/>
<text text-anchor="start" x="151.1475" y="-157.5" font-family="Helvetica,sans-Serif" font-size="10.00" fill="#000000">CO_User_Collection</text>
<text text-anchor="middle" x="196.7212" y="-147.5" font-family="Helvetica,sans-Serif" font-size="10.00" fill="#000000">\set_tag</text>
</a>
</g>
</g>
<!-- Node2 -->
<g id="node2" class="node">
<title>Node2</title>
<g id="a_node2"><a xlink:href="a00279.html#ad1254d0e49f000883944fba0b4ce670d" target="_top" xlink:title=" ">
<polygon fill="#ffffff" stroke="#000000" points="0,-282.5 0,-310.5 107.1475,-310.5 107.1475,-282.5 0,-282.5"/>
<text text-anchor="start" x="8" y="-298.5" font-family="Helvetica,sans-Serif" font-size="10.00" fill="#000000">CO_User_Collection</text>
<text text-anchor="middle" x="53.5737" y="-288.5" font-family="Helvetica,sans-Serif" font-size="10.00" fill="#000000">\set_given_name</text>
</a>
</g>
</g>
<!-- Node1&#45;&gt;Node2 -->
<g id="edge1" class="edge">
<title>Node1&#45;&gt;Node2</title>
<path fill="none" stroke="#191970" d="M184.1594,-178.5727C168.9404,-204.6703 141.0755,-246.9771 107.1475,-273.5 102.8413,-276.8663 97.968,-279.8359 92.9585,-282.4262"/>
<polygon fill="#191970" stroke="#191970" points="187.2761,-180.1725 189.1821,-169.7505 181.1929,-176.7091 187.2761,-180.1725"/>
</g>
<!-- Node3 -->
<g id="node3" class="node">
<title>Node3</title>
<g id="a_node3"><a xlink:href="a00279.html#a2ba17ba0df27d93adda9eb20d1249338" target="_top" xlink:title=" ">
<polygon fill="#ffffff" stroke="#000000" points="0,-235.5 0,-263.5 107.1475,-263.5 107.1475,-235.5 0,-235.5"/>
<text text-anchor="start" x="8" y="-251.5" font-family="Helvetica,sans-Serif" font-size="10.00" fill="#000000">CO_User_Collection</text>
<text text-anchor="middle" x="53.5737" y="-241.5" font-family="Helvetica,sans-Serif" font-size="10.00" fill="#000000">\set_login</text>
</a>
</g>
</g>
<!-- Node1&#45;&gt;Node3 -->
<g id="edge2" class="edge">
<title>Node1&#45;&gt;Node3</title>
<path fill="none" stroke="#191970" d="M173.5746,-176.676C156.1885,-191.8557 131.3121,-212.0846 107.1475,-226.5 101.758,-229.7151 95.8367,-232.7219 89.9573,-235.4328"/>
<polygon fill="#191970" stroke="#191970" points="176.3091,-178.9293 181.4719,-169.6774 171.6664,-173.6904 176.3091,-178.9293"/>
</g>
<!-- Node4 -->
<g id="node4" class="node">
<title>Node4</title>
<g id="a_node4"><a xlink:href="a00279.html#a4e60c1e03b490e38e441d4b8dbada19f" target="_top" xlink:title=" ">
<polygon fill="#ffffff" stroke="#000000" points="0,-188.5 0,-216.5 107.1475,-216.5 107.1475,-188.5 0,-188.5"/>
<text text-anchor="start" x="8" y="-204.5" font-family="Helvetica,sans-Serif" font-size="10.00" fill="#000000">CO_User_Collection</text>
<text text-anchor="middle" x="53.5737" y="-194.5" font-family="Helvetica,sans-Serif" font-size="10.00" fill="#000000">\set_middle_name</text>
</a>
</g>
</g>
<!-- Node1&#45;&gt;Node4 -->
<g id="edge3" class="edge">
<title>Node1&#45;&gt;Node4</title>
<path fill="none" stroke="#191970" d="M144.2004,-172.7443C128.506,-177.8973 111.4934,-183.4831 96.4924,-188.4084"/>
<polygon fill="#191970" stroke="#191970" points="145.3631,-176.0465 153.7722,-169.6015 143.1794,-169.3958 145.3631,-176.0465"/>
</g>
<!-- Node5 -->
<g id="node5" class="node">
<title>Node5</title>
<g id="a_node5"><a xlink:href="a00279.html#ac70dec96610b3e89b7888a3cab6aef72" target="_top" xlink:title=" ">
<polygon fill="#ffffff" stroke="#000000" points="0,-141.5 0,-169.5 107.1475,-169.5 107.1475,-141.5 0,-141.5"/>
<text text-anchor="start" x="8" y="-157.5" font-family="Helvetica,sans-Serif" font-size="10.00" fill="#000000">CO_User_Collection</text>
<text text-anchor="middle" x="53.5737" y="-147.5" font-family="Helvetica,sans-Serif" font-size="10.00" fill="#000000">\set_nickname</text>
</a>
</g>
</g>
<!-- Node1&#45;&gt;Node5 -->
<g id="edge4" class="edge">
<title>Node1&#45;&gt;Node5</title>
<path fill="none" stroke="#191970" d="M132.8315,-155.5C124.4015,-155.5 115.8276,-155.5 107.5849,-155.5"/>
<polygon fill="#191970" stroke="#191970" points="133.0111,-159.0001 143.0111,-155.5 133.0111,-152.0001 133.0111,-159.0001"/>
</g>
<!-- Node6 -->
<g id="node6" class="node">
<title>Node6</title>
<g id="a_node6"><a xlink:href="a00279.html#adbeef6102042c2ec1530502386a275c4" target="_top" xlink:title=" ">
<polygon fill="#ffffff" stroke="#000000" points="0,-94.5 0,-122.5 107.1475,-122.5 107.1475,-94.5 0,-94.5"/>
<text text-anchor="start" x="8" y="-110.5" font-family="Helvetica,sans-Serif" font-size="10.00" fill="#000000">CO_User_Collection</text>
<text text-anchor="middle" x="53.5737" y="-100.5" font-family="Helvetica,sans-Serif" font-size="10.00" fill="#000000">\set_prefix</text>
</a>
</g>
</g>
<!-- Node1&#45;&gt;Node6 -->
<g id="edge5" class="edge">
<title>Node1&#45;&gt;Node6</title>
<path fill="none" stroke="#191970" d="M144.2004,-138.2557C128.506,-133.1027 111.4934,-127.5169 96.4924,-122.5916"/>
<polygon fill="#191970" stroke="#191970" points="143.1794,-141.6042 153.7722,-141.3985 145.3631,-134.9535 143.1794,-141.6042"/>
</g>
<!-- Node7 -->
<g id="node7" class="node">
<title>Node7</title>
<g id="a_node7"><a xlink:href="a00279.html#af4643580a79e531d9e78c75c67c21388" target="_top" xlink:title=" ">
<polygon fill="#ffffff" stroke="#000000" points="0,-47.5 0,-75.5 107.1475,-75.5 107.1475,-47.5 0,-47.5"/>
<text text-anchor="start" x="8" y="-63.5" font-family="Helvetica,sans-Serif" font-size="10.00" fill="#000000">CO_User_Collection</text>
<text text-anchor="middle" x="53.5737" y="-53.5" font-family="Helvetica,sans-Serif" font-size="10.00" fill="#000000">\set_suffix</text>
</a>
</g>
</g>
<!-- Node1&#45;&gt;Node7 -->
<g id="edge6" class="edge">
<title>Node1&#45;&gt;Node7</title>
<path fill="none" stroke="#191970" d="M173.1409,-134.4882C155.7139,-119.6205 130.973,-99.855 107.1475,-85.5 101.2113,-81.9235 94.6488,-78.5536 88.2114,-75.533"/>
<polygon fill="#191970" stroke="#191970" points="171.2193,-137.4537 181.0724,-141.3483 175.7986,-132.1593 171.2193,-137.4537"/>
</g>
<!-- Node8 -->
<g id="node8" class="node">
<title>Node8</title>
<g id="a_node8"><a xlink:href="a00279.html#a28a62f95bbfbb511f01a2b8a3eb3db6f" target="_top" xlink:title=" ">
<polygon fill="#ffffff" stroke="#000000" points="0,-.5 0,-28.5 107.1475,-28.5 107.1475,-.5 0,-.5"/>
<text text-anchor="start" x="8" y="-16.5" font-family="Helvetica,sans-Serif" font-size="10.00" fill="#000000">CO_User_Collection</text>
<text text-anchor="middle" x="53.5737" y="-6.5" font-family="Helvetica,sans-Serif" font-size="10.00" fill="#000000">\set_surname</text>
</a>
</g>
</g>
<!-- Node1&#45;&gt;Node8 -->
<g id="edge7" class="edge">
<title>Node1&#45;&gt;Node8</title>
<path fill="none" stroke="#191970" d="M184.0391,-132.7222C168.7085,-106.9379 140.7404,-65.075 107.1475,-38.5 102.4316,-34.7693 97.0439,-31.4835 91.5444,-28.6356"/>
<polygon fill="#191970" stroke="#191970" points="181.0522,-134.5482 189.1025,-141.4361 187.1046,-131.0313 181.0522,-134.5482"/>
</g>
</g>
</svg>
