<?xml version="1.0" encoding="UTF-8" standalone="no"?>
<!DOCTYPE svg PUBLIC "-//W3C//DTD SVG 1.1//EN"
 "http://www.w3.org/Graphics/SVG/1.1/DTD/svg11.dtd">
<!-- Generated by graphviz version 2.40.1 (20161225.0304)
 -->
<!-- Title: CO_Andisol\create_new_user Pages: 1 -->
<svg width="762pt" height="93pt"
 viewBox="0.00 0.00 762.30 93.00" xmlns="http://www.w3.org/2000/svg" xmlns:xlink="http://www.w3.org/1999/xlink">
<g id="graph0" class="graph" transform="scale(1 1) rotate(0) translate(4 89)">
<title>CO_Andisol\create_new_user</title>
<polygon fill="#ffffff" stroke="transparent" points="-4,4 -4,-89 758.2979,-89 758.2979,4 -4,4"/>
<!-- Node1 -->
<g id="node1" class="node">
<title>Node1</title>
<g id="a_node1"><a xlink:title=" ">
<polygon fill="#bfbfbf" stroke="#000000" points="0,-42.5 0,-60.5 148.8516,-60.5 148.8516,-42.5 0,-42.5"/>
<text text-anchor="middle" x="74.4258" y="-48.5" font-family="Helvetica,sans-Serif" font-size="10.00" fill="#000000">CO_Andisol\create_new_user</text>
</a>
</g>
</g>
<!-- Node2 -->
<g id="node2" class="node">
<title>Node2</title>
<g id="a_node2"><a xlink:href="a00219.html#a3605f036c8c634afaa74f67e5853a0ad" target="_top" xlink:title=" ">
<polygon fill="#ffffff" stroke="#000000" points="332.457,-56.5 332.457,-84.5 449.0723,-84.5 449.0723,-56.5 332.457,-56.5"/>
<text text-anchor="start" x="340.457" y="-72.5" font-family="Helvetica,sans-Serif" font-size="10.00" fill="#000000">CO_Andisol\get_cobra</text>
<text text-anchor="middle" x="390.7646" y="-62.5" font-family="Helvetica,sans-Serif" font-size="10.00" fill="#000000">_instance</text>
</a>
</g>
</g>
<!-- Node1&#45;&gt;Node2 -->
<g id="edge1" class="edge">
<title>Node1&#45;&gt;Node2</title>
<path fill="none" stroke="#191970" d="M148.9931,-55.9787C201.3709,-59.1246 270.9133,-63.3015 321.9656,-66.3678"/>
<polygon fill="#191970" stroke="#191970" points="322.0504,-69.8791 332.2422,-66.985 322.4701,-62.8917 322.0504,-69.8791"/>
</g>
<!-- Node3 -->
<g id="node3" class="node">
<title>Node3</title>
<g id="a_node3"><a xlink:href="a00219.html#af5f39aa13714ad544a9099edb0d51cd5" target="_top" xlink:title=" ">
<polygon fill="#ffffff" stroke="#000000" points="184.8516,-23.5 184.8516,-41.5 296.457,-41.5 296.457,-23.5 184.8516,-23.5"/>
<text text-anchor="middle" x="240.6543" y="-29.5" font-family="Helvetica,sans-Serif" font-size="10.00" fill="#000000">CO_Andisol\manager</text>
</a>
</g>
</g>
<!-- Node1&#45;&gt;Node3 -->
<g id="edge2" class="edge">
<title>Node1&#45;&gt;Node3</title>
<path fill="none" stroke="#191970" d="M149.2732,-42.9449C157.7278,-41.9785 166.2975,-40.999 174.6279,-40.0468"/>
<polygon fill="#191970" stroke="#191970" points="175.1088,-43.5148 184.6466,-38.9017 174.3138,-36.56 175.1088,-43.5148"/>
</g>
<!-- Node3&#45;&gt;Node2 -->
<g id="edge3" class="edge">
<title>Node3&#45;&gt;Node2</title>
<path fill="none" stroke="#191970" d="M276.2284,-41.5055C290.9407,-45.2299 308.4824,-49.6705 325.3619,-53.9435"/>
<polygon fill="#191970" stroke="#191970" points="324.6442,-57.3721 335.1973,-56.4333 326.3621,-50.5862 324.6442,-57.3721"/>
</g>
<!-- Node4 -->
<g id="node4" class="node">
<title>Node4</title>
<g id="a_node4"><a xlink:href="a00219.html#ac2a2dcb99dc927789b0ffa09c24946de" target="_top" xlink:title=" ">
<polygon fill="#ffffff" stroke="#000000" points="333.0088,-19.5 333.0088,-37.5 448.5205,-37.5 448.5205,-19.5 333.0088,-19.5"/>
<text text-anchor="middle" x="390.7646" y="-25.5" font-family="Helvetica,sans-Serif" font-size="10.00" fill="#000000">CO_Andisol\logged_in</text>
</a>
</g>
</g>
<!-- Node3&#45;&gt;Node4 -->
<g id="edge4" class="edge">
<title>Node3&#45;&gt;Node4</title>
<path fill="none" stroke="#191970" d="M296.5499,-31.0105C305.0574,-30.7838 313.917,-30.5478 322.6501,-30.3151"/>
<polygon fill="#191970" stroke="#191970" points="322.9121,-33.8094 332.8153,-30.0442 322.7256,-26.8119 322.9121,-33.8094"/>
</g>
<!-- Node5 -->
<g id="node5" class="node">
<title>Node5</title>
<g id="a_node5"><a xlink:href="a00219.html#acda267f1d6a8e496e167ed46fe590dc6" target="_top" xlink:title=" ">
<polygon fill="#ffffff" stroke="#000000" points="613.7764,-14.5 613.7764,-42.5 754.2979,-42.5 754.2979,-14.5 613.7764,-14.5"/>
<text text-anchor="start" x="621.7764" y="-30.5" font-family="Helvetica,sans-Serif" font-size="10.00" fill="#000000">CO_Andisol\get_chameleon</text>
<text text-anchor="middle" x="684.0371" y="-20.5" font-family="Helvetica,sans-Serif" font-size="10.00" fill="#000000">_instance</text>
</a>
</g>
</g>
<!-- Node4&#45;&gt;Node5 -->
<g id="edge5" class="edge">
<title>Node4&#45;&gt;Node5</title>
<path fill="none" stroke="#191970" d="M448.7058,-28.5C492.8881,-28.5 554.2782,-28.5 603.2786,-28.5"/>
<polygon fill="#191970" stroke="#191970" points="603.536,-32.0001 613.536,-28.5 603.536,-25.0001 603.536,-32.0001"/>
</g>
<!-- Node6 -->
<g id="node6" class="node">
<title>Node6</title>
<g id="a_node6"><a xlink:href="a00219.html#a4b0ec12b29ce4812cbb4169b68770f66" target="_top" xlink:title=" ">
<polygon fill="#ffffff" stroke="#000000" points="485.0723,-.5 485.0723,-18.5 577.7764,-18.5 577.7764,-.5 485.0723,-.5"/>
<text text-anchor="middle" x="531.4243" y="-6.5" font-family="Helvetica,sans-Serif" font-size="10.00" fill="#000000">CO_Andisol\valid</text>
</a>
</g>
</g>
<!-- Node4&#45;&gt;Node6 -->
<g id="edge6" class="edge">
<title>Node4&#45;&gt;Node6</title>
<path fill="none" stroke="#191970" d="M448.7884,-20.6623C457.289,-19.514 466.0371,-18.3324 474.5151,-17.1872"/>
<polygon fill="#191970" stroke="#191970" points="475.246,-20.6203 484.6874,-15.8131 474.3089,-13.6833 475.246,-20.6203"/>
</g>
<!-- Node6&#45;&gt;Node5 -->
<g id="edge7" class="edge">
<title>Node6&#45;&gt;Node5</title>
<path fill="none" stroke="#191970" d="M578.0424,-15.3039C586.1069,-16.3079 594.6955,-17.3771 603.3596,-18.4558"/>
<polygon fill="#191970" stroke="#191970" points="603.1823,-21.9607 613.5381,-19.723 604.0472,-15.0143 603.1823,-21.9607"/>
</g>
</g>
</svg>
