<?xml version="1.0" encoding="UTF-8" standalone="no"?>
<!DOCTYPE svg PUBLIC "-//W3C//DTD SVG 1.1//EN"
 "http://www.w3.org/Graphics/SVG/1.1/DTD/svg11.dtd">
<!-- Generated by graphviz version 2.40.1 (20161225.0304)
 -->
<!-- Title: CO_User_Collection\is_manager Pages: 1 -->
<svg width="431pt" height="111pt"
 viewBox="0.00 0.00 431.46 111.00" xmlns="http://www.w3.org/2000/svg" xmlns:xlink="http://www.w3.org/1999/xlink">
<g id="graph0" class="graph" transform="scale(1 1) rotate(0) translate(4 107)">
<title>CO_User_Collection\is_manager</title>
<polygon fill="#ffffff" stroke="transparent" points="-4,4 -4,-107 427.4619,-107 427.4619,4 -4,4"/>
<!-- Node59 -->
<g id="node1" class="node">
<title>Node59</title>
<polygon fill="#bfbfbf" stroke="#000000" points="0,-34.5 0,-62.5 107.1475,-62.5 107.1475,-34.5 0,-34.5"/>
<text text-anchor="start" x="8" y="-50.5" font-family="Helvetica,sans-Serif" font-size="10.00" fill="#000000">CO_User_Collection</text>
<text text-anchor="middle" x="53.5737" y="-40.5" font-family="Helvetica,sans-Serif" font-size="10.00" fill="#000000">\is_manager</text>
</g>
<!-- Node60 -->
<g id="node2" class="node">
<title>Node60</title>
<g id="a_node2"><a xlink:href="a00279.html#a67c82465b52bc0d942c84599eb2b62ff" target="_top" xlink:title="CO_User_Collection\l\\_load_login">
<polygon fill="#ffffff" stroke="#000000" points="143.1475,-58.5 143.1475,-86.5 250.2949,-86.5 250.2949,-58.5 143.1475,-58.5"/>
<text text-anchor="start" x="151.1475" y="-74.5" font-family="Helvetica,sans-Serif" font-size="10.00" fill="#000000">CO_User_Collection</text>
<text text-anchor="middle" x="196.7212" y="-64.5" font-family="Helvetica,sans-Serif" font-size="10.00" fill="#000000">\_load_login</text>
</a>
</g>
</g>
<!-- Node59&#45;&gt;Node60 -->
<g id="edge1" class="edge">
<title>Node59&#45;&gt;Node60</title>
<path fill="none" stroke="#191970" d="M107.2838,-57.505C115.6089,-58.9008 124.2784,-60.3543 132.8014,-61.7833"/>
<polygon fill="#191970" stroke="#191970" points="132.269,-65.2428 142.7101,-63.4445 133.4265,-58.3391 132.269,-65.2428"/>
</g>
<!-- Node63 -->
<g id="node5" class="node">
<title>Node63</title>
<g id="a_node5"><a xlink:href="a00279.html#ae7fc3a4f853b6b0ce16e5dc31df070ca" target="_top" xlink:title="CO_User_Collection\l\\is_god">
<polygon fill="#ffffff" stroke="#000000" points="143.1475,-11.5 143.1475,-39.5 250.2949,-39.5 250.2949,-11.5 143.1475,-11.5"/>
<text text-anchor="start" x="151.1475" y="-27.5" font-family="Helvetica,sans-Serif" font-size="10.00" fill="#000000">CO_User_Collection</text>
<text text-anchor="middle" x="196.7212" y="-17.5" font-family="Helvetica,sans-Serif" font-size="10.00" fill="#000000">\is_god</text>
</a>
</g>
</g>
<!-- Node59&#45;&gt;Node63 -->
<g id="edge4" class="edge">
<title>Node59&#45;&gt;Node63</title>
<path fill="none" stroke="#191970" d="M107.2838,-39.8702C115.6089,-38.5326 124.2784,-37.1396 132.8014,-35.7702"/>
<polygon fill="#191970" stroke="#191970" points="133.392,-39.2203 142.7101,-34.1782 132.2814,-32.3089 133.392,-39.2203"/>
</g>
<!-- Node61 -->
<g id="node3" class="node">
<title>Node61</title>
<g id="a_node3"><a xlink:href="a00311.html#a8780b40e55827b90bb441671faec2a05" target="_top" xlink:title="A_CO_DB_Table_Base\l\\get_access_object">
<polygon fill="#ffffff" stroke="#000000" points="294.625,-74.5 294.625,-102.5 415.1318,-102.5 415.1318,-74.5 294.625,-74.5"/>
<text text-anchor="start" x="302.625" y="-90.5" font-family="Helvetica,sans-Serif" font-size="10.00" fill="#000000">A_CO_DB_Table_Base</text>
<text text-anchor="middle" x="354.8784" y="-80.5" font-family="Helvetica,sans-Serif" font-size="10.00" fill="#000000">\get_access_object</text>
</a>
</g>
</g>
<!-- Node60&#45;&gt;Node61 -->
<g id="edge2" class="edge">
<title>Node60&#45;&gt;Node61</title>
<path fill="none" stroke="#191970" d="M250.7076,-77.9615C261.5326,-79.0567 273.0575,-80.2226 284.3472,-81.3647"/>
<polygon fill="#191970" stroke="#191970" points="284.3209,-84.8798 294.6224,-82.4042 285.0255,-77.9154 284.3209,-84.8798"/>
</g>
<!-- Node62 -->
<g id="node4" class="node">
<title>Node62</title>
<g id="a_node4"><a xlink:href="a00319.html#a7f4c18f2ed2bda67f3c38fd95c120c0a" target="_top" xlink:title="CO_Main_DB_Record\\tags">
<polygon fill="#ffffff" stroke="#000000" points="286.2949,-37.5 286.2949,-55.5 423.4619,-55.5 423.4619,-37.5 286.2949,-37.5"/>
<text text-anchor="middle" x="354.8784" y="-43.5" font-family="Helvetica,sans-Serif" font-size="10.00" fill="#000000">CO_Main_DB_Record\tags</text>
</a>
</g>
</g>
<!-- Node60&#45;&gt;Node62 -->
<g id="edge3" class="edge">
<title>Node60&#45;&gt;Node62</title>
<path fill="none" stroke="#191970" d="M250.7076,-63.625C263.4006,-61.5383 277.0559,-59.2935 290.1661,-57.1383"/>
<polygon fill="#191970" stroke="#191970" points="290.7605,-60.5876 300.0603,-55.5117 289.6249,-53.6803 290.7605,-60.5876"/>
</g>
<!-- Node63&#45;&gt;Node62 -->
<g id="edge6" class="edge">
<title>Node63&#45;&gt;Node62</title>
<path fill="none" stroke="#191970" d="M250.7076,-32.6683C259.1598,-33.7906 268.0388,-34.9695 276.8993,-36.146"/>
<polygon fill="#191970" stroke="#191970" points="276.4978,-39.6233 286.8715,-37.4701 277.4192,-32.6842 276.4978,-39.6233"/>
</g>
<!-- Node64 -->
<g id="node6" class="node">
<title>Node64</title>
<g id="a_node6"><a xlink:href="a00283.html#a994648913ff9d5f7bb83640bd6239d44" target="_top" xlink:title="tCO_Collection\\count">
<polygon fill="#ffffff" stroke="#000000" points="299.6323,-.5 299.6323,-18.5 410.1245,-18.5 410.1245,-.5 299.6323,-.5"/>
<text text-anchor="middle" x="354.8784" y="-6.5" font-family="Helvetica,sans-Serif" font-size="10.00" fill="#000000">tCO_Collection\count</text>
</a>
</g>
</g>
<!-- Node63&#45;&gt;Node64 -->
<g id="edge5" class="edge">
<title>Node63&#45;&gt;Node64</title>
<path fill="none" stroke="#191970" d="M250.7076,-20.0385C263.135,-18.7812 276.4847,-17.4307 289.3422,-16.13"/>
<polygon fill="#191970" stroke="#191970" points="289.9241,-19.5891 299.521,-15.1002 289.2195,-12.6246 289.9241,-19.5891"/>
</g>
</g>
</svg>
