<?xml version="1.0" encoding="UTF-8" standalone="no"?>
<!DOCTYPE svg PUBLIC "-//W3C//DTD SVG 1.1//EN"
 "http://www.w3.org/Graphics/SVG/1.1/DTD/svg11.dtd">
<!-- Generated by graphviz version 2.47.1 (20210417.1919)
 -->
<!-- Title: CO_Andisol\get_user_from_login Pages: 1 -->
<svg width="280pt" height="78pt"
 viewBox="0.00 0.00 280.00 77.50" xmlns="http://www.w3.org/2000/svg" xmlns:xlink="http://www.w3.org/1999/xlink">
<g id="graph0" class="graph" transform="scale(1 1) rotate(0) translate(4 73.5)">
<title>CO_Andisol\get_user_from_login</title>
<polygon fill="white" stroke="transparent" points="-4,4 -4,-73.5 276,-73.5 276,4 -4,4"/>
<!-- Node1 -->
<g id="node1" class="node">
<title>Node1</title>
<g id="a_node1"><a xlink:title=" ">
<polygon fill="#bfbfbf" stroke="black" points="162,-22.5 162,-52.5 272,-52.5 272,-22.5 162,-22.5"/>
<text text-anchor="start" x="170" y="-40.5" font-family="Helvetica,sans-Serif" font-size="10.00">CO_Andisol\get_user</text>
<text text-anchor="middle" x="217" y="-29.5" font-family="Helvetica,sans-Serif" font-size="10.00">_from_login</text>
</a>
</g>
</g>
<!-- Node2 -->
<g id="node2" class="node">
<title>Node2</title>
<g id="a_node2"><a xlink:href="a00216.html#a661842aaa6be17af30fbac58b5008c36" target="_top" xlink:title=" ">
<polygon fill="white" stroke="black" points="0,-50 0,-69 126,-69 126,-50 0,-50"/>
<text text-anchor="middle" x="63" y="-57" font-family="Helvetica,sans-Serif" font-size="10.00">CO_Andisol\current_user</text>
</a>
</g>
</g>
<!-- Node1&#45;&gt;Node2 -->
<g id="edge1" class="edge">
<title>Node1&#45;&gt;Node2</title>
<path fill="none" stroke="midnightblue" d="M152.04,-46.76C143.47,-48 134.68,-49.27 126.14,-50.51"/>
<polygon fill="midnightblue" stroke="midnightblue" points="152.59,-50.21 161.98,-45.32 151.58,-43.29 152.59,-50.21"/>
</g>
<!-- Node3 -->
<g id="node3" class="node">
<title>Node3</title>
<g id="a_node3"><a xlink:href="a00216.html#a7d4be5fe8eb59e59a6ca94a781980e4f" target="_top" xlink:title=" ">
<polygon fill="white" stroke="black" points="8,-0.5 8,-30.5 118,-30.5 118,-0.5 8,-0.5"/>
<text text-anchor="start" x="16" y="-18.5" font-family="Helvetica,sans-Serif" font-size="10.00">CO_Andisol\get_user</text>
<text text-anchor="middle" x="63" y="-7.5" font-family="Helvetica,sans-Serif" font-size="10.00">_from_login_string</text>
</a>
</g>
</g>
<!-- Node1&#45;&gt;Node3 -->
<g id="edge2" class="edge">
<title>Node1&#45;&gt;Node3</title>
<path fill="none" stroke="midnightblue" d="M151.81,-28.21C140.59,-26.58 129.01,-24.91 118.1,-23.33"/>
<polygon fill="midnightblue" stroke="midnightblue" points="151.58,-31.71 161.98,-29.68 152.59,-24.79 151.58,-31.71"/>
</g>
</g>
</svg>
