<?xml version="1.0" encoding="UTF-8" standalone="no"?>
<!DOCTYPE svg PUBLIC "-//W3C//DTD SVG 1.1//EN"
 "http://www.w3.org/Graphics/SVG/1.1/DTD/svg11.dtd">
<!-- Generated by graphviz version 2.40.1 (20161225.0304)
 -->
<!-- Title: CO_Basalt\__construct Pages: 1 -->
<!--zoomable 269 -->
<svg id="main" version="1.1" xmlns="http://www.w3.org/2000/svg" xmlns:xlink="http://www.w3.org/1999/xlink" xml:space="preserve" onload="init(evt)">
<style type="text/css"><![CDATA[
.edge:hover path { stroke: red; }
.edge:hover polygon { stroke: red; fill: red; }
]]></style>
<script type="text/javascript"><![CDATA[
var edges = document.getElementsByTagName('g');
if (edges && edges.length) {
  for (var i=0;i<edges.length;i++) {
    if (edges[i].id.substr(0,4)=='edge') {
      edges[i].setAttribute('class','edge');
    }
  }
}
]]></script>
        <defs>
                <circle id="rim" cx="0" cy="0" r="7"/>
                <circle id="rim2" cx="0" cy="0" r="3.5"/>
                <g id="zoomPlus">
                        <use xlink:href="#rim" fill="#404040">
                                <set attributeName="fill" to="#808080" begin="zoomplus.mouseover" end="zoomplus.mouseout"/>
                        </use>
                        <path d="M-4,0h8M0,-4v8" fill="none" stroke="white" stroke-width="1.5" pointer-events="none"/>
                </g>
                <g id="zoomMin">
                        <use xlink:href="#rim" fill="#404040">
                                <set attributeName="fill" to="#808080" begin="zoomminus.mouseover" end="zoomminus.mouseout"/>
                        </use>
                        <path d="M-4,0h8" fill="none" stroke="white" stroke-width="1.5" pointer-events="none"/>
                </g>
                <g id="dirArrow">
                        <path fill="none" stroke="white" stroke-width="1.5" d="M0,-3.0v7 M-2.5,-0.5L0,-3.0L2.5,-0.5"/>
                </g>
               <g id="resetDef">
                       <use xlink:href="#rim2" fill="#404040">
                               <set attributeName="fill" to="#808080" begin="reset.mouseover" end="reset.mouseout"/>
                       </use>
               </g>
        </defs>

<script type="text/javascript">
var viewWidth = 945;
var viewHeight = 269;
var sectionId = 'dynsection-2';
</script>
<script xlink:href="svgpan.js"/>
<svg id="graph" class="graph">
<g id="viewport">
<title>CO_Basalt\__construct</title>
<polygon fill="#ffffff" stroke="transparent" points="-4,4 -4,-265 941.4893,-265 941.4893,4 -4,4"/>
<!-- Node1 -->
<g id="node1" class="node">
<title>Node1</title>
<g id="a_node1"><a xlink:title=" ">
<polygon fill="#bfbfbf" stroke="#000000" points="0,-211.5 0,-229.5 118.8271,-229.5 118.8271,-211.5 0,-211.5"/>
<text text-anchor="middle" x="59.4136" y="-217.5" font-family="Helvetica,sans-Serif" font-size="10.00" fill="#000000">CO_Basalt\__construct</text>
</a>
</g>
</g>
<!-- Node2 -->
<g id="node2" class="node">
<title>Node2</title>
<g id="a_node2"><a xlink:href="a00203.html#a2ddbc8082e5db06272eb38f00b80fae5" target="_top" xlink:title=" ">
<polygon fill="#ffffff" stroke="#000000" points="154.8271,-230.5 154.8271,-258.5 262.5361,-258.5 262.5361,-230.5 154.8271,-230.5"/>
<text text-anchor="start" x="162.8271" y="-246.5" font-family="Helvetica,sans-Serif" font-size="10.00" fill="#000000">CO_Basalt\_process</text>
<text text-anchor="middle" x="208.6816" y="-236.5" font-family="Helvetica,sans-Serif" font-size="10.00" fill="#000000">_basalt_parameters</text>
</a>
</g>
</g>
<!-- Node1&#45;&gt;Node2 -->
<g id="edge1" class="edge">
<title>Node1&#45;&gt;Node2</title>
<path fill="none" stroke="#191970" d="M115.4202,-229.505C124.8754,-231.0253 134.7568,-232.614 144.4028,-234.165"/>
<polygon fill="#191970" stroke="#191970" points="143.9133,-237.6311 154.3421,-235.763 145.0246,-230.7199 143.9133,-237.6311"/>
</g>
<!-- Node5 -->
<g id="node5" class="node">
<title>Node5</title>
<g id="a_node5"><a xlink:href="a00203.html#a528297edc9fb3e5e3c8f2e9270621853" target="_top" xlink:title=" ">
<polygon fill="#ffffff" stroke="#000000" points="154.8271,-183.5 154.8271,-211.5 262.5361,-211.5 262.5361,-183.5 154.8271,-183.5"/>
<text text-anchor="start" x="162.8271" y="-199.5" font-family="Helvetica,sans-Serif" font-size="10.00" fill="#000000">CO_Basalt\_process</text>
<text text-anchor="middle" x="208.6816" y="-189.5" font-family="Helvetica,sans-Serif" font-size="10.00" fill="#000000">_command</text>
</a>
</g>
</g>
<!-- Node1&#45;&gt;Node5 -->
<g id="edge4" class="edge">
<title>Node1&#45;&gt;Node5</title>
<path fill="none" stroke="#191970" d="M117.9798,-211.4758C126.7626,-210.1225 135.857,-208.7212 144.7448,-207.3517"/>
<polygon fill="#191970" stroke="#191970" points="145.3135,-210.8055 154.6639,-205.8233 144.2475,-203.8871 145.3135,-210.8055"/>
</g>
<!-- Node3 -->
<g id="node3" class="node">
<title>Node3</title>
<g id="a_node3"><a xlink:href="a00203.html#a00b3cdf024e15bff80a3c3c9aed320f3" target="_top" xlink:title=" ">
<polygon fill="#ffffff" stroke="#000000" points="317.7012,-230.5 317.7012,-258.5 430.9863,-258.5 430.9863,-230.5 317.7012,-230.5"/>
<text text-anchor="start" x="325.7012" y="-246.5" font-family="Helvetica,sans-Serif" font-size="10.00" fill="#000000">CO_Basalt\get_plugin</text>
<text text-anchor="middle" x="374.3438" y="-236.5" font-family="Helvetica,sans-Serif" font-size="10.00" fill="#000000">_names</text>
</a>
</g>
</g>
<!-- Node2&#45;&gt;Node3 -->
<g id="edge2" class="edge">
<title>Node2&#45;&gt;Node3</title>
<path fill="none" stroke="#191970" d="M262.9256,-244.5C277.1096,-244.5 292.5683,-244.5 307.3308,-244.5"/>
<polygon fill="#191970" stroke="#191970" points="307.4156,-248.0001 317.4156,-244.5 307.4155,-241.0001 307.4156,-248.0001"/>
</g>
<!-- Node4 -->
<g id="node4" class="node">
<title>Node4</title>
<g id="a_node4"><a xlink:href="a00203.html#a9917ca310760b3d05cdb027b030f86b4" target="_top" xlink:title=" ">
<polygon fill="#ffffff" stroke="#000000" points="633.2197,-235.5 633.2197,-253.5 757.6182,-253.5 757.6182,-235.5 633.2197,-235.5"/>
<text text-anchor="middle" x="695.4189" y="-241.5" font-family="Helvetica,sans-Serif" font-size="10.00" fill="#000000">CO_Basalt\plugin_name</text>
</a>
</g>
</g>
<!-- Node3&#45;&gt;Node4 -->
<g id="edge3" class="edge">
<title>Node3&#45;&gt;Node4</title>
<path fill="none" stroke="#191970" d="M431.0065,-244.5C484.4183,-244.5 564.7141,-244.5 622.8025,-244.5"/>
<polygon fill="#191970" stroke="#191970" points="623.0148,-248.0001 633.0148,-244.5 623.0148,-241.0001 623.0148,-248.0001"/>
</g>
<!-- Node6 -->
<g id="node6" class="node">
<title>Node6</title>
<g id="a_node6"><a xlink:href="a00203.html#a474660b01c925a4d47e918c02944ebf7" target="_top" xlink:title=" ">
<polygon fill="#ffffff" stroke="#000000" points="298.5361,-188.5 298.5361,-206.5 450.1514,-206.5 450.1514,-188.5 298.5361,-188.5"/>
<text text-anchor="middle" x="374.3438" y="-194.5" font-family="Helvetica,sans-Serif" font-size="10.00" fill="#000000">CO_Basalt\process_command</text>
</a>
</g>
</g>
<!-- Node5&#45;&gt;Node6 -->
<g id="edge5" class="edge">
<title>Node5&#45;&gt;Node6</title>
<path fill="none" stroke="#191970" d="M262.9256,-197.5C271.0645,-197.5 279.623,-197.5 288.2289,-197.5"/>
<polygon fill="#191970" stroke="#191970" points="288.3309,-201.0001 298.3309,-197.5 288.3309,-194.0001 288.3309,-201.0001"/>
</g>
<!-- Node7 -->
<g id="node7" class="node">
<title>Node7</title>
<g id="a_node7"><a xlink:href="a00199.html#a4195fd75943d9dd1ca6dce290aa64dcc" target="_top" xlink:title=" ">
<polygon fill="#ffffff" stroke="#000000" points="486.1514,-185.5 486.1514,-213.5 597.2197,-213.5 597.2197,-185.5 486.1514,-185.5"/>
<text text-anchor="start" x="494.1514" y="-201.5" font-family="Helvetica,sans-Serif" font-size="10.00" fill="#000000">A_CO_Basalt_Plugin</text>
<text text-anchor="middle" x="541.6855" y="-191.5" font-family="Helvetica,sans-Serif" font-size="10.00" fill="#000000">\_condition_response</text>
</a>
</g>
</g>
<!-- Node6&#45;&gt;Node7 -->
<g id="edge6" class="edge">
<title>Node6&#45;&gt;Node7</title>
<path fill="none" stroke="#191970" d="M450.1807,-198.4064C458.7879,-198.5092 467.5067,-198.6134 475.9684,-198.7146"/>
<polygon fill="#191970" stroke="#191970" points="476.0964,-202.2163 486.1375,-198.8361 476.1801,-195.2168 476.0964,-202.2163"/>
</g>
<!-- Node8 -->
<g id="node8" class="node">
<title>Node8</title>
<g id="a_node8"><a xlink:href="a00203.html#a60ce04d2fc76ab876a428500dccb7dd8" target="_top" xlink:title=" ">
<polygon fill="#ffffff" stroke="#000000" points="487.5454,-138.5 487.5454,-166.5 595.8257,-166.5 595.8257,-138.5 487.5454,-138.5"/>
<text text-anchor="start" x="495.5454" y="-154.5" font-family="Helvetica,sans-Serif" font-size="10.00" fill="#000000">CO_Basalt\_process</text>
<text text-anchor="middle" x="541.6855" y="-144.5" font-family="Helvetica,sans-Serif" font-size="10.00" fill="#000000">_baseline_command</text>
</a>
</g>
</g>
<!-- Node6&#45;&gt;Node8 -->
<g id="edge7" class="edge">
<title>Node6&#45;&gt;Node8</title>
<path fill="none" stroke="#191970" d="M408.2079,-188.3936C428.6889,-182.886 455.4299,-175.6951 479.5937,-169.1972"/>
<polygon fill="#191970" stroke="#191970" points="480.6636,-172.5339 489.4116,-166.557 478.8457,-165.774 480.6636,-172.5339"/>
</g>
<!-- Node8&#45;&gt;Node4 -->
<g id="edge16" class="edge">
<title>Node8&#45;&gt;Node4</title>
<path fill="none" stroke="#191970" d="M583.1719,-166.6214C588.148,-169.1824 592.9654,-172.1315 597.2197,-175.5 618.688,-192.4983 610.9591,-209.5534 633.2197,-225.5 636.2918,-227.7007 639.6237,-229.6507 643.095,-231.378"/>
<polygon fill="#191970" stroke="#191970" points="641.9584,-234.6995 652.5267,-235.4492 644.7326,-228.2726 641.9584,-234.6995"/>
</g>
<!-- Node9 -->
<g id="node9" class="node">
<title>Node9</title>
<g id="a_node9"><a xlink:href="a00203.html#a94f153fbc911e113c202f91acc1b270e" target="_top" xlink:title=" ">
<polygon fill="#ffffff" stroke="#000000" points="640.4463,-188.5 640.4463,-216.5 750.3916,-216.5 750.3916,-188.5 640.4463,-188.5"/>
<text text-anchor="start" x="648.4463" y="-204.5" font-family="Helvetica,sans-Serif" font-size="10.00" fill="#000000">CO_Basalt\_baseline</text>
<text text-anchor="middle" x="695.4189" y="-194.5" font-family="Helvetica,sans-Serif" font-size="10.00" fill="#000000">_bulk_loader</text>
</a>
</g>
</g>
<!-- Node8&#45;&gt;Node9 -->
<g id="edge8" class="edge">
<title>Node8&#45;&gt;Node9</title>
<path fill="none" stroke="#191970" d="M584.918,-166.5608C602.8416,-172.3903 623.8043,-179.2082 642.6254,-185.3295"/>
<polygon fill="#191970" stroke="#191970" points="641.6527,-188.6936 652.2449,-188.4581 643.8178,-182.0368 641.6527,-188.6936"/>
</g>
<!-- Node12 -->
<g id="node12" class="node">
<title>Node12</title>
<g id="a_node12"><a xlink:href="a00203.html#ad72622e9b3a834e50a1a8f4ab488b08a" target="_top" xlink:title=" ">
<polygon fill="#ffffff" stroke="#000000" points="640.4463,-141.5 640.4463,-169.5 750.3916,-169.5 750.3916,-141.5 640.4463,-141.5"/>
<text text-anchor="start" x="648.4463" y="-157.5" font-family="Helvetica,sans-Serif" font-size="10.00" fill="#000000">CO_Basalt\_baseline</text>
<text text-anchor="middle" x="695.4189" y="-147.5" font-family="Helvetica,sans-Serif" font-size="10.00" fill="#000000">_fetch_backup</text>
</a>
</g>
</g>
<!-- Node8&#45;&gt;Node12 -->
<g id="edge11" class="edge">
<title>Node8&#45;&gt;Node12</title>
<path fill="none" stroke="#191970" d="M595.8862,-153.5577C606.9392,-153.7734 618.679,-154.0025 630.0731,-154.2248"/>
<polygon fill="#191970" stroke="#191970" points="630.3439,-157.7307 640.4104,-154.4265 630.4806,-150.732 630.3439,-157.7307"/>
</g>
<!-- Node14 -->
<g id="node14" class="node">
<title>Node14</title>
<g id="a_node14"><a xlink:href="a00199.html#a772e319259d2ce50837c099acdfd3625" target="_top" xlink:title=" ">
<polygon fill="#ffffff" stroke="#000000" points="640.4463,-94.5 640.4463,-122.5 750.3916,-122.5 750.3916,-94.5 640.4463,-94.5"/>
<text text-anchor="start" x="648.4463" y="-110.5" font-family="Helvetica,sans-Serif" font-size="10.00" fill="#000000">A_CO_Basalt_Plugin</text>
<text text-anchor="middle" x="695.4189" y="-100.5" font-family="Helvetica,sans-Serif" font-size="10.00" fill="#000000">\_get_handler</text>
</a>
</g>
</g>
<!-- Node8&#45;&gt;Node14 -->
<g id="edge13" class="edge">
<title>Node8&#45;&gt;Node14</title>
<path fill="none" stroke="#191970" d="M590.7504,-138.4572C605.3113,-134.2897 621.4105,-129.6819 636.5271,-125.3554"/>
<polygon fill="#191970" stroke="#191970" points="637.642,-128.6769 646.2929,-122.5604 635.7158,-121.9471 637.642,-128.6769"/>
</g>
<!-- Node15 -->
<g id="node15" class="node">
<title>Node15</title>
<g id="a_node15"><a xlink:href="a00203.html#acd909d93bf248e9b07ff9cfdd28df9b9" target="_top" xlink:title=" ">
<polygon fill="#ffffff" stroke="#000000" points="637.9512,-47.5 637.9512,-75.5 752.8867,-75.5 752.8867,-47.5 637.9512,-47.5"/>
<text text-anchor="start" x="645.9512" y="-63.5" font-family="Helvetica,sans-Serif" font-size="10.00" fill="#000000">CO_Basalt\_process</text>
<text text-anchor="middle" x="695.4189" y="-53.5" font-family="Helvetica,sans-Serif" font-size="10.00" fill="#000000">_serverinfo_command</text>
</a>
</g>
</g>
<!-- Node8&#45;&gt;Node15 -->
<g id="edge14" class="edge">
<title>Node8&#45;&gt;Node15</title>
<path fill="none" stroke="#191970" d="M557.5938,-138.4583C575.1371,-123.5243 604.6744,-99.9672 633.2197,-84.5 636.4463,-82.7517 639.8337,-81.0822 643.2918,-79.4989"/>
<polygon fill="#191970" stroke="#191970" points="644.7472,-82.683 652.5489,-75.5147 641.9798,-76.2532 644.7472,-82.683"/>
</g>
<!-- Node16 -->
<g id="node16" class="node">
<title>Node16</title>
<g id="a_node16"><a xlink:href="a00203.html#af1b2c5aad7e4010614b891a8e47e469b" target="_top" xlink:title=" ">
<polygon fill="#ffffff" stroke="#000000" points="641.5645,-.5 641.5645,-28.5 749.2734,-28.5 749.2734,-.5 641.5645,-.5"/>
<text text-anchor="start" x="649.5645" y="-16.5" font-family="Helvetica,sans-Serif" font-size="10.00" fill="#000000">CO_Basalt\_process</text>
<text text-anchor="middle" x="695.4189" y="-6.5" font-family="Helvetica,sans-Serif" font-size="10.00" fill="#000000">_token_command</text>
</a>
</g>
</g>
<!-- Node8&#45;&gt;Node16 -->
<g id="edge15" class="edge">
<title>Node8&#45;&gt;Node16</title>
<path fill="none" stroke="#191970" d="M549.4028,-138.4211C563.207,-114.4599 594.3535,-65.6217 633.2197,-37.5 635.3009,-35.9941 637.4919,-34.5761 639.7576,-33.2419"/>
<polygon fill="#191970" stroke="#191970" points="641.5624,-36.2475 648.7932,-28.5037 638.3116,-30.0481 641.5624,-36.2475"/>
</g>
<!-- Node10 -->
<g id="node10" class="node">
<title>Node10</title>
<g id="a_node10"><a xlink:href="a00203.html#ad343adeeff085b060c73fc62786aee7b" target="_top" xlink:title=" ">
<polygon fill="#ffffff" stroke="#000000" points="814.2017,-232.5 814.2017,-260.5 916.9058,-260.5 916.9058,-232.5 814.2017,-232.5"/>
<text text-anchor="start" x="822.2017" y="-248.5" font-family="Helvetica,sans-Serif" font-size="10.00" fill="#000000">CO_Basalt\_extract</text>
<text text-anchor="middle" x="865.5537" y="-238.5" font-family="Helvetica,sans-Serif" font-size="10.00" fill="#000000">_csv_data</text>
</a>
</g>
</g>
<!-- Node9&#45;&gt;Node10 -->
<g id="edge9" class="edge">
<title>Node9&#45;&gt;Node10</title>
<path fill="none" stroke="#191970" d="M749.7184,-216.5428C767.1137,-221.0416 786.4928,-226.0534 804.3463,-230.6706"/>
<polygon fill="#191970" stroke="#191970" points="803.5279,-234.0741 814.0857,-233.1894 805.2806,-227.297 803.5279,-234.0741"/>
</g>
<!-- Node11 -->
<g id="node11" class="node">
<title>Node11</title>
<g id="a_node11"><a xlink:href="a00203.html#a0c8258440777d1e27e88f57f55a9e2a4" target="_top" xlink:title=" ">
<polygon fill="#ffffff" stroke="#000000" points="811.6992,-185.5 811.6992,-213.5 919.4082,-213.5 919.4082,-185.5 811.6992,-185.5"/>
<text text-anchor="start" x="819.6992" y="-201.5" font-family="Helvetica,sans-Serif" font-size="10.00" fill="#000000">CO_Basalt\_process</text>
<text text-anchor="middle" x="865.5537" y="-191.5" font-family="Helvetica,sans-Serif" font-size="10.00" fill="#000000">_bulk_row</text>
</a>
</g>
</g>
<!-- Node9&#45;&gt;Node11 -->
<g id="edge10" class="edge">
<title>Node9&#45;&gt;Node11</title>
<path fill="none" stroke="#191970" d="M750.6568,-201.526C766.8074,-201.2412 784.6005,-200.9275 801.2611,-200.6337"/>
<polygon fill="#191970" stroke="#191970" points="801.5269,-204.1296 811.4636,-200.4538 801.4034,-197.1307 801.5269,-204.1296"/>
</g>
<!-- Node13 -->
<g id="node13" class="node">
<title>Node13</title>
<g id="a_node13"><a xlink:href="a00203.html#a43999add0a0623b6cc1376defb359b9b" target="_top" xlink:title=" ">
<polygon fill="#ffffff" stroke="#000000" points="793.6182,-146.5 793.6182,-164.5 937.4893,-164.5 937.4893,-146.5 793.6182,-146.5"/>
<text text-anchor="middle" x="865.5537" y="-152.5" font-family="Helvetica,sans-Serif" font-size="10.00" fill="#000000">CO_Basalt\_output_one_line</text>
</a>
</g>
</g>
<!-- Node12&#45;&gt;Node13 -->
<g id="edge12" class="edge">
<title>Node12&#45;&gt;Node13</title>
<path fill="none" stroke="#191970" d="M750.6568,-155.5C761.1313,-155.5 772.2966,-155.5 783.3958,-155.5"/>
<polygon fill="#191970" stroke="#191970" points="783.5487,-159.0001 793.5486,-155.5 783.5486,-152.0001 783.5487,-159.0001"/>
</g>
</g>
</svg>
        <g id="navigator" transform="translate(0 0)" fill="#404254">
                <rect fill="#f2f5e9" fill-opacity="0.5" stroke="#606060" stroke-width=".5" x="0" y="0" width="60" height="60"/>
                <use id="zoomplus" xlink:href="#zoomPlus" x="17" y="9" onmousedown="handleZoom(evt,'in')"/>
                <use id="zoomminus" xlink:href="#zoomMin" x="42" y="9" onmousedown="handleZoom(evt,'out')"/>
                <use id="reset" xlink:href="#resetDef" x="30" y="36" onmousedown="handleReset()"/>
                <g id="arrowUp" xlink:href="#dirArrow" transform="translate(30 24)" onmousedown="handlePan(0,-1)">
                  <use xlink:href="#rim" fill="#404040">
                        <set attributeName="fill" to="#808080" begin="arrowUp.mouseover" end="arrowUp.mouseout"/>
                  </use>
                  <path fill="none" stroke="white" stroke-width="1.5" d="M0,-3.0v7 M-2.5,-0.5L0,-3.0L2.5,-0.5"/>
                </g>
                <g id="arrowRight" xlink:href="#dirArrow" transform="rotate(90) translate(36 -43)" onmousedown="handlePan(1,0)">
                  <use xlink:href="#rim" fill="#404040">
                        <set attributeName="fill" to="#808080" begin="arrowRight.mouseover" end="arrowRight.mouseout"/>
                  </use>
                  <path fill="none" stroke="white" stroke-width="1.5" d="M0,-3.0v7 M-2.5,-0.5L0,-3.0L2.5,-0.5"/>
                </g>
                <g id="arrowDown" xlink:href="#dirArrow" transform="rotate(180) translate(-30 -48)" onmousedown="handlePan(0,1)">
                  <use xlink:href="#rim" fill="#404040">
                        <set attributeName="fill" to="#808080" begin="arrowDown.mouseover" end="arrowDown.mouseout"/>
                  </use>
                  <path fill="none" stroke="white" stroke-width="1.5" d="M0,-3.0v7 M-2.5,-0.5L0,-3.0L2.5,-0.5"/>
                </g>
                <g id="arrowLeft" xlink:href="#dirArrow" transform="rotate(270) translate(-36 17)" onmousedown="handlePan(-1,0)">
                  <use xlink:href="#rim" fill="#404040">
                        <set attributeName="fill" to="#808080" begin="arrowLeft.mouseover" end="arrowLeft.mouseout"/>
                  </use>
                  <path fill="none" stroke="white" stroke-width="1.5" d="M0,-3.0v7 M-2.5,-0.5L0,-3.0L2.5,-0.5"/>
                </g>
        </g>
        <svg viewBox="0 0 15 15" width="100%" height="30px" preserveAspectRatio="xMaxYMin meet">
         <g id="arrow_out" transform="scale(0.3 0.3)">
          <a xlink:href="a00203_aad1b60cb5230efedfc34a931546d415b_cgraph_org.svg" target="_base">
           <rect id="button" ry="5" rx="5" y="6" x="6" height="38" width="38"
                fill="#f2f5e9" fill-opacity="0.5" stroke="#606060" stroke-width="1.0"/>
           <path id="arrow"
             d="M 11.500037,31.436501 C 11.940474,20.09759 22.043105,11.32322 32.158766,21.979434 L 37.068811,17.246167 C 37.068811,17.246167 37.088388,32 37.088388,32 L 22.160133,31.978069 C 22.160133,31.978069 26.997745,27.140456 26.997745,27.140456 C 18.528582,18.264221 13.291696,25.230495 11.500037,31.436501 z"
             style="fill:#404040;"/>
          </a>
         </g>
        </svg>
</svg>
