<?xml version="1.0" encoding="UTF-8" standalone="no"?>
<!DOCTYPE svg PUBLIC "-//W3C//DTD SVG 1.1//EN"
 "http://www.w3.org/Graphics/SVG/1.1/DTD/svg11.dtd">
<!-- Generated by graphviz version 2.40.1 (20161225.0304)
 -->
<!-- Title: CO_Place\set_address_element Pages: 1 -->
<svg width="304pt" height="74pt"
 viewBox="0.00 0.00 303.93 74.00" xmlns="http://www.w3.org/2000/svg" xmlns:xlink="http://www.w3.org/1999/xlink">
<g id="graph0" class="graph" transform="scale(1 1) rotate(0) translate(4 70)">
<title>CO_Place\set_address_element</title>
<polygon fill="#ffffff" stroke="transparent" points="-4,4 -4,-70 299.9346,-70 299.9346,4 -4,4"/>
<!-- Node41 -->
<g id="node1" class="node">
<title>Node41</title>
<polygon fill="#bfbfbf" stroke="#000000" points="0,-16.5 0,-44.5 118.832,-44.5 118.832,-16.5 0,-16.5"/>
<text text-anchor="start" x="8" y="-32.5" font-family="Helvetica,sans-Serif" font-size="10.00" fill="#000000">CO_Place\set_address</text>
<text text-anchor="middle" x="59.416" y="-22.5" font-family="Helvetica,sans-Serif" font-size="10.00" fill="#000000">_element</text>
</g>
<!-- Node42 -->
<g id="node2" class="node">
<title>Node42</title>
<g id="a_node2"><a xlink:href="a00263.html#a60b73dee76e98e806f4a872cca13ee58" target="_top" xlink:title="CO_Place\\_get_address\l_element_labels">
<polygon fill="#ffffff" stroke="#000000" points="162.9058,-37.5 162.9058,-65.5 287.8608,-65.5 287.8608,-37.5 162.9058,-37.5"/>
<text text-anchor="start" x="170.9058" y="-53.5" font-family="Helvetica,sans-Serif" font-size="10.00" fill="#000000">CO_Place\_get_address</text>
<text text-anchor="middle" x="225.3833" y="-43.5" font-family="Helvetica,sans-Serif" font-size="10.00" fill="#000000">_element_labels</text>
</a>
</g>
</g>
<!-- Node41&#45;&gt;Node42 -->
<g id="edge1" class="edge">
<title>Node41&#45;&gt;Node42</title>
<path fill="none" stroke="#191970" d="M118.8652,-38.0222C129.7608,-39.4008 141.2465,-40.8541 152.4819,-42.2757"/>
<polygon fill="#191970" stroke="#191970" points="152.3454,-45.7863 162.7056,-43.5693 153.2241,-38.8416 152.3454,-45.7863"/>
</g>
<!-- Node43 -->
<g id="node3" class="node">
<title>Node43</title>
<g id="a_node3"><a xlink:href="a00335.html#aaa41a4de441030a1bc25875991cf00d0" target="_top" xlink:title="CO_LL_Location\\update_db">
<polygon fill="#ffffff" stroke="#000000" points="154.832,-.5 154.832,-18.5 295.9346,-18.5 295.9346,-.5 154.832,-.5"/>
<text text-anchor="middle" x="225.3833" y="-6.5" font-family="Helvetica,sans-Serif" font-size="10.00" fill="#000000">CO_LL_Location\update_db</text>
</a>
</g>
</g>
<!-- Node41&#45;&gt;Node43 -->
<g id="edge2" class="edge">
<title>Node41&#45;&gt;Node43</title>
<path fill="none" stroke="#191970" d="M118.8652,-22.9778C127.2219,-21.9205 135.9256,-20.8192 144.5973,-19.7219"/>
<polygon fill="#191970" stroke="#191970" points="145.2582,-23.1663 154.7397,-18.4386 144.3794,-16.2217 145.2582,-23.1663"/>
</g>
</g>
</svg>
