<?xml version="1.0" encoding="UTF-8" standalone="no"?>
<!DOCTYPE svg PUBLIC "-//W3C//DTD SVG 1.1//EN"
 "http://www.w3.org/Graphics/SVG/1.1/DTD/svg11.dtd">
<!-- Generated by graphviz version 2.40.1 (20161225.0304)
 -->
<!-- Title: CO_Cobra\_create_new_login Pages: 1 -->
<svg width="286pt" height="84pt"
 viewBox="0.00 0.00 286.11 84.00" xmlns="http://www.w3.org/2000/svg" xmlns:xlink="http://www.w3.org/1999/xlink">
<g id="graph0" class="graph" transform="scale(1 1) rotate(0) translate(4 80)">
<title>CO_Cobra\_create_new_login</title>
<polygon fill="#ffffff" stroke="transparent" points="-4,4 -4,-80 282.1123,-80 282.1123,4 -4,4"/>
<!-- Node1 -->
<g id="node1" class="node">
<title>Node1</title>
<g id="a_node1"><a xlink:title=" ">
<polygon fill="#bfbfbf" stroke="#000000" points="154.2754,-23.5 154.2754,-51.5 278.1123,-51.5 278.1123,-23.5 154.2754,-23.5"/>
<text text-anchor="start" x="162.2754" y="-39.5" font-family="Helvetica,sans-Serif" font-size="10.00" fill="#000000">CO_Cobra\_create_new</text>
<text text-anchor="middle" x="216.1938" y="-29.5" font-family="Helvetica,sans-Serif" font-size="10.00" fill="#000000">_login</text>
</a>
</g>
</g>
<!-- Node2 -->
<g id="node2" class="node">
<title>Node2</title>
<g id="a_node2"><a xlink:href="a00236.html#a8587af0d1680b694bf079f74161b6e2f" target="_top" xlink:title=" ">
<polygon fill="#ffffff" stroke="#000000" points="0,-47.5 0,-75.5 118.2754,-75.5 118.2754,-47.5 0,-47.5"/>
<text text-anchor="start" x="8" y="-63.5" font-family="Helvetica,sans-Serif" font-size="10.00" fill="#000000">CO_Cobra\create_new</text>
<text text-anchor="middle" x="59.1377" y="-53.5" font-family="Helvetica,sans-Serif" font-size="10.00" fill="#000000">_manager_login</text>
</a>
</g>
</g>
<!-- Node1&#45;&gt;Node2 -->
<g id="edge1" class="edge">
<title>Node1&#45;&gt;Node2</title>
<path fill="none" stroke="#191970" d="M144.1126,-48.5148C135.5253,-49.8271 126.8344,-51.1552 118.4544,-52.4357"/>
<polygon fill="#191970" stroke="#191970" points="144.7646,-51.9559 154.1211,-46.9854 143.7071,-45.0363 144.7646,-51.9559"/>
</g>
<!-- Node3 -->
<g id="node3" class="node">
<title>Node3</title>
<g id="a_node3"><a xlink:href="a00236.html#ab407239c70f2b284c8ef0d02efa17b01" target="_top" xlink:title=" ">
<polygon fill="#ffffff" stroke="#000000" points="0,-.5 0,-28.5 118.2754,-28.5 118.2754,-.5 0,-.5"/>
<text text-anchor="start" x="8" y="-16.5" font-family="Helvetica,sans-Serif" font-size="10.00" fill="#000000">CO_Cobra\create_new</text>
<text text-anchor="middle" x="59.1377" y="-6.5" font-family="Helvetica,sans-Serif" font-size="10.00" fill="#000000">_standard_login</text>
</a>
</g>
</g>
<!-- Node1&#45;&gt;Node3 -->
<g id="edge2" class="edge">
<title>Node1&#45;&gt;Node3</title>
<path fill="none" stroke="#191970" d="M144.1126,-26.9441C135.5253,-25.6865 126.8344,-24.4138 118.4544,-23.1866"/>
<polygon fill="#191970" stroke="#191970" points="143.7195,-30.4238 154.1211,-28.4098 144.7338,-23.4977 143.7195,-30.4238"/>
</g>
</g>
</svg>
