<?xml version="1.0" encoding="UTF-8" standalone="no"?>
<!DOCTYPE svg PUBLIC "-//W3C//DTD SVG 1.1//EN"
 "http://www.w3.org/Graphics/SVG/1.1/DTD/svg11.dtd">
<!-- Generated by graphviz version 2.40.1 (20161225.0304)
 -->
<!-- Title: CO_Andisol\create_new_user Pages: 1 -->
<!--zoomable 79 -->
<svg id="main" version="1.1" xmlns="http://www.w3.org/2000/svg" xmlns:xlink="http://www.w3.org/1999/xlink" xml:space="preserve" onload="init(evt)">
<style type="text/css"><![CDATA[
.edge:hover path { stroke: red; }
.edge:hover polygon { stroke: red; fill: red; }
]]></style>
<script type="text/javascript"><![CDATA[
var edges = document.getElementsByTagName('g');
if (edges && edges.length) {
  for (var i=0;i<edges.length;i++) {
    if (edges[i].id.substr(0,4)=='edge') {
      edges[i].setAttribute('class','edge');
    }
  }
}
]]></script>
        <defs>
                <circle id="rim" cx="0" cy="0" r="7"/>
                <circle id="rim2" cx="0" cy="0" r="3.5"/>
                <g id="zoomPlus">
                        <use xlink:href="#rim" fill="#404040">
                                <set attributeName="fill" to="#808080" begin="zoomplus.mouseover" end="zoomplus.mouseout"/>
                        </use>
                        <path d="M-4,0h8M0,-4v8" fill="none" stroke="white" stroke-width="1.5" pointer-events="none"/>
                </g>
                <g id="zoomMin">
                        <use xlink:href="#rim" fill="#404040">
                                <set attributeName="fill" to="#808080" begin="zoomminus.mouseover" end="zoomminus.mouseout"/>
                        </use>
                        <path d="M-4,0h8" fill="none" stroke="white" stroke-width="1.5" pointer-events="none"/>
                </g>
                <g id="dirArrow">
                        <path fill="none" stroke="white" stroke-width="1.5" d="M0,-3.0v7 M-2.5,-0.5L0,-3.0L2.5,-0.5"/>
                </g>
               <g id="resetDef">
                       <use xlink:href="#rim2" fill="#404040">
                               <set attributeName="fill" to="#808080" begin="reset.mouseover" end="reset.mouseout"/>
                       </use>
               </g>
        </defs>

<script type="text/javascript">
var viewWidth = 762;
var viewHeight = 79;
var sectionId = 'dynsection-12';
</script>
<script xlink:href="svgpan.js"/>
<svg id="graph" class="graph">
<g id="viewport">
<title>CO_Andisol\create_new_user</title>
<polygon fill="#ffffff" stroke="transparent" points="-4,4 -4,-75 758.2979,-75 758.2979,4 -4,4"/>
<!-- Node65 -->
<g id="node1" class="node">
<title>Node65</title>
<polygon fill="#bfbfbf" stroke="#000000" points="0,-28.5 0,-46.5 148.8516,-46.5 148.8516,-28.5 0,-28.5"/>
<text text-anchor="middle" x="74.4258" y="-34.5" font-family="Helvetica,sans-Serif" font-size="10.00" fill="#000000">CO_Andisol\create_new_user</text>
</g>
<!-- Node66 -->
<g id="node2" class="node">
<title>Node66</title>
<g id="a_node2"><a xlink:href="a00219.html#a3605f036c8c634afaa74f67e5853a0ad" target="_top" xlink:title="CO_Andisol\\get_cobra\l_instance">
<polygon fill="#ffffff" stroke="#000000" points="332.457,-42.5 332.457,-70.5 449.0723,-70.5 449.0723,-42.5 332.457,-42.5"/>
<text text-anchor="start" x="340.457" y="-58.5" font-family="Helvetica,sans-Serif" font-size="10.00" fill="#000000">CO_Andisol\get_cobra</text>
<text text-anchor="middle" x="390.7646" y="-48.5" font-family="Helvetica,sans-Serif" font-size="10.00" fill="#000000">_instance</text>
</a>
</g>
</g>
<!-- Node65&#45;&gt;Node66 -->
<g id="edge1" class="edge">
<title>Node65&#45;&gt;Node66</title>
<path fill="none" stroke="#191970" d="M148.9931,-41.9787C201.3709,-45.1246 270.9133,-49.3015 321.9656,-52.3678"/>
<polygon fill="#191970" stroke="#191970" points="322.0504,-55.8791 332.2422,-52.985 322.4701,-48.8917 322.0504,-55.8791"/>
</g>
<!-- Node67 -->
<g id="node3" class="node">
<title>Node67</title>
<g id="a_node3"><a xlink:href="a00219.html#af5f39aa13714ad544a9099edb0d51cd5" target="_top" xlink:title="CO_Andisol\\manager">
<polygon fill="#ffffff" stroke="#000000" points="184.8516,-9.5 184.8516,-27.5 296.457,-27.5 296.457,-9.5 184.8516,-9.5"/>
<text text-anchor="middle" x="240.6543" y="-15.5" font-family="Helvetica,sans-Serif" font-size="10.00" fill="#000000">CO_Andisol\manager</text>
</a>
</g>
</g>
<!-- Node65&#45;&gt;Node67 -->
<g id="edge2" class="edge">
<title>Node65&#45;&gt;Node67</title>
<path fill="none" stroke="#191970" d="M149.2732,-28.9449C157.7278,-27.9785 166.2975,-26.999 174.6279,-26.0468"/>
<polygon fill="#191970" stroke="#191970" points="175.1088,-29.5148 184.6466,-24.9017 174.3138,-22.56 175.1088,-29.5148"/>
</g>
<!-- Node67&#45;&gt;Node66 -->
<g id="edge7" class="edge">
<title>Node67&#45;&gt;Node66</title>
<path fill="none" stroke="#191970" d="M276.2284,-27.5055C290.9407,-31.2299 308.4824,-35.6705 325.3619,-39.9435"/>
<polygon fill="#191970" stroke="#191970" points="324.6442,-43.3721 335.1973,-42.4333 326.3621,-36.5862 324.6442,-43.3721"/>
</g>
<!-- Node68 -->
<g id="node4" class="node">
<title>Node68</title>
<g id="a_node4"><a xlink:href="a00219.html#ac2a2dcb99dc927789b0ffa09c24946de" target="_top" xlink:title="CO_Andisol\\logged_in">
<polygon fill="#ffffff" stroke="#000000" points="333.0088,-5.5 333.0088,-23.5 448.5205,-23.5 448.5205,-5.5 333.0088,-5.5"/>
<text text-anchor="middle" x="390.7646" y="-11.5" font-family="Helvetica,sans-Serif" font-size="10.00" fill="#000000">CO_Andisol\logged_in</text>
</a>
</g>
</g>
<!-- Node67&#45;&gt;Node68 -->
<g id="edge3" class="edge">
<title>Node67&#45;&gt;Node68</title>
<path fill="none" stroke="#191970" d="M296.5499,-17.0105C305.0574,-16.7838 313.917,-16.5478 322.6501,-16.3151"/>
<polygon fill="#191970" stroke="#191970" points="322.9121,-19.8094 332.8153,-16.0442 322.7256,-12.8119 322.9121,-19.8094"/>
</g>
<!-- Node69 -->
<g id="node5" class="node">
<title>Node69</title>
<g id="a_node5"><a xlink:href="a00219.html#a4b0ec12b29ce4812cbb4169b68770f66" target="_top" xlink:title="CO_Andisol\\valid">
<polygon fill="#ffffff" stroke="#000000" points="485.0723,-24.5 485.0723,-42.5 577.7764,-42.5 577.7764,-24.5 485.0723,-24.5"/>
<text text-anchor="middle" x="531.4243" y="-30.5" font-family="Helvetica,sans-Serif" font-size="10.00" fill="#000000">CO_Andisol\valid</text>
</a>
</g>
</g>
<!-- Node68&#45;&gt;Node69 -->
<g id="edge4" class="edge">
<title>Node68&#45;&gt;Node69</title>
<path fill="none" stroke="#191970" d="M448.7884,-22.3377C457.289,-23.486 466.0371,-24.6676 474.5151,-25.8128"/>
<polygon fill="#191970" stroke="#191970" points="474.3089,-29.3167 484.6874,-27.1869 475.246,-22.3797 474.3089,-29.3167"/>
</g>
<!-- Node70 -->
<g id="node6" class="node">
<title>Node70</title>
<g id="a_node6"><a xlink:href="a00219.html#acda267f1d6a8e496e167ed46fe590dc6" target="_top" xlink:title="CO_Andisol\\get_chameleon\l_instance">
<polygon fill="#ffffff" stroke="#000000" points="613.7764,-.5 613.7764,-28.5 754.2979,-28.5 754.2979,-.5 613.7764,-.5"/>
<text text-anchor="start" x="621.7764" y="-16.5" font-family="Helvetica,sans-Serif" font-size="10.00" fill="#000000">CO_Andisol\get_chameleon</text>
<text text-anchor="middle" x="684.0371" y="-6.5" font-family="Helvetica,sans-Serif" font-size="10.00" fill="#000000">_instance</text>
</a>
</g>
</g>
<!-- Node68&#45;&gt;Node70 -->
<g id="edge6" class="edge">
<title>Node68&#45;&gt;Node70</title>
<path fill="none" stroke="#191970" d="M448.7058,-14.5C492.8881,-14.5 554.2782,-14.5 603.2786,-14.5"/>
<polygon fill="#191970" stroke="#191970" points="603.536,-18.0001 613.536,-14.5 603.536,-11.0001 603.536,-18.0001"/>
</g>
<!-- Node69&#45;&gt;Node70 -->
<g id="edge5" class="edge">
<title>Node69&#45;&gt;Node70</title>
<path fill="none" stroke="#191970" d="M578.0424,-27.6961C586.1069,-26.6921 594.6955,-25.6229 603.3596,-24.5442"/>
<polygon fill="#191970" stroke="#191970" points="604.0472,-27.9857 613.5381,-23.277 603.1823,-21.0393 604.0472,-27.9857"/>
</g>
</g>
</svg>
        <g id="navigator" transform="translate(0 0)" fill="#404254">
                <rect fill="#f2f5e9" fill-opacity="0.5" stroke="#606060" stroke-width=".5" x="0" y="0" width="60" height="60"/>
                <use id="zoomplus" xlink:href="#zoomPlus" x="17" y="9" onmousedown="handleZoom(evt,'in')"/>
                <use id="zoomminus" xlink:href="#zoomMin" x="42" y="9" onmousedown="handleZoom(evt,'out')"/>
                <use id="reset" xlink:href="#resetDef" x="30" y="36" onmousedown="handleReset()"/>
                <g id="arrowUp" xlink:href="#dirArrow" transform="translate(30 24)" onmousedown="handlePan(0,-1)">
                  <use xlink:href="#rim" fill="#404040">
                        <set attributeName="fill" to="#808080" begin="arrowUp.mouseover" end="arrowUp.mouseout"/>
                  </use>
                  <path fill="none" stroke="white" stroke-width="1.5" d="M0,-3.0v7 M-2.5,-0.5L0,-3.0L2.5,-0.5"/>
                </g>
                <g id="arrowRight" xlink:href="#dirArrow" transform="rotate(90) translate(36 -43)" onmousedown="handlePan(1,0)">
                  <use xlink:href="#rim" fill="#404040">
                        <set attributeName="fill" to="#808080" begin="arrowRight.mouseover" end="arrowRight.mouseout"/>
                  </use>
                  <path fill="none" stroke="white" stroke-width="1.5" d="M0,-3.0v7 M-2.5,-0.5L0,-3.0L2.5,-0.5"/>
                </g>
                <g id="arrowDown" xlink:href="#dirArrow" transform="rotate(180) translate(-30 -48)" onmousedown="handlePan(0,1)">
                  <use xlink:href="#rim" fill="#404040">
                        <set attributeName="fill" to="#808080" begin="arrowDown.mouseover" end="arrowDown.mouseout"/>
                  </use>
                  <path fill="none" stroke="white" stroke-width="1.5" d="M0,-3.0v7 M-2.5,-0.5L0,-3.0L2.5,-0.5"/>
                </g>
                <g id="arrowLeft" xlink:href="#dirArrow" transform="rotate(270) translate(-36 17)" onmousedown="handlePan(-1,0)">
                  <use xlink:href="#rim" fill="#404040">
                        <set attributeName="fill" to="#808080" begin="arrowLeft.mouseover" end="arrowLeft.mouseout"/>
                  </use>
                  <path fill="none" stroke="white" stroke-width="1.5" d="M0,-3.0v7 M-2.5,-0.5L0,-3.0L2.5,-0.5"/>
                </g>
        </g>
        <svg viewBox="0 0 15 15" width="100%" height="30px" preserveAspectRatio="xMaxYMin meet">
         <g id="arrow_out" transform="scale(0.3 0.3)">
          <a xlink:href="a00219_afe9a7dd6ab7e39f73345fa5ecbb177a7_cgraph_org.svg" target="_base">
           <rect id="button" ry="5" rx="5" y="6" x="6" height="38" width="38"
                fill="#f2f5e9" fill-opacity="0.5" stroke="#606060" stroke-width="1.0"/>
           <path id="arrow"
             d="M 11.500037,31.436501 C 11.940474,20.09759 22.043105,11.32322 32.158766,21.979434 L 37.068811,17.246167 C 37.068811,17.246167 37.088388,32 37.088388,32 L 22.160133,31.978069 C 22.160133,31.978069 26.997745,27.140456 26.997745,27.140456 C 18.528582,18.264221 13.291696,25.230495 11.500037,31.436501 z"
             style="fill:#404040;"/>
          </a>
         </g>
        </svg>
</svg>
