<?xml version="1.0" encoding="UTF-8" standalone="no"?>
<!DOCTYPE svg PUBLIC "-//W3C//DTD SVG 1.1//EN"
 "http://www.w3.org/Graphics/SVG/1.1/DTD/svg11.dtd">
<!-- Generated by graphviz version 2.40.1 (20161225.0304)
 -->
<!-- Title: CO_Place\geocode_long_lat Pages: 1 -->
<svg width="312pt" height="178pt"
 viewBox="0.00 0.00 312.27 178.00" xmlns="http://www.w3.org/2000/svg" xmlns:xlink="http://www.w3.org/1999/xlink">
<g id="graph0" class="graph" transform="scale(1 1) rotate(0) translate(4 174)">
<title>CO_Place\geocode_long_lat</title>
<polygon fill="#ffffff" stroke="transparent" points="-4,4 -4,-174 308.2695,-174 308.2695,4 -4,4"/>
<!-- Node1 -->
<g id="node1" class="node">
<title>Node1</title>
<g id="a_node1"><a xlink:title=" ">
<polygon fill="#bfbfbf" stroke="#000000" points="0,-75.5 0,-93.5 143.3145,-93.5 143.3145,-75.5 0,-75.5"/>
<text text-anchor="middle" x="71.6572" y="-81.5" font-family="Helvetica,sans-Serif" font-size="10.00" fill="#000000">CO_Place\geocode_long_lat</text>
</a>
</g>
</g>
<!-- Node2 -->
<g id="node2" class="node">
<title>Node2</title>
<g id="a_node2"><a xlink:href="a00263.html#a60b73dee76e98e806f4a872cca13ee58" target="_top" xlink:title=" ">
<polygon fill="#ffffff" stroke="#000000" points="179.3145,-141.5 179.3145,-169.5 304.2695,-169.5 304.2695,-141.5 179.3145,-141.5"/>
<text text-anchor="start" x="187.3145" y="-157.5" font-family="Helvetica,sans-Serif" font-size="10.00" fill="#000000">CO_Place\_get_address</text>
<text text-anchor="middle" x="241.792" y="-147.5" font-family="Helvetica,sans-Serif" font-size="10.00" fill="#000000">_element_labels</text>
</a>
</g>
</g>
<!-- Node1&#45;&gt;Node2 -->
<g id="edge1" class="edge">
<title>Node1&#45;&gt;Node2</title>
<path fill="none" stroke="#191970" d="M90.9386,-93.5638C112.353,-103.5206 148.034,-119.7855 179.3145,-132.5 183.7013,-134.2831 188.2841,-136.0845 192.8879,-137.8528"/>
<polygon fill="#191970" stroke="#191970" points="191.7195,-141.1528 202.311,-141.4192 194.1974,-134.606 191.7195,-141.1528"/>
</g>
<!-- Node3 -->
<g id="node3" class="node">
<title>Node3</title>
<g id="a_node3"><a xlink:href="a00303.html#a56d54ef8e9ee5bf99897dbc4e09e7839" target="_top" xlink:title="This is a function that returns the results of an HTTP call to a URI. It is a lot more secure than fi...">
<polygon fill="#ffffff" stroke="#000000" points="185.4375,-94.5 185.4375,-122.5 298.1465,-122.5 298.1465,-94.5 185.4375,-94.5"/>
<text text-anchor="start" x="193.4375" y="-110.5" font-family="Helvetica,sans-Serif" font-size="10.00" fill="#000000">CO_Chameleon_Utils</text>
<text text-anchor="middle" x="241.792" y="-100.5" font-family="Helvetica,sans-Serif" font-size="10.00" fill="#000000">\call_curl</text>
</a>
</g>
</g>
<!-- Node1&#45;&gt;Node3 -->
<g id="edge2" class="edge">
<title>Node1&#45;&gt;Node3</title>
<path fill="none" stroke="#191970" d="M135.4932,-93.505C148.5671,-95.3493 162.3557,-97.2944 175.5132,-99.1504"/>
<polygon fill="#191970" stroke="#191970" points="175.0385,-102.618 185.4294,-100.5492 176.0164,-95.6866 175.0385,-102.618"/>
</g>
<!-- Node4 -->
<g id="node4" class="node">
<title>Node4</title>
<g id="a_node4"><a xlink:href="a00335.html#a83a092abce1c1b6b4e886cc1adce9252" target="_top" xlink:title=" ">
<polygon fill="#ffffff" stroke="#000000" points="186.8193,-47.5 186.8193,-75.5 296.7646,-75.5 296.7646,-47.5 186.8193,-47.5"/>
<text text-anchor="start" x="194.8193" y="-63.5" font-family="Helvetica,sans-Serif" font-size="10.00" fill="#000000">CO_LL_Location\raw</text>
<text text-anchor="middle" x="241.792" y="-53.5" font-family="Helvetica,sans-Serif" font-size="10.00" fill="#000000">_latitude</text>
</a>
</g>
</g>
<!-- Node1&#45;&gt;Node4 -->
<g id="edge3" class="edge">
<title>Node1&#45;&gt;Node4</title>
<path fill="none" stroke="#191970" d="M138.4107,-75.4758C151.0453,-73.7678 164.2458,-71.9832 176.8243,-70.2828"/>
<polygon fill="#191970" stroke="#191970" points="177.3151,-73.7484 186.756,-68.9401 176.3773,-66.8115 177.3151,-73.7484"/>
</g>
<!-- Node5 -->
<g id="node5" class="node">
<title>Node5</title>
<g id="a_node5"><a xlink:href="a00335.html#a390e80685e5bbdfb8b8d2988f9855f4a" target="_top" xlink:title=" ">
<polygon fill="#ffffff" stroke="#000000" points="186.8193,-.5 186.8193,-28.5 296.7646,-28.5 296.7646,-.5 186.8193,-.5"/>
<text text-anchor="start" x="194.8193" y="-16.5" font-family="Helvetica,sans-Serif" font-size="10.00" fill="#000000">CO_LL_Location\raw</text>
<text text-anchor="middle" x="241.792" y="-6.5" font-family="Helvetica,sans-Serif" font-size="10.00" fill="#000000">_longitude</text>
</a>
</g>
</g>
<!-- Node1&#45;&gt;Node5 -->
<g id="edge4" class="edge">
<title>Node1&#45;&gt;Node5</title>
<path fill="none" stroke="#191970" d="M92.201,-75.4538C113.7949,-66.0083 148.8014,-50.8745 179.3145,-38.5 184.3618,-36.453 189.6555,-34.351 194.9361,-32.2828"/>
<polygon fill="#191970" stroke="#191970" points="196.3183,-35.5007 204.371,-28.6155 193.7823,-28.9762 196.3183,-35.5007"/>
</g>
</g>
</svg>
