<?xml version="1.0" encoding="UTF-8" standalone="no"?>
<!DOCTYPE svg PUBLIC "-//W3C//DTD SVG 1.1//EN"
 "http://www.w3.org/Graphics/SVG/1.1/DTD/svg11.dtd">
<!-- Generated by graphviz version 2.40.1 (20161225.0304)
 -->
<!-- Title: CO_Andisol\make_security_token Pages: 1 -->
<svg width="928pt" height="93pt"
 viewBox="0.00 0.00 928.22 93.00" xmlns="http://www.w3.org/2000/svg" xmlns:xlink="http://www.w3.org/1999/xlink">
<g id="graph0" class="graph" transform="scale(1 1) rotate(0) translate(4 89)">
<title>CO_Andisol\make_security_token</title>
<polygon fill="#ffffff" stroke="transparent" points="-4,4 -4,-89 924.2188,-89 924.2188,4 -4,4"/>
<!-- Node1 -->
<g id="node1" class="node">
<title>Node1</title>
<g id="a_node1"><a xlink:title=" ">
<polygon fill="#bfbfbf" stroke="#000000" points="0,-37.5 0,-65.5 136.6055,-65.5 136.6055,-37.5 0,-37.5"/>
<text text-anchor="start" x="8" y="-53.5" font-family="Helvetica,sans-Serif" font-size="10.00" fill="#000000">CO_Andisol\make_security</text>
<text text-anchor="middle" x="68.3027" y="-43.5" font-family="Helvetica,sans-Serif" font-size="10.00" fill="#000000">_token</text>
</a>
</g>
</g>
<!-- Node2 -->
<g id="node2" class="node">
<title>Node2</title>
<g id="a_node2"><a xlink:href="a00216.html#a737ba5cc859a773ab48d09f365fbb4b6" target="_top" xlink:title=" ">
<polygon fill="#ffffff" stroke="#000000" points="172.6055,-37.5 172.6055,-65.5 314.7725,-65.5 314.7725,-37.5 172.6055,-37.5"/>
<text text-anchor="start" x="180.6055" y="-53.5" font-family="Helvetica,sans-Serif" font-size="10.00" fill="#000000">CO_Andisol\_make_security</text>
<text text-anchor="middle" x="243.689" y="-43.5" font-family="Helvetica,sans-Serif" font-size="10.00" fill="#000000">_token</text>
</a>
</g>
</g>
<!-- Node1&#45;&gt;Node2 -->
<g id="edge1" class="edge">
<title>Node1&#45;&gt;Node2</title>
<path fill="none" stroke="#191970" d="M136.6138,-51.5C145.0479,-51.5 153.7337,-51.5 162.3376,-51.5"/>
<polygon fill="#191970" stroke="#191970" points="162.3804,-55.0001 172.3803,-51.5 162.3803,-48.0001 162.3804,-55.0001"/>
</g>
<!-- Node3 -->
<g id="node3" class="node">
<title>Node3</title>
<g id="a_node3"><a xlink:href="a00216.html#a3605f036c8c634afaa74f67e5853a0ad" target="_top" xlink:title=" ">
<polygon fill="#ffffff" stroke="#000000" points="498.3779,-56.5 498.3779,-84.5 614.9932,-84.5 614.9932,-56.5 498.3779,-56.5"/>
<text text-anchor="start" x="506.3779" y="-72.5" font-family="Helvetica,sans-Serif" font-size="10.00" fill="#000000">CO_Andisol\get_cobra</text>
<text text-anchor="middle" x="556.6855" y="-62.5" font-family="Helvetica,sans-Serif" font-size="10.00" fill="#000000">_instance</text>
</a>
</g>
</g>
<!-- Node2&#45;&gt;Node3 -->
<g id="edge2" class="edge">
<title>Node2&#45;&gt;Node3</title>
<path fill="none" stroke="#191970" d="M315.1044,-55.8352C367.0331,-58.9874 436.9183,-63.2297 488.163,-66.3404"/>
<polygon fill="#191970" stroke="#191970" points="487.9588,-69.8344 498.1525,-66.9468 488.383,-62.8473 487.9588,-69.8344"/>
</g>
<!-- Node4 -->
<g id="node4" class="node">
<title>Node4</title>
<g id="a_node4"><a xlink:href="a00216.html#af5f39aa13714ad544a9099edb0d51cd5" target="_top" xlink:title=" ">
<polygon fill="#ffffff" stroke="#000000" points="350.7725,-23.5 350.7725,-41.5 462.3779,-41.5 462.3779,-23.5 350.7725,-23.5"/>
<text text-anchor="middle" x="406.5752" y="-29.5" font-family="Helvetica,sans-Serif" font-size="10.00" fill="#000000">CO_Andisol\manager</text>
</a>
</g>
</g>
<!-- Node2&#45;&gt;Node4 -->
<g id="edge3" class="edge">
<title>Node2&#45;&gt;Node4</title>
<path fill="none" stroke="#191970" d="M315.1332,-43.1663C323.5196,-42.1881 332.0495,-41.1931 340.3601,-40.2237"/>
<polygon fill="#191970" stroke="#191970" points="340.8369,-43.6919 350.364,-39.0568 340.0258,-36.7391 340.8369,-43.6919"/>
</g>
<!-- Node4&#45;&gt;Node3 -->
<g id="edge4" class="edge">
<title>Node4&#45;&gt;Node3</title>
<path fill="none" stroke="#191970" d="M442.1493,-41.5055C456.8616,-45.2299 474.4033,-49.6705 491.2828,-53.9435"/>
<polygon fill="#191970" stroke="#191970" points="490.5651,-57.3721 501.1182,-56.4333 492.283,-50.5862 490.5651,-57.3721"/>
</g>
<!-- Node5 -->
<g id="node5" class="node">
<title>Node5</title>
<g id="a_node5"><a xlink:href="a00216.html#ac2a2dcb99dc927789b0ffa09c24946de" target="_top" xlink:title=" ">
<polygon fill="#ffffff" stroke="#000000" points="498.9297,-19.5 498.9297,-37.5 614.4414,-37.5 614.4414,-19.5 498.9297,-19.5"/>
<text text-anchor="middle" x="556.6855" y="-25.5" font-family="Helvetica,sans-Serif" font-size="10.00" fill="#000000">CO_Andisol\logged_in</text>
</a>
</g>
</g>
<!-- Node4&#45;&gt;Node5 -->
<g id="edge5" class="edge">
<title>Node4&#45;&gt;Node5</title>
<path fill="none" stroke="#191970" d="M462.4707,-31.0105C470.9783,-30.7838 479.8379,-30.5478 488.571,-30.3151"/>
<polygon fill="#191970" stroke="#191970" points="488.833,-33.8094 498.7362,-30.0442 488.6465,-26.8119 488.833,-33.8094"/>
</g>
<!-- Node6 -->
<g id="node6" class="node">
<title>Node6</title>
<g id="a_node6"><a xlink:href="a00216.html#acda267f1d6a8e496e167ed46fe590dc6" target="_top" xlink:title=" ">
<polygon fill="#ffffff" stroke="#000000" points="779.6973,-14.5 779.6973,-42.5 920.2188,-42.5 920.2188,-14.5 779.6973,-14.5"/>
<text text-anchor="start" x="787.6973" y="-30.5" font-family="Helvetica,sans-Serif" font-size="10.00" fill="#000000">CO_Andisol\get_chameleon</text>
<text text-anchor="middle" x="849.958" y="-20.5" font-family="Helvetica,sans-Serif" font-size="10.00" fill="#000000">_instance</text>
</a>
</g>
</g>
<!-- Node5&#45;&gt;Node6 -->
<g id="edge6" class="edge">
<title>Node5&#45;&gt;Node6</title>
<path fill="none" stroke="#191970" d="M614.6267,-28.5C658.809,-28.5 720.1991,-28.5 769.1995,-28.5"/>
<polygon fill="#191970" stroke="#191970" points="769.4569,-32.0001 779.4569,-28.5 769.4569,-25.0001 769.4569,-32.0001"/>
</g>
<!-- Node7 -->
<g id="node7" class="node">
<title>Node7</title>
<g id="a_node7"><a xlink:href="a00216.html#a4b0ec12b29ce4812cbb4169b68770f66" target="_top" xlink:title=" ">
<polygon fill="#ffffff" stroke="#000000" points="650.9932,-.5 650.9932,-18.5 743.6973,-18.5 743.6973,-.5 650.9932,-.5"/>
<text text-anchor="middle" x="697.3452" y="-6.5" font-family="Helvetica,sans-Serif" font-size="10.00" fill="#000000">CO_Andisol\valid</text>
</a>
</g>
</g>
<!-- Node5&#45;&gt;Node7 -->
<g id="edge7" class="edge">
<title>Node5&#45;&gt;Node7</title>
<path fill="none" stroke="#191970" d="M614.7093,-20.6623C623.2099,-19.514 631.958,-18.3324 640.436,-17.1872"/>
<polygon fill="#191970" stroke="#191970" points="641.1669,-20.6203 650.6083,-15.8131 640.2298,-13.6833 641.1669,-20.6203"/>
</g>
<!-- Node7&#45;&gt;Node6 -->
<g id="edge8" class="edge">
<title>Node7&#45;&gt;Node6</title>
<path fill="none" stroke="#191970" d="M743.9633,-15.3039C752.0278,-16.3079 760.6164,-17.3771 769.2805,-18.4558"/>
<polygon fill="#191970" stroke="#191970" points="769.1032,-21.9607 779.459,-19.723 769.9681,-15.0143 769.1032,-21.9607"/>
</g>
</g>
</svg>
