<?xml version="1.0" encoding="UTF-8" standalone="no"?>
<!DOCTYPE svg PUBLIC "-//W3C//DTD SVG 1.1//EN"
 "http://www.w3.org/Graphics/SVG/1.1/DTD/svg11.dtd">
<!-- Generated by graphviz version 2.40.1 (20161225.0304)
 -->
<!-- Title: CO_Cobra\get_user_from_login Pages: 1 -->
<svg width="469pt" height="64pt"
 viewBox="0.00 0.00 468.73 64.00" xmlns="http://www.w3.org/2000/svg" xmlns:xlink="http://www.w3.org/1999/xlink">
<g id="graph0" class="graph" transform="scale(1 1) rotate(0) translate(4 60)">
<title>CO_Cobra\get_user_from_login</title>
<polygon fill="#ffffff" stroke="transparent" points="-4,4 -4,-60 464.7324,-60 464.7324,4 -4,4"/>
<!-- Node1 -->
<g id="node1" class="node">
<title>Node1</title>
<g id="a_node1"><a xlink:title=" ">
<polygon fill="#bfbfbf" stroke="#000000" points="329.6787,-13.5 329.6787,-41.5 460.7324,-41.5 460.7324,-13.5 329.6787,-13.5"/>
<text text-anchor="start" x="337.6787" y="-29.5" font-family="Helvetica,sans-Serif" font-size="10.00" fill="#000000">CO_Cobra\get_user_from</text>
<text text-anchor="middle" x="395.2056" y="-19.5" font-family="Helvetica,sans-Serif" font-size="10.00" fill="#000000">_login</text>
</a>
</g>
</g>
<!-- Node2 -->
<g id="node2" class="node">
<title>Node2</title>
<g id="a_node2"><a xlink:href="a00239.html#a15371cf35e812615a00fc5f535320338" target="_top" xlink:title=" ">
<polygon fill="#ffffff" stroke="#000000" points="162.0586,-37.5 162.0586,-55.5 293.6787,-55.5 293.6787,-37.5 162.0586,-37.5"/>
<text text-anchor="middle" x="227.8687" y="-43.5" font-family="Helvetica,sans-Serif" font-size="10.00" fill="#000000">CO_Cobra\_convert_login</text>
</a>
</g>
</g>
<!-- Node1&#45;&gt;Node2 -->
<g id="edge1" class="edge">
<title>Node1&#45;&gt;Node2</title>
<path fill="none" stroke="#191970" d="M319.5654,-36.0884C310.9971,-37.0613 302.3155,-38.047 293.8845,-39.0043"/>
<polygon fill="#191970" stroke="#191970" points="320.0086,-39.5607 329.5499,-34.9548 319.2188,-32.6054 320.0086,-39.5607"/>
</g>
<!-- Node4 -->
<g id="node4" class="node">
<title>Node4</title>
<g id="a_node4"><a xlink:href="a00239.html#a6ef606d48b0551d23f9c4bd30d1c4110" target="_top" xlink:title=" ">
<polygon fill="#ffffff" stroke="#000000" points="167.6128,-.5 167.6128,-18.5 288.1245,-18.5 288.1245,-.5 167.6128,-.5"/>
<text text-anchor="middle" x="227.8687" y="-6.5" font-family="Helvetica,sans-Serif" font-size="10.00" fill="#000000">CO_Cobra\delete_login</text>
</a>
</g>
</g>
<!-- Node1&#45;&gt;Node4 -->
<g id="edge3" class="edge">
<title>Node1&#45;&gt;Node4</title>
<path fill="none" stroke="#191970" d="M319.5414,-19.361C309.0251,-18.2298 298.3386,-17.0803 288.1546,-15.9848"/>
<polygon fill="#191970" stroke="#191970" points="319.2329,-22.8479 329.5499,-20.4376 319.9816,-15.8881 319.2329,-22.8479"/>
</g>
<!-- Node3 -->
<g id="node3" class="node">
<title>Node3</title>
<g id="a_node3"><a xlink:href="a00239.html#a8f75d437e7a86f0ec0095b281c804397" target="_top" xlink:title=" ">
<polygon fill="#ffffff" stroke="#000000" points="0,-37.5 0,-55.5 126.0586,-55.5 126.0586,-37.5 0,-37.5"/>
<text text-anchor="middle" x="63.0293" y="-43.5" font-family="Helvetica,sans-Serif" font-size="10.00" fill="#000000">CO_Cobra\convert_login</text>
</a>
</g>
</g>
<!-- Node2&#45;&gt;Node3 -->
<g id="edge2" class="edge">
<title>Node2&#45;&gt;Node3</title>
<path fill="none" stroke="#191970" d="M151.5057,-46.5C143.0345,-46.5 134.4775,-46.5 126.1952,-46.5"/>
<polygon fill="#191970" stroke="#191970" points="151.772,-50.0001 161.772,-46.5 151.7719,-43.0001 151.772,-50.0001"/>
</g>
</g>
</svg>
