<?xml version="1.0" encoding="UTF-8" standalone="no"?>
<!DOCTYPE svg PUBLIC "-//W3C//DTD SVG 1.1//EN"
 "http://www.w3.org/Graphics/SVG/1.1/DTD/svg11.dtd">
<!-- Generated by graphviz version 2.40.1 (20161225.0304)
 -->
<!-- Title: CO_Andisol\delete_user Pages: 1 -->
<svg width="738pt" height="93pt"
 viewBox="0.00 0.00 737.84 93.00" xmlns="http://www.w3.org/2000/svg" xmlns:xlink="http://www.w3.org/1999/xlink">
<g id="graph0" class="graph" transform="scale(1 1) rotate(0) translate(4 89)">
<title>CO_Andisol\delete_user</title>
<polygon fill="#ffffff" stroke="transparent" points="-4,4 -4,-89 733.8447,-89 733.8447,4 -4,4"/>
<!-- Node1 -->
<g id="node1" class="node">
<title>Node1</title>
<g id="a_node1"><a xlink:title=" ">
<polygon fill="#bfbfbf" stroke="#000000" points="0,-42.5 0,-60.5 124.3984,-60.5 124.3984,-42.5 0,-42.5"/>
<text text-anchor="middle" x="62.1992" y="-48.5" font-family="Helvetica,sans-Serif" font-size="10.00" fill="#000000">CO_Andisol\delete_user</text>
</a>
</g>
</g>
<!-- Node2 -->
<g id="node2" class="node">
<title>Node2</title>
<g id="a_node2"><a xlink:href="a00216.html#a3605f036c8c634afaa74f67e5853a0ad" target="_top" xlink:title=" ">
<polygon fill="#ffffff" stroke="#000000" points="308.0039,-56.5 308.0039,-84.5 424.6191,-84.5 424.6191,-56.5 308.0039,-56.5"/>
<text text-anchor="start" x="316.0039" y="-72.5" font-family="Helvetica,sans-Serif" font-size="10.00" fill="#000000">CO_Andisol\get_cobra</text>
<text text-anchor="middle" x="366.3115" y="-62.5" font-family="Helvetica,sans-Serif" font-size="10.00" fill="#000000">_instance</text>
</a>
</g>
</g>
<!-- Node1&#45;&gt;Node2 -->
<g id="edge1" class="edge">
<title>Node1&#45;&gt;Node2</title>
<path fill="none" stroke="#191970" d="M124.4747,-55.3908C174.8962,-58.541 245.8376,-62.9732 297.8477,-66.2226"/>
<polygon fill="#191970" stroke="#191970" points="297.7868,-69.7255 307.9856,-66.856 298.2233,-62.7391 297.7868,-69.7255"/>
</g>
<!-- Node3 -->
<g id="node3" class="node">
<title>Node3</title>
<g id="a_node3"><a xlink:href="a00216.html#af5f39aa13714ad544a9099edb0d51cd5" target="_top" xlink:title=" ">
<polygon fill="#ffffff" stroke="#000000" points="160.3984,-23.5 160.3984,-41.5 272.0039,-41.5 272.0039,-23.5 160.3984,-23.5"/>
<text text-anchor="middle" x="216.2012" y="-29.5" font-family="Helvetica,sans-Serif" font-size="10.00" fill="#000000">CO_Andisol\manager</text>
</a>
</g>
</g>
<!-- Node1&#45;&gt;Node3 -->
<g id="edge2" class="edge">
<title>Node1&#45;&gt;Node3</title>
<path fill="none" stroke="#191970" d="M124.8377,-43.772C133.1261,-42.7494 141.6446,-41.6984 149.9906,-40.6687"/>
<polygon fill="#191970" stroke="#191970" points="150.5621,-44.1248 160.0583,-39.4266 149.7049,-37.1775 150.5621,-44.1248"/>
</g>
<!-- Node3&#45;&gt;Node2 -->
<g id="edge3" class="edge">
<title>Node3&#45;&gt;Node2</title>
<path fill="none" stroke="#191970" d="M251.7752,-41.5055C266.4876,-45.2299 284.0293,-49.6705 300.9088,-53.9435"/>
<polygon fill="#191970" stroke="#191970" points="300.1911,-57.3721 310.7442,-56.4333 301.909,-50.5862 300.1911,-57.3721"/>
</g>
<!-- Node4 -->
<g id="node4" class="node">
<title>Node4</title>
<g id="a_node4"><a xlink:href="a00216.html#ac2a2dcb99dc927789b0ffa09c24946de" target="_top" xlink:title=" ">
<polygon fill="#ffffff" stroke="#000000" points="308.5557,-19.5 308.5557,-37.5 424.0674,-37.5 424.0674,-19.5 308.5557,-19.5"/>
<text text-anchor="middle" x="366.3115" y="-25.5" font-family="Helvetica,sans-Serif" font-size="10.00" fill="#000000">CO_Andisol\logged_in</text>
</a>
</g>
</g>
<!-- Node3&#45;&gt;Node4 -->
<g id="edge4" class="edge">
<title>Node3&#45;&gt;Node4</title>
<path fill="none" stroke="#191970" d="M272.0967,-31.0105C280.6043,-30.7838 289.4638,-30.5478 298.197,-30.3151"/>
<polygon fill="#191970" stroke="#191970" points="298.459,-33.8094 308.3622,-30.0442 298.2725,-26.8119 298.459,-33.8094"/>
</g>
<!-- Node5 -->
<g id="node5" class="node">
<title>Node5</title>
<g id="a_node5"><a xlink:href="a00216.html#acda267f1d6a8e496e167ed46fe590dc6" target="_top" xlink:title=" ">
<polygon fill="#ffffff" stroke="#000000" points="589.3232,-14.5 589.3232,-42.5 729.8447,-42.5 729.8447,-14.5 589.3232,-14.5"/>
<text text-anchor="start" x="597.3232" y="-30.5" font-family="Helvetica,sans-Serif" font-size="10.00" fill="#000000">CO_Andisol\get_chameleon</text>
<text text-anchor="middle" x="659.584" y="-20.5" font-family="Helvetica,sans-Serif" font-size="10.00" fill="#000000">_instance</text>
</a>
</g>
</g>
<!-- Node4&#45;&gt;Node5 -->
<g id="edge5" class="edge">
<title>Node4&#45;&gt;Node5</title>
<path fill="none" stroke="#191970" d="M424.2527,-28.5C468.4349,-28.5 529.8251,-28.5 578.8254,-28.5"/>
<polygon fill="#191970" stroke="#191970" points="579.0829,-32.0001 589.0829,-28.5 579.0828,-25.0001 579.0829,-32.0001"/>
</g>
<!-- Node6 -->
<g id="node6" class="node">
<title>Node6</title>
<g id="a_node6"><a xlink:href="a00216.html#a4b0ec12b29ce4812cbb4169b68770f66" target="_top" xlink:title=" ">
<polygon fill="#ffffff" stroke="#000000" points="460.6191,-.5 460.6191,-18.5 553.3232,-18.5 553.3232,-.5 460.6191,-.5"/>
<text text-anchor="middle" x="506.9712" y="-6.5" font-family="Helvetica,sans-Serif" font-size="10.00" fill="#000000">CO_Andisol\valid</text>
</a>
</g>
</g>
<!-- Node4&#45;&gt;Node6 -->
<g id="edge6" class="edge">
<title>Node4&#45;&gt;Node6</title>
<path fill="none" stroke="#191970" d="M424.3353,-20.6623C432.8359,-19.514 441.584,-18.3324 450.0619,-17.1872"/>
<polygon fill="#191970" stroke="#191970" points="450.7929,-20.6203 460.2343,-15.8131 449.8558,-13.6833 450.7929,-20.6203"/>
</g>
<!-- Node6&#45;&gt;Node5 -->
<g id="edge7" class="edge">
<title>Node6&#45;&gt;Node5</title>
<path fill="none" stroke="#191970" d="M553.5893,-15.3039C561.6538,-16.3079 570.2424,-17.3771 578.9064,-18.4558"/>
<polygon fill="#191970" stroke="#191970" points="578.7292,-21.9607 589.085,-19.723 579.594,-15.0143 578.7292,-21.9607"/>
</g>
</g>
</svg>
