<?xml version="1.0" encoding="UTF-8" standalone="no"?>
<!DOCTYPE svg PUBLIC "-//W3C//DTD SVG 1.1//EN"
 "http://www.w3.org/Graphics/SVG/1.1/DTD/svg11.dtd">
<!-- Generated by graphviz version 2.40.1 (20161225.0304)
 -->
<!-- Title: CO_Andisol\manager Pages: 1 -->
<svg width="504pt" height="341pt"
 viewBox="0.00 0.00 504.31 341.00" xmlns="http://www.w3.org/2000/svg" xmlns:xlink="http://www.w3.org/1999/xlink">
<g id="graph0" class="graph" transform="scale(1 1) rotate(0) translate(4 337)">
<title>CO_Andisol\manager</title>
<polygon fill="#ffffff" stroke="transparent" points="-4,4 -4,-337 500.3086,-337 500.3086,4 -4,4"/>
<!-- Node1 -->
<g id="node1" class="node">
<title>Node1</title>
<g id="a_node1"><a xlink:title=" ">
<polygon fill="#bfbfbf" stroke="#000000" points="384.7031,-164.5 384.7031,-182.5 496.3086,-182.5 496.3086,-164.5 384.7031,-164.5"/>
<text text-anchor="middle" x="440.5059" y="-170.5" font-family="Helvetica,sans-Serif" font-size="10.00" fill="#000000">CO_Andisol\manager</text>
</a>
</g>
</g>
<!-- Node2 -->
<g id="node2" class="node">
<title>Node2</title>
<g id="a_node2"><a xlink:href="a00219.html#a737ba5cc859a773ab48d09f365fbb4b6" target="_top" xlink:title=" ">
<polygon fill="#ffffff" stroke="#000000" points="189.5708,-304.5 189.5708,-332.5 331.7378,-332.5 331.7378,-304.5 189.5708,-304.5"/>
<text text-anchor="start" x="197.5708" y="-320.5" font-family="Helvetica,sans-Serif" font-size="10.00" fill="#000000">CO_Andisol\_make_security</text>
<text text-anchor="middle" x="260.6543" y="-310.5" font-family="Helvetica,sans-Serif" font-size="10.00" fill="#000000">_token</text>
</a>
</g>
</g>
<!-- Node1&#45;&gt;Node2 -->
<g id="edge1" class="edge">
<title>Node1&#45;&gt;Node2</title>
<path fill="none" stroke="#191970" d="M431.7205,-191.9478C417.9092,-218.9186 388.5298,-268.7987 348.7031,-295.5 343.5852,-298.9312 337.9832,-301.8508 332.1633,-304.335"/>
<polygon fill="#191970" stroke="#191970" points="434.9353,-193.3429 436.2409,-182.8288 428.6636,-190.2339 434.9353,-193.3429"/>
</g>
<!-- Node4 -->
<g id="node4" class="node">
<title>Node4</title>
<g id="a_node4"><a xlink:href="a00219.html#afe9a7dd6ab7e39f73345fa5ecbb177a7" target="_top" xlink:title=" ">
<polygon fill="#ffffff" stroke="#000000" points="186.2285,-267.5 186.2285,-285.5 335.0801,-285.5 335.0801,-267.5 186.2285,-267.5"/>
<text text-anchor="middle" x="260.6543" y="-273.5" font-family="Helvetica,sans-Serif" font-size="10.00" fill="#000000">CO_Andisol\create_new_user</text>
</a>
</g>
</g>
<!-- Node1&#45;&gt;Node4 -->
<g id="edge3" class="edge">
<title>Node1&#45;&gt;Node4</title>
<path fill="none" stroke="#191970" d="M427.2168,-190.4724C410.9044,-210.0644 381.3575,-241.7358 348.7031,-258.5 341.4855,-262.2054 333.5671,-265.1482 325.5305,-267.4853"/>
<polygon fill="#191970" stroke="#191970" points="429.9757,-192.6271 433.5564,-182.6556 424.539,-188.2177 429.9757,-192.6271"/>
</g>
<!-- Node5 -->
<g id="node5" class="node">
<title>Node5</title>
<g id="a_node5"><a xlink:href="a00219.html#aa4f45eb1ec9c5acc7709cfd9b08348f3" target="_top" xlink:title=" ">
<polygon fill="#ffffff" stroke="#000000" points="198.4551,-230.5 198.4551,-248.5 322.8535,-248.5 322.8535,-230.5 198.4551,-230.5"/>
<text text-anchor="middle" x="260.6543" y="-236.5" font-family="Helvetica,sans-Serif" font-size="10.00" fill="#000000">CO_Andisol\delete_user</text>
</a>
</g>
</g>
<!-- Node1&#45;&gt;Node5 -->
<g id="edge4" class="edge">
<title>Node1&#45;&gt;Node5</title>
<path fill="none" stroke="#191970" d="M417.4654,-187.87C399.3776,-198.5686 373.234,-212.7753 348.7031,-221.5 338.5599,-225.1076 327.488,-228.0781 316.725,-230.4929"/>
<polygon fill="#191970" stroke="#191970" points="419.3806,-190.8023 426.1387,-182.6427 415.7673,-184.807 419.3806,-190.8023"/>
</g>
<!-- Node6 -->
<g id="node6" class="node">
<title>Node6</title>
<g id="a_node6"><a xlink:href="a00219.html#ae0e62c8ade9295c9b5a2d3b725f8f222" target="_top" xlink:title=" ">
<polygon fill="#ffffff" stroke="#000000" points="209.8516,-183.5 209.8516,-211.5 311.457,-211.5 311.457,-183.5 209.8516,-183.5"/>
<text text-anchor="start" x="217.8516" y="-199.5" font-family="Helvetica,sans-Serif" font-size="10.00" fill="#000000">CO_Andisol\get_all</text>
<text text-anchor="middle" x="260.6543" y="-189.5" font-family="Helvetica,sans-Serif" font-size="10.00" fill="#000000">_logins</text>
</a>
</g>
</g>
<!-- Node1&#45;&gt;Node6 -->
<g id="edge5" class="edge">
<title>Node1&#45;&gt;Node6</title>
<path fill="none" stroke="#191970" d="M374.5634,-182.2996C353.8033,-185.0699 331.2034,-188.0857 311.6477,-190.6953"/>
<polygon fill="#191970" stroke="#191970" points="375.1364,-185.7542 384.5856,-180.9622 374.2105,-178.8157 375.1364,-185.7542"/>
</g>
<!-- Node7 -->
<g id="node7" class="node">
<title>Node7</title>
<g id="a_node7"><a xlink:href="a00219.html#a61b9a275c4b8b824d9a2b3aadd421bf7" target="_top" xlink:title=" ">
<polygon fill="#ffffff" stroke="#000000" points="205.1274,-136.5 205.1274,-164.5 316.1812,-164.5 316.1812,-136.5 205.1274,-136.5"/>
<text text-anchor="start" x="213.1274" y="-152.5" font-family="Helvetica,sans-Serif" font-size="10.00" fill="#000000">CO_Andisol\get_user</text>
<text text-anchor="middle" x="260.6543" y="-142.5" font-family="Helvetica,sans-Serif" font-size="10.00" fill="#000000">_from_login</text>
</a>
</g>
</g>
<!-- Node1&#45;&gt;Node7 -->
<g id="edge6" class="edge">
<title>Node1&#45;&gt;Node7</title>
<path fill="none" stroke="#191970" d="M374.4469,-165.0522C355.3227,-162.6065 334.6459,-159.9623 316.2309,-157.6073"/>
<polygon fill="#191970" stroke="#191970" points="374.2224,-168.5519 384.5856,-166.3487 375.1104,-161.6084 374.2224,-168.5519"/>
</g>
<!-- Node10 -->
<g id="node10" class="node">
<title>Node10</title>
<g id="a_node10"><a xlink:href="a00219.html#a370ab6e2bb53c900f25a6005d0e5077d" target="_top" xlink:title=" ">
<polygon fill="#ffffff" stroke="#000000" points="216.2432,-99.5 216.2432,-117.5 305.0654,-117.5 305.0654,-99.5 216.2432,-99.5"/>
<text text-anchor="middle" x="260.6543" y="-105.5" font-family="Helvetica,sans-Serif" font-size="10.00" fill="#000000">CO_Andisol\god</text>
</a>
</g>
</g>
<!-- Node1&#45;&gt;Node10 -->
<g id="edge9" class="edge">
<title>Node1&#45;&gt;Node10</title>
<path fill="none" stroke="#191970" d="M416.715,-159.4862C398.5984,-149.3386 372.7593,-135.9695 348.7031,-127.5 334.8376,-122.6183 319.2832,-118.7599 305.1497,-115.8315"/>
<polygon fill="#191970" stroke="#191970" points="415.0135,-162.5449 425.4346,-164.456 418.4798,-156.4634 415.0135,-162.5449"/>
</g>
<!-- Node14 -->
<g id="node14" class="node">
<title>Node14</title>
<g id="a_node14"><a xlink:href="a00219.html#a73ccfd34793c0197e2dc336b44e3577e" target="_top" xlink:title=" ">
<polygon fill="#ffffff" stroke="#000000" points="172.6055,-62.5 172.6055,-80.5 348.7031,-80.5 348.7031,-62.5 172.6055,-62.5"/>
<text text-anchor="middle" x="260.6543" y="-68.5" font-family="Helvetica,sans-Serif" font-size="10.00" fill="#000000">CO_Andisol\make_standalone_user</text>
</a>
</g>
</g>
<!-- Node1&#45;&gt;Node14 -->
<g id="edge13" class="edge">
<title>Node1&#45;&gt;Node14</title>
<path fill="none" stroke="#191970" d="M426.62,-156.4422C410.0998,-137.3381 380.7025,-106.9081 348.7031,-90.5 340.6322,-86.3615 331.6988,-83.123 322.7081,-80.5891"/>
<polygon fill="#191970" stroke="#191970" points="424.1473,-158.9395 433.2673,-164.3318 429.5005,-154.4291 424.1473,-158.9395"/>
</g>
<!-- Node15 -->
<g id="node15" class="node">
<title>Node15</title>
<g id="a_node15"><a xlink:href="a00219.html#a4a99f9757a91355dd3aca720dcf5a770" target="_top" xlink:title=" ">
<polygon fill="#ffffff" stroke="#000000" points="193.7285,-25.5 193.7285,-43.5 327.5801,-43.5 327.5801,-25.5 193.7285,-25.5"/>
<text text-anchor="middle" x="260.6543" y="-31.5" font-family="Helvetica,sans-Serif" font-size="10.00" fill="#000000">CO_Andisol\who_can_see</text>
</a>
</g>
</g>
<!-- Node1&#45;&gt;Node15 -->
<g id="edge14" class="edge">
<title>Node1&#45;&gt;Node15</title>
<path fill="none" stroke="#191970" d="M431.7836,-155.1343C418.0527,-128.3254 388.7743,-78.9104 348.7031,-53.5 342.2319,-49.3964 335.0121,-46.1676 327.5675,-43.6291"/>
<polygon fill="#191970" stroke="#191970" points="428.7011,-156.7965 436.275,-164.205 434.9742,-153.6903 428.7011,-156.7965"/>
</g>
<!-- Node3 -->
<g id="node3" class="node">
<title>Node3</title>
<g id="a_node3"><a xlink:href="a00219.html#ad0ac8fb3000239301a9f2be905c1a124" target="_top" xlink:title=" ">
<polygon fill="#ffffff" stroke="#000000" points="0,-304.5 0,-332.5 136.6055,-332.5 136.6055,-304.5 0,-304.5"/>
<text text-anchor="start" x="8" y="-320.5" font-family="Helvetica,sans-Serif" font-size="10.00" fill="#000000">CO_Andisol\make_security</text>
<text text-anchor="middle" x="68.3027" y="-310.5" font-family="Helvetica,sans-Serif" font-size="10.00" fill="#000000">_token</text>
</a>
</g>
</g>
<!-- Node2&#45;&gt;Node3 -->
<g id="edge2" class="edge">
<title>Node2&#45;&gt;Node3</title>
<path fill="none" stroke="#191970" d="M179.1046,-318.5C164.9693,-318.5 150.4024,-318.5 136.664,-318.5"/>
<polygon fill="#191970" stroke="#191970" points="179.3031,-322.0001 189.303,-318.5 179.303,-315.0001 179.3031,-322.0001"/>
</g>
<!-- Node8 -->
<g id="node8" class="node">
<title>Node8</title>
<g id="a_node8"><a xlink:href="a00219.html#a661842aaa6be17af30fbac58b5008c36" target="_top" xlink:title=" ">
<polygon fill="#ffffff" stroke="#000000" points="4.165,-188.5 4.165,-206.5 132.4404,-206.5 132.4404,-188.5 4.165,-188.5"/>
<text text-anchor="middle" x="68.3027" y="-194.5" font-family="Helvetica,sans-Serif" font-size="10.00" fill="#000000">CO_Andisol\current_user</text>
</a>
</g>
</g>
<!-- Node7&#45;&gt;Node8 -->
<g id="edge7" class="edge">
<title>Node7&#45;&gt;Node8</title>
<path fill="none" stroke="#191970" d="M195.0399,-166.5325C165.0593,-173.8581 130.6572,-182.2641 105.2673,-188.4679"/>
<polygon fill="#191970" stroke="#191970" points="196.1348,-169.868 205.0183,-164.0943 194.4732,-163.0681 196.1348,-169.868"/>
</g>
<!-- Node9 -->
<g id="node9" class="node">
<title>Node9</title>
<g id="a_node9"><a xlink:href="a00219.html#a7d4be5fe8eb59e59a6ca94a781980e4f" target="_top" xlink:title=" ">
<polygon fill="#ffffff" stroke="#000000" points="12.7759,-141.5 12.7759,-169.5 123.8296,-169.5 123.8296,-141.5 12.7759,-141.5"/>
<text text-anchor="start" x="20.7759" y="-157.5" font-family="Helvetica,sans-Serif" font-size="10.00" fill="#000000">CO_Andisol\get_user</text>
<text text-anchor="middle" x="68.3027" y="-147.5" font-family="Helvetica,sans-Serif" font-size="10.00" fill="#000000">_from_login_string</text>
</a>
</g>
</g>
<!-- Node7&#45;&gt;Node9 -->
<g id="edge8" class="edge">
<title>Node7&#45;&gt;Node9</title>
<path fill="none" stroke="#191970" d="M194.9817,-152.2071C171.9441,-152.8059 146.3018,-153.4725 124.1467,-154.0484"/>
<polygon fill="#191970" stroke="#191970" points="195.1126,-155.705 205.0183,-151.9462 194.9306,-148.7073 195.1126,-155.705"/>
</g>
<!-- Node11 -->
<g id="node11" class="node">
<title>Node11</title>
<g id="a_node11"><a xlink:href="a00219.html#a86bc3621ffe539ac5a9239375f0a786b" target="_top" xlink:title=" ">
<polygon fill="#ffffff" stroke="#000000" points="17.5,-94.5 17.5,-122.5 119.1055,-122.5 119.1055,-94.5 17.5,-94.5"/>
<text text-anchor="start" x="25.5" y="-110.5" font-family="Helvetica,sans-Serif" font-size="10.00" fill="#000000">CO_Andisol\get_all</text>
<text text-anchor="middle" x="68.3027" y="-100.5" font-family="Helvetica,sans-Serif" font-size="10.00" fill="#000000">_login_users</text>
</a>
</g>
</g>
<!-- Node10&#45;&gt;Node11 -->
<g id="edge10" class="edge">
<title>Node10&#45;&gt;Node11</title>
<path fill="none" stroke="#191970" d="M205.8805,-108.5C178.6042,-108.5 145.8368,-108.5 119.1239,-108.5"/>
<polygon fill="#191970" stroke="#191970" points="206.0415,-112.0001 216.0415,-108.5 206.0415,-105.0001 206.0415,-112.0001"/>
</g>
<!-- Node12 -->
<g id="node12" class="node">
<title>Node12</title>
<g id="a_node12"><a xlink:href="a00219.html#acd1e344f9f0087ee41414e6aa5f13e1e" target="_top" xlink:title=" ">
<polygon fill="#ffffff" stroke="#000000" points="17.5,-47.5 17.5,-75.5 119.1055,-75.5 119.1055,-47.5 17.5,-47.5"/>
<text text-anchor="start" x="25.5" y="-63.5" font-family="Helvetica,sans-Serif" font-size="10.00" fill="#000000">CO_Andisol\get_all</text>
<text text-anchor="middle" x="68.3027" y="-53.5" font-family="Helvetica,sans-Serif" font-size="10.00" fill="#000000">_standalone_users</text>
</a>
</g>
</g>
<!-- Node10&#45;&gt;Node12 -->
<g id="edge11" class="edge">
<title>Node10&#45;&gt;Node12</title>
<path fill="none" stroke="#191970" d="M206.1346,-97.9706C195.0097,-95.6492 183.4058,-93.1021 172.6055,-90.5 154.0592,-86.0317 133.8232,-80.5479 116.1528,-75.5561"/>
<polygon fill="#191970" stroke="#191970" points="205.6802,-101.4502 216.1799,-100.0341 207.0888,-94.5934 205.6802,-101.4502"/>
</g>
<!-- Node13 -->
<g id="node13" class="node">
<title>Node13</title>
<g id="a_node13"><a xlink:href="a00219.html#a9d3578d72df7af2ff07e23ea7b1b1af9" target="_top" xlink:title=" ">
<polygon fill="#ffffff" stroke="#000000" points="17.5,-.5 17.5,-28.5 119.1055,-28.5 119.1055,-.5 17.5,-.5"/>
<text text-anchor="start" x="25.5" y="-16.5" font-family="Helvetica,sans-Serif" font-size="10.00" fill="#000000">CO_Andisol\get_all</text>
<text text-anchor="middle" x="68.3027" y="-6.5" font-family="Helvetica,sans-Serif" font-size="10.00" fill="#000000">_users</text>
</a>
</g>
</g>
<!-- Node10&#45;&gt;Node13 -->
<g id="edge12" class="edge">
<title>Node10&#45;&gt;Node13</title>
<path fill="none" stroke="#191970" d="M205.8623,-103.9842C194.2191,-101.2502 182.4752,-97.0151 172.6055,-90.5 149.1466,-75.0144 158.9559,-55.5465 136.6055,-38.5 131.4087,-34.5364 125.5049,-31.1928 119.3958,-28.3809"/>
<polygon fill="#191970" stroke="#191970" points="205.5256,-107.4863 216.0185,-106.02 206.9015,-100.6228 205.5256,-107.4863"/>
</g>
</g>
</svg>
