<?xml version="1.0" encoding="UTF-8" standalone="no"?>
<!DOCTYPE svg PUBLIC "-//W3C//DTD SVG 1.1//EN"
 "http://www.w3.org/Graphics/SVG/1.1/DTD/svg11.dtd">
<!-- Generated by graphviz version 2.40.1 (20161225.0304)
 -->
<!-- Title: CO_Cobra\_create_new_login Pages: 1 -->
<svg width="286pt" height="84pt"
 viewBox="0.00 0.00 286.11 84.00" xmlns="http://www.w3.org/2000/svg" xmlns:xlink="http://www.w3.org/1999/xlink">
<g id="graph0" class="graph" transform="scale(1 1) rotate(0) translate(4 80)">
<title>CO_Cobra\_create_new_login</title>
<polygon fill="#ffffff" stroke="transparent" points="-4,4 -4,-80 282.1123,-80 282.1123,4 -4,4"/>
<!-- Node6 -->
<g id="node1" class="node">
<title>Node6</title>
<polygon fill="#bfbfbf" stroke="#000000" points="0,-23.5 0,-51.5 123.8369,-51.5 123.8369,-23.5 0,-23.5"/>
<text text-anchor="start" x="8" y="-39.5" font-family="Helvetica,sans-Serif" font-size="10.00" fill="#000000">CO_Cobra\_create_new</text>
<text text-anchor="middle" x="61.9185" y="-29.5" font-family="Helvetica,sans-Serif" font-size="10.00" fill="#000000">_login</text>
</g>
<!-- Node7 -->
<g id="node2" class="node">
<title>Node7</title>
<g id="a_node2"><a xlink:href="a00239.html#ac8a3c537cc29c1d4cdb6df5f004ce6d0" target="_top" xlink:title="CO_Cobra\\create_new\l_manager_login">
<polygon fill="#ffffff" stroke="#000000" points="159.8369,-47.5 159.8369,-75.5 278.1123,-75.5 278.1123,-47.5 159.8369,-47.5"/>
<text text-anchor="start" x="167.8369" y="-63.5" font-family="Helvetica,sans-Serif" font-size="10.00" fill="#000000">CO_Cobra\create_new</text>
<text text-anchor="middle" x="218.9746" y="-53.5" font-family="Helvetica,sans-Serif" font-size="10.00" fill="#000000">_manager_login</text>
</a>
</g>
</g>
<!-- Node6&#45;&gt;Node7 -->
<g id="edge1" class="edge">
<title>Node6&#45;&gt;Node7</title>
<path fill="none" stroke="#191970" d="M133.9997,-48.5148C142.587,-49.8271 151.2779,-51.1552 159.6579,-52.4357"/>
<polygon fill="#191970" stroke="#191970" points="134.4052,-45.0363 123.9912,-46.9854 133.3477,-51.9559 134.4052,-45.0363"/>
</g>
<!-- Node8 -->
<g id="node3" class="node">
<title>Node8</title>
<g id="a_node3"><a xlink:href="a00239.html#a327fb6e4cfcaf6d32639123eed2ea412" target="_top" xlink:title="CO_Cobra\\create_new\l_standard_login">
<polygon fill="#ffffff" stroke="#000000" points="159.8369,-.5 159.8369,-28.5 278.1123,-28.5 278.1123,-.5 159.8369,-.5"/>
<text text-anchor="start" x="167.8369" y="-16.5" font-family="Helvetica,sans-Serif" font-size="10.00" fill="#000000">CO_Cobra\create_new</text>
<text text-anchor="middle" x="218.9746" y="-6.5" font-family="Helvetica,sans-Serif" font-size="10.00" fill="#000000">_standard_login</text>
</a>
</g>
</g>
<!-- Node6&#45;&gt;Node8 -->
<g id="edge2" class="edge">
<title>Node6&#45;&gt;Node8</title>
<path fill="none" stroke="#191970" d="M133.9997,-26.9441C142.587,-25.6865 151.2779,-24.4138 159.6579,-23.1866"/>
<polygon fill="#191970" stroke="#191970" points="133.3785,-23.4977 123.9912,-28.4098 134.3928,-30.4238 133.3785,-23.4977"/>
</g>
</g>
</svg>
