<?xml version="1.0" encoding="UTF-8" standalone="no"?>
<!DOCTYPE svg PUBLIC "-//W3C//DTD SVG 1.1//EN"
 "http://www.w3.org/Graphics/SVG/1.1/DTD/svg11.dtd">
<!-- Generated by graphviz version 2.40.1 (20161225.0304)
 -->
<!-- Title: CO_Andisol\get_value_for_key Pages: 1 -->
<svg width="429pt" height="51pt"
 viewBox="0.00 0.00 428.73 51.00" xmlns="http://www.w3.org/2000/svg" xmlns:xlink="http://www.w3.org/1999/xlink">
<g id="graph0" class="graph" transform="scale(1 1) rotate(0) translate(4 47)">
<title>CO_Andisol\get_value_for_key</title>
<polygon fill="#ffffff" stroke="transparent" points="-4,4 -4,-47 424.7324,-47 424.7324,4 -4,4"/>
<!-- Node1 -->
<g id="node1" class="node">
<title>Node1</title>
<g id="a_node1"><a xlink:title=" ">
<polygon fill="#bfbfbf" stroke="#000000" points="0,-14.5 0,-42.5 115.5068,-42.5 115.5068,-14.5 0,-14.5"/>
<text text-anchor="start" x="8" y="-30.5" font-family="Helvetica,sans-Serif" font-size="10.00" fill="#000000">CO_Andisol\get_value</text>
<text text-anchor="middle" x="57.7534" y="-20.5" font-family="Helvetica,sans-Serif" font-size="10.00" fill="#000000">_for_key</text>
</a>
</g>
</g>
<!-- Node2 -->
<g id="node2" class="node">
<title>Node2</title>
<g id="a_node2"><a xlink:href="a00216.html#acda267f1d6a8e496e167ed46fe590dc6" target="_top" xlink:title=" ">
<polygon fill="#ffffff" stroke="#000000" points="280.2109,-14.5 280.2109,-42.5 420.7324,-42.5 420.7324,-14.5 280.2109,-14.5"/>
<text text-anchor="start" x="288.2109" y="-30.5" font-family="Helvetica,sans-Serif" font-size="10.00" fill="#000000">CO_Andisol\get_chameleon</text>
<text text-anchor="middle" x="350.4717" y="-20.5" font-family="Helvetica,sans-Serif" font-size="10.00" fill="#000000">_instance</text>
</a>
</g>
</g>
<!-- Node1&#45;&gt;Node2 -->
<g id="edge1" class="edge">
<title>Node1&#45;&gt;Node2</title>
<path fill="none" stroke="#191970" d="M115.5851,-28.5C159.6838,-28.5 220.958,-28.5 269.8657,-28.5"/>
<polygon fill="#191970" stroke="#191970" points="270.1038,-32.0001 280.1038,-28.5 270.1038,-25.0001 270.1038,-32.0001"/>
</g>
<!-- Node3 -->
<g id="node3" class="node">
<title>Node3</title>
<g id="a_node3"><a xlink:href="a00216.html#a4b0ec12b29ce4812cbb4169b68770f66" target="_top" xlink:title=" ">
<polygon fill="#ffffff" stroke="#000000" points="151.5068,-.5 151.5068,-18.5 244.2109,-18.5 244.2109,-.5 151.5068,-.5"/>
<text text-anchor="middle" x="197.8589" y="-6.5" font-family="Helvetica,sans-Serif" font-size="10.00" fill="#000000">CO_Andisol\valid</text>
</a>
</g>
</g>
<!-- Node1&#45;&gt;Node3 -->
<g id="edge2" class="edge">
<title>Node1&#45;&gt;Node3</title>
<path fill="none" stroke="#191970" d="M115.5486,-20.6623C124.0157,-19.514 132.7293,-18.3324 141.1739,-17.1872"/>
<polygon fill="#191970" stroke="#191970" points="141.8672,-20.6253 151.3062,-15.8131 140.9265,-13.6888 141.8672,-20.6253"/>
</g>
<!-- Node3&#45;&gt;Node2 -->
<g id="edge3" class="edge">
<title>Node3&#45;&gt;Node2</title>
<path fill="none" stroke="#191970" d="M244.477,-15.3039C252.5415,-16.3079 261.1301,-17.3771 269.7941,-18.4558"/>
<polygon fill="#191970" stroke="#191970" points="269.6169,-21.9607 279.9727,-19.723 270.4817,-15.0143 269.6169,-21.9607"/>
</g>
</g>
</svg>
