<?xml version="1.0" encoding="UTF-8" standalone="no"?>
<!DOCTYPE svg PUBLIC "-//W3C//DTD SVG 1.1//EN"
 "http://www.w3.org/Graphics/SVG/1.1/DTD/svg11.dtd">
<!-- Generated by graphviz version 2.47.1 (20210417.1919)
 -->
<!-- Title: CO_Basalt\_process_baseline_command Pages: 1 -->
<svg width="450pt" height="320pt"
 viewBox="0.00 0.00 450.00 319.50" xmlns="http://www.w3.org/2000/svg" xmlns:xlink="http://www.w3.org/1999/xlink">
<g id="graph0" class="graph" transform="scale(1 1) rotate(0) translate(4 315.5)">
<title>CO_Basalt\_process_baseline_command</title>
<polygon fill="white" stroke="transparent" points="-4,4 -4,-315.5 446,-315.5 446,4 -4,4"/>
<!-- Node1 -->
<g id="node1" class="node">
<title>Node1</title>
<g id="a_node1"><a xlink:title=" ">
<polygon fill="#bfbfbf" stroke="black" points="0,-112 0,-142 107,-142 107,-112 0,-112"/>
<text text-anchor="start" x="8" y="-130" font-family="Helvetica,sans-Serif" font-size="10.00">CO_Basalt\_process</text>
<text text-anchor="middle" x="53.5" y="-119" font-family="Helvetica,sans-Serif" font-size="10.00">_baseline_command</text>
</a>
</g>
</g>
<!-- Node2 -->
<g id="node2" class="node">
<title>Node2</title>
<g id="a_node2"><a xlink:href="a00200.html#a94f153fbc911e113c202f91acc1b270e" target="_top" xlink:title=" ">
<polygon fill="white" stroke="black" points="149.5,-235 149.5,-265 258.5,-265 258.5,-235 149.5,-235"/>
<text text-anchor="start" x="157.5" y="-253" font-family="Helvetica,sans-Serif" font-size="10.00">CO_Basalt\_baseline</text>
<text text-anchor="middle" x="204" y="-242" font-family="Helvetica,sans-Serif" font-size="10.00">_bulk_loader</text>
</a>
</g>
</g>
<!-- Node1&#45;&gt;Node2 -->
<g id="edge1" class="edge">
<title>Node1&#45;&gt;Node2</title>
<path fill="none" stroke="midnightblue" d="M64.86,-142.19C79.91,-163.26 109.68,-201.44 143,-225 145.54,-226.8 148.24,-228.5 151.02,-230.11"/>
<polygon fill="midnightblue" stroke="midnightblue" points="149.64,-233.34 160.12,-234.9 152.9,-227.14 149.64,-233.34"/>
</g>
<!-- Node5 -->
<g id="node5" class="node">
<title>Node5</title>
<g id="a_node5"><a xlink:href="a00200.html#ad72622e9b3a834e50a1a8f4ab488b08a" target="_top" xlink:title=" ">
<polygon fill="white" stroke="black" points="149.5,-186 149.5,-216 258.5,-216 258.5,-186 149.5,-186"/>
<text text-anchor="start" x="157.5" y="-204" font-family="Helvetica,sans-Serif" font-size="10.00">CO_Basalt\_baseline</text>
<text text-anchor="middle" x="204" y="-193" font-family="Helvetica,sans-Serif" font-size="10.00">_fetch_backup</text>
</a>
</g>
</g>
<!-- Node1&#45;&gt;Node5 -->
<g id="edge4" class="edge">
<title>Node1&#45;&gt;Node5</title>
<path fill="none" stroke="midnightblue" d="M80.05,-142.13C97.51,-152.23 121.34,-165.53 143,-176 147.05,-177.96 151.3,-179.91 155.58,-181.82"/>
<polygon fill="midnightblue" stroke="midnightblue" points="154.38,-185.12 164.95,-185.89 157.17,-178.7 154.38,-185.12"/>
</g>
<!-- Node7 -->
<g id="node7" class="node">
<title>Node7</title>
<g id="a_node7"><a xlink:href="a00196.html#a772e319259d2ce50837c099acdfd3625" target="_top" xlink:title=" ">
<polygon fill="white" stroke="black" points="149.5,-137 149.5,-167 258.5,-167 258.5,-137 149.5,-137"/>
<text text-anchor="start" x="157.5" y="-155" font-family="Helvetica,sans-Serif" font-size="10.00">A_CO_Basalt_Plugin</text>
<text text-anchor="middle" x="204" y="-144" font-family="Helvetica,sans-Serif" font-size="10.00">\_get_handler</text>
</a>
</g>
</g>
<!-- Node1&#45;&gt;Node7 -->
<g id="edge6" class="edge">
<title>Node1&#45;&gt;Node7</title>
<path fill="none" stroke="midnightblue" d="M107.27,-135.88C117.63,-137.63 128.61,-139.48 139.28,-141.27"/>
<polygon fill="midnightblue" stroke="midnightblue" points="138.95,-144.77 149.39,-142.98 140.11,-137.86 138.95,-144.77"/>
</g>
<!-- Node8 -->
<g id="node8" class="node">
<title>Node8</title>
<g id="a_node8"><a xlink:href="a00200.html#acd909d93bf248e9b07ff9cfdd28df9b9" target="_top" xlink:title=" ">
<polygon fill="white" stroke="black" points="147.5,-88 147.5,-118 260.5,-118 260.5,-88 147.5,-88"/>
<text text-anchor="start" x="155.5" y="-106" font-family="Helvetica,sans-Serif" font-size="10.00">CO_Basalt\_process</text>
<text text-anchor="middle" x="204" y="-95" font-family="Helvetica,sans-Serif" font-size="10.00">_serverinfo_command</text>
</a>
</g>
</g>
<!-- Node1&#45;&gt;Node8 -->
<g id="edge7" class="edge">
<title>Node1&#45;&gt;Node8</title>
<path fill="none" stroke="midnightblue" d="M107.27,-118.47C117.03,-116.89 127.32,-115.23 137.4,-113.6"/>
<polygon fill="midnightblue" stroke="midnightblue" points="138.07,-117.04 147.38,-111.99 136.95,-110.13 138.07,-117.04"/>
</g>
<!-- Node9 -->
<g id="node9" class="node">
<title>Node9</title>
<g id="a_node9"><a xlink:href="a00200.html#af1b2c5aad7e4010614b891a8e47e469b" target="_top" xlink:title=" ">
<polygon fill="white" stroke="black" points="150.5,-39 150.5,-69 257.5,-69 257.5,-39 150.5,-39"/>
<text text-anchor="start" x="158.5" y="-57" font-family="Helvetica,sans-Serif" font-size="10.00">CO_Basalt\_process</text>
<text text-anchor="middle" x="204" y="-46" font-family="Helvetica,sans-Serif" font-size="10.00">_token_command</text>
</a>
</g>
</g>
<!-- Node1&#45;&gt;Node9 -->
<g id="edge8" class="edge">
<title>Node1&#45;&gt;Node9</title>
<path fill="none" stroke="midnightblue" d="M79.62,-111.99C97.1,-101.82 121.1,-88.39 143,-78 146.55,-76.32 150.25,-74.64 153.99,-73.01"/>
<polygon fill="midnightblue" stroke="midnightblue" points="155.48,-76.18 163.32,-69.06 152.75,-69.74 155.48,-76.18"/>
</g>
<!-- Node10 -->
<g id="node10" class="node">
<title>Node10</title>
<g id="a_node10"><a xlink:href="a00200.html#a9917ca310760b3d05cdb027b030f86b4" target="_top" xlink:title=" ">
<polygon fill="white" stroke="black" points="143,-0.5 143,-19.5 265,-19.5 265,-0.5 143,-0.5"/>
<text text-anchor="middle" x="204" y="-7.5" font-family="Helvetica,sans-Serif" font-size="10.00">CO_Basalt\plugin_name</text>
</a>
</g>
</g>
<!-- Node1&#45;&gt;Node10 -->
<g id="edge9" class="edge">
<title>Node1&#45;&gt;Node10</title>
<path fill="none" stroke="midnightblue" d="M64.34,-111.76C78.97,-90.26 108.49,-51.2 143,-29 146.17,-26.96 149.58,-25.12 153.11,-23.47"/>
<polygon fill="midnightblue" stroke="midnightblue" points="154.72,-26.59 162.62,-19.53 152.04,-20.13 154.72,-26.59"/>
</g>
<!-- Node3 -->
<g id="node3" class="node">
<title>Node3</title>
<g id="a_node3"><a xlink:href="a00200.html#ad343adeeff085b060c73fc62786aee7b" target="_top" xlink:title=" ">
<polygon fill="white" stroke="black" points="320,-281 320,-311 423,-311 423,-281 320,-281"/>
<text text-anchor="start" x="328" y="-299" font-family="Helvetica,sans-Serif" font-size="10.00">CO_Basalt\_extract</text>
<text text-anchor="middle" x="371.5" y="-288" font-family="Helvetica,sans-Serif" font-size="10.00">_csv_data</text>
</a>
</g>
</g>
<!-- Node2&#45;&gt;Node3 -->
<g id="edge2" class="edge">
<title>Node2&#45;&gt;Node3</title>
<path fill="none" stroke="midnightblue" d="M258.73,-264.93C275.14,-269.5 293.3,-274.54 310.12,-279.22"/>
<polygon fill="midnightblue" stroke="midnightblue" points="309.27,-282.62 319.85,-281.92 311.15,-275.87 309.27,-282.62"/>
</g>
<!-- Node4 -->
<g id="node4" class="node">
<title>Node4</title>
<g id="a_node4"><a xlink:href="a00200.html#a0c8258440777d1e27e88f57f55a9e2a4" target="_top" xlink:title=" ">
<polygon fill="white" stroke="black" points="318,-232 318,-262 425,-262 425,-232 318,-232"/>
<text text-anchor="start" x="326" y="-250" font-family="Helvetica,sans-Serif" font-size="10.00">CO_Basalt\_process</text>
<text text-anchor="middle" x="371.5" y="-239" font-family="Helvetica,sans-Serif" font-size="10.00">_bulk_row</text>
</a>
</g>
</g>
<!-- Node2&#45;&gt;Node4 -->
<g id="edge3" class="edge">
<title>Node2&#45;&gt;Node4</title>
<path fill="none" stroke="midnightblue" d="M258.73,-249.03C274.3,-248.74 291.43,-248.43 307.5,-248.14"/>
<polygon fill="midnightblue" stroke="midnightblue" points="307.95,-251.63 317.88,-247.95 307.82,-244.64 307.95,-251.63"/>
</g>
<!-- Node6 -->
<g id="node6" class="node">
<title>Node6</title>
<g id="a_node6"><a xlink:href="a00200.html#a43999add0a0623b6cc1376defb359b9b" target="_top" xlink:title=" ">
<polygon fill="white" stroke="black" points="301,-191.5 301,-210.5 442,-210.5 442,-191.5 301,-191.5"/>
<text text-anchor="middle" x="371.5" y="-198.5" font-family="Helvetica,sans-Serif" font-size="10.00">CO_Basalt\_output_one_line</text>
</a>
</g>
</g>
<!-- Node5&#45;&gt;Node6 -->
<g id="edge5" class="edge">
<title>Node5&#45;&gt;Node6</title>
<path fill="none" stroke="midnightblue" d="M258.73,-201C268.89,-201 279.71,-201 290.48,-201"/>
<polygon fill="midnightblue" stroke="midnightblue" points="290.75,-204.5 300.75,-201 290.75,-197.5 290.75,-204.5"/>
</g>
</g>
</svg>
