<?xml version="1.0" encoding="UTF-8" standalone="no"?>
<!DOCTYPE svg PUBLIC "-//W3C//DTD SVG 1.1//EN"
 "http://www.w3.org/Graphics/SVG/1.1/DTD/svg11.dtd">
<!-- Generated by graphviz version 2.40.1 (20161225.0304)
 -->
<!-- Title: CO_Andisol\_make_security_token Pages: 1 -->
<svg width="756pt" height="79pt"
 viewBox="0.00 0.00 755.61 79.00" xmlns="http://www.w3.org/2000/svg" xmlns:xlink="http://www.w3.org/1999/xlink">
<g id="graph0" class="graph" transform="scale(1 1) rotate(0) translate(4 75)">
<title>CO_Andisol\_make_security_token</title>
<polygon fill="#ffffff" stroke="transparent" points="-4,4 -4,-75 751.6133,-75 751.6133,4 -4,4"/>
<!-- Node15 -->
<g id="node1" class="node">
<title>Node15</title>
<polygon fill="#bfbfbf" stroke="#000000" points="0,-23.5 0,-51.5 142.167,-51.5 142.167,-23.5 0,-23.5"/>
<text text-anchor="start" x="8" y="-39.5" font-family="Helvetica,sans-Serif" font-size="10.00" fill="#000000">CO_Andisol\_make_security</text>
<text text-anchor="middle" x="71.0835" y="-29.5" font-family="Helvetica,sans-Serif" font-size="10.00" fill="#000000">_token</text>
</g>
<!-- Node16 -->
<g id="node2" class="node">
<title>Node16</title>
<g id="a_node2"><a xlink:href="a00219.html#a3605f036c8c634afaa74f67e5853a0ad" target="_top" xlink:title="CO_Andisol\\get_cobra\l_instance">
<polygon fill="#ffffff" stroke="#000000" points="325.7725,-42.5 325.7725,-70.5 442.3877,-70.5 442.3877,-42.5 325.7725,-42.5"/>
<text text-anchor="start" x="333.7725" y="-58.5" font-family="Helvetica,sans-Serif" font-size="10.00" fill="#000000">CO_Andisol\get_cobra</text>
<text text-anchor="middle" x="384.0801" y="-48.5" font-family="Helvetica,sans-Serif" font-size="10.00" fill="#000000">_instance</text>
</a>
</g>
</g>
<!-- Node15&#45;&gt;Node16 -->
<g id="edge1" class="edge">
<title>Node15&#45;&gt;Node16</title>
<path fill="none" stroke="#191970" d="M142.4989,-41.8352C194.4276,-44.9874 264.3129,-49.2297 315.5575,-52.3404"/>
<polygon fill="#191970" stroke="#191970" points="315.3533,-55.8344 325.547,-52.9468 315.7775,-48.8473 315.3533,-55.8344"/>
</g>
<!-- Node17 -->
<g id="node3" class="node">
<title>Node17</title>
<g id="a_node3"><a xlink:href="a00219.html#af5f39aa13714ad544a9099edb0d51cd5" target="_top" xlink:title="CO_Andisol\\manager">
<polygon fill="#ffffff" stroke="#000000" points="178.167,-9.5 178.167,-27.5 289.7725,-27.5 289.7725,-9.5 178.167,-9.5"/>
<text text-anchor="middle" x="233.9697" y="-15.5" font-family="Helvetica,sans-Serif" font-size="10.00" fill="#000000">CO_Andisol\manager</text>
</a>
</g>
</g>
<!-- Node15&#45;&gt;Node17 -->
<g id="edge2" class="edge">
<title>Node15&#45;&gt;Node17</title>
<path fill="none" stroke="#191970" d="M142.5278,-29.1663C150.9141,-28.1881 159.4441,-27.1931 167.7546,-26.2237"/>
<polygon fill="#191970" stroke="#191970" points="168.2314,-29.6919 177.7585,-25.0568 167.4203,-22.7391 168.2314,-29.6919"/>
</g>
<!-- Node17&#45;&gt;Node16 -->
<g id="edge7" class="edge">
<title>Node17&#45;&gt;Node16</title>
<path fill="none" stroke="#191970" d="M269.5438,-27.5055C284.2561,-31.2299 301.7979,-35.6705 318.6773,-39.9435"/>
<polygon fill="#191970" stroke="#191970" points="317.9596,-43.3721 328.5128,-42.4333 319.6775,-36.5862 317.9596,-43.3721"/>
</g>
<!-- Node18 -->
<g id="node4" class="node">
<title>Node18</title>
<g id="a_node4"><a xlink:href="a00219.html#ac2a2dcb99dc927789b0ffa09c24946de" target="_top" xlink:title="CO_Andisol\\logged_in">
<polygon fill="#ffffff" stroke="#000000" points="326.3242,-5.5 326.3242,-23.5 441.8359,-23.5 441.8359,-5.5 326.3242,-5.5"/>
<text text-anchor="middle" x="384.0801" y="-11.5" font-family="Helvetica,sans-Serif" font-size="10.00" fill="#000000">CO_Andisol\logged_in</text>
</a>
</g>
</g>
<!-- Node17&#45;&gt;Node18 -->
<g id="edge3" class="edge">
<title>Node17&#45;&gt;Node18</title>
<path fill="none" stroke="#191970" d="M289.8653,-17.0105C298.3728,-16.7838 307.2324,-16.5478 315.9655,-16.3151"/>
<polygon fill="#191970" stroke="#191970" points="316.2276,-19.8094 326.1307,-16.0442 316.041,-12.8119 316.2276,-19.8094"/>
</g>
<!-- Node19 -->
<g id="node5" class="node">
<title>Node19</title>
<g id="a_node5"><a xlink:href="a00219.html#a4b0ec12b29ce4812cbb4169b68770f66" target="_top" xlink:title="CO_Andisol\\valid">
<polygon fill="#ffffff" stroke="#000000" points="478.3877,-24.5 478.3877,-42.5 571.0918,-42.5 571.0918,-24.5 478.3877,-24.5"/>
<text text-anchor="middle" x="524.7397" y="-30.5" font-family="Helvetica,sans-Serif" font-size="10.00" fill="#000000">CO_Andisol\valid</text>
</a>
</g>
</g>
<!-- Node18&#45;&gt;Node19 -->
<g id="edge4" class="edge">
<title>Node18&#45;&gt;Node19</title>
<path fill="none" stroke="#191970" d="M442.1038,-22.3377C450.6044,-23.486 459.3526,-24.6676 467.8305,-25.8128"/>
<polygon fill="#191970" stroke="#191970" points="467.6243,-29.3167 478.0029,-27.1869 468.5614,-22.3797 467.6243,-29.3167"/>
</g>
<!-- Node20 -->
<g id="node6" class="node">
<title>Node20</title>
<g id="a_node6"><a xlink:href="a00219.html#acda267f1d6a8e496e167ed46fe590dc6" target="_top" xlink:title="CO_Andisol\\get_chameleon\l_instance">
<polygon fill="#ffffff" stroke="#000000" points="607.0918,-.5 607.0918,-28.5 747.6133,-28.5 747.6133,-.5 607.0918,-.5"/>
<text text-anchor="start" x="615.0918" y="-16.5" font-family="Helvetica,sans-Serif" font-size="10.00" fill="#000000">CO_Andisol\get_chameleon</text>
<text text-anchor="middle" x="677.3525" y="-6.5" font-family="Helvetica,sans-Serif" font-size="10.00" fill="#000000">_instance</text>
</a>
</g>
</g>
<!-- Node18&#45;&gt;Node20 -->
<g id="edge6" class="edge">
<title>Node18&#45;&gt;Node20</title>
<path fill="none" stroke="#191970" d="M442.0213,-14.5C486.2035,-14.5 547.5936,-14.5 596.594,-14.5"/>
<polygon fill="#191970" stroke="#191970" points="596.8515,-18.0001 606.8514,-14.5 596.8514,-11.0001 596.8515,-18.0001"/>
</g>
<!-- Node19&#45;&gt;Node20 -->
<g id="edge5" class="edge">
<title>Node19&#45;&gt;Node20</title>
<path fill="none" stroke="#191970" d="M571.3579,-27.6961C579.4224,-26.6921 588.011,-25.6229 596.675,-24.5442"/>
<polygon fill="#191970" stroke="#191970" points="597.3626,-27.9857 606.8535,-23.277 596.4977,-21.0393 597.3626,-27.9857"/>
</g>
</g>
</svg>
