<?xml version="1.0" encoding="UTF-8" standalone="no"?>
<!DOCTYPE svg PUBLIC "-//W3C//DTD SVG 1.1//EN"
 "http://www.w3.org/Graphics/SVG/1.1/DTD/svg11.dtd">
<!-- Generated by graphviz version 2.40.1 (20161225.0304)
 -->
<!-- Title: CO_Andisol\get_user_from_login_string Pages: 1 -->
<!--zoomable 129 -->
<svg id="main" version="1.1" xmlns="http://www.w3.org/2000/svg" xmlns:xlink="http://www.w3.org/1999/xlink" xml:space="preserve" onload="init(evt)">
<style type="text/css"><![CDATA[
.edge:hover path { stroke: red; }
.edge:hover polygon { stroke: red; fill: red; }
]]></style>
<script type="text/javascript"><![CDATA[
var edges = document.getElementsByTagName('g');
if (edges && edges.length) {
  for (var i=0;i<edges.length;i++) {
    if (edges[i].id.substr(0,4)=='edge') {
      edges[i].setAttribute('class','edge');
    }
  }
}
]]></script>
        <defs>
                <circle id="rim" cx="0" cy="0" r="7"/>
                <circle id="rim2" cx="0" cy="0" r="3.5"/>
                <g id="zoomPlus">
                        <use xlink:href="#rim" fill="#404040">
                                <set attributeName="fill" to="#808080" begin="zoomplus.mouseover" end="zoomplus.mouseout"/>
                        </use>
                        <path d="M-4,0h8M0,-4v8" fill="none" stroke="white" stroke-width="1.5" pointer-events="none"/>
                </g>
                <g id="zoomMin">
                        <use xlink:href="#rim" fill="#404040">
                                <set attributeName="fill" to="#808080" begin="zoomminus.mouseover" end="zoomminus.mouseout"/>
                        </use>
                        <path d="M-4,0h8" fill="none" stroke="white" stroke-width="1.5" pointer-events="none"/>
                </g>
                <g id="dirArrow">
                        <path fill="none" stroke="white" stroke-width="1.5" d="M0,-3.0v7 M-2.5,-0.5L0,-3.0L2.5,-0.5"/>
                </g>
               <g id="resetDef">
                       <use xlink:href="#rim2" fill="#404040">
                               <set attributeName="fill" to="#808080" begin="reset.mouseover" end="reset.mouseout"/>
                       </use>
               </g>
        </defs>

<script type="text/javascript">
var viewWidth = 873;
var viewHeight = 129;
var sectionId = 'dynsection-53';
</script>
<script xlink:href="svgpan.js"/>
<svg id="graph" class="graph">
<g id="viewport">
<title>CO_Andisol\get_user_from_login_string</title>
<polygon fill="#ffffff" stroke="transparent" points="-4,4 -4,-124.795 869.2285,-124.795 869.2285,4 -4,4"/>
<!-- Node1 -->
<g id="node1" class="node">
<title>Node1</title>
<g id="a_node1"><a xlink:title=" ">
<polygon fill="#bfbfbf" stroke="#000000" points="0,-51.295 0,-79.295 111.0537,-79.295 111.0537,-51.295 0,-51.295"/>
<text text-anchor="start" x="8" y="-67.295" font-family="Helvetica,sans-Serif" font-size="10.00" fill="#000000">CO_Andisol\get_user</text>
<text text-anchor="middle" x="55.5269" y="-57.295" font-family="Helvetica,sans-Serif" font-size="10.00" fill="#000000">_from_login_string</text>
</a>
</g>
</g>
<!-- Node2 -->
<g id="node2" class="node">
<title>Node2</title>
<g id="a_node2"><a xlink:href="a00219.html#a05d1a595153707e3c6f232ba9f766124" target="_top" xlink:title=" ">
<polygon fill="#ffffff" stroke="#000000" points="294.1074,-92.295 294.1074,-120.295 407.3877,-120.295 407.3877,-92.295 294.1074,-92.295"/>
<text text-anchor="start" x="302.1074" y="-108.295" font-family="Helvetica,sans-Serif" font-size="10.00" fill="#000000">CO_Andisol\get_login</text>
<text text-anchor="middle" x="350.7476" y="-98.295" font-family="Helvetica,sans-Serif" font-size="10.00" fill="#000000">_item_by_login_string</text>
</a>
</g>
</g>
<!-- Node1&#45;&gt;Node2 -->
<g id="edge1" class="edge">
<title>Node1&#45;&gt;Node2</title>
<path fill="none" stroke="#191970" d="M111.0556,-73.0068C160.0678,-79.8136 231.6311,-89.7522 283.7976,-96.9971"/>
<polygon fill="#191970" stroke="#191970" points="283.5734,-100.4995 293.9598,-98.4084 284.5364,-93.566 283.5734,-100.4995"/>
</g>
<!-- Node6 -->
<g id="node6" class="node">
<title>Node6</title>
<g id="a_node6"><a xlink:href="a00219.html#a61b9a275c4b8b824d9a2b3aadd421bf7" target="_top" xlink:title=" ">
<polygon fill="#ffffff" stroke="#000000" points="147.0537,-30.295 147.0537,-58.295 258.1074,-58.295 258.1074,-30.295 147.0537,-30.295"/>
<text text-anchor="start" x="155.0537" y="-46.295" font-family="Helvetica,sans-Serif" font-size="10.00" fill="#000000">CO_Andisol\get_user</text>
<text text-anchor="middle" x="202.5806" y="-36.295" font-family="Helvetica,sans-Serif" font-size="10.00" fill="#000000">_from_login</text>
</a>
</g>
</g>
<!-- Node1&#45;&gt;Node6 -->
<g id="edge7" class="edge">
<title>Node1&#45;&gt;Node6</title>
<path fill="none" stroke="#191970" d="M111.1216,-57.3558C119.5396,-56.1537 128.2917,-54.9039 136.8987,-53.6747"/>
<polygon fill="#191970" stroke="#191970" points="137.5025,-57.1241 146.9072,-52.2455 136.5129,-50.1944 137.5025,-57.1241"/>
</g>
<!-- Node3 -->
<g id="node3" class="node">
<title>Node3</title>
<g id="a_node3"><a xlink:href="a00219.html#acda267f1d6a8e496e167ed46fe590dc6" target="_top" xlink:title=" ">
<polygon fill="#ffffff" stroke="#000000" points="724.707,-38.295 724.707,-66.295 865.2285,-66.295 865.2285,-38.295 724.707,-38.295"/>
<text text-anchor="start" x="732.707" y="-54.295" font-family="Helvetica,sans-Serif" font-size="10.00" fill="#000000">CO_Andisol\get_chameleon</text>
<text text-anchor="middle" x="794.9678" y="-44.295" font-family="Helvetica,sans-Serif" font-size="10.00" fill="#000000">_instance</text>
</a>
</g>
</g>
<!-- Node2&#45;&gt;Node3 -->
<g id="edge2" class="edge">
<title>Node2&#45;&gt;Node3</title>
<path fill="none" stroke="#191970" d="M407.5921,-103.9139C475.0248,-100.4757 590.6601,-92.6456 688.707,-76.295 701.6403,-74.1383 715.3617,-71.3895 728.4958,-68.5276"/>
<polygon fill="#191970" stroke="#191970" points="729.4004,-71.912 738.4023,-66.3249 727.881,-65.0789 729.4004,-71.912"/>
</g>
<!-- Node4 -->
<g id="node4" class="node">
<title>Node4</title>
<g id="a_node4"><a xlink:href="a00219.html#ac2a2dcb99dc927789b0ffa09c24946de" target="_top" xlink:title=" ">
<polygon fill="#ffffff" stroke="#000000" points="443.9395,-62.295 443.9395,-80.295 559.4512,-80.295 559.4512,-62.295 443.9395,-62.295"/>
<text text-anchor="middle" x="501.6953" y="-68.295" font-family="Helvetica,sans-Serif" font-size="10.00" fill="#000000">CO_Andisol\logged_in</text>
</a>
</g>
</g>
<!-- Node2&#45;&gt;Node4 -->
<g id="edge3" class="edge">
<title>Node2&#45;&gt;Node4</title>
<path fill="none" stroke="#191970" d="M407.8144,-93.063C422.5944,-89.636 438.3773,-85.9765 452.7026,-82.6549"/>
<polygon fill="#191970" stroke="#191970" points="453.8899,-85.9725 462.8409,-80.3041 452.3087,-79.1534 453.8899,-85.9725"/>
</g>
<!-- Node4&#45;&gt;Node3 -->
<g id="edge4" class="edge">
<title>Node4&#45;&gt;Node3</title>
<path fill="none" stroke="#191970" d="M559.6365,-67.5413C603.8187,-64.6789 665.2089,-60.7016 714.2092,-57.5271"/>
<polygon fill="#191970" stroke="#191970" points="714.7139,-61.0018 724.4667,-56.8625 714.2613,-54.0165 714.7139,-61.0018"/>
</g>
<!-- Node5 -->
<g id="node5" class="node">
<title>Node5</title>
<g id="a_node5"><a xlink:href="a00219.html#a4b0ec12b29ce4812cbb4169b68770f66" target="_top" xlink:title=" ">
<polygon fill="#ffffff" stroke="#000000" points="596.0029,-24.295 596.0029,-42.295 688.707,-42.295 688.707,-24.295 596.0029,-24.295"/>
<text text-anchor="middle" x="642.355" y="-30.295" font-family="Helvetica,sans-Serif" font-size="10.00" fill="#000000">CO_Andisol\valid</text>
</a>
</g>
</g>
<!-- Node4&#45;&gt;Node5 -->
<g id="edge5" class="edge">
<title>Node4&#45;&gt;Node5</title>
<path fill="none" stroke="#191970" d="M535.0297,-62.2896C554.1592,-57.1216 578.3936,-50.5746 598.9913,-45.01"/>
<polygon fill="#191970" stroke="#191970" points="600.0313,-48.3546 608.7724,-42.3676 598.2057,-41.5968 600.0313,-48.3546"/>
</g>
<!-- Node5&#45;&gt;Node3 -->
<g id="edge6" class="edge">
<title>Node5&#45;&gt;Node3</title>
<path fill="none" stroke="#191970" d="M688.9731,-39.0989C697.0376,-40.1029 705.6262,-41.1722 714.2902,-42.2508"/>
<polygon fill="#191970" stroke="#191970" points="714.113,-45.7557 724.4688,-43.5181 714.9778,-38.8093 714.113,-45.7557"/>
</g>
<!-- Node6&#45;&gt;Node3 -->
<g id="edge8" class="edge">
<title>Node6&#45;&gt;Node3</title>
<path fill="none" stroke="#191970" d="M258.3179,-31.3238C349.4095,-12.2413 535.3963,17.8417 688.707,-14.295 710.5243,-18.8683 733.9382,-26.8826 753.2198,-34.3759"/>
<polygon fill="#191970" stroke="#191970" points="752.0257,-37.6675 762.6113,-38.1101 754.6121,-31.1629 752.0257,-37.6675"/>
</g>
<!-- Node7 -->
<g id="node7" class="node">
<title>Node7</title>
<g id="a_node7"><a xlink:href="a00219.html#a3605f036c8c634afaa74f67e5853a0ad" target="_top" xlink:title=" ">
<polygon fill="#ffffff" stroke="#000000" points="443.3877,-15.295 443.3877,-43.295 560.0029,-43.295 560.0029,-15.295 443.3877,-15.295"/>
<text text-anchor="start" x="451.3877" y="-31.295" font-family="Helvetica,sans-Serif" font-size="10.00" fill="#000000">CO_Andisol\get_cobra</text>
<text text-anchor="middle" x="501.6953" y="-21.295" font-family="Helvetica,sans-Serif" font-size="10.00" fill="#000000">_instance</text>
</a>
</g>
</g>
<!-- Node6&#45;&gt;Node7 -->
<g id="edge9" class="edge">
<title>Node6&#45;&gt;Node7</title>
<path fill="none" stroke="#191970" d="M258.1408,-41.5088C307.6612,-39.0255 380.3035,-35.3826 433.3647,-32.7217"/>
<polygon fill="#191970" stroke="#191970" points="433.5564,-36.2166 443.3685,-32.22 433.2057,-29.2254 433.5564,-36.2166"/>
</g>
<!-- Node8 -->
<g id="node8" class="node">
<title>Node8</title>
<g id="a_node8"><a xlink:href="a00219.html#af5f39aa13714ad544a9099edb0d51cd5" target="_top" xlink:title=" ">
<polygon fill="#ffffff" stroke="#000000" points="294.9448,-55.295 294.9448,-73.295 406.5503,-73.295 406.5503,-55.295 294.9448,-55.295"/>
<text text-anchor="middle" x="350.7476" y="-61.295" font-family="Helvetica,sans-Serif" font-size="10.00" fill="#000000">CO_Andisol\manager</text>
</a>
</g>
</g>
<!-- Node6&#45;&gt;Node8 -->
<g id="edge10" class="edge">
<title>Node6&#45;&gt;Node8</title>
<path fill="none" stroke="#191970" d="M258.174,-51.7992C266.8847,-52.975 275.9596,-54.2 284.874,-55.4032"/>
<polygon fill="#191970" stroke="#191970" points="284.4642,-58.8796 294.8425,-56.7488 285.4006,-51.9425 284.4642,-58.8796"/>
</g>
<!-- Node8&#45;&gt;Node4 -->
<g id="edge12" class="edge">
<title>Node8&#45;&gt;Node4</title>
<path fill="none" stroke="#191970" d="M406.9549,-66.9016C415.7248,-67.3083 424.8665,-67.7322 433.862,-68.1494"/>
<polygon fill="#191970" stroke="#191970" points="433.777,-71.6491 443.9284,-68.6162 434.1013,-64.6566 433.777,-71.6491"/>
</g>
<!-- Node8&#45;&gt;Node7 -->
<g id="edge11" class="edge">
<title>Node8&#45;&gt;Node7</title>
<path fill="none" stroke="#191970" d="M389.6204,-55.2817C403.0202,-52.1747 418.4509,-48.5968 433.4929,-45.109"/>
<polygon fill="#191970" stroke="#191970" points="434.3452,-48.5043 443.2962,-42.836 432.764,-41.6852 434.3452,-48.5043"/>
</g>
</g>
</svg>
        <g id="navigator" transform="translate(0 0)" fill="#404254">
                <rect fill="#f2f5e9" fill-opacity="0.5" stroke="#606060" stroke-width=".5" x="0" y="0" width="60" height="60"/>
                <use id="zoomplus" xlink:href="#zoomPlus" x="17" y="9" onmousedown="handleZoom(evt,'in')"/>
                <use id="zoomminus" xlink:href="#zoomMin" x="42" y="9" onmousedown="handleZoom(evt,'out')"/>
                <use id="reset" xlink:href="#resetDef" x="30" y="36" onmousedown="handleReset()"/>
                <g id="arrowUp" xlink:href="#dirArrow" transform="translate(30 24)" onmousedown="handlePan(0,-1)">
                  <use xlink:href="#rim" fill="#404040">
                        <set attributeName="fill" to="#808080" begin="arrowUp.mouseover" end="arrowUp.mouseout"/>
                  </use>
                  <path fill="none" stroke="white" stroke-width="1.5" d="M0,-3.0v7 M-2.5,-0.5L0,-3.0L2.5,-0.5"/>
                </g>
                <g id="arrowRight" xlink:href="#dirArrow" transform="rotate(90) translate(36 -43)" onmousedown="handlePan(1,0)">
                  <use xlink:href="#rim" fill="#404040">
                        <set attributeName="fill" to="#808080" begin="arrowRight.mouseover" end="arrowRight.mouseout"/>
                  </use>
                  <path fill="none" stroke="white" stroke-width="1.5" d="M0,-3.0v7 M-2.5,-0.5L0,-3.0L2.5,-0.5"/>
                </g>
                <g id="arrowDown" xlink:href="#dirArrow" transform="rotate(180) translate(-30 -48)" onmousedown="handlePan(0,1)">
                  <use xlink:href="#rim" fill="#404040">
                        <set attributeName="fill" to="#808080" begin="arrowDown.mouseover" end="arrowDown.mouseout"/>
                  </use>
                  <path fill="none" stroke="white" stroke-width="1.5" d="M0,-3.0v7 M-2.5,-0.5L0,-3.0L2.5,-0.5"/>
                </g>
                <g id="arrowLeft" xlink:href="#dirArrow" transform="rotate(270) translate(-36 17)" onmousedown="handlePan(-1,0)">
                  <use xlink:href="#rim" fill="#404040">
                        <set attributeName="fill" to="#808080" begin="arrowLeft.mouseover" end="arrowLeft.mouseout"/>
                  </use>
                  <path fill="none" stroke="white" stroke-width="1.5" d="M0,-3.0v7 M-2.5,-0.5L0,-3.0L2.5,-0.5"/>
                </g>
        </g>
        <svg viewBox="0 0 15 15" width="100%" height="30px" preserveAspectRatio="xMaxYMin meet">
         <g id="arrow_out" transform="scale(0.3 0.3)">
          <a xlink:href="a00219_a7d4be5fe8eb59e59a6ca94a781980e4f_cgraph_org.svg" target="_base">
           <rect id="button" ry="5" rx="5" y="6" x="6" height="38" width="38"
                fill="#f2f5e9" fill-opacity="0.5" stroke="#606060" stroke-width="1.0"/>
           <path id="arrow"
             d="M 11.500037,31.436501 C 11.940474,20.09759 22.043105,11.32322 32.158766,21.979434 L 37.068811,17.246167 C 37.068811,17.246167 37.088388,32 37.088388,32 L 22.160133,31.978069 C 22.160133,31.978069 26.997745,27.140456 26.997745,27.140456 C 18.528582,18.264221 13.291696,25.230495 11.500037,31.436501 z"
             style="fill:#404040;"/>
          </a>
         </g>
        </svg>
</svg>
