<?xml version="1.0" encoding="UTF-8" standalone="no"?>
<!DOCTYPE svg PUBLIC "-//W3C//DTD SVG 1.1//EN"
 "http://www.w3.org/Graphics/SVG/1.1/DTD/svg11.dtd">
<!-- Generated by graphviz version 2.47.1 (20210417.1919)
 -->
<!-- Title: CO_Andisol\create_collection Pages: 1 -->
<svg width="917pt" height="101pt"
 viewBox="0.00 0.00 917.00 101.02" xmlns="http://www.w3.org/2000/svg" xmlns:xlink="http://www.w3.org/1999/xlink">
<g id="graph0" class="graph" transform="scale(1 1) rotate(0) translate(4 97.02)">
<title>CO_Andisol\create_collection</title>
<polygon fill="white" stroke="transparent" points="-4,4 -4,-97.02 913,-97.02 913,4 -4,4"/>
<!-- Node1 -->
<g id="node1" class="node">
<title>Node1</title>
<g id="a_node1"><a xlink:title=" ">
<polygon fill="#bfbfbf" stroke="black" points="0,-12.5 0,-31.5 146,-31.5 146,-12.5 0,-12.5"/>
<text text-anchor="middle" x="73" y="-19.5" font-family="Helvetica,sans-Serif" font-size="10.00">CO_Andisol\create_collection</text>
</a>
</g>
</g>
<!-- Node2 -->
<g id="node2" class="node">
<title>Node2</title>
<g id="a_node2"><a xlink:href="a00216.html#a1783b1403b768959f80f17b08a5e8f82" target="_top" xlink:title=" ">
<polygon fill="white" stroke="black" points="182,-45 182,-75 318,-75 318,-45 182,-45"/>
<text text-anchor="start" x="190" y="-63" font-family="Helvetica,sans-Serif" font-size="10.00">CO_Andisol\create_general</text>
<text text-anchor="middle" x="250" y="-52" font-family="Helvetica,sans-Serif" font-size="10.00">_data_item</text>
</a>
</g>
</g>
<!-- Node1&#45;&gt;Node2 -->
<g id="edge1" class="edge">
<title>Node1&#45;&gt;Node2</title>
<path fill="none" stroke="midnightblue" d="M118.16,-31.59C134.47,-35.13 153.46,-39.25 171.84,-43.25"/>
<polygon fill="midnightblue" stroke="midnightblue" points="171.15,-46.68 181.67,-45.38 172.64,-39.84 171.15,-46.68"/>
</g>
<!-- Node4 -->
<g id="node4" class="node">
<title>Node4</title>
<g id="a_node4"><a xlink:href="a00216.html#acda267f1d6a8e496e167ed46fe590dc6" target="_top" xlink:title=" ">
<polygon fill="white" stroke="black" points="771,-42 771,-72 909,-72 909,-42 771,-42"/>
<text text-anchor="start" x="779" y="-60" font-family="Helvetica,sans-Serif" font-size="10.00">CO_Andisol\get_chameleon</text>
<text text-anchor="middle" x="840" y="-49" font-family="Helvetica,sans-Serif" font-size="10.00">_instance</text>
</a>
</g>
</g>
<!-- Node1&#45;&gt;Node4 -->
<g id="edge8" class="edge">
<title>Node1&#45;&gt;Node4</title>
<path fill="none" stroke="midnightblue" d="M146.23,-14.43C213.22,-8.07 315.73,0 405,0 405,0 405,0 551.5,0 633.49,0 655.11,-0.57 735,-19 755.16,-23.65 776.76,-31.11 795.02,-38.19"/>
<polygon fill="midnightblue" stroke="midnightblue" points="793.93,-41.53 804.51,-41.96 796.51,-35.02 793.93,-41.53"/>
</g>
<!-- Node3 -->
<g id="node3" class="node">
<title>Node3</title>
<g id="a_node3"><a xlink:href="a00216.html#a190232857416d5f1e7033452ac1bf6c0" target="_top" xlink:title=" ">
<polygon fill="white" stroke="black" points="354,-53 354,-83 458,-83 458,-53 354,-53"/>
<text text-anchor="start" x="362" y="-71" font-family="Helvetica,sans-Serif" font-size="10.00">CO_Andisol\_create</text>
<text text-anchor="middle" x="406" y="-60" font-family="Helvetica,sans-Serif" font-size="10.00">_db_object</text>
</a>
</g>
</g>
<!-- Node2&#45;&gt;Node3 -->
<g id="edge2" class="edge">
<title>Node2&#45;&gt;Node3</title>
<path fill="none" stroke="midnightblue" d="M318.1,-63.49C326.63,-63.93 335.32,-64.38 343.75,-64.82"/>
<polygon fill="midnightblue" stroke="midnightblue" points="343.71,-68.32 353.87,-65.34 344.07,-61.33 343.71,-68.32"/>
</g>
<!-- Node3&#45;&gt;Node4 -->
<g id="edge3" class="edge">
<title>Node3&#45;&gt;Node4</title>
<path fill="none" stroke="midnightblue" d="M458.22,-81.1C469.9,-83.55 482.32,-85.74 494,-87 600.58,-98.5 628.76,-91.32 735,-77 743.47,-75.86 752.3,-74.47 761.07,-72.97"/>
<polygon fill="midnightblue" stroke="midnightblue" points="761.69,-76.41 770.93,-71.22 760.47,-69.52 761.69,-76.41"/>
</g>
<!-- Node5 -->
<g id="node5" class="node">
<title>Node5</title>
<g id="a_node5"><a xlink:href="a00216.html#ac2a2dcb99dc927789b0ffa09c24946de" target="_top" xlink:title=" ">
<polygon fill="white" stroke="black" points="494,-58.5 494,-77.5 607,-77.5 607,-58.5 494,-58.5"/>
<text text-anchor="middle" x="550.5" y="-65.5" font-family="Helvetica,sans-Serif" font-size="10.00">CO_Andisol\logged_in</text>
</a>
</g>
</g>
<!-- Node3&#45;&gt;Node5 -->
<g id="edge4" class="edge">
<title>Node3&#45;&gt;Node5</title>
<path fill="none" stroke="midnightblue" d="M458.04,-68C466.42,-68 475.21,-68 483.89,-68"/>
<polygon fill="midnightblue" stroke="midnightblue" points="483.99,-71.5 493.99,-68 483.99,-64.5 483.99,-71.5"/>
</g>
<!-- Node5&#45;&gt;Node4 -->
<g id="edge5" class="edge">
<title>Node5&#45;&gt;Node4</title>
<path fill="none" stroke="midnightblue" d="M607.27,-65.87C650.95,-64.19 712.23,-61.85 760.81,-59.99"/>
<polygon fill="midnightblue" stroke="midnightblue" points="761.11,-63.48 770.97,-59.6 760.84,-56.49 761.11,-63.48"/>
</g>
<!-- Node6 -->
<g id="node6" class="node">
<title>Node6</title>
<g id="a_node6"><a xlink:href="a00216.html#a4b0ec12b29ce4812cbb4169b68770f66" target="_top" xlink:title=" ">
<polygon fill="white" stroke="black" points="643,-28.5 643,-47.5 735,-47.5 735,-28.5 643,-28.5"/>
<text text-anchor="middle" x="689" y="-35.5" font-family="Helvetica,sans-Serif" font-size="10.00">CO_Andisol\valid</text>
</a>
</g>
</g>
<!-- Node5&#45;&gt;Node6 -->
<g id="edge6" class="edge">
<title>Node5&#45;&gt;Node6</title>
<path fill="none" stroke="midnightblue" d="M595.06,-58.43C607.62,-55.67 621.47,-52.62 634.56,-49.75"/>
<polygon fill="midnightblue" stroke="midnightblue" points="635.37,-53.15 644.38,-47.59 633.86,-46.31 635.37,-53.15"/>
</g>
<!-- Node6&#45;&gt;Node4 -->
<g id="edge7" class="edge">
<title>Node6&#45;&gt;Node4</title>
<path fill="none" stroke="midnightblue" d="M735.11,-43.75C743.32,-44.8 752.11,-45.92 760.96,-47.05"/>
<polygon fill="midnightblue" stroke="midnightblue" points="760.59,-50.53 770.95,-48.32 761.47,-43.59 760.59,-50.53"/>
</g>
</g>
</svg>
