<?xml version="1.0" encoding="UTF-8" standalone="no"?>
<!DOCTYPE svg PUBLIC "-//W3C//DTD SVG 1.1//EN"
 "http://www.w3.org/Graphics/SVG/1.1/DTD/svg11.dtd">
<!-- Generated by graphviz version 2.40.1 (20161225.0304)
 -->
<!-- Title: tCO_Owner Pages: 1 -->
<svg width="108pt" height="214pt"
 viewBox="0.00 0.00 107.65 214.00" xmlns="http://www.w3.org/2000/svg" xmlns:xlink="http://www.w3.org/1999/xlink">
<g id="graph0" class="graph" transform="scale(1 1) rotate(0) translate(4 210)">
<title>tCO_Owner</title>
<polygon fill="#ffffff" stroke="transparent" points="-4,4 -4,-210 103.6523,-210 103.6523,4 -4,4"/>
<!-- Node0 -->
<g id="node1" class="node">
<title>Node0</title>
<polygon fill="#bfbfbf" stroke="#000000" points="0,-101.5 0,-205.5 99.6523,-205.5 99.6523,-101.5 0,-101.5"/>
<text text-anchor="middle" x="49.8262" y="-193.5" font-family="Helvetica,sans-Serif" font-size="10.00" fill="#000000">tCO_Owner</text>
<polyline fill="none" stroke="#000000" points="0,-187.5 99.6523,-187.5 "/>
<text text-anchor="start" x="8" y="-175.5" font-family="Helvetica,sans-Serif" font-size="10.00" fill="#000000">+ $my_owner_id</text>
<text text-anchor="start" x="8" y="-165.5" font-family="Helvetica,sans-Serif" font-size="10.00" fill="#000000"># $_cached_ids</text>
<polyline fill="none" stroke="#000000" points="0,-159.5 99.6523,-159.5 "/>
<text text-anchor="start" x="8" y="-147.5" font-family="Helvetica,sans-Serif" font-size="10.00" fill="#000000">+ adopt_child()</text>
<text text-anchor="start" x="8" y="-137.5" font-family="Helvetica,sans-Serif" font-size="10.00" fill="#000000">+ count()</text>
<text text-anchor="start" x="8" y="-127.5" font-family="Helvetica,sans-Serif" font-size="10.00" fill="#000000">+ children_ids()</text>
<text text-anchor="start" x="8" y="-117.5" font-family="Helvetica,sans-Serif" font-size="10.00" fill="#000000">+ children()</text>
<text text-anchor="start" x="8" y="-107.5" font-family="Helvetica,sans-Serif" font-size="10.00" fill="#000000">+ generic_search()</text>
</g>
<!-- Node1 -->
<g id="node2" class="node">
<title>Node1</title>
<g id="a_node2"><a xlink:href="a00259.html" target="_top" xlink:title="{CO_Owner\n||+ __construct()\l+ load_from_db()\l}">
<polygon fill="#ffffff" stroke="#000000" points="3.6108,-.5 3.6108,-64.5 96.0415,-64.5 96.0415,-.5 3.6108,-.5"/>
<text text-anchor="middle" x="49.8262" y="-52.5" font-family="Helvetica,sans-Serif" font-size="10.00" fill="#000000">CO_Owner</text>
<polyline fill="none" stroke="#000000" points="3.6108,-46.5 96.0415,-46.5 "/>
<text text-anchor="middle" x="49.8262" y="-34.5" font-family="Helvetica,sans-Serif" font-size="10.00" fill="#000000"> </text>
<polyline fill="none" stroke="#000000" points="3.6108,-28.5 96.0415,-28.5 "/>
<text text-anchor="start" x="11.6108" y="-16.5" font-family="Helvetica,sans-Serif" font-size="10.00" fill="#000000">+ __construct()</text>
<text text-anchor="start" x="11.6108" y="-6.5" font-family="Helvetica,sans-Serif" font-size="10.00" fill="#000000">+ load_from_db()</text>
</a>
</g>
</g>
<!-- Node0&#45;&gt;Node1 -->
<g id="edge1" class="edge">
<title>Node0&#45;&gt;Node1</title>
<path fill="none" stroke="#191970" d="M49.8262,-91.415C49.8262,-82.1164 49.8262,-72.8679 49.8262,-64.5486"/>
<polygon fill="none" stroke="#191970" points="46.3263,-91.4829 49.8262,-101.4829 53.3263,-91.4829 46.3263,-91.4829"/>
</g>
</g>
</svg>
