<?xml version="1.0" encoding="UTF-8" standalone="no"?>
<!DOCTYPE svg PUBLIC "-//W3C//DTD SVG 1.1//EN"
 "http://www.w3.org/Graphics/SVG/1.1/DTD/svg11.dtd">
<!-- Generated by graphviz version 2.40.1 (20161225.0304)
 -->
<!-- Title: CO_Chameleon\set_value_for_key Pages: 1 -->
<svg width="796pt" height="121pt"
 viewBox="0.00 0.00 795.62 121.00" xmlns="http://www.w3.org/2000/svg" xmlns:xlink="http://www.w3.org/1999/xlink">
<g id="graph0" class="graph" transform="scale(1 1) rotate(0) translate(4 117)">
<title>CO_Chameleon\set_value_for_key</title>
<polygon fill="#ffffff" stroke="transparent" points="-4,4 -4,-117 791.623,-117 791.623,4 -4,4"/>
<!-- Node33 -->
<g id="node1" class="node">
<title>Node33</title>
<polygon fill="#bfbfbf" stroke="#000000" points="0,-47.5 0,-75.5 133.29,-75.5 133.29,-47.5 0,-47.5"/>
<text text-anchor="start" x="8" y="-63.5" font-family="Helvetica,sans-Serif" font-size="10.00" fill="#000000">CO_Chameleon\set_value</text>
<text text-anchor="middle" x="66.645" y="-53.5" font-family="Helvetica,sans-Serif" font-size="10.00" fill="#000000">_for_key</text>
</g>
<!-- Node34 -->
<g id="node2" class="node">
<title>Node34</title>
<g id="a_node2"><a xlink:href="a00355.html#a18733db78e2a4cfe35c7a7a41e2f2072" target="_top" xlink:title="CO_Access\\generic_search">
<polygon fill="#ffffff" stroke="#000000" points="169.29,-94.5 169.29,-112.5 309.2354,-112.5 309.2354,-94.5 169.29,-94.5"/>
<text text-anchor="middle" x="239.2627" y="-100.5" font-family="Helvetica,sans-Serif" font-size="10.00" fill="#000000">CO_Access\generic_search</text>
</a>
</g>
</g>
<!-- Node33&#45;&gt;Node34 -->
<g id="edge1" class="edge">
<title>Node33&#45;&gt;Node34</title>
<path fill="none" stroke="#191970" d="M124.6044,-75.6022C146.5729,-80.9474 171.298,-86.9634 192.1484,-92.0365"/>
<polygon fill="#191970" stroke="#191970" points="191.4998,-95.4807 202.0438,-94.4442 193.1548,-88.6792 191.4998,-95.4807"/>
</g>
<!-- Node35 -->
<g id="node3" class="node">
<title>Node35</title>
<g id="a_node3"><a xlink:href="a00355.html#a2249312ed569b15e5b6b15c0112ce83b" target="_top" xlink:title="CO_Access\\make_new\l_blank_record">
<polygon fill="#ffffff" stroke="#000000" points="179.2974,-47.5 179.2974,-75.5 299.228,-75.5 299.228,-47.5 179.2974,-47.5"/>
<text text-anchor="start" x="187.2974" y="-63.5" font-family="Helvetica,sans-Serif" font-size="10.00" fill="#000000">CO_Access\make_new</text>
<text text-anchor="middle" x="239.2627" y="-53.5" font-family="Helvetica,sans-Serif" font-size="10.00" fill="#000000">_blank_record</text>
</a>
</g>
</g>
<!-- Node33&#45;&gt;Node35 -->
<g id="edge2" class="edge">
<title>Node33&#45;&gt;Node35</title>
<path fill="none" stroke="#191970" d="M133.3835,-61.5C145.0506,-61.5 157.2213,-61.5 168.9806,-61.5"/>
<polygon fill="#191970" stroke="#191970" points="169.1857,-65.0001 179.1857,-61.5 169.1856,-58.0001 169.1857,-65.0001"/>
</g>
<!-- Node39 -->
<g id="node7" class="node">
<title>Node39</title>
<g id="a_node7"><a xlink:href="a00355.html#a22dd3ef5f47a6f4c40a551a1d7767402" target="_top" xlink:title="CO_Access\\security\l_db_available">
<polygon fill="#ffffff" stroke="#000000" points="186.2505,-.5 186.2505,-28.5 292.2749,-28.5 292.2749,-.5 186.2505,-.5"/>
<text text-anchor="start" x="194.2505" y="-16.5" font-family="Helvetica,sans-Serif" font-size="10.00" fill="#000000">CO_Access\security</text>
<text text-anchor="middle" x="239.2627" y="-6.5" font-family="Helvetica,sans-Serif" font-size="10.00" fill="#000000">_db_available</text>
</a>
</g>
</g>
<!-- Node33&#45;&gt;Node39 -->
<g id="edge6" class="edge">
<title>Node33&#45;&gt;Node39</title>
<path fill="none" stroke="#191970" d="M118.436,-47.3985C137.211,-42.2864 158.5951,-36.464 178.1015,-31.1528"/>
<polygon fill="#191970" stroke="#191970" points="179.0767,-34.5148 187.8059,-28.5106 177.2376,-27.7607 179.0767,-34.5148"/>
</g>
<!-- Node36 -->
<g id="node4" class="node">
<title>Node36</title>
<g id="a_node4"><a xlink:href="a00355.html#adbc6444fbac916f3a280f4a3ce4f067a" target="_top" xlink:title="CO_Access\\get_login_id">
<polygon fill="#ffffff" stroke="#000000" points="345.2354,-52.5 345.2354,-70.5 470.7422,-70.5 470.7422,-52.5 345.2354,-52.5"/>
<text text-anchor="middle" x="407.9888" y="-58.5" font-family="Helvetica,sans-Serif" font-size="10.00" fill="#000000">CO_Access\get_login_id</text>
</a>
</g>
</g>
<!-- Node35&#45;&gt;Node36 -->
<g id="edge3" class="edge">
<title>Node35&#45;&gt;Node36</title>
<path fill="none" stroke="#191970" d="M299.7001,-61.5C311.1092,-61.5 323.1548,-61.5 334.9032,-61.5"/>
<polygon fill="#191970" stroke="#191970" points="335.1277,-65.0001 345.1277,-61.5 335.1276,-58.0001 335.1277,-65.0001"/>
</g>
<!-- Node37 -->
<g id="node5" class="node">
<title>Node37</title>
<g id="a_node5"><a xlink:href="a00355.html#aeab406fa4ecc249662fa1e2e073341b2" target="_top" xlink:title="CO_Access\\get_single\l_security_record_by_id">
<polygon fill="#ffffff" stroke="#000000" points="506.7422,-47.5 506.7422,-75.5 626.1309,-75.5 626.1309,-47.5 506.7422,-47.5"/>
<text text-anchor="start" x="514.7422" y="-63.5" font-family="Helvetica,sans-Serif" font-size="10.00" fill="#000000">CO_Access\get_single</text>
<text text-anchor="middle" x="566.4365" y="-53.5" font-family="Helvetica,sans-Serif" font-size="10.00" fill="#000000">_security_record_by_id</text>
</a>
</g>
</g>
<!-- Node36&#45;&gt;Node37 -->
<g id="edge4" class="edge">
<title>Node36&#45;&gt;Node37</title>
<path fill="none" stroke="#191970" d="M471.0668,-61.5C479.411,-61.5 488.0047,-61.5 496.4562,-61.5"/>
<polygon fill="#191970" stroke="#191970" points="496.6683,-65.0001 506.6683,-61.5 496.6683,-58.0001 496.6683,-65.0001"/>
</g>
<!-- Node38 -->
<g id="node6" class="node">
<title>Node38</title>
<g id="a_node6"><a xlink:href="a00355.html#a34c23aea84d5c32e600c512167c3497d" target="_top" xlink:title="CO_Access\\get_multiple\l_security_records_by_id">
<polygon fill="#ffffff" stroke="#000000" points="662.1309,-47.5 662.1309,-75.5 787.623,-75.5 787.623,-47.5 662.1309,-47.5"/>
<text text-anchor="start" x="670.1309" y="-63.5" font-family="Helvetica,sans-Serif" font-size="10.00" fill="#000000">CO_Access\get_multiple</text>
<text text-anchor="middle" x="724.877" y="-53.5" font-family="Helvetica,sans-Serif" font-size="10.00" fill="#000000">_security_records_by_id</text>
</a>
</g>
</g>
<!-- Node37&#45;&gt;Node38 -->
<g id="edge5" class="edge">
<title>Node37&#45;&gt;Node38</title>
<path fill="none" stroke="#191970" d="M626.3361,-61.5C634.7131,-61.5 643.3972,-61.5 651.9815,-61.5"/>
<polygon fill="#191970" stroke="#191970" points="651.9887,-65.0001 661.9886,-61.5 651.9886,-58.0001 651.9887,-65.0001"/>
</g>
</g>
</svg>
