<?xml version="1.0" encoding="UTF-8" standalone="no"?>
<!DOCTYPE svg PUBLIC "-//W3C//DTD SVG 1.1//EN"
 "http://www.w3.org/Graphics/SVG/1.1/DTD/svg11.dtd">
<!-- Generated by graphviz version 2.40.1 (20161225.0304)
 -->
<!-- Title: CO_places_Basalt_Plugin\_process_parameters Pages: 1 -->
<svg width="645pt" height="59pt"
 viewBox="0.00 0.00 644.73 59.00" xmlns="http://www.w3.org/2000/svg" xmlns:xlink="http://www.w3.org/1999/xlink">
<g id="graph0" class="graph" transform="scale(1 1) rotate(0) translate(4 55)">
<title>CO_places_Basalt_Plugin\_process_parameters</title>
<polygon fill="#ffffff" stroke="transparent" points="-4,4 -4,-55 640.7266,-55 640.7266,4 -4,4"/>
<!-- Node18 -->
<g id="node1" class="node">
<title>Node18</title>
<polygon fill="#bfbfbf" stroke="#000000" points="0,-.5 0,-28.5 132.1816,-28.5 132.1816,-.5 0,-.5"/>
<text text-anchor="start" x="8" y="-16.5" font-family="Helvetica,sans-Serif" font-size="10.00" fill="#000000">CO_places_Basalt_Plugin</text>
<text text-anchor="middle" x="66.0908" y="-6.5" font-family="Helvetica,sans-Serif" font-size="10.00" fill="#000000">\_process_parameters</text>
</g>
<!-- Node19 -->
<g id="node2" class="node">
<title>Node19</title>
<g id="a_node2"><a xlink:href="a00211.html#a021e0e49bd0868754a212795cfe8ebfd" target="_top" xlink:title="CO_places_Basalt_Plugin\l\\_process_place_put">
<polygon fill="#ffffff" stroke="#000000" points="168.1816,-.5 168.1816,-28.5 300.3633,-28.5 300.3633,-.5 168.1816,-.5"/>
<text text-anchor="start" x="176.1816" y="-16.5" font-family="Helvetica,sans-Serif" font-size="10.00" fill="#000000">CO_places_Basalt_Plugin</text>
<text text-anchor="middle" x="234.2725" y="-6.5" font-family="Helvetica,sans-Serif" font-size="10.00" fill="#000000">\_process_place_put</text>
</a>
</g>
</g>
<!-- Node18&#45;&gt;Node19 -->
<g id="edge1" class="edge">
<title>Node18&#45;&gt;Node19</title>
<path fill="none" stroke="#191970" d="M142.7682,-14.5C151.1961,-14.5 159.7242,-14.5 168.0101,-14.5"/>
<polygon fill="#191970" stroke="#191970" points="142.5607,-11.0001 132.5607,-14.5 142.5606,-18.0001 142.5607,-11.0001"/>
</g>
<!-- Node20 -->
<g id="node3" class="node">
<title>Node20</title>
<g id="a_node3"><a xlink:href="a00211.html#a3b060bbae1171b584997696bc5874a2f" target="_top" xlink:title="CO_places_Basalt_Plugin\l\\_process_place_post">
<polygon fill="#ffffff" stroke="#000000" points="336.3633,-22.5 336.3633,-50.5 468.5449,-50.5 468.5449,-22.5 336.3633,-22.5"/>
<text text-anchor="start" x="344.3633" y="-38.5" font-family="Helvetica,sans-Serif" font-size="10.00" fill="#000000">CO_places_Basalt_Plugin</text>
<text text-anchor="middle" x="402.4541" y="-28.5" font-family="Helvetica,sans-Serif" font-size="10.00" fill="#000000">\_process_place_post</text>
</a>
</g>
</g>
<!-- Node19&#45;&gt;Node20 -->
<g id="edge2" class="edge">
<title>Node19&#45;&gt;Node20</title>
<path fill="none" stroke="#191970" d="M310.6721,-24.4939C319.1903,-25.6082 327.8147,-26.7364 336.1917,-27.8322"/>
<polygon fill="#191970" stroke="#191970" points="311.1118,-21.0217 300.7423,-23.195 310.2038,-27.9626 311.1118,-21.0217"/>
</g>
<!-- Node21 -->
<g id="node4" class="node">
<title>Node21</title>
<g id="a_node4"><a xlink:href="a00211.html#a66729507ef35bcc83810d707412207fb" target="_top" xlink:title="CO_places_Basalt_Plugin\l\\process_command">
<polygon fill="#ffffff" stroke="#000000" points="504.5449,-.5 504.5449,-28.5 636.7266,-28.5 636.7266,-.5 504.5449,-.5"/>
<text text-anchor="start" x="512.5449" y="-16.5" font-family="Helvetica,sans-Serif" font-size="10.00" fill="#000000">CO_places_Basalt_Plugin</text>
<text text-anchor="middle" x="570.6357" y="-6.5" font-family="Helvetica,sans-Serif" font-size="10.00" fill="#000000">\process_command</text>
</a>
</g>
</g>
<!-- Node19&#45;&gt;Node21 -->
<g id="edge4" class="edge">
<title>Node19&#45;&gt;Node21</title>
<path fill="none" stroke="#191970" d="M310.6026,-13.6707C319.2908,-13.6005 328.0188,-13.5409 336.3633,-13.5 395.11,-13.2123 409.7982,-13.2123 468.5449,-13.5 480.1546,-13.5569 492.5067,-13.6501 504.4612,-13.7573"/>
<polygon fill="#191970" stroke="#191970" points="310.4167,-10.172 300.447,-13.7573 310.4765,-17.1718 310.4167,-10.172"/>
</g>
<!-- Node20&#45;&gt;Node21 -->
<g id="edge3" class="edge">
<title>Node20&#45;&gt;Node21</title>
<path fill="none" stroke="#191970" d="M478.8537,-26.5061C487.372,-25.3918 495.9964,-24.2636 504.3734,-23.1678"/>
<polygon fill="#191970" stroke="#191970" points="478.3855,-23.0374 468.9239,-27.805 479.2935,-29.9783 478.3855,-23.0374"/>
</g>
</g>
</svg>
