<?xml version="1.0" encoding="UTF-8" standalone="no"?>
<!DOCTYPE svg PUBLIC "-//W3C//DTD SVG 1.1//EN"
 "http://www.w3.org/Graphics/SVG/1.1/DTD/svg11.dtd">
<!-- Generated by graphviz version 2.40.1 (20161225.0304)
 -->
<!-- Title: CO_Andisol\get_cobra_instance Pages: 1 -->
<svg width="657pt" height="316pt"
 viewBox="0.00 0.00 656.92 316.00" xmlns="http://www.w3.org/2000/svg" xmlns:xlink="http://www.w3.org/1999/xlink">
<g id="graph0" class="graph" transform="scale(1 1) rotate(0) translate(4 312)">
<title>CO_Andisol\get_cobra_instance</title>
<polygon fill="#ffffff" stroke="transparent" points="-4,4 -4,-312 652.9238,-312 652.9238,4 -4,4"/>
<!-- Node207 -->
<g id="node1" class="node">
<title>Node207</title>
<polygon fill="#bfbfbf" stroke="#000000" points="0,-139.5 0,-167.5 116.6152,-167.5 116.6152,-139.5 0,-139.5"/>
<text text-anchor="start" x="8" y="-155.5" font-family="Helvetica,sans-Serif" font-size="10.00" fill="#000000">CO_Andisol\get_cobra</text>
<text text-anchor="middle" x="58.3076" y="-145.5" font-family="Helvetica,sans-Serif" font-size="10.00" fill="#000000">_instance</text>
</g>
<!-- Node208 -->
<g id="node2" class="node">
<title>Node208</title>
<g id="a_node2"><a xlink:href="a00219.html#a737ba5cc859a773ab48d09f365fbb4b6" target="_top" xlink:title="CO_Andisol\\_make_security\l_token">
<polygon fill="#ffffff" stroke="#000000" points="317.186,-279.5 317.186,-307.5 459.353,-307.5 459.353,-279.5 317.186,-279.5"/>
<text text-anchor="start" x="325.186" y="-295.5" font-family="Helvetica,sans-Serif" font-size="10.00" fill="#000000">CO_Andisol\_make_security</text>
<text text-anchor="middle" x="388.2695" y="-285.5" font-family="Helvetica,sans-Serif" font-size="10.00" fill="#000000">_token</text>
</a>
</g>
</g>
<!-- Node207&#45;&gt;Node208 -->
<g id="edge1" class="edge">
<title>Node207&#45;&gt;Node208</title>
<path fill="none" stroke="#191970" d="M80.8757,-174.4553C99.0602,-190.3767 125.9135,-211.8022 152.6152,-225.5 204.71,-252.2242 268.8266,-269.8578 317.0224,-280.4566"/>
<polygon fill="#191970" stroke="#191970" points="82.9547,-171.6197 73.1623,-167.5749 78.2951,-176.8434 82.9547,-171.6197"/>
</g>
<!-- Node210 -->
<g id="node4" class="node">
<title>Node210</title>
<g id="a_node4"><a xlink:href="a00219.html#afe9a7dd6ab7e39f73345fa5ecbb177a7" target="_top" xlink:title="CO_Andisol\\create_new_user">
<polygon fill="#ffffff" stroke="#000000" points="313.8438,-242.5 313.8438,-260.5 462.6953,-260.5 462.6953,-242.5 313.8438,-242.5"/>
<text text-anchor="middle" x="388.2695" y="-248.5" font-family="Helvetica,sans-Serif" font-size="10.00" fill="#000000">CO_Andisol\create_new_user</text>
</a>
</g>
</g>
<!-- Node207&#45;&gt;Node210 -->
<g id="edge3" class="edge">
<title>Node207&#45;&gt;Node210</title>
<path fill="none" stroke="#191970" d="M93.3212,-172.3972C110.767,-181.2426 132.4056,-191.3735 152.6152,-198.5 216.1993,-220.9216 234.3839,-218.9685 300.2207,-233.5 313.9328,-236.5265 328.8861,-239.6498 342.5131,-242.4276"/>
<polygon fill="#191970" stroke="#191970" points="94.5884,-169.1129 84.0961,-167.6426 91.3815,-175.3351 94.5884,-169.1129"/>
</g>
<!-- Node211 -->
<g id="node5" class="node">
<title>Node211</title>
<g id="a_node5"><a xlink:href="a00219.html#aa4f45eb1ec9c5acc7709cfd9b08348f3" target="_top" xlink:title="CO_Andisol\\delete_user">
<polygon fill="#ffffff" stroke="#000000" points="326.0703,-205.5 326.0703,-223.5 450.4688,-223.5 450.4688,-205.5 326.0703,-205.5"/>
<text text-anchor="middle" x="388.2695" y="-211.5" font-family="Helvetica,sans-Serif" font-size="10.00" fill="#000000">CO_Andisol\delete_user</text>
</a>
</g>
</g>
<!-- Node207&#45;&gt;Node211 -->
<g id="edge4" class="edge">
<title>Node207&#45;&gt;Node211</title>
<path fill="none" stroke="#191970" d="M125.5533,-169.7506C134.6298,-171.7787 143.8363,-173.7515 152.6152,-175.5 211.5866,-187.2452 279.3561,-198.1971 327.0382,-205.4863"/>
<polygon fill="#191970" stroke="#191970" points="126.308,-166.3329 115.7817,-167.5361 124.7608,-173.1598 126.308,-166.3329"/>
</g>
<!-- Node212 -->
<g id="node6" class="node">
<title>Node212</title>
<g id="a_node6"><a xlink:href="a00219.html#ae0e62c8ade9295c9b5a2d3b725f8f222" target="_top" xlink:title="CO_Andisol\\get_all\l_logins">
<polygon fill="#ffffff" stroke="#000000" points="337.4668,-158.5 337.4668,-186.5 439.0723,-186.5 439.0723,-158.5 337.4668,-158.5"/>
<text text-anchor="start" x="345.4668" y="-174.5" font-family="Helvetica,sans-Serif" font-size="10.00" fill="#000000">CO_Andisol\get_all</text>
<text text-anchor="middle" x="388.2695" y="-164.5" font-family="Helvetica,sans-Serif" font-size="10.00" fill="#000000">_logins</text>
</a>
</g>
</g>
<!-- Node207&#45;&gt;Node212 -->
<g id="edge5" class="edge">
<title>Node207&#45;&gt;Node212</title>
<path fill="none" stroke="#191970" d="M127.1069,-157.4616C189.7628,-161.0695 280.8583,-166.315 337.2402,-169.5616"/>
<polygon fill="#191970" stroke="#191970" points="127.1027,-153.9557 116.918,-156.8749 126.7002,-160.9441 127.1027,-153.9557"/>
</g>
<!-- Node213 -->
<g id="node7" class="node">
<title>Node213</title>
<g id="a_node7"><a xlink:href="a00219.html#a61b9a275c4b8b824d9a2b3aadd421bf7" target="_top" xlink:title="CO_Andisol\\get_user\l_from_login">
<polygon fill="#ffffff" stroke="#000000" points="332.7427,-74.5 332.7427,-102.5 443.7964,-102.5 443.7964,-74.5 332.7427,-74.5"/>
<text text-anchor="start" x="340.7427" y="-90.5" font-family="Helvetica,sans-Serif" font-size="10.00" fill="#000000">CO_Andisol\get_user</text>
<text text-anchor="middle" x="388.2695" y="-80.5" font-family="Helvetica,sans-Serif" font-size="10.00" fill="#000000">_from_login</text>
</a>
</g>
</g>
<!-- Node207&#45;&gt;Node213 -->
<g id="edge6" class="edge">
<title>Node207&#45;&gt;Node213</title>
<path fill="none" stroke="#191970" d="M96.8209,-135.2472C113.6106,-128.0125 133.7359,-120.2917 152.6152,-115.5 212.8859,-100.203 284.0438,-93.558 332.2764,-90.6803"/>
<polygon fill="#191970" stroke="#191970" points="95.0908,-132.185 87.3555,-139.4249 97.9173,-138.589 95.0908,-132.185"/>
</g>
<!-- Node216 -->
<g id="node10" class="node">
<title>Node216</title>
<g id="a_node10"><a xlink:href="a00219.html#a73ccfd34793c0197e2dc336b44e3577e" target="_top" xlink:title="CO_Andisol\\make_standalone_user">
<polygon fill="#ffffff" stroke="#000000" points="300.2207,-37.5 300.2207,-55.5 476.3184,-55.5 476.3184,-37.5 300.2207,-37.5"/>
<text text-anchor="middle" x="388.2695" y="-43.5" font-family="Helvetica,sans-Serif" font-size="10.00" fill="#000000">CO_Andisol\make_standalone_user</text>
</a>
</g>
</g>
<!-- Node207&#45;&gt;Node216 -->
<g id="edge9" class="edge">
<title>Node207&#45;&gt;Node216</title>
<path fill="none" stroke="#191970" d="M84.3044,-133.2234C102.4846,-120.0118 127.8532,-103.4403 152.6152,-93.5 201.1057,-74.0342 258.5569,-62.3655 304.5932,-55.5238"/>
<polygon fill="#191970" stroke="#191970" points="81.9339,-130.6241 75.9913,-139.3954 86.1067,-136.2445 81.9339,-130.6241"/>
</g>
<!-- Node217 -->
<g id="node11" class="node">
<title>Node217</title>
<g id="a_node11"><a xlink:href="a00219.html#af5f39aa13714ad544a9099edb0d51cd5" target="_top" xlink:title="CO_Andisol\\manager">
<polygon fill="#ffffff" stroke="#000000" points="152.6152,-125.5 152.6152,-143.5 264.2207,-143.5 264.2207,-125.5 152.6152,-125.5"/>
<text text-anchor="middle" x="208.418" y="-131.5" font-family="Helvetica,sans-Serif" font-size="10.00" fill="#000000">CO_Andisol\manager</text>
</a>
</g>
</g>
<!-- Node207&#45;&gt;Node217 -->
<g id="edge10" class="edge">
<title>Node207&#45;&gt;Node217</title>
<path fill="none" stroke="#191970" d="M126.7443,-144.8377C135.3057,-143.7541 143.9829,-142.6558 152.3256,-141.5998"/>
<polygon fill="#191970" stroke="#191970" points="126.2553,-141.3716 116.774,-146.0997 127.1344,-148.3162 126.2553,-141.3716"/>
</g>
<!-- Node222 -->
<g id="node16" class="node">
<title>Node222</title>
<g id="a_node16"><a xlink:href="a00219.html#a4a99f9757a91355dd3aca720dcf5a770" target="_top" xlink:title="CO_Andisol\\who_can_see">
<polygon fill="#ffffff" stroke="#000000" points="321.3438,-.5 321.3438,-18.5 455.1953,-18.5 455.1953,-.5 321.3438,-.5"/>
<text text-anchor="middle" x="388.2695" y="-6.5" font-family="Helvetica,sans-Serif" font-size="10.00" fill="#000000">CO_Andisol\who_can_see</text>
</a>
</g>
</g>
<!-- Node207&#45;&gt;Node222 -->
<g id="edge22" class="edge">
<title>Node207&#45;&gt;Node222</title>
<path fill="none" stroke="#191970" d="M74.5103,-131.1339C91.4894,-109.3996 120.1745,-77.1647 152.6152,-59.5 204.9563,-30.9991 272.0443,-18.7353 321.2438,-13.4631"/>
<polygon fill="#191970" stroke="#191970" points="71.6604,-129.0992 68.3861,-139.1754 77.2294,-133.3404 71.6604,-129.0992"/>
</g>
<!-- Node209 -->
<g id="node3" class="node">
<title>Node209</title>
<g id="a_node3"><a xlink:href="a00219.html#ad0ac8fb3000239301a9f2be905c1a124" target="_top" xlink:title="CO_Andisol\\make_security\l_token">
<polygon fill="#ffffff" stroke="#000000" points="512.3184,-279.5 512.3184,-307.5 648.9238,-307.5 648.9238,-279.5 512.3184,-279.5"/>
<text text-anchor="start" x="520.3184" y="-295.5" font-family="Helvetica,sans-Serif" font-size="10.00" fill="#000000">CO_Andisol\make_security</text>
<text text-anchor="middle" x="580.6211" y="-285.5" font-family="Helvetica,sans-Serif" font-size="10.00" fill="#000000">_token</text>
</a>
</g>
</g>
<!-- Node208&#45;&gt;Node209 -->
<g id="edge2" class="edge">
<title>Node208&#45;&gt;Node209</title>
<path fill="none" stroke="#191970" d="M469.8192,-293.5C483.9545,-293.5 498.5214,-293.5 512.2598,-293.5"/>
<polygon fill="#191970" stroke="#191970" points="469.6208,-290.0001 459.6208,-293.5 469.6208,-297.0001 469.6208,-290.0001"/>
</g>
<!-- Node214 -->
<g id="node8" class="node">
<title>Node214</title>
<g id="a_node8"><a xlink:href="a00219.html#a661842aaa6be17af30fbac58b5008c36" target="_top" xlink:title="CO_Andisol\\current_user">
<polygon fill="#ffffff" stroke="#000000" points="516.4834,-32.5 516.4834,-50.5 644.7588,-50.5 644.7588,-32.5 516.4834,-32.5"/>
<text text-anchor="middle" x="580.6211" y="-38.5" font-family="Helvetica,sans-Serif" font-size="10.00" fill="#000000">CO_Andisol\current_user</text>
</a>
</g>
</g>
<!-- Node213&#45;&gt;Node214 -->
<g id="edge7" class="edge">
<title>Node213&#45;&gt;Node214</title>
<path fill="none" stroke="#191970" d="M453.884,-72.4675C483.8645,-65.1419 518.2667,-56.7359 543.6565,-50.5321"/>
<polygon fill="#191970" stroke="#191970" points="452.789,-69.132 443.9056,-74.9057 454.4506,-75.9319 452.789,-69.132"/>
</g>
<!-- Node215 -->
<g id="node9" class="node">
<title>Node215</title>
<g id="a_node9"><a xlink:href="a00219.html#a7d4be5fe8eb59e59a6ca94a781980e4f" target="_top" xlink:title="CO_Andisol\\get_user\l_from_login_string">
<polygon fill="#ffffff" stroke="#000000" points="525.0942,-69.5 525.0942,-97.5 636.1479,-97.5 636.1479,-69.5 525.0942,-69.5"/>
<text text-anchor="start" x="533.0942" y="-85.5" font-family="Helvetica,sans-Serif" font-size="10.00" fill="#000000">CO_Andisol\get_user</text>
<text text-anchor="middle" x="580.6211" y="-75.5" font-family="Helvetica,sans-Serif" font-size="10.00" fill="#000000">_from_login_string</text>
</a>
</g>
</g>
<!-- Node213&#45;&gt;Node215 -->
<g id="edge8" class="edge">
<title>Node213&#45;&gt;Node215</title>
<path fill="none" stroke="#191970" d="M453.9422,-86.7929C476.9797,-86.1941 502.622,-85.5275 524.7772,-84.9516"/>
<polygon fill="#191970" stroke="#191970" points="453.8112,-83.295 443.9056,-87.0538 453.9932,-90.2927 453.8112,-83.295"/>
</g>
<!-- Node217&#45;&gt;Node208 -->
<g id="edge11" class="edge">
<title>Node217&#45;&gt;Node208</title>
<path fill="none" stroke="#191970" d="M215.8935,-153.3592C228.6231,-182.9778 257.3637,-240.1446 300.2207,-270.5 305.3778,-274.1527 311.0729,-277.2255 317.0121,-279.8104"/>
<polygon fill="#191970" stroke="#191970" points="218.992,-151.6936 211.9316,-143.7942 212.5248,-154.3724 218.992,-151.6936"/>
</g>
<!-- Node217&#45;&gt;Node210 -->
<g id="edge19" class="edge">
<title>Node217&#45;&gt;Node210</title>
<path fill="none" stroke="#191970" d="M219.6662,-152.2619C234.9947,-174.8997 264.6473,-213.4905 300.2207,-233.5 306.7481,-237.1716 313.9232,-240.0991 321.2736,-242.4326"/>
<polygon fill="#191970" stroke="#191970" points="222.4153,-150.072 213.9983,-143.6373 216.5654,-153.9165 222.4153,-150.072"/>
</g>
<!-- Node217&#45;&gt;Node211 -->
<g id="edge20" class="edge">
<title>Node217&#45;&gt;Node211</title>
<path fill="none" stroke="#191970" d="M226.6988,-150.0586C244.376,-164.2896 272.4893,-184.8464 300.2207,-196.5 308.9949,-200.1872 318.5869,-203.1392 328.1087,-205.4971"/>
<polygon fill="#191970" stroke="#191970" points="228.8526,-147.2983 218.9067,-143.6474 224.405,-152.7038 228.8526,-147.2983"/>
</g>
<!-- Node217&#45;&gt;Node212 -->
<g id="edge21" class="edge">
<title>Node217&#45;&gt;Node212</title>
<path fill="none" stroke="#191970" d="M261.056,-145.6217C285.104,-150.7026 313.4752,-156.6971 337.3156,-161.7342"/>
<polygon fill="#191970" stroke="#191970" points="261.5478,-142.1484 251.0403,-143.5055 260.1007,-148.9972 261.5478,-142.1484"/>
</g>
<!-- Node217&#45;&gt;Node213 -->
<g id="edge17" class="edge">
<title>Node217&#45;&gt;Node213</title>
<path fill="none" stroke="#191970" d="M253.9181,-122.8626C278.0588,-116.6882 307.904,-109.0548 333.329,-102.552"/>
<polygon fill="#191970" stroke="#191970" points="252.7717,-119.5431 243.9508,-125.4119 254.5063,-126.3248 252.7717,-119.5431"/>
</g>
<!-- Node217&#45;&gt;Node216 -->
<g id="edge18" class="edge">
<title>Node217&#45;&gt;Node216</title>
<path fill="none" stroke="#191970" d="M225.1991,-117.9016C242.5199,-101.7477 271.0544,-77.7549 300.2207,-64.5 308.3172,-60.8205 317.1733,-57.8871 326.0494,-55.5501"/>
<polygon fill="#191970" stroke="#191970" points="222.4559,-115.6818 217.6433,-125.1206 227.2916,-120.7431 222.4559,-115.6818"/>
</g>
<!-- Node218 -->
<g id="node12" class="node">
<title>Node218</title>
<g id="a_node12"><a xlink:href="a00219.html#a370ab6e2bb53c900f25a6005d0e5077d" target="_top" xlink:title="CO_Andisol\\god">
<polygon fill="#ffffff" stroke="#000000" points="343.8584,-121.5 343.8584,-139.5 432.6807,-139.5 432.6807,-121.5 343.8584,-121.5"/>
<text text-anchor="middle" x="388.2695" y="-127.5" font-family="Helvetica,sans-Serif" font-size="10.00" fill="#000000">CO_Andisol\god</text>
</a>
</g>
</g>
<!-- Node217&#45;&gt;Node218 -->
<g id="edge12" class="edge">
<title>Node217&#45;&gt;Node218</title>
<path fill="none" stroke="#191970" d="M274.4205,-133.0321C297.5161,-132.5184 322.8821,-131.9543 343.7974,-131.4891"/>
<polygon fill="#191970" stroke="#191970" points="274.2579,-129.5347 264.3383,-133.2563 274.4136,-136.533 274.2579,-129.5347"/>
</g>
<!-- Node217&#45;&gt;Node222 -->
<g id="edge16" class="edge">
<title>Node217&#45;&gt;Node222</title>
<path fill="none" stroke="#191970" d="M218.6657,-116.3548C233.401,-92.0424 262.9493,-49.4218 300.2207,-27.5 306.6761,-23.7032 313.8061,-20.6973 321.1309,-18.3194"/>
<polygon fill="#191970" stroke="#191970" points="215.4825,-114.8638 213.4373,-125.2593 221.5189,-118.4082 215.4825,-114.8638"/>
</g>
<!-- Node219 -->
<g id="node13" class="node">
<title>Node219</title>
<g id="a_node13"><a xlink:href="a00219.html#a9d3578d72df7af2ff07e23ea7b1b1af9" target="_top" xlink:title="CO_Andisol\\get_all\l_users">
<polygon fill="#ffffff" stroke="#000000" points="529.8184,-210.5 529.8184,-238.5 631.4238,-238.5 631.4238,-210.5 529.8184,-210.5"/>
<text text-anchor="start" x="537.8184" y="-226.5" font-family="Helvetica,sans-Serif" font-size="10.00" fill="#000000">CO_Andisol\get_all</text>
<text text-anchor="middle" x="580.6211" y="-216.5" font-family="Helvetica,sans-Serif" font-size="10.00" fill="#000000">_users</text>
</a>
</g>
</g>
<!-- Node218&#45;&gt;Node219 -->
<g id="edge13" class="edge">
<title>Node218&#45;&gt;Node219</title>
<path fill="none" stroke="#191970" d="M442.7283,-135.6164C454.4858,-138.4779 466.3622,-142.8498 476.3184,-149.5 499.6927,-165.1129 489.8569,-184.6001 512.3184,-201.5 517.5175,-205.4118 523.4227,-208.6834 529.5325,-211.4135"/>
<polygon fill="#191970" stroke="#191970" points="443.4314,-132.1878 432.9246,-133.5512 441.9884,-139.0375 443.4314,-132.1878"/>
</g>
<!-- Node220 -->
<g id="node14" class="node">
<title>Node220</title>
<g id="a_node14"><a xlink:href="a00219.html#a86bc3621ffe539ac5a9239375f0a786b" target="_top" xlink:title="CO_Andisol\\get_all\l_login_users">
<polygon fill="#ffffff" stroke="#000000" points="529.8184,-163.5 529.8184,-191.5 631.4238,-191.5 631.4238,-163.5 529.8184,-163.5"/>
<text text-anchor="start" x="537.8184" y="-179.5" font-family="Helvetica,sans-Serif" font-size="10.00" fill="#000000">CO_Andisol\get_all</text>
<text text-anchor="middle" x="580.6211" y="-169.5" font-family="Helvetica,sans-Serif" font-size="10.00" fill="#000000">_login_users</text>
</a>
</g>
</g>
<!-- Node218&#45;&gt;Node220 -->
<g id="edge14" class="edge">
<title>Node218&#45;&gt;Node220</title>
<path fill="none" stroke="#191970" d="M442.052,-141.6609C453.3924,-144.1387 465.2678,-146.8262 476.3184,-149.5 493.995,-153.7771 513.2509,-158.8329 530.3513,-163.4632"/>
<polygon fill="#191970" stroke="#191970" points="442.7718,-138.2357 432.258,-139.543 441.2923,-145.0776 442.7718,-138.2357"/>
</g>
<!-- Node221 -->
<g id="node15" class="node">
<title>Node221</title>
<g id="a_node15"><a xlink:href="a00219.html#acd1e344f9f0087ee41414e6aa5f13e1e" target="_top" xlink:title="CO_Andisol\\get_all\l_standalone_users">
<polygon fill="#ffffff" stroke="#000000" points="529.8184,-116.5 529.8184,-144.5 631.4238,-144.5 631.4238,-116.5 529.8184,-116.5"/>
<text text-anchor="start" x="537.8184" y="-132.5" font-family="Helvetica,sans-Serif" font-size="10.00" fill="#000000">CO_Andisol\get_all</text>
<text text-anchor="middle" x="580.6211" y="-122.5" font-family="Helvetica,sans-Serif" font-size="10.00" fill="#000000">_standalone_users</text>
</a>
</g>
</g>
<!-- Node218&#45;&gt;Node221 -->
<g id="edge15" class="edge">
<title>Node218&#45;&gt;Node221</title>
<path fill="none" stroke="#191970" d="M443.0433,-130.5C470.3196,-130.5 503.087,-130.5 529.7999,-130.5"/>
<polygon fill="#191970" stroke="#191970" points="442.8824,-127.0001 432.8823,-130.5 442.8823,-134.0001 442.8824,-127.0001"/>
</g>
</g>
</svg>
