<?xml version="1.0" encoding="UTF-8" standalone="no"?>
<!DOCTYPE svg PUBLIC "-//W3C//DTD SVG 1.1//EN"
 "http://www.w3.org/Graphics/SVG/1.1/DTD/svg11.dtd">
<!-- Generated by graphviz version 2.40.1 (20161225.0304)
 -->
<!-- Title: CO_places_Basalt_Plugin\process_command Pages: 1 -->
<svg width="659pt" height="213pt"
 viewBox="0.00 0.00 658.64 213.00" xmlns="http://www.w3.org/2000/svg" xmlns:xlink="http://www.w3.org/1999/xlink">
<g id="graph0" class="graph" transform="scale(1 1) rotate(0) translate(4 209)">
<title>CO_places_Basalt_Plugin\process_command</title>
<polygon fill="#ffffff" stroke="transparent" points="-4,4 -4,-209 654.6426,-209 654.6426,4 -4,4"/>
<!-- Node47 -->
<g id="node1" class="node">
<title>Node47</title>
<polygon fill="#bfbfbf" stroke="#000000" points="0,-90.5 0,-118.5 132.1816,-118.5 132.1816,-90.5 0,-90.5"/>
<text text-anchor="start" x="8" y="-106.5" font-family="Helvetica,sans-Serif" font-size="10.00" fill="#000000">CO_places_Basalt_Plugin</text>
<text text-anchor="middle" x="66.0908" y="-96.5" font-family="Helvetica,sans-Serif" font-size="10.00" fill="#000000">\process_command</text>
</g>
<!-- Node48 -->
<g id="node2" class="node">
<title>Node48</title>
<g id="a_node2"><a xlink:href="a00199.html#a4195fd75943d9dd1ca6dce290aa64dcc" target="_top" xlink:title="A_CO_Basalt_Plugin\l\\_condition_response">
<polygon fill="#ffffff" stroke="#000000" points="178.7383,-176.5 178.7383,-204.5 289.8066,-204.5 289.8066,-176.5 178.7383,-176.5"/>
<text text-anchor="start" x="186.7383" y="-192.5" font-family="Helvetica,sans-Serif" font-size="10.00" fill="#000000">A_CO_Basalt_Plugin</text>
<text text-anchor="middle" x="234.2725" y="-182.5" font-family="Helvetica,sans-Serif" font-size="10.00" fill="#000000">\_condition_response</text>
</a>
</g>
</g>
<!-- Node47&#45;&gt;Node48 -->
<g id="edge1" class="edge">
<title>Node47&#45;&gt;Node48</title>
<path fill="none" stroke="#191970" d="M89.6736,-118.5145C110.147,-130.4755 140.734,-147.8548 168.1816,-161.5 175.5203,-165.1483 183.4232,-168.8254 191.1229,-172.2784"/>
<polygon fill="#191970" stroke="#191970" points="189.8013,-175.5208 200.3627,-176.3622 192.6311,-169.1183 189.8013,-175.5208"/>
</g>
<!-- Node49 -->
<g id="node3" class="node">
<title>Node49</title>
<g id="a_node3"><a xlink:href="a00211.html#a2c37701d39e9e6c8c10f301dced3eb8e" target="_top" xlink:title="CO_places_Basalt_Plugin\l\\_process_place_delete">
<polygon fill="#ffffff" stroke="#000000" points="336.3633,-172.5 336.3633,-200.5 468.5449,-200.5 468.5449,-172.5 336.3633,-172.5"/>
<text text-anchor="start" x="344.3633" y="-188.5" font-family="Helvetica,sans-Serif" font-size="10.00" fill="#000000">CO_places_Basalt_Plugin</text>
<text text-anchor="middle" x="402.4541" y="-178.5" font-family="Helvetica,sans-Serif" font-size="10.00" fill="#000000">\_process_place_delete</text>
</a>
</g>
</g>
<!-- Node47&#45;&gt;Node49 -->
<g id="edge2" class="edge">
<title>Node47&#45;&gt;Node49</title>
<path fill="none" stroke="#191970" d="M123.5315,-118.5031C182.0971,-132.7805 272.9144,-154.9203 334.8961,-170.0304"/>
<polygon fill="#191970" stroke="#191970" points="334.4245,-173.5179 344.969,-172.4861 336.0825,-166.7171 334.4245,-173.5179"/>
</g>
<!-- Node51 -->
<g id="node5" class="node">
<title>Node51</title>
<g id="a_node5"><a xlink:href="a00211.html#a8065697ba33d71f377ff364ce1c36d50" target="_top" xlink:title="CO_places_Basalt_Plugin\l\\_process_place_get">
<polygon fill="#ffffff" stroke="#000000" points="168.1816,-90.5 168.1816,-118.5 300.3633,-118.5 300.3633,-90.5 168.1816,-90.5"/>
<text text-anchor="start" x="176.1816" y="-106.5" font-family="Helvetica,sans-Serif" font-size="10.00" fill="#000000">CO_places_Basalt_Plugin</text>
<text text-anchor="middle" x="234.2725" y="-96.5" font-family="Helvetica,sans-Serif" font-size="10.00" fill="#000000">\_process_place_get</text>
</a>
</g>
</g>
<!-- Node47&#45;&gt;Node51 -->
<g id="edge4" class="edge">
<title>Node47&#45;&gt;Node51</title>
<path fill="none" stroke="#191970" d="M132.5607,-104.5C140.8506,-104.5 149.3798,-104.5 157.806,-104.5"/>
<polygon fill="#191970" stroke="#191970" points="158.0101,-108.0001 168.0101,-104.5 158.0101,-101.0001 158.0101,-108.0001"/>
</g>
<!-- Node53 -->
<g id="node7" class="node">
<title>Node53</title>
<g id="a_node7"><a xlink:href="a00211.html#a3b060bbae1171b584997696bc5874a2f" target="_top" xlink:title="CO_places_Basalt_Plugin\l\\_process_place_post">
<polygon fill="#ffffff" stroke="#000000" points="168.1816,-43.5 168.1816,-71.5 300.3633,-71.5 300.3633,-43.5 168.1816,-43.5"/>
<text text-anchor="start" x="176.1816" y="-59.5" font-family="Helvetica,sans-Serif" font-size="10.00" fill="#000000">CO_places_Basalt_Plugin</text>
<text text-anchor="middle" x="234.2725" y="-49.5" font-family="Helvetica,sans-Serif" font-size="10.00" fill="#000000">\_process_place_post</text>
</a>
</g>
</g>
<!-- Node47&#45;&gt;Node53 -->
<g id="edge7" class="edge">
<title>Node47&#45;&gt;Node53</title>
<path fill="none" stroke="#191970" d="M116.5509,-90.3985C134.7598,-85.3098 155.4877,-79.5172 174.4226,-74.2256"/>
<polygon fill="#191970" stroke="#191970" points="175.4491,-77.5729 184.138,-71.5106 173.565,-70.8313 175.4491,-77.5729"/>
</g>
<!-- Node54 -->
<g id="node8" class="node">
<title>Node54</title>
<g id="a_node8"><a xlink:href="a00211.html#a021e0e49bd0868754a212795cfe8ebfd" target="_top" xlink:title="CO_places_Basalt_Plugin\l\\_process_place_put">
<polygon fill="#ffffff" stroke="#000000" points="336.3633,-.5 336.3633,-28.5 468.5449,-28.5 468.5449,-.5 336.3633,-.5"/>
<text text-anchor="start" x="344.3633" y="-16.5" font-family="Helvetica,sans-Serif" font-size="10.00" fill="#000000">CO_places_Basalt_Plugin</text>
<text text-anchor="middle" x="402.4541" y="-6.5" font-family="Helvetica,sans-Serif" font-size="10.00" fill="#000000">\_process_place_put</text>
</a>
</g>
</g>
<!-- Node47&#45;&gt;Node54 -->
<g id="edge12" class="edge">
<title>Node47&#45;&gt;Node54</title>
<path fill="none" stroke="#191970" d="M80.8885,-90.337C99.554,-73.4537 133.4311,-45.9609 168.1816,-33.5 218.7284,-15.3749 279.2125,-10.8634 326.0613,-10.7589"/>
<polygon fill="#191970" stroke="#191970" points="326.1289,-14.2591 336.1443,-10.8034 326.1599,-7.2592 326.1289,-14.2591"/>
</g>
<!-- Node50 -->
<g id="node4" class="node">
<title>Node50</title>
<g id="a_node4"><a xlink:href="a00211.html#a3e64096264150499cf5d68bdc4e112e6" target="_top" xlink:title="CO_places_Basalt_Plugin\l\\_get_long_place_description">
<polygon fill="#ffffff" stroke="#000000" points="504.5449,-88.5 504.5449,-116.5 650.6426,-116.5 650.6426,-88.5 504.5449,-88.5"/>
<text text-anchor="start" x="512.5449" y="-104.5" font-family="Helvetica,sans-Serif" font-size="10.00" fill="#000000">CO_places_Basalt_Plugin</text>
<text text-anchor="middle" x="577.5938" y="-94.5" font-family="Helvetica,sans-Serif" font-size="10.00" fill="#000000">\_get_long_place_description</text>
</a>
</g>
</g>
<!-- Node49&#45;&gt;Node50 -->
<g id="edge3" class="edge">
<title>Node49&#45;&gt;Node50</title>
<path fill="none" stroke="#191970" d="M435.5561,-172.3895C446.1491,-167.7636 457.8901,-162.5202 468.5449,-157.5 493.1068,-145.9274 520.3809,-132.1711 541.5086,-121.3111"/>
<polygon fill="#191970" stroke="#191970" points="543.1724,-124.3911 550.4556,-116.6966 539.9637,-118.1698 543.1724,-124.3911"/>
</g>
<!-- Node51&#45;&gt;Node50 -->
<g id="edge5" class="edge">
<title>Node51&#45;&gt;Node50</title>
<path fill="none" stroke="#191970" d="M295.8043,-118.5461C309.1092,-121.0235 323.1505,-123.218 336.3633,-124.5 394.8361,-130.1736 410.0883,-130.3378 468.5449,-124.5 481.7152,-123.1847 495.6489,-120.9971 508.9935,-118.4983"/>
<polygon fill="#191970" stroke="#191970" points="509.9152,-121.8846 519.0609,-116.5362 508.5761,-115.0139 509.9152,-121.8846"/>
</g>
<!-- Node52 -->
<g id="node6" class="node">
<title>Node52</title>
<g id="a_node6"><a xlink:href="a00211.html#a38ec1c81b3b19a69beef0179cd7f6b46" target="_top" xlink:title="CO_places_Basalt_Plugin\l\\_get_short_description">
<polygon fill="#ffffff" stroke="#000000" points="336.3633,-86.5 336.3633,-114.5 468.5449,-114.5 468.5449,-86.5 336.3633,-86.5"/>
<text text-anchor="start" x="344.3633" y="-102.5" font-family="Helvetica,sans-Serif" font-size="10.00" fill="#000000">CO_places_Basalt_Plugin</text>
<text text-anchor="middle" x="402.4541" y="-92.5" font-family="Helvetica,sans-Serif" font-size="10.00" fill="#000000">\_get_short_description</text>
</a>
</g>
</g>
<!-- Node51&#45;&gt;Node52 -->
<g id="edge6" class="edge">
<title>Node51&#45;&gt;Node52</title>
<path fill="none" stroke="#191970" d="M300.7423,-102.9191C309.0323,-102.7219 317.5614,-102.5191 325.9877,-102.3187"/>
<polygon fill="#191970" stroke="#191970" points="326.2778,-105.8128 336.1917,-102.076 326.1113,-98.8148 326.2778,-105.8128"/>
</g>
<!-- Node53&#45;&gt;Node50 -->
<g id="edge8" class="edge">
<title>Node53&#45;&gt;Node50</title>
<path fill="none" stroke="#191970" d="M300.4591,-60.6697C347.5441,-63.5281 412.1848,-68.6784 468.5449,-77.5 483.123,-79.7818 498.652,-82.9109 513.2838,-86.1835"/>
<polygon fill="#191970" stroke="#191970" points="512.7186,-89.6445 523.2474,-88.4634 514.2801,-82.8209 512.7186,-89.6445"/>
</g>
<!-- Node53&#45;&gt;Node54 -->
<g id="edge9" class="edge">
<title>Node53&#45;&gt;Node54</title>
<path fill="none" stroke="#191970" d="M289.3414,-43.4202C304.8114,-39.4649 321.775,-35.1277 337.7512,-31.043"/>
<polygon fill="#191970" stroke="#191970" points="338.7274,-34.406 347.5488,-28.538 336.9934,-27.6242 338.7274,-34.406"/>
</g>
<!-- Node54&#45;&gt;Node50 -->
<g id="edge10" class="edge">
<title>Node54&#45;&gt;Node50</title>
<path fill="none" stroke="#191970" d="M435.9829,-28.5743C446.4912,-33.1552 458.076,-38.3819 468.5449,-43.5 494.1498,-56.0179 522.4399,-71.3699 543.7879,-83.2758"/>
<polygon fill="#191970" stroke="#191970" points="542.3436,-86.4785 552.7781,-88.3146 545.7661,-80.3722 542.3436,-86.4785"/>
</g>
<!-- Node55 -->
<g id="node9" class="node">
<title>Node55</title>
<g id="a_node9"><a xlink:href="a00211.html#a787a3b2f9625b7b54fadae02f07bcc5e" target="_top" xlink:title="CO_places_Basalt_Plugin\l\\_process_parameters">
<polygon fill="#ffffff" stroke="#000000" points="511.5029,-.5 511.5029,-28.5 643.6846,-28.5 643.6846,-.5 511.5029,-.5"/>
<text text-anchor="start" x="519.5029" y="-16.5" font-family="Helvetica,sans-Serif" font-size="10.00" fill="#000000">CO_places_Basalt_Plugin</text>
<text text-anchor="middle" x="577.5938" y="-6.5" font-family="Helvetica,sans-Serif" font-size="10.00" fill="#000000">\_process_parameters</text>
</a>
</g>
</g>
<!-- Node54&#45;&gt;Node55 -->
<g id="edge11" class="edge">
<title>Node54&#45;&gt;Node55</title>
<path fill="none" stroke="#191970" d="M468.6669,-14.5C479.2376,-14.5 490.2505,-14.5 501.0369,-14.5"/>
<polygon fill="#191970" stroke="#191970" points="501.2874,-18.0001 511.2873,-14.5 501.2873,-11.0001 501.2874,-18.0001"/>
</g>
</g>
</svg>
