<?xml version="1.0" encoding="UTF-8" standalone="no"?>
<!DOCTYPE svg PUBLIC "-//W3C//DTD SVG 1.1//EN"
 "http://www.w3.org/Graphics/SVG/1.1/DTD/svg11.dtd">
<!-- Generated by graphviz version 2.47.1 (20210417.1919)
 -->
<!-- Title: CO_Andisol\god Pages: 1 -->
<svg width="233pt" height="137pt"
 viewBox="0.00 0.00 233.00 137.00" xmlns="http://www.w3.org/2000/svg" xmlns:xlink="http://www.w3.org/1999/xlink">
<g id="graph0" class="graph" transform="scale(1 1) rotate(0) translate(4 133)">
<title>CO_Andisol\god</title>
<polygon fill="white" stroke="transparent" points="-4,4 -4,-133 229,-133 229,4 -4,4"/>
<!-- Node1 -->
<g id="node1" class="node">
<title>Node1</title>
<g id="a_node1"><a xlink:title=" ">
<polygon fill="#bfbfbf" stroke="black" points="137,-55 137,-74 225,-74 225,-55 137,-55"/>
<text text-anchor="middle" x="181" y="-62" font-family="Helvetica,sans-Serif" font-size="10.00">CO_Andisol\god</text>
</a>
</g>
</g>
<!-- Node2 -->
<g id="node2" class="node">
<title>Node2</title>
<g id="a_node2"><a xlink:href="a00216.html#a86bc3621ffe539ac5a9239375f0a786b" target="_top" xlink:title=" ">
<polygon fill="white" stroke="black" points="0,-98.5 0,-128.5 101,-128.5 101,-98.5 0,-98.5"/>
<text text-anchor="start" x="8" y="-116.5" font-family="Helvetica,sans-Serif" font-size="10.00">CO_Andisol\get_all</text>
<text text-anchor="middle" x="50.5" y="-105.5" font-family="Helvetica,sans-Serif" font-size="10.00">_login_users</text>
</a>
</g>
</g>
<!-- Node1&#45;&gt;Node2 -->
<g id="edge1" class="edge">
<title>Node1&#45;&gt;Node2</title>
<path fill="none" stroke="midnightblue" d="M145.47,-77.67C128.65,-84.08 108.36,-91.82 90.93,-98.46"/>
<polygon fill="midnightblue" stroke="midnightblue" points="146.82,-80.9 154.92,-74.06 144.33,-74.36 146.82,-80.9"/>
</g>
<!-- Node3 -->
<g id="node3" class="node">
<title>Node3</title>
<g id="a_node3"><a xlink:href="a00216.html#acd1e344f9f0087ee41414e6aa5f13e1e" target="_top" xlink:title=" ">
<polygon fill="white" stroke="black" points="0,-49.5 0,-79.5 101,-79.5 101,-49.5 0,-49.5"/>
<text text-anchor="start" x="8" y="-67.5" font-family="Helvetica,sans-Serif" font-size="10.00">CO_Andisol\get_all</text>
<text text-anchor="middle" x="50.5" y="-56.5" font-family="Helvetica,sans-Serif" font-size="10.00">_standalone_users</text>
</a>
</g>
</g>
<!-- Node1&#45;&gt;Node3 -->
<g id="edge2" class="edge">
<title>Node1&#45;&gt;Node3</title>
<path fill="none" stroke="midnightblue" d="M126.78,-64.5C118.39,-64.5 109.73,-64.5 101.41,-64.5"/>
<polygon fill="midnightblue" stroke="midnightblue" points="126.85,-68 136.85,-64.5 126.85,-61 126.85,-68"/>
</g>
<!-- Node4 -->
<g id="node4" class="node">
<title>Node4</title>
<g id="a_node4"><a xlink:href="a00216.html#a9d3578d72df7af2ff07e23ea7b1b1af9" target="_top" xlink:title=" ">
<polygon fill="white" stroke="black" points="0,-0.5 0,-30.5 101,-30.5 101,-0.5 0,-0.5"/>
<text text-anchor="start" x="8" y="-18.5" font-family="Helvetica,sans-Serif" font-size="10.00">CO_Andisol\get_all</text>
<text text-anchor="middle" x="50.5" y="-7.5" font-family="Helvetica,sans-Serif" font-size="10.00">_users</text>
</a>
</g>
</g>
<!-- Node1&#45;&gt;Node4 -->
<g id="edge3" class="edge">
<title>Node1&#45;&gt;Node4</title>
<path fill="none" stroke="midnightblue" d="M145.47,-51.33C128.65,-44.92 108.36,-37.18 90.93,-30.54"/>
<polygon fill="midnightblue" stroke="midnightblue" points="144.33,-54.64 154.92,-54.94 146.82,-48.1 144.33,-54.64"/>
</g>
</g>
</svg>
