<?xml version="1.0" encoding="UTF-8" standalone="no"?>
<!DOCTYPE svg PUBLIC "-//W3C//DTD SVG 1.1//EN"
 "http://www.w3.org/Graphics/SVG/1.1/DTD/svg11.dtd">
<!-- Generated by graphviz version 2.40.1 (20161225.0304)
 -->
<!-- Title: CO_Andisol\god Pages: 1 -->
<svg width="702pt" height="93pt"
 viewBox="0.00 0.00 702.27 93.00" xmlns="http://www.w3.org/2000/svg" xmlns:xlink="http://www.w3.org/1999/xlink">
<g id="graph0" class="graph" transform="scale(1 1) rotate(0) translate(4 89)">
<title>CO_Andisol\god</title>
<polygon fill="#ffffff" stroke="transparent" points="-4,4 -4,-89 698.2686,-89 698.2686,4 -4,4"/>
<!-- Node273 -->
<g id="node1" class="node">
<title>Node273</title>
<polygon fill="#bfbfbf" stroke="#000000" points="0,-66.5 0,-84.5 88.8223,-84.5 88.8223,-66.5 0,-66.5"/>
<text text-anchor="middle" x="44.4111" y="-72.5" font-family="Helvetica,sans-Serif" font-size="10.00" fill="#000000">CO_Andisol\god</text>
</g>
<!-- Node274 -->
<g id="node2" class="node">
<title>Node274</title>
<g id="a_node2"><a xlink:href="a00219.html#acda267f1d6a8e496e167ed46fe590dc6" target="_top" xlink:title="CO_Andisol\\get_chameleon\l_instance">
<polygon fill="#ffffff" stroke="#000000" points="553.7471,-42.5 553.7471,-70.5 694.2686,-70.5 694.2686,-42.5 553.7471,-42.5"/>
<text text-anchor="start" x="561.7471" y="-58.5" font-family="Helvetica,sans-Serif" font-size="10.00" fill="#000000">CO_Andisol\get_chameleon</text>
<text text-anchor="middle" x="624.0078" y="-48.5" font-family="Helvetica,sans-Serif" font-size="10.00" fill="#000000">_instance</text>
</a>
</g>
</g>
<!-- Node273&#45;&gt;Node274 -->
<g id="edge1" class="edge">
<title>Node273&#45;&gt;Node274</title>
<path fill="none" stroke="#191970" d="M88.8913,-77.2279C172.8861,-80.0036 360.5281,-83.8821 517.7471,-70.5 526.0758,-69.7911 534.7535,-68.8999 543.4012,-67.9122"/>
<polygon fill="#191970" stroke="#191970" points="543.9978,-71.3661 553.5165,-66.7135 543.174,-64.4147 543.9978,-71.3661"/>
</g>
<!-- Node275 -->
<g id="node3" class="node">
<title>Node275</title>
<g id="a_node3"><a xlink:href="a00219.html#af5f39aa13714ad544a9099edb0d51cd5" target="_top" xlink:title="CO_Andisol\\manager">
<polygon fill="#ffffff" stroke="#000000" points="124.8223,-47.5 124.8223,-65.5 236.4277,-65.5 236.4277,-47.5 124.8223,-47.5"/>
<text text-anchor="middle" x="180.625" y="-53.5" font-family="Helvetica,sans-Serif" font-size="10.00" fill="#000000">CO_Andisol\manager</text>
</a>
</g>
</g>
<!-- Node273&#45;&gt;Node275 -->
<g id="edge2" class="edge">
<title>Node273&#45;&gt;Node275</title>
<path fill="none" stroke="#191970" d="M89.0126,-69.2787C97.1547,-68.143 105.8075,-66.936 114.4198,-65.7347"/>
<polygon fill="#191970" stroke="#191970" points="115.0577,-69.1797 124.4782,-64.3317 114.0906,-62.2469 115.0577,-69.1797"/>
</g>
<!-- Node276 -->
<g id="node4" class="node">
<title>Node276</title>
<g id="a_node4"><a xlink:href="a00219.html#ac2a2dcb99dc927789b0ffa09c24946de" target="_top" xlink:title="CO_Andisol\\logged_in">
<polygon fill="#ffffff" stroke="#000000" points="272.9795,-47.5 272.9795,-65.5 388.4912,-65.5 388.4912,-47.5 272.9795,-47.5"/>
<text text-anchor="middle" x="330.7354" y="-53.5" font-family="Helvetica,sans-Serif" font-size="10.00" fill="#000000">CO_Andisol\logged_in</text>
</a>
</g>
</g>
<!-- Node275&#45;&gt;Node276 -->
<g id="edge3" class="edge">
<title>Node275&#45;&gt;Node276</title>
<path fill="none" stroke="#191970" d="M236.5206,-56.5C245.0281,-56.5 253.8877,-56.5 262.6208,-56.5"/>
<polygon fill="#191970" stroke="#191970" points="262.7861,-60.0001 272.786,-56.5 262.786,-53.0001 262.7861,-60.0001"/>
</g>
<!-- Node278 -->
<g id="node6" class="node">
<title>Node278</title>
<g id="a_node6"><a xlink:href="a00219.html#a3605f036c8c634afaa74f67e5853a0ad" target="_top" xlink:title="CO_Andisol\\get_cobra\l_instance">
<polygon fill="#ffffff" stroke="#000000" points="272.4277,-.5 272.4277,-28.5 389.043,-28.5 389.043,-.5 272.4277,-.5"/>
<text text-anchor="start" x="280.4277" y="-16.5" font-family="Helvetica,sans-Serif" font-size="10.00" fill="#000000">CO_Andisol\get_cobra</text>
<text text-anchor="middle" x="330.7354" y="-6.5" font-family="Helvetica,sans-Serif" font-size="10.00" fill="#000000">_instance</text>
</a>
</g>
</g>
<!-- Node275&#45;&gt;Node278 -->
<g id="edge7" class="edge">
<title>Node275&#45;&gt;Node278</title>
<path fill="none" stroke="#191970" d="M212.8274,-47.4899C229.7039,-42.768 250.9274,-36.8298 270.7007,-31.2974"/>
<polygon fill="#191970" stroke="#191970" points="271.8836,-34.6009 280.5706,-28.5358 269.9974,-27.8598 271.8836,-34.6009"/>
</g>
<!-- Node276&#45;&gt;Node274 -->
<g id="edge6" class="edge">
<title>Node276&#45;&gt;Node274</title>
<path fill="none" stroke="#191970" d="M388.6766,-56.5C432.8588,-56.5 494.2489,-56.5 543.2493,-56.5"/>
<polygon fill="#191970" stroke="#191970" points="543.5067,-60.0001 553.5067,-56.5 543.5067,-53.0001 543.5067,-60.0001"/>
</g>
<!-- Node277 -->
<g id="node5" class="node">
<title>Node277</title>
<g id="a_node5"><a xlink:href="a00219.html#a4b0ec12b29ce4812cbb4169b68770f66" target="_top" xlink:title="CO_Andisol\\valid">
<polygon fill="#ffffff" stroke="#000000" points="425.043,-9.5 425.043,-27.5 517.7471,-27.5 517.7471,-9.5 425.043,-9.5"/>
<text text-anchor="middle" x="471.395" y="-15.5" font-family="Helvetica,sans-Serif" font-size="10.00" fill="#000000">CO_Andisol\valid</text>
</a>
</g>
</g>
<!-- Node276&#45;&gt;Node277 -->
<g id="edge4" class="edge">
<title>Node276&#45;&gt;Node277</title>
<path fill="none" stroke="#191970" d="M364.0697,-47.4945C383.1993,-42.3266 407.4336,-35.7795 428.0313,-30.215"/>
<polygon fill="#191970" stroke="#191970" points="429.0714,-33.5595 437.8125,-27.5725 427.2457,-26.8018 429.0714,-33.5595"/>
</g>
<!-- Node277&#45;&gt;Node274 -->
<g id="edge5" class="edge">
<title>Node277&#45;&gt;Node274</title>
<path fill="none" stroke="#191970" d="M507.5621,-27.5055C522.5197,-31.2299 540.3539,-35.6705 557.5148,-39.9435"/>
<polygon fill="#191970" stroke="#191970" points="556.9648,-43.4133 567.5142,-42.4333 558.6561,-36.6207 556.9648,-43.4133"/>
</g>
</g>
</svg>
