<?xml version="1.0" encoding="UTF-8" standalone="no"?>
<!DOCTYPE svg PUBLIC "-//W3C//DTD SVG 1.1//EN"
 "http://www.w3.org/Graphics/SVG/1.1/DTD/svg11.dtd">
<!-- Generated by graphviz version 2.47.1 (20210417.1919)
 -->
<!-- Title: CO_Cobra\create_new_standard_login Pages: 1 -->
<svg width="626pt" height="116pt"
 viewBox="0.00 0.00 626.00 115.50" xmlns="http://www.w3.org/2000/svg" xmlns:xlink="http://www.w3.org/1999/xlink">
<g id="graph0" class="graph" transform="scale(1 1) rotate(0) translate(4 111.5)">
<title>CO_Cobra\create_new_standard_login</title>
<polygon fill="white" stroke="transparent" points="-4,4 -4,-111.5 622,-111.5 622,4 -4,4"/>
<!-- Node1 -->
<g id="node1" class="node">
<title>Node1</title>
<g id="a_node1"><a xlink:title=" ">
<polygon fill="#bfbfbf" stroke="black" points="0,-33 0,-63 116,-63 116,-33 0,-33"/>
<text text-anchor="start" x="8" y="-51" font-family="Helvetica,sans-Serif" font-size="10.00">CO_Cobra\create_new</text>
<text text-anchor="middle" x="58" y="-40" font-family="Helvetica,sans-Serif" font-size="10.00">_standard_login</text>
</a>
</g>
</g>
<!-- Node2 -->
<g id="node2" class="node">
<title>Node2</title>
<g id="a_node2"><a xlink:href="a00236.html#ae1d5d148ccfdfdfa1e0d8636130479ab" target="_top" xlink:title=" ">
<polygon fill="white" stroke="black" points="152,-33 152,-63 274,-63 274,-33 152,-33"/>
<text text-anchor="start" x="160" y="-51" font-family="Helvetica,sans-Serif" font-size="10.00">CO_Cobra\_create_new</text>
<text text-anchor="middle" x="213" y="-40" font-family="Helvetica,sans-Serif" font-size="10.00">_login</text>
</a>
</g>
</g>
<!-- Node1&#45;&gt;Node2 -->
<g id="edge1" class="edge">
<title>Node1&#45;&gt;Node2</title>
<path fill="none" stroke="midnightblue" d="M116.41,-48C124.67,-48 133.24,-48 141.72,-48"/>
<polygon fill="midnightblue" stroke="midnightblue" points="141.97,-51.5 151.97,-48 141.97,-44.5 141.97,-51.5"/>
</g>
<!-- Node3 -->
<g id="node3" class="node">
<title>Node3</title>
<g id="a_node3"><a xlink:href="a00236.html#a01a955e518587e995a53000c2638c2a8" target="_top" xlink:title=" ">
<polygon fill="white" stroke="black" points="319,-77 319,-107 438,-107 438,-77 319,-77"/>
<text text-anchor="start" x="327" y="-95" font-family="Helvetica,sans-Serif" font-size="10.00">CO_Cobra\_create_this</text>
<text text-anchor="middle" x="378.5" y="-84" font-family="Helvetica,sans-Serif" font-size="10.00">_many_personal_ids</text>
</a>
</g>
</g>
<!-- Node2&#45;&gt;Node3 -->
<g id="edge2" class="edge">
<title>Node2&#45;&gt;Node3</title>
<path fill="none" stroke="midnightblue" d="M269.81,-63.02C283.28,-66.65 297.81,-70.55 311.69,-74.29"/>
<polygon fill="midnightblue" stroke="midnightblue" points="311.1,-77.75 321.66,-76.97 312.92,-71 311.1,-77.75"/>
</g>
<!-- Node5 -->
<g id="node5" class="node">
<title>Node5</title>
<g id="a_node5"><a xlink:href="a00236.html#a0815b59b59c157227c283e260ab2576f" target="_top" xlink:title=" ">
<polygon fill="white" stroke="black" points="310,-38.5 310,-57.5 447,-57.5 447,-38.5 310,-38.5"/>
<text text-anchor="middle" x="378.5" y="-45.5" font-family="Helvetica,sans-Serif" font-size="10.00">CO_Cobra\get_security_ids</text>
</a>
</g>
</g>
<!-- Node2&#45;&gt;Node5 -->
<g id="edge4" class="edge">
<title>Node2&#45;&gt;Node5</title>
<path fill="none" stroke="midnightblue" d="M274.42,-48C282.63,-48 291.15,-48 299.62,-48"/>
<polygon fill="midnightblue" stroke="midnightblue" points="299.89,-51.5 309.89,-48 299.89,-44.5 299.89,-51.5"/>
</g>
<!-- Node6 -->
<g id="node6" class="node">
<title>Node6</title>
<g id="a_node6"><a xlink:href="a00340.html#aac538e52310a1c332914682a9c2ec8d2" target="_top" xlink:title=" ">
<polygon fill="white" stroke="black" points="312,-0.5 312,-19.5 445,-19.5 445,-0.5 312,-0.5"/>
<text text-anchor="middle" x="378.5" y="-7.5" font-family="Helvetica,sans-Serif" font-size="10.00">CO_Security_Login\is_god</text>
</a>
</g>
</g>
<!-- Node2&#45;&gt;Node6 -->
<g id="edge5" class="edge">
<title>Node2&#45;&gt;Node6</title>
<path fill="none" stroke="midnightblue" d="M274.42,-33.96C291.44,-30 309.79,-25.74 326.23,-21.92"/>
<polygon fill="midnightblue" stroke="midnightblue" points="327.24,-25.28 336.18,-19.6 325.65,-18.46 327.24,-25.28"/>
</g>
<!-- Node4 -->
<g id="node4" class="node">
<title>Node4</title>
<g id="a_node4"><a xlink:href="a00236.html#a2e644cc197709e85295026701e3a672e" target="_top" xlink:title=" ">
<polygon fill="white" stroke="black" points="483,-77 483,-107 618,-107 618,-77 483,-77"/>
<text text-anchor="start" x="491" y="-95" font-family="Helvetica,sans-Serif" font-size="10.00">CO_Cobra\_make_security</text>
<text text-anchor="middle" x="550.5" y="-84" font-family="Helvetica,sans-Serif" font-size="10.00">_token</text>
</a>
</g>
</g>
<!-- Node3&#45;&gt;Node4 -->
<g id="edge3" class="edge">
<title>Node3&#45;&gt;Node4</title>
<path fill="none" stroke="midnightblue" d="M438,-92C449.15,-92 460.96,-92 472.58,-92"/>
<polygon fill="midnightblue" stroke="midnightblue" points="472.71,-95.5 482.71,-92 472.71,-88.5 472.71,-95.5"/>
</g>
<!-- Node7 -->
<g id="node7" class="node">
<title>Node7</title>
<g id="a_node7"><a xlink:href="a00308.html#a78affe18a811930d4012fd265e95cdca" target="_top" xlink:title=" ">
<polygon fill="white" stroke="black" points="485.5,-0.5 485.5,-19.5 615.5,-19.5 615.5,-0.5 485.5,-0.5"/>
<text text-anchor="middle" x="550.5" y="-7.5" font-family="Helvetica,sans-Serif" font-size="10.00">A_CO_DB_Table_Base\id</text>
</a>
</g>
</g>
<!-- Node6&#45;&gt;Node7 -->
<g id="edge6" class="edge">
<title>Node6&#45;&gt;Node7</title>
<path fill="none" stroke="midnightblue" d="M445.23,-10C455,-10 465.14,-10 475.08,-10"/>
<polygon fill="midnightblue" stroke="midnightblue" points="475.35,-13.5 485.35,-10 475.35,-6.5 475.35,-13.5"/>
</g>
</g>
</svg>
