<?xml version="1.0" encoding="UTF-8" standalone="no"?>
<!DOCTYPE svg PUBLIC "-//W3C//DTD SVG 1.1//EN"
 "http://www.w3.org/Graphics/SVG/1.1/DTD/svg11.dtd">
<!-- Generated by graphviz version 2.40.1 (20161225.0304)
 -->
<!-- Title: CO_Andisol\get_all_logins Pages: 1 -->
<!--zoomable 79 -->
<svg id="main" version="1.1" xmlns="http://www.w3.org/2000/svg" xmlns:xlink="http://www.w3.org/1999/xlink" xml:space="preserve" onload="init(evt)">
<style type="text/css"><![CDATA[
.edge:hover path { stroke: red; }
.edge:hover polygon { stroke: red; fill: red; }
]]></style>
<script type="text/javascript"><![CDATA[
var edges = document.getElementsByTagName('g');
if (edges && edges.length) {
  for (var i=0;i<edges.length;i++) {
    if (edges[i].id.substr(0,4)=='edge') {
      edges[i].setAttribute('class','edge');
    }
  }
}
]]></script>
        <defs>
                <circle id="rim" cx="0" cy="0" r="7"/>
                <circle id="rim2" cx="0" cy="0" r="3.5"/>
                <g id="zoomPlus">
                        <use xlink:href="#rim" fill="#404040">
                                <set attributeName="fill" to="#808080" begin="zoomplus.mouseover" end="zoomplus.mouseout"/>
                        </use>
                        <path d="M-4,0h8M0,-4v8" fill="none" stroke="white" stroke-width="1.5" pointer-events="none"/>
                </g>
                <g id="zoomMin">
                        <use xlink:href="#rim" fill="#404040">
                                <set attributeName="fill" to="#808080" begin="zoomminus.mouseover" end="zoomminus.mouseout"/>
                        </use>
                        <path d="M-4,0h8" fill="none" stroke="white" stroke-width="1.5" pointer-events="none"/>
                </g>
                <g id="dirArrow">
                        <path fill="none" stroke="white" stroke-width="1.5" d="M0,-3.0v7 M-2.5,-0.5L0,-3.0L2.5,-0.5"/>
                </g>
               <g id="resetDef">
                       <use xlink:href="#rim2" fill="#404040">
                               <set attributeName="fill" to="#808080" begin="reset.mouseover" end="reset.mouseout"/>
                       </use>
               </g>
        </defs>

<script type="text/javascript">
var viewWidth = 715;
var viewHeight = 79;
var sectionId = 'dynsection-24';
</script>
<script xlink:href="svgpan.js"/>
<svg id="graph" class="graph">
<g id="viewport">
<title>CO_Andisol\get_all_logins</title>
<polygon fill="#ffffff" stroke="transparent" points="-4,4 -4,-75 711.0518,-75 711.0518,4 -4,4"/>
<!-- Node138 -->
<g id="node1" class="node">
<title>Node138</title>
<polygon fill="#bfbfbf" stroke="#000000" points="0,-23.5 0,-51.5 101.6055,-51.5 101.6055,-23.5 0,-23.5"/>
<text text-anchor="start" x="8" y="-39.5" font-family="Helvetica,sans-Serif" font-size="10.00" fill="#000000">CO_Andisol\get_all</text>
<text text-anchor="middle" x="50.8027" y="-29.5" font-family="Helvetica,sans-Serif" font-size="10.00" fill="#000000">_logins</text>
</g>
<!-- Node139 -->
<g id="node2" class="node">
<title>Node139</title>
<g id="a_node2"><a xlink:href="a00219.html#a3605f036c8c634afaa74f67e5853a0ad" target="_top" xlink:title="CO_Andisol\\get_cobra\l_instance">
<polygon fill="#ffffff" stroke="#000000" points="285.2109,-42.5 285.2109,-70.5 401.8262,-70.5 401.8262,-42.5 285.2109,-42.5"/>
<text text-anchor="start" x="293.2109" y="-58.5" font-family="Helvetica,sans-Serif" font-size="10.00" fill="#000000">CO_Andisol\get_cobra</text>
<text text-anchor="middle" x="343.5186" y="-48.5" font-family="Helvetica,sans-Serif" font-size="10.00" fill="#000000">_instance</text>
</a>
</g>
</g>
<!-- Node138&#45;&gt;Node139 -->
<g id="edge1" class="edge">
<title>Node138&#45;&gt;Node139</title>
<path fill="none" stroke="#191970" d="M101.7899,-40.8095C149.8009,-43.9259 222.0636,-48.6164 275.0761,-52.0574"/>
<polygon fill="#191970" stroke="#191970" points="274.8687,-55.5513 285.0744,-52.7064 275.3221,-48.566 274.8687,-55.5513"/>
</g>
<!-- Node140 -->
<g id="node3" class="node">
<title>Node140</title>
<g id="a_node3"><a xlink:href="a00219.html#af5f39aa13714ad544a9099edb0d51cd5" target="_top" xlink:title="CO_Andisol\\manager">
<polygon fill="#ffffff" stroke="#000000" points="137.6055,-9.5 137.6055,-27.5 249.2109,-27.5 249.2109,-9.5 137.6055,-9.5"/>
<text text-anchor="middle" x="193.4082" y="-15.5" font-family="Helvetica,sans-Serif" font-size="10.00" fill="#000000">CO_Andisol\manager</text>
</a>
</g>
</g>
<!-- Node138&#45;&gt;Node140 -->
<g id="edge2" class="edge">
<title>Node138&#45;&gt;Node140</title>
<path fill="none" stroke="#191970" d="M101.8838,-30.6942C110.1555,-29.5921 118.8231,-28.4373 127.3884,-27.2961"/>
<polygon fill="#191970" stroke="#191970" points="127.9164,-30.7568 137.3665,-25.9667 126.9919,-23.8181 127.9164,-30.7568"/>
</g>
<!-- Node140&#45;&gt;Node139 -->
<g id="edge7" class="edge">
<title>Node140&#45;&gt;Node139</title>
<path fill="none" stroke="#191970" d="M228.9823,-27.5055C243.6946,-31.2299 261.2363,-35.6705 278.1158,-39.9435"/>
<polygon fill="#191970" stroke="#191970" points="277.3981,-43.3721 287.9512,-42.4333 279.116,-36.5862 277.3981,-43.3721"/>
</g>
<!-- Node141 -->
<g id="node4" class="node">
<title>Node141</title>
<g id="a_node4"><a xlink:href="a00219.html#ac2a2dcb99dc927789b0ffa09c24946de" target="_top" xlink:title="CO_Andisol\\logged_in">
<polygon fill="#ffffff" stroke="#000000" points="285.7627,-5.5 285.7627,-23.5 401.2744,-23.5 401.2744,-5.5 285.7627,-5.5"/>
<text text-anchor="middle" x="343.5186" y="-11.5" font-family="Helvetica,sans-Serif" font-size="10.00" fill="#000000">CO_Andisol\logged_in</text>
</a>
</g>
</g>
<!-- Node140&#45;&gt;Node141 -->
<g id="edge3" class="edge">
<title>Node140&#45;&gt;Node141</title>
<path fill="none" stroke="#191970" d="M249.3038,-17.0105C257.8113,-16.7838 266.6709,-16.5478 275.404,-16.3151"/>
<polygon fill="#191970" stroke="#191970" points="275.666,-19.8094 285.5692,-16.0442 275.4795,-12.8119 275.666,-19.8094"/>
</g>
<!-- Node142 -->
<g id="node5" class="node">
<title>Node142</title>
<g id="a_node5"><a xlink:href="a00219.html#a4b0ec12b29ce4812cbb4169b68770f66" target="_top" xlink:title="CO_Andisol\\valid">
<polygon fill="#ffffff" stroke="#000000" points="437.8262,-24.5 437.8262,-42.5 530.5303,-42.5 530.5303,-24.5 437.8262,-24.5"/>
<text text-anchor="middle" x="484.1782" y="-30.5" font-family="Helvetica,sans-Serif" font-size="10.00" fill="#000000">CO_Andisol\valid</text>
</a>
</g>
</g>
<!-- Node141&#45;&gt;Node142 -->
<g id="edge4" class="edge">
<title>Node141&#45;&gt;Node142</title>
<path fill="none" stroke="#191970" d="M401.5423,-22.3377C410.0429,-23.486 418.791,-24.6676 427.269,-25.8128"/>
<polygon fill="#191970" stroke="#191970" points="427.0628,-29.3167 437.4414,-27.1869 427.9999,-22.3797 427.0628,-29.3167"/>
</g>
<!-- Node143 -->
<g id="node6" class="node">
<title>Node143</title>
<g id="a_node6"><a xlink:href="a00219.html#acda267f1d6a8e496e167ed46fe590dc6" target="_top" xlink:title="CO_Andisol\\get_chameleon\l_instance">
<polygon fill="#ffffff" stroke="#000000" points="566.5303,-.5 566.5303,-28.5 707.0518,-28.5 707.0518,-.5 566.5303,-.5"/>
<text text-anchor="start" x="574.5303" y="-16.5" font-family="Helvetica,sans-Serif" font-size="10.00" fill="#000000">CO_Andisol\get_chameleon</text>
<text text-anchor="middle" x="636.791" y="-6.5" font-family="Helvetica,sans-Serif" font-size="10.00" fill="#000000">_instance</text>
</a>
</g>
</g>
<!-- Node141&#45;&gt;Node143 -->
<g id="edge6" class="edge">
<title>Node141&#45;&gt;Node143</title>
<path fill="none" stroke="#191970" d="M401.4598,-14.5C445.642,-14.5 507.0321,-14.5 556.0325,-14.5"/>
<polygon fill="#191970" stroke="#191970" points="556.2899,-18.0001 566.2899,-14.5 556.2899,-11.0001 556.2899,-18.0001"/>
</g>
<!-- Node142&#45;&gt;Node143 -->
<g id="edge5" class="edge">
<title>Node142&#45;&gt;Node143</title>
<path fill="none" stroke="#191970" d="M530.7963,-27.6961C538.8608,-26.6921 547.4495,-25.6229 556.1135,-24.5442"/>
<polygon fill="#191970" stroke="#191970" points="556.8011,-27.9857 566.292,-23.277 555.9362,-21.0393 556.8011,-27.9857"/>
</g>
</g>
</svg>
        <g id="navigator" transform="translate(0 0)" fill="#404254">
                <rect fill="#f2f5e9" fill-opacity="0.5" stroke="#606060" stroke-width=".5" x="0" y="0" width="60" height="60"/>
                <use id="zoomplus" xlink:href="#zoomPlus" x="17" y="9" onmousedown="handleZoom(evt,'in')"/>
                <use id="zoomminus" xlink:href="#zoomMin" x="42" y="9" onmousedown="handleZoom(evt,'out')"/>
                <use id="reset" xlink:href="#resetDef" x="30" y="36" onmousedown="handleReset()"/>
                <g id="arrowUp" xlink:href="#dirArrow" transform="translate(30 24)" onmousedown="handlePan(0,-1)">
                  <use xlink:href="#rim" fill="#404040">
                        <set attributeName="fill" to="#808080" begin="arrowUp.mouseover" end="arrowUp.mouseout"/>
                  </use>
                  <path fill="none" stroke="white" stroke-width="1.5" d="M0,-3.0v7 M-2.5,-0.5L0,-3.0L2.5,-0.5"/>
                </g>
                <g id="arrowRight" xlink:href="#dirArrow" transform="rotate(90) translate(36 -43)" onmousedown="handlePan(1,0)">
                  <use xlink:href="#rim" fill="#404040">
                        <set attributeName="fill" to="#808080" begin="arrowRight.mouseover" end="arrowRight.mouseout"/>
                  </use>
                  <path fill="none" stroke="white" stroke-width="1.5" d="M0,-3.0v7 M-2.5,-0.5L0,-3.0L2.5,-0.5"/>
                </g>
                <g id="arrowDown" xlink:href="#dirArrow" transform="rotate(180) translate(-30 -48)" onmousedown="handlePan(0,1)">
                  <use xlink:href="#rim" fill="#404040">
                        <set attributeName="fill" to="#808080" begin="arrowDown.mouseover" end="arrowDown.mouseout"/>
                  </use>
                  <path fill="none" stroke="white" stroke-width="1.5" d="M0,-3.0v7 M-2.5,-0.5L0,-3.0L2.5,-0.5"/>
                </g>
                <g id="arrowLeft" xlink:href="#dirArrow" transform="rotate(270) translate(-36 17)" onmousedown="handlePan(-1,0)">
                  <use xlink:href="#rim" fill="#404040">
                        <set attributeName="fill" to="#808080" begin="arrowLeft.mouseover" end="arrowLeft.mouseout"/>
                  </use>
                  <path fill="none" stroke="white" stroke-width="1.5" d="M0,-3.0v7 M-2.5,-0.5L0,-3.0L2.5,-0.5"/>
                </g>
        </g>
        <svg viewBox="0 0 15 15" width="100%" height="30px" preserveAspectRatio="xMaxYMin meet">
         <g id="arrow_out" transform="scale(0.3 0.3)">
          <a xlink:href="a00219_ae0e62c8ade9295c9b5a2d3b725f8f222_cgraph_org.svg" target="_base">
           <rect id="button" ry="5" rx="5" y="6" x="6" height="38" width="38"
                fill="#f2f5e9" fill-opacity="0.5" stroke="#606060" stroke-width="1.0"/>
           <path id="arrow"
             d="M 11.500037,31.436501 C 11.940474,20.09759 22.043105,11.32322 32.158766,21.979434 L 37.068811,17.246167 C 37.068811,17.246167 37.088388,32 37.088388,32 L 22.160133,31.978069 C 22.160133,31.978069 26.997745,27.140456 26.997745,27.140456 C 18.528582,18.264221 13.291696,25.230495 11.500037,31.436501 z"
             style="fill:#404040;"/>
          </a>
         </g>
        </svg>
</svg>
