<?xml version="1.0" encoding="UTF-8" standalone="no"?>
<!DOCTYPE svg PUBLIC "-//W3C//DTD SVG 1.1//EN"
 "http://www.w3.org/Graphics/SVG/1.1/DTD/svg11.dtd">
<!-- Generated by graphviz version 2.47.1 (20210417.1919)
 -->
<!-- Title: CO_User_Collection\is_manager Pages: 1 -->
<svg width="430pt" height="116pt"
 viewBox="0.00 0.00 430.00 115.50" xmlns="http://www.w3.org/2000/svg" xmlns:xlink="http://www.w3.org/1999/xlink">
<g id="graph0" class="graph" transform="scale(1 1) rotate(0) translate(4 111.5)">
<title>CO_User_Collection\is_manager</title>
<polygon fill="white" stroke="transparent" points="-4,4 -4,-111.5 426,-111.5 426,4 -4,4"/>
<!-- Node1 -->
<g id="node1" class="node">
<title>Node1</title>
<g id="a_node1"><a xlink:title=" ">
<polygon fill="#bfbfbf" stroke="black" points="0,-35 0,-65 107,-65 107,-35 0,-35"/>
<text text-anchor="start" x="8" y="-53" font-family="Helvetica,sans-Serif" font-size="10.00">CO_User_Collection</text>
<text text-anchor="middle" x="53.5" y="-42" font-family="Helvetica,sans-Serif" font-size="10.00">\is_manager</text>
</a>
</g>
</g>
<!-- Node2 -->
<g id="node2" class="node">
<title>Node2</title>
<g id="a_node2"><a xlink:href="a00276.html#a67c82465b52bc0d942c84599eb2b62ff" target="_top" xlink:title=" ">
<polygon fill="white" stroke="black" points="143,-60 143,-90 250,-90 250,-60 143,-60"/>
<text text-anchor="start" x="151" y="-78" font-family="Helvetica,sans-Serif" font-size="10.00">CO_User_Collection</text>
<text text-anchor="middle" x="196.5" y="-67" font-family="Helvetica,sans-Serif" font-size="10.00">\_load_login</text>
</a>
</g>
</g>
<!-- Node1&#45;&gt;Node2 -->
<g id="edge1" class="edge">
<title>Node1&#45;&gt;Node2</title>
<path fill="none" stroke="midnightblue" d="M107,-59.31C115.44,-60.81 124.26,-62.37 132.9,-63.9"/>
<polygon fill="midnightblue" stroke="midnightblue" points="132.5,-67.38 142.95,-65.68 133.72,-60.49 132.5,-67.38"/>
</g>
<!-- Node5 -->
<g id="node5" class="node">
<title>Node5</title>
<g id="a_node5"><a xlink:href="a00276.html#ae7fc3a4f853b6b0ce16e5dc31df070ca" target="_top" xlink:title=" ">
<polygon fill="white" stroke="black" points="143,-11 143,-41 250,-41 250,-11 143,-11"/>
<text text-anchor="start" x="151" y="-29" font-family="Helvetica,sans-Serif" font-size="10.00">CO_User_Collection</text>
<text text-anchor="middle" x="196.5" y="-18" font-family="Helvetica,sans-Serif" font-size="10.00">\is_god</text>
</a>
</g>
</g>
<!-- Node1&#45;&gt;Node5 -->
<g id="edge4" class="edge">
<title>Node1&#45;&gt;Node5</title>
<path fill="none" stroke="midnightblue" d="M107,-41.06C115.44,-39.63 124.26,-38.13 132.9,-36.65"/>
<polygon fill="midnightblue" stroke="midnightblue" points="133.68,-40.07 142.95,-34.94 132.51,-33.17 133.68,-40.07"/>
</g>
<!-- Node3 -->
<g id="node3" class="node">
<title>Node3</title>
<g id="a_node3"><a xlink:href="a00308.html#a8780b40e55827b90bb441671faec2a05" target="_top" xlink:title=" ">
<polygon fill="white" stroke="black" points="294.5,-77 294.5,-107 413.5,-107 413.5,-77 294.5,-77"/>
<text text-anchor="start" x="302.5" y="-95" font-family="Helvetica,sans-Serif" font-size="10.00">A_CO_DB_Table_Base</text>
<text text-anchor="middle" x="354" y="-84" font-family="Helvetica,sans-Serif" font-size="10.00">\get_access_object</text>
</a>
</g>
</g>
<!-- Node2&#45;&gt;Node3 -->
<g id="edge2" class="edge">
<title>Node2&#45;&gt;Node3</title>
<path fill="none" stroke="midnightblue" d="M250.15,-80.76C261.12,-81.95 272.84,-83.24 284.29,-84.49"/>
<polygon fill="midnightblue" stroke="midnightblue" points="283.94,-87.97 294.26,-85.58 284.7,-81.01 283.94,-87.97"/>
</g>
<!-- Node4 -->
<g id="node4" class="node">
<title>Node4</title>
<g id="a_node4"><a xlink:href="a00316.html#a7f4c18f2ed2bda67f3c38fd95c120c0a" target="_top" xlink:title=" ">
<polygon fill="white" stroke="black" points="286,-38.5 286,-57.5 422,-57.5 422,-38.5 286,-38.5"/>
<text text-anchor="middle" x="354" y="-45.5" font-family="Helvetica,sans-Serif" font-size="10.00">CO_Main_DB_Record\tags</text>
</a>
</g>
</g>
<!-- Node2&#45;&gt;Node4 -->
<g id="edge3" class="edge">
<title>Node2&#45;&gt;Node4</title>
<path fill="none" stroke="midnightblue" d="M250.15,-65.86C262.38,-63.73 275.55,-61.45 288.24,-59.25"/>
<polygon fill="midnightblue" stroke="midnightblue" points="289.03,-62.66 298.29,-57.5 287.83,-55.76 289.03,-62.66"/>
</g>
<!-- Node5&#45;&gt;Node4 -->
<g id="edge6" class="edge">
<title>Node5&#45;&gt;Node4</title>
<path fill="none" stroke="midnightblue" d="M250.15,-33.45C258.38,-34.61 267.03,-35.84 275.68,-37.06"/>
<polygon fill="midnightblue" stroke="midnightblue" points="275.41,-40.56 285.8,-38.49 276.39,-33.63 275.41,-40.56"/>
</g>
<!-- Node6 -->
<g id="node6" class="node">
<title>Node6</title>
<g id="a_node6"><a xlink:href="a00280.html#a994648913ff9d5f7bb83640bd6239d44" target="_top" xlink:title=" ">
<polygon fill="white" stroke="black" points="299,-0.5 299,-19.5 409,-19.5 409,-0.5 299,-0.5"/>
<text text-anchor="middle" x="354" y="-7.5" font-family="Helvetica,sans-Serif" font-size="10.00">tCO_Collection\count</text>
</a>
</g>
</g>
<!-- Node5&#45;&gt;Node6 -->
<g id="edge5" class="edge">
<title>Node5&#45;&gt;Node6</title>
<path fill="none" stroke="midnightblue" d="M250.15,-20.58C262.52,-19.31 275.85,-17.94 288.67,-16.62"/>
<polygon fill="midnightblue" stroke="midnightblue" points="289.23,-20.08 298.82,-15.57 288.51,-13.12 289.23,-20.08"/>
</g>
</g>
</svg>
