<?xml version="1.0" encoding="UTF-8" standalone="no"?>
<!DOCTYPE svg PUBLIC "-//W3C//DTD SVG 1.1//EN"
 "http://www.w3.org/Graphics/SVG/1.1/DTD/svg11.dtd">
<!-- Generated by graphviz version 2.40.1 (20161225.0304)
 -->
<!-- Title: CO_Basalt\_process_baseline_command Pages: 1 -->
<svg width="602pt" height="37pt"
 viewBox="0.00 0.00 602.43 37.00" xmlns="http://www.w3.org/2000/svg" xmlns:xlink="http://www.w3.org/1999/xlink">
<g id="graph0" class="graph" transform="scale(1 1) rotate(0) translate(4 33)">
<title>CO_Basalt\_process_baseline_command</title>
<polygon fill="#ffffff" stroke="transparent" points="-4,4 -4,-33 598.4316,-33 598.4316,4 -4,4"/>
<!-- Node46 -->
<g id="node1" class="node">
<title>Node46</title>
<polygon fill="#bfbfbf" stroke="#000000" points="0,-.5 0,-28.5 108.2803,-28.5 108.2803,-.5 0,-.5"/>
<text text-anchor="start" x="8" y="-16.5" font-family="Helvetica,sans-Serif" font-size="10.00" fill="#000000">CO_Basalt\_process</text>
<text text-anchor="middle" x="54.1401" y="-6.5" font-family="Helvetica,sans-Serif" font-size="10.00" fill="#000000">_baseline_command</text>
</g>
<!-- Node47 -->
<g id="node2" class="node">
<title>Node47</title>
<g id="a_node2"><a xlink:href="a00203.html#a474660b01c925a4d47e918c02944ebf7" target="_top" xlink:title="CO_Basalt\\process_command">
<polygon fill="#ffffff" stroke="#000000" points="144.2803,-5.5 144.2803,-23.5 295.8955,-23.5 295.8955,-5.5 144.2803,-5.5"/>
<text text-anchor="middle" x="220.0879" y="-11.5" font-family="Helvetica,sans-Serif" font-size="10.00" fill="#000000">CO_Basalt\process_command</text>
</a>
</g>
</g>
<!-- Node46&#45;&gt;Node47 -->
<g id="edge1" class="edge">
<title>Node46&#45;&gt;Node47</title>
<path fill="none" stroke="#191970" d="M118.5788,-14.5C126.9892,-14.5 135.6673,-14.5 144.2431,-14.5"/>
<polygon fill="#191970" stroke="#191970" points="118.4777,-11.0001 108.4776,-14.5 118.4776,-18.0001 118.4777,-11.0001"/>
</g>
<!-- Node48 -->
<g id="node3" class="node">
<title>Node48</title>
<g id="a_node3"><a xlink:href="a00203.html#a528297edc9fb3e5e3c8f2e9270621853" target="_top" xlink:title="CO_Basalt\\_process\l_command">
<polygon fill="#ffffff" stroke="#000000" points="331.8955,-.5 331.8955,-28.5 439.6045,-28.5 439.6045,-.5 331.8955,-.5"/>
<text text-anchor="start" x="339.8955" y="-16.5" font-family="Helvetica,sans-Serif" font-size="10.00" fill="#000000">CO_Basalt\_process</text>
<text text-anchor="middle" x="385.75" y="-6.5" font-family="Helvetica,sans-Serif" font-size="10.00" fill="#000000">_command</text>
</a>
</g>
</g>
<!-- Node47&#45;&gt;Node48 -->
<g id="edge2" class="edge">
<title>Node47&#45;&gt;Node48</title>
<path fill="none" stroke="#191970" d="M306.2011,-14.5C314.7797,-14.5 323.3114,-14.5 331.4272,-14.5"/>
<polygon fill="#191970" stroke="#191970" points="306.131,-11.0001 296.131,-14.5 306.1309,-18.0001 306.131,-11.0001"/>
</g>
<!-- Node49 -->
<g id="node4" class="node">
<title>Node49</title>
<g id="a_node4"><a xlink:href="a00203.html#aad1b60cb5230efedfc34a931546d415b" target="_top" xlink:title="CO_Basalt\\__construct">
<polygon fill="#ffffff" stroke="#000000" points="475.6045,-5.5 475.6045,-23.5 594.4316,-23.5 594.4316,-5.5 475.6045,-5.5"/>
<text text-anchor="middle" x="535.0181" y="-11.5" font-family="Helvetica,sans-Serif" font-size="10.00" fill="#000000">CO_Basalt\__construct</text>
</a>
</g>
</g>
<!-- Node48&#45;&gt;Node49 -->
<g id="edge3" class="edge">
<title>Node48&#45;&gt;Node49</title>
<path fill="none" stroke="#191970" d="M449.8573,-14.5C458.3341,-14.5 466.9959,-14.5 475.3933,-14.5"/>
<polygon fill="#191970" stroke="#191970" points="449.6392,-11.0001 439.6392,-14.5 449.6392,-18.0001 449.6392,-11.0001"/>
</g>
</g>
</svg>
