<?xml version="1.0" encoding="UTF-8" standalone="no"?>
<!DOCTYPE svg PUBLIC "-//W3C//DTD SVG 1.1//EN"
 "http://www.w3.org/Graphics/SVG/1.1/DTD/svg11.dtd">
<!-- Generated by graphviz version 2.47.1 (20210417.1919)
 -->
<!-- Title: CO_Andisol\generic_search Pages: 1 -->
<svg width="254pt" height="186pt"
 viewBox="0.00 0.00 254.00 186.00" xmlns="http://www.w3.org/2000/svg" xmlns:xlink="http://www.w3.org/1999/xlink">
<g id="graph0" class="graph" transform="scale(1 1) rotate(0) translate(4 182)">
<title>CO_Andisol\generic_search</title>
<polygon fill="white" stroke="transparent" points="-4,4 -4,-182 250,-182 250,4 -4,4"/>
<!-- Node1 -->
<g id="node1" class="node">
<title>Node1</title>
<g id="a_node1"><a xlink:title=" ">
<polygon fill="#bfbfbf" stroke="black" points="142,-73.5 142,-103.5 246,-103.5 246,-73.5 142,-73.5"/>
<text text-anchor="start" x="150" y="-91.5" font-family="Helvetica,sans-Serif" font-size="10.00">CO_Andisol\generic</text>
<text text-anchor="middle" x="194" y="-80.5" font-family="Helvetica,sans-Serif" font-size="10.00">_search</text>
</a>
</g>
</g>
<!-- Node2 -->
<g id="node2" class="node">
<title>Node2</title>
<g id="a_node2"><a xlink:href="a00216.html#a86bc3621ffe539ac5a9239375f0a786b" target="_top" xlink:title=" ">
<polygon fill="white" stroke="black" points="2.5,-147.5 2.5,-177.5 103.5,-177.5 103.5,-147.5 2.5,-147.5"/>
<text text-anchor="start" x="10.5" y="-165.5" font-family="Helvetica,sans-Serif" font-size="10.00">CO_Andisol\get_all</text>
<text text-anchor="middle" x="53" y="-154.5" font-family="Helvetica,sans-Serif" font-size="10.00">_login_users</text>
</a>
</g>
</g>
<!-- Node1&#45;&gt;Node2 -->
<g id="edge1" class="edge">
<title>Node1&#45;&gt;Node2</title>
<path fill="none" stroke="midnightblue" d="M159.24,-108.84C143.28,-118.21 123.85,-129.27 106,-138.5 100.17,-141.51 93.89,-144.57 87.78,-147.44"/>
<polygon fill="midnightblue" stroke="midnightblue" points="161.37,-111.64 168.2,-103.54 157.81,-105.62 161.37,-111.64"/>
</g>
<!-- Node3 -->
<g id="node3" class="node">
<title>Node3</title>
<g id="a_node3"><a xlink:href="a00216.html#acd1e344f9f0087ee41414e6aa5f13e1e" target="_top" xlink:title=" ">
<polygon fill="white" stroke="black" points="2.5,-98.5 2.5,-128.5 103.5,-128.5 103.5,-98.5 2.5,-98.5"/>
<text text-anchor="start" x="10.5" y="-116.5" font-family="Helvetica,sans-Serif" font-size="10.00">CO_Andisol\get_all</text>
<text text-anchor="middle" x="53" y="-105.5" font-family="Helvetica,sans-Serif" font-size="10.00">_standalone_users</text>
</a>
</g>
</g>
<!-- Node1&#45;&gt;Node3 -->
<g id="edge2" class="edge">
<title>Node1&#45;&gt;Node3</title>
<path fill="none" stroke="midnightblue" d="M131.63,-99.54C122.31,-101.21 112.8,-102.92 103.77,-104.55"/>
<polygon fill="midnightblue" stroke="midnightblue" points="132.41,-102.95 141.64,-97.74 131.17,-96.06 132.41,-102.95"/>
</g>
<!-- Node4 -->
<g id="node4" class="node">
<title>Node4</title>
<g id="a_node4"><a xlink:href="a00216.html#a9d3578d72df7af2ff07e23ea7b1b1af9" target="_top" xlink:title=" ">
<polygon fill="white" stroke="black" points="2.5,-49.5 2.5,-79.5 103.5,-79.5 103.5,-49.5 2.5,-49.5"/>
<text text-anchor="start" x="10.5" y="-67.5" font-family="Helvetica,sans-Serif" font-size="10.00">CO_Andisol\get_all</text>
<text text-anchor="middle" x="53" y="-56.5" font-family="Helvetica,sans-Serif" font-size="10.00">_users</text>
</a>
</g>
</g>
<!-- Node1&#45;&gt;Node4 -->
<g id="edge3" class="edge">
<title>Node1&#45;&gt;Node4</title>
<path fill="none" stroke="midnightblue" d="M131.63,-77.9C122.31,-76.3 112.8,-74.65 103.77,-73.09"/>
<polygon fill="midnightblue" stroke="midnightblue" points="131.19,-81.38 141.64,-79.63 132.38,-74.48 131.19,-81.38"/>
</g>
<!-- Node5 -->
<g id="node5" class="node">
<title>Node5</title>
<g id="a_node5"><a xlink:href="a00216.html#a0a2d1cc26eb803fdb2a92452b5f2bf12" target="_top" xlink:title=" ">
<polygon fill="white" stroke="black" points="0,-0.5 0,-30.5 106,-30.5 106,-0.5 0,-0.5"/>
<text text-anchor="start" x="8" y="-18.5" font-family="Helvetica,sans-Serif" font-size="10.00">CO_Andisol\location</text>
<text text-anchor="middle" x="53" y="-7.5" font-family="Helvetica,sans-Serif" font-size="10.00">_search</text>
</a>
</g>
</g>
<!-- Node1&#45;&gt;Node5 -->
<g id="edge4" class="edge">
<title>Node1&#45;&gt;Node5</title>
<path fill="none" stroke="midnightblue" d="M157.69,-68.43C141.98,-59.65 123.17,-49.36 106,-40.5 99.59,-37.19 92.67,-33.77 86.04,-30.56"/>
<polygon fill="midnightblue" stroke="midnightblue" points="156.12,-71.56 166.55,-73.41 159.55,-65.46 156.12,-71.56"/>
</g>
</g>
</svg>
