<?xml version="1.0" encoding="UTF-8" standalone="no"?>
<!DOCTYPE svg PUBLIC "-//W3C//DTD SVG 1.1//EN"
 "http://www.w3.org/Graphics/SVG/1.1/DTD/svg11.dtd">
<!-- Generated by graphviz version 2.47.1 (20210417.1919)
 -->
<!-- Title: CO_Cobra_Login Pages: 1 -->
<svg width="141pt" height="1036pt"
 viewBox="0.00 0.00 141.00 1036.00" xmlns="http://www.w3.org/2000/svg" xmlns:xlink="http://www.w3.org/1999/xlink">
<g id="graph0" class="graph" transform="scale(1 1) rotate(0) translate(4 1032)">
<title>CO_Cobra_Login</title>
<polygon fill="white" stroke="transparent" points="-4,4 -4,-1032 137,-1032 137,4 -4,4"/>
<!-- Node1 -->
<g id="node1" class="node">
<title>Node1</title>
<g id="a_node1"><a xlink:title=" ">
<polygon fill="#bfbfbf" stroke="black" points="8.5,-127.5 8.5,-228.5 124.5,-228.5 124.5,-127.5 8.5,-127.5"/>
<text text-anchor="middle" x="66.5" y="-216.5" font-family="Helvetica,sans-Serif" font-size="10.00">CO_Cobra_Login</text>
<polyline fill="none" stroke="black" points="8.5,-209.5 124.5,-209.5 "/>
<text text-anchor="start" x="16.5" y="-197.5" font-family="Helvetica,sans-Serif" font-size="10.00"># $_special_first_time</text>
<text text-anchor="start" x="16.5" y="-186.5" font-family="Helvetica,sans-Serif" font-size="10.00">_security_exemption</text>
<polyline fill="none" stroke="black" points="8.5,-179.5 124.5,-179.5 "/>
<text text-anchor="start" x="16.5" y="-167.5" font-family="Helvetica,sans-Serif" font-size="10.00">+ __construct()</text>
<text text-anchor="start" x="16.5" y="-156.5" font-family="Helvetica,sans-Serif" font-size="10.00">+ set_personal_ids()</text>
<text text-anchor="start" x="16.5" y="-145.5" font-family="Helvetica,sans-Serif" font-size="10.00">+ load_from_db()</text>
<text text-anchor="start" x="16.5" y="-134.5" font-family="Helvetica,sans-Serif" font-size="10.00">+ security_exemption()</text>
</a>
</g>
</g>
<!-- Node5 -->
<g id="node5" class="node">
<title>Node5</title>
<g id="a_node5"><a xlink:href="a00232.html" target="_top" xlink:title=" ">
<polygon fill="white" stroke="black" points="12,-0.5 12,-90.5 121,-90.5 121,-0.5 12,-0.5"/>
<text text-anchor="middle" x="66.5" y="-78.5" font-family="Helvetica,sans-Serif" font-size="10.00">CO_Login_Manager</text>
<polyline fill="none" stroke="black" points="12,-71.5 121,-71.5 "/>
<text text-anchor="start" x="20" y="-59.5" font-family="Helvetica,sans-Serif" font-size="10.00"># $_added_new_id</text>
<polyline fill="none" stroke="black" points="12,-52.5 121,-52.5 "/>
<text text-anchor="start" x="20" y="-40.5" font-family="Helvetica,sans-Serif" font-size="10.00">+ __construct()</text>
<text text-anchor="start" x="20" y="-29.5" font-family="Helvetica,sans-Serif" font-size="10.00">+ load_from_db()</text>
<text text-anchor="start" x="20" y="-18.5" font-family="Helvetica,sans-Serif" font-size="10.00">+ is_manager()</text>
<text text-anchor="start" x="20" y="-7.5" font-family="Helvetica,sans-Serif" font-size="10.00">+ add_new_login_id()</text>
</a>
</g>
</g>
<!-- Node1&#45;&gt;Node5 -->
<g id="edge4" class="edge">
<title>Node1&#45;&gt;Node5</title>
<path fill="none" stroke="midnightblue" d="M66.5,-117.23C66.5,-108.24 66.5,-99.1 66.5,-90.52"/>
<polygon fill="none" stroke="midnightblue" points="63,-117.29 66.5,-127.29 70,-117.29 63,-117.29"/>
</g>
<!-- Node2 -->
<g id="node2" class="node">
<title>Node2</title>
<g id="a_node2"><a xlink:href="a00340.html" target="_top" xlink:title=" ">
<polygon fill="white" stroke="black" points="0,-265.5 0,-520.5 133,-520.5 133,-265.5 0,-265.5"/>
<text text-anchor="middle" x="66.5" y="-508.5" font-family="Helvetica,sans-Serif" font-size="10.00">CO_Security_Login</text>
<polyline fill="none" stroke="black" points="0,-501.5 133,-501.5 "/>
<text text-anchor="start" x="8" y="-489.5" font-family="Helvetica,sans-Serif" font-size="10.00">+ $login_id</text>
<text text-anchor="start" x="8" y="-478.5" font-family="Helvetica,sans-Serif" font-size="10.00"># $_api_key</text>
<text text-anchor="start" x="8" y="-467.5" font-family="Helvetica,sans-Serif" font-size="10.00"># $_personal_ids</text>
<text text-anchor="start" x="8" y="-456.5" font-family="Helvetica,sans-Serif" font-size="10.00"># $_ids</text>
<text text-anchor="start" x="8" y="-445.5" font-family="Helvetica,sans-Serif" font-size="10.00">&#45; $_override_access_class</text>
<polyline fill="none" stroke="black" points="0,-438.5 133,-438.5 "/>
<text text-anchor="start" x="8" y="-426.5" font-family="Helvetica,sans-Serif" font-size="10.00">+ __construct()</text>
<text text-anchor="start" x="8" y="-415.5" font-family="Helvetica,sans-Serif" font-size="10.00">+ load_from_db()</text>
<text text-anchor="start" x="8" y="-404.5" font-family="Helvetica,sans-Serif" font-size="10.00">+ set_ids()</text>
<text text-anchor="start" x="8" y="-393.5" font-family="Helvetica,sans-Serif" font-size="10.00">+ add_id()</text>
<text text-anchor="start" x="8" y="-382.5" font-family="Helvetica,sans-Serif" font-size="10.00">+ remove_id()</text>
<text text-anchor="start" x="8" y="-371.5" font-family="Helvetica,sans-Serif" font-size="10.00">+ ids()</text>
<text text-anchor="start" x="8" y="-360.5" font-family="Helvetica,sans-Serif" font-size="10.00">+ user_can_edit_ids()</text>
<text text-anchor="start" x="8" y="-349.5" font-family="Helvetica,sans-Serif" font-size="10.00">+ set_personal_ids()</text>
<text text-anchor="start" x="8" y="-338.5" font-family="Helvetica,sans-Serif" font-size="10.00">+ personal_ids()</text>
<text text-anchor="start" x="8" y="-327.5" font-family="Helvetica,sans-Serif" font-size="10.00">+ get_crypted_password()</text>
<text text-anchor="start" x="8" y="-316.5" font-family="Helvetica,sans-Serif" font-size="10.00">and 17 more...</text>
<text text-anchor="start" x="8" y="-305.5" font-family="Helvetica,sans-Serif" font-size="10.00"># _set_up_api_key()</text>
<text text-anchor="start" x="8" y="-294.5" font-family="Helvetica,sans-Serif" font-size="10.00"># _default_setup()</text>
<text text-anchor="start" x="8" y="-283.5" font-family="Helvetica,sans-Serif" font-size="10.00"># _build_parameter_array()</text>
<text text-anchor="start" x="8" y="-272.5" font-family="Helvetica,sans-Serif" font-size="10.00"># _random_str()</text>
</a>
</g>
</g>
<!-- Node2&#45;&gt;Node1 -->
<g id="edge1" class="edge">
<title>Node2&#45;&gt;Node1</title>
<path fill="none" stroke="midnightblue" d="M66.5,-255.18C66.5,-245.93 66.5,-237.02 66.5,-228.75"/>
<polygon fill="none" stroke="midnightblue" points="63,-255.33 66.5,-265.33 70,-255.33 63,-255.33"/>
</g>
<!-- Node3 -->
<g id="node3" class="node">
<title>Node3</title>
<g id="a_node3"><a xlink:href="a00328.html" target="_top" xlink:title=" ">
<polygon fill="white" stroke="black" points="0.5,-557.5 0.5,-636.5 132.5,-636.5 132.5,-557.5 0.5,-557.5"/>
<text text-anchor="middle" x="66.5" y="-624.5" font-family="Helvetica,sans-Serif" font-size="10.00">CO_Security_Node</text>
<polyline fill="none" stroke="black" points="0.5,-617.5 132.5,-617.5 "/>
<text text-anchor="start" x="8.5" y="-605.5" font-family="Helvetica,sans-Serif" font-size="10.00"># $_ids</text>
<polyline fill="none" stroke="black" points="0.5,-598.5 132.5,-598.5 "/>
<text text-anchor="start" x="8.5" y="-586.5" font-family="Helvetica,sans-Serif" font-size="10.00">+ __construct()</text>
<text text-anchor="start" x="8.5" y="-575.5" font-family="Helvetica,sans-Serif" font-size="10.00"># _default_setup()</text>
<text text-anchor="start" x="8.5" y="-564.5" font-family="Helvetica,sans-Serif" font-size="10.00"># _build_parameter_array()</text>
</a>
</g>
</g>
<!-- Node3&#45;&gt;Node2 -->
<g id="edge2" class="edge">
<title>Node3&#45;&gt;Node2</title>
<path fill="none" stroke="midnightblue" d="M66.5,-546.96C66.5,-538.71 66.5,-529.82 66.5,-520.62"/>
<polygon fill="none" stroke="midnightblue" points="63,-547.05 66.5,-557.05 70,-547.05 63,-547.05"/>
</g>
<!-- Node4 -->
<g id="node4" class="node">
<title>Node4</title>
<g id="a_node4"><a xlink:href="a00308.html" target="_top" xlink:title=" ">
<polygon fill="white" stroke="black" points="0.5,-673.5 0.5,-1027.5 132.5,-1027.5 132.5,-673.5 0.5,-673.5"/>
<text text-anchor="middle" x="66.5" y="-1015.5" font-family="Helvetica,sans-Serif" font-size="10.00">A_CO_DB_Table_Base</text>
<polyline fill="none" stroke="black" points="0.5,-1008.5 132.5,-1008.5 "/>
<text text-anchor="start" x="8.5" y="-996.5" font-family="Helvetica,sans-Serif" font-size="10.00">+ $class_description</text>
<text text-anchor="start" x="8.5" y="-985.5" font-family="Helvetica,sans-Serif" font-size="10.00">+ $instance_description</text>
<text text-anchor="start" x="8.5" y="-974.5" font-family="Helvetica,sans-Serif" font-size="10.00">+ $last_access</text>
<text text-anchor="start" x="8.5" y="-963.5" font-family="Helvetica,sans-Serif" font-size="10.00">+ $name</text>
<text text-anchor="start" x="8.5" y="-952.5" font-family="Helvetica,sans-Serif" font-size="10.00">+ $read_security_id</text>
<text text-anchor="start" x="8.5" y="-941.5" font-family="Helvetica,sans-Serif" font-size="10.00">+ $write_security_id</text>
<text text-anchor="start" x="8.5" y="-930.5" font-family="Helvetica,sans-Serif" font-size="10.00">+ $context</text>
<text text-anchor="start" x="8.5" y="-919.5" font-family="Helvetica,sans-Serif" font-size="10.00">+ $error</text>
<text text-anchor="start" x="8.5" y="-908.5" font-family="Helvetica,sans-Serif" font-size="10.00"># $_db_object</text>
<text text-anchor="start" x="8.5" y="-897.5" font-family="Helvetica,sans-Serif" font-size="10.00"># $_id</text>
<text text-anchor="start" x="8.5" y="-886.5" font-family="Helvetica,sans-Serif" font-size="10.00"># $_batch_mode</text>
<polyline fill="none" stroke="black" points="0.5,-879.5 132.5,-879.5 "/>
<text text-anchor="start" x="8.5" y="-867.5" font-family="Helvetica,sans-Serif" font-size="10.00">+ __construct()</text>
<text text-anchor="start" x="8.5" y="-856.5" font-family="Helvetica,sans-Serif" font-size="10.00">+ set_batch_mode()</text>
<text text-anchor="start" x="8.5" y="-845.5" font-family="Helvetica,sans-Serif" font-size="10.00">+ clear_batch_mode()</text>
<text text-anchor="start" x="8.5" y="-834.5" font-family="Helvetica,sans-Serif" font-size="10.00">+ load_from_db()</text>
<text text-anchor="start" x="8.5" y="-823.5" font-family="Helvetica,sans-Serif" font-size="10.00">+ id()</text>
<text text-anchor="start" x="8.5" y="-812.5" font-family="Helvetica,sans-Serif" font-size="10.00">+ lock()</text>
<text text-anchor="start" x="8.5" y="-801.5" font-family="Helvetica,sans-Serif" font-size="10.00">+ locked()</text>
<text text-anchor="start" x="8.5" y="-790.5" font-family="Helvetica,sans-Serif" font-size="10.00">+ danger_will_robinson</text>
<text text-anchor="start" x="8.5" y="-779.5" font-family="Helvetica,sans-Serif" font-size="10.00">_danger_clear_id()</text>
<text text-anchor="start" x="8.5" y="-768.5" font-family="Helvetica,sans-Serif" font-size="10.00">+ user_can_read()</text>
<text text-anchor="start" x="8.5" y="-757.5" font-family="Helvetica,sans-Serif" font-size="10.00">+ user_can_write()</text>
<text text-anchor="start" x="8.5" y="-746.5" font-family="Helvetica,sans-Serif" font-size="10.00">and 9 more...</text>
<text text-anchor="start" x="8.5" y="-735.5" font-family="Helvetica,sans-Serif" font-size="10.00"># _default_setup()</text>
<text text-anchor="start" x="8.5" y="-724.5" font-family="Helvetica,sans-Serif" font-size="10.00"># _build_parameter_array()</text>
<text text-anchor="start" x="8.5" y="-713.5" font-family="Helvetica,sans-Serif" font-size="10.00"># _badger_serialize()</text>
<text text-anchor="start" x="8.5" y="-702.5" font-family="Helvetica,sans-Serif" font-size="10.00"># _badger_unserialize()</text>
<text text-anchor="start" x="8.5" y="-691.5" font-family="Helvetica,sans-Serif" font-size="10.00"># _write_to_db()</text>
<text text-anchor="start" x="8.5" y="-680.5" font-family="Helvetica,sans-Serif" font-size="10.00"># _seppuku()</text>
</a>
</g>
</g>
<!-- Node4&#45;&gt;Node3 -->
<g id="edge3" class="edge">
<title>Node4&#45;&gt;Node3</title>
<path fill="none" stroke="midnightblue" d="M66.5,-663.31C66.5,-653.77 66.5,-644.84 66.5,-636.83"/>
<polygon fill="none" stroke="midnightblue" points="63,-663.46 66.5,-673.46 70,-663.46 63,-663.46"/>
</g>
</g>
</svg>
