<?xml version="1.0" encoding="UTF-8" standalone="no"?>
<!DOCTYPE svg PUBLIC "-//W3C//DTD SVG 1.1//EN"
 "http://www.w3.org/Graphics/SVG/1.1/DTD/svg11.dtd">
<!-- Generated by graphviz version 2.40.1 (20161225.0304)
 -->
<!-- Title: CO_Andisol\get_login_item Pages: 1 -->
<svg width="602pt" height="84pt"
 viewBox="0.00 0.00 601.92 84.00" xmlns="http://www.w3.org/2000/svg" xmlns:xlink="http://www.w3.org/1999/xlink">
<g id="graph0" class="graph" transform="scale(1 1) rotate(0) translate(4 80)">
<title>CO_Andisol\get_login_item</title>
<polygon fill="#ffffff" stroke="transparent" points="-4,4 -4,-80 597.9189,-80 597.9189,4 -4,4"/>
<!-- Node1 -->
<g id="node1" class="node">
<title>Node1</title>
<g id="a_node1"><a xlink:title=" ">
<polygon fill="#bfbfbf" stroke="#000000" points="0,-57.5 0,-75.5 137.1816,-75.5 137.1816,-57.5 0,-57.5"/>
<text text-anchor="middle" x="68.5908" y="-63.5" font-family="Helvetica,sans-Serif" font-size="10.00" fill="#000000">CO_Andisol\get_login_item</text>
</a>
</g>
</g>
<!-- Node2 -->
<g id="node2" class="node">
<title>Node2</title>
<g id="a_node2"><a xlink:href="a00219.html#acda267f1d6a8e496e167ed46fe590dc6" target="_top" xlink:title=" ">
<polygon fill="#ffffff" stroke="#000000" points="453.3975,-33.5 453.3975,-61.5 593.9189,-61.5 593.9189,-33.5 453.3975,-33.5"/>
<text text-anchor="start" x="461.3975" y="-49.5" font-family="Helvetica,sans-Serif" font-size="10.00" fill="#000000">CO_Andisol\get_chameleon</text>
<text text-anchor="middle" x="523.6582" y="-39.5" font-family="Helvetica,sans-Serif" font-size="10.00" fill="#000000">_instance</text>
</a>
</g>
</g>
<!-- Node1&#45;&gt;Node2 -->
<g id="edge1" class="edge">
<title>Node1&#45;&gt;Node2</title>
<path fill="none" stroke="#191970" d="M137.234,-68.3676C207.6798,-69.6157 320.3933,-69.7568 417.3975,-61.5 425.7262,-60.7911 434.4039,-59.8999 443.0516,-58.9122"/>
<polygon fill="#191970" stroke="#191970" points="443.6482,-62.3661 453.1669,-57.7135 442.8244,-55.4147 443.6482,-62.3661"/>
</g>
<!-- Node3 -->
<g id="node3" class="node">
<title>Node3</title>
<g id="a_node3"><a xlink:href="a00219.html#ac2a2dcb99dc927789b0ffa09c24946de" target="_top" xlink:title=" ">
<polygon fill="#ffffff" stroke="#000000" points="173.1816,-38.5 173.1816,-56.5 288.6934,-56.5 288.6934,-38.5 173.1816,-38.5"/>
<text text-anchor="middle" x="230.9375" y="-44.5" font-family="Helvetica,sans-Serif" font-size="10.00" fill="#000000">CO_Andisol\logged_in</text>
</a>
</g>
</g>
<!-- Node1&#45;&gt;Node3 -->
<g id="edge2" class="edge">
<title>Node1&#45;&gt;Node3</title>
<path fill="none" stroke="#191970" d="M137.4404,-58.4423C145.8577,-57.4572 154.456,-56.4509 162.8618,-55.4671"/>
<polygon fill="#191970" stroke="#191970" points="163.4692,-58.92 172.9945,-54.2813 162.6554,-51.9675 163.4692,-58.92"/>
</g>
<!-- Node3&#45;&gt;Node2 -->
<g id="edge3" class="edge">
<title>Node3&#45;&gt;Node2</title>
<path fill="none" stroke="#191970" d="M288.7697,-47.5C332.8688,-47.5 394.1434,-47.5 443.0516,-47.5"/>
<polygon fill="#191970" stroke="#191970" points="443.2898,-51.0001 453.2897,-47.5 443.2897,-44.0001 443.2898,-51.0001"/>
</g>
<!-- Node4 -->
<g id="node4" class="node">
<title>Node4</title>
<g id="a_node4"><a xlink:href="a00219.html#a4b0ec12b29ce4812cbb4169b68770f66" target="_top" xlink:title=" ">
<polygon fill="#ffffff" stroke="#000000" points="324.6934,-.5 324.6934,-18.5 417.3975,-18.5 417.3975,-.5 324.6934,-.5"/>
<text text-anchor="middle" x="371.0454" y="-6.5" font-family="Helvetica,sans-Serif" font-size="10.00" fill="#000000">CO_Andisol\valid</text>
</a>
</g>
</g>
<!-- Node3&#45;&gt;Node4 -->
<g id="edge4" class="edge">
<title>Node3&#45;&gt;Node4</title>
<path fill="none" stroke="#191970" d="M264.1411,-38.4945C283.1956,-33.3266 307.3349,-26.7795 327.8518,-21.215"/>
<polygon fill="#191970" stroke="#191970" points="328.8595,-24.5682 337.5946,-18.5725 327.0271,-17.8123 328.8595,-24.5682"/>
</g>
<!-- Node4&#45;&gt;Node2 -->
<g id="edge5" class="edge">
<title>Node4&#45;&gt;Node2</title>
<path fill="none" stroke="#191970" d="M407.2125,-18.5055C422.1701,-22.2299 440.0043,-26.6705 457.1651,-30.9435"/>
<polygon fill="#191970" stroke="#191970" points="456.6151,-34.4133 467.1646,-33.4333 458.3065,-27.6207 456.6151,-34.4133"/>
</g>
</g>
</svg>
