<?xml version="1.0" encoding="UTF-8" standalone="no"?>
<!DOCTYPE svg PUBLIC "-//W3C//DTD SVG 1.1//EN"
 "http://www.w3.org/Graphics/SVG/1.1/DTD/svg11.dtd">
<!-- Generated by graphviz version 2.40.1 (20161225.0304)
 -->
<!-- Title: CO_Andisol\generic_search Pages: 1 -->
<svg width="256pt" height="178pt"
 viewBox="0.00 0.00 255.54 178.00" xmlns="http://www.w3.org/2000/svg" xmlns:xlink="http://www.w3.org/1999/xlink">
<g id="graph0" class="graph" transform="scale(1 1) rotate(0) translate(4 174)">
<title>CO_Andisol\generic_search</title>
<polygon fill="#ffffff" stroke="transparent" points="-4,4 -4,-174 251.541,-174 251.541,4 -4,4"/>
<!-- Node1 -->
<g id="node1" class="node">
<title>Node1</title>
<g id="a_node1"><a xlink:title=" ">
<polygon fill="#bfbfbf" stroke="#000000" points="142.6055,-70.5 142.6055,-98.5 247.541,-98.5 247.541,-70.5 142.6055,-70.5"/>
<text text-anchor="start" x="150.6055" y="-86.5" font-family="Helvetica,sans-Serif" font-size="10.00" fill="#000000">CO_Andisol\generic</text>
<text text-anchor="middle" x="195.0732" y="-76.5" font-family="Helvetica,sans-Serif" font-size="10.00" fill="#000000">_search</text>
</a>
</g>
</g>
<!-- Node2 -->
<g id="node2" class="node">
<title>Node2</title>
<g id="a_node2"><a xlink:href="a00216.html#a86bc3621ffe539ac5a9239375f0a786b" target="_top" xlink:title=" ">
<polygon fill="#ffffff" stroke="#000000" points="2.5,-141.5 2.5,-169.5 104.1055,-169.5 104.1055,-141.5 2.5,-141.5"/>
<text text-anchor="start" x="10.5" y="-157.5" font-family="Helvetica,sans-Serif" font-size="10.00" fill="#000000">CO_Andisol\get_all</text>
<text text-anchor="middle" x="53.3027" y="-147.5" font-family="Helvetica,sans-Serif" font-size="10.00" fill="#000000">_login_users</text>
</a>
</g>
</g>
<!-- Node1&#45;&gt;Node2 -->
<g id="edge1" class="edge">
<title>Node1&#45;&gt;Node2</title>
<path fill="none" stroke="#191970" d="M161.4289,-103.6773C145.0648,-112.7664 124.9997,-123.5637 106.6055,-132.5 100.3503,-135.5389 93.5948,-138.6105 87.063,-141.4765"/>
<polygon fill="#191970" stroke="#191970" points="163.5765,-106.4864 170.5955,-98.5501 160.1593,-100.3771 163.5765,-106.4864"/>
</g>
<!-- Node3 -->
<g id="node3" class="node">
<title>Node3</title>
<g id="a_node3"><a xlink:href="a00216.html#acd1e344f9f0087ee41414e6aa5f13e1e" target="_top" xlink:title=" ">
<polygon fill="#ffffff" stroke="#000000" points="2.5,-94.5 2.5,-122.5 104.1055,-122.5 104.1055,-94.5 2.5,-94.5"/>
<text text-anchor="start" x="10.5" y="-110.5" font-family="Helvetica,sans-Serif" font-size="10.00" fill="#000000">CO_Andisol\get_all</text>
<text text-anchor="middle" x="53.3027" y="-100.5" font-family="Helvetica,sans-Serif" font-size="10.00" fill="#000000">_standalone_users</text>
</a>
</g>
</g>
<!-- Node1&#45;&gt;Node3 -->
<g id="edge2" class="edge">
<title>Node1&#45;&gt;Node3</title>
<path fill="none" stroke="#191970" d="M132.2339,-95.1379C122.8754,-96.7222 113.3273,-98.3386 104.2536,-99.8747"/>
<polygon fill="#191970" stroke="#191970" points="133.0076,-98.5568 142.2831,-93.4367 131.8392,-91.655 133.0076,-98.5568"/>
</g>
<!-- Node4 -->
<g id="node4" class="node">
<title>Node4</title>
<g id="a_node4"><a xlink:href="a00216.html#a9d3578d72df7af2ff07e23ea7b1b1af9" target="_top" xlink:title=" ">
<polygon fill="#ffffff" stroke="#000000" points="2.5,-47.5 2.5,-75.5 104.1055,-75.5 104.1055,-47.5 2.5,-47.5"/>
<text text-anchor="start" x="10.5" y="-63.5" font-family="Helvetica,sans-Serif" font-size="10.00" fill="#000000">CO_Andisol\get_all</text>
<text text-anchor="middle" x="53.3027" y="-53.5" font-family="Helvetica,sans-Serif" font-size="10.00" fill="#000000">_users</text>
</a>
</g>
</g>
<!-- Node1&#45;&gt;Node4 -->
<g id="edge3" class="edge">
<title>Node1&#45;&gt;Node4</title>
<path fill="none" stroke="#191970" d="M132.2339,-74.3053C122.8754,-72.787 113.3273,-71.238 104.2536,-69.766"/>
<polygon fill="#191970" stroke="#191970" points="131.8517,-77.789 142.2831,-75.9356 132.9727,-70.8793 131.8517,-77.789"/>
</g>
<!-- Node5 -->
<g id="node5" class="node">
<title>Node5</title>
<g id="a_node5"><a xlink:href="a00216.html#a0a2d1cc26eb803fdb2a92452b5f2bf12" target="_top" xlink:title=" ">
<polygon fill="#ffffff" stroke="#000000" points="0,-.5 0,-28.5 106.6055,-28.5 106.6055,-.5 0,-.5"/>
<text text-anchor="start" x="8" y="-16.5" font-family="Helvetica,sans-Serif" font-size="10.00" fill="#000000">CO_Andisol\location</text>
<text text-anchor="middle" x="53.3027" y="-6.5" font-family="Helvetica,sans-Serif" font-size="10.00" fill="#000000">_search</text>
</a>
</g>
</g>
<!-- Node1&#45;&gt;Node5 -->
<g id="edge4" class="edge">
<title>Node1&#45;&gt;Node5</title>
<path fill="none" stroke="#191970" d="M159.8705,-65.6158C143.7436,-57.1148 124.3159,-47.0831 106.6055,-38.5 99.7559,-35.1805 92.3448,-31.746 85.289,-28.549"/>
<polygon fill="#191970" stroke="#191970" points="158.4711,-68.8351 168.9464,-70.4216 161.7468,-62.6489 158.4711,-68.8351"/>
</g>
</g>
</svg>
