<?xml version="1.0" encoding="UTF-8" standalone="no"?>
<!DOCTYPE svg PUBLIC "-//W3C//DTD SVG 1.1//EN"
 "http://www.w3.org/Graphics/SVG/1.1/DTD/svg11.dtd">
<!-- Generated by graphviz version 2.40.1 (20161225.0304)
 -->
<!-- Title: CO_Andisol\create_place_collection Pages: 1 -->
<svg width="1076pt" height="89pt"
 viewBox="0.00 0.00 1075.88 89.00" xmlns="http://www.w3.org/2000/svg" xmlns:xlink="http://www.w3.org/1999/xlink">
<g id="graph0" class="graph" transform="scale(1 1) rotate(0) translate(4 85)">
<title>CO_Andisol\create_place_collection</title>
<polygon fill="#ffffff" stroke="transparent" points="-4,4 -4,-85 1071.8779,-85 1071.8779,4 -4,4"/>
<!-- Node1 -->
<g id="node1" class="node">
<title>Node1</title>
<g id="a_node1"><a xlink:title=" ">
<polygon fill="#bfbfbf" stroke="#000000" points="0,-52.5 0,-80.5 129.3984,-80.5 129.3984,-52.5 0,-52.5"/>
<text text-anchor="start" x="8" y="-68.5" font-family="Helvetica,sans-Serif" font-size="10.00" fill="#000000">CO_Andisol\create_place</text>
<text text-anchor="middle" x="64.6992" y="-58.5" font-family="Helvetica,sans-Serif" font-size="10.00" fill="#000000">_collection</text>
</a>
</g>
</g>
<!-- Node2 -->
<g id="node2" class="node">
<title>Node2</title>
<g id="a_node2"><a xlink:href="a00219.html#a79103b0d231d1dcc1f7c1921e5118621" target="_top" xlink:title=" ">
<polygon fill="#ffffff" stroke="#000000" points="165.3984,-57.5 165.3984,-75.5 294.7969,-75.5 294.7969,-57.5 165.3984,-57.5"/>
<text text-anchor="middle" x="230.0977" y="-63.5" font-family="Helvetica,sans-Serif" font-size="10.00" fill="#000000">CO_Andisol\create_place</text>
</a>
</g>
</g>
<!-- Node1&#45;&gt;Node2 -->
<g id="edge1" class="edge">
<title>Node1&#45;&gt;Node2</title>
<path fill="none" stroke="#191970" d="M129.5943,-66.5C138.0507,-66.5 146.7677,-66.5 155.3687,-66.5"/>
<polygon fill="#191970" stroke="#191970" points="155.3897,-70.0001 165.3897,-66.5 155.3896,-63.0001 155.3897,-70.0001"/>
</g>
<!-- Node3 -->
<g id="node3" class="node">
<title>Node3</title>
<g id="a_node3"><a xlink:href="a00219.html#a1783b1403b768959f80f17b08a5e8f82" target="_top" xlink:title=" ">
<polygon fill="#ffffff" stroke="#000000" points="330.7969,-52.5 330.7969,-80.5 469.6484,-80.5 469.6484,-52.5 330.7969,-52.5"/>
<text text-anchor="start" x="338.7969" y="-68.5" font-family="Helvetica,sans-Serif" font-size="10.00" fill="#000000">CO_Andisol\create_general</text>
<text text-anchor="middle" x="400.2227" y="-58.5" font-family="Helvetica,sans-Serif" font-size="10.00" fill="#000000">_data_item</text>
</a>
</g>
</g>
<!-- Node2&#45;&gt;Node3 -->
<g id="edge2" class="edge">
<title>Node2&#45;&gt;Node3</title>
<path fill="none" stroke="#191970" d="M294.8999,-66.5C303.3363,-66.5 312.0551,-66.5 320.6972,-66.5"/>
<polygon fill="#191970" stroke="#191970" points="320.7858,-70.0001 330.7857,-66.5 320.7857,-63.0001 320.7858,-70.0001"/>
</g>
<!-- Node4 -->
<g id="node4" class="node">
<title>Node4</title>
<g id="a_node4"><a xlink:href="a00219.html#a190232857416d5f1e7033452ac1bf6c0" target="_top" xlink:title=" ">
<polygon fill="#ffffff" stroke="#000000" points="505.6484,-52.5 505.6484,-80.5 611.1406,-80.5 611.1406,-52.5 505.6484,-52.5"/>
<text text-anchor="start" x="513.6484" y="-68.5" font-family="Helvetica,sans-Serif" font-size="10.00" fill="#000000">CO_Andisol\_create</text>
<text text-anchor="middle" x="558.3945" y="-58.5" font-family="Helvetica,sans-Serif" font-size="10.00" fill="#000000">_db_object</text>
</a>
</g>
</g>
<!-- Node3&#45;&gt;Node4 -->
<g id="edge3" class="edge">
<title>Node3&#45;&gt;Node4</title>
<path fill="none" stroke="#191970" d="M470.0596,-66.5C478.5319,-66.5 487.1478,-66.5 495.5111,-66.5"/>
<polygon fill="#191970" stroke="#191970" points="495.5607,-70.0001 505.5607,-66.5 495.5606,-63.0001 495.5607,-70.0001"/>
</g>
<!-- Node5 -->
<g id="node5" class="node">
<title>Node5</title>
<g id="a_node5"><a xlink:href="a00219.html#acda267f1d6a8e496e167ed46fe590dc6" target="_top" xlink:title=" ">
<polygon fill="#ffffff" stroke="#000000" points="927.3564,-33.5 927.3564,-61.5 1067.8779,-61.5 1067.8779,-33.5 927.3564,-33.5"/>
<text text-anchor="start" x="935.3564" y="-49.5" font-family="Helvetica,sans-Serif" font-size="10.00" fill="#000000">CO_Andisol\get_chameleon</text>
<text text-anchor="middle" x="997.6172" y="-39.5" font-family="Helvetica,sans-Serif" font-size="10.00" fill="#000000">_instance</text>
</a>
</g>
</g>
<!-- Node4&#45;&gt;Node5 -->
<g id="edge4" class="edge">
<title>Node4&#45;&gt;Node5</title>
<path fill="none" stroke="#191970" d="M611.2738,-67.9796C677.0449,-69.2969 792.7094,-69.8966 891.3564,-61.5 899.6852,-60.7911 908.3628,-59.8999 917.0106,-58.9122"/>
<polygon fill="#191970" stroke="#191970" points="917.6072,-62.3661 927.1258,-57.7135 916.7834,-55.4147 917.6072,-62.3661"/>
</g>
<!-- Node6 -->
<g id="node6" class="node">
<title>Node6</title>
<g id="a_node6"><a xlink:href="a00219.html#ac2a2dcb99dc927789b0ffa09c24946de" target="_top" xlink:title=" ">
<polygon fill="#ffffff" stroke="#000000" points="647.1406,-38.5 647.1406,-56.5 762.6523,-56.5 762.6523,-38.5 647.1406,-38.5"/>
<text text-anchor="middle" x="704.8965" y="-44.5" font-family="Helvetica,sans-Serif" font-size="10.00" fill="#000000">CO_Andisol\logged_in</text>
</a>
</g>
</g>
<!-- Node4&#45;&gt;Node6 -->
<g id="edge5" class="edge">
<title>Node4&#45;&gt;Node6</title>
<path fill="none" stroke="#191970" d="M611.2851,-59.6406C619.6502,-58.5557 628.4001,-57.4209 637.049,-56.2992"/>
<polygon fill="#191970" stroke="#191970" points="637.6597,-59.7494 647.1265,-54.9923 636.7594,-52.8075 637.6597,-59.7494"/>
</g>
<!-- Node6&#45;&gt;Node5 -->
<g id="edge6" class="edge">
<title>Node6&#45;&gt;Node5</title>
<path fill="none" stroke="#191970" d="M762.7287,-47.5C806.8278,-47.5 868.1024,-47.5 917.0106,-47.5"/>
<polygon fill="#191970" stroke="#191970" points="917.2487,-51.0001 927.2487,-47.5 917.2487,-44.0001 917.2487,-51.0001"/>
</g>
<!-- Node7 -->
<g id="node7" class="node">
<title>Node7</title>
<g id="a_node7"><a xlink:href="a00219.html#a4b0ec12b29ce4812cbb4169b68770f66" target="_top" xlink:title=" ">
<polygon fill="#ffffff" stroke="#000000" points="798.6523,-.5 798.6523,-18.5 891.3564,-18.5 891.3564,-.5 798.6523,-.5"/>
<text text-anchor="middle" x="845.0044" y="-6.5" font-family="Helvetica,sans-Serif" font-size="10.00" fill="#000000">CO_Andisol\valid</text>
</a>
</g>
</g>
<!-- Node6&#45;&gt;Node7 -->
<g id="edge7" class="edge">
<title>Node6&#45;&gt;Node7</title>
<path fill="none" stroke="#191970" d="M738.1001,-38.4945C757.1546,-33.3266 781.2939,-26.7795 801.8108,-21.215"/>
<polygon fill="#191970" stroke="#191970" points="802.8184,-24.5682 811.5536,-18.5725 800.986,-17.8123 802.8184,-24.5682"/>
</g>
<!-- Node7&#45;&gt;Node5 -->
<g id="edge8" class="edge">
<title>Node7&#45;&gt;Node5</title>
<path fill="none" stroke="#191970" d="M881.1715,-18.5055C896.1291,-22.2299 913.9633,-26.6705 931.1241,-30.9435"/>
<polygon fill="#191970" stroke="#191970" points="930.5741,-34.4133 941.1235,-33.4333 932.2655,-27.6207 930.5741,-34.4133"/>
</g>
</g>
</svg>
