<?xml version="1.0" encoding="UTF-8" standalone="no"?>
<!DOCTYPE svg PUBLIC "-//W3C//DTD SVG 1.1//EN"
 "http://www.w3.org/Graphics/SVG/1.1/DTD/svg11.dtd">
<!-- Generated by graphviz version 2.40.1 (20161225.0304)
 -->
<!-- Title: CO_Basalt\_baseline_bulk_loader Pages: 1 -->
<svg width="748pt" height="37pt"
 viewBox="0.00 0.00 748.38 37.00" xmlns="http://www.w3.org/2000/svg" xmlns:xlink="http://www.w3.org/1999/xlink">
<g id="graph0" class="graph" transform="scale(1 1) rotate(0) translate(4 33)">
<title>CO_Basalt\_baseline_bulk_loader</title>
<polygon fill="#ffffff" stroke="transparent" points="-4,4 -4,-33 744.377,-33 744.377,4 -4,4"/>
<!-- Node16 -->
<g id="node1" class="node">
<title>Node16</title>
<polygon fill="#bfbfbf" stroke="#000000" points="0,-.5 0,-28.5 109.9453,-28.5 109.9453,-.5 0,-.5"/>
<text text-anchor="start" x="8" y="-16.5" font-family="Helvetica,sans-Serif" font-size="10.00" fill="#000000">CO_Basalt\_baseline</text>
<text text-anchor="middle" x="54.9727" y="-6.5" font-family="Helvetica,sans-Serif" font-size="10.00" fill="#000000">_bulk_loader</text>
</g>
<!-- Node17 -->
<g id="node2" class="node">
<title>Node17</title>
<g id="a_node2"><a xlink:href="a00203.html#a60ce04d2fc76ab876a428500dccb7dd8" target="_top" xlink:title="CO_Basalt\\_process\l_baseline_command">
<polygon fill="#ffffff" stroke="#000000" points="145.9453,-.5 145.9453,-28.5 254.2256,-28.5 254.2256,-.5 145.9453,-.5"/>
<text text-anchor="start" x="153.9453" y="-16.5" font-family="Helvetica,sans-Serif" font-size="10.00" fill="#000000">CO_Basalt\_process</text>
<text text-anchor="middle" x="200.0854" y="-6.5" font-family="Helvetica,sans-Serif" font-size="10.00" fill="#000000">_baseline_command</text>
</a>
</g>
</g>
<!-- Node16&#45;&gt;Node17 -->
<g id="edge1" class="edge">
<title>Node16&#45;&gt;Node17</title>
<path fill="none" stroke="#191970" d="M120.516,-14.5C129.013,-14.5 137.6395,-14.5 145.9235,-14.5"/>
<polygon fill="#191970" stroke="#191970" points="120.2476,-11.0001 110.2475,-14.5 120.2475,-18.0001 120.2476,-11.0001"/>
</g>
<!-- Node18 -->
<g id="node3" class="node">
<title>Node18</title>
<g id="a_node3"><a xlink:href="a00203.html#a474660b01c925a4d47e918c02944ebf7" target="_top" xlink:title="CO_Basalt\\process_command">
<polygon fill="#ffffff" stroke="#000000" points="290.2256,-5.5 290.2256,-23.5 441.8408,-23.5 441.8408,-5.5 290.2256,-5.5"/>
<text text-anchor="middle" x="366.0332" y="-11.5" font-family="Helvetica,sans-Serif" font-size="10.00" fill="#000000">CO_Basalt\process_command</text>
</a>
</g>
</g>
<!-- Node17&#45;&gt;Node18 -->
<g id="edge2" class="edge">
<title>Node17&#45;&gt;Node18</title>
<path fill="none" stroke="#191970" d="M264.5241,-14.5C272.9345,-14.5 281.6126,-14.5 290.1884,-14.5"/>
<polygon fill="#191970" stroke="#191970" points="264.423,-11.0001 254.423,-14.5 264.4229,-18.0001 264.423,-11.0001"/>
</g>
<!-- Node19 -->
<g id="node4" class="node">
<title>Node19</title>
<g id="a_node4"><a xlink:href="a00203.html#a528297edc9fb3e5e3c8f2e9270621853" target="_top" xlink:title="CO_Basalt\\_process\l_command">
<polygon fill="#ffffff" stroke="#000000" points="477.8408,-.5 477.8408,-28.5 585.5498,-28.5 585.5498,-.5 477.8408,-.5"/>
<text text-anchor="start" x="485.8408" y="-16.5" font-family="Helvetica,sans-Serif" font-size="10.00" fill="#000000">CO_Basalt\_process</text>
<text text-anchor="middle" x="531.6953" y="-6.5" font-family="Helvetica,sans-Serif" font-size="10.00" fill="#000000">_command</text>
</a>
</g>
</g>
<!-- Node18&#45;&gt;Node19 -->
<g id="edge3" class="edge">
<title>Node18&#45;&gt;Node19</title>
<path fill="none" stroke="#191970" d="M452.1464,-14.5C460.7251,-14.5 469.2567,-14.5 477.3725,-14.5"/>
<polygon fill="#191970" stroke="#191970" points="452.0763,-11.0001 442.0763,-14.5 452.0763,-18.0001 452.0763,-11.0001"/>
</g>
<!-- Node20 -->
<g id="node5" class="node">
<title>Node20</title>
<g id="a_node5"><a xlink:href="a00203.html#aad1b60cb5230efedfc34a931546d415b" target="_top" xlink:title="CO_Basalt\\__construct">
<polygon fill="#ffffff" stroke="#000000" points="621.5498,-5.5 621.5498,-23.5 740.377,-23.5 740.377,-5.5 621.5498,-5.5"/>
<text text-anchor="middle" x="680.9634" y="-11.5" font-family="Helvetica,sans-Serif" font-size="10.00" fill="#000000">CO_Basalt\__construct</text>
</a>
</g>
</g>
<!-- Node19&#45;&gt;Node20 -->
<g id="edge4" class="edge">
<title>Node19&#45;&gt;Node20</title>
<path fill="none" stroke="#191970" d="M595.8026,-14.5C604.2795,-14.5 612.9412,-14.5 621.3386,-14.5"/>
<polygon fill="#191970" stroke="#191970" points="595.5845,-11.0001 585.5845,-14.5 595.5845,-18.0001 595.5845,-11.0001"/>
</g>
</g>
</svg>
