<?xml version="1.0" encoding="UTF-8" standalone="no"?>
<!DOCTYPE svg PUBLIC "-//W3C//DTD SVG 1.1//EN"
 "http://www.w3.org/Graphics/SVG/1.1/DTD/svg11.dtd">
<!-- Generated by graphviz version 2.40.1 (20161225.0304)
 -->
<!-- Title: CO_Andisol\get_data_access_class_by_id Pages: 1 -->
<svg width="296pt" height="37pt"
 viewBox="0.00 0.00 295.58 37.00" xmlns="http://www.w3.org/2000/svg" xmlns:xlink="http://www.w3.org/1999/xlink">
<g id="graph0" class="graph" transform="scale(1 1) rotate(0) translate(4 33)">
<title>CO_Andisol\get_data_access_class_by_id</title>
<polygon fill="#ffffff" stroke="transparent" points="-4,4 -4,-33 291.585,-33 291.585,4 -4,4"/>
<!-- Node223 -->
<g id="node1" class="node">
<title>Node223</title>
<polygon fill="#bfbfbf" stroke="#000000" points="0,-.5 0,-28.5 111.0635,-28.5 111.0635,-.5 0,-.5"/>
<text text-anchor="start" x="8" y="-16.5" font-family="Helvetica,sans-Serif" font-size="10.00" fill="#000000">CO_Andisol\get_data</text>
<text text-anchor="middle" x="55.5317" y="-6.5" font-family="Helvetica,sans-Serif" font-size="10.00" fill="#000000">_access_class_by_id</text>
</g>
<!-- Node224 -->
<g id="node2" class="node">
<title>Node224</title>
<g id="a_node2"><a xlink:href="a00219.html#acda267f1d6a8e496e167ed46fe590dc6" target="_top" xlink:title="CO_Andisol\\get_chameleon\l_instance">
<polygon fill="#ffffff" stroke="#000000" points="147.0635,-.5 147.0635,-28.5 287.585,-28.5 287.585,-.5 147.0635,-.5"/>
<text text-anchor="start" x="155.0635" y="-16.5" font-family="Helvetica,sans-Serif" font-size="10.00" fill="#000000">CO_Andisol\get_chameleon</text>
<text text-anchor="middle" x="217.3242" y="-6.5" font-family="Helvetica,sans-Serif" font-size="10.00" fill="#000000">_instance</text>
</a>
</g>
</g>
<!-- Node223&#45;&gt;Node224 -->
<g id="edge1" class="edge">
<title>Node223&#45;&gt;Node224</title>
<path fill="none" stroke="#191970" d="M111.2115,-14.5C119.4897,-14.5 128.1592,-14.5 136.8227,-14.5"/>
<polygon fill="#191970" stroke="#191970" points="136.9664,-18.0001 146.9663,-14.5 136.9663,-11.0001 136.9664,-18.0001"/>
</g>
</g>
</svg>
