<?xml version="1.0" encoding="UTF-8" standalone="no"?>
<!DOCTYPE svg PUBLIC "-//W3C//DTD SVG 1.1//EN"
 "http://www.w3.org/Graphics/SVG/1.1/DTD/svg11.dtd">
<!-- Generated by graphviz version 2.40.1 (20161225.0304)
 -->
<!-- Title: CO_Place\lookup_address Pages: 1 -->
<svg width="463pt" height="84pt"
 viewBox="0.00 0.00 462.65 84.00" xmlns="http://www.w3.org/2000/svg" xmlns:xlink="http://www.w3.org/1999/xlink">
<g id="graph0" class="graph" transform="scale(1 1) rotate(0) translate(4 80)">
<title>CO_Place\lookup_address</title>
<polygon fill="#ffffff" stroke="transparent" points="-4,4 -4,-80 458.6533,-80 458.6533,4 -4,4"/>
<!-- Node36 -->
<g id="node1" class="node">
<title>Node36</title>
<polygon fill="#bfbfbf" stroke="#000000" points="0,-28.5 0,-46.5 134.96,-46.5 134.96,-28.5 0,-28.5"/>
<text text-anchor="middle" x="67.48" y="-34.5" font-family="Helvetica,sans-Serif" font-size="10.00" fill="#000000">CO_Place\lookup_address</text>
</g>
<!-- Node37 -->
<g id="node2" class="node">
<title>Node37</title>
<g id="a_node2"><a xlink:href="a00303.html#a56d54ef8e9ee5bf99897dbc4e09e7839" target="_top" xlink:title="This is a function that returns the results of an HTTP call to a URI. It is a lot more secure than fi...">
<polygon fill="#ffffff" stroke="#000000" points="175.9746,-47.5 175.9746,-75.5 288.6836,-75.5 288.6836,-47.5 175.9746,-47.5"/>
<text text-anchor="start" x="183.9746" y="-63.5" font-family="Helvetica,sans-Serif" font-size="10.00" fill="#000000">CO_Chameleon_Utils</text>
<text text-anchor="middle" x="232.3291" y="-53.5" font-family="Helvetica,sans-Serif" font-size="10.00" fill="#000000">\call_curl</text>
</a>
</g>
</g>
<!-- Node36&#45;&gt;Node37 -->
<g id="edge1" class="edge">
<title>Node36&#45;&gt;Node37</title>
<path fill="none" stroke="#191970" d="M129.3327,-46.505C141.2524,-48.2404 153.7853,-50.065 165.8449,-51.8207"/>
<polygon fill="#191970" stroke="#191970" points="165.4398,-55.2986 175.8397,-53.2758 166.4483,-48.3716 165.4398,-55.2986"/>
</g>
<!-- Node38 -->
<g id="node3" class="node">
<title>Node38</title>
<g id="a_node3"><a xlink:href="a00263.html#ac6cd579fa87a0f4fe7e88e265722319a" target="_top" xlink:title="CO_Place\\get_readable\l_address">
<polygon fill="#ffffff" stroke="#000000" points="170.96,-.5 170.96,-28.5 293.6982,-28.5 293.6982,-.5 170.96,-.5"/>
<text text-anchor="start" x="178.96" y="-16.5" font-family="Helvetica,sans-Serif" font-size="10.00" fill="#000000">CO_Place\get_readable</text>
<text text-anchor="middle" x="232.3291" y="-6.5" font-family="Helvetica,sans-Serif" font-size="10.00" fill="#000000">_address</text>
</a>
</g>
</g>
<!-- Node36&#45;&gt;Node38 -->
<g id="edge2" class="edge">
<title>Node36&#45;&gt;Node38</title>
<path fill="none" stroke="#191970" d="M132.1596,-28.4758C141.4997,-27.1727 151.159,-25.825 160.6263,-24.5041"/>
<polygon fill="#191970" stroke="#191970" points="161.3794,-27.933 170.7998,-23.0847 160.4121,-21.0002 161.3794,-27.933"/>
</g>
<!-- Node39 -->
<g id="node4" class="node">
<title>Node39</title>
<g id="a_node4"><a xlink:href="a00263.html#a60b73dee76e98e806f4a872cca13ee58" target="_top" xlink:title="CO_Place\\_get_address\l_element_labels">
<polygon fill="#ffffff" stroke="#000000" points="329.6982,-.5 329.6982,-28.5 454.6533,-28.5 454.6533,-.5 329.6982,-.5"/>
<text text-anchor="start" x="337.6982" y="-16.5" font-family="Helvetica,sans-Serif" font-size="10.00" fill="#000000">CO_Place\_get_address</text>
<text text-anchor="middle" x="392.1758" y="-6.5" font-family="Helvetica,sans-Serif" font-size="10.00" fill="#000000">_element_labels</text>
</a>
</g>
</g>
<!-- Node38&#45;&gt;Node39 -->
<g id="edge3" class="edge">
<title>Node38&#45;&gt;Node39</title>
<path fill="none" stroke="#191970" d="M294.13,-14.5C302.3745,-14.5 310.8905,-14.5 319.3016,-14.5"/>
<polygon fill="#191970" stroke="#191970" points="319.484,-18.0001 329.484,-14.5 319.484,-11.0001 319.484,-18.0001"/>
</g>
</g>
</svg>
