<?xml version="1.0" encoding="UTF-8" standalone="no"?>
<!DOCTYPE svg PUBLIC "-//W3C//DTD SVG 1.1//EN"
 "http://www.w3.org/Graphics/SVG/1.1/DTD/svg11.dtd">
<!-- Generated by graphviz version 2.40.1 (20161225.0304)
 -->
<!-- Title: CO_Andisol\add_personal_token_from_current_login Pages: 1 -->
<svg width="319pt" height="37pt"
 viewBox="0.00 0.00 319.48 37.00" xmlns="http://www.w3.org/2000/svg" xmlns:xlink="http://www.w3.org/1999/xlink">
<g id="graph0" class="graph" transform="scale(1 1) rotate(0) translate(4 33)">
<title>CO_Andisol\add_personal_token_from_current_login</title>
<polygon fill="#ffffff" stroke="transparent" points="-4,4 -4,-33 315.4814,-33 315.4814,4 -4,4"/>
<!-- Node1 -->
<g id="node1" class="node">
<title>Node1</title>
<g id="a_node1"><a xlink:title=" ">
<polygon fill="#bfbfbf" stroke="#000000" points="0,-.5 0,-28.5 134.96,-28.5 134.96,-.5 0,-.5"/>
<text text-anchor="start" x="8" y="-16.5" font-family="Helvetica,sans-Serif" font-size="10.00" fill="#000000">CO_Andisol\add_personal</text>
<text text-anchor="middle" x="67.48" y="-6.5" font-family="Helvetica,sans-Serif" font-size="10.00" fill="#000000">_token_from_current_login</text>
</a>
</g>
</g>
<!-- Node2 -->
<g id="node2" class="node">
<title>Node2</title>
<g id="a_node2"><a xlink:href="a00216.html#acda267f1d6a8e496e167ed46fe590dc6" target="_top" xlink:title=" ">
<polygon fill="#ffffff" stroke="#000000" points="170.96,-.5 170.96,-28.5 311.4814,-28.5 311.4814,-.5 170.96,-.5"/>
<text text-anchor="start" x="178.96" y="-16.5" font-family="Helvetica,sans-Serif" font-size="10.00" fill="#000000">CO_Andisol\get_chameleon</text>
<text text-anchor="middle" x="241.2207" y="-6.5" font-family="Helvetica,sans-Serif" font-size="10.00" fill="#000000">_instance</text>
</a>
</g>
</g>
<!-- Node1&#45;&gt;Node2 -->
<g id="edge1" class="edge">
<title>Node1&#45;&gt;Node2</title>
<path fill="none" stroke="#191970" d="M135.1502,-14.5C143.5735,-14.5 152.2504,-14.5 160.8422,-14.5"/>
<polygon fill="#191970" stroke="#191970" points="160.8688,-18.0001 170.8687,-14.5 160.8687,-11.0001 160.8688,-18.0001"/>
</g>
</g>
</svg>
