<?xml version="1.0" encoding="UTF-8" standalone="no"?>
<!DOCTYPE svg PUBLIC "-//W3C//DTD SVG 1.1//EN"
 "http://www.w3.org/Graphics/SVG/1.1/DTD/svg11.dtd">
<!-- Generated by graphviz version 2.47.1 (20210417.1919)
 -->
<!-- Title: CO_Place\_get_address_element_labels Pages: 1 -->
<svg width="628pt" height="352pt"
 viewBox="0.00 0.00 628.00 351.50" xmlns="http://www.w3.org/2000/svg" xmlns:xlink="http://www.w3.org/1999/xlink">
<g id="graph0" class="graph" transform="scale(1 1) rotate(0) translate(4 347.5)">
<title>CO_Place\_get_address_element_labels</title>
<polygon fill="white" stroke="transparent" points="-4,4 -4,-347.5 624,-347.5 624,4 -4,4"/>
<!-- Node1 -->
<g id="node1" class="node">
<title>Node1</title>
<g id="a_node1"><a xlink:title=" ">
<polygon fill="#bfbfbf" stroke="black" points="497,-154.5 497,-184.5 620,-184.5 620,-154.5 497,-154.5"/>
<text text-anchor="start" x="505" y="-172.5" font-family="Helvetica,sans-Serif" font-size="10.00">CO_Place\_get_address</text>
<text text-anchor="middle" x="558.5" y="-161.5" font-family="Helvetica,sans-Serif" font-size="10.00">_element_labels</text>
</a>
</g>
</g>
<!-- Node2 -->
<g id="node2" class="node">
<title>Node2</title>
<g id="a_node2"><a xlink:href="a00260.html#ae074113629e04696f13a4e6c5316124a" target="_top" xlink:title=" ">
<polygon fill="white" stroke="black" points="321,-324 321,-343 461,-343 461,-324 321,-324"/>
<text text-anchor="middle" x="391" y="-331" font-family="Helvetica,sans-Serif" font-size="10.00">CO_Place\geocode_long_lat</text>
</a>
</g>
</g>
<!-- Node1&#45;&gt;Node2 -->
<g id="edge1" class="edge">
<title>Node1&#45;&gt;Node2</title>
<path fill="none" stroke="midnightblue" d="M547.71,-194.1C533.5,-226.59 504.08,-283.34 461,-314.5 455.66,-318.36 449.58,-321.43 443.29,-323.89"/>
<polygon fill="midnightblue" stroke="midnightblue" points="550.95,-195.42 551.63,-184.85 544.5,-192.69 550.95,-195.42"/>
</g>
<!-- Node3 -->
<g id="node3" class="node">
<title>Node3</title>
<g id="a_node3"><a xlink:href="a00260.html#a0291fd7ecd95dc96d7be64516d5ce32e" target="_top" xlink:title=" ">
<polygon fill="white" stroke="black" points="332,-274.5 332,-304.5 450,-304.5 450,-274.5 332,-274.5"/>
<text text-anchor="start" x="340" y="-292.5" font-family="Helvetica,sans-Serif" font-size="10.00">CO_Place\get_address</text>
<text text-anchor="middle" x="391" y="-281.5" font-family="Helvetica,sans-Serif" font-size="10.00">_element_by_index</text>
</a>
</g>
</g>
<!-- Node1&#45;&gt;Node3 -->
<g id="edge2" class="edge">
<title>Node1&#45;&gt;Node3</title>
<path fill="none" stroke="midnightblue" d="M539.53,-192.58C521.68,-214.12 492.49,-245.81 461,-265.5 455.62,-268.86 449.71,-271.83 443.69,-274.42"/>
<polygon fill="midnightblue" stroke="midnightblue" points="542.43,-194.56 546.02,-184.59 537,-190.15 542.43,-194.56"/>
</g>
<!-- Node4 -->
<g id="node4" class="node">
<title>Node4</title>
<g id="a_node4"><a xlink:href="a00260.html#a855be001c1b2b611e2bdea044602ec8c" target="_top" xlink:title=" ">
<polygon fill="white" stroke="black" points="332,-225.5 332,-255.5 450,-255.5 450,-225.5 332,-225.5"/>
<text text-anchor="start" x="340" y="-243.5" font-family="Helvetica,sans-Serif" font-size="10.00">CO_Place\get_address</text>
<text text-anchor="middle" x="391" y="-232.5" font-family="Helvetica,sans-Serif" font-size="10.00">_elements</text>
</a>
</g>
</g>
<!-- Node1&#45;&gt;Node4 -->
<g id="edge3" class="edge">
<title>Node1&#45;&gt;Node4</title>
<path fill="none" stroke="midnightblue" d="M519.43,-189.33C501.86,-198.15 480.6,-208.35 461,-216.5 453.62,-219.57 445.7,-222.58 437.94,-225.38"/>
<polygon fill="midnightblue" stroke="midnightblue" points="521.43,-192.24 528.77,-184.6 518.27,-186 521.43,-192.24"/>
</g>
<!-- Node5 -->
<g id="node5" class="node">
<title>Node5</title>
<g id="a_node5"><a xlink:href="a00260.html#ac6cd579fa87a0f4fe7e88e265722319a" target="_top" xlink:title=" ">
<polygon fill="white" stroke="black" points="331,-176.5 331,-206.5 451,-206.5 451,-176.5 331,-176.5"/>
<text text-anchor="start" x="339" y="-194.5" font-family="Helvetica,sans-Serif" font-size="10.00">CO_Place\get_readable</text>
<text text-anchor="middle" x="391" y="-183.5" font-family="Helvetica,sans-Serif" font-size="10.00">_address</text>
</a>
</g>
</g>
<!-- Node1&#45;&gt;Node5 -->
<g id="edge4" class="edge">
<title>Node1&#45;&gt;Node5</title>
<path fill="none" stroke="midnightblue" d="M486.88,-178.89C474.93,-180.48 462.64,-182.11 451.02,-183.65"/>
<polygon fill="midnightblue" stroke="midnightblue" points="487.36,-182.35 496.81,-177.57 486.44,-175.42 487.36,-182.35"/>
</g>
<!-- Node7 -->
<g id="node7" class="node">
<title>Node7</title>
<g id="a_node7"><a xlink:href="a00260.html#a7b99eb196e710f9cf14ad39601e2b3ad" target="_top" xlink:title=" ">
<polygon fill="white" stroke="black" points="332,-88.5 332,-118.5 450,-118.5 450,-88.5 332,-88.5"/>
<text text-anchor="start" x="340" y="-106.5" font-family="Helvetica,sans-Serif" font-size="10.00">CO_Place\set_address</text>
<text text-anchor="middle" x="391" y="-95.5" font-family="Helvetica,sans-Serif" font-size="10.00">_element</text>
</a>
</g>
</g>
<!-- Node1&#45;&gt;Node7 -->
<g id="edge6" class="edge">
<title>Node1&#45;&gt;Node7</title>
<path fill="none" stroke="midnightblue" d="M510.06,-150.58C484.59,-140.42 453.62,-128.07 429.79,-118.57"/>
<polygon fill="midnightblue" stroke="midnightblue" points="508.95,-153.91 519.53,-154.36 511.54,-147.4 508.95,-153.91"/>
</g>
<!-- Node8 -->
<g id="node8" class="node">
<title>Node8</title>
<g id="a_node8"><a xlink:href="a00260.html#a775079ce6d7951fc6597173ac55d0218" target="_top" xlink:title=" ">
<polygon fill="white" stroke="black" points="159.5,-122.5 159.5,-152.5 277.5,-152.5 277.5,-122.5 159.5,-122.5"/>
<text text-anchor="start" x="167.5" y="-140.5" font-family="Helvetica,sans-Serif" font-size="10.00">CO_Place\set_address</text>
<text text-anchor="middle" x="218.5" y="-129.5" font-family="Helvetica,sans-Serif" font-size="10.00">_element_by_key</text>
</a>
</g>
</g>
<!-- Node1&#45;&gt;Node8 -->
<g id="edge10" class="edge">
<title>Node1&#45;&gt;Node8</title>
<path fill="none" stroke="midnightblue" d="M486.58,-162.79C424.52,-156.91 335.48,-148.48 277.57,-143"/>
<polygon fill="midnightblue" stroke="midnightblue" points="486.4,-166.28 496.68,-163.74 487.06,-159.32 486.4,-166.28"/>
</g>
<!-- Node9 -->
<g id="node9" class="node">
<title>Node9</title>
<g id="a_node9"><a xlink:href="a00260.html#a94507f0c219ba9bc342e40d6064941db" target="_top" xlink:title=" ">
<polygon fill="white" stroke="black" points="159.5,-54.5 159.5,-84.5 277.5,-84.5 277.5,-54.5 159.5,-54.5"/>
<text text-anchor="start" x="167.5" y="-72.5" font-family="Helvetica,sans-Serif" font-size="10.00">CO_Place\set_address</text>
<text text-anchor="middle" x="218.5" y="-61.5" font-family="Helvetica,sans-Serif" font-size="10.00">_elements</text>
</a>
</g>
</g>
<!-- Node1&#45;&gt;Node9 -->
<g id="edge11" class="edge">
<title>Node1&#45;&gt;Node9</title>
<path fill="none" stroke="midnightblue" d="M540.95,-146.26C523.78,-124.29 494.75,-92.64 461,-78.5 402.18,-53.86 328.07,-55.31 277.56,-60.55"/>
<polygon fill="midnightblue" stroke="midnightblue" points="538.32,-148.58 547.14,-154.44 543.9,-144.35 538.32,-148.58"/>
</g>
<!-- Node11 -->
<g id="node11" class="node">
<title>Node11</title>
<g id="a_node11"><a xlink:href="a00260.html#a887a876b0603db0289a8bdc7ab4e66b2" target="_top" xlink:title=" ">
<polygon fill="white" stroke="black" points="327.5,-0.5 327.5,-30.5 454.5,-30.5 454.5,-0.5 327.5,-0.5"/>
<text text-anchor="start" x="335.5" y="-18.5" font-family="Helvetica,sans-Serif" font-size="10.00">CO_Place\set_tags_from</text>
<text text-anchor="middle" x="391" y="-7.5" font-family="Helvetica,sans-Serif" font-size="10.00">_address_elements</text>
</a>
</g>
</g>
<!-- Node1&#45;&gt;Node11 -->
<g id="edge12" class="edge">
<title>Node1&#45;&gt;Node11</title>
<path fill="none" stroke="midnightblue" d="M543.75,-145.22C527.19,-117.83 497.05,-73.47 461,-45.5 453.47,-39.66 444.62,-34.7 435.82,-30.61"/>
<polygon fill="midnightblue" stroke="midnightblue" points="540.93,-147.32 549.03,-154.15 546.95,-143.76 540.93,-147.32"/>
</g>
<!-- Node6 -->
<g id="node6" class="node">
<title>Node6</title>
<g id="a_node6"><a xlink:href="a00260.html#a1319c3b11d29aae2bb70fd8aeddfee93" target="_top" xlink:title=" ">
<polygon fill="white" stroke="black" points="152,-182 152,-201 285,-201 285,-182 152,-182"/>
<text text-anchor="middle" x="218.5" y="-189" font-family="Helvetica,sans-Serif" font-size="10.00">CO_Place\lookup_address</text>
</a>
</g>
</g>
<!-- Node5&#45;&gt;Node6 -->
<g id="edge5" class="edge">
<title>Node5&#45;&gt;Node6</title>
<path fill="none" stroke="midnightblue" d="M320.69,-191.5C308.99,-191.5 296.87,-191.5 285.25,-191.5"/>
<polygon fill="midnightblue" stroke="midnightblue" points="320.85,-195 330.85,-191.5 320.85,-188 320.85,-195"/>
</g>
<!-- Node7&#45;&gt;Node8 -->
<g id="edge7" class="edge">
<title>Node7&#45;&gt;Node8</title>
<path fill="none" stroke="midnightblue" d="M321.82,-117.1C307.22,-120.01 291.92,-123.06 277.73,-125.89"/>
<polygon fill="midnightblue" stroke="midnightblue" points="322.68,-120.49 331.8,-115.11 321.31,-113.63 322.68,-120.49"/>
</g>
<!-- Node7&#45;&gt;Node9 -->
<g id="edge8" class="edge">
<title>Node7&#45;&gt;Node9</title>
<path fill="none" stroke="midnightblue" d="M321.82,-89.9C307.22,-86.99 291.92,-83.94 277.73,-81.11"/>
<polygon fill="midnightblue" stroke="midnightblue" points="321.31,-93.37 331.8,-91.89 322.68,-86.51 321.31,-93.37"/>
</g>
<!-- Node10 -->
<g id="node10" class="node">
<title>Node10</title>
<g id="a_node10"><a xlink:href="a00260.html#a0828fcac351a2f23404059be980e7b41" target="_top" xlink:title=" ">
<polygon fill="white" stroke="black" points="0,-60 0,-79 116,-79 116,-60 0,-60"/>
<text text-anchor="middle" x="58" y="-67" font-family="Helvetica,sans-Serif" font-size="10.00">CO_Place\__construct</text>
</a>
</g>
</g>
<!-- Node9&#45;&gt;Node10 -->
<g id="edge9" class="edge">
<title>Node9&#45;&gt;Node10</title>
<path fill="none" stroke="midnightblue" d="M149.31,-69.5C138.22,-69.5 126.84,-69.5 116.05,-69.5"/>
<polygon fill="midnightblue" stroke="midnightblue" points="149.38,-73 159.38,-69.5 149.38,-66 149.38,-73"/>
</g>
</g>
</svg>
