<?xml version="1.0" encoding="UTF-8" standalone="no"?>
<!DOCTYPE svg PUBLIC "-//W3C//DTD SVG 1.1//EN"
 "http://www.w3.org/Graphics/SVG/1.1/DTD/svg11.dtd">
<!-- Generated by graphviz version 2.40.1 (20161225.0304)
 -->
<!-- Title: CO_Andisol\manager Pages: 1 -->
<svg width="577pt" height="93pt"
 viewBox="0.00 0.00 577.45 93.00" xmlns="http://www.w3.org/2000/svg" xmlns:xlink="http://www.w3.org/1999/xlink">
<g id="graph0" class="graph" transform="scale(1 1) rotate(0) translate(4 89)">
<title>CO_Andisol\manager</title>
<polygon fill="#ffffff" stroke="transparent" points="-4,4 -4,-89 573.4463,-89 573.4463,4 -4,4"/>
<!-- Node1 -->
<g id="node1" class="node">
<title>Node1</title>
<g id="a_node1"><a xlink:title=" ">
<polygon fill="#bfbfbf" stroke="#000000" points="0,-40.5 0,-58.5 111.6055,-58.5 111.6055,-40.5 0,-40.5"/>
<text text-anchor="middle" x="55.8027" y="-46.5" font-family="Helvetica,sans-Serif" font-size="10.00" fill="#000000">CO_Andisol\manager</text>
</a>
</g>
</g>
<!-- Node2 -->
<g id="node2" class="node">
<title>Node2</title>
<g id="a_node2"><a xlink:href="a00219.html#a3605f036c8c634afaa74f67e5853a0ad" target="_top" xlink:title=" ">
<polygon fill="#ffffff" stroke="#000000" points="147.6055,-56.5 147.6055,-84.5 264.2207,-84.5 264.2207,-56.5 147.6055,-56.5"/>
<text text-anchor="start" x="155.6055" y="-72.5" font-family="Helvetica,sans-Serif" font-size="10.00" fill="#000000">CO_Andisol\get_cobra</text>
<text text-anchor="middle" x="205.9131" y="-62.5" font-family="Helvetica,sans-Serif" font-size="10.00" fill="#000000">_instance</text>
</a>
</g>
</g>
<!-- Node1&#45;&gt;Node2 -->
<g id="edge1" class="edge">
<title>Node1&#45;&gt;Node2</title>
<path fill="none" stroke="#191970" d="M111.6983,-57.3196C120.086,-58.493 128.8159,-59.7143 137.4295,-60.9193"/>
<polygon fill="#191970" stroke="#191970" points="137.0716,-64.4033 147.4601,-62.3226 138.0415,-57.4708 137.0716,-64.4033"/>
</g>
<!-- Node3 -->
<g id="node3" class="node">
<title>Node3</title>
<g id="a_node3"><a xlink:href="a00219.html#ac2a2dcb99dc927789b0ffa09c24946de" target="_top" xlink:title=" ">
<polygon fill="#ffffff" stroke="#000000" points="148.1572,-19.5 148.1572,-37.5 263.6689,-37.5 263.6689,-19.5 148.1572,-19.5"/>
<text text-anchor="middle" x="205.9131" y="-25.5" font-family="Helvetica,sans-Serif" font-size="10.00" fill="#000000">CO_Andisol\logged_in</text>
</a>
</g>
</g>
<!-- Node1&#45;&gt;Node3 -->
<g id="edge2" class="edge">
<title>Node1&#45;&gt;Node3</title>
<path fill="none" stroke="#191970" d="M111.6983,-41.6804C120.2059,-40.4902 129.0654,-39.2508 137.7985,-38.029"/>
<polygon fill="#191970" stroke="#191970" points="138.5451,-41.4588 147.9638,-36.6069 137.5752,-34.5263 138.5451,-41.4588"/>
</g>
<!-- Node4 -->
<g id="node4" class="node">
<title>Node4</title>
<g id="a_node4"><a xlink:href="a00219.html#acda267f1d6a8e496e167ed46fe590dc6" target="_top" xlink:title=" ">
<polygon fill="#ffffff" stroke="#000000" points="428.9248,-14.5 428.9248,-42.5 569.4463,-42.5 569.4463,-14.5 428.9248,-14.5"/>
<text text-anchor="start" x="436.9248" y="-30.5" font-family="Helvetica,sans-Serif" font-size="10.00" fill="#000000">CO_Andisol\get_chameleon</text>
<text text-anchor="middle" x="499.1855" y="-20.5" font-family="Helvetica,sans-Serif" font-size="10.00" fill="#000000">_instance</text>
</a>
</g>
</g>
<!-- Node3&#45;&gt;Node4 -->
<g id="edge3" class="edge">
<title>Node3&#45;&gt;Node4</title>
<path fill="none" stroke="#191970" d="M263.8543,-28.5C308.0365,-28.5 369.4266,-28.5 418.427,-28.5"/>
<polygon fill="#191970" stroke="#191970" points="418.6845,-32.0001 428.6844,-28.5 418.6844,-25.0001 418.6845,-32.0001"/>
</g>
<!-- Node5 -->
<g id="node5" class="node">
<title>Node5</title>
<g id="a_node5"><a xlink:href="a00219.html#a4b0ec12b29ce4812cbb4169b68770f66" target="_top" xlink:title=" ">
<polygon fill="#ffffff" stroke="#000000" points="300.2207,-.5 300.2207,-18.5 392.9248,-18.5 392.9248,-.5 300.2207,-.5"/>
<text text-anchor="middle" x="346.5728" y="-6.5" font-family="Helvetica,sans-Serif" font-size="10.00" fill="#000000">CO_Andisol\valid</text>
</a>
</g>
</g>
<!-- Node3&#45;&gt;Node5 -->
<g id="edge4" class="edge">
<title>Node3&#45;&gt;Node5</title>
<path fill="none" stroke="#191970" d="M263.9368,-20.6623C272.4374,-19.514 281.1856,-18.3324 289.6635,-17.1872"/>
<polygon fill="#191970" stroke="#191970" points="290.3944,-20.6203 299.8359,-15.8131 289.4573,-13.6833 290.3944,-20.6203"/>
</g>
<!-- Node5&#45;&gt;Node4 -->
<g id="edge5" class="edge">
<title>Node5&#45;&gt;Node4</title>
<path fill="none" stroke="#191970" d="M393.1909,-15.3039C401.2554,-16.3079 409.844,-17.3771 418.508,-18.4558"/>
<polygon fill="#191970" stroke="#191970" points="418.3307,-21.9607 428.6866,-19.723 419.1956,-15.0143 418.3307,-21.9607"/>
</g>
</g>
</svg>
