<?xml version="1.0" encoding="UTF-8" standalone="no"?>
<!DOCTYPE svg PUBLIC "-//W3C//DTD SVG 1.1//EN"
 "http://www.w3.org/Graphics/SVG/1.1/DTD/svg11.dtd">
<!-- Generated by graphviz version 2.47.1 (20210417.1919)
 -->
<!-- Title: CO_Basalt\process_command Pages: 1 -->
<svg width="638pt" height="320pt"
 viewBox="0.00 0.00 638.00 319.50" xmlns="http://www.w3.org/2000/svg" xmlns:xlink="http://www.w3.org/1999/xlink">
<g id="graph0" class="graph" transform="scale(1 1) rotate(0) translate(4 315.5)">
<title>CO_Basalt\process_command</title>
<polygon fill="white" stroke="transparent" points="-4,4 -4,-315.5 634,-315.5 634,4 -4,4"/>
<!-- Node1 -->
<g id="node1" class="node">
<title>Node1</title>
<g id="a_node1"><a xlink:title=" ">
<polygon fill="#bfbfbf" stroke="black" points="0,-117.5 0,-136.5 150,-136.5 150,-117.5 0,-117.5"/>
<text text-anchor="middle" x="75" y="-124.5" font-family="Helvetica,sans-Serif" font-size="10.00">CO_Basalt\process_command</text>
</a>
</g>
</g>
<!-- Node2 -->
<g id="node2" class="node">
<title>Node2</title>
<g id="a_node2"><a xlink:href="a00196.html#a4195fd75943d9dd1ca6dce290aa64dcc" target="_top" xlink:title=" ">
<polygon fill="white" stroke="black" points="186,-161 186,-191 295,-191 295,-161 186,-161"/>
<text text-anchor="start" x="194" y="-179" font-family="Helvetica,sans-Serif" font-size="10.00">A_CO_Basalt_Plugin</text>
<text text-anchor="middle" x="240.5" y="-168" font-family="Helvetica,sans-Serif" font-size="10.00">\_condition_response</text>
</a>
</g>
</g>
<!-- Node1&#45;&gt;Node2 -->
<g id="edge1" class="edge">
<title>Node1&#45;&gt;Node2</title>
<path fill="none" stroke="midnightblue" d="M107.91,-136.56C128.25,-142.66 155.24,-150.75 179.49,-158.01"/>
<polygon fill="midnightblue" stroke="midnightblue" points="178.74,-161.44 189.33,-160.96 180.75,-154.74 178.74,-161.44"/>
</g>
<!-- Node3 -->
<g id="node3" class="node">
<title>Node3</title>
<g id="a_node3"><a xlink:href="a00200.html#a60ce04d2fc76ab876a428500dccb7dd8" target="_top" xlink:title=" ">
<polygon fill="white" stroke="black" points="187,-112 187,-142 294,-142 294,-112 187,-112"/>
<text text-anchor="start" x="195" y="-130" font-family="Helvetica,sans-Serif" font-size="10.00">CO_Basalt\_process</text>
<text text-anchor="middle" x="240.5" y="-119" font-family="Helvetica,sans-Serif" font-size="10.00">_baseline_command</text>
</a>
</g>
</g>
<!-- Node1&#45;&gt;Node3 -->
<g id="edge2" class="edge">
<title>Node1&#45;&gt;Node3</title>
<path fill="none" stroke="midnightblue" d="M150.1,-127C158.96,-127 167.95,-127 176.64,-127"/>
<polygon fill="midnightblue" stroke="midnightblue" points="176.67,-130.5 186.67,-127 176.67,-123.5 176.67,-130.5"/>
</g>
<!-- Node13 -->
<g id="node13" class="node">
<title>Node13</title>
<g id="a_node13"><a xlink:href="a00200.html#a1daa98964a634b41fef4edf4dc1f82ad" target="_top" xlink:title=" ">
<polygon fill="white" stroke="black" points="187,-63 187,-93 294,-93 294,-63 187,-63"/>
<text text-anchor="start" x="195" y="-81" font-family="Helvetica,sans-Serif" font-size="10.00">CO_Basalt\_process</text>
<text text-anchor="middle" x="240.5" y="-70" font-family="Helvetica,sans-Serif" font-size="10.00">_ping_command</text>
</a>
</g>
</g>
<!-- Node1&#45;&gt;Node13 -->
<g id="edge12" class="edge">
<title>Node1&#45;&gt;Node13</title>
<path fill="none" stroke="midnightblue" d="M107.91,-117.44C128.25,-111.34 155.24,-103.25 179.49,-95.99"/>
<polygon fill="midnightblue" stroke="midnightblue" points="180.75,-99.26 189.33,-93.04 178.74,-92.56 180.75,-99.26"/>
</g>
<!-- Node4 -->
<g id="node4" class="node">
<title>Node4</title>
<g id="a_node4"><a xlink:href="a00200.html#a94f153fbc911e113c202f91acc1b270e" target="_top" xlink:title=" ">
<polygon fill="white" stroke="black" points="337.5,-235 337.5,-265 446.5,-265 446.5,-235 337.5,-235"/>
<text text-anchor="start" x="345.5" y="-253" font-family="Helvetica,sans-Serif" font-size="10.00">CO_Basalt\_baseline</text>
<text text-anchor="middle" x="392" y="-242" font-family="Helvetica,sans-Serif" font-size="10.00">_bulk_loader</text>
</a>
</g>
</g>
<!-- Node3&#45;&gt;Node4 -->
<g id="edge3" class="edge">
<title>Node3&#45;&gt;Node4</title>
<path fill="none" stroke="midnightblue" d="M281.77,-142.04C286.57,-144.88 291.13,-148.19 295,-152 321.06,-177.66 304.22,-201.09 331,-226 332.27,-227.18 333.61,-228.31 335,-229.38"/>
<polygon fill="midnightblue" stroke="midnightblue" points="333.17,-232.37 343.44,-234.97 337.04,-226.54 333.17,-232.37"/>
</g>
<!-- Node7 -->
<g id="node7" class="node">
<title>Node7</title>
<g id="a_node7"><a xlink:href="a00200.html#ad72622e9b3a834e50a1a8f4ab488b08a" target="_top" xlink:title=" ">
<polygon fill="white" stroke="black" points="337.5,-186 337.5,-216 446.5,-216 446.5,-186 337.5,-186"/>
<text text-anchor="start" x="345.5" y="-204" font-family="Helvetica,sans-Serif" font-size="10.00">CO_Basalt\_baseline</text>
<text text-anchor="middle" x="392" y="-193" font-family="Helvetica,sans-Serif" font-size="10.00">_fetch_backup</text>
</a>
</g>
</g>
<!-- Node3&#45;&gt;Node7 -->
<g id="edge6" class="edge">
<title>Node3&#45;&gt;Node7</title>
<path fill="none" stroke="midnightblue" d="M275.9,-142.02C282.35,-145.13 288.96,-148.52 295,-152 311.88,-161.71 313.85,-167.77 331,-177 334.06,-178.64 337.25,-180.24 340.5,-181.78"/>
<polygon fill="midnightblue" stroke="midnightblue" points="339.21,-185.04 349.77,-185.95 342.08,-178.65 339.21,-185.04"/>
</g>
<!-- Node9 -->
<g id="node9" class="node">
<title>Node9</title>
<g id="a_node9"><a xlink:href="a00196.html#a772e319259d2ce50837c099acdfd3625" target="_top" xlink:title=" ">
<polygon fill="white" stroke="black" points="337.5,-137 337.5,-167 446.5,-167 446.5,-137 337.5,-137"/>
<text text-anchor="start" x="345.5" y="-155" font-family="Helvetica,sans-Serif" font-size="10.00">A_CO_Basalt_Plugin</text>
<text text-anchor="middle" x="392" y="-144" font-family="Helvetica,sans-Serif" font-size="10.00">\_get_handler</text>
</a>
</g>
</g>
<!-- Node3&#45;&gt;Node9 -->
<g id="edge8" class="edge">
<title>Node3&#45;&gt;Node9</title>
<path fill="none" stroke="midnightblue" d="M294.21,-135.81C304.89,-137.6 316.24,-139.5 327.25,-141.34"/>
<polygon fill="midnightblue" stroke="midnightblue" points="326.81,-144.81 337.25,-143.01 327.97,-137.91 326.81,-144.81"/>
</g>
<!-- Node10 -->
<g id="node10" class="node">
<title>Node10</title>
<g id="a_node10"><a xlink:href="a00200.html#acd909d93bf248e9b07ff9cfdd28df9b9" target="_top" xlink:title=" ">
<polygon fill="white" stroke="black" points="335.5,-88 335.5,-118 448.5,-118 448.5,-88 335.5,-88"/>
<text text-anchor="start" x="343.5" y="-106" font-family="Helvetica,sans-Serif" font-size="10.00">CO_Basalt\_process</text>
<text text-anchor="middle" x="392" y="-95" font-family="Helvetica,sans-Serif" font-size="10.00">_serverinfo_command</text>
</a>
</g>
</g>
<!-- Node3&#45;&gt;Node10 -->
<g id="edge9" class="edge">
<title>Node3&#45;&gt;Node10</title>
<path fill="none" stroke="midnightblue" d="M294.21,-118.54C304.34,-116.91 315.06,-115.19 325.54,-113.51"/>
<polygon fill="midnightblue" stroke="midnightblue" points="326.16,-116.95 335.48,-111.91 325.05,-110.04 326.16,-116.95"/>
</g>
<!-- Node11 -->
<g id="node11" class="node">
<title>Node11</title>
<g id="a_node11"><a xlink:href="a00200.html#af1b2c5aad7e4010614b891a8e47e469b" target="_top" xlink:title=" ">
<polygon fill="white" stroke="black" points="338.5,-39 338.5,-69 445.5,-69 445.5,-39 338.5,-39"/>
<text text-anchor="start" x="346.5" y="-57" font-family="Helvetica,sans-Serif" font-size="10.00">CO_Basalt\_process</text>
<text text-anchor="middle" x="392" y="-46" font-family="Helvetica,sans-Serif" font-size="10.00">_token_command</text>
</a>
</g>
</g>
<!-- Node3&#45;&gt;Node11 -->
<g id="edge10" class="edge">
<title>Node3&#45;&gt;Node11</title>
<path fill="none" stroke="midnightblue" d="M277.3,-111.93C283.3,-109.13 289.39,-106.1 295,-103 311.83,-93.7 314.05,-88.07 331,-79 334.69,-77.02 338.58,-75.09 342.52,-73.24"/>
<polygon fill="midnightblue" stroke="midnightblue" points="344.09,-76.37 351.76,-69.06 341.21,-69.99 344.09,-76.37"/>
</g>
<!-- Node12 -->
<g id="node12" class="node">
<title>Node12</title>
<g id="a_node12"><a xlink:href="a00200.html#a9917ca310760b3d05cdb027b030f86b4" target="_top" xlink:title=" ">
<polygon fill="white" stroke="black" points="331,-0.5 331,-19.5 453,-19.5 453,-0.5 331,-0.5"/>
<text text-anchor="middle" x="392" y="-7.5" font-family="Helvetica,sans-Serif" font-size="10.00">CO_Basalt\plugin_name</text>
</a>
</g>
</g>
<!-- Node3&#45;&gt;Node12 -->
<g id="edge11" class="edge">
<title>Node3&#45;&gt;Node12</title>
<path fill="none" stroke="midnightblue" d="M283.11,-111.95C287.42,-109.37 291.49,-106.4 295,-103 321.26,-77.54 303.32,-52.91 331,-29 332.95,-27.31 335.06,-25.78 337.27,-24.37"/>
<polygon fill="midnightblue" stroke="midnightblue" points="339.03,-27.4 346.22,-19.62 335.75,-21.22 339.03,-27.4"/>
</g>
<!-- Node5 -->
<g id="node5" class="node">
<title>Node5</title>
<g id="a_node5"><a xlink:href="a00200.html#ad343adeeff085b060c73fc62786aee7b" target="_top" xlink:title=" ">
<polygon fill="white" stroke="black" points="508,-281 508,-311 611,-311 611,-281 508,-281"/>
<text text-anchor="start" x="516" y="-299" font-family="Helvetica,sans-Serif" font-size="10.00">CO_Basalt\_extract</text>
<text text-anchor="middle" x="559.5" y="-288" font-family="Helvetica,sans-Serif" font-size="10.00">_csv_data</text>
</a>
</g>
</g>
<!-- Node4&#45;&gt;Node5 -->
<g id="edge4" class="edge">
<title>Node4&#45;&gt;Node5</title>
<path fill="none" stroke="midnightblue" d="M446.73,-264.93C463.14,-269.5 481.3,-274.54 498.12,-279.22"/>
<polygon fill="midnightblue" stroke="midnightblue" points="497.27,-282.62 507.85,-281.92 499.15,-275.87 497.27,-282.62"/>
</g>
<!-- Node6 -->
<g id="node6" class="node">
<title>Node6</title>
<g id="a_node6"><a xlink:href="a00200.html#a0c8258440777d1e27e88f57f55a9e2a4" target="_top" xlink:title=" ">
<polygon fill="white" stroke="black" points="506,-232 506,-262 613,-262 613,-232 506,-232"/>
<text text-anchor="start" x="514" y="-250" font-family="Helvetica,sans-Serif" font-size="10.00">CO_Basalt\_process</text>
<text text-anchor="middle" x="559.5" y="-239" font-family="Helvetica,sans-Serif" font-size="10.00">_bulk_row</text>
</a>
</g>
</g>
<!-- Node4&#45;&gt;Node6 -->
<g id="edge5" class="edge">
<title>Node4&#45;&gt;Node6</title>
<path fill="none" stroke="midnightblue" d="M446.73,-249.03C462.3,-248.74 479.43,-248.43 495.5,-248.14"/>
<polygon fill="midnightblue" stroke="midnightblue" points="495.95,-251.63 505.88,-247.95 495.82,-244.64 495.95,-251.63"/>
</g>
<!-- Node8 -->
<g id="node8" class="node">
<title>Node8</title>
<g id="a_node8"><a xlink:href="a00200.html#a43999add0a0623b6cc1376defb359b9b" target="_top" xlink:title=" ">
<polygon fill="white" stroke="black" points="489,-191.5 489,-210.5 630,-210.5 630,-191.5 489,-191.5"/>
<text text-anchor="middle" x="559.5" y="-198.5" font-family="Helvetica,sans-Serif" font-size="10.00">CO_Basalt\_output_one_line</text>
</a>
</g>
</g>
<!-- Node7&#45;&gt;Node8 -->
<g id="edge7" class="edge">
<title>Node7&#45;&gt;Node8</title>
<path fill="none" stroke="midnightblue" d="M446.73,-201C456.89,-201 467.71,-201 478.48,-201"/>
<polygon fill="midnightblue" stroke="midnightblue" points="478.75,-204.5 488.75,-201 478.75,-197.5 478.75,-204.5"/>
</g>
</g>
</svg>
