<?xml version="1.0" encoding="UTF-8" standalone="no"?>
<!DOCTYPE svg PUBLIC "-//W3C//DTD SVG 1.1//EN"
 "http://www.w3.org/Graphics/SVG/1.1/DTD/svg11.dtd">
<!-- Generated by graphviz version 2.47.1 (20210417.1919)
 -->
<!-- Title: CO_Place\__construct Pages: 1 -->
<svg width="623pt" height="149pt"
 viewBox="0.00 0.00 623.00 148.50" xmlns="http://www.w3.org/2000/svg" xmlns:xlink="http://www.w3.org/1999/xlink">
<g id="graph0" class="graph" transform="scale(1 1) rotate(0) translate(4 144.5)">
<title>CO_Place\__construct</title>
<polygon fill="white" stroke="transparent" points="-4,4 -4,-144.5 619,-144.5 619,4 -4,4"/>
<!-- Node1 -->
<g id="node1" class="node">
<title>Node1</title>
<g id="a_node1"><a xlink:title=" ">
<polygon fill="#bfbfbf" stroke="black" points="0,-38.5 0,-57.5 116,-57.5 116,-38.5 0,-38.5"/>
<text text-anchor="middle" x="58" y="-45.5" font-family="Helvetica,sans-Serif" font-size="10.00">CO_Place\__construct</text>
</a>
</g>
</g>
<!-- Node2 -->
<g id="node2" class="node">
<title>Node2</title>
<g id="a_node2"><a xlink:href="a00260.html#a94507f0c219ba9bc342e40d6064941db" target="_top" xlink:title=" ">
<polygon fill="white" stroke="black" points="161,-55 161,-85 279,-85 279,-55 161,-55"/>
<text text-anchor="start" x="169" y="-73" font-family="Helvetica,sans-Serif" font-size="10.00">CO_Place\set_address</text>
<text text-anchor="middle" x="220" y="-62" font-family="Helvetica,sans-Serif" font-size="10.00">_elements</text>
</a>
</g>
</g>
<!-- Node1&#45;&gt;Node2 -->
<g id="edge1" class="edge">
<title>Node1&#45;&gt;Node2</title>
<path fill="none" stroke="midnightblue" d="M116.31,-55.88C127.48,-57.42 139.29,-59.04 150.76,-60.62"/>
<polygon fill="midnightblue" stroke="midnightblue" points="150.36,-64.09 160.74,-61.99 151.31,-57.16 150.36,-64.09"/>
</g>
<!-- Node7 -->
<g id="node7" class="node">
<title>Node7</title>
<g id="a_node7"><a xlink:href="a00316.html#a7f4c18f2ed2bda67f3c38fd95c120c0a" target="_top" xlink:title=" ">
<polygon fill="white" stroke="black" points="152,-16.5 152,-35.5 288,-35.5 288,-16.5 152,-16.5"/>
<text text-anchor="middle" x="220" y="-23.5" font-family="Helvetica,sans-Serif" font-size="10.00">CO_Main_DB_Record\tags</text>
</a>
</g>
</g>
<!-- Node1&#45;&gt;Node7 -->
<g id="edge8" class="edge">
<title>Node1&#45;&gt;Node7</title>
<path fill="none" stroke="midnightblue" d="M116.31,-40.12C124.56,-38.99 133.16,-37.8 141.72,-36.63"/>
<polygon fill="midnightblue" stroke="midnightblue" points="142.3,-40.08 151.73,-35.25 141.34,-33.15 142.3,-40.08"/>
</g>
<!-- Node3 -->
<g id="node3" class="node">
<title>Node3</title>
<g id="a_node3"><a xlink:href="a00260.html#a60b73dee76e98e806f4a872cca13ee58" target="_top" xlink:title=" ">
<polygon fill="white" stroke="black" points="485,-110 485,-140 608,-140 608,-110 485,-110"/>
<text text-anchor="start" x="493" y="-128" font-family="Helvetica,sans-Serif" font-size="10.00">CO_Place\_get_address</text>
<text text-anchor="middle" x="546.5" y="-117" font-family="Helvetica,sans-Serif" font-size="10.00">_element_labels</text>
</a>
</g>
</g>
<!-- Node2&#45;&gt;Node3 -->
<g id="edge2" class="edge">
<title>Node2&#45;&gt;Node3</title>
<path fill="none" stroke="midnightblue" d="M246.66,-85.15C266.9,-96.24 296.26,-110.44 324,-117 373.51,-128.7 430.95,-130.45 474.93,-129.41"/>
<polygon fill="midnightblue" stroke="midnightblue" points="475.06,-132.9 484.96,-129.11 474.86,-125.91 475.06,-132.9"/>
</g>
<!-- Node4 -->
<g id="node4" class="node">
<title>Node4</title>
<g id="a_node4"><a xlink:href="a00260.html#a7b99eb196e710f9cf14ad39601e2b3ad" target="_top" xlink:title=" ">
<polygon fill="white" stroke="black" points="324,-77 324,-107 442,-107 442,-77 324,-77"/>
<text text-anchor="start" x="332" y="-95" font-family="Helvetica,sans-Serif" font-size="10.00">CO_Place\set_address</text>
<text text-anchor="middle" x="383" y="-84" font-family="Helvetica,sans-Serif" font-size="10.00">_element</text>
</a>
</g>
</g>
<!-- Node2&#45;&gt;Node4 -->
<g id="edge3" class="edge">
<title>Node2&#45;&gt;Node4</title>
<path fill="none" stroke="midnightblue" d="M279.12,-77.94C290.41,-79.48 302.33,-81.11 313.91,-82.7"/>
<polygon fill="midnightblue" stroke="midnightblue" points="313.58,-86.18 323.96,-84.07 314.53,-79.25 313.58,-86.18"/>
</g>
<!-- Node5 -->
<g id="node5" class="node">
<title>Node5</title>
<g id="a_node5"><a xlink:href="a00332.html#aaa41a4de441030a1bc25875991cf00d0" target="_top" xlink:title=" ">
<polygon fill="white" stroke="black" points="478,-60.5 478,-79.5 615,-79.5 615,-60.5 478,-60.5"/>
<text text-anchor="middle" x="546.5" y="-67.5" font-family="Helvetica,sans-Serif" font-size="10.00">CO_LL_Location\update_db</text>
</a>
</g>
</g>
<!-- Node2&#45;&gt;Node5 -->
<g id="edge7" class="edge">
<title>Node2&#45;&gt;Node5</title>
<path fill="none" stroke="midnightblue" d="M279.01,-68.01C293.69,-67.59 309.42,-67.21 324,-67 376.44,-66.24 389.56,-66.24 442,-67 450.33,-67.12 459.04,-67.3 467.72,-67.5"/>
<polygon fill="midnightblue" stroke="midnightblue" points="467.78,-71 477.86,-67.76 467.95,-64.01 467.78,-71"/>
</g>
<!-- Node6 -->
<g id="node6" class="node">
<title>Node6</title>
<g id="a_node6"><a xlink:href="a00119.html#a732056c1b6e305a30aead472a1695e0c" target="_top" xlink:title=" ">
<polygon fill="white" stroke="black" points="344.5,-0.5 344.5,-19.5 421.5,-19.5 421.5,-0.5 344.5,-0.5"/>
<text text-anchor="middle" x="383" y="-7.5" font-family="Helvetica,sans-Serif" font-size="10.00">test_is_assoc</text>
</a>
</g>
</g>
<!-- Node2&#45;&gt;Node6 -->
<g id="edge6" class="edge">
<title>Node2&#45;&gt;Node6</title>
<path fill="none" stroke="midnightblue" d="M261.63,-54.86C287.94,-45.05 321.86,-32.41 346.99,-23.05"/>
<polygon fill="midnightblue" stroke="midnightblue" points="348.34,-26.28 356.49,-19.51 345.9,-19.72 348.34,-26.28"/>
</g>
<!-- Node4&#45;&gt;Node3 -->
<g id="edge4" class="edge">
<title>Node4&#45;&gt;Node3</title>
<path fill="none" stroke="midnightblue" d="M442.31,-103.91C452.89,-106.08 464.03,-108.35 474.92,-110.58"/>
<polygon fill="midnightblue" stroke="midnightblue" points="474.33,-114.03 484.83,-112.6 475.74,-107.17 474.33,-114.03"/>
</g>
<!-- Node4&#45;&gt;Node5 -->
<g id="edge5" class="edge">
<title>Node4&#45;&gt;Node5</title>
<path fill="none" stroke="midnightblue" d="M442.31,-84.06C450.62,-82.93 459.27,-81.75 467.88,-80.57"/>
<polygon fill="midnightblue" stroke="midnightblue" points="468.51,-84.02 477.95,-79.2 467.56,-77.08 468.51,-84.02"/>
</g>
</g>
</svg>
