<?xml version="1.0" encoding="UTF-8" standalone="no"?>
<!DOCTYPE svg PUBLIC "-//W3C//DTD SVG 1.1//EN"
 "http://www.w3.org/Graphics/SVG/1.1/DTD/svg11.dtd">
<!-- Generated by graphviz version 2.40.1 (20161225.0304)
 -->
<!-- Title: CO_User_Collection\delete_from_db Pages: 1 -->
<svg width="602pt" height="120pt"
 viewBox="0.00 0.00 601.87 120.00" xmlns="http://www.w3.org/2000/svg" xmlns:xlink="http://www.w3.org/1999/xlink">
<g id="graph0" class="graph" transform="scale(1 1) rotate(0) translate(4 116)">
<title>CO_User_Collection\delete_from_db</title>
<polygon fill="#ffffff" stroke="transparent" points="-4,4 -4,-116 597.8701,-116 597.8701,4 -4,4"/>
<!-- Node1 -->
<g id="node1" class="node">
<title>Node1</title>
<g id="a_node1"><a xlink:title=" ">
<polygon fill="#bfbfbf" stroke="#000000" points="0,-46.5 0,-74.5 107.1475,-74.5 107.1475,-46.5 0,-46.5"/>
<text text-anchor="start" x="8" y="-62.5" font-family="Helvetica,sans-Serif" font-size="10.00" fill="#000000">CO_User_Collection</text>
<text text-anchor="middle" x="53.5737" y="-52.5" font-family="Helvetica,sans-Serif" font-size="10.00" fill="#000000">\delete_from_db</text>
</a>
</g>
</g>
<!-- Node2 -->
<g id="node2" class="node">
<title>Node2</title>
<g id="a_node2"><a xlink:href="a00283.html#a1b874768720083a8a31c9fedcee30e6d" target="_top" xlink:title=" ">
<polygon fill="#ffffff" stroke="#000000" points="143.1475,-93.5 143.1475,-111.5 264.1963,-111.5 264.1963,-93.5 143.1475,-93.5"/>
<text text-anchor="middle" x="203.6719" y="-99.5" font-family="Helvetica,sans-Serif" font-size="10.00" fill="#000000">tCO_Collection\children</text>
</a>
</g>
</g>
<!-- Node1&#45;&gt;Node2 -->
<g id="edge1" class="edge">
<title>Node1&#45;&gt;Node2</title>
<path fill="none" stroke="#191970" d="M103.9718,-74.6022C122.4821,-79.7817 143.2432,-85.591 161.0085,-90.5621"/>
<polygon fill="#191970" stroke="#191970" points="160.5093,-94.0568 171.0826,-93.381 162.3956,-87.3157 160.5093,-94.0568"/>
</g>
<!-- Node3 -->
<g id="node3" class="node">
<title>Node3</title>
<g id="a_node3"><a xlink:href="a00279.html#a2cc75e169901df4a8fc859f42e0e9f8c" target="_top" xlink:title=" ">
<polygon fill="#ffffff" stroke="#000000" points="150.0981,-46.5 150.0981,-74.5 257.2456,-74.5 257.2456,-46.5 150.0981,-46.5"/>
<text text-anchor="start" x="158.0981" y="-62.5" font-family="Helvetica,sans-Serif" font-size="10.00" fill="#000000">CO_User_Collection</text>
<text text-anchor="middle" x="203.6719" y="-52.5" font-family="Helvetica,sans-Serif" font-size="10.00" fill="#000000">\get_login_instance</text>
</a>
</g>
</g>
<!-- Node1&#45;&gt;Node3 -->
<g id="edge2" class="edge">
<title>Node1&#45;&gt;Node3</title>
<path fill="none" stroke="#191970" d="M107.3386,-60.5C117.8568,-60.5 128.9831,-60.5 139.7931,-60.5"/>
<polygon fill="#191970" stroke="#191970" points="140.0302,-64.0001 150.0302,-60.5 140.0302,-57.0001 140.0302,-64.0001"/>
</g>
<!-- Node7 -->
<g id="node7" class="node">
<title>Node7</title>
<g id="a_node7"><a xlink:href="a00311.html#a7d2537d7675ca572ad78096784fe4fe4" target="_top" xlink:title=" ">
<polygon fill="#ffffff" stroke="#000000" points="300.1963,-.5 300.1963,-28.5 420.7031,-28.5 420.7031,-.5 300.1963,-.5"/>
<text text-anchor="start" x="308.1963" y="-16.5" font-family="Helvetica,sans-Serif" font-size="10.00" fill="#000000">A_CO_DB_Table_Base</text>
<text text-anchor="middle" x="360.4497" y="-6.5" font-family="Helvetica,sans-Serif" font-size="10.00" fill="#000000">\user_can_write</text>
</a>
</g>
</g>
<!-- Node1&#45;&gt;Node7 -->
<g id="edge6" class="edge">
<title>Node1&#45;&gt;Node7</title>
<path fill="none" stroke="#191970" d="M100.2035,-46.4844C113.9334,-42.7723 129.0538,-39.0842 143.1475,-36.5 191.8334,-27.5731 247.3679,-22.0299 290.1084,-18.7407"/>
<polygon fill="#191970" stroke="#191970" points="290.4193,-22.2273 300.131,-17.9925 289.8981,-15.2467 290.4193,-22.2273"/>
</g>
<!-- Node4 -->
<g id="node4" class="node">
<title>Node4</title>
<g id="a_node4"><a xlink:href="a00279.html#a67c82465b52bc0d942c84599eb2b62ff" target="_top" xlink:title=" ">
<polygon fill="#ffffff" stroke="#000000" points="306.876,-47.5 306.876,-75.5 414.0234,-75.5 414.0234,-47.5 306.876,-47.5"/>
<text text-anchor="start" x="314.876" y="-63.5" font-family="Helvetica,sans-Serif" font-size="10.00" fill="#000000">CO_User_Collection</text>
<text text-anchor="middle" x="360.4497" y="-53.5" font-family="Helvetica,sans-Serif" font-size="10.00" fill="#000000">\_load_login</text>
</a>
</g>
</g>
<!-- Node3&#45;&gt;Node4 -->
<g id="edge3" class="edge">
<title>Node3&#45;&gt;Node4</title>
<path fill="none" stroke="#191970" d="M257.6259,-60.8441C270.1364,-60.9239 283.5695,-61.0096 296.4641,-61.0919"/>
<polygon fill="#191970" stroke="#191970" points="296.6398,-64.593 306.6619,-61.1569 296.6845,-57.5931 296.6398,-64.593"/>
</g>
<!-- Node5 -->
<g id="node5" class="node">
<title>Node5</title>
<g id="a_node5"><a xlink:href="a00311.html#a8780b40e55827b90bb441671faec2a05" target="_top" xlink:title=" ">
<polygon fill="#ffffff" stroke="#000000" points="465.0332,-3.5 465.0332,-31.5 585.54,-31.5 585.54,-3.5 465.0332,-3.5"/>
<text text-anchor="start" x="473.0332" y="-19.5" font-family="Helvetica,sans-Serif" font-size="10.00" fill="#000000">A_CO_DB_Table_Base</text>
<text text-anchor="middle" x="525.2866" y="-9.5" font-family="Helvetica,sans-Serif" font-size="10.00" fill="#000000">\get_access_object</text>
</a>
</g>
</g>
<!-- Node4&#45;&gt;Node5 -->
<g id="edge4" class="edge">
<title>Node4&#45;&gt;Node5</title>
<path fill="none" stroke="#191970" d="M413.0583,-47.4572C428.8196,-43.25 446.2618,-38.5941 462.604,-34.2319"/>
<polygon fill="#191970" stroke="#191970" points="463.8534,-37.521 472.6124,-31.5604 462.048,-30.7578 463.8534,-37.521"/>
</g>
<!-- Node6 -->
<g id="node6" class="node">
<title>Node6</title>
<g id="a_node6"><a xlink:href="a00319.html#a7f4c18f2ed2bda67f3c38fd95c120c0a" target="_top" xlink:title=" ">
<polygon fill="#ffffff" stroke="#000000" points="456.7031,-52.5 456.7031,-70.5 593.8701,-70.5 593.8701,-52.5 456.7031,-52.5"/>
<text text-anchor="middle" x="525.2866" y="-58.5" font-family="Helvetica,sans-Serif" font-size="10.00" fill="#000000">CO_Main_DB_Record\tags</text>
</a>
</g>
</g>
<!-- Node4&#45;&gt;Node6 -->
<g id="edge5" class="edge">
<title>Node4&#45;&gt;Node6</title>
<path fill="none" stroke="#191970" d="M414.4235,-61.5C424.5984,-61.5 435.4327,-61.5 446.1912,-61.5"/>
<polygon fill="#191970" stroke="#191970" points="446.4591,-65.0001 456.459,-61.5 446.459,-58.0001 446.4591,-65.0001"/>
</g>
<!-- Node7&#45;&gt;Node5 -->
<g id="edge7" class="edge">
<title>Node7&#45;&gt;Node5</title>
<path fill="none" stroke="#191970" d="M420.8929,-15.6001C431.8672,-15.7998 443.4024,-16.0097 454.6394,-16.2142"/>
<polygon fill="#191970" stroke="#191970" points="454.7887,-19.7174 464.8507,-16.4001 454.9161,-12.7186 454.7887,-19.7174"/>
</g>
</g>
</svg>
