<?xml version="1.0" encoding="UTF-8" standalone="no"?>
<!DOCTYPE svg PUBLIC "-//W3C//DTD SVG 1.1//EN"
 "http://www.w3.org/Graphics/SVG/1.1/DTD/svg11.dtd">
<!-- Generated by graphviz version 2.40.1 (20161225.0304)
 -->
<!-- Title: CO_Place\_get_address_element_labels Pages: 1 -->
<!--zoomable 340 -->
<svg id="main" version="1.1" xmlns="http://www.w3.org/2000/svg" xmlns:xlink="http://www.w3.org/1999/xlink" xml:space="preserve" onload="init(evt)">
<style type="text/css"><![CDATA[
.edge:hover path { stroke: red; }
.edge:hover polygon { stroke: red; fill: red; }
]]></style>
<script type="text/javascript"><![CDATA[
var edges = document.getElementsByTagName('g');
if (edges && edges.length) {
  for (var i=0;i<edges.length;i++) {
    if (edges[i].id.substr(0,4)=='edge') {
      edges[i].setAttribute('class','edge');
    }
  }
}
]]></script>
        <defs>
                <circle id="rim" cx="0" cy="0" r="7"/>
                <circle id="rim2" cx="0" cy="0" r="3.5"/>
                <g id="zoomPlus">
                        <use xlink:href="#rim" fill="#404040">
                                <set attributeName="fill" to="#808080" begin="zoomplus.mouseover" end="zoomplus.mouseout"/>
                        </use>
                        <path d="M-4,0h8M0,-4v8" fill="none" stroke="white" stroke-width="1.5" pointer-events="none"/>
                </g>
                <g id="zoomMin">
                        <use xlink:href="#rim" fill="#404040">
                                <set attributeName="fill" to="#808080" begin="zoomminus.mouseover" end="zoomminus.mouseout"/>
                        </use>
                        <path d="M-4,0h8" fill="none" stroke="white" stroke-width="1.5" pointer-events="none"/>
                </g>
                <g id="dirArrow">
                        <path fill="none" stroke="white" stroke-width="1.5" d="M0,-3.0v7 M-2.5,-0.5L0,-3.0L2.5,-0.5"/>
                </g>
               <g id="resetDef">
                       <use xlink:href="#rim2" fill="#404040">
                               <set attributeName="fill" to="#808080" begin="reset.mouseover" end="reset.mouseout"/>
                       </use>
               </g>
        </defs>

<script type="text/javascript">
var viewWidth = 635;
var viewHeight = 340;
var sectionId = 'dynsection-3';
</script>
<script xlink:href="svgpan.js"/>
<svg id="graph" class="graph">
<g id="viewport">
<title>CO_Place\_get_address_element_labels</title>
<polygon fill="#ffffff" stroke="transparent" points="-4,4 -4,-336 631.2783,-336 631.2783,4 -4,4"/>
<!-- Node9 -->
<g id="node1" class="node">
<title>Node9</title>
<polygon fill="#bfbfbf" stroke="#000000" points="0,-150.5 0,-178.5 124.9551,-178.5 124.9551,-150.5 0,-150.5"/>
<text text-anchor="start" x="8" y="-166.5" font-family="Helvetica,sans-Serif" font-size="10.00" fill="#000000">CO_Place\_get_address</text>
<text text-anchor="middle" x="62.4775" y="-156.5" font-family="Helvetica,sans-Serif" font-size="10.00" fill="#000000">_element_labels</text>
</g>
<!-- Node10 -->
<g id="node2" class="node">
<title>Node10</title>
<g id="a_node2"><a xlink:href="a00263.html#ae074113629e04696f13a4e6c5316124a" target="_top" xlink:title="CO_Place\\geocode_long_lat">
<polygon fill="#ffffff" stroke="#000000" points="160.9551,-313.5 160.9551,-331.5 304.2695,-331.5 304.2695,-313.5 160.9551,-313.5"/>
<text text-anchor="middle" x="232.6123" y="-319.5" font-family="Helvetica,sans-Serif" font-size="10.00" fill="#000000">CO_Place\geocode_long_lat</text>
</a>
</g>
</g>
<!-- Node9&#45;&gt;Node10 -->
<g id="edge1" class="edge">
<title>Node9&#45;&gt;Node10</title>
<path fill="none" stroke="#191970" d="M72.4731,-187.8343C87.1701,-219.2803 117.6364,-274.7403 160.9551,-304.5 166.347,-308.2042 172.4346,-311.147 178.7265,-313.4846"/>
<polygon fill="#191970" stroke="#191970" points="75.5735,-186.1963 68.2591,-178.5314 69.1972,-189.0846 75.5735,-186.1963"/>
</g>
<!-- Node11 -->
<g id="node3" class="node">
<title>Node11</title>
<g id="a_node3"><a xlink:href="a00263.html#a0291fd7ecd95dc96d7be64516d5ce32e" target="_top" xlink:title="CO_Place\\get_address\l_element_by_index">
<polygon fill="#ffffff" stroke="#000000" points="172.9155,-266.5 172.9155,-294.5 292.3091,-294.5 292.3091,-266.5 172.9155,-266.5"/>
<text text-anchor="start" x="180.9155" y="-282.5" font-family="Helvetica,sans-Serif" font-size="10.00" fill="#000000">CO_Place\get_address</text>
<text text-anchor="middle" x="232.6123" y="-272.5" font-family="Helvetica,sans-Serif" font-size="10.00" fill="#000000">_element_by_index</text>
</a>
</g>
</g>
<!-- Node9&#45;&gt;Node11 -->
<g id="edge2" class="edge">
<title>Node9&#45;&gt;Node11</title>
<path fill="none" stroke="#191970" d="M80.3461,-186.2823C98.608,-207.2472 128.7837,-238.4904 160.9551,-257.5 166.6919,-260.8898 172.9869,-263.8418 179.39,-266.3959"/>
<polygon fill="#191970" stroke="#191970" points="82.8818,-183.8619 73.7267,-178.5295 77.5582,-188.4072 82.8818,-183.8619"/>
</g>
<!-- Node12 -->
<g id="node4" class="node">
<title>Node12</title>
<g id="a_node4"><a xlink:href="a00263.html#a855be001c1b2b611e2bdea044602ec8c" target="_top" xlink:title="CO_Place\\get_address\l_elements">
<polygon fill="#ffffff" stroke="#000000" points="172.9155,-219.5 172.9155,-247.5 292.3091,-247.5 292.3091,-219.5 172.9155,-219.5"/>
<text text-anchor="start" x="180.9155" y="-235.5" font-family="Helvetica,sans-Serif" font-size="10.00" fill="#000000">CO_Place\get_address</text>
<text text-anchor="middle" x="232.6123" y="-225.5" font-family="Helvetica,sans-Serif" font-size="10.00" fill="#000000">_elements</text>
</a>
</g>
</g>
<!-- Node9&#45;&gt;Node12 -->
<g id="edge3" class="edge">
<title>Node9&#45;&gt;Node12</title>
<path fill="none" stroke="#191970" d="M99.2333,-183.0192C117.5433,-191.8961 140.1614,-202.3441 160.9551,-210.5 168.8613,-213.601 177.3723,-216.6101 185.6712,-219.374"/>
<polygon fill="#191970" stroke="#191970" points="100.604,-179.7934 90.0835,-178.5409 97.5267,-186.0807 100.604,-179.7934"/>
</g>
<!-- Node13 -->
<g id="node5" class="node">
<title>Node13</title>
<g id="a_node5"><a xlink:href="a00263.html#ac6cd579fa87a0f4fe7e88e265722319a" target="_top" xlink:title="CO_Place\\get_readable\l_address">
<polygon fill="#ffffff" stroke="#000000" points="171.2432,-172.5 171.2432,-200.5 293.9814,-200.5 293.9814,-172.5 171.2432,-172.5"/>
<text text-anchor="start" x="179.2432" y="-188.5" font-family="Helvetica,sans-Serif" font-size="10.00" fill="#000000">CO_Place\get_readable</text>
<text text-anchor="middle" x="232.6123" y="-178.5" font-family="Helvetica,sans-Serif" font-size="10.00" fill="#000000">_address</text>
</a>
</g>
</g>
<!-- Node9&#45;&gt;Node13 -->
<g id="edge4" class="edge">
<title>Node9&#45;&gt;Node13</title>
<path fill="none" stroke="#191970" d="M135.281,-173.9142C147.2258,-175.4587 159.5002,-177.0459 171.1353,-178.5504"/>
<polygon fill="#191970" stroke="#191970" points="135.7124,-170.4409 125.3461,-172.6295 134.8146,-177.3831 135.7124,-170.4409"/>
</g>
<!-- Node15 -->
<g id="node7" class="node">
<title>Node15</title>
<g id="a_node7"><a xlink:href="a00263.html#a7b99eb196e710f9cf14ad39601e2b3ad" target="_top" xlink:title="CO_Place\\set_address\l_element">
<polygon fill="#ffffff" stroke="#000000" points="173.1963,-86.5 173.1963,-114.5 292.0283,-114.5 292.0283,-86.5 173.1963,-86.5"/>
<text text-anchor="start" x="181.1963" y="-102.5" font-family="Helvetica,sans-Serif" font-size="10.00" fill="#000000">CO_Place\set_address</text>
<text text-anchor="middle" x="232.6123" y="-92.5" font-family="Helvetica,sans-Serif" font-size="10.00" fill="#000000">_element</text>
</a>
</g>
</g>
<!-- Node9&#45;&gt;Node15 -->
<g id="edge6" class="edge">
<title>Node9&#45;&gt;Node15</title>
<path fill="none" stroke="#191970" d="M109.4705,-146.8226C136.551,-136.6356 170.1176,-124.0088 195.3626,-114.5123"/>
<polygon fill="#191970" stroke="#191970" points="107.9417,-143.6581 99.8143,-150.4549 110.4063,-150.2099 107.9417,-143.6581"/>
</g>
<!-- Node16 -->
<g id="node8" class="node">
<title>Node16</title>
<g id="a_node8"><a xlink:href="a00263.html#a94507f0c219ba9bc342e40d6064941db" target="_top" xlink:title="CO_Place\\set_address\l_elements">
<polygon fill="#ffffff" stroke="#000000" points="348.3335,-110.5 348.3335,-138.5 467.1655,-138.5 467.1655,-110.5 348.3335,-110.5"/>
<text text-anchor="start" x="356.3335" y="-126.5" font-family="Helvetica,sans-Serif" font-size="10.00" fill="#000000">CO_Place\set_address</text>
<text text-anchor="middle" x="407.7495" y="-116.5" font-family="Helvetica,sans-Serif" font-size="10.00" fill="#000000">_elements</text>
</a>
</g>
</g>
<!-- Node9&#45;&gt;Node16 -->
<g id="edge11" class="edge">
<title>Node9&#45;&gt;Node16</title>
<path fill="none" stroke="#191970" d="M135.3156,-156.0617C198.6391,-148.7256 289.2465,-138.2287 348.2854,-131.389"/>
<polygon fill="#191970" stroke="#191970" points="134.5344,-152.6287 125.0037,-157.2563 135.3401,-159.5822 134.5344,-152.6287"/>
</g>
<!-- Node18 -->
<g id="node10" class="node">
<title>Node18</title>
<g id="a_node10"><a xlink:href="a00263.html#a775079ce6d7951fc6597173ac55d0218" target="_top" xlink:title="CO_Place\\set_address\l_element_by_key">
<polygon fill="#ffffff" stroke="#000000" points="348.3335,-53.5 348.3335,-81.5 467.1655,-81.5 467.1655,-53.5 348.3335,-53.5"/>
<text text-anchor="start" x="356.3335" y="-69.5" font-family="Helvetica,sans-Serif" font-size="10.00" fill="#000000">CO_Place\set_address</text>
<text text-anchor="middle" x="407.7495" y="-59.5" font-family="Helvetica,sans-Serif" font-size="10.00" fill="#000000">_element_by_key</text>
</a>
</g>
</g>
<!-- Node9&#45;&gt;Node18 -->
<g id="edge10" class="edge">
<title>Node9&#45;&gt;Node18</title>
<path fill="none" stroke="#191970" d="M79.3503,-142.3537C97.0443,-121.072 126.9706,-90.1867 160.9551,-76.5 221.3069,-52.1943 296.8276,-53.5417 348.3272,-58.6698"/>
<polygon fill="#191970" stroke="#191970" points="76.5273,-140.2787 72.9698,-150.2584 81.9743,-144.6754 76.5273,-140.2787"/>
</g>
<!-- Node19 -->
<g id="node11" class="node">
<title>Node19</title>
<g id="a_node11"><a xlink:href="a00263.html#a887a876b0603db0289a8bdc7ab4e66b2" target="_top" xlink:title="CO_Place\\set_tags_from\l_address_elements">
<polygon fill="#ffffff" stroke="#000000" points="168.7529,-.5 168.7529,-28.5 296.4717,-28.5 296.4717,-.5 168.7529,-.5"/>
<text text-anchor="start" x="176.7529" y="-16.5" font-family="Helvetica,sans-Serif" font-size="10.00" fill="#000000">CO_Place\set_tags_from</text>
<text text-anchor="middle" x="232.6123" y="-6.5" font-family="Helvetica,sans-Serif" font-size="10.00" fill="#000000">_address_elements</text>
</a>
</g>
</g>
<!-- Node9&#45;&gt;Node19 -->
<g id="edge12" class="edge">
<title>Node9&#45;&gt;Node19</title>
<path fill="none" stroke="#191970" d="M76.0901,-141.5275C92.9868,-114.7496 124.1197,-70.7033 160.9551,-43.5 169.0519,-37.5204 178.5549,-32.5554 187.9452,-28.5237"/>
<polygon fill="#191970" stroke="#191970" points="72.9967,-139.8755 70.7212,-150.2231 78.9529,-143.553 72.9967,-139.8755"/>
</g>
<!-- Node14 -->
<g id="node6" class="node">
<title>Node14</title>
<g id="a_node6"><a xlink:href="a00263.html#a1319c3b11d29aae2bb70fd8aeddfee93" target="_top" xlink:title="CO_Place\\lookup_address">
<polygon fill="#ffffff" stroke="#000000" points="340.2695,-177.5 340.2695,-195.5 475.2295,-195.5 475.2295,-177.5 340.2695,-177.5"/>
<text text-anchor="middle" x="407.7495" y="-183.5" font-family="Helvetica,sans-Serif" font-size="10.00" fill="#000000">CO_Place\lookup_address</text>
</a>
</g>
</g>
<!-- Node13&#45;&gt;Node14 -->
<g id="edge5" class="edge">
<title>Node13&#45;&gt;Node14</title>
<path fill="none" stroke="#191970" d="M304.5435,-186.5C316.2709,-186.5 328.3851,-186.5 340.0075,-186.5"/>
<polygon fill="#191970" stroke="#191970" points="304.3592,-183.0001 294.3591,-186.5 304.3591,-190.0001 304.3592,-183.0001"/>
</g>
<!-- Node15&#45;&gt;Node16 -->
<g id="edge7" class="edge">
<title>Node15&#45;&gt;Node16</title>
<path fill="none" stroke="#191970" d="M302.7012,-110.1047C317.7885,-112.1721 333.5973,-114.3385 348.2365,-116.3446"/>
<polygon fill="#191970" stroke="#191970" points="302.7774,-106.5825 292.3948,-108.6923 301.827,-113.5177 302.7774,-106.5825"/>
</g>
<!-- Node15&#45;&gt;Node18 -->
<g id="edge9" class="edge">
<title>Node15&#45;&gt;Node18</title>
<path fill="none" stroke="#191970" d="M302.2662,-87.3756C317.4843,-84.5081 333.4565,-81.4986 348.2365,-78.7137"/>
<polygon fill="#191970" stroke="#191970" points="301.5737,-83.9444 292.3948,-89.2356 302.8699,-90.8233 301.5737,-83.9444"/>
</g>
<!-- Node17 -->
<g id="node9" class="node">
<title>Node17</title>
<g id="a_node9"><a xlink:href="a00263.html#a0828fcac351a2f23404059be980e7b41" target="_top" xlink:title="CO_Place\\__construct">
<polygon fill="#ffffff" stroke="#000000" points="511.2295,-115.5 511.2295,-133.5 627.2783,-133.5 627.2783,-115.5 511.2295,-115.5"/>
<text text-anchor="middle" x="569.2539" y="-121.5" font-family="Helvetica,sans-Serif" font-size="10.00" fill="#000000">CO_Place\__construct</text>
</a>
</g>
</g>
<!-- Node16&#45;&gt;Node17 -->
<g id="edge8" class="edge">
<title>Node16&#45;&gt;Node17</title>
<path fill="none" stroke="#191970" d="M477.6052,-124.5C488.8008,-124.5 500.281,-124.5 511.1637,-124.5"/>
<polygon fill="#191970" stroke="#191970" points="477.429,-121.0001 467.4289,-124.5 477.4289,-128.0001 477.429,-121.0001"/>
</g>
</g>
</svg>
        <g id="navigator" transform="translate(0 0)" fill="#404254">
                <rect fill="#f2f5e9" fill-opacity="0.5" stroke="#606060" stroke-width=".5" x="0" y="0" width="60" height="60"/>
                <use id="zoomplus" xlink:href="#zoomPlus" x="17" y="9" onmousedown="handleZoom(evt,'in')"/>
                <use id="zoomminus" xlink:href="#zoomMin" x="42" y="9" onmousedown="handleZoom(evt,'out')"/>
                <use id="reset" xlink:href="#resetDef" x="30" y="36" onmousedown="handleReset()"/>
                <g id="arrowUp" xlink:href="#dirArrow" transform="translate(30 24)" onmousedown="handlePan(0,-1)">
                  <use xlink:href="#rim" fill="#404040">
                        <set attributeName="fill" to="#808080" begin="arrowUp.mouseover" end="arrowUp.mouseout"/>
                  </use>
                  <path fill="none" stroke="white" stroke-width="1.5" d="M0,-3.0v7 M-2.5,-0.5L0,-3.0L2.5,-0.5"/>
                </g>
                <g id="arrowRight" xlink:href="#dirArrow" transform="rotate(90) translate(36 -43)" onmousedown="handlePan(1,0)">
                  <use xlink:href="#rim" fill="#404040">
                        <set attributeName="fill" to="#808080" begin="arrowRight.mouseover" end="arrowRight.mouseout"/>
                  </use>
                  <path fill="none" stroke="white" stroke-width="1.5" d="M0,-3.0v7 M-2.5,-0.5L0,-3.0L2.5,-0.5"/>
                </g>
                <g id="arrowDown" xlink:href="#dirArrow" transform="rotate(180) translate(-30 -48)" onmousedown="handlePan(0,1)">
                  <use xlink:href="#rim" fill="#404040">
                        <set attributeName="fill" to="#808080" begin="arrowDown.mouseover" end="arrowDown.mouseout"/>
                  </use>
                  <path fill="none" stroke="white" stroke-width="1.5" d="M0,-3.0v7 M-2.5,-0.5L0,-3.0L2.5,-0.5"/>
                </g>
                <g id="arrowLeft" xlink:href="#dirArrow" transform="rotate(270) translate(-36 17)" onmousedown="handlePan(-1,0)">
                  <use xlink:href="#rim" fill="#404040">
                        <set attributeName="fill" to="#808080" begin="arrowLeft.mouseover" end="arrowLeft.mouseout"/>
                  </use>
                  <path fill="none" stroke="white" stroke-width="1.5" d="M0,-3.0v7 M-2.5,-0.5L0,-3.0L2.5,-0.5"/>
                </g>
        </g>
        <svg viewBox="0 0 15 15" width="100%" height="30px" preserveAspectRatio="xMaxYMin meet">
         <g id="arrow_out" transform="scale(0.3 0.3)">
          <a xlink:href="a00263_a60b73dee76e98e806f4a872cca13ee58_icgraph_org.svg" target="_base">
           <rect id="button" ry="5" rx="5" y="6" x="6" height="38" width="38"
                fill="#f2f5e9" fill-opacity="0.5" stroke="#606060" stroke-width="1.0"/>
           <path id="arrow"
             d="M 11.500037,31.436501 C 11.940474,20.09759 22.043105,11.32322 32.158766,21.979434 L 37.068811,17.246167 C 37.068811,17.246167 37.088388,32 37.088388,32 L 22.160133,31.978069 C 22.160133,31.978069 26.997745,27.140456 26.997745,27.140456 C 18.528582,18.264221 13.291696,25.230495 11.500037,31.436501 z"
             style="fill:#404040;"/>
          </a>
         </g>
        </svg>
</svg>
