<?xml version="1.0" encoding="UTF-8" standalone="no"?>
<!DOCTYPE svg PUBLIC "-//W3C//DTD SVG 1.1//EN"
 "http://www.w3.org/Graphics/SVG/1.1/DTD/svg11.dtd">
<!-- Generated by graphviz version 2.40.1 (20161225.0304)
 -->
<!-- Title: CO_Cobra\_create_new_login Pages: 1 -->
<svg width="479pt" height="111pt"
 viewBox="0.00 0.00 479.28 111.00" xmlns="http://www.w3.org/2000/svg" xmlns:xlink="http://www.w3.org/1999/xlink">
<g id="graph0" class="graph" transform="scale(1 1) rotate(0) translate(4 107)">
<title>CO_Cobra\_create_new_login</title>
<polygon fill="#ffffff" stroke="transparent" points="-4,4 -4,-107 475.2793,-107 475.2793,4 -4,4"/>
<!-- Node1 -->
<g id="node1" class="node">
<title>Node1</title>
<g id="a_node1"><a xlink:title=" ">
<polygon fill="#bfbfbf" stroke="#000000" points="0,-32.5 0,-60.5 123.8369,-60.5 123.8369,-32.5 0,-32.5"/>
<text text-anchor="start" x="8" y="-48.5" font-family="Helvetica,sans-Serif" font-size="10.00" fill="#000000">CO_Cobra\_create_new</text>
<text text-anchor="middle" x="61.9185" y="-38.5" font-family="Helvetica,sans-Serif" font-size="10.00" fill="#000000">_login</text>
</a>
</g>
</g>
<!-- Node2 -->
<g id="node2" class="node">
<title>Node2</title>
<g id="a_node2"><a xlink:href="a00236.html#a01a955e518587e995a53000c2638c2a8" target="_top" xlink:title=" ">
<polygon fill="#ffffff" stroke="#000000" points="168.7285,-74.5 168.7285,-102.5 289.7822,-102.5 289.7822,-74.5 168.7285,-74.5"/>
<text text-anchor="start" x="176.7285" y="-90.5" font-family="Helvetica,sans-Serif" font-size="10.00" fill="#000000">CO_Cobra\_create_this</text>
<text text-anchor="middle" x="229.2554" y="-80.5" font-family="Helvetica,sans-Serif" font-size="10.00" fill="#000000">_many_personal_ids</text>
</a>
</g>
</g>
<!-- Node1&#45;&gt;Node2 -->
<g id="edge1" class="edge">
<title>Node1&#45;&gt;Node2</title>
<path fill="none" stroke="#191970" d="M118.1047,-60.6022C132.6695,-64.2579 148.4842,-68.2272 163.4925,-71.9941"/>
<polygon fill="#191970" stroke="#191970" points="162.6662,-75.3952 173.2174,-74.435 164.3703,-68.6058 162.6662,-75.3952"/>
</g>
<!-- Node4 -->
<g id="node4" class="node">
<title>Node4</title>
<g id="a_node4"><a xlink:href="a00236.html#a0815b59b59c157227c283e260ab2576f" target="_top" xlink:title=" ">
<polygon fill="#ffffff" stroke="#000000" points="159.8369,-37.5 159.8369,-55.5 298.6738,-55.5 298.6738,-37.5 159.8369,-37.5"/>
<text text-anchor="middle" x="229.2554" y="-43.5" font-family="Helvetica,sans-Serif" font-size="10.00" fill="#000000">CO_Cobra\get_security_ids</text>
</a>
</g>
</g>
<!-- Node1&#45;&gt;Node4 -->
<g id="edge3" class="edge">
<title>Node1&#45;&gt;Node4</title>
<path fill="none" stroke="#191970" d="M124.2285,-46.5C132.4202,-46.5 140.9047,-46.5 149.3382,-46.5"/>
<polygon fill="#191970" stroke="#191970" points="149.5769,-50.0001 159.5768,-46.5 149.5768,-43.0001 149.5769,-50.0001"/>
</g>
<!-- Node5 -->
<g id="node5" class="node">
<title>Node5</title>
<g id="a_node5"><a xlink:href="a00340.html#aac538e52310a1c332914682a9c2ec8d2" target="_top" xlink:title=" ">
<polygon fill="#ffffff" stroke="#000000" points="161.7754,-.5 161.7754,-18.5 296.7354,-18.5 296.7354,-.5 161.7754,-.5"/>
<text text-anchor="middle" x="229.2554" y="-6.5" font-family="Helvetica,sans-Serif" font-size="10.00" fill="#000000">CO_Security_Login\is_god</text>
</a>
</g>
</g>
<!-- Node1&#45;&gt;Node5 -->
<g id="edge4" class="edge">
<title>Node1&#45;&gt;Node5</title>
<path fill="none" stroke="#191970" d="M124.2285,-32.7226C142.172,-28.7551 161.52,-24.477 178.6608,-20.687"/>
<polygon fill="#191970" stroke="#191970" points="179.4621,-24.0944 188.4706,-18.5179 177.9508,-17.2595 179.4621,-24.0944"/>
</g>
<!-- Node3 -->
<g id="node3" class="node">
<title>Node3</title>
<g id="a_node3"><a xlink:href="a00236.html#a2e644cc197709e85295026701e3a672e" target="_top" xlink:title=" ">
<polygon fill="#ffffff" stroke="#000000" points="334.6738,-74.5 334.6738,-102.5 471.2793,-102.5 471.2793,-74.5 334.6738,-74.5"/>
<text text-anchor="start" x="342.6738" y="-90.5" font-family="Helvetica,sans-Serif" font-size="10.00" fill="#000000">CO_Cobra\_make_security</text>
<text text-anchor="middle" x="402.9766" y="-80.5" font-family="Helvetica,sans-Serif" font-size="10.00" fill="#000000">_token</text>
</a>
</g>
</g>
<!-- Node2&#45;&gt;Node3 -->
<g id="edge2" class="edge">
<title>Node2&#45;&gt;Node3</title>
<path fill="none" stroke="#191970" d="M290.0146,-88.5C301.139,-88.5 312.8931,-88.5 324.4487,-88.5"/>
<polygon fill="#191970" stroke="#191970" points="324.5317,-92.0001 334.5317,-88.5 324.5316,-85.0001 324.5317,-92.0001"/>
</g>
<!-- Node6 -->
<g id="node6" class="node">
<title>Node6</title>
<g id="a_node6"><a xlink:href="a00308.html#a78affe18a811930d4012fd265e95cdca" target="_top" xlink:title=" ">
<polygon fill="#ffffff" stroke="#000000" points="337.4424,-.5 337.4424,-18.5 468.5107,-18.5 468.5107,-.5 337.4424,-.5"/>
<text text-anchor="middle" x="402.9766" y="-6.5" font-family="Helvetica,sans-Serif" font-size="10.00" fill="#000000">A_CO_DB_Table_Base\id</text>
</a>
</g>
</g>
<!-- Node5&#45;&gt;Node6 -->
<g id="edge5" class="edge">
<title>Node5&#45;&gt;Node6</title>
<path fill="none" stroke="#191970" d="M296.918,-9.5C306.7464,-9.5 316.9199,-9.5 326.9006,-9.5"/>
<polygon fill="#191970" stroke="#191970" points="327.2091,-13.0001 337.2091,-9.5 327.2091,-6.0001 327.2091,-13.0001"/>
</g>
</g>
</svg>
