<?xml version="1.0" encoding="UTF-8" standalone="no"?>
<!DOCTYPE svg PUBLIC "-//W3C//DTD SVG 1.1//EN"
 "http://www.w3.org/Graphics/SVG/1.1/DTD/svg11.dtd">
<!-- Generated by graphviz version 2.47.1 (20210417.1919)
 -->
<!-- Title: CO_Andisol\get_cobra_instance Pages: 1 -->
<!--zoomable 498 -->
<svg id="main" version="1.1" xmlns="http://www.w3.org/2000/svg" xmlns:xlink="http://www.w3.org/1999/xlink" xml:space="preserve" onload="init(evt)">
<style type="text/css"><![CDATA[
.edge:hover path { stroke: red; }
.edge:hover polygon { stroke: red; fill: red; }
]]></style>
<script type="text/javascript"><![CDATA[
var edges = document.getElementsByTagName('g');
if (edges && edges.length) {
  for (var i=0;i<edges.length;i++) {
    if (edges[i].id.substr(0,4)=='edge') {
      edges[i].setAttribute('class','edge');
    }
  }
}
]]></script>
        <defs>
                <circle id="rim" cx="0" cy="0" r="7"/>
                <circle id="rim2" cx="0" cy="0" r="3.5"/>
                <g id="zoomPlus">
                        <use xlink:href="#rim" fill="#404040">
                                <set attributeName="fill" to="#808080" begin="zoomplus.mouseover" end="zoomplus.mouseout"/>
                        </use>
                        <path d="M-4,0h8M0,-4v8" fill="none" stroke="white" stroke-width="1.5" pointer-events="none"/>
                </g>
                <g id="zoomMin">
                        <use xlink:href="#rim" fill="#404040">
                                <set attributeName="fill" to="#808080" begin="zoomminus.mouseover" end="zoomminus.mouseout"/>
                        </use>
                        <path d="M-4,0h8" fill="none" stroke="white" stroke-width="1.5" pointer-events="none"/>
                </g>
                <g id="dirArrow">
                        <path fill="none" stroke="white" stroke-width="1.5" d="M0,-3.0v7 M-2.5,-0.5L0,-3.0L2.5,-0.5"/>
                </g>
               <g id="resetDef">
                       <use xlink:href="#rim2" fill="#404040">
                               <set attributeName="fill" to="#808080" begin="reset.mouseover" end="reset.mouseout"/>
                       </use>
               </g>
        </defs>

<script type="text/javascript">
var viewWidth = 686;
var viewHeight = 498;
var sectionId = 'dynsection-44';
</script>
<script xlink:href="svgpan.js"/>
<svg id="graph" class="graph">
<g id="viewport">
<title>CO_Andisol\get_cobra_instance</title>
<polygon fill="white" stroke="transparent" points="-4,4 -4,-493.5 682,-493.5 682,4 -4,4"/>
<!-- Node1 -->
<g id="node1" class="node">
<title>Node1</title>
<g id="a_node1"><a xlink:title=" ">
<polygon fill="#bfbfbf" stroke="black" points="563,-238 563,-268 678,-268 678,-238 563,-238"/>
<text text-anchor="start" x="571" y="-256" font-family="Helvetica,sans-Serif" font-size="10.00">CO_Andisol\get_cobra</text>
<text text-anchor="middle" x="620.5" y="-245" font-family="Helvetica,sans-Serif" font-size="10.00">_instance</text>
</a>
</g>
</g>
<!-- Node2 -->
<g id="node2" class="node">
<title>Node2</title>
<g id="a_node2"><a xlink:href="a00216.html#a737ba5cc859a773ab48d09f365fbb4b6" target="_top" xlink:title=" ">
<polygon fill="white" stroke="black" points="188,-459 188,-489 329,-489 329,-459 188,-459"/>
<text text-anchor="start" x="196" y="-477" font-family="Helvetica,sans-Serif" font-size="10.00">CO_Andisol\_make_security</text>
<text text-anchor="middle" x="258.5" y="-466" font-family="Helvetica,sans-Serif" font-size="10.00">_token</text>
</a>
</g>
</g>
<!-- Node1&#45;&gt;Node2 -->
<g id="edge1" class="edge">
<title>Node1&#45;&gt;Node2</title>
<path fill="none" stroke="midnightblue" d="M613.11,-278.18C602.18,-315.8 576.16,-386.08 527,-422 469.51,-464.01 387.16,-474.59 329.06,-476.19"/>
<polygon fill="midnightblue" stroke="midnightblue" points="616.61,-278.63 615.91,-268.06 609.87,-276.76 616.61,-278.63"/>
</g>
<!-- Node4 -->
<g id="node4" class="node">
<title>Node4</title>
<g id="a_node4"><a xlink:href="a00216.html#a261070d0681001cd68e3ffd904a125af" target="_top" xlink:title=" ">
<polygon fill="white" stroke="black" points="402,-137 402,-167 506,-167 506,-137 402,-137"/>
<text text-anchor="start" x="410" y="-155" font-family="Helvetica,sans-Serif" font-size="10.00">CO_Andisol\convert</text>
<text text-anchor="middle" x="454" y="-144" font-family="Helvetica,sans-Serif" font-size="10.00">_login</text>
</a>
</g>
</g>
<!-- Node1&#45;&gt;Node4 -->
<g id="edge3" class="edge">
<title>Node1&#45;&gt;Node4</title>
<path fill="none" stroke="midnightblue" d="M595.03,-231.38C577.07,-216.24 551.61,-196.25 527,-182 517.39,-176.44 506.55,-171.36 496.25,-167.03"/>
<polygon fill="midnightblue" stroke="midnightblue" points="592.85,-234.12 602.72,-237.96 597.4,-228.8 592.85,-234.12"/>
</g>
<!-- Node5 -->
<g id="node5" class="node">
<title>Node5</title>
<g id="a_node5"><a xlink:href="a00216.html#a7e71657278a1727f85fd6ee01f6101a7" target="_top" xlink:title=" ">
<polygon fill="white" stroke="black" points="393,-88 393,-118 515,-118 515,-88 393,-88"/>
<text text-anchor="start" x="401" y="-106" font-family="Helvetica,sans-Serif" font-size="10.00">CO_Andisol\create_new</text>
<text text-anchor="middle" x="454" y="-95" font-family="Helvetica,sans-Serif" font-size="10.00">_manager_login</text>
</a>
</g>
</g>
<!-- Node1&#45;&gt;Node5 -->
<g id="edge4" class="edge">
<title>Node1&#45;&gt;Node5</title>
<path fill="none" stroke="midnightblue" d="M607.57,-228.62C592.53,-200.3 564.08,-154.02 527,-127 522.31,-123.59 517.11,-120.64 511.71,-118.09"/>
<polygon fill="midnightblue" stroke="midnightblue" points="604.63,-230.55 612.33,-237.83 610.85,-227.34 604.63,-230.55"/>
</g>
<!-- Node6 -->
<g id="node6" class="node">
<title>Node6</title>
<g id="a_node6"><a xlink:href="a00216.html#ab31036a757a9d324cb40d5cb6f06fe16" target="_top" xlink:title=" ">
<polygon fill="white" stroke="black" points="393,-39 393,-69 515,-69 515,-39 393,-39"/>
<text text-anchor="start" x="401" y="-57" font-family="Helvetica,sans-Serif" font-size="10.00">CO_Andisol\create_new</text>
<text text-anchor="middle" x="454" y="-46" font-family="Helvetica,sans-Serif" font-size="10.00">_standard_login</text>
</a>
</g>
</g>
<!-- Node1&#45;&gt;Node6 -->
<g id="edge5" class="edge">
<title>Node1&#45;&gt;Node6</title>
<path fill="none" stroke="midnightblue" d="M612.89,-228.23C601.57,-190.47 574.92,-118.62 527,-78 522.98,-74.59 518.46,-71.66 513.69,-69.15"/>
<polygon fill="midnightblue" stroke="midnightblue" points="609.55,-229.28 615.68,-237.92 616.28,-227.34 609.55,-229.28"/>
</g>
<!-- Node7 -->
<g id="node7" class="node">
<title>Node7</title>
<g id="a_node7"><a xlink:href="a00216.html#a5ec809e73e54f420281e8398364fc0b5" target="_top" xlink:title=" ">
<polygon fill="white" stroke="black" points="185.5,-420.5 185.5,-439.5 331.5,-439.5 331.5,-420.5 185.5,-420.5"/>
<text text-anchor="middle" x="258.5" y="-427.5" font-family="Helvetica,sans-Serif" font-size="10.00">CO_Andisol\create_new_user</text>
</a>
</g>
</g>
<!-- Node1&#45;&gt;Node7 -->
<g id="edge6" class="edge">
<title>Node1&#45;&gt;Node7</title>
<path fill="none" stroke="midnightblue" d="M609.95,-277.28C596.43,-308.19 568.63,-360.72 527,-387 468.43,-423.97 388.73,-432.63 331.6,-433.33"/>
<polygon fill="midnightblue" stroke="midnightblue" points="613.17,-278.64 613.83,-268.06 606.72,-275.91 613.17,-278.64"/>
</g>
<!-- Node8 -->
<g id="node8" class="node">
<title>Node8</title>
<g id="a_node8"><a xlink:href="a00216.html#aa4f45eb1ec9c5acc7709cfd9b08348f3" target="_top" xlink:title=" ">
<polygon fill="white" stroke="black" points="197.5,-382.5 197.5,-401.5 319.5,-401.5 319.5,-382.5 197.5,-382.5"/>
<text text-anchor="middle" x="258.5" y="-389.5" font-family="Helvetica,sans-Serif" font-size="10.00">CO_Andisol\delete_user</text>
</a>
</g>
</g>
<!-- Node1&#45;&gt;Node8 -->
<g id="edge7" class="edge">
<title>Node1&#45;&gt;Node8</title>
<path fill="none" stroke="midnightblue" d="M605.18,-276.72C589.28,-300.75 561.3,-336.89 527,-355 462.01,-389.31 376.32,-395.48 319.64,-395.1"/>
<polygon fill="midnightblue" stroke="midnightblue" points="608.21,-278.48 610.66,-268.17 602.32,-274.7 608.21,-278.48"/>
</g>
<!-- Node9 -->
<g id="node9" class="node">
<title>Node9</title>
<g id="a_node9"><a xlink:href="a00216.html#ae0e62c8ade9295c9b5a2d3b725f8f222" target="_top" xlink:title=" ">
<polygon fill="white" stroke="black" points="208,-333 208,-363 309,-363 309,-333 208,-333"/>
<text text-anchor="start" x="216" y="-351" font-family="Helvetica,sans-Serif" font-size="10.00">CO_Andisol\get_all</text>
<text text-anchor="middle" x="258.5" y="-340" font-family="Helvetica,sans-Serif" font-size="10.00">_logins</text>
</a>
</g>
</g>
<!-- Node1&#45;&gt;Node9 -->
<g id="edge8" class="edge">
<title>Node1&#45;&gt;Node9</title>
<path fill="none" stroke="midnightblue" d="M599.36,-275.98C582.13,-293.9 555.63,-317.59 527,-329 455.32,-357.58 364.32,-357.11 309.07,-353.24"/>
<polygon fill="midnightblue" stroke="midnightblue" points="602.34,-277.92 606.6,-268.22 597.22,-273.14 602.34,-277.92"/>
</g>
<!-- Node10 -->
<g id="node10" class="node">
<title>Node10</title>
<g id="a_node10"><a xlink:href="a00216.html#a61b9a275c4b8b824d9a2b3aadd421bf7" target="_top" xlink:title=" ">
<polygon fill="white" stroke="black" points="203.5,-245 203.5,-275 313.5,-275 313.5,-245 203.5,-245"/>
<text text-anchor="start" x="211.5" y="-263" font-family="Helvetica,sans-Serif" font-size="10.00">CO_Andisol\get_user</text>
<text text-anchor="middle" x="258.5" y="-252" font-family="Helvetica,sans-Serif" font-size="10.00">_from_login</text>
</a>
</g>
</g>
<!-- Node1&#45;&gt;Node10 -->
<g id="edge9" class="edge">
<title>Node1&#45;&gt;Node10</title>
<path fill="none" stroke="midnightblue" d="M552.55,-254.3C483.64,-255.64 377.61,-257.7 313.76,-258.95"/>
<polygon fill="midnightblue" stroke="midnightblue" points="552.92,-257.8 562.85,-254.1 552.79,-250.8 552.92,-257.8"/>
</g>
<!-- Node13 -->
<g id="node13" class="node">
<title>Node13</title>
<g id="a_node13"><a xlink:href="a00216.html#a73ccfd34793c0197e2dc336b44e3577e" target="_top" xlink:title=" ">
<polygon fill="white" stroke="black" points="172,-206.5 172,-225.5 345,-225.5 345,-206.5 172,-206.5"/>
<text text-anchor="middle" x="258.5" y="-213.5" font-family="Helvetica,sans-Serif" font-size="10.00">CO_Andisol\make_standalone_user</text>
</a>
</g>
</g>
<!-- Node1&#45;&gt;Node13 -->
<g id="edge12" class="edge">
<title>Node1&#45;&gt;Node13</title>
<path fill="none" stroke="midnightblue" d="M552.62,-246.13C494.12,-240.11 408.82,-231.35 345.31,-224.82"/>
<polygon fill="midnightblue" stroke="midnightblue" points="552.55,-249.64 562.85,-247.18 553.26,-242.67 552.55,-249.64"/>
</g>
<!-- Node14 -->
<g id="node14" class="node">
<title>Node14</title>
<g id="a_node14"><a xlink:href="a00216.html#af5f39aa13714ad544a9099edb0d51cd5" target="_top" xlink:title=" ">
<polygon fill="white" stroke="black" points="399,-300.5 399,-319.5 509,-319.5 509,-300.5 399,-300.5"/>
<text text-anchor="middle" x="454" y="-307.5" font-family="Helvetica,sans-Serif" font-size="10.00">CO_Andisol\manager</text>
</a>
</g>
</g>
<!-- Node1&#45;&gt;Node14 -->
<g id="edge13" class="edge">
<title>Node1&#45;&gt;Node14</title>
<path fill="none" stroke="midnightblue" d="M568.14,-271.54C554.76,-276.31 540.36,-281.39 527,-286 512.93,-290.86 497.25,-296.1 484.12,-300.45"/>
<polygon fill="midnightblue" stroke="midnightblue" points="569.42,-274.8 577.66,-268.13 567.07,-268.2 569.42,-274.8"/>
</g>
<!-- Node19 -->
<g id="node19" class="node">
<title>Node19</title>
<g id="a_node19"><a xlink:href="a00216.html#a4a99f9757a91355dd3aca720dcf5a770" target="_top" xlink:title=" ">
<polygon fill="white" stroke="black" points="192.5,-168.5 192.5,-187.5 324.5,-187.5 324.5,-168.5 192.5,-168.5"/>
<text text-anchor="middle" x="258.5" y="-175.5" font-family="Helvetica,sans-Serif" font-size="10.00">CO_Andisol\who_can_see</text>
</a>
</g>
</g>
<!-- Node1&#45;&gt;Node19 -->
<g id="edge26" class="edge">
<title>Node1&#45;&gt;Node19</title>
<path fill="none" stroke="midnightblue" d="M561.44,-235.03C550.08,-231.8 538.21,-228.63 527,-226 457.99,-209.78 377.84,-196.07 323.4,-187.5"/>
<polygon fill="midnightblue" stroke="midnightblue" points="560.69,-238.46 571.27,-237.87 562.63,-231.73 560.69,-238.46"/>
</g>
<!-- Node20 -->
<g id="node20" class="node">
<title>Node20</title>
<g id="a_node20"><a xlink:href="a00216.html#a17c44c4340cb58aeb9fa9b6ad39ae1ca" target="_top" xlink:title=" ">
<polygon fill="white" stroke="black" points="381,-0.5 381,-19.5 527,-19.5 527,-0.5 381,-0.5"/>
<text text-anchor="middle" x="454" y="-7.5" font-family="Helvetica,sans-Serif" font-size="10.00">CO_Andisol\set_personal_ids</text>
</a>
</g>
</g>
<!-- Node1&#45;&gt;Node20 -->
<g id="edge25" class="edge">
<title>Node1&#45;&gt;Node20</title>
<path fill="none" stroke="midnightblue" d="M616.41,-227.71C609.35,-181.21 587.69,-82.08 527,-29 522.62,-25.17 517.56,-22.1 512.18,-19.64"/>
<polygon fill="midnightblue" stroke="midnightblue" points="612.97,-228.41 617.84,-237.82 619.9,-227.43 612.97,-228.41"/>
</g>
<!-- Node3 -->
<g id="node3" class="node">
<title>Node3</title>
<g id="a_node3"><a xlink:href="a00216.html#ad0ac8fb3000239301a9f2be905c1a124" target="_top" xlink:title=" ">
<polygon fill="white" stroke="black" points="0,-459 0,-489 136,-489 136,-459 0,-459"/>
<text text-anchor="start" x="8" y="-477" font-family="Helvetica,sans-Serif" font-size="10.00">CO_Andisol\make_security</text>
<text text-anchor="middle" x="68" y="-466" font-family="Helvetica,sans-Serif" font-size="10.00">_token</text>
</a>
</g>
</g>
<!-- Node2&#45;&gt;Node3 -->
<g id="edge2" class="edge">
<title>Node2&#45;&gt;Node3</title>
<path fill="none" stroke="midnightblue" d="M177.84,-474C163.97,-474 149.67,-474 136.17,-474"/>
<polygon fill="midnightblue" stroke="midnightblue" points="177.85,-477.5 187.85,-474 177.85,-470.5 177.85,-477.5"/>
</g>
<!-- Node11 -->
<g id="node11" class="node">
<title>Node11</title>
<g id="a_node11"><a xlink:href="a00216.html#a661842aaa6be17af30fbac58b5008c36" target="_top" xlink:title=" ">
<polygon fill="white" stroke="black" points="5,-201.5 5,-220.5 131,-220.5 131,-201.5 5,-201.5"/>
<text text-anchor="middle" x="68" y="-208.5" font-family="Helvetica,sans-Serif" font-size="10.00">CO_Andisol\current_user</text>
</a>
</g>
</g>
<!-- Node10&#45;&gt;Node11 -->
<g id="edge10" class="edge">
<title>Node10&#45;&gt;Node11</title>
<path fill="none" stroke="midnightblue" d="M193.73,-243.42C164.42,-235.8 130.69,-227.04 105.71,-220.54"/>
<polygon fill="midnightblue" stroke="midnightblue" points="192.92,-246.83 203.48,-245.96 194.69,-240.06 192.92,-246.83"/>
</g>
<!-- Node12 -->
<g id="node12" class="node">
<title>Node12</title>
<g id="a_node12"><a xlink:href="a00216.html#a7d4be5fe8eb59e59a6ca94a781980e4f" target="_top" xlink:title=" ">
<polygon fill="white" stroke="black" points="13,-240 13,-270 123,-270 123,-240 13,-240"/>
<text text-anchor="start" x="21" y="-258" font-family="Helvetica,sans-Serif" font-size="10.00">CO_Andisol\get_user</text>
<text text-anchor="middle" x="68" y="-247" font-family="Helvetica,sans-Serif" font-size="10.00">_from_login_string</text>
</a>
</g>
</g>
<!-- Node10&#45;&gt;Node12 -->
<g id="edge11" class="edge">
<title>Node10&#45;&gt;Node12</title>
<path fill="none" stroke="midnightblue" d="M193.2,-258.29C170.36,-257.69 144.91,-257.01 123.02,-256.43"/>
<polygon fill="midnightblue" stroke="midnightblue" points="193.39,-261.8 203.48,-258.57 193.58,-254.8 193.39,-261.8"/>
</g>
<!-- Node14&#45;&gt;Node2 -->
<g id="edge14" class="edge">
<title>Node14&#45;&gt;Node2</title>
<path fill="none" stroke="midnightblue" d="M443.49,-328.77C427.36,-358.72 391.77,-417.19 345,-449 339.37,-452.83 333.16,-456.08 326.72,-458.84"/>
<polygon fill="midnightblue" stroke="midnightblue" points="446.66,-330.27 448.21,-319.78 440.46,-327.01 446.66,-330.27"/>
</g>
<!-- Node14&#45;&gt;Node7 -->
<g id="edge15" class="edge">
<title>Node14&#45;&gt;Node7</title>
<path fill="none" stroke="midnightblue" d="M439.52,-327.42C420.85,-350.28 384.87,-389.98 345,-411 337.6,-414.9 329.44,-418 321.18,-420.47"/>
<polygon fill="midnightblue" stroke="midnightblue" points="442.3,-329.55 445.8,-319.55 436.83,-325.18 442.3,-329.55"/>
</g>
<!-- Node14&#45;&gt;Node8 -->
<g id="edge16" class="edge">
<title>Node14&#45;&gt;Node8</title>
<path fill="none" stroke="midnightblue" d="M431.48,-325.26C410.38,-339.56 376.83,-360.53 345,-373 335.37,-376.77 324.83,-379.88 314.53,-382.41"/>
<polygon fill="midnightblue" stroke="midnightblue" points="433.46,-328.15 439.72,-319.59 429.49,-322.38 433.46,-328.15"/>
</g>
<!-- Node14&#45;&gt;Node9 -->
<g id="edge17" class="edge">
<title>Node14&#45;&gt;Node9</title>
<path fill="none" stroke="midnightblue" d="M394.04,-321.58C366.96,-326.9 335.19,-333.14 309.32,-338.22"/>
<polygon fill="midnightblue" stroke="midnightblue" points="395.03,-324.95 404.17,-319.59 393.68,-318.08 395.03,-324.95"/>
</g>
<!-- Node14&#45;&gt;Node10 -->
<g id="edge18" class="edge">
<title>Node14&#45;&gt;Node10</title>
<path fill="none" stroke="midnightblue" d="M406.25,-297.92C378.38,-290.72 342.88,-281.55 313.78,-274.03"/>
<polygon fill="midnightblue" stroke="midnightblue" points="405.59,-301.36 416.15,-300.48 407.34,-294.59 405.59,-301.36"/>
</g>
<!-- Node14&#45;&gt;Node13 -->
<g id="edge23" class="edge">
<title>Node14&#45;&gt;Node13</title>
<path fill="none" stroke="midnightblue" d="M434.6,-293.83C414.12,-276.69 379.37,-250.05 345,-235 336.23,-231.16 326.59,-228.05 317.05,-225.56"/>
<polygon fill="midnightblue" stroke="midnightblue" points="432.33,-296.5 442.21,-300.32 436.87,-291.17 432.33,-296.5"/>
</g>
<!-- Node15 -->
<g id="node15" class="node">
<title>Node15</title>
<g id="a_node15"><a xlink:href="a00216.html#a370ab6e2bb53c900f25a6005d0e5077d" target="_top" xlink:title=" ">
<polygon fill="white" stroke="black" points="214.5,-294.5 214.5,-313.5 302.5,-313.5 302.5,-294.5 214.5,-294.5"/>
<text text-anchor="middle" x="258.5" y="-301.5" font-family="Helvetica,sans-Serif" font-size="10.00">CO_Andisol\god</text>
</a>
</g>
</g>
<!-- Node14&#45;&gt;Node15 -->
<g id="edge19" class="edge">
<title>Node14&#45;&gt;Node15</title>
<path fill="none" stroke="midnightblue" d="M388.63,-308C360.35,-307.13 327.9,-306.12 302.6,-305.34"/>
<polygon fill="midnightblue" stroke="midnightblue" points="388.74,-311.51 398.84,-308.32 388.96,-304.51 388.74,-311.51"/>
</g>
<!-- Node14&#45;&gt;Node19 -->
<g id="edge24" class="edge">
<title>Node14&#45;&gt;Node19</title>
<path fill="none" stroke="midnightblue" d="M441.05,-291.96C423.26,-266.6 387.32,-220.86 345,-197 338.11,-193.12 330.49,-190.03 322.73,-187.57"/>
<polygon fill="midnightblue" stroke="midnightblue" points="438.23,-294.03 446.77,-300.3 444,-290.07 438.23,-294.03"/>
</g>
<!-- Node16 -->
<g id="node16" class="node">
<title>Node16</title>
<g id="a_node16"><a xlink:href="a00216.html#a86bc3621ffe539ac5a9239375f0a786b" target="_top" xlink:title=" ">
<polygon fill="white" stroke="black" points="17.5,-387 17.5,-417 118.5,-417 118.5,-387 17.5,-387"/>
<text text-anchor="start" x="25.5" y="-405" font-family="Helvetica,sans-Serif" font-size="10.00">CO_Andisol\get_all</text>
<text text-anchor="middle" x="68" y="-394" font-family="Helvetica,sans-Serif" font-size="10.00">_login_users</text>
</a>
</g>
</g>
<!-- Node15&#45;&gt;Node16 -->
<g id="edge20" class="edge">
<title>Node15&#45;&gt;Node16</title>
<path fill="none" stroke="midnightblue" d="M204.51,-309.9C193.1,-312.89 181.59,-317.35 172,-324 148.3,-340.44 158.73,-360.24 136,-378 130.84,-382.03 124.95,-385.42 118.84,-388.27"/>
<polygon fill="midnightblue" stroke="midnightblue" points="205.49,-313.27 214.46,-307.64 203.94,-306.44 205.49,-313.27"/>
</g>
<!-- Node17 -->
<g id="node17" class="node">
<title>Node17</title>
<g id="a_node17"><a xlink:href="a00216.html#acd1e344f9f0087ee41414e6aa5f13e1e" target="_top" xlink:title=" ">
<polygon fill="white" stroke="black" points="17.5,-338 17.5,-368 118.5,-368 118.5,-338 17.5,-338"/>
<text text-anchor="start" x="25.5" y="-356" font-family="Helvetica,sans-Serif" font-size="10.00">CO_Andisol\get_all</text>
<text text-anchor="middle" x="68" y="-345" font-family="Helvetica,sans-Serif" font-size="10.00">_standalone_users</text>
</a>
</g>
</g>
<!-- Node15&#45;&gt;Node17 -->
<g id="edge21" class="edge">
<title>Node15&#45;&gt;Node17</title>
<path fill="none" stroke="midnightblue" d="M204.94,-315.9C194.03,-318.48 182.62,-321.26 172,-324 154.55,-328.5 135.54,-333.75 118.65,-338.54"/>
<polygon fill="midnightblue" stroke="midnightblue" points="205.85,-319.29 214.79,-313.6 204.25,-312.47 205.85,-319.29"/>
</g>
<!-- Node18 -->
<g id="node18" class="node">
<title>Node18</title>
<g id="a_node18"><a xlink:href="a00216.html#a9d3578d72df7af2ff07e23ea7b1b1af9" target="_top" xlink:title=" ">
<polygon fill="white" stroke="black" points="17.5,-289 17.5,-319 118.5,-319 118.5,-289 17.5,-289"/>
<text text-anchor="start" x="25.5" y="-307" font-family="Helvetica,sans-Serif" font-size="10.00">CO_Andisol\get_all</text>
<text text-anchor="middle" x="68" y="-296" font-family="Helvetica,sans-Serif" font-size="10.00">_users</text>
</a>
</g>
</g>
<!-- Node15&#45;&gt;Node18 -->
<g id="edge22" class="edge">
<title>Node15&#45;&gt;Node18</title>
<path fill="none" stroke="midnightblue" d="M203.9,-304C177.12,-304 144.93,-304 118.71,-304"/>
<polygon fill="midnightblue" stroke="midnightblue" points="204.25,-307.5 214.25,-304 204.25,-300.5 204.25,-307.5"/>
</g>
</g>
</svg>
        <g id="navigator" transform="translate(0 0)" fill="#404254">
                <rect fill="#f2f5e9" fill-opacity="0.5" stroke="#606060" stroke-width=".5" x="0" y="0" width="60" height="60"/>
                <use id="zoomplus" xlink:href="#zoomPlus" x="17" y="9" onmousedown="handleZoom(evt,'in')"/>
                <use id="zoomminus" xlink:href="#zoomMin" x="42" y="9" onmousedown="handleZoom(evt,'out')"/>
                <use id="reset" xlink:href="#resetDef" x="30" y="36" onmousedown="handleReset()"/>
                <g id="arrowUp" xlink:href="#dirArrow" transform="translate(30 24)" onmousedown="handlePan(0,-1)">
                  <use xlink:href="#rim" fill="#404040">
                        <set attributeName="fill" to="#808080" begin="arrowUp.mouseover" end="arrowUp.mouseout"/>
                  </use>
                  <path fill="none" stroke="white" stroke-width="1.5" d="M0,-3.0v7 M-2.5,-0.5L0,-3.0L2.5,-0.5"/>
                </g>
                <g id="arrowRight" xlink:href="#dirArrow" transform="rotate(90) translate(36 -43)" onmousedown="handlePan(1,0)">
                  <use xlink:href="#rim" fill="#404040">
                        <set attributeName="fill" to="#808080" begin="arrowRight.mouseover" end="arrowRight.mouseout"/>
                  </use>
                  <path fill="none" stroke="white" stroke-width="1.5" d="M0,-3.0v7 M-2.5,-0.5L0,-3.0L2.5,-0.5"/>
                </g>
                <g id="arrowDown" xlink:href="#dirArrow" transform="rotate(180) translate(-30 -48)" onmousedown="handlePan(0,1)">
                  <use xlink:href="#rim" fill="#404040">
                        <set attributeName="fill" to="#808080" begin="arrowDown.mouseover" end="arrowDown.mouseout"/>
                  </use>
                  <path fill="none" stroke="white" stroke-width="1.5" d="M0,-3.0v7 M-2.5,-0.5L0,-3.0L2.5,-0.5"/>
                </g>
                <g id="arrowLeft" xlink:href="#dirArrow" transform="rotate(270) translate(-36 17)" onmousedown="handlePan(-1,0)">
                  <use xlink:href="#rim" fill="#404040">
                        <set attributeName="fill" to="#808080" begin="arrowLeft.mouseover" end="arrowLeft.mouseout"/>
                  </use>
                  <path fill="none" stroke="white" stroke-width="1.5" d="M0,-3.0v7 M-2.5,-0.5L0,-3.0L2.5,-0.5"/>
                </g>
        </g>
        <svg viewBox="0 0 15 15" width="100%" height="30px" preserveAspectRatio="xMaxYMin meet">
         <g id="arrow_out" transform="scale(0.3 0.3)">
          <a xlink:href="a00216_a3605f036c8c634afaa74f67e5853a0ad_icgraph_org.svg" target="_base">
           <rect id="button" ry="5" rx="5" y="6" x="6" height="38" width="38"
                fill="#f2f5e9" fill-opacity="0.5" stroke="#606060" stroke-width="1.0"/>
           <path id="arrow"
             d="M 11.500037,31.436501 C 11.940474,20.09759 22.043105,11.32322 32.158766,21.979434 L 37.068811,17.246167 C 37.068811,17.246167 37.088388,32 37.088388,32 L 22.160133,31.978069 C 22.160133,31.978069 26.997745,27.140456 26.997745,27.140456 C 18.528582,18.264221 13.291696,25.230495 11.500037,31.436501 z"
             style="fill:#404040;"/>
          </a>
         </g>
        </svg>
</svg>
