<?xml version="1.0" encoding="UTF-8" standalone="no"?>
<!DOCTYPE svg PUBLIC "-//W3C//DTD SVG 1.1//EN"
 "http://www.w3.org/Graphics/SVG/1.1/DTD/svg11.dtd">
<!-- Generated by graphviz version 2.40.1 (20161225.0304)
 -->
<!-- Title: CO_Place\_get_address_element_labels Pages: 1 -->
<!--zoomable 340 -->
<svg id="main" version="1.1" xmlns="http://www.w3.org/2000/svg" xmlns:xlink="http://www.w3.org/1999/xlink" xml:space="preserve" onload="init(evt)">
<style type="text/css"><![CDATA[
.edge:hover path { stroke: red; }
.edge:hover polygon { stroke: red; fill: red; }
]]></style>
<script type="text/javascript"><![CDATA[
var edges = document.getElementsByTagName('g');
if (edges && edges.length) {
  for (var i=0;i<edges.length;i++) {
    if (edges[i].id.substr(0,4)=='edge') {
      edges[i].setAttribute('class','edge');
    }
  }
}
]]></script>
        <defs>
                <circle id="rim" cx="0" cy="0" r="7"/>
                <circle id="rim2" cx="0" cy="0" r="3.5"/>
                <g id="zoomPlus">
                        <use xlink:href="#rim" fill="#404040">
                                <set attributeName="fill" to="#808080" begin="zoomplus.mouseover" end="zoomplus.mouseout"/>
                        </use>
                        <path d="M-4,0h8M0,-4v8" fill="none" stroke="white" stroke-width="1.5" pointer-events="none"/>
                </g>
                <g id="zoomMin">
                        <use xlink:href="#rim" fill="#404040">
                                <set attributeName="fill" to="#808080" begin="zoomminus.mouseover" end="zoomminus.mouseout"/>
                        </use>
                        <path d="M-4,0h8" fill="none" stroke="white" stroke-width="1.5" pointer-events="none"/>
                </g>
                <g id="dirArrow">
                        <path fill="none" stroke="white" stroke-width="1.5" d="M0,-3.0v7 M-2.5,-0.5L0,-3.0L2.5,-0.5"/>
                </g>
               <g id="resetDef">
                       <use xlink:href="#rim2" fill="#404040">
                               <set attributeName="fill" to="#808080" begin="reset.mouseover" end="reset.mouseout"/>
                       </use>
               </g>
        </defs>

<script type="text/javascript">
var viewWidth = 635;
var viewHeight = 340;
var sectionId = 'dynsection-3';
</script>
<script xlink:href="svgpan.js"/>
<svg id="graph" class="graph">
<g id="viewport">
<title>CO_Place\_get_address_element_labels</title>
<polygon fill="#ffffff" stroke="transparent" points="-4,4 -4,-336 631.2783,-336 631.2783,4 -4,4"/>
<!-- Node1 -->
<g id="node1" class="node">
<title>Node1</title>
<g id="a_node1"><a xlink:title=" ">
<polygon fill="#bfbfbf" stroke="#000000" points="502.3232,-150.5 502.3232,-178.5 627.2783,-178.5 627.2783,-150.5 502.3232,-150.5"/>
<text text-anchor="start" x="510.3232" y="-166.5" font-family="Helvetica,sans-Serif" font-size="10.00" fill="#000000">CO_Place\_get_address</text>
<text text-anchor="middle" x="564.8008" y="-156.5" font-family="Helvetica,sans-Serif" font-size="10.00" fill="#000000">_element_labels</text>
</a>
</g>
</g>
<!-- Node2 -->
<g id="node2" class="node">
<title>Node2</title>
<g id="a_node2"><a xlink:href="a00260.html#ae074113629e04696f13a4e6c5316124a" target="_top" xlink:title=" ">
<polygon fill="#ffffff" stroke="#000000" points="323.0088,-313.5 323.0088,-331.5 466.3232,-331.5 466.3232,-313.5 323.0088,-313.5"/>
<text text-anchor="middle" x="394.666" y="-319.5" font-family="Helvetica,sans-Serif" font-size="10.00" fill="#000000">CO_Place\geocode_long_lat</text>
</a>
</g>
</g>
<!-- Node1&#45;&gt;Node2 -->
<g id="edge1" class="edge">
<title>Node1&#45;&gt;Node2</title>
<path fill="none" stroke="#191970" d="M554.8052,-187.8343C540.1083,-219.2803 509.6419,-274.7403 466.3232,-304.5 460.9313,-308.2042 454.8437,-311.147 448.5518,-313.4846"/>
<polygon fill="#191970" stroke="#191970" points="558.0812,-189.0846 559.0192,-178.5314 551.7048,-186.1963 558.0812,-189.0846"/>
</g>
<!-- Node3 -->
<g id="node3" class="node">
<title>Node3</title>
<g id="a_node3"><a xlink:href="a00260.html#a0291fd7ecd95dc96d7be64516d5ce32e" target="_top" xlink:title=" ">
<polygon fill="#ffffff" stroke="#000000" points="334.9692,-266.5 334.9692,-294.5 454.3628,-294.5 454.3628,-266.5 334.9692,-266.5"/>
<text text-anchor="start" x="342.9692" y="-282.5" font-family="Helvetica,sans-Serif" font-size="10.00" fill="#000000">CO_Place\get_address</text>
<text text-anchor="middle" x="394.666" y="-272.5" font-family="Helvetica,sans-Serif" font-size="10.00" fill="#000000">_element_by_index</text>
</a>
</g>
</g>
<!-- Node1&#45;&gt;Node3 -->
<g id="edge2" class="edge">
<title>Node1&#45;&gt;Node3</title>
<path fill="none" stroke="#191970" d="M546.9322,-186.2823C528.6703,-207.2472 498.4946,-238.4904 466.3232,-257.5 460.5864,-260.8898 454.2914,-263.8418 447.8884,-266.3959"/>
<polygon fill="#191970" stroke="#191970" points="549.7201,-188.4072 553.5516,-178.5295 544.3965,-183.8619 549.7201,-188.4072"/>
</g>
<!-- Node4 -->
<g id="node4" class="node">
<title>Node4</title>
<g id="a_node4"><a xlink:href="a00260.html#a855be001c1b2b611e2bdea044602ec8c" target="_top" xlink:title=" ">
<polygon fill="#ffffff" stroke="#000000" points="334.9692,-219.5 334.9692,-247.5 454.3628,-247.5 454.3628,-219.5 334.9692,-219.5"/>
<text text-anchor="start" x="342.9692" y="-235.5" font-family="Helvetica,sans-Serif" font-size="10.00" fill="#000000">CO_Place\get_address</text>
<text text-anchor="middle" x="394.666" y="-225.5" font-family="Helvetica,sans-Serif" font-size="10.00" fill="#000000">_elements</text>
</a>
</g>
</g>
<!-- Node1&#45;&gt;Node4 -->
<g id="edge3" class="edge">
<title>Node1&#45;&gt;Node4</title>
<path fill="none" stroke="#191970" d="M528.0451,-183.0192C509.735,-191.8961 487.1169,-202.3441 466.3232,-210.5 458.417,-213.601 449.906,-216.6101 441.6071,-219.374"/>
<polygon fill="#191970" stroke="#191970" points="529.7517,-186.0807 537.1948,-178.5409 526.6743,-179.7934 529.7517,-186.0807"/>
</g>
<!-- Node5 -->
<g id="node5" class="node">
<title>Node5</title>
<g id="a_node5"><a xlink:href="a00260.html#ac6cd579fa87a0f4fe7e88e265722319a" target="_top" xlink:title=" ">
<polygon fill="#ffffff" stroke="#000000" points="333.2969,-172.5 333.2969,-200.5 456.0352,-200.5 456.0352,-172.5 333.2969,-172.5"/>
<text text-anchor="start" x="341.2969" y="-188.5" font-family="Helvetica,sans-Serif" font-size="10.00" fill="#000000">CO_Place\get_readable</text>
<text text-anchor="middle" x="394.666" y="-178.5" font-family="Helvetica,sans-Serif" font-size="10.00" fill="#000000">_address</text>
</a>
</g>
</g>
<!-- Node1&#45;&gt;Node5 -->
<g id="edge4" class="edge">
<title>Node1&#45;&gt;Node5</title>
<path fill="none" stroke="#191970" d="M491.9973,-173.9142C480.0525,-175.4587 467.7781,-177.0459 456.1431,-178.5504"/>
<polygon fill="#191970" stroke="#191970" points="492.4637,-177.3831 501.9323,-172.6295 491.5659,-170.4409 492.4637,-177.3831"/>
</g>
<!-- Node7 -->
<g id="node7" class="node">
<title>Node7</title>
<g id="a_node7"><a xlink:href="a00260.html#a7b99eb196e710f9cf14ad39601e2b3ad" target="_top" xlink:title=" ">
<polygon fill="#ffffff" stroke="#000000" points="335.25,-86.5 335.25,-114.5 454.082,-114.5 454.082,-86.5 335.25,-86.5"/>
<text text-anchor="start" x="343.25" y="-102.5" font-family="Helvetica,sans-Serif" font-size="10.00" fill="#000000">CO_Place\set_address</text>
<text text-anchor="middle" x="394.666" y="-92.5" font-family="Helvetica,sans-Serif" font-size="10.00" fill="#000000">_element</text>
</a>
</g>
</g>
<!-- Node1&#45;&gt;Node7 -->
<g id="edge6" class="edge">
<title>Node1&#45;&gt;Node7</title>
<path fill="none" stroke="#191970" d="M517.8078,-146.8226C490.7273,-136.6356 457.1607,-124.0088 431.9157,-114.5123"/>
<polygon fill="#191970" stroke="#191970" points="516.872,-150.2099 527.464,-150.4549 519.3366,-143.6581 516.872,-150.2099"/>
</g>
<!-- Node8 -->
<g id="node8" class="node">
<title>Node8</title>
<g id="a_node8"><a xlink:href="a00260.html#a775079ce6d7951fc6597173ac55d0218" target="_top" xlink:title=" ">
<polygon fill="#ffffff" stroke="#000000" points="160.1128,-110.5 160.1128,-138.5 278.9448,-138.5 278.9448,-110.5 160.1128,-110.5"/>
<text text-anchor="start" x="168.1128" y="-126.5" font-family="Helvetica,sans-Serif" font-size="10.00" fill="#000000">CO_Place\set_address</text>
<text text-anchor="middle" x="219.5288" y="-116.5" font-family="Helvetica,sans-Serif" font-size="10.00" fill="#000000">_element_by_key</text>
</a>
</g>
</g>
<!-- Node1&#45;&gt;Node8 -->
<g id="edge10" class="edge">
<title>Node1&#45;&gt;Node8</title>
<path fill="none" stroke="#191970" d="M491.9628,-156.0617C428.6392,-148.7256 338.0318,-138.2287 278.9929,-131.389"/>
<polygon fill="#191970" stroke="#191970" points="491.9383,-159.5822 502.2746,-157.2563 492.7439,-152.6287 491.9383,-159.5822"/>
</g>
<!-- Node9 -->
<g id="node9" class="node">
<title>Node9</title>
<g id="a_node9"><a xlink:href="a00260.html#a94507f0c219ba9bc342e40d6064941db" target="_top" xlink:title=" ">
<polygon fill="#ffffff" stroke="#000000" points="160.1128,-53.5 160.1128,-81.5 278.9448,-81.5 278.9448,-53.5 160.1128,-53.5"/>
<text text-anchor="start" x="168.1128" y="-69.5" font-family="Helvetica,sans-Serif" font-size="10.00" fill="#000000">CO_Place\set_address</text>
<text text-anchor="middle" x="219.5288" y="-59.5" font-family="Helvetica,sans-Serif" font-size="10.00" fill="#000000">_elements</text>
</a>
</g>
</g>
<!-- Node1&#45;&gt;Node9 -->
<g id="edge11" class="edge">
<title>Node1&#45;&gt;Node9</title>
<path fill="none" stroke="#191970" d="M547.928,-142.3537C530.2341,-121.072 500.3078,-90.1867 466.3232,-76.5 405.9714,-52.1943 330.4508,-53.5417 278.9511,-58.6698"/>
<polygon fill="#191970" stroke="#191970" points="545.304,-144.6754 554.3085,-150.2584 550.751,-140.2787 545.304,-144.6754"/>
</g>
<!-- Node11 -->
<g id="node11" class="node">
<title>Node11</title>
<g id="a_node11"><a xlink:href="a00260.html#a887a876b0603db0289a8bdc7ab4e66b2" target="_top" xlink:title=" ">
<polygon fill="#ffffff" stroke="#000000" points="330.8066,-.5 330.8066,-28.5 458.5254,-28.5 458.5254,-.5 330.8066,-.5"/>
<text text-anchor="start" x="338.8066" y="-16.5" font-family="Helvetica,sans-Serif" font-size="10.00" fill="#000000">CO_Place\set_tags_from</text>
<text text-anchor="middle" x="394.666" y="-6.5" font-family="Helvetica,sans-Serif" font-size="10.00" fill="#000000">_address_elements</text>
</a>
</g>
</g>
<!-- Node1&#45;&gt;Node11 -->
<g id="edge12" class="edge">
<title>Node1&#45;&gt;Node11</title>
<path fill="none" stroke="#191970" d="M551.1883,-141.5275C534.2915,-114.7496 503.1586,-70.7033 466.3232,-43.5 458.2264,-37.5204 448.7234,-32.5554 439.3332,-28.5237"/>
<polygon fill="#191970" stroke="#191970" points="548.3254,-143.553 556.5572,-150.2231 554.2816,-139.8755 548.3254,-143.553"/>
</g>
<!-- Node6 -->
<g id="node6" class="node">
<title>Node6</title>
<g id="a_node6"><a xlink:href="a00260.html#a1319c3b11d29aae2bb70fd8aeddfee93" target="_top" xlink:title=" ">
<polygon fill="#ffffff" stroke="#000000" points="152.0488,-177.5 152.0488,-195.5 287.0088,-195.5 287.0088,-177.5 152.0488,-177.5"/>
<text text-anchor="middle" x="219.5288" y="-183.5" font-family="Helvetica,sans-Serif" font-size="10.00" fill="#000000">CO_Place\lookup_address</text>
</a>
</g>
</g>
<!-- Node5&#45;&gt;Node6 -->
<g id="edge5" class="edge">
<title>Node5&#45;&gt;Node6</title>
<path fill="none" stroke="#191970" d="M322.7349,-186.5C311.0074,-186.5 298.8932,-186.5 287.2708,-186.5"/>
<polygon fill="#191970" stroke="#191970" points="322.9192,-190.0001 332.9192,-186.5 322.9192,-183.0001 322.9192,-190.0001"/>
</g>
<!-- Node7&#45;&gt;Node8 -->
<g id="edge7" class="edge">
<title>Node7&#45;&gt;Node8</title>
<path fill="none" stroke="#191970" d="M324.5771,-110.1047C309.4899,-112.1721 293.681,-114.3385 279.0418,-116.3446"/>
<polygon fill="#191970" stroke="#191970" points="325.4514,-113.5177 334.8836,-108.6923 324.5009,-106.5825 325.4514,-113.5177"/>
</g>
<!-- Node7&#45;&gt;Node9 -->
<g id="edge8" class="edge">
<title>Node7&#45;&gt;Node9</title>
<path fill="none" stroke="#191970" d="M325.0121,-87.3756C309.794,-84.5081 293.8218,-81.4986 279.0418,-78.7137"/>
<polygon fill="#191970" stroke="#191970" points="324.4084,-90.8233 334.8836,-89.2356 325.7046,-83.9444 324.4084,-90.8233"/>
</g>
<!-- Node10 -->
<g id="node10" class="node">
<title>Node10</title>
<g id="a_node10"><a xlink:href="a00260.html#a0828fcac351a2f23404059be980e7b41" target="_top" xlink:title=" ">
<polygon fill="#ffffff" stroke="#000000" points="0,-58.5 0,-76.5 116.0488,-76.5 116.0488,-58.5 0,-58.5"/>
<text text-anchor="middle" x="58.0244" y="-64.5" font-family="Helvetica,sans-Serif" font-size="10.00" fill="#000000">CO_Place\__construct</text>
</a>
</g>
</g>
<!-- Node9&#45;&gt;Node10 -->
<g id="edge9" class="edge">
<title>Node9&#45;&gt;Node10</title>
<path fill="none" stroke="#191970" d="M149.6731,-67.5C138.4775,-67.5 126.9973,-67.5 116.1146,-67.5"/>
<polygon fill="#191970" stroke="#191970" points="149.8494,-71.0001 159.8494,-67.5 149.8494,-64.0001 149.8494,-71.0001"/>
</g>
</g>
</svg>
        <g id="navigator" transform="translate(0 0)" fill="#404254">
                <rect fill="#f2f5e9" fill-opacity="0.5" stroke="#606060" stroke-width=".5" x="0" y="0" width="60" height="60"/>
                <use id="zoomplus" xlink:href="#zoomPlus" x="17" y="9" onmousedown="handleZoom(evt,'in')"/>
                <use id="zoomminus" xlink:href="#zoomMin" x="42" y="9" onmousedown="handleZoom(evt,'out')"/>
                <use id="reset" xlink:href="#resetDef" x="30" y="36" onmousedown="handleReset()"/>
                <g id="arrowUp" xlink:href="#dirArrow" transform="translate(30 24)" onmousedown="handlePan(0,-1)">
                  <use xlink:href="#rim" fill="#404040">
                        <set attributeName="fill" to="#808080" begin="arrowUp.mouseover" end="arrowUp.mouseout"/>
                  </use>
                  <path fill="none" stroke="white" stroke-width="1.5" d="M0,-3.0v7 M-2.5,-0.5L0,-3.0L2.5,-0.5"/>
                </g>
                <g id="arrowRight" xlink:href="#dirArrow" transform="rotate(90) translate(36 -43)" onmousedown="handlePan(1,0)">
                  <use xlink:href="#rim" fill="#404040">
                        <set attributeName="fill" to="#808080" begin="arrowRight.mouseover" end="arrowRight.mouseout"/>
                  </use>
                  <path fill="none" stroke="white" stroke-width="1.5" d="M0,-3.0v7 M-2.5,-0.5L0,-3.0L2.5,-0.5"/>
                </g>
                <g id="arrowDown" xlink:href="#dirArrow" transform="rotate(180) translate(-30 -48)" onmousedown="handlePan(0,1)">
                  <use xlink:href="#rim" fill="#404040">
                        <set attributeName="fill" to="#808080" begin="arrowDown.mouseover" end="arrowDown.mouseout"/>
                  </use>
                  <path fill="none" stroke="white" stroke-width="1.5" d="M0,-3.0v7 M-2.5,-0.5L0,-3.0L2.5,-0.5"/>
                </g>
                <g id="arrowLeft" xlink:href="#dirArrow" transform="rotate(270) translate(-36 17)" onmousedown="handlePan(-1,0)">
                  <use xlink:href="#rim" fill="#404040">
                        <set attributeName="fill" to="#808080" begin="arrowLeft.mouseover" end="arrowLeft.mouseout"/>
                  </use>
                  <path fill="none" stroke="white" stroke-width="1.5" d="M0,-3.0v7 M-2.5,-0.5L0,-3.0L2.5,-0.5"/>
                </g>
        </g>
        <svg viewBox="0 0 15 15" width="100%" height="30px" preserveAspectRatio="xMaxYMin meet">
         <g id="arrow_out" transform="scale(0.3 0.3)">
          <a xlink:href="a00260_a60b73dee76e98e806f4a872cca13ee58_icgraph_org.svg" target="_base">
           <rect id="button" ry="5" rx="5" y="6" x="6" height="38" width="38"
                fill="#f2f5e9" fill-opacity="0.5" stroke="#606060" stroke-width="1.0"/>
           <path id="arrow"
             d="M 11.500037,31.436501 C 11.940474,20.09759 22.043105,11.32322 32.158766,21.979434 L 37.068811,17.246167 C 37.068811,17.246167 37.088388,32 37.088388,32 L 22.160133,31.978069 C 22.160133,31.978069 26.997745,27.140456 26.997745,27.140456 C 18.528582,18.264221 13.291696,25.230495 11.500037,31.436501 z"
             style="fill:#404040;"/>
          </a>
         </g>
        </svg>
</svg>
