<?xml version="1.0" encoding="UTF-8" standalone="no"?>
<!DOCTYPE svg PUBLIC "-//W3C//DTD SVG 1.1//EN"
 "http://www.w3.org/Graphics/SVG/1.1/DTD/svg11.dtd">
<!-- Generated by graphviz version 2.47.1 (20210417.1919)
 -->
<!-- Title: CO_Basalt\plugin_name Pages: 1 -->
<svg width="762pt" height="88pt"
 viewBox="0.00 0.00 762.00 88.00" xmlns="http://www.w3.org/2000/svg" xmlns:xlink="http://www.w3.org/1999/xlink">
<g id="graph0" class="graph" transform="scale(1 1) rotate(0) translate(4 84)">
<title>CO_Basalt\plugin_name</title>
<polygon fill="white" stroke="transparent" points="-4,4 -4,-84 758,-84 758,4 -4,4"/>
<!-- Node1 -->
<g id="node1" class="node">
<title>Node1</title>
<g id="a_node1"><a xlink:title=" ">
<polygon fill="#bfbfbf" stroke="black" points="632,-30 632,-49 754,-49 754,-30 632,-30"/>
<text text-anchor="middle" x="693" y="-37" font-family="Helvetica,sans-Serif" font-size="10.00">CO_Basalt\plugin_name</text>
</a>
</g>
</g>
<!-- Node2 -->
<g id="node2" class="node">
<title>Node2</title>
<g id="a_node2"><a xlink:href="a00200.html#a60ce04d2fc76ab876a428500dccb7dd8" target="_top" xlink:title=" ">
<polygon fill="white" stroke="black" points="486.5,-49.5 486.5,-79.5 593.5,-79.5 593.5,-49.5 486.5,-49.5"/>
<text text-anchor="start" x="494.5" y="-67.5" font-family="Helvetica,sans-Serif" font-size="10.00">CO_Basalt\_process</text>
<text text-anchor="middle" x="540" y="-56.5" font-family="Helvetica,sans-Serif" font-size="10.00">_baseline_command</text>
</a>
</g>
</g>
<!-- Node1&#45;&gt;Node2 -->
<g id="edge1" class="edge">
<title>Node1&#45;&gt;Node2</title>
<path fill="none" stroke="midnightblue" d="M624.36,-50.7C614.15,-52.39 603.74,-54.11 593.89,-55.74"/>
<polygon fill="midnightblue" stroke="midnightblue" points="625.19,-54.11 634.48,-49.02 624.05,-47.2 625.19,-54.11"/>
</g>
<!-- Node6 -->
<g id="node6" class="node">
<title>Node6</title>
<g id="a_node6"><a xlink:href="a00200.html#a00b3cdf024e15bff80a3c3c9aed320f3" target="_top" xlink:title=" ">
<polygon fill="white" stroke="black" points="484,-0.5 484,-30.5 596,-30.5 596,-0.5 484,-0.5"/>
<text text-anchor="start" x="492" y="-18.5" font-family="Helvetica,sans-Serif" font-size="10.00">CO_Basalt\get_plugin</text>
<text text-anchor="middle" x="540" y="-7.5" font-family="Helvetica,sans-Serif" font-size="10.00">_names</text>
</a>
</g>
</g>
<!-- Node1&#45;&gt;Node6 -->
<g id="edge5" class="edge">
<title>Node1&#45;&gt;Node6</title>
<path fill="none" stroke="midnightblue" d="M621.8,-28.34C613.14,-26.97 604.39,-25.58 596.01,-24.24"/>
<polygon fill="midnightblue" stroke="midnightblue" points="621.46,-31.83 631.89,-29.95 622.56,-24.92 621.46,-31.83"/>
</g>
<!-- Node3 -->
<g id="node3" class="node">
<title>Node3</title>
<g id="a_node3"><a xlink:href="a00200.html#a474660b01c925a4d47e918c02944ebf7" target="_top" xlink:title=" ">
<polygon fill="white" stroke="black" points="298,-55 298,-74 448,-74 448,-55 298,-55"/>
<text text-anchor="middle" x="373" y="-62" font-family="Helvetica,sans-Serif" font-size="10.00">CO_Basalt\process_command</text>
</a>
</g>
</g>
<!-- Node2&#45;&gt;Node3 -->
<g id="edge2" class="edge">
<title>Node2&#45;&gt;Node3</title>
<path fill="none" stroke="midnightblue" d="M476.16,-64.5C466.99,-64.5 457.48,-64.5 448.11,-64.5"/>
<polygon fill="midnightblue" stroke="midnightblue" points="476.34,-68 486.34,-64.5 476.34,-61 476.34,-68"/>
</g>
<!-- Node4 -->
<g id="node4" class="node">
<title>Node4</title>
<g id="a_node4"><a xlink:href="a00200.html#a528297edc9fb3e5e3c8f2e9270621853" target="_top" xlink:title=" ">
<polygon fill="white" stroke="black" points="155,-49.5 155,-79.5 262,-79.5 262,-49.5 155,-49.5"/>
<text text-anchor="start" x="163" y="-67.5" font-family="Helvetica,sans-Serif" font-size="10.00">CO_Basalt\_process</text>
<text text-anchor="middle" x="208.5" y="-56.5" font-family="Helvetica,sans-Serif" font-size="10.00">_command</text>
</a>
</g>
</g>
<!-- Node3&#45;&gt;Node4 -->
<g id="edge3" class="edge">
<title>Node3&#45;&gt;Node4</title>
<path fill="none" stroke="midnightblue" d="M287.69,-64.5C279,-64.5 270.36,-64.5 262.16,-64.5"/>
<polygon fill="midnightblue" stroke="midnightblue" points="287.88,-68 297.88,-64.5 287.88,-61 287.88,-68"/>
</g>
<!-- Node5 -->
<g id="node5" class="node">
<title>Node5</title>
<g id="a_node5"><a xlink:href="a00200.html#aad1b60cb5230efedfc34a931546d415b" target="_top" xlink:title=" ">
<polygon fill="white" stroke="black" points="0,-30 0,-49 119,-49 119,-30 0,-30"/>
<text text-anchor="middle" x="59.5" y="-37" font-family="Helvetica,sans-Serif" font-size="10.00">CO_Basalt\__construct</text>
</a>
</g>
</g>
<!-- Node4&#45;&gt;Node5 -->
<g id="edge4" class="edge">
<title>Node4&#45;&gt;Node5</title>
<path fill="none" stroke="midnightblue" d="M144.78,-53.83C135.39,-52.24 125.75,-50.6 116.51,-49.03"/>
<polygon fill="midnightblue" stroke="midnightblue" points="144.4,-57.32 154.84,-55.55 145.57,-50.42 144.4,-57.32"/>
</g>
<!-- Node7 -->
<g id="node7" class="node">
<title>Node7</title>
<g id="a_node7"><a xlink:href="a00200.html#a2ddbc8082e5db06272eb38f00b80fae5" target="_top" xlink:title=" ">
<polygon fill="white" stroke="black" points="155,-0.5 155,-30.5 262,-30.5 262,-0.5 155,-0.5"/>
<text text-anchor="start" x="163" y="-18.5" font-family="Helvetica,sans-Serif" font-size="10.00">CO_Basalt\_process</text>
<text text-anchor="middle" x="208.5" y="-7.5" font-family="Helvetica,sans-Serif" font-size="10.00">_basalt_parameters</text>
</a>
</g>
</g>
<!-- Node6&#45;&gt;Node7 -->
<g id="edge6" class="edge">
<title>Node6&#45;&gt;Node7</title>
<path fill="none" stroke="midnightblue" d="M473.78,-15.5C411.74,-15.5 319.59,-15.5 262.1,-15.5"/>
<polygon fill="midnightblue" stroke="midnightblue" points="473.85,-19 483.85,-15.5 473.85,-12 473.85,-19"/>
</g>
<!-- Node7&#45;&gt;Node5 -->
<g id="edge7" class="edge">
<title>Node7&#45;&gt;Node5</title>
<path fill="none" stroke="midnightblue" d="M144.82,-25.73C136.18,-27.14 127.33,-28.59 118.77,-29.99"/>
<polygon fill="midnightblue" stroke="midnightblue" points="145.54,-29.16 154.84,-24.1 144.41,-22.25 145.54,-29.16"/>
</g>
</g>
</svg>
