<?xml version="1.0" encoding="UTF-8" standalone="no"?>
<!DOCTYPE svg PUBLIC "-//W3C//DTD SVG 1.1//EN"
 "http://www.w3.org/Graphics/SVG/1.1/DTD/svg11.dtd">
<!-- Generated by graphviz version 2.40.1 (20161225.0304)
 -->
<!-- Title: CO_Andisol\create_place_collection Pages: 1 -->
<!--zoomable 89 -->
<svg id="main" version="1.1" xmlns="http://www.w3.org/2000/svg" xmlns:xlink="http://www.w3.org/1999/xlink" xml:space="preserve" onload="init(evt)">
<style type="text/css"><![CDATA[
.edge:hover path { stroke: red; }
.edge:hover polygon { stroke: red; fill: red; }
]]></style>
<script type="text/javascript"><![CDATA[
var edges = document.getElementsByTagName('g');
if (edges && edges.length) {
  for (var i=0;i<edges.length;i++) {
    if (edges[i].id.substr(0,4)=='edge') {
      edges[i].setAttribute('class','edge');
    }
  }
}
]]></script>
        <defs>
                <circle id="rim" cx="0" cy="0" r="7"/>
                <circle id="rim2" cx="0" cy="0" r="3.5"/>
                <g id="zoomPlus">
                        <use xlink:href="#rim" fill="#404040">
                                <set attributeName="fill" to="#808080" begin="zoomplus.mouseover" end="zoomplus.mouseout"/>
                        </use>
                        <path d="M-4,0h8M0,-4v8" fill="none" stroke="white" stroke-width="1.5" pointer-events="none"/>
                </g>
                <g id="zoomMin">
                        <use xlink:href="#rim" fill="#404040">
                                <set attributeName="fill" to="#808080" begin="zoomminus.mouseover" end="zoomminus.mouseout"/>
                        </use>
                        <path d="M-4,0h8" fill="none" stroke="white" stroke-width="1.5" pointer-events="none"/>
                </g>
                <g id="dirArrow">
                        <path fill="none" stroke="white" stroke-width="1.5" d="M0,-3.0v7 M-2.5,-0.5L0,-3.0L2.5,-0.5"/>
                </g>
               <g id="resetDef">
                       <use xlink:href="#rim2" fill="#404040">
                               <set attributeName="fill" to="#808080" begin="reset.mouseover" end="reset.mouseout"/>
                       </use>
               </g>
        </defs>

<script type="text/javascript">
var viewWidth = 1076;
var viewHeight = 89;
var sectionId = 'dynsection-15';
</script>
<script xlink:href="svgpan.js"/>
<svg id="graph" class="graph">
<g id="viewport">
<title>CO_Andisol\create_place_collection</title>
<polygon fill="#ffffff" stroke="transparent" points="-4,4 -4,-85 1071.8779,-85 1071.8779,4 -4,4"/>
<!-- Node82 -->
<g id="node1" class="node">
<title>Node82</title>
<polygon fill="#bfbfbf" stroke="#000000" points="0,-52.5 0,-80.5 129.3984,-80.5 129.3984,-52.5 0,-52.5"/>
<text text-anchor="start" x="8" y="-68.5" font-family="Helvetica,sans-Serif" font-size="10.00" fill="#000000">CO_Andisol\create_place</text>
<text text-anchor="middle" x="64.6992" y="-58.5" font-family="Helvetica,sans-Serif" font-size="10.00" fill="#000000">_collection</text>
</g>
<!-- Node83 -->
<g id="node2" class="node">
<title>Node83</title>
<g id="a_node2"><a xlink:href="a00219.html#a79103b0d231d1dcc1f7c1921e5118621" target="_top" xlink:title="CO_Andisol\\create_place">
<polygon fill="#ffffff" stroke="#000000" points="165.3984,-57.5 165.3984,-75.5 294.7969,-75.5 294.7969,-57.5 165.3984,-57.5"/>
<text text-anchor="middle" x="230.0977" y="-63.5" font-family="Helvetica,sans-Serif" font-size="10.00" fill="#000000">CO_Andisol\create_place</text>
</a>
</g>
</g>
<!-- Node82&#45;&gt;Node83 -->
<g id="edge1" class="edge">
<title>Node82&#45;&gt;Node83</title>
<path fill="none" stroke="#191970" d="M129.5943,-66.5C138.0507,-66.5 146.7677,-66.5 155.3687,-66.5"/>
<polygon fill="#191970" stroke="#191970" points="155.3897,-70.0001 165.3897,-66.5 155.3896,-63.0001 155.3897,-70.0001"/>
</g>
<!-- Node84 -->
<g id="node3" class="node">
<title>Node84</title>
<g id="a_node3"><a xlink:href="a00219.html#a1783b1403b768959f80f17b08a5e8f82" target="_top" xlink:title="CO_Andisol\\create_general\l_data_item">
<polygon fill="#ffffff" stroke="#000000" points="330.7969,-52.5 330.7969,-80.5 469.6484,-80.5 469.6484,-52.5 330.7969,-52.5"/>
<text text-anchor="start" x="338.7969" y="-68.5" font-family="Helvetica,sans-Serif" font-size="10.00" fill="#000000">CO_Andisol\create_general</text>
<text text-anchor="middle" x="400.2227" y="-58.5" font-family="Helvetica,sans-Serif" font-size="10.00" fill="#000000">_data_item</text>
</a>
</g>
</g>
<!-- Node83&#45;&gt;Node84 -->
<g id="edge2" class="edge">
<title>Node83&#45;&gt;Node84</title>
<path fill="none" stroke="#191970" d="M294.8999,-66.5C303.3363,-66.5 312.0551,-66.5 320.6972,-66.5"/>
<polygon fill="#191970" stroke="#191970" points="320.7858,-70.0001 330.7857,-66.5 320.7857,-63.0001 320.7858,-70.0001"/>
</g>
<!-- Node85 -->
<g id="node4" class="node">
<title>Node85</title>
<g id="a_node4"><a xlink:href="a00219.html#a190232857416d5f1e7033452ac1bf6c0" target="_top" xlink:title="CO_Andisol\\_create\l_db_object">
<polygon fill="#ffffff" stroke="#000000" points="505.6484,-52.5 505.6484,-80.5 611.1406,-80.5 611.1406,-52.5 505.6484,-52.5"/>
<text text-anchor="start" x="513.6484" y="-68.5" font-family="Helvetica,sans-Serif" font-size="10.00" fill="#000000">CO_Andisol\_create</text>
<text text-anchor="middle" x="558.3945" y="-58.5" font-family="Helvetica,sans-Serif" font-size="10.00" fill="#000000">_db_object</text>
</a>
</g>
</g>
<!-- Node84&#45;&gt;Node85 -->
<g id="edge3" class="edge">
<title>Node84&#45;&gt;Node85</title>
<path fill="none" stroke="#191970" d="M470.0596,-66.5C478.5319,-66.5 487.1478,-66.5 495.5111,-66.5"/>
<polygon fill="#191970" stroke="#191970" points="495.5607,-70.0001 505.5607,-66.5 495.5606,-63.0001 495.5607,-70.0001"/>
</g>
<!-- Node86 -->
<g id="node5" class="node">
<title>Node86</title>
<g id="a_node5"><a xlink:href="a00219.html#acda267f1d6a8e496e167ed46fe590dc6" target="_top" xlink:title="CO_Andisol\\get_chameleon\l_instance">
<polygon fill="#ffffff" stroke="#000000" points="927.3564,-33.5 927.3564,-61.5 1067.8779,-61.5 1067.8779,-33.5 927.3564,-33.5"/>
<text text-anchor="start" x="935.3564" y="-49.5" font-family="Helvetica,sans-Serif" font-size="10.00" fill="#000000">CO_Andisol\get_chameleon</text>
<text text-anchor="middle" x="997.6172" y="-39.5" font-family="Helvetica,sans-Serif" font-size="10.00" fill="#000000">_instance</text>
</a>
</g>
</g>
<!-- Node85&#45;&gt;Node86 -->
<g id="edge4" class="edge">
<title>Node85&#45;&gt;Node86</title>
<path fill="none" stroke="#191970" d="M611.2738,-67.9796C677.0449,-69.2969 792.7094,-69.8966 891.3564,-61.5 899.6852,-60.7911 908.3628,-59.8999 917.0106,-58.9122"/>
<polygon fill="#191970" stroke="#191970" points="917.6072,-62.3661 927.1258,-57.7135 916.7834,-55.4147 917.6072,-62.3661"/>
</g>
<!-- Node87 -->
<g id="node6" class="node">
<title>Node87</title>
<g id="a_node6"><a xlink:href="a00219.html#ac2a2dcb99dc927789b0ffa09c24946de" target="_top" xlink:title="CO_Andisol\\logged_in">
<polygon fill="#ffffff" stroke="#000000" points="647.1406,-38.5 647.1406,-56.5 762.6523,-56.5 762.6523,-38.5 647.1406,-38.5"/>
<text text-anchor="middle" x="704.8965" y="-44.5" font-family="Helvetica,sans-Serif" font-size="10.00" fill="#000000">CO_Andisol\logged_in</text>
</a>
</g>
</g>
<!-- Node85&#45;&gt;Node87 -->
<g id="edge5" class="edge">
<title>Node85&#45;&gt;Node87</title>
<path fill="none" stroke="#191970" d="M611.2851,-59.6406C619.6502,-58.5557 628.4001,-57.4209 637.049,-56.2992"/>
<polygon fill="#191970" stroke="#191970" points="637.6597,-59.7494 647.1265,-54.9923 636.7594,-52.8075 637.6597,-59.7494"/>
</g>
<!-- Node87&#45;&gt;Node86 -->
<g id="edge8" class="edge">
<title>Node87&#45;&gt;Node86</title>
<path fill="none" stroke="#191970" d="M762.7287,-47.5C806.8278,-47.5 868.1024,-47.5 917.0106,-47.5"/>
<polygon fill="#191970" stroke="#191970" points="917.2487,-51.0001 927.2487,-47.5 917.2487,-44.0001 917.2487,-51.0001"/>
</g>
<!-- Node88 -->
<g id="node7" class="node">
<title>Node88</title>
<g id="a_node7"><a xlink:href="a00219.html#a4b0ec12b29ce4812cbb4169b68770f66" target="_top" xlink:title="CO_Andisol\\valid">
<polygon fill="#ffffff" stroke="#000000" points="798.6523,-.5 798.6523,-18.5 891.3564,-18.5 891.3564,-.5 798.6523,-.5"/>
<text text-anchor="middle" x="845.0044" y="-6.5" font-family="Helvetica,sans-Serif" font-size="10.00" fill="#000000">CO_Andisol\valid</text>
</a>
</g>
</g>
<!-- Node87&#45;&gt;Node88 -->
<g id="edge6" class="edge">
<title>Node87&#45;&gt;Node88</title>
<path fill="none" stroke="#191970" d="M738.1001,-38.4945C757.1546,-33.3266 781.2939,-26.7795 801.8108,-21.215"/>
<polygon fill="#191970" stroke="#191970" points="802.8184,-24.5682 811.5536,-18.5725 800.986,-17.8123 802.8184,-24.5682"/>
</g>
<!-- Node88&#45;&gt;Node86 -->
<g id="edge7" class="edge">
<title>Node88&#45;&gt;Node86</title>
<path fill="none" stroke="#191970" d="M881.1715,-18.5055C896.1291,-22.2299 913.9633,-26.6705 931.1241,-30.9435"/>
<polygon fill="#191970" stroke="#191970" points="930.5741,-34.4133 941.1235,-33.4333 932.2655,-27.6207 930.5741,-34.4133"/>
</g>
</g>
</svg>
        <g id="navigator" transform="translate(0 0)" fill="#404254">
                <rect fill="#f2f5e9" fill-opacity="0.5" stroke="#606060" stroke-width=".5" x="0" y="0" width="60" height="60"/>
                <use id="zoomplus" xlink:href="#zoomPlus" x="17" y="9" onmousedown="handleZoom(evt,'in')"/>
                <use id="zoomminus" xlink:href="#zoomMin" x="42" y="9" onmousedown="handleZoom(evt,'out')"/>
                <use id="reset" xlink:href="#resetDef" x="30" y="36" onmousedown="handleReset()"/>
                <g id="arrowUp" xlink:href="#dirArrow" transform="translate(30 24)" onmousedown="handlePan(0,-1)">
                  <use xlink:href="#rim" fill="#404040">
                        <set attributeName="fill" to="#808080" begin="arrowUp.mouseover" end="arrowUp.mouseout"/>
                  </use>
                  <path fill="none" stroke="white" stroke-width="1.5" d="M0,-3.0v7 M-2.5,-0.5L0,-3.0L2.5,-0.5"/>
                </g>
                <g id="arrowRight" xlink:href="#dirArrow" transform="rotate(90) translate(36 -43)" onmousedown="handlePan(1,0)">
                  <use xlink:href="#rim" fill="#404040">
                        <set attributeName="fill" to="#808080" begin="arrowRight.mouseover" end="arrowRight.mouseout"/>
                  </use>
                  <path fill="none" stroke="white" stroke-width="1.5" d="M0,-3.0v7 M-2.5,-0.5L0,-3.0L2.5,-0.5"/>
                </g>
                <g id="arrowDown" xlink:href="#dirArrow" transform="rotate(180) translate(-30 -48)" onmousedown="handlePan(0,1)">
                  <use xlink:href="#rim" fill="#404040">
                        <set attributeName="fill" to="#808080" begin="arrowDown.mouseover" end="arrowDown.mouseout"/>
                  </use>
                  <path fill="none" stroke="white" stroke-width="1.5" d="M0,-3.0v7 M-2.5,-0.5L0,-3.0L2.5,-0.5"/>
                </g>
                <g id="arrowLeft" xlink:href="#dirArrow" transform="rotate(270) translate(-36 17)" onmousedown="handlePan(-1,0)">
                  <use xlink:href="#rim" fill="#404040">
                        <set attributeName="fill" to="#808080" begin="arrowLeft.mouseover" end="arrowLeft.mouseout"/>
                  </use>
                  <path fill="none" stroke="white" stroke-width="1.5" d="M0,-3.0v7 M-2.5,-0.5L0,-3.0L2.5,-0.5"/>
                </g>
        </g>
        <svg viewBox="0 0 15 15" width="100%" height="30px" preserveAspectRatio="xMaxYMin meet">
         <g id="arrow_out" transform="scale(0.3 0.3)">
          <a xlink:href="a00219_a492fc0036d5930c325ed14bfcdd5938a_cgraph_org.svg" target="_base">
           <rect id="button" ry="5" rx="5" y="6" x="6" height="38" width="38"
                fill="#f2f5e9" fill-opacity="0.5" stroke="#606060" stroke-width="1.0"/>
           <path id="arrow"
             d="M 11.500037,31.436501 C 11.940474,20.09759 22.043105,11.32322 32.158766,21.979434 L 37.068811,17.246167 C 37.068811,17.246167 37.088388,32 37.088388,32 L 22.160133,31.978069 C 22.160133,31.978069 26.997745,27.140456 26.997745,27.140456 C 18.528582,18.264221 13.291696,25.230495 11.500037,31.436501 z"
             style="fill:#404040;"/>
          </a>
         </g>
        </svg>
</svg>
