<?xml version="1.0" encoding="UTF-8" standalone="no"?>
<!DOCTYPE svg PUBLIC "-//W3C//DTD SVG 1.1//EN"
 "http://www.w3.org/Graphics/SVG/1.1/DTD/svg11.dtd">
<!-- Generated by graphviz version 2.40.1 (20161225.0304)
 -->
<!-- Title: CO_places_Basalt_Plugin\_process_place_post Pages: 1 -->
<svg width="490pt" height="84pt"
 viewBox="0.00 0.00 490.46 84.00" xmlns="http://www.w3.org/2000/svg" xmlns:xlink="http://www.w3.org/1999/xlink">
<g id="graph0" class="graph" transform="scale(1 1) rotate(0) translate(4 80)">
<title>CO_places_Basalt_Plugin\_process_place_post</title>
<polygon fill="#ffffff" stroke="transparent" points="-4,4 -4,-80 486.4609,-80 486.4609,4 -4,4"/>
<!-- Node1 -->
<g id="node1" class="node">
<title>Node1</title>
<g id="a_node1"><a xlink:title=" ">
<polygon fill="#bfbfbf" stroke="#000000" points="0,-25.5 0,-53.5 132.1816,-53.5 132.1816,-25.5 0,-25.5"/>
<text text-anchor="start" x="8" y="-41.5" font-family="Helvetica,sans-Serif" font-size="10.00" fill="#000000">CO_places_Basalt_Plugin</text>
<text text-anchor="middle" x="66.0908" y="-31.5" font-family="Helvetica,sans-Serif" font-size="10.00" fill="#000000">\_process_place_post</text>
</a>
</g>
</g>
<!-- Node2 -->
<g id="node2" class="node">
<title>Node2</title>
<g id="a_node2"><a xlink:href="a00211.html#a3e64096264150499cf5d68bdc4e112e6" target="_top" xlink:title=" ">
<polygon fill="#ffffff" stroke="#000000" points="336.3633,-47.5 336.3633,-75.5 482.4609,-75.5 482.4609,-47.5 336.3633,-47.5"/>
<text text-anchor="start" x="344.3633" y="-63.5" font-family="Helvetica,sans-Serif" font-size="10.00" fill="#000000">CO_places_Basalt_Plugin</text>
<text text-anchor="middle" x="409.4121" y="-53.5" font-family="Helvetica,sans-Serif" font-size="10.00" fill="#000000">\_get_long_place_description</text>
</a>
</g>
</g>
<!-- Node1&#45;&gt;Node2 -->
<g id="edge1" class="edge">
<title>Node1&#45;&gt;Node2</title>
<path fill="none" stroke="#191970" d="M132.2866,-43.7418C187.546,-47.2828 266.6114,-52.3493 326.1573,-56.165"/>
<polygon fill="#191970" stroke="#191970" points="326.084,-59.6674 336.2873,-56.8142 326.5317,-52.6818 326.084,-59.6674"/>
</g>
<!-- Node3 -->
<g id="node3" class="node">
<title>Node3</title>
<g id="a_node3"><a xlink:href="a00211.html#a021e0e49bd0868754a212795cfe8ebfd" target="_top" xlink:title=" ">
<polygon fill="#ffffff" stroke="#000000" points="168.1816,-4.5 168.1816,-32.5 300.3633,-32.5 300.3633,-4.5 168.1816,-4.5"/>
<text text-anchor="start" x="176.1816" y="-20.5" font-family="Helvetica,sans-Serif" font-size="10.00" fill="#000000">CO_places_Basalt_Plugin</text>
<text text-anchor="middle" x="234.2725" y="-10.5" font-family="Helvetica,sans-Serif" font-size="10.00" fill="#000000">\_process_place_put</text>
</a>
</g>
</g>
<!-- Node1&#45;&gt;Node3 -->
<g id="edge2" class="edge">
<title>Node1&#45;&gt;Node3</title>
<path fill="none" stroke="#191970" d="M132.5607,-31.2002C140.9417,-30.1537 149.5673,-29.0767 158.0838,-28.0133"/>
<polygon fill="#191970" stroke="#191970" points="158.5208,-31.486 168.0101,-26.7738 157.6535,-24.5399 158.5208,-31.486"/>
</g>
<!-- Node3&#45;&gt;Node2 -->
<g id="edge3" class="edge">
<title>Node3&#45;&gt;Node2</title>
<path fill="none" stroke="#191970" d="M291.6197,-32.5798C307.8817,-36.5724 325.7286,-40.9542 342.5029,-45.0726"/>
<polygon fill="#191970" stroke="#191970" points="341.6891,-48.4766 352.2353,-47.462 343.3582,-41.6785 341.6891,-48.4766"/>
</g>
<!-- Node4 -->
<g id="node4" class="node">
<title>Node4</title>
<g id="a_node4"><a xlink:href="a00211.html#a787a3b2f9625b7b54fadae02f07bcc5e" target="_top" xlink:title=" ">
<polygon fill="#ffffff" stroke="#000000" points="343.3213,-.5 343.3213,-28.5 475.5029,-28.5 475.5029,-.5 343.3213,-.5"/>
<text text-anchor="start" x="351.3213" y="-16.5" font-family="Helvetica,sans-Serif" font-size="10.00" fill="#000000">CO_places_Basalt_Plugin</text>
<text text-anchor="middle" x="409.4121" y="-6.5" font-family="Helvetica,sans-Serif" font-size="10.00" fill="#000000">\_process_parameters</text>
</a>
</g>
</g>
<!-- Node3&#45;&gt;Node4 -->
<g id="edge4" class="edge">
<title>Node3&#45;&gt;Node4</title>
<path fill="none" stroke="#191970" d="M300.4853,-16.9878C311.056,-16.7463 322.0689,-16.4948 332.8553,-16.2485"/>
<polygon fill="#191970" stroke="#191970" points="333.1882,-19.7419 343.1057,-16.0144 333.0283,-12.7437 333.1882,-19.7419"/>
</g>
</g>
</svg>
