<?xml version="1.0" encoding="UTF-8" standalone="no"?>
<!DOCTYPE svg PUBLIC "-//W3C//DTD SVG 1.1//EN"
 "http://www.w3.org/Graphics/SVG/1.1/DTD/svg11.dtd">
<!-- Generated by graphviz version 2.47.1 (20210417.1919)
 -->
<!-- Title: CO_Basalt\_process_command Pages: 1 -->
<svg width="781pt" height="369pt"
 viewBox="0.00 0.00 781.00 368.50" xmlns="http://www.w3.org/2000/svg" xmlns:xlink="http://www.w3.org/1999/xlink">
<g id="graph0" class="graph" transform="scale(1 1) rotate(0) translate(4 364.5)">
<title>CO_Basalt\_process_command</title>
<polygon fill="white" stroke="transparent" points="-4,4 -4,-364.5 777,-364.5 777,4 -4,4"/>
<!-- Node1 -->
<g id="node1" class="node">
<title>Node1</title>
<g id="a_node1"><a xlink:title=" ">
<polygon fill="#bfbfbf" stroke="black" points="0,-161 0,-191 107,-191 107,-161 0,-161"/>
<text text-anchor="start" x="8" y="-179" font-family="Helvetica,sans-Serif" font-size="10.00">CO_Basalt\_process</text>
<text text-anchor="middle" x="53.5" y="-168" font-family="Helvetica,sans-Serif" font-size="10.00">_command</text>
</a>
</g>
</g>
<!-- Node2 -->
<g id="node2" class="node">
<title>Node2</title>
<g id="a_node2"><a xlink:href="a00200.html#a474660b01c925a4d47e918c02944ebf7" target="_top" xlink:title=" ">
<polygon fill="white" stroke="black" points="143,-166.5 143,-185.5 293,-185.5 293,-166.5 143,-166.5"/>
<text text-anchor="middle" x="218" y="-173.5" font-family="Helvetica,sans-Serif" font-size="10.00">CO_Basalt\process_command</text>
</a>
</g>
</g>
<!-- Node1&#45;&gt;Node2 -->
<g id="edge1" class="edge">
<title>Node1&#45;&gt;Node2</title>
<path fill="none" stroke="midnightblue" d="M107.26,-176C115.45,-176 124.09,-176 132.77,-176"/>
<polygon fill="midnightblue" stroke="midnightblue" points="132.96,-179.5 142.96,-176 132.96,-172.5 132.96,-179.5"/>
</g>
<!-- Node3 -->
<g id="node3" class="node">
<title>Node3</title>
<g id="a_node3"><a xlink:href="a00196.html#a4195fd75943d9dd1ca6dce290aa64dcc" target="_top" xlink:title=" ">
<polygon fill="white" stroke="black" points="329,-186 329,-216 438,-216 438,-186 329,-186"/>
<text text-anchor="start" x="337" y="-204" font-family="Helvetica,sans-Serif" font-size="10.00">A_CO_Basalt_Plugin</text>
<text text-anchor="middle" x="383.5" y="-193" font-family="Helvetica,sans-Serif" font-size="10.00">\_condition_response</text>
</a>
</g>
</g>
<!-- Node2&#45;&gt;Node3 -->
<g id="edge2" class="edge">
<title>Node2&#45;&gt;Node3</title>
<path fill="none" stroke="midnightblue" d="M281.28,-185.52C293.55,-187.4 306.44,-189.37 318.75,-191.25"/>
<polygon fill="midnightblue" stroke="midnightblue" points="318.52,-194.76 328.93,-192.81 319.58,-187.84 318.52,-194.76"/>
</g>
<!-- Node4 -->
<g id="node4" class="node">
<title>Node4</title>
<g id="a_node4"><a xlink:href="a00200.html#a60ce04d2fc76ab876a428500dccb7dd8" target="_top" xlink:title=" ">
<polygon fill="white" stroke="black" points="330,-137 330,-167 437,-167 437,-137 330,-137"/>
<text text-anchor="start" x="338" y="-155" font-family="Helvetica,sans-Serif" font-size="10.00">CO_Basalt\_process</text>
<text text-anchor="middle" x="383.5" y="-144" font-family="Helvetica,sans-Serif" font-size="10.00">_baseline_command</text>
</a>
</g>
</g>
<!-- Node2&#45;&gt;Node4 -->
<g id="edge3" class="edge">
<title>Node2&#45;&gt;Node4</title>
<path fill="none" stroke="midnightblue" d="M284.09,-166.45C295.87,-164.72 308.13,-162.92 319.83,-161.2"/>
<polygon fill="midnightblue" stroke="midnightblue" points="320.57,-164.63 329.95,-159.71 319.55,-157.7 320.57,-164.63"/>
</g>
<!-- Node5 -->
<g id="node5" class="node">
<title>Node5</title>
<g id="a_node5"><a xlink:href="a00200.html#a94f153fbc911e113c202f91acc1b270e" target="_top" xlink:title=" ">
<polygon fill="white" stroke="black" points="480.5,-284 480.5,-314 589.5,-314 589.5,-284 480.5,-284"/>
<text text-anchor="start" x="488.5" y="-302" font-family="Helvetica,sans-Serif" font-size="10.00">CO_Basalt\_baseline</text>
<text text-anchor="middle" x="535" y="-291" font-family="Helvetica,sans-Serif" font-size="10.00">_bulk_loader</text>
</a>
</g>
</g>
<!-- Node4&#45;&gt;Node5 -->
<g id="edge4" class="edge">
<title>Node4&#45;&gt;Node5</title>
<path fill="none" stroke="midnightblue" d="M426.99,-167.04C431.03,-169.61 434.81,-172.58 438,-176 469.65,-209.93 441.9,-240.5 474,-274 475.38,-275.44 476.85,-276.79 478.39,-278.07"/>
<polygon fill="midnightblue" stroke="midnightblue" points="476.47,-281 486.66,-283.88 480.49,-275.27 476.47,-281"/>
</g>
<!-- Node8 -->
<g id="node8" class="node">
<title>Node8</title>
<g id="a_node8"><a xlink:href="a00200.html#ad72622e9b3a834e50a1a8f4ab488b08a" target="_top" xlink:title=" ">
<polygon fill="white" stroke="black" points="480.5,-235 480.5,-265 589.5,-265 589.5,-235 480.5,-235"/>
<text text-anchor="start" x="488.5" y="-253" font-family="Helvetica,sans-Serif" font-size="10.00">CO_Basalt\_baseline</text>
<text text-anchor="middle" x="535" y="-242" font-family="Helvetica,sans-Serif" font-size="10.00">_fetch_backup</text>
</a>
</g>
</g>
<!-- Node4&#45;&gt;Node8 -->
<g id="edge7" class="edge">
<title>Node4&#45;&gt;Node8</title>
<path fill="none" stroke="midnightblue" d="M424.43,-167.1C429.23,-169.71 433.88,-172.67 438,-176 459.02,-192.98 452.75,-208.3 474,-225 476.25,-226.76 478.63,-228.43 481.12,-229.98"/>
<polygon fill="midnightblue" stroke="midnightblue" points="479.4,-233.04 489.83,-234.9 482.84,-226.94 479.4,-233.04"/>
</g>
<!-- Node10 -->
<g id="node10" class="node">
<title>Node10</title>
<g id="a_node10"><a xlink:href="a00196.html#a772e319259d2ce50837c099acdfd3625" target="_top" xlink:title=" ">
<polygon fill="white" stroke="black" points="480.5,-186 480.5,-216 589.5,-216 589.5,-186 480.5,-186"/>
<text text-anchor="start" x="488.5" y="-204" font-family="Helvetica,sans-Serif" font-size="10.00">A_CO_Basalt_Plugin</text>
<text text-anchor="middle" x="535" y="-193" font-family="Helvetica,sans-Serif" font-size="10.00">\_get_handler</text>
</a>
</g>
</g>
<!-- Node4&#45;&gt;Node10 -->
<g id="edge9" class="edge">
<title>Node4&#45;&gt;Node10</title>
<path fill="none" stroke="midnightblue" d="M430.57,-167.1C445.71,-172.06 462.69,-177.63 478.45,-182.79"/>
<polygon fill="midnightblue" stroke="midnightblue" points="477.48,-186.16 488.08,-185.95 479.66,-179.51 477.48,-186.16"/>
</g>
<!-- Node11 -->
<g id="node11" class="node">
<title>Node11</title>
<g id="a_node11"><a xlink:href="a00200.html#a1daa98964a634b41fef4edf4dc1f82ad" target="_top" xlink:title=" ">
<polygon fill="white" stroke="black" points="481.5,-137 481.5,-167 588.5,-167 588.5,-137 481.5,-137"/>
<text text-anchor="start" x="489.5" y="-155" font-family="Helvetica,sans-Serif" font-size="10.00">CO_Basalt\_process</text>
<text text-anchor="middle" x="535" y="-144" font-family="Helvetica,sans-Serif" font-size="10.00">_ping_command</text>
</a>
</g>
</g>
<!-- Node4&#45;&gt;Node11 -->
<g id="edge10" class="edge">
<title>Node4&#45;&gt;Node11</title>
<path fill="none" stroke="midnightblue" d="M437.21,-152C448.15,-152 459.78,-152 471.05,-152"/>
<polygon fill="midnightblue" stroke="midnightblue" points="471.26,-155.5 481.26,-152 471.26,-148.5 471.26,-155.5"/>
</g>
<!-- Node12 -->
<g id="node12" class="node">
<title>Node12</title>
<g id="a_node12"><a xlink:href="a00200.html#acd909d93bf248e9b07ff9cfdd28df9b9" target="_top" xlink:title=" ">
<polygon fill="white" stroke="black" points="478.5,-88 478.5,-118 591.5,-118 591.5,-88 478.5,-88"/>
<text text-anchor="start" x="486.5" y="-106" font-family="Helvetica,sans-Serif" font-size="10.00">CO_Basalt\_process</text>
<text text-anchor="middle" x="535" y="-95" font-family="Helvetica,sans-Serif" font-size="10.00">_serverinfo_command</text>
</a>
</g>
</g>
<!-- Node4&#45;&gt;Node12 -->
<g id="edge11" class="edge">
<title>Node4&#45;&gt;Node12</title>
<path fill="none" stroke="midnightblue" d="M430.57,-136.9C445.71,-131.94 462.69,-126.37 478.45,-121.21"/>
<polygon fill="midnightblue" stroke="midnightblue" points="479.66,-124.49 488.08,-118.05 477.48,-117.84 479.66,-124.49"/>
</g>
<!-- Node13 -->
<g id="node13" class="node">
<title>Node13</title>
<g id="a_node13"><a xlink:href="a00200.html#af1b2c5aad7e4010614b891a8e47e469b" target="_top" xlink:title=" ">
<polygon fill="white" stroke="black" points="481.5,-39 481.5,-69 588.5,-69 588.5,-39 481.5,-39"/>
<text text-anchor="start" x="489.5" y="-57" font-family="Helvetica,sans-Serif" font-size="10.00">CO_Basalt\_process</text>
<text text-anchor="middle" x="535" y="-46" font-family="Helvetica,sans-Serif" font-size="10.00">_token_command</text>
</a>
</g>
</g>
<!-- Node4&#45;&gt;Node13 -->
<g id="edge12" class="edge">
<title>Node4&#45;&gt;Node13</title>
<path fill="none" stroke="midnightblue" d="M399.85,-136.74C416.83,-120.5 445.57,-94.88 474,-78 476.66,-76.42 479.45,-74.9 482.3,-73.45"/>
<polygon fill="midnightblue" stroke="midnightblue" points="484.04,-76.5 491.57,-69.04 481.03,-70.18 484.04,-76.5"/>
</g>
<!-- Node14 -->
<g id="node14" class="node">
<title>Node14</title>
<g id="a_node14"><a xlink:href="a00200.html#a9917ca310760b3d05cdb027b030f86b4" target="_top" xlink:title=" ">
<polygon fill="white" stroke="black" points="474,-0.5 474,-19.5 596,-19.5 596,-0.5 474,-0.5"/>
<text text-anchor="middle" x="535" y="-7.5" font-family="Helvetica,sans-Serif" font-size="10.00">CO_Basalt\plugin_name</text>
</a>
</g>
</g>
<!-- Node4&#45;&gt;Node14 -->
<g id="edge13" class="edge">
<title>Node4&#45;&gt;Node14</title>
<path fill="none" stroke="midnightblue" d="M391.56,-136.72C404.33,-110.75 433.71,-58.02 474,-29 476.66,-27.08 479.52,-25.36 482.5,-23.8"/>
<polygon fill="midnightblue" stroke="midnightblue" points="484.04,-26.94 491.7,-19.62 481.15,-20.57 484.04,-26.94"/>
</g>
<!-- Node6 -->
<g id="node6" class="node">
<title>Node6</title>
<g id="a_node6"><a xlink:href="a00200.html#ad343adeeff085b060c73fc62786aee7b" target="_top" xlink:title=" ">
<polygon fill="white" stroke="black" points="651,-330 651,-360 754,-360 754,-330 651,-330"/>
<text text-anchor="start" x="659" y="-348" font-family="Helvetica,sans-Serif" font-size="10.00">CO_Basalt\_extract</text>
<text text-anchor="middle" x="702.5" y="-337" font-family="Helvetica,sans-Serif" font-size="10.00">_csv_data</text>
</a>
</g>
</g>
<!-- Node5&#45;&gt;Node6 -->
<g id="edge5" class="edge">
<title>Node5&#45;&gt;Node6</title>
<path fill="none" stroke="midnightblue" d="M589.73,-313.93C606.14,-318.5 624.3,-323.54 641.12,-328.22"/>
<polygon fill="midnightblue" stroke="midnightblue" points="640.27,-331.62 650.85,-330.92 642.15,-324.87 640.27,-331.62"/>
</g>
<!-- Node7 -->
<g id="node7" class="node">
<title>Node7</title>
<g id="a_node7"><a xlink:href="a00200.html#a0c8258440777d1e27e88f57f55a9e2a4" target="_top" xlink:title=" ">
<polygon fill="white" stroke="black" points="649,-281 649,-311 756,-311 756,-281 649,-281"/>
<text text-anchor="start" x="657" y="-299" font-family="Helvetica,sans-Serif" font-size="10.00">CO_Basalt\_process</text>
<text text-anchor="middle" x="702.5" y="-288" font-family="Helvetica,sans-Serif" font-size="10.00">_bulk_row</text>
</a>
</g>
</g>
<!-- Node5&#45;&gt;Node7 -->
<g id="edge6" class="edge">
<title>Node5&#45;&gt;Node7</title>
<path fill="none" stroke="midnightblue" d="M589.73,-298.03C605.3,-297.74 622.43,-297.43 638.5,-297.14"/>
<polygon fill="midnightblue" stroke="midnightblue" points="638.95,-300.63 648.88,-296.95 638.82,-293.64 638.95,-300.63"/>
</g>
<!-- Node9 -->
<g id="node9" class="node">
<title>Node9</title>
<g id="a_node9"><a xlink:href="a00200.html#a43999add0a0623b6cc1376defb359b9b" target="_top" xlink:title=" ">
<polygon fill="white" stroke="black" points="632,-240.5 632,-259.5 773,-259.5 773,-240.5 632,-240.5"/>
<text text-anchor="middle" x="702.5" y="-247.5" font-family="Helvetica,sans-Serif" font-size="10.00">CO_Basalt\_output_one_line</text>
</a>
</g>
</g>
<!-- Node8&#45;&gt;Node9 -->
<g id="edge8" class="edge">
<title>Node8&#45;&gt;Node9</title>
<path fill="none" stroke="midnightblue" d="M589.73,-250C599.89,-250 610.71,-250 621.48,-250"/>
<polygon fill="midnightblue" stroke="midnightblue" points="621.75,-253.5 631.75,-250 621.75,-246.5 621.75,-253.5"/>
</g>
</g>
</svg>
