<?xml version="1.0" encoding="UTF-8" standalone="no"?>
<!DOCTYPE svg PUBLIC "-//W3C//DTD SVG 1.1//EN"
 "http://www.w3.org/Graphics/SVG/1.1/DTD/svg11.dtd">
<!-- Generated by graphviz version 2.47.1 (20210417.1919)
 -->
<!-- Title: CO_Andisol\_create_db_object Pages: 1 -->
<svg width="630pt" height="171pt"
 viewBox="0.00 0.00 630.00 170.50" xmlns="http://www.w3.org/2000/svg" xmlns:xlink="http://www.w3.org/1999/xlink">
<g id="graph0" class="graph" transform="scale(1 1) rotate(0) translate(4 166.5)">
<title>CO_Andisol\_create_db_object</title>
<polygon fill="white" stroke="transparent" points="-4,4 -4,-166.5 626,-166.5 626,4 -4,4"/>
<!-- Node1 -->
<g id="node1" class="node">
<title>Node1</title>
<g id="a_node1"><a xlink:title=" ">
<polygon fill="#bfbfbf" stroke="black" points="518,-93.5 518,-123.5 622,-123.5 622,-93.5 518,-93.5"/>
<text text-anchor="start" x="526" y="-111.5" font-family="Helvetica,sans-Serif" font-size="10.00">CO_Andisol\_create</text>
<text text-anchor="middle" x="570" y="-100.5" font-family="Helvetica,sans-Serif" font-size="10.00">_db_object</text>
</a>
</g>
</g>
<!-- Node2 -->
<g id="node2" class="node">
<title>Node2</title>
<g id="a_node2"><a xlink:href="a00216.html#a1783b1403b768959f80f17b08a5e8f82" target="_top" xlink:title=" ">
<polygon fill="white" stroke="black" points="346,-93.5 346,-123.5 482,-123.5 482,-93.5 346,-93.5"/>
<text text-anchor="start" x="354" y="-111.5" font-family="Helvetica,sans-Serif" font-size="10.00">CO_Andisol\create_general</text>
<text text-anchor="middle" x="414" y="-100.5" font-family="Helvetica,sans-Serif" font-size="10.00">_data_item</text>
</a>
</g>
</g>
<!-- Node1&#45;&gt;Node2 -->
<g id="edge1" class="edge">
<title>Node1&#45;&gt;Node2</title>
<path fill="none" stroke="midnightblue" d="M507.67,-108.5C499.31,-108.5 490.68,-108.5 482.22,-108.5"/>
<polygon fill="midnightblue" stroke="midnightblue" points="507.72,-112 517.72,-108.5 507.72,-105 507.72,-112"/>
</g>
<!-- Node3 -->
<g id="node3" class="node">
<title>Node3</title>
<g id="a_node3"><a xlink:href="a00216.html#a1432efeebcc0952a1236feec7bbceb13" target="_top" xlink:title=" ">
<polygon fill="white" stroke="black" points="164,-143 164,-162 310,-162 310,-143 164,-143"/>
<text text-anchor="middle" x="237" y="-150" font-family="Helvetica,sans-Serif" font-size="10.00">CO_Andisol\create_collection</text>
</a>
</g>
</g>
<!-- Node2&#45;&gt;Node3 -->
<g id="edge2" class="edge">
<title>Node2&#45;&gt;Node3</title>
<path fill="none" stroke="midnightblue" d="M343.5,-125.97C320.42,-131.78 295.6,-138.02 275.83,-142.99"/>
<polygon fill="midnightblue" stroke="midnightblue" points="344.42,-129.35 353.26,-123.52 342.71,-122.56 344.42,-129.35"/>
</g>
<!-- Node4 -->
<g id="node4" class="node">
<title>Node4</title>
<g id="a_node4"><a xlink:href="a00216.html#a24b15c45e28b5a0fb4971c11b4e5ed99" target="_top" xlink:title=" ">
<polygon fill="white" stroke="black" points="182.5,-93.5 182.5,-123.5 291.5,-123.5 291.5,-93.5 182.5,-93.5"/>
<text text-anchor="start" x="190.5" y="-111.5" font-family="Helvetica,sans-Serif" font-size="10.00">CO_Andisol\create_ll</text>
<text text-anchor="middle" x="237" y="-100.5" font-family="Helvetica,sans-Serif" font-size="10.00">_location</text>
</a>
</g>
</g>
<!-- Node2&#45;&gt;Node4 -->
<g id="edge3" class="edge">
<title>Node2&#45;&gt;Node4</title>
<path fill="none" stroke="midnightblue" d="M335.65,-108.5C320.81,-108.5 305.57,-108.5 291.68,-108.5"/>
<polygon fill="midnightblue" stroke="midnightblue" points="335.84,-112 345.84,-108.5 335.84,-105 335.84,-112"/>
</g>
<!-- Node5 -->
<g id="node5" class="node">
<title>Node5</title>
<g id="a_node5"><a xlink:href="a00216.html#a79103b0d231d1dcc1f7c1921e5118621" target="_top" xlink:title=" ">
<polygon fill="white" stroke="black" points="173,-55 173,-74 301,-74 301,-55 173,-55"/>
<text text-anchor="middle" x="237" y="-62" font-family="Helvetica,sans-Serif" font-size="10.00">CO_Andisol\create_place</text>
</a>
</g>
</g>
<!-- Node2&#45;&gt;Node5 -->
<g id="edge4" class="edge">
<title>Node2&#45;&gt;Node5</title>
<path fill="none" stroke="midnightblue" d="M343.5,-91.03C320.42,-85.22 295.6,-78.98 275.83,-74.01"/>
<polygon fill="midnightblue" stroke="midnightblue" points="342.71,-94.44 353.26,-93.48 344.42,-87.65 342.71,-94.44"/>
</g>
<!-- Node6 -->
<g id="node6" class="node">
<title>Node6</title>
<g id="a_node6"><a xlink:href="a00216.html#a58956fb178766e8d0074dcb138d1e650" target="_top" xlink:title=" ">
<polygon fill="white" stroke="black" points="9.5,-98.5 9.5,-128.5 118.5,-128.5 118.5,-98.5 9.5,-98.5"/>
<text text-anchor="start" x="17.5" y="-116.5" font-family="Helvetica,sans-Serif" font-size="10.00">CO_Andisol\create_ll</text>
<text text-anchor="middle" x="64" y="-105.5" font-family="Helvetica,sans-Serif" font-size="10.00">_place</text>
</a>
</g>
</g>
<!-- Node5&#45;&gt;Node6 -->
<g id="edge5" class="edge">
<title>Node5&#45;&gt;Node6</title>
<path fill="none" stroke="midnightblue" d="M191.51,-76.75C182.4,-79.29 172.89,-81.96 164,-84.5 148.33,-88.97 131.29,-93.93 115.83,-98.46"/>
<polygon fill="midnightblue" stroke="midnightblue" points="192.48,-80.12 201.18,-74.07 190.61,-73.37 192.48,-80.12"/>
</g>
<!-- Node7 -->
<g id="node7" class="node">
<title>Node7</title>
<g id="a_node7"><a xlink:href="a00216.html#a5f26c529c4b6d41367241db17d114fb5" target="_top" xlink:title=" ">
<polygon fill="white" stroke="black" points="9.5,-49.5 9.5,-79.5 118.5,-79.5 118.5,-49.5 9.5,-49.5"/>
<text text-anchor="start" x="17.5" y="-67.5" font-family="Helvetica,sans-Serif" font-size="10.00">CO_Andisol\create_ll</text>
<text text-anchor="middle" x="64" y="-56.5" font-family="Helvetica,sans-Serif" font-size="10.00">_us_place</text>
</a>
</g>
</g>
<!-- Node5&#45;&gt;Node7 -->
<g id="edge6" class="edge">
<title>Node5&#45;&gt;Node7</title>
<path fill="none" stroke="midnightblue" d="M162.68,-64.5C147.9,-64.5 132.62,-64.5 118.67,-64.5"/>
<polygon fill="midnightblue" stroke="midnightblue" points="162.81,-68 172.81,-64.5 162.81,-61 162.81,-68"/>
</g>
<!-- Node8 -->
<g id="node8" class="node">
<title>Node8</title>
<g id="a_node8"><a xlink:href="a00216.html#a492fc0036d5930c325ed14bfcdd5938a" target="_top" xlink:title=" ">
<polygon fill="white" stroke="black" points="0,-0.5 0,-30.5 128,-30.5 128,-0.5 0,-0.5"/>
<text text-anchor="start" x="8" y="-18.5" font-family="Helvetica,sans-Serif" font-size="10.00">CO_Andisol\create_place</text>
<text text-anchor="middle" x="64" y="-7.5" font-family="Helvetica,sans-Serif" font-size="10.00">_collection</text>
</a>
</g>
</g>
<!-- Node5&#45;&gt;Node8 -->
<g id="edge7" class="edge">
<title>Node5&#45;&gt;Node8</title>
<path fill="none" stroke="midnightblue" d="M192.85,-52.13C169.95,-45.57 141.63,-37.46 117.48,-30.54"/>
<polygon fill="midnightblue" stroke="midnightblue" points="192.05,-55.55 202.62,-54.94 193.97,-48.82 192.05,-55.55"/>
</g>
</g>
</svg>
