<?xml version="1.0" encoding="UTF-8" standalone="no"?>
<!DOCTYPE svg PUBLIC "-//W3C//DTD SVG 1.1//EN"
 "http://www.w3.org/Graphics/SVG/1.1/DTD/svg11.dtd">
<!-- Generated by graphviz version 2.40.1 (20161225.0304)
 -->
<!-- Title: CO_Andisol\delete_key Pages: 1 -->
<svg width="736pt" height="89pt"
 viewBox="0.00 0.00 736.19 89.00" xmlns="http://www.w3.org/2000/svg" xmlns:xlink="http://www.w3.org/1999/xlink">
<g id="graph0" class="graph" transform="scale(1 1) rotate(0) translate(4 85)">
<title>CO_Andisol\delete_key</title>
<polygon fill="#ffffff" stroke="transparent" points="-4,4 -4,-85 732.1895,-85 732.1895,4 -4,4"/>
<!-- Node1 -->
<g id="node1" class="node">
<title>Node1</title>
<g id="a_node1"><a xlink:title=" ">
<polygon fill="#bfbfbf" stroke="#000000" points="0,-57.5 0,-75.5 120.5068,-75.5 120.5068,-57.5 0,-57.5"/>
<text text-anchor="middle" x="60.2534" y="-63.5" font-family="Helvetica,sans-Serif" font-size="10.00" fill="#000000">CO_Andisol\delete_key</text>
</a>
</g>
</g>
<!-- Node2 -->
<g id="node2" class="node">
<title>Node2</title>
<g id="a_node2"><a xlink:href="a00216.html#a9e01279d8bb11cb25f5477bb75123cba" target="_top" xlink:title=" ">
<polygon fill="#ffffff" stroke="#000000" points="156.5068,-52.5 156.5068,-80.5 271.4521,-80.5 271.4521,-52.5 156.5068,-52.5"/>
<text text-anchor="start" x="164.5068" y="-68.5" font-family="Helvetica,sans-Serif" font-size="10.00" fill="#000000">CO_Andisol\set_value</text>
<text text-anchor="middle" x="213.9795" y="-58.5" font-family="Helvetica,sans-Serif" font-size="10.00" fill="#000000">_for_key</text>
</a>
</g>
</g>
<!-- Node1&#45;&gt;Node2 -->
<g id="edge1" class="edge">
<title>Node1&#45;&gt;Node2</title>
<path fill="none" stroke="#191970" d="M120.5688,-66.5C128.941,-66.5 137.5881,-66.5 146.0869,-66.5"/>
<polygon fill="#191970" stroke="#191970" points="146.3515,-70.0001 156.3515,-66.5 146.3515,-63.0001 146.3515,-70.0001"/>
</g>
<!-- Node3 -->
<g id="node3" class="node">
<title>Node3</title>
<g id="a_node3"><a xlink:href="a00216.html#acda267f1d6a8e496e167ed46fe590dc6" target="_top" xlink:title=" ">
<polygon fill="#ffffff" stroke="#000000" points="587.668,-33.5 587.668,-61.5 728.1895,-61.5 728.1895,-33.5 587.668,-33.5"/>
<text text-anchor="start" x="595.668" y="-49.5" font-family="Helvetica,sans-Serif" font-size="10.00" fill="#000000">CO_Andisol\get_chameleon</text>
<text text-anchor="middle" x="657.9287" y="-39.5" font-family="Helvetica,sans-Serif" font-size="10.00" fill="#000000">_instance</text>
</a>
</g>
</g>
<!-- Node2&#45;&gt;Node3 -->
<g id="edge2" class="edge">
<title>Node2&#45;&gt;Node3</title>
<path fill="none" stroke="#191970" d="M271.4615,-68.0952C338.7607,-69.3968 453.5196,-69.8542 551.668,-61.5 559.9967,-60.7911 568.6744,-59.8999 577.3221,-58.9122"/>
<polygon fill="#191970" stroke="#191970" points="577.9187,-62.3661 587.4374,-57.7135 577.0949,-55.4147 577.9187,-62.3661"/>
</g>
<!-- Node4 -->
<g id="node4" class="node">
<title>Node4</title>
<g id="a_node4"><a xlink:href="a00216.html#ac2a2dcb99dc927789b0ffa09c24946de" target="_top" xlink:title=" ">
<polygon fill="#ffffff" stroke="#000000" points="307.4521,-38.5 307.4521,-56.5 422.9639,-56.5 422.9639,-38.5 307.4521,-38.5"/>
<text text-anchor="middle" x="365.208" y="-44.5" font-family="Helvetica,sans-Serif" font-size="10.00" fill="#000000">CO_Andisol\logged_in</text>
</a>
</g>
</g>
<!-- Node2&#45;&gt;Node4 -->
<g id="edge3" class="edge">
<title>Node2&#45;&gt;Node4</title>
<path fill="none" stroke="#191970" d="M271.5839,-59.2627C279.9832,-58.2074 288.6972,-57.1126 297.2779,-56.0346"/>
<polygon fill="#191970" stroke="#191970" points="297.7771,-59.4995 307.2628,-54.7801 296.9045,-52.5541 297.7771,-59.4995"/>
</g>
<!-- Node4&#45;&gt;Node3 -->
<g id="edge4" class="edge">
<title>Node4&#45;&gt;Node3</title>
<path fill="none" stroke="#191970" d="M423.0402,-47.5C467.1393,-47.5 528.4139,-47.5 577.3221,-47.5"/>
<polygon fill="#191970" stroke="#191970" points="577.5603,-51.0001 587.5602,-47.5 577.5602,-44.0001 577.5603,-51.0001"/>
</g>
<!-- Node5 -->
<g id="node5" class="node">
<title>Node5</title>
<g id="a_node5"><a xlink:href="a00216.html#a4b0ec12b29ce4812cbb4169b68770f66" target="_top" xlink:title=" ">
<polygon fill="#ffffff" stroke="#000000" points="458.9639,-.5 458.9639,-18.5 551.668,-18.5 551.668,-.5 458.9639,-.5"/>
<text text-anchor="middle" x="505.3159" y="-6.5" font-family="Helvetica,sans-Serif" font-size="10.00" fill="#000000">CO_Andisol\valid</text>
</a>
</g>
</g>
<!-- Node4&#45;&gt;Node5 -->
<g id="edge5" class="edge">
<title>Node4&#45;&gt;Node5</title>
<path fill="none" stroke="#191970" d="M398.4116,-38.4945C417.4661,-33.3266 441.6054,-26.7795 462.1223,-21.215"/>
<polygon fill="#191970" stroke="#191970" points="463.13,-24.5682 471.8651,-18.5725 461.2976,-17.8123 463.13,-24.5682"/>
</g>
<!-- Node5&#45;&gt;Node3 -->
<g id="edge6" class="edge">
<title>Node5&#45;&gt;Node3</title>
<path fill="none" stroke="#191970" d="M541.483,-18.5055C556.4406,-22.2299 574.2748,-26.6705 591.4356,-30.9435"/>
<polygon fill="#191970" stroke="#191970" points="590.8857,-34.4133 601.4351,-33.4333 592.577,-27.6207 590.8857,-34.4133"/>
</g>
</g>
</svg>
