<?xml version="1.0" encoding="UTF-8" standalone="no"?>
<!DOCTYPE svg PUBLIC "-//W3C//DTD SVG 1.1//EN"
 "http://www.w3.org/Graphics/SVG/1.1/DTD/svg11.dtd">
<!-- Generated by graphviz version 2.47.1 (20210417.1919)
 -->
<!-- Title: CO_places_Basalt_Plugin\_process_parameters Pages: 1 -->
<svg width="640pt" height="61pt"
 viewBox="0.00 0.00 640.00 61.00" xmlns="http://www.w3.org/2000/svg" xmlns:xlink="http://www.w3.org/1999/xlink">
<g id="graph0" class="graph" transform="scale(1 1) rotate(0) translate(4 57)">
<title>CO_places_Basalt_Plugin\_process_parameters</title>
<polygon fill="white" stroke="transparent" points="-4,4 -4,-57 636,-57 636,4 -4,4"/>
<!-- Node1 -->
<g id="node1" class="node">
<title>Node1</title>
<g id="a_node1"><a xlink:title=" ">
<polygon fill="#bfbfbf" stroke="black" points="501,-0.5 501,-30.5 632,-30.5 632,-0.5 501,-0.5"/>
<text text-anchor="start" x="509" y="-18.5" font-family="Helvetica,sans-Serif" font-size="10.00">CO_places_Basalt_Plugin</text>
<text text-anchor="middle" x="566.5" y="-7.5" font-family="Helvetica,sans-Serif" font-size="10.00">\_process_parameters</text>
</a>
</g>
</g>
<!-- Node2 -->
<g id="node2" class="node">
<title>Node2</title>
<g id="a_node2"><a xlink:href="a00208.html#a021e0e49bd0868754a212795cfe8ebfd" target="_top" xlink:title=" ">
<polygon fill="white" stroke="black" points="334,-0.5 334,-30.5 465,-30.5 465,-0.5 334,-0.5"/>
<text text-anchor="start" x="342" y="-18.5" font-family="Helvetica,sans-Serif" font-size="10.00">CO_places_Basalt_Plugin</text>
<text text-anchor="middle" x="399.5" y="-7.5" font-family="Helvetica,sans-Serif" font-size="10.00">\_process_place_put</text>
</a>
</g>
</g>
<!-- Node1&#45;&gt;Node2 -->
<g id="edge1" class="edge">
<title>Node1&#45;&gt;Node2</title>
<path fill="none" stroke="midnightblue" d="M490.76,-15.5C482.18,-15.5 473.48,-15.5 465.05,-15.5"/>
<polygon fill="midnightblue" stroke="midnightblue" points="490.76,-19 500.76,-15.5 490.76,-12 490.76,-19"/>
</g>
<!-- Node3 -->
<g id="node3" class="node">
<title>Node3</title>
<g id="a_node3"><a xlink:href="a00208.html#a3b060bbae1171b584997696bc5874a2f" target="_top" xlink:title=" ">
<polygon fill="white" stroke="black" points="167,-22.5 167,-52.5 298,-52.5 298,-22.5 167,-22.5"/>
<text text-anchor="start" x="175" y="-40.5" font-family="Helvetica,sans-Serif" font-size="10.00">CO_places_Basalt_Plugin</text>
<text text-anchor="middle" x="232.5" y="-29.5" font-family="Helvetica,sans-Serif" font-size="10.00">\_process_place_post</text>
</a>
</g>
</g>
<!-- Node2&#45;&gt;Node3 -->
<g id="edge2" class="edge">
<title>Node2&#45;&gt;Node3</title>
<path fill="none" stroke="midnightblue" d="M323.76,-25.47C315.18,-26.61 306.48,-27.77 298.05,-28.89"/>
<polygon fill="midnightblue" stroke="midnightblue" points="324.31,-28.92 333.76,-24.13 323.39,-21.98 324.31,-28.92"/>
</g>
<!-- Node4 -->
<g id="node4" class="node">
<title>Node4</title>
<g id="a_node4"><a xlink:href="a00208.html#a66729507ef35bcc83810d707412207fb" target="_top" xlink:title=" ">
<polygon fill="white" stroke="black" points="0,-0.5 0,-30.5 131,-30.5 131,-0.5 0,-0.5"/>
<text text-anchor="start" x="8" y="-18.5" font-family="Helvetica,sans-Serif" font-size="10.00">CO_places_Basalt_Plugin</text>
<text text-anchor="middle" x="65.5" y="-7.5" font-family="Helvetica,sans-Serif" font-size="10.00">\process_command</text>
</a>
</g>
</g>
<!-- Node2&#45;&gt;Node4 -->
<g id="edge4" class="edge">
<title>Node2&#45;&gt;Node4</title>
<path fill="none" stroke="midnightblue" d="M323.75,-13.85C315.07,-13.7 306.34,-13.58 298,-13.5 239.78,-12.92 225.22,-12.92 167,-13.5 155.4,-13.62 143.04,-13.81 131.1,-14.02"/>
<polygon fill="midnightblue" stroke="midnightblue" points="323.84,-17.35 333.9,-14.02 323.96,-10.35 323.84,-17.35"/>
</g>
<!-- Node3&#45;&gt;Node4 -->
<g id="edge3" class="edge">
<title>Node3&#45;&gt;Node4</title>
<path fill="none" stroke="midnightblue" d="M156.76,-27.53C148.18,-26.39 139.48,-25.23 131.05,-24.11"/>
<polygon fill="midnightblue" stroke="midnightblue" points="156.39,-31.02 166.76,-28.87 157.31,-24.08 156.39,-31.02"/>
</g>
</g>
</svg>
