<?xml version="1.0" encoding="UTF-8" standalone="no"?>
<!DOCTYPE svg PUBLIC "-//W3C//DTD SVG 1.1//EN"
 "http://www.w3.org/Graphics/SVG/1.1/DTD/svg11.dtd">
<!-- Generated by graphviz version 2.47.1 (20210417.1919)
 -->
<!-- Title: CO_Basalt\_process_command Pages: 1 -->
<!--zoomable 320 -->
<svg id="main" version="1.1" xmlns="http://www.w3.org/2000/svg" xmlns:xlink="http://www.w3.org/1999/xlink" xml:space="preserve" onload="init(evt)">
<style type="text/css"><![CDATA[
.edge:hover path { stroke: red; }
.edge:hover polygon { stroke: red; fill: red; }
]]></style>
<script type="text/javascript"><![CDATA[
var edges = document.getElementsByTagName('g');
if (edges && edges.length) {
  for (var i=0;i<edges.length;i++) {
    if (edges[i].id.substr(0,4)=='edge') {
      edges[i].setAttribute('class','edge');
    }
  }
}
]]></script>
        <defs>
                <circle id="rim" cx="0" cy="0" r="7"/>
                <circle id="rim2" cx="0" cy="0" r="3.5"/>
                <g id="zoomPlus">
                        <use xlink:href="#rim" fill="#404040">
                                <set attributeName="fill" to="#808080" begin="zoomplus.mouseover" end="zoomplus.mouseout"/>
                        </use>
                        <path d="M-4,0h8M0,-4v8" fill="none" stroke="white" stroke-width="1.5" pointer-events="none"/>
                </g>
                <g id="zoomMin">
                        <use xlink:href="#rim" fill="#404040">
                                <set attributeName="fill" to="#808080" begin="zoomminus.mouseover" end="zoomminus.mouseout"/>
                        </use>
                        <path d="M-4,0h8" fill="none" stroke="white" stroke-width="1.5" pointer-events="none"/>
                </g>
                <g id="dirArrow">
                        <path fill="none" stroke="white" stroke-width="1.5" d="M0,-3.0v7 M-2.5,-0.5L0,-3.0L2.5,-0.5"/>
                </g>
               <g id="resetDef">
                       <use xlink:href="#rim2" fill="#404040">
                               <set attributeName="fill" to="#808080" begin="reset.mouseover" end="reset.mouseout"/>
                       </use>
               </g>
        </defs>

<script type="text/javascript">
var viewWidth = 781;
var viewHeight = 320;
var sectionId = 'dynsection-15';
</script>
<script xlink:href="svgpan.js"/>
<svg id="graph" class="graph">
<g id="viewport">
<title>CO_Basalt\_process_command</title>
<polygon fill="white" stroke="transparent" points="-4,4 -4,-315.5 777,-315.5 777,4 -4,4"/>
<!-- Node1 -->
<g id="node1" class="node">
<title>Node1</title>
<g id="a_node1"><a xlink:title=" ">
<polygon fill="#bfbfbf" stroke="black" points="0,-136 0,-166 107,-166 107,-136 0,-136"/>
<text text-anchor="start" x="8" y="-154" font-family="Helvetica,sans-Serif" font-size="10.00">CO_Basalt\_process</text>
<text text-anchor="middle" x="53.5" y="-143" font-family="Helvetica,sans-Serif" font-size="10.00">_command</text>
</a>
</g>
</g>
<!-- Node2 -->
<g id="node2" class="node">
<title>Node2</title>
<g id="a_node2"><a xlink:href="a00200.html#a474660b01c925a4d47e918c02944ebf7" target="_top" xlink:title=" ">
<polygon fill="white" stroke="black" points="143,-141.5 143,-160.5 293,-160.5 293,-141.5 143,-141.5"/>
<text text-anchor="middle" x="218" y="-148.5" font-family="Helvetica,sans-Serif" font-size="10.00">CO_Basalt\process_command</text>
</a>
</g>
</g>
<!-- Node1&#45;&gt;Node2 -->
<g id="edge1" class="edge">
<title>Node1&#45;&gt;Node2</title>
<path fill="none" stroke="midnightblue" d="M107.26,-151C115.45,-151 124.09,-151 132.77,-151"/>
<polygon fill="midnightblue" stroke="midnightblue" points="132.96,-154.5 142.96,-151 132.96,-147.5 132.96,-154.5"/>
</g>
<!-- Node3 -->
<g id="node3" class="node">
<title>Node3</title>
<g id="a_node3"><a xlink:href="a00196.html#a4195fd75943d9dd1ca6dce290aa64dcc" target="_top" xlink:title=" ">
<polygon fill="white" stroke="black" points="329,-161 329,-191 438,-191 438,-161 329,-161"/>
<text text-anchor="start" x="337" y="-179" font-family="Helvetica,sans-Serif" font-size="10.00">A_CO_Basalt_Plugin</text>
<text text-anchor="middle" x="383.5" y="-168" font-family="Helvetica,sans-Serif" font-size="10.00">\_condition_response</text>
</a>
</g>
</g>
<!-- Node2&#45;&gt;Node3 -->
<g id="edge2" class="edge">
<title>Node2&#45;&gt;Node3</title>
<path fill="none" stroke="midnightblue" d="M281.28,-160.52C293.55,-162.4 306.44,-164.37 318.75,-166.25"/>
<polygon fill="midnightblue" stroke="midnightblue" points="318.52,-169.76 328.93,-167.81 319.58,-162.84 318.52,-169.76"/>
</g>
<!-- Node4 -->
<g id="node4" class="node">
<title>Node4</title>
<g id="a_node4"><a xlink:href="a00200.html#a60ce04d2fc76ab876a428500dccb7dd8" target="_top" xlink:title=" ">
<polygon fill="white" stroke="black" points="330,-112 330,-142 437,-142 437,-112 330,-112"/>
<text text-anchor="start" x="338" y="-130" font-family="Helvetica,sans-Serif" font-size="10.00">CO_Basalt\_process</text>
<text text-anchor="middle" x="383.5" y="-119" font-family="Helvetica,sans-Serif" font-size="10.00">_baseline_command</text>
</a>
</g>
</g>
<!-- Node2&#45;&gt;Node4 -->
<g id="edge3" class="edge">
<title>Node2&#45;&gt;Node4</title>
<path fill="none" stroke="midnightblue" d="M284.09,-141.45C295.87,-139.72 308.13,-137.92 319.83,-136.2"/>
<polygon fill="midnightblue" stroke="midnightblue" points="320.57,-139.63 329.95,-134.71 319.55,-132.7 320.57,-139.63"/>
</g>
<!-- Node5 -->
<g id="node5" class="node">
<title>Node5</title>
<g id="a_node5"><a xlink:href="a00200.html#a94f153fbc911e113c202f91acc1b270e" target="_top" xlink:title=" ">
<polygon fill="white" stroke="black" points="480.5,-235 480.5,-265 589.5,-265 589.5,-235 480.5,-235"/>
<text text-anchor="start" x="488.5" y="-253" font-family="Helvetica,sans-Serif" font-size="10.00">CO_Basalt\_baseline</text>
<text text-anchor="middle" x="535" y="-242" font-family="Helvetica,sans-Serif" font-size="10.00">_bulk_loader</text>
</a>
</g>
</g>
<!-- Node4&#45;&gt;Node5 -->
<g id="edge4" class="edge">
<title>Node4&#45;&gt;Node5</title>
<path fill="none" stroke="midnightblue" d="M426.11,-142.05C430.42,-144.63 434.49,-147.6 438,-151 464.26,-176.46 447.4,-199.9 474,-225 475.63,-226.54 477.38,-227.99 479.2,-229.36"/>
<polygon fill="midnightblue" stroke="midnightblue" points="477.35,-232.33 487.64,-234.84 481.16,-226.46 477.35,-232.33"/>
</g>
<!-- Node8 -->
<g id="node8" class="node">
<title>Node8</title>
<g id="a_node8"><a xlink:href="a00200.html#ad72622e9b3a834e50a1a8f4ab488b08a" target="_top" xlink:title=" ">
<polygon fill="white" stroke="black" points="480.5,-186 480.5,-216 589.5,-216 589.5,-186 480.5,-186"/>
<text text-anchor="start" x="488.5" y="-204" font-family="Helvetica,sans-Serif" font-size="10.00">CO_Basalt\_baseline</text>
<text text-anchor="middle" x="535" y="-193" font-family="Helvetica,sans-Serif" font-size="10.00">_fetch_backup</text>
</a>
</g>
</g>
<!-- Node4&#45;&gt;Node8 -->
<g id="edge7" class="edge">
<title>Node4&#45;&gt;Node8</title>
<path fill="none" stroke="midnightblue" d="M420.64,-142.11C426.53,-144.89 432.51,-147.89 438,-151 454.96,-160.58 456.91,-166.65 474,-176 477.52,-177.93 481.22,-179.8 484.98,-181.6"/>
<polygon fill="midnightblue" stroke="midnightblue" points="483.83,-184.92 494.38,-185.9 486.75,-178.56 483.83,-184.92"/>
</g>
<!-- Node10 -->
<g id="node10" class="node">
<title>Node10</title>
<g id="a_node10"><a xlink:href="a00196.html#a772e319259d2ce50837c099acdfd3625" target="_top" xlink:title=" ">
<polygon fill="white" stroke="black" points="480.5,-137 480.5,-167 589.5,-167 589.5,-137 480.5,-137"/>
<text text-anchor="start" x="488.5" y="-155" font-family="Helvetica,sans-Serif" font-size="10.00">A_CO_Basalt_Plugin</text>
<text text-anchor="middle" x="535" y="-144" font-family="Helvetica,sans-Serif" font-size="10.00">\_get_handler</text>
</a>
</g>
</g>
<!-- Node4&#45;&gt;Node10 -->
<g id="edge9" class="edge">
<title>Node4&#45;&gt;Node10</title>
<path fill="none" stroke="midnightblue" d="M437.21,-135.81C447.89,-137.6 459.24,-139.5 470.25,-141.34"/>
<polygon fill="midnightblue" stroke="midnightblue" points="469.81,-144.81 480.25,-143.01 470.97,-137.91 469.81,-144.81"/>
</g>
<!-- Node11 -->
<g id="node11" class="node">
<title>Node11</title>
<g id="a_node11"><a xlink:href="a00200.html#acd909d93bf248e9b07ff9cfdd28df9b9" target="_top" xlink:title=" ">
<polygon fill="white" stroke="black" points="478.5,-88 478.5,-118 591.5,-118 591.5,-88 478.5,-88"/>
<text text-anchor="start" x="486.5" y="-106" font-family="Helvetica,sans-Serif" font-size="10.00">CO_Basalt\_process</text>
<text text-anchor="middle" x="535" y="-95" font-family="Helvetica,sans-Serif" font-size="10.00">_serverinfo_command</text>
</a>
</g>
</g>
<!-- Node4&#45;&gt;Node11 -->
<g id="edge10" class="edge">
<title>Node4&#45;&gt;Node11</title>
<path fill="none" stroke="midnightblue" d="M437.21,-118.54C447.34,-116.91 458.06,-115.19 468.54,-113.51"/>
<polygon fill="midnightblue" stroke="midnightblue" points="469.16,-116.95 478.48,-111.91 468.05,-110.04 469.16,-116.95"/>
</g>
<!-- Node12 -->
<g id="node12" class="node">
<title>Node12</title>
<g id="a_node12"><a xlink:href="a00200.html#af1b2c5aad7e4010614b891a8e47e469b" target="_top" xlink:title=" ">
<polygon fill="white" stroke="black" points="481.5,-39 481.5,-69 588.5,-69 588.5,-39 481.5,-39"/>
<text text-anchor="start" x="489.5" y="-57" font-family="Helvetica,sans-Serif" font-size="10.00">CO_Basalt\_process</text>
<text text-anchor="middle" x="535" y="-46" font-family="Helvetica,sans-Serif" font-size="10.00">_token_command</text>
</a>
</g>
</g>
<!-- Node4&#45;&gt;Node12 -->
<g id="edge11" class="edge">
<title>Node4&#45;&gt;Node12</title>
<path fill="none" stroke="midnightblue" d="M410.31,-111.79C427.96,-101.66 452.05,-88.35 474,-78 477.55,-76.32 481.25,-74.66 485,-73.03"/>
<polygon fill="midnightblue" stroke="midnightblue" points="486.49,-76.2 494.33,-69.08 483.76,-69.76 486.49,-76.2"/>
</g>
<!-- Node13 -->
<g id="node13" class="node">
<title>Node13</title>
<g id="a_node13"><a xlink:href="a00200.html#a9917ca310760b3d05cdb027b030f86b4" target="_top" xlink:title=" ">
<polygon fill="white" stroke="black" points="474,-0.5 474,-19.5 596,-19.5 596,-0.5 474,-0.5"/>
<text text-anchor="middle" x="535" y="-7.5" font-family="Helvetica,sans-Serif" font-size="10.00">CO_Basalt\plugin_name</text>
</a>
</g>
</g>
<!-- Node4&#45;&gt;Node13 -->
<g id="edge12" class="edge">
<title>Node4&#45;&gt;Node13</title>
<path fill="none" stroke="midnightblue" d="M394.49,-111.76C409.34,-90.27 439.25,-51.21 474,-29 477.18,-26.97 480.59,-25.14 484.12,-23.49"/>
<polygon fill="midnightblue" stroke="midnightblue" points="485.73,-26.62 493.63,-19.56 483.06,-20.15 485.73,-26.62"/>
</g>
<!-- Node6 -->
<g id="node6" class="node">
<title>Node6</title>
<g id="a_node6"><a xlink:href="a00200.html#ad343adeeff085b060c73fc62786aee7b" target="_top" xlink:title=" ">
<polygon fill="white" stroke="black" points="651,-281 651,-311 754,-311 754,-281 651,-281"/>
<text text-anchor="start" x="659" y="-299" font-family="Helvetica,sans-Serif" font-size="10.00">CO_Basalt\_extract</text>
<text text-anchor="middle" x="702.5" y="-288" font-family="Helvetica,sans-Serif" font-size="10.00">_csv_data</text>
</a>
</g>
</g>
<!-- Node5&#45;&gt;Node6 -->
<g id="edge5" class="edge">
<title>Node5&#45;&gt;Node6</title>
<path fill="none" stroke="midnightblue" d="M589.73,-264.93C606.14,-269.5 624.3,-274.54 641.12,-279.22"/>
<polygon fill="midnightblue" stroke="midnightblue" points="640.27,-282.62 650.85,-281.92 642.15,-275.87 640.27,-282.62"/>
</g>
<!-- Node7 -->
<g id="node7" class="node">
<title>Node7</title>
<g id="a_node7"><a xlink:href="a00200.html#a0c8258440777d1e27e88f57f55a9e2a4" target="_top" xlink:title=" ">
<polygon fill="white" stroke="black" points="649,-232 649,-262 756,-262 756,-232 649,-232"/>
<text text-anchor="start" x="657" y="-250" font-family="Helvetica,sans-Serif" font-size="10.00">CO_Basalt\_process</text>
<text text-anchor="middle" x="702.5" y="-239" font-family="Helvetica,sans-Serif" font-size="10.00">_bulk_row</text>
</a>
</g>
</g>
<!-- Node5&#45;&gt;Node7 -->
<g id="edge6" class="edge">
<title>Node5&#45;&gt;Node7</title>
<path fill="none" stroke="midnightblue" d="M589.73,-249.03C605.3,-248.74 622.43,-248.43 638.5,-248.14"/>
<polygon fill="midnightblue" stroke="midnightblue" points="638.95,-251.63 648.88,-247.95 638.82,-244.64 638.95,-251.63"/>
</g>
<!-- Node9 -->
<g id="node9" class="node">
<title>Node9</title>
<g id="a_node9"><a xlink:href="a00200.html#a43999add0a0623b6cc1376defb359b9b" target="_top" xlink:title=" ">
<polygon fill="white" stroke="black" points="632,-191.5 632,-210.5 773,-210.5 773,-191.5 632,-191.5"/>
<text text-anchor="middle" x="702.5" y="-198.5" font-family="Helvetica,sans-Serif" font-size="10.00">CO_Basalt\_output_one_line</text>
</a>
</g>
</g>
<!-- Node8&#45;&gt;Node9 -->
<g id="edge8" class="edge">
<title>Node8&#45;&gt;Node9</title>
<path fill="none" stroke="midnightblue" d="M589.73,-201C599.89,-201 610.71,-201 621.48,-201"/>
<polygon fill="midnightblue" stroke="midnightblue" points="621.75,-204.5 631.75,-201 621.75,-197.5 621.75,-204.5"/>
</g>
</g>
</svg>
        <g id="navigator" transform="translate(0 0)" fill="#404254">
                <rect fill="#f2f5e9" fill-opacity="0.5" stroke="#606060" stroke-width=".5" x="0" y="0" width="60" height="60"/>
                <use id="zoomplus" xlink:href="#zoomPlus" x="17" y="9" onmousedown="handleZoom(evt,'in')"/>
                <use id="zoomminus" xlink:href="#zoomMin" x="42" y="9" onmousedown="handleZoom(evt,'out')"/>
                <use id="reset" xlink:href="#resetDef" x="30" y="36" onmousedown="handleReset()"/>
                <g id="arrowUp" xlink:href="#dirArrow" transform="translate(30 24)" onmousedown="handlePan(0,-1)">
                  <use xlink:href="#rim" fill="#404040">
                        <set attributeName="fill" to="#808080" begin="arrowUp.mouseover" end="arrowUp.mouseout"/>
                  </use>
                  <path fill="none" stroke="white" stroke-width="1.5" d="M0,-3.0v7 M-2.5,-0.5L0,-3.0L2.5,-0.5"/>
                </g>
                <g id="arrowRight" xlink:href="#dirArrow" transform="rotate(90) translate(36 -43)" onmousedown="handlePan(1,0)">
                  <use xlink:href="#rim" fill="#404040">
                        <set attributeName="fill" to="#808080" begin="arrowRight.mouseover" end="arrowRight.mouseout"/>
                  </use>
                  <path fill="none" stroke="white" stroke-width="1.5" d="M0,-3.0v7 M-2.5,-0.5L0,-3.0L2.5,-0.5"/>
                </g>
                <g id="arrowDown" xlink:href="#dirArrow" transform="rotate(180) translate(-30 -48)" onmousedown="handlePan(0,1)">
                  <use xlink:href="#rim" fill="#404040">
                        <set attributeName="fill" to="#808080" begin="arrowDown.mouseover" end="arrowDown.mouseout"/>
                  </use>
                  <path fill="none" stroke="white" stroke-width="1.5" d="M0,-3.0v7 M-2.5,-0.5L0,-3.0L2.5,-0.5"/>
                </g>
                <g id="arrowLeft" xlink:href="#dirArrow" transform="rotate(270) translate(-36 17)" onmousedown="handlePan(-1,0)">
                  <use xlink:href="#rim" fill="#404040">
                        <set attributeName="fill" to="#808080" begin="arrowLeft.mouseover" end="arrowLeft.mouseout"/>
                  </use>
                  <path fill="none" stroke="white" stroke-width="1.5" d="M0,-3.0v7 M-2.5,-0.5L0,-3.0L2.5,-0.5"/>
                </g>
        </g>
        <svg viewBox="0 0 15 15" width="100%" height="30px" preserveAspectRatio="xMaxYMin meet">
         <g id="arrow_out" transform="scale(0.3 0.3)">
          <a xlink:href="a00200_a528297edc9fb3e5e3c8f2e9270621853_cgraph_org.svg" target="_base">
           <rect id="button" ry="5" rx="5" y="6" x="6" height="38" width="38"
                fill="#f2f5e9" fill-opacity="0.5" stroke="#606060" stroke-width="1.0"/>
           <path id="arrow"
             d="M 11.500037,31.436501 C 11.940474,20.09759 22.043105,11.32322 32.158766,21.979434 L 37.068811,17.246167 C 37.068811,17.246167 37.088388,32 37.088388,32 L 22.160133,31.978069 C 22.160133,31.978069 26.997745,27.140456 26.997745,27.140456 C 18.528582,18.264221 13.291696,25.230495 11.500037,31.436501 z"
             style="fill:#404040;"/>
          </a>
         </g>
        </svg>
</svg>
