<?xml version="1.0" encoding="UTF-8" standalone="no"?>
<!DOCTYPE svg PUBLIC "-//W3C//DTD SVG 1.1//EN"
 "http://www.w3.org/Graphics/SVG/1.1/DTD/svg11.dtd">
<!-- Generated by graphviz version 2.40.1 (20161225.0304)
 -->
<!-- Title: CO_Andisol\logged_in Pages: 1 -->
<svg width="429pt" height="51pt"
 viewBox="0.00 0.00 428.74 51.00" xmlns="http://www.w3.org/2000/svg" xmlns:xlink="http://www.w3.org/1999/xlink">
<g id="graph0" class="graph" transform="scale(1 1) rotate(0) translate(4 47)">
<title>CO_Andisol\logged_in</title>
<polygon fill="#ffffff" stroke="transparent" points="-4,4 -4,-47 424.7373,-47 424.7373,4 -4,4"/>
<!-- Node293 -->
<g id="node1" class="node">
<title>Node293</title>
<polygon fill="#bfbfbf" stroke="#000000" points="0,-19.5 0,-37.5 115.5117,-37.5 115.5117,-19.5 0,-19.5"/>
<text text-anchor="middle" x="57.7559" y="-25.5" font-family="Helvetica,sans-Serif" font-size="10.00" fill="#000000">CO_Andisol\logged_in</text>
</g>
<!-- Node294 -->
<g id="node2" class="node">
<title>Node294</title>
<g id="a_node2"><a xlink:href="a00219.html#acda267f1d6a8e496e167ed46fe590dc6" target="_top" xlink:title="CO_Andisol\\get_chameleon\l_instance">
<polygon fill="#ffffff" stroke="#000000" points="280.2158,-14.5 280.2158,-42.5 420.7373,-42.5 420.7373,-14.5 280.2158,-14.5"/>
<text text-anchor="start" x="288.2158" y="-30.5" font-family="Helvetica,sans-Serif" font-size="10.00" fill="#000000">CO_Andisol\get_chameleon</text>
<text text-anchor="middle" x="350.4766" y="-20.5" font-family="Helvetica,sans-Serif" font-size="10.00" fill="#000000">_instance</text>
</a>
</g>
</g>
<!-- Node293&#45;&gt;Node294 -->
<g id="edge1" class="edge">
<title>Node293&#45;&gt;Node294</title>
<path fill="none" stroke="#191970" d="M115.5881,-28.5C159.6871,-28.5 220.9618,-28.5 269.8699,-28.5"/>
<polygon fill="#191970" stroke="#191970" points="270.1081,-32.0001 280.1081,-28.5 270.1081,-25.0001 270.1081,-32.0001"/>
</g>
<!-- Node295 -->
<g id="node3" class="node">
<title>Node295</title>
<g id="a_node3"><a xlink:href="a00219.html#a4b0ec12b29ce4812cbb4169b68770f66" target="_top" xlink:title="CO_Andisol\\valid">
<polygon fill="#ffffff" stroke="#000000" points="151.5117,-.5 151.5117,-18.5 244.2158,-18.5 244.2158,-.5 151.5117,-.5"/>
<text text-anchor="middle" x="197.8638" y="-6.5" font-family="Helvetica,sans-Serif" font-size="10.00" fill="#000000">CO_Andisol\valid</text>
</a>
</g>
</g>
<!-- Node293&#45;&gt;Node295 -->
<g id="edge2" class="edge">
<title>Node293&#45;&gt;Node295</title>
<path fill="none" stroke="#191970" d="M115.552,-20.6623C124.0193,-19.514 132.7331,-18.3324 141.1777,-17.1872"/>
<polygon fill="#191970" stroke="#191970" points="141.8713,-20.6253 151.3102,-15.8131 140.9306,-13.6887 141.8713,-20.6253"/>
</g>
<!-- Node295&#45;&gt;Node294 -->
<g id="edge3" class="edge">
<title>Node295&#45;&gt;Node294</title>
<path fill="none" stroke="#191970" d="M244.4819,-15.3039C252.5464,-16.3079 261.135,-17.3771 269.799,-18.4558"/>
<polygon fill="#191970" stroke="#191970" points="269.6217,-21.9607 279.9776,-19.723 270.4866,-15.0143 269.6217,-21.9607"/>
</g>
</g>
</svg>
