<?xml version="1.0" encoding="UTF-8" standalone="no"?>
<!DOCTYPE svg PUBLIC "-//W3C//DTD SVG 1.1//EN"
 "http://www.w3.org/Graphics/SVG/1.1/DTD/svg11.dtd">
<!-- Generated by graphviz version 2.40.1 (20161225.0304)
 -->
<!-- Title: CO_User_Collection\is_god Pages: 1 -->
<svg width="288pt" height="64pt"
 viewBox="0.00 0.00 288.31 64.00" xmlns="http://www.w3.org/2000/svg" xmlns:xlink="http://www.w3.org/1999/xlink">
<g id="graph0" class="graph" transform="scale(1 1) rotate(0) translate(4 60)">
<title>CO_User_Collection\is_god</title>
<polygon fill="#ffffff" stroke="transparent" points="-4,4 -4,-60 284.3145,-60 284.3145,4 -4,4"/>
<!-- Node1 -->
<g id="node1" class="node">
<title>Node1</title>
<g id="a_node1"><a xlink:title=" ">
<polygon fill="#bfbfbf" stroke="#000000" points="0,-13.5 0,-41.5 107.1475,-41.5 107.1475,-13.5 0,-13.5"/>
<text text-anchor="start" x="8" y="-29.5" font-family="Helvetica,sans-Serif" font-size="10.00" fill="#000000">CO_User_Collection</text>
<text text-anchor="middle" x="53.5737" y="-19.5" font-family="Helvetica,sans-Serif" font-size="10.00" fill="#000000">\is_god</text>
</a>
</g>
</g>
<!-- Node2 -->
<g id="node2" class="node">
<title>Node2</title>
<g id="a_node2"><a xlink:href="a00283.html#a994648913ff9d5f7bb83640bd6239d44" target="_top" xlink:title=" ">
<polygon fill="#ffffff" stroke="#000000" points="156.4849,-37.5 156.4849,-55.5 266.9771,-55.5 266.9771,-37.5 156.4849,-37.5"/>
<text text-anchor="middle" x="211.731" y="-43.5" font-family="Helvetica,sans-Serif" font-size="10.00" fill="#000000">tCO_Collection\count</text>
</a>
</g>
</g>
<!-- Node1&#45;&gt;Node2 -->
<g id="edge1" class="edge">
<title>Node1&#45;&gt;Node2</title>
<path fill="none" stroke="#191970" d="M107.5601,-33.9856C119.9875,-35.4785 133.3373,-37.0823 146.1947,-38.6269"/>
<polygon fill="#191970" stroke="#191970" points="146.0275,-42.1319 156.3736,-39.8497 146.8625,-35.1819 146.0275,-42.1319"/>
</g>
<!-- Node3 -->
<g id="node3" class="node">
<title>Node3</title>
<g id="a_node3"><a xlink:href="a00319.html#a7f4c18f2ed2bda67f3c38fd95c120c0a" target="_top" xlink:title=" ">
<polygon fill="#ffffff" stroke="#000000" points="143.1475,-.5 143.1475,-18.5 280.3145,-18.5 280.3145,-.5 143.1475,-.5"/>
<text text-anchor="middle" x="211.731" y="-6.5" font-family="Helvetica,sans-Serif" font-size="10.00" fill="#000000">CO_Main_DB_Record\tags</text>
</a>
</g>
</g>
<!-- Node1&#45;&gt;Node3 -->
<g id="edge2" class="edge">
<title>Node1&#45;&gt;Node3</title>
<path fill="none" stroke="#191970" d="M107.5601,-21.3558C115.7285,-20.4261 124.2954,-19.4511 132.8591,-18.4765"/>
<polygon fill="#191970" stroke="#191970" points="133.3465,-21.9437 142.8865,-17.3352 132.5549,-14.9886 133.3465,-21.9437"/>
</g>
</g>
</svg>
