<?xml version="1.0" encoding="UTF-8" standalone="no"?>
<!DOCTYPE svg PUBLIC "-//W3C//DTD SVG 1.1//EN"
 "http://www.w3.org/Graphics/SVG/1.1/DTD/svg11.dtd">
<!-- Generated by graphviz version 2.40.1 (20161225.0304)
 -->
<!-- Title: CO_Basalt\plugin_name Pages: 1 -->
<svg width="763pt" height="84pt"
 viewBox="0.00 0.00 762.83 84.00" xmlns="http://www.w3.org/2000/svg" xmlns:xlink="http://www.w3.org/1999/xlink">
<g id="graph0" class="graph" transform="scale(1 1) rotate(0) translate(4 80)">
<title>CO_Basalt\plugin_name</title>
<polygon fill="#ffffff" stroke="transparent" points="-4,4 -4,-80 758.8301,-80 758.8301,4 -4,4"/>
<!-- Node1 -->
<g id="node1" class="node">
<title>Node1</title>
<g id="a_node1"><a xlink:title=" ">
<polygon fill="#bfbfbf" stroke="#000000" points="630.4316,-28.5 630.4316,-46.5 754.8301,-46.5 754.8301,-28.5 630.4316,-28.5"/>
<text text-anchor="middle" x="692.6309" y="-34.5" font-family="Helvetica,sans-Serif" font-size="10.00" fill="#000000">CO_Basalt\plugin_name</text>
</a>
</g>
</g>
<!-- Node2 -->
<g id="node2" class="node">
<title>Node2</title>
<g id="a_node2"><a xlink:href="a00200.html#a60ce04d2fc76ab876a428500dccb7dd8" target="_top" xlink:title=" ">
<polygon fill="#ffffff" stroke="#000000" points="486.1514,-46.5 486.1514,-74.5 594.4316,-74.5 594.4316,-46.5 486.1514,-46.5"/>
<text text-anchor="start" x="494.1514" y="-62.5" font-family="Helvetica,sans-Serif" font-size="10.00" fill="#000000">CO_Basalt\_process</text>
<text text-anchor="middle" x="540.2915" y="-52.5" font-family="Helvetica,sans-Serif" font-size="10.00" fill="#000000">_baseline_command</text>
</a>
</g>
</g>
<!-- Node1&#45;&gt;Node2 -->
<g id="edge1" class="edge">
<title>Node1&#45;&gt;Node2</title>
<path fill="none" stroke="#191970" d="M622.9588,-48.019C613.3856,-49.4644 603.6745,-50.9305 594.4363,-52.3253"/>
<polygon fill="#191970" stroke="#191970" points="623.4941,-51.4779 632.8595,-46.5242 622.4491,-44.5564 623.4941,-51.4779"/>
</g>
<!-- Node6 -->
<g id="node6" class="node">
<title>Node6</title>
<g id="a_node6"><a xlink:href="a00200.html#a00b3cdf024e15bff80a3c3c9aed320f3" target="_top" xlink:title=" ">
<polygon fill="#ffffff" stroke="#000000" points="317.7012,-.5 317.7012,-28.5 430.9863,-28.5 430.9863,-.5 317.7012,-.5"/>
<text text-anchor="start" x="325.7012" y="-16.5" font-family="Helvetica,sans-Serif" font-size="10.00" fill="#000000">CO_Basalt\get_plugin</text>
<text text-anchor="middle" x="374.3438" y="-6.5" font-family="Helvetica,sans-Serif" font-size="10.00" fill="#000000">_names</text>
</a>
</g>
</g>
<!-- Node1&#45;&gt;Node6 -->
<g id="edge5" class="edge">
<title>Node1&#45;&gt;Node6</title>
<path fill="none" stroke="#191970" d="M620.045,-32.2548C562.7205,-28.1124 483.8606,-22.4139 431.0969,-18.6011"/>
<polygon fill="#191970" stroke="#191970" points="619.9011,-35.7534 630.1273,-32.9834 620.4056,-28.7717 619.9011,-35.7534"/>
</g>
<!-- Node3 -->
<g id="node3" class="node">
<title>Node3</title>
<g id="a_node3"><a xlink:href="a00200.html#a474660b01c925a4d47e918c02944ebf7" target="_top" xlink:title=" ">
<polygon fill="#ffffff" stroke="#000000" points="298.5361,-51.5 298.5361,-69.5 450.1514,-69.5 450.1514,-51.5 298.5361,-51.5"/>
<text text-anchor="middle" x="374.3438" y="-57.5" font-family="Helvetica,sans-Serif" font-size="10.00" fill="#000000">CO_Basalt\process_command</text>
</a>
</g>
</g>
<!-- Node2&#45;&gt;Node3 -->
<g id="edge2" class="edge">
<title>Node2&#45;&gt;Node3</title>
<path fill="none" stroke="#191970" d="M475.8529,-60.5C467.4425,-60.5 458.7644,-60.5 450.1886,-60.5"/>
<polygon fill="#191970" stroke="#191970" points="475.954,-64.0001 485.954,-60.5 475.954,-57.0001 475.954,-64.0001"/>
</g>
<!-- Node4 -->
<g id="node4" class="node">
<title>Node4</title>
<g id="a_node4"><a xlink:href="a00200.html#a528297edc9fb3e5e3c8f2e9270621853" target="_top" xlink:title=" ">
<polygon fill="#ffffff" stroke="#000000" points="154.8271,-47.5 154.8271,-75.5 262.5361,-75.5 262.5361,-47.5 154.8271,-47.5"/>
<text text-anchor="start" x="162.8271" y="-63.5" font-family="Helvetica,sans-Serif" font-size="10.00" fill="#000000">CO_Basalt\_process</text>
<text text-anchor="middle" x="208.6816" y="-53.5" font-family="Helvetica,sans-Serif" font-size="10.00" fill="#000000">_command</text>
</a>
</g>
</g>
<!-- Node3&#45;&gt;Node4 -->
<g id="edge3" class="edge">
<title>Node3&#45;&gt;Node4</title>
<path fill="none" stroke="#191970" d="M288.2306,-61.0198C279.6519,-61.0716 271.1202,-61.1231 263.0045,-61.1721"/>
<polygon fill="#191970" stroke="#191970" points="288.322,-64.5194 298.3007,-60.959 288.2797,-57.5196 288.322,-64.5194"/>
</g>
<!-- Node5 -->
<g id="node5" class="node">
<title>Node5</title>
<g id="a_node5"><a xlink:href="a00200.html#aad1b60cb5230efedfc34a931546d415b" target="_top" xlink:title=" ">
<polygon fill="#ffffff" stroke="#000000" points="0,-28.5 0,-46.5 118.8271,-46.5 118.8271,-28.5 0,-28.5"/>
<text text-anchor="middle" x="59.4136" y="-34.5" font-family="Helvetica,sans-Serif" font-size="10.00" fill="#000000">CO_Basalt\__construct</text>
</a>
</g>
</g>
<!-- Node4&#45;&gt;Node5 -->
<g id="edge4" class="edge">
<title>Node4&#45;&gt;Node5</title>
<path fill="none" stroke="#191970" d="M144.7633,-51.2229C135.0257,-49.6573 125.0395,-48.0516 115.4866,-46.5157"/>
<polygon fill="#191970" stroke="#191970" points="144.3636,-54.7035 154.7924,-52.8354 145.4749,-47.7923 144.3636,-54.7035"/>
</g>
<!-- Node7 -->
<g id="node7" class="node">
<title>Node7</title>
<g id="a_node7"><a xlink:href="a00200.html#a2ddbc8082e5db06272eb38f00b80fae5" target="_top" xlink:title=" ">
<polygon fill="#ffffff" stroke="#000000" points="154.8271,-.5 154.8271,-28.5 262.5361,-28.5 262.5361,-.5 154.8271,-.5"/>
<text text-anchor="start" x="162.8271" y="-16.5" font-family="Helvetica,sans-Serif" font-size="10.00" fill="#000000">CO_Basalt\_process</text>
<text text-anchor="middle" x="208.6816" y="-6.5" font-family="Helvetica,sans-Serif" font-size="10.00" fill="#000000">_basalt_parameters</text>
</a>
</g>
</g>
<!-- Node6&#45;&gt;Node7 -->
<g id="edge6" class="edge">
<title>Node6&#45;&gt;Node7</title>
<path fill="none" stroke="#191970" d="M307.2223,-14.5C292.4236,-14.5 276.9304,-14.5 262.7268,-14.5"/>
<polygon fill="#191970" stroke="#191970" points="307.3323,-18.0001 317.3322,-14.5 307.3322,-11.0001 307.3323,-18.0001"/>
</g>
<!-- Node7&#45;&gt;Node5 -->
<g id="edge7" class="edge">
<title>Node7&#45;&gt;Node5</title>
<path fill="none" stroke="#191970" d="M144.8518,-24.3352C135.9436,-25.7079 126.8256,-27.1128 118.02,-28.4696"/>
<polygon fill="#191970" stroke="#191970" points="145.4421,-27.7857 154.7924,-22.8035 144.376,-20.8673 145.4421,-27.7857"/>
</g>
</g>
</svg>
