<?xml version="1.0" encoding="UTF-8" standalone="no"?>
<!DOCTYPE svg PUBLIC "-//W3C//DTD SVG 1.1//EN"
 "http://www.w3.org/Graphics/SVG/1.1/DTD/svg11.dtd">
<!-- Generated by graphviz version 2.40.1 (20161225.0304)
 -->
<!-- Title: CO_Andisol\who_can_see Pages: 1 -->
<svg width="747pt" height="93pt"
 viewBox="0.00 0.00 747.30 93.00" xmlns="http://www.w3.org/2000/svg" xmlns:xlink="http://www.w3.org/1999/xlink">
<g id="graph0" class="graph" transform="scale(1 1) rotate(0) translate(4 89)">
<title>CO_Andisol\who_can_see</title>
<polygon fill="#ffffff" stroke="transparent" points="-4,4 -4,-89 743.2979,-89 743.2979,4 -4,4"/>
<!-- Node1 -->
<g id="node1" class="node">
<title>Node1</title>
<g id="a_node1"><a xlink:title=" ">
<polygon fill="#bfbfbf" stroke="#000000" points="0,-42.5 0,-60.5 133.8516,-60.5 133.8516,-42.5 0,-42.5"/>
<text text-anchor="middle" x="66.9258" y="-48.5" font-family="Helvetica,sans-Serif" font-size="10.00" fill="#000000">CO_Andisol\who_can_see</text>
</a>
</g>
</g>
<!-- Node2 -->
<g id="node2" class="node">
<title>Node2</title>
<g id="a_node2"><a xlink:href="a00219.html#a3605f036c8c634afaa74f67e5853a0ad" target="_top" xlink:title=" ">
<polygon fill="#ffffff" stroke="#000000" points="317.457,-56.5 317.457,-84.5 434.0723,-84.5 434.0723,-56.5 317.457,-56.5"/>
<text text-anchor="start" x="325.457" y="-72.5" font-family="Helvetica,sans-Serif" font-size="10.00" fill="#000000">CO_Andisol\get_cobra</text>
<text text-anchor="middle" x="375.7646" y="-62.5" font-family="Helvetica,sans-Serif" font-size="10.00" fill="#000000">_instance</text>
</a>
</g>
</g>
<!-- Node1&#45;&gt;Node2 -->
<g id="edge1" class="edge">
<title>Node1&#45;&gt;Node2</title>
<path fill="none" stroke="#191970" d="M133.9392,-55.6227C185.1653,-58.7742 255.526,-63.1028 307.1462,-66.2785"/>
<polygon fill="#191970" stroke="#191970" points="307.013,-69.7769 317.2091,-66.8976 307.4429,-62.7901 307.013,-69.7769"/>
</g>
<!-- Node3 -->
<g id="node3" class="node">
<title>Node3</title>
<g id="a_node3"><a xlink:href="a00219.html#af5f39aa13714ad544a9099edb0d51cd5" target="_top" xlink:title=" ">
<polygon fill="#ffffff" stroke="#000000" points="169.8516,-23.5 169.8516,-41.5 281.457,-41.5 281.457,-23.5 169.8516,-23.5"/>
<text text-anchor="middle" x="225.6543" y="-29.5" font-family="Helvetica,sans-Serif" font-size="10.00" fill="#000000">CO_Andisol\manager</text>
</a>
</g>
</g>
<!-- Node1&#45;&gt;Node3 -->
<g id="edge2" class="edge">
<title>Node1&#45;&gt;Node3</title>
<path fill="none" stroke="#191970" d="M134.241,-43.4423C142.6509,-42.4356 151.2456,-41.4068 159.6354,-40.4025"/>
<polygon fill="#191970" stroke="#191970" points="160.2283,-43.8566 169.7414,-39.1928 159.3963,-36.9063 160.2283,-43.8566"/>
</g>
<!-- Node3&#45;&gt;Node2 -->
<g id="edge3" class="edge">
<title>Node3&#45;&gt;Node2</title>
<path fill="none" stroke="#191970" d="M261.2284,-41.5055C275.9407,-45.2299 293.4824,-49.6705 310.3619,-53.9435"/>
<polygon fill="#191970" stroke="#191970" points="309.6442,-57.3721 320.1973,-56.4333 311.3621,-50.5862 309.6442,-57.3721"/>
</g>
<!-- Node4 -->
<g id="node4" class="node">
<title>Node4</title>
<g id="a_node4"><a xlink:href="a00219.html#ac2a2dcb99dc927789b0ffa09c24946de" target="_top" xlink:title=" ">
<polygon fill="#ffffff" stroke="#000000" points="318.0088,-19.5 318.0088,-37.5 433.5205,-37.5 433.5205,-19.5 318.0088,-19.5"/>
<text text-anchor="middle" x="375.7646" y="-25.5" font-family="Helvetica,sans-Serif" font-size="10.00" fill="#000000">CO_Andisol\logged_in</text>
</a>
</g>
</g>
<!-- Node3&#45;&gt;Node4 -->
<g id="edge4" class="edge">
<title>Node3&#45;&gt;Node4</title>
<path fill="none" stroke="#191970" d="M281.5499,-31.0105C290.0574,-30.7838 298.917,-30.5478 307.6501,-30.3151"/>
<polygon fill="#191970" stroke="#191970" points="307.9121,-33.8094 317.8153,-30.0442 307.7256,-26.8119 307.9121,-33.8094"/>
</g>
<!-- Node5 -->
<g id="node5" class="node">
<title>Node5</title>
<g id="a_node5"><a xlink:href="a00219.html#acda267f1d6a8e496e167ed46fe590dc6" target="_top" xlink:title=" ">
<polygon fill="#ffffff" stroke="#000000" points="598.7764,-14.5 598.7764,-42.5 739.2979,-42.5 739.2979,-14.5 598.7764,-14.5"/>
<text text-anchor="start" x="606.7764" y="-30.5" font-family="Helvetica,sans-Serif" font-size="10.00" fill="#000000">CO_Andisol\get_chameleon</text>
<text text-anchor="middle" x="669.0371" y="-20.5" font-family="Helvetica,sans-Serif" font-size="10.00" fill="#000000">_instance</text>
</a>
</g>
</g>
<!-- Node4&#45;&gt;Node5 -->
<g id="edge5" class="edge">
<title>Node4&#45;&gt;Node5</title>
<path fill="none" stroke="#191970" d="M433.7058,-28.5C477.8881,-28.5 539.2782,-28.5 588.2786,-28.5"/>
<polygon fill="#191970" stroke="#191970" points="588.536,-32.0001 598.536,-28.5 588.536,-25.0001 588.536,-32.0001"/>
</g>
<!-- Node6 -->
<g id="node6" class="node">
<title>Node6</title>
<g id="a_node6"><a xlink:href="a00219.html#a4b0ec12b29ce4812cbb4169b68770f66" target="_top" xlink:title=" ">
<polygon fill="#ffffff" stroke="#000000" points="470.0723,-.5 470.0723,-18.5 562.7764,-18.5 562.7764,-.5 470.0723,-.5"/>
<text text-anchor="middle" x="516.4243" y="-6.5" font-family="Helvetica,sans-Serif" font-size="10.00" fill="#000000">CO_Andisol\valid</text>
</a>
</g>
</g>
<!-- Node4&#45;&gt;Node6 -->
<g id="edge6" class="edge">
<title>Node4&#45;&gt;Node6</title>
<path fill="none" stroke="#191970" d="M433.7884,-20.6623C442.289,-19.514 451.0371,-18.3324 459.5151,-17.1872"/>
<polygon fill="#191970" stroke="#191970" points="460.246,-20.6203 469.6874,-15.8131 459.3089,-13.6833 460.246,-20.6203"/>
</g>
<!-- Node6&#45;&gt;Node5 -->
<g id="edge7" class="edge">
<title>Node6&#45;&gt;Node5</title>
<path fill="none" stroke="#191970" d="M563.0424,-15.3039C571.1069,-16.3079 579.6955,-17.3771 588.3596,-18.4558"/>
<polygon fill="#191970" stroke="#191970" points="588.1823,-21.9607 598.5381,-19.723 589.0472,-15.0143 588.1823,-21.9607"/>
</g>
</g>
</svg>
