<?xml version="1.0" encoding="UTF-8" standalone="no"?>
<!DOCTYPE svg PUBLIC "-//W3C//DTD SVG 1.1//EN"
 "http://www.w3.org/Graphics/SVG/1.1/DTD/svg11.dtd">
<!-- Generated by graphviz version 2.40.1 (20161225.0304)
 -->
<!-- Title: CO_Place\__construct Pages: 1 -->
<!--zoomable 112 -->
<svg id="main" version="1.1" xmlns="http://www.w3.org/2000/svg" xmlns:xlink="http://www.w3.org/1999/xlink" xml:space="preserve" onload="init(evt)">
<style type="text/css"><![CDATA[
.edge:hover path { stroke: red; }
.edge:hover polygon { stroke: red; fill: red; }
]]></style>
<script type="text/javascript"><![CDATA[
var edges = document.getElementsByTagName('g');
if (edges && edges.length) {
  for (var i=0;i<edges.length;i++) {
    if (edges[i].id.substr(0,4)=='edge') {
      edges[i].setAttribute('class','edge');
    }
  }
}
]]></script>
        <defs>
                <circle id="rim" cx="0" cy="0" r="7"/>
                <circle id="rim2" cx="0" cy="0" r="3.5"/>
                <g id="zoomPlus">
                        <use xlink:href="#rim" fill="#404040">
                                <set attributeName="fill" to="#808080" begin="zoomplus.mouseover" end="zoomplus.mouseout"/>
                        </use>
                        <path d="M-4,0h8M0,-4v8" fill="none" stroke="white" stroke-width="1.5" pointer-events="none"/>
                </g>
                <g id="zoomMin">
                        <use xlink:href="#rim" fill="#404040">
                                <set attributeName="fill" to="#808080" begin="zoomminus.mouseover" end="zoomminus.mouseout"/>
                        </use>
                        <path d="M-4,0h8" fill="none" stroke="white" stroke-width="1.5" pointer-events="none"/>
                </g>
                <g id="dirArrow">
                        <path fill="none" stroke="white" stroke-width="1.5" d="M0,-3.0v7 M-2.5,-0.5L0,-3.0L2.5,-0.5"/>
                </g>
               <g id="resetDef">
                       <use xlink:href="#rim2" fill="#404040">
                               <set attributeName="fill" to="#808080" begin="reset.mouseover" end="reset.mouseout"/>
                       </use>
               </g>
        </defs>

<script type="text/javascript">
var viewWidth = 629;
var viewHeight = 112;
var sectionId = 'dynsection-2';
</script>
<script xlink:href="svgpan.js"/>
<svg id="graph" class="graph">
<g id="viewport">
<title>CO_Place\__construct</title>
<polygon fill="#ffffff" stroke="transparent" points="-4,4 -4,-107.5402 625.1504,-107.5402 625.1504,4 -4,4"/>
<!-- Node0 -->
<g id="node1" class="node">
<title>Node0</title>
<polygon fill="#bfbfbf" stroke="#000000" points="0,-26.3955 0,-44.3955 116.0488,-44.3955 116.0488,-26.3955 0,-26.3955"/>
<text text-anchor="middle" x="58.0244" y="-32.3955" font-family="Helvetica,sans-Serif" font-size="10.00" fill="#000000">CO_Place\__construct</text>
</g>
<!-- Node1 -->
<g id="node2" class="node">
<title>Node1</title>
<g id="a_node2"><a xlink:href="a00263.html#a94507f0c219ba9bc342e40d6064941db" target="_top" xlink:title="CO_Place\\set_address\l_elements">
<polygon fill="#ffffff" stroke="#000000" points="161.2163,-42.3955 161.2163,-70.3955 280.0483,-70.3955 280.0483,-42.3955 161.2163,-42.3955"/>
<text text-anchor="start" x="169.2163" y="-58.3955" font-family="Helvetica,sans-Serif" font-size="10.00" fill="#000000">CO_Place\set_address</text>
<text text-anchor="middle" x="220.6323" y="-48.3955" font-family="Helvetica,sans-Serif" font-size="10.00" fill="#000000">_elements</text>
</a>
</g>
</g>
<!-- Node0&#45;&gt;Node1 -->
<g id="edge1" class="edge">
<title>Node0&#45;&gt;Node1</title>
<path fill="none" stroke="#191970" d="M116.2703,-42.9177C127.5477,-44.3741 139.4702,-45.9138 151.0673,-47.4115"/>
<polygon fill="#191970" stroke="#191970" points="150.7846,-50.904 161.1505,-48.7137 151.6812,-43.9616 150.7846,-50.904"/>
</g>
<!-- Node6 -->
<g id="node7" class="node">
<title>Node6</title>
<g id="a_node7"><a xlink:href="a00319.html#a7f4c18f2ed2bda67f3c38fd95c120c0a" target="_top" xlink:title="CO_Main_DB_Record\\tags">
<polygon fill="#ffffff" stroke="#000000" points="152.0488,-5.3955 152.0488,-23.3955 289.2158,-23.3955 289.2158,-5.3955 152.0488,-5.3955"/>
<text text-anchor="middle" x="220.6323" y="-11.3955" font-family="Helvetica,sans-Serif" font-size="10.00" fill="#000000">CO_Main_DB_Record\tags</text>
</a>
</g>
</g>
<!-- Node0&#45;&gt;Node6 -->
<g id="edge8" class="edge">
<title>Node0&#45;&gt;Node6</title>
<path fill="none" stroke="#191970" d="M116.2703,-27.8733C124.5888,-26.799 133.2583,-25.6794 141.8893,-24.5648"/>
<polygon fill="#191970" stroke="#191970" points="142.511,-28.0136 151.9803,-23.2616 141.6144,-21.0713 142.511,-28.0136"/>
</g>
<!-- Node2 -->
<g id="node3" class="node">
<title>Node2</title>
<g id="a_node3"><a xlink:href="a00263.html#a60b73dee76e98e806f4a872cca13ee58" target="_top" xlink:title="CO_Place\\_get_address\l_element_labels">
<polygon fill="#ffffff" stroke="#000000" points="488.1216,-42.3955 488.1216,-70.3955 613.0767,-70.3955 613.0767,-42.3955 488.1216,-42.3955"/>
<text text-anchor="start" x="496.1216" y="-58.3955" font-family="Helvetica,sans-Serif" font-size="10.00" fill="#000000">CO_Place\_get_address</text>
<text text-anchor="middle" x="550.5991" y="-48.3955" font-family="Helvetica,sans-Serif" font-size="10.00" fill="#000000">_element_labels</text>
</a>
</g>
</g>
<!-- Node1&#45;&gt;Node2 -->
<g id="edge2" class="edge">
<title>Node1&#45;&gt;Node2</title>
<path fill="none" stroke="#191970" d="M249.1072,-70.5463C269.6841,-79.9527 298.4531,-91.4522 325.2158,-96.3955 377.1515,-105.9886 392.0828,-105.8281 444.0479,-96.3955 467.4382,-92.1497 492.3772,-83.0598 512.243,-74.6168"/>
<polygon fill="#191970" stroke="#191970" points="513.7956,-77.758 521.5587,-70.548 510.9938,-71.3432 513.7956,-77.758"/>
</g>
<!-- Node3 -->
<g id="node4" class="node">
<title>Node3</title>
<g id="a_node4"><a xlink:href="a00122.html#a732056c1b6e305a30aead472a1695e0c" target="_top" xlink:title="test_is_assoc">
<polygon fill="#ffffff" stroke="#000000" points="346.3389,-68.3955 346.3389,-86.3955 422.9248,-86.3955 422.9248,-68.3955 346.3389,-68.3955"/>
<text text-anchor="middle" x="384.6318" y="-74.3955" font-family="Helvetica,sans-Serif" font-size="10.00" fill="#000000">test_is_assoc</text>
</a>
</g>
</g>
<!-- Node1&#45;&gt;Node3 -->
<g id="edge3" class="edge">
<title>Node1&#45;&gt;Node3</title>
<path fill="none" stroke="#191970" d="M280.3038,-64.0364C298.6781,-66.3892 318.6714,-68.9493 336.1938,-71.193"/>
<polygon fill="#191970" stroke="#191970" points="335.8306,-74.675 346.1942,-72.4736 336.7197,-67.7317 335.8306,-74.675"/>
</g>
<!-- Node4 -->
<g id="node5" class="node">
<title>Node4</title>
<g id="a_node5"><a xlink:href="a00263.html#a7b99eb196e710f9cf14ad39601e2b3ad" target="_top" xlink:title="CO_Place\\set_address\l_element">
<polygon fill="#ffffff" stroke="#000000" points="325.2158,-21.3955 325.2158,-49.3955 444.0479,-49.3955 444.0479,-21.3955 325.2158,-21.3955"/>
<text text-anchor="start" x="333.2158" y="-37.3955" font-family="Helvetica,sans-Serif" font-size="10.00" fill="#000000">CO_Place\set_address</text>
<text text-anchor="middle" x="384.6318" y="-27.3955" font-family="Helvetica,sans-Serif" font-size="10.00" fill="#000000">_element</text>
</a>
</g>
</g>
<!-- Node1&#45;&gt;Node4 -->
<g id="edge4" class="edge">
<title>Node1&#45;&gt;Node4</title>
<path fill="none" stroke="#191970" d="M280.3038,-48.7546C291.5666,-47.3124 303.4378,-45.7923 314.9753,-44.315"/>
<polygon fill="#191970" stroke="#191970" points="315.5303,-47.7726 325.0048,-43.0307 314.6412,-40.8293 315.5303,-47.7726"/>
</g>
<!-- Node5 -->
<g id="node6" class="node">
<title>Node5</title>
<g id="a_node6"><a xlink:href="a00335.html#aaa41a4de441030a1bc25875991cf00d0" target="_top" xlink:title="CO_LL_Location\\update_db">
<polygon fill="#ffffff" stroke="#000000" points="480.0479,-5.3955 480.0479,-23.3955 621.1504,-23.3955 621.1504,-5.3955 480.0479,-5.3955"/>
<text text-anchor="middle" x="550.5991" y="-11.3955" font-family="Helvetica,sans-Serif" font-size="10.00" fill="#000000">CO_LL_Location\update_db</text>
</a>
</g>
</g>
<!-- Node1&#45;&gt;Node5 -->
<g id="edge7" class="edge">
<title>Node1&#45;&gt;Node5</title>
<path fill="none" stroke="#191970" d="M264.6679,-42.3912C272.937,-39.3679 281.427,-35.9898 289.2158,-32.3955 306.0347,-24.6342 307.3345,-16.2297 325.2158,-11.3955 377.7205,2.7991 439.6484,.6963 485.2908,-4.1916"/>
<polygon fill="#191970" stroke="#191970" points="485.0231,-7.6837 495.356,-5.3426 485.8184,-.729 485.0231,-7.6837"/>
</g>
<!-- Node4&#45;&gt;Node2 -->
<g id="edge5" class="edge">
<title>Node4&#45;&gt;Node2</title>
<path fill="none" stroke="#191970" d="M444.0811,-42.9177C454.9766,-44.2963 466.4623,-45.7496 477.6977,-47.1712"/>
<polygon fill="#191970" stroke="#191970" points="477.5612,-50.6818 487.9215,-48.4648 478.4399,-43.7371 477.5612,-50.6818"/>
</g>
<!-- Node4&#45;&gt;Node5 -->
<g id="edge6" class="edge">
<title>Node4&#45;&gt;Node5</title>
<path fill="none" stroke="#191970" d="M444.0811,-27.8733C452.4377,-26.816 461.1414,-25.7147 469.8131,-24.6174"/>
<polygon fill="#191970" stroke="#191970" points="470.474,-28.0618 479.9555,-23.3341 469.5952,-21.1172 470.474,-28.0618"/>
</g>
</g>
</svg>
        <g id="navigator" transform="translate(0 0)" fill="#404254">
                <rect fill="#f2f5e9" fill-opacity="0.5" stroke="#606060" stroke-width=".5" x="0" y="0" width="60" height="60"/>
                <use id="zoomplus" xlink:href="#zoomPlus" x="17" y="9" onmousedown="handleZoom(evt,'in')"/>
                <use id="zoomminus" xlink:href="#zoomMin" x="42" y="9" onmousedown="handleZoom(evt,'out')"/>
                <use id="reset" xlink:href="#resetDef" x="30" y="36" onmousedown="handleReset()"/>
                <g id="arrowUp" xlink:href="#dirArrow" transform="translate(30 24)" onmousedown="handlePan(0,-1)">
                  <use xlink:href="#rim" fill="#404040">
                        <set attributeName="fill" to="#808080" begin="arrowUp.mouseover" end="arrowUp.mouseout"/>
                  </use>
                  <path fill="none" stroke="white" stroke-width="1.5" d="M0,-3.0v7 M-2.5,-0.5L0,-3.0L2.5,-0.5"/>
                </g>
                <g id="arrowRight" xlink:href="#dirArrow" transform="rotate(90) translate(36 -43)" onmousedown="handlePan(1,0)">
                  <use xlink:href="#rim" fill="#404040">
                        <set attributeName="fill" to="#808080" begin="arrowRight.mouseover" end="arrowRight.mouseout"/>
                  </use>
                  <path fill="none" stroke="white" stroke-width="1.5" d="M0,-3.0v7 M-2.5,-0.5L0,-3.0L2.5,-0.5"/>
                </g>
                <g id="arrowDown" xlink:href="#dirArrow" transform="rotate(180) translate(-30 -48)" onmousedown="handlePan(0,1)">
                  <use xlink:href="#rim" fill="#404040">
                        <set attributeName="fill" to="#808080" begin="arrowDown.mouseover" end="arrowDown.mouseout"/>
                  </use>
                  <path fill="none" stroke="white" stroke-width="1.5" d="M0,-3.0v7 M-2.5,-0.5L0,-3.0L2.5,-0.5"/>
                </g>
                <g id="arrowLeft" xlink:href="#dirArrow" transform="rotate(270) translate(-36 17)" onmousedown="handlePan(-1,0)">
                  <use xlink:href="#rim" fill="#404040">
                        <set attributeName="fill" to="#808080" begin="arrowLeft.mouseover" end="arrowLeft.mouseout"/>
                  </use>
                  <path fill="none" stroke="white" stroke-width="1.5" d="M0,-3.0v7 M-2.5,-0.5L0,-3.0L2.5,-0.5"/>
                </g>
        </g>
        <svg viewBox="0 0 15 15" width="100%" height="30px" preserveAspectRatio="xMaxYMin meet">
         <g id="arrow_out" transform="scale(0.3 0.3)">
          <a xlink:href="a00263_a0828fcac351a2f23404059be980e7b41_cgraph_org.svg" target="_base">
           <rect id="button" ry="5" rx="5" y="6" x="6" height="38" width="38"
                fill="#f2f5e9" fill-opacity="0.5" stroke="#606060" stroke-width="1.0"/>
           <path id="arrow"
             d="M 11.500037,31.436501 C 11.940474,20.09759 22.043105,11.32322 32.158766,21.979434 L 37.068811,17.246167 C 37.068811,17.246167 37.088388,32 37.088388,32 L 22.160133,31.978069 C 22.160133,31.978069 26.997745,27.140456 26.997745,27.140456 C 18.528582,18.264221 13.291696,25.230495 11.500037,31.436501 z"
             style="fill:#404040;"/>
          </a>
         </g>
        </svg>
</svg>
