<?xml version="1.0" encoding="UTF-8" standalone="no"?>
<!DOCTYPE svg PUBLIC "-//W3C//DTD SVG 1.1//EN"
 "http://www.w3.org/Graphics/SVG/1.1/DTD/svg11.dtd">
<!-- Generated by graphviz version 2.40.1 (20161225.0304)
 -->
<!-- Title: CO_Andisol\delete_user Pages: 1 -->
<svg width="738pt" height="79pt"
 viewBox="0.00 0.00 737.84 79.00" xmlns="http://www.w3.org/2000/svg" xmlns:xlink="http://www.w3.org/1999/xlink">
<g id="graph0" class="graph" transform="scale(1 1) rotate(0) translate(4 75)">
<title>CO_Andisol\delete_user</title>
<polygon fill="#ffffff" stroke="transparent" points="-4,4 -4,-75 733.8447,-75 733.8447,4 -4,4"/>
<!-- Node115 -->
<g id="node1" class="node">
<title>Node115</title>
<polygon fill="#bfbfbf" stroke="#000000" points="0,-28.5 0,-46.5 124.3984,-46.5 124.3984,-28.5 0,-28.5"/>
<text text-anchor="middle" x="62.1992" y="-34.5" font-family="Helvetica,sans-Serif" font-size="10.00" fill="#000000">CO_Andisol\delete_user</text>
</g>
<!-- Node116 -->
<g id="node2" class="node">
<title>Node116</title>
<g id="a_node2"><a xlink:href="a00219.html#a3605f036c8c634afaa74f67e5853a0ad" target="_top" xlink:title="CO_Andisol\\get_cobra\l_instance">
<polygon fill="#ffffff" stroke="#000000" points="308.0039,-42.5 308.0039,-70.5 424.6191,-70.5 424.6191,-42.5 308.0039,-42.5"/>
<text text-anchor="start" x="316.0039" y="-58.5" font-family="Helvetica,sans-Serif" font-size="10.00" fill="#000000">CO_Andisol\get_cobra</text>
<text text-anchor="middle" x="366.3115" y="-48.5" font-family="Helvetica,sans-Serif" font-size="10.00" fill="#000000">_instance</text>
</a>
</g>
</g>
<!-- Node115&#45;&gt;Node116 -->
<g id="edge1" class="edge">
<title>Node115&#45;&gt;Node116</title>
<path fill="none" stroke="#191970" d="M124.4747,-41.3908C174.8962,-44.541 245.8376,-48.9732 297.8477,-52.2226"/>
<polygon fill="#191970" stroke="#191970" points="297.7868,-55.7255 307.9856,-52.856 298.2233,-48.7391 297.7868,-55.7255"/>
</g>
<!-- Node117 -->
<g id="node3" class="node">
<title>Node117</title>
<g id="a_node3"><a xlink:href="a00219.html#af5f39aa13714ad544a9099edb0d51cd5" target="_top" xlink:title="CO_Andisol\\manager">
<polygon fill="#ffffff" stroke="#000000" points="160.3984,-9.5 160.3984,-27.5 272.0039,-27.5 272.0039,-9.5 160.3984,-9.5"/>
<text text-anchor="middle" x="216.2012" y="-15.5" font-family="Helvetica,sans-Serif" font-size="10.00" fill="#000000">CO_Andisol\manager</text>
</a>
</g>
</g>
<!-- Node115&#45;&gt;Node117 -->
<g id="edge2" class="edge">
<title>Node115&#45;&gt;Node117</title>
<path fill="none" stroke="#191970" d="M124.8377,-29.772C133.1261,-28.7494 141.6446,-27.6984 149.9906,-26.6687"/>
<polygon fill="#191970" stroke="#191970" points="150.5621,-30.1248 160.0583,-25.4266 149.7049,-23.1775 150.5621,-30.1248"/>
</g>
<!-- Node117&#45;&gt;Node116 -->
<g id="edge7" class="edge">
<title>Node117&#45;&gt;Node116</title>
<path fill="none" stroke="#191970" d="M251.7752,-27.5055C266.4876,-31.2299 284.0293,-35.6705 300.9088,-39.9435"/>
<polygon fill="#191970" stroke="#191970" points="300.1911,-43.3721 310.7442,-42.4333 301.909,-36.5862 300.1911,-43.3721"/>
</g>
<!-- Node118 -->
<g id="node4" class="node">
<title>Node118</title>
<g id="a_node4"><a xlink:href="a00219.html#ac2a2dcb99dc927789b0ffa09c24946de" target="_top" xlink:title="CO_Andisol\\logged_in">
<polygon fill="#ffffff" stroke="#000000" points="308.5557,-5.5 308.5557,-23.5 424.0674,-23.5 424.0674,-5.5 308.5557,-5.5"/>
<text text-anchor="middle" x="366.3115" y="-11.5" font-family="Helvetica,sans-Serif" font-size="10.00" fill="#000000">CO_Andisol\logged_in</text>
</a>
</g>
</g>
<!-- Node117&#45;&gt;Node118 -->
<g id="edge3" class="edge">
<title>Node117&#45;&gt;Node118</title>
<path fill="none" stroke="#191970" d="M272.0967,-17.0105C280.6043,-16.7838 289.4638,-16.5478 298.197,-16.3151"/>
<polygon fill="#191970" stroke="#191970" points="298.459,-19.8094 308.3622,-16.0442 298.2725,-12.8119 298.459,-19.8094"/>
</g>
<!-- Node119 -->
<g id="node5" class="node">
<title>Node119</title>
<g id="a_node5"><a xlink:href="a00219.html#a4b0ec12b29ce4812cbb4169b68770f66" target="_top" xlink:title="CO_Andisol\\valid">
<polygon fill="#ffffff" stroke="#000000" points="460.6191,-24.5 460.6191,-42.5 553.3232,-42.5 553.3232,-24.5 460.6191,-24.5"/>
<text text-anchor="middle" x="506.9712" y="-30.5" font-family="Helvetica,sans-Serif" font-size="10.00" fill="#000000">CO_Andisol\valid</text>
</a>
</g>
</g>
<!-- Node118&#45;&gt;Node119 -->
<g id="edge4" class="edge">
<title>Node118&#45;&gt;Node119</title>
<path fill="none" stroke="#191970" d="M424.3353,-22.3377C432.8359,-23.486 441.584,-24.6676 450.0619,-25.8128"/>
<polygon fill="#191970" stroke="#191970" points="449.8558,-29.3167 460.2343,-27.1869 450.7929,-22.3797 449.8558,-29.3167"/>
</g>
<!-- Node120 -->
<g id="node6" class="node">
<title>Node120</title>
<g id="a_node6"><a xlink:href="a00219.html#acda267f1d6a8e496e167ed46fe590dc6" target="_top" xlink:title="CO_Andisol\\get_chameleon\l_instance">
<polygon fill="#ffffff" stroke="#000000" points="589.3232,-.5 589.3232,-28.5 729.8447,-28.5 729.8447,-.5 589.3232,-.5"/>
<text text-anchor="start" x="597.3232" y="-16.5" font-family="Helvetica,sans-Serif" font-size="10.00" fill="#000000">CO_Andisol\get_chameleon</text>
<text text-anchor="middle" x="659.584" y="-6.5" font-family="Helvetica,sans-Serif" font-size="10.00" fill="#000000">_instance</text>
</a>
</g>
</g>
<!-- Node118&#45;&gt;Node120 -->
<g id="edge6" class="edge">
<title>Node118&#45;&gt;Node120</title>
<path fill="none" stroke="#191970" d="M424.2527,-14.5C468.4349,-14.5 529.8251,-14.5 578.8254,-14.5"/>
<polygon fill="#191970" stroke="#191970" points="579.0829,-18.0001 589.0829,-14.5 579.0828,-11.0001 579.0829,-18.0001"/>
</g>
<!-- Node119&#45;&gt;Node120 -->
<g id="edge5" class="edge">
<title>Node119&#45;&gt;Node120</title>
<path fill="none" stroke="#191970" d="M553.5893,-27.6961C561.6538,-26.6921 570.2424,-25.6229 578.9064,-24.5442"/>
<polygon fill="#191970" stroke="#191970" points="579.594,-27.9857 589.085,-23.277 578.7292,-21.0393 579.594,-27.9857"/>
</g>
</g>
</svg>
