<?xml version="1.0" encoding="UTF-8" standalone="no"?>
<!DOCTYPE svg PUBLIC "-//W3C//DTD SVG 1.1//EN"
 "http://www.w3.org/Graphics/SVG/1.1/DTD/svg11.dtd">
<!-- Generated by graphviz version 2.47.1 (20210417.1919)
 -->
<!-- Title: CO_Andisol\valid Pages: 1 -->
<!--zoomable 565 -->
<svg id="main" version="1.1" xmlns="http://www.w3.org/2000/svg" xmlns:xlink="http://www.w3.org/1999/xlink" xml:space="preserve" onload="init(evt)">
<style type="text/css"><![CDATA[
.edge:hover path { stroke: red; }
.edge:hover polygon { stroke: red; fill: red; }
]]></style>
<script type="text/javascript"><![CDATA[
var edges = document.getElementsByTagName('g');
if (edges && edges.length) {
  for (var i=0;i<edges.length;i++) {
    if (edges[i].id.substr(0,4)=='edge') {
      edges[i].setAttribute('class','edge');
    }
  }
}
]]></script>
        <defs>
                <circle id="rim" cx="0" cy="0" r="7"/>
                <circle id="rim2" cx="0" cy="0" r="3.5"/>
                <g id="zoomPlus">
                        <use xlink:href="#rim" fill="#404040">
                                <set attributeName="fill" to="#808080" begin="zoomplus.mouseover" end="zoomplus.mouseout"/>
                        </use>
                        <path d="M-4,0h8M0,-4v8" fill="none" stroke="white" stroke-width="1.5" pointer-events="none"/>
                </g>
                <g id="zoomMin">
                        <use xlink:href="#rim" fill="#404040">
                                <set attributeName="fill" to="#808080" begin="zoomminus.mouseover" end="zoomminus.mouseout"/>
                        </use>
                        <path d="M-4,0h8" fill="none" stroke="white" stroke-width="1.5" pointer-events="none"/>
                </g>
                <g id="dirArrow">
                        <path fill="none" stroke="white" stroke-width="1.5" d="M0,-3.0v7 M-2.5,-0.5L0,-3.0L2.5,-0.5"/>
                </g>
               <g id="resetDef">
                       <use xlink:href="#rim2" fill="#404040">
                               <set attributeName="fill" to="#808080" begin="reset.mouseover" end="reset.mouseout"/>
                       </use>
               </g>
        </defs>

<script type="text/javascript">
var viewWidth = 979;
var viewHeight = 565;
var sectionId = 'dynsection-80';
</script>
<script xlink:href="svgpan.js"/>
<svg id="graph" class="graph">
<g id="viewport">
<title>CO_Andisol\valid</title>
<polygon fill="white" stroke="transparent" points="-4,4 -4,-561 975,-561 975,4 -4,4"/>
<!-- Node1 -->
<g id="node1" class="node">
<title>Node1</title>
<g id="a_node1"><a xlink:title=" ">
<polygon fill="#bfbfbf" stroke="black" points="879,-422.5 879,-441.5 971,-441.5 971,-422.5 879,-422.5"/>
<text text-anchor="middle" x="925" y="-429.5" font-family="Helvetica,sans-Serif" font-size="10.00">CO_Andisol\valid</text>
</a>
</g>
</g>
<!-- Node2 -->
<g id="node2" class="node">
<title>Node2</title>
<g id="a_node2"><a xlink:href="a00216.html#a5b604eff1331261b2de82f887f2aeb46" target="_top" xlink:title=" ">
<polygon fill="white" stroke="black" points="726,-466 726,-496 843,-496 843,-466 726,-466"/>
<text text-anchor="start" x="734" y="-484" font-family="Helvetica,sans-Serif" font-size="10.00">CO_Andisol\get_object</text>
<text text-anchor="middle" x="784.5" y="-473" font-family="Helvetica,sans-Serif" font-size="10.00">_for_key</text>
</a>
</g>
</g>
<!-- Node1&#45;&gt;Node2 -->
<g id="edge1" class="edge">
<title>Node1&#45;&gt;Node2</title>
<path fill="none" stroke="midnightblue" d="M887.29,-444.99C869.07,-451.43 846.96,-459.26 828,-465.96"/>
<polygon fill="midnightblue" stroke="midnightblue" points="888.71,-448.2 896.97,-441.56 886.37,-441.6 888.71,-448.2"/>
</g>
<!-- Node3 -->
<g id="node3" class="node">
<title>Node3</title>
<g id="a_node3"><a xlink:href="a00216.html#ae74e9ff0b94457bbfb80eb93b2f5ade5" target="_top" xlink:title=" ">
<polygon fill="white" stroke="black" points="727.5,-417 727.5,-447 841.5,-447 841.5,-417 727.5,-417"/>
<text text-anchor="start" x="735.5" y="-435" font-family="Helvetica,sans-Serif" font-size="10.00">CO_Andisol\get_value</text>
<text text-anchor="middle" x="784.5" y="-424" font-family="Helvetica,sans-Serif" font-size="10.00">_for_key</text>
</a>
</g>
</g>
<!-- Node1&#45;&gt;Node3 -->
<g id="edge2" class="edge">
<title>Node1&#45;&gt;Node3</title>
<path fill="none" stroke="midnightblue" d="M868.45,-432C859.61,-432 850.46,-432 841.6,-432"/>
<polygon fill="midnightblue" stroke="midnightblue" points="868.65,-435.5 878.65,-432 868.65,-428.5 868.65,-435.5"/>
</g>
<!-- Node4 -->
<g id="node4" class="node">
<title>Node4</title>
<g id="a_node4"><a xlink:href="a00216.html#ac2a2dcb99dc927789b0ffa09c24946de" target="_top" xlink:title=" ">
<polygon fill="white" stroke="black" points="728,-378.5 728,-397.5 841,-397.5 841,-378.5 728,-378.5"/>
<text text-anchor="middle" x="784.5" y="-385.5" font-family="Helvetica,sans-Serif" font-size="10.00">CO_Andisol\logged_in</text>
</a>
</g>
</g>
<!-- Node1&#45;&gt;Node4 -->
<g id="edge3" class="edge">
<title>Node1&#45;&gt;Node4</title>
<path fill="none" stroke="midnightblue" d="M884.27,-419.38C862.37,-412.42 835.63,-403.92 815.49,-397.53"/>
<polygon fill="midnightblue" stroke="midnightblue" points="883.36,-422.76 893.95,-422.45 885.48,-416.09 883.36,-422.76"/>
</g>
<!-- Node5 -->
<g id="node5" class="node">
<title>Node5</title>
<g id="a_node5"><a xlink:href="a00216.html#a190232857416d5f1e7033452ac1bf6c0" target="_top" xlink:title=" ">
<polygon fill="white" stroke="black" points="570.5,-488 570.5,-518 674.5,-518 674.5,-488 570.5,-488"/>
<text text-anchor="start" x="578.5" y="-506" font-family="Helvetica,sans-Serif" font-size="10.00">CO_Andisol\_create</text>
<text text-anchor="middle" x="622.5" y="-495" font-family="Helvetica,sans-Serif" font-size="10.00">_db_object</text>
</a>
</g>
</g>
<!-- Node4&#45;&gt;Node5 -->
<g id="edge4" class="edge">
<title>Node4&#45;&gt;Node5</title>
<path fill="none" stroke="midnightblue" d="M734.04,-402.2C731.18,-403.92 728.47,-405.84 726,-408 699.36,-431.28 716.51,-455.57 690,-479 685.49,-482.98 680.28,-486.32 674.79,-489.11"/>
<polygon fill="midnightblue" stroke="midnightblue" points="735.68,-405.29 742.99,-397.62 732.49,-399.06 735.68,-405.29"/>
</g>
<!-- Node13 -->
<g id="node13" class="node">
<title>Node13</title>
<g id="a_node13"><a xlink:href="a00216.html#a3211db47dc4bd5f77983aedc341c0805" target="_top" xlink:title=" ">
<polygon fill="white" stroke="black" points="561.5,-439 561.5,-469 683.5,-469 683.5,-439 561.5,-439"/>
<text text-anchor="start" x="569.5" y="-457" font-family="Helvetica,sans-Serif" font-size="10.00">CO_Andisol\delete_item</text>
<text text-anchor="middle" x="622.5" y="-446" font-family="Helvetica,sans-Serif" font-size="10.00">_by_id</text>
</a>
</g>
</g>
<!-- Node4&#45;&gt;Node13 -->
<g id="edge12" class="edge">
<title>Node4&#45;&gt;Node13</title>
<path fill="none" stroke="midnightblue" d="M743.01,-400.97C737.23,-403.14 731.41,-405.51 726,-408 709.17,-415.75 706.73,-421.05 690,-429 682.65,-432.5 674.67,-435.85 666.87,-438.9"/>
<polygon fill="midnightblue" stroke="midnightblue" points="744.4,-404.19 752.63,-397.51 742.03,-397.6 744.4,-404.19"/>
</g>
<!-- Node14 -->
<g id="node14" class="node">
<title>Node14</title>
<g id="a_node14"><a xlink:href="a00216.html#a24cb5350928f501bb7567b6b9d7b20cd" target="_top" xlink:title=" ">
<polygon fill="white" stroke="black" points="555,-400.5 555,-419.5 690,-419.5 690,-400.5 555,-400.5"/>
<text text-anchor="middle" x="622.5" y="-407.5" font-family="Helvetica,sans-Serif" font-size="10.00">CO_Andisol\get_login_item</text>
</a>
</g>
</g>
<!-- Node4&#45;&gt;Node14 -->
<g id="edge13" class="edge">
<title>Node4&#45;&gt;Node14</title>
<path fill="none" stroke="midnightblue" d="M717.83,-397.03C708.72,-398.28 699.34,-399.57 690.21,-400.83"/>
<polygon fill="midnightblue" stroke="midnightblue" points="718.56,-400.46 727.99,-395.63 717.61,-393.53 718.56,-400.46"/>
</g>
<!-- Node16 -->
<g id="node16" class="node">
<title>Node16</title>
<g id="a_node16"><a xlink:href="a00216.html#a05d1a595153707e3c6f232ba9f766124" target="_top" xlink:title=" ">
<polygon fill="white" stroke="black" points="567,-351 567,-381 678,-381 678,-351 567,-351"/>
<text text-anchor="start" x="575" y="-369" font-family="Helvetica,sans-Serif" font-size="10.00">CO_Andisol\get_login</text>
<text text-anchor="middle" x="622.5" y="-358" font-family="Helvetica,sans-Serif" font-size="10.00">_item_by_login_string</text>
</a>
</g>
</g>
<!-- Node4&#45;&gt;Node16 -->
<g id="edge15" class="edge">
<title>Node4&#45;&gt;Node16</title>
<path fill="none" stroke="midnightblue" d="M717.99,-378.99C704.73,-377.17 690.93,-375.27 678.1,-373.51"/>
<polygon fill="midnightblue" stroke="midnightblue" points="717.61,-382.47 727.99,-380.37 718.56,-375.54 717.61,-382.47"/>
</g>
<!-- Node18 -->
<g id="node18" class="node">
<title>Node18</title>
<g id="a_node18"><a xlink:href="a00216.html#af5f39aa13714ad544a9099edb0d51cd5" target="_top" xlink:title=" ">
<polygon fill="white" stroke="black" points="567.5,-214.5 567.5,-233.5 677.5,-233.5 677.5,-214.5 567.5,-214.5"/>
<text text-anchor="middle" x="622.5" y="-221.5" font-family="Helvetica,sans-Serif" font-size="10.00">CO_Andisol\manager</text>
</a>
</g>
</g>
<!-- Node4&#45;&gt;Node18 -->
<g id="edge17" class="edge">
<title>Node4&#45;&gt;Node18</title>
<path fill="none" stroke="midnightblue" d="M766.74,-370.82C733.22,-336.46 658.88,-260.27 632.78,-233.51"/>
<polygon fill="midnightblue" stroke="midnightblue" points="764.48,-373.52 773.97,-378.23 769.49,-368.63 764.48,-373.52"/>
</g>
<!-- Node32 -->
<g id="node32" class="node">
<title>Node32</title>
<g id="a_node32"><a xlink:href="a00216.html#a9e01279d8bb11cb25f5477bb75123cba" target="_top" xlink:title=" ">
<polygon fill="white" stroke="black" points="565.5,-80 565.5,-110 679.5,-110 679.5,-80 565.5,-80"/>
<text text-anchor="start" x="573.5" y="-98" font-family="Helvetica,sans-Serif" font-size="10.00">CO_Andisol\set_value</text>
<text text-anchor="middle" x="622.5" y="-87" font-family="Helvetica,sans-Serif" font-size="10.00">_for_key</text>
</a>
</g>
</g>
<!-- Node4&#45;&gt;Node32 -->
<g id="edge32" class="edge">
<title>Node4&#45;&gt;Node32</title>
<path fill="none" stroke="midnightblue" d="M774.48,-369.28C758.29,-335.89 722.87,-264.04 690,-205 670.78,-170.49 646.35,-131.12 633.1,-110.1"/>
<polygon fill="midnightblue" stroke="midnightblue" points="771.37,-370.87 778.87,-378.35 777.67,-367.82 771.37,-370.87"/>
</g>
<!-- Node6 -->
<g id="node6" class="node">
<title>Node6</title>
<g id="a_node6"><a xlink:href="a00216.html#a1783b1403b768959f80f17b08a5e8f82" target="_top" xlink:title=" ">
<polygon fill="white" stroke="black" points="364.5,-488 364.5,-518 500.5,-518 500.5,-488 364.5,-488"/>
<text text-anchor="start" x="372.5" y="-506" font-family="Helvetica,sans-Serif" font-size="10.00">CO_Andisol\create_general</text>
<text text-anchor="middle" x="432.5" y="-495" font-family="Helvetica,sans-Serif" font-size="10.00">_data_item</text>
</a>
</g>
</g>
<!-- Node5&#45;&gt;Node6 -->
<g id="edge5" class="edge">
<title>Node5&#45;&gt;Node6</title>
<path fill="none" stroke="midnightblue" d="M560.1,-503C541.1,-503 520.07,-503 500.69,-503"/>
<polygon fill="midnightblue" stroke="midnightblue" points="560.13,-506.5 570.13,-503 560.13,-499.5 560.13,-506.5"/>
</g>
<!-- Node7 -->
<g id="node7" class="node">
<title>Node7</title>
<g id="a_node7"><a xlink:href="a00216.html#a1432efeebcc0952a1236feec7bbceb13" target="_top" xlink:title=" ">
<polygon fill="white" stroke="black" points="164,-537.5 164,-556.5 310,-556.5 310,-537.5 164,-537.5"/>
<text text-anchor="middle" x="237" y="-544.5" font-family="Helvetica,sans-Serif" font-size="10.00">CO_Andisol\create_collection</text>
</a>
</g>
</g>
<!-- Node6&#45;&gt;Node7 -->
<g id="edge6" class="edge">
<title>Node6&#45;&gt;Node7</title>
<path fill="none" stroke="midnightblue" d="M355.68,-520.24C329.87,-526.11 301.98,-532.45 279.83,-537.49"/>
<polygon fill="midnightblue" stroke="midnightblue" points="356.47,-523.65 365.45,-518.02 354.92,-516.82 356.47,-523.65"/>
</g>
<!-- Node8 -->
<g id="node8" class="node">
<title>Node8</title>
<g id="a_node8"><a xlink:href="a00216.html#a24b15c45e28b5a0fb4971c11b4e5ed99" target="_top" xlink:title=" ">
<polygon fill="white" stroke="black" points="182.5,-488 182.5,-518 291.5,-518 291.5,-488 182.5,-488"/>
<text text-anchor="start" x="190.5" y="-506" font-family="Helvetica,sans-Serif" font-size="10.00">CO_Andisol\create_ll</text>
<text text-anchor="middle" x="237" y="-495" font-family="Helvetica,sans-Serif" font-size="10.00">_location</text>
</a>
</g>
</g>
<!-- Node6&#45;&gt;Node8 -->
<g id="edge7" class="edge">
<title>Node6&#45;&gt;Node8</title>
<path fill="none" stroke="midnightblue" d="M354.19,-503C333.21,-503 310.96,-503 291.61,-503"/>
<polygon fill="midnightblue" stroke="midnightblue" points="354.37,-506.5 364.37,-503 354.37,-499.5 354.37,-506.5"/>
</g>
<!-- Node9 -->
<g id="node9" class="node">
<title>Node9</title>
<g id="a_node9"><a xlink:href="a00216.html#a79103b0d231d1dcc1f7c1921e5118621" target="_top" xlink:title=" ">
<polygon fill="white" stroke="black" points="173,-449.5 173,-468.5 301,-468.5 301,-449.5 173,-449.5"/>
<text text-anchor="middle" x="237" y="-456.5" font-family="Helvetica,sans-Serif" font-size="10.00">CO_Andisol\create_place</text>
</a>
</g>
</g>
<!-- Node6&#45;&gt;Node9 -->
<g id="edge8" class="edge">
<title>Node6&#45;&gt;Node9</title>
<path fill="none" stroke="midnightblue" d="M355.68,-485.76C329.87,-479.89 301.98,-473.55 279.83,-468.51"/>
<polygon fill="midnightblue" stroke="midnightblue" points="354.92,-489.18 365.45,-487.98 356.47,-482.35 354.92,-489.18"/>
</g>
<!-- Node10 -->
<g id="node10" class="node">
<title>Node10</title>
<g id="a_node10"><a xlink:href="a00216.html#a58956fb178766e8d0074dcb138d1e650" target="_top" xlink:title=" ">
<polygon fill="white" stroke="black" points="9.5,-493 9.5,-523 118.5,-523 118.5,-493 9.5,-493"/>
<text text-anchor="start" x="17.5" y="-511" font-family="Helvetica,sans-Serif" font-size="10.00">CO_Andisol\create_ll</text>
<text text-anchor="middle" x="64" y="-500" font-family="Helvetica,sans-Serif" font-size="10.00">_place</text>
</a>
</g>
</g>
<!-- Node9&#45;&gt;Node10 -->
<g id="edge9" class="edge">
<title>Node9&#45;&gt;Node10</title>
<path fill="none" stroke="midnightblue" d="M191.51,-471.25C182.4,-473.79 172.89,-476.46 164,-479 148.33,-483.47 131.29,-488.43 115.83,-492.96"/>
<polygon fill="midnightblue" stroke="midnightblue" points="192.48,-474.62 201.18,-468.57 190.61,-467.87 192.48,-474.62"/>
</g>
<!-- Node11 -->
<g id="node11" class="node">
<title>Node11</title>
<g id="a_node11"><a xlink:href="a00216.html#a5f26c529c4b6d41367241db17d114fb5" target="_top" xlink:title=" ">
<polygon fill="white" stroke="black" points="9.5,-444 9.5,-474 118.5,-474 118.5,-444 9.5,-444"/>
<text text-anchor="start" x="17.5" y="-462" font-family="Helvetica,sans-Serif" font-size="10.00">CO_Andisol\create_ll</text>
<text text-anchor="middle" x="64" y="-451" font-family="Helvetica,sans-Serif" font-size="10.00">_us_place</text>
</a>
</g>
</g>
<!-- Node9&#45;&gt;Node11 -->
<g id="edge10" class="edge">
<title>Node9&#45;&gt;Node11</title>
<path fill="none" stroke="midnightblue" d="M162.68,-459C147.9,-459 132.62,-459 118.67,-459"/>
<polygon fill="midnightblue" stroke="midnightblue" points="162.81,-462.5 172.81,-459 162.81,-455.5 162.81,-462.5"/>
</g>
<!-- Node12 -->
<g id="node12" class="node">
<title>Node12</title>
<g id="a_node12"><a xlink:href="a00216.html#a492fc0036d5930c325ed14bfcdd5938a" target="_top" xlink:title=" ">
<polygon fill="white" stroke="black" points="0,-395 0,-425 128,-425 128,-395 0,-395"/>
<text text-anchor="start" x="8" y="-413" font-family="Helvetica,sans-Serif" font-size="10.00">CO_Andisol\create_place</text>
<text text-anchor="middle" x="64" y="-402" font-family="Helvetica,sans-Serif" font-size="10.00">_collection</text>
</a>
</g>
</g>
<!-- Node9&#45;&gt;Node12 -->
<g id="edge11" class="edge">
<title>Node9&#45;&gt;Node12</title>
<path fill="none" stroke="midnightblue" d="M192.85,-446.63C169.95,-440.07 141.63,-431.96 117.48,-425.04"/>
<polygon fill="midnightblue" stroke="midnightblue" points="192.05,-450.05 202.62,-449.44 193.97,-443.32 192.05,-450.05"/>
</g>
<!-- Node15 -->
<g id="node15" class="node">
<title>Node15</title>
<g id="a_node15"><a xlink:href="a00216.html#afa726783f29cadc795d892eb9f825fa1" target="_top" xlink:title=" ">
<polygon fill="white" stroke="black" points="381.5,-417 381.5,-447 483.5,-447 483.5,-417 381.5,-417"/>
<text text-anchor="start" x="389.5" y="-435" font-family="Helvetica,sans-Serif" font-size="10.00">CO_Andisol\current</text>
<text text-anchor="middle" x="432.5" y="-424" font-family="Helvetica,sans-Serif" font-size="10.00">_login</text>
</a>
</g>
</g>
<!-- Node14&#45;&gt;Node15 -->
<g id="edge14" class="edge">
<title>Node14&#45;&gt;Node15</title>
<path fill="none" stroke="midnightblue" d="M544.93,-418.96C524.29,-421.38 502.48,-423.93 483.68,-426.13"/>
<polygon fill="midnightblue" stroke="midnightblue" points="545.43,-422.43 554.95,-417.79 544.61,-415.47 545.43,-422.43"/>
</g>
<!-- Node17 -->
<g id="node17" class="node">
<title>Node17</title>
<g id="a_node17"><a xlink:href="a00216.html#a7d4be5fe8eb59e59a6ca94a781980e4f" target="_top" xlink:title=" ">
<polygon fill="white" stroke="black" points="182,-373 182,-403 292,-403 292,-373 182,-373"/>
<text text-anchor="start" x="190" y="-391" font-family="Helvetica,sans-Serif" font-size="10.00">CO_Andisol\get_user</text>
<text text-anchor="middle" x="237" y="-380" font-family="Helvetica,sans-Serif" font-size="10.00">_from_login_string</text>
</a>
</g>
</g>
<!-- Node16&#45;&gt;Node17 -->
<g id="edge16" class="edge">
<title>Node16&#45;&gt;Node17</title>
<path fill="none" stroke="midnightblue" d="M556.78,-369.71C482.39,-373.98 361.62,-380.91 292.04,-384.9"/>
<polygon fill="midnightblue" stroke="midnightblue" points="557.18,-373.2 566.96,-369.13 556.78,-366.21 557.18,-373.2"/>
</g>
<!-- Node19 -->
<g id="node19" class="node">
<title>Node19</title>
<g id="a_node19"><a xlink:href="a00216.html#a737ba5cc859a773ab48d09f365fbb4b6" target="_top" xlink:title=" ">
<polygon fill="white" stroke="black" points="362,-165 362,-195 503,-195 503,-165 362,-165"/>
<text text-anchor="start" x="370" y="-183" font-family="Helvetica,sans-Serif" font-size="10.00">CO_Andisol\_make_security</text>
<text text-anchor="middle" x="432.5" y="-172" font-family="Helvetica,sans-Serif" font-size="10.00">_token</text>
</a>
</g>
</g>
<!-- Node18&#45;&gt;Node19 -->
<g id="edge18" class="edge">
<title>Node18&#45;&gt;Node19</title>
<path fill="none" stroke="midnightblue" d="M570.72,-212.12C548.3,-206.87 521.67,-200.64 497.87,-195.07"/>
<polygon fill="midnightblue" stroke="midnightblue" points="570.17,-215.58 580.71,-214.45 571.77,-208.77 570.17,-215.58"/>
</g>
<!-- Node21 -->
<g id="node21" class="node">
<title>Node21</title>
<g id="a_node21"><a xlink:href="a00216.html#a5ec809e73e54f420281e8398364fc0b5" target="_top" xlink:title=" ">
<polygon fill="white" stroke="black" points="359.5,-126.5 359.5,-145.5 505.5,-145.5 505.5,-126.5 359.5,-126.5"/>
<text text-anchor="middle" x="432.5" y="-133.5" font-family="Helvetica,sans-Serif" font-size="10.00">CO_Andisol\create_new_user</text>
</a>
</g>
</g>
<!-- Node18&#45;&gt;Node21 -->
<g id="edge20" class="edge">
<title>Node18&#45;&gt;Node21</title>
<path fill="none" stroke="midnightblue" d="M602.48,-207.96C582.81,-192.19 550.59,-168.57 519,-155 510.06,-151.16 500.24,-148.05 490.55,-145.55"/>
<polygon fill="midnightblue" stroke="midnightblue" points="600.39,-210.77 610.34,-214.39 604.81,-205.35 600.39,-210.77"/>
</g>
<!-- Node22 -->
<g id="node22" class="node">
<title>Node22</title>
<g id="a_node22"><a xlink:href="a00216.html#aa4f45eb1ec9c5acc7709cfd9b08348f3" target="_top" xlink:title=" ">
<polygon fill="white" stroke="black" points="371.5,-88.5 371.5,-107.5 493.5,-107.5 493.5,-88.5 371.5,-88.5"/>
<text text-anchor="middle" x="432.5" y="-95.5" font-family="Helvetica,sans-Serif" font-size="10.00">CO_Andisol\delete_user</text>
</a>
</g>
</g>
<!-- Node18&#45;&gt;Node22 -->
<g id="edge21" class="edge">
<title>Node18&#45;&gt;Node22</title>
<path fill="none" stroke="midnightblue" d="M609.42,-205.88C592.28,-181.68 558.55,-139.27 519,-117 511.18,-112.6 502.43,-109.22 493.58,-106.62"/>
<polygon fill="midnightblue" stroke="midnightblue" points="606.59,-207.94 615.15,-214.18 612.35,-203.97 606.59,-207.94"/>
</g>
<!-- Node23 -->
<g id="node23" class="node">
<title>Node23</title>
<g id="a_node23"><a xlink:href="a00216.html#ae0e62c8ade9295c9b5a2d3b725f8f222" target="_top" xlink:title=" ">
<polygon fill="white" stroke="black" points="382,-39 382,-69 483,-69 483,-39 382,-39"/>
<text text-anchor="start" x="390" y="-57" font-family="Helvetica,sans-Serif" font-size="10.00">CO_Andisol\get_all</text>
<text text-anchor="middle" x="432.5" y="-46" font-family="Helvetica,sans-Serif" font-size="10.00">_logins</text>
</a>
</g>
</g>
<!-- Node18&#45;&gt;Node23 -->
<g id="edge22" class="edge">
<title>Node18&#45;&gt;Node23</title>
<path fill="none" stroke="midnightblue" d="M610.59,-205.54C589.55,-170.52 543.31,-96.35 519,-79 508.43,-71.45 495.59,-66.17 483.11,-62.47"/>
<polygon fill="midnightblue" stroke="midnightblue" points="607.68,-207.51 615.81,-214.3 613.7,-203.92 607.68,-207.51"/>
</g>
<!-- Node24 -->
<g id="node24" class="node">
<title>Node24</title>
<g id="a_node24"><a xlink:href="a00216.html#a61b9a275c4b8b824d9a2b3aadd421bf7" target="_top" xlink:title=" ">
<polygon fill="white" stroke="black" points="377.5,-329 377.5,-359 487.5,-359 487.5,-329 377.5,-329"/>
<text text-anchor="start" x="385.5" y="-347" font-family="Helvetica,sans-Serif" font-size="10.00">CO_Andisol\get_user</text>
<text text-anchor="middle" x="432.5" y="-336" font-family="Helvetica,sans-Serif" font-size="10.00">_from_login</text>
</a>
</g>
</g>
<!-- Node18&#45;&gt;Node24 -->
<g id="edge23" class="edge">
<title>Node18&#45;&gt;Node24</title>
<path fill="none" stroke="midnightblue" d="M607.16,-241.55C588.85,-262.86 555.17,-298.48 519,-319 509.31,-324.49 498.31,-328.87 487.5,-332.33"/>
<polygon fill="midnightblue" stroke="midnightblue" points="610.06,-243.54 613.82,-233.64 604.71,-239.03 610.06,-243.54"/>
</g>
<!-- Node26 -->
<g id="node26" class="node">
<title>Node26</title>
<g id="a_node26"><a xlink:href="a00216.html#a370ab6e2bb53c900f25a6005d0e5077d" target="_top" xlink:title=" ">
<polygon fill="white" stroke="black" points="388.5,-290.5 388.5,-309.5 476.5,-309.5 476.5,-290.5 388.5,-290.5"/>
<text text-anchor="middle" x="432.5" y="-297.5" font-family="Helvetica,sans-Serif" font-size="10.00">CO_Andisol\god</text>
</a>
</g>
</g>
<!-- Node18&#45;&gt;Node26 -->
<g id="edge26" class="edge">
<title>Node18&#45;&gt;Node26</title>
<path fill="none" stroke="midnightblue" d="M598.72,-239.2C578.54,-252.03 547.89,-270.03 519,-281 505.64,-286.08 490.56,-289.99 476.83,-292.9"/>
<polygon fill="midnightblue" stroke="midnightblue" points="600.72,-242.08 607.21,-233.71 596.92,-236.2 600.72,-242.08"/>
</g>
<!-- Node30 -->
<g id="node30" class="node">
<title>Node30</title>
<g id="a_node30"><a xlink:href="a00216.html#a73ccfd34793c0197e2dc336b44e3577e" target="_top" xlink:title=" ">
<polygon fill="white" stroke="black" points="346,-252.5 346,-271.5 519,-271.5 519,-252.5 346,-252.5"/>
<text text-anchor="middle" x="432.5" y="-259.5" font-family="Helvetica,sans-Serif" font-size="10.00">CO_Andisol\make_standalone_user</text>
</a>
</g>
</g>
<!-- Node18&#45;&gt;Node30 -->
<g id="edge30" class="edge">
<title>Node18&#45;&gt;Node30</title>
<path fill="none" stroke="midnightblue" d="M564.06,-235.61C537.33,-241.01 505.91,-247.36 480.6,-252.48"/>
<polygon fill="midnightblue" stroke="midnightblue" points="564.95,-239 574.06,-233.59 563.56,-232.14 564.95,-239"/>
</g>
<!-- Node31 -->
<g id="node31" class="node">
<title>Node31</title>
<g id="a_node31"><a xlink:href="a00216.html#a4a99f9757a91355dd3aca720dcf5a770" target="_top" xlink:title=" ">
<polygon fill="white" stroke="black" points="366.5,-214.5 366.5,-233.5 498.5,-233.5 498.5,-214.5 366.5,-214.5"/>
<text text-anchor="middle" x="432.5" y="-221.5" font-family="Helvetica,sans-Serif" font-size="10.00">CO_Andisol\who_can_see</text>
</a>
</g>
</g>
<!-- Node18&#45;&gt;Node31 -->
<g id="edge31" class="edge">
<title>Node18&#45;&gt;Node31</title>
<path fill="none" stroke="midnightblue" d="M557.34,-224C538.37,-224 517.59,-224 498.56,-224"/>
<polygon fill="midnightblue" stroke="midnightblue" points="557.37,-227.5 567.37,-224 557.37,-220.5 557.37,-227.5"/>
</g>
<!-- Node20 -->
<g id="node20" class="node">
<title>Node20</title>
<g id="a_node20"><a xlink:href="a00216.html#ad0ac8fb3000239301a9f2be905c1a124" target="_top" xlink:title=" ">
<polygon fill="white" stroke="black" points="169,-138 169,-168 305,-168 305,-138 169,-138"/>
<text text-anchor="start" x="177" y="-156" font-family="Helvetica,sans-Serif" font-size="10.00">CO_Andisol\make_security</text>
<text text-anchor="middle" x="237" y="-145" font-family="Helvetica,sans-Serif" font-size="10.00">_token</text>
</a>
</g>
</g>
<!-- Node19&#45;&gt;Node20 -->
<g id="edge19" class="edge">
<title>Node19&#45;&gt;Node20</title>
<path fill="none" stroke="midnightblue" d="M351.81,-168.88C336.26,-166.71 320.11,-164.46 305.03,-162.35"/>
<polygon fill="midnightblue" stroke="midnightblue" points="351.53,-172.37 361.92,-170.29 352.5,-165.44 351.53,-172.37"/>
</g>
<!-- Node24&#45;&gt;Node17 -->
<g id="edge25" class="edge">
<title>Node24&#45;&gt;Node17</title>
<path fill="none" stroke="midnightblue" d="M367.46,-358.56C343.07,-364.11 315.53,-370.37 292.14,-375.69"/>
<polygon fill="midnightblue" stroke="midnightblue" points="368.37,-361.95 377.34,-356.31 366.81,-355.12 368.37,-361.95"/>
</g>
<!-- Node25 -->
<g id="node25" class="node">
<title>Node25</title>
<g id="a_node25"><a xlink:href="a00216.html#a661842aaa6be17af30fbac58b5008c36" target="_top" xlink:title=" ">
<polygon fill="white" stroke="black" points="174,-334.5 174,-353.5 300,-353.5 300,-334.5 174,-334.5"/>
<text text-anchor="middle" x="237" y="-341.5" font-family="Helvetica,sans-Serif" font-size="10.00">CO_Andisol\current_user</text>
</a>
</g>
</g>
<!-- Node24&#45;&gt;Node25 -->
<g id="edge24" class="edge">
<title>Node24&#45;&gt;Node25</title>
<path fill="none" stroke="midnightblue" d="M367.31,-344C345.75,-344 321.76,-344 300.35,-344"/>
<polygon fill="midnightblue" stroke="midnightblue" points="367.34,-347.5 377.34,-344 367.34,-340.5 367.34,-347.5"/>
</g>
<!-- Node27 -->
<g id="node27" class="node">
<title>Node27</title>
<g id="a_node27"><a xlink:href="a00216.html#a86bc3621ffe539ac5a9239375f0a786b" target="_top" xlink:title=" ">
<polygon fill="white" stroke="black" points="186.5,-285 186.5,-315 287.5,-315 287.5,-285 186.5,-285"/>
<text text-anchor="start" x="194.5" y="-303" font-family="Helvetica,sans-Serif" font-size="10.00">CO_Andisol\get_all</text>
<text text-anchor="middle" x="237" y="-292" font-family="Helvetica,sans-Serif" font-size="10.00">_login_users</text>
</a>
</g>
</g>
<!-- Node26&#45;&gt;Node27 -->
<g id="edge27" class="edge">
<title>Node26&#45;&gt;Node27</title>
<path fill="none" stroke="midnightblue" d="M377.99,-300C349.78,-300 315.4,-300 287.77,-300"/>
<polygon fill="midnightblue" stroke="midnightblue" points="378.07,-303.5 388.07,-300 378.07,-296.5 378.07,-303.5"/>
</g>
<!-- Node28 -->
<g id="node28" class="node">
<title>Node28</title>
<g id="a_node28"><a xlink:href="a00216.html#acd1e344f9f0087ee41414e6aa5f13e1e" target="_top" xlink:title=" ">
<polygon fill="white" stroke="black" points="186.5,-236 186.5,-266 287.5,-266 287.5,-236 186.5,-236"/>
<text text-anchor="start" x="194.5" y="-254" font-family="Helvetica,sans-Serif" font-size="10.00">CO_Andisol\get_all</text>
<text text-anchor="middle" x="237" y="-243" font-family="Helvetica,sans-Serif" font-size="10.00">_standalone_users</text>
</a>
</g>
</g>
<!-- Node26&#45;&gt;Node28 -->
<g id="edge28" class="edge">
<title>Node26&#45;&gt;Node28</title>
<path fill="none" stroke="midnightblue" d="M378.25,-288.62C367.55,-286.2 356.4,-283.6 346,-281 326.84,-276.21 305.89,-270.51 287.59,-265.36"/>
<polygon fill="midnightblue" stroke="midnightblue" points="377.82,-292.11 388.34,-290.87 379.34,-285.28 377.82,-292.11"/>
</g>
<!-- Node29 -->
<g id="node29" class="node">
<title>Node29</title>
<g id="a_node29"><a xlink:href="a00216.html#a9d3578d72df7af2ff07e23ea7b1b1af9" target="_top" xlink:title=" ">
<polygon fill="white" stroke="black" points="186.5,-187 186.5,-217 287.5,-217 287.5,-187 186.5,-187"/>
<text text-anchor="start" x="194.5" y="-205" font-family="Helvetica,sans-Serif" font-size="10.00">CO_Andisol\get_all</text>
<text text-anchor="middle" x="237" y="-194" font-family="Helvetica,sans-Serif" font-size="10.00">_users</text>
</a>
</g>
</g>
<!-- Node26&#45;&gt;Node29 -->
<g id="edge29" class="edge">
<title>Node26&#45;&gt;Node29</title>
<path fill="none" stroke="midnightblue" d="M378.53,-294.78C367.11,-291.93 355.6,-287.58 346,-281 322.21,-264.7 332.81,-244.65 310,-227 303.41,-221.9 295.7,-217.79 287.82,-214.5"/>
<polygon fill="midnightblue" stroke="midnightblue" points="377.97,-298.24 388.48,-296.93 379.44,-291.4 377.97,-298.24"/>
</g>
<!-- Node33 -->
<g id="node33" class="node">
<title>Node33</title>
<g id="a_node33"><a xlink:href="a00216.html#a3a2a831d4194a3ea9b933f98b4ee71f2" target="_top" xlink:title=" ">
<polygon fill="white" stroke="black" points="373,-0.5 373,-19.5 492,-19.5 492,-0.5 373,-0.5"/>
<text text-anchor="middle" x="432.5" y="-7.5" font-family="Helvetica,sans-Serif" font-size="10.00">CO_Andisol\delete_key</text>
</a>
</g>
</g>
<!-- Node32&#45;&gt;Node33 -->
<g id="edge33" class="edge">
<title>Node32&#45;&gt;Node33</title>
<path fill="none" stroke="midnightblue" d="M594.38,-73.73C574.54,-59.15 546.39,-40.43 519,-29 509.88,-25.19 499.88,-22.09 490.03,-19.59"/>
<polygon fill="midnightblue" stroke="midnightblue" points="592.52,-76.71 602.62,-79.9 596.71,-71.11 592.52,-76.71"/>
</g>
</g>
</svg>
        <g id="navigator" transform="translate(0 0)" fill="#404254">
                <rect fill="#f2f5e9" fill-opacity="0.5" stroke="#606060" stroke-width=".5" x="0" y="0" width="60" height="60"/>
                <use id="zoomplus" xlink:href="#zoomPlus" x="17" y="9" onmousedown="handleZoom(evt,'in')"/>
                <use id="zoomminus" xlink:href="#zoomMin" x="42" y="9" onmousedown="handleZoom(evt,'out')"/>
                <use id="reset" xlink:href="#resetDef" x="30" y="36" onmousedown="handleReset()"/>
                <g id="arrowUp" xlink:href="#dirArrow" transform="translate(30 24)" onmousedown="handlePan(0,-1)">
                  <use xlink:href="#rim" fill="#404040">
                        <set attributeName="fill" to="#808080" begin="arrowUp.mouseover" end="arrowUp.mouseout"/>
                  </use>
                  <path fill="none" stroke="white" stroke-width="1.5" d="M0,-3.0v7 M-2.5,-0.5L0,-3.0L2.5,-0.5"/>
                </g>
                <g id="arrowRight" xlink:href="#dirArrow" transform="rotate(90) translate(36 -43)" onmousedown="handlePan(1,0)">
                  <use xlink:href="#rim" fill="#404040">
                        <set attributeName="fill" to="#808080" begin="arrowRight.mouseover" end="arrowRight.mouseout"/>
                  </use>
                  <path fill="none" stroke="white" stroke-width="1.5" d="M0,-3.0v7 M-2.5,-0.5L0,-3.0L2.5,-0.5"/>
                </g>
                <g id="arrowDown" xlink:href="#dirArrow" transform="rotate(180) translate(-30 -48)" onmousedown="handlePan(0,1)">
                  <use xlink:href="#rim" fill="#404040">
                        <set attributeName="fill" to="#808080" begin="arrowDown.mouseover" end="arrowDown.mouseout"/>
                  </use>
                  <path fill="none" stroke="white" stroke-width="1.5" d="M0,-3.0v7 M-2.5,-0.5L0,-3.0L2.5,-0.5"/>
                </g>
                <g id="arrowLeft" xlink:href="#dirArrow" transform="rotate(270) translate(-36 17)" onmousedown="handlePan(-1,0)">
                  <use xlink:href="#rim" fill="#404040">
                        <set attributeName="fill" to="#808080" begin="arrowLeft.mouseover" end="arrowLeft.mouseout"/>
                  </use>
                  <path fill="none" stroke="white" stroke-width="1.5" d="M0,-3.0v7 M-2.5,-0.5L0,-3.0L2.5,-0.5"/>
                </g>
        </g>
        <svg viewBox="0 0 15 15" width="100%" height="30px" preserveAspectRatio="xMaxYMin meet">
         <g id="arrow_out" transform="scale(0.3 0.3)">
          <a xlink:href="a00216_a4b0ec12b29ce4812cbb4169b68770f66_icgraph_org.svg" target="_base">
           <rect id="button" ry="5" rx="5" y="6" x="6" height="38" width="38"
                fill="#f2f5e9" fill-opacity="0.5" stroke="#606060" stroke-width="1.0"/>
           <path id="arrow"
             d="M 11.500037,31.436501 C 11.940474,20.09759 22.043105,11.32322 32.158766,21.979434 L 37.068811,17.246167 C 37.068811,17.246167 37.088388,32 37.088388,32 L 22.160133,31.978069 C 22.160133,31.978069 26.997745,27.140456 26.997745,27.140456 C 18.528582,18.264221 13.291696,25.230495 11.500037,31.436501 z"
             style="fill:#404040;"/>
          </a>
         </g>
        </svg>
</svg>
