<?xml version="1.0" encoding="UTF-8" standalone="no"?>
<!DOCTYPE svg PUBLIC "-//W3C//DTD SVG 1.1//EN"
 "http://www.w3.org/Graphics/SVG/1.1/DTD/svg11.dtd">
<!-- Generated by graphviz version 2.40.1 (20161225.0304)
 -->
<!-- Title: CO_Andisol\current_user Pages: 1 -->
<svg width="889pt" height="87pt"
 viewBox="0.00 0.00 888.78 87.11" xmlns="http://www.w3.org/2000/svg" xmlns:xlink="http://www.w3.org/1999/xlink">
<g id="graph0" class="graph" transform="scale(1 1) rotate(0) translate(4 83.1059)">
<title>CO_Andisol\current_user</title>
<polygon fill="#ffffff" stroke="transparent" points="-4,4 -4,-83.1059 884.7754,-83.1059 884.7754,4 -4,4"/>
<!-- Node1 -->
<g id="node1" class="node">
<title>Node1</title>
<g id="a_node1"><a xlink:title=" ">
<polygon fill="#bfbfbf" stroke="#000000" points="0,-44.5 0,-62.5 128.2754,-62.5 128.2754,-44.5 0,-44.5"/>
<text text-anchor="middle" x="64.1377" y="-50.5" font-family="Helvetica,sans-Serif" font-size="10.00" fill="#000000">CO_Andisol\current_user</text>
</a>
</g>
</g>
<!-- Node2 -->
<g id="node2" class="node">
<title>Node2</title>
<g id="a_node2"><a xlink:href="a00216.html#a61b9a275c4b8b824d9a2b3aadd421bf7" target="_top" xlink:title=" ">
<polygon fill="#ffffff" stroke="#000000" points="164.2754,-39.5 164.2754,-67.5 275.3291,-67.5 275.3291,-39.5 164.2754,-39.5"/>
<text text-anchor="start" x="172.2754" y="-55.5" font-family="Helvetica,sans-Serif" font-size="10.00" fill="#000000">CO_Andisol\get_user</text>
<text text-anchor="middle" x="219.8022" y="-45.5" font-family="Helvetica,sans-Serif" font-size="10.00" fill="#000000">_from_login</text>
</a>
</g>
</g>
<!-- Node1&#45;&gt;Node2 -->
<g id="edge1" class="edge">
<title>Node1&#45;&gt;Node2</title>
<path fill="none" stroke="#191970" d="M128.3511,-53.5C136.8059,-53.5 145.4819,-53.5 153.9633,-53.5"/>
<polygon fill="#191970" stroke="#191970" points="154.1842,-57.0001 164.1841,-53.5 154.1841,-50.0001 154.1842,-57.0001"/>
</g>
<!-- Node3 -->
<g id="node3" class="node">
<title>Node3</title>
<g id="a_node3"><a xlink:href="a00216.html#acda267f1d6a8e496e167ed46fe590dc6" target="_top" xlink:title=" ">
<polygon fill="#ffffff" stroke="#000000" points="740.2539,-33.5 740.2539,-61.5 880.7754,-61.5 880.7754,-33.5 740.2539,-33.5"/>
<text text-anchor="start" x="748.2539" y="-49.5" font-family="Helvetica,sans-Serif" font-size="10.00" fill="#000000">CO_Andisol\get_chameleon</text>
<text text-anchor="middle" x="810.5146" y="-39.5" font-family="Helvetica,sans-Serif" font-size="10.00" fill="#000000">_instance</text>
</a>
</g>
</g>
<!-- Node2&#45;&gt;Node3 -->
<g id="edge2" class="edge">
<title>Node2&#45;&gt;Node3</title>
<path fill="none" stroke="#191970" d="M275.3769,-62.1207C287.2216,-63.7541 299.6726,-65.3187 311.3291,-66.5 428.2299,-78.3466 458.2568,-82.4641 575.5498,-75.5 627.1145,-72.4384 684.7103,-65.6294 729.9725,-59.4927"/>
<polygon fill="#191970" stroke="#191970" points="730.5911,-62.9407 740.0225,-58.1138 729.6395,-56.0057 730.5911,-62.9407"/>
</g>
<!-- Node4 -->
<g id="node4" class="node">
<title>Node4</title>
<g id="a_node4"><a xlink:href="a00216.html#a3605f036c8c634afaa74f67e5853a0ad" target="_top" xlink:title=" ">
<polygon fill="#ffffff" stroke="#000000" points="458.9346,-37.5 458.9346,-65.5 575.5498,-65.5 575.5498,-37.5 458.9346,-37.5"/>
<text text-anchor="start" x="466.9346" y="-53.5" font-family="Helvetica,sans-Serif" font-size="10.00" fill="#000000">CO_Andisol\get_cobra</text>
<text text-anchor="middle" x="517.2422" y="-43.5" font-family="Helvetica,sans-Serif" font-size="10.00" fill="#000000">_instance</text>
</a>
</g>
</g>
<!-- Node2&#45;&gt;Node4 -->
<g id="edge3" class="edge">
<title>Node2&#45;&gt;Node4</title>
<path fill="none" stroke="#191970" d="M275.3995,-53.1262C324.4241,-52.7965 396.0391,-52.315 448.6182,-51.9614"/>
<polygon fill="#191970" stroke="#191970" points="448.8916,-55.4598 458.8678,-51.8925 448.8445,-48.4599 448.8916,-55.4598"/>
</g>
<!-- Node5 -->
<g id="node5" class="node">
<title>Node5</title>
<g id="a_node5"><a xlink:href="a00216.html#af5f39aa13714ad544a9099edb0d51cd5" target="_top" xlink:title=" ">
<polygon fill="#ffffff" stroke="#000000" points="311.3291,-6.5 311.3291,-24.5 422.9346,-24.5 422.9346,-6.5 311.3291,-6.5"/>
<text text-anchor="middle" x="367.1318" y="-12.5" font-family="Helvetica,sans-Serif" font-size="10.00" fill="#000000">CO_Andisol\manager</text>
</a>
</g>
</g>
<!-- Node2&#45;&gt;Node5 -->
<g id="edge4" class="edge">
<title>Node2&#45;&gt;Node5</title>
<path fill="none" stroke="#191970" d="M274.2438,-39.4582C289.9615,-35.4042 306.9347,-31.0263 322.0184,-27.1359"/>
<polygon fill="#191970" stroke="#191970" points="323.3115,-30.417 332.1205,-24.5303 321.5632,-23.6388 323.3115,-30.417"/>
</g>
<!-- Node5&#45;&gt;Node4 -->
<g id="edge5" class="edge">
<title>Node5&#45;&gt;Node4</title>
<path fill="none" stroke="#191970" d="M405.011,-24.5843C418.4054,-27.7966 433.9132,-31.5157 449.0459,-35.1449"/>
<polygon fill="#191970" stroke="#191970" points="448.3696,-38.5819 458.9102,-37.5106 450.0022,-31.7749 448.3696,-38.5819"/>
</g>
<!-- Node6 -->
<g id="node6" class="node">
<title>Node6</title>
<g id="a_node6"><a xlink:href="a00216.html#ac2a2dcb99dc927789b0ffa09c24946de" target="_top" xlink:title=" ">
<polygon fill="#ffffff" stroke="#000000" points="459.4863,-.5 459.4863,-18.5 574.998,-18.5 574.998,-.5 459.4863,-.5"/>
<text text-anchor="middle" x="517.2422" y="-6.5" font-family="Helvetica,sans-Serif" font-size="10.00" fill="#000000">CO_Andisol\logged_in</text>
</a>
</g>
</g>
<!-- Node5&#45;&gt;Node6 -->
<g id="edge6" class="edge">
<title>Node5&#45;&gt;Node6</title>
<path fill="none" stroke="#191970" d="M423.0274,-13.2658C431.535,-12.9258 440.3945,-12.5716 449.1276,-12.2226"/>
<polygon fill="#191970" stroke="#191970" points="449.4406,-15.713 459.2929,-11.8163 449.161,-8.7185 449.4406,-15.713"/>
</g>
<!-- Node6&#45;&gt;Node3 -->
<g id="edge7" class="edge">
<title>Node6&#45;&gt;Node3</title>
<path fill="none" stroke="#191970" d="M557.4664,-18.5592C574.1336,-22.0634 593.7064,-25.8578 611.5498,-28.5 650.2986,-34.2377 693.5623,-38.6097 729.8244,-41.7048"/>
<polygon fill="#191970" stroke="#191970" points="729.6,-45.1981 739.8569,-42.5439 730.1835,-38.2225 729.6,-45.1981"/>
</g>
<!-- Node7 -->
<g id="node7" class="node">
<title>Node7</title>
<g id="a_node7"><a xlink:href="a00216.html#a4b0ec12b29ce4812cbb4169b68770f66" target="_top" xlink:title=" ">
<polygon fill="#ffffff" stroke="#000000" points="611.5498,-.5 611.5498,-18.5 704.2539,-18.5 704.2539,-.5 611.5498,-.5"/>
<text text-anchor="middle" x="657.9019" y="-6.5" font-family="Helvetica,sans-Serif" font-size="10.00" fill="#000000">CO_Andisol\valid</text>
</a>
</g>
</g>
<!-- Node6&#45;&gt;Node7 -->
<g id="edge8" class="edge">
<title>Node6&#45;&gt;Node7</title>
<path fill="none" stroke="#191970" d="M575.2659,-9.5C583.7665,-9.5 592.5147,-9.5 600.9926,-9.5"/>
<polygon fill="#191970" stroke="#191970" points="601.165,-13.0001 611.165,-9.5 601.165,-6.0001 601.165,-13.0001"/>
</g>
<!-- Node7&#45;&gt;Node3 -->
<g id="edge9" class="edge">
<title>Node7&#45;&gt;Node3</title>
<path fill="none" stroke="#191970" d="M694.069,-18.5055C709.0266,-22.2299 726.8607,-26.6705 744.0216,-30.9435"/>
<polygon fill="#191970" stroke="#191970" points="743.4716,-34.4133 754.021,-33.4333 745.163,-27.6207 743.4716,-34.4133"/>
</g>
</g>
</svg>
