<?xml version="1.0" encoding="UTF-8" standalone="no"?>
<!DOCTYPE svg PUBLIC "-//W3C//DTD SVG 1.1//EN"
 "http://www.w3.org/Graphics/SVG/1.1/DTD/svg11.dtd">
<!-- Generated by graphviz version 2.47.1 (20210417.1919)
 -->
<!-- Title: CO_Cobra\_convert_login Pages: 1 -->
<svg width="509pt" height="78pt"
 viewBox="0.00 0.00 509.00 77.50" xmlns="http://www.w3.org/2000/svg" xmlns:xlink="http://www.w3.org/1999/xlink">
<g id="graph0" class="graph" transform="scale(1 1) rotate(0) translate(4 73.5)">
<title>CO_Cobra\_convert_login</title>
<polygon fill="white" stroke="transparent" points="-4,4 -4,-73.5 505,-73.5 505,4 -4,4"/>
<!-- Node1 -->
<g id="node1" class="node">
<title>Node1</title>
<g id="a_node1"><a xlink:title=" ">
<polygon fill="#bfbfbf" stroke="black" points="0,-22.5 0,-41.5 129,-41.5 129,-22.5 0,-22.5"/>
<text text-anchor="middle" x="64.5" y="-29.5" font-family="Helvetica,sans-Serif" font-size="10.00">CO_Cobra\_convert_login</text>
</a>
</g>
</g>
<!-- Node2 -->
<g id="node2" class="node">
<title>Node2</title>
<g id="a_node2"><a xlink:href="a00236.html#ad5bb2d69d9ca618b755ceb4eaba247e8" target="_top" xlink:title=" ">
<polygon fill="white" stroke="black" points="167.5,-39 167.5,-69 295.5,-69 295.5,-39 167.5,-39"/>
<text text-anchor="start" x="175.5" y="-57" font-family="Helvetica,sans-Serif" font-size="10.00">CO_Cobra\get_user_from</text>
<text text-anchor="middle" x="231.5" y="-46" font-family="Helvetica,sans-Serif" font-size="10.00">_login</text>
</a>
</g>
</g>
<!-- Node1&#45;&gt;Node2 -->
<g id="edge1" class="edge">
<title>Node1&#45;&gt;Node2</title>
<path fill="none" stroke="midnightblue" d="M129.29,-40.51C138.48,-41.73 148,-43 157.36,-44.25"/>
<polygon fill="midnightblue" stroke="midnightblue" points="157.04,-47.74 167.42,-45.59 157.97,-40.8 157.04,-47.74"/>
</g>
<!-- Node4 -->
<g id="node4" class="node">
<title>Node4</title>
<g id="a_node4"><a xlink:href="a00340.html#aac538e52310a1c332914682a9c2ec8d2" target="_top" xlink:title=" ">
<polygon fill="white" stroke="black" points="165,-0.5 165,-19.5 298,-19.5 298,-0.5 165,-0.5"/>
<text text-anchor="middle" x="231.5" y="-7.5" font-family="Helvetica,sans-Serif" font-size="10.00">CO_Security_Login\is_god</text>
</a>
</g>
</g>
<!-- Node1&#45;&gt;Node4 -->
<g id="edge3" class="edge">
<title>Node1&#45;&gt;Node4</title>
<path fill="none" stroke="midnightblue" d="M129.29,-23.49C137.7,-22.37 146.38,-21.22 154.96,-20.07"/>
<polygon fill="midnightblue" stroke="midnightblue" points="155.52,-23.53 164.97,-18.74 154.59,-16.59 155.52,-23.53"/>
</g>
<!-- Node3 -->
<g id="node3" class="node">
<title>Node3</title>
<g id="a_node3"><a xlink:href="a00236.html#a7d6421cfa6abf3aa5885bfe694ee898d" target="_top" xlink:title=" ">
<polygon fill="white" stroke="black" points="334,-44.5 334,-63.5 501,-63.5 501,-44.5 334,-44.5"/>
<text text-anchor="middle" x="417.5" y="-51.5" font-family="Helvetica,sans-Serif" font-size="10.00">CO_Cobra\make_standalone_user</text>
</a>
</g>
</g>
<!-- Node2&#45;&gt;Node3 -->
<g id="edge2" class="edge">
<title>Node2&#45;&gt;Node3</title>
<path fill="none" stroke="midnightblue" d="M295.56,-54C304.58,-54 314.01,-54 323.45,-54"/>
<polygon fill="midnightblue" stroke="midnightblue" points="323.68,-57.5 333.68,-54 323.68,-50.5 323.68,-57.5"/>
</g>
<!-- Node5 -->
<g id="node5" class="node">
<title>Node5</title>
<g id="a_node5"><a xlink:href="a00308.html#a78affe18a811930d4012fd265e95cdca" target="_top" xlink:title=" ">
<polygon fill="white" stroke="black" points="352.5,-0.5 352.5,-19.5 482.5,-19.5 482.5,-0.5 352.5,-0.5"/>
<text text-anchor="middle" x="417.5" y="-7.5" font-family="Helvetica,sans-Serif" font-size="10.00">A_CO_DB_Table_Base\id</text>
</a>
</g>
</g>
<!-- Node4&#45;&gt;Node5 -->
<g id="edge4" class="edge">
<title>Node4&#45;&gt;Node5</title>
<path fill="none" stroke="midnightblue" d="M298.15,-10C312.49,-10 327.76,-10 342.4,-10"/>
<polygon fill="midnightblue" stroke="midnightblue" points="342.42,-13.5 352.42,-10 342.42,-6.5 342.42,-13.5"/>
</g>
</g>
</svg>
