<?xml version="1.0" encoding="UTF-8" standalone="no"?>
<!DOCTYPE svg PUBLIC "-//W3C//DTD SVG 1.1//EN"
 "http://www.w3.org/Graphics/SVG/1.1/DTD/svg11.dtd">
<!-- Generated by graphviz version 2.47.1 (20210417.1919)
 -->
<!-- Title: CO_User_Collection\delete_from_db Pages: 1 -->
<svg width="598pt" height="125pt"
 viewBox="0.00 0.00 598.00 124.50" xmlns="http://www.w3.org/2000/svg" xmlns:xlink="http://www.w3.org/1999/xlink">
<g id="graph0" class="graph" transform="scale(1 1) rotate(0) translate(4 120.5)">
<title>CO_User_Collection\delete_from_db</title>
<polygon fill="white" stroke="transparent" points="-4,4 -4,-120.5 594,-120.5 594,4 -4,4"/>
<!-- Node1 -->
<g id="node1" class="node">
<title>Node1</title>
<g id="a_node1"><a xlink:title=" ">
<polygon fill="#bfbfbf" stroke="black" points="0,-47.5 0,-77.5 107,-77.5 107,-47.5 0,-47.5"/>
<text text-anchor="start" x="8" y="-65.5" font-family="Helvetica,sans-Serif" font-size="10.00">CO_User_Collection</text>
<text text-anchor="middle" x="53.5" y="-54.5" font-family="Helvetica,sans-Serif" font-size="10.00">\delete_from_db</text>
</a>
</g>
</g>
<!-- Node2 -->
<g id="node2" class="node">
<title>Node2</title>
<g id="a_node2"><a xlink:href="a00280.html#a1b874768720083a8a31c9fedcee30e6d" target="_top" xlink:title=" ">
<polygon fill="white" stroke="black" points="143,-97 143,-116 263,-116 263,-97 143,-97"/>
<text text-anchor="middle" x="203" y="-104" font-family="Helvetica,sans-Serif" font-size="10.00">tCO_Collection\children</text>
</a>
</g>
</g>
<!-- Node1&#45;&gt;Node2 -->
<g id="edge1" class="edge">
<title>Node1&#45;&gt;Node2</title>
<path fill="none" stroke="midnightblue" d="M104.85,-77.52C122.85,-82.89 142.92,-88.88 160.13,-94.01"/>
<polygon fill="midnightblue" stroke="midnightblue" points="159.31,-97.42 169.89,-96.92 161.31,-90.71 159.31,-97.42"/>
</g>
<!-- Node3 -->
<g id="node3" class="node">
<title>Node3</title>
<g id="a_node3"><a xlink:href="a00276.html#a2cc75e169901df4a8fc859f42e0e9f8c" target="_top" xlink:title=" ">
<polygon fill="white" stroke="black" points="149.5,-47.5 149.5,-77.5 256.5,-77.5 256.5,-47.5 149.5,-47.5"/>
<text text-anchor="start" x="157.5" y="-65.5" font-family="Helvetica,sans-Serif" font-size="10.00">CO_User_Collection</text>
<text text-anchor="middle" x="203" y="-54.5" font-family="Helvetica,sans-Serif" font-size="10.00">\get_login_instance</text>
</a>
</g>
</g>
<!-- Node1&#45;&gt;Node3 -->
<g id="edge2" class="edge">
<title>Node1&#45;&gt;Node3</title>
<path fill="none" stroke="midnightblue" d="M107.33,-62.5C117.61,-62.5 128.47,-62.5 139.03,-62.5"/>
<polygon fill="midnightblue" stroke="midnightblue" points="139.04,-66 149.04,-62.5 139.04,-59 139.04,-66"/>
</g>
<!-- Node7 -->
<g id="node7" class="node">
<title>Node7</title>
<g id="a_node7"><a xlink:href="a00308.html#a7d2537d7675ca572ad78096784fe4fe4" target="_top" xlink:title=" ">
<polygon fill="white" stroke="black" points="299,-0.5 299,-30.5 418,-30.5 418,-0.5 299,-0.5"/>
<text text-anchor="start" x="307" y="-18.5" font-family="Helvetica,sans-Serif" font-size="10.00">A_CO_DB_Table_Base</text>
<text text-anchor="middle" x="358.5" y="-7.5" font-family="Helvetica,sans-Serif" font-size="10.00">\user_can_write</text>
</a>
</g>
</g>
<!-- Node1&#45;&gt;Node7 -->
<g id="edge6" class="edge">
<title>Node1&#45;&gt;Node7</title>
<path fill="none" stroke="midnightblue" d="M101.91,-47.48C115.1,-43.74 129.51,-40.08 143,-37.5 191.24,-28.29 246.36,-22.74 288.65,-19.52"/>
<polygon fill="midnightblue" stroke="midnightblue" points="289.12,-22.99 298.84,-18.77 288.61,-16.01 289.12,-22.99"/>
</g>
<!-- Node4 -->
<g id="node4" class="node">
<title>Node4</title>
<g id="a_node4"><a xlink:href="a00276.html#a67c82465b52bc0d942c84599eb2b62ff" target="_top" xlink:title=" ">
<polygon fill="white" stroke="black" points="305,-49.5 305,-79.5 412,-79.5 412,-49.5 305,-49.5"/>
<text text-anchor="start" x="313" y="-67.5" font-family="Helvetica,sans-Serif" font-size="10.00">CO_User_Collection</text>
<text text-anchor="middle" x="358.5" y="-56.5" font-family="Helvetica,sans-Serif" font-size="10.00">\_load_login</text>
</a>
</g>
</g>
<!-- Node3&#45;&gt;Node4 -->
<g id="edge3" class="edge">
<title>Node3&#45;&gt;Node4</title>
<path fill="none" stroke="midnightblue" d="M256.83,-63.19C268.95,-63.35 281.97,-63.52 294.48,-63.68"/>
<polygon fill="midnightblue" stroke="midnightblue" points="294.79,-67.18 304.84,-63.81 294.88,-60.18 294.79,-67.18"/>
</g>
<!-- Node5 -->
<g id="node5" class="node">
<title>Node5</title>
<g id="a_node5"><a xlink:href="a00308.html#a8780b40e55827b90bb441671faec2a05" target="_top" xlink:title=" ">
<polygon fill="white" stroke="black" points="462.5,-3.5 462.5,-33.5 581.5,-33.5 581.5,-3.5 462.5,-3.5"/>
<text text-anchor="start" x="470.5" y="-21.5" font-family="Helvetica,sans-Serif" font-size="10.00">A_CO_DB_Table_Base</text>
<text text-anchor="middle" x="522" y="-10.5" font-family="Helvetica,sans-Serif" font-size="10.00">\get_access_object</text>
</a>
</g>
</g>
<!-- Node4&#45;&gt;Node5 -->
<g id="edge4" class="edge">
<title>Node4&#45;&gt;Node5</title>
<path fill="none" stroke="midnightblue" d="M412.38,-49.44C427.1,-45.25 443.22,-40.65 458.43,-36.32"/>
<polygon fill="midnightblue" stroke="midnightblue" points="459.62,-39.62 468.28,-33.52 457.7,-32.89 459.62,-39.62"/>
</g>
<!-- Node6 -->
<g id="node6" class="node">
<title>Node6</title>
<g id="a_node6"><a xlink:href="a00316.html#a7f4c18f2ed2bda67f3c38fd95c120c0a" target="_top" xlink:title=" ">
<polygon fill="white" stroke="black" points="454,-55 454,-74 590,-74 590,-55 454,-55"/>
<text text-anchor="middle" x="522" y="-62" font-family="Helvetica,sans-Serif" font-size="10.00">CO_Main_DB_Record\tags</text>
</a>
</g>
</g>
<!-- Node4&#45;&gt;Node6 -->
<g id="edge5" class="edge">
<title>Node4&#45;&gt;Node6</title>
<path fill="none" stroke="midnightblue" d="M412.38,-64.5C422.42,-64.5 433.11,-64.5 443.73,-64.5"/>
<polygon fill="midnightblue" stroke="midnightblue" points="443.85,-68 453.85,-64.5 443.85,-61 443.85,-68"/>
</g>
<!-- Node7&#45;&gt;Node5 -->
<g id="edge7" class="edge">
<title>Node7&#45;&gt;Node5</title>
<path fill="none" stroke="midnightblue" d="M418.26,-16.59C429.24,-16.8 440.81,-17.01 452.06,-17.22"/>
<polygon fill="midnightblue" stroke="midnightblue" points="452.22,-20.72 462.28,-17.41 452.35,-13.72 452.22,-20.72"/>
</g>
</g>
</svg>
