<?xml version="1.0" encoding="UTF-8" standalone="no"?>
<!DOCTYPE svg PUBLIC "-//W3C//DTD SVG 1.1//EN"
 "http://www.w3.org/Graphics/SVG/1.1/DTD/svg11.dtd">
<!-- Generated by graphviz version 2.47.1 (20210417.1919)
 -->
<!-- Title: CO_Cobra\_create_new_login Pages: 1 -->
<svg width="474pt" height="116pt"
 viewBox="0.00 0.00 474.00 115.50" xmlns="http://www.w3.org/2000/svg" xmlns:xlink="http://www.w3.org/1999/xlink">
<g id="graph0" class="graph" transform="scale(1 1) rotate(0) translate(4 111.5)">
<title>CO_Cobra\_create_new_login</title>
<polygon fill="white" stroke="transparent" points="-4,4 -4,-111.5 470,-111.5 470,4 -4,4"/>
<!-- Node1 -->
<g id="node1" class="node">
<title>Node1</title>
<g id="a_node1"><a xlink:title=" ">
<polygon fill="#bfbfbf" stroke="black" points="0,-33 0,-63 122,-63 122,-33 0,-33"/>
<text text-anchor="start" x="8" y="-51" font-family="Helvetica,sans-Serif" font-size="10.00">CO_Cobra\_create_new</text>
<text text-anchor="middle" x="61" y="-40" font-family="Helvetica,sans-Serif" font-size="10.00">_login</text>
</a>
</g>
</g>
<!-- Node2 -->
<g id="node2" class="node">
<title>Node2</title>
<g id="a_node2"><a xlink:href="a00236.html#a01a955e518587e995a53000c2638c2a8" target="_top" xlink:title=" ">
<polygon fill="white" stroke="black" points="167,-77 167,-107 286,-107 286,-77 167,-77"/>
<text text-anchor="start" x="175" y="-95" font-family="Helvetica,sans-Serif" font-size="10.00">CO_Cobra\_create_this</text>
<text text-anchor="middle" x="226.5" y="-84" font-family="Helvetica,sans-Serif" font-size="10.00">_many_personal_ids</text>
</a>
</g>
</g>
<!-- Node1&#45;&gt;Node2 -->
<g id="edge1" class="edge">
<title>Node1&#45;&gt;Node2</title>
<path fill="none" stroke="midnightblue" d="M117.81,-63.02C131.28,-66.65 145.81,-70.55 159.69,-74.29"/>
<polygon fill="midnightblue" stroke="midnightblue" points="159.1,-77.75 169.66,-76.97 160.92,-71 159.1,-77.75"/>
</g>
<!-- Node4 -->
<g id="node4" class="node">
<title>Node4</title>
<g id="a_node4"><a xlink:href="a00236.html#a0815b59b59c157227c283e260ab2576f" target="_top" xlink:title=" ">
<polygon fill="white" stroke="black" points="158,-38.5 158,-57.5 295,-57.5 295,-38.5 158,-38.5"/>
<text text-anchor="middle" x="226.5" y="-45.5" font-family="Helvetica,sans-Serif" font-size="10.00">CO_Cobra\get_security_ids</text>
</a>
</g>
</g>
<!-- Node1&#45;&gt;Node4 -->
<g id="edge3" class="edge">
<title>Node1&#45;&gt;Node4</title>
<path fill="none" stroke="midnightblue" d="M122.42,-48C130.63,-48 139.15,-48 147.62,-48"/>
<polygon fill="midnightblue" stroke="midnightblue" points="147.89,-51.5 157.89,-48 147.89,-44.5 147.89,-51.5"/>
</g>
<!-- Node5 -->
<g id="node5" class="node">
<title>Node5</title>
<g id="a_node5"><a xlink:href="a00340.html#aac538e52310a1c332914682a9c2ec8d2" target="_top" xlink:title=" ">
<polygon fill="white" stroke="black" points="160,-0.5 160,-19.5 293,-19.5 293,-0.5 160,-0.5"/>
<text text-anchor="middle" x="226.5" y="-7.5" font-family="Helvetica,sans-Serif" font-size="10.00">CO_Security_Login\is_god</text>
</a>
</g>
</g>
<!-- Node1&#45;&gt;Node5 -->
<g id="edge4" class="edge">
<title>Node1&#45;&gt;Node5</title>
<path fill="none" stroke="midnightblue" d="M122.42,-33.96C139.44,-30 157.79,-25.74 174.23,-21.92"/>
<polygon fill="midnightblue" stroke="midnightblue" points="175.24,-25.28 184.18,-19.6 173.65,-18.46 175.24,-25.28"/>
</g>
<!-- Node3 -->
<g id="node3" class="node">
<title>Node3</title>
<g id="a_node3"><a xlink:href="a00236.html#a2e644cc197709e85295026701e3a672e" target="_top" xlink:title=" ">
<polygon fill="white" stroke="black" points="331,-77 331,-107 466,-107 466,-77 331,-77"/>
<text text-anchor="start" x="339" y="-95" font-family="Helvetica,sans-Serif" font-size="10.00">CO_Cobra\_make_security</text>
<text text-anchor="middle" x="398.5" y="-84" font-family="Helvetica,sans-Serif" font-size="10.00">_token</text>
</a>
</g>
</g>
<!-- Node2&#45;&gt;Node3 -->
<g id="edge2" class="edge">
<title>Node2&#45;&gt;Node3</title>
<path fill="none" stroke="midnightblue" d="M286,-92C297.15,-92 308.96,-92 320.58,-92"/>
<polygon fill="midnightblue" stroke="midnightblue" points="320.71,-95.5 330.71,-92 320.71,-88.5 320.71,-95.5"/>
</g>
<!-- Node6 -->
<g id="node6" class="node">
<title>Node6</title>
<g id="a_node6"><a xlink:href="a00308.html#a78affe18a811930d4012fd265e95cdca" target="_top" xlink:title=" ">
<polygon fill="white" stroke="black" points="333.5,-0.5 333.5,-19.5 463.5,-19.5 463.5,-0.5 333.5,-0.5"/>
<text text-anchor="middle" x="398.5" y="-7.5" font-family="Helvetica,sans-Serif" font-size="10.00">A_CO_DB_Table_Base\id</text>
</a>
</g>
</g>
<!-- Node5&#45;&gt;Node6 -->
<g id="edge5" class="edge">
<title>Node5&#45;&gt;Node6</title>
<path fill="none" stroke="midnightblue" d="M293.23,-10C303,-10 313.14,-10 323.08,-10"/>
<polygon fill="midnightblue" stroke="midnightblue" points="323.35,-13.5 333.35,-10 323.35,-6.5 323.35,-13.5"/>
</g>
</g>
</svg>
