<?xml version="1.0" encoding="UTF-8" standalone="no"?>
<!DOCTYPE svg PUBLIC "-//W3C//DTD SVG 1.1//EN"
 "http://www.w3.org/Graphics/SVG/1.1/DTD/svg11.dtd">
<!-- Generated by graphviz version 2.47.1 (20210417.1919)
 -->
<!-- Title: CO_Place\geocode_long_lat Pages: 1 -->
<svg width="307pt" height="186pt"
 viewBox="0.00 0.00 307.00 186.00" xmlns="http://www.w3.org/2000/svg" xmlns:xlink="http://www.w3.org/1999/xlink">
<g id="graph0" class="graph" transform="scale(1 1) rotate(0) translate(4 182)">
<title>CO_Place\geocode_long_lat</title>
<polygon fill="white" stroke="transparent" points="-4,4 -4,-182 303,-182 303,4 -4,4"/>
<!-- Node1 -->
<g id="node1" class="node">
<title>Node1</title>
<g id="a_node1"><a xlink:title=" ">
<polygon fill="#bfbfbf" stroke="black" points="0,-79 0,-98 140,-98 140,-79 0,-79"/>
<text text-anchor="middle" x="70" y="-86" font-family="Helvetica,sans-Serif" font-size="10.00">CO_Place\geocode_long_lat</text>
</a>
</g>
</g>
<!-- Node2 -->
<g id="node2" class="node">
<title>Node2</title>
<g id="a_node2"><a xlink:href="a00260.html#a60b73dee76e98e806f4a872cca13ee58" target="_top" xlink:title=" ">
<polygon fill="white" stroke="black" points="176,-147.5 176,-177.5 299,-177.5 299,-147.5 176,-147.5"/>
<text text-anchor="start" x="184" y="-165.5" font-family="Helvetica,sans-Serif" font-size="10.00">CO_Place\_get_address</text>
<text text-anchor="middle" x="237.5" y="-154.5" font-family="Helvetica,sans-Serif" font-size="10.00">_element_labels</text>
</a>
</g>
</g>
<!-- Node1&#45;&gt;Node2 -->
<g id="edge1" class="edge">
<title>Node1&#45;&gt;Node2</title>
<path fill="none" stroke="midnightblue" d="M90.17,-98.11C111.09,-108.47 145.65,-125.27 176,-138.5 179.85,-140.18 183.85,-141.87 187.88,-143.54"/>
<polygon fill="midnightblue" stroke="midnightblue" points="186.71,-146.84 197.29,-147.39 189.36,-140.36 186.71,-146.84"/>
</g>
<!-- Node3 -->
<g id="node3" class="node">
<title>Node3</title>
<g id="a_node3"><a xlink:href="a00300.html#a56d54ef8e9ee5bf99897dbc4e09e7839" target="_top" xlink:title="This is a function that returns the results of an HTTP call to a URI. It is a lot more secure than fi...">
<polygon fill="white" stroke="black" points="181.5,-98.5 181.5,-128.5 293.5,-128.5 293.5,-98.5 181.5,-98.5"/>
<text text-anchor="start" x="189.5" y="-116.5" font-family="Helvetica,sans-Serif" font-size="10.00">CO_Chameleon_Utils</text>
<text text-anchor="middle" x="237.5" y="-105.5" font-family="Helvetica,sans-Serif" font-size="10.00">\call_curl</text>
</a>
</g>
</g>
<!-- Node1&#45;&gt;Node3 -->
<g id="edge2" class="edge">
<title>Node1&#45;&gt;Node3</title>
<path fill="none" stroke="midnightblue" d="M134.04,-98.02C146.24,-99.87 159.05,-101.8 171.33,-103.65"/>
<polygon fill="midnightblue" stroke="midnightblue" points="171.07,-107.16 181.48,-105.19 172.11,-100.23 171.07,-107.16"/>
</g>
<!-- Node4 -->
<g id="node4" class="node">
<title>Node4</title>
<g id="a_node4"><a xlink:href="a00332.html#a83a092abce1c1b6b4e886cc1adce9252" target="_top" xlink:title=" ">
<polygon fill="white" stroke="black" points="183.5,-49.5 183.5,-79.5 291.5,-79.5 291.5,-49.5 183.5,-49.5"/>
<text text-anchor="start" x="191.5" y="-67.5" font-family="Helvetica,sans-Serif" font-size="10.00">CO_LL_Location\raw</text>
<text text-anchor="middle" x="237.5" y="-56.5" font-family="Helvetica,sans-Serif" font-size="10.00">_latitude</text>
</a>
</g>
</g>
<!-- Node1&#45;&gt;Node4 -->
<g id="edge3" class="edge">
<title>Node1&#45;&gt;Node4</title>
<path fill="none" stroke="midnightblue" d="M136.89,-78.95C148.81,-77.22 161.22,-75.42 173.07,-73.7"/>
<polygon fill="midnightblue" stroke="midnightblue" points="173.92,-77.11 183.31,-72.21 172.91,-70.18 173.92,-77.11"/>
</g>
<!-- Node5 -->
<g id="node5" class="node">
<title>Node5</title>
<g id="a_node5"><a xlink:href="a00332.html#a390e80685e5bbdfb8b8d2988f9855f4a" target="_top" xlink:title=" ">
<polygon fill="white" stroke="black" points="183.5,-0.5 183.5,-30.5 291.5,-30.5 291.5,-0.5 183.5,-0.5"/>
<text text-anchor="start" x="191.5" y="-18.5" font-family="Helvetica,sans-Serif" font-size="10.00">CO_LL_Location\raw</text>
<text text-anchor="middle" x="237.5" y="-7.5" font-family="Helvetica,sans-Serif" font-size="10.00">_longitude</text>
</a>
</g>
</g>
<!-- Node1&#45;&gt;Node5 -->
<g id="edge4" class="edge">
<title>Node1&#45;&gt;Node5</title>
<path fill="none" stroke="midnightblue" d="M91.42,-78.89C112.51,-69.04 146.41,-53.37 176,-40.5 180.46,-38.56 185.11,-36.57 189.77,-34.61"/>
<polygon fill="midnightblue" stroke="midnightblue" points="191.42,-37.71 199.29,-30.62 188.72,-31.25 191.42,-37.71"/>
</g>
</g>
</svg>
