<?xml version="1.0" encoding="UTF-8" standalone="no"?>
<!DOCTYPE svg PUBLIC "-//W3C//DTD SVG 1.1//EN"
 "http://www.w3.org/Graphics/SVG/1.1/DTD/svg11.dtd">
<!-- Generated by graphviz version 2.47.1 (20210417.1919)
 -->
<!-- Title: CO_Andisol\_create_db_object Pages: 1 -->
<svg width="563pt" height="91pt"
 viewBox="0.00 0.00 563.00 90.50" xmlns="http://www.w3.org/2000/svg" xmlns:xlink="http://www.w3.org/1999/xlink">
<g id="graph0" class="graph" transform="scale(1 1) rotate(0) translate(4 86.5)">
<title>CO_Andisol\_create_db_object</title>
<polygon fill="white" stroke="transparent" points="-4,4 -4,-86.5 559,-86.5 559,4 -4,4"/>
<!-- Node1 -->
<g id="node1" class="node">
<title>Node1</title>
<g id="a_node1"><a xlink:title=" ">
<polygon fill="#bfbfbf" stroke="black" points="0,-52 0,-82 104,-82 104,-52 0,-52"/>
<text text-anchor="start" x="8" y="-70" font-family="Helvetica,sans-Serif" font-size="10.00">CO_Andisol\_create</text>
<text text-anchor="middle" x="52" y="-59" font-family="Helvetica,sans-Serif" font-size="10.00">_db_object</text>
</a>
</g>
</g>
<!-- Node2 -->
<g id="node2" class="node">
<title>Node2</title>
<g id="a_node2"><a xlink:href="a00216.html#acda267f1d6a8e496e167ed46fe590dc6" target="_top" xlink:title=" ">
<polygon fill="white" stroke="black" points="417,-33 417,-63 555,-63 555,-33 417,-33"/>
<text text-anchor="start" x="425" y="-51" font-family="Helvetica,sans-Serif" font-size="10.00">CO_Andisol\get_chameleon</text>
<text text-anchor="middle" x="486" y="-40" font-family="Helvetica,sans-Serif" font-size="10.00">_instance</text>
</a>
</g>
</g>
<!-- Node1&#45;&gt;Node2 -->
<g id="edge1" class="edge">
<title>Node1&#45;&gt;Node2</title>
<path fill="none" stroke="midnightblue" d="M104.25,-68.47C168.89,-69.81 283.41,-70.46 381,-62 389.35,-61.28 398.06,-60.36 406.72,-59.35"/>
<polygon fill="midnightblue" stroke="midnightblue" points="407.35,-62.8 416.85,-58.11 406.5,-55.85 407.35,-62.8"/>
</g>
<!-- Node3 -->
<g id="node3" class="node">
<title>Node3</title>
<g id="a_node3"><a xlink:href="a00216.html#ac2a2dcb99dc927789b0ffa09c24946de" target="_top" xlink:title=" ">
<polygon fill="white" stroke="black" points="140,-38.5 140,-57.5 253,-57.5 253,-38.5 140,-38.5"/>
<text text-anchor="middle" x="196.5" y="-45.5" font-family="Helvetica,sans-Serif" font-size="10.00">CO_Andisol\logged_in</text>
</a>
</g>
</g>
<!-- Node1&#45;&gt;Node3 -->
<g id="edge2" class="edge">
<title>Node1&#45;&gt;Node3</title>
<path fill="none" stroke="midnightblue" d="M104.04,-60.19C112.42,-59.08 121.21,-57.91 129.89,-56.75"/>
<polygon fill="midnightblue" stroke="midnightblue" points="130.54,-60.19 139.99,-55.4 129.61,-53.25 130.54,-60.19"/>
</g>
<!-- Node3&#45;&gt;Node2 -->
<g id="edge3" class="edge">
<title>Node3&#45;&gt;Node2</title>
<path fill="none" stroke="midnightblue" d="M253.27,-48C296.95,-48 358.23,-48 406.81,-48"/>
<polygon fill="midnightblue" stroke="midnightblue" points="406.97,-51.5 416.97,-48 406.97,-44.5 406.97,-51.5"/>
</g>
<!-- Node4 -->
<g id="node4" class="node">
<title>Node4</title>
<g id="a_node4"><a xlink:href="a00216.html#a4b0ec12b29ce4812cbb4169b68770f66" target="_top" xlink:title=" ">
<polygon fill="white" stroke="black" points="289,-0.5 289,-19.5 381,-19.5 381,-0.5 289,-0.5"/>
<text text-anchor="middle" x="335" y="-7.5" font-family="Helvetica,sans-Serif" font-size="10.00">CO_Andisol\valid</text>
</a>
</g>
</g>
<!-- Node3&#45;&gt;Node4 -->
<g id="edge4" class="edge">
<title>Node3&#45;&gt;Node4</title>
<path fill="none" stroke="midnightblue" d="M231.94,-38.41C249.48,-33.53 271.01,-27.54 289.76,-22.32"/>
<polygon fill="midnightblue" stroke="midnightblue" points="290.87,-25.64 299.57,-19.59 288.99,-18.9 290.87,-25.64"/>
</g>
<!-- Node4&#45;&gt;Node2 -->
<g id="edge5" class="edge">
<title>Node4&#45;&gt;Node2</title>
<path fill="none" stroke="midnightblue" d="M373.6,-19.59C386.49,-22.88 401.35,-26.67 415.93,-30.38"/>
<polygon fill="midnightblue" stroke="midnightblue" points="415.4,-33.86 425.95,-32.94 417.13,-27.08 415.4,-33.86"/>
</g>
</g>
</svg>
