<?xml version="1.0" encoding="UTF-8" standalone="no"?>
<!DOCTYPE svg PUBLIC "-//W3C//DTD SVG 1.1//EN"
 "http://www.w3.org/Graphics/SVG/1.1/DTD/svg11.dtd">
<!-- Generated by graphviz version 2.47.1 (20210417.1919)
 -->
<!-- Title: CO_User_Collection\set_tag Pages: 1 -->
<svg width="425pt" height="116pt"
 viewBox="0.00 0.00 425.00 115.50" xmlns="http://www.w3.org/2000/svg" xmlns:xlink="http://www.w3.org/1999/xlink">
<g id="graph0" class="graph" transform="scale(1 1) rotate(0) translate(4 111.5)">
<title>CO_User_Collection\set_tag</title>
<polygon fill="white" stroke="transparent" points="-4,4 -4,-111.5 421,-111.5 421,4 -4,4"/>
<!-- Node1 -->
<g id="node1" class="node">
<title>Node1</title>
<g id="a_node1"><a xlink:title=" ">
<polygon fill="#bfbfbf" stroke="black" points="0,-44.5 0,-74.5 107,-74.5 107,-44.5 0,-44.5"/>
<text text-anchor="start" x="8" y="-62.5" font-family="Helvetica,sans-Serif" font-size="10.00">CO_User_Collection</text>
<text text-anchor="middle" x="53.5" y="-51.5" font-family="Helvetica,sans-Serif" font-size="10.00">\set_tag</text>
</a>
</g>
</g>
<!-- Node2 -->
<g id="node2" class="node">
<title>Node2</title>
<g id="a_node2"><a xlink:href="a00280.html#a994648913ff9d5f7bb83640bd6239d44" target="_top" xlink:title=" ">
<polygon fill="white" stroke="black" points="147.5,-88 147.5,-107 257.5,-107 257.5,-88 147.5,-88"/>
<text text-anchor="middle" x="202.5" y="-95" font-family="Helvetica,sans-Serif" font-size="10.00">tCO_Collection\count</text>
</a>
</g>
</g>
<!-- Node1&#45;&gt;Node2 -->
<g id="edge1" class="edge">
<title>Node1&#45;&gt;Node2</title>
<path fill="none" stroke="midnightblue" d="M107.16,-73.11C122.55,-77.09 139.28,-81.41 154.31,-85.3"/>
<polygon fill="midnightblue" stroke="midnightblue" points="153.85,-88.8 164.41,-87.91 155.6,-82.02 153.85,-88.8"/>
</g>
<!-- Node3 -->
<g id="node3" class="node">
<title>Node3</title>
<g id="a_node3"><a xlink:href="a00308.html#a8780b40e55827b90bb441671faec2a05" target="_top" xlink:title=" ">
<polygon fill="white" stroke="black" points="298,-22.5 298,-52.5 417,-52.5 417,-22.5 298,-22.5"/>
<text text-anchor="start" x="306" y="-40.5" font-family="Helvetica,sans-Serif" font-size="10.00">A_CO_DB_Table_Base</text>
<text text-anchor="middle" x="357.5" y="-29.5" font-family="Helvetica,sans-Serif" font-size="10.00">\get_access_object</text>
</a>
</g>
</g>
<!-- Node1&#45;&gt;Node3 -->
<g id="edge2" class="edge">
<title>Node1&#45;&gt;Node3</title>
<path fill="none" stroke="midnightblue" d="M107.1,-55.67C157.22,-52.02 232.94,-46.5 287.8,-42.5"/>
<polygon fill="midnightblue" stroke="midnightblue" points="288.07,-45.99 297.79,-41.78 287.56,-39.01 288.07,-45.99"/>
</g>
<!-- Node4 -->
<g id="node4" class="node">
<title>Node4</title>
<g id="a_node4"><a xlink:href="a00308.html#a7d2537d7675ca572ad78096784fe4fe4" target="_top" xlink:title=" ">
<polygon fill="white" stroke="black" points="143,-0.5 143,-30.5 262,-30.5 262,-0.5 143,-0.5"/>
<text text-anchor="start" x="151" y="-18.5" font-family="Helvetica,sans-Serif" font-size="10.00">A_CO_DB_Table_Base</text>
<text text-anchor="middle" x="202.5" y="-7.5" font-family="Helvetica,sans-Serif" font-size="10.00">\user_can_write</text>
</a>
</g>
</g>
<!-- Node1&#45;&gt;Node4 -->
<g id="edge3" class="edge">
<title>Node1&#45;&gt;Node4</title>
<path fill="none" stroke="midnightblue" d="M104.68,-44.48C116.49,-40.94 129.2,-37.14 141.4,-33.49"/>
<polygon fill="midnightblue" stroke="midnightblue" points="142.47,-36.82 151.05,-30.6 140.47,-30.12 142.47,-36.82"/>
</g>
<!-- Node4&#45;&gt;Node3 -->
<g id="edge4" class="edge">
<title>Node4&#45;&gt;Node3</title>
<path fill="none" stroke="midnightblue" d="M262.22,-23.94C270.64,-25.15 279.36,-26.41 287.95,-27.64"/>
<polygon fill="midnightblue" stroke="midnightblue" points="287.54,-31.12 297.94,-29.08 288.54,-24.19 287.54,-31.12"/>
</g>
</g>
</svg>
