<?xml version="1.0" encoding="UTF-8" standalone="no"?>
<!DOCTYPE svg PUBLIC "-//W3C//DTD SVG 1.1//EN"
 "http://www.w3.org/Graphics/SVG/1.1/DTD/svg11.dtd">
<!-- Generated by graphviz version 2.40.1 (20161225.0304)
 -->
<!-- Title: CO_Andisol\_make_security_token Pages: 1 -->
<svg width="323pt" height="37pt"
 viewBox="0.00 0.00 322.77 37.00" xmlns="http://www.w3.org/2000/svg" xmlns:xlink="http://www.w3.org/1999/xlink">
<g id="graph0" class="graph" transform="scale(1 1) rotate(0) translate(4 33)">
<title>CO_Andisol\_make_security_token</title>
<polygon fill="#ffffff" stroke="transparent" points="-4,4 -4,-33 318.7725,-33 318.7725,4 -4,4"/>
<!-- Node21 -->
<g id="node1" class="node">
<title>Node21</title>
<polygon fill="#bfbfbf" stroke="#000000" points="0,-.5 0,-28.5 142.167,-28.5 142.167,-.5 0,-.5"/>
<text text-anchor="start" x="8" y="-16.5" font-family="Helvetica,sans-Serif" font-size="10.00" fill="#000000">CO_Andisol\_make_security</text>
<text text-anchor="middle" x="71.0835" y="-6.5" font-family="Helvetica,sans-Serif" font-size="10.00" fill="#000000">_token</text>
</g>
<!-- Node22 -->
<g id="node2" class="node">
<title>Node22</title>
<g id="a_node2"><a xlink:href="a00219.html#ad0ac8fb3000239301a9f2be905c1a124" target="_top" xlink:title="CO_Andisol\\make_security\l_token">
<polygon fill="#ffffff" stroke="#000000" points="178.167,-.5 178.167,-28.5 314.7725,-28.5 314.7725,-.5 178.167,-.5"/>
<text text-anchor="start" x="186.167" y="-16.5" font-family="Helvetica,sans-Serif" font-size="10.00" fill="#000000">CO_Andisol\make_security</text>
<text text-anchor="middle" x="246.4697" y="-6.5" font-family="Helvetica,sans-Serif" font-size="10.00" fill="#000000">_token</text>
</a>
</g>
</g>
<!-- Node21&#45;&gt;Node22 -->
<g id="edge1" class="edge">
<title>Node21&#45;&gt;Node22</title>
<path fill="none" stroke="#191970" d="M152.6983,-14.5C161.1734,-14.5 169.7245,-14.5 178.033,-14.5"/>
<polygon fill="#191970" stroke="#191970" points="152.4198,-11.0001 142.4198,-14.5 152.4198,-18.0001 152.4198,-11.0001"/>
</g>
</g>
</svg>
