<?xml version="1.0" encoding="UTF-8" standalone="no"?>
<!DOCTYPE svg PUBLIC "-//W3C//DTD SVG 1.1//EN"
 "http://www.w3.org/Graphics/SVG/1.1/DTD/svg11.dtd">
<!-- Generated by graphviz version 2.40.1 (20161225.0304)
 -->
<!-- Title: CO_Chameleon\get_user_from_login Pages: 1 -->
<!--zoomable 69 -->
<svg id="main" version="1.1" xmlns="http://www.w3.org/2000/svg" xmlns:xlink="http://www.w3.org/1999/xlink" xml:space="preserve" onload="init(evt)">
<style type="text/css"><![CDATA[
.edge:hover path { stroke: red; }
.edge:hover polygon { stroke: red; fill: red; }
]]></style>
<script type="text/javascript"><![CDATA[
var edges = document.getElementsByTagName('g');
if (edges && edges.length) {
  for (var i=0;i<edges.length;i++) {
    if (edges[i].id.substr(0,4)=='edge') {
      edges[i].setAttribute('class','edge');
    }
  }
}
]]></script>
        <defs>
                <circle id="rim" cx="0" cy="0" r="7"/>
                <circle id="rim2" cx="0" cy="0" r="3.5"/>
                <g id="zoomPlus">
                        <use xlink:href="#rim" fill="#404040">
                                <set attributeName="fill" to="#808080" begin="zoomplus.mouseover" end="zoomplus.mouseout"/>
                        </use>
                        <path d="M-4,0h8M0,-4v8" fill="none" stroke="white" stroke-width="1.5" pointer-events="none"/>
                </g>
                <g id="zoomMin">
                        <use xlink:href="#rim" fill="#404040">
                                <set attributeName="fill" to="#808080" begin="zoomminus.mouseover" end="zoomminus.mouseout"/>
                        </use>
                        <path d="M-4,0h8" fill="none" stroke="white" stroke-width="1.5" pointer-events="none"/>
                </g>
                <g id="dirArrow">
                        <path fill="none" stroke="white" stroke-width="1.5" d="M0,-3.0v7 M-2.5,-0.5L0,-3.0L2.5,-0.5"/>
                </g>
               <g id="resetDef">
                       <use xlink:href="#rim2" fill="#404040">
                               <set attributeName="fill" to="#808080" begin="reset.mouseover" end="reset.mouseout"/>
                       </use>
               </g>
        </defs>

<script type="text/javascript">
var viewWidth = 630;
var viewHeight = 69;
var sectionId = 'dynsection-6';
</script>
<script xlink:href="svgpan.js"/>
<svg id="graph" class="graph">
<g id="viewport">
<title>CO_Chameleon\get_user_from_login</title>
<polygon fill="#ffffff" stroke="transparent" points="-4,4 -4,-65 626.2246,-65 626.2246,4 -4,4"/>
<!-- Node21 -->
<g id="node1" class="node">
<title>Node21</title>
<polygon fill="#bfbfbf" stroke="#000000" points="0,-18.5 0,-46.5 129.3984,-46.5 129.3984,-18.5 0,-18.5"/>
<text text-anchor="start" x="8" y="-34.5" font-family="Helvetica,sans-Serif" font-size="10.00" fill="#000000">CO_Chameleon\get_user</text>
<text text-anchor="middle" x="64.6992" y="-24.5" font-family="Helvetica,sans-Serif" font-size="10.00" fill="#000000">_from_login</text>
</g>
<!-- Node22 -->
<g id="node2" class="node">
<title>Node22</title>
<g id="a_node2"><a xlink:href="a00355.html#a18733db78e2a4cfe35c7a7a41e2f2072" target="_top" xlink:title="CO_Access\\generic_search">
<polygon fill="#ffffff" stroke="#000000" points="165.3984,-42.5 165.3984,-60.5 305.3438,-60.5 305.3438,-42.5 165.3984,-42.5"/>
<text text-anchor="middle" x="235.3711" y="-48.5" font-family="Helvetica,sans-Serif" font-size="10.00" fill="#000000">CO_Access\generic_search</text>
</a>
</g>
</g>
<!-- Node21&#45;&gt;Node22 -->
<g id="edge1" class="edge">
<title>Node21&#45;&gt;Node22</title>
<path fill="none" stroke="#191970" d="M129.7098,-39.7373C138.0379,-40.6644 146.6403,-41.6221 155.1738,-42.5721"/>
<polygon fill="#191970" stroke="#191970" points="154.8134,-46.0535 165.1393,-43.6815 155.588,-39.0965 154.8134,-46.0535"/>
</g>
<!-- Node23 -->
<g id="node3" class="node">
<title>Node23</title>
<g id="a_node3"><a xlink:href="a00355.html#adbc6444fbac916f3a280f4a3ce4f067a" target="_top" xlink:title="CO_Access\\get_login_id">
<polygon fill="#ffffff" stroke="#000000" points="172.6177,-5.5 172.6177,-23.5 298.1245,-23.5 298.1245,-5.5 172.6177,-5.5"/>
<text text-anchor="middle" x="235.3711" y="-11.5" font-family="Helvetica,sans-Serif" font-size="10.00" fill="#000000">CO_Access\get_login_id</text>
</a>
</g>
</g>
<!-- Node21&#45;&gt;Node23 -->
<g id="edge2" class="edge">
<title>Node21&#45;&gt;Node23</title>
<path fill="none" stroke="#191970" d="M129.7098,-25.6436C140.3466,-24.5218 151.4308,-23.3528 162.2476,-22.212"/>
<polygon fill="#191970" stroke="#191970" points="162.9355,-25.659 172.5132,-21.1293 162.2012,-18.6976 162.9355,-25.659"/>
</g>
<!-- Node24 -->
<g id="node4" class="node">
<title>Node24</title>
<g id="a_node4"><a xlink:href="a00355.html#aeab406fa4ecc249662fa1e2e073341b2" target="_top" xlink:title="CO_Access\\get_single\l_security_record_by_id">
<polygon fill="#ffffff" stroke="#000000" points="341.3438,-.5 341.3438,-28.5 460.7324,-28.5 460.7324,-.5 341.3438,-.5"/>
<text text-anchor="start" x="349.3438" y="-16.5" font-family="Helvetica,sans-Serif" font-size="10.00" fill="#000000">CO_Access\get_single</text>
<text text-anchor="middle" x="401.0381" y="-6.5" font-family="Helvetica,sans-Serif" font-size="10.00" fill="#000000">_security_record_by_id</text>
</a>
</g>
</g>
<!-- Node23&#45;&gt;Node24 -->
<g id="edge3" class="edge">
<title>Node23&#45;&gt;Node24</title>
<path fill="none" stroke="#191970" d="M298.4753,-14.5C309.0773,-14.5 320.1373,-14.5 330.904,-14.5"/>
<polygon fill="#191970" stroke="#191970" points="331.1124,-18.0001 341.1123,-14.5 331.1123,-11.0001 331.1124,-18.0001"/>
</g>
<!-- Node25 -->
<g id="node5" class="node">
<title>Node25</title>
<g id="a_node5"><a xlink:href="a00355.html#a34c23aea84d5c32e600c512167c3497d" target="_top" xlink:title="CO_Access\\get_multiple\l_security_records_by_id">
<polygon fill="#ffffff" stroke="#000000" points="496.7324,-.5 496.7324,-28.5 622.2246,-28.5 622.2246,-.5 496.7324,-.5"/>
<text text-anchor="start" x="504.7324" y="-16.5" font-family="Helvetica,sans-Serif" font-size="10.00" fill="#000000">CO_Access\get_multiple</text>
<text text-anchor="middle" x="559.4785" y="-6.5" font-family="Helvetica,sans-Serif" font-size="10.00" fill="#000000">_security_records_by_id</text>
</a>
</g>
</g>
<!-- Node24&#45;&gt;Node25 -->
<g id="edge4" class="edge">
<title>Node24&#45;&gt;Node25</title>
<path fill="none" stroke="#191970" d="M460.9376,-14.5C469.3147,-14.5 477.9987,-14.5 486.5831,-14.5"/>
<polygon fill="#191970" stroke="#191970" points="486.5902,-18.0001 496.5902,-14.5 486.5902,-11.0001 486.5902,-18.0001"/>
</g>
</g>
</svg>
        <g id="navigator" transform="translate(0 0)" fill="#404254">
                <rect fill="#f2f5e9" fill-opacity="0.5" stroke="#606060" stroke-width=".5" x="0" y="0" width="60" height="60"/>
                <use id="zoomplus" xlink:href="#zoomPlus" x="17" y="9" onmousedown="handleZoom(evt,'in')"/>
                <use id="zoomminus" xlink:href="#zoomMin" x="42" y="9" onmousedown="handleZoom(evt,'out')"/>
                <use id="reset" xlink:href="#resetDef" x="30" y="36" onmousedown="handleReset()"/>
                <g id="arrowUp" xlink:href="#dirArrow" transform="translate(30 24)" onmousedown="handlePan(0,-1)">
                  <use xlink:href="#rim" fill="#404040">
                        <set attributeName="fill" to="#808080" begin="arrowUp.mouseover" end="arrowUp.mouseout"/>
                  </use>
                  <path fill="none" stroke="white" stroke-width="1.5" d="M0,-3.0v7 M-2.5,-0.5L0,-3.0L2.5,-0.5"/>
                </g>
                <g id="arrowRight" xlink:href="#dirArrow" transform="rotate(90) translate(36 -43)" onmousedown="handlePan(1,0)">
                  <use xlink:href="#rim" fill="#404040">
                        <set attributeName="fill" to="#808080" begin="arrowRight.mouseover" end="arrowRight.mouseout"/>
                  </use>
                  <path fill="none" stroke="white" stroke-width="1.5" d="M0,-3.0v7 M-2.5,-0.5L0,-3.0L2.5,-0.5"/>
                </g>
                <g id="arrowDown" xlink:href="#dirArrow" transform="rotate(180) translate(-30 -48)" onmousedown="handlePan(0,1)">
                  <use xlink:href="#rim" fill="#404040">
                        <set attributeName="fill" to="#808080" begin="arrowDown.mouseover" end="arrowDown.mouseout"/>
                  </use>
                  <path fill="none" stroke="white" stroke-width="1.5" d="M0,-3.0v7 M-2.5,-0.5L0,-3.0L2.5,-0.5"/>
                </g>
                <g id="arrowLeft" xlink:href="#dirArrow" transform="rotate(270) translate(-36 17)" onmousedown="handlePan(-1,0)">
                  <use xlink:href="#rim" fill="#404040">
                        <set attributeName="fill" to="#808080" begin="arrowLeft.mouseover" end="arrowLeft.mouseout"/>
                  </use>
                  <path fill="none" stroke="white" stroke-width="1.5" d="M0,-3.0v7 M-2.5,-0.5L0,-3.0L2.5,-0.5"/>
                </g>
        </g>
        <svg viewBox="0 0 15 15" width="100%" height="30px" preserveAspectRatio="xMaxYMin meet">
         <g id="arrow_out" transform="scale(0.3 0.3)">
          <a xlink:href="a00299_a88b451020a7174eeb0c06e216ca517cf_cgraph_org.svg" target="_base">
           <rect id="button" ry="5" rx="5" y="6" x="6" height="38" width="38"
                fill="#f2f5e9" fill-opacity="0.5" stroke="#606060" stroke-width="1.0"/>
           <path id="arrow"
             d="M 11.500037,31.436501 C 11.940474,20.09759 22.043105,11.32322 32.158766,21.979434 L 37.068811,17.246167 C 37.068811,17.246167 37.088388,32 37.088388,32 L 22.160133,31.978069 C 22.160133,31.978069 26.997745,27.140456 26.997745,27.140456 C 18.528582,18.264221 13.291696,25.230495 11.500037,31.436501 z"
             style="fill:#404040;"/>
          </a>
         </g>
        </svg>
</svg>
