<?xml version="1.0" encoding="UTF-8" standalone="no"?>
<!DOCTYPE svg PUBLIC "-//W3C//DTD SVG 1.1//EN"
 "http://www.w3.org/Graphics/SVG/1.1/DTD/svg11.dtd">
<!-- Generated by graphviz version 2.40.1 (20161225.0304)
 -->
<!-- Title: CO_Andisol\check_login_exists_by_login_string Pages: 1 -->
<svg width="309pt" height="37pt"
 viewBox="0.00 0.00 309.47 37.00" xmlns="http://www.w3.org/2000/svg" xmlns:xlink="http://www.w3.org/1999/xlink">
<g id="graph0" class="graph" transform="scale(1 1) rotate(0) translate(4 33)">
<title>CO_Andisol\check_login_exists_by_login_string</title>
<polygon fill="#ffffff" stroke="transparent" points="-4,4 -4,-33 305.4717,-33 305.4717,4 -4,4"/>
<!-- Node1 -->
<g id="node1" class="node">
<title>Node1</title>
<g id="a_node1"><a xlink:title=" ">
<polygon fill="#bfbfbf" stroke="#000000" points="0,-.5 0,-28.5 124.9502,-28.5 124.9502,-.5 0,-.5"/>
<text text-anchor="start" x="8" y="-16.5" font-family="Helvetica,sans-Serif" font-size="10.00" fill="#000000">CO_Andisol\check_login</text>
<text text-anchor="middle" x="62.4751" y="-6.5" font-family="Helvetica,sans-Serif" font-size="10.00" fill="#000000">_exists_by_login_string</text>
</a>
</g>
</g>
<!-- Node2 -->
<g id="node2" class="node">
<title>Node2</title>
<g id="a_node2"><a xlink:href="a00219.html#acda267f1d6a8e496e167ed46fe590dc6" target="_top" xlink:title=" ">
<polygon fill="#ffffff" stroke="#000000" points="160.9502,-.5 160.9502,-28.5 301.4717,-28.5 301.4717,-.5 160.9502,-.5"/>
<text text-anchor="start" x="168.9502" y="-16.5" font-family="Helvetica,sans-Serif" font-size="10.00" fill="#000000">CO_Andisol\get_chameleon</text>
<text text-anchor="middle" x="231.2109" y="-6.5" font-family="Helvetica,sans-Serif" font-size="10.00" fill="#000000">_instance</text>
</a>
</g>
</g>
<!-- Node1&#45;&gt;Node2 -->
<g id="edge1" class="edge">
<title>Node1&#45;&gt;Node2</title>
<path fill="none" stroke="#191970" d="M125.3061,-14.5C133.657,-14.5 142.3097,-14.5 150.906,-14.5"/>
<polygon fill="#191970" stroke="#191970" points="150.9499,-18.0001 160.9499,-14.5 150.9498,-11.0001 150.9499,-18.0001"/>
</g>
</g>
</svg>
