<?xml version="1.0" encoding="UTF-8" standalone="no"?>
<!DOCTYPE svg PUBLIC "-//W3C//DTD SVG 1.1//EN"
 "http://www.w3.org/Graphics/SVG/1.1/DTD/svg11.dtd">
<!-- Generated by graphviz version 2.47.1 (20210417.1919)
 -->
<!-- Title: CO_User_Collection\set_login Pages: 1 -->
<svg width="568pt" height="121pt"
 viewBox="0.00 0.00 568.00 121.00" xmlns="http://www.w3.org/2000/svg" xmlns:xlink="http://www.w3.org/1999/xlink">
<g id="graph0" class="graph" transform="scale(1 1) rotate(0) translate(4 117)">
<title>CO_User_Collection\set_login</title>
<polygon fill="white" stroke="transparent" points="-4,4 -4,-117 564,-117 564,4 -4,4"/>
<!-- Node1 -->
<g id="node1" class="node">
<title>Node1</title>
<g id="a_node1"><a xlink:title=" ">
<polygon fill="#bfbfbf" stroke="black" points="0,-82.5 0,-112.5 107,-112.5 107,-82.5 0,-82.5"/>
<text text-anchor="start" x="8" y="-100.5" font-family="Helvetica,sans-Serif" font-size="10.00">CO_User_Collection</text>
<text text-anchor="middle" x="53.5" y="-89.5" font-family="Helvetica,sans-Serif" font-size="10.00">\set_login</text>
</a>
</g>
</g>
<!-- Node2 -->
<g id="node2" class="node">
<title>Node2</title>
<g id="a_node2"><a xlink:href="a00308.html#a8780b40e55827b90bb441671faec2a05" target="_top" xlink:title=" ">
<polygon fill="white" stroke="black" points="441,-82.5 441,-112.5 560,-112.5 560,-82.5 441,-82.5"/>
<text text-anchor="start" x="449" y="-100.5" font-family="Helvetica,sans-Serif" font-size="10.00">A_CO_DB_Table_Base</text>
<text text-anchor="middle" x="500.5" y="-89.5" font-family="Helvetica,sans-Serif" font-size="10.00">\get_access_object</text>
</a>
</g>
</g>
<!-- Node1&#45;&gt;Node2 -->
<g id="edge1" class="edge">
<title>Node1&#45;&gt;Node2</title>
<path fill="none" stroke="midnightblue" d="M107.37,-99.59C119.1,-99.97 131.47,-100.3 143,-100.5 259.43,-102.47 288.57,-101.11 405,-99.5 413.31,-99.39 422.04,-99.24 430.69,-99.07"/>
<polygon fill="midnightblue" stroke="midnightblue" points="430.85,-102.57 440.77,-98.88 430.71,-95.57 430.85,-102.57"/>
</g>
<!-- Node3 -->
<g id="node3" class="node">
<title>Node3</title>
<g id="a_node3"><a xlink:href="a00276.html#a9410d46a4cd780a042c738912e11a27d" target="_top" xlink:title=" ">
<polygon fill="white" stroke="black" points="143,-60.5 143,-90.5 250,-90.5 250,-60.5 143,-60.5"/>
<text text-anchor="start" x="151" y="-78.5" font-family="Helvetica,sans-Serif" font-size="10.00">CO_User_Collection</text>
<text text-anchor="middle" x="196.5" y="-67.5" font-family="Helvetica,sans-Serif" font-size="10.00">\set_tag</text>
</a>
</g>
</g>
<!-- Node1&#45;&gt;Node3 -->
<g id="edge2" class="edge">
<title>Node1&#45;&gt;Node3</title>
<path fill="none" stroke="midnightblue" d="M107,-89.31C115.44,-87.99 124.26,-86.62 132.9,-85.27"/>
<polygon fill="midnightblue" stroke="midnightblue" points="133.61,-88.7 142.95,-83.7 132.53,-81.78 133.61,-88.7"/>
</g>
<!-- Node3&#45;&gt;Node2 -->
<g id="edge4" class="edge">
<title>Node3&#45;&gt;Node2</title>
<path fill="none" stroke="midnightblue" d="M250.1,-79.33C300.22,-82.98 375.94,-88.5 430.8,-92.5"/>
<polygon fill="midnightblue" stroke="midnightblue" points="430.56,-95.99 440.79,-93.22 431.07,-89.01 430.56,-95.99"/>
</g>
<!-- Node4 -->
<g id="node4" class="node">
<title>Node4</title>
<g id="a_node4"><a xlink:href="a00280.html#a994648913ff9d5f7bb83640bd6239d44" target="_top" xlink:title=" ">
<polygon fill="white" stroke="black" points="290.5,-50 290.5,-69 400.5,-69 400.5,-50 290.5,-50"/>
<text text-anchor="middle" x="345.5" y="-57" font-family="Helvetica,sans-Serif" font-size="10.00">tCO_Collection\count</text>
</a>
</g>
</g>
<!-- Node3&#45;&gt;Node4 -->
<g id="edge3" class="edge">
<title>Node3&#45;&gt;Node4</title>
<path fill="none" stroke="midnightblue" d="M250.16,-69.77C259.92,-68.71 270.21,-67.59 280.28,-66.49"/>
<polygon fill="midnightblue" stroke="midnightblue" points="280.67,-69.97 290.23,-65.41 279.91,-63.01 280.67,-69.97"/>
</g>
<!-- Node5 -->
<g id="node5" class="node">
<title>Node5</title>
<g id="a_node5"><a xlink:href="a00308.html#a7d2537d7675ca572ad78096784fe4fe4" target="_top" xlink:title=" ">
<polygon fill="white" stroke="black" points="286,-0.5 286,-30.5 405,-30.5 405,-0.5 286,-0.5"/>
<text text-anchor="start" x="294" y="-18.5" font-family="Helvetica,sans-Serif" font-size="10.00">A_CO_DB_Table_Base</text>
<text text-anchor="middle" x="345.5" y="-7.5" font-family="Helvetica,sans-Serif" font-size="10.00">\user_can_write</text>
</a>
</g>
</g>
<!-- Node3&#45;&gt;Node5 -->
<g id="edge5" class="edge">
<title>Node3&#45;&gt;Node5</title>
<path fill="none" stroke="midnightblue" d="M234.59,-60.36C253.91,-52.48 277.7,-42.76 298.21,-34.39"/>
<polygon fill="midnightblue" stroke="midnightblue" points="299.74,-37.55 307.67,-30.53 297.09,-31.07 299.74,-37.55"/>
</g>
<!-- Node5&#45;&gt;Node2 -->
<g id="edge6" class="edge">
<title>Node5&#45;&gt;Node2</title>
<path fill="none" stroke="midnightblue" d="M383.99,-30.61C391.05,-33.71 398.32,-37.08 405,-40.5 426.35,-51.43 449.41,-65.3 467.41,-76.62"/>
<polygon fill="midnightblue" stroke="midnightblue" points="466.01,-79.88 476.33,-82.28 469.76,-73.97 466.01,-79.88"/>
</g>
</g>
</svg>
