<?xml version="1.0" encoding="UTF-8" standalone="no"?>
<!DOCTYPE svg PUBLIC "-//W3C//DTD SVG 1.1//EN"
 "http://www.w3.org/Graphics/SVG/1.1/DTD/svg11.dtd">
<!-- Generated by graphviz version 2.40.1 (20161225.0304)
 -->
<!-- Title: CO_Andisol\create_ll_location Pages: 1 -->
<svg width="891pt" height="89pt"
 viewBox="0.00 0.00 891.02 89.00" xmlns="http://www.w3.org/2000/svg" xmlns:xlink="http://www.w3.org/1999/xlink">
<g id="graph0" class="graph" transform="scale(1 1) rotate(0) translate(4 85)">
<title>CO_Andisol\create_ll_location</title>
<polygon fill="#ffffff" stroke="transparent" points="-4,4 -4,-85 887.0166,-85 887.0166,4 -4,4"/>
<!-- Node1 -->
<g id="node1" class="node">
<title>Node1</title>
<g id="a_node1"><a xlink:title=" ">
<polygon fill="#bfbfbf" stroke="#000000" points="0,-52.5 0,-80.5 109.9355,-80.5 109.9355,-52.5 0,-52.5"/>
<text text-anchor="start" x="8" y="-68.5" font-family="Helvetica,sans-Serif" font-size="10.00" fill="#000000">CO_Andisol\create_ll</text>
<text text-anchor="middle" x="54.9678" y="-58.5" font-family="Helvetica,sans-Serif" font-size="10.00" fill="#000000">_location</text>
</a>
</g>
</g>
<!-- Node2 -->
<g id="node2" class="node">
<title>Node2</title>
<g id="a_node2"><a xlink:href="a00216.html#a1783b1403b768959f80f17b08a5e8f82" target="_top" xlink:title=" ">
<polygon fill="#ffffff" stroke="#000000" points="145.9355,-52.5 145.9355,-80.5 284.7871,-80.5 284.7871,-52.5 145.9355,-52.5"/>
<text text-anchor="start" x="153.9355" y="-68.5" font-family="Helvetica,sans-Serif" font-size="10.00" fill="#000000">CO_Andisol\create_general</text>
<text text-anchor="middle" x="215.3613" y="-58.5" font-family="Helvetica,sans-Serif" font-size="10.00" fill="#000000">_data_item</text>
</a>
</g>
</g>
<!-- Node1&#45;&gt;Node2 -->
<g id="edge1" class="edge">
<title>Node1&#45;&gt;Node2</title>
<path fill="none" stroke="#191970" d="M110.1661,-66.5C118.4378,-66.5 127.1037,-66.5 135.7604,-66.5"/>
<polygon fill="#191970" stroke="#191970" points="135.8941,-70.0001 145.8941,-66.5 135.894,-63.0001 135.8941,-70.0001"/>
</g>
<!-- Node3 -->
<g id="node3" class="node">
<title>Node3</title>
<g id="a_node3"><a xlink:href="a00216.html#a190232857416d5f1e7033452ac1bf6c0" target="_top" xlink:title=" ">
<polygon fill="#ffffff" stroke="#000000" points="320.7871,-52.5 320.7871,-80.5 426.2793,-80.5 426.2793,-52.5 320.7871,-52.5"/>
<text text-anchor="start" x="328.7871" y="-68.5" font-family="Helvetica,sans-Serif" font-size="10.00" fill="#000000">CO_Andisol\_create</text>
<text text-anchor="middle" x="373.5332" y="-58.5" font-family="Helvetica,sans-Serif" font-size="10.00" fill="#000000">_db_object</text>
</a>
</g>
</g>
<!-- Node2&#45;&gt;Node3 -->
<g id="edge2" class="edge">
<title>Node2&#45;&gt;Node3</title>
<path fill="none" stroke="#191970" d="M285.1982,-66.5C293.6706,-66.5 302.2865,-66.5 310.6498,-66.5"/>
<polygon fill="#191970" stroke="#191970" points="310.6994,-70.0001 320.6993,-66.5 310.6993,-63.0001 310.6994,-70.0001"/>
</g>
<!-- Node4 -->
<g id="node4" class="node">
<title>Node4</title>
<g id="a_node4"><a xlink:href="a00216.html#acda267f1d6a8e496e167ed46fe590dc6" target="_top" xlink:title=" ">
<polygon fill="#ffffff" stroke="#000000" points="742.4951,-33.5 742.4951,-61.5 883.0166,-61.5 883.0166,-33.5 742.4951,-33.5"/>
<text text-anchor="start" x="750.4951" y="-49.5" font-family="Helvetica,sans-Serif" font-size="10.00" fill="#000000">CO_Andisol\get_chameleon</text>
<text text-anchor="middle" x="812.7559" y="-39.5" font-family="Helvetica,sans-Serif" font-size="10.00" fill="#000000">_instance</text>
</a>
</g>
</g>
<!-- Node3&#45;&gt;Node4 -->
<g id="edge3" class="edge">
<title>Node3&#45;&gt;Node4</title>
<path fill="none" stroke="#191970" d="M426.4125,-67.9796C492.1836,-69.2969 607.8481,-69.8966 706.4951,-61.5 714.8238,-60.7911 723.5015,-59.8999 732.1493,-58.9122"/>
<polygon fill="#191970" stroke="#191970" points="732.7459,-62.3661 742.2645,-57.7135 731.9221,-55.4147 732.7459,-62.3661"/>
</g>
<!-- Node5 -->
<g id="node5" class="node">
<title>Node5</title>
<g id="a_node5"><a xlink:href="a00216.html#ac2a2dcb99dc927789b0ffa09c24946de" target="_top" xlink:title=" ">
<polygon fill="#ffffff" stroke="#000000" points="462.2793,-38.5 462.2793,-56.5 577.791,-56.5 577.791,-38.5 462.2793,-38.5"/>
<text text-anchor="middle" x="520.0352" y="-44.5" font-family="Helvetica,sans-Serif" font-size="10.00" fill="#000000">CO_Andisol\logged_in</text>
</a>
</g>
</g>
<!-- Node3&#45;&gt;Node5 -->
<g id="edge4" class="edge">
<title>Node3&#45;&gt;Node5</title>
<path fill="none" stroke="#191970" d="M426.4238,-59.6406C434.7889,-58.5557 443.5387,-57.4209 452.1876,-56.2992"/>
<polygon fill="#191970" stroke="#191970" points="452.7984,-59.7494 462.2652,-54.9923 451.898,-52.8075 452.7984,-59.7494"/>
</g>
<!-- Node5&#45;&gt;Node4 -->
<g id="edge5" class="edge">
<title>Node5&#45;&gt;Node4</title>
<path fill="none" stroke="#191970" d="M577.8673,-47.5C621.9664,-47.5 683.2411,-47.5 732.1492,-47.5"/>
<polygon fill="#191970" stroke="#191970" points="732.3874,-51.0001 742.3874,-47.5 732.3873,-44.0001 732.3874,-51.0001"/>
</g>
<!-- Node6 -->
<g id="node6" class="node">
<title>Node6</title>
<g id="a_node6"><a xlink:href="a00216.html#a4b0ec12b29ce4812cbb4169b68770f66" target="_top" xlink:title=" ">
<polygon fill="#ffffff" stroke="#000000" points="613.791,-.5 613.791,-18.5 706.4951,-18.5 706.4951,-.5 613.791,-.5"/>
<text text-anchor="middle" x="660.1431" y="-6.5" font-family="Helvetica,sans-Serif" font-size="10.00" fill="#000000">CO_Andisol\valid</text>
</a>
</g>
</g>
<!-- Node5&#45;&gt;Node6 -->
<g id="edge6" class="edge">
<title>Node5&#45;&gt;Node6</title>
<path fill="none" stroke="#191970" d="M553.2388,-38.4945C572.2933,-33.3266 596.4325,-26.7795 616.9494,-21.215"/>
<polygon fill="#191970" stroke="#191970" points="617.9571,-24.5682 626.6922,-18.5725 616.1247,-17.8123 617.9571,-24.5682"/>
</g>
<!-- Node6&#45;&gt;Node4 -->
<g id="edge7" class="edge">
<title>Node6&#45;&gt;Node4</title>
<path fill="none" stroke="#191970" d="M696.3102,-18.5055C711.2678,-22.2299 729.1019,-26.6705 746.2628,-30.9435"/>
<polygon fill="#191970" stroke="#191970" points="745.7128,-34.4133 756.2622,-33.4333 747.4042,-27.6207 745.7128,-34.4133"/>
</g>
</g>
</svg>
