<?xml version="1.0" encoding="UTF-8" standalone="no"?>
<!DOCTYPE svg PUBLIC "-//W3C//DTD SVG 1.1//EN"
 "http://www.w3.org/Graphics/SVG/1.1/DTD/svg11.dtd">
<!-- Generated by graphviz version 2.40.1 (20161225.0304)
 -->
<!-- Title: CO_User_Collection\load_from_db Pages: 1 -->
<svg width="256pt" height="37pt"
 viewBox="0.00 0.00 256.08 37.00" xmlns="http://www.w3.org/2000/svg" xmlns:xlink="http://www.w3.org/1999/xlink">
<g id="graph0" class="graph" transform="scale(1 1) rotate(0) translate(4 33)">
<title>CO_User_Collection\load_from_db</title>
<polygon fill="#ffffff" stroke="transparent" points="-4,4 -4,-33 252.0781,-33 252.0781,4 -4,4"/>
<!-- Node66 -->
<g id="node1" class="node">
<title>Node66</title>
<polygon fill="#bfbfbf" stroke="#000000" points="0,-.5 0,-28.5 107.1475,-28.5 107.1475,-.5 0,-.5"/>
<text text-anchor="start" x="8" y="-16.5" font-family="Helvetica,sans-Serif" font-size="10.00" fill="#000000">CO_User_Collection</text>
<text text-anchor="middle" x="53.5737" y="-6.5" font-family="Helvetica,sans-Serif" font-size="10.00" fill="#000000">\load_from_db</text>
</g>
<!-- Node67 -->
<g id="node2" class="node">
<title>Node67</title>
<g id="a_node2"><a xlink:href="a00283.html#a75c2f38ec2411f21f1c60ca591482e9c" target="_top" xlink:title="tCO_Collection\\_set\l_up_container">
<polygon fill="#ffffff" stroke="#000000" points="143.1475,-.5 143.1475,-28.5 248.0781,-28.5 248.0781,-.5 143.1475,-.5"/>
<text text-anchor="start" x="151.1475" y="-16.5" font-family="Helvetica,sans-Serif" font-size="10.00" fill="#000000">tCO_Collection\_set</text>
<text text-anchor="middle" x="195.6128" y="-6.5" font-family="Helvetica,sans-Serif" font-size="10.00" fill="#000000">_up_container</text>
</a>
</g>
</g>
<!-- Node66&#45;&gt;Node67 -->
<g id="edge1" class="edge">
<title>Node66&#45;&gt;Node67</title>
<path fill="none" stroke="#191970" d="M107.2726,-14.5C115.5386,-14.5 124.1381,-14.5 132.5848,-14.5"/>
<polygon fill="#191970" stroke="#191970" points="132.7795,-18.0001 142.7795,-14.5 132.7794,-11.0001 132.7795,-18.0001"/>
</g>
</g>
</svg>
