<?xml version="1.0" encoding="UTF-8" standalone="no"?>
<!DOCTYPE svg PUBLIC "-//W3C//DTD SVG 1.1//EN"
 "http://www.w3.org/Graphics/SVG/1.1/DTD/svg11.dtd">
<!-- Generated by graphviz version 2.40.1 (20161225.0304)
 -->
<!-- Title: CO_Andisol\set_value_for_key Pages: 1 -->
<svg width="580pt" height="89pt"
 viewBox="0.00 0.00 579.68 89.00" xmlns="http://www.w3.org/2000/svg" xmlns:xlink="http://www.w3.org/1999/xlink">
<g id="graph0" class="graph" transform="scale(1 1) rotate(0) translate(4 85)">
<title>CO_Andisol\set_value_for_key</title>
<polygon fill="#ffffff" stroke="transparent" points="-4,4 -4,-85 575.6826,-85 575.6826,4 -4,4"/>
<!-- Node1 -->
<g id="node1" class="node">
<title>Node1</title>
<g id="a_node1"><a xlink:title=" ">
<polygon fill="#bfbfbf" stroke="#000000" points="0,-52.5 0,-80.5 114.9453,-80.5 114.9453,-52.5 0,-52.5"/>
<text text-anchor="start" x="8" y="-68.5" font-family="Helvetica,sans-Serif" font-size="10.00" fill="#000000">CO_Andisol\set_value</text>
<text text-anchor="middle" x="57.4727" y="-58.5" font-family="Helvetica,sans-Serif" font-size="10.00" fill="#000000">_for_key</text>
</a>
</g>
</g>
<!-- Node2 -->
<g id="node2" class="node">
<title>Node2</title>
<g id="a_node2"><a xlink:href="a00219.html#acda267f1d6a8e496e167ed46fe590dc6" target="_top" xlink:title=" ">
<polygon fill="#ffffff" stroke="#000000" points="431.1611,-33.5 431.1611,-61.5 571.6826,-61.5 571.6826,-33.5 431.1611,-33.5"/>
<text text-anchor="start" x="439.1611" y="-49.5" font-family="Helvetica,sans-Serif" font-size="10.00" fill="#000000">CO_Andisol\get_chameleon</text>
<text text-anchor="middle" x="501.4219" y="-39.5" font-family="Helvetica,sans-Serif" font-size="10.00" fill="#000000">_instance</text>
</a>
</g>
</g>
<!-- Node1&#45;&gt;Node2 -->
<g id="edge1" class="edge">
<title>Node1&#45;&gt;Node2</title>
<path fill="none" stroke="#191970" d="M114.9547,-68.0952C182.2538,-69.3968 297.0128,-69.8542 395.1611,-61.5 403.4898,-60.7911 412.1675,-59.8999 420.8153,-58.9122"/>
<polygon fill="#191970" stroke="#191970" points="421.4119,-62.3661 430.9305,-57.7135 420.5881,-55.4147 421.4119,-62.3661"/>
</g>
<!-- Node3 -->
<g id="node3" class="node">
<title>Node3</title>
<g id="a_node3"><a xlink:href="a00219.html#ac2a2dcb99dc927789b0ffa09c24946de" target="_top" xlink:title=" ">
<polygon fill="#ffffff" stroke="#000000" points="150.9453,-38.5 150.9453,-56.5 266.457,-56.5 266.457,-38.5 150.9453,-38.5"/>
<text text-anchor="middle" x="208.7012" y="-44.5" font-family="Helvetica,sans-Serif" font-size="10.00" fill="#000000">CO_Andisol\logged_in</text>
</a>
</g>
</g>
<!-- Node1&#45;&gt;Node3 -->
<g id="edge2" class="edge">
<title>Node1&#45;&gt;Node3</title>
<path fill="none" stroke="#191970" d="M115.0771,-59.2627C123.4763,-58.2074 132.1904,-57.1126 140.7711,-56.0346"/>
<polygon fill="#191970" stroke="#191970" points="141.2703,-59.4995 150.7559,-54.7801 140.3976,-52.5541 141.2703,-59.4995"/>
</g>
<!-- Node3&#45;&gt;Node2 -->
<g id="edge3" class="edge">
<title>Node3&#45;&gt;Node2</title>
<path fill="none" stroke="#191970" d="M266.5334,-47.5C310.6325,-47.5 371.9071,-47.5 420.8153,-47.5"/>
<polygon fill="#191970" stroke="#191970" points="421.0534,-51.0001 431.0534,-47.5 421.0534,-44.0001 421.0534,-51.0001"/>
</g>
<!-- Node4 -->
<g id="node4" class="node">
<title>Node4</title>
<g id="a_node4"><a xlink:href="a00219.html#a4b0ec12b29ce4812cbb4169b68770f66" target="_top" xlink:title=" ">
<polygon fill="#ffffff" stroke="#000000" points="302.457,-.5 302.457,-18.5 395.1611,-18.5 395.1611,-.5 302.457,-.5"/>
<text text-anchor="middle" x="348.8091" y="-6.5" font-family="Helvetica,sans-Serif" font-size="10.00" fill="#000000">CO_Andisol\valid</text>
</a>
</g>
</g>
<!-- Node3&#45;&gt;Node4 -->
<g id="edge4" class="edge">
<title>Node3&#45;&gt;Node4</title>
<path fill="none" stroke="#191970" d="M241.9048,-38.4945C260.9593,-33.3266 285.0986,-26.7795 305.6155,-21.215"/>
<polygon fill="#191970" stroke="#191970" points="306.6231,-24.5682 315.3583,-18.5725 304.7907,-17.8123 306.6231,-24.5682"/>
</g>
<!-- Node4&#45;&gt;Node2 -->
<g id="edge5" class="edge">
<title>Node4&#45;&gt;Node2</title>
<path fill="none" stroke="#191970" d="M384.9762,-18.5055C399.9338,-22.2299 417.768,-26.6705 434.9288,-30.9435"/>
<polygon fill="#191970" stroke="#191970" points="434.3788,-34.4133 444.9282,-33.4333 436.0702,-27.6207 434.3788,-34.4133"/>
</g>
</g>
</svg>
