<?xml version="1.0" encoding="UTF-8" standalone="no"?>
<!DOCTYPE svg PUBLIC "-//W3C//DTD SVG 1.1//EN"
 "http://www.w3.org/Graphics/SVG/1.1/DTD/svg11.dtd">
<!-- Generated by graphviz version 2.47.1 (20210417.1919)
 -->
<!-- Title: CO_Andisol\create_ll_place Pages: 1 -->
<svg width="1044pt" height="91pt"
 viewBox="0.00 0.00 1044.00 90.50" xmlns="http://www.w3.org/2000/svg" xmlns:xlink="http://www.w3.org/1999/xlink">
<g id="graph0" class="graph" transform="scale(1 1) rotate(0) translate(4 86.5)">
<title>CO_Andisol\create_ll_place</title>
<polygon fill="white" stroke="transparent" points="-4,4 -4,-86.5 1040,-86.5 1040,4 -4,4"/>
<!-- Node1 -->
<g id="node1" class="node">
<title>Node1</title>
<g id="a_node1"><a xlink:title=" ">
<polygon fill="#bfbfbf" stroke="black" points="0,-52 0,-82 109,-82 109,-52 0,-52"/>
<text text-anchor="start" x="8" y="-70" font-family="Helvetica,sans-Serif" font-size="10.00">CO_Andisol\create_ll</text>
<text text-anchor="middle" x="54.5" y="-59" font-family="Helvetica,sans-Serif" font-size="10.00">_place</text>
</a>
</g>
</g>
<!-- Node2 -->
<g id="node2" class="node">
<title>Node2</title>
<g id="a_node2"><a xlink:href="a00216.html#a79103b0d231d1dcc1f7c1921e5118621" target="_top" xlink:title=" ">
<polygon fill="white" stroke="black" points="145,-57.5 145,-76.5 273,-76.5 273,-57.5 145,-57.5"/>
<text text-anchor="middle" x="209" y="-64.5" font-family="Helvetica,sans-Serif" font-size="10.00">CO_Andisol\create_place</text>
</a>
</g>
</g>
<!-- Node1&#45;&gt;Node2 -->
<g id="edge1" class="edge">
<title>Node1&#45;&gt;Node2</title>
<path fill="none" stroke="midnightblue" d="M109.27,-67C117.52,-67 126.17,-67 134.76,-67"/>
<polygon fill="midnightblue" stroke="midnightblue" points="134.8,-70.5 144.8,-67 134.8,-63.5 134.8,-70.5"/>
</g>
<!-- Node3 -->
<g id="node3" class="node">
<title>Node3</title>
<g id="a_node3"><a xlink:href="a00216.html#a1783b1403b768959f80f17b08a5e8f82" target="_top" xlink:title=" ">
<polygon fill="white" stroke="black" points="309,-52 309,-82 445,-82 445,-52 309,-52"/>
<text text-anchor="start" x="317" y="-70" font-family="Helvetica,sans-Serif" font-size="10.00">CO_Andisol\create_general</text>
<text text-anchor="middle" x="377" y="-59" font-family="Helvetica,sans-Serif" font-size="10.00">_data_item</text>
</a>
</g>
</g>
<!-- Node2&#45;&gt;Node3 -->
<g id="edge2" class="edge">
<title>Node2&#45;&gt;Node3</title>
<path fill="none" stroke="midnightblue" d="M273.23,-67C281.5,-67 290.05,-67 298.53,-67"/>
<polygon fill="midnightblue" stroke="midnightblue" points="298.8,-70.5 308.8,-67 298.8,-63.5 298.8,-70.5"/>
</g>
<!-- Node4 -->
<g id="node4" class="node">
<title>Node4</title>
<g id="a_node4"><a xlink:href="a00216.html#a190232857416d5f1e7033452ac1bf6c0" target="_top" xlink:title=" ">
<polygon fill="white" stroke="black" points="481,-52 481,-82 585,-82 585,-52 481,-52"/>
<text text-anchor="start" x="489" y="-70" font-family="Helvetica,sans-Serif" font-size="10.00">CO_Andisol\_create</text>
<text text-anchor="middle" x="533" y="-59" font-family="Helvetica,sans-Serif" font-size="10.00">_db_object</text>
</a>
</g>
</g>
<!-- Node3&#45;&gt;Node4 -->
<g id="edge3" class="edge">
<title>Node3&#45;&gt;Node4</title>
<path fill="none" stroke="midnightblue" d="M445.1,-67C453.63,-67 462.32,-67 470.75,-67"/>
<polygon fill="midnightblue" stroke="midnightblue" points="470.87,-70.5 480.87,-67 470.87,-63.5 470.87,-70.5"/>
</g>
<!-- Node5 -->
<g id="node5" class="node">
<title>Node5</title>
<g id="a_node5"><a xlink:href="a00216.html#acda267f1d6a8e496e167ed46fe590dc6" target="_top" xlink:title=" ">
<polygon fill="white" stroke="black" points="898,-33 898,-63 1036,-63 1036,-33 898,-33"/>
<text text-anchor="start" x="906" y="-51" font-family="Helvetica,sans-Serif" font-size="10.00">CO_Andisol\get_chameleon</text>
<text text-anchor="middle" x="967" y="-40" font-family="Helvetica,sans-Serif" font-size="10.00">_instance</text>
</a>
</g>
</g>
<!-- Node4&#45;&gt;Node5 -->
<g id="edge4" class="edge">
<title>Node4&#45;&gt;Node5</title>
<path fill="none" stroke="midnightblue" d="M585.25,-68.47C649.89,-69.81 764.41,-70.46 862,-62 870.35,-61.28 879.06,-60.36 887.72,-59.35"/>
<polygon fill="midnightblue" stroke="midnightblue" points="888.35,-62.8 897.85,-58.11 887.5,-55.85 888.35,-62.8"/>
</g>
<!-- Node6 -->
<g id="node6" class="node">
<title>Node6</title>
<g id="a_node6"><a xlink:href="a00216.html#ac2a2dcb99dc927789b0ffa09c24946de" target="_top" xlink:title=" ">
<polygon fill="white" stroke="black" points="621,-38.5 621,-57.5 734,-57.5 734,-38.5 621,-38.5"/>
<text text-anchor="middle" x="677.5" y="-45.5" font-family="Helvetica,sans-Serif" font-size="10.00">CO_Andisol\logged_in</text>
</a>
</g>
</g>
<!-- Node4&#45;&gt;Node6 -->
<g id="edge5" class="edge">
<title>Node4&#45;&gt;Node6</title>
<path fill="none" stroke="midnightblue" d="M585.04,-60.19C593.42,-59.08 602.21,-57.91 610.89,-56.75"/>
<polygon fill="midnightblue" stroke="midnightblue" points="611.54,-60.19 620.99,-55.4 610.61,-53.25 611.54,-60.19"/>
</g>
<!-- Node6&#45;&gt;Node5 -->
<g id="edge6" class="edge">
<title>Node6&#45;&gt;Node5</title>
<path fill="none" stroke="midnightblue" d="M734.27,-48C777.95,-48 839.23,-48 887.81,-48"/>
<polygon fill="midnightblue" stroke="midnightblue" points="887.97,-51.5 897.97,-48 887.97,-44.5 887.97,-51.5"/>
</g>
<!-- Node7 -->
<g id="node7" class="node">
<title>Node7</title>
<g id="a_node7"><a xlink:href="a00216.html#a4b0ec12b29ce4812cbb4169b68770f66" target="_top" xlink:title=" ">
<polygon fill="white" stroke="black" points="770,-0.5 770,-19.5 862,-19.5 862,-0.5 770,-0.5"/>
<text text-anchor="middle" x="816" y="-7.5" font-family="Helvetica,sans-Serif" font-size="10.00">CO_Andisol\valid</text>
</a>
</g>
</g>
<!-- Node6&#45;&gt;Node7 -->
<g id="edge7" class="edge">
<title>Node6&#45;&gt;Node7</title>
<path fill="none" stroke="midnightblue" d="M712.94,-38.41C730.48,-33.53 752.01,-27.54 770.76,-22.32"/>
<polygon fill="midnightblue" stroke="midnightblue" points="771.87,-25.64 780.57,-19.59 769.99,-18.9 771.87,-25.64"/>
</g>
<!-- Node7&#45;&gt;Node5 -->
<g id="edge8" class="edge">
<title>Node7&#45;&gt;Node5</title>
<path fill="none" stroke="midnightblue" d="M854.6,-19.59C867.49,-22.88 882.35,-26.67 896.93,-30.38"/>
<polygon fill="midnightblue" stroke="midnightblue" points="896.4,-33.86 906.95,-32.94 898.13,-27.08 896.4,-33.86"/>
</g>
</g>
</svg>
