<?xml version="1.0" encoding="UTF-8" standalone="no"?>
<!DOCTYPE svg PUBLIC "-//W3C//DTD SVG 1.1//EN"
 "http://www.w3.org/Graphics/SVG/1.1/DTD/svg11.dtd">
<!-- Generated by graphviz version 2.40.1 (20161225.0304)
 -->
<!-- Title: CO_User_Collection\_load_login Pages: 1 -->
<svg width="410pt" height="131pt"
 viewBox="0.00 0.00 409.82 131.00" xmlns="http://www.w3.org/2000/svg" xmlns:xlink="http://www.w3.org/1999/xlink">
<g id="graph0" class="graph" transform="scale(1 1) rotate(0) translate(4 127)">
<title>CO_User_Collection\_load_login</title>
<polygon fill="#ffffff" stroke="transparent" points="-4,4 -4,-127 405.8164,-127 405.8164,4 -4,4"/>
<!-- Node1 -->
<g id="node1" class="node">
<title>Node1</title>
<g id="a_node1"><a xlink:title=" ">
<polygon fill="#bfbfbf" stroke="#000000" points="294.6689,-23.5 294.6689,-51.5 401.8164,-51.5 401.8164,-23.5 294.6689,-23.5"/>
<text text-anchor="start" x="302.6689" y="-39.5" font-family="Helvetica,sans-Serif" font-size="10.00" fill="#000000">CO_User_Collection</text>
<text text-anchor="middle" x="348.2427" y="-29.5" font-family="Helvetica,sans-Serif" font-size="10.00" fill="#000000">\_load_login</text>
</a>
</g>
</g>
<!-- Node2 -->
<g id="node2" class="node">
<title>Node2</title>
<g id="a_node2"><a xlink:href="a00276.html#a2cc75e169901df4a8fc859f42e0e9f8c" target="_top" xlink:title=" ">
<polygon fill="#ffffff" stroke="#000000" points="151.5215,-47.5 151.5215,-75.5 258.6689,-75.5 258.6689,-47.5 151.5215,-47.5"/>
<text text-anchor="start" x="159.5215" y="-63.5" font-family="Helvetica,sans-Serif" font-size="10.00" fill="#000000">CO_User_Collection</text>
<text text-anchor="middle" x="205.0952" y="-53.5" font-family="Helvetica,sans-Serif" font-size="10.00" fill="#000000">\get_login_instance</text>
</a>
</g>
</g>
<!-- Node1&#45;&gt;Node2 -->
<g id="edge1" class="edge">
<title>Node1&#45;&gt;Node2</title>
<path fill="none" stroke="#191970" d="M284.6309,-48.1651C276.1114,-49.5935 267.4396,-51.0474 259.1063,-52.4445"/>
<polygon fill="#191970" stroke="#191970" points="285.249,-51.6104 294.5326,-46.505 284.0915,-44.7068 285.249,-51.6104"/>
</g>
<!-- Node6 -->
<g id="node6" class="node">
<title>Node6</title>
<g id="a_node6"><a xlink:href="a00276.html#a38a9d15bfc7194ec0057869caf6523c0" target="_top" xlink:title=" ">
<polygon fill="#ffffff" stroke="#000000" points="151.5215,-.5 151.5215,-28.5 258.6689,-28.5 258.6689,-.5 151.5215,-.5"/>
<text text-anchor="start" x="159.5215" y="-16.5" font-family="Helvetica,sans-Serif" font-size="10.00" fill="#000000">CO_User_Collection</text>
<text text-anchor="middle" x="205.0952" y="-6.5" font-family="Helvetica,sans-Serif" font-size="10.00" fill="#000000">\is_manager</text>
</a>
</g>
</g>
<!-- Node1&#45;&gt;Node6 -->
<g id="edge5" class="edge">
<title>Node1&#45;&gt;Node6</title>
<path fill="none" stroke="#191970" d="M284.6309,-27.2793C276.1114,-25.9104 267.4396,-24.5171 259.1063,-23.1782"/>
<polygon fill="#191970" stroke="#191970" points="284.1039,-30.7394 294.5326,-28.8702 285.2145,-23.8281 284.1039,-30.7394"/>
</g>
<!-- Node3 -->
<g id="node3" class="node">
<title>Node3</title>
<g id="a_node3"><a xlink:href="a00276.html#a3ae822685b2b8ca8af56d8ea4c4a2a6c" target="_top" xlink:title=" ">
<polygon fill="#ffffff" stroke="#000000" points="4.187,-94.5 4.187,-122.5 111.3345,-122.5 111.3345,-94.5 4.187,-94.5"/>
<text text-anchor="start" x="12.187" y="-110.5" font-family="Helvetica,sans-Serif" font-size="10.00" fill="#000000">CO_User_Collection</text>
<text text-anchor="middle" x="57.7607" y="-100.5" font-family="Helvetica,sans-Serif" font-size="10.00" fill="#000000">\delete_from_db</text>
</a>
</g>
</g>
<!-- Node2&#45;&gt;Node3 -->
<g id="edge2" class="edge">
<title>Node2&#45;&gt;Node3</title>
<path fill="none" stroke="#191970" d="M150.9925,-78.7589C134.763,-83.9361 117.1678,-89.549 101.6807,-94.4894"/>
<polygon fill="#191970" stroke="#191970" points="152.4267,-81.9752 160.89,-75.6015 150.2993,-75.3063 152.4267,-81.9752"/>
</g>
<!-- Node4 -->
<g id="node4" class="node">
<title>Node4</title>
<g id="a_node4"><a xlink:href="a00276.html#a9041f37ce8eba7afe52a014fe3938cce" target="_top" xlink:title=" ">
<polygon fill="#ffffff" stroke="#000000" points="4.187,-47.5 4.187,-75.5 111.3345,-75.5 111.3345,-47.5 4.187,-47.5"/>
<text text-anchor="start" x="12.187" y="-63.5" font-family="Helvetica,sans-Serif" font-size="10.00" fill="#000000">CO_User_Collection</text>
<text text-anchor="middle" x="57.7607" y="-53.5" font-family="Helvetica,sans-Serif" font-size="10.00" fill="#000000">\get_lang</text>
</a>
</g>
</g>
<!-- Node2&#45;&gt;Node4 -->
<g id="edge3" class="edge">
<title>Node2&#45;&gt;Node4</title>
<path fill="none" stroke="#191970" d="M141.2835,-61.5C131.3783,-61.5 121.2311,-61.5 111.5756,-61.5"/>
<polygon fill="#191970" stroke="#191970" points="141.4873,-65.0001 151.4873,-61.5 141.4873,-58.0001 141.4873,-65.0001"/>
</g>
<!-- Node5 -->
<g id="node5" class="node">
<title>Node5</title>
<g id="a_node5"><a xlink:href="a00276.html#ac4b573bbcb37aaf83685c3fdff046bf7" target="_top" xlink:title=" ">
<polygon fill="#ffffff" stroke="#000000" points="0,-.5 0,-28.5 115.5215,-28.5 115.5215,-.5 0,-.5"/>
<text text-anchor="start" x="8" y="-16.5" font-family="Helvetica,sans-Serif" font-size="10.00" fill="#000000">CO_User_Collection</text>
<text text-anchor="middle" x="57.7607" y="-6.5" font-family="Helvetica,sans-Serif" font-size="10.00" fill="#000000">\has_login_i_cant_see</text>
</a>
</g>
</g>
<!-- Node2&#45;&gt;Node5 -->
<g id="edge4" class="edge">
<title>Node2&#45;&gt;Node5</title>
<path fill="none" stroke="#191970" d="M150.9925,-44.2411C134.763,-39.0639 117.1678,-33.451 101.6807,-28.5106"/>
<polygon fill="#191970" stroke="#191970" points="150.2993,-47.6937 160.89,-47.3985 152.4267,-41.0248 150.2993,-47.6937"/>
</g>
</g>
</svg>
