<?xml version="1.0" encoding="UTF-8" standalone="no"?>
<!DOCTYPE svg PUBLIC "-//W3C//DTD SVG 1.1//EN"
 "http://www.w3.org/Graphics/SVG/1.1/DTD/svg11.dtd">
<!-- Generated by graphviz version 2.40.1 (20161225.0304)
 -->
<!-- Title: CO_places_Basalt_Plugin\_get_short_description Pages: 1 -->
<svg width="477pt" height="37pt"
 viewBox="0.00 0.00 476.54 37.00" xmlns="http://www.w3.org/2000/svg" xmlns:xlink="http://www.w3.org/1999/xlink">
<g id="graph0" class="graph" transform="scale(1 1) rotate(0) translate(4 33)">
<title>CO_places_Basalt_Plugin\_get_short_description</title>
<polygon fill="#ffffff" stroke="transparent" points="-4,4 -4,-33 472.5449,-33 472.5449,4 -4,4"/>
<!-- Node8 -->
<g id="node1" class="node">
<title>Node8</title>
<polygon fill="#bfbfbf" stroke="#000000" points="0,-.5 0,-28.5 132.1816,-28.5 132.1816,-.5 0,-.5"/>
<text text-anchor="start" x="8" y="-16.5" font-family="Helvetica,sans-Serif" font-size="10.00" fill="#000000">CO_places_Basalt_Plugin</text>
<text text-anchor="middle" x="66.0908" y="-6.5" font-family="Helvetica,sans-Serif" font-size="10.00" fill="#000000">\_get_short_description</text>
</g>
<!-- Node9 -->
<g id="node2" class="node">
<title>Node9</title>
<g id="a_node2"><a xlink:href="a00211.html#a8065697ba33d71f377ff364ce1c36d50" target="_top" xlink:title="CO_places_Basalt_Plugin\l\\_process_place_get">
<polygon fill="#ffffff" stroke="#000000" points="168.1816,-.5 168.1816,-28.5 300.3633,-28.5 300.3633,-.5 168.1816,-.5"/>
<text text-anchor="start" x="176.1816" y="-16.5" font-family="Helvetica,sans-Serif" font-size="10.00" fill="#000000">CO_places_Basalt_Plugin</text>
<text text-anchor="middle" x="234.2725" y="-6.5" font-family="Helvetica,sans-Serif" font-size="10.00" fill="#000000">\_process_place_get</text>
</a>
</g>
</g>
<!-- Node8&#45;&gt;Node9 -->
<g id="edge1" class="edge">
<title>Node8&#45;&gt;Node9</title>
<path fill="none" stroke="#191970" d="M142.7682,-14.5C151.1961,-14.5 159.7242,-14.5 168.0101,-14.5"/>
<polygon fill="#191970" stroke="#191970" points="142.5607,-11.0001 132.5607,-14.5 142.5606,-18.0001 142.5607,-11.0001"/>
</g>
<!-- Node10 -->
<g id="node3" class="node">
<title>Node10</title>
<g id="a_node3"><a xlink:href="a00211.html#a66729507ef35bcc83810d707412207fb" target="_top" xlink:title="CO_places_Basalt_Plugin\l\\process_command">
<polygon fill="#ffffff" stroke="#000000" points="336.3633,-.5 336.3633,-28.5 468.5449,-28.5 468.5449,-.5 336.3633,-.5"/>
<text text-anchor="start" x="344.3633" y="-16.5" font-family="Helvetica,sans-Serif" font-size="10.00" fill="#000000">CO_places_Basalt_Plugin</text>
<text text-anchor="middle" x="402.4541" y="-6.5" font-family="Helvetica,sans-Serif" font-size="10.00" fill="#000000">\process_command</text>
</a>
</g>
</g>
<!-- Node9&#45;&gt;Node10 -->
<g id="edge2" class="edge">
<title>Node9&#45;&gt;Node10</title>
<path fill="none" stroke="#191970" d="M310.9499,-14.5C319.3778,-14.5 327.9058,-14.5 336.1917,-14.5"/>
<polygon fill="#191970" stroke="#191970" points="310.7423,-11.0001 300.7423,-14.5 310.7423,-18.0001 310.7423,-11.0001"/>
</g>
</g>
</svg>
