<?xml version="1.0" encoding="UTF-8" standalone="no"?>
<!DOCTYPE svg PUBLIC "-//W3C//DTD SVG 1.1//EN"
 "http://www.w3.org/Graphics/SVG/1.1/DTD/svg11.dtd">
<!-- Generated by graphviz version 2.47.1 (20210417.1919)
 -->
<!-- Title: CO_Basalt\__construct Pages: 1 -->
<svg width="936pt" height="281pt"
 viewBox="0.00 0.00 936.00 281.00" xmlns="http://www.w3.org/2000/svg" xmlns:xlink="http://www.w3.org/1999/xlink">
<g id="graph0" class="graph" transform="scale(1 1) rotate(0) translate(4 277)">
<title>CO_Basalt\__construct</title>
<polygon fill="white" stroke="transparent" points="-4,4 -4,-277 932,-277 932,4 -4,4"/>
<!-- Node1 -->
<g id="node1" class="node">
<title>Node1</title>
<g id="a_node1"><a xlink:title=" ">
<polygon fill="#bfbfbf" stroke="black" points="0,-221 0,-240 119,-240 119,-221 0,-221"/>
<text text-anchor="middle" x="59.5" y="-228" font-family="Helvetica,sans-Serif" font-size="10.00">CO_Basalt\__construct</text>
</a>
</g>
</g>
<!-- Node2 -->
<g id="node2" class="node">
<title>Node2</title>
<g id="a_node2"><a xlink:href="a00200.html#a2ddbc8082e5db06272eb38f00b80fae5" target="_top" xlink:title=" ">
<polygon fill="white" stroke="black" points="155,-240.5 155,-270.5 262,-270.5 262,-240.5 155,-240.5"/>
<text text-anchor="start" x="163" y="-258.5" font-family="Helvetica,sans-Serif" font-size="10.00">CO_Basalt\_process</text>
<text text-anchor="middle" x="208.5" y="-247.5" font-family="Helvetica,sans-Serif" font-size="10.00">_basalt_parameters</text>
</a>
</g>
</g>
<!-- Node1&#45;&gt;Node2 -->
<g id="edge1" class="edge">
<title>Node1&#45;&gt;Node2</title>
<path fill="none" stroke="midnightblue" d="M116.49,-240.02C125.67,-241.58 135.23,-243.21 144.56,-244.8"/>
<polygon fill="midnightblue" stroke="midnightblue" points="144.12,-248.27 154.57,-246.5 145.3,-241.37 144.12,-248.27"/>
</g>
<!-- Node5 -->
<g id="node5" class="node">
<title>Node5</title>
<g id="a_node5"><a xlink:href="a00200.html#a528297edc9fb3e5e3c8f2e9270621853" target="_top" xlink:title=" ">
<polygon fill="white" stroke="black" points="155,-191.5 155,-221.5 262,-221.5 262,-191.5 155,-191.5"/>
<text text-anchor="start" x="163" y="-209.5" font-family="Helvetica,sans-Serif" font-size="10.00">CO_Basalt\_process</text>
<text text-anchor="middle" x="208.5" y="-198.5" font-family="Helvetica,sans-Serif" font-size="10.00">_command</text>
</a>
</g>
</g>
<!-- Node1&#45;&gt;Node5 -->
<g id="edge4" class="edge">
<title>Node1&#45;&gt;Node5</title>
<path fill="none" stroke="midnightblue" d="M119.02,-220.95C127.54,-219.56 136.33,-218.12 144.93,-216.72"/>
<polygon fill="midnightblue" stroke="midnightblue" points="145.59,-220.15 154.89,-215.09 144.46,-213.25 145.59,-220.15"/>
</g>
<!-- Node3 -->
<g id="node3" class="node">
<title>Node3</title>
<g id="a_node3"><a xlink:href="a00200.html#a00b3cdf024e15bff80a3c3c9aed320f3" target="_top" xlink:title=" ">
<polygon fill="white" stroke="black" points="317,-240.5 317,-270.5 429,-270.5 429,-240.5 317,-240.5"/>
<text text-anchor="start" x="325" y="-258.5" font-family="Helvetica,sans-Serif" font-size="10.00">CO_Basalt\get_plugin</text>
<text text-anchor="middle" x="373" y="-247.5" font-family="Helvetica,sans-Serif" font-size="10.00">_names</text>
</a>
</g>
</g>
<!-- Node2&#45;&gt;Node3 -->
<g id="edge2" class="edge">
<title>Node2&#45;&gt;Node3</title>
<path fill="none" stroke="midnightblue" d="M262.26,-255.5C276.49,-255.5 292.06,-255.5 306.88,-255.5"/>
<polygon fill="midnightblue" stroke="midnightblue" points="306.99,-259 316.99,-255.5 306.99,-252 306.99,-259"/>
</g>
<!-- Node4 -->
<g id="node4" class="node">
<title>Node4</title>
<g id="a_node4"><a xlink:href="a00200.html#a9917ca310760b3d05cdb027b030f86b4" target="_top" xlink:title=" ">
<polygon fill="white" stroke="black" points="629,-246 629,-265 751,-265 751,-246 629,-246"/>
<text text-anchor="middle" x="690" y="-253" font-family="Helvetica,sans-Serif" font-size="10.00">CO_Basalt\plugin_name</text>
</a>
</g>
</g>
<!-- Node3&#45;&gt;Node4 -->
<g id="edge3" class="edge">
<title>Node3&#45;&gt;Node4</title>
<path fill="none" stroke="midnightblue" d="M429.23,-255.5C481.91,-255.5 561.49,-255.5 618.68,-255.5"/>
<polygon fill="midnightblue" stroke="midnightblue" points="618.73,-259 628.73,-255.5 618.73,-252 618.73,-259"/>
</g>
<!-- Node6 -->
<g id="node6" class="node">
<title>Node6</title>
<g id="a_node6"><a xlink:href="a00200.html#a474660b01c925a4d47e918c02944ebf7" target="_top" xlink:title=" ">
<polygon fill="white" stroke="black" points="298,-197 298,-216 448,-216 448,-197 298,-197"/>
<text text-anchor="middle" x="373" y="-204" font-family="Helvetica,sans-Serif" font-size="10.00">CO_Basalt\process_command</text>
</a>
</g>
</g>
<!-- Node5&#45;&gt;Node6 -->
<g id="edge5" class="edge">
<title>Node5&#45;&gt;Node6</title>
<path fill="none" stroke="midnightblue" d="M262.26,-206.5C270.45,-206.5 279.09,-206.5 287.77,-206.5"/>
<polygon fill="midnightblue" stroke="midnightblue" points="287.96,-210 297.96,-206.5 287.96,-203 287.96,-210"/>
</g>
<!-- Node7 -->
<g id="node7" class="node">
<title>Node7</title>
<g id="a_node7"><a xlink:href="a00196.html#a4195fd75943d9dd1ca6dce290aa64dcc" target="_top" xlink:title=" ">
<polygon fill="white" stroke="black" points="484,-194.5 484,-224.5 593,-224.5 593,-194.5 484,-194.5"/>
<text text-anchor="start" x="492" y="-212.5" font-family="Helvetica,sans-Serif" font-size="10.00">A_CO_Basalt_Plugin</text>
<text text-anchor="middle" x="538.5" y="-201.5" font-family="Helvetica,sans-Serif" font-size="10.00">\_condition_response</text>
</a>
</g>
</g>
<!-- Node6&#45;&gt;Node7 -->
<g id="edge6" class="edge">
<title>Node6&#45;&gt;Node7</title>
<path fill="none" stroke="midnightblue" d="M448.1,-207.86C456.63,-208.02 465.27,-208.17 473.65,-208.33"/>
<polygon fill="midnightblue" stroke="midnightblue" points="473.65,-211.83 483.71,-208.51 473.78,-204.83 473.65,-211.83"/>
</g>
<!-- Node8 -->
<g id="node8" class="node">
<title>Node8</title>
<g id="a_node8"><a xlink:href="a00200.html#a60ce04d2fc76ab876a428500dccb7dd8" target="_top" xlink:title=" ">
<polygon fill="white" stroke="black" points="485,-145.5 485,-175.5 592,-175.5 592,-145.5 485,-145.5"/>
<text text-anchor="start" x="493" y="-163.5" font-family="Helvetica,sans-Serif" font-size="10.00">CO_Basalt\_process</text>
<text text-anchor="middle" x="538.5" y="-152.5" font-family="Helvetica,sans-Serif" font-size="10.00">_baseline_command</text>
</a>
</g>
</g>
<!-- Node6&#45;&gt;Node8 -->
<g id="edge7" class="edge">
<title>Node6&#45;&gt;Node8</title>
<path fill="none" stroke="midnightblue" d="M407.88,-196.97C427.36,-191.49 452.43,-184.43 475.33,-177.99"/>
<polygon fill="midnightblue" stroke="midnightblue" points="476.31,-181.35 484.99,-175.27 474.42,-174.61 476.31,-181.35"/>
</g>
<!-- Node8&#45;&gt;Node4 -->
<g id="edge16" class="edge">
<title>Node8&#45;&gt;Node4</title>
<path fill="none" stroke="midnightblue" d="M579.49,-175.52C584.28,-178.15 588.91,-181.13 593,-184.5 614.42,-202.14 606.73,-218.95 629,-235.5 632.18,-237.86 635.66,-239.96 639.28,-241.81"/>
<polygon fill="midnightblue" stroke="midnightblue" points="637.96,-245.06 648.52,-245.94 640.82,-238.67 637.96,-245.06"/>
</g>
<!-- Node9 -->
<g id="node9" class="node">
<title>Node9</title>
<g id="a_node9"><a xlink:href="a00200.html#a94f153fbc911e113c202f91acc1b270e" target="_top" xlink:title=" ">
<polygon fill="white" stroke="black" points="635.5,-196.5 635.5,-226.5 744.5,-226.5 744.5,-196.5 635.5,-196.5"/>
<text text-anchor="start" x="643.5" y="-214.5" font-family="Helvetica,sans-Serif" font-size="10.00">CO_Basalt\_baseline</text>
<text text-anchor="middle" x="690" y="-203.5" font-family="Helvetica,sans-Serif" font-size="10.00">_bulk_loader</text>
</a>
</g>
</g>
<!-- Node8&#45;&gt;Node9 -->
<g id="edge8" class="edge">
<title>Node8&#45;&gt;Node9</title>
<path fill="none" stroke="midnightblue" d="M583.55,-175.53C599.75,-181.05 618.27,-187.37 635.24,-193.16"/>
<polygon fill="midnightblue" stroke="midnightblue" points="634.42,-196.58 645.01,-196.49 636.68,-189.95 634.42,-196.58"/>
</g>
<!-- Node12 -->
<g id="node12" class="node">
<title>Node12</title>
<g id="a_node12"><a xlink:href="a00200.html#ad72622e9b3a834e50a1a8f4ab488b08a" target="_top" xlink:title=" ">
<polygon fill="white" stroke="black" points="635.5,-147.5 635.5,-177.5 744.5,-177.5 744.5,-147.5 635.5,-147.5"/>
<text text-anchor="start" x="643.5" y="-165.5" font-family="Helvetica,sans-Serif" font-size="10.00">CO_Basalt\_baseline</text>
<text text-anchor="middle" x="690" y="-154.5" font-family="Helvetica,sans-Serif" font-size="10.00">_fetch_backup</text>
</a>
</g>
</g>
<!-- Node8&#45;&gt;Node12 -->
<g id="edge11" class="edge">
<title>Node8&#45;&gt;Node12</title>
<path fill="none" stroke="midnightblue" d="M592.21,-161.21C602.78,-161.35 614.01,-161.5 624.92,-161.64"/>
<polygon fill="midnightblue" stroke="midnightblue" points="625.21,-165.15 635.25,-161.78 625.3,-158.15 625.21,-165.15"/>
</g>
<!-- Node14 -->
<g id="node14" class="node">
<title>Node14</title>
<g id="a_node14"><a xlink:href="a00196.html#a772e319259d2ce50837c099acdfd3625" target="_top" xlink:title=" ">
<polygon fill="white" stroke="black" points="635.5,-98.5 635.5,-128.5 744.5,-128.5 744.5,-98.5 635.5,-98.5"/>
<text text-anchor="start" x="643.5" y="-116.5" font-family="Helvetica,sans-Serif" font-size="10.00">A_CO_Basalt_Plugin</text>
<text text-anchor="middle" x="690" y="-105.5" font-family="Helvetica,sans-Serif" font-size="10.00">\_get_handler</text>
</a>
</g>
</g>
<!-- Node8&#45;&gt;Node14 -->
<g id="edge13" class="edge">
<title>Node8&#45;&gt;Node14</title>
<path fill="none" stroke="midnightblue" d="M587.21,-145.5C601.24,-141.09 616.73,-136.22 631.31,-131.64"/>
<polygon fill="midnightblue" stroke="midnightblue" points="632.74,-134.86 641.23,-128.52 630.64,-128.18 632.74,-134.86"/>
</g>
<!-- Node15 -->
<g id="node15" class="node">
<title>Node15</title>
<g id="a_node15"><a xlink:href="a00200.html#acd909d93bf248e9b07ff9cfdd28df9b9" target="_top" xlink:title=" ">
<polygon fill="white" stroke="black" points="633.5,-49.5 633.5,-79.5 746.5,-79.5 746.5,-49.5 633.5,-49.5"/>
<text text-anchor="start" x="641.5" y="-67.5" font-family="Helvetica,sans-Serif" font-size="10.00">CO_Basalt\_process</text>
<text text-anchor="middle" x="690" y="-56.5" font-family="Helvetica,sans-Serif" font-size="10.00">_serverinfo_command</text>
</a>
</g>
</g>
<!-- Node8&#45;&gt;Node15 -->
<g id="edge14" class="edge">
<title>Node8&#45;&gt;Node15</title>
<path fill="none" stroke="midnightblue" d="M555.24,-145.39C572.33,-129.61 600.94,-104.9 629,-88.5 631.67,-86.94 634.47,-85.43 637.33,-83.99"/>
<polygon fill="midnightblue" stroke="midnightblue" points="639.06,-87.04 646.61,-79.61 636.07,-80.71 639.06,-87.04"/>
</g>
<!-- Node16 -->
<g id="node16" class="node">
<title>Node16</title>
<g id="a_node16"><a xlink:href="a00200.html#af1b2c5aad7e4010614b891a8e47e469b" target="_top" xlink:title=" ">
<polygon fill="white" stroke="black" points="636.5,-0.5 636.5,-30.5 743.5,-30.5 743.5,-0.5 636.5,-0.5"/>
<text text-anchor="start" x="644.5" y="-18.5" font-family="Helvetica,sans-Serif" font-size="10.00">CO_Basalt\_process</text>
<text text-anchor="middle" x="690" y="-7.5" font-family="Helvetica,sans-Serif" font-size="10.00">_token_command</text>
</a>
</g>
</g>
<!-- Node8&#45;&gt;Node16 -->
<g id="edge15" class="edge">
<title>Node8&#45;&gt;Node16</title>
<path fill="none" stroke="midnightblue" d="M547.07,-145.37C560.39,-120.15 590.32,-69.35 629,-39.5 630.77,-38.14 632.62,-36.84 634.54,-35.61"/>
<polygon fill="midnightblue" stroke="midnightblue" points="636.34,-38.61 643.29,-30.61 632.87,-32.53 636.34,-38.61"/>
</g>
<!-- Node10 -->
<g id="node10" class="node">
<title>Node10</title>
<g id="a_node10"><a xlink:href="a00200.html#ad343adeeff085b060c73fc62786aee7b" target="_top" xlink:title=" ">
<polygon fill="white" stroke="black" points="806,-242.5 806,-272.5 909,-272.5 909,-242.5 806,-242.5"/>
<text text-anchor="start" x="814" y="-260.5" font-family="Helvetica,sans-Serif" font-size="10.00">CO_Basalt\_extract</text>
<text text-anchor="middle" x="857.5" y="-249.5" font-family="Helvetica,sans-Serif" font-size="10.00">_csv_data</text>
</a>
</g>
</g>
<!-- Node9&#45;&gt;Node10 -->
<g id="edge9" class="edge">
<title>Node9&#45;&gt;Node10</title>
<path fill="none" stroke="midnightblue" d="M744.73,-226.43C761.14,-231 779.3,-236.04 796.12,-240.72"/>
<polygon fill="midnightblue" stroke="midnightblue" points="795.27,-244.12 805.85,-243.42 797.15,-237.37 795.27,-244.12"/>
</g>
<!-- Node11 -->
<g id="node11" class="node">
<title>Node11</title>
<g id="a_node11"><a xlink:href="a00200.html#a0c8258440777d1e27e88f57f55a9e2a4" target="_top" xlink:title=" ">
<polygon fill="white" stroke="black" points="804,-193.5 804,-223.5 911,-223.5 911,-193.5 804,-193.5"/>
<text text-anchor="start" x="812" y="-211.5" font-family="Helvetica,sans-Serif" font-size="10.00">CO_Basalt\_process</text>
<text text-anchor="middle" x="857.5" y="-200.5" font-family="Helvetica,sans-Serif" font-size="10.00">_bulk_row</text>
</a>
</g>
</g>
<!-- Node9&#45;&gt;Node11 -->
<g id="edge10" class="edge">
<title>Node9&#45;&gt;Node11</title>
<path fill="none" stroke="midnightblue" d="M744.73,-210.53C760.3,-210.24 777.43,-209.93 793.5,-209.64"/>
<polygon fill="midnightblue" stroke="midnightblue" points="793.95,-213.13 803.88,-209.45 793.82,-206.14 793.95,-213.13"/>
</g>
<!-- Node13 -->
<g id="node13" class="node">
<title>Node13</title>
<g id="a_node13"><a xlink:href="a00200.html#a43999add0a0623b6cc1376defb359b9b" target="_top" xlink:title=" ">
<polygon fill="white" stroke="black" points="787,-153 787,-172 928,-172 928,-153 787,-153"/>
<text text-anchor="middle" x="857.5" y="-160" font-family="Helvetica,sans-Serif" font-size="10.00">CO_Basalt\_output_one_line</text>
</a>
</g>
</g>
<!-- Node12&#45;&gt;Node13 -->
<g id="edge12" class="edge">
<title>Node12&#45;&gt;Node13</title>
<path fill="none" stroke="midnightblue" d="M744.73,-162.5C754.89,-162.5 765.71,-162.5 776.48,-162.5"/>
<polygon fill="midnightblue" stroke="midnightblue" points="776.75,-166 786.75,-162.5 776.75,-159 776.75,-166"/>
</g>
</g>
</svg>
