<?xml version="1.0" encoding="UTF-8" standalone="no"?>
<!DOCTYPE svg PUBLIC "-//W3C//DTD SVG 1.1//EN"
 "http://www.w3.org/Graphics/SVG/1.1/DTD/svg11.dtd">
<!-- Generated by graphviz version 2.40.1 (20161225.0304)
 -->
<!-- Title: CO_places_Basalt_Plugin\_process_parameters Pages: 1 -->
<svg width="645pt" height="59pt"
 viewBox="0.00 0.00 644.73 59.00" xmlns="http://www.w3.org/2000/svg" xmlns:xlink="http://www.w3.org/1999/xlink">
<g id="graph0" class="graph" transform="scale(1 1) rotate(0) translate(4 55)">
<title>CO_places_Basalt_Plugin\_process_parameters</title>
<polygon fill="#ffffff" stroke="transparent" points="-4,4 -4,-55 640.7266,-55 640.7266,4 -4,4"/>
<!-- Node1 -->
<g id="node1" class="node">
<title>Node1</title>
<g id="a_node1"><a xlink:title=" ">
<polygon fill="#bfbfbf" stroke="#000000" points="504.5449,-.5 504.5449,-28.5 636.7266,-28.5 636.7266,-.5 504.5449,-.5"/>
<text text-anchor="start" x="512.5449" y="-16.5" font-family="Helvetica,sans-Serif" font-size="10.00" fill="#000000">CO_places_Basalt_Plugin</text>
<text text-anchor="middle" x="570.6357" y="-6.5" font-family="Helvetica,sans-Serif" font-size="10.00" fill="#000000">\_process_parameters</text>
</a>
</g>
</g>
<!-- Node2 -->
<g id="node2" class="node">
<title>Node2</title>
<g id="a_node2"><a xlink:href="a00208.html#a021e0e49bd0868754a212795cfe8ebfd" target="_top" xlink:title=" ">
<polygon fill="#ffffff" stroke="#000000" points="336.3633,-.5 336.3633,-28.5 468.5449,-28.5 468.5449,-.5 336.3633,-.5"/>
<text text-anchor="start" x="344.3633" y="-16.5" font-family="Helvetica,sans-Serif" font-size="10.00" fill="#000000">CO_places_Basalt_Plugin</text>
<text text-anchor="middle" x="402.4541" y="-6.5" font-family="Helvetica,sans-Serif" font-size="10.00" fill="#000000">\_process_place_put</text>
</a>
</g>
</g>
<!-- Node1&#45;&gt;Node2 -->
<g id="edge1" class="edge">
<title>Node1&#45;&gt;Node2</title>
<path fill="none" stroke="#191970" d="M493.9583,-14.5C485.5304,-14.5 477.0024,-14.5 468.7165,-14.5"/>
<polygon fill="#191970" stroke="#191970" points="494.1659,-18.0001 504.1659,-14.5 494.1659,-11.0001 494.1659,-18.0001"/>
</g>
<!-- Node3 -->
<g id="node3" class="node">
<title>Node3</title>
<g id="a_node3"><a xlink:href="a00208.html#a3b060bbae1171b584997696bc5874a2f" target="_top" xlink:title=" ">
<polygon fill="#ffffff" stroke="#000000" points="168.1816,-22.5 168.1816,-50.5 300.3633,-50.5 300.3633,-22.5 168.1816,-22.5"/>
<text text-anchor="start" x="176.1816" y="-38.5" font-family="Helvetica,sans-Serif" font-size="10.00" fill="#000000">CO_places_Basalt_Plugin</text>
<text text-anchor="middle" x="234.2725" y="-28.5" font-family="Helvetica,sans-Serif" font-size="10.00" fill="#000000">\_process_place_post</text>
</a>
</g>
</g>
<!-- Node2&#45;&gt;Node3 -->
<g id="edge2" class="edge">
<title>Node2&#45;&gt;Node3</title>
<path fill="none" stroke="#191970" d="M326.0545,-24.4939C317.5362,-25.6082 308.9118,-26.7364 300.5348,-27.8322"/>
<polygon fill="#191970" stroke="#191970" points="326.5227,-27.9626 335.9843,-23.195 325.6147,-21.0217 326.5227,-27.9626"/>
</g>
<!-- Node4 -->
<g id="node4" class="node">
<title>Node4</title>
<g id="a_node4"><a xlink:href="a00208.html#a66729507ef35bcc83810d707412207fb" target="_top" xlink:title=" ">
<polygon fill="#ffffff" stroke="#000000" points="0,-.5 0,-28.5 132.1816,-28.5 132.1816,-.5 0,-.5"/>
<text text-anchor="start" x="8" y="-16.5" font-family="Helvetica,sans-Serif" font-size="10.00" fill="#000000">CO_places_Basalt_Plugin</text>
<text text-anchor="middle" x="66.0908" y="-6.5" font-family="Helvetica,sans-Serif" font-size="10.00" fill="#000000">\process_command</text>
</a>
</g>
</g>
<!-- Node2&#45;&gt;Node4 -->
<g id="edge4" class="edge">
<title>Node2&#45;&gt;Node4</title>
<path fill="none" stroke="#191970" d="M326.124,-13.6707C317.4357,-13.6005 308.7078,-13.5409 300.3633,-13.5 241.6166,-13.2123 226.9283,-13.2123 168.1816,-13.5 156.5719,-13.5569 144.2199,-13.6501 132.2653,-13.7573"/>
<polygon fill="#191970" stroke="#191970" points="326.2501,-17.1718 336.2796,-13.7573 326.3099,-10.172 326.2501,-17.1718"/>
</g>
<!-- Node3&#45;&gt;Node4 -->
<g id="edge3" class="edge">
<title>Node3&#45;&gt;Node4</title>
<path fill="none" stroke="#191970" d="M157.8729,-26.5061C149.3546,-25.3918 140.7302,-24.2636 132.3532,-23.1678"/>
<polygon fill="#191970" stroke="#191970" points="157.4331,-29.9783 167.8026,-27.805 158.3411,-23.0374 157.4331,-29.9783"/>
</g>
</g>
</svg>
