<?xml version="1.0" encoding="UTF-8" standalone="no"?>
<!DOCTYPE svg PUBLIC "-//W3C//DTD SVG 1.1//EN"
 "http://www.w3.org/Graphics/SVG/1.1/DTD/svg11.dtd">
<!-- Generated by graphviz version 2.40.1 (20161225.0304)
 -->
<!-- Title: CO_Place\set_address_element_by_key Pages: 1 -->
<svg width="459pt" height="79pt"
 viewBox="0.00 0.00 458.77 79.00" xmlns="http://www.w3.org/2000/svg" xmlns:xlink="http://www.w3.org/1999/xlink">
<g id="graph0" class="graph" transform="scale(1 1) rotate(0) translate(4 75)">
<title>CO_Place\set_address_element_by_key</title>
<polygon fill="#ffffff" stroke="transparent" points="-4,4 -4,-75 454.7666,-75 454.7666,4 -4,4"/>
<!-- Node1 -->
<g id="node1" class="node">
<title>Node1</title>
<g id="a_node1"><a xlink:title=" ">
<polygon fill="#bfbfbf" stroke="#000000" points="0,-21.5 0,-49.5 118.832,-49.5 118.832,-21.5 0,-21.5"/>
<text text-anchor="start" x="8" y="-37.5" font-family="Helvetica,sans-Serif" font-size="10.00" fill="#000000">CO_Place\set_address</text>
<text text-anchor="middle" x="59.416" y="-27.5" font-family="Helvetica,sans-Serif" font-size="10.00" fill="#000000">_element_by_key</text>
</a>
</g>
</g>
<!-- Node2 -->
<g id="node2" class="node">
<title>Node2</title>
<g id="a_node2"><a xlink:href="a00260.html#a60b73dee76e98e806f4a872cca13ee58" target="_top" xlink:title=" ">
<polygon fill="#ffffff" stroke="#000000" points="317.7378,-42.5 317.7378,-70.5 442.6929,-70.5 442.6929,-42.5 317.7378,-42.5"/>
<text text-anchor="start" x="325.7378" y="-58.5" font-family="Helvetica,sans-Serif" font-size="10.00" fill="#000000">CO_Place\_get_address</text>
<text text-anchor="middle" x="380.2153" y="-48.5" font-family="Helvetica,sans-Serif" font-size="10.00" fill="#000000">_element_labels</text>
</a>
</g>
</g>
<!-- Node1&#45;&gt;Node2 -->
<g id="edge1" class="edge">
<title>Node1&#45;&gt;Node2</title>
<path fill="none" stroke="#191970" d="M119.0041,-39.4007C172.3354,-42.8919 250.6715,-48.0199 307.6398,-51.7491"/>
<polygon fill="#191970" stroke="#191970" points="307.4528,-55.2443 317.6601,-52.405 307.9101,-48.2592 307.4528,-55.2443"/>
</g>
<!-- Node3 -->
<g id="node3" class="node">
<title>Node3</title>
<g id="a_node3"><a xlink:href="a00260.html#a7b99eb196e710f9cf14ad39601e2b3ad" target="_top" xlink:title=" ">
<polygon fill="#ffffff" stroke="#000000" points="154.832,-.5 154.832,-28.5 273.6641,-28.5 273.6641,-.5 154.832,-.5"/>
<text text-anchor="start" x="162.832" y="-16.5" font-family="Helvetica,sans-Serif" font-size="10.00" fill="#000000">CO_Place\set_address</text>
<text text-anchor="middle" x="214.248" y="-6.5" font-family="Helvetica,sans-Serif" font-size="10.00" fill="#000000">_element</text>
</a>
</g>
</g>
<!-- Node1&#45;&gt;Node3 -->
<g id="edge2" class="edge">
<title>Node1&#45;&gt;Node3</title>
<path fill="none" stroke="#191970" d="M118.8353,-27.4409C127.294,-26.2936 136.0562,-25.1052 144.6868,-23.9346"/>
<polygon fill="#191970" stroke="#191970" points="145.2931,-27.3846 154.7319,-22.5722 144.3522,-20.4481 145.2931,-27.3846"/>
</g>
<!-- Node3&#45;&gt;Node2 -->
<g id="edge3" class="edge">
<title>Node3&#45;&gt;Node2</title>
<path fill="none" stroke="#191970" d="M269.9745,-28.6022C284.2825,-32.223 299.8067,-36.1516 314.5652,-39.8865"/>
<polygon fill="#191970" stroke="#191970" points="314.0829,-43.3747 324.636,-42.435 315.8003,-36.5886 314.0829,-43.3747"/>
</g>
<!-- Node4 -->
<g id="node4" class="node">
<title>Node4</title>
<g id="a_node4"><a xlink:href="a00332.html#aaa41a4de441030a1bc25875991cf00d0" target="_top" xlink:title=" ">
<polygon fill="#ffffff" stroke="#000000" points="309.6641,-5.5 309.6641,-23.5 450.7666,-23.5 450.7666,-5.5 309.6641,-5.5"/>
<text text-anchor="middle" x="380.2153" y="-11.5" font-family="Helvetica,sans-Serif" font-size="10.00" fill="#000000">CO_LL_Location\update_db</text>
</a>
</g>
</g>
<!-- Node3&#45;&gt;Node4 -->
<g id="edge4" class="edge">
<title>Node3&#45;&gt;Node4</title>
<path fill="none" stroke="#191970" d="M273.6973,-14.5C282.0539,-14.5 290.7576,-14.5 299.4293,-14.5"/>
<polygon fill="#191970" stroke="#191970" points="299.5718,-18.0001 309.5717,-14.5 299.5717,-11.0001 299.5718,-18.0001"/>
</g>
</g>
</svg>
