<?xml version="1.0" encoding="UTF-8" standalone="no"?>
<!DOCTYPE svg PUBLIC "-//W3C//DTD SVG 1.1//EN"
 "http://www.w3.org/Graphics/SVG/1.1/DTD/svg11.dtd">
<!-- Generated by graphviz version 2.47.1 (20210417.1919)
 -->
<!-- Title: CO_Place\set_address_element_by_key Pages: 1 -->
<svg width="453pt" height="83pt"
 viewBox="0.00 0.00 453.00 83.00" xmlns="http://www.w3.org/2000/svg" xmlns:xlink="http://www.w3.org/1999/xlink">
<g id="graph0" class="graph" transform="scale(1 1) rotate(0) translate(4 79)">
<title>CO_Place\set_address_element_by_key</title>
<polygon fill="white" stroke="transparent" points="-4,4 -4,-79 449,-79 449,4 -4,4"/>
<!-- Node1 -->
<g id="node1" class="node">
<title>Node1</title>
<g id="a_node1"><a xlink:title=" ">
<polygon fill="#bfbfbf" stroke="black" points="0,-22.5 0,-52.5 118,-52.5 118,-22.5 0,-22.5"/>
<text text-anchor="start" x="8" y="-40.5" font-family="Helvetica,sans-Serif" font-size="10.00">CO_Place\set_address</text>
<text text-anchor="middle" x="59" y="-29.5" font-family="Helvetica,sans-Serif" font-size="10.00">_element_by_key</text>
</a>
</g>
</g>
<!-- Node2 -->
<g id="node2" class="node">
<title>Node2</title>
<g id="a_node2"><a xlink:href="a00260.html#a60b73dee76e98e806f4a872cca13ee58" target="_top" xlink:title=" ">
<polygon fill="white" stroke="black" points="315,-44.5 315,-74.5 438,-74.5 438,-44.5 315,-44.5"/>
<text text-anchor="start" x="323" y="-62.5" font-family="Helvetica,sans-Serif" font-size="10.00">CO_Place\_get_address</text>
<text text-anchor="middle" x="376.5" y="-51.5" font-family="Helvetica,sans-Serif" font-size="10.00">_element_labels</text>
</a>
</g>
</g>
<!-- Node1&#45;&gt;Node2 -->
<g id="edge1" class="edge">
<title>Node1&#45;&gt;Node2</title>
<path fill="none" stroke="midnightblue" d="M118.24,-41.56C170.87,-45.23 248.48,-50.64 304.68,-54.56"/>
<polygon fill="midnightblue" stroke="midnightblue" points="304.7,-58.07 314.92,-55.28 305.19,-51.09 304.7,-58.07"/>
</g>
<!-- Node3 -->
<g id="node3" class="node">
<title>Node3</title>
<g id="a_node3"><a xlink:href="a00260.html#a7b99eb196e710f9cf14ad39601e2b3ad" target="_top" xlink:title=" ">
<polygon fill="white" stroke="black" points="154,-0.5 154,-30.5 272,-30.5 272,-0.5 154,-0.5"/>
<text text-anchor="start" x="162" y="-18.5" font-family="Helvetica,sans-Serif" font-size="10.00">CO_Place\set_address</text>
<text text-anchor="middle" x="213" y="-7.5" font-family="Helvetica,sans-Serif" font-size="10.00">_element</text>
</a>
</g>
</g>
<!-- Node1&#45;&gt;Node3 -->
<g id="edge2" class="edge">
<title>Node1&#45;&gt;Node3</title>
<path fill="none" stroke="midnightblue" d="M118.33,-29.06C126.7,-27.85 135.36,-26.59 143.9,-25.36"/>
<polygon fill="midnightblue" stroke="midnightblue" points="144.43,-28.82 153.82,-23.92 143.43,-21.89 144.43,-28.82"/>
</g>
<!-- Node3&#45;&gt;Node2 -->
<g id="edge3" class="edge">
<title>Node3&#45;&gt;Node2</title>
<path fill="none" stroke="midnightblue" d="M269.13,-30.52C282.44,-34.15 296.78,-38.05 310.5,-41.79"/>
<polygon fill="midnightblue" stroke="midnightblue" points="309.78,-45.22 320.35,-44.47 311.62,-38.47 309.78,-45.22"/>
</g>
<!-- Node4 -->
<g id="node4" class="node">
<title>Node4</title>
<g id="a_node4"><a xlink:href="a00332.html#aaa41a4de441030a1bc25875991cf00d0" target="_top" xlink:title=" ">
<polygon fill="white" stroke="black" points="308,-6 308,-25 445,-25 445,-6 308,-6"/>
<text text-anchor="middle" x="376.5" y="-13" font-family="Helvetica,sans-Serif" font-size="10.00">CO_LL_Location\update_db</text>
</a>
</g>
</g>
<!-- Node3&#45;&gt;Node4 -->
<g id="edge4" class="edge">
<title>Node3&#45;&gt;Node4</title>
<path fill="none" stroke="midnightblue" d="M272.31,-15.5C280.62,-15.5 289.27,-15.5 297.88,-15.5"/>
<polygon fill="midnightblue" stroke="midnightblue" points="297.95,-19 307.95,-15.5 297.95,-12 297.95,-19"/>
</g>
</g>
</svg>
