<?xml version="1.0" encoding="UTF-8" standalone="no"?>
<!DOCTYPE svg PUBLIC "-//W3C//DTD SVG 1.1//EN"
 "http://www.w3.org/Graphics/SVG/1.1/DTD/svg11.dtd">
<!-- Generated by graphviz version 2.47.1 (20210417.1919)
 -->
<!-- Title: CO_Andisol\get_user_from_login Pages: 1 -->
<svg width="717pt" height="91pt"
 viewBox="0.00 0.00 717.00 90.66" xmlns="http://www.w3.org/2000/svg" xmlns:xlink="http://www.w3.org/1999/xlink">
<g id="graph0" class="graph" transform="scale(1 1) rotate(0) translate(4 86.66)">
<title>CO_Andisol\get_user_from_login</title>
<polygon fill="white" stroke="transparent" points="-4,4 -4,-86.66 713,-86.66 713,4 -4,4"/>
<!-- Node1 -->
<g id="node1" class="node">
<title>Node1</title>
<g id="a_node1"><a xlink:title=" ">
<polygon fill="#bfbfbf" stroke="black" points="0,-42 0,-72 110,-72 110,-42 0,-42"/>
<text text-anchor="start" x="8" y="-60" font-family="Helvetica,sans-Serif" font-size="10.00">CO_Andisol\get_user</text>
<text text-anchor="middle" x="55" y="-49" font-family="Helvetica,sans-Serif" font-size="10.00">_from_login</text>
</a>
</g>
</g>
<!-- Node2 -->
<g id="node2" class="node">
<title>Node2</title>
<g id="a_node2"><a xlink:href="a00216.html#acda267f1d6a8e496e167ed46fe590dc6" target="_top" xlink:title=" ">
<polygon fill="white" stroke="black" points="571,-33 571,-63 709,-63 709,-33 571,-33"/>
<text text-anchor="start" x="579" y="-51" font-family="Helvetica,sans-Serif" font-size="10.00">CO_Andisol\get_chameleon</text>
<text text-anchor="middle" x="640" y="-40" font-family="Helvetica,sans-Serif" font-size="10.00">_instance</text>
</a>
</g>
</g>
<!-- Node1&#45;&gt;Node2 -->
<g id="edge1" class="edge">
<title>Node1&#45;&gt;Node2</title>
<path fill="none" stroke="midnightblue" d="M110.19,-64.8C121.98,-66.33 134.39,-67.83 146,-69 261.5,-80.64 291.17,-86.7 407,-79 458.55,-75.57 516.12,-67.9 561.01,-61.05"/>
<polygon fill="midnightblue" stroke="midnightblue" points="561.62,-64.5 570.97,-59.51 560.55,-57.58 561.62,-64.5"/>
</g>
<!-- Node3 -->
<g id="node3" class="node">
<title>Node3</title>
<g id="a_node3"><a xlink:href="a00216.html#a3605f036c8c634afaa74f67e5853a0ad" target="_top" xlink:title=" ">
<polygon fill="white" stroke="black" points="292,-39 292,-69 407,-69 407,-39 292,-39"/>
<text text-anchor="start" x="300" y="-57" font-family="Helvetica,sans-Serif" font-size="10.00">CO_Andisol\get_cobra</text>
<text text-anchor="middle" x="349.5" y="-46" font-family="Helvetica,sans-Serif" font-size="10.00">_instance</text>
</a>
</g>
</g>
<!-- Node1&#45;&gt;Node3 -->
<g id="edge2" class="edge">
<title>Node1&#45;&gt;Node3</title>
<path fill="none" stroke="midnightblue" d="M110.33,-56.44C158.81,-55.95 229.95,-55.22 281.85,-54.68"/>
<polygon fill="midnightblue" stroke="midnightblue" points="282,-58.18 291.97,-54.58 281.93,-51.18 282,-58.18"/>
</g>
<!-- Node4 -->
<g id="node4" class="node">
<title>Node4</title>
<g id="a_node4"><a xlink:href="a00216.html#af5f39aa13714ad544a9099edb0d51cd5" target="_top" xlink:title=" ">
<polygon fill="white" stroke="black" points="146,-9.5 146,-28.5 256,-28.5 256,-9.5 146,-9.5"/>
<text text-anchor="middle" x="201" y="-16.5" font-family="Helvetica,sans-Serif" font-size="10.00">CO_Andisol\manager</text>
</a>
</g>
</g>
<!-- Node1&#45;&gt;Node4 -->
<g id="edge3" class="edge">
<title>Node1&#45;&gt;Node4</title>
<path fill="none" stroke="midnightblue" d="M110.03,-42.74C124.41,-38.95 139.82,-34.88 153.75,-31.21"/>
<polygon fill="midnightblue" stroke="midnightblue" points="154.82,-34.54 163.59,-28.61 153.03,-27.77 154.82,-34.54"/>
</g>
<!-- Node4&#45;&gt;Node3 -->
<g id="edge4" class="edge">
<title>Node4&#45;&gt;Node3</title>
<path fill="none" stroke="midnightblue" d="M242.03,-28.56C254.37,-31.51 268.31,-34.84 281.93,-38.1"/>
<polygon fill="midnightblue" stroke="midnightblue" points="281.23,-41.53 291.77,-40.45 282.85,-34.72 281.23,-41.53"/>
</g>
<!-- Node5 -->
<g id="node5" class="node">
<title>Node5</title>
<g id="a_node5"><a xlink:href="a00216.html#ac2a2dcb99dc927789b0ffa09c24946de" target="_top" xlink:title=" ">
<polygon fill="white" stroke="black" points="293,-0.5 293,-19.5 406,-19.5 406,-0.5 293,-0.5"/>
<text text-anchor="middle" x="349.5" y="-7.5" font-family="Helvetica,sans-Serif" font-size="10.00">CO_Andisol\logged_in</text>
</a>
</g>
</g>
<!-- Node4&#45;&gt;Node5 -->
<g id="edge5" class="edge">
<title>Node4&#45;&gt;Node5</title>
<path fill="none" stroke="midnightblue" d="M256.13,-15.67C264.69,-15.15 273.62,-14.6 282.4,-14.06"/>
<polygon fill="midnightblue" stroke="midnightblue" points="282.86,-17.54 292.63,-13.43 282.43,-10.55 282.86,-17.54"/>
</g>
<!-- Node5&#45;&gt;Node2 -->
<g id="edge6" class="edge">
<title>Node5&#45;&gt;Node2</title>
<path fill="none" stroke="midnightblue" d="M392.23,-19.55C408.07,-22.92 426.3,-26.48 443,-29 481.46,-34.8 524.45,-39.19 560.34,-42.29"/>
<polygon fill="midnightblue" stroke="midnightblue" points="560.49,-45.82 570.75,-43.17 561.08,-38.84 560.49,-45.82"/>
</g>
<!-- Node6 -->
<g id="node6" class="node">
<title>Node6</title>
<g id="a_node6"><a xlink:href="a00216.html#a4b0ec12b29ce4812cbb4169b68770f66" target="_top" xlink:title=" ">
<polygon fill="white" stroke="black" points="443,-0.5 443,-19.5 535,-19.5 535,-0.5 443,-0.5"/>
<text text-anchor="middle" x="489" y="-7.5" font-family="Helvetica,sans-Serif" font-size="10.00">CO_Andisol\valid</text>
</a>
</g>
</g>
<!-- Node5&#45;&gt;Node6 -->
<g id="edge7" class="edge">
<title>Node5&#45;&gt;Node6</title>
<path fill="none" stroke="midnightblue" d="M406.03,-10C414.82,-10 423.9,-10 432.68,-10"/>
<polygon fill="midnightblue" stroke="midnightblue" points="432.81,-13.5 442.81,-10 432.81,-6.5 432.81,-13.5"/>
</g>
<!-- Node6&#45;&gt;Node2 -->
<g id="edge8" class="edge">
<title>Node6&#45;&gt;Node2</title>
<path fill="none" stroke="midnightblue" d="M527.6,-19.59C540.49,-22.88 555.35,-26.67 569.93,-30.38"/>
<polygon fill="midnightblue" stroke="midnightblue" points="569.4,-33.86 579.95,-32.94 571.13,-27.08 569.4,-33.86"/>
</g>
</g>
</svg>
