<?xml version="1.0" encoding="UTF-8" standalone="no"?>
<!DOCTYPE svg PUBLIC "-//W3C//DTD SVG 1.1//EN"
 "http://www.w3.org/Graphics/SVG/1.1/DTD/svg11.dtd">
<!-- Generated by graphviz version 2.40.1 (20161225.0304)
 -->
<!-- Title: CO_Place\set_address_element Pages: 1 -->
<svg width="434pt" height="84pt"
 viewBox="0.00 0.00 433.71 84.00" xmlns="http://www.w3.org/2000/svg" xmlns:xlink="http://www.w3.org/1999/xlink">
<g id="graph0" class="graph" transform="scale(1 1) rotate(0) translate(4 80)">
<title>CO_Place\set_address_element</title>
<polygon fill="#ffffff" stroke="transparent" points="-4,4 -4,-80 429.7129,-80 429.7129,4 -4,4"/>
<!-- Node44 -->
<g id="node1" class="node">
<title>Node44</title>
<polygon fill="#bfbfbf" stroke="#000000" points="0,-23.5 0,-51.5 118.832,-51.5 118.832,-23.5 0,-23.5"/>
<text text-anchor="start" x="8" y="-39.5" font-family="Helvetica,sans-Serif" font-size="10.00" fill="#000000">CO_Place\set_address</text>
<text text-anchor="middle" x="59.416" y="-29.5" font-family="Helvetica,sans-Serif" font-size="10.00" fill="#000000">_element</text>
</g>
<!-- Node45 -->
<g id="node2" class="node">
<title>Node45</title>
<g id="a_node2"><a xlink:href="a00263.html#a775079ce6d7951fc6597173ac55d0218" target="_top" xlink:title="CO_Place\\set_address\l_element_by_key">
<polygon fill="#ffffff" stroke="#000000" points="154.832,-47.5 154.832,-75.5 273.6641,-75.5 273.6641,-47.5 154.832,-47.5"/>
<text text-anchor="start" x="162.832" y="-63.5" font-family="Helvetica,sans-Serif" font-size="10.00" fill="#000000">CO_Place\set_address</text>
<text text-anchor="middle" x="214.248" y="-53.5" font-family="Helvetica,sans-Serif" font-size="10.00" fill="#000000">_element_by_key</text>
</a>
</g>
</g>
<!-- Node44&#45;&gt;Node45 -->
<g id="edge1" class="edge">
<title>Node44&#45;&gt;Node45</title>
<path fill="none" stroke="#191970" d="M128.8785,-48.2671C137.5081,-49.6048 146.2709,-50.9631 154.7319,-52.2746"/>
<polygon fill="#191970" stroke="#191970" points="129.2535,-44.7835 118.8353,-46.7104 128.1812,-51.7009 129.2535,-44.7835"/>
</g>
<!-- Node46 -->
<g id="node3" class="node">
<title>Node46</title>
<g id="a_node3"><a xlink:href="a00263.html#a94507f0c219ba9bc342e40d6064941db" target="_top" xlink:title="CO_Place\\set_address\l_elements">
<polygon fill="#ffffff" stroke="#000000" points="154.832,-.5 154.832,-28.5 273.6641,-28.5 273.6641,-.5 154.832,-.5"/>
<text text-anchor="start" x="162.832" y="-16.5" font-family="Helvetica,sans-Serif" font-size="10.00" fill="#000000">CO_Place\set_address</text>
<text text-anchor="middle" x="214.248" y="-6.5" font-family="Helvetica,sans-Serif" font-size="10.00" fill="#000000">_elements</text>
</a>
</g>
</g>
<!-- Node44&#45;&gt;Node46 -->
<g id="edge2" class="edge">
<title>Node44&#45;&gt;Node46</title>
<path fill="none" stroke="#191970" d="M128.8785,-27.1815C137.5081,-25.8996 146.2709,-24.5979 154.7319,-23.341"/>
<polygon fill="#191970" stroke="#191970" points="128.2125,-23.7419 118.8353,-28.6734 129.2411,-30.6659 128.2125,-23.7419"/>
</g>
<!-- Node47 -->
<g id="node4" class="node">
<title>Node47</title>
<g id="a_node4"><a xlink:href="a00263.html#a0828fcac351a2f23404059be980e7b41" target="_top" xlink:title="CO_Place\\__construct">
<polygon fill="#ffffff" stroke="#000000" points="309.6641,-5.5 309.6641,-23.5 425.7129,-23.5 425.7129,-5.5 309.6641,-5.5"/>
<text text-anchor="middle" x="367.6885" y="-11.5" font-family="Helvetica,sans-Serif" font-size="10.00" fill="#000000">CO_Place\__construct</text>
</a>
</g>
</g>
<!-- Node46&#45;&gt;Node47 -->
<g id="edge3" class="edge">
<title>Node46&#45;&gt;Node47</title>
<path fill="none" stroke="#191970" d="M284.2652,-14.5C292.7391,-14.5 301.323,-14.5 309.5989,-14.5"/>
<polygon fill="#191970" stroke="#191970" points="284.0115,-11.0001 274.0115,-14.5 284.0115,-18.0001 284.0115,-11.0001"/>
</g>
</g>
</svg>
