<?xml version="1.0" encoding="UTF-8" standalone="no"?>
<!DOCTYPE svg PUBLIC "-//W3C//DTD SVG 1.1//EN"
 "http://www.w3.org/Graphics/SVG/1.1/DTD/svg11.dtd">
<!-- Generated by graphviz version 2.47.1 (20210417.1919)
 -->
<!-- Title: CO_Andisol\create_new_user Pages: 1 -->
<svg width="753pt" height="97pt"
 viewBox="0.00 0.00 753.00 96.50" xmlns="http://www.w3.org/2000/svg" xmlns:xlink="http://www.w3.org/1999/xlink">
<g id="graph0" class="graph" transform="scale(1 1) rotate(0) translate(4 92.5)">
<title>CO_Andisol\create_new_user</title>
<polygon fill="white" stroke="transparent" points="-4,4 -4,-92.5 749,-92.5 749,4 -4,4"/>
<!-- Node1 -->
<g id="node1" class="node">
<title>Node1</title>
<g id="a_node1"><a xlink:title=" ">
<polygon fill="#bfbfbf" stroke="black" points="0,-44.5 0,-63.5 146,-63.5 146,-44.5 0,-44.5"/>
<text text-anchor="middle" x="73" y="-51.5" font-family="Helvetica,sans-Serif" font-size="10.00">CO_Andisol\create_new_user</text>
</a>
</g>
</g>
<!-- Node2 -->
<g id="node2" class="node">
<title>Node2</title>
<g id="a_node2"><a xlink:href="a00216.html#a3605f036c8c634afaa74f67e5853a0ad" target="_top" xlink:title=" ">
<polygon fill="white" stroke="black" points="328,-58 328,-88 443,-88 443,-58 328,-58"/>
<text text-anchor="start" x="336" y="-76" font-family="Helvetica,sans-Serif" font-size="10.00">CO_Andisol\get_cobra</text>
<text text-anchor="middle" x="385.5" y="-65" font-family="Helvetica,sans-Serif" font-size="10.00">_instance</text>
</a>
</g>
</g>
<!-- Node1&#45;&gt;Node2 -->
<g id="edge1" class="edge">
<title>Node1&#45;&gt;Node2</title>
<path fill="none" stroke="midnightblue" d="M146.02,-58.41C197.8,-61.58 267.14,-65.82 317.7,-68.91"/>
<polygon fill="midnightblue" stroke="midnightblue" points="317.67,-72.42 327.87,-69.53 318.1,-65.43 317.67,-72.42"/>
</g>
<!-- Node3 -->
<g id="node3" class="node">
<title>Node3</title>
<g id="a_node3"><a xlink:href="a00216.html#af5f39aa13714ad544a9099edb0d51cd5" target="_top" xlink:title=" ">
<polygon fill="white" stroke="black" points="182,-25.5 182,-44.5 292,-44.5 292,-25.5 182,-25.5"/>
<text text-anchor="middle" x="237" y="-32.5" font-family="Helvetica,sans-Serif" font-size="10.00">CO_Andisol\manager</text>
</a>
</g>
</g>
<!-- Node1&#45;&gt;Node3 -->
<g id="edge2" class="edge">
<title>Node1&#45;&gt;Node3</title>
<path fill="none" stroke="midnightblue" d="M146.47,-45.5C154.86,-44.52 163.36,-43.52 171.63,-42.55"/>
<polygon fill="midnightblue" stroke="midnightblue" points="172.05,-46.02 181.57,-41.38 171.23,-39.07 172.05,-46.02"/>
</g>
<!-- Node3&#45;&gt;Node2 -->
<g id="edge3" class="edge">
<title>Node3&#45;&gt;Node2</title>
<path fill="none" stroke="midnightblue" d="M274.97,-44.59C287.98,-47.97 303.05,-51.87 317.76,-55.69"/>
<polygon fill="midnightblue" stroke="midnightblue" points="317.29,-59.18 327.85,-58.31 319.05,-52.41 317.29,-59.18"/>
</g>
<!-- Node4 -->
<g id="node4" class="node">
<title>Node4</title>
<g id="a_node4"><a xlink:href="a00216.html#ac2a2dcb99dc927789b0ffa09c24946de" target="_top" xlink:title=" ">
<polygon fill="white" stroke="black" points="329,-19.5 329,-38.5 442,-38.5 442,-19.5 329,-19.5"/>
<text text-anchor="middle" x="385.5" y="-26.5" font-family="Helvetica,sans-Serif" font-size="10.00">CO_Andisol\logged_in</text>
</a>
</g>
</g>
<!-- Node3&#45;&gt;Node4 -->
<g id="edge4" class="edge">
<title>Node3&#45;&gt;Node4</title>
<path fill="none" stroke="midnightblue" d="M292.13,-32.78C300.69,-32.43 309.62,-32.07 318.4,-31.71"/>
<polygon fill="midnightblue" stroke="midnightblue" points="318.78,-35.19 328.63,-31.29 318.49,-28.2 318.78,-35.19"/>
</g>
<!-- Node5 -->
<g id="node5" class="node">
<title>Node5</title>
<g id="a_node5"><a xlink:href="a00216.html#acda267f1d6a8e496e167ed46fe590dc6" target="_top" xlink:title=" ">
<polygon fill="white" stroke="black" points="607,-14 607,-44 745,-44 745,-14 607,-14"/>
<text text-anchor="start" x="615" y="-32" font-family="Helvetica,sans-Serif" font-size="10.00">CO_Andisol\get_chameleon</text>
<text text-anchor="middle" x="676" y="-21" font-family="Helvetica,sans-Serif" font-size="10.00">_instance</text>
</a>
</g>
</g>
<!-- Node4&#45;&gt;Node5 -->
<g id="edge5" class="edge">
<title>Node4&#45;&gt;Node5</title>
<path fill="none" stroke="midnightblue" d="M442.13,-29C486,-29 547.73,-29 596.61,-29"/>
<polygon fill="midnightblue" stroke="midnightblue" points="596.84,-32.5 606.84,-29 596.84,-25.5 596.84,-32.5"/>
</g>
<!-- Node6 -->
<g id="node6" class="node">
<title>Node6</title>
<g id="a_node6"><a xlink:href="a00216.html#a4b0ec12b29ce4812cbb4169b68770f66" target="_top" xlink:title=" ">
<polygon fill="white" stroke="black" points="479,-0.5 479,-19.5 571,-19.5 571,-0.5 479,-0.5"/>
<text text-anchor="middle" x="525" y="-7.5" font-family="Helvetica,sans-Serif" font-size="10.00">CO_Andisol\valid</text>
</a>
</g>
</g>
<!-- Node4&#45;&gt;Node6 -->
<g id="edge6" class="edge">
<title>Node4&#45;&gt;Node6</title>
<path fill="none" stroke="midnightblue" d="M442.03,-21.33C450.82,-20.11 459.9,-18.86 468.68,-17.64"/>
<polygon fill="midnightblue" stroke="midnightblue" points="469.39,-21.08 478.81,-16.24 468.43,-14.15 469.39,-21.08"/>
</g>
<!-- Node6&#45;&gt;Node5 -->
<g id="edge7" class="edge">
<title>Node6&#45;&gt;Node5</title>
<path fill="none" stroke="midnightblue" d="M571.11,-15.75C579.32,-16.8 588.11,-17.92 596.96,-19.05"/>
<polygon fill="midnightblue" stroke="midnightblue" points="596.59,-22.53 606.95,-20.32 597.47,-15.59 596.59,-22.53"/>
</g>
</g>
</svg>
