<?xml version="1.0" encoding="UTF-8" standalone="no"?>
<!DOCTYPE svg PUBLIC "-//W3C//DTD SVG 1.1//EN"
 "http://www.w3.org/Graphics/SVG/1.1/DTD/svg11.dtd">
<!-- Generated by graphviz version 2.40.1 (20161225.0304)
 -->
<!-- Title: CO_Andisol\_create_db_object Pages: 1 -->
<svg width="637pt" height="163pt"
 viewBox="0.00 0.00 636.92 163.00" xmlns="http://www.w3.org/2000/svg" xmlns:xlink="http://www.w3.org/1999/xlink">
<g id="graph0" class="graph" transform="scale(1 1) rotate(0) translate(4 159)">
<title>CO_Andisol\_create_db_object</title>
<polygon fill="#ffffff" stroke="transparent" points="-4,4 -4,-159 632.9238,-159 632.9238,4 -4,4"/>
<!-- Node7 -->
<g id="node1" class="node">
<title>Node7</title>
<polygon fill="#bfbfbf" stroke="#000000" points="0,-89.5 0,-117.5 105.4922,-117.5 105.4922,-89.5 0,-89.5"/>
<text text-anchor="start" x="8" y="-105.5" font-family="Helvetica,sans-Serif" font-size="10.00" fill="#000000">CO_Andisol\_create</text>
<text text-anchor="middle" x="52.7461" y="-95.5" font-family="Helvetica,sans-Serif" font-size="10.00" fill="#000000">_db_object</text>
</g>
<!-- Node8 -->
<g id="node2" class="node">
<title>Node8</title>
<g id="a_node2"><a xlink:href="a00219.html#a1783b1403b768959f80f17b08a5e8f82" target="_top" xlink:title="CO_Andisol\\create_general\l_data_item">
<polygon fill="#ffffff" stroke="#000000" points="141.4922,-89.5 141.4922,-117.5 280.3438,-117.5 280.3438,-89.5 141.4922,-89.5"/>
<text text-anchor="start" x="149.4922" y="-105.5" font-family="Helvetica,sans-Serif" font-size="10.00" fill="#000000">CO_Andisol\create_general</text>
<text text-anchor="middle" x="210.918" y="-95.5" font-family="Helvetica,sans-Serif" font-size="10.00" fill="#000000">_data_item</text>
</a>
</g>
</g>
<!-- Node7&#45;&gt;Node8 -->
<g id="edge1" class="edge">
<title>Node7&#45;&gt;Node8</title>
<path fill="none" stroke="#191970" d="M115.9155,-103.5C124.286,-103.5 132.9047,-103.5 141.3752,-103.5"/>
<polygon fill="#191970" stroke="#191970" points="115.8551,-100.0001 105.8551,-103.5 115.855,-107.0001 115.8551,-100.0001"/>
</g>
<!-- Node9 -->
<g id="node3" class="node">
<title>Node9</title>
<g id="a_node3"><a xlink:href="a00219.html#a1432efeebcc0952a1236feec7bbceb13" target="_top" xlink:title="CO_Andisol\\create_collection">
<polygon fill="#ffffff" stroke="#000000" points="316.3438,-136.5 316.3438,-154.5 463.5254,-154.5 463.5254,-136.5 316.3438,-136.5"/>
<text text-anchor="middle" x="389.9346" y="-142.5" font-family="Helvetica,sans-Serif" font-size="10.00" fill="#000000">CO_Andisol\create_collection</text>
</a>
</g>
</g>
<!-- Node8&#45;&gt;Node9 -->
<g id="edge2" class="edge">
<title>Node8&#45;&gt;Node9</title>
<path fill="none" stroke="#191970" d="M280.8079,-119.8972C304.7929,-125.5245 330.7545,-131.6155 351.336,-136.4442"/>
<polygon fill="#191970" stroke="#191970" points="281.561,-116.479 271.0259,-117.6022 279.9621,-123.2939 281.561,-116.479"/>
</g>
<!-- Node10 -->
<g id="node4" class="node">
<title>Node10</title>
<g id="a_node4"><a xlink:href="a00219.html#a24b15c45e28b5a0fb4971c11b4e5ed99" target="_top" xlink:title="CO_Andisol\\create_ll\l_location">
<polygon fill="#ffffff" stroke="#000000" points="334.9668,-89.5 334.9668,-117.5 444.9023,-117.5 444.9023,-89.5 334.9668,-89.5"/>
<text text-anchor="start" x="342.9668" y="-105.5" font-family="Helvetica,sans-Serif" font-size="10.00" fill="#000000">CO_Andisol\create_ll</text>
<text text-anchor="middle" x="389.9346" y="-95.5" font-family="Helvetica,sans-Serif" font-size="10.00" fill="#000000">_location</text>
</a>
</g>
</g>
<!-- Node8&#45;&gt;Node10 -->
<g id="edge3" class="edge">
<title>Node8&#45;&gt;Node10</title>
<path fill="none" stroke="#191970" d="M290.6593,-103.5C305.6126,-103.5 320.934,-103.5 334.927,-103.5"/>
<polygon fill="#191970" stroke="#191970" points="290.3867,-100.0001 280.3867,-103.5 290.3866,-107.0001 290.3867,-100.0001"/>
</g>
<!-- Node11 -->
<g id="node5" class="node">
<title>Node11</title>
<g id="a_node5"><a xlink:href="a00219.html#a79103b0d231d1dcc1f7c1921e5118621" target="_top" xlink:title="CO_Andisol\\create_place">
<polygon fill="#ffffff" stroke="#000000" points="325.2354,-52.5 325.2354,-70.5 454.6338,-70.5 454.6338,-52.5 325.2354,-52.5"/>
<text text-anchor="middle" x="389.9346" y="-58.5" font-family="Helvetica,sans-Serif" font-size="10.00" fill="#000000">CO_Andisol\create_place</text>
</a>
</g>
</g>
<!-- Node8&#45;&gt;Node11 -->
<g id="edge4" class="edge">
<title>Node8&#45;&gt;Node11</title>
<path fill="none" stroke="#191970" d="M280.8079,-87.1028C304.7929,-81.4755 330.7545,-75.3845 351.336,-70.5558"/>
<polygon fill="#191970" stroke="#191970" points="279.9621,-83.7061 271.0259,-89.3978 281.561,-90.521 279.9621,-83.7061"/>
</g>
<!-- Node12 -->
<g id="node6" class="node">
<title>Node12</title>
<g id="a_node6"><a xlink:href="a00219.html#a58956fb178766e8d0074dcb138d1e650" target="_top" xlink:title="CO_Andisol\\create_ll\l_place">
<polygon fill="#ffffff" stroke="#000000" points="509.2568,-94.5 509.2568,-122.5 619.1924,-122.5 619.1924,-94.5 509.2568,-94.5"/>
<text text-anchor="start" x="517.2568" y="-110.5" font-family="Helvetica,sans-Serif" font-size="10.00" fill="#000000">CO_Andisol\create_ll</text>
<text text-anchor="middle" x="564.2246" y="-100.5" font-family="Helvetica,sans-Serif" font-size="10.00" fill="#000000">_place</text>
</a>
</g>
</g>
<!-- Node11&#45;&gt;Node12 -->
<g id="edge5" class="edge">
<title>Node11&#45;&gt;Node12</title>
<path fill="none" stroke="#191970" d="M435.4146,-73.1016C444.7222,-75.5154 454.4465,-78.066 463.5254,-80.5 480.0882,-84.9404 498.1448,-89.918 514.3354,-94.431"/>
<polygon fill="#191970" stroke="#191970" points="436.0863,-69.6603 425.5287,-70.548 434.3356,-76.4379 436.0863,-69.6603"/>
</g>
<!-- Node13 -->
<g id="node7" class="node">
<title>Node13</title>
<g id="a_node7"><a xlink:href="a00219.html#a5f26c529c4b6d41367241db17d114fb5" target="_top" xlink:title="CO_Andisol\\create_ll\l_us_place">
<polygon fill="#ffffff" stroke="#000000" points="509.2568,-47.5 509.2568,-75.5 619.1924,-75.5 619.1924,-47.5 509.2568,-47.5"/>
<text text-anchor="start" x="517.2568" y="-63.5" font-family="Helvetica,sans-Serif" font-size="10.00" fill="#000000">CO_Andisol\create_ll</text>
<text text-anchor="middle" x="564.2246" y="-53.5" font-family="Helvetica,sans-Serif" font-size="10.00" fill="#000000">_us_place</text>
</a>
</g>
</g>
<!-- Node11&#45;&gt;Node13 -->
<g id="edge6" class="edge">
<title>Node11&#45;&gt;Node13</title>
<path fill="none" stroke="#191970" d="M464.9695,-61.5C479.7503,-61.5 495.0052,-61.5 508.9884,-61.5"/>
<polygon fill="#191970" stroke="#191970" points="464.8338,-58.0001 454.8337,-61.5 464.8337,-65.0001 464.8338,-58.0001"/>
</g>
<!-- Node14 -->
<g id="node8" class="node">
<title>Node14</title>
<g id="a_node8"><a xlink:href="a00219.html#a492fc0036d5930c325ed14bfcdd5938a" target="_top" xlink:title="CO_Andisol\\create_place\l_collection">
<polygon fill="#ffffff" stroke="#000000" points="499.5254,-.5 499.5254,-28.5 628.9238,-28.5 628.9238,-.5 499.5254,-.5"/>
<text text-anchor="start" x="507.5254" y="-16.5" font-family="Helvetica,sans-Serif" font-size="10.00" fill="#000000">CO_Andisol\create_place</text>
<text text-anchor="middle" x="564.2246" y="-6.5" font-family="Helvetica,sans-Serif" font-size="10.00" fill="#000000">_collection</text>
</a>
</g>
</g>
<!-- Node11&#45;&gt;Node14 -->
<g id="edge7" class="edge">
<title>Node11&#45;&gt;Node14</title>
<path fill="none" stroke="#191970" d="M433.3851,-49.7829C457.2745,-43.3407 487.0742,-35.3048 512.1974,-28.5299"/>
<polygon fill="#191970" stroke="#191970" points="432.2832,-46.4549 423.5394,-52.4379 434.1059,-53.2135 432.2832,-46.4549"/>
</g>
</g>
</svg>
