<?xml version="1.0" encoding="UTF-8" standalone="no"?>
<!DOCTYPE svg PUBLIC "-//W3C//DTD SVG 1.1//EN"
 "http://www.w3.org/Graphics/SVG/1.1/DTD/svg11.dtd">
<!-- Generated by graphviz version 2.40.1 (20161225.0304)
 -->
<!-- Title: CO_Andisol\get_login_item_by_login_string Pages: 1 -->
<svg width="268pt" height="37pt"
 viewBox="0.00 0.00 268.33 37.00" xmlns="http://www.w3.org/2000/svg" xmlns:xlink="http://www.w3.org/1999/xlink">
<g id="graph0" class="graph" transform="scale(1 1) rotate(0) translate(4 33)">
<title>CO_Andisol\get_login_item_by_login_string</title>
<polygon fill="#ffffff" stroke="transparent" points="-4,4 -4,-33 264.334,-33 264.334,4 -4,4"/>
<!-- Node236 -->
<g id="node1" class="node">
<title>Node236</title>
<polygon fill="#bfbfbf" stroke="#000000" points="0,-.5 0,-28.5 113.2803,-28.5 113.2803,-.5 0,-.5"/>
<text text-anchor="start" x="8" y="-16.5" font-family="Helvetica,sans-Serif" font-size="10.00" fill="#000000">CO_Andisol\get_login</text>
<text text-anchor="middle" x="56.6401" y="-6.5" font-family="Helvetica,sans-Serif" font-size="10.00" fill="#000000">_item_by_login_string</text>
</g>
<!-- Node237 -->
<g id="node2" class="node">
<title>Node237</title>
<g id="a_node2"><a xlink:href="a00219.html#a7d4be5fe8eb59e59a6ca94a781980e4f" target="_top" xlink:title="CO_Andisol\\get_user\l_from_login_string">
<polygon fill="#ffffff" stroke="#000000" points="149.2803,-.5 149.2803,-28.5 260.334,-28.5 260.334,-.5 149.2803,-.5"/>
<text text-anchor="start" x="157.2803" y="-16.5" font-family="Helvetica,sans-Serif" font-size="10.00" fill="#000000">CO_Andisol\get_user</text>
<text text-anchor="middle" x="204.8071" y="-6.5" font-family="Helvetica,sans-Serif" font-size="10.00" fill="#000000">_from_login_string</text>
</a>
</g>
</g>
<!-- Node236&#45;&gt;Node237 -->
<g id="edge1" class="edge">
<title>Node236&#45;&gt;Node237</title>
<path fill="none" stroke="#191970" d="M123.6707,-14.5C132.0815,-14.5 140.6146,-14.5 148.8311,-14.5"/>
<polygon fill="#191970" stroke="#191970" points="123.5017,-11.0001 113.5016,-14.5 123.5016,-18.0001 123.5017,-11.0001"/>
</g>
</g>
</svg>
