<?xml version="1.0" encoding="UTF-8" standalone="no"?>
<!DOCTYPE svg PUBLIC "-//W3C//DTD SVG 1.1//EN"
 "http://www.w3.org/Graphics/SVG/1.1/DTD/svg11.dtd">
<!-- Generated by graphviz version 2.40.1 (20161225.0304)
 -->
<!-- Title: CO_Andisol\get_cobra_instance Pages: 1 -->
<svg width="669pt" height="447pt"
 viewBox="0.00 0.00 669.16 447.00" xmlns="http://www.w3.org/2000/svg" xmlns:xlink="http://www.w3.org/1999/xlink">
<g id="graph0" class="graph" transform="scale(1 1) rotate(0) translate(4 443)">
<title>CO_Andisol\get_cobra_instance</title>
<polygon fill="#ffffff" stroke="transparent" points="-4,4 -4,-443 665.1553,-443 665.1553,4 -4,4"/>
<!-- Node1 -->
<g id="node1" class="node">
<title>Node1</title>
<g id="a_node1"><a xlink:title=" ">
<polygon fill="#bfbfbf" stroke="#000000" points="544.54,-213.5 544.54,-241.5 661.1553,-241.5 661.1553,-213.5 544.54,-213.5"/>
<text text-anchor="start" x="552.54" y="-229.5" font-family="Helvetica,sans-Serif" font-size="10.00" fill="#000000">CO_Andisol\get_cobra</text>
<text text-anchor="middle" x="602.8477" y="-219.5" font-family="Helvetica,sans-Serif" font-size="10.00" fill="#000000">_instance</text>
</a>
</g>
</g>
<!-- Node2 -->
<g id="node2" class="node">
<title>Node2</title>
<g id="a_node2"><a xlink:href="a00219.html#a737ba5cc859a773ab48d09f365fbb4b6" target="_top" xlink:title=" ">
<polygon fill="#ffffff" stroke="#000000" points="189.5708,-410.5 189.5708,-438.5 331.7378,-438.5 331.7378,-410.5 189.5708,-410.5"/>
<text text-anchor="start" x="197.5708" y="-426.5" font-family="Helvetica,sans-Serif" font-size="10.00" fill="#000000">CO_Andisol\_make_security</text>
<text text-anchor="middle" x="260.6543" y="-416.5" font-family="Helvetica,sans-Serif" font-size="10.00" fill="#000000">_token</text>
</a>
</g>
</g>
<!-- Node1&#45;&gt;Node2 -->
<g id="edge1" class="edge">
<title>Node1&#45;&gt;Node2</title>
<path fill="none" stroke="#191970" d="M594.0224,-251.0277C580.6603,-283.2748 552.1375,-340.6008 508.54,-370.5 456.4155,-406.2471 384.8386,-418.8859 331.9954,-423.0907"/>
<polygon fill="#191970" stroke="#191970" points="597.3668,-252.0904 597.8279,-241.5056 590.8667,-249.4926 597.3668,-252.0904"/>
</g>
<!-- Node4 -->
<g id="node4" class="node">
<title>Node4</title>
<g id="a_node4"><a xlink:href="a00219.html#a261070d0681001cd68e3ffd904a125af" target="_top" xlink:title=" ">
<polygon fill="#ffffff" stroke="#000000" points="394.1563,-94.5 394.1563,-122.5 499.0869,-122.5 499.0869,-94.5 394.1563,-94.5"/>
<text text-anchor="start" x="402.1563" y="-110.5" font-family="Helvetica,sans-Serif" font-size="10.00" fill="#000000">CO_Andisol\convert</text>
<text text-anchor="middle" x="446.6216" y="-100.5" font-family="Helvetica,sans-Serif" font-size="10.00" fill="#000000">_login</text>
</a>
</g>
</g>
<!-- Node1&#45;&gt;Node4 -->
<g id="edge3" class="edge">
<title>Node1&#45;&gt;Node4</title>
<path fill="none" stroke="#191970" d="M583.8032,-205.6578C565.8427,-186.007 537.4338,-157.2682 508.54,-137.5 500.3107,-131.8697 490.8153,-126.812 481.7708,-122.5573"/>
<polygon fill="#191970" stroke="#191970" points="581.3143,-208.1243 590.6058,-213.2154 586.5171,-203.4413 581.3143,-208.1243"/>
</g>
<!-- Node5 -->
<g id="node5" class="node">
<title>Node5</title>
<g id="a_node5"><a xlink:href="a00219.html#a66ad9bd1b236b0949f1c0e75533eab04" target="_top" xlink:title=" ">
<polygon fill="#ffffff" stroke="#000000" points="384.7031,-47.5 384.7031,-75.5 508.54,-75.5 508.54,-47.5 384.7031,-47.5"/>
<text text-anchor="start" x="392.7031" y="-63.5" font-family="Helvetica,sans-Serif" font-size="10.00" fill="#000000">CO_Andisol\create_new</text>
<text text-anchor="middle" x="446.6216" y="-53.5" font-family="Helvetica,sans-Serif" font-size="10.00" fill="#000000">_manager_login</text>
</a>
</g>
</g>
<!-- Node1&#45;&gt;Node5 -->
<g id="edge4" class="edge">
<title>Node1&#45;&gt;Node5</title>
<path fill="none" stroke="#191970" d="M592.9671,-203.8535C578.7072,-172.4212 549.5001,-117.0655 508.54,-84.5 504.2315,-81.0745 499.3618,-78.1249 494.2929,-75.5933"/>
<polygon fill="#191970" stroke="#191970" points="589.8323,-205.4194 597.0676,-213.1589 596.2379,-202.5966 589.8323,-205.4194"/>
</g>
<!-- Node6 -->
<g id="node6" class="node">
<title>Node6</title>
<g id="a_node6"><a xlink:href="a00219.html#adb4e6414ba4d1de46b9fa1743431c090" target="_top" xlink:title=" ">
<polygon fill="#ffffff" stroke="#000000" points="384.7031,-.5 384.7031,-28.5 508.54,-28.5 508.54,-.5 384.7031,-.5"/>
<text text-anchor="start" x="392.7031" y="-16.5" font-family="Helvetica,sans-Serif" font-size="10.00" fill="#000000">CO_Andisol\create_new</text>
<text text-anchor="middle" x="446.6216" y="-6.5" font-family="Helvetica,sans-Serif" font-size="10.00" fill="#000000">_standard_login</text>
</a>
</g>
</g>
<!-- Node1&#45;&gt;Node6 -->
<g id="edge5" class="edge">
<title>Node1&#45;&gt;Node6</title>
<path fill="none" stroke="#191970" d="M597.1197,-203.4875C586.4147,-163.6021 559.6881,-83.5378 508.54,-37.5 504.7046,-34.0477 500.3043,-31.0985 495.6563,-28.5821"/>
<polygon fill="#191970" stroke="#191970" points="593.7855,-204.575 599.6666,-213.3877 600.5647,-202.831 593.7855,-204.575"/>
</g>
<!-- Node7 -->
<g id="node7" class="node">
<title>Node7</title>
<g id="a_node7"><a xlink:href="a00219.html#afe9a7dd6ab7e39f73345fa5ecbb177a7" target="_top" xlink:title=" ">
<polygon fill="#ffffff" stroke="#000000" points="186.2285,-373.5 186.2285,-391.5 335.0801,-391.5 335.0801,-373.5 186.2285,-373.5"/>
<text text-anchor="middle" x="260.6543" y="-379.5" font-family="Helvetica,sans-Serif" font-size="10.00" fill="#000000">CO_Andisol\create_new_user</text>
</a>
</g>
</g>
<!-- Node1&#45;&gt;Node7 -->
<g id="edge6" class="edge">
<title>Node1&#45;&gt;Node7</title>
<path fill="none" stroke="#191970" d="M589.9141,-250.3609C574.1614,-275.943 545.0745,-316.5421 508.54,-337.5 455.7088,-367.8065 387.0086,-378.4573 335.3347,-381.8687"/>
<polygon fill="#191970" stroke="#191970" points="592.9768,-252.0588 595.1035,-241.6796 586.9684,-248.4672 592.9768,-252.0588"/>
</g>
<!-- Node8 -->
<g id="node8" class="node">
<title>Node8</title>
<g id="a_node8"><a xlink:href="a00219.html#aa4f45eb1ec9c5acc7709cfd9b08348f3" target="_top" xlink:title=" ">
<polygon fill="#ffffff" stroke="#000000" points="198.4551,-336.5 198.4551,-354.5 322.8535,-354.5 322.8535,-336.5 198.4551,-336.5"/>
<text text-anchor="middle" x="260.6543" y="-342.5" font-family="Helvetica,sans-Serif" font-size="10.00" fill="#000000">CO_Andisol\delete_user</text>
</a>
</g>
</g>
<!-- Node1&#45;&gt;Node8 -->
<g id="edge7" class="edge">
<title>Node1&#45;&gt;Node8</title>
<path fill="none" stroke="#191970" d="M584.2594,-249.2467C566.7551,-268.173 538.7672,-294.6774 508.54,-308.5 449.381,-335.5529 374.7795,-343.6273 322.9473,-345.6634"/>
<polygon fill="#191970" stroke="#191970" points="587.0025,-251.4309 591.0953,-241.6585 581.8016,-246.7457 587.0025,-251.4309"/>
</g>
<!-- Node9 -->
<g id="node9" class="node">
<title>Node9</title>
<g id="a_node9"><a xlink:href="a00219.html#ae0e62c8ade9295c9b5a2d3b725f8f222" target="_top" xlink:title=" ">
<polygon fill="#ffffff" stroke="#000000" points="209.8516,-289.5 209.8516,-317.5 311.457,-317.5 311.457,-289.5 209.8516,-289.5"/>
<text text-anchor="start" x="217.8516" y="-305.5" font-family="Helvetica,sans-Serif" font-size="10.00" fill="#000000">CO_Andisol\get_all</text>
<text text-anchor="middle" x="260.6543" y="-295.5" font-family="Helvetica,sans-Serif" font-size="10.00" fill="#000000">_logins</text>
</a>
</g>
</g>
<!-- Node1&#45;&gt;Node9 -->
<g id="edge8" class="edge">
<title>Node1&#45;&gt;Node9</title>
<path fill="none" stroke="#191970" d="M577.0364,-247.6735C558.938,-260.6255 533.5908,-276.4735 508.54,-284.5 442.9798,-305.5062 362.8877,-307.7123 311.8214,-306.3906"/>
<polygon fill="#191970" stroke="#191970" points="579.3214,-250.3378 585.3058,-241.5949 575.1754,-244.6976 579.3214,-250.3378"/>
</g>
<!-- Node10 -->
<g id="node10" class="node">
<title>Node10</title>
<g id="a_node10"><a xlink:href="a00219.html#a61b9a275c4b8b824d9a2b3aadd421bf7" target="_top" xlink:title=" ">
<polygon fill="#ffffff" stroke="#000000" points="205.1274,-205.5 205.1274,-233.5 316.1812,-233.5 316.1812,-205.5 205.1274,-205.5"/>
<text text-anchor="start" x="213.1274" y="-221.5" font-family="Helvetica,sans-Serif" font-size="10.00" fill="#000000">CO_Andisol\get_user</text>
<text text-anchor="middle" x="260.6543" y="-211.5" font-family="Helvetica,sans-Serif" font-size="10.00" fill="#000000">_from_login</text>
</a>
</g>
</g>
<!-- Node1&#45;&gt;Node10 -->
<g id="edge9" class="edge">
<title>Node1&#45;&gt;Node10</title>
<path fill="none" stroke="#191970" d="M534.4024,-225.8998C470.3473,-224.4023 375.8384,-222.1928 316.2971,-220.8009"/>
<polygon fill="#191970" stroke="#191970" points="534.3322,-229.3991 544.4113,-226.1338 534.4959,-222.401 534.3322,-229.3991"/>
</g>
<!-- Node13 -->
<g id="node13" class="node">
<title>Node13</title>
<g id="a_node13"><a xlink:href="a00219.html#a73ccfd34793c0197e2dc336b44e3577e" target="_top" xlink:title=" ">
<polygon fill="#ffffff" stroke="#000000" points="172.6055,-168.5 172.6055,-186.5 348.7031,-186.5 348.7031,-168.5 172.6055,-168.5"/>
<text text-anchor="middle" x="260.6543" y="-174.5" font-family="Helvetica,sans-Serif" font-size="10.00" fill="#000000">CO_Andisol\make_standalone_user</text>
</a>
</g>
</g>
<!-- Node1&#45;&gt;Node13 -->
<g id="edge12" class="edge">
<title>Node1&#45;&gt;Node13</title>
<path fill="none" stroke="#191970" d="M534.3421,-217.4902C472.4069,-208.4405 382.0364,-195.2359 322.3165,-186.5098"/>
<polygon fill="#191970" stroke="#191970" points="534.0103,-220.9788 544.4113,-218.9615 535.0225,-214.0524 534.0103,-220.9788"/>
</g>
<!-- Node14 -->
<g id="node14" class="node">
<title>Node14</title>
<g id="a_node14"><a xlink:href="a00219.html#af5f39aa13714ad544a9099edb0d51cd5" target="_top" xlink:title=" ">
<polygon fill="#ffffff" stroke="#000000" points="390.8188,-256.5 390.8188,-274.5 502.4243,-274.5 502.4243,-256.5 390.8188,-256.5"/>
<text text-anchor="middle" x="446.6216" y="-262.5" font-family="Helvetica,sans-Serif" font-size="10.00" fill="#000000">CO_Andisol\manager</text>
</a>
</g>
</g>
<!-- Node1&#45;&gt;Node14 -->
<g id="edge13" class="edge">
<title>Node1&#45;&gt;Node14</title>
<path fill="none" stroke="#191970" d="M535.3792,-243.9108C517.6677,-248.2189 499.2121,-252.708 483.7471,-256.4697"/>
<polygon fill="#191970" stroke="#191970" points="536.2292,-247.3062 545.1187,-241.5418 534.5748,-240.5045 536.2292,-247.3062"/>
</g>
<!-- Node19 -->
<g id="node19" class="node">
<title>Node19</title>
<g id="a_node19"><a xlink:href="a00219.html#a4a99f9757a91355dd3aca720dcf5a770" target="_top" xlink:title=" ">
<polygon fill="#ffffff" stroke="#000000" points="193.7285,-131.5 193.7285,-149.5 327.5801,-149.5 327.5801,-131.5 193.7285,-131.5"/>
<text text-anchor="middle" x="260.6543" y="-137.5" font-family="Helvetica,sans-Serif" font-size="10.00" fill="#000000">CO_Andisol\who_can_see</text>
</a>
</g>
</g>
<!-- Node1&#45;&gt;Node19 -->
<g id="edge25" class="edge">
<title>Node1&#45;&gt;Node19</title>
<path fill="none" stroke="#191970" d="M557.5738,-209.8235C542.1562,-204.1676 524.7272,-198.1686 508.54,-193.5 438.6663,-173.3474 419.8483,-173.5609 348.7031,-158.5 334.6601,-155.5272 319.339,-152.3664 305.472,-149.5367"/>
<polygon fill="#191970" stroke="#191970" points="556.7889,-213.2659 567.3817,-213.4733 559.2302,-206.7054 556.7889,-213.2659"/>
</g>
<!-- Node3 -->
<g id="node3" class="node">
<title>Node3</title>
<g id="a_node3"><a xlink:href="a00219.html#ad0ac8fb3000239301a9f2be905c1a124" target="_top" xlink:title=" ">
<polygon fill="#ffffff" stroke="#000000" points="0,-410.5 0,-438.5 136.6055,-438.5 136.6055,-410.5 0,-410.5"/>
<text text-anchor="start" x="8" y="-426.5" font-family="Helvetica,sans-Serif" font-size="10.00" fill="#000000">CO_Andisol\make_security</text>
<text text-anchor="middle" x="68.3027" y="-416.5" font-family="Helvetica,sans-Serif" font-size="10.00" fill="#000000">_token</text>
</a>
</g>
</g>
<!-- Node2&#45;&gt;Node3 -->
<g id="edge2" class="edge">
<title>Node2&#45;&gt;Node3</title>
<path fill="none" stroke="#191970" d="M179.1046,-424.5C164.9693,-424.5 150.4024,-424.5 136.664,-424.5"/>
<polygon fill="#191970" stroke="#191970" points="179.3031,-428.0001 189.303,-424.5 179.303,-421.0001 179.3031,-428.0001"/>
</g>
<!-- Node11 -->
<g id="node11" class="node">
<title>Node11</title>
<g id="a_node11"><a xlink:href="a00219.html#a661842aaa6be17af30fbac58b5008c36" target="_top" xlink:title=" ">
<polygon fill="#ffffff" stroke="#000000" points="4.165,-163.5 4.165,-181.5 132.4404,-181.5 132.4404,-163.5 4.165,-163.5"/>
<text text-anchor="middle" x="68.3027" y="-169.5" font-family="Helvetica,sans-Serif" font-size="10.00" fill="#000000">CO_Andisol\current_user</text>
</a>
</g>
</g>
<!-- Node10&#45;&gt;Node11 -->
<g id="edge10" class="edge">
<title>Node10&#45;&gt;Node11</title>
<path fill="none" stroke="#191970" d="M195.0399,-203.4675C165.0593,-196.1419 130.6572,-187.7359 105.2673,-181.5321"/>
<polygon fill="#191970" stroke="#191970" points="194.4732,-206.9319 205.0183,-205.9057 196.1348,-200.132 194.4732,-206.9319"/>
</g>
<!-- Node12 -->
<g id="node12" class="node">
<title>Node12</title>
<g id="a_node12"><a xlink:href="a00219.html#a7d4be5fe8eb59e59a6ca94a781980e4f" target="_top" xlink:title=" ">
<polygon fill="#ffffff" stroke="#000000" points="12.7759,-200.5 12.7759,-228.5 123.8296,-228.5 123.8296,-200.5 12.7759,-200.5"/>
<text text-anchor="start" x="20.7759" y="-216.5" font-family="Helvetica,sans-Serif" font-size="10.00" fill="#000000">CO_Andisol\get_user</text>
<text text-anchor="middle" x="68.3027" y="-206.5" font-family="Helvetica,sans-Serif" font-size="10.00" fill="#000000">_from_login_string</text>
</a>
</g>
</g>
<!-- Node10&#45;&gt;Node12 -->
<g id="edge11" class="edge">
<title>Node10&#45;&gt;Node12</title>
<path fill="none" stroke="#191970" d="M194.9817,-217.7929C171.9441,-217.1941 146.3018,-216.5275 124.1467,-215.9516"/>
<polygon fill="#191970" stroke="#191970" points="194.9306,-221.2927 205.0183,-218.0538 195.1126,-214.295 194.9306,-221.2927"/>
</g>
<!-- Node14&#45;&gt;Node2 -->
<g id="edge14" class="edge">
<title>Node14&#45;&gt;Node2</title>
<path fill="none" stroke="#191970" d="M438.4849,-283.9753C424.5179,-313.4861 393.1318,-371.03 348.7031,-401.5 343.4914,-405.0743 337.7586,-408.0932 331.795,-410.6429"/>
<polygon fill="#191970" stroke="#191970" points="441.707,-285.3455 442.6916,-274.7965 435.3435,-282.429 441.707,-285.3455"/>
</g>
<!-- Node14&#45;&gt;Node7 -->
<g id="edge15" class="edge">
<title>Node14&#45;&gt;Node7</title>
<path fill="none" stroke="#191970" d="M434.5616,-282.9495C417.9663,-305.5335 385.884,-344.3676 348.7031,-364.5 341.9802,-368.1403 334.6052,-371.0464 327.0739,-373.3662"/>
<polygon fill="#191970" stroke="#191970" points="437.5403,-284.8012 440.5118,-274.6316 431.847,-280.7285 437.5403,-284.8012"/>
</g>
<!-- Node14&#45;&gt;Node8 -->
<g id="edge16" class="edge">
<title>Node14&#45;&gt;Node8</title>
<path fill="none" stroke="#191970" d="M427.2044,-280.8161C408.2388,-295.0182 378.0254,-315.6842 348.7031,-327.5 339.586,-331.1739 329.6238,-334.1296 319.7846,-336.4982"/>
<polygon fill="#191970" stroke="#191970" points="429.4989,-283.4677 435.3207,-274.6157 425.2494,-277.9051 429.4989,-283.4677"/>
</g>
<!-- Node14&#45;&gt;Node9 -->
<g id="edge17" class="edge">
<title>Node14&#45;&gt;Node9</title>
<path fill="none" stroke="#191970" d="M392.6585,-276.5267C367.1248,-281.7441 336.7956,-287.9415 311.6513,-293.0794"/>
<polygon fill="#191970" stroke="#191970" points="393.4531,-279.9367 402.5499,-274.5055 392.0517,-273.0784 393.4531,-279.9367"/>
</g>
<!-- Node14&#45;&gt;Node10 -->
<g id="edge18" class="edge">
<title>Node14&#45;&gt;Node10</title>
<path fill="none" stroke="#191970" d="M400.1211,-253.9979C374.7219,-247.7152 343.093,-239.8916 316.3797,-233.284"/>
<polygon fill="#191970" stroke="#191970" points="399.3326,-257.4082 409.8804,-256.4119 401.0134,-250.613 399.3326,-257.4082"/>
</g>
<!-- Node14&#45;&gt;Node13 -->
<g id="edge23" class="edge">
<title>Node14&#45;&gt;Node13</title>
<path fill="none" stroke="#191970" d="M429.3188,-249.6388C410.7664,-233.517 379.7663,-209.0435 348.7031,-195.5 340.2649,-191.8209 331.0393,-188.8816 321.8376,-186.5365"/>
<polygon fill="#191970" stroke="#191970" points="427.1206,-252.3675 436.9225,-256.3891 431.7679,-247.1327 427.1206,-252.3675"/>
</g>
<!-- Node15 -->
<g id="node15" class="node">
<title>Node15</title>
<g id="a_node15"><a xlink:href="a00219.html#a370ab6e2bb53c900f25a6005d0e5077d" target="_top" xlink:title=" ">
<polygon fill="#ffffff" stroke="#000000" points="216.2432,-252.5 216.2432,-270.5 305.0654,-270.5 305.0654,-252.5 216.2432,-252.5"/>
<text text-anchor="middle" x="260.6543" y="-258.5" font-family="Helvetica,sans-Serif" font-size="10.00" fill="#000000">CO_Andisol\god</text>
</a>
</g>
</g>
<!-- Node14&#45;&gt;Node15 -->
<g id="edge19" class="edge">
<title>Node14&#45;&gt;Node15</title>
<path fill="none" stroke="#191970" d="M380.4238,-264.0761C355.4289,-263.5385 327.6108,-262.9402 305.0799,-262.4556"/>
<polygon fill="#191970" stroke="#191970" points="380.5001,-267.5785 390.5731,-264.2944 380.6507,-260.5801 380.5001,-267.5785"/>
</g>
<!-- Node14&#45;&gt;Node19 -->
<g id="edge24" class="edge">
<title>Node14&#45;&gt;Node19</title>
<path fill="none" stroke="#191970" d="M435.6005,-247.682C419.6041,-223.4305 387.5749,-180.5336 348.7031,-158.5 342.1878,-154.807 335.0203,-151.866 327.6742,-149.5249"/>
<polygon fill="#191970" stroke="#191970" points="432.7577,-249.7326 441.1018,-256.2616 438.6504,-245.9542 432.7577,-249.7326"/>
</g>
<!-- Node16 -->
<g id="node16" class="node">
<title>Node16</title>
<g id="a_node16"><a xlink:href="a00219.html#a86bc3621ffe539ac5a9239375f0a786b" target="_top" xlink:title=" ">
<polygon fill="#ffffff" stroke="#000000" points="17.5,-341.5 17.5,-369.5 119.1055,-369.5 119.1055,-341.5 17.5,-341.5"/>
<text text-anchor="start" x="25.5" y="-357.5" font-family="Helvetica,sans-Serif" font-size="10.00" fill="#000000">CO_Andisol\get_all</text>
<text text-anchor="middle" x="68.3027" y="-347.5" font-family="Helvetica,sans-Serif" font-size="10.00" fill="#000000">_login_users</text>
</a>
</g>
</g>
<!-- Node15&#45;&gt;Node16 -->
<g id="edge20" class="edge">
<title>Node15&#45;&gt;Node16</title>
<path fill="none" stroke="#191970" d="M206.1956,-266.6164C194.438,-269.4779 182.5616,-273.8498 172.6055,-280.5 149.2311,-296.1129 159.067,-315.6001 136.6055,-332.5 131.4063,-336.4118 125.5011,-339.6834 119.3913,-342.4135"/>
<polygon fill="#191970" stroke="#191970" points="206.9355,-270.0375 215.9992,-264.5512 205.4924,-263.1878 206.9355,-270.0375"/>
</g>
<!-- Node17 -->
<g id="node17" class="node">
<title>Node17</title>
<g id="a_node17"><a xlink:href="a00219.html#acd1e344f9f0087ee41414e6aa5f13e1e" target="_top" xlink:title=" ">
<polygon fill="#ffffff" stroke="#000000" points="17.5,-294.5 17.5,-322.5 119.1055,-322.5 119.1055,-294.5 17.5,-294.5"/>
<text text-anchor="start" x="25.5" y="-310.5" font-family="Helvetica,sans-Serif" font-size="10.00" fill="#000000">CO_Andisol\get_all</text>
<text text-anchor="middle" x="68.3027" y="-300.5" font-family="Helvetica,sans-Serif" font-size="10.00" fill="#000000">_standalone_users</text>
</a>
</g>
</g>
<!-- Node15&#45;&gt;Node17 -->
<g id="edge21" class="edge">
<title>Node15&#45;&gt;Node17</title>
<path fill="none" stroke="#191970" d="M206.8719,-272.6609C195.5314,-275.1387 183.656,-277.8262 172.6055,-280.5 154.9288,-284.7771 135.673,-289.8329 118.5726,-294.4632"/>
<polygon fill="#191970" stroke="#191970" points="207.6315,-276.0776 216.6659,-270.543 206.152,-269.2357 207.6315,-276.0776"/>
</g>
<!-- Node18 -->
<g id="node18" class="node">
<title>Node18</title>
<g id="a_node18"><a xlink:href="a00219.html#a9d3578d72df7af2ff07e23ea7b1b1af9" target="_top" xlink:title=" ">
<polygon fill="#ffffff" stroke="#000000" points="17.5,-247.5 17.5,-275.5 119.1055,-275.5 119.1055,-247.5 17.5,-247.5"/>
<text text-anchor="start" x="25.5" y="-263.5" font-family="Helvetica,sans-Serif" font-size="10.00" fill="#000000">CO_Andisol\get_all</text>
<text text-anchor="middle" x="68.3027" y="-253.5" font-family="Helvetica,sans-Serif" font-size="10.00" fill="#000000">_users</text>
</a>
</g>
</g>
<!-- Node15&#45;&gt;Node18 -->
<g id="edge22" class="edge">
<title>Node15&#45;&gt;Node18</title>
<path fill="none" stroke="#191970" d="M205.8805,-261.5C178.6042,-261.5 145.8368,-261.5 119.1239,-261.5"/>
<polygon fill="#191970" stroke="#191970" points="206.0415,-265.0001 216.0415,-261.5 206.0415,-258.0001 206.0415,-265.0001"/>
</g>
</g>
</svg>
