<?xml version="1.0" encoding="UTF-8" standalone="no"?>
<!DOCTYPE svg PUBLIC "-//W3C//DTD SVG 1.1//EN"
 "http://www.w3.org/Graphics/SVG/1.1/DTD/svg11.dtd">
<!-- Generated by graphviz version 2.40.1 (20161225.0304)
 -->
<!-- Title: CO_Cobra\delete_login Pages: 1 -->
<svg width="502pt" height="84pt"
 viewBox="0.00 0.00 502.10 84.00" xmlns="http://www.w3.org/2000/svg" xmlns:xlink="http://www.w3.org/1999/xlink">
<g id="graph0" class="graph" transform="scale(1 1) rotate(0) translate(4 80)">
<title>CO_Cobra\delete_login</title>
<polygon fill="#ffffff" stroke="transparent" points="-4,4 -4,-80 498.1016,-80 498.1016,4 -4,4"/>
<!-- Node21 -->
<g id="node1" class="node">
<title>Node21</title>
<polygon fill="#bfbfbf" stroke="#000000" points="0,-28.5 0,-46.5 120.5117,-46.5 120.5117,-28.5 0,-28.5"/>
<text text-anchor="middle" x="60.2559" y="-34.5" font-family="Helvetica,sans-Serif" font-size="10.00" fill="#000000">CO_Cobra\delete_login</text>
</g>
<!-- Node22 -->
<g id="node2" class="node">
<title>Node22</title>
<g id="a_node2"><a xlink:href="a00239.html#a3eaa5ad2b11d99851df8f298bdbd6e47" target="_top" xlink:title="CO_Cobra\\get_login\l_instance">
<polygon fill="#ffffff" stroke="#000000" points="168.4551,-47.5 168.4551,-75.5 275.6221,-75.5 275.6221,-47.5 168.4551,-47.5"/>
<text text-anchor="start" x="176.4551" y="-63.5" font-family="Helvetica,sans-Serif" font-size="10.00" fill="#000000">CO_Cobra\get_login</text>
<text text-anchor="middle" x="222.0386" y="-53.5" font-family="Helvetica,sans-Serif" font-size="10.00" fill="#000000">_instance</text>
</a>
</g>
</g>
<!-- Node21&#45;&gt;Node22 -->
<g id="edge1" class="edge">
<title>Node21&#45;&gt;Node22</title>
<path fill="none" stroke="#191970" d="M120.9581,-46.505C133.1464,-48.3131 145.988,-50.2181 158.2768,-52.0411"/>
<polygon fill="#191970" stroke="#191970" points="158.0375,-55.5438 168.4429,-53.5492 159.0647,-48.6196 158.0375,-55.5438"/>
</g>
<!-- Node23 -->
<g id="node3" class="node">
<title>Node23</title>
<g id="a_node3"><a xlink:href="a00239.html#ad5bb2d69d9ca618b755ceb4eaba247e8" target="_top" xlink:title="CO_Cobra\\get_user_from\l_login">
<polygon fill="#ffffff" stroke="#000000" points="156.5117,-.5 156.5117,-28.5 287.5654,-28.5 287.5654,-.5 156.5117,-.5"/>
<text text-anchor="start" x="164.5117" y="-16.5" font-family="Helvetica,sans-Serif" font-size="10.00" fill="#000000">CO_Cobra\get_user_from</text>
<text text-anchor="middle" x="222.0386" y="-6.5" font-family="Helvetica,sans-Serif" font-size="10.00" fill="#000000">_login</text>
</a>
</g>
</g>
<!-- Node21&#45;&gt;Node23 -->
<g id="edge2" class="edge">
<title>Node21&#45;&gt;Node23</title>
<path fill="none" stroke="#191970" d="M120.9581,-28.8702C129.2713,-27.6883 137.8885,-26.4633 146.4269,-25.2494"/>
<polygon fill="#191970" stroke="#191970" points="146.9834,-28.7056 156.3912,-23.8328 145.998,-21.7753 146.9834,-28.7056"/>
</g>
<!-- Node24 -->
<g id="node4" class="node">
<title>Node24</title>
<g id="a_node4"><a xlink:href="a00239.html#a7d6421cfa6abf3aa5885bfe694ee898d" target="_top" xlink:title="CO_Cobra\\make_standalone_user">
<polygon fill="#ffffff" stroke="#000000" points="323.5654,-5.5 323.5654,-23.5 494.1016,-23.5 494.1016,-5.5 323.5654,-5.5"/>
<text text-anchor="middle" x="408.8335" y="-11.5" font-family="Helvetica,sans-Serif" font-size="10.00" fill="#000000">CO_Cobra\make_standalone_user</text>
</a>
</g>
</g>
<!-- Node23&#45;&gt;Node24 -->
<g id="edge3" class="edge">
<title>Node23&#45;&gt;Node24</title>
<path fill="none" stroke="#191970" d="M287.6328,-14.5C295.9441,-14.5 304.5786,-14.5 313.2384,-14.5"/>
<polygon fill="#191970" stroke="#191970" points="313.3979,-18.0001 323.3978,-14.5 313.3978,-11.0001 313.3979,-18.0001"/>
</g>
</g>
</svg>
