<?xml version="1.0" encoding="UTF-8" standalone="no"?>
<!DOCTYPE svg PUBLIC "-//W3C//DTD SVG 1.1//EN"
 "http://www.w3.org/Graphics/SVG/1.1/DTD/svg11.dtd">
<!-- Generated by graphviz version 2.40.1 (20161225.0304)
 -->
<!-- Title: CO_Andisol\get_login_item_by_login_string Pages: 1 -->
<svg width="578pt" height="89pt"
 viewBox="0.00 0.00 578.02 89.00" xmlns="http://www.w3.org/2000/svg" xmlns:xlink="http://www.w3.org/1999/xlink">
<g id="graph0" class="graph" transform="scale(1 1) rotate(0) translate(4 85)">
<title>CO_Andisol\get_login_item_by_login_string</title>
<polygon fill="#ffffff" stroke="transparent" points="-4,4 -4,-85 574.0176,-85 574.0176,4 -4,4"/>
<!-- Node232 -->
<g id="node1" class="node">
<title>Node232</title>
<polygon fill="#bfbfbf" stroke="#000000" points="0,-52.5 0,-80.5 113.2803,-80.5 113.2803,-52.5 0,-52.5"/>
<text text-anchor="start" x="8" y="-68.5" font-family="Helvetica,sans-Serif" font-size="10.00" fill="#000000">CO_Andisol\get_login</text>
<text text-anchor="middle" x="56.6401" y="-58.5" font-family="Helvetica,sans-Serif" font-size="10.00" fill="#000000">_item_by_login_string</text>
</g>
<!-- Node233 -->
<g id="node2" class="node">
<title>Node233</title>
<g id="a_node2"><a xlink:href="a00219.html#acda267f1d6a8e496e167ed46fe590dc6" target="_top" xlink:title="CO_Andisol\\get_chameleon\l_instance">
<polygon fill="#ffffff" stroke="#000000" points="429.4961,-33.5 429.4961,-61.5 570.0176,-61.5 570.0176,-33.5 429.4961,-33.5"/>
<text text-anchor="start" x="437.4961" y="-49.5" font-family="Helvetica,sans-Serif" font-size="10.00" fill="#000000">CO_Andisol\get_chameleon</text>
<text text-anchor="middle" x="499.7568" y="-39.5" font-family="Helvetica,sans-Serif" font-size="10.00" fill="#000000">_instance</text>
</a>
</g>
</g>
<!-- Node232&#45;&gt;Node233 -->
<g id="edge1" class="edge">
<title>Node232&#45;&gt;Node233</title>
<path fill="none" stroke="#191970" d="M113.3823,-68.0763C180.4321,-69.3799 295.2983,-69.8584 393.4961,-61.5 401.8248,-60.7911 410.5025,-59.8999 419.1502,-58.9122"/>
<polygon fill="#191970" stroke="#191970" points="419.7469,-62.3661 429.2655,-57.7135 418.9231,-55.4147 419.7469,-62.3661"/>
</g>
<!-- Node234 -->
<g id="node3" class="node">
<title>Node234</title>
<g id="a_node3"><a xlink:href="a00219.html#ac2a2dcb99dc927789b0ffa09c24946de" target="_top" xlink:title="CO_Andisol\\logged_in">
<polygon fill="#ffffff" stroke="#000000" points="149.2803,-38.5 149.2803,-56.5 264.792,-56.5 264.792,-38.5 149.2803,-38.5"/>
<text text-anchor="middle" x="207.0361" y="-44.5" font-family="Helvetica,sans-Serif" font-size="10.00" fill="#000000">CO_Andisol\logged_in</text>
</a>
</g>
</g>
<!-- Node232&#45;&gt;Node234 -->
<g id="edge2" class="edge">
<title>Node232&#45;&gt;Node234</title>
<path fill="none" stroke="#191970" d="M113.4984,-59.3169C121.8687,-58.2595 130.5618,-57.1612 139.1275,-56.0791"/>
<polygon fill="#191970" stroke="#191970" points="139.6151,-59.5454 149.0975,-54.8196 138.7377,-52.6006 139.6151,-59.5454"/>
</g>
<!-- Node234&#45;&gt;Node233 -->
<g id="edge5" class="edge">
<title>Node234&#45;&gt;Node233</title>
<path fill="none" stroke="#191970" d="M264.8683,-47.5C308.9674,-47.5 370.242,-47.5 419.1502,-47.5"/>
<polygon fill="#191970" stroke="#191970" points="419.3884,-51.0001 429.3884,-47.5 419.3883,-44.0001 419.3884,-51.0001"/>
</g>
<!-- Node235 -->
<g id="node4" class="node">
<title>Node235</title>
<g id="a_node4"><a xlink:href="a00219.html#a4b0ec12b29ce4812cbb4169b68770f66" target="_top" xlink:title="CO_Andisol\\valid">
<polygon fill="#ffffff" stroke="#000000" points="300.792,-.5 300.792,-18.5 393.4961,-18.5 393.4961,-.5 300.792,-.5"/>
<text text-anchor="middle" x="347.144" y="-6.5" font-family="Helvetica,sans-Serif" font-size="10.00" fill="#000000">CO_Andisol\valid</text>
</a>
</g>
</g>
<!-- Node234&#45;&gt;Node235 -->
<g id="edge3" class="edge">
<title>Node234&#45;&gt;Node235</title>
<path fill="none" stroke="#191970" d="M240.2398,-38.4945C259.2942,-33.3266 283.4335,-26.7795 303.9504,-21.215"/>
<polygon fill="#191970" stroke="#191970" points="304.9581,-24.5682 313.6932,-18.5725 303.1257,-17.8123 304.9581,-24.5682"/>
</g>
<!-- Node235&#45;&gt;Node233 -->
<g id="edge4" class="edge">
<title>Node235&#45;&gt;Node233</title>
<path fill="none" stroke="#191970" d="M383.3111,-18.5055C398.2687,-22.2299 416.1029,-26.6705 433.2638,-30.9435"/>
<polygon fill="#191970" stroke="#191970" points="432.7138,-34.4133 443.2632,-33.4333 434.4052,-27.6207 432.7138,-34.4133"/>
</g>
</g>
</svg>
