<?xml version="1.0" encoding="UTF-8" standalone="no"?>
<!DOCTYPE svg PUBLIC "-//W3C//DTD SVG 1.1//EN"
 "http://www.w3.org/Graphics/SVG/1.1/DTD/svg11.dtd">
<!-- Generated by graphviz version 2.40.1 (20161225.0304)
 -->
<!-- Title: CO_Andisol\god Pages: 1 -->
<!--zoomable 93 -->
<svg id="main" version="1.1" xmlns="http://www.w3.org/2000/svg" xmlns:xlink="http://www.w3.org/1999/xlink" xml:space="preserve" onload="init(evt)">
<style type="text/css"><![CDATA[
.edge:hover path { stroke: red; }
.edge:hover polygon { stroke: red; fill: red; }
]]></style>
<script type="text/javascript"><![CDATA[
var edges = document.getElementsByTagName('g');
if (edges && edges.length) {
  for (var i=0;i<edges.length;i++) {
    if (edges[i].id.substr(0,4)=='edge') {
      edges[i].setAttribute('class','edge');
    }
  }
}
]]></script>
        <defs>
                <circle id="rim" cx="0" cy="0" r="7"/>
                <circle id="rim2" cx="0" cy="0" r="3.5"/>
                <g id="zoomPlus">
                        <use xlink:href="#rim" fill="#404040">
                                <set attributeName="fill" to="#808080" begin="zoomplus.mouseover" end="zoomplus.mouseout"/>
                        </use>
                        <path d="M-4,0h8M0,-4v8" fill="none" stroke="white" stroke-width="1.5" pointer-events="none"/>
                </g>
                <g id="zoomMin">
                        <use xlink:href="#rim" fill="#404040">
                                <set attributeName="fill" to="#808080" begin="zoomminus.mouseover" end="zoomminus.mouseout"/>
                        </use>
                        <path d="M-4,0h8" fill="none" stroke="white" stroke-width="1.5" pointer-events="none"/>
                </g>
                <g id="dirArrow">
                        <path fill="none" stroke="white" stroke-width="1.5" d="M0,-3.0v7 M-2.5,-0.5L0,-3.0L2.5,-0.5"/>
                </g>
               <g id="resetDef">
                       <use xlink:href="#rim2" fill="#404040">
                               <set attributeName="fill" to="#808080" begin="reset.mouseover" end="reset.mouseout"/>
                       </use>
               </g>
        </defs>

<script type="text/javascript">
var viewWidth = 702;
var viewHeight = 93;
var sectionId = 'dynsection-42';
</script>
<script xlink:href="svgpan.js"/>
<svg id="graph" class="graph">
<g id="viewport">
<title>CO_Andisol\god</title>
<polygon fill="#ffffff" stroke="transparent" points="-4,4 -4,-89 698.2686,-89 698.2686,4 -4,4"/>
<!-- Node273 -->
<g id="node1" class="node">
<title>Node273</title>
<polygon fill="#bfbfbf" stroke="#000000" points="0,-66.5 0,-84.5 88.8223,-84.5 88.8223,-66.5 0,-66.5"/>
<text text-anchor="middle" x="44.4111" y="-72.5" font-family="Helvetica,sans-Serif" font-size="10.00" fill="#000000">CO_Andisol\god</text>
</g>
<!-- Node274 -->
<g id="node2" class="node">
<title>Node274</title>
<g id="a_node2"><a xlink:href="a00219.html#acda267f1d6a8e496e167ed46fe590dc6" target="_top" xlink:title="CO_Andisol\\get_chameleon\l_instance">
<polygon fill="#ffffff" stroke="#000000" points="553.7471,-42.5 553.7471,-70.5 694.2686,-70.5 694.2686,-42.5 553.7471,-42.5"/>
<text text-anchor="start" x="561.7471" y="-58.5" font-family="Helvetica,sans-Serif" font-size="10.00" fill="#000000">CO_Andisol\get_chameleon</text>
<text text-anchor="middle" x="624.0078" y="-48.5" font-family="Helvetica,sans-Serif" font-size="10.00" fill="#000000">_instance</text>
</a>
</g>
</g>
<!-- Node273&#45;&gt;Node274 -->
<g id="edge1" class="edge">
<title>Node273&#45;&gt;Node274</title>
<path fill="none" stroke="#191970" d="M88.8913,-77.2279C172.8861,-80.0036 360.5281,-83.8821 517.7471,-70.5 526.0758,-69.7911 534.7535,-68.8999 543.4012,-67.9122"/>
<polygon fill="#191970" stroke="#191970" points="543.9978,-71.3661 553.5165,-66.7135 543.174,-64.4147 543.9978,-71.3661"/>
</g>
<!-- Node275 -->
<g id="node3" class="node">
<title>Node275</title>
<g id="a_node3"><a xlink:href="a00219.html#af5f39aa13714ad544a9099edb0d51cd5" target="_top" xlink:title="CO_Andisol\\manager">
<polygon fill="#ffffff" stroke="#000000" points="124.8223,-47.5 124.8223,-65.5 236.4277,-65.5 236.4277,-47.5 124.8223,-47.5"/>
<text text-anchor="middle" x="180.625" y="-53.5" font-family="Helvetica,sans-Serif" font-size="10.00" fill="#000000">CO_Andisol\manager</text>
</a>
</g>
</g>
<!-- Node273&#45;&gt;Node275 -->
<g id="edge2" class="edge">
<title>Node273&#45;&gt;Node275</title>
<path fill="none" stroke="#191970" d="M89.0126,-69.2787C97.1547,-68.143 105.8075,-66.936 114.4198,-65.7347"/>
<polygon fill="#191970" stroke="#191970" points="115.0577,-69.1797 124.4782,-64.3317 114.0906,-62.2469 115.0577,-69.1797"/>
</g>
<!-- Node276 -->
<g id="node4" class="node">
<title>Node276</title>
<g id="a_node4"><a xlink:href="a00219.html#ac2a2dcb99dc927789b0ffa09c24946de" target="_top" xlink:title="CO_Andisol\\logged_in">
<polygon fill="#ffffff" stroke="#000000" points="272.9795,-47.5 272.9795,-65.5 388.4912,-65.5 388.4912,-47.5 272.9795,-47.5"/>
<text text-anchor="middle" x="330.7354" y="-53.5" font-family="Helvetica,sans-Serif" font-size="10.00" fill="#000000">CO_Andisol\logged_in</text>
</a>
</g>
</g>
<!-- Node275&#45;&gt;Node276 -->
<g id="edge3" class="edge">
<title>Node275&#45;&gt;Node276</title>
<path fill="none" stroke="#191970" d="M236.5206,-56.5C245.0281,-56.5 253.8877,-56.5 262.6208,-56.5"/>
<polygon fill="#191970" stroke="#191970" points="262.7861,-60.0001 272.786,-56.5 262.786,-53.0001 262.7861,-60.0001"/>
</g>
<!-- Node278 -->
<g id="node6" class="node">
<title>Node278</title>
<g id="a_node6"><a xlink:href="a00219.html#a3605f036c8c634afaa74f67e5853a0ad" target="_top" xlink:title="CO_Andisol\\get_cobra\l_instance">
<polygon fill="#ffffff" stroke="#000000" points="272.4277,-.5 272.4277,-28.5 389.043,-28.5 389.043,-.5 272.4277,-.5"/>
<text text-anchor="start" x="280.4277" y="-16.5" font-family="Helvetica,sans-Serif" font-size="10.00" fill="#000000">CO_Andisol\get_cobra</text>
<text text-anchor="middle" x="330.7354" y="-6.5" font-family="Helvetica,sans-Serif" font-size="10.00" fill="#000000">_instance</text>
</a>
</g>
</g>
<!-- Node275&#45;&gt;Node278 -->
<g id="edge7" class="edge">
<title>Node275&#45;&gt;Node278</title>
<path fill="none" stroke="#191970" d="M212.8274,-47.4899C229.7039,-42.768 250.9274,-36.8298 270.7007,-31.2974"/>
<polygon fill="#191970" stroke="#191970" points="271.8836,-34.6009 280.5706,-28.5358 269.9974,-27.8598 271.8836,-34.6009"/>
</g>
<!-- Node276&#45;&gt;Node274 -->
<g id="edge6" class="edge">
<title>Node276&#45;&gt;Node274</title>
<path fill="none" stroke="#191970" d="M388.6766,-56.5C432.8588,-56.5 494.2489,-56.5 543.2493,-56.5"/>
<polygon fill="#191970" stroke="#191970" points="543.5067,-60.0001 553.5067,-56.5 543.5067,-53.0001 543.5067,-60.0001"/>
</g>
<!-- Node277 -->
<g id="node5" class="node">
<title>Node277</title>
<g id="a_node5"><a xlink:href="a00219.html#a4b0ec12b29ce4812cbb4169b68770f66" target="_top" xlink:title="CO_Andisol\\valid">
<polygon fill="#ffffff" stroke="#000000" points="425.043,-9.5 425.043,-27.5 517.7471,-27.5 517.7471,-9.5 425.043,-9.5"/>
<text text-anchor="middle" x="471.395" y="-15.5" font-family="Helvetica,sans-Serif" font-size="10.00" fill="#000000">CO_Andisol\valid</text>
</a>
</g>
</g>
<!-- Node276&#45;&gt;Node277 -->
<g id="edge4" class="edge">
<title>Node276&#45;&gt;Node277</title>
<path fill="none" stroke="#191970" d="M364.0697,-47.4945C383.1993,-42.3266 407.4336,-35.7795 428.0313,-30.215"/>
<polygon fill="#191970" stroke="#191970" points="429.0714,-33.5595 437.8125,-27.5725 427.2457,-26.8018 429.0714,-33.5595"/>
</g>
<!-- Node277&#45;&gt;Node274 -->
<g id="edge5" class="edge">
<title>Node277&#45;&gt;Node274</title>
<path fill="none" stroke="#191970" d="M507.5621,-27.5055C522.5197,-31.2299 540.3539,-35.6705 557.5148,-39.9435"/>
<polygon fill="#191970" stroke="#191970" points="556.9648,-43.4133 567.5142,-42.4333 558.6561,-36.6207 556.9648,-43.4133"/>
</g>
</g>
</svg>
        <g id="navigator" transform="translate(0 0)" fill="#404254">
                <rect fill="#f2f5e9" fill-opacity="0.5" stroke="#606060" stroke-width=".5" x="0" y="0" width="60" height="60"/>
                <use id="zoomplus" xlink:href="#zoomPlus" x="17" y="9" onmousedown="handleZoom(evt,'in')"/>
                <use id="zoomminus" xlink:href="#zoomMin" x="42" y="9" onmousedown="handleZoom(evt,'out')"/>
                <use id="reset" xlink:href="#resetDef" x="30" y="36" onmousedown="handleReset()"/>
                <g id="arrowUp" xlink:href="#dirArrow" transform="translate(30 24)" onmousedown="handlePan(0,-1)">
                  <use xlink:href="#rim" fill="#404040">
                        <set attributeName="fill" to="#808080" begin="arrowUp.mouseover" end="arrowUp.mouseout"/>
                  </use>
                  <path fill="none" stroke="white" stroke-width="1.5" d="M0,-3.0v7 M-2.5,-0.5L0,-3.0L2.5,-0.5"/>
                </g>
                <g id="arrowRight" xlink:href="#dirArrow" transform="rotate(90) translate(36 -43)" onmousedown="handlePan(1,0)">
                  <use xlink:href="#rim" fill="#404040">
                        <set attributeName="fill" to="#808080" begin="arrowRight.mouseover" end="arrowRight.mouseout"/>
                  </use>
                  <path fill="none" stroke="white" stroke-width="1.5" d="M0,-3.0v7 M-2.5,-0.5L0,-3.0L2.5,-0.5"/>
                </g>
                <g id="arrowDown" xlink:href="#dirArrow" transform="rotate(180) translate(-30 -48)" onmousedown="handlePan(0,1)">
                  <use xlink:href="#rim" fill="#404040">
                        <set attributeName="fill" to="#808080" begin="arrowDown.mouseover" end="arrowDown.mouseout"/>
                  </use>
                  <path fill="none" stroke="white" stroke-width="1.5" d="M0,-3.0v7 M-2.5,-0.5L0,-3.0L2.5,-0.5"/>
                </g>
                <g id="arrowLeft" xlink:href="#dirArrow" transform="rotate(270) translate(-36 17)" onmousedown="handlePan(-1,0)">
                  <use xlink:href="#rim" fill="#404040">
                        <set attributeName="fill" to="#808080" begin="arrowLeft.mouseover" end="arrowLeft.mouseout"/>
                  </use>
                  <path fill="none" stroke="white" stroke-width="1.5" d="M0,-3.0v7 M-2.5,-0.5L0,-3.0L2.5,-0.5"/>
                </g>
        </g>
        <svg viewBox="0 0 15 15" width="100%" height="30px" preserveAspectRatio="xMaxYMin meet">
         <g id="arrow_out" transform="scale(0.3 0.3)">
          <a xlink:href="a00219_a370ab6e2bb53c900f25a6005d0e5077d_cgraph_org.svg" target="_base">
           <rect id="button" ry="5" rx="5" y="6" x="6" height="38" width="38"
                fill="#f2f5e9" fill-opacity="0.5" stroke="#606060" stroke-width="1.0"/>
           <path id="arrow"
             d="M 11.500037,31.436501 C 11.940474,20.09759 22.043105,11.32322 32.158766,21.979434 L 37.068811,17.246167 C 37.068811,17.246167 37.088388,32 37.088388,32 L 22.160133,31.978069 C 22.160133,31.978069 26.997745,27.140456 26.997745,27.140456 C 18.528582,18.264221 13.291696,25.230495 11.500037,31.436501 z"
             style="fill:#404040;"/>
          </a>
         </g>
        </svg>
</svg>
