<?xml version="1.0" encoding="UTF-8" standalone="no"?>
<!DOCTYPE svg PUBLIC "-//W3C//DTD SVG 1.1//EN"
 "http://www.w3.org/Graphics/SVG/1.1/DTD/svg11.dtd">
<!-- Generated by graphviz version 2.40.1 (20161225.0304)
 -->
<!-- Title: CO_Andisol\logged_in Pages: 1 -->
<!--zoomable 570 -->
<svg id="main" version="1.1" xmlns="http://www.w3.org/2000/svg" xmlns:xlink="http://www.w3.org/1999/xlink" xml:space="preserve" onload="init(evt)">
<style type="text/css"><![CDATA[
.edge:hover path { stroke: red; }
.edge:hover polygon { stroke: red; fill: red; }
]]></style>
<script type="text/javascript"><![CDATA[
var edges = document.getElementsByTagName('g');
if (edges && edges.length) {
  for (var i=0;i<edges.length;i++) {
    if (edges[i].id.substr(0,4)=='edge') {
      edges[i].setAttribute('class','edge');
    }
  }
}
]]></script>
        <defs>
                <circle id="rim" cx="0" cy="0" r="7"/>
                <circle id="rim2" cx="0" cy="0" r="3.5"/>
                <g id="zoomPlus">
                        <use xlink:href="#rim" fill="#404040">
                                <set attributeName="fill" to="#808080" begin="zoomplus.mouseover" end="zoomplus.mouseout"/>
                        </use>
                        <path d="M-4,0h8M0,-4v8" fill="none" stroke="white" stroke-width="1.5" pointer-events="none"/>
                </g>
                <g id="zoomMin">
                        <use xlink:href="#rim" fill="#404040">
                                <set attributeName="fill" to="#808080" begin="zoomminus.mouseover" end="zoomminus.mouseout"/>
                        </use>
                        <path d="M-4,0h8" fill="none" stroke="white" stroke-width="1.5" pointer-events="none"/>
                </g>
                <g id="dirArrow">
                        <path fill="none" stroke="white" stroke-width="1.5" d="M0,-3.0v7 M-2.5,-0.5L0,-3.0L2.5,-0.5"/>
                </g>
               <g id="resetDef">
                       <use xlink:href="#rim2" fill="#404040">
                               <set attributeName="fill" to="#808080" begin="reset.mouseover" end="reset.mouseout"/>
                       </use>
               </g>
        </defs>

<script type="text/javascript">
var viewWidth = 857;
var viewHeight = 570;
var sectionId = 'dynsection-48';
</script>
<script xlink:href="svgpan.js"/>
<svg id="graph" class="graph">
<g id="viewport">
<title>CO_Andisol\logged_in</title>
<polygon fill="#ffffff" stroke="transparent" points="-4,4 -4,-566 853.3711,-566 853.3711,4 -4,4"/>
<!-- Node296 -->
<g id="node1" class="node">
<title>Node296</title>
<polygon fill="#bfbfbf" stroke="#000000" points="0,-391.5 0,-409.5 115.5117,-409.5 115.5117,-391.5 0,-391.5"/>
<text text-anchor="middle" x="57.7559" y="-397.5" font-family="Helvetica,sans-Serif" font-size="10.00" fill="#000000">CO_Andisol\logged_in</text>
</g>
<!-- Node297 -->
<g id="node2" class="node">
<title>Node297</title>
<g id="a_node2"><a xlink:href="a00219.html#a190232857416d5f1e7033452ac1bf6c0" target="_top" xlink:title="CO_Andisol\\_create\l_db_object">
<polygon fill="#ffffff" stroke="#000000" points="167.3564,-496.5 167.3564,-524.5 272.8486,-524.5 272.8486,-496.5 167.3564,-496.5"/>
<text text-anchor="start" x="175.3564" y="-512.5" font-family="Helvetica,sans-Serif" font-size="10.00" fill="#000000">CO_Andisol\_create</text>
<text text-anchor="middle" x="220.1025" y="-502.5" font-family="Helvetica,sans-Serif" font-size="10.00" fill="#000000">_db_object</text>
</a>
</g>
</g>
<!-- Node296&#45;&gt;Node297 -->
<g id="edge1" class="edge">
<title>Node296&#45;&gt;Node297</title>
<path fill="none" stroke="#191970" d="M71.967,-417.4799C89.0375,-436.8934 119.4113,-468.4413 151.5117,-487.5 157.2356,-490.8984 163.5293,-493.8754 169.9117,-496.46"/>
<polygon fill="#191970" stroke="#191970" points="74.4778,-415.0318 65.3001,-409.7383 69.1736,-419.5997 74.4778,-415.0318"/>
</g>
<!-- Node305 -->
<g id="node10" class="node">
<title>Node305</title>
<g id="a_node10"><a xlink:href="a00219.html#a3211db47dc4bd5f77983aedc341c0805" target="_top" xlink:title="CO_Andisol\\delete_item\l_by_id">
<polygon fill="#ffffff" stroke="#000000" points="158.1841,-449.5 158.1841,-477.5 282.021,-477.5 282.021,-449.5 158.1841,-449.5"/>
<text text-anchor="start" x="166.1841" y="-465.5" font-family="Helvetica,sans-Serif" font-size="10.00" fill="#000000">CO_Andisol\delete_item</text>
<text text-anchor="middle" x="220.1025" y="-455.5" font-family="Helvetica,sans-Serif" font-size="10.00" fill="#000000">_by_id</text>
</a>
</g>
</g>
<!-- Node296&#45;&gt;Node305 -->
<g id="edge9" class="edge">
<title>Node296&#45;&gt;Node305</title>
<path fill="none" stroke="#191970" d="M86.9714,-413.6754C105.3472,-421.7847 129.639,-432.1821 151.5117,-440.5 159.4946,-443.5358 168.0761,-446.5816 176.375,-449.418"/>
<polygon fill="#191970" stroke="#191970" points="88.2451,-410.4115 77.6853,-409.5502 85.4032,-416.8086 88.2451,-410.4115"/>
</g>
<!-- Node306 -->
<g id="node11" class="node">
<title>Node306</title>
<g id="a_node11"><a xlink:href="a00219.html#a24cb5350928f501bb7567b6b9d7b20cd" target="_top" xlink:title="CO_Andisol\\get_login_item">
<polygon fill="#ffffff" stroke="#000000" points="151.5117,-412.5 151.5117,-430.5 288.6934,-430.5 288.6934,-412.5 151.5117,-412.5"/>
<text text-anchor="middle" x="220.1025" y="-418.5" font-family="Helvetica,sans-Serif" font-size="10.00" fill="#000000">CO_Andisol\get_login_item</text>
</a>
</g>
</g>
<!-- Node296&#45;&gt;Node306 -->
<g id="edge10" class="edge">
<title>Node296&#45;&gt;Node306</title>
<path fill="none" stroke="#191970" d="M125.9923,-409.3266C134.3561,-410.4085 142.9081,-411.5147 151.2805,-412.5977"/>
<polygon fill="#191970" stroke="#191970" points="126.2746,-405.834 115.9082,-408.0222 125.3765,-412.7762 126.2746,-405.834"/>
</g>
<!-- Node308 -->
<g id="node13" class="node">
<title>Node308</title>
<g id="a_node13"><a xlink:href="a00219.html#a05d1a595153707e3c6f232ba9f766124" target="_top" xlink:title="CO_Andisol\\get_login\l_item_by_login_string">
<polygon fill="#ffffff" stroke="#000000" points="163.4624,-365.5 163.4624,-393.5 276.7427,-393.5 276.7427,-365.5 163.4624,-365.5"/>
<text text-anchor="start" x="171.4624" y="-381.5" font-family="Helvetica,sans-Serif" font-size="10.00" fill="#000000">CO_Andisol\get_login</text>
<text text-anchor="middle" x="220.1025" y="-371.5" font-family="Helvetica,sans-Serif" font-size="10.00" fill="#000000">_item_by_login_string</text>
</a>
</g>
</g>
<!-- Node296&#45;&gt;Node308 -->
<g id="edge12" class="edge">
<title>Node296&#45;&gt;Node308</title>
<path fill="none" stroke="#191970" d="M125.8347,-391.6938C138.3558,-390.0742 151.3038,-388.3993 163.4444,-386.8289"/>
<polygon fill="#191970" stroke="#191970" points="125.3765,-388.2238 115.9082,-392.9778 126.2746,-395.166 125.3765,-388.2238"/>
</g>
<!-- Node310 -->
<g id="node15" class="node">
<title>Node310</title>
<g id="a_node15"><a xlink:href="a00219.html#af5f39aa13714ad544a9099edb0d51cd5" target="_top" xlink:title="CO_Andisol\\manager">
<polygon fill="#ffffff" stroke="#000000" points="164.2998,-237.5 164.2998,-255.5 275.9053,-255.5 275.9053,-237.5 164.2998,-237.5"/>
<text text-anchor="middle" x="220.1025" y="-243.5" font-family="Helvetica,sans-Serif" font-size="10.00" fill="#000000">CO_Andisol\manager</text>
</a>
</g>
</g>
<!-- Node296&#45;&gt;Node310 -->
<g id="edge14" class="edge">
<title>Node296&#45;&gt;Node310</title>
<path fill="none" stroke="#191970" d="M74.7226,-384.4056C108.5463,-352.3208 183.4247,-281.2922 210.2786,-255.8189"/>
<polygon fill="#191970" stroke="#191970" points="72.2716,-381.9064 67.4252,-391.3278 77.0891,-386.9849 72.2716,-381.9064"/>
</g>
<!-- Node324 -->
<g id="node29" class="node">
<title>Node324</title>
<g id="a_node29"><a xlink:href="a00219.html#a9e01279d8bb11cb25f5477bb75123cba" target="_top" xlink:title="CO_Andisol\\set_value\l_for_key">
<polygon fill="#ffffff" stroke="#000000" points="162.6299,-106.5 162.6299,-134.5 277.5752,-134.5 277.5752,-106.5 162.6299,-106.5"/>
<text text-anchor="start" x="170.6299" y="-122.5" font-family="Helvetica,sans-Serif" font-size="10.00" fill="#000000">CO_Andisol\set_value</text>
<text text-anchor="middle" x="220.1025" y="-112.5" font-family="Helvetica,sans-Serif" font-size="10.00" fill="#000000">_for_key</text>
</a>
</g>
</g>
<!-- Node296&#45;&gt;Node324 -->
<g id="edge29" class="edge">
<title>Node296&#45;&gt;Node324</title>
<path fill="none" stroke="#191970" d="M67.062,-382.4971C83.4837,-350.9455 118.9524,-283.7591 151.5117,-228.5 171.6953,-194.2448 197.1879,-155.0914 210.6973,-134.6373"/>
<polygon fill="#191970" stroke="#191970" points="63.9266,-380.9405 62.4274,-391.4287 70.1399,-384.1646 63.9266,-380.9405"/>
</g>
<!-- Node298 -->
<g id="node3" class="node">
<title>Node298</title>
<g id="a_node3"><a xlink:href="a00219.html#a1783b1403b768959f80f17b08a5e8f82" target="_top" xlink:title="CO_Andisol\\create_general\l_data_item">
<polygon fill="#ffffff" stroke="#000000" points="343.3164,-496.5 343.3164,-524.5 482.168,-524.5 482.168,-496.5 343.3164,-496.5"/>
<text text-anchor="start" x="351.3164" y="-512.5" font-family="Helvetica,sans-Serif" font-size="10.00" fill="#000000">CO_Andisol\create_general</text>
<text text-anchor="middle" x="412.7422" y="-502.5" font-family="Helvetica,sans-Serif" font-size="10.00" fill="#000000">_data_item</text>
</a>
</g>
</g>
<!-- Node297&#45;&gt;Node298 -->
<g id="edge2" class="edge">
<title>Node297&#45;&gt;Node298</title>
<path fill="none" stroke="#191970" d="M283.1087,-510.5C302.2619,-510.5 323.4194,-510.5 342.9895,-510.5"/>
<polygon fill="#191970" stroke="#191970" points="282.997,-507.0001 272.997,-510.5 282.9969,-514.0001 282.997,-507.0001"/>
</g>
<!-- Node299 -->
<g id="node4" class="node">
<title>Node299</title>
<g id="a_node4"><a xlink:href="a00219.html#a1432efeebcc0952a1236feec7bbceb13" target="_top" xlink:title="CO_Andisol\\create_collection">
<polygon fill="#ffffff" stroke="#000000" points="536.791,-543.5 536.791,-561.5 683.9727,-561.5 683.9727,-543.5 536.791,-543.5"/>
<text text-anchor="middle" x="610.3818" y="-549.5" font-family="Helvetica,sans-Serif" font-size="10.00" fill="#000000">CO_Andisol\create_collection</text>
</a>
</g>
</g>
<!-- Node298&#45;&gt;Node299 -->
<g id="edge3" class="edge">
<title>Node298&#45;&gt;Node299</title>
<path fill="none" stroke="#191970" d="M488.6158,-526.6237C515.5205,-532.3412 544.8273,-538.5691 567.9462,-543.4821"/>
<polygon fill="#191970" stroke="#191970" points="489.3372,-523.199 478.8281,-524.5438 487.8821,-530.0461 489.3372,-523.199"/>
</g>
<!-- Node300 -->
<g id="node5" class="node">
<title>Node300</title>
<g id="a_node5"><a xlink:href="a00219.html#a24b15c45e28b5a0fb4971c11b4e5ed99" target="_top" xlink:title="CO_Andisol\\create_ll\l_location">
<polygon fill="#ffffff" stroke="#000000" points="555.4141,-496.5 555.4141,-524.5 665.3496,-524.5 665.3496,-496.5 555.4141,-496.5"/>
<text text-anchor="start" x="563.4141" y="-512.5" font-family="Helvetica,sans-Serif" font-size="10.00" fill="#000000">CO_Andisol\create_ll</text>
<text text-anchor="middle" x="610.3818" y="-502.5" font-family="Helvetica,sans-Serif" font-size="10.00" fill="#000000">_location</text>
</a>
</g>
</g>
<!-- Node298&#45;&gt;Node300 -->
<g id="edge4" class="edge">
<title>Node298&#45;&gt;Node300</title>
<path fill="none" stroke="#191970" d="M492.6335,-510.5C513.6637,-510.5 535.8821,-510.5 555.2841,-510.5"/>
<polygon fill="#191970" stroke="#191970" points="492.4226,-507.0001 482.4225,-510.5 492.4225,-514.0001 492.4226,-507.0001"/>
</g>
<!-- Node301 -->
<g id="node6" class="node">
<title>Node301</title>
<g id="a_node6"><a xlink:href="a00219.html#a79103b0d231d1dcc1f7c1921e5118621" target="_top" xlink:title="CO_Andisol\\create_place">
<polygon fill="#ffffff" stroke="#000000" points="545.6826,-459.5 545.6826,-477.5 675.0811,-477.5 675.0811,-459.5 545.6826,-459.5"/>
<text text-anchor="middle" x="610.3818" y="-465.5" font-family="Helvetica,sans-Serif" font-size="10.00" fill="#000000">CO_Andisol\create_place</text>
</a>
</g>
</g>
<!-- Node298&#45;&gt;Node301 -->
<g id="edge5" class="edge">
<title>Node298&#45;&gt;Node301</title>
<path fill="none" stroke="#191970" d="M488.6158,-494.3763C515.5205,-488.6588 544.8273,-482.4309 567.9462,-477.5179"/>
<polygon fill="#191970" stroke="#191970" points="487.8821,-490.9539 478.8281,-496.4562 489.3372,-497.801 487.8821,-490.9539"/>
</g>
<!-- Node302 -->
<g id="node7" class="node">
<title>Node302</title>
<g id="a_node7"><a xlink:href="a00219.html#a58956fb178766e8d0074dcb138d1e650" target="_top" xlink:title="CO_Andisol\\create_ll\l_place">
<polygon fill="#ffffff" stroke="#000000" points="729.7041,-501.5 729.7041,-529.5 839.6396,-529.5 839.6396,-501.5 729.7041,-501.5"/>
<text text-anchor="start" x="737.7041" y="-517.5" font-family="Helvetica,sans-Serif" font-size="10.00" fill="#000000">CO_Andisol\create_ll</text>
<text text-anchor="middle" x="784.6719" y="-507.5" font-family="Helvetica,sans-Serif" font-size="10.00" fill="#000000">_place</text>
</a>
</g>
</g>
<!-- Node301&#45;&gt;Node302 -->
<g id="edge6" class="edge">
<title>Node301&#45;&gt;Node302</title>
<path fill="none" stroke="#191970" d="M655.8619,-480.1016C665.1695,-482.5154 674.8938,-485.066 683.9727,-487.5 700.5355,-491.9404 718.5921,-496.918 734.7826,-501.431"/>
<polygon fill="#191970" stroke="#191970" points="656.5335,-476.6603 645.976,-477.548 654.7828,-483.4379 656.5335,-476.6603"/>
</g>
<!-- Node303 -->
<g id="node8" class="node">
<title>Node303</title>
<g id="a_node8"><a xlink:href="a00219.html#a5f26c529c4b6d41367241db17d114fb5" target="_top" xlink:title="CO_Andisol\\create_ll\l_us_place">
<polygon fill="#ffffff" stroke="#000000" points="729.7041,-454.5 729.7041,-482.5 839.6396,-482.5 839.6396,-454.5 729.7041,-454.5"/>
<text text-anchor="start" x="737.7041" y="-470.5" font-family="Helvetica,sans-Serif" font-size="10.00" fill="#000000">CO_Andisol\create_ll</text>
<text text-anchor="middle" x="784.6719" y="-460.5" font-family="Helvetica,sans-Serif" font-size="10.00" fill="#000000">_us_place</text>
</a>
</g>
</g>
<!-- Node301&#45;&gt;Node303 -->
<g id="edge7" class="edge">
<title>Node301&#45;&gt;Node303</title>
<path fill="none" stroke="#191970" d="M685.4167,-468.5C700.1976,-468.5 715.4525,-468.5 729.4356,-468.5"/>
<polygon fill="#191970" stroke="#191970" points="685.281,-465.0001 675.281,-468.5 685.281,-472.0001 685.281,-465.0001"/>
</g>
<!-- Node304 -->
<g id="node9" class="node">
<title>Node304</title>
<g id="a_node9"><a xlink:href="a00219.html#a492fc0036d5930c325ed14bfcdd5938a" target="_top" xlink:title="CO_Andisol\\create_place\l_collection">
<polygon fill="#ffffff" stroke="#000000" points="719.9727,-407.5 719.9727,-435.5 849.3711,-435.5 849.3711,-407.5 719.9727,-407.5"/>
<text text-anchor="start" x="727.9727" y="-423.5" font-family="Helvetica,sans-Serif" font-size="10.00" fill="#000000">CO_Andisol\create_place</text>
<text text-anchor="middle" x="784.6719" y="-413.5" font-family="Helvetica,sans-Serif" font-size="10.00" fill="#000000">_collection</text>
</a>
</g>
</g>
<!-- Node301&#45;&gt;Node304 -->
<g id="edge8" class="edge">
<title>Node301&#45;&gt;Node304</title>
<path fill="none" stroke="#191970" d="M653.8323,-456.7829C677.7218,-450.3407 707.5214,-442.3048 732.6447,-435.5299"/>
<polygon fill="#191970" stroke="#191970" points="652.7305,-453.4549 643.9867,-459.4379 654.5531,-460.2135 652.7305,-453.4549"/>
</g>
<!-- Node307 -->
<g id="node12" class="node">
<title>Node307</title>
<g id="a_node12"><a xlink:href="a00219.html#afa726783f29cadc795d892eb9f825fa1" target="_top" xlink:title="CO_Andisol\\current\l_login">
<polygon fill="#ffffff" stroke="#000000" points="361.1118,-429.5 361.1118,-457.5 464.3726,-457.5 464.3726,-429.5 361.1118,-429.5"/>
<text text-anchor="start" x="369.1118" y="-445.5" font-family="Helvetica,sans-Serif" font-size="10.00" fill="#000000">CO_Andisol\current</text>
<text text-anchor="middle" x="412.7422" y="-435.5" font-family="Helvetica,sans-Serif" font-size="10.00" fill="#000000">_login</text>
</a>
</g>
</g>
<!-- Node306&#45;&gt;Node307 -->
<g id="edge11" class="edge">
<title>Node306&#45;&gt;Node307</title>
<path fill="none" stroke="#191970" d="M298.9899,-430.5092C319.9002,-432.8972 341.9444,-435.4147 361.0015,-437.5911"/>
<polygon fill="#191970" stroke="#191970" points="299.1666,-427.0067 288.834,-429.3493 298.3723,-433.9615 299.1666,-427.0067"/>
</g>
<!-- Node309 -->
<g id="node14" class="node">
<title>Node309</title>
<g id="a_node14"><a xlink:href="a00219.html#a7d4be5fe8eb59e59a6ca94a781980e4f" target="_top" xlink:title="CO_Andisol\\get_user\l_from_login_string">
<polygon fill="#ffffff" stroke="#000000" points="554.855,-307.5 554.855,-335.5 665.9087,-335.5 665.9087,-307.5 554.855,-307.5"/>
<text text-anchor="start" x="562.855" y="-323.5" font-family="Helvetica,sans-Serif" font-size="10.00" fill="#000000">CO_Andisol\get_user</text>
<text text-anchor="middle" x="610.3818" y="-313.5" font-family="Helvetica,sans-Serif" font-size="10.00" fill="#000000">_from_login_string</text>
</a>
</g>
</g>
<!-- Node308&#45;&gt;Node309 -->
<g id="edge13" class="edge">
<title>Node308&#45;&gt;Node309</title>
<path fill="none" stroke="#191970" d="M286.8499,-389.4159C344.4609,-395.7558 429.42,-399.7588 500.791,-381.5 535.2545,-372.6832 570.5377,-350.5389 591.4466,-335.7614"/>
<polygon fill="#191970" stroke="#191970" points="287.1129,-385.9231 276.7774,-388.253 286.31,-392.8769 287.1129,-385.9231"/>
</g>
<!-- Node311 -->
<g id="node16" class="node">
<title>Node311</title>
<g id="a_node16"><a xlink:href="a00219.html#a737ba5cc859a773ab48d09f365fbb4b6" target="_top" xlink:title="CO_Andisol\\_make_security\l_token">
<polygon fill="#ffffff" stroke="#000000" points="341.6587,-138.5 341.6587,-166.5 483.8257,-166.5 483.8257,-138.5 341.6587,-138.5"/>
<text text-anchor="start" x="349.6587" y="-154.5" font-family="Helvetica,sans-Serif" font-size="10.00" fill="#000000">CO_Andisol\_make_security</text>
<text text-anchor="middle" x="412.7422" y="-144.5" font-family="Helvetica,sans-Serif" font-size="10.00" fill="#000000">_token</text>
</a>
</g>
</g>
<!-- Node310&#45;&gt;Node311 -->
<g id="edge15" class="edge">
<title>Node310&#45;&gt;Node311</title>
<path fill="none" stroke="#191970" d="M239.0168,-231.066C259.1502,-215.3266 292.4845,-191.1922 324.6934,-176.5 333.0541,-172.6862 342.146,-169.3686 351.2085,-166.5182"/>
<polygon fill="#191970" stroke="#191970" points="236.643,-228.4819 230.9924,-237.4441 240.9986,-233.9617 236.643,-228.4819"/>
</g>
<!-- Node313 -->
<g id="node18" class="node">
<title>Node313</title>
<g id="a_node18"><a xlink:href="a00219.html#a370ab6e2bb53c900f25a6005d0e5077d" target="_top" xlink:title="CO_Andisol\\god">
<polygon fill="#ffffff" stroke="#000000" points="368.3311,-64.5 368.3311,-82.5 457.1533,-82.5 457.1533,-64.5 368.3311,-64.5"/>
<text text-anchor="middle" x="412.7422" y="-70.5" font-family="Helvetica,sans-Serif" font-size="10.00" fill="#000000">CO_Andisol\god</text>
</a>
</g>
</g>
<!-- Node310&#45;&gt;Node313 -->
<g id="edge17" class="edge">
<title>Node310&#45;&gt;Node313</title>
<path fill="none" stroke="#191970" d="M231.9468,-228.8793C258.9736,-188.6953 323.0034,-93.6397 324.6934,-92.5 337.3991,-83.9308 353.2801,-79.138 368.0434,-76.4862"/>
<polygon fill="#191970" stroke="#191970" points="228.8868,-227.1577 226.2113,-237.4092 234.6957,-231.0636 228.8868,-227.1577"/>
</g>
<!-- Node317 -->
<g id="node22" class="node">
<title>Node317</title>
<g id="a_node22"><a xlink:href="a00219.html#a4a99f9757a91355dd3aca720dcf5a770" target="_top" xlink:title="CO_Andisol\\who_can_see">
<polygon fill="#ffffff" stroke="#000000" points="345.8164,-101.5 345.8164,-119.5 479.668,-119.5 479.668,-101.5 345.8164,-101.5"/>
<text text-anchor="middle" x="412.7422" y="-107.5" font-family="Helvetica,sans-Serif" font-size="10.00" fill="#000000">CO_Andisol\who_can_see</text>
</a>
</g>
</g>
<!-- Node310&#45;&gt;Node317 -->
<g id="edge21" class="edge">
<title>Node310&#45;&gt;Node317</title>
<path fill="none" stroke="#191970" d="M230.8284,-228.5958C247.4754,-202.4602 282.0942,-154.2845 324.6934,-129.5 331.8573,-125.332 339.8288,-122.0754 347.9666,-119.5315"/>
<polygon fill="#191970" stroke="#191970" points="227.6411,-227.0947 225.3491,-237.4387 233.5914,-230.7818 227.6411,-227.0947"/>
</g>
<!-- Node318 -->
<g id="node23" class="node">
<title>Node318</title>
<g id="a_node23"><a xlink:href="a00219.html#a61b9a275c4b8b824d9a2b3aadd421bf7" target="_top" xlink:title="CO_Andisol\\get_user\l_from_login">
<polygon fill="#ffffff" stroke="#000000" points="357.2153,-185.5 357.2153,-213.5 468.269,-213.5 468.269,-185.5 357.2153,-185.5"/>
<text text-anchor="start" x="365.2153" y="-201.5" font-family="Helvetica,sans-Serif" font-size="10.00" fill="#000000">CO_Andisol\get_user</text>
<text text-anchor="middle" x="412.7422" y="-191.5" font-family="Helvetica,sans-Serif" font-size="10.00" fill="#000000">_from_login</text>
</a>
</g>
</g>
<!-- Node310&#45;&gt;Node318 -->
<g id="edge22" class="edge">
<title>Node310&#45;&gt;Node318</title>
<path fill="none" stroke="#191970" d="M267.2709,-234.9919C294.408,-228.371 328.6559,-220.0153 357.1036,-213.0746"/>
<polygon fill="#191970" stroke="#191970" points="266.1308,-231.6673 257.2454,-237.4379 267.7901,-238.4679 266.1308,-231.6673"/>
</g>
<!-- Node320 -->
<g id="node25" class="node">
<title>Node320</title>
<g id="a_node25"><a xlink:href="a00219.html#a73ccfd34793c0197e2dc336b44e3577e" target="_top" xlink:title="CO_Andisol\\make_standalone_user">
<polygon fill="#ffffff" stroke="#000000" points="324.6934,-353.5 324.6934,-371.5 500.791,-371.5 500.791,-353.5 324.6934,-353.5"/>
<text text-anchor="middle" x="412.7422" y="-359.5" font-family="Helvetica,sans-Serif" font-size="10.00" fill="#000000">CO_Andisol\make_standalone_user</text>
</a>
</g>
</g>
<!-- Node310&#45;&gt;Node320 -->
<g id="edge25" class="edge">
<title>Node310&#45;&gt;Node320</title>
<path fill="none" stroke="#191970" d="M233.0622,-263.4575C251.0715,-285.7474 285.863,-324.4193 324.6934,-344.5 331.7614,-348.1552 339.5078,-351.0684 347.3817,-353.3902"/>
<polygon fill="#191970" stroke="#191970" points="235.7488,-261.2121 226.8073,-255.5288 230.2531,-265.5476 235.7488,-261.2121"/>
</g>
<!-- Node321 -->
<g id="node26" class="node">
<title>Node321</title>
<g id="a_node26"><a xlink:href="a00219.html#afe9a7dd6ab7e39f73345fa5ecbb177a7" target="_top" xlink:title="CO_Andisol\\create_new_user">
<polygon fill="#ffffff" stroke="#000000" points="338.3164,-316.5 338.3164,-334.5 487.168,-334.5 487.168,-316.5 338.3164,-316.5"/>
<text text-anchor="middle" x="412.7422" y="-322.5" font-family="Helvetica,sans-Serif" font-size="10.00" fill="#000000">CO_Andisol\create_new_user</text>
</a>
</g>
</g>
<!-- Node310&#45;&gt;Node321 -->
<g id="edge26" class="edge">
<title>Node310&#45;&gt;Node321</title>
<path fill="none" stroke="#191970" d="M240.8376,-261.352C261.2345,-275.2773 293.7316,-295.6751 324.6934,-307.5 334.1675,-311.1184 344.5069,-314.0597 354.6614,-316.4345"/>
<polygon fill="#191970" stroke="#191970" points="242.8312,-258.4752 232.6217,-255.6438 238.8371,-264.224 242.8312,-258.4752"/>
</g>
<!-- Node322 -->
<g id="node27" class="node">
<title>Node322</title>
<g id="a_node27"><a xlink:href="a00219.html#aa4f45eb1ec9c5acc7709cfd9b08348f3" target="_top" xlink:title="CO_Andisol\\delete_user">
<polygon fill="#ffffff" stroke="#000000" points="350.543,-279.5 350.543,-297.5 474.9414,-297.5 474.9414,-279.5 350.543,-279.5"/>
<text text-anchor="middle" x="412.7422" y="-285.5" font-family="Helvetica,sans-Serif" font-size="10.00" fill="#000000">CO_Andisol\delete_user</text>
</a>
</g>
</g>
<!-- Node310&#45;&gt;Node322 -->
<g id="edge27" class="edge">
<title>Node310&#45;&gt;Node322</title>
<path fill="none" stroke="#191970" d="M268.8368,-257.9372C286.4201,-261.9964 306.4298,-266.5383 324.6934,-270.5 338.5689,-273.5098 353.7054,-276.6543 367.4532,-279.4574"/>
<polygon fill="#191970" stroke="#191970" points="269.328,-254.4583 258.796,-255.611 267.7481,-261.2777 269.328,-254.4583"/>
</g>
<!-- Node323 -->
<g id="node28" class="node">
<title>Node323</title>
<g id="a_node28"><a xlink:href="a00219.html#ae0e62c8ade9295c9b5a2d3b725f8f222" target="_top" xlink:title="CO_Andisol\\get_all\l_logins">
<polygon fill="#ffffff" stroke="#000000" points="361.9395,-232.5 361.9395,-260.5 463.5449,-260.5 463.5449,-232.5 361.9395,-232.5"/>
<text text-anchor="start" x="369.9395" y="-248.5" font-family="Helvetica,sans-Serif" font-size="10.00" fill="#000000">CO_Andisol\get_all</text>
<text text-anchor="middle" x="412.7422" y="-238.5" font-family="Helvetica,sans-Serif" font-size="10.00" fill="#000000">_logins</text>
</a>
</g>
</g>
<!-- Node310&#45;&gt;Node323 -->
<g id="edge28" class="edge">
<title>Node310&#45;&gt;Node323</title>
<path fill="none" stroke="#191970" d="M286.1368,-246.5C310.9242,-246.5 338.6907,-246.5 361.8902,-246.5"/>
<polygon fill="#191970" stroke="#191970" points="286.0807,-243.0001 276.0807,-246.5 286.0806,-250.0001 286.0807,-243.0001"/>
</g>
<!-- Node312 -->
<g id="node17" class="node">
<title>Node312</title>
<g id="a_node17"><a xlink:href="a00219.html#ad0ac8fb3000239301a9f2be905c1a124" target="_top" xlink:title="CO_Andisol\\make_security\l_token">
<polygon fill="#ffffff" stroke="#000000" points="542.0791,-141.5 542.0791,-169.5 678.6846,-169.5 678.6846,-141.5 542.0791,-141.5"/>
<text text-anchor="start" x="550.0791" y="-157.5" font-family="Helvetica,sans-Serif" font-size="10.00" fill="#000000">CO_Andisol\make_security</text>
<text text-anchor="middle" x="610.3818" y="-147.5" font-family="Helvetica,sans-Serif" font-size="10.00" fill="#000000">_token</text>
</a>
</g>
</g>
<!-- Node311&#45;&gt;Node312 -->
<g id="edge16" class="edge">
<title>Node311&#45;&gt;Node312</title>
<path fill="none" stroke="#191970" d="M494.3492,-153.7387C510.1128,-153.978 526.4794,-154.2264 541.7771,-154.4586"/>
<polygon fill="#191970" stroke="#191970" points="494.1466,-150.2353 484.0946,-153.5831 494.0403,-157.2345 494.1466,-150.2353"/>
</g>
<!-- Node314 -->
<g id="node19" class="node">
<title>Node314</title>
<g id="a_node19"><a xlink:href="a00219.html#a86bc3621ffe539ac5a9239375f0a786b" target="_top" xlink:title="CO_Andisol\\get_all\l_login_users">
<polygon fill="#ffffff" stroke="#000000" points="559.5791,-94.5 559.5791,-122.5 661.1846,-122.5 661.1846,-94.5 559.5791,-94.5"/>
<text text-anchor="start" x="567.5791" y="-110.5" font-family="Helvetica,sans-Serif" font-size="10.00" fill="#000000">CO_Andisol\get_all</text>
<text text-anchor="middle" x="610.3818" y="-100.5" font-family="Helvetica,sans-Serif" font-size="10.00" fill="#000000">_login_users</text>
</a>
</g>
</g>
<!-- Node313&#45;&gt;Node314 -->
<g id="edge18" class="edge">
<title>Node313&#45;&gt;Node314</title>
<path fill="none" stroke="#191970" d="M467.4795,-83.1934C496.2389,-88.2864 531.2639,-94.489 559.4406,-99.4788"/>
<polygon fill="#191970" stroke="#191970" points="468.0468,-79.7395 457.5897,-81.442 466.8261,-86.6323 468.0468,-79.7395"/>
</g>
<!-- Node315 -->
<g id="node20" class="node">
<title>Node315</title>
<g id="a_node20"><a xlink:href="a00219.html#acd1e344f9f0087ee41414e6aa5f13e1e" target="_top" xlink:title="CO_Andisol\\get_all\l_standalone_users">
<polygon fill="#ffffff" stroke="#000000" points="559.5791,-47.5 559.5791,-75.5 661.1846,-75.5 661.1846,-47.5 559.5791,-47.5"/>
<text text-anchor="start" x="567.5791" y="-63.5" font-family="Helvetica,sans-Serif" font-size="10.00" fill="#000000">CO_Andisol\get_all</text>
<text text-anchor="middle" x="610.3818" y="-53.5" font-family="Helvetica,sans-Serif" font-size="10.00" fill="#000000">_standalone_users</text>
</a>
</g>
</g>
<!-- Node313&#45;&gt;Node315 -->
<g id="edge19" class="edge">
<title>Node313&#45;&gt;Node315</title>
<path fill="none" stroke="#191970" d="M467.8566,-70.1536C496.5447,-68.4118 531.3869,-66.2963 559.4406,-64.593"/>
<polygon fill="#191970" stroke="#191970" points="467.3592,-66.6773 457.5897,-70.777 467.7835,-73.6644 467.3592,-66.6773"/>
</g>
<!-- Node316 -->
<g id="node21" class="node">
<title>Node316</title>
<g id="a_node21"><a xlink:href="a00219.html#a9d3578d72df7af2ff07e23ea7b1b1af9" target="_top" xlink:title="CO_Andisol\\get_all\l_users">
<polygon fill="#ffffff" stroke="#000000" points="559.5791,-.5 559.5791,-28.5 661.1846,-28.5 661.1846,-.5 559.5791,-.5"/>
<text text-anchor="start" x="567.5791" y="-16.5" font-family="Helvetica,sans-Serif" font-size="10.00" fill="#000000">CO_Andisol\get_all</text>
<text text-anchor="middle" x="610.3818" y="-6.5" font-family="Helvetica,sans-Serif" font-size="10.00" fill="#000000">_users</text>
</a>
</g>
</g>
<!-- Node313&#45;&gt;Node316 -->
<g id="edge20" class="edge">
<title>Node313&#45;&gt;Node316</title>
<path fill="none" stroke="#191970" d="M467.3104,-64.4674C478.5148,-62.0227 490.1372,-59.0473 500.791,-55.5 517.5791,-49.9102 520.3473,-45.0338 536.791,-38.5 545.5331,-35.0264 554.9966,-31.658 564.1334,-28.5969"/>
<polygon fill="#191970" stroke="#191970" points="466.261,-61.1104 457.178,-66.5646 467.6798,-67.9651 466.261,-61.1104"/>
</g>
<!-- Node318&#45;&gt;Node309 -->
<g id="edge24" class="edge">
<title>Node318&#45;&gt;Node309</title>
<path fill="none" stroke="#191970" d="M477.9553,-213.5681C485.8692,-216.3433 493.6654,-219.627 500.791,-223.5 541.6052,-245.6839 579.7774,-285.8574 598.4354,-307.2291"/>
<polygon fill="#191970" stroke="#191970" points="478.873,-210.1863 468.2809,-210.4296 476.7129,-216.8447 478.873,-210.1863"/>
</g>
<!-- Node319 -->
<g id="node24" class="node">
<title>Node319</title>
<g id="a_node24"><a xlink:href="a00219.html#a661842aaa6be17af30fbac58b5008c36" target="_top" xlink:title="CO_Andisol\\current_user">
<polygon fill="#ffffff" stroke="#000000" points="546.2441,-190.5 546.2441,-208.5 674.5195,-208.5 674.5195,-190.5 546.2441,-190.5"/>
<text text-anchor="middle" x="610.3818" y="-196.5" font-family="Helvetica,sans-Serif" font-size="10.00" fill="#000000">CO_Andisol\current_user</text>
</a>
</g>
</g>
<!-- Node318&#45;&gt;Node319 -->
<g id="edge23" class="edge">
<title>Node318&#45;&gt;Node319</title>
<path fill="none" stroke="#191970" d="M478.4716,-199.5C500.2603,-199.5 524.4753,-199.5 546.1499,-199.5"/>
<polygon fill="#191970" stroke="#191970" points="478.3218,-196.0001 468.3218,-199.5 478.3218,-203.0001 478.3218,-196.0001"/>
</g>
<!-- Node325 -->
<g id="node30" class="node">
<title>Node325</title>
<g id="a_node30"><a xlink:href="a00219.html#a3a2a831d4194a3ea9b933f98b4ee71f2" target="_top" xlink:title="CO_Andisol\\delete_key">
<polygon fill="#ffffff" stroke="#000000" points="352.4888,-27.5 352.4888,-45.5 472.9956,-45.5 472.9956,-27.5 352.4888,-27.5"/>
<text text-anchor="middle" x="412.7422" y="-33.5" font-family="Helvetica,sans-Serif" font-size="10.00" fill="#000000">CO_Andisol\delete_key</text>
</a>
</g>
</g>
<!-- Node324&#45;&gt;Node325 -->
<g id="edge30" class="edge">
<title>Node324&#45;&gt;Node325</title>
<path fill="none" stroke="#191970" d="M246.4677,-100.538C266.8324,-86.0327 296.2521,-67.0016 324.6934,-55.5 334.8416,-51.396 346.0233,-48.1158 356.9145,-45.5158"/>
<polygon fill="#191970" stroke="#191970" points="244.3655,-97.7391 238.3237,-106.4424 248.4742,-103.4064 244.3655,-97.7391"/>
</g>
</g>
</svg>
        <g id="navigator" transform="translate(0 0)" fill="#404254">
                <rect fill="#f2f5e9" fill-opacity="0.5" stroke="#606060" stroke-width=".5" x="0" y="0" width="60" height="60"/>
                <use id="zoomplus" xlink:href="#zoomPlus" x="17" y="9" onmousedown="handleZoom(evt,'in')"/>
                <use id="zoomminus" xlink:href="#zoomMin" x="42" y="9" onmousedown="handleZoom(evt,'out')"/>
                <use id="reset" xlink:href="#resetDef" x="30" y="36" onmousedown="handleReset()"/>
                <g id="arrowUp" xlink:href="#dirArrow" transform="translate(30 24)" onmousedown="handlePan(0,-1)">
                  <use xlink:href="#rim" fill="#404040">
                        <set attributeName="fill" to="#808080" begin="arrowUp.mouseover" end="arrowUp.mouseout"/>
                  </use>
                  <path fill="none" stroke="white" stroke-width="1.5" d="M0,-3.0v7 M-2.5,-0.5L0,-3.0L2.5,-0.5"/>
                </g>
                <g id="arrowRight" xlink:href="#dirArrow" transform="rotate(90) translate(36 -43)" onmousedown="handlePan(1,0)">
                  <use xlink:href="#rim" fill="#404040">
                        <set attributeName="fill" to="#808080" begin="arrowRight.mouseover" end="arrowRight.mouseout"/>
                  </use>
                  <path fill="none" stroke="white" stroke-width="1.5" d="M0,-3.0v7 M-2.5,-0.5L0,-3.0L2.5,-0.5"/>
                </g>
                <g id="arrowDown" xlink:href="#dirArrow" transform="rotate(180) translate(-30 -48)" onmousedown="handlePan(0,1)">
                  <use xlink:href="#rim" fill="#404040">
                        <set attributeName="fill" to="#808080" begin="arrowDown.mouseover" end="arrowDown.mouseout"/>
                  </use>
                  <path fill="none" stroke="white" stroke-width="1.5" d="M0,-3.0v7 M-2.5,-0.5L0,-3.0L2.5,-0.5"/>
                </g>
                <g id="arrowLeft" xlink:href="#dirArrow" transform="rotate(270) translate(-36 17)" onmousedown="handlePan(-1,0)">
                  <use xlink:href="#rim" fill="#404040">
                        <set attributeName="fill" to="#808080" begin="arrowLeft.mouseover" end="arrowLeft.mouseout"/>
                  </use>
                  <path fill="none" stroke="white" stroke-width="1.5" d="M0,-3.0v7 M-2.5,-0.5L0,-3.0L2.5,-0.5"/>
                </g>
        </g>
        <svg viewBox="0 0 15 15" width="100%" height="30px" preserveAspectRatio="xMaxYMin meet">
         <g id="arrow_out" transform="scale(0.3 0.3)">
          <a xlink:href="a00219_ac2a2dcb99dc927789b0ffa09c24946de_icgraph_org.svg" target="_base">
           <rect id="button" ry="5" rx="5" y="6" x="6" height="38" width="38"
                fill="#f2f5e9" fill-opacity="0.5" stroke="#606060" stroke-width="1.0"/>
           <path id="arrow"
             d="M 11.500037,31.436501 C 11.940474,20.09759 22.043105,11.32322 32.158766,21.979434 L 37.068811,17.246167 C 37.068811,17.246167 37.088388,32 37.088388,32 L 22.160133,31.978069 C 22.160133,31.978069 26.997745,27.140456 26.997745,27.140456 C 18.528582,18.264221 13.291696,25.230495 11.500037,31.436501 z"
             style="fill:#404040;"/>
          </a>
         </g>
        </svg>
</svg>
