<?xml version="1.0" encoding="UTF-8" standalone="no"?>
<!DOCTYPE svg PUBLIC "-//W3C//DTD SVG 1.1//EN"
 "http://www.w3.org/Graphics/SVG/1.1/DTD/svg11.dtd">
<!-- Generated by graphviz version 2.47.1 (20210417.1919)
 -->
<!-- Title: CO_Andisol\create_general_data_item Pages: 1 -->
<svg width="735pt" height="91pt"
 viewBox="0.00 0.00 735.00 90.50" xmlns="http://www.w3.org/2000/svg" xmlns:xlink="http://www.w3.org/1999/xlink">
<g id="graph0" class="graph" transform="scale(1 1) rotate(0) translate(4 86.5)">
<title>CO_Andisol\create_general_data_item</title>
<polygon fill="white" stroke="transparent" points="-4,4 -4,-86.5 731,-86.5 731,4 -4,4"/>
<!-- Node1 -->
<g id="node1" class="node">
<title>Node1</title>
<g id="a_node1"><a xlink:title=" ">
<polygon fill="#bfbfbf" stroke="black" points="0,-52 0,-82 136,-82 136,-52 0,-52"/>
<text text-anchor="start" x="8" y="-70" font-family="Helvetica,sans-Serif" font-size="10.00">CO_Andisol\create_general</text>
<text text-anchor="middle" x="68" y="-59" font-family="Helvetica,sans-Serif" font-size="10.00">_data_item</text>
</a>
</g>
</g>
<!-- Node2 -->
<g id="node2" class="node">
<title>Node2</title>
<g id="a_node2"><a xlink:href="a00216.html#a190232857416d5f1e7033452ac1bf6c0" target="_top" xlink:title=" ">
<polygon fill="white" stroke="black" points="172,-52 172,-82 276,-82 276,-52 172,-52"/>
<text text-anchor="start" x="180" y="-70" font-family="Helvetica,sans-Serif" font-size="10.00">CO_Andisol\_create</text>
<text text-anchor="middle" x="224" y="-59" font-family="Helvetica,sans-Serif" font-size="10.00">_db_object</text>
</a>
</g>
</g>
<!-- Node1&#45;&gt;Node2 -->
<g id="edge1" class="edge">
<title>Node1&#45;&gt;Node2</title>
<path fill="none" stroke="midnightblue" d="M136.1,-67C144.63,-67 153.32,-67 161.75,-67"/>
<polygon fill="midnightblue" stroke="midnightblue" points="161.87,-70.5 171.87,-67 161.87,-63.5 161.87,-70.5"/>
</g>
<!-- Node3 -->
<g id="node3" class="node">
<title>Node3</title>
<g id="a_node3"><a xlink:href="a00216.html#acda267f1d6a8e496e167ed46fe590dc6" target="_top" xlink:title=" ">
<polygon fill="white" stroke="black" points="589,-33 589,-63 727,-63 727,-33 589,-33"/>
<text text-anchor="start" x="597" y="-51" font-family="Helvetica,sans-Serif" font-size="10.00">CO_Andisol\get_chameleon</text>
<text text-anchor="middle" x="658" y="-40" font-family="Helvetica,sans-Serif" font-size="10.00">_instance</text>
</a>
</g>
</g>
<!-- Node2&#45;&gt;Node3 -->
<g id="edge2" class="edge">
<title>Node2&#45;&gt;Node3</title>
<path fill="none" stroke="midnightblue" d="M276.25,-68.47C340.89,-69.81 455.41,-70.46 553,-62 561.35,-61.28 570.06,-60.36 578.72,-59.35"/>
<polygon fill="midnightblue" stroke="midnightblue" points="579.35,-62.8 588.85,-58.11 578.5,-55.85 579.35,-62.8"/>
</g>
<!-- Node4 -->
<g id="node4" class="node">
<title>Node4</title>
<g id="a_node4"><a xlink:href="a00216.html#ac2a2dcb99dc927789b0ffa09c24946de" target="_top" xlink:title=" ">
<polygon fill="white" stroke="black" points="312,-38.5 312,-57.5 425,-57.5 425,-38.5 312,-38.5"/>
<text text-anchor="middle" x="368.5" y="-45.5" font-family="Helvetica,sans-Serif" font-size="10.00">CO_Andisol\logged_in</text>
</a>
</g>
</g>
<!-- Node2&#45;&gt;Node4 -->
<g id="edge3" class="edge">
<title>Node2&#45;&gt;Node4</title>
<path fill="none" stroke="midnightblue" d="M276.04,-60.19C284.42,-59.08 293.21,-57.91 301.89,-56.75"/>
<polygon fill="midnightblue" stroke="midnightblue" points="302.54,-60.19 311.99,-55.4 301.61,-53.25 302.54,-60.19"/>
</g>
<!-- Node4&#45;&gt;Node3 -->
<g id="edge4" class="edge">
<title>Node4&#45;&gt;Node3</title>
<path fill="none" stroke="midnightblue" d="M425.27,-48C468.95,-48 530.23,-48 578.81,-48"/>
<polygon fill="midnightblue" stroke="midnightblue" points="578.97,-51.5 588.97,-48 578.97,-44.5 578.97,-51.5"/>
</g>
<!-- Node5 -->
<g id="node5" class="node">
<title>Node5</title>
<g id="a_node5"><a xlink:href="a00216.html#a4b0ec12b29ce4812cbb4169b68770f66" target="_top" xlink:title=" ">
<polygon fill="white" stroke="black" points="461,-0.5 461,-19.5 553,-19.5 553,-0.5 461,-0.5"/>
<text text-anchor="middle" x="507" y="-7.5" font-family="Helvetica,sans-Serif" font-size="10.00">CO_Andisol\valid</text>
</a>
</g>
</g>
<!-- Node4&#45;&gt;Node5 -->
<g id="edge5" class="edge">
<title>Node4&#45;&gt;Node5</title>
<path fill="none" stroke="midnightblue" d="M403.94,-38.41C421.48,-33.53 443.01,-27.54 461.76,-22.32"/>
<polygon fill="midnightblue" stroke="midnightblue" points="462.87,-25.64 471.57,-19.59 460.99,-18.9 462.87,-25.64"/>
</g>
<!-- Node5&#45;&gt;Node3 -->
<g id="edge6" class="edge">
<title>Node5&#45;&gt;Node3</title>
<path fill="none" stroke="midnightblue" d="M545.6,-19.59C558.49,-22.88 573.35,-26.67 587.93,-30.38"/>
<polygon fill="midnightblue" stroke="midnightblue" points="587.4,-33.86 597.95,-32.94 589.13,-27.08 587.4,-33.86"/>
</g>
</g>
</svg>
