<?xml version="1.0" encoding="UTF-8" standalone="no"?>
<!DOCTYPE svg PUBLIC "-//W3C//DTD SVG 1.1//EN"
 "http://www.w3.org/Graphics/SVG/1.1/DTD/svg11.dtd">
<!-- Generated by graphviz version 2.47.1 (20210417.1919)
 -->
<!-- Title: CO_places_Basalt_Plugin\process_command Pages: 1 -->
<svg width="652pt" height="288pt"
 viewBox="0.00 0.00 652.00 288.00" xmlns="http://www.w3.org/2000/svg" xmlns:xlink="http://www.w3.org/1999/xlink">
<g id="graph0" class="graph" transform="scale(1 1) rotate(0) translate(4 284)">
<title>CO_places_Basalt_Plugin\process_command</title>
<polygon fill="white" stroke="transparent" points="-4,4 -4,-284 648,-284 648,4 -4,4"/>
<!-- Node1 -->
<g id="node1" class="node">
<title>Node1</title>
<g id="a_node1"><a xlink:title=" ">
<polygon fill="#bfbfbf" stroke="black" points="0,-134.5 0,-164.5 131,-164.5 131,-134.5 0,-134.5"/>
<text text-anchor="start" x="8" y="-152.5" font-family="Helvetica,sans-Serif" font-size="10.00">CO_places_Basalt_Plugin</text>
<text text-anchor="middle" x="65.5" y="-141.5" font-family="Helvetica,sans-Serif" font-size="10.00">\process_command</text>
</a>
</g>
</g>
<!-- Node2 -->
<g id="node2" class="node">
<title>Node2</title>
<g id="a_node2"><a xlink:href="a00196.html#a4195fd75943d9dd1ca6dce290aa64dcc" target="_top" xlink:title=" ">
<polygon fill="white" stroke="black" points="178,-249.5 178,-279.5 287,-279.5 287,-249.5 178,-249.5"/>
<text text-anchor="start" x="186" y="-267.5" font-family="Helvetica,sans-Serif" font-size="10.00">A_CO_Basalt_Plugin</text>
<text text-anchor="middle" x="232.5" y="-256.5" font-family="Helvetica,sans-Serif" font-size="10.00">\_condition_response</text>
</a>
</g>
</g>
<!-- Node1&#45;&gt;Node2 -->
<g id="edge1" class="edge">
<title>Node1&#45;&gt;Node2</title>
<path fill="none" stroke="midnightblue" d="M79.74,-164.64C97.76,-184.44 131.8,-219.11 167,-240.5 169.62,-242.09 172.37,-243.61 175.18,-245.04"/>
<polygon fill="midnightblue" stroke="midnightblue" points="173.82,-248.27 184.36,-249.36 176.8,-241.94 173.82,-248.27"/>
</g>
<!-- Node3 -->
<g id="node3" class="node">
<title>Node3</title>
<g id="a_node3"><a xlink:href="a00208.html#a90b9f5c8286479f877a1a81193eb3b4b" target="_top" xlink:title=" ">
<polygon fill="white" stroke="black" points="167,-200.5 167,-230.5 298,-230.5 298,-200.5 167,-200.5"/>
<text text-anchor="start" x="175" y="-218.5" font-family="Helvetica,sans-Serif" font-size="10.00">CO_places_Basalt_Plugin</text>
<text text-anchor="middle" x="232.5" y="-207.5" font-family="Helvetica,sans-Serif" font-size="10.00">\_lookup_address</text>
</a>
</g>
</g>
<!-- Node1&#45;&gt;Node3 -->
<g id="edge2" class="edge">
<title>Node1&#45;&gt;Node3</title>
<path fill="none" stroke="midnightblue" d="M104.35,-164.64C128.15,-174.16 159.03,-186.51 184.39,-196.66"/>
<polygon fill="midnightblue" stroke="midnightblue" points="183.24,-199.96 193.82,-200.43 185.84,-193.47 183.24,-199.96"/>
</g>
<!-- Node5 -->
<g id="node5" class="node">
<title>Node5</title>
<g id="a_node5"><a xlink:href="a00208.html#a2c37701d39e9e6c8c10f301dced3eb8e" target="_top" xlink:title=" ">
<polygon fill="white" stroke="black" points="334,-176.5 334,-206.5 465,-206.5 465,-176.5 334,-176.5"/>
<text text-anchor="start" x="342" y="-194.5" font-family="Helvetica,sans-Serif" font-size="10.00">CO_places_Basalt_Plugin</text>
<text text-anchor="middle" x="399.5" y="-183.5" font-family="Helvetica,sans-Serif" font-size="10.00">\_process_place_delete</text>
</a>
</g>
</g>
<!-- Node1&#45;&gt;Node5 -->
<g id="edge4" class="edge">
<title>Node1&#45;&gt;Node5</title>
<path fill="none" stroke="midnightblue" d="M131.3,-157.7C186.49,-164.68 265.8,-174.71 323.68,-182.03"/>
<polygon fill="midnightblue" stroke="midnightblue" points="323.5,-185.54 333.86,-183.32 324.38,-178.6 323.5,-185.54"/>
</g>
<!-- Node7 -->
<g id="node7" class="node">
<title>Node7</title>
<g id="a_node7"><a xlink:href="a00208.html#a8065697ba33d71f377ff364ce1c36d50" target="_top" xlink:title=" ">
<polygon fill="white" stroke="black" points="167,-112.5 167,-142.5 298,-142.5 298,-112.5 167,-112.5"/>
<text text-anchor="start" x="175" y="-130.5" font-family="Helvetica,sans-Serif" font-size="10.00">CO_places_Basalt_Plugin</text>
<text text-anchor="middle" x="232.5" y="-119.5" font-family="Helvetica,sans-Serif" font-size="10.00">\_process_place_get</text>
</a>
</g>
</g>
<!-- Node1&#45;&gt;Node7 -->
<g id="edge6" class="edge">
<title>Node1&#45;&gt;Node7</title>
<path fill="none" stroke="midnightblue" d="M131.24,-140.87C139.67,-139.74 148.37,-138.58 156.95,-137.44"/>
<polygon fill="midnightblue" stroke="midnightblue" points="157.5,-140.9 166.95,-136.11 156.57,-133.96 157.5,-140.9"/>
</g>
<!-- Node9 -->
<g id="node9" class="node">
<title>Node9</title>
<g id="a_node9"><a xlink:href="a00208.html#a3b060bbae1171b584997696bc5874a2f" target="_top" xlink:title=" ">
<polygon fill="white" stroke="black" points="167,-44.5 167,-74.5 298,-74.5 298,-44.5 167,-44.5"/>
<text text-anchor="start" x="175" y="-62.5" font-family="Helvetica,sans-Serif" font-size="10.00">CO_places_Basalt_Plugin</text>
<text text-anchor="middle" x="232.5" y="-51.5" font-family="Helvetica,sans-Serif" font-size="10.00">\_process_place_post</text>
</a>
</g>
</g>
<!-- Node1&#45;&gt;Node9 -->
<g id="edge9" class="edge">
<title>Node1&#45;&gt;Node9</title>
<path fill="none" stroke="midnightblue" d="M94.12,-134.44C121.72,-119.38 164.32,-96.14 194.77,-79.54"/>
<polygon fill="midnightblue" stroke="midnightblue" points="196.69,-82.47 203.79,-74.61 193.34,-76.33 196.69,-82.47"/>
</g>
<!-- Node10 -->
<g id="node10" class="node">
<title>Node10</title>
<g id="a_node10"><a xlink:href="a00208.html#a021e0e49bd0868754a212795cfe8ebfd" target="_top" xlink:title=" ">
<polygon fill="white" stroke="black" points="334,-0.5 334,-30.5 465,-30.5 465,-0.5 334,-0.5"/>
<text text-anchor="start" x="342" y="-18.5" font-family="Helvetica,sans-Serif" font-size="10.00">CO_places_Basalt_Plugin</text>
<text text-anchor="middle" x="399.5" y="-7.5" font-family="Helvetica,sans-Serif" font-size="10.00">\_process_place_put</text>
</a>
</g>
</g>
<!-- Node1&#45;&gt;Node10 -->
<g id="edge14" class="edge">
<title>Node1&#45;&gt;Node10</title>
<path fill="none" stroke="midnightblue" d="M74.59,-134.22C89.16,-108.45 122.49,-56.95 167,-34.5 215.22,-10.17 276.34,-6.1 323.67,-7.75"/>
<polygon fill="midnightblue" stroke="midnightblue" points="323.71,-11.25 333.86,-8.2 324.02,-4.26 323.71,-11.25"/>
</g>
<!-- Node4 -->
<g id="node4" class="node">
<title>Node4</title>
<g id="a_node4"><a xlink:href="a00300.html#a56d54ef8e9ee5bf99897dbc4e09e7839" target="_top" xlink:title="This is a function that returns the results of an HTTP call to a URI. It is a lot more secure than fi...">
<polygon fill="white" stroke="black" points="343.5,-225.5 343.5,-255.5 455.5,-255.5 455.5,-225.5 343.5,-225.5"/>
<text text-anchor="start" x="351.5" y="-243.5" font-family="Helvetica,sans-Serif" font-size="10.00">CO_Chameleon_Utils</text>
<text text-anchor="middle" x="399.5" y="-232.5" font-family="Helvetica,sans-Serif" font-size="10.00">\call_curl</text>
</a>
</g>
</g>
<!-- Node3&#45;&gt;Node4 -->
<g id="edge3" class="edge">
<title>Node3&#45;&gt;Node4</title>
<path fill="none" stroke="midnightblue" d="M298.24,-225.31C309.76,-227.05 321.77,-228.87 333.3,-230.62"/>
<polygon fill="midnightblue" stroke="midnightblue" points="332.88,-234.1 343.29,-232.14 333.93,-227.18 332.88,-234.1"/>
</g>
<!-- Node6 -->
<g id="node6" class="node">
<title>Node6</title>
<g id="a_node6"><a xlink:href="a00208.html#a3e64096264150499cf5d68bdc4e112e6" target="_top" xlink:title=" ">
<polygon fill="white" stroke="black" points="501,-90.5 501,-120.5 644,-120.5 644,-90.5 501,-90.5"/>
<text text-anchor="start" x="509" y="-108.5" font-family="Helvetica,sans-Serif" font-size="10.00">CO_places_Basalt_Plugin</text>
<text text-anchor="middle" x="572.5" y="-97.5" font-family="Helvetica,sans-Serif" font-size="10.00">\_get_long_place_description</text>
</a>
</g>
</g>
<!-- Node5&#45;&gt;Node6 -->
<g id="edge5" class="edge">
<title>Node5&#45;&gt;Node6</title>
<path fill="none" stroke="midnightblue" d="M433.79,-176.39C443.87,-171.72 454.93,-166.49 465,-161.5 488.38,-149.93 514.29,-136.32 534.7,-125.42"/>
<polygon fill="midnightblue" stroke="midnightblue" points="536.5,-128.42 543.66,-120.61 533.19,-122.25 536.5,-128.42"/>
</g>
<!-- Node7&#45;&gt;Node6 -->
<g id="edge7" class="edge">
<title>Node7&#45;&gt;Node6</title>
<path fill="none" stroke="midnightblue" d="M298.06,-131.59C344.6,-133.61 408.85,-134.49 465,-128.5 477.32,-127.19 490.3,-125.04 502.81,-122.57"/>
<polygon fill="midnightblue" stroke="midnightblue" points="503.62,-125.98 512.71,-120.53 502.21,-119.12 503.62,-125.98"/>
</g>
<!-- Node8 -->
<g id="node8" class="node">
<title>Node8</title>
<g id="a_node8"><a xlink:href="a00208.html#a38ec1c81b3b19a69beef0179cd7f6b46" target="_top" xlink:title=" ">
<polygon fill="white" stroke="black" points="334,-88.5 334,-118.5 465,-118.5 465,-88.5 334,-88.5"/>
<text text-anchor="start" x="342" y="-106.5" font-family="Helvetica,sans-Serif" font-size="10.00">CO_places_Basalt_Plugin</text>
<text text-anchor="middle" x="399.5" y="-95.5" font-family="Helvetica,sans-Serif" font-size="10.00">\_get_short_description</text>
</a>
</g>
</g>
<!-- Node7&#45;&gt;Node8 -->
<g id="edge8" class="edge">
<title>Node7&#45;&gt;Node8</title>
<path fill="none" stroke="midnightblue" d="M298.24,-118.08C306.67,-116.86 315.37,-115.59 323.95,-114.34"/>
<polygon fill="midnightblue" stroke="midnightblue" points="324.56,-117.79 333.95,-112.89 323.55,-110.87 324.56,-117.79"/>
</g>
<!-- Node9&#45;&gt;Node6 -->
<g id="edge10" class="edge">
<title>Node9&#45;&gt;Node6</title>
<path fill="none" stroke="midnightblue" d="M298.19,-62.43C344.8,-65.19 409.07,-70.31 465,-79.5 478.68,-81.75 493.19,-84.82 506.96,-88.07"/>
<polygon fill="midnightblue" stroke="midnightblue" points="506.29,-91.5 516.83,-90.45 507.93,-84.7 506.29,-91.5"/>
</g>
<!-- Node9&#45;&gt;Node10 -->
<g id="edge11" class="edge">
<title>Node9&#45;&gt;Node10</title>
<path fill="none" stroke="midnightblue" d="M289.82,-44.48C303.42,-40.85 318.08,-36.95 332.09,-33.21"/>
<polygon fill="midnightblue" stroke="midnightblue" points="333.39,-36.48 342.15,-30.53 331.59,-29.72 333.39,-36.48"/>
</g>
<!-- Node10&#45;&gt;Node6 -->
<g id="edge12" class="edge">
<title>Node10&#45;&gt;Node6</title>
<path fill="none" stroke="midnightblue" d="M434.22,-30.58C444.2,-35.21 455.11,-40.42 465,-45.5 489.51,-58.08 516.54,-73.32 537.24,-85.3"/>
<polygon fill="midnightblue" stroke="midnightblue" points="535.58,-88.38 545.98,-90.38 539.09,-82.33 535.58,-88.38"/>
</g>
<!-- Node11 -->
<g id="node11" class="node">
<title>Node11</title>
<g id="a_node11"><a xlink:href="a00208.html#a787a3b2f9625b7b54fadae02f07bcc5e" target="_top" xlink:title=" ">
<polygon fill="white" stroke="black" points="507,-0.5 507,-30.5 638,-30.5 638,-0.5 507,-0.5"/>
<text text-anchor="start" x="515" y="-18.5" font-family="Helvetica,sans-Serif" font-size="10.00">CO_places_Basalt_Plugin</text>
<text text-anchor="middle" x="572.5" y="-7.5" font-family="Helvetica,sans-Serif" font-size="10.00">\_process_parameters</text>
</a>
</g>
</g>
<!-- Node10&#45;&gt;Node11 -->
<g id="edge13" class="edge">
<title>Node10&#45;&gt;Node11</title>
<path fill="none" stroke="midnightblue" d="M465.15,-15.5C475.47,-15.5 486.22,-15.5 496.75,-15.5"/>
<polygon fill="midnightblue" stroke="midnightblue" points="496.76,-19 506.76,-15.5 496.76,-12 496.76,-19"/>
</g>
</g>
</svg>
