<?xml version="1.0" encoding="UTF-8" standalone="no"?>
<!DOCTYPE svg PUBLIC "-//W3C//DTD SVG 1.1//EN"
 "http://www.w3.org/Graphics/SVG/1.1/DTD/svg11.dtd">
<!-- Generated by graphviz version 2.40.1 (20161225.0304)
 -->
<!-- Title: CO_places_Basalt_Plugin\_process_place_put Pages: 1 -->
<svg width="322pt" height="84pt"
 viewBox="0.00 0.00 322.28 84.00" xmlns="http://www.w3.org/2000/svg" xmlns:xlink="http://www.w3.org/1999/xlink">
<g id="graph0" class="graph" transform="scale(1 1) rotate(0) translate(4 80)">
<title>CO_places_Basalt_Plugin\_process_place_put</title>
<polygon fill="#ffffff" stroke="transparent" points="-4,4 -4,-80 318.2793,-80 318.2793,4 -4,4"/>
<!-- Node1 -->
<g id="node1" class="node">
<title>Node1</title>
<g id="a_node1"><a xlink:title=" ">
<polygon fill="#bfbfbf" stroke="#000000" points="0,-23.5 0,-51.5 132.1816,-51.5 132.1816,-23.5 0,-23.5"/>
<text text-anchor="start" x="8" y="-39.5" font-family="Helvetica,sans-Serif" font-size="10.00" fill="#000000">CO_places_Basalt_Plugin</text>
<text text-anchor="middle" x="66.0908" y="-29.5" font-family="Helvetica,sans-Serif" font-size="10.00" fill="#000000">\_process_place_put</text>
</a>
</g>
</g>
<!-- Node2 -->
<g id="node2" class="node">
<title>Node2</title>
<g id="a_node2"><a xlink:href="a00211.html#a3e64096264150499cf5d68bdc4e112e6" target="_top" xlink:title=" ">
<polygon fill="#ffffff" stroke="#000000" points="168.1816,-47.5 168.1816,-75.5 314.2793,-75.5 314.2793,-47.5 168.1816,-47.5"/>
<text text-anchor="start" x="176.1816" y="-63.5" font-family="Helvetica,sans-Serif" font-size="10.00" fill="#000000">CO_places_Basalt_Plugin</text>
<text text-anchor="middle" x="241.2305" y="-53.5" font-family="Helvetica,sans-Serif" font-size="10.00" fill="#000000">\_get_long_place_description</text>
</a>
</g>
</g>
<!-- Node1&#45;&gt;Node2 -->
<g id="edge1" class="edge">
<title>Node1&#45;&gt;Node2</title>
<path fill="none" stroke="#191970" d="M132.3036,-46.5734C140.6585,-47.7183 149.2896,-48.901 157.8668,-50.0764"/>
<polygon fill="#191970" stroke="#191970" points="157.5084,-53.5599 167.8911,-51.45 158.4589,-46.6247 157.5084,-53.5599"/>
</g>
<!-- Node3 -->
<g id="node3" class="node">
<title>Node3</title>
<g id="a_node3"><a xlink:href="a00211.html#a787a3b2f9625b7b54fadae02f07bcc5e" target="_top" xlink:title=" ">
<polygon fill="#ffffff" stroke="#000000" points="175.1396,-.5 175.1396,-28.5 307.3213,-28.5 307.3213,-.5 175.1396,-.5"/>
<text text-anchor="start" x="183.1396" y="-16.5" font-family="Helvetica,sans-Serif" font-size="10.00" fill="#000000">CO_places_Basalt_Plugin</text>
<text text-anchor="middle" x="241.2305" y="-6.5" font-family="Helvetica,sans-Serif" font-size="10.00" fill="#000000">\_process_parameters</text>
</a>
</g>
</g>
<!-- Node1&#45;&gt;Node3 -->
<g id="edge2" class="edge">
<title>Node1&#45;&gt;Node3</title>
<path fill="none" stroke="#191970" d="M132.3036,-28.8047C142.9833,-27.4022 154.1144,-25.9404 165.0072,-24.5099"/>
<polygon fill="#191970" stroke="#191970" points="165.4649,-27.98 174.924,-23.2076 164.5534,-21.0395 165.4649,-27.98"/>
</g>
</g>
</svg>
