<?xml version="1.0" encoding="UTF-8" standalone="no"?>
<!DOCTYPE svg PUBLIC "-//W3C//DTD SVG 1.1//EN"
 "http://www.w3.org/Graphics/SVG/1.1/DTD/svg11.dtd">
<!-- Generated by graphviz version 2.40.1 (20161225.0304)
 -->
<!-- Title: CO_Andisol\current_user Pages: 1 -->
<svg width="889pt" height="84pt"
 viewBox="0.00 0.00 888.78 84.47" xmlns="http://www.w3.org/2000/svg" xmlns:xlink="http://www.w3.org/1999/xlink">
<g id="graph0" class="graph" transform="scale(1 1) rotate(0) translate(4 80.4651)">
<title>CO_Andisol\current_user</title>
<polygon fill="#ffffff" stroke="transparent" points="-4,4 -4,-80.4651 884.7754,-80.4651 884.7754,4 -4,4"/>
<!-- Node96 -->
<g id="node1" class="node">
<title>Node96</title>
<polygon fill="#bfbfbf" stroke="#000000" points="0,-12.9651 0,-30.9651 128.2754,-30.9651 128.2754,-12.9651 0,-12.9651"/>
<text text-anchor="middle" x="64.1377" y="-18.9651" font-family="Helvetica,sans-Serif" font-size="10.00" fill="#000000">CO_Andisol\current_user</text>
</g>
<!-- Node97 -->
<g id="node2" class="node">
<title>Node97</title>
<g id="a_node2"><a xlink:href="a00219.html#a61b9a275c4b8b824d9a2b3aadd421bf7" target="_top" xlink:title="CO_Andisol\\get_user\l_from_login">
<polygon fill="#ffffff" stroke="#000000" points="164.2754,-7.9651 164.2754,-35.9651 275.3291,-35.9651 275.3291,-7.9651 164.2754,-7.9651"/>
<text text-anchor="start" x="172.2754" y="-23.9651" font-family="Helvetica,sans-Serif" font-size="10.00" fill="#000000">CO_Andisol\get_user</text>
<text text-anchor="middle" x="219.8022" y="-13.9651" font-family="Helvetica,sans-Serif" font-size="10.00" fill="#000000">_from_login</text>
</a>
</g>
</g>
<!-- Node96&#45;&gt;Node97 -->
<g id="edge1" class="edge">
<title>Node96&#45;&gt;Node97</title>
<path fill="none" stroke="#191970" d="M128.3511,-21.9651C136.8059,-21.9651 145.4819,-21.9651 153.9633,-21.9651"/>
<polygon fill="#191970" stroke="#191970" points="154.1842,-25.4652 164.1841,-21.9651 154.1841,-18.4652 154.1842,-25.4652"/>
</g>
<!-- Node98 -->
<g id="node3" class="node">
<title>Node98</title>
<g id="a_node3"><a xlink:href="a00219.html#af5f39aa13714ad544a9099edb0d51cd5" target="_top" xlink:title="CO_Andisol\\manager">
<polygon fill="#ffffff" stroke="#000000" points="311.3291,-50.9651 311.3291,-68.9651 422.9346,-68.9651 422.9346,-50.9651 311.3291,-50.9651"/>
<text text-anchor="middle" x="367.1318" y="-56.9651" font-family="Helvetica,sans-Serif" font-size="10.00" fill="#000000">CO_Andisol\manager</text>
</a>
</g>
</g>
<!-- Node97&#45;&gt;Node98 -->
<g id="edge2" class="edge">
<title>Node97&#45;&gt;Node98</title>
<path fill="none" stroke="#191970" d="M274.2438,-36.0069C289.9615,-40.0609 306.9347,-44.4388 322.0184,-48.3292"/>
<polygon fill="#191970" stroke="#191970" points="321.5632,-51.8263 332.1205,-50.9348 323.3115,-45.0481 321.5632,-51.8263"/>
</g>
<!-- Node101 -->
<g id="node6" class="node">
<title>Node101</title>
<g id="a_node6"><a xlink:href="a00219.html#acda267f1d6a8e496e167ed46fe590dc6" target="_top" xlink:title="CO_Andisol\\get_chameleon\l_instance">
<polygon fill="#ffffff" stroke="#000000" points="740.2539,-14.9651 740.2539,-42.9651 880.7754,-42.9651 880.7754,-14.9651 740.2539,-14.9651"/>
<text text-anchor="start" x="748.2539" y="-30.9651" font-family="Helvetica,sans-Serif" font-size="10.00" fill="#000000">CO_Andisol\get_chameleon</text>
<text text-anchor="middle" x="810.5146" y="-20.9651" font-family="Helvetica,sans-Serif" font-size="10.00" fill="#000000">_instance</text>
</a>
</g>
</g>
<!-- Node97&#45;&gt;Node101 -->
<g id="edge9" class="edge">
<title>Node97&#45;&gt;Node101</title>
<path fill="none" stroke="#191970" d="M275.5678,-14.9187C345.6109,-6.9691 469.4803,4.1092 575.5498,-1.9651 627.0955,-4.917 684.6909,-11.4829 729.9577,-17.4004"/>
<polygon fill="#191970" stroke="#191970" points="729.6362,-20.8883 740.0089,-18.7301 730.5543,-13.9487 729.6362,-20.8883"/>
</g>
<!-- Node102 -->
<g id="node7" class="node">
<title>Node102</title>
<g id="a_node7"><a xlink:href="a00219.html#a3605f036c8c634afaa74f67e5853a0ad" target="_top" xlink:title="CO_Andisol\\get_cobra\l_instance">
<polygon fill="#ffffff" stroke="#000000" points="458.9346,-10.9651 458.9346,-38.9651 575.5498,-38.9651 575.5498,-10.9651 458.9346,-10.9651"/>
<text text-anchor="start" x="466.9346" y="-26.9651" font-family="Helvetica,sans-Serif" font-size="10.00" fill="#000000">CO_Andisol\get_cobra</text>
<text text-anchor="middle" x="517.2422" y="-16.9651" font-family="Helvetica,sans-Serif" font-size="10.00" fill="#000000">_instance</text>
</a>
</g>
</g>
<!-- Node97&#45;&gt;Node102 -->
<g id="edge8" class="edge">
<title>Node97&#45;&gt;Node102</title>
<path fill="none" stroke="#191970" d="M275.3995,-22.5259C324.4241,-23.0203 396.0391,-23.7426 448.6182,-24.273"/>
<polygon fill="#191970" stroke="#191970" points="448.833,-27.7752 458.8678,-24.3763 448.9037,-20.7756 448.833,-27.7752"/>
</g>
<!-- Node99 -->
<g id="node4" class="node">
<title>Node99</title>
<g id="a_node4"><a xlink:href="a00219.html#ac2a2dcb99dc927789b0ffa09c24946de" target="_top" xlink:title="CO_Andisol\\logged_in">
<polygon fill="#ffffff" stroke="#000000" points="459.4863,-57.9651 459.4863,-75.9651 574.998,-75.9651 574.998,-57.9651 459.4863,-57.9651"/>
<text text-anchor="middle" x="517.2422" y="-63.9651" font-family="Helvetica,sans-Serif" font-size="10.00" fill="#000000">CO_Andisol\logged_in</text>
</a>
</g>
</g>
<!-- Node98&#45;&gt;Node99 -->
<g id="edge3" class="edge">
<title>Node98&#45;&gt;Node99</title>
<path fill="none" stroke="#191970" d="M423.0274,-62.5716C431.535,-62.9684 440.3945,-63.3815 449.1276,-63.7888"/>
<polygon fill="#191970" stroke="#191970" points="449.1406,-67.2931 459.2929,-64.2628 449.4668,-60.3007 449.1406,-67.2931"/>
</g>
<!-- Node98&#45;&gt;Node102 -->
<g id="edge7" class="edge">
<title>Node98&#45;&gt;Node102</title>
<path fill="none" stroke="#191970" d="M405.789,-50.9517C418.917,-47.8908 434.0052,-44.3728 448.7528,-40.9342"/>
<polygon fill="#191970" stroke="#191970" points="449.9359,-44.2523 458.8799,-38.573 448.3464,-37.4352 449.9359,-44.2523"/>
</g>
<!-- Node100 -->
<g id="node5" class="node">
<title>Node100</title>
<g id="a_node5"><a xlink:href="a00219.html#a4b0ec12b29ce4812cbb4169b68770f66" target="_top" xlink:title="CO_Andisol\\valid">
<polygon fill="#ffffff" stroke="#000000" points="611.5498,-57.9651 611.5498,-75.9651 704.2539,-75.9651 704.2539,-57.9651 611.5498,-57.9651"/>
<text text-anchor="middle" x="657.9019" y="-63.9651" font-family="Helvetica,sans-Serif" font-size="10.00" fill="#000000">CO_Andisol\valid</text>
</a>
</g>
</g>
<!-- Node99&#45;&gt;Node100 -->
<g id="edge4" class="edge">
<title>Node99&#45;&gt;Node100</title>
<path fill="none" stroke="#191970" d="M575.2659,-66.9651C583.7665,-66.9651 592.5147,-66.9651 600.9926,-66.9651"/>
<polygon fill="#191970" stroke="#191970" points="601.165,-70.4652 611.165,-66.9651 601.165,-63.4652 601.165,-70.4652"/>
</g>
<!-- Node99&#45;&gt;Node101 -->
<g id="edge6" class="edge">
<title>Node99&#45;&gt;Node101</title>
<path fill="none" stroke="#191970" d="M560.3,-57.9165C576.3358,-54.7659 594.725,-51.4115 611.5498,-48.9651 650.3324,-43.326 693.6001,-38.7712 729.8561,-35.441"/>
<polygon fill="#191970" stroke="#191970" points="730.2424,-38.9204 739.8866,-34.5343 729.6121,-31.9488 730.2424,-38.9204"/>
</g>
<!-- Node100&#45;&gt;Node101 -->
<g id="edge5" class="edge">
<title>Node100&#45;&gt;Node101</title>
<path fill="none" stroke="#191970" d="M694.069,-57.9596C709.0266,-54.2352 726.8607,-49.7946 744.0216,-45.5216"/>
<polygon fill="#191970" stroke="#191970" points="745.163,-48.8444 754.021,-43.0318 743.4716,-42.0518 745.163,-48.8444"/>
</g>
</g>
</svg>
