<?xml version="1.0" encoding="UTF-8" standalone="no"?>
<!DOCTYPE svg PUBLIC "-//W3C//DTD SVG 1.1//EN"
 "http://www.w3.org/Graphics/SVG/1.1/DTD/svg11.dtd">
<!-- Generated by graphviz version 2.40.1 (20161225.0304)
 -->
<!-- Title: CO_Basalt\_process_token_command Pages: 1 -->
<svg width="746pt" height="37pt"
 viewBox="0.00 0.00 746.14 37.00" xmlns="http://www.w3.org/2000/svg" xmlns:xlink="http://www.w3.org/1999/xlink">
<g id="graph0" class="graph" transform="scale(1 1) rotate(0) translate(4 33)">
<title>CO_Basalt\_process_token_command</title>
<polygon fill="#ffffff" stroke="transparent" points="-4,4 -4,-33 742.1406,-33 742.1406,4 -4,4"/>
<!-- Node76 -->
<g id="node1" class="node">
<title>Node76</title>
<polygon fill="#bfbfbf" stroke="#000000" points="0,-.5 0,-28.5 107.709,-28.5 107.709,-.5 0,-.5"/>
<text text-anchor="start" x="8" y="-16.5" font-family="Helvetica,sans-Serif" font-size="10.00" fill="#000000">CO_Basalt\_process</text>
<text text-anchor="middle" x="53.8545" y="-6.5" font-family="Helvetica,sans-Serif" font-size="10.00" fill="#000000">_token_command</text>
</g>
<!-- Node77 -->
<g id="node2" class="node">
<title>Node77</title>
<g id="a_node2"><a xlink:href="a00203.html#a60ce04d2fc76ab876a428500dccb7dd8" target="_top" xlink:title="CO_Basalt\\_process\l_baseline_command">
<polygon fill="#ffffff" stroke="#000000" points="143.709,-.5 143.709,-28.5 251.9893,-28.5 251.9893,-.5 143.709,-.5"/>
<text text-anchor="start" x="151.709" y="-16.5" font-family="Helvetica,sans-Serif" font-size="10.00" fill="#000000">CO_Basalt\_process</text>
<text text-anchor="middle" x="197.8491" y="-6.5" font-family="Helvetica,sans-Serif" font-size="10.00" fill="#000000">_baseline_command</text>
</a>
</g>
</g>
<!-- Node76&#45;&gt;Node77 -->
<g id="edge1" class="edge">
<title>Node76&#45;&gt;Node77</title>
<path fill="none" stroke="#191970" d="M118.1223,-14.5C126.6022,-14.5 135.2269,-14.5 143.5183,-14.5"/>
<polygon fill="#191970" stroke="#191970" points="117.8825,-11.0001 107.8825,-14.5 117.8824,-18.0001 117.8825,-11.0001"/>
</g>
<!-- Node78 -->
<g id="node3" class="node">
<title>Node78</title>
<g id="a_node3"><a xlink:href="a00203.html#a474660b01c925a4d47e918c02944ebf7" target="_top" xlink:title="CO_Basalt\\process_command">
<polygon fill="#ffffff" stroke="#000000" points="287.9893,-5.5 287.9893,-23.5 439.6045,-23.5 439.6045,-5.5 287.9893,-5.5"/>
<text text-anchor="middle" x="363.7969" y="-11.5" font-family="Helvetica,sans-Serif" font-size="10.00" fill="#000000">CO_Basalt\process_command</text>
</a>
</g>
</g>
<!-- Node77&#45;&gt;Node78 -->
<g id="edge2" class="edge">
<title>Node77&#45;&gt;Node78</title>
<path fill="none" stroke="#191970" d="M262.2878,-14.5C270.6981,-14.5 279.3763,-14.5 287.9521,-14.5"/>
<polygon fill="#191970" stroke="#191970" points="262.1867,-11.0001 252.1866,-14.5 262.1866,-18.0001 262.1867,-11.0001"/>
</g>
<!-- Node79 -->
<g id="node4" class="node">
<title>Node79</title>
<g id="a_node4"><a xlink:href="a00203.html#a528297edc9fb3e5e3c8f2e9270621853" target="_top" xlink:title="CO_Basalt\\_process\l_command">
<polygon fill="#ffffff" stroke="#000000" points="475.6045,-.5 475.6045,-28.5 583.3135,-28.5 583.3135,-.5 475.6045,-.5"/>
<text text-anchor="start" x="483.6045" y="-16.5" font-family="Helvetica,sans-Serif" font-size="10.00" fill="#000000">CO_Basalt\_process</text>
<text text-anchor="middle" x="529.459" y="-6.5" font-family="Helvetica,sans-Serif" font-size="10.00" fill="#000000">_command</text>
</a>
</g>
</g>
<!-- Node78&#45;&gt;Node79 -->
<g id="edge3" class="edge">
<title>Node78&#45;&gt;Node79</title>
<path fill="none" stroke="#191970" d="M449.9101,-14.5C458.4887,-14.5 467.0204,-14.5 475.1362,-14.5"/>
<polygon fill="#191970" stroke="#191970" points="449.84,-11.0001 439.84,-14.5 449.8399,-18.0001 449.84,-11.0001"/>
</g>
<!-- Node80 -->
<g id="node5" class="node">
<title>Node80</title>
<g id="a_node5"><a xlink:href="a00203.html#aad1b60cb5230efedfc34a931546d415b" target="_top" xlink:title="CO_Basalt\\__construct">
<polygon fill="#ffffff" stroke="#000000" points="619.3135,-5.5 619.3135,-23.5 738.1406,-23.5 738.1406,-5.5 619.3135,-5.5"/>
<text text-anchor="middle" x="678.7271" y="-11.5" font-family="Helvetica,sans-Serif" font-size="10.00" fill="#000000">CO_Basalt\__construct</text>
</a>
</g>
</g>
<!-- Node79&#45;&gt;Node80 -->
<g id="edge4" class="edge">
<title>Node79&#45;&gt;Node80</title>
<path fill="none" stroke="#191970" d="M593.5662,-14.5C602.0431,-14.5 610.7049,-14.5 619.1023,-14.5"/>
<polygon fill="#191970" stroke="#191970" points="593.3482,-11.0001 583.3482,-14.5 593.3481,-18.0001 593.3482,-11.0001"/>
</g>
</g>
</svg>
