<?xml version="1.0" encoding="UTF-8" standalone="no"?>
<!DOCTYPE svg PUBLIC "-//W3C//DTD SVG 1.1//EN"
 "http://www.w3.org/Graphics/SVG/1.1/DTD/svg11.dtd">
<!-- Generated by graphviz version 2.40.1 (20161225.0304)
 -->
<!-- Title: CO_Basalt\_process_command Pages: 1 -->
<svg width="755pt" height="215pt"
 viewBox="0.00 0.00 754.50 215.00" xmlns="http://www.w3.org/2000/svg" xmlns:xlink="http://www.w3.org/1999/xlink">
<g id="graph0" class="graph" transform="scale(1 1) rotate(0) translate(4 211)">
<title>CO_Basalt\_process_command</title>
<polygon fill="#ffffff" stroke="transparent" points="-4,4 -4,-211 750.5,-211 750.5,4 -4,4"/>
<!-- Node57 -->
<g id="node1" class="node">
<title>Node57</title>
<polygon fill="#bfbfbf" stroke="#000000" points="0,-60.5 0,-88.5 107.709,-88.5 107.709,-60.5 0,-60.5"/>
<text text-anchor="start" x="8" y="-76.5" font-family="Helvetica,sans-Serif" font-size="10.00" fill="#000000">CO_Basalt\_process</text>
<text text-anchor="middle" x="53.8545" y="-66.5" font-family="Helvetica,sans-Serif" font-size="10.00" fill="#000000">_command</text>
</g>
<!-- Node58 -->
<g id="node2" class="node">
<title>Node58</title>
<g id="a_node2"><a xlink:href="a00203.html#a474660b01c925a4d47e918c02944ebf7" target="_top" xlink:title="CO_Basalt\\process_command">
<polygon fill="#ffffff" stroke="#000000" points="143.709,-65.5 143.709,-83.5 295.3242,-83.5 295.3242,-65.5 143.709,-65.5"/>
<text text-anchor="middle" x="219.5166" y="-71.5" font-family="Helvetica,sans-Serif" font-size="10.00" fill="#000000">CO_Basalt\process_command</text>
</a>
</g>
</g>
<!-- Node57&#45;&gt;Node58 -->
<g id="edge1" class="edge">
<title>Node57&#45;&gt;Node58</title>
<path fill="none" stroke="#191970" d="M108.0985,-74.5C116.2373,-74.5 124.7959,-74.5 133.4017,-74.5"/>
<polygon fill="#191970" stroke="#191970" points="133.5038,-78.0001 143.5038,-74.5 133.5037,-71.0001 133.5038,-78.0001"/>
</g>
<!-- Node59 -->
<g id="node3" class="node">
<title>Node59</title>
<g id="a_node3"><a xlink:href="a00203.html#a60ce04d2fc76ab876a428500dccb7dd8" target="_top" xlink:title="CO_Basalt\\_process\l_baseline_command">
<polygon fill="#ffffff" stroke="#000000" points="332.7183,-84.5 332.7183,-112.5 440.9985,-112.5 440.9985,-84.5 332.7183,-84.5"/>
<text text-anchor="start" x="340.7183" y="-100.5" font-family="Helvetica,sans-Serif" font-size="10.00" fill="#000000">CO_Basalt\_process</text>
<text text-anchor="middle" x="386.8584" y="-90.5" font-family="Helvetica,sans-Serif" font-size="10.00" fill="#000000">_baseline_command</text>
</a>
</g>
</g>
<!-- Node58&#45;&gt;Node59 -->
<g id="edge2" class="edge">
<title>Node58&#45;&gt;Node59</title>
<path fill="none" stroke="#191970" d="M282.3046,-83.505C295.4595,-85.3917 309.3501,-87.3838 322.5591,-89.2783"/>
<polygon fill="#191970" stroke="#191970" points="322.1082,-92.7493 332.5038,-90.7045 323.102,-85.8202 322.1082,-92.7493"/>
</g>
<!-- Node66 -->
<g id="node10" class="node">
<title>Node66</title>
<g id="a_node10"><a xlink:href="a00199.html#a4195fd75943d9dd1ca6dce290aa64dcc" target="_top" xlink:title="A_CO_Basalt_Plugin\l\\_condition_response">
<polygon fill="#ffffff" stroke="#000000" points="331.3242,-37.5 331.3242,-65.5 442.3926,-65.5 442.3926,-37.5 331.3242,-37.5"/>
<text text-anchor="start" x="339.3242" y="-53.5" font-family="Helvetica,sans-Serif" font-size="10.00" fill="#000000">A_CO_Basalt_Plugin</text>
<text text-anchor="middle" x="386.8584" y="-43.5" font-family="Helvetica,sans-Serif" font-size="10.00" fill="#000000">\_condition_response</text>
</a>
</g>
</g>
<!-- Node58&#45;&gt;Node66 -->
<g id="edge9" class="edge">
<title>Node58&#45;&gt;Node66</title>
<path fill="none" stroke="#191970" d="M285.1742,-65.4758C296.9304,-63.86 309.1847,-62.1757 320.948,-60.5589"/>
<polygon fill="#191970" stroke="#191970" points="321.7039,-63.988 331.1342,-59.1589 320.7507,-57.0532 321.7039,-63.988"/>
</g>
<!-- Node60 -->
<g id="node4" class="node">
<title>Node60</title>
<g id="a_node4"><a xlink:href="a00203.html#a94f153fbc911e113c202f91acc1b270e" target="_top" xlink:title="CO_Basalt\\_baseline\l_bulk_loader">
<polygon fill="#ffffff" stroke="#000000" points="485.6191,-178.5 485.6191,-206.5 595.5645,-206.5 595.5645,-178.5 485.6191,-178.5"/>
<text text-anchor="start" x="493.6191" y="-194.5" font-family="Helvetica,sans-Serif" font-size="10.00" fill="#000000">CO_Basalt\_baseline</text>
<text text-anchor="middle" x="540.5918" y="-184.5" font-family="Helvetica,sans-Serif" font-size="10.00" fill="#000000">_bulk_loader</text>
</a>
</g>
</g>
<!-- Node59&#45;&gt;Node60 -->
<g id="edge3" class="edge">
<title>Node59&#45;&gt;Node60</title>
<path fill="none" stroke="#191970" d="M402.0217,-112.6457C419.3835,-128.2495 449.2064,-153.2909 478.3926,-169.5 481.4546,-171.2005 484.6672,-172.8217 487.9514,-174.3583"/>
<polygon fill="#191970" stroke="#191970" points="486.7663,-177.6601 497.3308,-178.4609 489.5715,-171.2468 486.7663,-177.6601"/>
</g>
<!-- Node62 -->
<g id="node6" class="node">
<title>Node62</title>
<g id="a_node6"><a xlink:href="a00203.html#ad72622e9b3a834e50a1a8f4ab488b08a" target="_top" xlink:title="CO_Basalt\\_baseline\l_fetch_backup">
<polygon fill="#ffffff" stroke="#000000" points="485.6191,-131.5 485.6191,-159.5 595.5645,-159.5 595.5645,-131.5 485.6191,-131.5"/>
<text text-anchor="start" x="493.6191" y="-147.5" font-family="Helvetica,sans-Serif" font-size="10.00" fill="#000000">CO_Basalt\_baseline</text>
<text text-anchor="middle" x="540.5918" y="-137.5" font-family="Helvetica,sans-Serif" font-size="10.00" fill="#000000">_fetch_backup</text>
</a>
</g>
</g>
<!-- Node59&#45;&gt;Node62 -->
<g id="edge5" class="edge">
<title>Node59&#45;&gt;Node62</title>
<path fill="none" stroke="#191970" d="M432.9835,-112.6015C449.3228,-117.5969 467.8808,-123.2705 484.9292,-128.4826"/>
<polygon fill="#191970" stroke="#191970" points="484.178,-131.9128 494.7643,-131.4894 486.2246,-125.2186 484.178,-131.9128"/>
</g>
<!-- Node63 -->
<g id="node7" class="node">
<title>Node63</title>
<g id="a_node7"><a xlink:href="a00203.html#acd909d93bf248e9b07ff9cfdd28df9b9" target="_top" xlink:title="CO_Basalt\\_process\l_serverinfo_command">
<polygon fill="#ffffff" stroke="#000000" points="483.124,-84.5 483.124,-112.5 598.0596,-112.5 598.0596,-84.5 483.124,-84.5"/>
<text text-anchor="start" x="491.124" y="-100.5" font-family="Helvetica,sans-Serif" font-size="10.00" fill="#000000">CO_Basalt\_process</text>
<text text-anchor="middle" x="540.5918" y="-90.5" font-family="Helvetica,sans-Serif" font-size="10.00" fill="#000000">_serverinfo_command</text>
</a>
</g>
</g>
<!-- Node59&#45;&gt;Node63 -->
<g id="edge6" class="edge">
<title>Node59&#45;&gt;Node63</title>
<path fill="none" stroke="#191970" d="M441.059,-98.5C451.3442,-98.5 462.2239,-98.5 472.8665,-98.5"/>
<polygon fill="#191970" stroke="#191970" points="472.9705,-102.0001 482.9705,-98.5 472.9704,-95.0001 472.9705,-102.0001"/>
</g>
<!-- Node64 -->
<g id="node8" class="node">
<title>Node64</title>
<g id="a_node8"><a xlink:href="a00203.html#af1b2c5aad7e4010614b891a8e47e469b" target="_top" xlink:title="CO_Basalt\\_process\l_token_command">
<polygon fill="#ffffff" stroke="#000000" points="486.7373,-37.5 486.7373,-65.5 594.4463,-65.5 594.4463,-37.5 486.7373,-37.5"/>
<text text-anchor="start" x="494.7373" y="-53.5" font-family="Helvetica,sans-Serif" font-size="10.00" fill="#000000">CO_Basalt\_process</text>
<text text-anchor="middle" x="540.5918" y="-43.5" font-family="Helvetica,sans-Serif" font-size="10.00" fill="#000000">_token_command</text>
</a>
</g>
</g>
<!-- Node59&#45;&gt;Node64 -->
<g id="edge7" class="edge">
<title>Node59&#45;&gt;Node64</title>
<path fill="none" stroke="#191970" d="M432.9835,-84.3985C449.3228,-79.4031 467.8808,-73.7295 484.9292,-68.5174"/>
<polygon fill="#191970" stroke="#191970" points="486.2246,-71.7814 494.7643,-65.5106 484.178,-65.0872 486.2246,-71.7814"/>
</g>
<!-- Node65 -->
<g id="node9" class="node">
<title>Node65</title>
<g id="a_node9"><a xlink:href="a00203.html#a9917ca310760b3d05cdb027b030f86b4" target="_top" xlink:title="CO_Basalt\\plugin_name">
<polygon fill="#ffffff" stroke="#000000" points="478.3926,-.5 478.3926,-18.5 602.791,-18.5 602.791,-.5 478.3926,-.5"/>
<text text-anchor="middle" x="540.5918" y="-6.5" font-family="Helvetica,sans-Serif" font-size="10.00" fill="#000000">CO_Basalt\plugin_name</text>
</a>
</g>
</g>
<!-- Node59&#45;&gt;Node65 -->
<g id="edge8" class="edge">
<title>Node59&#45;&gt;Node65</title>
<path fill="none" stroke="#191970" d="M427.9625,-84.4041C433.0555,-81.8284 438.0061,-78.8687 442.3926,-75.5 463.2611,-59.4735 456.7777,-43.5048 478.3926,-28.5 481.6389,-26.2464 485.1602,-24.2539 488.8206,-22.4932"/>
<polygon fill="#191970" stroke="#191970" points="490.2682,-25.6814 498.1285,-18.5774 487.5537,-19.2291 490.2682,-25.6814"/>
</g>
<!-- Node61 -->
<g id="node5" class="node">
<title>Node61</title>
<g id="a_node5"><a xlink:href="a00203.html#a0c8258440777d1e27e88f57f55a9e2a4" target="_top" xlink:title="CO_Basalt\\_process\l_bulk_row">
<polygon fill="#ffffff" stroke="#000000" points="638.791,-178.5 638.791,-206.5 746.5,-206.5 746.5,-178.5 638.791,-178.5"/>
<text text-anchor="start" x="646.791" y="-194.5" font-family="Helvetica,sans-Serif" font-size="10.00" fill="#000000">CO_Basalt\_process</text>
<text text-anchor="middle" x="692.6455" y="-184.5" font-family="Helvetica,sans-Serif" font-size="10.00" fill="#000000">_bulk_row</text>
</a>
</g>
</g>
<!-- Node60&#45;&gt;Node61 -->
<g id="edge4" class="edge">
<title>Node60&#45;&gt;Node61</title>
<path fill="none" stroke="#191970" d="M595.9168,-192.5C606.47,-192.5 617.5993,-192.5 628.4031,-192.5"/>
<polygon fill="#191970" stroke="#191970" points="628.6324,-196.0001 638.6324,-192.5 628.6323,-189.0001 628.6324,-196.0001"/>
</g>
</g>
</svg>
