<?xml version="1.0" encoding="UTF-8" standalone="no"?>
<!DOCTYPE svg PUBLIC "-//W3C//DTD SVG 1.1//EN"
 "http://www.w3.org/Graphics/SVG/1.1/DTD/svg11.dtd">
<!-- Generated by graphviz version 2.40.1 (20161225.0304)
 -->
<!-- Title: CO_Andisol\get_all_login_objects_with_access Pages: 1 -->
<svg width="288pt" height="47pt"
 viewBox="0.00 0.00 287.80 47.00" xmlns="http://www.w3.org/2000/svg" xmlns:xlink="http://www.w3.org/1999/xlink">
<g id="graph0" class="graph" transform="scale(1 1) rotate(0) translate(4 43)">
<title>CO_Andisol\get_all_login_objects_with_access</title>
<polygon fill="#ffffff" stroke="transparent" points="-4,4 -4,-43 283.8018,-43 283.8018,4 -4,4"/>
<!-- Node1 -->
<g id="node1" class="node">
<title>Node1</title>
<g id="a_node1"><a xlink:title=" ">
<polygon fill="#bfbfbf" stroke="#000000" points="0,-.5 0,-38.5 103.2803,-38.5 103.2803,-.5 0,-.5"/>
<text text-anchor="start" x="8" y="-26.5" font-family="Helvetica,sans-Serif" font-size="10.00" fill="#000000">CO_Andisol\get_all</text>
<text text-anchor="start" x="8" y="-16.5" font-family="Helvetica,sans-Serif" font-size="10.00" fill="#000000">_login_objects_with</text>
<text text-anchor="middle" x="51.6401" y="-6.5" font-family="Helvetica,sans-Serif" font-size="10.00" fill="#000000">_access</text>
</a>
</g>
</g>
<!-- Node2 -->
<g id="node2" class="node">
<title>Node2</title>
<g id="a_node2"><a xlink:href="a00216.html#acda267f1d6a8e496e167ed46fe590dc6" target="_top" xlink:title=" ">
<polygon fill="#ffffff" stroke="#000000" points="139.2803,-5.5 139.2803,-33.5 279.8018,-33.5 279.8018,-5.5 139.2803,-5.5"/>
<text text-anchor="start" x="147.2803" y="-21.5" font-family="Helvetica,sans-Serif" font-size="10.00" fill="#000000">CO_Andisol\get_chameleon</text>
<text text-anchor="middle" x="209.541" y="-11.5" font-family="Helvetica,sans-Serif" font-size="10.00" fill="#000000">_instance</text>
</a>
</g>
</g>
<!-- Node1&#45;&gt;Node2 -->
<g id="edge1" class="edge">
<title>Node1&#45;&gt;Node2</title>
<path fill="none" stroke="#191970" d="M103.3428,-19.5C111.5529,-19.5 120.211,-19.5 128.8965,-19.5"/>
<polygon fill="#191970" stroke="#191970" points="129.0799,-23.0001 139.0799,-19.5 129.0798,-16.0001 129.0799,-23.0001"/>
</g>
</g>
</svg>
