<?xml version="1.0" encoding="UTF-8" standalone="no"?>
<!DOCTYPE svg PUBLIC "-//W3C//DTD SVG 1.1//EN"
 "http://www.w3.org/Graphics/SVG/1.1/DTD/svg11.dtd">
<!-- Generated by graphviz version 2.47.1 (20210417.1919)
 -->
<!-- Title: tCO_Collection Pages: 1 -->
<!--zoomable 584 -->
<svg id="main" version="1.1" xmlns="http://www.w3.org/2000/svg" xmlns:xlink="http://www.w3.org/1999/xlink" xml:space="preserve" onload="init(evt)">
<style type="text/css"><![CDATA[
.edge:hover path { stroke: red; }
.edge:hover polygon { stroke: red; fill: red; }
]]></style>
<script type="text/javascript"><![CDATA[
var edges = document.getElementsByTagName('g');
if (edges && edges.length) {
  for (var i=0;i<edges.length;i++) {
    if (edges[i].id.substr(0,4)=='edge') {
      edges[i].setAttribute('class','edge');
    }
  }
}
]]></script>
        <defs>
                <circle id="rim" cx="0" cy="0" r="7"/>
                <circle id="rim2" cx="0" cy="0" r="3.5"/>
                <g id="zoomPlus">
                        <use xlink:href="#rim" fill="#404040">
                                <set attributeName="fill" to="#808080" begin="zoomplus.mouseover" end="zoomplus.mouseout"/>
                        </use>
                        <path d="M-4,0h8M0,-4v8" fill="none" stroke="white" stroke-width="1.5" pointer-events="none"/>
                </g>
                <g id="zoomMin">
                        <use xlink:href="#rim" fill="#404040">
                                <set attributeName="fill" to="#808080" begin="zoomminus.mouseover" end="zoomminus.mouseout"/>
                        </use>
                        <path d="M-4,0h8" fill="none" stroke="white" stroke-width="1.5" pointer-events="none"/>
                </g>
                <g id="dirArrow">
                        <path fill="none" stroke="white" stroke-width="1.5" d="M0,-3.0v7 M-2.5,-0.5L0,-3.0L2.5,-0.5"/>
                </g>
               <g id="resetDef">
                       <use xlink:href="#rim2" fill="#404040">
                               <set attributeName="fill" to="#808080" begin="reset.mouseover" end="reset.mouseout"/>
                       </use>
               </g>
        </defs>

<script type="text/javascript">
var viewWidth = 550;
var viewHeight = 584;
var sectionId = 'dynsection-0';
</script>
<script xlink:href="svgpan.js"/>
<svg id="graph" class="graph">
<g id="viewport">
<title>tCO_Collection</title>
<polygon fill="white" stroke="transparent" points="-4,4 -4,-580 546,-580 546,4 -4,4"/>
<!-- Node1 -->
<g id="node1" class="node">
<title>Node1</title>
<g id="a_node1"><a xlink:title=" ">
<polygon fill="#bfbfbf" stroke="black" points="204.5,-386.5 204.5,-575.5 324.5,-575.5 324.5,-386.5 204.5,-386.5"/>
<text text-anchor="middle" x="264.5" y="-563.5" font-family="Helvetica,sans-Serif" font-size="10.00">tCO_Collection</text>
<polyline fill="none" stroke="black" points="204.5,-556.5 324.5,-556.5 "/>
<text text-anchor="start" x="212.5" y="-544.5" font-family="Helvetica,sans-Serif" font-size="10.00"># $_container</text>
<polyline fill="none" stroke="black" points="204.5,-537.5 324.5,-537.5 "/>
<text text-anchor="start" x="212.5" y="-525.5" font-family="Helvetica,sans-Serif" font-size="10.00">+ reload_collection()</text>
<text text-anchor="start" x="212.5" y="-514.5" font-family="Helvetica,sans-Serif" font-size="10.00">+ insertElement()</text>
<text text-anchor="start" x="212.5" y="-503.5" font-family="Helvetica,sans-Serif" font-size="10.00">+ insertElements()</text>
<text text-anchor="start" x="212.5" y="-492.5" font-family="Helvetica,sans-Serif" font-size="10.00">+ deleteElements()</text>
<text text-anchor="start" x="212.5" y="-481.5" font-family="Helvetica,sans-Serif" font-size="10.00">+ deleteElement()</text>
<text text-anchor="start" x="212.5" y="-470.5" font-family="Helvetica,sans-Serif" font-size="10.00">+ deleteThisElement()</text>
<text text-anchor="start" x="212.5" y="-459.5" font-family="Helvetica,sans-Serif" font-size="10.00">+ appendElement()</text>
<text text-anchor="start" x="212.5" y="-448.5" font-family="Helvetica,sans-Serif" font-size="10.00">+ appendElements()</text>
<text text-anchor="start" x="212.5" y="-437.5" font-family="Helvetica,sans-Serif" font-size="10.00">+ deleteAllChildren()</text>
<text text-anchor="start" x="212.5" y="-426.5" font-family="Helvetica,sans-Serif" font-size="10.00">+ indexOfThisElement()</text>
<text text-anchor="start" x="212.5" y="-415.5" font-family="Helvetica,sans-Serif" font-size="10.00">and 10 more...</text>
<text text-anchor="start" x="212.5" y="-404.5" font-family="Helvetica,sans-Serif" font-size="10.00"># _scrub()</text>
<text text-anchor="start" x="212.5" y="-393.5" font-family="Helvetica,sans-Serif" font-size="10.00"># _set_up_container()</text>
</a>
</g>
</g>
<!-- Node2 -->
<g id="node2" class="node">
<title>Node2</title>
<g id="a_node2"><a xlink:href="a00248.html" target="_top" xlink:title=" ">
<polygon fill="white" stroke="black" points="24.5,-221 24.5,-300 122.5,-300 122.5,-221 24.5,-221"/>
<text text-anchor="middle" x="73.5" y="-288" font-family="Helvetica,sans-Serif" font-size="10.00">CO_Collection</text>
<polyline fill="none" stroke="black" points="24.5,-281 122.5,-281 "/>
<text text-anchor="middle" x="73.5" y="-269" font-family="Helvetica,sans-Serif" font-size="10.00"> </text>
<polyline fill="none" stroke="black" points="24.5,-262 122.5,-262 "/>
<text text-anchor="start" x="32.5" y="-250" font-family="Helvetica,sans-Serif" font-size="10.00">+ __construct()</text>
<text text-anchor="start" x="32.5" y="-239" font-family="Helvetica,sans-Serif" font-size="10.00">+ load_from_db()</text>
<text text-anchor="start" x="32.5" y="-228" font-family="Helvetica,sans-Serif" font-size="10.00">+ delete_from_db()</text>
</a>
</g>
</g>
<!-- Node1&#45;&gt;Node2 -->
<g id="edge1" class="edge">
<title>Node1&#45;&gt;Node2</title>
<path fill="none" stroke="midnightblue" d="M197.06,-419.56C175.11,-398.5 151.31,-374.08 131.5,-350 118.78,-334.54 106.37,-316.2 96.33,-300.23"/>
<polygon fill="none" stroke="midnightblue" points="194.77,-422.22 204.42,-426.58 199.59,-417.15 194.77,-422.22"/>
</g>
<!-- Node4 -->
<g id="node4" class="node">
<title>Node4</title>
<g id="a_node4"><a xlink:href="a00264.html" target="_top" xlink:title=" ">
<polygon fill="white" stroke="black" points="140.5,-221 140.5,-300 250.5,-300 250.5,-221 140.5,-221"/>
<text text-anchor="middle" x="195.5" y="-288" font-family="Helvetica,sans-Serif" font-size="10.00">CO_Place_Collection</text>
<polyline fill="none" stroke="black" points="140.5,-281 250.5,-281 "/>
<text text-anchor="middle" x="195.5" y="-269" font-family="Helvetica,sans-Serif" font-size="10.00"> </text>
<polyline fill="none" stroke="black" points="140.5,-262 250.5,-262 "/>
<text text-anchor="start" x="148.5" y="-250" font-family="Helvetica,sans-Serif" font-size="10.00">+ __construct()</text>
<text text-anchor="start" x="148.5" y="-239" font-family="Helvetica,sans-Serif" font-size="10.00">+ load_from_db()</text>
<text text-anchor="start" x="148.5" y="-228" font-family="Helvetica,sans-Serif" font-size="10.00">+ delete_from_db()</text>
</a>
</g>
</g>
<!-- Node1&#45;&gt;Node4 -->
<g id="edge3" class="edge">
<title>Node1&#45;&gt;Node4</title>
<path fill="none" stroke="midnightblue" d="M231.89,-376.74C223.25,-349.38 214.45,-321.52 207.67,-300.04"/>
<polygon fill="none" stroke="midnightblue" points="228.59,-377.9 234.94,-386.39 235.26,-375.8 228.59,-377.9"/>
</g>
<!-- Node5 -->
<g id="node5" class="node">
<title>Node5</title>
<g id="a_node5"><a xlink:href="a00272.html" target="_top" xlink:title=" ">
<polygon fill="white" stroke="black" points="268.5,-221 268.5,-300 398.5,-300 398.5,-221 268.5,-221"/>
<text text-anchor="middle" x="333.5" y="-288" font-family="Helvetica,sans-Serif" font-size="10.00">CO_US_Place_Collection</text>
<polyline fill="none" stroke="black" points="268.5,-281 398.5,-281 "/>
<text text-anchor="middle" x="333.5" y="-269" font-family="Helvetica,sans-Serif" font-size="10.00"> </text>
<polyline fill="none" stroke="black" points="268.5,-262 398.5,-262 "/>
<text text-anchor="start" x="276.5" y="-250" font-family="Helvetica,sans-Serif" font-size="10.00">+ __construct()</text>
<text text-anchor="start" x="276.5" y="-239" font-family="Helvetica,sans-Serif" font-size="10.00">+ load_from_db()</text>
<text text-anchor="start" x="276.5" y="-228" font-family="Helvetica,sans-Serif" font-size="10.00">+ delete_from_db()</text>
</a>
</g>
</g>
<!-- Node1&#45;&gt;Node5 -->
<g id="edge4" class="edge">
<title>Node1&#45;&gt;Node5</title>
<path fill="none" stroke="midnightblue" d="M297.11,-376.74C305.75,-349.38 314.55,-321.52 321.33,-300.04"/>
<polygon fill="none" stroke="midnightblue" points="293.74,-375.8 294.06,-386.39 300.41,-377.9 293.74,-375.8"/>
</g>
<!-- Node6 -->
<g id="node6" class="node">
<title>Node6</title>
<g id="a_node6"><a xlink:href="a00276.html" target="_top" xlink:title=" ">
<polygon fill="white" stroke="black" points="417,-171.5 417,-349.5 542,-349.5 542,-171.5 417,-171.5"/>
<text text-anchor="middle" x="479.5" y="-337.5" font-family="Helvetica,sans-Serif" font-size="10.00">CO_User_Collection</text>
<polyline fill="none" stroke="black" points="417,-330.5 542,-330.5 "/>
<text text-anchor="start" x="425" y="-318.5" font-family="Helvetica,sans-Serif" font-size="10.00">&#45; $_login_object</text>
<polyline fill="none" stroke="black" points="417,-311.5 542,-311.5 "/>
<text text-anchor="start" x="425" y="-299.5" font-family="Helvetica,sans-Serif" font-size="10.00">+ __construct()</text>
<text text-anchor="start" x="425" y="-288.5" font-family="Helvetica,sans-Serif" font-size="10.00">+ load_from_db()</text>
<text text-anchor="start" x="425" y="-277.5" font-family="Helvetica,sans-Serif" font-size="10.00">+ get_login_instance()</text>
<text text-anchor="start" x="425" y="-266.5" font-family="Helvetica,sans-Serif" font-size="10.00">+ has_login()</text>
<text text-anchor="start" x="425" y="-255.5" font-family="Helvetica,sans-Serif" font-size="10.00">+ has_login_i_cant_see()</text>
<text text-anchor="start" x="425" y="-244.5" font-family="Helvetica,sans-Serif" font-size="10.00">+ is_god()</text>
<text text-anchor="start" x="425" y="-233.5" font-family="Helvetica,sans-Serif" font-size="10.00">+ is_manager()</text>
<text text-anchor="start" x="425" y="-222.5" font-family="Helvetica,sans-Serif" font-size="10.00">+ set_tags()</text>
<text text-anchor="start" x="425" y="-211.5" font-family="Helvetica,sans-Serif" font-size="10.00">+ set_tag()</text>
<text text-anchor="start" x="425" y="-200.5" font-family="Helvetica,sans-Serif" font-size="10.00">+ get_surname()</text>
<text text-anchor="start" x="425" y="-189.5" font-family="Helvetica,sans-Serif" font-size="10.00">and 14 more...</text>
<text text-anchor="start" x="425" y="-178.5" font-family="Helvetica,sans-Serif" font-size="10.00"># _load_login()</text>
</a>
</g>
</g>
<!-- Node1&#45;&gt;Node6 -->
<g id="edge5" class="edge">
<title>Node1&#45;&gt;Node6</title>
<path fill="none" stroke="midnightblue" d="M332.31,-422.13C356.76,-400.29 384.09,-374.73 407.5,-350 410.63,-346.69 413.78,-343.26 416.92,-339.76"/>
<polygon fill="none" stroke="midnightblue" points="329.97,-419.52 324.82,-428.78 334.62,-424.76 329.97,-419.52"/>
</g>
<!-- Node3 -->
<g id="node3" class="node">
<title>Node3</title>
<g id="a_node3"><a xlink:href="a00252.html" target="_top" xlink:title=" ">
<polygon fill="white" stroke="black" points="0,-0.5 0,-134.5 147,-134.5 147,-0.5 0,-0.5"/>
<text text-anchor="middle" x="73.5" y="-122.5" font-family="Helvetica,sans-Serif" font-size="10.00">CO_KeyValue_CO_Collection</text>
<polyline fill="none" stroke="black" points="0,-115.5 147,-115.5 "/>
<text text-anchor="middle" x="73.5" y="-103.5" font-family="Helvetica,sans-Serif" font-size="10.00"> </text>
<polyline fill="none" stroke="black" points="0,-96.5 147,-96.5 "/>
<text text-anchor="start" x="8" y="-84.5" font-family="Helvetica,sans-Serif" font-size="10.00">+ __construct()</text>
<text text-anchor="start" x="8" y="-73.5" font-family="Helvetica,sans-Serif" font-size="10.00">+ load_from_db()</text>
<text text-anchor="start" x="8" y="-62.5" font-family="Helvetica,sans-Serif" font-size="10.00">+ set_key()</text>
<text text-anchor="start" x="8" y="-51.5" font-family="Helvetica,sans-Serif" font-size="10.00">+ get_key()</text>
<text text-anchor="start" x="8" y="-40.5" font-family="Helvetica,sans-Serif" font-size="10.00">+ get_value()</text>
<text text-anchor="start" x="8" y="-29.5" font-family="Helvetica,sans-Serif" font-size="10.00">+ get_key_value_array()</text>
<text text-anchor="start" x="8" y="-18.5" font-family="Helvetica,sans-Serif" font-size="10.00">+ get_key_value_assoc()</text>
<text text-anchor="start" x="8" y="-7.5" font-family="Helvetica,sans-Serif" font-size="10.00">+ set_value()</text>
</a>
</g>
</g>
<!-- Node2&#45;&gt;Node3 -->
<g id="edge2" class="edge">
<title>Node2&#45;&gt;Node3</title>
<path fill="none" stroke="midnightblue" d="M73.5,-210.59C73.5,-187.47 73.5,-159.53 73.5,-134.56"/>
<polygon fill="none" stroke="midnightblue" points="70,-210.85 73.5,-220.85 77,-210.85 70,-210.85"/>
</g>
</g>
</svg>
        <g id="navigator" transform="translate(0 0)" fill="#404254">
                <rect fill="#f2f5e9" fill-opacity="0.5" stroke="#606060" stroke-width=".5" x="0" y="0" width="60" height="60"/>
                <use id="zoomplus" xlink:href="#zoomPlus" x="17" y="9" onmousedown="handleZoom(evt,'in')"/>
                <use id="zoomminus" xlink:href="#zoomMin" x="42" y="9" onmousedown="handleZoom(evt,'out')"/>
                <use id="reset" xlink:href="#resetDef" x="30" y="36" onmousedown="handleReset()"/>
                <g id="arrowUp" xlink:href="#dirArrow" transform="translate(30 24)" onmousedown="handlePan(0,-1)">
                  <use xlink:href="#rim" fill="#404040">
                        <set attributeName="fill" to="#808080" begin="arrowUp.mouseover" end="arrowUp.mouseout"/>
                  </use>
                  <path fill="none" stroke="white" stroke-width="1.5" d="M0,-3.0v7 M-2.5,-0.5L0,-3.0L2.5,-0.5"/>
                </g>
                <g id="arrowRight" xlink:href="#dirArrow" transform="rotate(90) translate(36 -43)" onmousedown="handlePan(1,0)">
                  <use xlink:href="#rim" fill="#404040">
                        <set attributeName="fill" to="#808080" begin="arrowRight.mouseover" end="arrowRight.mouseout"/>
                  </use>
                  <path fill="none" stroke="white" stroke-width="1.5" d="M0,-3.0v7 M-2.5,-0.5L0,-3.0L2.5,-0.5"/>
                </g>
                <g id="arrowDown" xlink:href="#dirArrow" transform="rotate(180) translate(-30 -48)" onmousedown="handlePan(0,1)">
                  <use xlink:href="#rim" fill="#404040">
                        <set attributeName="fill" to="#808080" begin="arrowDown.mouseover" end="arrowDown.mouseout"/>
                  </use>
                  <path fill="none" stroke="white" stroke-width="1.5" d="M0,-3.0v7 M-2.5,-0.5L0,-3.0L2.5,-0.5"/>
                </g>
                <g id="arrowLeft" xlink:href="#dirArrow" transform="rotate(270) translate(-36 17)" onmousedown="handlePan(-1,0)">
                  <use xlink:href="#rim" fill="#404040">
                        <set attributeName="fill" to="#808080" begin="arrowLeft.mouseover" end="arrowLeft.mouseout"/>
                  </use>
                  <path fill="none" stroke="white" stroke-width="1.5" d="M0,-3.0v7 M-2.5,-0.5L0,-3.0L2.5,-0.5"/>
                </g>
        </g>
        <svg viewBox="0 0 15 15" width="100%" height="30px" preserveAspectRatio="xMaxYMin meet">
         <g id="arrow_out" transform="scale(0.3 0.3)">
          <a xlink:href="a00279_org.svg" target="_base">
           <rect id="button" ry="5" rx="5" y="6" x="6" height="38" width="38"
                fill="#f2f5e9" fill-opacity="0.5" stroke="#606060" stroke-width="1.0"/>
           <path id="arrow"
             d="M 11.500037,31.436501 C 11.940474,20.09759 22.043105,11.32322 32.158766,21.979434 L 37.068811,17.246167 C 37.068811,17.246167 37.088388,32 37.088388,32 L 22.160133,31.978069 C 22.160133,31.978069 26.997745,27.140456 26.997745,27.140456 C 18.528582,18.264221 13.291696,25.230495 11.500037,31.436501 z"
             style="fill:#404040;"/>
          </a>
         </g>
        </svg>
</svg>
