<?xml version="1.0" encoding="UTF-8" standalone="no"?>
<!DOCTYPE svg PUBLIC "-//W3C//DTD SVG 1.1//EN"
 "http://www.w3.org/Graphics/SVG/1.1/DTD/svg11.dtd">
<!-- Generated by graphviz version 2.40.1 (20161225.0304)
 -->
<!-- Title: CO_User_Collection\is_god Pages: 1 -->
<svg width="258pt" height="37pt"
 viewBox="0.00 0.00 258.29 37.00" xmlns="http://www.w3.org/2000/svg" xmlns:xlink="http://www.w3.org/1999/xlink">
<g id="graph0" class="graph" transform="scale(1 1) rotate(0) translate(4 33)">
<title>CO_User_Collection\is_god</title>
<polygon fill="#ffffff" stroke="transparent" points="-4,4 -4,-33 254.2949,-33 254.2949,4 -4,4"/>
<!-- Node1 -->
<g id="node1" class="node">
<title>Node1</title>
<g id="a_node1"><a xlink:title=" ">
<polygon fill="#bfbfbf" stroke="#000000" points="143.1475,-.5 143.1475,-28.5 250.2949,-28.5 250.2949,-.5 143.1475,-.5"/>
<text text-anchor="start" x="151.1475" y="-16.5" font-family="Helvetica,sans-Serif" font-size="10.00" fill="#000000">CO_User_Collection</text>
<text text-anchor="middle" x="196.7212" y="-6.5" font-family="Helvetica,sans-Serif" font-size="10.00" fill="#000000">\is_god</text>
</a>
</g>
</g>
<!-- Node2 -->
<g id="node2" class="node">
<title>Node2</title>
<g id="a_node2"><a xlink:href="a00276.html#a38a9d15bfc7194ec0057869caf6523c0" target="_top" xlink:title=" ">
<polygon fill="#ffffff" stroke="#000000" points="0,-.5 0,-28.5 107.1475,-28.5 107.1475,-.5 0,-.5"/>
<text text-anchor="start" x="8" y="-16.5" font-family="Helvetica,sans-Serif" font-size="10.00" fill="#000000">CO_User_Collection</text>
<text text-anchor="middle" x="53.5737" y="-6.5" font-family="Helvetica,sans-Serif" font-size="10.00" fill="#000000">\is_manager</text>
</a>
</g>
</g>
<!-- Node1&#45;&gt;Node2 -->
<g id="edge1" class="edge">
<title>Node1&#45;&gt;Node2</title>
<path fill="none" stroke="#191970" d="M132.8315,-14.5C124.4015,-14.5 115.8276,-14.5 107.5849,-14.5"/>
<polygon fill="#191970" stroke="#191970" points="133.0111,-18.0001 143.0111,-14.5 133.0111,-11.0001 133.0111,-18.0001"/>
</g>
</g>
</svg>
