<?xml version="1.0" encoding="UTF-8" standalone="no"?>
<!DOCTYPE svg PUBLIC "-//W3C//DTD SVG 1.1//EN"
 "http://www.w3.org/Graphics/SVG/1.1/DTD/svg11.dtd">
<!-- Generated by graphviz version 2.40.1 (20161225.0304)
 -->
<!-- Title: CO_Chameleon\test_access Pages: 1 -->
<svg width="802pt" height="93pt"
 viewBox="0.00 0.00 802.29 93.00" xmlns="http://www.w3.org/2000/svg" xmlns:xlink="http://www.w3.org/1999/xlink">
<g id="graph0" class="graph" transform="scale(1 1) rotate(0) translate(4 89)">
<title>CO_Chameleon\test_access</title>
<polygon fill="#ffffff" stroke="transparent" points="-4,4 -4,-89 798.2881,-89 798.2881,4 -4,4"/>
<!-- Node1 -->
<g id="node1" class="node">
<title>Node1</title>
<g id="a_node1"><a xlink:title=" ">
<polygon fill="#bfbfbf" stroke="#000000" points="0,-26.5 0,-44.5 143.2852,-44.5 143.2852,-26.5 0,-26.5"/>
<text text-anchor="middle" x="71.6426" y="-32.5" font-family="Helvetica,sans-Serif" font-size="10.00" fill="#000000">CO_Chameleon\test_access</text>
</a>
</g>
</g>
<!-- Node2 -->
<g id="node2" class="node">
<title>Node2</title>
<g id="a_node2"><a xlink:href="a00355.html#a65c256cad68440723a8de979b1b7a1bb" target="_top" xlink:title=" ">
<polygon fill="#ffffff" stroke="#000000" points="179.2852,-47.5 179.2852,-65.5 315.9004,-65.5 315.9004,-47.5 179.2852,-47.5"/>
<text text-anchor="middle" x="247.5928" y="-53.5" font-family="Helvetica,sans-Serif" font-size="10.00" fill="#000000">CO_Access\get_login_item</text>
</a>
</g>
</g>
<!-- Node1&#45;&gt;Node2 -->
<g id="edge1" class="edge">
<title>Node1&#45;&gt;Node2</title>
<path fill="none" stroke="#191970" d="M143.462,-44.0718C151.931,-45.0826 160.6069,-46.1181 169.1609,-47.139"/>
<polygon fill="#191970" stroke="#191970" points="168.7826,-50.6186 179.127,-48.3285 169.6123,-43.6679 168.7826,-50.6186"/>
</g>
<!-- Node6 -->
<g id="node6" class="node">
<title>Node6</title>
<g id="a_node6"><a xlink:href="a00355.html#a22dd3ef5f47a6f4c40a551a1d7767402" target="_top" xlink:title=" ">
<polygon fill="#ffffff" stroke="#000000" points="194.5806,-.5 194.5806,-28.5 300.605,-28.5 300.605,-.5 194.5806,-.5"/>
<text text-anchor="start" x="202.5806" y="-16.5" font-family="Helvetica,sans-Serif" font-size="10.00" fill="#000000">CO_Access\security</text>
<text text-anchor="middle" x="247.5928" y="-6.5" font-family="Helvetica,sans-Serif" font-size="10.00" fill="#000000">_db_available</text>
</a>
</g>
</g>
<!-- Node1&#45;&gt;Node6 -->
<g id="edge6" class="edge">
<title>Node1&#45;&gt;Node6</title>
<path fill="none" stroke="#191970" d="M143.462,-26.9282C157.0163,-25.3105 171.1004,-23.6295 184.367,-22.0461"/>
<polygon fill="#191970" stroke="#191970" points="184.8158,-25.5175 194.3305,-20.857 183.9861,-18.5668 184.8158,-25.5175"/>
</g>
<!-- Node3 -->
<g id="node3" class="node">
<title>Node3</title>
<g id="a_node3"><a xlink:href="a00355.html#adbc6444fbac916f3a280f4a3ce4f067a" target="_top" xlink:title=" ">
<polygon fill="#ffffff" stroke="#000000" points="351.9004,-66.5 351.9004,-84.5 477.4072,-84.5 477.4072,-66.5 351.9004,-66.5"/>
<text text-anchor="middle" x="414.6538" y="-72.5" font-family="Helvetica,sans-Serif" font-size="10.00" fill="#000000">CO_Access\get_login_id</text>
</a>
</g>
</g>
<!-- Node2&#45;&gt;Node3 -->
<g id="edge2" class="edge">
<title>Node2&#45;&gt;Node3</title>
<path fill="none" stroke="#191970" d="M316.0249,-64.2828C324.5093,-65.2478 333.2087,-66.2372 341.757,-67.2094"/>
<polygon fill="#191970" stroke="#191970" points="341.3692,-70.6878 351.7007,-68.3403 342.1603,-63.7326 341.3692,-70.6878"/>
</g>
<!-- Node4 -->
<g id="node4" class="node">
<title>Node4</title>
<g id="a_node4"><a xlink:href="a00355.html#aeab406fa4ecc249662fa1e2e073341b2" target="_top" xlink:title=" ">
<polygon fill="#ffffff" stroke="#000000" points="513.4072,-42.5 513.4072,-70.5 632.7959,-70.5 632.7959,-42.5 513.4072,-42.5"/>
<text text-anchor="start" x="521.4072" y="-58.5" font-family="Helvetica,sans-Serif" font-size="10.00" fill="#000000">CO_Access\get_single</text>
<text text-anchor="middle" x="573.1016" y="-48.5" font-family="Helvetica,sans-Serif" font-size="10.00" fill="#000000">_security_record_by_id</text>
</a>
</g>
</g>
<!-- Node2&#45;&gt;Node4 -->
<g id="edge5" class="edge">
<title>Node2&#45;&gt;Node4</title>
<path fill="none" stroke="#191970" d="M316.2271,-56.5C371.1884,-56.5 447.9677,-56.5 503.2483,-56.5"/>
<polygon fill="#191970" stroke="#191970" points="503.3102,-60.0001 513.3101,-56.5 503.3101,-53.0001 503.3102,-60.0001"/>
</g>
<!-- Node3&#45;&gt;Node4 -->
<g id="edge3" class="edge">
<title>Node3&#45;&gt;Node4</title>
<path fill="none" stroke="#191970" d="M477.7318,-67.9361C486.1677,-66.9245 494.8587,-65.8824 503.3998,-64.8582"/>
<polygon fill="#191970" stroke="#191970" points="503.8212,-68.3328 513.3333,-63.667 502.9877,-61.3826 503.8212,-68.3328"/>
</g>
<!-- Node5 -->
<g id="node5" class="node">
<title>Node5</title>
<g id="a_node5"><a xlink:href="a00355.html#a34c23aea84d5c32e600c512167c3497d" target="_top" xlink:title=" ">
<polygon fill="#ffffff" stroke="#000000" points="668.7959,-42.5 668.7959,-70.5 794.2881,-70.5 794.2881,-42.5 668.7959,-42.5"/>
<text text-anchor="start" x="676.7959" y="-58.5" font-family="Helvetica,sans-Serif" font-size="10.00" fill="#000000">CO_Access\get_multiple</text>
<text text-anchor="middle" x="731.542" y="-48.5" font-family="Helvetica,sans-Serif" font-size="10.00" fill="#000000">_security_records_by_id</text>
</a>
</g>
</g>
<!-- Node4&#45;&gt;Node5 -->
<g id="edge4" class="edge">
<title>Node4&#45;&gt;Node5</title>
<path fill="none" stroke="#191970" d="M633.0011,-56.5C641.3782,-56.5 650.0622,-56.5 658.6465,-56.5"/>
<polygon fill="#191970" stroke="#191970" points="658.6537,-60.0001 668.6537,-56.5 658.6536,-53.0001 658.6537,-60.0001"/>
</g>
</g>
</svg>
