<?xml version="1.0" encoding="UTF-8" standalone="no"?>
<!DOCTYPE svg PUBLIC "-//W3C//DTD SVG 1.1//EN"
 "http://www.w3.org/Graphics/SVG/1.1/DTD/svg11.dtd">
<!-- Generated by graphviz version 2.40.1 (20161225.0304)
 -->
<!-- Title: CO_Cobra\create_new_standard_login Pages: 1 -->
<svg width="634pt" height="111pt"
 viewBox="0.00 0.00 633.55 111.00" xmlns="http://www.w3.org/2000/svg" xmlns:xlink="http://www.w3.org/1999/xlink">
<g id="graph0" class="graph" transform="scale(1 1) rotate(0) translate(4 107)">
<title>CO_Cobra\create_new_standard_login</title>
<polygon fill="#ffffff" stroke="transparent" points="-4,4 -4,-107 629.5547,-107 629.5547,4 -4,4"/>
<!-- Node1 -->
<g id="node1" class="node">
<title>Node1</title>
<g id="a_node1"><a xlink:title=" ">
<polygon fill="#bfbfbf" stroke="#000000" points="0,-32.5 0,-60.5 118.2754,-60.5 118.2754,-32.5 0,-32.5"/>
<text text-anchor="start" x="8" y="-48.5" font-family="Helvetica,sans-Serif" font-size="10.00" fill="#000000">CO_Cobra\create_new</text>
<text text-anchor="middle" x="59.1377" y="-38.5" font-family="Helvetica,sans-Serif" font-size="10.00" fill="#000000">_standard_login</text>
</a>
</g>
</g>
<!-- Node2 -->
<g id="node2" class="node">
<title>Node2</title>
<g id="a_node2"><a xlink:href="a00236.html#ae1d5d148ccfdfdfa1e0d8636130479ab" target="_top" xlink:title=" ">
<polygon fill="#ffffff" stroke="#000000" points="154.2754,-32.5 154.2754,-60.5 278.1123,-60.5 278.1123,-32.5 154.2754,-32.5"/>
<text text-anchor="start" x="162.2754" y="-48.5" font-family="Helvetica,sans-Serif" font-size="10.00" fill="#000000">CO_Cobra\_create_new</text>
<text text-anchor="middle" x="216.1938" y="-38.5" font-family="Helvetica,sans-Serif" font-size="10.00" fill="#000000">_login</text>
</a>
</g>
</g>
<!-- Node1&#45;&gt;Node2 -->
<g id="edge1" class="edge">
<title>Node1&#45;&gt;Node2</title>
<path fill="none" stroke="#191970" d="M118.5139,-46.5C126.7893,-46.5 135.3668,-46.5 143.8476,-46.5"/>
<polygon fill="#191970" stroke="#191970" points="144.1176,-50.0001 154.1176,-46.5 144.1175,-43.0001 144.1176,-50.0001"/>
</g>
<!-- Node3 -->
<g id="node3" class="node">
<title>Node3</title>
<g id="a_node3"><a xlink:href="a00236.html#a01a955e518587e995a53000c2638c2a8" target="_top" xlink:title=" ">
<polygon fill="#ffffff" stroke="#000000" points="323.0039,-74.5 323.0039,-102.5 444.0576,-102.5 444.0576,-74.5 323.0039,-74.5"/>
<text text-anchor="start" x="331.0039" y="-90.5" font-family="Helvetica,sans-Serif" font-size="10.00" fill="#000000">CO_Cobra\_create_this</text>
<text text-anchor="middle" x="383.5308" y="-80.5" font-family="Helvetica,sans-Serif" font-size="10.00" fill="#000000">_many_personal_ids</text>
</a>
</g>
</g>
<!-- Node2&#45;&gt;Node3 -->
<g id="edge2" class="edge">
<title>Node2&#45;&gt;Node3</title>
<path fill="none" stroke="#191970" d="M272.3801,-60.6022C286.9449,-64.2579 302.7596,-68.2272 317.7679,-71.9941"/>
<polygon fill="#191970" stroke="#191970" points="316.9415,-75.3952 327.4928,-74.435 318.6457,-68.6058 316.9415,-75.3952"/>
</g>
<!-- Node5 -->
<g id="node5" class="node">
<title>Node5</title>
<g id="a_node5"><a xlink:href="a00236.html#a0815b59b59c157227c283e260ab2576f" target="_top" xlink:title=" ">
<polygon fill="#ffffff" stroke="#000000" points="314.1123,-37.5 314.1123,-55.5 452.9492,-55.5 452.9492,-37.5 314.1123,-37.5"/>
<text text-anchor="middle" x="383.5308" y="-43.5" font-family="Helvetica,sans-Serif" font-size="10.00" fill="#000000">CO_Cobra\get_security_ids</text>
</a>
</g>
</g>
<!-- Node2&#45;&gt;Node5 -->
<g id="edge4" class="edge">
<title>Node2&#45;&gt;Node5</title>
<path fill="none" stroke="#191970" d="M278.5039,-46.5C286.6956,-46.5 295.18,-46.5 303.6135,-46.5"/>
<polygon fill="#191970" stroke="#191970" points="303.8522,-50.0001 313.8522,-46.5 303.8522,-43.0001 303.8522,-50.0001"/>
</g>
<!-- Node6 -->
<g id="node6" class="node">
<title>Node6</title>
<g id="a_node6"><a xlink:href="a00340.html#aac538e52310a1c332914682a9c2ec8d2" target="_top" xlink:title=" ">
<polygon fill="#ffffff" stroke="#000000" points="316.0508,-.5 316.0508,-18.5 451.0107,-18.5 451.0107,-.5 316.0508,-.5"/>
<text text-anchor="middle" x="383.5308" y="-6.5" font-family="Helvetica,sans-Serif" font-size="10.00" fill="#000000">CO_Security_Login\is_god</text>
</a>
</g>
</g>
<!-- Node2&#45;&gt;Node6 -->
<g id="edge5" class="edge">
<title>Node2&#45;&gt;Node6</title>
<path fill="none" stroke="#191970" d="M278.5039,-32.7226C296.4474,-28.7551 315.7954,-24.477 332.9362,-20.687"/>
<polygon fill="#191970" stroke="#191970" points="333.7375,-24.0944 342.746,-18.5179 332.2262,-17.2595 333.7375,-24.0944"/>
</g>
<!-- Node4 -->
<g id="node4" class="node">
<title>Node4</title>
<g id="a_node4"><a xlink:href="a00236.html#a2e644cc197709e85295026701e3a672e" target="_top" xlink:title=" ">
<polygon fill="#ffffff" stroke="#000000" points="488.9492,-74.5 488.9492,-102.5 625.5547,-102.5 625.5547,-74.5 488.9492,-74.5"/>
<text text-anchor="start" x="496.9492" y="-90.5" font-family="Helvetica,sans-Serif" font-size="10.00" fill="#000000">CO_Cobra\_make_security</text>
<text text-anchor="middle" x="557.252" y="-80.5" font-family="Helvetica,sans-Serif" font-size="10.00" fill="#000000">_token</text>
</a>
</g>
</g>
<!-- Node3&#45;&gt;Node4 -->
<g id="edge3" class="edge">
<title>Node3&#45;&gt;Node4</title>
<path fill="none" stroke="#191970" d="M444.29,-88.5C455.4144,-88.5 467.1685,-88.5 478.7241,-88.5"/>
<polygon fill="#191970" stroke="#191970" points="478.8071,-92.0001 488.8071,-88.5 478.807,-85.0001 478.8071,-92.0001"/>
</g>
<!-- Node7 -->
<g id="node7" class="node">
<title>Node7</title>
<g id="a_node7"><a xlink:href="a00308.html#a78affe18a811930d4012fd265e95cdca" target="_top" xlink:title=" ">
<polygon fill="#ffffff" stroke="#000000" points="491.7178,-.5 491.7178,-18.5 622.7861,-18.5 622.7861,-.5 491.7178,-.5"/>
<text text-anchor="middle" x="557.252" y="-6.5" font-family="Helvetica,sans-Serif" font-size="10.00" fill="#000000">A_CO_DB_Table_Base\id</text>
</a>
</g>
</g>
<!-- Node6&#45;&gt;Node7 -->
<g id="edge6" class="edge">
<title>Node6&#45;&gt;Node7</title>
<path fill="none" stroke="#191970" d="M451.1933,-9.5C461.0217,-9.5 471.1953,-9.5 481.176,-9.5"/>
<polygon fill="#191970" stroke="#191970" points="481.4845,-13.0001 491.4845,-9.5 481.4844,-6.0001 481.4845,-13.0001"/>
</g>
</g>
</svg>
