<?xml version="1.0" encoding="UTF-8" standalone="no"?>
<!DOCTYPE svg PUBLIC "-//W3C//DTD SVG 1.1//EN"
 "http://www.w3.org/Graphics/SVG/1.1/DTD/svg11.dtd">
<!-- Generated by graphviz version 2.40.1 (20161225.0304)
 -->
<!-- Title: CO_Place\get_address_element_by_index Pages: 1 -->
<svg width="288pt" height="37pt"
 viewBox="0.00 0.00 288.35 37.00" xmlns="http://www.w3.org/2000/svg" xmlns:xlink="http://www.w3.org/1999/xlink">
<g id="graph0" class="graph" transform="scale(1 1) rotate(0) translate(4 33)">
<title>CO_Place\get_address_element_by_index</title>
<polygon fill="#ffffff" stroke="transparent" points="-4,4 -4,-33 284.3486,-33 284.3486,4 -4,4"/>
<!-- Node1 -->
<g id="node1" class="node">
<title>Node1</title>
<g id="a_node1"><a xlink:title=" ">
<polygon fill="#bfbfbf" stroke="#000000" points="0,-.5 0,-28.5 119.3936,-28.5 119.3936,-.5 0,-.5"/>
<text text-anchor="start" x="8" y="-16.5" font-family="Helvetica,sans-Serif" font-size="10.00" fill="#000000">CO_Place\get_address</text>
<text text-anchor="middle" x="59.6968" y="-6.5" font-family="Helvetica,sans-Serif" font-size="10.00" fill="#000000">_element_by_index</text>
</a>
</g>
</g>
<!-- Node2 -->
<g id="node2" class="node">
<title>Node2</title>
<g id="a_node2"><a xlink:href="a00263.html#a60b73dee76e98e806f4a872cca13ee58" target="_top" xlink:title=" ">
<polygon fill="#ffffff" stroke="#000000" points="155.3936,-.5 155.3936,-28.5 280.3486,-28.5 280.3486,-.5 155.3936,-.5"/>
<text text-anchor="start" x="163.3936" y="-16.5" font-family="Helvetica,sans-Serif" font-size="10.00" fill="#000000">CO_Place\_get_address</text>
<text text-anchor="middle" x="217.8711" y="-6.5" font-family="Helvetica,sans-Serif" font-size="10.00" fill="#000000">_element_labels</text>
</a>
</g>
</g>
<!-- Node1&#45;&gt;Node2 -->
<g id="edge1" class="edge">
<title>Node1&#45;&gt;Node2</title>
<path fill="none" stroke="#191970" d="M119.4957,-14.5C127.9216,-14.5 136.6585,-14.5 145.2914,-14.5"/>
<polygon fill="#191970" stroke="#191970" points="145.3529,-18.0001 155.3529,-14.5 145.3528,-11.0001 145.3529,-18.0001"/>
</g>
</g>
</svg>
