<?xml version="1.0" encoding="UTF-8" standalone="no"?>
<!DOCTYPE svg PUBLIC "-//W3C//DTD SVG 1.1//EN"
 "http://www.w3.org/Graphics/SVG/1.1/DTD/svg11.dtd">
<!-- Generated by graphviz version 2.40.1 (20161225.0304)
 -->
<!-- Title: CO_Basalt\get_plugin_names Pages: 1 -->
<svg width="420pt" height="37pt"
 viewBox="0.00 0.00 419.82 37.00" xmlns="http://www.w3.org/2000/svg" xmlns:xlink="http://www.w3.org/1999/xlink">
<g id="graph0" class="graph" transform="scale(1 1) rotate(0) translate(4 33)">
<title>CO_Basalt\get_plugin_names</title>
<polygon fill="#ffffff" stroke="transparent" points="-4,4 -4,-33 415.8213,-33 415.8213,4 -4,4"/>
<!-- Node1 -->
<g id="node1" class="node">
<title>Node1</title>
<g id="a_node1"><a xlink:title=" ">
<polygon fill="#bfbfbf" stroke="#000000" points="298.5361,-.5 298.5361,-28.5 411.8213,-28.5 411.8213,-.5 298.5361,-.5"/>
<text text-anchor="start" x="306.5361" y="-16.5" font-family="Helvetica,sans-Serif" font-size="10.00" fill="#000000">CO_Basalt\get_plugin</text>
<text text-anchor="middle" x="355.1787" y="-6.5" font-family="Helvetica,sans-Serif" font-size="10.00" fill="#000000">_names</text>
</a>
</g>
</g>
<!-- Node2 -->
<g id="node2" class="node">
<title>Node2</title>
<g id="a_node2"><a xlink:href="a00200.html#a2ddbc8082e5db06272eb38f00b80fae5" target="_top" xlink:title=" ">
<polygon fill="#ffffff" stroke="#000000" points="154.8271,-.5 154.8271,-28.5 262.5361,-28.5 262.5361,-.5 154.8271,-.5"/>
<text text-anchor="start" x="162.8271" y="-16.5" font-family="Helvetica,sans-Serif" font-size="10.00" fill="#000000">CO_Basalt\_process</text>
<text text-anchor="middle" x="208.6816" y="-6.5" font-family="Helvetica,sans-Serif" font-size="10.00" fill="#000000">_basalt_parameters</text>
</a>
</g>
</g>
<!-- Node1&#45;&gt;Node2 -->
<g id="edge1" class="edge">
<title>Node1&#45;&gt;Node2</title>
<path fill="none" stroke="#191970" d="M287.9749,-14.5C279.5903,-14.5 271.0993,-14.5 262.9455,-14.5"/>
<polygon fill="#191970" stroke="#191970" points="288.1197,-18.0001 298.1196,-14.5 288.1196,-11.0001 288.1197,-18.0001"/>
</g>
<!-- Node3 -->
<g id="node3" class="node">
<title>Node3</title>
<g id="a_node3"><a xlink:href="a00200.html#aad1b60cb5230efedfc34a931546d415b" target="_top" xlink:title=" ">
<polygon fill="#ffffff" stroke="#000000" points="0,-5.5 0,-23.5 118.8271,-23.5 118.8271,-5.5 0,-5.5"/>
<text text-anchor="middle" x="59.4136" y="-11.5" font-family="Helvetica,sans-Serif" font-size="10.00" fill="#000000">CO_Basalt\__construct</text>
</a>
</g>
</g>
<!-- Node2&#45;&gt;Node3 -->
<g id="edge2" class="edge">
<title>Node2&#45;&gt;Node3</title>
<path fill="none" stroke="#191970" d="M144.5744,-14.5C136.0975,-14.5 127.4357,-14.5 119.0384,-14.5"/>
<polygon fill="#191970" stroke="#191970" points="144.7925,-18.0001 154.7924,-14.5 144.7924,-11.0001 144.7925,-18.0001"/>
</g>
</g>
</svg>
