<?xml version="1.0" encoding="UTF-8" standalone="no"?>
<!DOCTYPE svg PUBLIC "-//W3C//DTD SVG 1.1//EN"
 "http://www.w3.org/Graphics/SVG/1.1/DTD/svg11.dtd">
<!-- Generated by graphviz version 2.40.1 (20161225.0304)
 -->
<!-- Title: CO_User_Collection\set_login Pages: 1 -->
<svg width="571pt" height="117pt"
 viewBox="0.00 0.00 571.31 117.00" xmlns="http://www.w3.org/2000/svg" xmlns:xlink="http://www.w3.org/1999/xlink">
<g id="graph0" class="graph" transform="scale(1 1) rotate(0) translate(4 113)">
<title>CO_User_Collection\set_login</title>
<polygon fill="#ffffff" stroke="transparent" points="-4,4 -4,-113 567.3086,-113 567.3086,4 -4,4"/>
<!-- Node75 -->
<g id="node1" class="node">
<title>Node75</title>
<polygon fill="#bfbfbf" stroke="#000000" points="0,-77.5 0,-105.5 107.1475,-105.5 107.1475,-77.5 0,-77.5"/>
<text text-anchor="start" x="8" y="-93.5" font-family="Helvetica,sans-Serif" font-size="10.00" fill="#000000">CO_User_Collection</text>
<text text-anchor="middle" x="53.5737" y="-83.5" font-family="Helvetica,sans-Serif" font-size="10.00" fill="#000000">\set_login</text>
</g>
<!-- Node76 -->
<g id="node2" class="node">
<title>Node76</title>
<g id="a_node2"><a xlink:href="a00311.html#a8780b40e55827b90bb441671faec2a05" target="_top" xlink:title="A_CO_DB_Table_Base\l\\get_access_object">
<polygon fill="#ffffff" stroke="#000000" points="442.8018,-80.5 442.8018,-108.5 563.3086,-108.5 563.3086,-80.5 442.8018,-80.5"/>
<text text-anchor="start" x="450.8018" y="-96.5" font-family="Helvetica,sans-Serif" font-size="10.00" fill="#000000">A_CO_DB_Table_Base</text>
<text text-anchor="middle" x="503.0552" y="-86.5" font-family="Helvetica,sans-Serif" font-size="10.00" fill="#000000">\get_access_object</text>
</a>
</g>
</g>
<!-- Node75&#45;&gt;Node76 -->
<g id="edge1" class="edge">
<title>Node75&#45;&gt;Node76</title>
<path fill="none" stroke="#191970" d="M107.5655,-93.5397C119.2946,-93.9181 131.6356,-94.2671 143.1475,-94.5 260.304,-96.8707 289.6228,-96.1087 406.8018,-95.5 415.1496,-95.4566 423.9045,-95.3921 432.5898,-95.3164"/>
<polygon fill="#191970" stroke="#191970" points="432.7578,-98.8151 442.725,-95.2228 432.6931,-91.8154 432.7578,-98.8151"/>
</g>
<!-- Node77 -->
<g id="node3" class="node">
<title>Node77</title>
<g id="a_node3"><a xlink:href="a00279.html#a9410d46a4cd780a042c738912e11a27d" target="_top" xlink:title="CO_User_Collection\l\\set_tag">
<polygon fill="#ffffff" stroke="#000000" points="143.1475,-56.5 143.1475,-84.5 250.2949,-84.5 250.2949,-56.5 143.1475,-56.5"/>
<text text-anchor="start" x="151.1475" y="-72.5" font-family="Helvetica,sans-Serif" font-size="10.00" fill="#000000">CO_User_Collection</text>
<text text-anchor="middle" x="196.7212" y="-62.5" font-family="Helvetica,sans-Serif" font-size="10.00" fill="#000000">\set_tag</text>
</a>
</g>
</g>
<!-- Node75&#45;&gt;Node77 -->
<g id="edge2" class="edge">
<title>Node75&#45;&gt;Node77</title>
<path fill="none" stroke="#191970" d="M107.2838,-83.6206C115.6089,-82.3993 124.2784,-81.1275 132.8014,-79.8771"/>
<polygon fill="#191970" stroke="#191970" points="133.324,-83.338 142.7101,-78.4235 132.3079,-76.4122 133.324,-83.338"/>
</g>
<!-- Node77&#45;&gt;Node76 -->
<g id="edge5" class="edge">
<title>Node77&#45;&gt;Node76</title>
<path fill="none" stroke="#191970" d="M250.431,-74.7079C300.9925,-78.6692 377.0284,-84.6263 432.4709,-88.97"/>
<polygon fill="#191970" stroke="#191970" points="432.3299,-92.4696 442.5727,-89.7615 432.8767,-85.491 432.3299,-92.4696"/>
</g>
<!-- Node78 -->
<g id="node4" class="node">
<title>Node78</title>
<g id="a_node4"><a xlink:href="a00311.html#a7d2537d7675ca572ad78096784fe4fe4" target="_top" xlink:title="A_CO_DB_Table_Base\l\\user_can_write">
<polygon fill="#ffffff" stroke="#000000" points="286.2949,-37.5 286.2949,-65.5 406.8018,-65.5 406.8018,-37.5 286.2949,-37.5"/>
<text text-anchor="start" x="294.2949" y="-53.5" font-family="Helvetica,sans-Serif" font-size="10.00" fill="#000000">A_CO_DB_Table_Base</text>
<text text-anchor="middle" x="346.5483" y="-43.5" font-family="Helvetica,sans-Serif" font-size="10.00" fill="#000000">\user_can_write</text>
</a>
</g>
</g>
<!-- Node77&#45;&gt;Node78 -->
<g id="edge3" class="edge">
<title>Node77&#45;&gt;Node78</title>
<path fill="none" stroke="#191970" d="M250.389,-63.6942C258.7176,-62.6381 267.428,-61.5335 276.0598,-60.4388"/>
<polygon fill="#191970" stroke="#191970" points="276.6489,-63.8923 286.1291,-59.1619 275.7682,-56.9479 276.6489,-63.8923"/>
</g>
<!-- Node79 -->
<g id="node5" class="node">
<title>Node79</title>
<g id="a_node5"><a xlink:href="a00283.html#a994648913ff9d5f7bb83640bd6239d44" target="_top" xlink:title="tCO_Collection\\count">
<polygon fill="#ffffff" stroke="#000000" points="291.3022,-.5 291.3022,-18.5 401.7944,-18.5 401.7944,-.5 291.3022,-.5"/>
<text text-anchor="middle" x="346.5483" y="-6.5" font-family="Helvetica,sans-Serif" font-size="10.00" fill="#000000">tCO_Collection\count</text>
</a>
</g>
</g>
<!-- Node77&#45;&gt;Node79 -->
<g id="edge6" class="edge">
<title>Node77&#45;&gt;Node79</title>
<path fill="none" stroke="#191970" d="M224.1467,-56.4796C241.6677,-47.8143 265.0134,-36.8023 286.2949,-28.5 292.3302,-26.1456 298.7878,-23.8662 305.1516,-21.7525"/>
<polygon fill="#191970" stroke="#191970" points="306.555,-24.9777 315.0006,-18.5806 304.4091,-18.3147 306.555,-24.9777"/>
</g>
<!-- Node78&#45;&gt;Node76 -->
<g id="edge4" class="edge">
<title>Node78&#45;&gt;Node76</title>
<path fill="none" stroke="#191970" d="M397.7945,-65.5798C411.919,-69.4605 427.3814,-73.7088 442.0013,-77.7255"/>
<polygon fill="#191970" stroke="#191970" points="441.3913,-81.1876 451.9613,-80.462 443.2459,-74.4377 441.3913,-81.1876"/>
</g>
</g>
</svg>
