<?xml version="1.0" encoding="UTF-8" standalone="no"?>
<!DOCTYPE svg PUBLIC "-//W3C//DTD SVG 1.1//EN"
 "http://www.w3.org/Graphics/SVG/1.1/DTD/svg11.dtd">
<!-- Generated by graphviz version 2.40.1 (20161225.0304)
 -->
<!-- Title: CO_places_Basalt_Plugin\_get_long_place_description Pages: 1 -->
<!--zoomable 166 -->
<svg id="main" version="1.1" xmlns="http://www.w3.org/2000/svg" xmlns:xlink="http://www.w3.org/1999/xlink" xml:space="preserve" onload="init(evt)">
<style type="text/css"><![CDATA[
.edge:hover path { stroke: red; }
.edge:hover polygon { stroke: red; fill: red; }
]]></style>
<script type="text/javascript"><![CDATA[
var edges = document.getElementsByTagName('g');
if (edges && edges.length) {
  for (var i=0;i<edges.length;i++) {
    if (edges[i].id.substr(0,4)=='edge') {
      edges[i].setAttribute('class','edge');
    }
  }
}
]]></script>
        <defs>
                <circle id="rim" cx="0" cy="0" r="7"/>
                <circle id="rim2" cx="0" cy="0" r="3.5"/>
                <g id="zoomPlus">
                        <use xlink:href="#rim" fill="#404040">
                                <set attributeName="fill" to="#808080" begin="zoomplus.mouseover" end="zoomplus.mouseout"/>
                        </use>
                        <path d="M-4,0h8M0,-4v8" fill="none" stroke="white" stroke-width="1.5" pointer-events="none"/>
                </g>
                <g id="zoomMin">
                        <use xlink:href="#rim" fill="#404040">
                                <set attributeName="fill" to="#808080" begin="zoomminus.mouseover" end="zoomminus.mouseout"/>
                        </use>
                        <path d="M-4,0h8" fill="none" stroke="white" stroke-width="1.5" pointer-events="none"/>
                </g>
                <g id="dirArrow">
                        <path fill="none" stroke="white" stroke-width="1.5" d="M0,-3.0v7 M-2.5,-0.5L0,-3.0L2.5,-0.5"/>
                </g>
               <g id="resetDef">
                       <use xlink:href="#rim2" fill="#404040">
                               <set attributeName="fill" to="#808080" begin="reset.mouseover" end="reset.mouseout"/>
                       </use>
               </g>
        </defs>

<script type="text/javascript">
var viewWidth = 659;
var viewHeight = 166;
var sectionId = 'dynsection-2';
</script>
<script xlink:href="svgpan.js"/>
<svg id="graph" class="graph">
<g id="viewport">
<title>CO_places_Basalt_Plugin\_get_long_place_description</title>
<polygon fill="#ffffff" stroke="transparent" points="-4,4 -4,-162 654.6426,-162 654.6426,4 -4,4"/>
<!-- Node1 -->
<g id="node1" class="node">
<title>Node1</title>
<g id="a_node1"><a xlink:title=" ">
<polygon fill="#bfbfbf" stroke="#000000" points="504.5449,-64.5 504.5449,-92.5 650.6426,-92.5 650.6426,-64.5 504.5449,-64.5"/>
<text text-anchor="start" x="512.5449" y="-80.5" font-family="Helvetica,sans-Serif" font-size="10.00" fill="#000000">CO_places_Basalt_Plugin</text>
<text text-anchor="middle" x="577.5938" y="-70.5" font-family="Helvetica,sans-Serif" font-size="10.00" fill="#000000">\_get_long_place_description</text>
</a>
</g>
</g>
<!-- Node2 -->
<g id="node2" class="node">
<title>Node2</title>
<g id="a_node2"><a xlink:href="a00211.html#a2c37701d39e9e6c8c10f301dced3eb8e" target="_top" xlink:title=" ">
<polygon fill="#ffffff" stroke="#000000" points="168.1816,-129.5 168.1816,-157.5 300.3633,-157.5 300.3633,-129.5 168.1816,-129.5"/>
<text text-anchor="start" x="176.1816" y="-145.5" font-family="Helvetica,sans-Serif" font-size="10.00" fill="#000000">CO_places_Basalt_Plugin</text>
<text text-anchor="middle" x="234.2725" y="-135.5" font-family="Helvetica,sans-Serif" font-size="10.00" fill="#000000">\_process_place_delete</text>
</a>
</g>
</g>
<!-- Node1&#45;&gt;Node2 -->
<g id="edge1" class="edge">
<title>Node1&#45;&gt;Node2</title>
<path fill="none" stroke="#191970" d="M541.9729,-96.9321C521.1309,-106.8408 493.9871,-118.2724 468.5449,-124.5 412.9558,-138.1067 347.961,-142.5072 300.5509,-143.7048"/>
<polygon fill="#191970" stroke="#191970" points="543.6105,-100.0278 551.0768,-92.5108 540.5525,-93.7311 543.6105,-100.0278"/>
</g>
<!-- Node4 -->
<g id="node4" class="node">
<title>Node4</title>
<g id="a_node4"><a xlink:href="a00211.html#a8065697ba33d71f377ff364ce1c36d50" target="_top" xlink:title=" ">
<polygon fill="#ffffff" stroke="#000000" points="336.3633,-86.5 336.3633,-114.5 468.5449,-114.5 468.5449,-86.5 336.3633,-86.5"/>
<text text-anchor="start" x="344.3633" y="-102.5" font-family="Helvetica,sans-Serif" font-size="10.00" fill="#000000">CO_places_Basalt_Plugin</text>
<text text-anchor="middle" x="402.4541" y="-92.5" font-family="Helvetica,sans-Serif" font-size="10.00" fill="#000000">\_process_place_get</text>
</a>
</g>
</g>
<!-- Node1&#45;&gt;Node4 -->
<g id="edge3" class="edge">
<title>Node1&#45;&gt;Node4</title>
<path fill="none" stroke="#191970" d="M494.3034,-88.9624C485.7208,-90.0405 477.0832,-91.1255 468.7215,-92.1759"/>
<polygon fill="#191970" stroke="#191970" points="494.8478,-92.4217 504.3336,-87.7025 493.9753,-85.4762 494.8478,-92.4217"/>
</g>
<!-- Node5 -->
<g id="node5" class="node">
<title>Node5</title>
<g id="a_node5"><a xlink:href="a00211.html#a3b060bbae1171b584997696bc5874a2f" target="_top" xlink:title=" ">
<polygon fill="#ffffff" stroke="#000000" points="168.1816,-43.5 168.1816,-71.5 300.3633,-71.5 300.3633,-43.5 168.1816,-43.5"/>
<text text-anchor="start" x="176.1816" y="-59.5" font-family="Helvetica,sans-Serif" font-size="10.00" fill="#000000">CO_places_Basalt_Plugin</text>
<text text-anchor="middle" x="234.2725" y="-49.5" font-family="Helvetica,sans-Serif" font-size="10.00" fill="#000000">\_process_place_post</text>
</a>
</g>
</g>
<!-- Node1&#45;&gt;Node5 -->
<g id="edge5" class="edge">
<title>Node1&#45;&gt;Node5</title>
<path fill="none" stroke="#191970" d="M494.2325,-73.401C434.6814,-69.7585 355.6485,-64.9242 300.4198,-61.546"/>
<polygon fill="#191970" stroke="#191970" points="494.1688,-76.9036 504.3638,-74.0207 494.5962,-69.9166 494.1688,-76.9036"/>
</g>
<!-- Node6 -->
<g id="node6" class="node">
<title>Node6</title>
<g id="a_node6"><a xlink:href="a00211.html#a021e0e49bd0868754a212795cfe8ebfd" target="_top" xlink:title=" ">
<polygon fill="#ffffff" stroke="#000000" points="336.3633,-.5 336.3633,-28.5 468.5449,-28.5 468.5449,-.5 336.3633,-.5"/>
<text text-anchor="start" x="344.3633" y="-16.5" font-family="Helvetica,sans-Serif" font-size="10.00" fill="#000000">CO_places_Basalt_Plugin</text>
<text text-anchor="middle" x="402.4541" y="-6.5" font-family="Helvetica,sans-Serif" font-size="10.00" fill="#000000">\_process_place_put</text>
</a>
</g>
</g>
<!-- Node1&#45;&gt;Node6 -->
<g id="edge7" class="edge">
<title>Node1&#45;&gt;Node6</title>
<path fill="none" stroke="#191970" d="M529.5848,-60.9565C501.6445,-50.7464 466.9012,-38.0504 440.7996,-28.5123"/>
<polygon fill="#191970" stroke="#191970" points="528.5648,-64.31 539.1586,-64.4549 530.9674,-57.7352 528.5648,-64.31"/>
</g>
<!-- Node3 -->
<g id="node3" class="node">
<title>Node3</title>
<g id="a_node3"><a xlink:href="a00211.html#a66729507ef35bcc83810d707412207fb" target="_top" xlink:title=" ">
<polygon fill="#ffffff" stroke="#000000" points="0,-64.5 0,-92.5 132.1816,-92.5 132.1816,-64.5 0,-64.5"/>
<text text-anchor="start" x="8" y="-80.5" font-family="Helvetica,sans-Serif" font-size="10.00" fill="#000000">CO_places_Basalt_Plugin</text>
<text text-anchor="middle" x="66.0908" y="-70.5" font-family="Helvetica,sans-Serif" font-size="10.00" fill="#000000">\process_command</text>
</a>
</g>
</g>
<!-- Node2&#45;&gt;Node3 -->
<g id="edge2" class="edge">
<title>Node2&#45;&gt;Node3</title>
<path fill="none" stroke="#191970" d="M188.1687,-125.6815C161.1957,-115.2568 127.6208,-102.2805 102.5125,-92.5765"/>
<polygon fill="#191970" stroke="#191970" points="187.1902,-129.0556 197.7795,-129.396 189.7137,-122.5263 187.1902,-129.0556"/>
</g>
<!-- Node4&#45;&gt;Node3 -->
<g id="edge4" class="edge">
<title>Node4&#45;&gt;Node3</title>
<path fill="none" stroke="#191970" d="M325.7319,-95.4819C267.4086,-91.6673 187.997,-86.4733 132.4073,-82.8375"/>
<polygon fill="#191970" stroke="#191970" points="325.7924,-98.9933 335.9995,-96.1535 326.2493,-92.0082 325.7924,-98.9933"/>
</g>
<!-- Node5&#45;&gt;Node3 -->
<g id="edge6" class="edge">
<title>Node5&#45;&gt;Node3</title>
<path fill="none" stroke="#191970" d="M157.8729,-67.0396C149.3546,-68.1033 140.7302,-69.1802 132.3532,-70.2262"/>
<polygon fill="#191970" stroke="#191970" points="158.3134,-70.5119 167.8026,-65.7998 157.446,-63.5658 158.3134,-70.5119"/>
</g>
<!-- Node6&#45;&gt;Node3 -->
<g id="edge9" class="edge">
<title>Node6&#45;&gt;Node3</title>
<path fill="none" stroke="#191970" d="M326.0968,-14.2917C279.7846,-15.7356 219.8514,-20.4141 168.1816,-33.5 140.9554,-40.3953 111.819,-53.9162 91.6709,-64.3451"/>
<polygon fill="#191970" stroke="#191970" points="326.4585,-17.7834 336.3614,-14.0173 326.2714,-10.7858 326.4585,-17.7834"/>
</g>
<!-- Node6&#45;&gt;Node5 -->
<g id="edge8" class="edge">
<title>Node6&#45;&gt;Node5</title>
<path fill="none" stroke="#191970" d="M337.5821,-31.0862C321.599,-35.1727 304.6372,-39.5094 289.1778,-43.462"/>
<polygon fill="#191970" stroke="#191970" points="338.5638,-34.4479 347.3851,-28.5798 336.8298,-27.666 338.5638,-34.4479"/>
</g>
</g>
</svg>
        <g id="navigator" transform="translate(0 0)" fill="#404254">
                <rect fill="#f2f5e9" fill-opacity="0.5" stroke="#606060" stroke-width=".5" x="0" y="0" width="60" height="60"/>
                <use id="zoomplus" xlink:href="#zoomPlus" x="17" y="9" onmousedown="handleZoom(evt,'in')"/>
                <use id="zoomminus" xlink:href="#zoomMin" x="42" y="9" onmousedown="handleZoom(evt,'out')"/>
                <use id="reset" xlink:href="#resetDef" x="30" y="36" onmousedown="handleReset()"/>
                <g id="arrowUp" xlink:href="#dirArrow" transform="translate(30 24)" onmousedown="handlePan(0,-1)">
                  <use xlink:href="#rim" fill="#404040">
                        <set attributeName="fill" to="#808080" begin="arrowUp.mouseover" end="arrowUp.mouseout"/>
                  </use>
                  <path fill="none" stroke="white" stroke-width="1.5" d="M0,-3.0v7 M-2.5,-0.5L0,-3.0L2.5,-0.5"/>
                </g>
                <g id="arrowRight" xlink:href="#dirArrow" transform="rotate(90) translate(36 -43)" onmousedown="handlePan(1,0)">
                  <use xlink:href="#rim" fill="#404040">
                        <set attributeName="fill" to="#808080" begin="arrowRight.mouseover" end="arrowRight.mouseout"/>
                  </use>
                  <path fill="none" stroke="white" stroke-width="1.5" d="M0,-3.0v7 M-2.5,-0.5L0,-3.0L2.5,-0.5"/>
                </g>
                <g id="arrowDown" xlink:href="#dirArrow" transform="rotate(180) translate(-30 -48)" onmousedown="handlePan(0,1)">
                  <use xlink:href="#rim" fill="#404040">
                        <set attributeName="fill" to="#808080" begin="arrowDown.mouseover" end="arrowDown.mouseout"/>
                  </use>
                  <path fill="none" stroke="white" stroke-width="1.5" d="M0,-3.0v7 M-2.5,-0.5L0,-3.0L2.5,-0.5"/>
                </g>
                <g id="arrowLeft" xlink:href="#dirArrow" transform="rotate(270) translate(-36 17)" onmousedown="handlePan(-1,0)">
                  <use xlink:href="#rim" fill="#404040">
                        <set attributeName="fill" to="#808080" begin="arrowLeft.mouseover" end="arrowLeft.mouseout"/>
                  </use>
                  <path fill="none" stroke="white" stroke-width="1.5" d="M0,-3.0v7 M-2.5,-0.5L0,-3.0L2.5,-0.5"/>
                </g>
        </g>
        <svg viewBox="0 0 15 15" width="100%" height="30px" preserveAspectRatio="xMaxYMin meet">
         <g id="arrow_out" transform="scale(0.3 0.3)">
          <a xlink:href="a00211_a3e64096264150499cf5d68bdc4e112e6_icgraph_org.svg" target="_base">
           <rect id="button" ry="5" rx="5" y="6" x="6" height="38" width="38"
                fill="#f2f5e9" fill-opacity="0.5" stroke="#606060" stroke-width="1.0"/>
           <path id="arrow"
             d="M 11.500037,31.436501 C 11.940474,20.09759 22.043105,11.32322 32.158766,21.979434 L 37.068811,17.246167 C 37.068811,17.246167 37.088388,32 37.088388,32 L 22.160133,31.978069 C 22.160133,31.978069 26.997745,27.140456 26.997745,27.140456 C 18.528582,18.264221 13.291696,25.230495 11.500037,31.436501 z"
             style="fill:#404040;"/>
          </a>
         </g>
        </svg>
</svg>
