<?xml version="1.0" encoding="UTF-8" standalone="no"?>
<!DOCTYPE svg PUBLIC "-//W3C//DTD SVG 1.1//EN"
 "http://www.w3.org/Graphics/SVG/1.1/DTD/svg11.dtd">
<!-- Generated by graphviz version 2.40.1 (20161225.0304)
 -->
<!-- Title: CO_Andisol\count_all_login_objects_with_access Pages: 1 -->
<svg width="324pt" height="37pt"
 viewBox="0.00 0.00 324.49 37.00" xmlns="http://www.w3.org/2000/svg" xmlns:xlink="http://www.w3.org/1999/xlink">
<g id="graph0" class="graph" transform="scale(1 1) rotate(0) translate(4 33)">
<title>CO_Andisol\count_all_login_objects_with_access</title>
<polygon fill="#ffffff" stroke="transparent" points="-4,4 -4,-33 320.4863,-33 320.4863,4 -4,4"/>
<!-- Node1 -->
<g id="node1" class="node">
<title>Node1</title>
<g id="a_node1"><a xlink:title=" ">
<polygon fill="#bfbfbf" stroke="#000000" points="0,-.5 0,-28.5 139.9648,-28.5 139.9648,-.5 0,-.5"/>
<text text-anchor="start" x="8" y="-16.5" font-family="Helvetica,sans-Serif" font-size="10.00" fill="#000000">CO_Andisol\count_all</text>
<text text-anchor="middle" x="69.9824" y="-6.5" font-family="Helvetica,sans-Serif" font-size="10.00" fill="#000000">_login_objects_with_access</text>
</a>
</g>
</g>
<!-- Node2 -->
<g id="node2" class="node">
<title>Node2</title>
<g id="a_node2"><a xlink:href="a00219.html#acda267f1d6a8e496e167ed46fe590dc6" target="_top" xlink:title=" ">
<polygon fill="#ffffff" stroke="#000000" points="175.9648,-.5 175.9648,-28.5 316.4863,-28.5 316.4863,-.5 175.9648,-.5"/>
<text text-anchor="start" x="183.9648" y="-16.5" font-family="Helvetica,sans-Serif" font-size="10.00" fill="#000000">CO_Andisol\get_chameleon</text>
<text text-anchor="middle" x="246.2256" y="-6.5" font-family="Helvetica,sans-Serif" font-size="10.00" fill="#000000">_instance</text>
</a>
</g>
</g>
<!-- Node1&#45;&gt;Node2 -->
<g id="edge1" class="edge">
<title>Node1&#45;&gt;Node2</title>
<path fill="none" stroke="#191970" d="M140.1448,-14.5C148.4707,-14.5 157.02,-14.5 165.478,-14.5"/>
<polygon fill="#191970" stroke="#191970" points="165.7286,-18.0001 175.7286,-14.5 165.7286,-11.0001 165.7286,-18.0001"/>
</g>
</g>
</svg>
