<?xml version="1.0" encoding="UTF-8" standalone="no"?>
<!DOCTYPE svg PUBLIC "-//W3C//DTD SVG 1.1//EN"
 "http://www.w3.org/Graphics/SVG/1.1/DTD/svg11.dtd">
<!-- Generated by graphviz version 2.40.1 (20161225.0304)
 -->
<!-- Title: CO_Andisol\current_login Pages: 1 -->
<svg width="741pt" height="89pt"
 viewBox="0.00 0.00 741.18 89.00" xmlns="http://www.w3.org/2000/svg" xmlns:xlink="http://www.w3.org/1999/xlink">
<g id="graph0" class="graph" transform="scale(1 1) rotate(0) translate(4 85)">
<title>CO_Andisol\current_login</title>
<polygon fill="#ffffff" stroke="transparent" points="-4,4 -4,-85 737.1797,-85 737.1797,4 -4,4"/>
<!-- Node90 -->
<g id="node1" class="node">
<title>Node90</title>
<polygon fill="#bfbfbf" stroke="#000000" points="0,-.5 0,-28.5 103.2607,-28.5 103.2607,-.5 0,-.5"/>
<text text-anchor="start" x="8" y="-16.5" font-family="Helvetica,sans-Serif" font-size="10.00" fill="#000000">CO_Andisol\current</text>
<text text-anchor="middle" x="51.6304" y="-6.5" font-family="Helvetica,sans-Serif" font-size="10.00" fill="#000000">_login</text>
</g>
<!-- Node91 -->
<g id="node2" class="node">
<title>Node91</title>
<g id="a_node2"><a xlink:href="a00219.html#a24cb5350928f501bb7567b6b9d7b20cd" target="_top" xlink:title="CO_Andisol\\get_login_item">
<polygon fill="#ffffff" stroke="#000000" points="139.2607,-5.5 139.2607,-23.5 276.4424,-23.5 276.4424,-5.5 139.2607,-5.5"/>
<text text-anchor="middle" x="207.8516" y="-11.5" font-family="Helvetica,sans-Serif" font-size="10.00" fill="#000000">CO_Andisol\get_login_item</text>
</a>
</g>
</g>
<!-- Node90&#45;&gt;Node91 -->
<g id="edge1" class="edge">
<title>Node90&#45;&gt;Node91</title>
<path fill="none" stroke="#191970" d="M103.6498,-14.5C111.8156,-14.5 120.4113,-14.5 129.0187,-14.5"/>
<polygon fill="#191970" stroke="#191970" points="129.1034,-18.0001 139.1033,-14.5 129.1033,-11.0001 129.1034,-18.0001"/>
</g>
<!-- Node92 -->
<g id="node3" class="node">
<title>Node92</title>
<g id="a_node3"><a xlink:href="a00219.html#ac2a2dcb99dc927789b0ffa09c24946de" target="_top" xlink:title="CO_Andisol\\logged_in">
<polygon fill="#ffffff" stroke="#000000" points="312.4424,-24.5 312.4424,-42.5 427.9541,-42.5 427.9541,-24.5 312.4424,-24.5"/>
<text text-anchor="middle" x="370.1982" y="-30.5" font-family="Helvetica,sans-Serif" font-size="10.00" fill="#000000">CO_Andisol\logged_in</text>
</a>
</g>
</g>
<!-- Node91&#45;&gt;Node92 -->
<g id="edge2" class="edge">
<title>Node91&#45;&gt;Node92</title>
<path fill="none" stroke="#191970" d="M276.7012,-22.5577C285.1184,-23.5428 293.7167,-24.5491 302.1226,-25.5329"/>
<polygon fill="#191970" stroke="#191970" points="301.9162,-29.0325 312.2553,-26.7187 302.7299,-22.08 301.9162,-29.0325"/>
</g>
<!-- Node94 -->
<g id="node5" class="node">
<title>Node94</title>
<g id="a_node5"><a xlink:href="a00219.html#acda267f1d6a8e496e167ed46fe590dc6" target="_top" xlink:title="CO_Andisol\\get_chameleon\l_instance">
<polygon fill="#ffffff" stroke="#000000" points="592.6582,-19.5 592.6582,-47.5 733.1797,-47.5 733.1797,-19.5 592.6582,-19.5"/>
<text text-anchor="start" x="600.6582" y="-35.5" font-family="Helvetica,sans-Serif" font-size="10.00" fill="#000000">CO_Andisol\get_chameleon</text>
<text text-anchor="middle" x="662.9189" y="-25.5" font-family="Helvetica,sans-Serif" font-size="10.00" fill="#000000">_instance</text>
</a>
</g>
</g>
<!-- Node91&#45;&gt;Node94 -->
<g id="edge6" class="edge">
<title>Node91&#45;&gt;Node94</title>
<path fill="none" stroke="#191970" d="M276.7802,-13.0742C320.18,-12.5297 377.3641,-12.4579 427.9541,-14.5 479.4673,-16.5794 537.1784,-21.213 582.514,-25.3836"/>
<polygon fill="#191970" stroke="#191970" points="582.2985,-28.8786 592.5799,-26.3207 582.9474,-21.9088 582.2985,-28.8786"/>
</g>
<!-- Node93 -->
<g id="node4" class="node">
<title>Node93</title>
<g id="a_node4"><a xlink:href="a00219.html#a4b0ec12b29ce4812cbb4169b68770f66" target="_top" xlink:title="CO_Andisol\\valid">
<polygon fill="#ffffff" stroke="#000000" points="463.9541,-62.5 463.9541,-80.5 556.6582,-80.5 556.6582,-62.5 463.9541,-62.5"/>
<text text-anchor="middle" x="510.3062" y="-68.5" font-family="Helvetica,sans-Serif" font-size="10.00" fill="#000000">CO_Andisol\valid</text>
</a>
</g>
</g>
<!-- Node92&#45;&gt;Node93 -->
<g id="edge3" class="edge">
<title>Node92&#45;&gt;Node93</title>
<path fill="none" stroke="#191970" d="M403.4019,-42.5055C422.4563,-47.6734 446.5956,-54.2205 467.1125,-59.785"/>
<polygon fill="#191970" stroke="#191970" points="466.2878,-63.1877 476.8553,-62.4275 468.1202,-56.4318 466.2878,-63.1877"/>
</g>
<!-- Node92&#45;&gt;Node94 -->
<g id="edge5" class="edge">
<title>Node92&#45;&gt;Node94</title>
<path fill="none" stroke="#191970" d="M428.0304,-33.5C472.1295,-33.5 533.4042,-33.5 582.3123,-33.5"/>
<polygon fill="#191970" stroke="#191970" points="582.5505,-37.0001 592.5505,-33.5 582.5504,-30.0001 582.5505,-37.0001"/>
</g>
<!-- Node93&#45;&gt;Node94 -->
<g id="edge4" class="edge">
<title>Node93&#45;&gt;Node94</title>
<path fill="none" stroke="#191970" d="M546.4733,-62.4945C561.4309,-58.7701 579.265,-54.3295 596.4259,-50.0565"/>
<polygon fill="#191970" stroke="#191970" points="597.5673,-53.3793 606.4253,-47.5667 595.8759,-46.5867 597.5673,-53.3793"/>
</g>
</g>
</svg>
