<?xml version="1.0" encoding="UTF-8" standalone="no"?>
<!DOCTYPE svg PUBLIC "-//W3C//DTD SVG 1.1//EN"
 "http://www.w3.org/Graphics/SVG/1.1/DTD/svg11.dtd">
<!-- Generated by graphviz version 2.40.1 (20161225.0304)
 -->
<!-- Title: CO_User_Collection\get_lang Pages: 1 -->
<svg width="575pt" height="74pt"
 viewBox="0.00 0.00 574.61 74.00" xmlns="http://www.w3.org/2000/svg" xmlns:xlink="http://www.w3.org/1999/xlink">
<g id="graph0" class="graph" transform="scale(1 1) rotate(0) translate(4 70)">
<title>CO_User_Collection\get_lang</title>
<polygon fill="#ffffff" stroke="transparent" points="-4,4 -4,-70 570.6094,-70 570.6094,4 -4,4"/>
<!-- Node21 -->
<g id="node1" class="node">
<title>Node21</title>
<polygon fill="#bfbfbf" stroke="#000000" points="0,-16.5 0,-44.5 107.1475,-44.5 107.1475,-16.5 0,-16.5"/>
<text text-anchor="start" x="8" y="-32.5" font-family="Helvetica,sans-Serif" font-size="10.00" fill="#000000">CO_User_Collection</text>
<text text-anchor="middle" x="53.5737" y="-22.5" font-family="Helvetica,sans-Serif" font-size="10.00" fill="#000000">\get_lang</text>
</g>
<!-- Node22 -->
<g id="node2" class="node">
<title>Node22</title>
<g id="a_node2"><a xlink:href="a00279.html#a2cc75e169901df4a8fc859f42e0e9f8c" target="_top" xlink:title="CO_User_Collection\l\\get_login_instance">
<polygon fill="#ffffff" stroke="#000000" points="143.1475,-16.5 143.1475,-44.5 250.2949,-44.5 250.2949,-16.5 143.1475,-16.5"/>
<text text-anchor="start" x="151.1475" y="-32.5" font-family="Helvetica,sans-Serif" font-size="10.00" fill="#000000">CO_User_Collection</text>
<text text-anchor="middle" x="196.7212" y="-22.5" font-family="Helvetica,sans-Serif" font-size="10.00" fill="#000000">\get_login_instance</text>
</a>
</g>
</g>
<!-- Node21&#45;&gt;Node22 -->
<g id="edge1" class="edge">
<title>Node21&#45;&gt;Node22</title>
<path fill="none" stroke="#191970" d="M107.2838,-30.5C115.5184,-30.5 124.0899,-30.5 132.5234,-30.5"/>
<polygon fill="#191970" stroke="#191970" points="132.7101,-34.0001 142.7101,-30.5 132.71,-27.0001 132.7101,-34.0001"/>
</g>
<!-- Node23 -->
<g id="node3" class="node">
<title>Node23</title>
<g id="a_node3"><a xlink:href="a00279.html#a67c82465b52bc0d942c84599eb2b62ff" target="_top" xlink:title="CO_User_Collection\l\\_load_login">
<polygon fill="#ffffff" stroke="#000000" points="286.2949,-16.5 286.2949,-44.5 393.4424,-44.5 393.4424,-16.5 286.2949,-16.5"/>
<text text-anchor="start" x="294.2949" y="-32.5" font-family="Helvetica,sans-Serif" font-size="10.00" fill="#000000">CO_User_Collection</text>
<text text-anchor="middle" x="339.8687" y="-22.5" font-family="Helvetica,sans-Serif" font-size="10.00" fill="#000000">\_load_login</text>
</a>
</g>
</g>
<!-- Node22&#45;&gt;Node23 -->
<g id="edge2" class="edge">
<title>Node22&#45;&gt;Node23</title>
<path fill="none" stroke="#191970" d="M250.4313,-30.5C258.6658,-30.5 267.2374,-30.5 275.6709,-30.5"/>
<polygon fill="#191970" stroke="#191970" points="275.8576,-34.0001 285.8575,-30.5 275.8575,-27.0001 275.8576,-34.0001"/>
</g>
<!-- Node24 -->
<g id="node4" class="node">
<title>Node24</title>
<g id="a_node4"><a xlink:href="a00311.html#a8780b40e55827b90bb441671faec2a05" target="_top" xlink:title="A_CO_DB_Table_Base\l\\get_access_object">
<polygon fill="#ffffff" stroke="#000000" points="437.7725,-37.5 437.7725,-65.5 558.2793,-65.5 558.2793,-37.5 437.7725,-37.5"/>
<text text-anchor="start" x="445.7725" y="-53.5" font-family="Helvetica,sans-Serif" font-size="10.00" fill="#000000">A_CO_DB_Table_Base</text>
<text text-anchor="middle" x="498.0259" y="-43.5" font-family="Helvetica,sans-Serif" font-size="10.00" fill="#000000">\get_access_object</text>
</a>
</g>
</g>
<!-- Node23&#45;&gt;Node24 -->
<g id="edge3" class="edge">
<title>Node23&#45;&gt;Node24</title>
<path fill="none" stroke="#191970" d="M393.855,-37.6683C404.7905,-39.1203 416.4402,-40.6671 427.8402,-42.1808"/>
<polygon fill="#191970" stroke="#191970" points="427.3962,-45.6525 437.7699,-43.4993 428.3176,-38.7134 427.3962,-45.6525"/>
</g>
<!-- Node25 -->
<g id="node5" class="node">
<title>Node25</title>
<g id="a_node5"><a xlink:href="a00319.html#a7f4c18f2ed2bda67f3c38fd95c120c0a" target="_top" xlink:title="CO_Main_DB_Record\\tags">
<polygon fill="#ffffff" stroke="#000000" points="429.4424,-.5 429.4424,-18.5 566.6094,-18.5 566.6094,-.5 429.4424,-.5"/>
<text text-anchor="middle" x="498.0259" y="-6.5" font-family="Helvetica,sans-Serif" font-size="10.00" fill="#000000">CO_Main_DB_Record\tags</text>
</a>
</g>
</g>
<!-- Node23&#45;&gt;Node25 -->
<g id="edge4" class="edge">
<title>Node23&#45;&gt;Node25</title>
<path fill="none" stroke="#191970" d="M393.855,-23.3317C402.3073,-22.2094 411.1862,-21.0305 420.0467,-19.854"/>
<polygon fill="#191970" stroke="#191970" points="420.5667,-23.3158 430.019,-18.5299 419.6453,-16.3767 420.5667,-23.3158"/>
</g>
</g>
</svg>
