<?xml version="1.0" encoding="UTF-8" standalone="no"?>
<!DOCTYPE svg PUBLIC "-//W3C//DTD SVG 1.1//EN"
 "http://www.w3.org/Graphics/SVG/1.1/DTD/svg11.dtd">
<!-- Generated by graphviz version 2.40.1 (20161225.0304)
 -->
<!-- Title: CO_Andisol\valid Pages: 1 -->
<!--zoomable 543 -->
<svg id="main" version="1.1" xmlns="http://www.w3.org/2000/svg" xmlns:xlink="http://www.w3.org/1999/xlink" xml:space="preserve" onload="init(evt)">
<style type="text/css"><![CDATA[
.edge:hover path { stroke: red; }
.edge:hover polygon { stroke: red; fill: red; }
]]></style>
<script type="text/javascript"><![CDATA[
var edges = document.getElementsByTagName('g');
if (edges && edges.length) {
  for (var i=0;i<edges.length;i++) {
    if (edges[i].id.substr(0,4)=='edge') {
      edges[i].setAttribute('class','edge');
    }
  }
}
]]></script>
        <defs>
                <circle id="rim" cx="0" cy="0" r="7"/>
                <circle id="rim2" cx="0" cy="0" r="3.5"/>
                <g id="zoomPlus">
                        <use xlink:href="#rim" fill="#404040">
                                <set attributeName="fill" to="#808080" begin="zoomplus.mouseover" end="zoomplus.mouseout"/>
                        </use>
                        <path d="M-4,0h8M0,-4v8" fill="none" stroke="white" stroke-width="1.5" pointer-events="none"/>
                </g>
                <g id="zoomMin">
                        <use xlink:href="#rim" fill="#404040">
                                <set attributeName="fill" to="#808080" begin="zoomminus.mouseover" end="zoomminus.mouseout"/>
                        </use>
                        <path d="M-4,0h8" fill="none" stroke="white" stroke-width="1.5" pointer-events="none"/>
                </g>
                <g id="dirArrow">
                        <path fill="none" stroke="white" stroke-width="1.5" d="M0,-3.0v7 M-2.5,-0.5L0,-3.0L2.5,-0.5"/>
                </g>
               <g id="resetDef">
                       <use xlink:href="#rim2" fill="#404040">
                               <set attributeName="fill" to="#808080" begin="reset.mouseover" end="reset.mouseout"/>
                       </use>
               </g>
        </defs>

<script type="text/javascript">
var viewWidth = 989;
var viewHeight = 543;
var sectionId = 'dynsection-56';
</script>
<script xlink:href="svgpan.js"/>
<svg id="graph" class="graph">
<g id="viewport">
<title>CO_Andisol\valid</title>
<polygon fill="#ffffff" stroke="transparent" points="-4,4 -4,-539 984.8486,-539 984.8486,4 -4,4"/>
<!-- Node371 -->
<g id="node1" class="node">
<title>Node371</title>
<polygon fill="#bfbfbf" stroke="#000000" points="0,-406.5 0,-424.5 92.7041,-424.5 92.7041,-406.5 0,-406.5"/>
<text text-anchor="middle" x="46.3521" y="-412.5" font-family="Helvetica,sans-Serif" font-size="10.00" fill="#000000">CO_Andisol\valid</text>
</g>
<!-- Node372 -->
<g id="node2" class="node">
<title>Node372</title>
<g id="a_node2"><a xlink:href="a00219.html#a5b604eff1331261b2de82f887f2aeb46" target="_top" xlink:title="CO_Andisol\\get_object\l_for_key">
<polygon fill="#ffffff" stroke="#000000" points="128.7041,-448.5 128.7041,-476.5 246.9893,-476.5 246.9893,-448.5 128.7041,-448.5"/>
<text text-anchor="start" x="136.7041" y="-464.5" font-family="Helvetica,sans-Serif" font-size="10.00" fill="#000000">CO_Andisol\get_object</text>
<text text-anchor="middle" x="187.8467" y="-454.5" font-family="Helvetica,sans-Serif" font-size="10.00" fill="#000000">_for_key</text>
</a>
</g>
</g>
<!-- Node371&#45;&gt;Node372 -->
<g id="edge1" class="edge">
<title>Node371&#45;&gt;Node372</title>
<path fill="none" stroke="#191970" d="M83.1953,-427.7381C102.3142,-434.0889 125.7596,-441.8767 145.6092,-448.4701"/>
<polygon fill="#191970" stroke="#191970" points="84.2271,-424.3929 73.6336,-424.5621 82.0205,-431.036 84.2271,-424.3929"/>
</g>
<!-- Node373 -->
<g id="node3" class="node">
<title>Node373</title>
<g id="a_node3"><a xlink:href="a00219.html#ae74e9ff0b94457bbfb80eb93b2f5ade5" target="_top" xlink:title="CO_Andisol\\get_value\l_for_key">
<polygon fill="#ffffff" stroke="#000000" points="130.0933,-401.5 130.0933,-429.5 245.6001,-429.5 245.6001,-401.5 130.0933,-401.5"/>
<text text-anchor="start" x="138.0933" y="-417.5" font-family="Helvetica,sans-Serif" font-size="10.00" fill="#000000">CO_Andisol\get_value</text>
<text text-anchor="middle" x="187.8467" y="-407.5" font-family="Helvetica,sans-Serif" font-size="10.00" fill="#000000">_for_key</text>
</a>
</g>
</g>
<!-- Node371&#45;&gt;Node373 -->
<g id="edge2" class="edge">
<title>Node371&#45;&gt;Node373</title>
<path fill="none" stroke="#191970" d="M103.2657,-415.5C112.0933,-415.5 121.22,-415.5 130.0666,-415.5"/>
<polygon fill="#191970" stroke="#191970" points="103.0749,-412.0001 93.0748,-415.5 103.0748,-419.0001 103.0749,-412.0001"/>
</g>
<!-- Node374 -->
<g id="node4" class="node">
<title>Node374</title>
<g id="a_node4"><a xlink:href="a00219.html#ac2a2dcb99dc927789b0ffa09c24946de" target="_top" xlink:title="CO_Andisol\\logged_in">
<polygon fill="#ffffff" stroke="#000000" points="130.0908,-364.5 130.0908,-382.5 245.6025,-382.5 245.6025,-364.5 130.0908,-364.5"/>
<text text-anchor="middle" x="187.8467" y="-370.5" font-family="Helvetica,sans-Serif" font-size="10.00" fill="#000000">CO_Andisol\logged_in</text>
</a>
</g>
</g>
<!-- Node371&#45;&gt;Node374 -->
<g id="edge3" class="edge">
<title>Node371&#45;&gt;Node374</title>
<path fill="none" stroke="#191970" d="M86.593,-403.5552C108.9752,-396.9115 136.3961,-388.7721 157.0545,-382.6401"/>
<polygon fill="#191970" stroke="#191970" points="85.2968,-400.289 76.7062,-406.4899 87.2888,-406.9996 85.2968,-400.289"/>
</g>
<!-- Node375 -->
<g id="node5" class="node">
<title>Node375</title>
<g id="a_node5"><a xlink:href="a00219.html#a190232857416d5f1e7033452ac1bf6c0" target="_top" xlink:title="CO_Andisol\\_create\l_db_object">
<polygon fill="#ffffff" stroke="#000000" points="298.834,-469.5 298.834,-497.5 404.3262,-497.5 404.3262,-469.5 298.834,-469.5"/>
<text text-anchor="start" x="306.834" y="-485.5" font-family="Helvetica,sans-Serif" font-size="10.00" fill="#000000">CO_Andisol\_create</text>
<text text-anchor="middle" x="351.5801" y="-475.5" font-family="Helvetica,sans-Serif" font-size="10.00" fill="#000000">_db_object</text>
</a>
</g>
</g>
<!-- Node374&#45;&gt;Node375 -->
<g id="edge4" class="edge">
<title>Node374&#45;&gt;Node375</title>
<path fill="none" stroke="#191970" d="M239.2116,-387.0757C241.9674,-388.6864 244.5867,-390.4871 246.9893,-392.5 273.2018,-414.461 256.9166,-438.3731 282.9893,-460.5 287.6815,-464.4822 293.0905,-467.7826 298.7698,-470.5163"/>
<polygon fill="#191970" stroke="#191970" points="240.5595,-383.8379 230.0432,-382.5504 237.4613,-390.1149 240.5595,-383.8379"/>
</g>
<!-- Node383 -->
<g id="node13" class="node">
<title>Node383</title>
<g id="a_node13"><a xlink:href="a00219.html#a3211db47dc4bd5f77983aedc341c0805" target="_top" xlink:title="CO_Andisol\\delete_item\l_by_id">
<polygon fill="#ffffff" stroke="#000000" points="289.6616,-422.5 289.6616,-450.5 413.4985,-450.5 413.4985,-422.5 289.6616,-422.5"/>
<text text-anchor="start" x="297.6616" y="-438.5" font-family="Helvetica,sans-Serif" font-size="10.00" fill="#000000">CO_Andisol\delete_item</text>
<text text-anchor="middle" x="351.5801" y="-428.5" font-family="Helvetica,sans-Serif" font-size="10.00" fill="#000000">_by_id</text>
</a>
</g>
</g>
<!-- Node374&#45;&gt;Node383 -->
<g id="edge12" class="edge">
<title>Node374&#45;&gt;Node383</title>
<path fill="none" stroke="#191970" d="M229.924,-385.7677C235.7326,-387.8219 241.5627,-390.0802 246.9893,-392.5 263.9067,-400.0439 266.12,-405.8489 282.9893,-413.5 290.081,-416.7165 297.7608,-419.7241 305.328,-422.4352"/>
<polygon fill="#191970" stroke="#191970" points="230.838,-382.3825 220.244,-382.5108 228.6058,-389.017 230.838,-382.3825"/>
</g>
<!-- Node384 -->
<g id="node14" class="node">
<title>Node384</title>
<g id="a_node14"><a xlink:href="a00219.html#a24cb5350928f501bb7567b6b9d7b20cd" target="_top" xlink:title="CO_Andisol\\get_login_item">
<polygon fill="#ffffff" stroke="#000000" points="282.9893,-385.5 282.9893,-403.5 420.1709,-403.5 420.1709,-385.5 282.9893,-385.5"/>
<text text-anchor="middle" x="351.5801" y="-391.5" font-family="Helvetica,sans-Serif" font-size="10.00" fill="#000000">CO_Andisol\get_login_item</text>
</a>
</g>
</g>
<!-- Node374&#45;&gt;Node384 -->
<g id="edge13" class="edge">
<title>Node374&#45;&gt;Node384</title>
<path fill="none" stroke="#191970" d="M255.9779,-382.2383C264.8902,-383.3814 274.0261,-384.5531 282.9467,-385.6973"/>
<polygon fill="#191970" stroke="#191970" points="256.398,-378.7636 246.034,-380.9629 255.5074,-385.7067 256.398,-378.7636"/>
</g>
<!-- Node386 -->
<g id="node16" class="node">
<title>Node386</title>
<g id="a_node16"><a xlink:href="a00219.html#a05d1a595153707e3c6f232ba9f766124" target="_top" xlink:title="CO_Andisol\\get_login\l_item_by_login_string">
<polygon fill="#ffffff" stroke="#000000" points="294.9399,-338.5 294.9399,-366.5 408.2202,-366.5 408.2202,-338.5 294.9399,-338.5"/>
<text text-anchor="start" x="302.9399" y="-354.5" font-family="Helvetica,sans-Serif" font-size="10.00" fill="#000000">CO_Andisol\get_login</text>
<text text-anchor="middle" x="351.5801" y="-344.5" font-family="Helvetica,sans-Serif" font-size="10.00" fill="#000000">_item_by_login_string</text>
</a>
</g>
</g>
<!-- Node374&#45;&gt;Node386 -->
<g id="edge15" class="edge">
<title>Node374&#45;&gt;Node386</title>
<path fill="none" stroke="#191970" d="M256.1858,-364.735C268.9968,-363.0919 282.2623,-361.3905 294.6803,-359.7978"/>
<polygon fill="#191970" stroke="#191970" points="255.5074,-361.2933 246.034,-366.0371 256.398,-368.2364 255.5074,-361.2933"/>
</g>
<!-- Node388 -->
<g id="node18" class="node">
<title>Node388</title>
<g id="a_node18"><a xlink:href="a00219.html#af5f39aa13714ad544a9099edb0d51cd5" target="_top" xlink:title="CO_Andisol\\manager">
<polygon fill="#ffffff" stroke="#000000" points="295.7773,-205.5 295.7773,-223.5 407.3828,-223.5 407.3828,-205.5 295.7773,-205.5"/>
<text text-anchor="middle" x="351.5801" y="-211.5" font-family="Helvetica,sans-Serif" font-size="10.00" fill="#000000">CO_Andisol\manager</text>
</a>
</g>
</g>
<!-- Node374&#45;&gt;Node388 -->
<g id="edge17" class="edge">
<title>Node374&#45;&gt;Node388</title>
<path fill="none" stroke="#191970" d="M204.4232,-357.4027C238.4124,-324.3961 315.0663,-249.9582 342.0018,-223.8014"/>
<polygon fill="#191970" stroke="#191970" points="201.8545,-355.0184 197.1188,-364.4959 206.7312,-360.0402 201.8545,-355.0184"/>
</g>
<!-- Node402 -->
<g id="node32" class="node">
<title>Node402</title>
<g id="a_node32"><a xlink:href="a00219.html#a9e01279d8bb11cb25f5477bb75123cba" target="_top" xlink:title="CO_Andisol\\set_value\l_for_key">
<polygon fill="#ffffff" stroke="#000000" points="294.1074,-77.5 294.1074,-105.5 409.0527,-105.5 409.0527,-77.5 294.1074,-77.5"/>
<text text-anchor="start" x="302.1074" y="-93.5" font-family="Helvetica,sans-Serif" font-size="10.00" fill="#000000">CO_Andisol\set_value</text>
<text text-anchor="middle" x="351.5801" y="-83.5" font-family="Helvetica,sans-Serif" font-size="10.00" fill="#000000">_for_key</text>
</a>
</g>
</g>
<!-- Node374&#45;&gt;Node402 -->
<g id="edge32" class="edge">
<title>Node374&#45;&gt;Node402</title>
<path fill="none" stroke="#191970" d="M197.1747,-354.9121C213.662,-322.3488 249.3919,-253.0689 282.9893,-196.5 302.7807,-163.1765 328.2106,-125.4302 341.8695,-105.5222"/>
<polygon fill="#191970" stroke="#191970" points="193.9029,-353.6269 192.5249,-364.1318 200.1531,-356.7791 193.9029,-353.6269"/>
</g>
<!-- Node376 -->
<g id="node6" class="node">
<title>Node376</title>
<g id="a_node6"><a xlink:href="a00219.html#a1783b1403b768959f80f17b08a5e8f82" target="_top" xlink:title="CO_Andisol\\create_general\l_data_item">
<polygon fill="#ffffff" stroke="#000000" points="474.7939,-469.5 474.7939,-497.5 613.6455,-497.5 613.6455,-469.5 474.7939,-469.5"/>
<text text-anchor="start" x="482.7939" y="-485.5" font-family="Helvetica,sans-Serif" font-size="10.00" fill="#000000">CO_Andisol\create_general</text>
<text text-anchor="middle" x="544.2197" y="-475.5" font-family="Helvetica,sans-Serif" font-size="10.00" fill="#000000">_data_item</text>
</a>
</g>
</g>
<!-- Node375&#45;&gt;Node376 -->
<g id="edge5" class="edge">
<title>Node375&#45;&gt;Node376</title>
<path fill="none" stroke="#191970" d="M414.5863,-483.5C433.7394,-483.5 454.8969,-483.5 474.4671,-483.5"/>
<polygon fill="#191970" stroke="#191970" points="414.4745,-480.0001 404.4745,-483.5 414.4745,-487.0001 414.4745,-480.0001"/>
</g>
<!-- Node377 -->
<g id="node7" class="node">
<title>Node377</title>
<g id="a_node7"><a xlink:href="a00219.html#a1432efeebcc0952a1236feec7bbceb13" target="_top" xlink:title="CO_Andisol\\create_collection">
<polygon fill="#ffffff" stroke="#000000" points="668.2686,-516.5 668.2686,-534.5 815.4502,-534.5 815.4502,-516.5 668.2686,-516.5"/>
<text text-anchor="middle" x="741.8594" y="-522.5" font-family="Helvetica,sans-Serif" font-size="10.00" fill="#000000">CO_Andisol\create_collection</text>
</a>
</g>
</g>
<!-- Node376&#45;&gt;Node377 -->
<g id="edge6" class="edge">
<title>Node376&#45;&gt;Node377</title>
<path fill="none" stroke="#191970" d="M620.0933,-499.6237C646.9981,-505.3412 676.3048,-511.5691 699.4237,-516.4821"/>
<polygon fill="#191970" stroke="#191970" points="620.8148,-496.199 610.3056,-497.5438 619.3597,-503.0461 620.8148,-496.199"/>
</g>
<!-- Node378 -->
<g id="node8" class="node">
<title>Node378</title>
<g id="a_node8"><a xlink:href="a00219.html#a24b15c45e28b5a0fb4971c11b4e5ed99" target="_top" xlink:title="CO_Andisol\\create_ll\l_location">
<polygon fill="#ffffff" stroke="#000000" points="686.8916,-469.5 686.8916,-497.5 796.8271,-497.5 796.8271,-469.5 686.8916,-469.5"/>
<text text-anchor="start" x="694.8916" y="-485.5" font-family="Helvetica,sans-Serif" font-size="10.00" fill="#000000">CO_Andisol\create_ll</text>
<text text-anchor="middle" x="741.8594" y="-475.5" font-family="Helvetica,sans-Serif" font-size="10.00" fill="#000000">_location</text>
</a>
</g>
</g>
<!-- Node376&#45;&gt;Node378 -->
<g id="edge7" class="edge">
<title>Node376&#45;&gt;Node378</title>
<path fill="none" stroke="#191970" d="M624.111,-483.5C645.1412,-483.5 667.3596,-483.5 686.7616,-483.5"/>
<polygon fill="#191970" stroke="#191970" points="623.9001,-480.0001 613.9001,-483.5 623.9,-487.0001 623.9001,-480.0001"/>
</g>
<!-- Node379 -->
<g id="node9" class="node">
<title>Node379</title>
<g id="a_node9"><a xlink:href="a00219.html#a79103b0d231d1dcc1f7c1921e5118621" target="_top" xlink:title="CO_Andisol\\create_place">
<polygon fill="#ffffff" stroke="#000000" points="677.1602,-432.5 677.1602,-450.5 806.5586,-450.5 806.5586,-432.5 677.1602,-432.5"/>
<text text-anchor="middle" x="741.8594" y="-438.5" font-family="Helvetica,sans-Serif" font-size="10.00" fill="#000000">CO_Andisol\create_place</text>
</a>
</g>
</g>
<!-- Node376&#45;&gt;Node379 -->
<g id="edge8" class="edge">
<title>Node376&#45;&gt;Node379</title>
<path fill="none" stroke="#191970" d="M620.0933,-467.3763C646.9981,-461.6588 676.3048,-455.4309 699.4237,-450.5179"/>
<polygon fill="#191970" stroke="#191970" points="619.3597,-463.9539 610.3056,-469.4562 620.8148,-470.801 619.3597,-463.9539"/>
</g>
<!-- Node380 -->
<g id="node10" class="node">
<title>Node380</title>
<g id="a_node10"><a xlink:href="a00219.html#a58956fb178766e8d0074dcb138d1e650" target="_top" xlink:title="CO_Andisol\\create_ll\l_place">
<polygon fill="#ffffff" stroke="#000000" points="861.1816,-474.5 861.1816,-502.5 971.1172,-502.5 971.1172,-474.5 861.1816,-474.5"/>
<text text-anchor="start" x="869.1816" y="-490.5" font-family="Helvetica,sans-Serif" font-size="10.00" fill="#000000">CO_Andisol\create_ll</text>
<text text-anchor="middle" x="916.1494" y="-480.5" font-family="Helvetica,sans-Serif" font-size="10.00" fill="#000000">_place</text>
</a>
</g>
</g>
<!-- Node379&#45;&gt;Node380 -->
<g id="edge9" class="edge">
<title>Node379&#45;&gt;Node380</title>
<path fill="none" stroke="#191970" d="M787.3394,-453.1016C796.647,-455.5154 806.3713,-458.066 815.4502,-460.5 832.013,-464.9404 850.0696,-469.918 866.2602,-474.431"/>
<polygon fill="#191970" stroke="#191970" points="788.0111,-449.6603 777.4535,-450.548 786.2604,-456.4379 788.0111,-449.6603"/>
</g>
<!-- Node381 -->
<g id="node11" class="node">
<title>Node381</title>
<g id="a_node11"><a xlink:href="a00219.html#a5f26c529c4b6d41367241db17d114fb5" target="_top" xlink:title="CO_Andisol\\create_ll\l_us_place">
<polygon fill="#ffffff" stroke="#000000" points="861.1816,-427.5 861.1816,-455.5 971.1172,-455.5 971.1172,-427.5 861.1816,-427.5"/>
<text text-anchor="start" x="869.1816" y="-443.5" font-family="Helvetica,sans-Serif" font-size="10.00" fill="#000000">CO_Andisol\create_ll</text>
<text text-anchor="middle" x="916.1494" y="-433.5" font-family="Helvetica,sans-Serif" font-size="10.00" fill="#000000">_us_place</text>
</a>
</g>
</g>
<!-- Node379&#45;&gt;Node381 -->
<g id="edge10" class="edge">
<title>Node379&#45;&gt;Node381</title>
<path fill="none" stroke="#191970" d="M816.8943,-441.5C831.6751,-441.5 846.93,-441.5 860.9132,-441.5"/>
<polygon fill="#191970" stroke="#191970" points="816.7586,-438.0001 806.7586,-441.5 816.7585,-445.0001 816.7586,-438.0001"/>
</g>
<!-- Node382 -->
<g id="node12" class="node">
<title>Node382</title>
<g id="a_node12"><a xlink:href="a00219.html#a492fc0036d5930c325ed14bfcdd5938a" target="_top" xlink:title="CO_Andisol\\create_place\l_collection">
<polygon fill="#ffffff" stroke="#000000" points="851.4502,-380.5 851.4502,-408.5 980.8486,-408.5 980.8486,-380.5 851.4502,-380.5"/>
<text text-anchor="start" x="859.4502" y="-396.5" font-family="Helvetica,sans-Serif" font-size="10.00" fill="#000000">CO_Andisol\create_place</text>
<text text-anchor="middle" x="916.1494" y="-386.5" font-family="Helvetica,sans-Serif" font-size="10.00" fill="#000000">_collection</text>
</a>
</g>
</g>
<!-- Node379&#45;&gt;Node382 -->
<g id="edge11" class="edge">
<title>Node379&#45;&gt;Node382</title>
<path fill="none" stroke="#191970" d="M785.3099,-429.7829C809.1993,-423.3407 838.999,-415.3048 864.1222,-408.5299"/>
<polygon fill="#191970" stroke="#191970" points="784.2081,-426.4549 775.4642,-432.4379 786.0307,-433.2135 784.2081,-426.4549"/>
</g>
<!-- Node385 -->
<g id="node15" class="node">
<title>Node385</title>
<g id="a_node15"><a xlink:href="a00219.html#afa726783f29cadc795d892eb9f825fa1" target="_top" xlink:title="CO_Andisol\\current\l_login">
<polygon fill="#ffffff" stroke="#000000" points="492.5894,-402.5 492.5894,-430.5 595.8501,-430.5 595.8501,-402.5 492.5894,-402.5"/>
<text text-anchor="start" x="500.5894" y="-418.5" font-family="Helvetica,sans-Serif" font-size="10.00" fill="#000000">CO_Andisol\current</text>
<text text-anchor="middle" x="544.2197" y="-408.5" font-family="Helvetica,sans-Serif" font-size="10.00" fill="#000000">_login</text>
</a>
</g>
</g>
<!-- Node384&#45;&gt;Node385 -->
<g id="edge14" class="edge">
<title>Node384&#45;&gt;Node385</title>
<path fill="none" stroke="#191970" d="M430.4675,-403.5092C451.3777,-405.8972 473.422,-408.4147 492.4791,-410.5911"/>
<polygon fill="#191970" stroke="#191970" points="430.6441,-400.0067 420.3116,-402.3493 429.8498,-406.9615 430.6441,-400.0067"/>
</g>
<!-- Node387 -->
<g id="node17" class="node">
<title>Node387</title>
<g id="a_node17"><a xlink:href="a00219.html#a7d4be5fe8eb59e59a6ca94a781980e4f" target="_top" xlink:title="CO_Andisol\\get_user\l_from_login_string">
<polygon fill="#ffffff" stroke="#000000" points="686.3325,-359.5 686.3325,-387.5 797.3862,-387.5 797.3862,-359.5 686.3325,-359.5"/>
<text text-anchor="start" x="694.3325" y="-375.5" font-family="Helvetica,sans-Serif" font-size="10.00" fill="#000000">CO_Andisol\get_user</text>
<text text-anchor="middle" x="741.8594" y="-365.5" font-family="Helvetica,sans-Serif" font-size="10.00" fill="#000000">_from_login_string</text>
</a>
</g>
</g>
<!-- Node386&#45;&gt;Node387 -->
<g id="edge16" class="edge">
<title>Node386&#45;&gt;Node387</title>
<path fill="none" stroke="#191970" d="M418.6837,-356.1107C494.2905,-360.1789 615.8015,-366.7171 686.3046,-370.5107"/>
<polygon fill="#191970" stroke="#191970" points="418.5037,-352.596 408.33,-355.5536 418.1275,-359.5859 418.5037,-352.596"/>
</g>
<!-- Node389 -->
<g id="node19" class="node">
<title>Node389</title>
<g id="a_node19"><a xlink:href="a00219.html#a737ba5cc859a773ab48d09f365fbb4b6" target="_top" xlink:title="CO_Andisol\\_make_security\l_token">
<polygon fill="#ffffff" stroke="#000000" points="473.1362,-158.5 473.1362,-186.5 615.3032,-186.5 615.3032,-158.5 473.1362,-158.5"/>
<text text-anchor="start" x="481.1362" y="-174.5" font-family="Helvetica,sans-Serif" font-size="10.00" fill="#000000">CO_Andisol\_make_security</text>
<text text-anchor="middle" x="544.2197" y="-164.5" font-family="Helvetica,sans-Serif" font-size="10.00" fill="#000000">_token</text>
</a>
</g>
</g>
<!-- Node388&#45;&gt;Node389 -->
<g id="edge18" class="edge">
<title>Node388&#45;&gt;Node389</title>
<path fill="none" stroke="#191970" d="M402.7341,-203.3472C426.3915,-198.1893 454.7479,-192.007 479.8423,-186.5358"/>
<polygon fill="#191970" stroke="#191970" points="401.931,-199.94 392.9061,-205.4899 403.4222,-206.7793 401.931,-199.94"/>
</g>
<!-- Node391 -->
<g id="node21" class="node">
<title>Node391</title>
<g id="a_node21"><a xlink:href="a00219.html#afe9a7dd6ab7e39f73345fa5ecbb177a7" target="_top" xlink:title="CO_Andisol\\create_new_user">
<polygon fill="#ffffff" stroke="#000000" points="469.7939,-121.5 469.7939,-139.5 618.6455,-139.5 618.6455,-121.5 469.7939,-121.5"/>
<text text-anchor="middle" x="544.2197" y="-127.5" font-family="Helvetica,sans-Serif" font-size="10.00" fill="#000000">CO_Andisol\create_new_user</text>
</a>
</g>
</g>
<!-- Node388&#45;&gt;Node391 -->
<g id="edge20" class="edge">
<title>Node388&#45;&gt;Node391</title>
<path fill="none" stroke="#191970" d="M371.1201,-199.1035C391.294,-183.9723 424.2409,-161.3381 456.1709,-148.5 465.2909,-144.8331 475.2545,-141.881 485.0943,-139.5137"/>
<polygon fill="#191970" stroke="#191970" points="368.8684,-196.4191 363.0478,-205.2719 373.1187,-201.9812 368.8684,-196.4191"/>
</g>
<!-- Node392 -->
<g id="node22" class="node">
<title>Node392</title>
<g id="a_node22"><a xlink:href="a00219.html#aa4f45eb1ec9c5acc7709cfd9b08348f3" target="_top" xlink:title="CO_Andisol\\delete_user">
<polygon fill="#ffffff" stroke="#000000" points="482.0205,-84.5 482.0205,-102.5 606.4189,-102.5 606.4189,-84.5 482.0205,-84.5"/>
<text text-anchor="middle" x="544.2197" y="-90.5" font-family="Helvetica,sans-Serif" font-size="10.00" fill="#000000">CO_Andisol\delete_user</text>
</a>
</g>
</g>
<!-- Node388&#45;&gt;Node392 -->
<g id="edge21" class="edge">
<title>Node388&#45;&gt;Node392</title>
<path fill="none" stroke="#191970" d="M364.0722,-197.0157C381.7755,-173.6301 416.4622,-132.6645 456.1709,-111.5 464.1568,-107.2436 473.0437,-103.9919 482.0133,-101.5081"/>
<polygon fill="#191970" stroke="#191970" points="361.0712,-195.1877 357.9479,-205.3118 366.7029,-199.3451 361.0712,-195.1877"/>
</g>
<!-- Node393 -->
<g id="node23" class="node">
<title>Node393</title>
<g id="a_node23"><a xlink:href="a00219.html#ae0e62c8ade9295c9b5a2d3b725f8f222" target="_top" xlink:title="CO_Andisol\\get_all\l_logins">
<polygon fill="#ffffff" stroke="#000000" points="493.417,-37.5 493.417,-65.5 595.0225,-65.5 595.0225,-37.5 493.417,-37.5"/>
<text text-anchor="start" x="501.417" y="-53.5" font-family="Helvetica,sans-Serif" font-size="10.00" fill="#000000">CO_Andisol\get_all</text>
<text text-anchor="middle" x="544.2197" y="-43.5" font-family="Helvetica,sans-Serif" font-size="10.00" fill="#000000">_logins</text>
</a>
</g>
</g>
<!-- Node388&#45;&gt;Node393 -->
<g id="edge22" class="edge">
<title>Node388&#45;&gt;Node393</title>
<path fill="none" stroke="#191970" d="M363.9206,-196.6457C388.8313,-160.8092 443.8092,-82.8188 456.1709,-74.5 467.1813,-67.0906 480.446,-62.0673 493.3001,-58.6619"/>
<polygon fill="#191970" stroke="#191970" points="360.8365,-194.9512 358.0146,-205.1633 366.589,-198.9399 360.8365,-194.9512"/>
</g>
<!-- Node394 -->
<g id="node24" class="node">
<title>Node394</title>
<g id="a_node24"><a xlink:href="a00219.html#a61b9a275c4b8b824d9a2b3aadd421bf7" target="_top" xlink:title="CO_Andisol\\get_user\l_from_login">
<polygon fill="#ffffff" stroke="#000000" points="488.6929,-316.5 488.6929,-344.5 599.7466,-344.5 599.7466,-316.5 488.6929,-316.5"/>
<text text-anchor="start" x="496.6929" y="-332.5" font-family="Helvetica,sans-Serif" font-size="10.00" fill="#000000">CO_Andisol\get_user</text>
<text text-anchor="middle" x="544.2197" y="-322.5" font-family="Helvetica,sans-Serif" font-size="10.00" fill="#000000">_from_login</text>
</a>
</g>
</g>
<!-- Node388&#45;&gt;Node394 -->
<g id="edge23" class="edge">
<title>Node388&#45;&gt;Node394</title>
<path fill="none" stroke="#191970" d="M365.9829,-231.5039C384.6657,-252.4738 419.2614,-287.758 456.1709,-307.5 466.0623,-312.7907 477.2397,-316.9158 488.229,-320.115"/>
<polygon fill="#191970" stroke="#191970" points="368.4131,-228.9655 359.2025,-223.7296 363.1377,-233.5665 368.4131,-228.9655"/>
</g>
<!-- Node396 -->
<g id="node26" class="node">
<title>Node396</title>
<g id="a_node26"><a xlink:href="a00219.html#a370ab6e2bb53c900f25a6005d0e5077d" target="_top" xlink:title="CO_Andisol\\god">
<polygon fill="#ffffff" stroke="#000000" points="499.8086,-279.5 499.8086,-297.5 588.6309,-297.5 588.6309,-279.5 499.8086,-279.5"/>
<text text-anchor="middle" x="544.2197" y="-285.5" font-family="Helvetica,sans-Serif" font-size="10.00" fill="#000000">CO_Andisol\god</text>
</a>
</g>
</g>
<!-- Node388&#45;&gt;Node396 -->
<g id="edge26" class="edge">
<title>Node388&#45;&gt;Node396</title>
<path fill="none" stroke="#191970" d="M374.1568,-229.0798C394.7583,-241.7671 426.4362,-259.7599 456.1709,-270.5 469.9649,-275.4824 485.5003,-279.2327 499.6384,-281.984"/>
<polygon fill="#191970" stroke="#191970" points="375.8502,-226.0107 365.5174,-223.669 372.1347,-231.9432 375.8502,-226.0107"/>
</g>
<!-- Node400 -->
<g id="node30" class="node">
<title>Node400</title>
<g id="a_node30"><a xlink:href="a00219.html#a73ccfd34793c0197e2dc336b44e3577e" target="_top" xlink:title="CO_Andisol\\make_standalone_user">
<polygon fill="#ffffff" stroke="#000000" points="456.1709,-242.5 456.1709,-260.5 632.2686,-260.5 632.2686,-242.5 456.1709,-242.5"/>
<text text-anchor="middle" x="544.2197" y="-248.5" font-family="Helvetica,sans-Serif" font-size="10.00" fill="#000000">CO_Andisol\make_standalone_user</text>
</a>
</g>
</g>
<!-- Node388&#45;&gt;Node400 -->
<g id="edge30" class="edge">
<title>Node388&#45;&gt;Node400</title>
<path fill="none" stroke="#191970" d="M408.8256,-225.4951C437.0179,-230.9099 470.5881,-237.3577 497.2478,-242.4782"/>
<polygon fill="#191970" stroke="#191970" points="409.1857,-222.0003 398.705,-223.5512 407.8653,-228.8747 409.1857,-222.0003"/>
</g>
<!-- Node401 -->
<g id="node31" class="node">
<title>Node401</title>
<g id="a_node31"><a xlink:href="a00219.html#a4a99f9757a91355dd3aca720dcf5a770" target="_top" xlink:title="CO_Andisol\\who_can_see">
<polygon fill="#ffffff" stroke="#000000" points="477.2939,-205.5 477.2939,-223.5 611.1455,-223.5 611.1455,-205.5 477.2939,-205.5"/>
<text text-anchor="middle" x="544.2197" y="-211.5" font-family="Helvetica,sans-Serif" font-size="10.00" fill="#000000">CO_Andisol\who_can_see</text>
</a>
</g>
</g>
<!-- Node388&#45;&gt;Node401 -->
<g id="edge31" class="edge">
<title>Node388&#45;&gt;Node401</title>
<path fill="none" stroke="#191970" d="M417.7227,-214.5C436.9327,-214.5 457.924,-214.5 477.1881,-214.5"/>
<polygon fill="#191970" stroke="#191970" points="417.5582,-211.0001 407.5582,-214.5 417.5582,-218.0001 417.5582,-211.0001"/>
</g>
<!-- Node390 -->
<g id="node20" class="node">
<title>Node390</title>
<g id="a_node20"><a xlink:href="a00219.html#ad0ac8fb3000239301a9f2be905c1a124" target="_top" xlink:title="CO_Andisol\\make_security\l_token">
<polygon fill="#ffffff" stroke="#000000" points="673.5566,-134.5 673.5566,-162.5 810.1621,-162.5 810.1621,-134.5 673.5566,-134.5"/>
<text text-anchor="start" x="681.5566" y="-150.5" font-family="Helvetica,sans-Serif" font-size="10.00" fill="#000000">CO_Andisol\make_security</text>
<text text-anchor="middle" x="741.8594" y="-140.5" font-family="Helvetica,sans-Serif" font-size="10.00" fill="#000000">_token</text>
</a>
</g>
</g>
<!-- Node389&#45;&gt;Node390 -->
<g id="edge19" class="edge">
<title>Node389&#45;&gt;Node390</title>
<path fill="none" stroke="#191970" d="M625.8268,-162.5902C641.5904,-160.676 657.9569,-158.6885 673.2546,-156.8309"/>
<polygon fill="#191970" stroke="#191970" points="625.0773,-159.1554 615.5722,-163.8354 625.9212,-166.1044 625.0773,-159.1554"/>
</g>
<!-- Node394&#45;&gt;Node387 -->
<g id="edge25" class="edge">
<title>Node394&#45;&gt;Node387</title>
<path fill="none" stroke="#191970" d="M609.8041,-344.769C634.4861,-350.1391 662.2991,-356.1903 686.0122,-361.3494"/>
<polygon fill="#191970" stroke="#191970" points="610.3149,-341.2984 599.7993,-342.5923 608.8266,-348.1383 610.3149,-341.2984"/>
</g>
<!-- Node395 -->
<g id="node25" class="node">
<title>Node395</title>
<g id="a_node25"><a xlink:href="a00219.html#a661842aaa6be17af30fbac58b5008c36" target="_top" xlink:title="CO_Andisol\\current_user">
<polygon fill="#ffffff" stroke="#000000" points="677.7217,-322.5 677.7217,-340.5 805.9971,-340.5 805.9971,-322.5 677.7217,-322.5"/>
<text text-anchor="middle" x="741.8594" y="-328.5" font-family="Helvetica,sans-Serif" font-size="10.00" fill="#000000">CO_Andisol\current_user</text>
</a>
</g>
</g>
<!-- Node394&#45;&gt;Node395 -->
<g id="edge24" class="edge">
<title>Node394&#45;&gt;Node395</title>
<path fill="none" stroke="#191970" d="M609.9491,-330.8326C631.7378,-330.9428 655.9528,-331.0653 677.6274,-331.175"/>
<polygon fill="#191970" stroke="#191970" points="609.817,-327.332 599.7993,-330.7812 609.7815,-334.3319 609.817,-327.332"/>
</g>
<!-- Node397 -->
<g id="node27" class="node">
<title>Node397</title>
<g id="a_node27"><a xlink:href="a00219.html#a86bc3621ffe539ac5a9239375f0a786b" target="_top" xlink:title="CO_Andisol\\get_all\l_login_users">
<polygon fill="#ffffff" stroke="#000000" points="691.0566,-275.5 691.0566,-303.5 792.6621,-303.5 792.6621,-275.5 691.0566,-275.5"/>
<text text-anchor="start" x="699.0566" y="-291.5" font-family="Helvetica,sans-Serif" font-size="10.00" fill="#000000">CO_Andisol\get_all</text>
<text text-anchor="middle" x="741.8594" y="-281.5" font-family="Helvetica,sans-Serif" font-size="10.00" fill="#000000">_login_users</text>
</a>
</g>
</g>
<!-- Node396&#45;&gt;Node397 -->
<g id="edge27" class="edge">
<title>Node396&#45;&gt;Node397</title>
<path fill="none" stroke="#191970" d="M599.3341,-288.7789C628.0222,-288.924 662.8645,-289.1003 690.9181,-289.2423"/>
<polygon fill="#191970" stroke="#191970" points="599.0848,-285.2777 589.0672,-288.7269 599.0494,-292.2776 599.0848,-285.2777"/>
</g>
<!-- Node398 -->
<g id="node28" class="node">
<title>Node398</title>
<g id="a_node28"><a xlink:href="a00219.html#acd1e344f9f0087ee41414e6aa5f13e1e" target="_top" xlink:title="CO_Andisol\\get_all\l_standalone_users">
<polygon fill="#ffffff" stroke="#000000" points="691.0566,-228.5 691.0566,-256.5 792.6621,-256.5 792.6621,-228.5 691.0566,-228.5"/>
<text text-anchor="start" x="699.0566" y="-244.5" font-family="Helvetica,sans-Serif" font-size="10.00" fill="#000000">CO_Andisol\get_all</text>
<text text-anchor="middle" x="741.8594" y="-234.5" font-family="Helvetica,sans-Serif" font-size="10.00" fill="#000000">_standalone_users</text>
</a>
</g>
</g>
<!-- Node396&#45;&gt;Node398 -->
<g id="edge28" class="edge">
<title>Node396&#45;&gt;Node398</title>
<path fill="none" stroke="#191970" d="M598.6975,-277.7927C609.8256,-275.4849 621.4414,-272.9883 632.2686,-270.5 651.5027,-266.0796 672.5249,-260.8146 690.9669,-256.0494"/>
<polygon fill="#191970" stroke="#191970" points="597.7443,-274.4153 588.6516,-279.8534 599.1509,-281.2725 597.7443,-274.4153"/>
</g>
<!-- Node399 -->
<g id="node29" class="node">
<title>Node399</title>
<g id="a_node29"><a xlink:href="a00219.html#a9d3578d72df7af2ff07e23ea7b1b1af9" target="_top" xlink:title="CO_Andisol\\get_all\l_users">
<polygon fill="#ffffff" stroke="#000000" points="691.0566,-181.5 691.0566,-209.5 792.6621,-209.5 792.6621,-181.5 691.0566,-181.5"/>
<text text-anchor="start" x="699.0566" y="-197.5" font-family="Helvetica,sans-Serif" font-size="10.00" fill="#000000">CO_Andisol\get_all</text>
<text text-anchor="middle" x="741.8594" y="-187.5" font-family="Helvetica,sans-Serif" font-size="10.00" fill="#000000">_users</text>
</a>
</g>
</g>
<!-- Node396&#45;&gt;Node399 -->
<g id="edge29" class="edge">
<title>Node396&#45;&gt;Node399</title>
<path fill="none" stroke="#191970" d="M598.9678,-283.9172C610.6132,-281.1867 622.3693,-276.9701 632.2686,-270.5 655.4929,-255.3208 645.9433,-235.9731 668.2686,-219.5 674.9729,-214.5531 682.7462,-210.5946 690.6776,-207.436"/>
<polygon fill="#191970" stroke="#191970" points="597.9286,-280.5558 588.8118,-285.9534 599.3047,-287.4193 597.9286,-280.5558"/>
</g>
<!-- Node403 -->
<g id="node33" class="node">
<title>Node403</title>
<g id="a_node33"><a xlink:href="a00219.html#a3a2a831d4194a3ea9b933f98b4ee71f2" target="_top" xlink:title="CO_Andisol\\delete_key">
<polygon fill="#ffffff" stroke="#000000" points="483.9663,-.5 483.9663,-18.5 604.4731,-18.5 604.4731,-.5 483.9663,-.5"/>
<text text-anchor="middle" x="544.2197" y="-6.5" font-family="Helvetica,sans-Serif" font-size="10.00" fill="#000000">CO_Andisol\delete_key</text>
</a>
</g>
</g>
<!-- Node402&#45;&gt;Node403 -->
<g id="edge33" class="edge">
<title>Node402&#45;&gt;Node403</title>
<path fill="none" stroke="#191970" d="M378.3307,-71.5105C398.6866,-57.225 427.9233,-38.6318 456.1709,-27.5 465.4611,-23.8389 475.6092,-20.8834 485.6057,-18.5094"/>
<polygon fill="#191970" stroke="#191970" points="376.281,-68.6734 370.1793,-77.3348 380.3506,-74.3689 376.281,-68.6734"/>
</g>
</g>
</svg>
        <g id="navigator" transform="translate(0 0)" fill="#404254">
                <rect fill="#f2f5e9" fill-opacity="0.5" stroke="#606060" stroke-width=".5" x="0" y="0" width="60" height="60"/>
                <use id="zoomplus" xlink:href="#zoomPlus" x="17" y="9" onmousedown="handleZoom(evt,'in')"/>
                <use id="zoomminus" xlink:href="#zoomMin" x="42" y="9" onmousedown="handleZoom(evt,'out')"/>
                <use id="reset" xlink:href="#resetDef" x="30" y="36" onmousedown="handleReset()"/>
                <g id="arrowUp" xlink:href="#dirArrow" transform="translate(30 24)" onmousedown="handlePan(0,-1)">
                  <use xlink:href="#rim" fill="#404040">
                        <set attributeName="fill" to="#808080" begin="arrowUp.mouseover" end="arrowUp.mouseout"/>
                  </use>
                  <path fill="none" stroke="white" stroke-width="1.5" d="M0,-3.0v7 M-2.5,-0.5L0,-3.0L2.5,-0.5"/>
                </g>
                <g id="arrowRight" xlink:href="#dirArrow" transform="rotate(90) translate(36 -43)" onmousedown="handlePan(1,0)">
                  <use xlink:href="#rim" fill="#404040">
                        <set attributeName="fill" to="#808080" begin="arrowRight.mouseover" end="arrowRight.mouseout"/>
                  </use>
                  <path fill="none" stroke="white" stroke-width="1.5" d="M0,-3.0v7 M-2.5,-0.5L0,-3.0L2.5,-0.5"/>
                </g>
                <g id="arrowDown" xlink:href="#dirArrow" transform="rotate(180) translate(-30 -48)" onmousedown="handlePan(0,1)">
                  <use xlink:href="#rim" fill="#404040">
                        <set attributeName="fill" to="#808080" begin="arrowDown.mouseover" end="arrowDown.mouseout"/>
                  </use>
                  <path fill="none" stroke="white" stroke-width="1.5" d="M0,-3.0v7 M-2.5,-0.5L0,-3.0L2.5,-0.5"/>
                </g>
                <g id="arrowLeft" xlink:href="#dirArrow" transform="rotate(270) translate(-36 17)" onmousedown="handlePan(-1,0)">
                  <use xlink:href="#rim" fill="#404040">
                        <set attributeName="fill" to="#808080" begin="arrowLeft.mouseover" end="arrowLeft.mouseout"/>
                  </use>
                  <path fill="none" stroke="white" stroke-width="1.5" d="M0,-3.0v7 M-2.5,-0.5L0,-3.0L2.5,-0.5"/>
                </g>
        </g>
        <svg viewBox="0 0 15 15" width="100%" height="30px" preserveAspectRatio="xMaxYMin meet">
         <g id="arrow_out" transform="scale(0.3 0.3)">
          <a xlink:href="a00219_a4b0ec12b29ce4812cbb4169b68770f66_icgraph_org.svg" target="_base">
           <rect id="button" ry="5" rx="5" y="6" x="6" height="38" width="38"
                fill="#f2f5e9" fill-opacity="0.5" stroke="#606060" stroke-width="1.0"/>
           <path id="arrow"
             d="M 11.500037,31.436501 C 11.940474,20.09759 22.043105,11.32322 32.158766,21.979434 L 37.068811,17.246167 C 37.068811,17.246167 37.088388,32 37.088388,32 L 22.160133,31.978069 C 22.160133,31.978069 26.997745,27.140456 26.997745,27.140456 C 18.528582,18.264221 13.291696,25.230495 11.500037,31.436501 z"
             style="fill:#404040;"/>
          </a>
         </g>
        </svg>
</svg>
