<?xml version="1.0" encoding="UTF-8" standalone="no"?>
<!DOCTYPE svg PUBLIC "-//W3C//DTD SVG 1.1//EN"
 "http://www.w3.org/Graphics/SVG/1.1/DTD/svg11.dtd">
<!-- Generated by graphviz version 2.40.1 (20161225.0304)
 -->
<!-- Title: CO_Andisol\god Pages: 1 -->
<svg width="702pt" height="90pt"
 viewBox="0.00 0.00 702.27 90.00" xmlns="http://www.w3.org/2000/svg" xmlns:xlink="http://www.w3.org/1999/xlink">
<g id="graph0" class="graph" transform="scale(1 1) rotate(0) translate(4 86)">
<title>CO_Andisol\god</title>
<polygon fill="#ffffff" stroke="transparent" points="-4,4 -4,-86 698.2686,-86 698.2686,4 -4,4"/>
<!-- Node1 -->
<g id="node1" class="node">
<title>Node1</title>
<g id="a_node1"><a xlink:title=" ">
<polygon fill="#bfbfbf" stroke="#000000" points="0,-63.5 0,-81.5 88.8223,-81.5 88.8223,-63.5 0,-63.5"/>
<text text-anchor="middle" x="44.4111" y="-69.5" font-family="Helvetica,sans-Serif" font-size="10.00" fill="#000000">CO_Andisol\god</text>
</a>
</g>
</g>
<!-- Node2 -->
<g id="node2" class="node">
<title>Node2</title>
<g id="a_node2"><a xlink:href="a00216.html#acda267f1d6a8e496e167ed46fe590dc6" target="_top" xlink:title=" ">
<polygon fill="#ffffff" stroke="#000000" points="553.7471,-33.5 553.7471,-61.5 694.2686,-61.5 694.2686,-33.5 553.7471,-33.5"/>
<text text-anchor="start" x="561.7471" y="-49.5" font-family="Helvetica,sans-Serif" font-size="10.00" fill="#000000">CO_Andisol\get_chameleon</text>
<text text-anchor="middle" x="624.0078" y="-39.5" font-family="Helvetica,sans-Serif" font-size="10.00" fill="#000000">_instance</text>
</a>
</g>
</g>
<!-- Node1&#45;&gt;Node2 -->
<g id="edge1" class="edge">
<title>Node1&#45;&gt;Node2</title>
<path fill="none" stroke="#191970" d="M88.9759,-73.0064C134.9381,-73.5015 208.6921,-74.2205 272.4277,-74.5 324.2562,-74.7273 337.2988,-77.4632 389.043,-74.5 440.5886,-71.5481 498.1841,-64.9823 543.4509,-59.0647"/>
<polygon fill="#191970" stroke="#191970" points="544.0474,-62.5164 553.502,-57.735 543.1293,-55.5768 544.0474,-62.5164"/>
</g>
<!-- Node3 -->
<g id="node3" class="node">
<title>Node3</title>
<g id="a_node3"><a xlink:href="a00216.html#af5f39aa13714ad544a9099edb0d51cd5" target="_top" xlink:title=" ">
<polygon fill="#ffffff" stroke="#000000" points="124.8223,-42.5 124.8223,-60.5 236.4277,-60.5 236.4277,-42.5 124.8223,-42.5"/>
<text text-anchor="middle" x="180.625" y="-48.5" font-family="Helvetica,sans-Serif" font-size="10.00" fill="#000000">CO_Andisol\manager</text>
</a>
</g>
</g>
<!-- Node1&#45;&gt;Node3 -->
<g id="edge2" class="edge">
<title>Node1&#45;&gt;Node3</title>
<path fill="none" stroke="#191970" d="M89.0126,-65.6238C97.1547,-64.3686 105.8075,-63.0346 114.4198,-61.7068"/>
<polygon fill="#191970" stroke="#191970" points="115.1283,-65.139 124.4782,-60.1561 114.0617,-58.2208 115.1283,-65.139"/>
</g>
<!-- Node4 -->
<g id="node4" class="node">
<title>Node4</title>
<g id="a_node4"><a xlink:href="a00216.html#a3605f036c8c634afaa74f67e5853a0ad" target="_top" xlink:title=" ">
<polygon fill="#ffffff" stroke="#000000" points="272.4277,-37.5 272.4277,-65.5 389.043,-65.5 389.043,-37.5 272.4277,-37.5"/>
<text text-anchor="start" x="280.4277" y="-53.5" font-family="Helvetica,sans-Serif" font-size="10.00" fill="#000000">CO_Andisol\get_cobra</text>
<text text-anchor="middle" x="330.7354" y="-43.5" font-family="Helvetica,sans-Serif" font-size="10.00" fill="#000000">_instance</text>
</a>
</g>
</g>
<!-- Node3&#45;&gt;Node4 -->
<g id="edge3" class="edge">
<title>Node3&#45;&gt;Node4</title>
<path fill="none" stroke="#191970" d="M236.5206,-51.5C244.9083,-51.5 253.6382,-51.5 262.2517,-51.5"/>
<polygon fill="#191970" stroke="#191970" points="262.2824,-55.0001 272.2824,-51.5 262.2823,-48.0001 262.2824,-55.0001"/>
</g>
<!-- Node5 -->
<g id="node5" class="node">
<title>Node5</title>
<g id="a_node5"><a xlink:href="a00216.html#ac2a2dcb99dc927789b0ffa09c24946de" target="_top" xlink:title=" ">
<polygon fill="#ffffff" stroke="#000000" points="272.9795,-.5 272.9795,-18.5 388.4912,-18.5 388.4912,-.5 272.9795,-.5"/>
<text text-anchor="middle" x="330.7354" y="-6.5" font-family="Helvetica,sans-Serif" font-size="10.00" fill="#000000">CO_Andisol\logged_in</text>
</a>
</g>
</g>
<!-- Node3&#45;&gt;Node5 -->
<g id="edge4" class="edge">
<title>Node3&#45;&gt;Node5</title>
<path fill="none" stroke="#191970" d="M212.8274,-42.4899C234.9134,-36.3104 264.4445,-28.0478 288.4269,-21.3376"/>
<polygon fill="#191970" stroke="#191970" points="289.6405,-24.6326 298.3275,-18.5675 287.7543,-17.8915 289.6405,-24.6326"/>
</g>
<!-- Node5&#45;&gt;Node2 -->
<g id="edge5" class="edge">
<title>Node5&#45;&gt;Node2</title>
<path fill="none" stroke="#191970" d="M373.7931,-18.5486C389.829,-21.6992 408.2181,-25.0536 425.043,-27.5 463.8256,-33.1391 507.0932,-37.6939 543.3492,-41.0241"/>
<polygon fill="#191970" stroke="#191970" points="543.1053,-44.5163 553.3798,-41.9308 543.7355,-37.5447 543.1053,-44.5163"/>
</g>
<!-- Node6 -->
<g id="node6" class="node">
<title>Node6</title>
<g id="a_node6"><a xlink:href="a00216.html#a4b0ec12b29ce4812cbb4169b68770f66" target="_top" xlink:title=" ">
<polygon fill="#ffffff" stroke="#000000" points="425.043,-.5 425.043,-18.5 517.7471,-18.5 517.7471,-.5 425.043,-.5"/>
<text text-anchor="middle" x="471.395" y="-6.5" font-family="Helvetica,sans-Serif" font-size="10.00" fill="#000000">CO_Andisol\valid</text>
</a>
</g>
</g>
<!-- Node5&#45;&gt;Node6 -->
<g id="edge6" class="edge">
<title>Node5&#45;&gt;Node6</title>
<path fill="none" stroke="#191970" d="M388.7591,-9.5C397.2597,-9.5 406.0078,-9.5 414.4858,-9.5"/>
<polygon fill="#191970" stroke="#191970" points="414.6582,-13.0001 424.6582,-9.5 414.6581,-6.0001 414.6582,-13.0001"/>
</g>
<!-- Node6&#45;&gt;Node2 -->
<g id="edge7" class="edge">
<title>Node6&#45;&gt;Node2</title>
<path fill="none" stroke="#191970" d="M507.5621,-18.5055C522.5197,-22.2299 540.3539,-26.6705 557.5148,-30.9435"/>
<polygon fill="#191970" stroke="#191970" points="556.9648,-34.4133 567.5142,-33.4333 558.6561,-27.6207 556.9648,-34.4133"/>
</g>
</g>
</svg>
