<?xml version="1.0" encoding="UTF-8" standalone="no"?>
<!DOCTYPE svg PUBLIC "-//W3C//DTD SVG 1.1//EN"
 "http://www.w3.org/Graphics/SVG/1.1/DTD/svg11.dtd">
<!-- Generated by graphviz version 2.40.1 (20161225.0304)
 -->
<!-- Title: CO_User_Collection\set_tag Pages: 1 -->
<svg width="258pt" height="319pt"
 viewBox="0.00 0.00 258.29 319.00" xmlns="http://www.w3.org/2000/svg" xmlns:xlink="http://www.w3.org/1999/xlink">
<g id="graph0" class="graph" transform="scale(1 1) rotate(0) translate(4 315)">
<title>CO_User_Collection\set_tag</title>
<polygon fill="#ffffff" stroke="transparent" points="-4,4 -4,-315 254.2949,-315 254.2949,4 -4,4"/>
<!-- Node115 -->
<g id="node1" class="node">
<title>Node115</title>
<polygon fill="#bfbfbf" stroke="#000000" points="0,-141.5 0,-169.5 107.1475,-169.5 107.1475,-141.5 0,-141.5"/>
<text text-anchor="start" x="8" y="-157.5" font-family="Helvetica,sans-Serif" font-size="10.00" fill="#000000">CO_User_Collection</text>
<text text-anchor="middle" x="53.5737" y="-147.5" font-family="Helvetica,sans-Serif" font-size="10.00" fill="#000000">\set_tag</text>
</g>
<!-- Node116 -->
<g id="node2" class="node">
<title>Node116</title>
<g id="a_node2"><a xlink:href="a00279.html#ad1254d0e49f000883944fba0b4ce670d" target="_top" xlink:title="CO_User_Collection\l\\set_given_name">
<polygon fill="#ffffff" stroke="#000000" points="143.1475,-282.5 143.1475,-310.5 250.2949,-310.5 250.2949,-282.5 143.1475,-282.5"/>
<text text-anchor="start" x="151.1475" y="-298.5" font-family="Helvetica,sans-Serif" font-size="10.00" fill="#000000">CO_User_Collection</text>
<text text-anchor="middle" x="196.7212" y="-288.5" font-family="Helvetica,sans-Serif" font-size="10.00" fill="#000000">\set_given_name</text>
</a>
</g>
</g>
<!-- Node115&#45;&gt;Node116 -->
<g id="edge1" class="edge">
<title>Node115&#45;&gt;Node116</title>
<path fill="none" stroke="#191970" d="M66.1355,-178.5727C81.3546,-204.6703 109.2195,-246.9771 143.1475,-273.5 147.4536,-276.8663 152.3269,-279.8359 157.3364,-282.4262"/>
<polygon fill="#191970" stroke="#191970" points="69.102,-176.7091 61.1128,-169.7505 63.0188,-180.1725 69.102,-176.7091"/>
</g>
<!-- Node117 -->
<g id="node3" class="node">
<title>Node117</title>
<g id="a_node3"><a xlink:href="a00279.html#a2ba17ba0df27d93adda9eb20d1249338" target="_top" xlink:title="CO_User_Collection\l\\set_login">
<polygon fill="#ffffff" stroke="#000000" points="143.1475,-235.5 143.1475,-263.5 250.2949,-263.5 250.2949,-235.5 143.1475,-235.5"/>
<text text-anchor="start" x="151.1475" y="-251.5" font-family="Helvetica,sans-Serif" font-size="10.00" fill="#000000">CO_User_Collection</text>
<text text-anchor="middle" x="196.7212" y="-241.5" font-family="Helvetica,sans-Serif" font-size="10.00" fill="#000000">\set_login</text>
</a>
</g>
</g>
<!-- Node115&#45;&gt;Node117 -->
<g id="edge2" class="edge">
<title>Node115&#45;&gt;Node117</title>
<path fill="none" stroke="#191970" d="M76.7203,-176.676C94.1064,-191.8557 118.9828,-212.0846 143.1475,-226.5 148.5369,-229.7151 154.4582,-232.7219 160.3376,-235.4328"/>
<polygon fill="#191970" stroke="#191970" points="78.6285,-173.6904 68.823,-169.6774 73.9858,-178.9293 78.6285,-173.6904"/>
</g>
<!-- Node118 -->
<g id="node4" class="node">
<title>Node118</title>
<g id="a_node4"><a xlink:href="a00279.html#a4e60c1e03b490e38e441d4b8dbada19f" target="_top" xlink:title="CO_User_Collection\l\\set_middle_name">
<polygon fill="#ffffff" stroke="#000000" points="143.1475,-188.5 143.1475,-216.5 250.2949,-216.5 250.2949,-188.5 143.1475,-188.5"/>
<text text-anchor="start" x="151.1475" y="-204.5" font-family="Helvetica,sans-Serif" font-size="10.00" fill="#000000">CO_User_Collection</text>
<text text-anchor="middle" x="196.7212" y="-194.5" font-family="Helvetica,sans-Serif" font-size="10.00" fill="#000000">\set_middle_name</text>
</a>
</g>
</g>
<!-- Node115&#45;&gt;Node118 -->
<g id="edge3" class="edge">
<title>Node115&#45;&gt;Node118</title>
<path fill="none" stroke="#191970" d="M106.0945,-172.7443C121.7889,-177.8973 138.8015,-183.4831 153.8025,-188.4084"/>
<polygon fill="#191970" stroke="#191970" points="107.1155,-169.3958 96.5227,-169.6015 104.9318,-176.0465 107.1155,-169.3958"/>
</g>
<!-- Node119 -->
<g id="node5" class="node">
<title>Node119</title>
<g id="a_node5"><a xlink:href="a00279.html#ac70dec96610b3e89b7888a3cab6aef72" target="_top" xlink:title="CO_User_Collection\l\\set_nickname">
<polygon fill="#ffffff" stroke="#000000" points="143.1475,-141.5 143.1475,-169.5 250.2949,-169.5 250.2949,-141.5 143.1475,-141.5"/>
<text text-anchor="start" x="151.1475" y="-157.5" font-family="Helvetica,sans-Serif" font-size="10.00" fill="#000000">CO_User_Collection</text>
<text text-anchor="middle" x="196.7212" y="-147.5" font-family="Helvetica,sans-Serif" font-size="10.00" fill="#000000">\set_nickname</text>
</a>
</g>
</g>
<!-- Node115&#45;&gt;Node119 -->
<g id="edge4" class="edge">
<title>Node115&#45;&gt;Node119</title>
<path fill="none" stroke="#191970" d="M117.4634,-155.5C125.8935,-155.5 134.4674,-155.5 142.7101,-155.5"/>
<polygon fill="#191970" stroke="#191970" points="117.2839,-152.0001 107.2838,-155.5 117.2838,-159.0001 117.2839,-152.0001"/>
</g>
<!-- Node120 -->
<g id="node6" class="node">
<title>Node120</title>
<g id="a_node6"><a xlink:href="a00279.html#adbeef6102042c2ec1530502386a275c4" target="_top" xlink:title="CO_User_Collection\l\\set_prefix">
<polygon fill="#ffffff" stroke="#000000" points="143.1475,-94.5 143.1475,-122.5 250.2949,-122.5 250.2949,-94.5 143.1475,-94.5"/>
<text text-anchor="start" x="151.1475" y="-110.5" font-family="Helvetica,sans-Serif" font-size="10.00" fill="#000000">CO_User_Collection</text>
<text text-anchor="middle" x="196.7212" y="-100.5" font-family="Helvetica,sans-Serif" font-size="10.00" fill="#000000">\set_prefix</text>
</a>
</g>
</g>
<!-- Node115&#45;&gt;Node120 -->
<g id="edge5" class="edge">
<title>Node115&#45;&gt;Node120</title>
<path fill="none" stroke="#191970" d="M106.0945,-138.2557C121.7889,-133.1027 138.8015,-127.5169 153.8025,-122.5916"/>
<polygon fill="#191970" stroke="#191970" points="104.9318,-134.9535 96.5227,-141.3985 107.1155,-141.6042 104.9318,-134.9535"/>
</g>
<!-- Node121 -->
<g id="node7" class="node">
<title>Node121</title>
<g id="a_node7"><a xlink:href="a00279.html#af4643580a79e531d9e78c75c67c21388" target="_top" xlink:title="CO_User_Collection\l\\set_suffix">
<polygon fill="#ffffff" stroke="#000000" points="143.1475,-47.5 143.1475,-75.5 250.2949,-75.5 250.2949,-47.5 143.1475,-47.5"/>
<text text-anchor="start" x="151.1475" y="-63.5" font-family="Helvetica,sans-Serif" font-size="10.00" fill="#000000">CO_User_Collection</text>
<text text-anchor="middle" x="196.7212" y="-53.5" font-family="Helvetica,sans-Serif" font-size="10.00" fill="#000000">\set_suffix</text>
</a>
</g>
</g>
<!-- Node115&#45;&gt;Node121 -->
<g id="edge6" class="edge">
<title>Node115&#45;&gt;Node121</title>
<path fill="none" stroke="#191970" d="M77.154,-134.4882C94.581,-119.6205 119.3219,-99.855 143.1475,-85.5 149.0836,-81.9235 155.6461,-78.5536 162.0835,-75.533"/>
<polygon fill="#191970" stroke="#191970" points="74.4963,-132.1593 69.2225,-141.3483 79.0756,-137.4537 74.4963,-132.1593"/>
</g>
<!-- Node122 -->
<g id="node8" class="node">
<title>Node122</title>
<g id="a_node8"><a xlink:href="a00279.html#a28a62f95bbfbb511f01a2b8a3eb3db6f" target="_top" xlink:title="CO_User_Collection\l\\set_surname">
<polygon fill="#ffffff" stroke="#000000" points="143.1475,-.5 143.1475,-28.5 250.2949,-28.5 250.2949,-.5 143.1475,-.5"/>
<text text-anchor="start" x="151.1475" y="-16.5" font-family="Helvetica,sans-Serif" font-size="10.00" fill="#000000">CO_User_Collection</text>
<text text-anchor="middle" x="196.7212" y="-6.5" font-family="Helvetica,sans-Serif" font-size="10.00" fill="#000000">\set_surname</text>
</a>
</g>
</g>
<!-- Node115&#45;&gt;Node122 -->
<g id="edge7" class="edge">
<title>Node115&#45;&gt;Node122</title>
<path fill="none" stroke="#191970" d="M66.2558,-132.7222C81.5864,-106.9379 109.5545,-65.075 143.1475,-38.5 147.8633,-34.7693 153.2511,-31.4835 158.7505,-28.6356"/>
<polygon fill="#191970" stroke="#191970" points="63.1903,-131.0313 61.1924,-141.4361 69.2428,-134.5482 63.1903,-131.0313"/>
</g>
</g>
</svg>
