<?xml version="1.0" encoding="UTF-8" standalone="no"?>
<!DOCTYPE svg PUBLIC "-//W3C//DTD SVG 1.1//EN"
 "http://www.w3.org/Graphics/SVG/1.1/DTD/svg11.dtd">
<!-- Generated by graphviz version 2.47.1 (20210417.1919)
 -->
<!-- Title: CO_Andisol\_make_security_token Pages: 1 -->
<svg width="748pt" height="97pt"
 viewBox="0.00 0.00 748.00 96.50" xmlns="http://www.w3.org/2000/svg" xmlns:xlink="http://www.w3.org/1999/xlink">
<g id="graph0" class="graph" transform="scale(1 1) rotate(0) translate(4 92.5)">
<title>CO_Andisol\_make_security_token</title>
<polygon fill="white" stroke="transparent" points="-4,4 -4,-92.5 744,-92.5 744,4 -4,4"/>
<!-- Node1 -->
<g id="node1" class="node">
<title>Node1</title>
<g id="a_node1"><a xlink:title=" ">
<polygon fill="#bfbfbf" stroke="black" points="0,-39 0,-69 141,-69 141,-39 0,-39"/>
<text text-anchor="start" x="8" y="-57" font-family="Helvetica,sans-Serif" font-size="10.00">CO_Andisol\_make_security</text>
<text text-anchor="middle" x="70.5" y="-46" font-family="Helvetica,sans-Serif" font-size="10.00">_token</text>
</a>
</g>
</g>
<!-- Node2 -->
<g id="node2" class="node">
<title>Node2</title>
<g id="a_node2"><a xlink:href="a00216.html#a3605f036c8c634afaa74f67e5853a0ad" target="_top" xlink:title=" ">
<polygon fill="white" stroke="black" points="323,-58 323,-88 438,-88 438,-58 323,-58"/>
<text text-anchor="start" x="331" y="-76" font-family="Helvetica,sans-Serif" font-size="10.00">CO_Andisol\get_cobra</text>
<text text-anchor="middle" x="380.5" y="-65" font-family="Helvetica,sans-Serif" font-size="10.00">_instance</text>
</a>
</g>
</g>
<!-- Node1&#45;&gt;Node2 -->
<g id="edge1" class="edge">
<title>Node1&#45;&gt;Node2</title>
<path fill="none" stroke="midnightblue" d="M141.01,-58.29C192.3,-61.45 261.7,-65.73 312.41,-68.86"/>
<polygon fill="midnightblue" stroke="midnightblue" points="312.41,-72.37 322.61,-69.49 312.85,-65.38 312.41,-72.37"/>
</g>
<!-- Node3 -->
<g id="node3" class="node">
<title>Node3</title>
<g id="a_node3"><a xlink:href="a00216.html#af5f39aa13714ad544a9099edb0d51cd5" target="_top" xlink:title=" ">
<polygon fill="white" stroke="black" points="177,-25.5 177,-44.5 287,-44.5 287,-25.5 177,-25.5"/>
<text text-anchor="middle" x="232" y="-32.5" font-family="Helvetica,sans-Serif" font-size="10.00">CO_Andisol\manager</text>
</a>
</g>
</g>
<!-- Node1&#45;&gt;Node3 -->
<g id="edge2" class="edge">
<title>Node1&#45;&gt;Node3</title>
<path fill="none" stroke="midnightblue" d="M141.46,-45.67C149.91,-44.66 158.51,-43.64 166.87,-42.64"/>
<polygon fill="midnightblue" stroke="midnightblue" points="167.41,-46.1 176.92,-41.44 166.58,-39.15 167.41,-46.1"/>
</g>
<!-- Node3&#45;&gt;Node2 -->
<g id="edge3" class="edge">
<title>Node3&#45;&gt;Node2</title>
<path fill="none" stroke="midnightblue" d="M269.97,-44.59C282.98,-47.97 298.05,-51.87 312.76,-55.69"/>
<polygon fill="midnightblue" stroke="midnightblue" points="312.29,-59.18 322.85,-58.31 314.05,-52.41 312.29,-59.18"/>
</g>
<!-- Node4 -->
<g id="node4" class="node">
<title>Node4</title>
<g id="a_node4"><a xlink:href="a00216.html#ac2a2dcb99dc927789b0ffa09c24946de" target="_top" xlink:title=" ">
<polygon fill="white" stroke="black" points="324,-19.5 324,-38.5 437,-38.5 437,-19.5 324,-19.5"/>
<text text-anchor="middle" x="380.5" y="-26.5" font-family="Helvetica,sans-Serif" font-size="10.00">CO_Andisol\logged_in</text>
</a>
</g>
</g>
<!-- Node3&#45;&gt;Node4 -->
<g id="edge4" class="edge">
<title>Node3&#45;&gt;Node4</title>
<path fill="none" stroke="midnightblue" d="M287.13,-32.78C295.69,-32.43 304.62,-32.07 313.4,-31.71"/>
<polygon fill="midnightblue" stroke="midnightblue" points="313.78,-35.19 323.63,-31.29 313.49,-28.2 313.78,-35.19"/>
</g>
<!-- Node5 -->
<g id="node5" class="node">
<title>Node5</title>
<g id="a_node5"><a xlink:href="a00216.html#acda267f1d6a8e496e167ed46fe590dc6" target="_top" xlink:title=" ">
<polygon fill="white" stroke="black" points="602,-14 602,-44 740,-44 740,-14 602,-14"/>
<text text-anchor="start" x="610" y="-32" font-family="Helvetica,sans-Serif" font-size="10.00">CO_Andisol\get_chameleon</text>
<text text-anchor="middle" x="671" y="-21" font-family="Helvetica,sans-Serif" font-size="10.00">_instance</text>
</a>
</g>
</g>
<!-- Node4&#45;&gt;Node5 -->
<g id="edge5" class="edge">
<title>Node4&#45;&gt;Node5</title>
<path fill="none" stroke="midnightblue" d="M437.13,-29C481,-29 542.73,-29 591.61,-29"/>
<polygon fill="midnightblue" stroke="midnightblue" points="591.84,-32.5 601.84,-29 591.84,-25.5 591.84,-32.5"/>
</g>
<!-- Node6 -->
<g id="node6" class="node">
<title>Node6</title>
<g id="a_node6"><a xlink:href="a00216.html#a4b0ec12b29ce4812cbb4169b68770f66" target="_top" xlink:title=" ">
<polygon fill="white" stroke="black" points="474,-0.5 474,-19.5 566,-19.5 566,-0.5 474,-0.5"/>
<text text-anchor="middle" x="520" y="-7.5" font-family="Helvetica,sans-Serif" font-size="10.00">CO_Andisol\valid</text>
</a>
</g>
</g>
<!-- Node4&#45;&gt;Node6 -->
<g id="edge6" class="edge">
<title>Node4&#45;&gt;Node6</title>
<path fill="none" stroke="midnightblue" d="M437.03,-21.33C445.82,-20.11 454.9,-18.86 463.68,-17.64"/>
<polygon fill="midnightblue" stroke="midnightblue" points="464.39,-21.08 473.81,-16.24 463.43,-14.15 464.39,-21.08"/>
</g>
<!-- Node6&#45;&gt;Node5 -->
<g id="edge7" class="edge">
<title>Node6&#45;&gt;Node5</title>
<path fill="none" stroke="midnightblue" d="M566.11,-15.75C574.32,-16.8 583.11,-17.92 591.96,-19.05"/>
<polygon fill="midnightblue" stroke="midnightblue" points="591.59,-22.53 601.95,-20.32 592.47,-15.59 591.59,-22.53"/>
</g>
</g>
</svg>
