<?xml version="1.0" encoding="UTF-8" standalone="no"?>
<!DOCTYPE svg PUBLIC "-//W3C//DTD SVG 1.1//EN"
 "http://www.w3.org/Graphics/SVG/1.1/DTD/svg11.dtd">
<!-- Generated by graphviz version 2.47.1 (20210417.1919)
 -->
<!-- Title: CO_Andisol\get_user_from_login_string Pages: 1 -->
<svg width="864pt" height="134pt"
 viewBox="0.00 0.00 864.00 134.48" xmlns="http://www.w3.org/2000/svg" xmlns:xlink="http://www.w3.org/1999/xlink">
<g id="graph0" class="graph" transform="scale(1 1) rotate(0) translate(4 130.48)">
<title>CO_Andisol\get_user_from_login_string</title>
<polygon fill="white" stroke="transparent" points="-4,4 -4,-130.48 860,-130.48 860,4 -4,4"/>
<!-- Node1 -->
<g id="node1" class="node">
<title>Node1</title>
<g id="a_node1"><a xlink:title=" ">
<polygon fill="#bfbfbf" stroke="black" points="0,-54.98 0,-84.98 110,-84.98 110,-54.98 0,-54.98"/>
<text text-anchor="start" x="8" y="-72.98" font-family="Helvetica,sans-Serif" font-size="10.00">CO_Andisol\get_user</text>
<text text-anchor="middle" x="55" y="-61.98" font-family="Helvetica,sans-Serif" font-size="10.00">_from_login_string</text>
</a>
</g>
</g>
<!-- Node2 -->
<g id="node2" class="node">
<title>Node2</title>
<g id="a_node2"><a xlink:href="a00216.html#a05d1a595153707e3c6f232ba9f766124" target="_top" xlink:title=" ">
<polygon fill="white" stroke="black" points="292,-95.98 292,-125.98 403,-125.98 403,-95.98 292,-95.98"/>
<text text-anchor="start" x="300" y="-113.98" font-family="Helvetica,sans-Serif" font-size="10.00">CO_Andisol\get_login</text>
<text text-anchor="middle" x="347.5" y="-102.98" font-family="Helvetica,sans-Serif" font-size="10.00">_item_by_login_string</text>
</a>
</g>
</g>
<!-- Node1&#45;&gt;Node2 -->
<g id="edge1" class="edge">
<title>Node1&#45;&gt;Node2</title>
<path fill="none" stroke="midnightblue" d="M110.3,-77.65C158.95,-84.51 230.38,-94.59 281.94,-101.87"/>
<polygon fill="midnightblue" stroke="midnightblue" points="281.58,-105.36 291.97,-103.29 282.56,-98.42 281.58,-105.36"/>
</g>
<!-- Node6 -->
<g id="node6" class="node">
<title>Node6</title>
<g id="a_node6"><a xlink:href="a00216.html#a61b9a275c4b8b824d9a2b3aadd421bf7" target="_top" xlink:title=" ">
<polygon fill="white" stroke="black" points="146,-32.98 146,-62.98 256,-62.98 256,-32.98 146,-32.98"/>
<text text-anchor="start" x="154" y="-50.98" font-family="Helvetica,sans-Serif" font-size="10.00">CO_Andisol\get_user</text>
<text text-anchor="middle" x="201" y="-39.98" font-family="Helvetica,sans-Serif" font-size="10.00">_from_login</text>
</a>
</g>
</g>
<!-- Node1&#45;&gt;Node6 -->
<g id="edge7" class="edge">
<title>Node1&#45;&gt;Node6</title>
<path fill="none" stroke="midnightblue" d="M110.03,-61.73C118.4,-60.45 127.13,-59.12 135.7,-57.81"/>
<polygon fill="midnightblue" stroke="midnightblue" points="136.31,-61.25 145.67,-56.28 135.25,-54.33 136.31,-61.25"/>
</g>
<!-- Node3 -->
<g id="node3" class="node">
<title>Node3</title>
<g id="a_node3"><a xlink:href="a00216.html#acda267f1d6a8e496e167ed46fe590dc6" target="_top" xlink:title=" ">
<polygon fill="white" stroke="black" points="718,-41.98 718,-71.98 856,-71.98 856,-41.98 718,-41.98"/>
<text text-anchor="start" x="726" y="-59.98" font-family="Helvetica,sans-Serif" font-size="10.00">CO_Andisol\get_chameleon</text>
<text text-anchor="middle" x="787" y="-48.98" font-family="Helvetica,sans-Serif" font-size="10.00">_instance</text>
</a>
</g>
</g>
<!-- Node2&#45;&gt;Node3 -->
<g id="edge2" class="edge">
<title>Node2&#45;&gt;Node3</title>
<path fill="none" stroke="midnightblue" d="M403.13,-108.69C469.47,-105.31 584.56,-97.5 682,-80.98 693.16,-79.09 704.92,-76.74 716.36,-74.25"/>
<polygon fill="midnightblue" stroke="midnightblue" points="717.3,-77.62 726.3,-72.03 715.78,-70.79 717.3,-77.62"/>
</g>
<!-- Node4 -->
<g id="node4" class="node">
<title>Node4</title>
<g id="a_node4"><a xlink:href="a00216.html#ac2a2dcb99dc927789b0ffa09c24946de" target="_top" xlink:title=" ">
<polygon fill="white" stroke="black" points="440,-66.48 440,-85.48 553,-85.48 553,-66.48 440,-66.48"/>
<text text-anchor="middle" x="496.5" y="-73.48" font-family="Helvetica,sans-Serif" font-size="10.00">CO_Andisol\logged_in</text>
</a>
</g>
</g>
<!-- Node2&#45;&gt;Node4 -->
<g id="edge3" class="edge">
<title>Node2&#45;&gt;Node4</title>
<path fill="none" stroke="midnightblue" d="M403.24,-97.95C417.03,-94.67 431.76,-91.16 445.32,-87.93"/>
<polygon fill="midnightblue" stroke="midnightblue" points="446.5,-91.25 455.42,-85.53 444.88,-84.44 446.5,-91.25"/>
</g>
<!-- Node4&#45;&gt;Node3 -->
<g id="edge4" class="edge">
<title>Node4&#45;&gt;Node3</title>
<path fill="none" stroke="midnightblue" d="M553.13,-72.32C597,-69.43 658.73,-65.37 707.61,-62.15"/>
<polygon fill="midnightblue" stroke="midnightblue" points="708.09,-65.62 717.84,-61.47 707.63,-58.64 708.09,-65.62"/>
</g>
<!-- Node5 -->
<g id="node5" class="node">
<title>Node5</title>
<g id="a_node5"><a xlink:href="a00216.html#a4b0ec12b29ce4812cbb4169b68770f66" target="_top" xlink:title=" ">
<polygon fill="white" stroke="black" points="590,-28.48 590,-47.48 682,-47.48 682,-28.48 590,-28.48"/>
<text text-anchor="middle" x="636" y="-35.48" font-family="Helvetica,sans-Serif" font-size="10.00">CO_Andisol\valid</text>
</a>
</g>
</g>
<!-- Node4&#45;&gt;Node5 -->
<g id="edge5" class="edge">
<title>Node4&#45;&gt;Node5</title>
<path fill="none" stroke="midnightblue" d="M532.2,-66.39C549.87,-61.51 571.55,-55.52 590.44,-50.3"/>
<polygon fill="midnightblue" stroke="midnightblue" points="591.61,-53.61 600.31,-47.57 589.74,-46.86 591.61,-53.61"/>
</g>
<!-- Node5&#45;&gt;Node3 -->
<g id="edge6" class="edge">
<title>Node5&#45;&gt;Node3</title>
<path fill="none" stroke="midnightblue" d="M682.11,-43.74C690.32,-44.78 699.11,-45.9 707.96,-47.03"/>
<polygon fill="midnightblue" stroke="midnightblue" points="707.59,-50.51 717.95,-48.31 708.47,-43.57 707.59,-50.51"/>
</g>
<!-- Node6&#45;&gt;Node3 -->
<g id="edge8" class="edge">
<title>Node6&#45;&gt;Node3</title>
<path fill="none" stroke="midnightblue" d="M256.25,-35.87C304.07,-25.85 375.76,-12.41 439,-6.98 546.74,2.27 576.52,4.81 682,-18.98 702.19,-23.54 723.79,-30.98 742.04,-38.08"/>
<polygon fill="midnightblue" stroke="midnightblue" points="740.95,-41.41 751.53,-41.85 743.53,-34.91 740.95,-41.41"/>
</g>
<!-- Node7 -->
<g id="node7" class="node">
<title>Node7</title>
<g id="a_node7"><a xlink:href="a00216.html#a3605f036c8c634afaa74f67e5853a0ad" target="_top" xlink:title=" ">
<polygon fill="white" stroke="black" points="439,-16.98 439,-46.98 554,-46.98 554,-16.98 439,-16.98"/>
<text text-anchor="start" x="447" y="-34.98" font-family="Helvetica,sans-Serif" font-size="10.00">CO_Andisol\get_cobra</text>
<text text-anchor="middle" x="496.5" y="-23.98" font-family="Helvetica,sans-Serif" font-size="10.00">_instance</text>
</a>
</g>
</g>
<!-- Node6&#45;&gt;Node7 -->
<g id="edge9" class="edge">
<title>Node6&#45;&gt;Node7</title>
<path fill="none" stroke="midnightblue" d="M256.17,-45.03C304.86,-42.38 376.51,-38.47 428.72,-35.62"/>
<polygon fill="midnightblue" stroke="midnightblue" points="429.1,-39.11 438.89,-35.07 428.71,-32.12 429.1,-39.11"/>
</g>
<!-- Node8 -->
<g id="node8" class="node">
<title>Node8</title>
<g id="a_node8"><a xlink:href="a00216.html#af5f39aa13714ad544a9099edb0d51cd5" target="_top" xlink:title=" ">
<polygon fill="white" stroke="black" points="292.5,-57.48 292.5,-76.48 402.5,-76.48 402.5,-57.48 292.5,-57.48"/>
<text text-anchor="middle" x="347.5" y="-64.48" font-family="Helvetica,sans-Serif" font-size="10.00">CO_Andisol\manager</text>
</a>
</g>
</g>
<!-- Node6&#45;&gt;Node8 -->
<g id="edge10" class="edge">
<title>Node6&#45;&gt;Node8</title>
<path fill="none" stroke="midnightblue" d="M256.22,-55.11C264.74,-56.23 273.61,-57.4 282.33,-58.55"/>
<polygon fill="midnightblue" stroke="midnightblue" points="282.09,-62.04 292.46,-59.88 283,-55.1 282.09,-62.04"/>
</g>
<!-- Node8&#45;&gt;Node4 -->
<g id="edge12" class="edge">
<title>Node8&#45;&gt;Node4</title>
<path fill="none" stroke="midnightblue" d="M402.82,-70.31C411.61,-70.85 420.8,-71.41 429.83,-71.96"/>
<polygon fill="midnightblue" stroke="midnightblue" points="429.73,-75.46 439.93,-72.58 430.16,-68.48 429.73,-75.46"/>
</g>
<!-- Node8&#45;&gt;Node7 -->
<g id="edge11" class="edge">
<title>Node8&#45;&gt;Node7</title>
<path fill="none" stroke="midnightblue" d="M388.67,-57.42C401.12,-54.46 415.19,-51.11 428.93,-47.83"/>
<polygon fill="midnightblue" stroke="midnightblue" points="429.93,-51.19 438.85,-45.47 428.31,-44.38 429.93,-51.19"/>
</g>
</g>
</svg>
