<?xml version="1.0" encoding="UTF-8" standalone="no"?>
<!DOCTYPE svg PUBLIC "-//W3C//DTD SVG 1.1//EN"
 "http://www.w3.org/Graphics/SVG/1.1/DTD/svg11.dtd">
<!-- Generated by graphviz version 2.40.1 (20161225.0304)
 -->
<!-- Title: CO_Andisol\can_i_see_this_data_record Pages: 1 -->
<svg width="273pt" height="37pt"
 viewBox="0.00 0.00 272.79 37.00" xmlns="http://www.w3.org/2000/svg" xmlns:xlink="http://www.w3.org/1999/xlink">
<g id="graph0" class="graph" transform="scale(1 1) rotate(0) translate(4 33)">
<title>CO_Andisol\can_i_see_this_data_record</title>
<polygon fill="#ffffff" stroke="transparent" points="-4,4 -4,-33 268.792,-33 268.792,4 -4,4"/>
<!-- Node1 -->
<g id="node1" class="node">
<title>Node1</title>
<g id="a_node1"><a xlink:title=" ">
<polygon fill="#bfbfbf" stroke="#000000" points="147.0635,-.5 147.0635,-28.5 264.792,-28.5 264.792,-.5 147.0635,-.5"/>
<text text-anchor="start" x="155.0635" y="-16.5" font-family="Helvetica,sans-Serif" font-size="10.00" fill="#000000">CO_Andisol\can_i_see</text>
<text text-anchor="middle" x="205.9277" y="-6.5" font-family="Helvetica,sans-Serif" font-size="10.00" fill="#000000">_this_data_record</text>
</a>
</g>
</g>
<!-- Node2 -->
<g id="node2" class="node">
<title>Node2</title>
<g id="a_node2"><a xlink:href="a00216.html#afa416dad9e1a0be19034df250eb4c277" target="_top" xlink:title=" ">
<polygon fill="#ffffff" stroke="#000000" points="0,-.5 0,-28.5 111.0635,-28.5 111.0635,-.5 0,-.5"/>
<text text-anchor="start" x="8" y="-16.5" font-family="Helvetica,sans-Serif" font-size="10.00" fill="#000000">CO_Andisol\get_data</text>
<text text-anchor="middle" x="55.5317" y="-6.5" font-family="Helvetica,sans-Serif" font-size="10.00" fill="#000000">_access_class_by_id</text>
</a>
</g>
</g>
<!-- Node1&#45;&gt;Node2 -->
<g id="edge1" class="edge">
<title>Node1&#45;&gt;Node2</title>
<path fill="none" stroke="#191970" d="M136.677,-14.5C128.2156,-14.5 119.6532,-14.5 111.4218,-14.5"/>
<polygon fill="#191970" stroke="#191970" points="136.9189,-18.0001 146.9189,-14.5 136.9189,-11.0001 136.9189,-18.0001"/>
</g>
</g>
</svg>
