<?xml version="1.0" encoding="UTF-8" standalone="no"?>
<!DOCTYPE svg PUBLIC "-//W3C//DTD SVG 1.1//EN"
 "http://www.w3.org/Graphics/SVG/1.1/DTD/svg11.dtd">
<!-- Generated by graphviz version 2.40.1 (20161225.0304)
 -->
<!-- Title: CO_Andisol\make_standalone_user Pages: 1 -->
<!--zoomable 93 -->
<svg id="main" version="1.1" xmlns="http://www.w3.org/2000/svg" xmlns:xlink="http://www.w3.org/1999/xlink" xml:space="preserve" onload="init(evt)">
<style type="text/css"><![CDATA[
.edge:hover path { stroke: red; }
.edge:hover polygon { stroke: red; fill: red; }
]]></style>
<script type="text/javascript"><![CDATA[
var edges = document.getElementsByTagName('g');
if (edges && edges.length) {
  for (var i=0;i<edges.length;i++) {
    if (edges[i].id.substr(0,4)=='edge') {
      edges[i].setAttribute('class','edge');
    }
  }
}
]]></script>
        <defs>
                <circle id="rim" cx="0" cy="0" r="7"/>
                <circle id="rim2" cx="0" cy="0" r="3.5"/>
                <g id="zoomPlus">
                        <use xlink:href="#rim" fill="#404040">
                                <set attributeName="fill" to="#808080" begin="zoomplus.mouseover" end="zoomplus.mouseout"/>
                        </use>
                        <path d="M-4,0h8M0,-4v8" fill="none" stroke="white" stroke-width="1.5" pointer-events="none"/>
                </g>
                <g id="zoomMin">
                        <use xlink:href="#rim" fill="#404040">
                                <set attributeName="fill" to="#808080" begin="zoomminus.mouseover" end="zoomminus.mouseout"/>
                        </use>
                        <path d="M-4,0h8" fill="none" stroke="white" stroke-width="1.5" pointer-events="none"/>
                </g>
                <g id="dirArrow">
                        <path fill="none" stroke="white" stroke-width="1.5" d="M0,-3.0v7 M-2.5,-0.5L0,-3.0L2.5,-0.5"/>
                </g>
               <g id="resetDef">
                       <use xlink:href="#rim2" fill="#404040">
                               <set attributeName="fill" to="#808080" begin="reset.mouseover" end="reset.mouseout"/>
                       </use>
               </g>
        </defs>

<script type="text/javascript">
var viewWidth = 790;
var viewHeight = 93;
var sectionId = 'dynsection-50';
</script>
<script xlink:href="svgpan.js"/>
<svg id="graph" class="graph">
<g id="viewport">
<title>CO_Andisol\make_standalone_user</title>
<polygon fill="#ffffff" stroke="transparent" points="-4,4 -4,-89 785.5439,-89 785.5439,4 -4,4"/>
<!-- Node334 -->
<g id="node1" class="node">
<title>Node334</title>
<polygon fill="#bfbfbf" stroke="#000000" points="0,-42.5 0,-60.5 176.0977,-60.5 176.0977,-42.5 0,-42.5"/>
<text text-anchor="middle" x="88.0488" y="-48.5" font-family="Helvetica,sans-Serif" font-size="10.00" fill="#000000">CO_Andisol\make_standalone_user</text>
</g>
<!-- Node335 -->
<g id="node2" class="node">
<title>Node335</title>
<g id="a_node2"><a xlink:href="a00219.html#a3605f036c8c634afaa74f67e5853a0ad" target="_top" xlink:title="CO_Andisol\\get_cobra\l_instance">
<polygon fill="#ffffff" stroke="#000000" points="359.7031,-56.5 359.7031,-84.5 476.3184,-84.5 476.3184,-56.5 359.7031,-56.5"/>
<text text-anchor="start" x="367.7031" y="-72.5" font-family="Helvetica,sans-Serif" font-size="10.00" fill="#000000">CO_Andisol\get_cobra</text>
<text text-anchor="middle" x="418.0107" y="-62.5" font-family="Helvetica,sans-Serif" font-size="10.00" fill="#000000">_instance</text>
</a>
</g>
</g>
<!-- Node334&#45;&gt;Node335 -->
<g id="edge1" class="edge">
<title>Node334&#45;&gt;Node335</title>
<path fill="none" stroke="#191970" d="M176.4726,-56.5917C230.7646,-59.7179 299.269,-63.6626 349.4441,-66.5518"/>
<polygon fill="#191970" stroke="#191970" points="349.358,-70.0525 359.5427,-67.1333 349.7605,-63.0641 349.358,-70.0525"/>
</g>
<!-- Node336 -->
<g id="node3" class="node">
<title>Node336</title>
<g id="a_node3"><a xlink:href="a00219.html#af5f39aa13714ad544a9099edb0d51cd5" target="_top" xlink:title="CO_Andisol\\manager">
<polygon fill="#ffffff" stroke="#000000" points="212.0977,-23.5 212.0977,-41.5 323.7031,-41.5 323.7031,-23.5 212.0977,-23.5"/>
<text text-anchor="middle" x="267.9004" y="-29.5" font-family="Helvetica,sans-Serif" font-size="10.00" fill="#000000">CO_Andisol\manager</text>
</a>
</g>
</g>
<!-- Node334&#45;&gt;Node336 -->
<g id="edge2" class="edge">
<title>Node334&#45;&gt;Node336</title>
<path fill="none" stroke="#191970" d="M173.4975,-42.473C182.9801,-41.4712 192.5292,-40.4624 201.7217,-39.4913"/>
<polygon fill="#191970" stroke="#191970" points="202.3494,-42.9446 211.9263,-38.4133 201.6139,-35.9833 202.3494,-42.9446"/>
</g>
<!-- Node336&#45;&gt;Node335 -->
<g id="edge7" class="edge">
<title>Node336&#45;&gt;Node335</title>
<path fill="none" stroke="#191970" d="M303.4744,-41.5055C318.1868,-45.2299 335.7285,-49.6705 352.608,-53.9435"/>
<polygon fill="#191970" stroke="#191970" points="351.8903,-57.3721 362.4434,-56.4333 353.6082,-50.5862 351.8903,-57.3721"/>
</g>
<!-- Node337 -->
<g id="node4" class="node">
<title>Node337</title>
<g id="a_node4"><a xlink:href="a00219.html#ac2a2dcb99dc927789b0ffa09c24946de" target="_top" xlink:title="CO_Andisol\\logged_in">
<polygon fill="#ffffff" stroke="#000000" points="360.2549,-19.5 360.2549,-37.5 475.7666,-37.5 475.7666,-19.5 360.2549,-19.5"/>
<text text-anchor="middle" x="418.0107" y="-25.5" font-family="Helvetica,sans-Serif" font-size="10.00" fill="#000000">CO_Andisol\logged_in</text>
</a>
</g>
</g>
<!-- Node336&#45;&gt;Node337 -->
<g id="edge3" class="edge">
<title>Node336&#45;&gt;Node337</title>
<path fill="none" stroke="#191970" d="M323.7959,-31.0105C332.3035,-30.7838 341.1631,-30.5478 349.8962,-30.3151"/>
<polygon fill="#191970" stroke="#191970" points="350.1582,-33.8094 360.0614,-30.0442 349.9717,-26.8119 350.1582,-33.8094"/>
</g>
<!-- Node338 -->
<g id="node5" class="node">
<title>Node338</title>
<g id="a_node5"><a xlink:href="a00219.html#acda267f1d6a8e496e167ed46fe590dc6" target="_top" xlink:title="CO_Andisol\\get_chameleon\l_instance">
<polygon fill="#ffffff" stroke="#000000" points="641.0225,-14.5 641.0225,-42.5 781.5439,-42.5 781.5439,-14.5 641.0225,-14.5"/>
<text text-anchor="start" x="649.0225" y="-30.5" font-family="Helvetica,sans-Serif" font-size="10.00" fill="#000000">CO_Andisol\get_chameleon</text>
<text text-anchor="middle" x="711.2832" y="-20.5" font-family="Helvetica,sans-Serif" font-size="10.00" fill="#000000">_instance</text>
</a>
</g>
</g>
<!-- Node337&#45;&gt;Node338 -->
<g id="edge4" class="edge">
<title>Node337&#45;&gt;Node338</title>
<path fill="none" stroke="#191970" d="M475.9519,-28.5C520.1342,-28.5 581.5243,-28.5 630.5246,-28.5"/>
<polygon fill="#191970" stroke="#191970" points="630.7821,-32.0001 640.7821,-28.5 630.7821,-25.0001 630.7821,-32.0001"/>
</g>
<!-- Node339 -->
<g id="node6" class="node">
<title>Node339</title>
<g id="a_node6"><a xlink:href="a00219.html#a4b0ec12b29ce4812cbb4169b68770f66" target="_top" xlink:title="CO_Andisol\\valid">
<polygon fill="#ffffff" stroke="#000000" points="512.3184,-.5 512.3184,-18.5 605.0225,-18.5 605.0225,-.5 512.3184,-.5"/>
<text text-anchor="middle" x="558.6704" y="-6.5" font-family="Helvetica,sans-Serif" font-size="10.00" fill="#000000">CO_Andisol\valid</text>
</a>
</g>
</g>
<!-- Node337&#45;&gt;Node339 -->
<g id="edge5" class="edge">
<title>Node337&#45;&gt;Node339</title>
<path fill="none" stroke="#191970" d="M476.0345,-20.6623C484.5351,-19.514 493.2832,-18.3324 501.7612,-17.1872"/>
<polygon fill="#191970" stroke="#191970" points="502.4921,-20.6203 511.9335,-15.8131 501.555,-13.6833 502.4921,-20.6203"/>
</g>
<!-- Node339&#45;&gt;Node338 -->
<g id="edge6" class="edge">
<title>Node339&#45;&gt;Node338</title>
<path fill="none" stroke="#191970" d="M605.2885,-15.3039C613.353,-16.3079 621.9416,-17.3771 630.6057,-18.4558"/>
<polygon fill="#191970" stroke="#191970" points="630.4284,-21.9607 640.7842,-19.723 631.2933,-15.0143 630.4284,-21.9607"/>
</g>
</g>
</svg>
        <g id="navigator" transform="translate(0 0)" fill="#404254">
                <rect fill="#f2f5e9" fill-opacity="0.5" stroke="#606060" stroke-width=".5" x="0" y="0" width="60" height="60"/>
                <use id="zoomplus" xlink:href="#zoomPlus" x="17" y="9" onmousedown="handleZoom(evt,'in')"/>
                <use id="zoomminus" xlink:href="#zoomMin" x="42" y="9" onmousedown="handleZoom(evt,'out')"/>
                <use id="reset" xlink:href="#resetDef" x="30" y="36" onmousedown="handleReset()"/>
                <g id="arrowUp" xlink:href="#dirArrow" transform="translate(30 24)" onmousedown="handlePan(0,-1)">
                  <use xlink:href="#rim" fill="#404040">
                        <set attributeName="fill" to="#808080" begin="arrowUp.mouseover" end="arrowUp.mouseout"/>
                  </use>
                  <path fill="none" stroke="white" stroke-width="1.5" d="M0,-3.0v7 M-2.5,-0.5L0,-3.0L2.5,-0.5"/>
                </g>
                <g id="arrowRight" xlink:href="#dirArrow" transform="rotate(90) translate(36 -43)" onmousedown="handlePan(1,0)">
                  <use xlink:href="#rim" fill="#404040">
                        <set attributeName="fill" to="#808080" begin="arrowRight.mouseover" end="arrowRight.mouseout"/>
                  </use>
                  <path fill="none" stroke="white" stroke-width="1.5" d="M0,-3.0v7 M-2.5,-0.5L0,-3.0L2.5,-0.5"/>
                </g>
                <g id="arrowDown" xlink:href="#dirArrow" transform="rotate(180) translate(-30 -48)" onmousedown="handlePan(0,1)">
                  <use xlink:href="#rim" fill="#404040">
                        <set attributeName="fill" to="#808080" begin="arrowDown.mouseover" end="arrowDown.mouseout"/>
                  </use>
                  <path fill="none" stroke="white" stroke-width="1.5" d="M0,-3.0v7 M-2.5,-0.5L0,-3.0L2.5,-0.5"/>
                </g>
                <g id="arrowLeft" xlink:href="#dirArrow" transform="rotate(270) translate(-36 17)" onmousedown="handlePan(-1,0)">
                  <use xlink:href="#rim" fill="#404040">
                        <set attributeName="fill" to="#808080" begin="arrowLeft.mouseover" end="arrowLeft.mouseout"/>
                  </use>
                  <path fill="none" stroke="white" stroke-width="1.5" d="M0,-3.0v7 M-2.5,-0.5L0,-3.0L2.5,-0.5"/>
                </g>
        </g>
        <svg viewBox="0 0 15 15" width="100%" height="30px" preserveAspectRatio="xMaxYMin meet">
         <g id="arrow_out" transform="scale(0.3 0.3)">
          <a xlink:href="a00219_a73ccfd34793c0197e2dc336b44e3577e_cgraph_org.svg" target="_base">
           <rect id="button" ry="5" rx="5" y="6" x="6" height="38" width="38"
                fill="#f2f5e9" fill-opacity="0.5" stroke="#606060" stroke-width="1.0"/>
           <path id="arrow"
             d="M 11.500037,31.436501 C 11.940474,20.09759 22.043105,11.32322 32.158766,21.979434 L 37.068811,17.246167 C 37.068811,17.246167 37.088388,32 37.088388,32 L 22.160133,31.978069 C 22.160133,31.978069 26.997745,27.140456 26.997745,27.140456 C 18.528582,18.264221 13.291696,25.230495 11.500037,31.436501 z"
             style="fill:#404040;"/>
          </a>
         </g>
        </svg>
</svg>
