<?xml version="1.0" encoding="UTF-8" standalone="no"?>
<!DOCTYPE svg PUBLIC "-//W3C//DTD SVG 1.1//EN"
 "http://www.w3.org/Graphics/SVG/1.1/DTD/svg11.dtd">
<!-- Generated by graphviz version 2.47.1 (20210417.1919)
 -->
<!-- Title: CO_Basalt\__construct Pages: 1 -->
<svg width="936pt" height="281pt"
 viewBox="0.00 0.00 936.00 281.00" xmlns="http://www.w3.org/2000/svg" xmlns:xlink="http://www.w3.org/1999/xlink">
<g id="graph0" class="graph" transform="scale(1 1) rotate(0) translate(4 277)">
<title>CO_Basalt\__construct</title>
<polygon fill="white" stroke="transparent" points="-4,4 -4,-277 932,-277 932,4 -4,4"/>
<!-- Node1 -->
<g id="node1" class="node">
<title>Node1</title>
<g id="a_node1"><a xlink:title=" ">
<polygon fill="#bfbfbf" stroke="black" points="0,-204 0,-223 119,-223 119,-204 0,-204"/>
<text text-anchor="middle" x="59.5" y="-211" font-family="Helvetica,sans-Serif" font-size="10.00">CO_Basalt\__construct</text>
</a>
</g>
</g>
<!-- Node2 -->
<g id="node2" class="node">
<title>Node2</title>
<g id="a_node2"><a xlink:href="a00200.html#a2ddbc8082e5db06272eb38f00b80fae5" target="_top" xlink:title=" ">
<polygon fill="white" stroke="black" points="155,-234.5 155,-264.5 262,-264.5 262,-234.5 155,-234.5"/>
<text text-anchor="start" x="163" y="-252.5" font-family="Helvetica,sans-Serif" font-size="10.00">CO_Basalt\_process</text>
<text text-anchor="middle" x="208.5" y="-241.5" font-family="Helvetica,sans-Serif" font-size="10.00">_basalt_parameters</text>
</a>
</g>
</g>
<!-- Node1&#45;&gt;Node2 -->
<g id="edge1" class="edge">
<title>Node1&#45;&gt;Node2</title>
<path fill="none" stroke="midnightblue" d="M99.51,-223.05C113.39,-226.45 129.4,-230.37 144.77,-234.14"/>
<polygon fill="midnightblue" stroke="midnightblue" points="144.2,-237.6 154.75,-236.58 145.86,-230.8 144.2,-237.6"/>
</g>
<!-- Node5 -->
<g id="node5" class="node">
<title>Node5</title>
<g id="a_node5"><a xlink:href="a00200.html#a528297edc9fb3e5e3c8f2e9270621853" target="_top" xlink:title=" ">
<polygon fill="white" stroke="black" points="155,-174.5 155,-204.5 262,-204.5 262,-174.5 155,-174.5"/>
<text text-anchor="start" x="163" y="-192.5" font-family="Helvetica,sans-Serif" font-size="10.00">CO_Basalt\_process</text>
<text text-anchor="middle" x="208.5" y="-181.5" font-family="Helvetica,sans-Serif" font-size="10.00">_command</text>
</a>
</g>
</g>
<!-- Node1&#45;&gt;Node5 -->
<g id="edge4" class="edge">
<title>Node1&#45;&gt;Node5</title>
<path fill="none" stroke="midnightblue" d="M119.02,-203.95C127.54,-202.56 136.33,-201.12 144.93,-199.72"/>
<polygon fill="midnightblue" stroke="midnightblue" points="145.59,-203.15 154.89,-198.09 144.46,-196.25 145.59,-203.15"/>
</g>
<!-- Node3 -->
<g id="node3" class="node">
<title>Node3</title>
<g id="a_node3"><a xlink:href="a00200.html#a00b3cdf024e15bff80a3c3c9aed320f3" target="_top" xlink:title=" ">
<polygon fill="white" stroke="black" points="317,-237.5 317,-267.5 429,-267.5 429,-237.5 317,-237.5"/>
<text text-anchor="start" x="325" y="-255.5" font-family="Helvetica,sans-Serif" font-size="10.00">CO_Basalt\get_plugin</text>
<text text-anchor="middle" x="373" y="-244.5" font-family="Helvetica,sans-Serif" font-size="10.00">_names</text>
</a>
</g>
</g>
<!-- Node2&#45;&gt;Node3 -->
<g id="edge2" class="edge">
<title>Node2&#45;&gt;Node3</title>
<path fill="none" stroke="midnightblue" d="M262.26,-250.47C276.49,-250.74 292.06,-251.02 306.88,-251.3"/>
<polygon fill="midnightblue" stroke="midnightblue" points="306.93,-254.8 316.99,-251.48 307.06,-247.8 306.93,-254.8"/>
</g>
<!-- Node4 -->
<g id="node4" class="node">
<title>Node4</title>
<g id="a_node4"><a xlink:href="a00200.html#a9917ca310760b3d05cdb027b030f86b4" target="_top" xlink:title=" ">
<polygon fill="white" stroke="black" points="629,-246 629,-265 751,-265 751,-246 629,-246"/>
<text text-anchor="middle" x="690" y="-253" font-family="Helvetica,sans-Serif" font-size="10.00">CO_Basalt\plugin_name</text>
</a>
</g>
</g>
<!-- Node3&#45;&gt;Node4 -->
<g id="edge3" class="edge">
<title>Node3&#45;&gt;Node4</title>
<path fill="none" stroke="midnightblue" d="M429.23,-253.03C481.91,-253.53 561.49,-254.29 618.68,-254.83"/>
<polygon fill="midnightblue" stroke="midnightblue" points="618.69,-258.33 628.73,-254.93 618.76,-251.33 618.69,-258.33"/>
</g>
<!-- Node6 -->
<g id="node6" class="node">
<title>Node6</title>
<g id="a_node6"><a xlink:href="a00200.html#a474660b01c925a4d47e918c02944ebf7" target="_top" xlink:title=" ">
<polygon fill="white" stroke="black" points="298,-158 298,-177 448,-177 448,-158 298,-158"/>
<text text-anchor="middle" x="373" y="-165" font-family="Helvetica,sans-Serif" font-size="10.00">CO_Basalt\process_command</text>
</a>
</g>
</g>
<!-- Node5&#45;&gt;Node6 -->
<g id="edge5" class="edge">
<title>Node5&#45;&gt;Node6</title>
<path fill="none" stroke="midnightblue" d="M262.26,-182.36C271.71,-181.08 281.75,-179.72 291.77,-178.36"/>
<polygon fill="midnightblue" stroke="midnightblue" points="292.33,-181.82 301.77,-177.01 291.39,-174.88 292.33,-181.82"/>
</g>
<!-- Node7 -->
<g id="node7" class="node">
<title>Node7</title>
<g id="a_node7"><a xlink:href="a00196.html#a4195fd75943d9dd1ca6dce290aa64dcc" target="_top" xlink:title=" ">
<polygon fill="white" stroke="black" points="484,-196.5 484,-226.5 593,-226.5 593,-196.5 484,-196.5"/>
<text text-anchor="start" x="492" y="-214.5" font-family="Helvetica,sans-Serif" font-size="10.00">A_CO_Basalt_Plugin</text>
<text text-anchor="middle" x="538.5" y="-203.5" font-family="Helvetica,sans-Serif" font-size="10.00">\_condition_response</text>
</a>
</g>
</g>
<!-- Node6&#45;&gt;Node7 -->
<g id="edge6" class="edge">
<title>Node6&#45;&gt;Node7</title>
<path fill="none" stroke="midnightblue" d="M409.48,-177.05C428.29,-182.11 451.98,-188.49 473.85,-194.37"/>
<polygon fill="midnightblue" stroke="midnightblue" points="473.18,-197.82 483.75,-197.03 475,-191.06 473.18,-197.82"/>
</g>
<!-- Node8 -->
<g id="node8" class="node">
<title>Node8</title>
<g id="a_node8"><a xlink:href="a00200.html#a60ce04d2fc76ab876a428500dccb7dd8" target="_top" xlink:title=" ">
<polygon fill="white" stroke="black" points="485,-147.5 485,-177.5 592,-177.5 592,-147.5 485,-147.5"/>
<text text-anchor="start" x="493" y="-165.5" font-family="Helvetica,sans-Serif" font-size="10.00">CO_Basalt\_process</text>
<text text-anchor="middle" x="538.5" y="-154.5" font-family="Helvetica,sans-Serif" font-size="10.00">_baseline_command</text>
</a>
</g>
</g>
<!-- Node6&#45;&gt;Node8 -->
<g id="edge7" class="edge">
<title>Node6&#45;&gt;Node8</title>
<path fill="none" stroke="midnightblue" d="M448.1,-165.23C456.96,-164.96 465.95,-164.69 474.64,-164.42"/>
<polygon fill="midnightblue" stroke="midnightblue" points="474.78,-167.92 484.67,-164.12 474.57,-160.92 474.78,-167.92"/>
</g>
<!-- Node17 -->
<g id="node17" class="node">
<title>Node17</title>
<g id="a_node17"><a xlink:href="a00200.html#a1daa98964a634b41fef4edf4dc1f82ad" target="_top" xlink:title=" ">
<polygon fill="white" stroke="black" points="485,-98.5 485,-128.5 592,-128.5 592,-98.5 485,-98.5"/>
<text text-anchor="start" x="493" y="-116.5" font-family="Helvetica,sans-Serif" font-size="10.00">CO_Basalt\_process</text>
<text text-anchor="middle" x="538.5" y="-105.5" font-family="Helvetica,sans-Serif" font-size="10.00">_ping_command</text>
</a>
</g>
</g>
<!-- Node6&#45;&gt;Node17 -->
<g id="edge17" class="edge">
<title>Node6&#45;&gt;Node17</title>
<path fill="none" stroke="midnightblue" d="M402.85,-157.97C424.82,-150.72 455.71,-140.51 482.36,-131.71"/>
<polygon fill="midnightblue" stroke="midnightblue" points="483.57,-135 491.97,-128.54 481.37,-128.35 483.57,-135"/>
</g>
<!-- Node8&#45;&gt;Node4 -->
<g id="edge16" class="edge">
<title>Node8&#45;&gt;Node4</title>
<path fill="none" stroke="midnightblue" d="M579.43,-177.6C584.23,-180.21 588.88,-183.17 593,-186.5 614.02,-203.48 607.16,-219.59 629,-235.5 632.25,-237.87 635.8,-239.97 639.5,-241.83"/>
<polygon fill="midnightblue" stroke="midnightblue" points="638.34,-245.14 648.9,-245.97 641.16,-238.74 638.34,-245.14"/>
</g>
<!-- Node9 -->
<g id="node9" class="node">
<title>Node9</title>
<g id="a_node9"><a xlink:href="a00200.html#a94f153fbc911e113c202f91acc1b270e" target="_top" xlink:title=" ">
<polygon fill="white" stroke="black" points="635.5,-196.5 635.5,-226.5 744.5,-226.5 744.5,-196.5 635.5,-196.5"/>
<text text-anchor="start" x="643.5" y="-214.5" font-family="Helvetica,sans-Serif" font-size="10.00">CO_Basalt\_baseline</text>
<text text-anchor="middle" x="690" y="-203.5" font-family="Helvetica,sans-Serif" font-size="10.00">_bulk_loader</text>
</a>
</g>
</g>
<!-- Node8&#45;&gt;Node9 -->
<g id="edge8" class="edge">
<title>Node8&#45;&gt;Node9</title>
<path fill="none" stroke="midnightblue" d="M585.57,-177.6C600.71,-182.56 617.69,-188.13 633.45,-193.29"/>
<polygon fill="midnightblue" stroke="midnightblue" points="632.48,-196.66 643.08,-196.45 634.66,-190.01 632.48,-196.66"/>
</g>
<!-- Node12 -->
<g id="node12" class="node">
<title>Node12</title>
<g id="a_node12"><a xlink:href="a00200.html#ad72622e9b3a834e50a1a8f4ab488b08a" target="_top" xlink:title=" ">
<polygon fill="white" stroke="black" points="635.5,-147.5 635.5,-177.5 744.5,-177.5 744.5,-147.5 635.5,-147.5"/>
<text text-anchor="start" x="643.5" y="-165.5" font-family="Helvetica,sans-Serif" font-size="10.00">CO_Basalt\_baseline</text>
<text text-anchor="middle" x="690" y="-154.5" font-family="Helvetica,sans-Serif" font-size="10.00">_fetch_backup</text>
</a>
</g>
</g>
<!-- Node8&#45;&gt;Node12 -->
<g id="edge11" class="edge">
<title>Node8&#45;&gt;Node12</title>
<path fill="none" stroke="midnightblue" d="M592.21,-162.5C602.78,-162.5 614.01,-162.5 624.92,-162.5"/>
<polygon fill="midnightblue" stroke="midnightblue" points="625.25,-166 635.25,-162.5 625.25,-159 625.25,-166"/>
</g>
<!-- Node14 -->
<g id="node14" class="node">
<title>Node14</title>
<g id="a_node14"><a xlink:href="a00196.html#a772e319259d2ce50837c099acdfd3625" target="_top" xlink:title=" ">
<polygon fill="white" stroke="black" points="635.5,-98.5 635.5,-128.5 744.5,-128.5 744.5,-98.5 635.5,-98.5"/>
<text text-anchor="start" x="643.5" y="-116.5" font-family="Helvetica,sans-Serif" font-size="10.00">A_CO_Basalt_Plugin</text>
<text text-anchor="middle" x="690" y="-105.5" font-family="Helvetica,sans-Serif" font-size="10.00">\_get_handler</text>
</a>
</g>
</g>
<!-- Node8&#45;&gt;Node14 -->
<g id="edge13" class="edge">
<title>Node8&#45;&gt;Node14</title>
<path fill="none" stroke="midnightblue" d="M585.57,-147.4C600.71,-142.44 617.69,-136.87 633.45,-131.71"/>
<polygon fill="midnightblue" stroke="midnightblue" points="634.66,-134.99 643.08,-128.55 632.48,-128.34 634.66,-134.99"/>
</g>
<!-- Node15 -->
<g id="node15" class="node">
<title>Node15</title>
<g id="a_node15"><a xlink:href="a00200.html#acd909d93bf248e9b07ff9cfdd28df9b9" target="_top" xlink:title=" ">
<polygon fill="white" stroke="black" points="633.5,-49.5 633.5,-79.5 746.5,-79.5 746.5,-49.5 633.5,-49.5"/>
<text text-anchor="start" x="641.5" y="-67.5" font-family="Helvetica,sans-Serif" font-size="10.00">CO_Basalt\_process</text>
<text text-anchor="middle" x="690" y="-56.5" font-family="Helvetica,sans-Serif" font-size="10.00">_serverinfo_command</text>
</a>
</g>
</g>
<!-- Node8&#45;&gt;Node15 -->
<g id="edge14" class="edge">
<title>Node8&#45;&gt;Node15</title>
<path fill="none" stroke="midnightblue" d="M578.03,-147.39C583.32,-144.5 588.48,-141.21 593,-137.5 613.89,-120.36 607.63,-105.04 629,-88.5 630.77,-87.13 632.62,-85.83 634.54,-84.6"/>
<polygon fill="midnightblue" stroke="midnightblue" points="636.34,-87.6 643.28,-79.6 632.86,-81.53 636.34,-87.6"/>
</g>
<!-- Node16 -->
<g id="node16" class="node">
<title>Node16</title>
<g id="a_node16"><a xlink:href="a00200.html#af1b2c5aad7e4010614b891a8e47e469b" target="_top" xlink:title=" ">
<polygon fill="white" stroke="black" points="636.5,-0.5 636.5,-30.5 743.5,-30.5 743.5,-0.5 636.5,-0.5"/>
<text text-anchor="start" x="644.5" y="-18.5" font-family="Helvetica,sans-Serif" font-size="10.00">CO_Basalt\_process</text>
<text text-anchor="middle" x="690" y="-7.5" font-family="Helvetica,sans-Serif" font-size="10.00">_token_command</text>
</a>
</g>
</g>
<!-- Node8&#45;&gt;Node16 -->
<g id="edge15" class="edge">
<title>Node8&#45;&gt;Node16</title>
<path fill="none" stroke="midnightblue" d="M580.67,-147.49C585.21,-144.66 589.46,-141.35 593,-137.5 624.39,-103.32 596.66,-72.77 629,-39.5 630.05,-38.42 631.16,-37.39 632.31,-36.4"/>
<polygon fill="midnightblue" stroke="midnightblue" points="634.42,-39.19 640.49,-30.51 630.33,-33.51 634.42,-39.19"/>
</g>
<!-- Node10 -->
<g id="node10" class="node">
<title>Node10</title>
<g id="a_node10"><a xlink:href="a00200.html#ad343adeeff085b060c73fc62786aee7b" target="_top" xlink:title=" ">
<polygon fill="white" stroke="black" points="806,-242.5 806,-272.5 909,-272.5 909,-242.5 806,-242.5"/>
<text text-anchor="start" x="814" y="-260.5" font-family="Helvetica,sans-Serif" font-size="10.00">CO_Basalt\_extract</text>
<text text-anchor="middle" x="857.5" y="-249.5" font-family="Helvetica,sans-Serif" font-size="10.00">_csv_data</text>
</a>
</g>
</g>
<!-- Node9&#45;&gt;Node10 -->
<g id="edge9" class="edge">
<title>Node9&#45;&gt;Node10</title>
<path fill="none" stroke="midnightblue" d="M744.73,-226.43C761.14,-231 779.3,-236.04 796.12,-240.72"/>
<polygon fill="midnightblue" stroke="midnightblue" points="795.27,-244.12 805.85,-243.42 797.15,-237.37 795.27,-244.12"/>
</g>
<!-- Node11 -->
<g id="node11" class="node">
<title>Node11</title>
<g id="a_node11"><a xlink:href="a00200.html#a0c8258440777d1e27e88f57f55a9e2a4" target="_top" xlink:title=" ">
<polygon fill="white" stroke="black" points="804,-193.5 804,-223.5 911,-223.5 911,-193.5 804,-193.5"/>
<text text-anchor="start" x="812" y="-211.5" font-family="Helvetica,sans-Serif" font-size="10.00">CO_Basalt\_process</text>
<text text-anchor="middle" x="857.5" y="-200.5" font-family="Helvetica,sans-Serif" font-size="10.00">_bulk_row</text>
</a>
</g>
</g>
<!-- Node9&#45;&gt;Node11 -->
<g id="edge10" class="edge">
<title>Node9&#45;&gt;Node11</title>
<path fill="none" stroke="midnightblue" d="M744.73,-210.53C760.3,-210.24 777.43,-209.93 793.5,-209.64"/>
<polygon fill="midnightblue" stroke="midnightblue" points="793.95,-213.13 803.88,-209.45 793.82,-206.14 793.95,-213.13"/>
</g>
<!-- Node13 -->
<g id="node13" class="node">
<title>Node13</title>
<g id="a_node13"><a xlink:href="a00200.html#a43999add0a0623b6cc1376defb359b9b" target="_top" xlink:title=" ">
<polygon fill="white" stroke="black" points="787,-153 787,-172 928,-172 928,-153 787,-153"/>
<text text-anchor="middle" x="857.5" y="-160" font-family="Helvetica,sans-Serif" font-size="10.00">CO_Basalt\_output_one_line</text>
</a>
</g>
</g>
<!-- Node12&#45;&gt;Node13 -->
<g id="edge12" class="edge">
<title>Node12&#45;&gt;Node13</title>
<path fill="none" stroke="midnightblue" d="M744.73,-162.5C754.89,-162.5 765.71,-162.5 776.48,-162.5"/>
<polygon fill="midnightblue" stroke="midnightblue" points="776.75,-166 786.75,-162.5 776.75,-159 776.75,-166"/>
</g>
</g>
</svg>
