<?xml version="1.0" encoding="UTF-8" standalone="no"?>
<!DOCTYPE svg PUBLIC "-//W3C//DTD SVG 1.1//EN"
 "http://www.w3.org/Graphics/SVG/1.1/DTD/svg11.dtd">
<!-- Generated by graphviz version 2.40.1 (20161225.0304)
 -->
<!-- Title: CO_Basalt\_process_command Pages: 1 -->
<!--zoomable 306 -->
<svg id="main" version="1.1" xmlns="http://www.w3.org/2000/svg" xmlns:xlink="http://www.w3.org/1999/xlink" xml:space="preserve" onload="init(evt)">
<style type="text/css"><![CDATA[
.edge:hover path { stroke: red; }
.edge:hover polygon { stroke: red; fill: red; }
]]></style>
<script type="text/javascript"><![CDATA[
var edges = document.getElementsByTagName('g');
if (edges && edges.length) {
  for (var i=0;i<edges.length;i++) {
    if (edges[i].id.substr(0,4)=='edge') {
      edges[i].setAttribute('class','edge');
    }
  }
}
]]></script>
        <defs>
                <circle id="rim" cx="0" cy="0" r="7"/>
                <circle id="rim2" cx="0" cy="0" r="3.5"/>
                <g id="zoomPlus">
                        <use xlink:href="#rim" fill="#404040">
                                <set attributeName="fill" to="#808080" begin="zoomplus.mouseover" end="zoomplus.mouseout"/>
                        </use>
                        <path d="M-4,0h8M0,-4v8" fill="none" stroke="white" stroke-width="1.5" pointer-events="none"/>
                </g>
                <g id="zoomMin">
                        <use xlink:href="#rim" fill="#404040">
                                <set attributeName="fill" to="#808080" begin="zoomminus.mouseover" end="zoomminus.mouseout"/>
                        </use>
                        <path d="M-4,0h8" fill="none" stroke="white" stroke-width="1.5" pointer-events="none"/>
                </g>
                <g id="dirArrow">
                        <path fill="none" stroke="white" stroke-width="1.5" d="M0,-3.0v7 M-2.5,-0.5L0,-3.0L2.5,-0.5"/>
                </g>
               <g id="resetDef">
                       <use xlink:href="#rim2" fill="#404040">
                               <set attributeName="fill" to="#808080" begin="reset.mouseover" end="reset.mouseout"/>
                       </use>
               </g>
        </defs>

<script type="text/javascript">
var viewWidth = 791;
var viewHeight = 306;
var sectionId = 'dynsection-15';
</script>
<script xlink:href="svgpan.js"/>
<svg id="graph" class="graph">
<g id="viewport">
<title>CO_Basalt\_process_command</title>
<polygon fill="#ffffff" stroke="transparent" points="-4,4 -4,-302 786.6621,-302 786.6621,4 -4,4"/>
<!-- Node1 -->
<g id="node1" class="node">
<title>Node1</title>
<g id="a_node1"><a xlink:title=" ">
<polygon fill="#bfbfbf" stroke="#000000" points="0,-130.5 0,-158.5 107.709,-158.5 107.709,-130.5 0,-130.5"/>
<text text-anchor="start" x="8" y="-146.5" font-family="Helvetica,sans-Serif" font-size="10.00" fill="#000000">CO_Basalt\_process</text>
<text text-anchor="middle" x="53.8545" y="-136.5" font-family="Helvetica,sans-Serif" font-size="10.00" fill="#000000">_command</text>
</a>
</g>
</g>
<!-- Node2 -->
<g id="node2" class="node">
<title>Node2</title>
<g id="a_node2"><a xlink:href="a00200.html#a474660b01c925a4d47e918c02944ebf7" target="_top" xlink:title=" ">
<polygon fill="#ffffff" stroke="#000000" points="143.709,-135.5 143.709,-153.5 295.3242,-153.5 295.3242,-135.5 143.709,-135.5"/>
<text text-anchor="middle" x="219.5166" y="-141.5" font-family="Helvetica,sans-Serif" font-size="10.00" fill="#000000">CO_Basalt\process_command</text>
</a>
</g>
</g>
<!-- Node1&#45;&gt;Node2 -->
<g id="edge1" class="edge">
<title>Node1&#45;&gt;Node2</title>
<path fill="none" stroke="#191970" d="M108.0985,-144.5C116.2373,-144.5 124.7959,-144.5 133.4017,-144.5"/>
<polygon fill="#191970" stroke="#191970" points="133.5038,-148.0001 143.5038,-144.5 133.5037,-141.0001 133.5038,-148.0001"/>
</g>
<!-- Node3 -->
<g id="node3" class="node">
<title>Node3</title>
<g id="a_node3"><a xlink:href="a00196.html#a4195fd75943d9dd1ca6dce290aa64dcc" target="_top" xlink:title=" ">
<polygon fill="#ffffff" stroke="#000000" points="331.3242,-154.5 331.3242,-182.5 442.3926,-182.5 442.3926,-154.5 331.3242,-154.5"/>
<text text-anchor="start" x="339.3242" y="-170.5" font-family="Helvetica,sans-Serif" font-size="10.00" fill="#000000">A_CO_Basalt_Plugin</text>
<text text-anchor="middle" x="386.8584" y="-160.5" font-family="Helvetica,sans-Serif" font-size="10.00" fill="#000000">\_condition_response</text>
</a>
</g>
</g>
<!-- Node2&#45;&gt;Node3 -->
<g id="edge2" class="edge">
<title>Node2&#45;&gt;Node3</title>
<path fill="none" stroke="#191970" d="M282.3046,-153.505C294.9646,-155.3207 308.306,-157.2341 321.0656,-159.0641"/>
<polygon fill="#191970" stroke="#191970" points="320.754,-162.5551 331.1496,-160.5103 321.7478,-155.626 320.754,-162.5551"/>
</g>
<!-- Node4 -->
<g id="node4" class="node">
<title>Node4</title>
<g id="a_node4"><a xlink:href="a00200.html#a60ce04d2fc76ab876a428500dccb7dd8" target="_top" xlink:title=" ">
<polygon fill="#ffffff" stroke="#000000" points="332.7183,-107.5 332.7183,-135.5 440.9985,-135.5 440.9985,-107.5 332.7183,-107.5"/>
<text text-anchor="start" x="340.7183" y="-123.5" font-family="Helvetica,sans-Serif" font-size="10.00" fill="#000000">CO_Basalt\_process</text>
<text text-anchor="middle" x="386.8584" y="-113.5" font-family="Helvetica,sans-Serif" font-size="10.00" fill="#000000">_baseline_command</text>
</a>
</g>
</g>
<!-- Node2&#45;&gt;Node4 -->
<g id="edge3" class="edge">
<title>Node2&#45;&gt;Node4</title>
<path fill="none" stroke="#191970" d="M285.1742,-135.4758C297.4069,-133.7945 310.1787,-132.0391 322.3757,-130.3627"/>
<polygon fill="#191970" stroke="#191970" points="323.0311,-133.8056 332.4614,-128.9765 322.0779,-126.8708 323.0311,-133.8056"/>
</g>
<!-- Node5 -->
<g id="node5" class="node">
<title>Node5</title>
<g id="a_node5"><a xlink:href="a00200.html#a94f153fbc911e113c202f91acc1b270e" target="_top" xlink:title=" ">
<polygon fill="#ffffff" stroke="#000000" points="485.6191,-225.5 485.6191,-253.5 595.5645,-253.5 595.5645,-225.5 485.6191,-225.5"/>
<text text-anchor="start" x="493.6191" y="-241.5" font-family="Helvetica,sans-Serif" font-size="10.00" fill="#000000">CO_Basalt\_baseline</text>
<text text-anchor="middle" x="540.5918" y="-231.5" font-family="Helvetica,sans-Serif" font-size="10.00" fill="#000000">_bulk_loader</text>
</a>
</g>
</g>
<!-- Node4&#45;&gt;Node5 -->
<g id="edge4" class="edge">
<title>Node4&#45;&gt;Node5</title>
<path fill="none" stroke="#191970" d="M428.5877,-135.6458C433.5811,-138.4231 438.3375,-141.6863 442.3926,-145.5 468.1655,-169.7386 451.9777,-192.9626 478.3926,-216.5 479.7222,-217.6848 481.1183,-218.8104 482.5679,-219.8796"/>
<polygon fill="#191970" stroke="#191970" points="481.0362,-223.0507 491.3657,-225.4066 484.7599,-217.1233 481.0362,-223.0507"/>
</g>
<!-- Node8 -->
<g id="node8" class="node">
<title>Node8</title>
<g id="a_node8"><a xlink:href="a00200.html#ad72622e9b3a834e50a1a8f4ab488b08a" target="_top" xlink:title=" ">
<polygon fill="#ffffff" stroke="#000000" points="485.6191,-178.5 485.6191,-206.5 595.5645,-206.5 595.5645,-178.5 485.6191,-178.5"/>
<text text-anchor="start" x="493.6191" y="-194.5" font-family="Helvetica,sans-Serif" font-size="10.00" fill="#000000">CO_Basalt\_baseline</text>
<text text-anchor="middle" x="540.5918" y="-184.5" font-family="Helvetica,sans-Serif" font-size="10.00" fill="#000000">_fetch_backup</text>
</a>
</g>
</g>
<!-- Node4&#45;&gt;Node8 -->
<g id="edge7" class="edge">
<title>Node4&#45;&gt;Node8</title>
<path fill="none" stroke="#191970" d="M421.9772,-135.5366C428.8542,-138.6026 435.9332,-141.9883 442.3926,-145.5 459.2869,-154.6848 461.2576,-160.7724 478.3926,-169.5 481.871,-171.2717 485.5192,-172.9776 489.231,-174.604"/>
<polygon fill="#191970" stroke="#191970" points="487.9514,-177.8624 498.5286,-178.4752 490.6422,-171.4002 487.9514,-177.8624"/>
</g>
<!-- Node10 -->
<g id="node10" class="node">
<title>Node10</title>
<g id="a_node10"><a xlink:href="a00196.html#a772e319259d2ce50837c099acdfd3625" target="_top" xlink:title=" ">
<polygon fill="#ffffff" stroke="#000000" points="485.6191,-131.5 485.6191,-159.5 595.5645,-159.5 595.5645,-131.5 485.6191,-131.5"/>
<text text-anchor="start" x="493.6191" y="-147.5" font-family="Helvetica,sans-Serif" font-size="10.00" fill="#000000">A_CO_Basalt_Plugin</text>
<text text-anchor="middle" x="540.5918" y="-137.5" font-family="Helvetica,sans-Serif" font-size="10.00" fill="#000000">\_get_handler</text>
</a>
</g>
</g>
<!-- Node4&#45;&gt;Node10 -->
<g id="edge9" class="edge">
<title>Node4&#45;&gt;Node10</title>
<path fill="none" stroke="#191970" d="M441.059,-129.9615C452.2249,-131.7046 464.0915,-133.5572 475.5946,-135.353"/>
<polygon fill="#191970" stroke="#191970" points="475.163,-138.8279 485.5832,-136.9124 476.2428,-131.9117 475.163,-138.8279"/>
</g>
<!-- Node11 -->
<g id="node11" class="node">
<title>Node11</title>
<g id="a_node11"><a xlink:href="a00200.html#acd909d93bf248e9b07ff9cfdd28df9b9" target="_top" xlink:title=" ">
<polygon fill="#ffffff" stroke="#000000" points="483.124,-84.5 483.124,-112.5 598.0596,-112.5 598.0596,-84.5 483.124,-84.5"/>
<text text-anchor="start" x="491.124" y="-100.5" font-family="Helvetica,sans-Serif" font-size="10.00" fill="#000000">CO_Basalt\_process</text>
<text text-anchor="middle" x="540.5918" y="-90.5" font-family="Helvetica,sans-Serif" font-size="10.00" fill="#000000">_serverinfo_command</text>
</a>
</g>
</g>
<!-- Node4&#45;&gt;Node11 -->
<g id="edge10" class="edge">
<title>Node4&#45;&gt;Node11</title>
<path fill="none" stroke="#191970" d="M441.059,-113.3911C451.3442,-111.8523 462.2239,-110.2246 472.8665,-108.6324"/>
<polygon fill="#191970" stroke="#191970" points="473.5984,-112.0619 482.9705,-107.1207 472.5626,-105.1389 473.5984,-112.0619"/>
</g>
<!-- Node12 -->
<g id="node12" class="node">
<title>Node12</title>
<g id="a_node12"><a xlink:href="a00200.html#af1b2c5aad7e4010614b891a8e47e469b" target="_top" xlink:title=" ">
<polygon fill="#ffffff" stroke="#000000" points="486.7373,-37.5 486.7373,-65.5 594.4463,-65.5 594.4463,-37.5 486.7373,-37.5"/>
<text text-anchor="start" x="494.7373" y="-53.5" font-family="Helvetica,sans-Serif" font-size="10.00" fill="#000000">CO_Basalt\_process</text>
<text text-anchor="middle" x="540.5918" y="-43.5" font-family="Helvetica,sans-Serif" font-size="10.00" fill="#000000">_token_command</text>
</a>
</g>
</g>
<!-- Node4&#45;&gt;Node12 -->
<g id="edge11" class="edge">
<title>Node4&#45;&gt;Node12</title>
<path fill="none" stroke="#191970" d="M413.3649,-107.3185C431.4662,-97.8481 456.1145,-85.3679 478.3926,-75.5 483.1003,-73.4148 488.05,-71.3296 493.0154,-69.3073"/>
<polygon fill="#191970" stroke="#191970" points="494.5338,-72.4698 502.5243,-65.5126 491.9392,-65.9684 494.5338,-72.4698"/>
</g>
<!-- Node13 -->
<g id="node13" class="node">
<title>Node13</title>
<g id="a_node13"><a xlink:href="a00200.html#a9917ca310760b3d05cdb027b030f86b4" target="_top" xlink:title=" ">
<polygon fill="#ffffff" stroke="#000000" points="478.3926,-.5 478.3926,-18.5 602.791,-18.5 602.791,-.5 478.3926,-.5"/>
<text text-anchor="middle" x="540.5918" y="-6.5" font-family="Helvetica,sans-Serif" font-size="10.00" fill="#000000">CO_Basalt\plugin_name</text>
</a>
</g>
</g>
<!-- Node4&#45;&gt;Node13 -->
<g id="edge12" class="edge">
<title>Node4&#45;&gt;Node13</title>
<path fill="none" stroke="#191970" d="M396.7198,-107.483C411.9174,-86.9143 443.0341,-48.7041 478.3926,-27.5 481.6193,-25.565 485.0654,-23.8283 488.6184,-22.2711"/>
<polygon fill="#191970" stroke="#191970" points="490.1387,-25.4355 498.1958,-18.5555 487.6069,-18.9094 490.1387,-25.4355"/>
</g>
<!-- Node6 -->
<g id="node6" class="node">
<title>Node6</title>
<g id="a_node6"><a xlink:href="a00200.html#ad343adeeff085b060c73fc62786aee7b" target="_top" xlink:title=" ">
<polygon fill="#ffffff" stroke="#000000" points="659.3745,-269.5 659.3745,-297.5 762.0786,-297.5 762.0786,-269.5 659.3745,-269.5"/>
<text text-anchor="start" x="667.3745" y="-285.5" font-family="Helvetica,sans-Serif" font-size="10.00" fill="#000000">CO_Basalt\_extract</text>
<text text-anchor="middle" x="710.7266" y="-275.5" font-family="Helvetica,sans-Serif" font-size="10.00" fill="#000000">_csv_data</text>
</a>
</g>
</g>
<!-- Node5&#45;&gt;Node6 -->
<g id="edge5" class="edge">
<title>Node5&#45;&gt;Node6</title>
<path fill="none" stroke="#191970" d="M594.8913,-253.5428C612.2866,-258.0416 631.6656,-263.0534 649.5191,-267.6706"/>
<polygon fill="#191970" stroke="#191970" points="648.7007,-271.0741 659.2585,-270.1894 650.4534,-264.297 648.7007,-271.0741"/>
</g>
<!-- Node7 -->
<g id="node7" class="node">
<title>Node7</title>
<g id="a_node7"><a xlink:href="a00200.html#a0c8258440777d1e27e88f57f55a9e2a4" target="_top" xlink:title=" ">
<polygon fill="#ffffff" stroke="#000000" points="656.8721,-222.5 656.8721,-250.5 764.5811,-250.5 764.5811,-222.5 656.8721,-222.5"/>
<text text-anchor="start" x="664.8721" y="-238.5" font-family="Helvetica,sans-Serif" font-size="10.00" fill="#000000">CO_Basalt\_process</text>
<text text-anchor="middle" x="710.7266" y="-228.5" font-family="Helvetica,sans-Serif" font-size="10.00" fill="#000000">_bulk_row</text>
</a>
</g>
</g>
<!-- Node5&#45;&gt;Node7 -->
<g id="edge6" class="edge">
<title>Node5&#45;&gt;Node7</title>
<path fill="none" stroke="#191970" d="M595.8297,-238.526C611.9803,-238.2412 629.7734,-237.9275 646.434,-237.6337"/>
<polygon fill="#191970" stroke="#191970" points="646.6997,-241.1296 656.6364,-237.4538 646.5762,-234.1307 646.6997,-241.1296"/>
</g>
<!-- Node9 -->
<g id="node9" class="node">
<title>Node9</title>
<g id="a_node9"><a xlink:href="a00200.html#a43999add0a0623b6cc1376defb359b9b" target="_top" xlink:title=" ">
<polygon fill="#ffffff" stroke="#000000" points="638.791,-183.5 638.791,-201.5 782.6621,-201.5 782.6621,-183.5 638.791,-183.5"/>
<text text-anchor="middle" x="710.7266" y="-189.5" font-family="Helvetica,sans-Serif" font-size="10.00" fill="#000000">CO_Basalt\_output_one_line</text>
</a>
</g>
</g>
<!-- Node8&#45;&gt;Node9 -->
<g id="edge8" class="edge">
<title>Node8&#45;&gt;Node9</title>
<path fill="none" stroke="#191970" d="M595.8297,-192.5C606.3041,-192.5 617.4695,-192.5 628.5687,-192.5"/>
<polygon fill="#191970" stroke="#191970" points="628.7215,-196.0001 638.7215,-192.5 628.7215,-189.0001 628.7215,-196.0001"/>
</g>
</g>
</svg>
        <g id="navigator" transform="translate(0 0)" fill="#404254">
                <rect fill="#f2f5e9" fill-opacity="0.5" stroke="#606060" stroke-width=".5" x="0" y="0" width="60" height="60"/>
                <use id="zoomplus" xlink:href="#zoomPlus" x="17" y="9" onmousedown="handleZoom(evt,'in')"/>
                <use id="zoomminus" xlink:href="#zoomMin" x="42" y="9" onmousedown="handleZoom(evt,'out')"/>
                <use id="reset" xlink:href="#resetDef" x="30" y="36" onmousedown="handleReset()"/>
                <g id="arrowUp" xlink:href="#dirArrow" transform="translate(30 24)" onmousedown="handlePan(0,-1)">
                  <use xlink:href="#rim" fill="#404040">
                        <set attributeName="fill" to="#808080" begin="arrowUp.mouseover" end="arrowUp.mouseout"/>
                  </use>
                  <path fill="none" stroke="white" stroke-width="1.5" d="M0,-3.0v7 M-2.5,-0.5L0,-3.0L2.5,-0.5"/>
                </g>
                <g id="arrowRight" xlink:href="#dirArrow" transform="rotate(90) translate(36 -43)" onmousedown="handlePan(1,0)">
                  <use xlink:href="#rim" fill="#404040">
                        <set attributeName="fill" to="#808080" begin="arrowRight.mouseover" end="arrowRight.mouseout"/>
                  </use>
                  <path fill="none" stroke="white" stroke-width="1.5" d="M0,-3.0v7 M-2.5,-0.5L0,-3.0L2.5,-0.5"/>
                </g>
                <g id="arrowDown" xlink:href="#dirArrow" transform="rotate(180) translate(-30 -48)" onmousedown="handlePan(0,1)">
                  <use xlink:href="#rim" fill="#404040">
                        <set attributeName="fill" to="#808080" begin="arrowDown.mouseover" end="arrowDown.mouseout"/>
                  </use>
                  <path fill="none" stroke="white" stroke-width="1.5" d="M0,-3.0v7 M-2.5,-0.5L0,-3.0L2.5,-0.5"/>
                </g>
                <g id="arrowLeft" xlink:href="#dirArrow" transform="rotate(270) translate(-36 17)" onmousedown="handlePan(-1,0)">
                  <use xlink:href="#rim" fill="#404040">
                        <set attributeName="fill" to="#808080" begin="arrowLeft.mouseover" end="arrowLeft.mouseout"/>
                  </use>
                  <path fill="none" stroke="white" stroke-width="1.5" d="M0,-3.0v7 M-2.5,-0.5L0,-3.0L2.5,-0.5"/>
                </g>
        </g>
        <svg viewBox="0 0 15 15" width="100%" height="30px" preserveAspectRatio="xMaxYMin meet">
         <g id="arrow_out" transform="scale(0.3 0.3)">
          <a xlink:href="a00200_a528297edc9fb3e5e3c8f2e9270621853_cgraph_org.svg" target="_base">
           <rect id="button" ry="5" rx="5" y="6" x="6" height="38" width="38"
                fill="#f2f5e9" fill-opacity="0.5" stroke="#606060" stroke-width="1.0"/>
           <path id="arrow"
             d="M 11.500037,31.436501 C 11.940474,20.09759 22.043105,11.32322 32.158766,21.979434 L 37.068811,17.246167 C 37.068811,17.246167 37.088388,32 37.088388,32 L 22.160133,31.978069 C 22.160133,31.978069 26.997745,27.140456 26.997745,27.140456 C 18.528582,18.264221 13.291696,25.230495 11.500037,31.436501 z"
             style="fill:#404040;"/>
          </a>
         </g>
        </svg>
</svg>
