<?xml version="1.0" encoding="UTF-8" standalone="no"?>
<!DOCTYPE svg PUBLIC "-//W3C//DTD SVG 1.1//EN"
 "http://www.w3.org/Graphics/SVG/1.1/DTD/svg11.dtd">
<!-- Generated by graphviz version 2.40.1 (20161225.0304)
 -->
<!-- Title: CO_Andisol\get_user_from_login Pages: 1 -->
<svg width="283pt" height="74pt"
 viewBox="0.00 0.00 283.33 74.00" xmlns="http://www.w3.org/2000/svg" xmlns:xlink="http://www.w3.org/1999/xlink">
<g id="graph0" class="graph" transform="scale(1 1) rotate(0) translate(4 70)">
<title>CO_Andisol\get_user_from_login</title>
<polygon fill="#ffffff" stroke="transparent" points="-4,4 -4,-70 279.3291,-70 279.3291,4 -4,4"/>
<!-- Node257 -->
<g id="node1" class="node">
<title>Node257</title>
<polygon fill="#bfbfbf" stroke="#000000" points="0,-21.5 0,-49.5 111.0537,-49.5 111.0537,-21.5 0,-21.5"/>
<text text-anchor="start" x="8" y="-37.5" font-family="Helvetica,sans-Serif" font-size="10.00" fill="#000000">CO_Andisol\get_user</text>
<text text-anchor="middle" x="55.5269" y="-27.5" font-family="Helvetica,sans-Serif" font-size="10.00" fill="#000000">_from_login</text>
</g>
<!-- Node258 -->
<g id="node2" class="node">
<title>Node258</title>
<g id="a_node2"><a xlink:href="a00219.html#a661842aaa6be17af30fbac58b5008c36" target="_top" xlink:title="CO_Andisol\\current_user">
<polygon fill="#ffffff" stroke="#000000" points="147.0537,-47.5 147.0537,-65.5 275.3291,-65.5 275.3291,-47.5 147.0537,-47.5"/>
<text text-anchor="middle" x="211.1914" y="-53.5" font-family="Helvetica,sans-Serif" font-size="10.00" fill="#000000">CO_Andisol\current_user</text>
</a>
</g>
</g>
<!-- Node257&#45;&gt;Node258 -->
<g id="edge1" class="edge">
<title>Node257&#45;&gt;Node258</title>
<path fill="none" stroke="#191970" d="M121.4207,-44.3894C129.8294,-45.5238 138.4285,-46.6839 146.8128,-47.815"/>
<polygon fill="#191970" stroke="#191970" points="121.6638,-40.8906 111.2857,-43.0222 120.7279,-47.8278 121.6638,-40.8906"/>
</g>
<!-- Node259 -->
<g id="node3" class="node">
<title>Node259</title>
<g id="a_node3"><a xlink:href="a00219.html#a7d4be5fe8eb59e59a6ca94a781980e4f" target="_top" xlink:title="CO_Andisol\\get_user\l_from_login_string">
<polygon fill="#ffffff" stroke="#000000" points="155.6646,-.5 155.6646,-28.5 266.7183,-28.5 266.7183,-.5 155.6646,-.5"/>
<text text-anchor="start" x="163.6646" y="-16.5" font-family="Helvetica,sans-Serif" font-size="10.00" fill="#000000">CO_Andisol\get_user</text>
<text text-anchor="middle" x="211.1914" y="-6.5" font-family="Helvetica,sans-Serif" font-size="10.00" fill="#000000">_from_login_string</text>
</a>
</g>
</g>
<!-- Node257&#45;&gt;Node259 -->
<g id="edge2" class="edge">
<title>Node257&#45;&gt;Node259</title>
<path fill="none" stroke="#191970" d="M121.2128,-26.6386C132.6434,-25.0966 144.4323,-23.5062 155.5604,-22.0049"/>
<polygon fill="#191970" stroke="#191970" points="120.7279,-23.1722 111.2857,-27.9778 121.6638,-30.1094 120.7279,-23.1722"/>
</g>
</g>
</svg>
