<?xml version="1.0" encoding="UTF-8" standalone="no"?>
<!DOCTYPE svg PUBLIC "-//W3C//DTD SVG 1.1//EN"
 "http://www.w3.org/Graphics/SVG/1.1/DTD/svg11.dtd">
<!-- Generated by graphviz version 2.40.1 (20161225.0304)
 -->
<!-- Title: CO_Andisol\get_all_personal_ids_except_for_id Pages: 1 -->
<svg width="298pt" height="47pt"
 viewBox="0.00 0.00 297.81 47.00" xmlns="http://www.w3.org/2000/svg" xmlns:xlink="http://www.w3.org/1999/xlink">
<g id="graph0" class="graph" transform="scale(1 1) rotate(0) translate(4 43)">
<title>CO_Andisol\get_all_personal_ids_except_for_id</title>
<polygon fill="#ffffff" stroke="transparent" points="-4,4 -4,-43 293.8115,-43 293.8115,4 -4,4"/>
<!-- Node1 -->
<g id="node1" class="node">
<title>Node1</title>
<g id="a_node1"><a xlink:title=" ">
<polygon fill="#bfbfbf" stroke="#000000" points="0,-.5 0,-38.5 113.29,-38.5 113.29,-.5 0,-.5"/>
<text text-anchor="start" x="8" y="-26.5" font-family="Helvetica,sans-Serif" font-size="10.00" fill="#000000">CO_Andisol\get_all</text>
<text text-anchor="start" x="8" y="-16.5" font-family="Helvetica,sans-Serif" font-size="10.00" fill="#000000">_personal_ids_except</text>
<text text-anchor="middle" x="56.645" y="-6.5" font-family="Helvetica,sans-Serif" font-size="10.00" fill="#000000">_for_id</text>
</a>
</g>
</g>
<!-- Node2 -->
<g id="node2" class="node">
<title>Node2</title>
<g id="a_node2"><a xlink:href="a00216.html#acda267f1d6a8e496e167ed46fe590dc6" target="_top" xlink:title=" ">
<polygon fill="#ffffff" stroke="#000000" points="149.29,-5.5 149.29,-33.5 289.8115,-33.5 289.8115,-5.5 149.29,-5.5"/>
<text text-anchor="start" x="157.29" y="-21.5" font-family="Helvetica,sans-Serif" font-size="10.00" fill="#000000">CO_Andisol\get_chameleon</text>
<text text-anchor="middle" x="219.5508" y="-11.5" font-family="Helvetica,sans-Serif" font-size="10.00" fill="#000000">_instance</text>
</a>
</g>
</g>
<!-- Node1&#45;&gt;Node2 -->
<g id="edge1" class="edge">
<title>Node1&#45;&gt;Node2</title>
<path fill="none" stroke="#191970" d="M113.6215,-19.5C121.8649,-19.5 130.4771,-19.5 139.0747,-19.5"/>
<polygon fill="#191970" stroke="#191970" points="139.1379,-23.0001 149.1379,-19.5 139.1378,-16.0001 139.1379,-23.0001"/>
</g>
</g>
</svg>
