<?xml version="1.0" encoding="UTF-8" standalone="no"?>
<!DOCTYPE svg PUBLIC "-//W3C//DTD SVG 1.1//EN"
 "http://www.w3.org/Graphics/SVG/1.1/DTD/svg11.dtd">
<!-- Generated by graphviz version 2.47.1 (20210417.1919)
 -->
<!-- Title: CO_Basalt\_process_command Pages: 1 -->
<!--zoomable 320 -->
<svg id="main" version="1.1" xmlns="http://www.w3.org/2000/svg" xmlns:xlink="http://www.w3.org/1999/xlink" xml:space="preserve" onload="init(evt)">
<style type="text/css"><![CDATA[
.edge:hover path { stroke: red; }
.edge:hover polygon { stroke: red; fill: red; }
]]></style>
<script type="text/javascript"><![CDATA[
var edges = document.getElementsByTagName('g');
if (edges && edges.length) {
  for (var i=0;i<edges.length;i++) {
    if (edges[i].id.substr(0,4)=='edge') {
      edges[i].setAttribute('class','edge');
    }
  }
}
]]></script>
        <defs>
                <circle id="rim" cx="0" cy="0" r="7"/>
                <circle id="rim2" cx="0" cy="0" r="3.5"/>
                <g id="zoomPlus">
                        <use xlink:href="#rim" fill="#404040">
                                <set attributeName="fill" to="#808080" begin="zoomplus.mouseover" end="zoomplus.mouseout"/>
                        </use>
                        <path d="M-4,0h8M0,-4v8" fill="none" stroke="white" stroke-width="1.5" pointer-events="none"/>
                </g>
                <g id="zoomMin">
                        <use xlink:href="#rim" fill="#404040">
                                <set attributeName="fill" to="#808080" begin="zoomminus.mouseover" end="zoomminus.mouseout"/>
                        </use>
                        <path d="M-4,0h8" fill="none" stroke="white" stroke-width="1.5" pointer-events="none"/>
                </g>
                <g id="dirArrow">
                        <path fill="none" stroke="white" stroke-width="1.5" d="M0,-3.0v7 M-2.5,-0.5L0,-3.0L2.5,-0.5"/>
                </g>
               <g id="resetDef">
                       <use xlink:href="#rim2" fill="#404040">
                               <set attributeName="fill" to="#808080" begin="reset.mouseover" end="reset.mouseout"/>
                       </use>
               </g>
        </defs>

<script type="text/javascript">
var viewWidth = 781;
var viewHeight = 320;
var sectionId = 'dynsection-15';
</script>
<script xlink:href="svgpan.js"/>
<svg id="graph" class="graph">
<g id="viewport">
<title>CO_Basalt\_process_command</title>
<polygon fill="white" stroke="transparent" points="-4,4 -4,-315.5 777,-315.5 777,4 -4,4"/>
<!-- Node1 -->
<g id="node1" class="node">
<title>Node1</title>
<g id="a_node1"><a xlink:title=" ">
<polygon fill="#bfbfbf" stroke="black" points="0,-112 0,-142 107,-142 107,-112 0,-112"/>
<text text-anchor="start" x="8" y="-130" font-family="Helvetica,sans-Serif" font-size="10.00">CO_Basalt\_process</text>
<text text-anchor="middle" x="53.5" y="-119" font-family="Helvetica,sans-Serif" font-size="10.00">_command</text>
</a>
</g>
</g>
<!-- Node2 -->
<g id="node2" class="node">
<title>Node2</title>
<g id="a_node2"><a xlink:href="a00200.html#a474660b01c925a4d47e918c02944ebf7" target="_top" xlink:title=" ">
<polygon fill="white" stroke="black" points="143,-117.5 143,-136.5 293,-136.5 293,-117.5 143,-117.5"/>
<text text-anchor="middle" x="218" y="-124.5" font-family="Helvetica,sans-Serif" font-size="10.00">CO_Basalt\process_command</text>
</a>
</g>
</g>
<!-- Node1&#45;&gt;Node2 -->
<g id="edge1" class="edge">
<title>Node1&#45;&gt;Node2</title>
<path fill="none" stroke="midnightblue" d="M107.26,-127C115.45,-127 124.09,-127 132.77,-127"/>
<polygon fill="midnightblue" stroke="midnightblue" points="132.96,-130.5 142.96,-127 132.96,-123.5 132.96,-130.5"/>
</g>
<!-- Node3 -->
<g id="node3" class="node">
<title>Node3</title>
<g id="a_node3"><a xlink:href="a00196.html#a4195fd75943d9dd1ca6dce290aa64dcc" target="_top" xlink:title=" ">
<polygon fill="white" stroke="black" points="329,-161 329,-191 438,-191 438,-161 329,-161"/>
<text text-anchor="start" x="337" y="-179" font-family="Helvetica,sans-Serif" font-size="10.00">A_CO_Basalt_Plugin</text>
<text text-anchor="middle" x="383.5" y="-168" font-family="Helvetica,sans-Serif" font-size="10.00">\_condition_response</text>
</a>
</g>
</g>
<!-- Node2&#45;&gt;Node3 -->
<g id="edge2" class="edge">
<title>Node2&#45;&gt;Node3</title>
<path fill="none" stroke="midnightblue" d="M250.91,-136.56C271.25,-142.66 298.24,-150.75 322.49,-158.01"/>
<polygon fill="midnightblue" stroke="midnightblue" points="321.74,-161.44 332.33,-160.96 323.75,-154.74 321.74,-161.44"/>
</g>
<!-- Node4 -->
<g id="node4" class="node">
<title>Node4</title>
<g id="a_node4"><a xlink:href="a00200.html#a60ce04d2fc76ab876a428500dccb7dd8" target="_top" xlink:title=" ">
<polygon fill="white" stroke="black" points="330,-112 330,-142 437,-142 437,-112 330,-112"/>
<text text-anchor="start" x="338" y="-130" font-family="Helvetica,sans-Serif" font-size="10.00">CO_Basalt\_process</text>
<text text-anchor="middle" x="383.5" y="-119" font-family="Helvetica,sans-Serif" font-size="10.00">_baseline_command</text>
</a>
</g>
</g>
<!-- Node2&#45;&gt;Node4 -->
<g id="edge3" class="edge">
<title>Node2&#45;&gt;Node4</title>
<path fill="none" stroke="midnightblue" d="M293.1,-127C301.96,-127 310.95,-127 319.64,-127"/>
<polygon fill="midnightblue" stroke="midnightblue" points="319.67,-130.5 329.67,-127 319.67,-123.5 319.67,-130.5"/>
</g>
<!-- Node14 -->
<g id="node14" class="node">
<title>Node14</title>
<g id="a_node14"><a xlink:href="a00200.html#a1daa98964a634b41fef4edf4dc1f82ad" target="_top" xlink:title=" ">
<polygon fill="white" stroke="black" points="330,-63 330,-93 437,-93 437,-63 330,-63"/>
<text text-anchor="start" x="338" y="-81" font-family="Helvetica,sans-Serif" font-size="10.00">CO_Basalt\_process</text>
<text text-anchor="middle" x="383.5" y="-70" font-family="Helvetica,sans-Serif" font-size="10.00">_ping_command</text>
</a>
</g>
</g>
<!-- Node2&#45;&gt;Node14 -->
<g id="edge13" class="edge">
<title>Node2&#45;&gt;Node14</title>
<path fill="none" stroke="midnightblue" d="M250.91,-117.44C271.25,-111.34 298.24,-103.25 322.49,-95.99"/>
<polygon fill="midnightblue" stroke="midnightblue" points="323.75,-99.26 332.33,-93.04 321.74,-92.56 323.75,-99.26"/>
</g>
<!-- Node5 -->
<g id="node5" class="node">
<title>Node5</title>
<g id="a_node5"><a xlink:href="a00200.html#a94f153fbc911e113c202f91acc1b270e" target="_top" xlink:title=" ">
<polygon fill="white" stroke="black" points="480.5,-235 480.5,-265 589.5,-265 589.5,-235 480.5,-235"/>
<text text-anchor="start" x="488.5" y="-253" font-family="Helvetica,sans-Serif" font-size="10.00">CO_Basalt\_baseline</text>
<text text-anchor="middle" x="535" y="-242" font-family="Helvetica,sans-Serif" font-size="10.00">_bulk_loader</text>
</a>
</g>
</g>
<!-- Node4&#45;&gt;Node5 -->
<g id="edge4" class="edge">
<title>Node4&#45;&gt;Node5</title>
<path fill="none" stroke="midnightblue" d="M424.77,-142.04C429.57,-144.88 434.13,-148.19 438,-152 464.06,-177.66 447.22,-201.09 474,-226 475.27,-227.18 476.61,-228.31 478,-229.38"/>
<polygon fill="midnightblue" stroke="midnightblue" points="476.17,-232.37 486.44,-234.97 480.04,-226.54 476.17,-232.37"/>
</g>
<!-- Node8 -->
<g id="node8" class="node">
<title>Node8</title>
<g id="a_node8"><a xlink:href="a00200.html#ad72622e9b3a834e50a1a8f4ab488b08a" target="_top" xlink:title=" ">
<polygon fill="white" stroke="black" points="480.5,-186 480.5,-216 589.5,-216 589.5,-186 480.5,-186"/>
<text text-anchor="start" x="488.5" y="-204" font-family="Helvetica,sans-Serif" font-size="10.00">CO_Basalt\_baseline</text>
<text text-anchor="middle" x="535" y="-193" font-family="Helvetica,sans-Serif" font-size="10.00">_fetch_backup</text>
</a>
</g>
</g>
<!-- Node4&#45;&gt;Node8 -->
<g id="edge7" class="edge">
<title>Node4&#45;&gt;Node8</title>
<path fill="none" stroke="midnightblue" d="M418.9,-142.02C425.35,-145.13 431.96,-148.52 438,-152 454.88,-161.71 456.85,-167.77 474,-177 477.06,-178.64 480.25,-180.24 483.5,-181.78"/>
<polygon fill="midnightblue" stroke="midnightblue" points="482.21,-185.04 492.77,-185.95 485.08,-178.65 482.21,-185.04"/>
</g>
<!-- Node10 -->
<g id="node10" class="node">
<title>Node10</title>
<g id="a_node10"><a xlink:href="a00196.html#a772e319259d2ce50837c099acdfd3625" target="_top" xlink:title=" ">
<polygon fill="white" stroke="black" points="480.5,-137 480.5,-167 589.5,-167 589.5,-137 480.5,-137"/>
<text text-anchor="start" x="488.5" y="-155" font-family="Helvetica,sans-Serif" font-size="10.00">A_CO_Basalt_Plugin</text>
<text text-anchor="middle" x="535" y="-144" font-family="Helvetica,sans-Serif" font-size="10.00">\_get_handler</text>
</a>
</g>
</g>
<!-- Node4&#45;&gt;Node10 -->
<g id="edge9" class="edge">
<title>Node4&#45;&gt;Node10</title>
<path fill="none" stroke="midnightblue" d="M437.21,-135.81C447.89,-137.6 459.24,-139.5 470.25,-141.34"/>
<polygon fill="midnightblue" stroke="midnightblue" points="469.81,-144.81 480.25,-143.01 470.97,-137.91 469.81,-144.81"/>
</g>
<!-- Node11 -->
<g id="node11" class="node">
<title>Node11</title>
<g id="a_node11"><a xlink:href="a00200.html#acd909d93bf248e9b07ff9cfdd28df9b9" target="_top" xlink:title=" ">
<polygon fill="white" stroke="black" points="478.5,-88 478.5,-118 591.5,-118 591.5,-88 478.5,-88"/>
<text text-anchor="start" x="486.5" y="-106" font-family="Helvetica,sans-Serif" font-size="10.00">CO_Basalt\_process</text>
<text text-anchor="middle" x="535" y="-95" font-family="Helvetica,sans-Serif" font-size="10.00">_serverinfo_command</text>
</a>
</g>
</g>
<!-- Node4&#45;&gt;Node11 -->
<g id="edge10" class="edge">
<title>Node4&#45;&gt;Node11</title>
<path fill="none" stroke="midnightblue" d="M437.21,-118.54C447.34,-116.91 458.06,-115.19 468.54,-113.51"/>
<polygon fill="midnightblue" stroke="midnightblue" points="469.16,-116.95 478.48,-111.91 468.05,-110.04 469.16,-116.95"/>
</g>
<!-- Node12 -->
<g id="node12" class="node">
<title>Node12</title>
<g id="a_node12"><a xlink:href="a00200.html#af1b2c5aad7e4010614b891a8e47e469b" target="_top" xlink:title=" ">
<polygon fill="white" stroke="black" points="481.5,-39 481.5,-69 588.5,-69 588.5,-39 481.5,-39"/>
<text text-anchor="start" x="489.5" y="-57" font-family="Helvetica,sans-Serif" font-size="10.00">CO_Basalt\_process</text>
<text text-anchor="middle" x="535" y="-46" font-family="Helvetica,sans-Serif" font-size="10.00">_token_command</text>
</a>
</g>
</g>
<!-- Node4&#45;&gt;Node12 -->
<g id="edge11" class="edge">
<title>Node4&#45;&gt;Node12</title>
<path fill="none" stroke="midnightblue" d="M420.3,-111.93C426.3,-109.13 432.39,-106.1 438,-103 454.83,-93.7 457.05,-88.07 474,-79 477.69,-77.02 481.58,-75.09 485.52,-73.24"/>
<polygon fill="midnightblue" stroke="midnightblue" points="487.09,-76.37 494.76,-69.06 484.21,-69.99 487.09,-76.37"/>
</g>
<!-- Node13 -->
<g id="node13" class="node">
<title>Node13</title>
<g id="a_node13"><a xlink:href="a00200.html#a9917ca310760b3d05cdb027b030f86b4" target="_top" xlink:title=" ">
<polygon fill="white" stroke="black" points="474,-0.5 474,-19.5 596,-19.5 596,-0.5 474,-0.5"/>
<text text-anchor="middle" x="535" y="-7.5" font-family="Helvetica,sans-Serif" font-size="10.00">CO_Basalt\plugin_name</text>
</a>
</g>
</g>
<!-- Node4&#45;&gt;Node13 -->
<g id="edge12" class="edge">
<title>Node4&#45;&gt;Node13</title>
<path fill="none" stroke="midnightblue" d="M426.11,-111.95C430.42,-109.37 434.49,-106.4 438,-103 464.26,-77.54 446.32,-52.91 474,-29 475.95,-27.31 478.06,-25.78 480.27,-24.37"/>
<polygon fill="midnightblue" stroke="midnightblue" points="482.03,-27.4 489.22,-19.62 478.75,-21.22 482.03,-27.4"/>
</g>
<!-- Node6 -->
<g id="node6" class="node">
<title>Node6</title>
<g id="a_node6"><a xlink:href="a00200.html#ad343adeeff085b060c73fc62786aee7b" target="_top" xlink:title=" ">
<polygon fill="white" stroke="black" points="651,-281 651,-311 754,-311 754,-281 651,-281"/>
<text text-anchor="start" x="659" y="-299" font-family="Helvetica,sans-Serif" font-size="10.00">CO_Basalt\_extract</text>
<text text-anchor="middle" x="702.5" y="-288" font-family="Helvetica,sans-Serif" font-size="10.00">_csv_data</text>
</a>
</g>
</g>
<!-- Node5&#45;&gt;Node6 -->
<g id="edge5" class="edge">
<title>Node5&#45;&gt;Node6</title>
<path fill="none" stroke="midnightblue" d="M589.73,-264.93C606.14,-269.5 624.3,-274.54 641.12,-279.22"/>
<polygon fill="midnightblue" stroke="midnightblue" points="640.27,-282.62 650.85,-281.92 642.15,-275.87 640.27,-282.62"/>
</g>
<!-- Node7 -->
<g id="node7" class="node">
<title>Node7</title>
<g id="a_node7"><a xlink:href="a00200.html#a0c8258440777d1e27e88f57f55a9e2a4" target="_top" xlink:title=" ">
<polygon fill="white" stroke="black" points="649,-232 649,-262 756,-262 756,-232 649,-232"/>
<text text-anchor="start" x="657" y="-250" font-family="Helvetica,sans-Serif" font-size="10.00">CO_Basalt\_process</text>
<text text-anchor="middle" x="702.5" y="-239" font-family="Helvetica,sans-Serif" font-size="10.00">_bulk_row</text>
</a>
</g>
</g>
<!-- Node5&#45;&gt;Node7 -->
<g id="edge6" class="edge">
<title>Node5&#45;&gt;Node7</title>
<path fill="none" stroke="midnightblue" d="M589.73,-249.03C605.3,-248.74 622.43,-248.43 638.5,-248.14"/>
<polygon fill="midnightblue" stroke="midnightblue" points="638.95,-251.63 648.88,-247.95 638.82,-244.64 638.95,-251.63"/>
</g>
<!-- Node9 -->
<g id="node9" class="node">
<title>Node9</title>
<g id="a_node9"><a xlink:href="a00200.html#a43999add0a0623b6cc1376defb359b9b" target="_top" xlink:title=" ">
<polygon fill="white" stroke="black" points="632,-191.5 632,-210.5 773,-210.5 773,-191.5 632,-191.5"/>
<text text-anchor="middle" x="702.5" y="-198.5" font-family="Helvetica,sans-Serif" font-size="10.00">CO_Basalt\_output_one_line</text>
</a>
</g>
</g>
<!-- Node8&#45;&gt;Node9 -->
<g id="edge8" class="edge">
<title>Node8&#45;&gt;Node9</title>
<path fill="none" stroke="midnightblue" d="M589.73,-201C599.89,-201 610.71,-201 621.48,-201"/>
<polygon fill="midnightblue" stroke="midnightblue" points="621.75,-204.5 631.75,-201 621.75,-197.5 621.75,-204.5"/>
</g>
</g>
</svg>
        <g id="navigator" transform="translate(0 0)" fill="#404254">
                <rect fill="#f2f5e9" fill-opacity="0.5" stroke="#606060" stroke-width=".5" x="0" y="0" width="60" height="60"/>
                <use id="zoomplus" xlink:href="#zoomPlus" x="17" y="9" onmousedown="handleZoom(evt,'in')"/>
                <use id="zoomminus" xlink:href="#zoomMin" x="42" y="9" onmousedown="handleZoom(evt,'out')"/>
                <use id="reset" xlink:href="#resetDef" x="30" y="36" onmousedown="handleReset()"/>
                <g id="arrowUp" xlink:href="#dirArrow" transform="translate(30 24)" onmousedown="handlePan(0,-1)">
                  <use xlink:href="#rim" fill="#404040">
                        <set attributeName="fill" to="#808080" begin="arrowUp.mouseover" end="arrowUp.mouseout"/>
                  </use>
                  <path fill="none" stroke="white" stroke-width="1.5" d="M0,-3.0v7 M-2.5,-0.5L0,-3.0L2.5,-0.5"/>
                </g>
                <g id="arrowRight" xlink:href="#dirArrow" transform="rotate(90) translate(36 -43)" onmousedown="handlePan(1,0)">
                  <use xlink:href="#rim" fill="#404040">
                        <set attributeName="fill" to="#808080" begin="arrowRight.mouseover" end="arrowRight.mouseout"/>
                  </use>
                  <path fill="none" stroke="white" stroke-width="1.5" d="M0,-3.0v7 M-2.5,-0.5L0,-3.0L2.5,-0.5"/>
                </g>
                <g id="arrowDown" xlink:href="#dirArrow" transform="rotate(180) translate(-30 -48)" onmousedown="handlePan(0,1)">
                  <use xlink:href="#rim" fill="#404040">
                        <set attributeName="fill" to="#808080" begin="arrowDown.mouseover" end="arrowDown.mouseout"/>
                  </use>
                  <path fill="none" stroke="white" stroke-width="1.5" d="M0,-3.0v7 M-2.5,-0.5L0,-3.0L2.5,-0.5"/>
                </g>
                <g id="arrowLeft" xlink:href="#dirArrow" transform="rotate(270) translate(-36 17)" onmousedown="handlePan(-1,0)">
                  <use xlink:href="#rim" fill="#404040">
                        <set attributeName="fill" to="#808080" begin="arrowLeft.mouseover" end="arrowLeft.mouseout"/>
                  </use>
                  <path fill="none" stroke="white" stroke-width="1.5" d="M0,-3.0v7 M-2.5,-0.5L0,-3.0L2.5,-0.5"/>
                </g>
        </g>
        <svg viewBox="0 0 15 15" width="100%" height="30px" preserveAspectRatio="xMaxYMin meet">
         <g id="arrow_out" transform="scale(0.3 0.3)">
          <a xlink:href="a00200_a528297edc9fb3e5e3c8f2e9270621853_cgraph_org.svg" target="_base">
           <rect id="button" ry="5" rx="5" y="6" x="6" height="38" width="38"
                fill="#f2f5e9" fill-opacity="0.5" stroke="#606060" stroke-width="1.0"/>
           <path id="arrow"
             d="M 11.500037,31.436501 C 11.940474,20.09759 22.043105,11.32322 32.158766,21.979434 L 37.068811,17.246167 C 37.068811,17.246167 37.088388,32 37.088388,32 L 22.160133,31.978069 C 22.160133,31.978069 26.997745,27.140456 26.997745,27.140456 C 18.528582,18.264221 13.291696,25.230495 11.500037,31.436501 z"
             style="fill:#404040;"/>
          </a>
         </g>
        </svg>
</svg>
