<?xml version="1.0" encoding="UTF-8" standalone="no"?>
<!DOCTYPE svg PUBLIC "-//W3C//DTD SVG 1.1//EN"
 "http://www.w3.org/Graphics/SVG/1.1/DTD/svg11.dtd">
<!-- Generated by graphviz version 2.40.1 (20161225.0304)
 -->
<!-- Title: CO_Cobra\convert_login Pages: 1 -->
<svg width="679pt" height="74pt"
 viewBox="0.00 0.00 679.17 74.00" xmlns="http://www.w3.org/2000/svg" xmlns:xlink="http://www.w3.org/1999/xlink">
<g id="graph0" class="graph" transform="scale(1 1) rotate(0) translate(4 70)">
<title>CO_Cobra\convert_login</title>
<polygon fill="#ffffff" stroke="transparent" points="-4,4 -4,-70 675.1748,-70 675.1748,4 -4,4"/>
<!-- Node1 -->
<g id="node1" class="node">
<title>Node1</title>
<g id="a_node1"><a xlink:title=" ">
<polygon fill="#bfbfbf" stroke="#000000" points="0,-21.5 0,-39.5 126.0586,-39.5 126.0586,-21.5 0,-21.5"/>
<text text-anchor="middle" x="63.0293" y="-27.5" font-family="Helvetica,sans-Serif" font-size="10.00" fill="#000000">CO_Cobra\convert_login</text>
</a>
</g>
</g>
<!-- Node2 -->
<g id="node2" class="node">
<title>Node2</title>
<g id="a_node2"><a xlink:href="a00239.html#a15371cf35e812615a00fc5f535320338" target="_top" xlink:title=" ">
<polygon fill="#ffffff" stroke="#000000" points="162.0586,-21.5 162.0586,-39.5 293.6787,-39.5 293.6787,-21.5 162.0586,-21.5"/>
<text text-anchor="middle" x="227.8687" y="-27.5" font-family="Helvetica,sans-Serif" font-size="10.00" fill="#000000">CO_Cobra\_convert_login</text>
</a>
</g>
</g>
<!-- Node1&#45;&gt;Node2 -->
<g id="edge1" class="edge">
<title>Node1&#45;&gt;Node2</title>
<path fill="none" stroke="#191970" d="M126.2891,-30.5C134.7072,-30.5 143.4076,-30.5 152.0121,-30.5"/>
<polygon fill="#191970" stroke="#191970" points="152.0462,-34.0001 162.0462,-30.5 152.0461,-27.0001 152.0462,-34.0001"/>
</g>
<!-- Node3 -->
<g id="node3" class="node">
<title>Node3</title>
<g id="a_node3"><a xlink:href="a00239.html#ad5bb2d69d9ca618b755ceb4eaba247e8" target="_top" xlink:title=" ">
<polygon fill="#ffffff" stroke="#000000" points="331.6318,-37.5 331.6318,-65.5 462.6855,-65.5 462.6855,-37.5 331.6318,-37.5"/>
<text text-anchor="start" x="339.6318" y="-53.5" font-family="Helvetica,sans-Serif" font-size="10.00" fill="#000000">CO_Cobra\get_user_from</text>
<text text-anchor="middle" x="397.1587" y="-43.5" font-family="Helvetica,sans-Serif" font-size="10.00" fill="#000000">_login</text>
</a>
</g>
</g>
<!-- Node2&#45;&gt;Node3 -->
<g id="edge2" class="edge">
<title>Node2&#45;&gt;Node3</title>
<path fill="none" stroke="#191970" d="M293.8054,-38.6793C302.8732,-39.8041 312.2425,-40.9664 321.4683,-42.1108"/>
<polygon fill="#191970" stroke="#191970" points="321.0471,-45.5853 331.4019,-43.343 321.9089,-38.6385 321.0471,-45.5853"/>
</g>
<!-- Node5 -->
<g id="node5" class="node">
<title>Node5</title>
<g id="a_node5"><a xlink:href="a00343.html#aac538e52310a1c332914682a9c2ec8d2" target="_top" xlink:title=" ">
<polygon fill="#ffffff" stroke="#000000" points="329.6787,-.5 329.6787,-18.5 464.6387,-18.5 464.6387,-.5 329.6787,-.5"/>
<text text-anchor="middle" x="397.1587" y="-6.5" font-family="Helvetica,sans-Serif" font-size="10.00" fill="#000000">CO_Security_Login\is_god</text>
</a>
</g>
</g>
<!-- Node2&#45;&gt;Node5 -->
<g id="edge4" class="edge">
<title>Node2&#45;&gt;Node5</title>
<path fill="none" stroke="#191970" d="M293.8054,-22.3207C302.2131,-21.2778 310.8801,-20.2026 319.4516,-19.1394"/>
<polygon fill="#191970" stroke="#191970" points="319.9556,-22.6038 329.4487,-17.8993 319.0938,-15.657 319.9556,-22.6038"/>
</g>
<!-- Node4 -->
<g id="node4" class="node">
<title>Node4</title>
<g id="a_node4"><a xlink:href="a00239.html#a7d6421cfa6abf3aa5885bfe694ee898d" target="_top" xlink:title=" ">
<polygon fill="#ffffff" stroke="#000000" points="500.6387,-42.5 500.6387,-60.5 671.1748,-60.5 671.1748,-42.5 500.6387,-42.5"/>
<text text-anchor="middle" x="585.9067" y="-48.5" font-family="Helvetica,sans-Serif" font-size="10.00" fill="#000000">CO_Cobra\make_standalone_user</text>
</a>
</g>
</g>
<!-- Node3&#45;&gt;Node4 -->
<g id="edge3" class="edge">
<title>Node3&#45;&gt;Node4</title>
<path fill="none" stroke="#191970" d="M462.9086,-51.5C471.8156,-51.5 481.0983,-51.5 490.3957,-51.5"/>
<polygon fill="#191970" stroke="#191970" points="490.4731,-55.0001 500.4731,-51.5 490.4731,-48.0001 490.4731,-55.0001"/>
</g>
<!-- Node6 -->
<g id="node6" class="node">
<title>Node6</title>
<g id="a_node6"><a xlink:href="a00311.html#a78affe18a811930d4012fd265e95cdca" target="_top" xlink:title=" ">
<polygon fill="#ffffff" stroke="#000000" points="520.3726,-.5 520.3726,-18.5 651.4409,-18.5 651.4409,-.5 520.3726,-.5"/>
<text text-anchor="middle" x="585.9067" y="-6.5" font-family="Helvetica,sans-Serif" font-size="10.00" fill="#000000">A_CO_DB_Table_Base\id</text>
</a>
</g>
</g>
<!-- Node5&#45;&gt;Node6 -->
<g id="edge5" class="edge">
<title>Node5&#45;&gt;Node6</title>
<path fill="none" stroke="#191970" d="M464.7679,-9.5C479.4647,-9.5 495.1056,-9.5 510.0958,-9.5"/>
<polygon fill="#191970" stroke="#191970" points="510.3502,-13.0001 520.3502,-9.5 510.3502,-6.0001 510.3502,-13.0001"/>
</g>
</g>
</svg>
