<?xml version="1.0" encoding="UTF-8" standalone="no"?>
<!DOCTYPE svg PUBLIC "-//W3C//DTD SVG 1.1//EN"
 "http://www.w3.org/Graphics/SVG/1.1/DTD/svg11.dtd">
<!-- Generated by graphviz version 2.40.1 (20161225.0304)
 -->
<!-- Title: A_CO_DB_Table_Base\load_from_db Pages: 1 -->
<svg width="296pt" height="74pt"
 viewBox="0.00 0.00 295.58 74.00" xmlns="http://www.w3.org/2000/svg" xmlns:xlink="http://www.w3.org/1999/xlink">
<g id="graph0" class="graph" transform="scale(1 1) rotate(0) translate(4 70)">
<title>A_CO_DB_Table_Base\load_from_db</title>
<polygon fill="#ffffff" stroke="transparent" points="-4,4 -4,-70 291.5752,-70 291.5752,4 -4,4"/>
<!-- Node1 -->
<g id="node1" class="node">
<title>Node1</title>
<g id="a_node1"><a xlink:title=" ">
<polygon fill="#bfbfbf" stroke="#000000" points="0,-16.5 0,-44.5 120.5068,-44.5 120.5068,-16.5 0,-16.5"/>
<text text-anchor="start" x="8" y="-32.5" font-family="Helvetica,sans-Serif" font-size="10.00" fill="#000000">A_CO_DB_Table_Base</text>
<text text-anchor="middle" x="60.2534" y="-22.5" font-family="Helvetica,sans-Serif" font-size="10.00" fill="#000000">\load_from_db</text>
</a>
</g>
</g>
<!-- Node2 -->
<g id="node2" class="node">
<title>Node2</title>
<g id="a_node2"><a xlink:href="a00311.html#aecf243af90c7a16d03c7e4630ccc4e8e" target="_top" xlink:title=" ">
<polygon fill="#ffffff" stroke="#000000" points="161.7876,-37.5 161.7876,-65.5 282.2944,-65.5 282.2944,-37.5 161.7876,-37.5"/>
<text text-anchor="start" x="169.7876" y="-53.5" font-family="Helvetica,sans-Serif" font-size="10.00" fill="#000000">A_CO_DB_Table_Base</text>
<text text-anchor="middle" x="222.041" y="-43.5" font-family="Helvetica,sans-Serif" font-size="10.00" fill="#000000">\_badger_unserialize</text>
</a>
</g>
</g>
<!-- Node1&#45;&gt;Node2 -->
<g id="edge1" class="edge">
<title>Node1&#45;&gt;Node2</title>
<path fill="none" stroke="#191970" d="M120.9574,-38.3794C130.9101,-39.6712 141.2984,-41.0196 151.4656,-42.3393"/>
<polygon fill="#191970" stroke="#191970" points="151.1675,-45.8299 161.5348,-43.6463 152.0686,-38.8881 151.1675,-45.8299"/>
</g>
<!-- Node3 -->
<g id="node3" class="node">
<title>Node3</title>
<g id="a_node3"><a xlink:href="a00311.html#a78affe18a811930d4012fd265e95cdca" target="_top" xlink:title=" ">
<polygon fill="#ffffff" stroke="#000000" points="156.5068,-.5 156.5068,-18.5 287.5752,-18.5 287.5752,-.5 156.5068,-.5"/>
<text text-anchor="middle" x="222.041" y="-6.5" font-family="Helvetica,sans-Serif" font-size="10.00" fill="#000000">A_CO_DB_Table_Base\id</text>
</a>
</g>
</g>
<!-- Node1&#45;&gt;Node3 -->
<g id="edge2" class="edge">
<title>Node1&#45;&gt;Node3</title>
<path fill="none" stroke="#191970" d="M120.9574,-22.6206C129.271,-21.5415 137.8884,-20.423 146.4271,-19.3147"/>
<polygon fill="#191970" stroke="#191970" points="146.9254,-22.7795 156.3916,-18.0213 146.0243,-15.8377 146.9254,-22.7795"/>
</g>
</g>
</svg>
