<?xml version="1.0" encoding="UTF-8" standalone="no"?>
<!DOCTYPE svg PUBLIC "-//W3C//DTD SVG 1.1//EN"
 "http://www.w3.org/Graphics/SVG/1.1/DTD/svg11.dtd">
<!-- Generated by graphviz version 2.40.1 (20161225.0304)
 -->
<!-- Title: A_CO_DB_Table_Base\_write_to_db Pages: 1 -->
<!--zoomable 598 -->
<svg id="main" version="1.1" xmlns="http://www.w3.org/2000/svg" xmlns:xlink="http://www.w3.org/1999/xlink" xml:space="preserve" onload="init(evt)">
<style type="text/css"><![CDATA[
.edge:hover path { stroke: red; }
.edge:hover polygon { stroke: red; fill: red; }
]]></style>
<script type="text/javascript"><![CDATA[
var edges = document.getElementsByTagName('g');
if (edges && edges.length) {
  for (var i=0;i<edges.length;i++) {
    if (edges[i].id.substr(0,4)=='edge') {
      edges[i].setAttribute('class','edge');
    }
  }
}
]]></script>
        <defs>
                <circle id="rim" cx="0" cy="0" r="7"/>
                <circle id="rim2" cx="0" cy="0" r="3.5"/>
                <g id="zoomPlus">
                        <use xlink:href="#rim" fill="#404040">
                                <set attributeName="fill" to="#808080" begin="zoomplus.mouseover" end="zoomplus.mouseout"/>
                        </use>
                        <path d="M-4,0h8M0,-4v8" fill="none" stroke="white" stroke-width="1.5" pointer-events="none"/>
                </g>
                <g id="zoomMin">
                        <use xlink:href="#rim" fill="#404040">
                                <set attributeName="fill" to="#808080" begin="zoomminus.mouseover" end="zoomminus.mouseout"/>
                        </use>
                        <path d="M-4,0h8" fill="none" stroke="white" stroke-width="1.5" pointer-events="none"/>
                </g>
                <g id="dirArrow">
                        <path fill="none" stroke="white" stroke-width="1.5" d="M0,-3.0v7 M-2.5,-0.5L0,-3.0L2.5,-0.5"/>
                </g>
               <g id="resetDef">
                       <use xlink:href="#rim2" fill="#404040">
                               <set attributeName="fill" to="#808080" begin="reset.mouseover" end="reset.mouseout"/>
                       </use>
               </g>
        </defs>

<script type="text/javascript">
var viewWidth = 677;
var viewHeight = 598;
var sectionId = 'dynsection-10';
</script>
<script xlink:href="svgpan.js"/>
<svg id="graph" class="graph">
<g id="viewport">
<title>A_CO_DB_Table_Base\_write_to_db</title>
<polygon fill="#ffffff" stroke="transparent" points="-4,4 -4,-594 672.9336,-594 672.9336,4 -4,4"/>
<!-- Node67 -->
<g id="node1" class="node">
<title>Node67</title>
<polygon fill="#bfbfbf" stroke="#000000" points="0,-288.5 0,-316.5 120.5068,-316.5 120.5068,-288.5 0,-288.5"/>
<text text-anchor="start" x="8" y="-304.5" font-family="Helvetica,sans-Serif" font-size="10.00" fill="#000000">A_CO_DB_Table_Base</text>
<text text-anchor="middle" x="60.2534" y="-294.5" font-family="Helvetica,sans-Serif" font-size="10.00" fill="#000000">\_write_to_db</text>
</g>
<!-- Node68 -->
<g id="node2" class="node">
<title>Node68</title>
<g id="a_node2"><a xlink:href="a00343.html#ae927630811dae37fddc34b16878c63fd" target="_top" xlink:title="CO_Security_Login\\delete\l_from_db">
<polygon fill="#ffffff" stroke="#000000" points="156.5068,-312.5 156.5068,-340.5 289.2451,-340.5 289.2451,-312.5 156.5068,-312.5"/>
<text text-anchor="start" x="164.5068" y="-328.5" font-family="Helvetica,sans-Serif" font-size="10.00" fill="#000000">CO_Security_Login\delete</text>
<text text-anchor="middle" x="222.876" y="-318.5" font-family="Helvetica,sans-Serif" font-size="10.00" fill="#000000">_from_db</text>
</a>
</g>
</g>
<!-- Node67&#45;&gt;Node68 -->
<g id="edge1" class="edge">
<title>Node67&#45;&gt;Node68</title>
<path fill="none" stroke="#191970" d="M130.9575,-312.9346C139.361,-314.1748 147.9183,-315.4377 156.2619,-316.669"/>
<polygon fill="#191970" stroke="#191970" points="131.2119,-309.4343 120.8081,-311.4367 130.1899,-316.3593 131.2119,-309.4343"/>
</g>
<!-- Node69 -->
<g id="node3" class="node">
<title>Node69</title>
<g id="a_node3"><a xlink:href="a00311.html#a7487697640051c6661b8cdca6f109959" target="_top" xlink:title="A_CO_DB_Table_Base\l\\update_db">
<polygon fill="#ffffff" stroke="#000000" points="162.6226,-265.5 162.6226,-293.5 283.1294,-293.5 283.1294,-265.5 162.6226,-265.5"/>
<text text-anchor="start" x="170.6226" y="-281.5" font-family="Helvetica,sans-Serif" font-size="10.00" fill="#000000">A_CO_DB_Table_Base</text>
<text text-anchor="middle" x="222.876" y="-271.5" font-family="Helvetica,sans-Serif" font-size="10.00" fill="#000000">\update_db</text>
</a>
</g>
</g>
<!-- Node67&#45;&gt;Node69 -->
<g id="edge2" class="edge">
<title>Node67&#45;&gt;Node69</title>
<path fill="none" stroke="#191970" d="M130.8385,-292.517C141.4038,-291.0228 152.2149,-289.4937 162.5416,-288.0332"/>
<polygon fill="#191970" stroke="#191970" points="130.2194,-289.0697 120.8081,-293.9356 131.1997,-296.0007 130.2194,-289.0697"/>
</g>
<!-- Node70 -->
<g id="node4" class="node">
<title>Node70</title>
<g id="a_node4"><a xlink:href="a00311.html#ab976e4ab55890095fc60406326b5de80" target="_top" xlink:title="A_CO_DB_Table_Base\l\\clear_batch_mode">
<polygon fill="#ffffff" stroke="#000000" points="343.0259,-561.5 343.0259,-589.5 463.5327,-589.5 463.5327,-561.5 343.0259,-561.5"/>
<text text-anchor="start" x="351.0259" y="-577.5" font-family="Helvetica,sans-Serif" font-size="10.00" fill="#000000">A_CO_DB_Table_Base</text>
<text text-anchor="middle" x="403.2793" y="-567.5" font-family="Helvetica,sans-Serif" font-size="10.00" fill="#000000">\clear_batch_mode</text>
</a>
</g>
</g>
<!-- Node69&#45;&gt;Node70 -->
<g id="edge3" class="edge">
<title>Node69&#45;&gt;Node70</title>
<path fill="none" stroke="#191970" d="M286.0785,-300.0309C287.1949,-301.1276 288.2535,-302.283 289.2451,-303.5 359.8761,-390.1855 252.0306,-467.9852 325.2451,-552.5 330.054,-558.0511 336.1289,-562.296 342.7572,-565.5364"/>
<polygon fill="#191970" stroke="#191970" points="287.9814,-297.0733 277.9687,-293.6096 283.636,-302.5613 287.9814,-297.0733"/>
</g>
<!-- Node71 -->
<g id="node5" class="node">
<title>Node71</title>
<g id="a_node5"><a xlink:href="a00311.html#a3d4d1ab7910b9ccfdf8654d767e01d9b" target="_top" xlink:title="A_CO_DB_Table_Base\l\\set_read_security_id">
<polygon fill="#ffffff" stroke="#000000" points="343.0259,-514.5 343.0259,-542.5 463.5327,-542.5 463.5327,-514.5 343.0259,-514.5"/>
<text text-anchor="start" x="351.0259" y="-530.5" font-family="Helvetica,sans-Serif" font-size="10.00" fill="#000000">A_CO_DB_Table_Base</text>
<text text-anchor="middle" x="403.2793" y="-520.5" font-family="Helvetica,sans-Serif" font-size="10.00" fill="#000000">\set_read_security_id</text>
</a>
</g>
</g>
<!-- Node69&#45;&gt;Node71 -->
<g id="edge4" class="edge">
<title>Node69&#45;&gt;Node71</title>
<path fill="none" stroke="#191970" d="M285.5913,-299.6658C286.8831,-300.8705 288.1054,-302.1471 289.2451,-303.5 347.9991,-373.2425 264.4135,-437.5621 325.2451,-505.5 330.1443,-510.9715 336.2729,-515.1692 342.9293,-518.3848"/>
<polygon fill="#191970" stroke="#191970" points="287.5984,-296.795 277.5213,-293.5233 283.3587,-302.3651 287.5984,-296.795"/>
</g>
<!-- Node72 -->
<g id="node6" class="node">
<title>Node72</title>
<g id="a_node6"><a xlink:href="a00311.html#a55eae92ef3e2f47689019e174f29daf1" target="_top" xlink:title="A_CO_DB_Table_Base\l\\set_write_security_id">
<polygon fill="#ffffff" stroke="#000000" points="343.0259,-467.5 343.0259,-495.5 463.5327,-495.5 463.5327,-467.5 343.0259,-467.5"/>
<text text-anchor="start" x="351.0259" y="-483.5" font-family="Helvetica,sans-Serif" font-size="10.00" fill="#000000">A_CO_DB_Table_Base</text>
<text text-anchor="middle" x="403.2793" y="-473.5" font-family="Helvetica,sans-Serif" font-size="10.00" fill="#000000">\set_write_security_id</text>
</a>
</g>
</g>
<!-- Node69&#45;&gt;Node72 -->
<g id="edge5" class="edge">
<title>Node69&#45;&gt;Node72</title>
<path fill="none" stroke="#191970" d="M285.4043,-299.6617C286.758,-300.8676 288.0427,-302.1456 289.2451,-303.5 336.1973,-356.3883 276.7185,-407.0525 325.2451,-458.5 330.1876,-463.74 336.2578,-467.805 342.8103,-470.9552"/>
<polygon fill="#191970" stroke="#191970" points="287.131,-296.5886 276.9923,-293.5133 283.0004,-302.2399 287.131,-296.5886"/>
</g>
<!-- Node73 -->
<g id="node7" class="node">
<title>Node73</title>
<g id="a_node7"><a xlink:href="a00311.html#a92a9b9a122e9471b82dd79432bf3c929" target="_top" xlink:title="A_CO_DB_Table_Base\l\\set_name">
<polygon fill="#ffffff" stroke="#000000" points="343.0259,-420.5 343.0259,-448.5 463.5327,-448.5 463.5327,-420.5 343.0259,-420.5"/>
<text text-anchor="start" x="351.0259" y="-436.5" font-family="Helvetica,sans-Serif" font-size="10.00" fill="#000000">A_CO_DB_Table_Base</text>
<text text-anchor="middle" x="403.2793" y="-426.5" font-family="Helvetica,sans-Serif" font-size="10.00" fill="#000000">\set_name</text>
</a>
</g>
</g>
<!-- Node69&#45;&gt;Node73 -->
<g id="edge6" class="edge">
<title>Node69&#45;&gt;Node73</title>
<path fill="none" stroke="#191970" d="M284.7476,-299.4131C286.3285,-300.6919 287.8337,-302.0525 289.2451,-303.5 324.568,-339.7256 288.8453,-376.3567 325.2451,-411.5 330.3256,-416.4051 336.3982,-420.2715 342.8817,-423.3178"/>
<polygon fill="#191970" stroke="#191970" points="286.5336,-296.3953 276.2938,-293.6755 282.6026,-302.1873 286.5336,-296.3953"/>
</g>
<!-- Node74 -->
<g id="node8" class="node">
<title>Node74</title>
<g id="a_node8"><a xlink:href="a00311.html#a1ed093545fa1cbc3f63a672cdf424734" target="_top" xlink:title="A_CO_DB_Table_Base\l\\set_lang">
<polygon fill="#ffffff" stroke="#000000" points="343.0259,-373.5 343.0259,-401.5 463.5327,-401.5 463.5327,-373.5 343.0259,-373.5"/>
<text text-anchor="start" x="351.0259" y="-389.5" font-family="Helvetica,sans-Serif" font-size="10.00" fill="#000000">A_CO_DB_Table_Base</text>
<text text-anchor="middle" x="403.2793" y="-379.5" font-family="Helvetica,sans-Serif" font-size="10.00" fill="#000000">\set_lang</text>
</a>
</g>
</g>
<!-- Node69&#45;&gt;Node74 -->
<g id="edge7" class="edge">
<title>Node69&#45;&gt;Node74</title>
<path fill="none" stroke="#191970" d="M282.6972,-298.7113C284.9867,-300.1954 287.1819,-301.7891 289.2451,-303.5 313.4778,-323.5945 300.4171,-345.1459 325.2451,-364.5 330.4805,-368.5812 336.4239,-371.939 342.6387,-374.7016"/>
<polygon fill="#191970" stroke="#191970" points="283.9079,-295.3761 273.4779,-293.5146 280.4705,-301.474 283.9079,-295.3761"/>
</g>
<!-- Node75 -->
<g id="node9" class="node">
<title>Node75</title>
<g id="a_node9"><a xlink:href="a00319.html#a6349c04b5a027e23f0b8bd8810579844" target="_top" xlink:title="CO_Main_DB_Record\\set\l_owner_id">
<polygon fill="#ffffff" stroke="#000000" points="337.4766,-326.5 337.4766,-354.5 469.082,-354.5 469.082,-326.5 337.4766,-326.5"/>
<text text-anchor="start" x="345.4766" y="-342.5" font-family="Helvetica,sans-Serif" font-size="10.00" fill="#000000">CO_Main_DB_Record\set</text>
<text text-anchor="middle" x="403.2793" y="-332.5" font-family="Helvetica,sans-Serif" font-size="10.00" fill="#000000">_owner_id</text>
</a>
</g>
</g>
<!-- Node69&#45;&gt;Node75 -->
<g id="edge8" class="edge">
<title>Node69&#45;&gt;Node75</title>
<path fill="none" stroke="#191970" d="M271.9679,-297.1031C277.7984,-299.2379 283.6598,-301.4044 289.2451,-303.5 305.3184,-309.5305 308.9972,-311.9572 325.2451,-317.5 334.2013,-320.5553 343.8145,-323.5868 353.1275,-326.3976"/>
<polygon fill="#191970" stroke="#191970" points="272.8329,-293.6933 262.239,-293.5586 270.4367,-300.2704 272.8329,-293.6933"/>
</g>
<!-- Node76 -->
<g id="node10" class="node">
<title>Node76</title>
<g id="a_node10"><a xlink:href="a00319.html#a84074211704eba98c263bd7122cd13f7" target="_top" xlink:title="CO_Main_DB_Record\\set_tags">
<polygon fill="#ffffff" stroke="#000000" points="325.2451,-289.5 325.2451,-307.5 481.3135,-307.5 481.3135,-289.5 325.2451,-289.5"/>
<text text-anchor="middle" x="403.2793" y="-295.5" font-family="Helvetica,sans-Serif" font-size="10.00" fill="#000000">CO_Main_DB_Record\set_tags</text>
</a>
</g>
</g>
<!-- Node69&#45;&gt;Node76 -->
<g id="edge9" class="edge">
<title>Node69&#45;&gt;Node76</title>
<path fill="none" stroke="#191970" d="M293.4271,-286.9304C303.7988,-288.0228 314.5349,-289.1535 325.05,-290.2609"/>
<polygon fill="#191970" stroke="#191970" points="293.5101,-283.4199 283.1985,-285.8531 292.7769,-290.3814 293.5101,-283.4199"/>
</g>
<!-- Node78 -->
<g id="node12" class="node">
<title>Node78</title>
<g id="a_node12"><a xlink:href="a00319.html#a1f9581fbd4aa2611da866405d446295c" target="_top" xlink:title="CO_Main_DB_Record\\set_tag">
<polygon fill="#ffffff" stroke="#000000" points="327.7451,-252.5 327.7451,-270.5 478.8135,-270.5 478.8135,-252.5 327.7451,-252.5"/>
<text text-anchor="middle" x="403.2793" y="-258.5" font-family="Helvetica,sans-Serif" font-size="10.00" fill="#000000">CO_Main_DB_Record\set_tag</text>
</a>
</g>
</g>
<!-- Node69&#45;&gt;Node78 -->
<g id="edge11" class="edge">
<title>Node69&#45;&gt;Node78</title>
<path fill="none" stroke="#191970" d="M293.3727,-272.4661C304.6057,-271.3453 316.2673,-270.1817 327.6138,-269.0496"/>
<polygon fill="#191970" stroke="#191970" points="292.8016,-269.0056 283.1985,-273.4812 293.4966,-275.971 292.8016,-269.0056"/>
</g>
<!-- Node79 -->
<g id="node13" class="node">
<title>Node79</title>
<g id="a_node13"><a xlink:href="a00319.html#a7860101403a734329dd8c1079f5d367e" target="_top" xlink:title="CO_Main_DB_Record\\set\l_payload">
<polygon fill="#ffffff" stroke="#000000" points="337.4766,-205.5 337.4766,-233.5 469.082,-233.5 469.082,-205.5 337.4766,-205.5"/>
<text text-anchor="start" x="345.4766" y="-221.5" font-family="Helvetica,sans-Serif" font-size="10.00" fill="#000000">CO_Main_DB_Record\set</text>
<text text-anchor="middle" x="403.2793" y="-211.5" font-family="Helvetica,sans-Serif" font-size="10.00" fill="#000000">_payload</text>
</a>
</g>
</g>
<!-- Node69&#45;&gt;Node79 -->
<g id="edge12" class="edge">
<title>Node69&#45;&gt;Node79</title>
<path fill="none" stroke="#191970" d="M271.3555,-262.0071C288.3482,-255.9938 307.5951,-249.3151 325.2451,-243.5 335.3416,-240.1735 346.22,-236.7362 356.5554,-233.5385"/>
<polygon fill="#191970" stroke="#191970" points="269.891,-258.813 261.6401,-265.4593 272.2348,-265.409 269.891,-258.813"/>
</g>
<!-- Node80 -->
<g id="node14" class="node">
<title>Node80</title>
<g id="a_node14"><a xlink:href="a00331.html#a241314e7be52a7ca6487e41f34bb78fd" target="_top" xlink:title="CO_Security_Node\\set_ids">
<polygon fill="#ffffff" stroke="#000000" points="334.9717,-168.5 334.9717,-186.5 471.5869,-186.5 471.5869,-168.5 334.9717,-168.5"/>
<text text-anchor="middle" x="403.2793" y="-174.5" font-family="Helvetica,sans-Serif" font-size="10.00" fill="#000000">CO_Security_Node\set_ids</text>
</a>
</g>
</g>
<!-- Node69&#45;&gt;Node80 -->
<g id="edge13" class="edge">
<title>Node69&#45;&gt;Node80</title>
<path fill="none" stroke="#191970" d="M243.3843,-258.1744C262.7678,-239.2426 293.5324,-212.2144 325.2451,-196.5 333.4909,-192.414 342.6717,-189.172 351.7573,-186.6103"/>
<polygon fill="#191970" stroke="#191970" points="240.6592,-255.9489 236.0479,-265.4877 245.6011,-260.9065 240.6592,-255.9489"/>
</g>
<!-- Node82 -->
<g id="node16" class="node">
<title>Node82</title>
<g id="a_node16"><a xlink:href="a00331.html#a4a3ed38130b49569d494ec7c262ca32d" target="_top" xlink:title="CO_Security_Node\\add_id">
<polygon fill="#ffffff" stroke="#000000" points="335.7993,-131.5 335.7993,-149.5 470.7593,-149.5 470.7593,-131.5 335.7993,-131.5"/>
<text text-anchor="middle" x="403.2793" y="-137.5" font-family="Helvetica,sans-Serif" font-size="10.00" fill="#000000">CO_Security_Node\add_id</text>
</a>
</g>
</g>
<!-- Node69&#45;&gt;Node82 -->
<g id="edge15" class="edge">
<title>Node69&#45;&gt;Node82</title>
<path fill="none" stroke="#191970" d="M236.1378,-256.5714C253.1992,-229.1825 285.4345,-184.0001 325.2451,-159.5 332.0138,-155.3345 339.6369,-152.0819 347.3984,-149.5424"/>
<polygon fill="#191970" stroke="#191970" points="233.1442,-254.7581 230.9445,-265.1221 239.1271,-258.3919 233.1442,-254.7581"/>
</g>
<!-- Node83 -->
<g id="node17" class="node">
<title>Node83</title>
<g id="a_node17"><a xlink:href="a00343.html#a061f896c69dc8a8dd3d9ee793b91ddc7" target="_top" xlink:title="CO_Security_Login\\set_lang">
<polygon fill="#ffffff" stroke="#000000" points="331.6294,-94.5 331.6294,-112.5 474.9292,-112.5 474.9292,-94.5 331.6294,-94.5"/>
<text text-anchor="middle" x="403.2793" y="-100.5" font-family="Helvetica,sans-Serif" font-size="10.00" fill="#000000">CO_Security_Login\set_lang</text>
</a>
</g>
</g>
<!-- Node69&#45;&gt;Node83 -->
<g id="edge16" class="edge">
<title>Node69&#45;&gt;Node83</title>
<path fill="none" stroke="#191970" d="M231.6799,-255.8004C245.8615,-221.0056 277.1394,-156.5473 325.2451,-122.5 331.0495,-118.3919 337.6383,-115.1665 344.4685,-112.6352"/>
<polygon fill="#191970" stroke="#191970" points="228.3939,-254.5927 227.9802,-265.1795 234.9056,-257.1614 228.3939,-254.5927"/>
</g>
<!-- Node84 -->
<g id="node18" class="node">
<title>Node84</title>
<g id="a_node18"><a xlink:href="a00343.html#ac4f0c16cb8cf1e2151451bf4d5cb2238" target="_top" xlink:title="CO_Security_Login\\set\l_password_from_cleartext">
<polygon fill="#ffffff" stroke="#000000" points="336.6416,-47.5 336.6416,-75.5 469.917,-75.5 469.917,-47.5 336.6416,-47.5"/>
<text text-anchor="start" x="344.6416" y="-63.5" font-family="Helvetica,sans-Serif" font-size="10.00" fill="#000000">CO_Security_Login\set</text>
<text text-anchor="middle" x="403.2793" y="-53.5" font-family="Helvetica,sans-Serif" font-size="10.00" fill="#000000">_password_from_cleartext</text>
</a>
</g>
</g>
<!-- Node69&#45;&gt;Node84 -->
<g id="edge17" class="edge">
<title>Node69&#45;&gt;Node84</title>
<path fill="none" stroke="#191970" d="M229.0029,-255.4952C240.6895,-214.5516 270.0574,-131.2171 325.2451,-85.5 329.9386,-81.6119 335.257,-78.3529 340.858,-75.6213"/>
<polygon fill="#191970" stroke="#191970" points="225.5563,-254.8294 226.2876,-265.399 232.3072,-256.6803 225.5563,-254.8294"/>
</g>
<!-- Node85 -->
<g id="node19" class="node">
<title>Node85</title>
<g id="a_node19"><a xlink:href="a00343.html#a59e2e5be376349924698305603bfb51f" target="_top" xlink:title="CO_Security_Login\\clear\l_api_key">
<polygon fill="#ffffff" stroke="#000000" points="339.6958,-.5 339.6958,-28.5 466.8628,-28.5 466.8628,-.5 339.6958,-.5"/>
<text text-anchor="start" x="347.6958" y="-16.5" font-family="Helvetica,sans-Serif" font-size="10.00" fill="#000000">CO_Security_Login\clear</text>
<text text-anchor="middle" x="403.2793" y="-6.5" font-family="Helvetica,sans-Serif" font-size="10.00" fill="#000000">_api_key</text>
</a>
</g>
</g>
<!-- Node69&#45;&gt;Node85 -->
<g id="edge18" class="edge">
<title>Node69&#45;&gt;Node85</title>
<path fill="none" stroke="#191970" d="M226.2934,-255.2962C234.4018,-206.9427 259.3148,-97.9489 325.2451,-38.5 329.561,-34.6084 334.496,-31.3478 339.7411,-28.6158"/>
<polygon fill="#191970" stroke="#191970" points="222.7943,-255.0164 224.693,-265.4397 229.7088,-256.1074 222.7943,-255.0164"/>
</g>
<!-- Node77 -->
<g id="node11" class="node">
<title>Node77</title>
<g id="a_node11"><a xlink:href="a00263.html#a887a876b0603db0289a8bdc7ab4e66b2" target="_top" xlink:title="CO_Place\\set_tags_from\l_address_elements">
<polygon fill="#ffffff" stroke="#000000" points="529.2642,-284.5 529.2642,-312.5 656.9829,-312.5 656.9829,-284.5 529.2642,-284.5"/>
<text text-anchor="start" x="537.2642" y="-300.5" font-family="Helvetica,sans-Serif" font-size="10.00" fill="#000000">CO_Place\set_tags_from</text>
<text text-anchor="middle" x="593.1235" y="-290.5" font-family="Helvetica,sans-Serif" font-size="10.00" fill="#000000">_address_elements</text>
</a>
</g>
</g>
<!-- Node76&#45;&gt;Node77 -->
<g id="edge10" class="edge">
<title>Node76&#45;&gt;Node77</title>
<path fill="none" stroke="#191970" d="M491.4185,-298.5C504.0777,-298.5 516.8987,-298.5 528.9745,-298.5"/>
<polygon fill="#191970" stroke="#191970" points="491.3181,-295.0001 481.3181,-298.5 491.318,-302.0001 491.3181,-295.0001"/>
</g>
<!-- Node81 -->
<g id="node15" class="node">
<title>Node81</title>
<g id="a_node15"><a xlink:href="a00331.html#af852d696981829b18e29fb07918d8630" target="_top" xlink:title="CO_Security_Node\\remove_id">
<polygon fill="#ffffff" stroke="#000000" points="517.3135,-168.5 517.3135,-186.5 668.9336,-186.5 668.9336,-168.5 517.3135,-168.5"/>
<text text-anchor="middle" x="593.1235" y="-174.5" font-family="Helvetica,sans-Serif" font-size="10.00" fill="#000000">CO_Security_Node\remove_id</text>
</a>
</g>
</g>
<!-- Node80&#45;&gt;Node81 -->
<g id="edge14" class="edge">
<title>Node80&#45;&gt;Node81</title>
<path fill="none" stroke="#191970" d="M481.9755,-177.5C493.6548,-177.5 505.6717,-177.5 517.2907,-177.5"/>
<polygon fill="#191970" stroke="#191970" points="481.8175,-174.0001 471.8174,-177.5 481.8174,-181.0001 481.8175,-174.0001"/>
</g>
</g>
</svg>
        <g id="navigator" transform="translate(0 0)" fill="#404254">
                <rect fill="#f2f5e9" fill-opacity="0.5" stroke="#606060" stroke-width=".5" x="0" y="0" width="60" height="60"/>
                <use id="zoomplus" xlink:href="#zoomPlus" x="17" y="9" onmousedown="handleZoom(evt,'in')"/>
                <use id="zoomminus" xlink:href="#zoomMin" x="42" y="9" onmousedown="handleZoom(evt,'out')"/>
                <use id="reset" xlink:href="#resetDef" x="30" y="36" onmousedown="handleReset()"/>
                <g id="arrowUp" xlink:href="#dirArrow" transform="translate(30 24)" onmousedown="handlePan(0,-1)">
                  <use xlink:href="#rim" fill="#404040">
                        <set attributeName="fill" to="#808080" begin="arrowUp.mouseover" end="arrowUp.mouseout"/>
                  </use>
                  <path fill="none" stroke="white" stroke-width="1.5" d="M0,-3.0v7 M-2.5,-0.5L0,-3.0L2.5,-0.5"/>
                </g>
                <g id="arrowRight" xlink:href="#dirArrow" transform="rotate(90) translate(36 -43)" onmousedown="handlePan(1,0)">
                  <use xlink:href="#rim" fill="#404040">
                        <set attributeName="fill" to="#808080" begin="arrowRight.mouseover" end="arrowRight.mouseout"/>
                  </use>
                  <path fill="none" stroke="white" stroke-width="1.5" d="M0,-3.0v7 M-2.5,-0.5L0,-3.0L2.5,-0.5"/>
                </g>
                <g id="arrowDown" xlink:href="#dirArrow" transform="rotate(180) translate(-30 -48)" onmousedown="handlePan(0,1)">
                  <use xlink:href="#rim" fill="#404040">
                        <set attributeName="fill" to="#808080" begin="arrowDown.mouseover" end="arrowDown.mouseout"/>
                  </use>
                  <path fill="none" stroke="white" stroke-width="1.5" d="M0,-3.0v7 M-2.5,-0.5L0,-3.0L2.5,-0.5"/>
                </g>
                <g id="arrowLeft" xlink:href="#dirArrow" transform="rotate(270) translate(-36 17)" onmousedown="handlePan(-1,0)">
                  <use xlink:href="#rim" fill="#404040">
                        <set attributeName="fill" to="#808080" begin="arrowLeft.mouseover" end="arrowLeft.mouseout"/>
                  </use>
                  <path fill="none" stroke="white" stroke-width="1.5" d="M0,-3.0v7 M-2.5,-0.5L0,-3.0L2.5,-0.5"/>
                </g>
        </g>
        <svg viewBox="0 0 15 15" width="100%" height="30px" preserveAspectRatio="xMaxYMin meet">
         <g id="arrow_out" transform="scale(0.3 0.3)">
          <a xlink:href="a00311_adda14b544e11934db3bf8130aeea0610_icgraph_org.svg" target="_base">
           <rect id="button" ry="5" rx="5" y="6" x="6" height="38" width="38"
                fill="#f2f5e9" fill-opacity="0.5" stroke="#606060" stroke-width="1.0"/>
           <path id="arrow"
             d="M 11.500037,31.436501 C 11.940474,20.09759 22.043105,11.32322 32.158766,21.979434 L 37.068811,17.246167 C 37.068811,17.246167 37.088388,32 37.088388,32 L 22.160133,31.978069 C 22.160133,31.978069 26.997745,27.140456 26.997745,27.140456 C 18.528582,18.264221 13.291696,25.230495 11.500037,31.436501 z"
             style="fill:#404040;"/>
          </a>
         </g>
        </svg>
</svg>
