<?xml version="1.0" encoding="UTF-8" standalone="no"?>
<!DOCTYPE svg PUBLIC "-//W3C//DTD SVG 1.1//EN"
 "http://www.w3.org/Graphics/SVG/1.1/DTD/svg11.dtd">
<!-- Generated by graphviz version 2.40.1 (20161225.0304)
 -->
<!-- Title: CO_Access\check_login_exists Pages: 1 -->
<svg width="291pt" height="37pt"
 viewBox="0.00 0.00 291.09 37.00" xmlns="http://www.w3.org/2000/svg" xmlns:xlink="http://www.w3.org/1999/xlink">
<g id="graph0" class="graph" transform="scale(1 1) rotate(0) translate(4 33)">
<title>CO_Access\check_login_exists</title>
<polygon fill="#ffffff" stroke="transparent" points="-4,4 -4,-33 287.0928,-33 287.0928,4 -4,4"/>
<!-- Node8 -->
<g id="node1" class="node">
<title>Node8</title>
<polygon fill="#bfbfbf" stroke="#000000" points="0,-.5 0,-28.5 124.3838,-28.5 124.3838,-.5 0,-.5"/>
<text text-anchor="start" x="8" y="-16.5" font-family="Helvetica,sans-Serif" font-size="10.00" fill="#000000">CO_Access\check_login</text>
<text text-anchor="middle" x="62.1919" y="-6.5" font-family="Helvetica,sans-Serif" font-size="10.00" fill="#000000">_exists</text>
</g>
<!-- Node9 -->
<g id="node2" class="node">
<title>Node9</title>
<g id="a_node2"><a xlink:href="a00355.html#a96c5de557dbba65d1fc15f58cfd01255" target="_top" xlink:title="CO_Access\\check_user\l_exists">
<polygon fill="#ffffff" stroke="#000000" points="160.3838,-.5 160.3838,-28.5 283.0928,-28.5 283.0928,-.5 160.3838,-.5"/>
<text text-anchor="start" x="168.3838" y="-16.5" font-family="Helvetica,sans-Serif" font-size="10.00" fill="#000000">CO_Access\check_user</text>
<text text-anchor="middle" x="221.7383" y="-6.5" font-family="Helvetica,sans-Serif" font-size="10.00" fill="#000000">_exists</text>
</a>
</g>
</g>
<!-- Node8&#45;&gt;Node9 -->
<g id="edge1" class="edge">
<title>Node8&#45;&gt;Node9</title>
<path fill="none" stroke="#191970" d="M135.0393,-14.5C143.5049,-14.5 152.0754,-14.5 160.3655,-14.5"/>
<polygon fill="#191970" stroke="#191970" points="134.791,-11.0001 124.7909,-14.5 134.7909,-18.0001 134.791,-11.0001"/>
</g>
</g>
</svg>
