<?xml version="1.0" encoding="UTF-8" standalone="no"?>
<!DOCTYPE svg PUBLIC "-//W3C//DTD SVG 1.1//EN"
 "http://www.w3.org/Graphics/SVG/1.1/DTD/svg11.dtd">
<!-- Generated by graphviz version 2.40.1 (20161225.0304)
 -->
<!-- Title: CO_Security_DB\get_multiple_records_by_login_id Pages: 1 -->
<svg width="293pt" height="47pt"
 viewBox="0.00 0.00 292.80 47.00" xmlns="http://www.w3.org/2000/svg" xmlns:xlink="http://www.w3.org/1999/xlink">
<g id="graph0" class="graph" transform="scale(1 1) rotate(0) translate(4 43)">
<title>CO_Security_DB\get_multiple_records_by_login_id</title>
<polygon fill="#ffffff" stroke="transparent" points="-4,4 -4,-43 288.8018,-43 288.8018,4 -4,4"/>
<!-- Node44 -->
<g id="node1" class="node">
<title>Node44</title>
<polygon fill="#bfbfbf" stroke="#000000" points="0,-.5 0,-38.5 111.0488,-38.5 111.0488,-.5 0,-.5"/>
<text text-anchor="start" x="8" y="-26.5" font-family="Helvetica,sans-Serif" font-size="10.00" fill="#000000">CO_Security_DB\get</text>
<text text-anchor="start" x="8" y="-16.5" font-family="Helvetica,sans-Serif" font-size="10.00" fill="#000000">_multiple_records_by</text>
<text text-anchor="middle" x="55.5244" y="-6.5" font-family="Helvetica,sans-Serif" font-size="10.00" fill="#000000">_login_id</text>
</g>
<!-- Node45 -->
<g id="node2" class="node">
<title>Node45</title>
<g id="a_node2"><a xlink:href="a00327.html#ab01692597b11329b0d63096b10e1f473" target="_top" xlink:title="CO_Security_DB\\get\l_single_record_by_login_id">
<polygon fill="#ffffff" stroke="#000000" points="147.0488,-5.5 147.0488,-33.5 284.8018,-33.5 284.8018,-5.5 147.0488,-5.5"/>
<text text-anchor="start" x="155.0488" y="-21.5" font-family="Helvetica,sans-Serif" font-size="10.00" fill="#000000">CO_Security_DB\get</text>
<text text-anchor="middle" x="215.9253" y="-11.5" font-family="Helvetica,sans-Serif" font-size="10.00" fill="#000000">_single_record_by_login_id</text>
</a>
</g>
</g>
<!-- Node44&#45;&gt;Node45 -->
<g id="edge1" class="edge">
<title>Node44&#45;&gt;Node45</title>
<path fill="none" stroke="#191970" d="M121.3005,-19.5C129.7121,-19.5 138.3426,-19.5 146.8053,-19.5"/>
<polygon fill="#191970" stroke="#191970" points="121.1747,-16.0001 111.1747,-19.5 121.1747,-23.0001 121.1747,-16.0001"/>
</g>
</g>
</svg>
