<?xml version="1.0" encoding="UTF-8" standalone="no"?>
<!DOCTYPE svg PUBLIC "-//W3C//DTD SVG 1.1//EN"
 "http://www.w3.org/Graphics/SVG/1.1/DTD/svg11.dtd">
<!-- Generated by graphviz version 2.40.1 (20161225.0304)
 -->
<!-- Title: A_CO_DB_Table_Base\load_from_db Pages: 1 -->
<svg width="484pt" height="110pt"
 viewBox="0.00 0.00 484.33 110.00" xmlns="http://www.w3.org/2000/svg" xmlns:xlink="http://www.w3.org/1999/xlink">
<g id="graph0" class="graph" transform="scale(1 1) rotate(0) translate(4 106)">
<title>A_CO_DB_Table_Base\load_from_db</title>
<polygon fill="#ffffff" stroke="transparent" points="-4,4 -4,-106 480.333,-106 480.333,4 -4,4"/>
<!-- Node1 -->
<g id="node1" class="node">
<title>Node1</title>
<g id="a_node1"><a xlink:title=" ">
<polygon fill="#bfbfbf" stroke="#000000" points="355.8262,-49.5 355.8262,-77.5 476.333,-77.5 476.333,-49.5 355.8262,-49.5"/>
<text text-anchor="start" x="363.8262" y="-65.5" font-family="Helvetica,sans-Serif" font-size="10.00" fill="#000000">A_CO_DB_Table_Base</text>
<text text-anchor="middle" x="416.0796" y="-55.5" font-family="Helvetica,sans-Serif" font-size="10.00" fill="#000000">\load_from_db</text>
</a>
</g>
</g>
<!-- Node2 -->
<g id="node2" class="node">
<title>Node2</title>
<g id="a_node2"><a xlink:href="a00308.html#a4417bcd42c4db0dc6f3d1c0ab94e19f3" target="_top" xlink:title=" ">
<polygon fill="#ffffff" stroke="#000000" points="199.3193,-73.5 199.3193,-101.5 319.8262,-101.5 319.8262,-73.5 199.3193,-73.5"/>
<text text-anchor="start" x="207.3193" y="-89.5" font-family="Helvetica,sans-Serif" font-size="10.00" fill="#000000">A_CO_DB_Table_Base</text>
<text text-anchor="middle" x="259.5728" y="-79.5" font-family="Helvetica,sans-Serif" font-size="10.00" fill="#000000">\__construct</text>
</a>
</g>
</g>
<!-- Node1&#45;&gt;Node2 -->
<g id="edge1" class="edge">
<title>Node1&#45;&gt;Node2</title>
<path fill="none" stroke="#191970" d="M345.5919,-74.3091C337.0217,-75.6234 328.326,-76.9568 319.9215,-78.2457"/>
<polygon fill="#191970" stroke="#191970" points="346.216,-77.7544 355.57,-72.779 345.155,-70.8353 346.216,-77.7544"/>
</g>
<!-- Node3 -->
<g id="node3" class="node">
<title>Node3</title>
<g id="a_node3"><a xlink:href="a00308.html#aa5e1bc5570c817cfe3ddeb67003d4f45" target="_top" xlink:title=" ">
<polygon fill="#ffffff" stroke="#000000" points="199.3193,-26.5 199.3193,-54.5 319.8262,-54.5 319.8262,-26.5 199.3193,-26.5"/>
<text text-anchor="start" x="207.3193" y="-42.5" font-family="Helvetica,sans-Serif" font-size="10.00" fill="#000000">A_CO_DB_Table_Base</text>
<text text-anchor="middle" x="259.5728" y="-32.5" font-family="Helvetica,sans-Serif" font-size="10.00" fill="#000000">\reload_from_db</text>
</a>
</g>
</g>
<!-- Node1&#45;&gt;Node3 -->
<g id="edge2" class="edge">
<title>Node1&#45;&gt;Node3</title>
<path fill="none" stroke="#191970" d="M345.5919,-53.1412C337.0217,-51.8818 328.326,-50.6039 319.9215,-49.3688"/>
<polygon fill="#191970" stroke="#191970" points="345.1673,-56.6164 355.57,-54.6076 346.1851,-49.6907 345.1673,-56.6164"/>
</g>
<!-- Node4 -->
<g id="node4" class="node">
<title>Node4</title>
<g id="a_node4"><a xlink:href="a00340.html#a64b021e6e339891ad10a60c6a45e7b06" target="_top" xlink:title=" ">
<polygon fill="#ffffff" stroke="#000000" points="20.5713,-47.5 20.5713,-85.5 142.748,-85.5 142.748,-47.5 20.5713,-47.5"/>
<text text-anchor="start" x="28.5713" y="-73.5" font-family="Helvetica,sans-Serif" font-size="10.00" fill="#000000">CO_Security_Login\add</text>
<text text-anchor="start" x="28.5713" y="-63.5" font-family="Helvetica,sans-Serif" font-size="10.00" fill="#000000">_personal_token_from</text>
<text text-anchor="middle" x="81.6597" y="-53.5" font-family="Helvetica,sans-Serif" font-size="10.00" fill="#000000">_current_login</text>
</a>
</g>
</g>
<!-- Node3&#45;&gt;Node4 -->
<g id="edge3" class="edge">
<title>Node3&#45;&gt;Node4</title>
<path fill="none" stroke="#191970" d="M188.5478,-50.8795C173.4796,-53.0815 157.6952,-55.3883 143.0225,-57.5325"/>
<polygon fill="#191970" stroke="#191970" points="189.454,-54.2843 198.8428,-49.375 188.4417,-47.3579 189.454,-54.2843"/>
</g>
<!-- Node5 -->
<g id="node5" class="node">
<title>Node5</title>
<g id="a_node5"><a xlink:href="a00340.html#a6d1a5f62b1742349eb0cc8ba921fa5cf" target="_top" xlink:title=" ">
<polygon fill="#ffffff" stroke="#000000" points="0,-.5 0,-28.5 163.3193,-28.5 163.3193,-.5 0,-.5"/>
<text text-anchor="start" x="8" y="-16.5" font-family="Helvetica,sans-Serif" font-size="10.00" fill="#000000">CO_Security_Login\remove</text>
<text text-anchor="middle" x="81.6597" y="-6.5" font-family="Helvetica,sans-Serif" font-size="10.00" fill="#000000">_personal_token_from_this_login</text>
</a>
</g>
</g>
<!-- Node3&#45;&gt;Node5 -->
<g id="edge4" class="edge">
<title>Node3&#45;&gt;Node5</title>
<path fill="none" stroke="#191970" d="M188.827,-30.1613C180.5086,-28.9457 171.9683,-27.6976 163.5141,-26.4621"/>
<polygon fill="#191970" stroke="#191970" points="188.4417,-33.6421 198.8428,-31.625 189.454,-26.7157 188.4417,-33.6421"/>
</g>
</g>
</svg>
