<?xml version="1.0" encoding="UTF-8" standalone="no"?>
<!DOCTYPE svg PUBLIC "-//W3C//DTD SVG 1.1//EN"
 "http://www.w3.org/Graphics/SVG/1.1/DTD/svg11.dtd">
<!-- Generated by graphviz version 2.47.1 (20210417.1919)
 -->
<!-- Title: A_CO_DB\_create_read_security_predicate Pages: 1 -->
<!--zoomable 657 -->
<svg id="main" version="1.1" xmlns="http://www.w3.org/2000/svg" xmlns:xlink="http://www.w3.org/1999/xlink" xml:space="preserve" onload="init(evt)">
<style type="text/css"><![CDATA[
.edge:hover path { stroke: red; }
.edge:hover polygon { stroke: red; fill: red; }
]]></style>
<script type="text/javascript"><![CDATA[
var edges = document.getElementsByTagName('g');
if (edges && edges.length) {
  for (var i=0;i<edges.length;i++) {
    if (edges[i].id.substr(0,4)=='edge') {
      edges[i].setAttribute('class','edge');
    }
  }
}
]]></script>
        <defs>
                <circle id="rim" cx="0" cy="0" r="7"/>
                <circle id="rim2" cx="0" cy="0" r="3.5"/>
                <g id="zoomPlus">
                        <use xlink:href="#rim" fill="#404040">
                                <set attributeName="fill" to="#808080" begin="zoomplus.mouseover" end="zoomplus.mouseout"/>
                        </use>
                        <path d="M-4,0h8M0,-4v8" fill="none" stroke="white" stroke-width="1.5" pointer-events="none"/>
                </g>
                <g id="zoomMin">
                        <use xlink:href="#rim" fill="#404040">
                                <set attributeName="fill" to="#808080" begin="zoomminus.mouseover" end="zoomminus.mouseout"/>
                        </use>
                        <path d="M-4,0h8" fill="none" stroke="white" stroke-width="1.5" pointer-events="none"/>
                </g>
                <g id="dirArrow">
                        <path fill="none" stroke="white" stroke-width="1.5" d="M0,-3.0v7 M-2.5,-0.5L0,-3.0L2.5,-0.5"/>
                </g>
               <g id="resetDef">
                       <use xlink:href="#rim2" fill="#404040">
                               <set attributeName="fill" to="#808080" begin="reset.mouseover" end="reset.mouseout"/>
                       </use>
               </g>
        </defs>

<script type="text/javascript">
var viewWidth = 830;
var viewHeight = 657;
var sectionId = 'dynsection-2';
</script>
<script xlink:href="svgpan.js"/>
<svg id="graph" class="graph">
<g id="viewport">
<title>A_CO_DB\_create_read_security_predicate</title>
<polygon fill="white" stroke="transparent" points="-4,4 -4,-652.61 826,-652.61 826,4 -4,4"/>
<!-- Node1 -->
<g id="node1" class="node">
<title>Node1</title>
<g id="a_node1"><a xlink:title=" ">
<polygon fill="#bfbfbf" stroke="black" points="700,-238 700,-268 822,-268 822,-238 700,-238"/>
<text text-anchor="start" x="708" y="-256" font-family="Helvetica,sans-Serif" font-size="10.00">A_CO_DB\_create_read</text>
<text text-anchor="middle" x="761" y="-245" font-family="Helvetica,sans-Serif" font-size="10.00">_security_predicate</text>
</a>
</g>
</g>
<!-- Node2 -->
<g id="node2" class="node">
<title>Node2</title>
<g id="a_node2"><a xlink:href="a00304.html#ad2356dbed1b38898d8c17bcd8eb405ef" target="_top" xlink:title=" ">
<polygon fill="white" stroke="black" points="526,-312 526,-342 664,-342 664,-312 526,-312"/>
<text text-anchor="start" x="534" y="-330" font-family="Helvetica,sans-Serif" font-size="10.00">A_CO_DB\_create_security</text>
<text text-anchor="middle" x="595" y="-319" font-family="Helvetica,sans-Serif" font-size="10.00">_predicate</text>
</a>
</g>
</g>
<!-- Node1&#45;&gt;Node2 -->
<g id="edge1" class="edge">
<title>Node1&#45;&gt;Node2</title>
<path fill="none" stroke="midnightblue" d="M724.67,-272.93C706.78,-282.62 684.55,-294.08 664,-303 656.88,-306.09 649.22,-309.09 641.7,-311.87"/>
<polygon fill="midnightblue" stroke="midnightblue" points="726.5,-275.91 733.59,-268.04 723.14,-269.77 726.5,-275.91"/>
</g>
<!-- Node20 -->
<g id="node20" class="node">
<title>Node20</title>
<g id="a_node20"><a xlink:href="a00324.html#a8770700fd4e585cf0408b787b5ee16f1" target="_top" xlink:title=" ">
<polygon fill="white" stroke="black" points="540.5,-263 540.5,-293 649.5,-293 649.5,-263 540.5,-263"/>
<text text-anchor="start" x="548.5" y="-281" font-family="Helvetica,sans-Serif" font-size="10.00">CO_Security_DB\get</text>
<text text-anchor="middle" x="595" y="-270" font-family="Helvetica,sans-Serif" font-size="10.00">_all_visible_logins</text>
</a>
</g>
</g>
<!-- Node1&#45;&gt;Node20 -->
<g id="edge20" class="edge">
<title>Node1&#45;&gt;Node20</title>
<path fill="none" stroke="midnightblue" d="M689.7,-263.72C676.28,-265.76 662.42,-267.87 649.62,-269.83"/>
<polygon fill="midnightblue" stroke="midnightblue" points="690.51,-267.13 699.86,-262.17 689.45,-260.21 690.51,-267.13"/>
</g>
<!-- Node21 -->
<g id="node21" class="node">
<title>Node21</title>
<g id="a_node21"><a xlink:href="a00312.html#ad5f95b226e01879bbee99a65b33cb12b" target="_top" xlink:title=" ">
<polygon fill="white" stroke="black" points="535,-214 535,-244 655,-244 655,-214 535,-214"/>
<text text-anchor="start" x="543" y="-232" font-family="Helvetica,sans-Serif" font-size="10.00">CO_Main_Data_DB\get</text>
<text text-anchor="middle" x="595" y="-221" font-family="Helvetica,sans-Serif" font-size="10.00">_all_visible_users</text>
</a>
</g>
</g>
<!-- Node1&#45;&gt;Node21 -->
<g id="edge21" class="edge">
<title>Node1&#45;&gt;Node21</title>
<path fill="none" stroke="midnightblue" d="M689.79,-242.73C678.21,-241.03 666.31,-239.29 655.03,-237.64"/>
<polygon fill="midnightblue" stroke="midnightblue" points="689.46,-246.21 699.86,-244.2 690.48,-239.29 689.46,-246.21"/>
</g>
<!-- Node22 -->
<g id="node22" class="node">
<title>Node22</title>
<g id="a_node22"><a xlink:href="a00312.html#aad50ae8e57d81015ec1e8601dd2eaba4" target="_top" xlink:title=" ">
<polygon fill="white" stroke="black" points="532.5,-165 532.5,-195 657.5,-195 657.5,-165 532.5,-165"/>
<text text-anchor="start" x="540.5" y="-183" font-family="Helvetica,sans-Serif" font-size="10.00">CO_Main_Data_DB\item</text>
<text text-anchor="middle" x="595" y="-172" font-family="Helvetica,sans-Serif" font-size="10.00">_exists</text>
</a>
</g>
</g>
<!-- Node1&#45;&gt;Node22 -->
<g id="edge22" class="edge">
<title>Node1&#45;&gt;Node22</title>
<path fill="none" stroke="midnightblue" d="M723.85,-233.11C706.09,-223.71 684.21,-212.68 664,-204 656.75,-200.89 648.95,-197.85 641.31,-195.05"/>
<polygon fill="midnightblue" stroke="midnightblue" points="722.27,-236.23 732.74,-237.86 725.57,-230.06 722.27,-236.23"/>
</g>
<!-- Node3 -->
<g id="node3" class="node">
<title>Node3</title>
<g id="a_node3"><a xlink:href="a00312.html#aa97e6ad521aed4c2cbe03e83017af0b7" target="_top" xlink:title=" ">
<polygon fill="white" stroke="black" points="175,-603 175,-633 307,-633 307,-603 175,-603"/>
<text text-anchor="start" x="183" y="-621" font-family="Helvetica,sans-Serif" font-size="10.00">CO_Main_Data_DB\_build</text>
<text text-anchor="middle" x="241" y="-610" font-family="Helvetica,sans-Serif" font-size="10.00">_sql_query</text>
</a>
</g>
</g>
<!-- Node2&#45;&gt;Node3 -->
<g id="edge2" class="edge">
<title>Node2&#45;&gt;Node3</title>
<path fill="none" stroke="midnightblue" d="M593.99,-352.31C592.42,-411.34 579.29,-557.87 490,-621 430.23,-663.26 340.48,-648.07 286.92,-633.09"/>
<polygon fill="midnightblue" stroke="midnightblue" points="597.49,-352.1 594.17,-342.04 590.49,-351.98 597.49,-352.1"/>
</g>
<!-- Node5 -->
<g id="node5" class="node">
<title>Node5</title>
<g id="a_node5"><a xlink:href="a00312.html#a352444b4bfd455cb53a57137f3c44884" target="_top" xlink:title=" ">
<polygon fill="white" stroke="black" points="344,-581 344,-611 490,-611 490,-581 344,-581"/>
<text text-anchor="start" x="352" y="-599" font-family="Helvetica,sans-Serif" font-size="10.00">CO_Main_Data_DB\_location</text>
<text text-anchor="middle" x="417" y="-588" font-family="Helvetica,sans-Serif" font-size="10.00">_predicate</text>
</a>
</g>
</g>
<!-- Node2&#45;&gt;Node5 -->
<g id="edge4" class="edge">
<title>Node2&#45;&gt;Node5</title>
<path fill="none" stroke="midnightblue" d="M590.28,-352.22C581.71,-401.5 555.97,-511.09 490,-572 486.32,-575.4 482.15,-578.31 477.71,-580.82"/>
<polygon fill="midnightblue" stroke="midnightblue" points="593.78,-352.55 591.95,-342.12 586.87,-351.42 593.78,-352.55"/>
</g>
<!-- Node6 -->
<g id="node6" class="node">
<title>Node6</title>
<g id="a_node6"><a xlink:href="a00304.html#af6baed01812f38acbc19df4b00f443b2" target="_top" xlink:title=" ">
<polygon fill="white" stroke="black" points="351.5,-532 351.5,-562 482.5,-562 482.5,-532 351.5,-532"/>
<text text-anchor="start" x="359.5" y="-550" font-family="Helvetica,sans-Serif" font-size="10.00">A_CO_DB\can_i_see_this</text>
<text text-anchor="middle" x="417" y="-539" font-family="Helvetica,sans-Serif" font-size="10.00">_record</text>
</a>
</g>
</g>
<!-- Node2&#45;&gt;Node6 -->
<g id="edge6" class="edge">
<title>Node2&#45;&gt;Node6</title>
<path fill="none" stroke="midnightblue" d="M587.24,-351.87C574.8,-393.04 544.45,-475.43 490,-522 485.47,-525.87 480.32,-529.15 474.89,-531.93"/>
<polygon fill="midnightblue" stroke="midnightblue" points="590.65,-352.68 590.08,-342.1 583.93,-350.73 590.65,-352.68"/>
</g>
<!-- Node7 -->
<g id="node7" class="node">
<title>Node7</title>
<g id="a_node7"><a xlink:href="a00304.html#a9794f1140b379f8d09c4265a089fcea0" target="_top" xlink:title=" ">
<polygon fill="white" stroke="black" points="354.5,-493.5 354.5,-512.5 479.5,-512.5 479.5,-493.5 354.5,-493.5"/>
<text text-anchor="middle" x="417" y="-500.5" font-family="Helvetica,sans-Serif" font-size="10.00">A_CO_DB\delete_record</text>
</a>
</g>
</g>
<!-- Node2&#45;&gt;Node7 -->
<g id="edge7" class="edge">
<title>Node2&#45;&gt;Node7</title>
<path fill="none" stroke="midnightblue" d="M584.42,-351.64C569.57,-386.52 537.65,-449.85 490,-484 484.54,-487.92 478.32,-491.03 471.89,-493.49"/>
<polygon fill="midnightblue" stroke="midnightblue" points="587.74,-352.77 588.32,-342.19 581.27,-350.1 587.74,-352.77"/>
</g>
<!-- Node8 -->
<g id="node8" class="node">
<title>Node8</title>
<g id="a_node8"><a xlink:href="a00304.html#a707e7cfdbea32a3713320dbca46dac64" target="_top" xlink:title=" ">
<polygon fill="white" stroke="black" points="359,-444 359,-474 475,-474 475,-444 359,-444"/>
<text text-anchor="start" x="367" y="-462" font-family="Helvetica,sans-Serif" font-size="10.00">A_CO_DB\get_access</text>
<text text-anchor="middle" x="417" y="-451" font-family="Helvetica,sans-Serif" font-size="10.00">_class_by_id</text>
</a>
</g>
</g>
<!-- Node2&#45;&gt;Node8 -->
<g id="edge8" class="edge">
<title>Node2&#45;&gt;Node8</title>
<path fill="none" stroke="midnightblue" d="M577.24,-350.13C558.51,-374.44 526.03,-412.26 490,-435 484.65,-438.38 478.78,-441.33 472.76,-443.9"/>
<polygon fill="midnightblue" stroke="midnightblue" points="580.04,-352.22 583.28,-342.14 574.46,-348 580.04,-352.22"/>
</g>
<!-- Node9 -->
<g id="node9" class="node">
<title>Node9</title>
<g id="a_node9"><a xlink:href="a00324.html#ad75f2ed511a4eae172f9f2acd73f2de9" target="_top" xlink:title=" ">
<polygon fill="white" stroke="black" points="362.5,-395 362.5,-425 471.5,-425 471.5,-395 362.5,-395"/>
<text text-anchor="start" x="370.5" y="-413" font-family="Helvetica,sans-Serif" font-size="10.00">CO_Security_DB\get</text>
<text text-anchor="middle" x="417" y="-402" font-family="Helvetica,sans-Serif" font-size="10.00">_all_login_objects</text>
</a>
</g>
</g>
<!-- Node2&#45;&gt;Node9 -->
<g id="edge9" class="edge">
<title>Node2&#45;&gt;Node9</title>
<path fill="none" stroke="midnightblue" d="M561.08,-347.31C540.99,-359.2 514.54,-374 490,-385 482.15,-388.52 473.65,-391.86 465.33,-394.89"/>
<polygon fill="midnightblue" stroke="midnightblue" points="563.04,-350.21 569.83,-342.07 559.45,-344.2 563.04,-350.21"/>
</g>
<!-- Node10 -->
<g id="node10" class="node">
<title>Node10</title>
<g id="a_node10"><a xlink:href="a00324.html#af39966b2bf3f43bc640b013ec5a472be" target="_top" xlink:title=" ">
<polygon fill="white" stroke="black" points="358.5,-334.5 358.5,-375.5 475.5,-375.5 475.5,-334.5 358.5,-334.5"/>
<text text-anchor="start" x="366.5" y="-363.5" font-family="Helvetica,sans-Serif" font-size="10.00">CO_Security_DB\get</text>
<text text-anchor="start" x="366.5" y="-352.5" font-family="Helvetica,sans-Serif" font-size="10.00">_all_login_objects_with</text>
<text text-anchor="middle" x="417" y="-341.5" font-family="Helvetica,sans-Serif" font-size="10.00">_access</text>
</a>
</g>
</g>
<!-- Node2&#45;&gt;Node10 -->
<g id="edge10" class="edge">
<title>Node2&#45;&gt;Node10</title>
<path fill="none" stroke="midnightblue" d="M515.71,-339.45C502.21,-341.6 488.4,-343.8 475.58,-345.84"/>
<polygon fill="midnightblue" stroke="midnightblue" points="516.63,-342.85 525.95,-337.83 515.53,-335.94 516.63,-342.85"/>
</g>
<!-- Node11 -->
<g id="node11" class="node">
<title>Node11</title>
<g id="a_node11"><a xlink:href="a00304.html#a6ccca3e1b18f58a3d4a4ad6018f067b1" target="_top" xlink:title=" ">
<polygon fill="white" stroke="black" points="348.5,-285 348.5,-315 485.5,-315 485.5,-285 348.5,-285"/>
<text text-anchor="start" x="356.5" y="-303" font-family="Helvetica,sans-Serif" font-size="10.00">A_CO_DB\get_all_readable</text>
<text text-anchor="middle" x="417" y="-292" font-family="Helvetica,sans-Serif" font-size="10.00">_records</text>
</a>
</g>
</g>
<!-- Node2&#45;&gt;Node11 -->
<g id="edge11" class="edge">
<title>Node2&#45;&gt;Node11</title>
<path fill="none" stroke="midnightblue" d="M515.92,-315.02C505.8,-313.47 495.5,-311.89 485.58,-310.37"/>
<polygon fill="midnightblue" stroke="midnightblue" points="515.54,-318.5 525.95,-316.56 516.6,-311.59 515.54,-318.5"/>
</g>
<!-- Node12 -->
<g id="node12" class="node">
<title>Node12</title>
<g id="a_node12"><a xlink:href="a00304.html#a2b39eabcd72a9d79267e51a5f2b16648" target="_top" xlink:title=" ">
<polygon fill="white" stroke="black" points="347.5,-236 347.5,-266 486.5,-266 486.5,-236 347.5,-236"/>
<text text-anchor="start" x="355.5" y="-254" font-family="Helvetica,sans-Serif" font-size="10.00">A_CO_DB\get_all_writeable</text>
<text text-anchor="middle" x="417" y="-243" font-family="Helvetica,sans-Serif" font-size="10.00">_records</text>
</a>
</g>
</g>
<!-- Node2&#45;&gt;Node12 -->
<g id="edge12" class="edge">
<title>Node2&#45;&gt;Node12</title>
<path fill="none" stroke="midnightblue" d="M536.05,-307.93C532.6,-306.37 529.23,-304.73 526,-303 508.37,-293.56 507.66,-285.39 490,-276 483.11,-272.33 475.57,-269.03 468.04,-266.12"/>
<polygon fill="midnightblue" stroke="midnightblue" points="534.72,-311.17 545.3,-311.86 537.46,-304.73 534.72,-311.17"/>
</g>
<!-- Node13 -->
<g id="node13" class="node">
<title>Node13</title>
<g id="a_node13"><a xlink:href="a00304.html#aaca8bf49257aa5ade3c354ef76119fa4" target="_top" xlink:title=" ">
<polygon fill="white" stroke="black" points="357.5,-187 357.5,-217 476.5,-217 476.5,-187 357.5,-187"/>
<text text-anchor="start" x="365.5" y="-205" font-family="Helvetica,sans-Serif" font-size="10.00">A_CO_DB\get_multiple</text>
<text text-anchor="middle" x="417" y="-194" font-family="Helvetica,sans-Serif" font-size="10.00">_records_by_id</text>
</a>
</g>
</g>
<!-- Node2&#45;&gt;Node13 -->
<g id="edge13" class="edge">
<title>Node2&#45;&gt;Node13</title>
<path fill="none" stroke="midnightblue" d="M530.1,-306.38C528.68,-305.31 527.31,-304.19 526,-303 498.01,-277.63 518.21,-251.13 490,-226 485.97,-222.41 481.38,-219.35 476.51,-216.75"/>
<polygon fill="midnightblue" stroke="midnightblue" points="528.42,-309.47 538.72,-311.94 532.21,-303.58 528.42,-309.47"/>
</g>
<!-- Node15 -->
<g id="node15" class="node">
<title>Node15</title>
<g id="a_node15"><a xlink:href="a00324.html#af7f9180938518c8325b3d4ba52112e02" target="_top" xlink:title=" ">
<polygon fill="white" stroke="black" points="362.5,-126.5 362.5,-167.5 471.5,-167.5 471.5,-126.5 362.5,-126.5"/>
<text text-anchor="start" x="370.5" y="-155.5" font-family="Helvetica,sans-Serif" font-size="10.00">CO_Security_DB\get</text>
<text text-anchor="start" x="370.5" y="-144.5" font-family="Helvetica,sans-Serif" font-size="10.00">_multiple_records_by</text>
<text text-anchor="middle" x="417" y="-133.5" font-family="Helvetica,sans-Serif" font-size="10.00">_login_id</text>
</a>
</g>
</g>
<!-- Node2&#45;&gt;Node15 -->
<g id="edge15" class="edge">
<title>Node2&#45;&gt;Node15</title>
<path fill="none" stroke="midnightblue" d="M528.87,-305.81C527.88,-304.91 526.92,-303.97 526,-303 486.09,-260.58 528.72,-220.51 490,-177 484.87,-171.23 478.45,-166.55 471.58,-162.75"/>
<polygon fill="midnightblue" stroke="midnightblue" points="527.03,-308.8 537.14,-311.97 531.21,-303.19 527.03,-308.8"/>
</g>
<!-- Node17 -->
<g id="node17" class="node">
<title>Node17</title>
<g id="a_node17"><a xlink:href="a00304.html#af62a0d273b69bdf1f5012f88e619cec7" target="_top" xlink:title=" ">
<polygon fill="white" stroke="black" points="362,-77 362,-107 472,-107 472,-77 362,-77"/>
<text text-anchor="start" x="370" y="-95" font-family="Helvetica,sans-Serif" font-size="10.00">A_CO_DB\get_single</text>
<text text-anchor="middle" x="417" y="-84" font-family="Helvetica,sans-Serif" font-size="10.00">_raw_row_by_id</text>
</a>
</g>
</g>
<!-- Node2&#45;&gt;Node17 -->
<g id="edge17" class="edge">
<title>Node2&#45;&gt;Node17</title>
<path fill="none" stroke="midnightblue" d="M528.3,-305.47C527.5,-304.68 526.74,-303.85 526,-303 471.03,-239.22 545.13,-180.64 490,-117 485.15,-111.4 478.97,-107.05 472.29,-103.68"/>
<polygon fill="midnightblue" stroke="midnightblue" points="526.2,-308.28 536.18,-311.85 530.61,-302.84 526.2,-308.28"/>
</g>
<!-- Node18 -->
<g id="node18" class="node">
<title>Node18</title>
<g id="a_node18"><a xlink:href="a00304.html#afacdcd578ddc750ca33d2418b54ab6b9" target="_top" xlink:title=" ">
<polygon fill="white" stroke="black" points="359,-38.5 359,-57.5 475,-57.5 475,-38.5 359,-38.5"/>
<text text-anchor="middle" x="417" y="-45.5" font-family="Helvetica,sans-Serif" font-size="10.00">A_CO_DB\lock_record</text>
</a>
</g>
</g>
<!-- Node2&#45;&gt;Node18 -->
<g id="edge18" class="edge">
<title>Node2&#45;&gt;Node18</title>
<path fill="none" stroke="midnightblue" d="M528.25,-305.51C527.47,-304.7 526.72,-303.87 526,-303 458.34,-221.27 560.92,-145.92 490,-67 485.85,-62.38 480.73,-58.83 475.14,-56.11"/>
<polygon fill="midnightblue" stroke="midnightblue" points="526.1,-308.27 536.02,-311.98 530.58,-302.89 526.1,-308.27"/>
</g>
<!-- Node19 -->
<g id="node19" class="node">
<title>Node19</title>
<g id="a_node19"><a xlink:href="a00304.html#acac7eadbd231d714f3eed150eec35838" target="_top" xlink:title=" ">
<polygon fill="white" stroke="black" points="357.5,-0.5 357.5,-19.5 476.5,-19.5 476.5,-0.5 357.5,-0.5"/>
<text text-anchor="middle" x="417" y="-7.5" font-family="Helvetica,sans-Serif" font-size="10.00">A_CO_DB\write_record</text>
</a>
</g>
</g>
<!-- Node2&#45;&gt;Node19 -->
<g id="edge19" class="edge">
<title>Node2&#45;&gt;Node19</title>
<path fill="none" stroke="midnightblue" d="M527.88,-305.17C527.23,-304.47 526.6,-303.74 526,-303 448.67,-207.58 571.15,-121.2 490,-29 486.24,-24.73 481.65,-21.37 476.62,-18.72"/>
<polygon fill="midnightblue" stroke="midnightblue" points="525.77,-307.97 535.63,-311.83 530.34,-302.66 525.77,-307.97"/>
</g>
<!-- Node4 -->
<g id="node4" class="node">
<title>Node4</title>
<g id="a_node4"><a xlink:href="a00312.html#a303048d406814c066d27fda70de4ff02" target="_top" xlink:title=" ">
<polygon fill="white" stroke="black" points="0,-603 0,-633 138,-633 138,-603 0,-603"/>
<text text-anchor="start" x="8" y="-621" font-family="Helvetica,sans-Serif" font-size="10.00">CO_Main_Data_DB\generic</text>
<text text-anchor="middle" x="69" y="-610" font-family="Helvetica,sans-Serif" font-size="10.00">_search</text>
</a>
</g>
</g>
<!-- Node3&#45;&gt;Node4 -->
<g id="edge3" class="edge">
<title>Node3&#45;&gt;Node4</title>
<path fill="none" stroke="midnightblue" d="M164.54,-618C155.76,-618 146.84,-618 138.17,-618"/>
<polygon fill="midnightblue" stroke="midnightblue" points="164.76,-621.5 174.76,-618 164.76,-614.5 164.76,-621.5"/>
</g>
<!-- Node5&#45;&gt;Node3 -->
<g id="edge5" class="edge">
<title>Node5&#45;&gt;Node3</title>
<path fill="none" stroke="midnightblue" d="M333.85,-606.39C324.85,-607.52 315.77,-608.67 307.01,-609.78"/>
<polygon fill="midnightblue" stroke="midnightblue" points="334.49,-609.83 343.97,-605.11 333.61,-602.89 334.49,-609.83"/>
</g>
<!-- Node14 -->
<g id="node14" class="node">
<title>Node14</title>
<g id="a_node14"><a xlink:href="a00304.html#a631d8d027d72c940a7cec689cbb4e568" target="_top" xlink:title=" ">
<polygon fill="white" stroke="black" points="186,-187 186,-217 296,-217 296,-187 186,-187"/>
<text text-anchor="start" x="194" y="-205" font-family="Helvetica,sans-Serif" font-size="10.00">A_CO_DB\get_single</text>
<text text-anchor="middle" x="241" y="-194" font-family="Helvetica,sans-Serif" font-size="10.00">_record_by_id</text>
</a>
</g>
</g>
<!-- Node13&#45;&gt;Node14 -->
<g id="edge14" class="edge">
<title>Node13&#45;&gt;Node14</title>
<path fill="none" stroke="midnightblue" d="M346.76,-202C329.93,-202 312.17,-202 296.16,-202"/>
<polygon fill="midnightblue" stroke="midnightblue" points="347.09,-205.5 357.09,-202 347.09,-198.5 347.09,-205.5"/>
</g>
<!-- Node16 -->
<g id="node16" class="node">
<title>Node16</title>
<g id="a_node16"><a xlink:href="a00324.html#ab01692597b11329b0d63096b10e1f473" target="_top" xlink:title=" ">
<polygon fill="white" stroke="black" points="174,-132 174,-162 308,-162 308,-132 174,-132"/>
<text text-anchor="start" x="182" y="-150" font-family="Helvetica,sans-Serif" font-size="10.00">CO_Security_DB\get</text>
<text text-anchor="middle" x="241" y="-139" font-family="Helvetica,sans-Serif" font-size="10.00">_single_record_by_login_id</text>
</a>
</g>
</g>
<!-- Node15&#45;&gt;Node16 -->
<g id="edge16" class="edge">
<title>Node15&#45;&gt;Node16</title>
<path fill="none" stroke="midnightblue" d="M352.1,-147C337.74,-147 322.47,-147 308.03,-147"/>
<polygon fill="midnightblue" stroke="midnightblue" points="352.37,-150.5 362.37,-147 352.37,-143.5 352.37,-150.5"/>
</g>
</g>
</svg>
        <g id="navigator" transform="translate(0 0)" fill="#404254">
                <rect fill="#f2f5e9" fill-opacity="0.5" stroke="#606060" stroke-width=".5" x="0" y="0" width="60" height="60"/>
                <use id="zoomplus" xlink:href="#zoomPlus" x="17" y="9" onmousedown="handleZoom(evt,'in')"/>
                <use id="zoomminus" xlink:href="#zoomMin" x="42" y="9" onmousedown="handleZoom(evt,'out')"/>
                <use id="reset" xlink:href="#resetDef" x="30" y="36" onmousedown="handleReset()"/>
                <g id="arrowUp" xlink:href="#dirArrow" transform="translate(30 24)" onmousedown="handlePan(0,-1)">
                  <use xlink:href="#rim" fill="#404040">
                        <set attributeName="fill" to="#808080" begin="arrowUp.mouseover" end="arrowUp.mouseout"/>
                  </use>
                  <path fill="none" stroke="white" stroke-width="1.5" d="M0,-3.0v7 M-2.5,-0.5L0,-3.0L2.5,-0.5"/>
                </g>
                <g id="arrowRight" xlink:href="#dirArrow" transform="rotate(90) translate(36 -43)" onmousedown="handlePan(1,0)">
                  <use xlink:href="#rim" fill="#404040">
                        <set attributeName="fill" to="#808080" begin="arrowRight.mouseover" end="arrowRight.mouseout"/>
                  </use>
                  <path fill="none" stroke="white" stroke-width="1.5" d="M0,-3.0v7 M-2.5,-0.5L0,-3.0L2.5,-0.5"/>
                </g>
                <g id="arrowDown" xlink:href="#dirArrow" transform="rotate(180) translate(-30 -48)" onmousedown="handlePan(0,1)">
                  <use xlink:href="#rim" fill="#404040">
                        <set attributeName="fill" to="#808080" begin="arrowDown.mouseover" end="arrowDown.mouseout"/>
                  </use>
                  <path fill="none" stroke="white" stroke-width="1.5" d="M0,-3.0v7 M-2.5,-0.5L0,-3.0L2.5,-0.5"/>
                </g>
                <g id="arrowLeft" xlink:href="#dirArrow" transform="rotate(270) translate(-36 17)" onmousedown="handlePan(-1,0)">
                  <use xlink:href="#rim" fill="#404040">
                        <set attributeName="fill" to="#808080" begin="arrowLeft.mouseover" end="arrowLeft.mouseout"/>
                  </use>
                  <path fill="none" stroke="white" stroke-width="1.5" d="M0,-3.0v7 M-2.5,-0.5L0,-3.0L2.5,-0.5"/>
                </g>
        </g>
        <svg viewBox="0 0 15 15" width="100%" height="30px" preserveAspectRatio="xMaxYMin meet">
         <g id="arrow_out" transform="scale(0.3 0.3)">
          <a xlink:href="a00304_a176b2c663fa7768e95e4fbe93281adc6_icgraph_org.svg" target="_base">
           <rect id="button" ry="5" rx="5" y="6" x="6" height="38" width="38"
                fill="#f2f5e9" fill-opacity="0.5" stroke="#606060" stroke-width="1.0"/>
           <path id="arrow"
             d="M 11.500037,31.436501 C 11.940474,20.09759 22.043105,11.32322 32.158766,21.979434 L 37.068811,17.246167 C 37.068811,17.246167 37.088388,32 37.088388,32 L 22.160133,31.978069 C 22.160133,31.978069 26.997745,27.140456 26.997745,27.140456 C 18.528582,18.264221 13.291696,25.230495 11.500037,31.436501 z"
             style="fill:#404040;"/>
          </a>
         </g>
        </svg>
</svg>
