<?xml version="1.0" encoding="UTF-8" standalone="no"?>
<!DOCTYPE svg PUBLIC "-//W3C//DTD SVG 1.1//EN"
 "http://www.w3.org/Graphics/SVG/1.1/DTD/svg11.dtd">
<!-- Generated by graphviz version 2.47.1 (20210417.1919)
 -->
<!-- Title: CO_Security_DB\get_personal_ids_for_id Pages: 1 -->
<svg width="454pt" height="39pt"
 viewBox="0.00 0.00 454.00 39.00" xmlns="http://www.w3.org/2000/svg" xmlns:xlink="http://www.w3.org/1999/xlink">
<g id="graph0" class="graph" transform="scale(1 1) rotate(0) translate(4 35)">
<title>CO_Security_DB\get_personal_ids_for_id</title>
<polygon fill="white" stroke="transparent" points="-4,4 -4,-35 450,-35 450,4 -4,4"/>
<!-- Node1 -->
<g id="node1" class="node">
<title>Node1</title>
<g id="a_node1"><a xlink:title=" ">
<polygon fill="#bfbfbf" stroke="black" points="0,-0.5 0,-30.5 109,-30.5 109,-0.5 0,-0.5"/>
<text text-anchor="start" x="8" y="-18.5" font-family="Helvetica,sans-Serif" font-size="10.00">CO_Security_DB\get</text>
<text text-anchor="middle" x="54.5" y="-7.5" font-family="Helvetica,sans-Serif" font-size="10.00">_personal_ids_for_id</text>
</a>
</g>
</g>
<!-- Node2 -->
<g id="node2" class="node">
<title>Node2</title>
<g id="a_node2"><a xlink:href="a00304.html#a2396849660aa4ff018ab7509a4badeb5" target="_top" xlink:title=" ">
<polygon fill="white" stroke="black" points="145,-6 145,-25 275,-25 275,-6 145,-6"/>
<text text-anchor="middle" x="210" y="-13" font-family="Helvetica,sans-Serif" font-size="10.00">A_CO_DB\execute_query</text>
</a>
</g>
</g>
<!-- Node1&#45;&gt;Node2 -->
<g id="edge1" class="edge">
<title>Node1&#45;&gt;Node2</title>
<path fill="none" stroke="midnightblue" d="M109.19,-15.5C117.45,-15.5 126.11,-15.5 134.73,-15.5"/>
<polygon fill="midnightblue" stroke="midnightblue" points="134.8,-19 144.8,-15.5 134.8,-12 134.8,-19"/>
</g>
<!-- Node3 -->
<g id="node3" class="node">
<title>Node3</title>
<g id="a_node3"><a xlink:href="a00304.html#ae41efbdfe739934823b5f4c785b22611" target="_top" xlink:title=" ">
<polygon fill="white" stroke="black" points="311,-6 311,-25 446,-25 446,-6 311,-6"/>
<text text-anchor="middle" x="378.5" y="-13" font-family="Helvetica,sans-Serif" font-size="10.00">A_CO_DB\_execute_query</text>
</a>
</g>
</g>
<!-- Node2&#45;&gt;Node3 -->
<g id="edge2" class="edge">
<title>Node2&#45;&gt;Node3</title>
<path fill="none" stroke="midnightblue" d="M275.37,-15.5C283.64,-15.5 292.16,-15.5 300.6,-15.5"/>
<polygon fill="midnightblue" stroke="midnightblue" points="300.82,-19 310.82,-15.5 300.82,-12 300.82,-19"/>
</g>
</g>
</svg>
