<?xml version="1.0" encoding="UTF-8" standalone="no"?>
<!DOCTYPE svg PUBLIC "-//W3C//DTD SVG 1.1//EN"
 "http://www.w3.org/Graphics/SVG/1.1/DTD/svg11.dtd">
<!-- Generated by graphviz version 2.40.1 (20161225.0304)
 -->
<!-- Title: CO_Access\get_single_security_record_by_id Pages: 1 -->
<!--zoomable 231 -->
<svg id="main" version="1.1" xmlns="http://www.w3.org/2000/svg" xmlns:xlink="http://www.w3.org/1999/xlink" xml:space="preserve" onload="init(evt)">
<style type="text/css"><![CDATA[
.edge:hover path { stroke: red; }
.edge:hover polygon { stroke: red; fill: red; }
]]></style>
<script type="text/javascript"><![CDATA[
var edges = document.getElementsByTagName('g');
if (edges && edges.length) {
  for (var i=0;i<edges.length;i++) {
    if (edges[i].id.substr(0,4)=='edge') {
      edges[i].setAttribute('class','edge');
    }
  }
}
]]></script>
        <defs>
                <circle id="rim" cx="0" cy="0" r="7"/>
                <circle id="rim2" cx="0" cy="0" r="3.5"/>
                <g id="zoomPlus">
                        <use xlink:href="#rim" fill="#404040">
                                <set attributeName="fill" to="#808080" begin="zoomplus.mouseover" end="zoomplus.mouseout"/>
                        </use>
                        <path d="M-4,0h8M0,-4v8" fill="none" stroke="white" stroke-width="1.5" pointer-events="none"/>
                </g>
                <g id="zoomMin">
                        <use xlink:href="#rim" fill="#404040">
                                <set attributeName="fill" to="#808080" begin="zoomminus.mouseover" end="zoomminus.mouseout"/>
                        </use>
                        <path d="M-4,0h8" fill="none" stroke="white" stroke-width="1.5" pointer-events="none"/>
                </g>
                <g id="dirArrow">
                        <path fill="none" stroke="white" stroke-width="1.5" d="M0,-3.0v7 M-2.5,-0.5L0,-3.0L2.5,-0.5"/>
                </g>
               <g id="resetDef">
                       <use xlink:href="#rim2" fill="#404040">
                               <set attributeName="fill" to="#808080" begin="reset.mouseover" end="reset.mouseout"/>
                       </use>
               </g>
        </defs>

<script type="text/javascript">
var viewWidth = 648;
var viewHeight = 231;
var sectionId = 'dynsection-20';
</script>
<script xlink:href="svgpan.js"/>
<svg id="graph" class="graph">
<g id="viewport">
<title>CO_Access\get_single_security_record_by_id</title>
<polygon fill="#ffffff" stroke="transparent" points="-4,4 -4,-227 644.0127,-227 644.0127,4 -4,4"/>
<!-- Node111 -->
<g id="node1" class="node">
<title>Node111</title>
<polygon fill="#bfbfbf" stroke="#000000" points="0,-134.5 0,-162.5 119.3887,-162.5 119.3887,-134.5 0,-134.5"/>
<text text-anchor="start" x="8" y="-150.5" font-family="Helvetica,sans-Serif" font-size="10.00" fill="#000000">CO_Access\get_single</text>
<text text-anchor="middle" x="59.6943" y="-140.5" font-family="Helvetica,sans-Serif" font-size="10.00" fill="#000000">_security_record_by_id</text>
</g>
<!-- Node112 -->
<g id="node2" class="node">
<title>Node112</title>
<g id="a_node2"><a xlink:href="a00355.html#adbc6444fbac916f3a280f4a3ce4f067a" target="_top" xlink:title="CO_Access\\get_login_id">
<polygon fill="#ffffff" stroke="#000000" points="155.3887,-120.5 155.3887,-138.5 280.8955,-138.5 280.8955,-120.5 155.3887,-120.5"/>
<text text-anchor="middle" x="218.1421" y="-126.5" font-family="Helvetica,sans-Serif" font-size="10.00" fill="#000000">CO_Access\get_login_id</text>
</a>
</g>
</g>
<!-- Node111&#45;&gt;Node112 -->
<g id="edge1" class="edge">
<title>Node111&#45;&gt;Node112</title>
<path fill="none" stroke="#191970" d="M129.5477,-140.1237C138.1031,-139.0977 146.8064,-138.0541 155.2509,-137.0415"/>
<polygon fill="#191970" stroke="#191970" points="129.1088,-136.6511 119.5966,-141.3169 129.9423,-143.6013 129.1088,-136.6511"/>
</g>
<!-- Node114 -->
<g id="node4" class="node">
<title>Node114</title>
<g id="a_node4"><a xlink:href="a00355.html#a65c256cad68440723a8de979b1b7a1bb" target="_top" xlink:title="CO_Access\\get_login_item">
<polygon fill="#ffffff" stroke="#000000" points="320.5039,-186.5 320.5039,-204.5 457.1191,-204.5 457.1191,-186.5 320.5039,-186.5"/>
<text text-anchor="middle" x="388.8115" y="-192.5" font-family="Helvetica,sans-Serif" font-size="10.00" fill="#000000">CO_Access\get_login_item</text>
</a>
</g>
</g>
<!-- Node111&#45;&gt;Node114 -->
<g id="edge13" class="edge">
<title>Node111&#45;&gt;Node114</title>
<path fill="none" stroke="#191970" d="M129.8623,-158.5204C187.889,-166.807 269.5742,-178.4722 325.5968,-186.4725"/>
<polygon fill="#191970" stroke="#191970" points="130.0712,-155.0148 119.6768,-157.0659 129.0815,-161.9445 130.0712,-155.0148"/>
</g>
<!-- Node113 -->
<g id="node3" class="node">
<title>Node113</title>
<g id="a_node3"><a xlink:href="a00355.html#a115c46a27b51a3f2226125230fd6183d" target="_top" xlink:title="CO_Access\\get_available\l_tokens">
<polygon fill="#ffffff" stroke="#000000" points="323.5581,-139.5 323.5581,-167.5 454.0649,-167.5 454.0649,-139.5 323.5581,-139.5"/>
<text text-anchor="start" x="331.5581" y="-155.5" font-family="Helvetica,sans-Serif" font-size="10.00" fill="#000000">CO_Access\get_available</text>
<text text-anchor="middle" x="388.8115" y="-145.5" font-family="Helvetica,sans-Serif" font-size="10.00" fill="#000000">_tokens</text>
</a>
</g>
</g>
<!-- Node112&#45;&gt;Node113 -->
<g id="edge2" class="edge">
<title>Node112&#45;&gt;Node113</title>
<path fill="none" stroke="#191970" d="M291.3359,-139.7927C302.0051,-141.293 312.9328,-142.8297 323.4334,-144.3064"/>
<polygon fill="#191970" stroke="#191970" points="291.5982,-136.2952 281.2082,-138.3685 290.6233,-143.227 291.5982,-136.2952"/>
</g>
<!-- Node112&#45;&gt;Node114 -->
<g id="edge3" class="edge">
<title>Node112&#45;&gt;Node114</title>
<path fill="none" stroke="#191970" d="M242.9942,-143.3673C262.5965,-153.862 290.8775,-168.0368 316.8955,-177.5 326.3299,-180.9315 336.6915,-183.9429 346.5394,-186.4717"/>
<polygon fill="#191970" stroke="#191970" points="244.5747,-140.2428 234.1163,-138.5478 241.2349,-146.3948 244.5747,-140.2428"/>
</g>
<!-- Node118 -->
<g id="node8" class="node">
<title>Node118</title>
<g id="a_node8"><a xlink:href="a00355.html#aa6f82dc430e7a655e35e09b64c48fa46" target="_top" xlink:title="CO_Access\\get_security_ids">
<polygon fill="#ffffff" stroke="#000000" points="316.8955,-7.5 316.8955,-25.5 460.7275,-25.5 460.7275,-7.5 316.8955,-7.5"/>
<text text-anchor="middle" x="388.8115" y="-13.5" font-family="Helvetica,sans-Serif" font-size="10.00" fill="#000000">CO_Access\get_security_ids</text>
</a>
</g>
</g>
<!-- Node112&#45;&gt;Node118 -->
<g id="edge7" class="edge">
<title>Node112&#45;&gt;Node118</title>
<path fill="none" stroke="#191970" d="M231.5834,-112.5541C249.0598,-91.6444 281.5548,-56.4227 316.8955,-36.5 325.0236,-31.9179 334.2683,-28.3312 343.3586,-25.5425"/>
<polygon fill="#191970" stroke="#191970" points="228.867,-110.347 225.2469,-120.3043 234.2863,-114.7778 228.867,-110.347"/>
</g>
<!-- Node120 -->
<g id="node10" class="node">
<title>Node120</title>
<g id="a_node10"><a xlink:href="a00299.html#a88b451020a7174eeb0c06e216ca517cf" target="_top" xlink:title="CO_Chameleon\\get_user\l_from_login">
<polygon fill="#ffffff" stroke="#000000" points="324.1123,-92.5 324.1123,-120.5 453.5107,-120.5 453.5107,-92.5 324.1123,-92.5"/>
<text text-anchor="start" x="332.1123" y="-108.5" font-family="Helvetica,sans-Serif" font-size="10.00" fill="#000000">CO_Chameleon\get_user</text>
<text text-anchor="middle" x="388.8115" y="-98.5" font-family="Helvetica,sans-Serif" font-size="10.00" fill="#000000">_from_login</text>
</a>
</g>
</g>
<!-- Node112&#45;&gt;Node120 -->
<g id="edge9" class="edge">
<title>Node112&#45;&gt;Node120</title>
<path fill="none" stroke="#191970" d="M291.1425,-119.6622C302.0672,-118.19 313.2673,-116.6806 324.0064,-115.2334"/>
<polygon fill="#191970" stroke="#191970" points="290.6511,-116.1967 281.2082,-121.001 291.5861,-123.134 290.6511,-116.1967"/>
</g>
<!-- Node121 -->
<g id="node11" class="node">
<title>Node121</title>
<g id="a_node11"><a xlink:href="a00355.html#a2249312ed569b15e5b6b15c0112ce83b" target="_top" xlink:title="CO_Access\\make_new\l_blank_record">
<polygon fill="#ffffff" stroke="#000000" points="328.8462,-45.5 328.8462,-73.5 448.7769,-73.5 448.7769,-45.5 328.8462,-45.5"/>
<text text-anchor="start" x="336.8462" y="-61.5" font-family="Helvetica,sans-Serif" font-size="10.00" fill="#000000">CO_Access\make_new</text>
<text text-anchor="middle" x="388.8115" y="-51.5" font-family="Helvetica,sans-Serif" font-size="10.00" fill="#000000">_blank_record</text>
</a>
</g>
</g>
<!-- Node112&#45;&gt;Node121 -->
<g id="edge11" class="edge">
<title>Node112&#45;&gt;Node121</title>
<path fill="none" stroke="#191970" d="M245.0498,-115.9526C264.7029,-106.3081 292.1311,-93.3628 316.8955,-83.5 325.5775,-80.0422 334.9755,-76.6564 344.0245,-73.5685"/>
<polygon fill="#191970" stroke="#191970" points="243.4833,-112.8226 236.0722,-120.394 246.5873,-119.0967 243.4833,-112.8226"/>
</g>
<!-- Node115 -->
<g id="node5" class="node">
<title>Node115</title>
<g id="a_node5"><a xlink:href="a00299.html#ac6ba71b99a641f6d19aa0a0d73997234" target="_top" xlink:title="CO_Chameleon\\get_lang">
<polygon fill="#ffffff" stroke="#000000" points="503.9443,-123.5 503.9443,-141.5 632.7959,-141.5 632.7959,-123.5 503.9443,-123.5"/>
<text text-anchor="middle" x="568.3701" y="-129.5" font-family="Helvetica,sans-Serif" font-size="10.00" fill="#000000">CO_Chameleon\get_lang</text>
</a>
</g>
</g>
<!-- Node114&#45;&gt;Node115 -->
<g id="edge4" class="edge">
<title>Node114&#45;&gt;Node115</title>
<path fill="none" stroke="#191970" d="M442.1944,-183.6712C448.5114,-181.8224 454.8111,-179.7638 460.7275,-177.5 477.6246,-171.0348 480.1853,-165.8254 496.7275,-158.5 511.0038,-152.178 527.3405,-146.1601 540.8051,-141.5091"/>
<polygon fill="#191970" stroke="#191970" points="441.0131,-180.3663 432.3061,-186.4028 442.8771,-187.1136 441.0131,-180.3663"/>
</g>
<!-- Node116 -->
<g id="node6" class="node">
<title>Node116</title>
<g id="a_node6"><a xlink:href="a00355.html#ae2a40cf404135bb4aae747c37520733e" target="_top" xlink:title="CO_Access\\get_lang">
<polygon fill="#ffffff" stroke="#000000" points="513.3999,-167.5 513.3999,-185.5 623.3403,-185.5 623.3403,-167.5 513.3999,-167.5"/>
<text text-anchor="middle" x="568.3701" y="-173.5" font-family="Helvetica,sans-Serif" font-size="10.00" fill="#000000">CO_Access\get_lang</text>
</a>
</g>
</g>
<!-- Node114&#45;&gt;Node116 -->
<g id="edge5" class="edge">
<title>Node114&#45;&gt;Node116</title>
<path fill="none" stroke="#191970" d="M467.3029,-187.1944C482.796,-185.555 498.7447,-183.8674 513.2639,-182.3311"/>
<polygon fill="#191970" stroke="#191970" points="466.7833,-183.7298 457.2072,-188.2627 467.52,-190.6909 466.7833,-183.7298"/>
</g>
<!-- Node117 -->
<g id="node7" class="node">
<title>Node117</title>
<g id="a_node7"><a xlink:href="a00299.html#aa13745bd0d40cac3820bb3ae7f6d5fbb" target="_top" xlink:title="CO_Chameleon\\test_access">
<polygon fill="#ffffff" stroke="#000000" points="496.7275,-204.5 496.7275,-222.5 640.0127,-222.5 640.0127,-204.5 496.7275,-204.5"/>
<text text-anchor="middle" x="568.3701" y="-210.5" font-family="Helvetica,sans-Serif" font-size="10.00" fill="#000000">CO_Chameleon\test_access</text>
</a>
</g>
</g>
<!-- Node114&#45;&gt;Node117 -->
<g id="edge6" class="edge">
<title>Node114&#45;&gt;Node117</title>
<path fill="none" stroke="#191970" d="M467.2769,-203.3658C477.0213,-204.3427 486.9465,-205.3376 496.5833,-206.3037"/>
<polygon fill="#191970" stroke="#191970" points="467.5064,-199.8714 457.2072,-202.3564 466.8081,-206.8365 467.5064,-199.8714"/>
</g>
<!-- Node119 -->
<g id="node9" class="node">
<title>Node119</title>
<g id="a_node9"><a xlink:href="a00355.html#ae548938d26a8e1c2f5378e94d2921419" target="_top" xlink:title="CO_Access\\i_have_this\l_token">
<polygon fill="#ffffff" stroke="#000000" points="507.2891,-.5 507.2891,-28.5 629.4512,-28.5 629.4512,-.5 507.2891,-.5"/>
<text text-anchor="start" x="515.2891" y="-16.5" font-family="Helvetica,sans-Serif" font-size="10.00" fill="#000000">CO_Access\i_have_this</text>
<text text-anchor="middle" x="568.3701" y="-6.5" font-family="Helvetica,sans-Serif" font-size="10.00" fill="#000000">_token</text>
</a>
</g>
</g>
<!-- Node118&#45;&gt;Node119 -->
<g id="edge8" class="edge">
<title>Node118&#45;&gt;Node119</title>
<path fill="none" stroke="#191970" d="M470.9463,-15.5851C483.0892,-15.4499 495.4198,-15.3126 507.0412,-15.1831"/>
<polygon fill="#191970" stroke="#191970" points="470.7706,-12.0868 460.8103,-15.698 470.8487,-19.0864 470.7706,-12.0868"/>
</g>
<!-- Node120&#45;&gt;Node115 -->
<g id="edge10" class="edge">
<title>Node120&#45;&gt;Node115</title>
<path fill="none" stroke="#191970" d="M463.7717,-117.3542C477.8403,-119.3913 492.4082,-121.5008 506.0417,-123.4749"/>
<polygon fill="#191970" stroke="#191970" points="464.0347,-113.8559 453.6363,-115.8866 463.0315,-120.7836 464.0347,-113.8559"/>
</g>
<!-- Node122 -->
<g id="node12" class="node">
<title>Node122</title>
<g id="a_node12"><a xlink:href="a00299.html#af193950805884bd481b8863ffd6d4fb1" target="_top" xlink:title="CO_Chameleon\\set_value\l_for_key">
<polygon fill="#ffffff" stroke="#000000" points="501.7251,-47.5 501.7251,-75.5 635.0151,-75.5 635.0151,-47.5 501.7251,-47.5"/>
<text text-anchor="start" x="509.7251" y="-63.5" font-family="Helvetica,sans-Serif" font-size="10.00" fill="#000000">CO_Chameleon\set_value</text>
<text text-anchor="middle" x="568.3701" y="-53.5" font-family="Helvetica,sans-Serif" font-size="10.00" fill="#000000">_for_key</text>
</a>
</g>
</g>
<!-- Node121&#45;&gt;Node122 -->
<g id="edge12" class="edge">
<title>Node121&#45;&gt;Node122</title>
<path fill="none" stroke="#191970" d="M459.1085,-60.283C473.0392,-60.4382 487.6274,-60.6007 501.4423,-60.7545"/>
<polygon fill="#191970" stroke="#191970" points="459.1398,-56.7832 449.1014,-60.1715 459.0618,-63.7828 459.1398,-56.7832"/>
</g>
</g>
</svg>
        <g id="navigator" transform="translate(0 0)" fill="#404254">
                <rect fill="#f2f5e9" fill-opacity="0.5" stroke="#606060" stroke-width=".5" x="0" y="0" width="60" height="60"/>
                <use id="zoomplus" xlink:href="#zoomPlus" x="17" y="9" onmousedown="handleZoom(evt,'in')"/>
                <use id="zoomminus" xlink:href="#zoomMin" x="42" y="9" onmousedown="handleZoom(evt,'out')"/>
                <use id="reset" xlink:href="#resetDef" x="30" y="36" onmousedown="handleReset()"/>
                <g id="arrowUp" xlink:href="#dirArrow" transform="translate(30 24)" onmousedown="handlePan(0,-1)">
                  <use xlink:href="#rim" fill="#404040">
                        <set attributeName="fill" to="#808080" begin="arrowUp.mouseover" end="arrowUp.mouseout"/>
                  </use>
                  <path fill="none" stroke="white" stroke-width="1.5" d="M0,-3.0v7 M-2.5,-0.5L0,-3.0L2.5,-0.5"/>
                </g>
                <g id="arrowRight" xlink:href="#dirArrow" transform="rotate(90) translate(36 -43)" onmousedown="handlePan(1,0)">
                  <use xlink:href="#rim" fill="#404040">
                        <set attributeName="fill" to="#808080" begin="arrowRight.mouseover" end="arrowRight.mouseout"/>
                  </use>
                  <path fill="none" stroke="white" stroke-width="1.5" d="M0,-3.0v7 M-2.5,-0.5L0,-3.0L2.5,-0.5"/>
                </g>
                <g id="arrowDown" xlink:href="#dirArrow" transform="rotate(180) translate(-30 -48)" onmousedown="handlePan(0,1)">
                  <use xlink:href="#rim" fill="#404040">
                        <set attributeName="fill" to="#808080" begin="arrowDown.mouseover" end="arrowDown.mouseout"/>
                  </use>
                  <path fill="none" stroke="white" stroke-width="1.5" d="M0,-3.0v7 M-2.5,-0.5L0,-3.0L2.5,-0.5"/>
                </g>
                <g id="arrowLeft" xlink:href="#dirArrow" transform="rotate(270) translate(-36 17)" onmousedown="handlePan(-1,0)">
                  <use xlink:href="#rim" fill="#404040">
                        <set attributeName="fill" to="#808080" begin="arrowLeft.mouseover" end="arrowLeft.mouseout"/>
                  </use>
                  <path fill="none" stroke="white" stroke-width="1.5" d="M0,-3.0v7 M-2.5,-0.5L0,-3.0L2.5,-0.5"/>
                </g>
        </g>
        <svg viewBox="0 0 15 15" width="100%" height="30px" preserveAspectRatio="xMaxYMin meet">
         <g id="arrow_out" transform="scale(0.3 0.3)">
          <a xlink:href="a00355_aeab406fa4ecc249662fa1e2e073341b2_icgraph_org.svg" target="_base">
           <rect id="button" ry="5" rx="5" y="6" x="6" height="38" width="38"
                fill="#f2f5e9" fill-opacity="0.5" stroke="#606060" stroke-width="1.0"/>
           <path id="arrow"
             d="M 11.500037,31.436501 C 11.940474,20.09759 22.043105,11.32322 32.158766,21.979434 L 37.068811,17.246167 C 37.068811,17.246167 37.088388,32 37.088388,32 L 22.160133,31.978069 C 22.160133,31.978069 26.997745,27.140456 26.997745,27.140456 C 18.528582,18.264221 13.291696,25.230495 11.500037,31.436501 z"
             style="fill:#404040;"/>
          </a>
         </g>
        </svg>
</svg>
