<?xml version="1.0" encoding="UTF-8" standalone="no"?>
<!DOCTYPE svg PUBLIC "-//W3C//DTD SVG 1.1//EN"
 "http://www.w3.org/Graphics/SVG/1.1/DTD/svg11.dtd">
<!-- Generated by graphviz version 2.40.1 (20161225.0304)
 -->
<!-- Title: CO_Main_Data_DB\_location_predicate Pages: 1 -->
<svg width="492pt" height="84pt"
 viewBox="0.00 0.00 491.51 84.00" xmlns="http://www.w3.org/2000/svg" xmlns:xlink="http://www.w3.org/1999/xlink">
<g id="graph0" class="graph" transform="scale(1 1) rotate(0) translate(4 80)">
<title>CO_Main_Data_DB\_location_predicate</title>
<polygon fill="#ffffff" stroke="transparent" points="-4,4 -4,-80 487.5059,-80 487.5059,4 -4,4"/>
<!-- Node13 -->
<g id="node1" class="node">
<title>Node13</title>
<polygon fill="#bfbfbf" stroke="#000000" points="0,-23.5 0,-51.5 147.1816,-51.5 147.1816,-23.5 0,-23.5"/>
<text text-anchor="start" x="8" y="-39.5" font-family="Helvetica,sans-Serif" font-size="10.00" fill="#000000">CO_Main_Data_DB\_location</text>
<text text-anchor="middle" x="73.5908" y="-29.5" font-family="Helvetica,sans-Serif" font-size="10.00" fill="#000000">_predicate</text>
</g>
<!-- Node14 -->
<g id="node2" class="node">
<title>Node14</title>
<g id="a_node2"><a xlink:href="a00307.html#ad2356dbed1b38898d8c17bcd8eb405ef" target="_top" xlink:title="A_CO_DB\\_create_security\l_predicate">
<polygon fill="#ffffff" stroke="#000000" points="183.1816,-23.5 183.1816,-51.5 322.0137,-51.5 322.0137,-23.5 183.1816,-23.5"/>
<text text-anchor="start" x="191.1816" y="-39.5" font-family="Helvetica,sans-Serif" font-size="10.00" fill="#000000">A_CO_DB\_create_security</text>
<text text-anchor="middle" x="252.5977" y="-29.5" font-family="Helvetica,sans-Serif" font-size="10.00" fill="#000000">_predicate</text>
</a>
</g>
</g>
<!-- Node13&#45;&gt;Node14 -->
<g id="edge1" class="edge">
<title>Node13&#45;&gt;Node14</title>
<path fill="none" stroke="#191970" d="M147.4332,-37.5C155.7864,-37.5 164.3274,-37.5 172.7529,-37.5"/>
<polygon fill="#191970" stroke="#191970" points="172.9525,-41.0001 182.9525,-37.5 172.9525,-34.0001 172.9525,-41.0001"/>
</g>
<!-- Node15 -->
<g id="node3" class="node">
<title>Node15</title>
<g id="a_node3"><a xlink:href="a00307.html#a176b2c663fa7768e95e4fbe93281adc6" target="_top" xlink:title="A_CO_DB\\_create_read\l_security_predicate">
<polygon fill="#ffffff" stroke="#000000" points="358.563,-47.5 358.563,-75.5 482.9565,-75.5 482.9565,-47.5 358.563,-47.5"/>
<text text-anchor="start" x="366.563" y="-63.5" font-family="Helvetica,sans-Serif" font-size="10.00" fill="#000000">A_CO_DB\_create_read</text>
<text text-anchor="middle" x="420.7598" y="-53.5" font-family="Helvetica,sans-Serif" font-size="10.00" fill="#000000">_security_predicate</text>
</a>
</g>
</g>
<!-- Node14&#45;&gt;Node15 -->
<g id="edge2" class="edge">
<title>Node14&#45;&gt;Node15</title>
<path fill="none" stroke="#191970" d="M322.4526,-47.4697C331.014,-48.6915 339.7781,-49.9423 348.3758,-51.1694"/>
<polygon fill="#191970" stroke="#191970" points="347.976,-54.6477 358.3702,-52.5958 348.965,-47.7179 347.976,-54.6477"/>
</g>
<!-- Node16 -->
<g id="node4" class="node">
<title>Node16</title>
<g id="a_node4"><a xlink:href="a00307.html#ad4bc3d416f085818935b32a814313202" target="_top" xlink:title="A_CO_DB\\_create_write\l_security_predicate">
<polygon fill="#ffffff" stroke="#000000" points="358.0137,-.5 358.0137,-28.5 483.5059,-28.5 483.5059,-.5 358.0137,-.5"/>
<text text-anchor="start" x="366.0137" y="-16.5" font-family="Helvetica,sans-Serif" font-size="10.00" fill="#000000">A_CO_DB\_create_write</text>
<text text-anchor="middle" x="420.7598" y="-6.5" font-family="Helvetica,sans-Serif" font-size="10.00" fill="#000000">_security_predicate</text>
</a>
</g>
</g>
<!-- Node14&#45;&gt;Node16 -->
<g id="edge3" class="edge">
<title>Node14&#45;&gt;Node16</title>
<path fill="none" stroke="#191970" d="M322.4526,-27.9457C330.7927,-26.8051 339.325,-25.6381 347.7086,-24.4914"/>
<polygon fill="#191970" stroke="#191970" points="348.4044,-27.9289 357.8378,-23.106 347.4558,-20.9935 348.4044,-27.9289"/>
</g>
</g>
</svg>
