<?xml version="1.0" encoding="UTF-8" standalone="no"?>
<!DOCTYPE svg PUBLIC "-//W3C//DTD SVG 1.1//EN"
 "http://www.w3.org/Graphics/SVG/1.1/DTD/svg11.dtd">
<!-- Generated by graphviz version 2.40.1 (20161225.0304)
 -->
<!-- Title: CO_Security_Login\user_can_write Pages: 1 -->
<svg width="312pt" height="121pt"
 viewBox="0.00 0.00 312.25 121.00" xmlns="http://www.w3.org/2000/svg" xmlns:xlink="http://www.w3.org/1999/xlink">
<g id="graph0" class="graph" transform="scale(1 1) rotate(0) translate(4 117)">
<title>CO_Security_Login\user_can_write</title>
<polygon fill="#ffffff" stroke="transparent" points="-4,4 -4,-117 308.2451,-117 308.2451,4 -4,4"/>
<!-- Node1 -->
<g id="node1" class="node">
<title>Node1</title>
<g id="a_node1"><a xlink:title=" ">
<polygon fill="#bfbfbf" stroke="#000000" points="179.2998,-42.5 179.2998,-70.5 304.2451,-70.5 304.2451,-42.5 179.2998,-42.5"/>
<text text-anchor="start" x="187.2998" y="-58.5" font-family="Helvetica,sans-Serif" font-size="10.00" fill="#000000">CO_Security_Login\user</text>
<text text-anchor="middle" x="241.7725" y="-48.5" font-family="Helvetica,sans-Serif" font-size="10.00" fill="#000000">_can_write</text>
</a>
</g>
</g>
<!-- Node2 -->
<g id="node2" class="node">
<title>Node2</title>
<g id="a_node2"><a xlink:href="a00340.html#ae927630811dae37fddc34b16878c63fd" target="_top" xlink:title=" ">
<polygon fill="#ffffff" stroke="#000000" points="5.2808,-84.5 5.2808,-112.5 138.019,-112.5 138.019,-84.5 5.2808,-84.5"/>
<text text-anchor="start" x="13.2808" y="-100.5" font-family="Helvetica,sans-Serif" font-size="10.00" fill="#000000">CO_Security_Login\delete</text>
<text text-anchor="middle" x="71.6499" y="-90.5" font-family="Helvetica,sans-Serif" font-size="10.00" fill="#000000">_from_db</text>
</a>
</g>
</g>
<!-- Node1&#45;&gt;Node2 -->
<g id="edge1" class="edge">
<title>Node1&#45;&gt;Node2</title>
<path fill="none" stroke="#191970" d="M174.7594,-73.0442C159.4958,-76.8125 143.4194,-80.7815 128.6208,-84.435"/>
<polygon fill="#191970" stroke="#191970" points="175.7813,-76.3971 184.6509,-70.6022 174.1034,-69.6012 175.7813,-76.3971"/>
</g>
<!-- Node3 -->
<g id="node3" class="node">
<title>Node3</title>
<g id="a_node3"><a xlink:href="a00340.html#a061f896c69dc8a8dd3d9ee793b91ddc7" target="_top" xlink:title=" ">
<polygon fill="#ffffff" stroke="#000000" points="0,-47.5 0,-65.5 143.2998,-65.5 143.2998,-47.5 0,-47.5"/>
<text text-anchor="middle" x="71.6499" y="-53.5" font-family="Helvetica,sans-Serif" font-size="10.00" fill="#000000">CO_Security_Login\set_lang</text>
</a>
</g>
</g>
<!-- Node1&#45;&gt;Node3 -->
<g id="edge2" class="edge">
<title>Node1&#45;&gt;Node3</title>
<path fill="none" stroke="#191970" d="M168.7701,-56.5C160.3749,-56.5 151.8198,-56.5 143.4408,-56.5"/>
<polygon fill="#191970" stroke="#191970" points="168.9085,-60.0001 178.9084,-56.5 168.9084,-53.0001 168.9085,-60.0001"/>
</g>
<!-- Node4 -->
<g id="node4" class="node">
<title>Node4</title>
<g id="a_node4"><a xlink:href="a00340.html#ac4f0c16cb8cf1e2151451bf4d5cb2238" target="_top" xlink:title=" ">
<polygon fill="#ffffff" stroke="#000000" points="5.0122,-.5 5.0122,-28.5 138.2876,-28.5 138.2876,-.5 5.0122,-.5"/>
<text text-anchor="start" x="13.0122" y="-16.5" font-family="Helvetica,sans-Serif" font-size="10.00" fill="#000000">CO_Security_Login\set</text>
<text text-anchor="middle" x="71.6499" y="-6.5" font-family="Helvetica,sans-Serif" font-size="10.00" fill="#000000">_password_from_cleartext</text>
</a>
</g>
</g>
<!-- Node1&#45;&gt;Node4 -->
<g id="edge3" class="edge">
<title>Node1&#45;&gt;Node4</title>
<path fill="none" stroke="#191970" d="M174.7594,-39.9558C159.4958,-36.1875 143.4194,-32.2185 128.6208,-28.565"/>
<polygon fill="#191970" stroke="#191970" points="174.1034,-43.3988 184.6509,-42.3978 175.7813,-36.6029 174.1034,-43.3988"/>
</g>
</g>
</svg>
