<?xml version="1.0" encoding="UTF-8" standalone="no"?>
<!DOCTYPE svg PUBLIC "-//W3C//DTD SVG 1.1//EN"
 "http://www.w3.org/Graphics/SVG/1.1/DTD/svg11.dtd">
<!-- Generated by graphviz version 2.40.1 (20161225.0304)
 -->
<!-- Title: CO_Security_DB\is_this_a_personal_id Pages: 1 -->
<svg width="636pt" height="47pt"
 viewBox="0.00 0.00 635.81 47.00" xmlns="http://www.w3.org/2000/svg" xmlns:xlink="http://www.w3.org/1999/xlink">
<g id="graph0" class="graph" transform="scale(1 1) rotate(0) translate(4 43)">
<title>CO_Security_DB\is_this_a_personal_id</title>
<polygon fill="#ffffff" stroke="transparent" points="-4,4 -4,-43 631.8057,-43 631.8057,4 -4,4"/>
<!-- Node1 -->
<g id="node1" class="node">
<title>Node1</title>
<g id="a_node1"><a xlink:title=" ">
<polygon fill="#bfbfbf" stroke="#000000" points="0,-5.5 0,-33.5 123.2607,-33.5 123.2607,-5.5 0,-5.5"/>
<text text-anchor="start" x="8" y="-21.5" font-family="Helvetica,sans-Serif" font-size="10.00" fill="#000000">CO_Security_DB\is_this</text>
<text text-anchor="middle" x="61.6304" y="-11.5" font-family="Helvetica,sans-Serif" font-size="10.00" fill="#000000">_a_personal_id</text>
</a>
</g>
</g>
<!-- Node2 -->
<g id="node2" class="node">
<title>Node2</title>
<g id="a_node2"><a xlink:href="a00324.html#ade2e3afd7cb253a8d3683cf0bb043674" target="_top" xlink:title=" ">
<polygon fill="#ffffff" stroke="#000000" points="159.2607,-.5 159.2607,-38.5 288.1172,-38.5 288.1172,-.5 159.2607,-.5"/>
<text text-anchor="start" x="167.2607" y="-26.5" font-family="Helvetica,sans-Serif" font-size="10.00" fill="#000000">CO_Security_DB\get</text>
<text text-anchor="start" x="167.2607" y="-16.5" font-family="Helvetica,sans-Serif" font-size="10.00" fill="#000000">_all_personal_ids_except</text>
<text text-anchor="middle" x="223.689" y="-6.5" font-family="Helvetica,sans-Serif" font-size="10.00" fill="#000000">_for_id</text>
</a>
</g>
</g>
<!-- Node1&#45;&gt;Node2 -->
<g id="edge1" class="edge">
<title>Node1&#45;&gt;Node2</title>
<path fill="none" stroke="#191970" d="M123.3601,-19.5C131.7822,-19.5 140.4997,-19.5 149.1191,-19.5"/>
<polygon fill="#191970" stroke="#191970" points="149.169,-23.0001 159.1689,-19.5 149.1689,-16.0001 149.169,-23.0001"/>
</g>
<!-- Node3 -->
<g id="node3" class="node">
<title>Node3</title>
<g id="a_node3"><a xlink:href="a00304.html#a2396849660aa4ff018ab7509a4badeb5" target="_top" xlink:title=" ">
<polygon fill="#ffffff" stroke="#000000" points="324.1172,-10.5 324.1172,-28.5 455.1807,-28.5 455.1807,-10.5 324.1172,-10.5"/>
<text text-anchor="middle" x="389.6489" y="-16.5" font-family="Helvetica,sans-Serif" font-size="10.00" fill="#000000">A_CO_DB\execute_query</text>
</a>
</g>
</g>
<!-- Node2&#45;&gt;Node3 -->
<g id="edge2" class="edge">
<title>Node2&#45;&gt;Node3</title>
<path fill="none" stroke="#191970" d="M288.3286,-19.5C296.7673,-19.5 305.4723,-19.5 314.0705,-19.5"/>
<polygon fill="#191970" stroke="#191970" points="314.0926,-23.0001 324.0925,-19.5 314.0925,-16.0001 314.0926,-23.0001"/>
</g>
<!-- Node4 -->
<g id="node4" class="node">
<title>Node4</title>
<g id="a_node4"><a xlink:href="a00304.html#ae41efbdfe739934823b5f4c785b22611" target="_top" xlink:title=" ">
<polygon fill="#ffffff" stroke="#000000" points="491.1807,-10.5 491.1807,-28.5 627.8057,-28.5 627.8057,-10.5 491.1807,-10.5"/>
<text text-anchor="middle" x="559.4932" y="-16.5" font-family="Helvetica,sans-Serif" font-size="10.00" fill="#000000">A_CO_DB\_execute_query</text>
</a>
</g>
</g>
<!-- Node3&#45;&gt;Node4 -->
<g id="edge3" class="edge">
<title>Node3&#45;&gt;Node4</title>
<path fill="none" stroke="#191970" d="M455.3151,-19.5C463.6107,-19.5 472.1651,-19.5 480.6384,-19.5"/>
<polygon fill="#191970" stroke="#191970" points="480.9111,-23.0001 490.9111,-19.5 480.9111,-16.0001 480.9111,-23.0001"/>
</g>
</g>
</svg>
