<?xml version="1.0" encoding="UTF-8" standalone="no"?>
<!DOCTYPE svg PUBLIC "-//W3C//DTD SVG 1.1//EN"
 "http://www.w3.org/Graphics/SVG/1.1/DTD/svg11.dtd">
<!-- Generated by graphviz version 2.47.1 (20210417.1919)
 -->
<!-- Title: CO_Security_Login\set_personal_ids Pages: 1 -->
<svg width="759pt" height="149pt"
 viewBox="0.00 0.00 759.00 148.50" xmlns="http://www.w3.org/2000/svg" xmlns:xlink="http://www.w3.org/1999/xlink">
<g id="graph0" class="graph" transform="scale(1 1) rotate(0) translate(4 144.5)">
<title>CO_Security_Login\set_personal_ids</title>
<polygon fill="white" stroke="transparent" points="-4,4 -4,-144.5 755,-144.5 755,4 -4,4"/>
<!-- Node1 -->
<g id="node1" class="node">
<title>Node1</title>
<g id="a_node1"><a xlink:title=" ">
<polygon fill="#bfbfbf" stroke="black" points="0,-110 0,-140 118,-140 118,-110 0,-110"/>
<text text-anchor="start" x="8" y="-128" font-family="Helvetica,sans-Serif" font-size="10.00">CO_Security_Login\set</text>
<text text-anchor="middle" x="59" y="-117" font-family="Helvetica,sans-Serif" font-size="10.00">_personal_ids</text>
</a>
</g>
</g>
<!-- Node2 -->
<g id="node2" class="node">
<title>Node2</title>
<g id="a_node2"><a xlink:href="a00308.html#a8780b40e55827b90bb441671faec2a05" target="_top" xlink:title=" ">
<polygon fill="white" stroke="black" points="465,-88 465,-118 584,-118 584,-88 465,-88"/>
<text text-anchor="start" x="473" y="-106" font-family="Helvetica,sans-Serif" font-size="10.00">A_CO_DB_Table_Base</text>
<text text-anchor="middle" x="524.5" y="-95" font-family="Helvetica,sans-Serif" font-size="10.00">\get_access_object</text>
</a>
</g>
</g>
<!-- Node1&#45;&gt;Node2 -->
<g id="edge1" class="edge">
<title>Node1&#45;&gt;Node2</title>
<path fill="none" stroke="midnightblue" d="M118.29,-130.34C191.1,-135.89 319.32,-141.99 428,-128 440.47,-126.39 453.64,-123.65 466.09,-120.56"/>
<polygon fill="midnightblue" stroke="midnightblue" points="467.08,-123.92 475.88,-118.02 465.32,-117.15 467.08,-123.92"/>
</g>
<!-- Node3 -->
<g id="node3" class="node">
<title>Node3</title>
<g id="a_node3"><a xlink:href="a00308.html#a7487697640051c6661b8cdca6f109959" target="_top" xlink:title=" ">
<polygon fill="white" stroke="black" points="154,-88 154,-118 273,-118 273,-88 154,-88"/>
<text text-anchor="start" x="162" y="-106" font-family="Helvetica,sans-Serif" font-size="10.00">A_CO_DB_Table_Base</text>
<text text-anchor="middle" x="213.5" y="-95" font-family="Helvetica,sans-Serif" font-size="10.00">\update_db</text>
</a>
</g>
</g>
<!-- Node1&#45;&gt;Node3 -->
<g id="edge2" class="edge">
<title>Node1&#45;&gt;Node3</title>
<path fill="none" stroke="midnightblue" d="M118.09,-116.62C126.5,-115.41 135.22,-114.15 143.81,-112.91"/>
<polygon fill="midnightblue" stroke="midnightblue" points="144.42,-116.36 153.81,-111.47 143.42,-109.43 144.42,-116.36"/>
</g>
<!-- Node4 -->
<g id="node4" class="node">
<title>Node4</title>
<g id="a_node4"><a xlink:href="a00308.html#adda14b544e11934db3bf8130aeea0610" target="_top" xlink:title=" ">
<polygon fill="white" stroke="black" points="309,-39 309,-69 428,-69 428,-39 309,-39"/>
<text text-anchor="start" x="317" y="-57" font-family="Helvetica,sans-Serif" font-size="10.00">A_CO_DB_Table_Base</text>
<text text-anchor="middle" x="368.5" y="-46" font-family="Helvetica,sans-Serif" font-size="10.00">\_write_to_db</text>
</a>
</g>
</g>
<!-- Node3&#45;&gt;Node4 -->
<g id="edge3" class="edge">
<title>Node3&#45;&gt;Node4</title>
<path fill="none" stroke="midnightblue" d="M261.65,-87.9C277.14,-82.94 294.52,-77.37 310.65,-72.21"/>
<polygon fill="midnightblue" stroke="midnightblue" points="312.05,-75.43 320.5,-69.05 309.91,-68.77 312.05,-75.43"/>
</g>
<!-- Node8 -->
<g id="node8" class="node">
<title>Node8</title>
<g id="a_node8"><a xlink:href="a00308.html#a7d2537d7675ca572ad78096784fe4fe4" target="_top" xlink:title=" ">
<polygon fill="white" stroke="black" points="309,-88 309,-118 428,-118 428,-88 309,-88"/>
<text text-anchor="start" x="317" y="-106" font-family="Helvetica,sans-Serif" font-size="10.00">A_CO_DB_Table_Base</text>
<text text-anchor="middle" x="368.5" y="-95" font-family="Helvetica,sans-Serif" font-size="10.00">\user_can_write</text>
</a>
</g>
</g>
<!-- Node3&#45;&gt;Node8 -->
<g id="edge9" class="edge">
<title>Node3&#45;&gt;Node8</title>
<path fill="none" stroke="midnightblue" d="M273.22,-103C281.54,-103 290.17,-103 298.67,-103"/>
<polygon fill="midnightblue" stroke="midnightblue" points="298.94,-106.5 308.94,-103 298.94,-99.5 298.94,-106.5"/>
</g>
<!-- Node4&#45;&gt;Node2 -->
<g id="edge7" class="edge">
<title>Node4&#45;&gt;Node2</title>
<path fill="none" stroke="midnightblue" d="M416.96,-69.1C432.55,-74.06 450.04,-79.63 466.28,-84.79"/>
<polygon fill="midnightblue" stroke="midnightblue" points="465.6,-88.25 476.2,-87.95 467.73,-81.58 465.6,-88.25"/>
</g>
<!-- Node5 -->
<g id="node5" class="node">
<title>Node5</title>
<g id="a_node5"><a xlink:href="a00308.html#a6109c37c5e61ab04ea710b1ebb7615a5" target="_top" xlink:title=" ">
<polygon fill="white" stroke="black" points="464,-39 464,-69 585,-69 585,-39 464,-39"/>
<text text-anchor="start" x="472" y="-57" font-family="Helvetica,sans-Serif" font-size="10.00">A_CO_DB_Table_Base</text>
<text text-anchor="middle" x="524.5" y="-46" font-family="Helvetica,sans-Serif" font-size="10.00">\_build_parameter_array</text>
</a>
</g>
</g>
<!-- Node4&#45;&gt;Node5 -->
<g id="edge4" class="edge">
<title>Node4&#45;&gt;Node5</title>
<path fill="none" stroke="midnightblue" d="M428.16,-54C436.59,-54 445.33,-54 453.95,-54"/>
<polygon fill="midnightblue" stroke="midnightblue" points="453.98,-57.5 463.98,-54 453.98,-50.5 453.98,-57.5"/>
</g>
<!-- Node7 -->
<g id="node7" class="node">
<title>Node7</title>
<g id="a_node7"><a xlink:href="a00308.html#a78affe18a811930d4012fd265e95cdca" target="_top" xlink:title=" ">
<polygon fill="white" stroke="black" points="621,-0.5 621,-19.5 751,-19.5 751,-0.5 621,-0.5"/>
<text text-anchor="middle" x="686" y="-7.5" font-family="Helvetica,sans-Serif" font-size="10.00">A_CO_DB_Table_Base\id</text>
</a>
</g>
</g>
<!-- Node4&#45;&gt;Node7 -->
<g id="edge8" class="edge">
<title>Node4&#45;&gt;Node7</title>
<path fill="none" stroke="midnightblue" d="M420.15,-38.88C434.24,-35.14 449.62,-31.5 464,-29 512.47,-20.57 567.6,-15.82 610.68,-13.18"/>
<polygon fill="midnightblue" stroke="midnightblue" points="611.02,-16.67 620.79,-12.59 610.61,-9.68 611.02,-16.67"/>
</g>
<!-- Node6 -->
<g id="node6" class="node">
<title>Node6</title>
<g id="a_node6"><a xlink:href="a00308.html#afb32d1e32b8e1c1de2e008c9b88f7846" target="_top" xlink:title=" ">
<polygon fill="white" stroke="black" points="626.5,-39 626.5,-69 745.5,-69 745.5,-39 626.5,-39"/>
<text text-anchor="start" x="634.5" y="-57" font-family="Helvetica,sans-Serif" font-size="10.00">A_CO_DB_Table_Base</text>
<text text-anchor="middle" x="686" y="-46" font-family="Helvetica,sans-Serif" font-size="10.00">\_badger_serialize</text>
</a>
</g>
</g>
<!-- Node5&#45;&gt;Node6 -->
<g id="edge5" class="edge">
<title>Node5&#45;&gt;Node6</title>
<path fill="none" stroke="midnightblue" d="M585.35,-54C595.42,-54 605.95,-54 616.23,-54"/>
<polygon fill="midnightblue" stroke="midnightblue" points="616.41,-57.5 626.41,-54 616.41,-50.5 616.41,-57.5"/>
</g>
<!-- Node5&#45;&gt;Node7 -->
<g id="edge6" class="edge">
<title>Node5&#45;&gt;Node7</title>
<path fill="none" stroke="midnightblue" d="M579.94,-38.98C599.68,-33.54 621.72,-27.46 640.5,-22.28"/>
<polygon fill="midnightblue" stroke="midnightblue" points="641.57,-25.61 650.28,-19.58 639.71,-18.86 641.57,-25.61"/>
</g>
<!-- Node8&#45;&gt;Node2 -->
<g id="edge10" class="edge">
<title>Node8&#45;&gt;Node2</title>
<path fill="none" stroke="midnightblue" d="M428.16,-103C436.77,-103 445.71,-103 454.51,-103"/>
<polygon fill="midnightblue" stroke="midnightblue" points="454.75,-106.5 464.75,-103 454.75,-99.5 454.75,-106.5"/>
</g>
</g>
</svg>
