<?xml version="1.0" encoding="UTF-8" standalone="no"?>
<!DOCTYPE svg PUBLIC "-//W3C//DTD SVG 1.1//EN"
 "http://www.w3.org/Graphics/SVG/1.1/DTD/svg11.dtd">
<!-- Generated by graphviz version 2.40.1 (20161225.0304)
 -->
<!-- Title: CO_Main_Data_DB\_parse_string_parameter Pages: 1 -->
<svg width="665pt" height="37pt"
 viewBox="0.00 0.00 665.25 37.00" xmlns="http://www.w3.org/2000/svg" xmlns:xlink="http://www.w3.org/1999/xlink">
<g id="graph0" class="graph" transform="scale(1 1) rotate(0) translate(4 33)">
<title>CO_Main_Data_DB\_parse_string_parameter</title>
<polygon fill="#ffffff" stroke="transparent" points="-4,4 -4,-33 661.249,-33 661.249,4 -4,4"/>
<!-- Node33 -->
<g id="node1" class="node">
<title>Node33</title>
<polygon fill="#bfbfbf" stroke="#000000" points="0,-.5 0,-28.5 137.7285,-28.5 137.7285,-.5 0,-.5"/>
<text text-anchor="start" x="8" y="-16.5" font-family="Helvetica,sans-Serif" font-size="10.00" fill="#000000">CO_Main_Data_DB\_parse</text>
<text text-anchor="middle" x="68.8643" y="-6.5" font-family="Helvetica,sans-Serif" font-size="10.00" fill="#000000">_string_parameter</text>
</g>
<!-- Node34 -->
<g id="node2" class="node">
<title>Node34</title>
<g id="a_node2"><a xlink:href="a00315.html#a64a118564e4da8a3b0220ee5cf088e9b" target="_top" xlink:title="CO_Main_Data_DB\\_parse\l_parameters">
<polygon fill="#ffffff" stroke="#000000" points="173.7285,-.5 173.7285,-28.5 311.457,-28.5 311.457,-.5 173.7285,-.5"/>
<text text-anchor="start" x="181.7285" y="-16.5" font-family="Helvetica,sans-Serif" font-size="10.00" fill="#000000">CO_Main_Data_DB\_parse</text>
<text text-anchor="middle" x="242.5928" y="-6.5" font-family="Helvetica,sans-Serif" font-size="10.00" fill="#000000">_parameters</text>
</a>
</g>
</g>
<!-- Node33&#45;&gt;Node34 -->
<g id="edge1" class="edge">
<title>Node33&#45;&gt;Node34</title>
<path fill="none" stroke="#191970" d="M148.2915,-14.5C156.7643,-14.5 165.3321,-14.5 173.6694,-14.5"/>
<polygon fill="#191970" stroke="#191970" points="148.0256,-11.0001 138.0255,-14.5 148.0255,-18.0001 148.0256,-11.0001"/>
</g>
<!-- Node35 -->
<g id="node3" class="node">
<title>Node35</title>
<g id="a_node3"><a xlink:href="a00315.html#aa97e6ad521aed4c2cbe03e83017af0b7" target="_top" xlink:title="CO_Main_Data_DB\\_build\l_sql_query">
<polygon fill="#ffffff" stroke="#000000" points="347.457,-.5 347.457,-28.5 481.2988,-28.5 481.2988,-.5 347.457,-.5"/>
<text text-anchor="start" x="355.457" y="-16.5" font-family="Helvetica,sans-Serif" font-size="10.00" fill="#000000">CO_Main_Data_DB\_build</text>
<text text-anchor="middle" x="414.3779" y="-6.5" font-family="Helvetica,sans-Serif" font-size="10.00" fill="#000000">_sql_query</text>
</a>
</g>
</g>
<!-- Node34&#45;&gt;Node35 -->
<g id="edge2" class="edge">
<title>Node34&#45;&gt;Node35</title>
<path fill="none" stroke="#191970" d="M321.5626,-14.5C330.211,-14.5 338.9536,-14.5 347.4367,-14.5"/>
<polygon fill="#191970" stroke="#191970" points="321.4746,-11.0001 311.4745,-14.5 321.4745,-18.0001 321.4746,-11.0001"/>
</g>
<!-- Node36 -->
<g id="node4" class="node">
<title>Node36</title>
<g id="a_node4"><a xlink:href="a00315.html#a303048d406814c066d27fda70de4ff02" target="_top" xlink:title="CO_Main_Data_DB\\generic\l_search">
<polygon fill="#ffffff" stroke="#000000" points="517.2988,-.5 517.2988,-28.5 657.249,-28.5 657.249,-.5 517.2988,-.5"/>
<text text-anchor="start" x="525.2988" y="-16.5" font-family="Helvetica,sans-Serif" font-size="10.00" fill="#000000">CO_Main_Data_DB\generic</text>
<text text-anchor="middle" x="587.2739" y="-6.5" font-family="Helvetica,sans-Serif" font-size="10.00" fill="#000000">_search</text>
</a>
</g>
</g>
<!-- Node35&#45;&gt;Node36 -->
<g id="edge3" class="edge">
<title>Node35&#45;&gt;Node36</title>
<path fill="none" stroke="#191970" d="M491.9332,-14.5C500.3713,-14.5 508.9236,-14.5 517.264,-14.5"/>
<polygon fill="#191970" stroke="#191970" points="491.7191,-11.0001 481.7191,-14.5 491.7191,-18.0001 491.7191,-11.0001"/>
</g>
</g>
</svg>
