<?xml version="1.0" encoding="UTF-8" standalone="no"?>
<!DOCTYPE svg PUBLIC "-//W3C//DTD SVG 1.1//EN"
 "http://www.w3.org/Graphics/SVG/1.1/DTD/svg11.dtd">
<!-- Generated by graphviz version 2.40.1 (20161225.0304)
 -->
<!-- Title: CO_Access\get_multiple_security_records_by_id Pages: 1 -->
<svg width="815pt" height="295pt"
 viewBox="0.00 0.00 815.06 295.00" xmlns="http://www.w3.org/2000/svg" xmlns:xlink="http://www.w3.org/1999/xlink">
<g id="graph0" class="graph" transform="scale(1 1) rotate(0) translate(4 291)">
<title>CO_Access\get_multiple_security_records_by_id</title>
<polygon fill="#ffffff" stroke="transparent" points="-4,4 -4,-291 811.0566,-291 811.0566,4 -4,4"/>
<!-- Node1 -->
<g id="node1" class="node">
<title>Node1</title>
<g id="a_node1"><a xlink:title=" ">
<polygon fill="#bfbfbf" stroke="#000000" points="681.5645,-158.5 681.5645,-186.5 807.0566,-186.5 807.0566,-158.5 681.5645,-158.5"/>
<text text-anchor="start" x="689.5645" y="-174.5" font-family="Helvetica,sans-Serif" font-size="10.00" fill="#000000">CO_Access\get_multiple</text>
<text text-anchor="middle" x="744.3105" y="-164.5" font-family="Helvetica,sans-Serif" font-size="10.00" fill="#000000">_security_records_by_id</text>
</a>
</g>
</g>
<!-- Node2 -->
<g id="node2" class="node">
<title>Node2</title>
<g id="a_node2"><a xlink:href="a00352.html#aeab406fa4ecc249662fa1e2e073341b2" target="_top" xlink:title=" ">
<polygon fill="#ffffff" stroke="#000000" points="526.1758,-158.5 526.1758,-186.5 645.5645,-186.5 645.5645,-158.5 526.1758,-158.5"/>
<text text-anchor="start" x="534.1758" y="-174.5" font-family="Helvetica,sans-Serif" font-size="10.00" fill="#000000">CO_Access\get_single</text>
<text text-anchor="middle" x="585.8701" y="-164.5" font-family="Helvetica,sans-Serif" font-size="10.00" fill="#000000">_security_record_by_id</text>
</a>
</g>
</g>
<!-- Node1&#45;&gt;Node2 -->
<g id="edge1" class="edge">
<title>Node1&#45;&gt;Node2</title>
<path fill="none" stroke="#191970" d="M670.9604,-172.5C662.4784,-172.5 653.9062,-172.5 645.6356,-172.5"/>
<polygon fill="#191970" stroke="#191970" points="671.2355,-176.0001 681.2354,-172.5 671.2354,-169.0001 671.2355,-176.0001"/>
</g>
<!-- Node3 -->
<g id="node3" class="node">
<title>Node3</title>
<g id="a_node3"><a xlink:href="a00352.html#adbc6444fbac916f3a280f4a3ce4f067a" target="_top" xlink:title=" ">
<polygon fill="#ffffff" stroke="#000000" points="364.6689,-144.5 364.6689,-162.5 490.1758,-162.5 490.1758,-144.5 364.6689,-144.5"/>
<text text-anchor="middle" x="427.4224" y="-150.5" font-family="Helvetica,sans-Serif" font-size="10.00" fill="#000000">CO_Access\get_login_id</text>
</a>
</g>
</g>
<!-- Node2&#45;&gt;Node3 -->
<g id="edge2" class="edge">
<title>Node2&#45;&gt;Node3</title>
<path fill="none" stroke="#191970" d="M516.0168,-164.1237C507.4613,-163.0977 498.7581,-162.0541 490.3136,-161.0415"/>
<polygon fill="#191970" stroke="#191970" points="515.6222,-167.6013 525.9678,-165.3169 516.4557,-160.6511 515.6222,-167.6013"/>
</g>
<!-- Node5 -->
<g id="node5" class="node">
<title>Node5</title>
<g id="a_node5"><a xlink:href="a00352.html#a65c256cad68440723a8de979b1b7a1bb" target="_top" xlink:title=" ">
<polygon fill="#ffffff" stroke="#000000" points="188.4453,-233.5 188.4453,-251.5 325.0605,-251.5 325.0605,-233.5 188.4453,-233.5"/>
<text text-anchor="middle" x="256.7529" y="-239.5" font-family="Helvetica,sans-Serif" font-size="10.00" fill="#000000">CO_Access\get_login_item</text>
</a>
</g>
</g>
<!-- Node2&#45;&gt;Node5 -->
<g id="edge17" class="edge">
<title>Node2&#45;&gt;Node5</title>
<path fill="none" stroke="#191970" d="M516.0119,-187.3582C450.2522,-201.3446 353.9063,-221.8364 299.0727,-233.499"/>
<polygon fill="#191970" stroke="#191970" points="516.8346,-190.7616 525.8876,-185.2577 515.3783,-183.9147 516.8346,-190.7616"/>
</g>
<!-- Node4 -->
<g id="node4" class="node">
<title>Node4</title>
<g id="a_node4"><a xlink:href="a00352.html#a2467c84d780ce52c35cfa9b5dc8604d4" target="_top" xlink:title=" ">
<polygon fill="#ffffff" stroke="#000000" points="191.4995,-186.5 191.4995,-214.5 322.0063,-214.5 322.0063,-186.5 191.4995,-186.5"/>
<text text-anchor="start" x="199.4995" y="-202.5" font-family="Helvetica,sans-Serif" font-size="10.00" fill="#000000">CO_Access\get_available</text>
<text text-anchor="middle" x="256.7529" y="-192.5" font-family="Helvetica,sans-Serif" font-size="10.00" fill="#000000">_tokens</text>
</a>
</g>
</g>
<!-- Node3&#45;&gt;Node4 -->
<g id="edge3" class="edge">
<title>Node3&#45;&gt;Node4</title>
<path fill="none" stroke="#191970" d="M384.8745,-165.2171C361.4813,-171.6593 332.3007,-179.6952 307.6993,-186.4701"/>
<polygon fill="#191970" stroke="#191970" points="385.8038,-168.5916 394.5156,-162.5621 383.9452,-161.8428 385.8038,-168.5916"/>
</g>
<!-- Node3&#45;&gt;Node5 -->
<g id="edge4" class="edge">
<title>Node3&#45;&gt;Node5</title>
<path fill="none" stroke="#191970" d="M407.7784,-168.9835C384.0093,-187.4724 345.1323,-216.8638 328.6689,-224.5 320.8462,-228.1284 312.1922,-231.0906 303.6778,-233.4866"/>
<polygon fill="#191970" stroke="#191970" points="410.0602,-171.6423 415.7823,-162.7256 405.7486,-166.1277 410.0602,-171.6423"/>
</g>
<!-- Node9 -->
<g id="node9" class="node">
<title>Node9</title>
<g id="a_node9"><a xlink:href="a00352.html#afdbd62c65cc83a1abbdbce6634b51dda" target="_top" xlink:title=" ">
<polygon fill="#ffffff" stroke="#000000" points="192.0562,-92.5 192.0562,-120.5 321.4497,-120.5 321.4497,-92.5 192.0562,-92.5"/>
<text text-anchor="start" x="200.0562" y="-108.5" font-family="Helvetica,sans-Serif" font-size="10.00" fill="#000000">CO_Access\get_personal</text>
<text text-anchor="middle" x="256.7529" y="-98.5" font-family="Helvetica,sans-Serif" font-size="10.00" fill="#000000">_security_ids</text>
</a>
</g>
</g>
<!-- Node3&#45;&gt;Node9 -->
<g id="edge8" class="edge">
<title>Node3&#45;&gt;Node9</title>
<path fill="none" stroke="#191970" d="M384.8745,-141.7829C361.4813,-135.3407 332.3007,-127.3048 307.6993,-120.5299"/>
<polygon fill="#191970" stroke="#191970" points="383.9452,-145.1572 394.5156,-144.4379 385.8038,-138.4084 383.9452,-145.1572"/>
</g>
<!-- Node12 -->
<g id="node12" class="node">
<title>Node12</title>
<g id="a_node12"><a xlink:href="a00352.html#afe9f0a632b2c80e162582cd2ed0d7d3d" target="_top" xlink:title=" ">
<polygon fill="#ffffff" stroke="#000000" points="184.8369,-53.5 184.8369,-71.5 328.6689,-71.5 328.6689,-53.5 184.8369,-53.5"/>
<text text-anchor="middle" x="256.7529" y="-59.5" font-family="Helvetica,sans-Serif" font-size="10.00" fill="#000000">CO_Access\get_security_ids</text>
</a>
</g>
</g>
<!-- Node3&#45;&gt;Node12 -->
<g id="edge11" class="edge">
<title>Node3&#45;&gt;Node12</title>
<path fill="none" stroke="#191970" d="M409.4065,-137.9066C390.4506,-122.2057 359.1855,-98.2551 328.6689,-83.5 318.5985,-78.6308 307.1781,-74.6632 296.4512,-71.5409"/>
<polygon fill="#191970" stroke="#191970" points="407.3007,-140.7092 417.2028,-144.4774 411.8119,-135.3566 407.3007,-140.7092"/>
</g>
<!-- Node14 -->
<g id="node14" class="node">
<title>Node14</title>
<g id="a_node14"><a xlink:href="a00296.html#a88b451020a7174eeb0c06e216ca517cf" target="_top" xlink:title=" ">
<polygon fill="#ffffff" stroke="#000000" points="192.0537,-139.5 192.0537,-167.5 321.4521,-167.5 321.4521,-139.5 192.0537,-139.5"/>
<text text-anchor="start" x="200.0537" y="-155.5" font-family="Helvetica,sans-Serif" font-size="10.00" fill="#000000">CO_Chameleon\get_user</text>
<text text-anchor="middle" x="256.7529" y="-145.5" font-family="Helvetica,sans-Serif" font-size="10.00" fill="#000000">_from_login</text>
</a>
</g>
</g>
<!-- Node3&#45;&gt;Node14 -->
<g id="edge13" class="edge">
<title>Node3&#45;&gt;Node14</title>
<path fill="none" stroke="#191970" d="M354.0875,-153.5C343.2688,-153.5 332.1875,-153.5 321.5581,-153.5"/>
<polygon fill="#191970" stroke="#191970" points="354.3563,-157.0001 364.3563,-153.5 354.3562,-150.0001 354.3563,-157.0001"/>
</g>
<!-- Node15 -->
<g id="node15" class="node">
<title>Node15</title>
<g id="a_node15"><a xlink:href="a00352.html#a2249312ed569b15e5b6b15c0112ce83b" target="_top" xlink:title=" ">
<polygon fill="#ffffff" stroke="#000000" points="196.7876,-4.5 196.7876,-32.5 316.7183,-32.5 316.7183,-4.5 196.7876,-4.5"/>
<text text-anchor="start" x="204.7876" y="-20.5" font-family="Helvetica,sans-Serif" font-size="10.00" fill="#000000">CO_Access\make_new</text>
<text text-anchor="middle" x="256.7529" y="-10.5" font-family="Helvetica,sans-Serif" font-size="10.00" fill="#000000">_blank_record</text>
</a>
</g>
</g>
<!-- Node3&#45;&gt;Node15 -->
<g id="edge15" class="edge">
<title>Node3&#45;&gt;Node15</title>
<path fill="none" stroke="#191970" d="M415.9447,-135.9076C399.3866,-111.8266 366.5883,-68.7187 328.6689,-43.5 322.2852,-39.2544 315.1026,-35.6494 307.8108,-32.6125"/>
<polygon fill="#191970" stroke="#191970" points="413.1719,-138.0567 421.6541,-144.4053 418.9823,-134.1528 413.1719,-138.0567"/>
</g>
<!-- Node6 -->
<g id="node6" class="node">
<title>Node6</title>
<g id="a_node6"><a xlink:href="a00352.html#ae2a40cf404135bb4aae747c37520733e" target="_top" xlink:title=" ">
<polygon fill="#ffffff" stroke="#000000" points="19.4482,-268.5 19.4482,-286.5 129.3887,-286.5 129.3887,-268.5 19.4482,-268.5"/>
<text text-anchor="middle" x="74.4185" y="-274.5" font-family="Helvetica,sans-Serif" font-size="10.00" fill="#000000">CO_Access\get_lang</text>
</a>
</g>
</g>
<!-- Node5&#45;&gt;Node6 -->
<g id="edge5" class="edge">
<title>Node5&#45;&gt;Node6</title>
<path fill="none" stroke="#191970" d="M199.6674,-253.4578C174.5449,-258.2802 145.3888,-263.8769 121.5315,-268.4564"/>
<polygon fill="#191970" stroke="#191970" points="200.6364,-256.8358 209.7973,-251.5134 199.3167,-249.9613 200.6364,-256.8358"/>
</g>
<!-- Node7 -->
<g id="node7" class="node">
<title>Node7</title>
<g id="a_node7"><a xlink:href="a00296.html#ac6ba71b99a641f6d19aa0a0d73997234" target="_top" xlink:title=" ">
<polygon fill="#ffffff" stroke="#000000" points="9.9927,-191.5 9.9927,-209.5 138.8442,-209.5 138.8442,-191.5 9.9927,-191.5"/>
<text text-anchor="middle" x="74.4185" y="-197.5" font-family="Helvetica,sans-Serif" font-size="10.00" fill="#000000">CO_Chameleon\get_lang</text>
</a>
</g>
</g>
<!-- Node5&#45;&gt;Node7 -->
<g id="edge6" class="edge">
<title>Node5&#45;&gt;Node7</title>
<path fill="none" stroke="#191970" d="M207.5702,-231.171C178.1499,-224.3941 141.2663,-215.8981 113.7832,-209.5675"/>
<polygon fill="#191970" stroke="#191970" points="207.1071,-234.6559 217.6376,-233.4899 208.6785,-227.8345 207.1071,-234.6559"/>
</g>
<!-- Node8 -->
<g id="node8" class="node">
<title>Node8</title>
<g id="a_node8"><a xlink:href="a00296.html#aa13745bd0d40cac3820bb3ae7f6d5fbb" target="_top" xlink:title=" ">
<polygon fill="#ffffff" stroke="#000000" points="2.7759,-231.5 2.7759,-249.5 146.061,-249.5 146.061,-231.5 2.7759,-231.5"/>
<text text-anchor="middle" x="74.4185" y="-237.5" font-family="Helvetica,sans-Serif" font-size="10.00" fill="#000000">CO_Chameleon\test_access</text>
</a>
</g>
</g>
<!-- Node5&#45;&gt;Node8 -->
<g id="edge7" class="edge">
<title>Node5&#45;&gt;Node8</title>
<path fill="none" stroke="#191970" d="M178.2441,-241.6388C167.6195,-241.5223 156.761,-241.4032 146.261,-241.288"/>
<polygon fill="#191970" stroke="#191970" points="178.3017,-245.1396 188.3395,-241.7496 178.3786,-238.14 178.3017,-245.1396"/>
</g>
<!-- Node10 -->
<g id="node10" class="node">
<title>Node10</title>
<g id="a_node10"><a xlink:href="a00352.html#a82bba10b220d78a598bff74a99ce3bbb" target="_top" xlink:title=" ">
<polygon fill="#ffffff" stroke="#000000" points="6.9385,-141.5 6.9385,-169.5 141.8984,-169.5 141.8984,-141.5 6.9385,-141.5"/>
<text text-anchor="start" x="14.9385" y="-157.5" font-family="Helvetica,sans-Serif" font-size="10.00" fill="#000000">CO_Access\add_personal</text>
<text text-anchor="middle" x="74.4185" y="-147.5" font-family="Helvetica,sans-Serif" font-size="10.00" fill="#000000">_token_from_current_login</text>
</a>
</g>
</g>
<!-- Node9&#45;&gt;Node10 -->
<g id="edge9" class="edge">
<title>Node9&#45;&gt;Node10</title>
<path fill="none" stroke="#191970" d="M194.5546,-123.215C172.4673,-129.1507 147.8483,-135.7667 126.6758,-141.4565"/>
<polygon fill="#191970" stroke="#191970" points="195.7542,-126.5169 204.5032,-120.5414 193.9375,-119.7567 195.7542,-126.5169"/>
</g>
<!-- Node11 -->
<g id="node11" class="node">
<title>Node11</title>
<g id="a_node11"><a xlink:href="a00352.html#a7f9cb2fc56cf3fcf37d507c4e9d83264" target="_top" xlink:title=" ">
<polygon fill="#ffffff" stroke="#000000" points="0,-94.5 0,-122.5 148.8369,-122.5 148.8369,-94.5 0,-94.5"/>
<text text-anchor="start" x="8" y="-110.5" font-family="Helvetica,sans-Serif" font-size="10.00" fill="#000000">CO_Access\remove_personal</text>
<text text-anchor="middle" x="74.4185" y="-100.5" font-family="Helvetica,sans-Serif" font-size="10.00" fill="#000000">_token_from_this_login</text>
</a>
</g>
</g>
<!-- Node9&#45;&gt;Node11 -->
<g id="edge10" class="edge">
<title>Node9&#45;&gt;Node11</title>
<path fill="none" stroke="#191970" d="M181.7036,-107.3232C170.8896,-107.4418 159.763,-107.5639 148.9589,-107.6824"/>
<polygon fill="#191970" stroke="#191970" points="181.9942,-110.8203 191.9552,-107.2108 181.9174,-103.8207 181.9942,-110.8203"/>
</g>
<!-- Node13 -->
<g id="node13" class="node">
<title>Node13</title>
<g id="a_node13"><a xlink:href="a00352.html#ae548938d26a8e1c2f5378e94d2921419" target="_top" xlink:title=" ">
<polygon fill="#ffffff" stroke="#000000" points="13.3374,-47.5 13.3374,-75.5 135.4995,-75.5 135.4995,-47.5 13.3374,-47.5"/>
<text text-anchor="start" x="21.3374" y="-63.5" font-family="Helvetica,sans-Serif" font-size="10.00" fill="#000000">CO_Access\i_have_this</text>
<text text-anchor="middle" x="74.4185" y="-53.5" font-family="Helvetica,sans-Serif" font-size="10.00" fill="#000000">_token</text>
</a>
</g>
</g>
<!-- Node12&#45;&gt;Node13 -->
<g id="edge12" class="edge">
<title>Node12&#45;&gt;Node13</title>
<path fill="none" stroke="#191970" d="M174.3296,-62.048C161.322,-61.9766 148.0748,-61.904 135.6603,-61.8359"/>
<polygon fill="#191970" stroke="#191970" points="174.6704,-65.5498 184.6895,-62.1048 174.7089,-58.5499 174.6704,-65.5498"/>
</g>
<!-- Node14&#45;&gt;Node7 -->
<g id="edge14" class="edge">
<title>Node14&#45;&gt;Node7</title>
<path fill="none" stroke="#191970" d="M192.3629,-170.0977C164.4995,-177.28 132.974,-185.4063 109.5305,-191.4492"/>
<polygon fill="#191970" stroke="#191970" points="193.2368,-173.4869 202.0466,-167.6015 191.4894,-166.7085 193.2368,-173.4869"/>
</g>
<!-- Node16 -->
<g id="node16" class="node">
<title>Node16</title>
<g id="a_node16"><a xlink:href="a00296.html#af193950805884bd481b8863ffd6d4fb1" target="_top" xlink:title=" ">
<polygon fill="#ffffff" stroke="#000000" points="7.7734,-.5 7.7734,-28.5 141.0635,-28.5 141.0635,-.5 7.7734,-.5"/>
<text text-anchor="start" x="15.7734" y="-16.5" font-family="Helvetica,sans-Serif" font-size="10.00" fill="#000000">CO_Chameleon\set_value</text>
<text text-anchor="middle" x="74.4185" y="-6.5" font-family="Helvetica,sans-Serif" font-size="10.00" fill="#000000">_for_key</text>
</a>
</g>
</g>
<!-- Node15&#45;&gt;Node16 -->
<g id="edge16" class="edge">
<title>Node15&#45;&gt;Node16</title>
<path fill="none" stroke="#191970" d="M186.4006,-16.9566C171.5384,-16.6306 155.8964,-16.2874 141.1717,-15.9644"/>
<polygon fill="#191970" stroke="#191970" points="186.4701,-20.4589 196.5445,-17.1792 186.6237,-13.4606 186.4701,-20.4589"/>
</g>
</g>
</svg>
