<?xml version="1.0" encoding="UTF-8" standalone="no"?>
<!DOCTYPE svg PUBLIC "-//W3C//DTD SVG 1.1//EN"
 "http://www.w3.org/Graphics/SVG/1.1/DTD/svg11.dtd">
<!-- Generated by graphviz version 2.47.1 (20210417.1919)
 -->
<!-- Title: CO_Main_Data_DB\get_all_visible_users Pages: 1 -->
<svg width="465pt" height="78pt"
 viewBox="0.00 0.00 465.00 77.50" xmlns="http://www.w3.org/2000/svg" xmlns:xlink="http://www.w3.org/1999/xlink">
<g id="graph0" class="graph" transform="scale(1 1) rotate(0) translate(4 73.5)">
<title>CO_Main_Data_DB\get_all_visible_users</title>
<polygon fill="white" stroke="transparent" points="-4,4 -4,-73.5 461,-73.5 461,4 -4,4"/>
<!-- Node1 -->
<g id="node1" class="node">
<title>Node1</title>
<g id="a_node1"><a xlink:title=" ">
<polygon fill="#bfbfbf" stroke="black" points="0,-17 0,-47 120,-47 120,-17 0,-17"/>
<text text-anchor="start" x="8" y="-35" font-family="Helvetica,sans-Serif" font-size="10.00">CO_Main_Data_DB\get</text>
<text text-anchor="middle" x="60" y="-24" font-family="Helvetica,sans-Serif" font-size="10.00">_all_visible_users</text>
</a>
</g>
</g>
<!-- Node2 -->
<g id="node2" class="node">
<title>Node2</title>
<g id="a_node2"><a xlink:href="a00304.html#a176b2c663fa7768e95e4fbe93281adc6" target="_top" xlink:title=" ">
<polygon fill="white" stroke="black" points="160,-39 160,-69 282,-69 282,-39 160,-39"/>
<text text-anchor="start" x="168" y="-57" font-family="Helvetica,sans-Serif" font-size="10.00">A_CO_DB\_create_read</text>
<text text-anchor="middle" x="221" y="-46" font-family="Helvetica,sans-Serif" font-size="10.00">_security_predicate</text>
</a>
</g>
</g>
<!-- Node1&#45;&gt;Node2 -->
<g id="edge1" class="edge">
<title>Node1&#45;&gt;Node2</title>
<path fill="none" stroke="midnightblue" d="M120.21,-40.19C129.84,-41.52 139.9,-42.92 149.76,-44.28"/>
<polygon fill="midnightblue" stroke="midnightblue" points="149.56,-47.79 159.95,-45.69 150.52,-40.85 149.56,-47.79"/>
</g>
<!-- Node3 -->
<g id="node3" class="node">
<title>Node3</title>
<g id="a_node3"><a xlink:href="a00304.html#a2396849660aa4ff018ab7509a4badeb5" target="_top" xlink:title=" ">
<polygon fill="white" stroke="black" points="156,-0.5 156,-19.5 286,-19.5 286,-0.5 156,-0.5"/>
<text text-anchor="middle" x="221" y="-7.5" font-family="Helvetica,sans-Serif" font-size="10.00">A_CO_DB\execute_query</text>
</a>
</g>
</g>
<!-- Node1&#45;&gt;Node3 -->
<g id="edge2" class="edge">
<title>Node1&#45;&gt;Node3</title>
<path fill="none" stroke="midnightblue" d="M120.21,-23.81C128.58,-22.65 137.28,-21.45 145.9,-20.25"/>
<polygon fill="midnightblue" stroke="midnightblue" points="146.52,-23.7 155.94,-18.86 145.56,-16.77 146.52,-23.7"/>
</g>
<!-- Node4 -->
<g id="node4" class="node">
<title>Node4</title>
<g id="a_node4"><a xlink:href="a00304.html#ae41efbdfe739934823b5f4c785b22611" target="_top" xlink:title=" ">
<polygon fill="white" stroke="black" points="322,-0.5 322,-19.5 457,-19.5 457,-0.5 322,-0.5"/>
<text text-anchor="middle" x="389.5" y="-7.5" font-family="Helvetica,sans-Serif" font-size="10.00">A_CO_DB\_execute_query</text>
</a>
</g>
</g>
<!-- Node3&#45;&gt;Node4 -->
<g id="edge3" class="edge">
<title>Node3&#45;&gt;Node4</title>
<path fill="none" stroke="midnightblue" d="M286.37,-10C294.64,-10 303.16,-10 311.6,-10"/>
<polygon fill="midnightblue" stroke="midnightblue" points="311.82,-13.5 321.82,-10 311.82,-6.5 311.82,-13.5"/>
</g>
</g>
</svg>
