<?xml version="1.0" encoding="UTF-8" standalone="no"?>
<!DOCTYPE svg PUBLIC "-//W3C//DTD SVG 1.1//EN"
 "http://www.w3.org/Graphics/SVG/1.1/DTD/svg11.dtd">
<!-- Generated by graphviz version 2.40.1 (20161225.0304)
 -->
<!-- Title: CO_Security_DB\get_initial_record_by_id Pages: 1 -->
<svg width="457pt" height="74pt"
 viewBox="0.00 0.00 456.51 74.00" xmlns="http://www.w3.org/2000/svg" xmlns:xlink="http://www.w3.org/1999/xlink">
<g id="graph0" class="graph" transform="scale(1 1) rotate(0) translate(4 70)">
<title>CO_Security_DB\get_initial_record_by_id</title>
<polygon fill="#ffffff" stroke="transparent" points="-4,4 -4,-70 452.5059,-70 452.5059,4 -4,4"/>
<!-- Node1 -->
<g id="node1" class="node">
<title>Node1</title>
<g id="a_node1"><a xlink:title=" ">
<polygon fill="#bfbfbf" stroke="#000000" points="0,-16.5 0,-44.5 108.8174,-44.5 108.8174,-16.5 0,-16.5"/>
<text text-anchor="start" x="8" y="-32.5" font-family="Helvetica,sans-Serif" font-size="10.00" fill="#000000">CO_Security_DB\get</text>
<text text-anchor="middle" x="54.4087" y="-22.5" font-family="Helvetica,sans-Serif" font-size="10.00" fill="#000000">_initial_record_by_id</text>
</a>
</g>
</g>
<!-- Node2 -->
<g id="node2" class="node">
<title>Node2</title>
<g id="a_node2"><a xlink:href="a00307.html#a523e2f40174a0bca0fc873d6286b3ae9" target="_top" xlink:title=" ">
<polygon fill="#ffffff" stroke="#000000" points="152.0439,-37.5 152.0439,-65.5 268.6543,-65.5 268.6543,-37.5 152.0439,-37.5"/>
<text text-anchor="start" x="160.0439" y="-53.5" font-family="Helvetica,sans-Serif" font-size="10.00" fill="#000000">A_CO_DB\_instantiate</text>
<text text-anchor="middle" x="210.3491" y="-43.5" font-family="Helvetica,sans-Serif" font-size="10.00" fill="#000000">_record</text>
</a>
</g>
</g>
<!-- Node1&#45;&gt;Node2 -->
<g id="edge1" class="edge">
<title>Node1&#45;&gt;Node2</title>
<path fill="none" stroke="#191970" d="M108.9491,-37.8448C119.5737,-39.2756 130.8382,-40.7925 141.8471,-42.2751"/>
<polygon fill="#191970" stroke="#191970" points="141.4821,-45.7574 151.8598,-43.6234 142.4164,-38.82 141.4821,-45.7574"/>
</g>
<!-- Node3 -->
<g id="node3" class="node">
<title>Node3</title>
<g id="a_node3"><a xlink:href="a00307.html#a2396849660aa4ff018ab7509a4badeb5" target="_top" xlink:title=" ">
<polygon fill="#ffffff" stroke="#000000" points="144.8174,-.5 144.8174,-18.5 275.8809,-18.5 275.8809,-.5 144.8174,-.5"/>
<text text-anchor="middle" x="210.3491" y="-6.5" font-family="Helvetica,sans-Serif" font-size="10.00" fill="#000000">A_CO_DB\execute_query</text>
</a>
</g>
</g>
<!-- Node1&#45;&gt;Node3 -->
<g id="edge2" class="edge">
<title>Node1&#45;&gt;Node3</title>
<path fill="none" stroke="#191970" d="M108.9491,-23.1552C117.2188,-22.0416 125.8761,-20.8757 134.4989,-19.7145"/>
<polygon fill="#191970" stroke="#191970" points="135.1367,-23.1603 144.5801,-18.3569 134.2024,-16.2229 135.1367,-23.1603"/>
</g>
<!-- Node4 -->
<g id="node4" class="node">
<title>Node4</title>
<g id="a_node4"><a xlink:href="a00307.html#ae41efbdfe739934823b5f4c785b22611" target="_top" xlink:title=" ">
<polygon fill="#ffffff" stroke="#000000" points="311.8809,-.5 311.8809,-18.5 448.5059,-18.5 448.5059,-.5 311.8809,-.5"/>
<text text-anchor="middle" x="380.1934" y="-6.5" font-family="Helvetica,sans-Serif" font-size="10.00" fill="#000000">A_CO_DB\_execute_query</text>
</a>
</g>
</g>
<!-- Node3&#45;&gt;Node4 -->
<g id="edge3" class="edge">
<title>Node3&#45;&gt;Node4</title>
<path fill="none" stroke="#191970" d="M276.0153,-9.5C284.3109,-9.5 292.8653,-9.5 301.3386,-9.5"/>
<polygon fill="#191970" stroke="#191970" points="301.6113,-13.0001 311.6113,-9.5 301.6113,-6.0001 301.6113,-13.0001"/>
</g>
</g>
</svg>
