<?xml version="1.0" encoding="UTF-8" standalone="no"?>
<!DOCTYPE svg PUBLIC "-//W3C//DTD SVG 1.1//EN"
 "http://www.w3.org/Graphics/SVG/1.1/DTD/svg11.dtd">
<!-- Generated by graphviz version 2.40.1 (20161225.0304)
 -->
<!-- Title: A_CO_DB_Table_Base\set_lang Pages: 1 -->
<svg width="770pt" height="126pt"
 viewBox="0.00 0.00 769.54 126.00" xmlns="http://www.w3.org/2000/svg" xmlns:xlink="http://www.w3.org/1999/xlink">
<g id="graph0" class="graph" transform="scale(1 1) rotate(0) translate(4 122)">
<title>A_CO_DB_Table_Base\set_lang</title>
<polygon fill="#ffffff" stroke="transparent" points="-4,4 -4,-122 765.5391,-122 765.5391,4 -4,4"/>
<!-- Node1 -->
<g id="node1" class="node">
<title>Node1</title>
<g id="a_node1"><a xlink:title=" ">
<polygon fill="#bfbfbf" stroke="#000000" points="0,-21.5 0,-49.5 120.5068,-49.5 120.5068,-21.5 0,-21.5"/>
<text text-anchor="start" x="8" y="-37.5" font-family="Helvetica,sans-Serif" font-size="10.00" fill="#000000">A_CO_DB_Table_Base</text>
<text text-anchor="middle" x="60.2534" y="-27.5" font-family="Helvetica,sans-Serif" font-size="10.00" fill="#000000">\set_lang</text>
</a>
</g>
</g>
<!-- Node2 -->
<g id="node2" class="node">
<title>Node2</title>
<g id="a_node2"><a xlink:href="a00311.html#a7487697640051c6661b8cdca6f109959" target="_top" xlink:title=" ">
<polygon fill="#ffffff" stroke="#000000" points="156.5068,-43.5 156.5068,-71.5 277.0137,-71.5 277.0137,-43.5 156.5068,-43.5"/>
<text text-anchor="start" x="164.5068" y="-59.5" font-family="Helvetica,sans-Serif" font-size="10.00" fill="#000000">A_CO_DB_Table_Base</text>
<text text-anchor="middle" x="216.7603" y="-49.5" font-family="Helvetica,sans-Serif" font-size="10.00" fill="#000000">\update_db</text>
</a>
</g>
</g>
<!-- Node1&#45;&gt;Node2 -->
<g id="edge1" class="edge">
<title>Node1&#45;&gt;Node2</title>
<path fill="none" stroke="#191970" d="M120.763,-44.0058C129.1713,-45.1877 137.868,-46.4102 146.4366,-47.6147"/>
<polygon fill="#191970" stroke="#191970" points="146.0217,-51.0907 156.4115,-49.0168 146.9961,-44.1588 146.0217,-51.0907"/>
</g>
<!-- Node8 -->
<g id="node8" class="node">
<title>Node8</title>
<g id="a_node8"><a xlink:href="a00311.html#a7d2537d7675ca572ad78096784fe4fe4" target="_top" xlink:title=" ">
<polygon fill="#ffffff" stroke="#000000" points="313.0137,-.5 313.0137,-28.5 433.5205,-28.5 433.5205,-.5 313.0137,-.5"/>
<text text-anchor="start" x="321.0137" y="-16.5" font-family="Helvetica,sans-Serif" font-size="10.00" fill="#000000">A_CO_DB_Table_Base</text>
<text text-anchor="middle" x="373.2671" y="-6.5" font-family="Helvetica,sans-Serif" font-size="10.00" fill="#000000">\user_can_write</text>
</a>
</g>
</g>
<!-- Node1&#45;&gt;Node8 -->
<g id="edge10" class="edge">
<title>Node1&#45;&gt;Node8</title>
<path fill="none" stroke="#191970" d="M120.6056,-31.451C172.7019,-27.9559 248.0056,-22.9038 302.8429,-19.2247"/>
<polygon fill="#191970" stroke="#191970" points="303.0905,-22.7161 312.8338,-18.5545 302.6219,-15.7318 303.0905,-22.7161"/>
</g>
<!-- Node3 -->
<g id="node3" class="node">
<title>Node3</title>
<g id="a_node3"><a xlink:href="a00311.html#adda14b544e11934db3bf8130aeea0610" target="_top" xlink:title=" ">
<polygon fill="#ffffff" stroke="#000000" points="313.0137,-47.5 313.0137,-75.5 433.5205,-75.5 433.5205,-47.5 313.0137,-47.5"/>
<text text-anchor="start" x="321.0137" y="-63.5" font-family="Helvetica,sans-Serif" font-size="10.00" fill="#000000">A_CO_DB_Table_Base</text>
<text text-anchor="middle" x="373.2671" y="-53.5" font-family="Helvetica,sans-Serif" font-size="10.00" fill="#000000">\_write_to_db</text>
</a>
</g>
</g>
<!-- Node2&#45;&gt;Node3 -->
<g id="edge2" class="edge">
<title>Node2&#45;&gt;Node3</title>
<path fill="none" stroke="#191970" d="M277.2699,-59.0465C285.5867,-59.2591 294.1858,-59.4788 302.664,-59.6955"/>
<polygon fill="#191970" stroke="#191970" points="302.8322,-63.2009 312.9184,-59.9576 303.0111,-56.2032 302.8322,-63.2009"/>
</g>
<!-- Node2&#45;&gt;Node8 -->
<g id="edge8" class="edge">
<title>Node2&#45;&gt;Node8</title>
<path fill="none" stroke="#191970" d="M268.0064,-43.4202C282.1309,-39.5395 297.5934,-35.2912 312.2132,-31.2745"/>
<polygon fill="#191970" stroke="#191970" points="313.4578,-34.5623 322.1732,-28.538 311.6032,-27.8124 313.4578,-34.5623"/>
</g>
<!-- Node4 -->
<g id="node4" class="node">
<title>Node4</title>
<g id="a_node4"><a xlink:href="a00311.html#a6109c37c5e61ab04ea710b1ebb7615a5" target="_top" xlink:title=" ">
<polygon fill="#ffffff" stroke="#000000" points="469.5205,-89.5 469.5205,-117.5 594.4707,-117.5 594.4707,-89.5 469.5205,-89.5"/>
<text text-anchor="start" x="477.5205" y="-105.5" font-family="Helvetica,sans-Serif" font-size="10.00" fill="#000000">A_CO_DB_Table_Base</text>
<text text-anchor="middle" x="531.9956" y="-95.5" font-family="Helvetica,sans-Serif" font-size="10.00" fill="#000000">\_build_parameter_array</text>
</a>
</g>
</g>
<!-- Node3&#45;&gt;Node4 -->
<g id="edge3" class="edge">
<title>Node3&#45;&gt;Node4</title>
<path fill="none" stroke="#191970" d="M426.563,-75.6022C440.1153,-79.1882 454.8086,-83.0761 468.8015,-86.7787"/>
<polygon fill="#191970" stroke="#191970" points="468.2778,-90.2605 478.8404,-89.435 470.0684,-83.4934 468.2778,-90.2605"/>
</g>
<!-- Node6 -->
<g id="node6" class="node">
<title>Node6</title>
<g id="a_node6"><a xlink:href="a00311.html#a78affe18a811930d4012fd265e95cdca" target="_top" xlink:title=" ">
<polygon fill="#ffffff" stroke="#000000" points="630.4707,-52.5 630.4707,-70.5 761.5391,-70.5 761.5391,-52.5 630.4707,-52.5"/>
<text text-anchor="middle" x="696.0049" y="-58.5" font-family="Helvetica,sans-Serif" font-size="10.00" fill="#000000">A_CO_DB_Table_Base\id</text>
</a>
</g>
</g>
<!-- Node3&#45;&gt;Node6 -->
<g id="edge7" class="edge">
<title>Node3&#45;&gt;Node6</title>
<path fill="none" stroke="#191970" d="M433.593,-61.5C486.4312,-61.5 563.4543,-61.5 620.3961,-61.5"/>
<polygon fill="#191970" stroke="#191970" points="620.426,-65.0001 630.426,-61.5 620.4259,-58.0001 620.426,-65.0001"/>
</g>
<!-- Node7 -->
<g id="node7" class="node">
<title>Node7</title>
<g id="a_node7"><a xlink:href="a00311.html#a8780b40e55827b90bb441671faec2a05" target="_top" xlink:title=" ">
<polygon fill="#ffffff" stroke="#000000" points="471.7422,-2.5 471.7422,-30.5 592.249,-30.5 592.249,-2.5 471.7422,-2.5"/>
<text text-anchor="start" x="479.7422" y="-18.5" font-family="Helvetica,sans-Serif" font-size="10.00" fill="#000000">A_CO_DB_Table_Base</text>
<text text-anchor="middle" x="531.9956" y="-8.5" font-family="Helvetica,sans-Serif" font-size="10.00" fill="#000000">\get_access_object</text>
</a>
</g>
</g>
<!-- Node3&#45;&gt;Node7 -->
<g id="edge6" class="edge">
<title>Node3&#45;&gt;Node7</title>
<path fill="none" stroke="#191970" d="M423.0543,-47.3852C438.7149,-42.9454 456.1684,-37.9972 472.4361,-33.3853"/>
<polygon fill="#191970" stroke="#191970" points="473.7189,-36.6596 482.3851,-30.5647 471.8096,-29.925 473.7189,-36.6596"/>
</g>
<!-- Node5 -->
<g id="node5" class="node">
<title>Node5</title>
<g id="a_node5"><a xlink:href="a00311.html#afb32d1e32b8e1c1de2e008c9b88f7846" target="_top" xlink:title=" ">
<polygon fill="#ffffff" stroke="#000000" points="635.7515,-89.5 635.7515,-117.5 756.2583,-117.5 756.2583,-89.5 635.7515,-89.5"/>
<text text-anchor="start" x="643.7515" y="-105.5" font-family="Helvetica,sans-Serif" font-size="10.00" fill="#000000">A_CO_DB_Table_Base</text>
<text text-anchor="middle" x="696.0049" y="-95.5" font-family="Helvetica,sans-Serif" font-size="10.00" fill="#000000">\_badger_serialize</text>
</a>
</g>
</g>
<!-- Node4&#45;&gt;Node5 -->
<g id="edge4" class="edge">
<title>Node4&#45;&gt;Node5</title>
<path fill="none" stroke="#191970" d="M594.9368,-103.5C604.964,-103.5 615.3937,-103.5 625.5802,-103.5"/>
<polygon fill="#191970" stroke="#191970" points="625.6617,-107.0001 635.6617,-103.5 625.6616,-100.0001 625.6617,-107.0001"/>
</g>
<!-- Node4&#45;&gt;Node6 -->
<g id="edge5" class="edge">
<title>Node4&#45;&gt;Node6</title>
<path fill="none" stroke="#191970" d="M587.0646,-89.3978C607.6685,-84.1214 630.8245,-78.1916 650.4725,-73.1601"/>
<polygon fill="#191970" stroke="#191970" points="651.5761,-76.4905 660.3952,-70.619 649.8395,-69.7093 651.5761,-76.4905"/>
</g>
<!-- Node8&#45;&gt;Node7 -->
<g id="edge9" class="edge">
<title>Node8&#45;&gt;Node7</title>
<path fill="none" stroke="#191970" d="M433.7283,-15.2618C442.8645,-15.3769 452.3555,-15.4965 461.6778,-15.614"/>
<polygon fill="#191970" stroke="#191970" points="461.6591,-19.1139 471.7025,-15.7403 461.7474,-12.1145 461.6591,-19.1139"/>
</g>
</g>
</svg>
