<?xml version="1.0" encoding="UTF-8" standalone="no"?>
<!DOCTYPE svg PUBLIC "-//W3C//DTD SVG 1.1//EN"
 "http://www.w3.org/Graphics/SVG/1.1/DTD/svg11.dtd">
<!-- Generated by graphviz version 2.40.1 (20161225.0304)
 -->
<!-- Title: CO_Main_Data_DB\get_accurate_distance Pages: 1 -->
<svg width="278pt" height="37pt"
 viewBox="0.00 0.00 277.78 37.00" xmlns="http://www.w3.org/2000/svg" xmlns:xlink="http://www.w3.org/1999/xlink">
<g id="graph0" class="graph" transform="scale(1 1) rotate(0) translate(4 33)">
<title>CO_Main_Data_DB\get_accurate_distance</title>
<polygon fill="#ffffff" stroke="transparent" points="-4,4 -4,-33 273.7773,-33 273.7773,4 -4,4"/>
<!-- Node57 -->
<g id="node1" class="node">
<title>Node57</title>
<polygon fill="#bfbfbf" stroke="#000000" points="0,-.5 0,-28.5 121.0537,-28.5 121.0537,-.5 0,-.5"/>
<text text-anchor="start" x="8" y="-16.5" font-family="Helvetica,sans-Serif" font-size="10.00" fill="#000000">CO_Main_Data_DB\get</text>
<text text-anchor="middle" x="60.5269" y="-6.5" font-family="Helvetica,sans-Serif" font-size="10.00" fill="#000000">_accurate_distance</text>
</g>
<!-- Node58 -->
<g id="node2" class="node">
<title>Node58</title>
<g id="a_node2"><a xlink:href="a00335.html#a7d74a483ed93d6650b54e57654e2a0c0" target="_top" xlink:title="CO_LL_Location\\_km\l_per_degree">
<polygon fill="#ffffff" stroke="#000000" points="157.0537,-.5 157.0537,-28.5 269.7773,-28.5 269.7773,-.5 157.0537,-.5"/>
<text text-anchor="start" x="165.0537" y="-16.5" font-family="Helvetica,sans-Serif" font-size="10.00" fill="#000000">CO_LL_Location\_km</text>
<text text-anchor="middle" x="213.4155" y="-6.5" font-family="Helvetica,sans-Serif" font-size="10.00" fill="#000000">_per_degree</text>
</a>
</g>
</g>
<!-- Node57&#45;&gt;Node58 -->
<g id="edge1" class="edge">
<title>Node57&#45;&gt;Node58</title>
<path fill="none" stroke="#191970" d="M131.6005,-14.5C140.0281,-14.5 148.5431,-14.5 156.7332,-14.5"/>
<polygon fill="#191970" stroke="#191970" points="131.3918,-11.0001 121.3918,-14.5 131.3918,-18.0001 131.3918,-11.0001"/>
</g>
</g>
</svg>
