<?xml version="1.0" encoding="UTF-8" standalone="no"?>
<!DOCTYPE svg PUBLIC "-//W3C//DTD SVG 1.1//EN"
 "http://www.w3.org/Graphics/SVG/1.1/DTD/svg11.dtd">
<!-- Generated by graphviz version 2.47.1 (20210417.1919)
 -->
<!-- Title: CO_LL_Location\_km_per_degree Pages: 1 -->
<svg width="275pt" height="39pt"
 viewBox="0.00 0.00 275.00 39.00" xmlns="http://www.w3.org/2000/svg" xmlns:xlink="http://www.w3.org/1999/xlink">
<g id="graph0" class="graph" transform="scale(1 1) rotate(0) translate(4 35)">
<title>CO_LL_Location\_km_per_degree</title>
<polygon fill="white" stroke="transparent" points="-4,4 -4,-35 271,-35 271,4 -4,4"/>
<!-- Node1 -->
<g id="node1" class="node">
<title>Node1</title>
<g id="a_node1"><a xlink:title=" ">
<polygon fill="#bfbfbf" stroke="black" points="0,-0.5 0,-30.5 111,-30.5 111,-0.5 0,-0.5"/>
<text text-anchor="start" x="8" y="-18.5" font-family="Helvetica,sans-Serif" font-size="10.00">CO_LL_Location\_km</text>
<text text-anchor="middle" x="55.5" y="-7.5" font-family="Helvetica,sans-Serif" font-size="10.00">_per_degree</text>
</a>
</g>
</g>
<!-- Node2 -->
<g id="node2" class="node">
<title>Node2</title>
<g id="a_node2"><a xlink:href="a00312.html#ae11526b802f2277322e001bc2d45094b" target="_top" xlink:title="Uses the Vincenty calculation to determine the distance (in Kilometers) between the two given lat/lon...">
<polygon fill="white" stroke="black" points="147,-0.5 147,-30.5 267,-30.5 267,-0.5 147,-0.5"/>
<text text-anchor="start" x="155" y="-18.5" font-family="Helvetica,sans-Serif" font-size="10.00">CO_Main_Data_DB\get</text>
<text text-anchor="middle" x="207" y="-7.5" font-family="Helvetica,sans-Serif" font-size="10.00">_accurate_distance</text>
</a>
</g>
</g>
<!-- Node1&#45;&gt;Node2 -->
<g id="edge1" class="edge">
<title>Node1&#45;&gt;Node2</title>
<path fill="none" stroke="midnightblue" d="M111.32,-15.5C119.65,-15.5 128.33,-15.5 136.91,-15.5"/>
<polygon fill="midnightblue" stroke="midnightblue" points="136.91,-19 146.91,-15.5 136.91,-12 136.91,-19"/>
</g>
</g>
</svg>
