<?xml version="1.0" encoding="UTF-8" standalone="no"?>
<!DOCTYPE svg PUBLIC "-//W3C//DTD SVG 1.1//EN"
 "http://www.w3.org/Graphics/SVG/1.1/DTD/svg11.dtd">
<!-- Generated by graphviz version 2.40.1 (20161225.0304)
 -->
<!-- Title: A_CO_DB_Table_Base\update_db Pages: 1 -->
<!--zoomable 645 -->
<svg id="main" version="1.1" xmlns="http://www.w3.org/2000/svg" xmlns:xlink="http://www.w3.org/1999/xlink" xml:space="preserve" onload="init(evt)">
<style type="text/css"><![CDATA[
.edge:hover path { stroke: red; }
.edge:hover polygon { stroke: red; fill: red; }
]]></style>
<script type="text/javascript"><![CDATA[
var edges = document.getElementsByTagName('g');
if (edges && edges.length) {
  for (var i=0;i<edges.length;i++) {
    if (edges[i].id.substr(0,4)=='edge') {
      edges[i].setAttribute('class','edge');
    }
  }
}
]]></script>
        <defs>
                <circle id="rim" cx="0" cy="0" r="7"/>
                <circle id="rim2" cx="0" cy="0" r="3.5"/>
                <g id="zoomPlus">
                        <use xlink:href="#rim" fill="#404040">
                                <set attributeName="fill" to="#808080" begin="zoomplus.mouseover" end="zoomplus.mouseout"/>
                        </use>
                        <path d="M-4,0h8M0,-4v8" fill="none" stroke="white" stroke-width="1.5" pointer-events="none"/>
                </g>
                <g id="zoomMin">
                        <use xlink:href="#rim" fill="#404040">
                                <set attributeName="fill" to="#808080" begin="zoomminus.mouseover" end="zoomminus.mouseout"/>
                        </use>
                        <path d="M-4,0h8" fill="none" stroke="white" stroke-width="1.5" pointer-events="none"/>
                </g>
                <g id="dirArrow">
                        <path fill="none" stroke="white" stroke-width="1.5" d="M0,-3.0v7 M-2.5,-0.5L0,-3.0L2.5,-0.5"/>
                </g>
               <g id="resetDef">
                       <use xlink:href="#rim2" fill="#404040">
                               <set attributeName="fill" to="#808080" begin="reset.mouseover" end="reset.mouseout"/>
                       </use>
               </g>
        </defs>

<script type="text/javascript">
var viewWidth = 509;
var viewHeight = 645;
var sectionId = 'dynsection-24';
</script>
<script xlink:href="svgpan.js"/>
<svg id="graph" class="graph">
<g id="viewport">
<title>A_CO_DB_Table_Base\update_db</title>
<polygon fill="#ffffff" stroke="transparent" points="-4,4 -4,-641 504.7568,-641 504.7568,4 -4,4"/>
<!-- Node1 -->
<g id="node1" class="node">
<title>Node1</title>
<g id="a_node1"><a xlink:title=" ">
<polygon fill="#bfbfbf" stroke="#000000" points="380.25,-309.5 380.25,-337.5 500.7568,-337.5 500.7568,-309.5 380.25,-309.5"/>
<text text-anchor="start" x="388.25" y="-325.5" font-family="Helvetica,sans-Serif" font-size="10.00" fill="#000000">A_CO_DB_Table_Base</text>
<text text-anchor="middle" x="440.5034" y="-315.5" font-family="Helvetica,sans-Serif" font-size="10.00" fill="#000000">\update_db</text>
</a>
</g>
</g>
<!-- Node2 -->
<g id="node2" class="node">
<title>Node2</title>
<g id="a_node2"><a xlink:href="a00340.html#a0d11bc2cb9f23f091615dd5918dd2abb" target="_top" xlink:title=" ">
<polygon fill="#ffffff" stroke="#000000" points="198.4551,-618.5 198.4551,-636.5 333.9766,-636.5 333.9766,-618.5 198.4551,-618.5"/>
<text text-anchor="middle" x="266.2158" y="-624.5" font-family="Helvetica,sans-Serif" font-size="10.00" fill="#000000">CO_Security_Login\add_id</text>
</a>
</g>
</g>
<!-- Node1&#45;&gt;Node2 -->
<g id="edge1" class="edge">
<title>Node1&#45;&gt;Node2</title>
<path fill="none" stroke="#191970" d="M435.5215,-347.7083C422.2384,-409.955 384.2523,-573.2355 344.25,-609.5 340.2328,-613.1419 335.6285,-616.0919 330.7092,-618.4763"/>
<polygon fill="#191970" stroke="#191970" points="439.0063,-348.1448 437.6421,-337.6381 432.1565,-346.7023 439.0063,-348.1448"/>
</g>
<!-- Node3 -->
<g id="node3" class="node">
<title>Node3</title>
<g id="a_node3"><a xlink:href="a00340.html#a59e2e5be376349924698305603bfb51f" target="_top" xlink:title=" ">
<polygon fill="#ffffff" stroke="#000000" points="202.6323,-571.5 202.6323,-599.5 329.7993,-599.5 329.7993,-571.5 202.6323,-571.5"/>
<text text-anchor="start" x="210.6323" y="-587.5" font-family="Helvetica,sans-Serif" font-size="10.00" fill="#000000">CO_Security_Login\clear</text>
<text text-anchor="middle" x="266.2158" y="-577.5" font-family="Helvetica,sans-Serif" font-size="10.00" fill="#000000">_api_key</text>
</a>
</g>
</g>
<!-- Node1&#45;&gt;Node3 -->
<g id="edge2" class="edge">
<title>Node1&#45;&gt;Node3</title>
<path fill="none" stroke="#191970" d="M437.6932,-347.8847C430.8314,-396.0772 408.7657,-503.9123 344.25,-562.5 339.9631,-566.393 335.0478,-569.629 329.8153,-572.3185"/>
<polygon fill="#191970" stroke="#191970" points="441.1908,-348.1327 439.0328,-337.76 434.2513,-347.2145 441.1908,-348.1327"/>
</g>
<!-- Node4 -->
<g id="node4" class="node">
<title>Node4</title>
<g id="a_node4"><a xlink:href="a00308.html#ab976e4ab55890095fc60406326b5de80" target="_top" xlink:title=" ">
<polygon fill="#ffffff" stroke="#000000" points="205.9624,-524.5 205.9624,-552.5 326.4692,-552.5 326.4692,-524.5 205.9624,-524.5"/>
<text text-anchor="start" x="213.9624" y="-540.5" font-family="Helvetica,sans-Serif" font-size="10.00" fill="#000000">A_CO_DB_Table_Base</text>
<text text-anchor="middle" x="266.2158" y="-530.5" font-family="Helvetica,sans-Serif" font-size="10.00" fill="#000000">\clear_batch_mode</text>
</a>
</g>
</g>
<!-- Node1&#45;&gt;Node4 -->
<g id="edge3" class="edge">
<title>Node1&#45;&gt;Node4</title>
<path fill="none" stroke="#191970" d="M435.0752,-347.6051C424.6524,-388.3073 397.9511,-470.6014 344.25,-515.5 339.0489,-519.8485 333.0549,-523.3749 326.7481,-526.2347"/>
<polygon fill="#191970" stroke="#191970" points="438.5104,-348.2915 437.487,-337.7462 431.7109,-346.628 438.5104,-348.2915"/>
</g>
<!-- Node5 -->
<g id="node5" class="node">
<title>Node5</title>
<g id="a_node5"><a xlink:href="a00340.html#a1a141bb2d1d8b67737119e0729c7d159" target="_top" xlink:title=" ">
<polygon fill="#ffffff" stroke="#000000" points="197.6274,-487.5 197.6274,-505.5 334.8042,-505.5 334.8042,-487.5 197.6274,-487.5"/>
<text text-anchor="middle" x="266.2158" y="-493.5" font-family="Helvetica,sans-Serif" font-size="10.00" fill="#000000">CO_Security_Login\set_ids</text>
</a>
</g>
</g>
<!-- Node1&#45;&gt;Node5 -->
<g id="edge4" class="edge">
<title>Node1&#45;&gt;Node5</title>
<path fill="none" stroke="#191970" d="M432.4266,-347.4033C419.4813,-381.9341 390.7139,-445.2662 344.25,-478.5 339.1612,-482.1398 333.4503,-485.0562 327.4931,-487.391"/>
<polygon fill="#191970" stroke="#191970" points="435.8344,-348.2711 435.9382,-337.6768 429.2503,-345.894 435.8344,-348.2711"/>
</g>
<!-- Node7 -->
<g id="node7" class="node">
<title>Node7</title>
<g id="a_node7"><a xlink:href="a00308.html#a1ed093545fa1cbc3f63a672cdf424734" target="_top" xlink:title=" ">
<polygon fill="#ffffff" stroke="#000000" points="205.9624,-440.5 205.9624,-468.5 326.4692,-468.5 326.4692,-440.5 205.9624,-440.5"/>
<text text-anchor="start" x="213.9624" y="-456.5" font-family="Helvetica,sans-Serif" font-size="10.00" fill="#000000">A_CO_DB_Table_Base</text>
<text text-anchor="middle" x="266.2158" y="-446.5" font-family="Helvetica,sans-Serif" font-size="10.00" fill="#000000">\set_lang</text>
</a>
</g>
</g>
<!-- Node1&#45;&gt;Node7 -->
<g id="edge6" class="edge">
<title>Node1&#45;&gt;Node7</title>
<path fill="none" stroke="#191970" d="M426.133,-346.0385C409.3607,-370.5605 379.3959,-409.2327 344.25,-431.5 338.7618,-434.9771 332.7264,-437.9473 326.5177,-440.4804"/>
<polygon fill="#191970" stroke="#191970" points="429.0579,-347.9608 431.7006,-337.7008 423.2365,-344.0735 429.0579,-347.9608"/>
</g>
<!-- Node8 -->
<g id="node8" class="node">
<title>Node8</title>
<g id="a_node8"><a xlink:href="a00340.html#a061f896c69dc8a8dd3d9ee793b91ddc7" target="_top" xlink:title=" ">
<polygon fill="#ffffff" stroke="#000000" points="194.5659,-403.5 194.5659,-421.5 337.8657,-421.5 337.8657,-403.5 194.5659,-403.5"/>
<text text-anchor="middle" x="266.2158" y="-409.5" font-family="Helvetica,sans-Serif" font-size="10.00" fill="#000000">CO_Security_Login\set_lang</text>
</a>
</g>
</g>
<!-- Node1&#45;&gt;Node8 -->
<g id="edge7" class="edge">
<title>Node1&#45;&gt;Node8</title>
<path fill="none" stroke="#191970" d="M417.8478,-344.431C399.3559,-360.4188 371.8577,-381.801 344.25,-394.5 336.2924,-398.1603 327.5255,-401.1092 318.8295,-403.4752"/>
<polygon fill="#191970" stroke="#191970" points="420.2551,-346.9745 425.4367,-337.7332 415.6231,-341.7262 420.2551,-346.9745"/>
</g>
<!-- Node9 -->
<g id="node9" class="node">
<title>Node9</title>
<g id="a_node9"><a xlink:href="a00308.html#a92a9b9a122e9471b82dd79432bf3c929" target="_top" xlink:title=" ">
<polygon fill="#ffffff" stroke="#000000" points="205.9624,-356.5 205.9624,-384.5 326.4692,-384.5 326.4692,-356.5 205.9624,-356.5"/>
<text text-anchor="start" x="213.9624" y="-372.5" font-family="Helvetica,sans-Serif" font-size="10.00" fill="#000000">A_CO_DB_Table_Base</text>
<text text-anchor="middle" x="266.2158" y="-362.5" font-family="Helvetica,sans-Serif" font-size="10.00" fill="#000000">\set_name</text>
</a>
</g>
</g>
<!-- Node1&#45;&gt;Node9 -->
<g id="edge8" class="edge">
<title>Node1&#45;&gt;Node9</title>
<path fill="none" stroke="#191970" d="M378.3995,-340.2475C358.682,-345.5647 337.0956,-351.3859 318.1704,-356.4894"/>
<polygon fill="#191970" stroke="#191970" points="379.4676,-343.5846 388.2114,-337.6015 377.645,-336.826 379.4676,-343.5846"/>
</g>
<!-- Node10 -->
<g id="node10" class="node">
<title>Node10</title>
<g id="a_node10"><a xlink:href="a00316.html#a6349c04b5a027e23f0b8bd8810579844" target="_top" xlink:title=" ">
<polygon fill="#ffffff" stroke="#000000" points="200.4131,-309.5 200.4131,-337.5 332.0186,-337.5 332.0186,-309.5 200.4131,-309.5"/>
<text text-anchor="start" x="208.4131" y="-325.5" font-family="Helvetica,sans-Serif" font-size="10.00" fill="#000000">CO_Main_DB_Record\set</text>
<text text-anchor="middle" x="266.2158" y="-315.5" font-family="Helvetica,sans-Serif" font-size="10.00" fill="#000000">_owner_id</text>
</a>
</g>
</g>
<!-- Node1&#45;&gt;Node10 -->
<g id="edge9" class="edge">
<title>Node1&#45;&gt;Node10</title>
<path fill="none" stroke="#191970" d="M369.7512,-323.5C357.3522,-323.5 344.4939,-323.5 332.2298,-323.5"/>
<polygon fill="#191970" stroke="#191970" points="370.0352,-327.0001 380.0352,-323.5 370.0352,-320.0001 370.0352,-327.0001"/>
</g>
<!-- Node11 -->
<g id="node11" class="node">
<title>Node11</title>
<g id="a_node11"><a xlink:href="a00340.html#ac4f0c16cb8cf1e2151451bf4d5cb2238" target="_top" xlink:title=" ">
<polygon fill="#ffffff" stroke="#000000" points="199.5781,-262.5 199.5781,-290.5 332.8535,-290.5 332.8535,-262.5 199.5781,-262.5"/>
<text text-anchor="start" x="207.5781" y="-278.5" font-family="Helvetica,sans-Serif" font-size="10.00" fill="#000000">CO_Security_Login\set</text>
<text text-anchor="middle" x="266.2158" y="-268.5" font-family="Helvetica,sans-Serif" font-size="10.00" fill="#000000">_password_from_cleartext</text>
</a>
</g>
</g>
<!-- Node1&#45;&gt;Node11 -->
<g id="edge10" class="edge">
<title>Node1&#45;&gt;Node11</title>
<path fill="none" stroke="#191970" d="M378.3995,-306.7525C358.682,-301.4353 337.0956,-295.6141 318.1704,-290.5106"/>
<polygon fill="#191970" stroke="#191970" points="377.645,-310.174 388.2114,-309.3985 379.4676,-303.4154 377.645,-310.174"/>
</g>
<!-- Node12 -->
<g id="node12" class="node">
<title>Node12</title>
<g id="a_node12"><a xlink:href="a00316.html#a7860101403a734329dd8c1079f5d367e" target="_top" xlink:title=" ">
<polygon fill="#ffffff" stroke="#000000" points="200.4131,-215.5 200.4131,-243.5 332.0186,-243.5 332.0186,-215.5 200.4131,-215.5"/>
<text text-anchor="start" x="208.4131" y="-231.5" font-family="Helvetica,sans-Serif" font-size="10.00" fill="#000000">CO_Main_DB_Record\set</text>
<text text-anchor="middle" x="266.2158" y="-221.5" font-family="Helvetica,sans-Serif" font-size="10.00" fill="#000000">_payload</text>
</a>
</g>
</g>
<!-- Node1&#45;&gt;Node12 -->
<g id="edge11" class="edge">
<title>Node1&#45;&gt;Node12</title>
<path fill="none" stroke="#191970" d="M416.8687,-302.8605C398.2188,-287.4611 370.9748,-266.8601 344.25,-253.5 336.77,-249.7607 328.593,-246.4701 320.4375,-243.6202"/>
<polygon fill="#191970" stroke="#191970" points="414.6455,-305.5639 424.5542,-309.3149 419.1473,-300.2035 414.6455,-305.5639"/>
</g>
<!-- Node13 -->
<g id="node13" class="node">
<title>Node13</title>
<g id="a_node13"><a xlink:href="a00340.html#a8d18fed2a089c920e67802253be3cd68" target="_top" xlink:title=" ">
<polygon fill="#ffffff" stroke="#000000" points="206.7998,-168.5 206.7998,-196.5 325.6318,-196.5 325.6318,-168.5 206.7998,-168.5"/>
<text text-anchor="start" x="214.7998" y="-184.5" font-family="Helvetica,sans-Serif" font-size="10.00" fill="#000000">CO_Security_Login\set</text>
<text text-anchor="middle" x="266.2158" y="-174.5" font-family="Helvetica,sans-Serif" font-size="10.00" fill="#000000">_personal_ids</text>
</a>
</g>
</g>
<!-- Node1&#45;&gt;Node13 -->
<g id="edge12" class="edge">
<title>Node1&#45;&gt;Node13</title>
<path fill="none" stroke="#191970" d="M427.5231,-300.751C411.3207,-274.3422 381.1921,-231.255 344.25,-206.5 338.4804,-202.6338 332.0606,-199.3683 325.4509,-196.6153"/>
<polygon fill="#191970" stroke="#191970" points="424.5237,-302.555 432.6616,-309.3392 430.5306,-298.9609 424.5237,-302.555"/>
</g>
<!-- Node14 -->
<g id="node14" class="node">
<title>Node14</title>
<g id="a_node14"><a xlink:href="a00308.html#a3d4d1ab7910b9ccfdf8654d767e01d9b" target="_top" xlink:title=" ">
<polygon fill="#ffffff" stroke="#000000" points="205.9624,-121.5 205.9624,-149.5 326.4692,-149.5 326.4692,-121.5 205.9624,-121.5"/>
<text text-anchor="start" x="213.9624" y="-137.5" font-family="Helvetica,sans-Serif" font-size="10.00" fill="#000000">A_CO_DB_Table_Base</text>
<text text-anchor="middle" x="266.2158" y="-127.5" font-family="Helvetica,sans-Serif" font-size="10.00" fill="#000000">\set_read_security_id</text>
</a>
</g>
</g>
<!-- Node1&#45;&gt;Node14 -->
<g id="edge13" class="edge">
<title>Node1&#45;&gt;Node14</title>
<path fill="none" stroke="#191970" d="M432.8446,-299.6744C420.1538,-263.9636 391.3834,-196.7815 344.25,-159.5 338.914,-155.2793 332.8356,-151.7977 326.4808,-148.9262"/>
<polygon fill="#191970" stroke="#191970" points="429.5807,-300.9465 436.135,-309.2706 436.2023,-298.676 429.5807,-300.9465"/>
</g>
<!-- Node15 -->
<g id="node15" class="node">
<title>Node15</title>
<g id="a_node15"><a xlink:href="a00316.html#a1f9581fbd4aa2611da866405d446295c" target="_top" xlink:title=" ">
<polygon fill="#ffffff" stroke="#000000" points="190.6816,-84.5 190.6816,-102.5 341.75,-102.5 341.75,-84.5 190.6816,-84.5"/>
<text text-anchor="middle" x="266.2158" y="-90.5" font-family="Helvetica,sans-Serif" font-size="10.00" fill="#000000">CO_Main_DB_Record\set_tag</text>
</a>
</g>
</g>
<!-- Node1&#45;&gt;Node15 -->
<g id="edge14" class="edge">
<title>Node1&#45;&gt;Node15</title>
<path fill="none" stroke="#191970" d="M436.5407,-299.2767C428.0023,-255.1202 403.6105,-161.5749 344.25,-112.5 339.3066,-108.4132 333.6203,-105.1816 327.6175,-102.6299"/>
<polygon fill="#191970" stroke="#191970" points="433.146,-300.1709 438.3816,-309.3817 440.0326,-298.9163 433.146,-300.1709"/>
</g>
<!-- Node16 -->
<g id="node16" class="node">
<title>Node16</title>
<g id="a_node16"><a xlink:href="a00316.html#a84074211704eba98c263bd7122cd13f7" target="_top" xlink:title=" ">
<polygon fill="#ffffff" stroke="#000000" points="188.1816,-47.5 188.1816,-65.5 344.25,-65.5 344.25,-47.5 188.1816,-47.5"/>
<text text-anchor="middle" x="266.2158" y="-53.5" font-family="Helvetica,sans-Serif" font-size="10.00" fill="#000000">CO_Main_DB_Record\set_tags</text>
</a>
</g>
</g>
<!-- Node1&#45;&gt;Node16 -->
<g id="edge15" class="edge">
<title>Node1&#45;&gt;Node16</title>
<path fill="none" stroke="#191970" d="M438.3928,-299.3292C432.7105,-249.5728 412.541,-135.3602 344.25,-75.5 339.5316,-71.3641 334.0608,-68.0951 328.2479,-65.5161"/>
<polygon fill="#191970" stroke="#191970" points="434.9308,-299.8774 439.448,-309.461 441.8932,-299.1522 434.9308,-299.8774"/>
</g>
<!-- Node18 -->
<g id="node18" class="node">
<title>Node18</title>
<g id="a_node18"><a xlink:href="a00308.html#a55eae92ef3e2f47689019e174f29daf1" target="_top" xlink:title=" ">
<polygon fill="#ffffff" stroke="#000000" points="205.9624,-.5 205.9624,-28.5 326.4692,-28.5 326.4692,-.5 205.9624,-.5"/>
<text text-anchor="start" x="213.9624" y="-16.5" font-family="Helvetica,sans-Serif" font-size="10.00" fill="#000000">A_CO_DB_Table_Base</text>
<text text-anchor="middle" x="266.2158" y="-6.5" font-family="Helvetica,sans-Serif" font-size="10.00" fill="#000000">\set_write_security_id</text>
</a>
</g>
</g>
<!-- Node1&#45;&gt;Node18 -->
<g id="edge17" class="edge">
<title>Node1&#45;&gt;Node18</title>
<path fill="none" stroke="#191970" d="M439.4587,-299.1797C435.7838,-244.5935 419.1868,-111.4164 344.25,-38.5 339.1708,-33.5577 333.0989,-29.6305 326.6158,-26.5103"/>
<polygon fill="#191970" stroke="#191970" points="435.9724,-299.518 440.0491,-309.2971 442.9605,-299.1102 435.9724,-299.518"/>
</g>
<!-- Node6 -->
<g id="node6" class="node">
<title>Node6</title>
<g id="a_node6"><a xlink:href="a00340.html#a985325996e8392412a6782569b294176" target="_top" xlink:title=" ">
<polygon fill="#ffffff" stroke="#000000" points="0,-487.5 0,-505.5 152.1816,-505.5 152.1816,-487.5 0,-487.5"/>
<text text-anchor="middle" x="76.0908" y="-493.5" font-family="Helvetica,sans-Serif" font-size="10.00" fill="#000000">CO_Security_Login\remove_id</text>
</a>
</g>
</g>
<!-- Node5&#45;&gt;Node6 -->
<g id="edge5" class="edge">
<title>Node5&#45;&gt;Node6</title>
<path fill="none" stroke="#191970" d="M187.4771,-496.5C175.8662,-496.5 163.9203,-496.5 152.3606,-496.5"/>
<polygon fill="#191970" stroke="#191970" points="187.5764,-500.0001 197.5763,-496.5 187.5763,-493.0001 187.5764,-500.0001"/>
</g>
<!-- Node17 -->
<g id="node17" class="node">
<title>Node17</title>
<g id="a_node17"><a xlink:href="a00260.html#a887a876b0603db0289a8bdc7ab4e66b2" target="_top" xlink:title=" ">
<polygon fill="#ffffff" stroke="#000000" points="12.2314,-42.5 12.2314,-70.5 139.9502,-70.5 139.9502,-42.5 12.2314,-42.5"/>
<text text-anchor="start" x="20.2314" y="-58.5" font-family="Helvetica,sans-Serif" font-size="10.00" fill="#000000">CO_Place\set_tags_from</text>
<text text-anchor="middle" x="76.0908" y="-48.5" font-family="Helvetica,sans-Serif" font-size="10.00" fill="#000000">_address_elements</text>
</a>
</g>
</g>
<!-- Node16&#45;&gt;Node17 -->
<g id="edge16" class="edge">
<title>Node16&#45;&gt;Node17</title>
<path fill="none" stroke="#191970" d="M177.8807,-56.5C165.1204,-56.5 152.1976,-56.5 140.0382,-56.5"/>
<polygon fill="#191970" stroke="#191970" points="178.0617,-60.0001 188.0616,-56.5 178.0616,-53.0001 178.0617,-60.0001"/>
</g>
</g>
</svg>
        <g id="navigator" transform="translate(0 0)" fill="#404254">
                <rect fill="#f2f5e9" fill-opacity="0.5" stroke="#606060" stroke-width=".5" x="0" y="0" width="60" height="60"/>
                <use id="zoomplus" xlink:href="#zoomPlus" x="17" y="9" onmousedown="handleZoom(evt,'in')"/>
                <use id="zoomminus" xlink:href="#zoomMin" x="42" y="9" onmousedown="handleZoom(evt,'out')"/>
                <use id="reset" xlink:href="#resetDef" x="30" y="36" onmousedown="handleReset()"/>
                <g id="arrowUp" xlink:href="#dirArrow" transform="translate(30 24)" onmousedown="handlePan(0,-1)">
                  <use xlink:href="#rim" fill="#404040">
                        <set attributeName="fill" to="#808080" begin="arrowUp.mouseover" end="arrowUp.mouseout"/>
                  </use>
                  <path fill="none" stroke="white" stroke-width="1.5" d="M0,-3.0v7 M-2.5,-0.5L0,-3.0L2.5,-0.5"/>
                </g>
                <g id="arrowRight" xlink:href="#dirArrow" transform="rotate(90) translate(36 -43)" onmousedown="handlePan(1,0)">
                  <use xlink:href="#rim" fill="#404040">
                        <set attributeName="fill" to="#808080" begin="arrowRight.mouseover" end="arrowRight.mouseout"/>
                  </use>
                  <path fill="none" stroke="white" stroke-width="1.5" d="M0,-3.0v7 M-2.5,-0.5L0,-3.0L2.5,-0.5"/>
                </g>
                <g id="arrowDown" xlink:href="#dirArrow" transform="rotate(180) translate(-30 -48)" onmousedown="handlePan(0,1)">
                  <use xlink:href="#rim" fill="#404040">
                        <set attributeName="fill" to="#808080" begin="arrowDown.mouseover" end="arrowDown.mouseout"/>
                  </use>
                  <path fill="none" stroke="white" stroke-width="1.5" d="M0,-3.0v7 M-2.5,-0.5L0,-3.0L2.5,-0.5"/>
                </g>
                <g id="arrowLeft" xlink:href="#dirArrow" transform="rotate(270) translate(-36 17)" onmousedown="handlePan(-1,0)">
                  <use xlink:href="#rim" fill="#404040">
                        <set attributeName="fill" to="#808080" begin="arrowLeft.mouseover" end="arrowLeft.mouseout"/>
                  </use>
                  <path fill="none" stroke="white" stroke-width="1.5" d="M0,-3.0v7 M-2.5,-0.5L0,-3.0L2.5,-0.5"/>
                </g>
        </g>
        <svg viewBox="0 0 15 15" width="100%" height="30px" preserveAspectRatio="xMaxYMin meet">
         <g id="arrow_out" transform="scale(0.3 0.3)">
          <a xlink:href="a00308_a7487697640051c6661b8cdca6f109959_icgraph_org.svg" target="_base">
           <rect id="button" ry="5" rx="5" y="6" x="6" height="38" width="38"
                fill="#f2f5e9" fill-opacity="0.5" stroke="#606060" stroke-width="1.0"/>
           <path id="arrow"
             d="M 11.500037,31.436501 C 11.940474,20.09759 22.043105,11.32322 32.158766,21.979434 L 37.068811,17.246167 C 37.068811,17.246167 37.088388,32 37.088388,32 L 22.160133,31.978069 C 22.160133,31.978069 26.997745,27.140456 26.997745,27.140456 C 18.528582,18.264221 13.291696,25.230495 11.500037,31.436501 z"
             style="fill:#404040;"/>
          </a>
         </g>
        </svg>
</svg>
