<?xml version="1.0" encoding="UTF-8" standalone="no"?>
<!DOCTYPE svg PUBLIC "-//W3C//DTD SVG 1.1//EN"
 "http://www.w3.org/Graphics/SVG/1.1/DTD/svg11.dtd">
<!-- Generated by graphviz version 2.40.1 (20161225.0304)
 -->
<!-- Title: CO_Access\get_login_item Pages: 1 -->
<svg width="623pt" height="51pt"
 viewBox="0.00 0.00 623.00 51.00" xmlns="http://www.w3.org/2000/svg" xmlns:xlink="http://www.w3.org/1999/xlink">
<g id="graph0" class="graph" transform="scale(1 1) rotate(0) translate(4 47)">
<title>CO_Access\get_login_item</title>
<polygon fill="#ffffff" stroke="transparent" points="-4,4 -4,-47 619.0029,-47 619.0029,4 -4,4"/>
<!-- Node69 -->
<g id="node1" class="node">
<title>Node69</title>
<polygon fill="#bfbfbf" stroke="#000000" points="0,-5.5 0,-23.5 136.6152,-23.5 136.6152,-5.5 0,-5.5"/>
<text text-anchor="middle" x="68.3076" y="-11.5" font-family="Helvetica,sans-Serif" font-size="10.00" fill="#000000">CO_Access\get_login_item</text>
</g>
<!-- Node70 -->
<g id="node2" class="node">
<title>Node70</title>
<g id="a_node2"><a xlink:href="a00355.html#adbc6444fbac916f3a280f4a3ce4f067a" target="_top" xlink:title="CO_Access\\get_login_id">
<polygon fill="#ffffff" stroke="#000000" points="172.6152,-24.5 172.6152,-42.5 298.1221,-42.5 298.1221,-24.5 172.6152,-24.5"/>
<text text-anchor="middle" x="235.3687" y="-30.5" font-family="Helvetica,sans-Serif" font-size="10.00" fill="#000000">CO_Access\get_login_id</text>
</a>
</g>
</g>
<!-- Node69&#45;&gt;Node70 -->
<g id="edge1" class="edge">
<title>Node69&#45;&gt;Node70</title>
<path fill="none" stroke="#191970" d="M136.7398,-22.2828C145.2242,-23.2478 153.9235,-24.2372 162.4719,-25.2094"/>
<polygon fill="#191970" stroke="#191970" points="162.0841,-28.6878 172.4156,-26.3403 162.8751,-21.7326 162.0841,-28.6878"/>
</g>
<!-- Node71 -->
<g id="node3" class="node">
<title>Node71</title>
<g id="a_node3"><a xlink:href="a00355.html#aeab406fa4ecc249662fa1e2e073341b2" target="_top" xlink:title="CO_Access\\get_single\l_security_record_by_id">
<polygon fill="#ffffff" stroke="#000000" points="334.1221,-.5 334.1221,-28.5 453.5107,-28.5 453.5107,-.5 334.1221,-.5"/>
<text text-anchor="start" x="342.1221" y="-16.5" font-family="Helvetica,sans-Serif" font-size="10.00" fill="#000000">CO_Access\get_single</text>
<text text-anchor="middle" x="393.8164" y="-6.5" font-family="Helvetica,sans-Serif" font-size="10.00" fill="#000000">_security_record_by_id</text>
</a>
</g>
</g>
<!-- Node69&#45;&gt;Node71 -->
<g id="edge4" class="edge">
<title>Node69&#45;&gt;Node71</title>
<path fill="none" stroke="#191970" d="M136.9419,-14.5C191.9033,-14.5 268.6825,-14.5 323.9632,-14.5"/>
<polygon fill="#191970" stroke="#191970" points="324.025,-18.0001 334.025,-14.5 324.025,-11.0001 324.025,-18.0001"/>
</g>
<!-- Node70&#45;&gt;Node71 -->
<g id="edge2" class="edge">
<title>Node70&#45;&gt;Node71</title>
<path fill="none" stroke="#191970" d="M298.4467,-25.9361C306.8826,-24.9245 315.5735,-23.8824 324.1147,-22.8582"/>
<polygon fill="#191970" stroke="#191970" points="324.5361,-26.3328 334.0482,-21.667 323.7026,-19.3826 324.5361,-26.3328"/>
</g>
<!-- Node72 -->
<g id="node4" class="node">
<title>Node72</title>
<g id="a_node4"><a xlink:href="a00355.html#a34c23aea84d5c32e600c512167c3497d" target="_top" xlink:title="CO_Access\\get_multiple\l_security_records_by_id">
<polygon fill="#ffffff" stroke="#000000" points="489.5107,-.5 489.5107,-28.5 615.0029,-28.5 615.0029,-.5 489.5107,-.5"/>
<text text-anchor="start" x="497.5107" y="-16.5" font-family="Helvetica,sans-Serif" font-size="10.00" fill="#000000">CO_Access\get_multiple</text>
<text text-anchor="middle" x="552.2568" y="-6.5" font-family="Helvetica,sans-Serif" font-size="10.00" fill="#000000">_security_records_by_id</text>
</a>
</g>
</g>
<!-- Node71&#45;&gt;Node72 -->
<g id="edge3" class="edge">
<title>Node71&#45;&gt;Node72</title>
<path fill="none" stroke="#191970" d="M453.7159,-14.5C462.093,-14.5 470.777,-14.5 479.3614,-14.5"/>
<polygon fill="#191970" stroke="#191970" points="479.3685,-18.0001 489.3685,-14.5 479.3685,-11.0001 479.3685,-18.0001"/>
</g>
</g>
</svg>
