<?xml version="1.0" encoding="UTF-8" standalone="no"?>
<!DOCTYPE svg PUBLIC "-//W3C//DTD SVG 1.1//EN"
 "http://www.w3.org/Graphics/SVG/1.1/DTD/svg11.dtd">
<!-- Generated by graphviz version 2.40.1 (20161225.0304)
 -->
<!-- Title: CO_Access\generic_search Pages: 1 -->
<svg width="485pt" height="225pt"
 viewBox="0.00 0.00 485.43 225.00" xmlns="http://www.w3.org/2000/svg" xmlns:xlink="http://www.w3.org/1999/xlink">
<g id="graph0" class="graph" transform="scale(1 1) rotate(0) translate(4 221)">
<title>CO_Access\generic_search</title>
<polygon fill="#ffffff" stroke="transparent" points="-4,4 -4,-221 481.4268,-221 481.4268,4 -4,4"/>
<!-- Node1 -->
<g id="node1" class="node">
<title>Node1</title>
<g id="a_node1"><a xlink:title=" ">
<polygon fill="#bfbfbf" stroke="#000000" points="337.4814,-99.5 337.4814,-117.5 477.4268,-117.5 477.4268,-99.5 337.4814,-99.5"/>
<text text-anchor="middle" x="407.4541" y="-105.5" font-family="Helvetica,sans-Serif" font-size="10.00" fill="#000000">CO_Access\generic_search</text>
</a>
</g>
</g>
<!-- Node2 -->
<g id="node2" class="node">
<title>Node2</title>
<g id="a_node2"><a xlink:href="a00296.html#a886cef7ed20be4960f67cb60c7799b76" target="_top" xlink:title=" ">
<polygon fill="#ffffff" stroke="#000000" points="169.8564,-188.5 169.8564,-216.5 296.4766,-216.5 296.4766,-188.5 169.8564,-188.5"/>
<text text-anchor="start" x="177.8564" y="-204.5" font-family="Helvetica,sans-Serif" font-size="10.00" fill="#000000">CO_Chameleon\get_all</text>
<text text-anchor="middle" x="233.1665" y="-194.5" font-family="Helvetica,sans-Serif" font-size="10.00" fill="#000000">_collections_for_element</text>
</a>
</g>
</g>
<!-- Node1&#45;&gt;Node2 -->
<g id="edge1" class="edge">
<title>Node1&#45;&gt;Node2</title>
<path fill="none" stroke="#191970" d="M388.054,-123.8144C367.5026,-139.4673 333.6426,-163.6648 301.4814,-179.5 294.8574,-182.7615 287.658,-185.7413 280.5003,-188.3961"/>
<polygon fill="#191970" stroke="#191970" points="390.2258,-126.5595 396.0031,-117.6784 385.9485,-121.0183 390.2258,-126.5595"/>
</g>
<!-- Node3 -->
<g id="node3" class="node">
<title>Node3</title>
<g id="a_node3"><a xlink:href="a00296.html#a7c972b8165d224faa09477108583c4a3" target="_top" xlink:title=" ">
<polygon fill="#ffffff" stroke="#000000" points="164.8516,-141.5 164.8516,-169.5 301.4814,-169.5 301.4814,-141.5 164.8516,-141.5"/>
<text text-anchor="start" x="172.8516" y="-157.5" font-family="Helvetica,sans-Serif" font-size="10.00" fill="#000000">CO_Chameleon\get_object</text>
<text text-anchor="middle" x="233.1665" y="-147.5" font-family="Helvetica,sans-Serif" font-size="10.00" fill="#000000">_for_key</text>
</a>
</g>
</g>
<!-- Node1&#45;&gt;Node3 -->
<g id="edge2" class="edge">
<title>Node1&#45;&gt;Node3</title>
<path fill="none" stroke="#191970" d="M364.0042,-120.2171C340.1151,-126.6593 310.3159,-134.6952 285.193,-141.4701"/>
<polygon fill="#191970" stroke="#191970" points="365.1059,-123.5451 373.8497,-117.5621 363.2833,-116.7865 365.1059,-123.5451"/>
</g>
<!-- Node4 -->
<g id="node4" class="node">
<title>Node4</title>
<g id="a_node4"><a xlink:href="a00296.html#a88b451020a7174eeb0c06e216ca517cf" target="_top" xlink:title=" ">
<polygon fill="#ffffff" stroke="#000000" points="168.4673,-94.5 168.4673,-122.5 297.8657,-122.5 297.8657,-94.5 168.4673,-94.5"/>
<text text-anchor="start" x="176.4673" y="-110.5" font-family="Helvetica,sans-Serif" font-size="10.00" fill="#000000">CO_Chameleon\get_user</text>
<text text-anchor="middle" x="233.1665" y="-100.5" font-family="Helvetica,sans-Serif" font-size="10.00" fill="#000000">_from_login</text>
</a>
</g>
</g>
<!-- Node1&#45;&gt;Node4 -->
<g id="edge3" class="edge">
<title>Node1&#45;&gt;Node4</title>
<path fill="none" stroke="#191970" d="M327.2118,-108.5C317.4537,-108.5 307.5795,-108.5 298.0827,-108.5"/>
<polygon fill="#191970" stroke="#191970" points="327.3181,-112.0001 337.318,-108.5 327.318,-105.0001 327.3181,-112.0001"/>
</g>
<!-- Node6 -->
<g id="node6" class="node">
<title>Node6</title>
<g id="a_node6"><a xlink:href="a00296.html#ae2b8dce97e8591b617a3d95c031bf357" target="_top" xlink:title=" ">
<polygon fill="#ffffff" stroke="#000000" points="166.2407,-47.5 166.2407,-75.5 300.0923,-75.5 300.0923,-47.5 166.2407,-47.5"/>
<text text-anchor="start" x="174.2407" y="-63.5" font-family="Helvetica,sans-Serif" font-size="10.00" fill="#000000">CO_Chameleon\get_value</text>
<text text-anchor="middle" x="233.1665" y="-53.5" font-family="Helvetica,sans-Serif" font-size="10.00" fill="#000000">_for_key</text>
</a>
</g>
</g>
<!-- Node1&#45;&gt;Node6 -->
<g id="edge5" class="edge">
<title>Node1&#45;&gt;Node6</title>
<path fill="none" stroke="#191970" d="M364.0042,-96.7829C340.1151,-90.3407 310.3159,-82.3048 285.193,-75.5299"/>
<polygon fill="#191970" stroke="#191970" points="363.2833,-100.2135 373.8497,-99.4379 365.1059,-93.4549 363.2833,-100.2135"/>
</g>
<!-- Node7 -->
<g id="node7" class="node">
<title>Node7</title>
<g id="a_node7"><a xlink:href="a00296.html#af193950805884bd481b8863ffd6d4fb1" target="_top" xlink:title=" ">
<polygon fill="#ffffff" stroke="#000000" points="166.5215,-.5 166.5215,-28.5 299.8115,-28.5 299.8115,-.5 166.5215,-.5"/>
<text text-anchor="start" x="174.5215" y="-16.5" font-family="Helvetica,sans-Serif" font-size="10.00" fill="#000000">CO_Chameleon\set_value</text>
<text text-anchor="middle" x="233.1665" y="-6.5" font-family="Helvetica,sans-Serif" font-size="10.00" fill="#000000">_for_key</text>
</a>
</g>
</g>
<!-- Node1&#45;&gt;Node7 -->
<g id="edge6" class="edge">
<title>Node1&#45;&gt;Node7</title>
<path fill="none" stroke="#191970" d="M387.6409,-93.2567C366.9953,-77.9023 333.2783,-54.2854 301.4814,-38.5 294.1627,-34.8666 286.1563,-31.5311 278.2833,-28.5764"/>
<polygon fill="#191970" stroke="#191970" points="385.5513,-96.0645 395.645,-99.2844 389.7623,-90.4728 385.5513,-96.0645"/>
</g>
<!-- Node5 -->
<g id="node5" class="node">
<title>Node5</title>
<g id="a_node5"><a xlink:href="a00296.html#ac6ba71b99a641f6d19aa0a0d73997234" target="_top" xlink:title=" ">
<polygon fill="#ffffff" stroke="#000000" points="0,-99.5 0,-117.5 128.8516,-117.5 128.8516,-99.5 0,-99.5"/>
<text text-anchor="middle" x="64.4258" y="-105.5" font-family="Helvetica,sans-Serif" font-size="10.00" fill="#000000">CO_Chameleon\get_lang</text>
</a>
</g>
</g>
<!-- Node4&#45;&gt;Node5 -->
<g id="edge4" class="edge">
<title>Node4&#45;&gt;Node5</title>
<path fill="none" stroke="#191970" d="M158.3105,-108.5C148.5381,-108.5 138.5933,-108.5 129.0095,-108.5"/>
<polygon fill="#191970" stroke="#191970" points="158.4096,-112.0001 168.4095,-108.5 158.4095,-105.0001 158.4096,-112.0001"/>
</g>
</g>
</svg>
