<?xml version="1.0" encoding="UTF-8" standalone="no"?>
<!DOCTYPE svg PUBLIC "-//W3C//DTD SVG 1.1//EN"
 "http://www.w3.org/Graphics/SVG/1.1/DTD/svg11.dtd">
<!-- Generated by graphviz version 2.40.1 (20161225.0304)
 -->
<!-- Title: CO_Security_Login\get_user_object Pages: 1 -->
<svg width="296pt" height="37pt"
 viewBox="0.00 0.00 296.13 37.00" xmlns="http://www.w3.org/2000/svg" xmlns:xlink="http://www.w3.org/1999/xlink">
<g id="graph0" class="graph" transform="scale(1 1) rotate(0) translate(4 33)">
<title>CO_Security_Login\get_user_object</title>
<polygon fill="#ffffff" stroke="transparent" points="-4,4 -4,-33 292.1318,-33 292.1318,4 -4,4"/>
<!-- Node1 -->
<g id="node1" class="node">
<title>Node1</title>
<g id="a_node1"><a xlink:title=" ">
<polygon fill="#bfbfbf" stroke="#000000" points="168.7383,-.5 168.7383,-28.5 288.1318,-28.5 288.1318,-.5 168.7383,-.5"/>
<text text-anchor="start" x="176.7383" y="-16.5" font-family="Helvetica,sans-Serif" font-size="10.00" fill="#000000">CO_Security_Login\get</text>
<text text-anchor="middle" x="228.4351" y="-6.5" font-family="Helvetica,sans-Serif" font-size="10.00" fill="#000000">_user_object</text>
</a>
</g>
</g>
<!-- Node2 -->
<g id="node2" class="node">
<title>Node2</title>
<g id="a_node2"><a xlink:href="a00343.html#ae927630811dae37fddc34b16878c63fd" target="_top" xlink:title=" ">
<polygon fill="#ffffff" stroke="#000000" points="0,-.5 0,-28.5 132.7383,-28.5 132.7383,-.5 0,-.5"/>
<text text-anchor="start" x="8" y="-16.5" font-family="Helvetica,sans-Serif" font-size="10.00" fill="#000000">CO_Security_Login\delete</text>
<text text-anchor="middle" x="66.3691" y="-6.5" font-family="Helvetica,sans-Serif" font-size="10.00" fill="#000000">_from_db</text>
</a>
</g>
</g>
<!-- Node1&#45;&gt;Node2 -->
<g id="edge1" class="edge">
<title>Node1&#45;&gt;Node2</title>
<path fill="none" stroke="#191970" d="M158.33,-14.5C149.8662,-14.5 141.2403,-14.5 132.831,-14.5"/>
<polygon fill="#191970" stroke="#191970" points="158.5482,-18.0001 168.5481,-14.5 158.5481,-11.0001 158.5482,-18.0001"/>
</g>
</g>
</svg>
