<?xml version="1.0" encoding="UTF-8" standalone="no"?>
<!DOCTYPE svg PUBLIC "-//W3C//DTD SVG 1.1//EN"
 "http://www.w3.org/Graphics/SVG/1.1/DTD/svg11.dtd">
<!-- Generated by graphviz version 2.47.1 (20210417.1919)
 -->
<!-- Title: CO_Access\get_login_id Pages: 1 -->
<svg width="496pt" height="301pt"
 viewBox="0.00 0.00 496.00 300.50" xmlns="http://www.w3.org/2000/svg" xmlns:xlink="http://www.w3.org/1999/xlink">
<g id="graph0" class="graph" transform="scale(1 1) rotate(0) translate(4 296.5)">
<title>CO_Access\get_login_id</title>
<polygon fill="white" stroke="transparent" points="-4,4 -4,-296.5 492,-296.5 492,4 -4,4"/>
<!-- Node1 -->
<g id="node1" class="node">
<title>Node1</title>
<g id="a_node1"><a xlink:title=" ">
<polygon fill="#bfbfbf" stroke="black" points="363,-147 363,-166 488,-166 488,-147 363,-147"/>
<text text-anchor="middle" x="425.5" y="-154" font-family="Helvetica,sans-Serif" font-size="10.00">CO_Access\get_login_id</text>
</a>
</g>
</g>
<!-- Node2 -->
<g id="node2" class="node">
<title>Node2</title>
<g id="a_node2"><a xlink:href="a00352.html#a2467c84d780ce52c35cfa9b5dc8604d4" target="_top" xlink:title=" ">
<polygon fill="white" stroke="black" points="190,-254.5 190,-284.5 320,-284.5 320,-254.5 190,-254.5"/>
<text text-anchor="start" x="198" y="-272.5" font-family="Helvetica,sans-Serif" font-size="10.00">CO_Access\get_available</text>
<text text-anchor="middle" x="255" y="-261.5" font-family="Helvetica,sans-Serif" font-size="10.00">_tokens</text>
</a>
</g>
</g>
<!-- Node1&#45;&gt;Node2 -->
<g id="edge1" class="edge">
<title>Node1&#45;&gt;Node2</title>
<path fill="none" stroke="midnightblue" d="M409.53,-173.61C391.63,-193.14 359.93,-224.92 327,-244.5 320.71,-248.24 313.77,-251.54 306.78,-254.41"/>
<polygon fill="midnightblue" stroke="midnightblue" points="412.24,-175.83 416.32,-166.06 407.03,-171.15 412.24,-175.83"/>
</g>
<!-- Node3 -->
<g id="node3" class="node">
<title>Node3</title>
<g id="a_node3"><a xlink:href="a00352.html#a65c256cad68440723a8de979b1b7a1bb" target="_top" xlink:title=" ">
<polygon fill="white" stroke="black" points="187,-216 187,-235 323,-235 323,-216 187,-216"/>
<text text-anchor="middle" x="255" y="-223" font-family="Helvetica,sans-Serif" font-size="10.00">CO_Access\get_login_item</text>
</a>
</g>
</g>
<!-- Node1&#45;&gt;Node3 -->
<g id="edge2" class="edge">
<title>Node1&#45;&gt;Node3</title>
<path fill="none" stroke="midnightblue" d="M399.67,-171.1C380.36,-181.99 352.63,-196.63 327,-206.5 317.71,-210.08 307.49,-213.24 297.77,-215.91"/>
<polygon fill="midnightblue" stroke="midnightblue" points="401.49,-174.09 408.43,-166.09 398.01,-168.02 401.49,-174.09"/>
</g>
<!-- Node7 -->
<g id="node7" class="node">
<title>Node7</title>
<g id="a_node7"><a xlink:href="a00352.html#afdbd62c65cc83a1abbdbce6634b51dda" target="_top" xlink:title=" ">
<polygon fill="white" stroke="black" points="191,-117.5 191,-147.5 319,-147.5 319,-117.5 191,-117.5"/>
<text text-anchor="start" x="199" y="-135.5" font-family="Helvetica,sans-Serif" font-size="10.00">CO_Access\get_personal</text>
<text text-anchor="middle" x="255" y="-124.5" font-family="Helvetica,sans-Serif" font-size="10.00">_security_ids</text>
</a>
</g>
</g>
<!-- Node1&#45;&gt;Node7 -->
<g id="edge6" class="edge">
<title>Node1&#45;&gt;Node7</title>
<path fill="none" stroke="midnightblue" d="M352.61,-146.26C341.5,-144.68 330.09,-143.05 319.19,-141.5"/>
<polygon fill="midnightblue" stroke="midnightblue" points="352.32,-149.75 362.71,-147.7 353.31,-142.82 352.32,-149.75"/>
</g>
<!-- Node10 -->
<g id="node10" class="node">
<title>Node10</title>
<g id="a_node10"><a xlink:href="a00352.html#afe9f0a632b2c80e162582cd2ed0d7d3d" target="_top" xlink:title=" ">
<polygon fill="white" stroke="black" points="183,-77 183,-96 327,-96 327,-77 183,-77"/>
<text text-anchor="middle" x="255" y="-84" font-family="Helvetica,sans-Serif" font-size="10.00">CO_Access\get_security_ids</text>
</a>
</g>
</g>
<!-- Node1&#45;&gt;Node10 -->
<g id="edge9" class="edge">
<title>Node1&#45;&gt;Node10</title>
<path fill="none" stroke="midnightblue" d="M398.18,-142.14C378.84,-131.93 351.74,-118.35 327,-108.5 315.37,-103.87 302.36,-99.59 290.69,-96.06"/>
<polygon fill="midnightblue" stroke="midnightblue" points="396.79,-145.36 407.26,-146.98 400.09,-139.19 396.79,-145.36"/>
</g>
<!-- Node12 -->
<g id="node12" class="node">
<title>Node12</title>
<g id="a_node12"><a xlink:href="a00296.html#a88b451020a7174eeb0c06e216ca517cf" target="_top" xlink:title=" ">
<polygon fill="white" stroke="black" points="191.5,-166.5 191.5,-196.5 318.5,-196.5 318.5,-166.5 191.5,-166.5"/>
<text text-anchor="start" x="199.5" y="-184.5" font-family="Helvetica,sans-Serif" font-size="10.00">CO_Chameleon\get_user</text>
<text text-anchor="middle" x="255" y="-173.5" font-family="Helvetica,sans-Serif" font-size="10.00">_from_login</text>
</a>
</g>
</g>
<!-- Node1&#45;&gt;Node12 -->
<g id="edge11" class="edge">
<title>Node1&#45;&gt;Node12</title>
<path fill="none" stroke="midnightblue" d="M352.48,-167.19C341.22,-168.86 329.66,-170.57 318.63,-172.21"/>
<polygon fill="midnightblue" stroke="midnightblue" points="353.34,-170.6 362.71,-165.67 352.31,-163.67 353.34,-170.6"/>
</g>
<!-- Node13 -->
<g id="node13" class="node">
<title>Node13</title>
<g id="a_node13"><a xlink:href="a00352.html#a2249312ed569b15e5b6b15c0112ce83b" target="_top" xlink:title=" ">
<polygon fill="white" stroke="black" points="195,-22.5 195,-52.5 315,-52.5 315,-22.5 195,-22.5"/>
<text text-anchor="start" x="203" y="-40.5" font-family="Helvetica,sans-Serif" font-size="10.00">CO_Access\make_new</text>
<text text-anchor="middle" x="255" y="-29.5" font-family="Helvetica,sans-Serif" font-size="10.00">_blank_record</text>
</a>
</g>
</g>
<!-- Node1&#45;&gt;Node13 -->
<g id="edge13" class="edge">
<title>Node1&#45;&gt;Node13</title>
<path fill="none" stroke="midnightblue" d="M409.07,-139.24C390.95,-119.78 359.25,-88.16 327,-67.5 318.1,-61.8 307.93,-56.76 298.12,-52.51"/>
<polygon fill="midnightblue" stroke="midnightblue" points="406.63,-141.76 415.96,-146.77 411.79,-137.03 406.63,-141.76"/>
</g>
<!-- Node4 -->
<g id="node4" class="node">
<title>Node4</title>
<g id="a_node4"><a xlink:href="a00352.html#ae2a40cf404135bb4aae747c37520733e" target="_top" xlink:title=" ">
<polygon fill="white" stroke="black" points="18.5,-273 18.5,-292 128.5,-292 128.5,-273 18.5,-273"/>
<text text-anchor="middle" x="73.5" y="-280" font-family="Helvetica,sans-Serif" font-size="10.00">CO_Access\get_lang</text>
</a>
</g>
</g>
<!-- Node3&#45;&gt;Node4 -->
<g id="edge3" class="edge">
<title>Node3&#45;&gt;Node4</title>
<path fill="none" stroke="midnightblue" d="M205.13,-237.95C197.64,-240.23 190.06,-242.77 183,-245.5 166.32,-251.95 163.74,-257.2 147,-263.5 137.5,-267.08 127.06,-270.24 117.13,-272.9"/>
<polygon fill="midnightblue" stroke="midnightblue" points="206.26,-241.26 214.87,-235.09 204.29,-234.55 206.26,-241.26"/>
</g>
<!-- Node5 -->
<g id="node5" class="node">
<title>Node5</title>
<g id="a_node5"><a xlink:href="a00296.html#ac6ba71b99a641f6d19aa0a0d73997234" target="_top" xlink:title=" ">
<polygon fill="white" stroke="black" points="10.5,-197 10.5,-216 136.5,-216 136.5,-197 10.5,-197"/>
<text text-anchor="middle" x="73.5" y="-204" font-family="Helvetica,sans-Serif" font-size="10.00">CO_Chameleon\get_lang</text>
</a>
</g>
</g>
<!-- Node3&#45;&gt;Node5 -->
<g id="edge4" class="edge">
<title>Node3&#45;&gt;Node5</title>
<path fill="none" stroke="midnightblue" d="M176.78,-217.33C163.41,-215.91 149.67,-214.46 136.77,-213.09"/>
<polygon fill="midnightblue" stroke="midnightblue" points="176.59,-220.83 186.91,-218.4 177.33,-213.86 176.59,-220.83"/>
</g>
<!-- Node6 -->
<g id="node6" class="node">
<title>Node6</title>
<g id="a_node6"><a xlink:href="a00296.html#aa13745bd0d40cac3820bb3ae7f6d5fbb" target="_top" xlink:title=" ">
<polygon fill="white" stroke="black" points="2,-235 2,-254 145,-254 145,-235 2,-235"/>
<text text-anchor="middle" x="73.5" y="-242" font-family="Helvetica,sans-Serif" font-size="10.00">CO_Chameleon\test_access</text>
</a>
</g>
</g>
<!-- Node3&#45;&gt;Node6 -->
<g id="edge5" class="edge">
<title>Node3&#45;&gt;Node6</title>
<path fill="none" stroke="midnightblue" d="M176.88,-233.66C166.33,-234.78 155.54,-235.92 145.11,-237.03"/>
<polygon fill="midnightblue" stroke="midnightblue" points="177.33,-237.14 186.91,-232.6 176.59,-230.17 177.33,-237.14"/>
</g>
<!-- Node8 -->
<g id="node8" class="node">
<title>Node8</title>
<g id="a_node8"><a xlink:href="a00352.html#a82bba10b220d78a598bff74a99ce3bbb" target="_top" xlink:title=" ">
<polygon fill="white" stroke="black" points="8,-147.5 8,-177.5 139,-177.5 139,-147.5 8,-147.5"/>
<text text-anchor="start" x="16" y="-165.5" font-family="Helvetica,sans-Serif" font-size="10.00">CO_Access\add_personal</text>
<text text-anchor="middle" x="73.5" y="-154.5" font-family="Helvetica,sans-Serif" font-size="10.00">_token_from_current_login</text>
</a>
</g>
</g>
<!-- Node7&#45;&gt;Node8 -->
<g id="edge7" class="edge">
<title>Node7&#45;&gt;Node8</title>
<path fill="none" stroke="midnightblue" d="M181,-144.7C167.16,-147.01 152.77,-149.42 139.2,-151.69"/>
<polygon fill="midnightblue" stroke="midnightblue" points="181.68,-148.14 190.97,-143.03 180.53,-141.23 181.68,-148.14"/>
</g>
<!-- Node9 -->
<g id="node9" class="node">
<title>Node9</title>
<g id="a_node9"><a xlink:href="a00352.html#a7f9cb2fc56cf3fcf37d507c4e9d83264" target="_top" xlink:title=" ">
<polygon fill="white" stroke="black" points="0,-98.5 0,-128.5 147,-128.5 147,-98.5 0,-98.5"/>
<text text-anchor="start" x="8" y="-116.5" font-family="Helvetica,sans-Serif" font-size="10.00">CO_Access\remove_personal</text>
<text text-anchor="middle" x="73.5" y="-105.5" font-family="Helvetica,sans-Serif" font-size="10.00">_token_from_this_login</text>
</a>
</g>
</g>
<!-- Node7&#45;&gt;Node9 -->
<g id="edge8" class="edge">
<title>Node7&#45;&gt;Node9</title>
<path fill="none" stroke="midnightblue" d="M180.88,-124.76C169.77,-123.58 158.31,-122.37 147.21,-121.2"/>
<polygon fill="midnightblue" stroke="midnightblue" points="180.65,-128.26 190.97,-125.83 181.39,-121.29 180.65,-128.26"/>
</g>
<!-- Node11 -->
<g id="node11" class="node">
<title>Node11</title>
<g id="a_node11"><a xlink:href="a00352.html#ae548938d26a8e1c2f5378e94d2921419" target="_top" xlink:title=" ">
<polygon fill="white" stroke="black" points="12.5,-49.5 12.5,-79.5 134.5,-79.5 134.5,-49.5 12.5,-49.5"/>
<text text-anchor="start" x="20.5" y="-67.5" font-family="Helvetica,sans-Serif" font-size="10.00">CO_Access\i_have_this</text>
<text text-anchor="middle" x="73.5" y="-56.5" font-family="Helvetica,sans-Serif" font-size="10.00">_token</text>
</a>
</g>
</g>
<!-- Node10&#45;&gt;Node11 -->
<g id="edge10" class="edge">
<title>Node10&#45;&gt;Node11</title>
<path fill="none" stroke="midnightblue" d="M172.61,-76.53C159.83,-74.96 146.81,-73.36 134.62,-71.87"/>
<polygon fill="midnightblue" stroke="midnightblue" points="172.45,-80.03 182.8,-77.77 173.3,-73.08 172.45,-80.03"/>
</g>
<!-- Node12&#45;&gt;Node5 -->
<g id="edge12" class="edge">
<title>Node12&#45;&gt;Node5</title>
<path fill="none" stroke="midnightblue" d="M181.31,-191.62C166.45,-193.69 150.94,-195.85 136.5,-197.86"/>
<polygon fill="midnightblue" stroke="midnightblue" points="182.05,-195.05 191.47,-190.21 181.08,-188.12 182.05,-195.05"/>
</g>
<!-- Node14 -->
<g id="node14" class="node">
<title>Node14</title>
<g id="a_node14"><a xlink:href="a00296.html#af193950805884bd481b8863ffd6d4fb1" target="_top" xlink:title=" ">
<polygon fill="white" stroke="black" points="8,-0.5 8,-30.5 139,-30.5 139,-0.5 8,-0.5"/>
<text text-anchor="start" x="16" y="-18.5" font-family="Helvetica,sans-Serif" font-size="10.00">CO_Chameleon\set_value</text>
<text text-anchor="middle" x="73.5" y="-7.5" font-family="Helvetica,sans-Serif" font-size="10.00">_for_key</text>
</a>
</g>
</g>
<!-- Node13&#45;&gt;Node14 -->
<g id="edge14" class="edge">
<title>Node13&#45;&gt;Node14</title>
<path fill="none" stroke="midnightblue" d="M184.56,-28.99C169.67,-27.16 153.99,-25.24 139.28,-23.44"/>
<polygon fill="midnightblue" stroke="midnightblue" points="184.38,-32.49 194.73,-30.24 185.23,-25.54 184.38,-32.49"/>
</g>
</g>
</svg>
