<?xml version="1.0" encoding="UTF-8" standalone="no"?>
<!DOCTYPE svg PUBLIC "-//W3C//DTD SVG 1.1//EN"
 "http://www.w3.org/Graphics/SVG/1.1/DTD/svg11.dtd">
<!-- Generated by graphviz version 2.47.1 (20210417.1919)
 -->
<!-- Title: A_CO_DB_Table_Base\reload_from_db Pages: 1 -->
<svg width="322pt" height="100pt"
 viewBox="0.00 0.00 322.00 99.50" xmlns="http://www.w3.org/2000/svg" xmlns:xlink="http://www.w3.org/1999/xlink">
<g id="graph0" class="graph" transform="scale(1 1) rotate(0) translate(4 95.5)">
<title>A_CO_DB_Table_Base\reload_from_db</title>
<polygon fill="white" stroke="transparent" points="-4,4 -4,-95.5 318,-95.5 318,4 -4,4"/>
<!-- Node1 -->
<g id="node1" class="node">
<title>Node1</title>
<g id="a_node1"><a xlink:title=" ">
<polygon fill="#bfbfbf" stroke="black" points="195,-27.5 195,-57.5 314,-57.5 314,-27.5 195,-27.5"/>
<text text-anchor="start" x="203" y="-45.5" font-family="Helvetica,sans-Serif" font-size="10.00">A_CO_DB_Table_Base</text>
<text text-anchor="middle" x="254.5" y="-34.5" font-family="Helvetica,sans-Serif" font-size="10.00">\reload_from_db</text>
</a>
</g>
</g>
<!-- Node2 -->
<g id="node2" class="node">
<title>Node2</title>
<g id="a_node2"><a xlink:href="a00340.html#a64b021e6e339891ad10a60c6a45e7b06" target="_top" xlink:title=" ">
<polygon fill="white" stroke="black" points="19.5,-50 19.5,-91 139.5,-91 139.5,-50 19.5,-50"/>
<text text-anchor="start" x="27.5" y="-79" font-family="Helvetica,sans-Serif" font-size="10.00">CO_Security_Login\add</text>
<text text-anchor="start" x="27.5" y="-68" font-family="Helvetica,sans-Serif" font-size="10.00">_personal_token_from</text>
<text text-anchor="middle" x="79.5" y="-57" font-family="Helvetica,sans-Serif" font-size="10.00">_current_login</text>
</a>
</g>
</g>
<!-- Node1&#45;&gt;Node2 -->
<g id="edge1" class="edge">
<title>Node1&#45;&gt;Node2</title>
<path fill="none" stroke="midnightblue" d="M184.73,-53.63C169.79,-56.05 154.12,-58.58 139.6,-60.93"/>
<polygon fill="midnightblue" stroke="midnightblue" points="185.62,-57.03 194.93,-51.98 184.5,-50.12 185.62,-57.03"/>
</g>
<!-- Node3 -->
<g id="node3" class="node">
<title>Node3</title>
<g id="a_node3"><a xlink:href="a00340.html#a6d1a5f62b1742349eb0cc8ba921fa5cf" target="_top" xlink:title=" ">
<polygon fill="white" stroke="black" points="0,-0.5 0,-30.5 159,-30.5 159,-0.5 0,-0.5"/>
<text text-anchor="start" x="8" y="-18.5" font-family="Helvetica,sans-Serif" font-size="10.00">CO_Security_Login\remove</text>
<text text-anchor="middle" x="79.5" y="-7.5" font-family="Helvetica,sans-Serif" font-size="10.00">_personal_token_from_this_login</text>
</a>
</g>
</g>
<!-- Node1&#45;&gt;Node3 -->
<g id="edge2" class="edge">
<title>Node1&#45;&gt;Node3</title>
<path fill="none" stroke="midnightblue" d="M184.82,-31.78C176.42,-30.47 167.79,-29.12 159.26,-27.79"/>
<polygon fill="midnightblue" stroke="midnightblue" points="184.51,-35.28 194.93,-33.36 185.59,-28.36 184.51,-35.28"/>
</g>
</g>
</svg>
