<?xml version="1.0" encoding="UTF-8" standalone="no"?>
<!DOCTYPE svg PUBLIC "-//W3C//DTD SVG 1.1//EN"
 "http://www.w3.org/Graphics/SVG/1.1/DTD/svg11.dtd">
<!-- Generated by graphviz version 2.40.1 (20161225.0304)
 -->
<!-- Title: CO_Security_DB\get_all_login_objects Pages: 1 -->
<svg width="464pt" height="144pt"
 viewBox="0.00 0.00 464.27 144.00" xmlns="http://www.w3.org/2000/svg" xmlns:xlink="http://www.w3.org/1999/xlink">
<g id="graph0" class="graph" transform="scale(1 1) rotate(0) translate(4 140)">
<title>CO_Security_DB\get_all_login_objects</title>
<polygon fill="#ffffff" stroke="transparent" points="-4,4 -4,-140 460.2744,-140 460.2744,4 -4,4"/>
<!-- Node2 -->
<g id="node1" class="node">
<title>Node2</title>
<polygon fill="#bfbfbf" stroke="#000000" points="0,-37.5 0,-65.5 108.8174,-65.5 108.8174,-37.5 0,-37.5"/>
<text text-anchor="start" x="8" y="-53.5" font-family="Helvetica,sans-Serif" font-size="10.00" fill="#000000">CO_Security_DB\get</text>
<text text-anchor="middle" x="54.4087" y="-43.5" font-family="Helvetica,sans-Serif" font-size="10.00" fill="#000000">_all_login_objects</text>
</g>
<!-- Node3 -->
<g id="node2" class="node">
<title>Node3</title>
<g id="a_node2"><a xlink:href="a00307.html#ad2356dbed1b38898d8c17bcd8eb405ef" target="_top" xlink:title="A_CO_DB\\_create_security\l_predicate">
<polygon fill="#ffffff" stroke="#000000" points="144.8174,-84.5 144.8174,-112.5 283.6494,-112.5 283.6494,-84.5 144.8174,-84.5"/>
<text text-anchor="start" x="152.8174" y="-100.5" font-family="Helvetica,sans-Serif" font-size="10.00" fill="#000000">A_CO_DB\_create_security</text>
<text text-anchor="middle" x="214.2334" y="-90.5" font-family="Helvetica,sans-Serif" font-size="10.00" fill="#000000">_predicate</text>
</a>
</g>
</g>
<!-- Node2&#45;&gt;Node3 -->
<g id="edge1" class="edge">
<title>Node2&#45;&gt;Node3</title>
<path fill="none" stroke="#191970" d="M102.3614,-65.6015C119.5068,-70.6435 139.0022,-76.3766 156.8618,-81.6286"/>
<polygon fill="#191970" stroke="#191970" points="156.0089,-85.0259 166.5901,-84.4894 157.9838,-78.3103 156.0089,-85.0259"/>
</g>
<!-- Node6 -->
<g id="node5" class="node">
<title>Node6</title>
<g id="a_node5"><a xlink:href="a00307.html#a523e2f40174a0bca0fc873d6286b3ae9" target="_top" xlink:title="A_CO_DB\\_instantiate\l_record">
<polygon fill="#ffffff" stroke="#000000" points="155.9282,-37.5 155.9282,-65.5 272.5386,-65.5 272.5386,-37.5 155.9282,-37.5"/>
<text text-anchor="start" x="163.9282" y="-53.5" font-family="Helvetica,sans-Serif" font-size="10.00" fill="#000000">A_CO_DB\_instantiate</text>
<text text-anchor="middle" x="214.2334" y="-43.5" font-family="Helvetica,sans-Serif" font-size="10.00" fill="#000000">_record</text>
</a>
</g>
</g>
<!-- Node2&#45;&gt;Node6 -->
<g id="edge4" class="edge">
<title>Node2&#45;&gt;Node6</title>
<path fill="none" stroke="#191970" d="M108.9643,-51.5C120.7625,-51.5 133.3834,-51.5 145.6416,-51.5"/>
<polygon fill="#191970" stroke="#191970" points="145.8272,-55.0001 155.8272,-51.5 145.8271,-48.0001 145.8272,-55.0001"/>
</g>
<!-- Node7 -->
<g id="node6" class="node">
<title>Node7</title>
<g id="a_node6"><a xlink:href="a00307.html#a2396849660aa4ff018ab7509a4badeb5" target="_top" xlink:title="A_CO_DB\\execute_query">
<polygon fill="#ffffff" stroke="#000000" points="148.7017,-.5 148.7017,-18.5 279.7651,-18.5 279.7651,-.5 148.7017,-.5"/>
<text text-anchor="middle" x="214.2334" y="-6.5" font-family="Helvetica,sans-Serif" font-size="10.00" fill="#000000">A_CO_DB\execute_query</text>
</a>
</g>
</g>
<!-- Node2&#45;&gt;Node7 -->
<g id="edge5" class="edge">
<title>Node2&#45;&gt;Node7</title>
<path fill="none" stroke="#191970" d="M108.0726,-37.3978C128.0588,-32.1457 150.5091,-26.246 169.599,-21.2294"/>
<polygon fill="#191970" stroke="#191970" points="170.7502,-24.5458 179.5323,-18.619 168.9711,-17.7756 170.7502,-24.5458"/>
</g>
<!-- Node4 -->
<g id="node3" class="node">
<title>Node4</title>
<g id="a_node3"><a xlink:href="a00307.html#a176b2c663fa7768e95e4fbe93281adc6" target="_top" xlink:title="A_CO_DB\\_create_read\l_security_predicate">
<polygon fill="#ffffff" stroke="#000000" points="325.7651,-107.5 325.7651,-135.5 450.1587,-135.5 450.1587,-107.5 325.7651,-107.5"/>
<text text-anchor="start" x="333.7651" y="-123.5" font-family="Helvetica,sans-Serif" font-size="10.00" fill="#000000">A_CO_DB\_create_read</text>
<text text-anchor="middle" x="387.9619" y="-113.5" font-family="Helvetica,sans-Serif" font-size="10.00" fill="#000000">_security_predicate</text>
</a>
</g>
</g>
<!-- Node3&#45;&gt;Node4 -->
<g id="edge2" class="edge">
<title>Node3&#45;&gt;Node4</title>
<path fill="none" stroke="#191970" d="M283.8944,-107.7225C294.3388,-109.1052 305.1289,-110.5337 315.6276,-111.9236"/>
<polygon fill="#191970" stroke="#191970" points="315.2103,-115.3988 325.5832,-113.2417 316.1291,-108.4594 315.2103,-115.3988"/>
</g>
<!-- Node5 -->
<g id="node4" class="node">
<title>Node5</title>
<g id="a_node4"><a xlink:href="a00307.html#ad4bc3d416f085818935b32a814313202" target="_top" xlink:title="A_CO_DB\\_create_write\l_security_predicate">
<polygon fill="#ffffff" stroke="#000000" points="325.2158,-60.5 325.2158,-88.5 450.708,-88.5 450.708,-60.5 325.2158,-60.5"/>
<text text-anchor="start" x="333.2158" y="-76.5" font-family="Helvetica,sans-Serif" font-size="10.00" fill="#000000">A_CO_DB\_create_write</text>
<text text-anchor="middle" x="387.9619" y="-66.5" font-family="Helvetica,sans-Serif" font-size="10.00" fill="#000000">_security_predicate</text>
</a>
</g>
</g>
<!-- Node3&#45;&gt;Node5 -->
<g id="edge3" class="edge">
<title>Node3&#45;&gt;Node5</title>
<path fill="none" stroke="#191970" d="M283.8944,-88.8766C294.0896,-87.4681 304.6141,-86.0142 314.8754,-84.5967"/>
<polygon fill="#191970" stroke="#191970" points="315.6001,-88.0299 325.027,-83.1942 314.6421,-81.0957 315.6001,-88.0299"/>
</g>
<!-- Node8 -->
<g id="node7" class="node">
<title>Node8</title>
<g id="a_node7"><a xlink:href="a00307.html#ae41efbdfe739934823b5f4c785b22611" target="_top" xlink:title="A_CO_DB\\_execute_query">
<polygon fill="#ffffff" stroke="#000000" points="319.6494,-.5 319.6494,-18.5 456.2744,-18.5 456.2744,-.5 319.6494,-.5"/>
<text text-anchor="middle" x="387.9619" y="-6.5" font-family="Helvetica,sans-Serif" font-size="10.00" fill="#000000">A_CO_DB\_execute_query</text>
</a>
</g>
</g>
<!-- Node7&#45;&gt;Node8 -->
<g id="edge6" class="edge">
<title>Node7&#45;&gt;Node8</title>
<path fill="none" stroke="#191970" d="M279.9127,-9.5C289.5402,-9.5 299.5375,-9.5 309.3912,-9.5"/>
<polygon fill="#191970" stroke="#191970" points="309.5862,-13.0001 319.5862,-9.5 309.5862,-6.0001 309.5862,-13.0001"/>
</g>
</g>
</svg>
