<?xml version="1.0" encoding="UTF-8" standalone="no"?>
<!DOCTYPE svg PUBLIC "-//W3C//DTD SVG 1.1//EN"
 "http://www.w3.org/Graphics/SVG/1.1/DTD/svg11.dtd">
<!-- Generated by graphviz version 2.40.1 (20161225.0304)
 -->
<!-- Title: CO_Access\get_login_id Pages: 1 -->
<svg width="450pt" height="37pt"
 viewBox="0.00 0.00 450.39 37.00" xmlns="http://www.w3.org/2000/svg" xmlns:xlink="http://www.w3.org/1999/xlink">
<g id="graph0" class="graph" transform="scale(1 1) rotate(0) translate(4 33)">
<title>CO_Access\get_login_id</title>
<polygon fill="#ffffff" stroke="transparent" points="-4,4 -4,-33 446.3877,-33 446.3877,4 -4,4"/>
<!-- Node55 -->
<g id="node1" class="node">
<title>Node55</title>
<polygon fill="#bfbfbf" stroke="#000000" points="0,-5.5 0,-23.5 125.5068,-23.5 125.5068,-5.5 0,-5.5"/>
<text text-anchor="middle" x="62.7534" y="-11.5" font-family="Helvetica,sans-Serif" font-size="10.00" fill="#000000">CO_Access\get_login_id</text>
</g>
<!-- Node56 -->
<g id="node2" class="node">
<title>Node56</title>
<g id="a_node2"><a xlink:href="a00355.html#aeab406fa4ecc249662fa1e2e073341b2" target="_top" xlink:title="CO_Access\\get_single\l_security_record_by_id">
<polygon fill="#ffffff" stroke="#000000" points="161.5068,-.5 161.5068,-28.5 280.8955,-28.5 280.8955,-.5 161.5068,-.5"/>
<text text-anchor="start" x="169.5068" y="-16.5" font-family="Helvetica,sans-Serif" font-size="10.00" fill="#000000">CO_Access\get_single</text>
<text text-anchor="middle" x="221.2012" y="-6.5" font-family="Helvetica,sans-Serif" font-size="10.00" fill="#000000">_security_record_by_id</text>
</a>
</g>
</g>
<!-- Node55&#45;&gt;Node56 -->
<g id="edge1" class="edge">
<title>Node55&#45;&gt;Node56</title>
<path fill="none" stroke="#191970" d="M125.8314,-14.5C134.1756,-14.5 142.7694,-14.5 151.2209,-14.5"/>
<polygon fill="#191970" stroke="#191970" points="151.433,-18.0001 161.4329,-14.5 151.4329,-11.0001 151.433,-18.0001"/>
</g>
<!-- Node57 -->
<g id="node3" class="node">
<title>Node57</title>
<g id="a_node3"><a xlink:href="a00355.html#a34c23aea84d5c32e600c512167c3497d" target="_top" xlink:title="CO_Access\\get_multiple\l_security_records_by_id">
<polygon fill="#ffffff" stroke="#000000" points="316.8955,-.5 316.8955,-28.5 442.3877,-28.5 442.3877,-.5 316.8955,-.5"/>
<text text-anchor="start" x="324.8955" y="-16.5" font-family="Helvetica,sans-Serif" font-size="10.00" fill="#000000">CO_Access\get_multiple</text>
<text text-anchor="middle" x="379.6416" y="-6.5" font-family="Helvetica,sans-Serif" font-size="10.00" fill="#000000">_security_records_by_id</text>
</a>
</g>
</g>
<!-- Node56&#45;&gt;Node57 -->
<g id="edge2" class="edge">
<title>Node56&#45;&gt;Node57</title>
<path fill="none" stroke="#191970" d="M281.1007,-14.5C289.4778,-14.5 298.1618,-14.5 306.7462,-14.5"/>
<polygon fill="#191970" stroke="#191970" points="306.7533,-18.0001 316.7533,-14.5 306.7532,-11.0001 306.7533,-18.0001"/>
</g>
</g>
</svg>
