<?xml version="1.0" encoding="UTF-8" standalone="no"?>
<!DOCTYPE svg PUBLIC "-//W3C//DTD SVG 1.1//EN"
 "http://www.w3.org/Graphics/SVG/1.1/DTD/svg11.dtd">
<!-- Generated by graphviz version 2.47.1 (20210417.1919)
 -->
<!-- Title: CO_Access\generic_search Pages: 1 -->
<svg width="479pt" height="235pt"
 viewBox="0.00 0.00 479.00 235.00" xmlns="http://www.w3.org/2000/svg" xmlns:xlink="http://www.w3.org/1999/xlink">
<g id="graph0" class="graph" transform="scale(1 1) rotate(0) translate(4 231)">
<title>CO_Access\generic_search</title>
<polygon fill="white" stroke="transparent" points="-4,4 -4,-231 475,-231 475,4 -4,4"/>
<!-- Node1 -->
<g id="node1" class="node">
<title>Node1</title>
<g id="a_node1"><a xlink:title=" ">
<polygon fill="#bfbfbf" stroke="black" points="332,-104 332,-123 471,-123 471,-104 332,-104"/>
<text text-anchor="middle" x="401.5" y="-111" font-family="Helvetica,sans-Serif" font-size="10.00">CO_Access\generic_search</text>
</a>
</g>
</g>
<!-- Node2 -->
<g id="node2" class="node">
<title>Node2</title>
<g id="a_node2"><a xlink:href="a00296.html#a886cef7ed20be4960f67cb60c7799b76" target="_top" xlink:title=" ">
<polygon fill="white" stroke="black" points="166.5,-196.5 166.5,-226.5 291.5,-226.5 291.5,-196.5 166.5,-196.5"/>
<text text-anchor="start" x="174.5" y="-214.5" font-family="Helvetica,sans-Serif" font-size="10.00">CO_Chameleon\get_all</text>
<text text-anchor="middle" x="229" y="-203.5" font-family="Helvetica,sans-Serif" font-size="10.00">_collections_for_element</text>
</a>
</g>
</g>
<!-- Node1&#45;&gt;Node2 -->
<g id="edge1" class="edge">
<title>Node1&#45;&gt;Node2</title>
<path fill="none" stroke="midnightblue" d="M381.44,-129.38C361.22,-145.63 327.88,-170.8 296,-187.5 289.84,-190.72 283.16,-193.7 276.48,-196.38"/>
<polygon fill="midnightblue" stroke="midnightblue" points="383.71,-132.05 389.25,-123.02 379.29,-126.62 383.71,-132.05"/>
</g>
<!-- Node3 -->
<g id="node3" class="node">
<title>Node3</title>
<g id="a_node3"><a xlink:href="a00296.html#a7c972b8165d224faa09477108583c4a3" target="_top" xlink:title=" ">
<polygon fill="white" stroke="black" points="162,-147.5 162,-177.5 296,-177.5 296,-147.5 162,-147.5"/>
<text text-anchor="start" x="170" y="-165.5" font-family="Helvetica,sans-Serif" font-size="10.00">CO_Chameleon\get_object</text>
<text text-anchor="middle" x="229" y="-154.5" font-family="Helvetica,sans-Serif" font-size="10.00">_for_key</text>
</a>
</g>
</g>
<!-- Node1&#45;&gt;Node3 -->
<g id="edge2" class="edge">
<title>Node1&#45;&gt;Node3</title>
<path fill="none" stroke="midnightblue" d="M357.47,-125.87C334.64,-132.43 306.41,-140.54 282.32,-147.46"/>
<polygon fill="midnightblue" stroke="midnightblue" points="358.58,-129.19 367.22,-123.06 356.64,-122.46 358.58,-129.19"/>
</g>
<!-- Node4 -->
<g id="node4" class="node">
<title>Node4</title>
<g id="a_node4"><a xlink:href="a00296.html#a88b451020a7174eeb0c06e216ca517cf" target="_top" xlink:title=" ">
<polygon fill="white" stroke="black" points="165.5,-98.5 165.5,-128.5 292.5,-128.5 292.5,-98.5 165.5,-98.5"/>
<text text-anchor="start" x="173.5" y="-116.5" font-family="Helvetica,sans-Serif" font-size="10.00">CO_Chameleon\get_user</text>
<text text-anchor="middle" x="229" y="-105.5" font-family="Helvetica,sans-Serif" font-size="10.00">_from_login</text>
</a>
</g>
</g>
<!-- Node1&#45;&gt;Node4 -->
<g id="edge3" class="edge">
<title>Node1&#45;&gt;Node4</title>
<path fill="none" stroke="midnightblue" d="M321.55,-113.5C311.81,-113.5 301.96,-113.5 292.51,-113.5"/>
<polygon fill="midnightblue" stroke="midnightblue" points="321.64,-117 331.64,-113.5 321.64,-110 321.64,-117"/>
</g>
<!-- Node6 -->
<g id="node6" class="node">
<title>Node6</title>
<g id="a_node6"><a xlink:href="a00296.html#ae2b8dce97e8591b617a3d95c031bf357" target="_top" xlink:title=" ">
<polygon fill="white" stroke="black" points="163.5,-49.5 163.5,-79.5 294.5,-79.5 294.5,-49.5 163.5,-49.5"/>
<text text-anchor="start" x="171.5" y="-67.5" font-family="Helvetica,sans-Serif" font-size="10.00">CO_Chameleon\get_value</text>
<text text-anchor="middle" x="229" y="-56.5" font-family="Helvetica,sans-Serif" font-size="10.00">_for_key</text>
</a>
</g>
</g>
<!-- Node1&#45;&gt;Node6 -->
<g id="edge5" class="edge">
<title>Node1&#45;&gt;Node6</title>
<path fill="none" stroke="midnightblue" d="M357.47,-101.13C334.64,-94.57 306.41,-86.46 282.32,-79.54"/>
<polygon fill="midnightblue" stroke="midnightblue" points="356.64,-104.54 367.22,-103.94 358.58,-97.81 356.64,-104.54"/>
</g>
<!-- Node7 -->
<g id="node7" class="node">
<title>Node7</title>
<g id="a_node7"><a xlink:href="a00296.html#af193950805884bd481b8863ffd6d4fb1" target="_top" xlink:title=" ">
<polygon fill="white" stroke="black" points="163.5,-0.5 163.5,-30.5 294.5,-30.5 294.5,-0.5 163.5,-0.5"/>
<text text-anchor="start" x="171.5" y="-18.5" font-family="Helvetica,sans-Serif" font-size="10.00">CO_Chameleon\set_value</text>
<text text-anchor="middle" x="229" y="-7.5" font-family="Helvetica,sans-Serif" font-size="10.00">_for_key</text>
</a>
</g>
</g>
<!-- Node1&#45;&gt;Node7 -->
<g id="edge6" class="edge">
<title>Node1&#45;&gt;Node7</title>
<path fill="none" stroke="midnightblue" d="M381.02,-97.68C360.72,-81.72 327.51,-57.14 296,-40.5 289.17,-36.89 281.71,-33.55 274.34,-30.56"/>
<polygon fill="midnightblue" stroke="midnightblue" points="378.89,-100.45 388.9,-103.94 383.25,-94.97 378.89,-100.45"/>
</g>
<!-- Node5 -->
<g id="node5" class="node">
<title>Node5</title>
<g id="a_node5"><a xlink:href="a00296.html#ac6ba71b99a641f6d19aa0a0d73997234" target="_top" xlink:title=" ">
<polygon fill="white" stroke="black" points="0,-104 0,-123 126,-123 126,-104 0,-104"/>
<text text-anchor="middle" x="63" y="-111" font-family="Helvetica,sans-Serif" font-size="10.00">CO_Chameleon\get_lang</text>
</a>
</g>
</g>
<!-- Node4&#45;&gt;Node5 -->
<g id="edge4" class="edge">
<title>Node4&#45;&gt;Node5</title>
<path fill="none" stroke="midnightblue" d="M154.8,-113.5C145.26,-113.5 135.56,-113.5 126.23,-113.5"/>
<polygon fill="midnightblue" stroke="midnightblue" points="155.06,-117 165.06,-113.5 155.06,-110 155.06,-117"/>
</g>
</g>
</svg>
