<?xml version="1.0" encoding="UTF-8" standalone="no"?>
<!DOCTYPE svg PUBLIC "-//W3C//DTD SVG 1.1//EN"
 "http://www.w3.org/Graphics/SVG/1.1/DTD/svg11.dtd">
<!-- Generated by graphviz version 2.47.1 (20210417.1919)
 -->
<!-- Title: CO_Security_Login\set_lang Pages: 1 -->
<svg width="786pt" height="217pt"
 viewBox="0.00 0.00 786.00 217.00" xmlns="http://www.w3.org/2000/svg" xmlns:xlink="http://www.w3.org/1999/xlink">
<g id="graph0" class="graph" transform="scale(1 1) rotate(0) translate(4 213)">
<title>CO_Security_Login\set_lang</title>
<polygon fill="white" stroke="transparent" points="-4,4 -4,-213 782,-213 782,4 -4,4"/>
<!-- Node1 -->
<g id="node1" class="node">
<title>Node1</title>
<g id="a_node1"><a xlink:title=" ">
<polygon fill="#bfbfbf" stroke="black" points="0,-71 0,-90 141,-90 141,-71 0,-71"/>
<text text-anchor="middle" x="70.5" y="-78" font-family="Helvetica,sans-Serif" font-size="10.00">CO_Security_Login\set_lang</text>
</a>
</g>
</g>
<!-- Node2 -->
<g id="node2" class="node">
<title>Node2</title>
<g id="a_node2"><a xlink:href="a00308.html#a7487697640051c6661b8cdca6f109959" target="_top" xlink:title=" ">
<polygon fill="white" stroke="black" points="179,-90.5 179,-120.5 298,-120.5 298,-90.5 179,-90.5"/>
<text text-anchor="start" x="187" y="-108.5" font-family="Helvetica,sans-Serif" font-size="10.00">A_CO_DB_Table_Base</text>
<text text-anchor="middle" x="238.5" y="-97.5" font-family="Helvetica,sans-Serif" font-size="10.00">\update_db</text>
</a>
</g>
</g>
<!-- Node1&#45;&gt;Node2 -->
<g id="edge1" class="edge">
<title>Node1&#45;&gt;Node2</title>
<path fill="none" stroke="midnightblue" d="M134.73,-90.02C145.81,-91.69 157.4,-93.44 168.63,-95.13"/>
<polygon fill="midnightblue" stroke="midnightblue" points="168.4,-98.63 178.81,-96.66 169.44,-91.71 168.4,-98.63"/>
</g>
<!-- Node9 -->
<g id="node9" class="node">
<title>Node9</title>
<g id="a_node9"><a xlink:href="a00340.html#aba256552040dd8af7196f0fea2a58609" target="_top" xlink:title=" ">
<polygon fill="white" stroke="black" points="177,-41.5 177,-71.5 300,-71.5 300,-41.5 177,-41.5"/>
<text text-anchor="start" x="185" y="-59.5" font-family="Helvetica,sans-Serif" font-size="10.00">CO_Security_Login\user</text>
<text text-anchor="middle" x="238.5" y="-48.5" font-family="Helvetica,sans-Serif" font-size="10.00">_can_write</text>
</a>
</g>
</g>
<!-- Node1&#45;&gt;Node9 -->
<g id="edge10" class="edge">
<title>Node1&#45;&gt;Node9</title>
<path fill="none" stroke="midnightblue" d="M137.58,-70.95C147.18,-69.56 157.09,-68.13 166.77,-66.73"/>
<polygon fill="midnightblue" stroke="midnightblue" points="167.36,-70.18 176.76,-65.28 166.36,-63.25 167.36,-70.18"/>
</g>
<!-- Node3 -->
<g id="node3" class="node">
<title>Node3</title>
<g id="a_node3"><a xlink:href="a00308.html#adda14b544e11934db3bf8130aeea0610" target="_top" xlink:title=" ">
<polygon fill="white" stroke="black" points="336,-137.5 336,-167.5 455,-167.5 455,-137.5 336,-137.5"/>
<text text-anchor="start" x="344" y="-155.5" font-family="Helvetica,sans-Serif" font-size="10.00">A_CO_DB_Table_Base</text>
<text text-anchor="middle" x="395.5" y="-144.5" font-family="Helvetica,sans-Serif" font-size="10.00">\_write_to_db</text>
</a>
</g>
</g>
<!-- Node2&#45;&gt;Node3 -->
<g id="edge2" class="edge">
<title>Node2&#45;&gt;Node3</title>
<path fill="none" stroke="midnightblue" d="M288.97,-120.5C303.65,-124.95 319.88,-129.87 335.12,-134.5"/>
<polygon fill="midnightblue" stroke="midnightblue" points="334.38,-137.93 344.97,-137.48 336.42,-131.23 334.38,-137.93"/>
</g>
<!-- Node8 -->
<g id="node8" class="node">
<title>Node8</title>
<g id="a_node8"><a xlink:href="a00308.html#a7d2537d7675ca572ad78096784fe4fe4" target="_top" xlink:title=" ">
<polygon fill="white" stroke="black" points="336,-88.5 336,-118.5 455,-118.5 455,-88.5 336,-88.5"/>
<text text-anchor="start" x="344" y="-106.5" font-family="Helvetica,sans-Serif" font-size="10.00">A_CO_DB_Table_Base</text>
<text text-anchor="middle" x="395.5" y="-95.5" font-family="Helvetica,sans-Serif" font-size="10.00">\user_can_write</text>
</a>
</g>
</g>
<!-- Node2&#45;&gt;Node8 -->
<g id="edge8" class="edge">
<title>Node2&#45;&gt;Node8</title>
<path fill="none" stroke="midnightblue" d="M298.1,-104.74C307.07,-104.63 316.4,-104.51 325.56,-104.39"/>
<polygon fill="midnightblue" stroke="midnightblue" points="325.86,-107.89 335.82,-104.26 325.77,-100.89 325.86,-107.89"/>
</g>
<!-- Node4 -->
<g id="node4" class="node">
<title>Node4</title>
<g id="a_node4"><a xlink:href="a00308.html#a6109c37c5e61ab04ea710b1ebb7615a5" target="_top" xlink:title=" ">
<polygon fill="white" stroke="black" points="491,-178.5 491,-208.5 612,-208.5 612,-178.5 491,-178.5"/>
<text text-anchor="start" x="499" y="-196.5" font-family="Helvetica,sans-Serif" font-size="10.00">A_CO_DB_Table_Base</text>
<text text-anchor="middle" x="551.5" y="-185.5" font-family="Helvetica,sans-Serif" font-size="10.00">\_build_parameter_array</text>
</a>
</g>
</g>
<!-- Node3&#45;&gt;Node4 -->
<g id="edge3" class="edge">
<title>Node3&#45;&gt;Node4</title>
<path fill="none" stroke="midnightblue" d="M452.97,-167.53C463.12,-170.24 473.78,-173.07 484.18,-175.84"/>
<polygon fill="midnightblue" stroke="midnightblue" points="483.47,-179.28 494.04,-178.47 485.27,-172.51 483.47,-179.28"/>
</g>
<!-- Node6 -->
<g id="node6" class="node">
<title>Node6</title>
<g id="a_node6"><a xlink:href="a00308.html#a78affe18a811930d4012fd265e95cdca" target="_top" xlink:title=" ">
<polygon fill="white" stroke="black" points="648,-140 648,-159 778,-159 778,-140 648,-140"/>
<text text-anchor="middle" x="713" y="-147" font-family="Helvetica,sans-Serif" font-size="10.00">A_CO_DB_Table_Base\id</text>
</a>
</g>
</g>
<!-- Node3&#45;&gt;Node6 -->
<g id="edge7" class="edge">
<title>Node3&#45;&gt;Node6</title>
<path fill="none" stroke="midnightblue" d="M455.1,-151.94C506.61,-151.45 581.82,-150.74 637.57,-150.21"/>
<polygon fill="midnightblue" stroke="midnightblue" points="637.77,-153.71 647.74,-150.11 637.71,-146.71 637.77,-153.71"/>
</g>
<!-- Node7 -->
<g id="node7" class="node">
<title>Node7</title>
<g id="a_node7"><a xlink:href="a00308.html#a8780b40e55827b90bb441671faec2a05" target="_top" xlink:title=" ">
<polygon fill="white" stroke="black" points="492,-88.5 492,-118.5 611,-118.5 611,-88.5 492,-88.5"/>
<text text-anchor="start" x="500" y="-106.5" font-family="Helvetica,sans-Serif" font-size="10.00">A_CO_DB_Table_Base</text>
<text text-anchor="middle" x="551.5" y="-95.5" font-family="Helvetica,sans-Serif" font-size="10.00">\get_access_object</text>
</a>
</g>
</g>
<!-- Node3&#45;&gt;Node7 -->
<g id="edge6" class="edge">
<title>Node3&#45;&gt;Node7</title>
<path fill="none" stroke="midnightblue" d="M443.96,-137.4C459.55,-132.44 477.04,-126.87 493.28,-121.71"/>
<polygon fill="midnightblue" stroke="midnightblue" points="494.73,-124.92 503.2,-118.55 492.6,-118.25 494.73,-124.92"/>
</g>
<!-- Node5 -->
<g id="node5" class="node">
<title>Node5</title>
<g id="a_node5"><a xlink:href="a00308.html#afb32d1e32b8e1c1de2e008c9b88f7846" target="_top" xlink:title=" ">
<polygon fill="white" stroke="black" points="653.5,-178.5 653.5,-208.5 772.5,-208.5 772.5,-178.5 653.5,-178.5"/>
<text text-anchor="start" x="661.5" y="-196.5" font-family="Helvetica,sans-Serif" font-size="10.00">A_CO_DB_Table_Base</text>
<text text-anchor="middle" x="713" y="-185.5" font-family="Helvetica,sans-Serif" font-size="10.00">\_badger_serialize</text>
</a>
</g>
</g>
<!-- Node4&#45;&gt;Node5 -->
<g id="edge4" class="edge">
<title>Node4&#45;&gt;Node5</title>
<path fill="none" stroke="midnightblue" d="M612.35,-193.5C622.42,-193.5 632.95,-193.5 643.23,-193.5"/>
<polygon fill="midnightblue" stroke="midnightblue" points="643.41,-197 653.41,-193.5 643.41,-190 643.41,-197"/>
</g>
<!-- Node4&#45;&gt;Node6 -->
<g id="edge5" class="edge">
<title>Node4&#45;&gt;Node6</title>
<path fill="none" stroke="midnightblue" d="M606.94,-178.48C626.68,-173.04 648.72,-166.96 667.5,-161.78"/>
<polygon fill="midnightblue" stroke="midnightblue" points="668.57,-165.11 677.28,-159.08 666.71,-158.36 668.57,-165.11"/>
</g>
<!-- Node8&#45;&gt;Node7 -->
<g id="edge9" class="edge">
<title>Node8&#45;&gt;Node7</title>
<path fill="none" stroke="midnightblue" d="M455.16,-103.5C463.77,-103.5 472.71,-103.5 481.51,-103.5"/>
<polygon fill="midnightblue" stroke="midnightblue" points="481.75,-107 491.75,-103.5 481.75,-100 481.75,-107"/>
</g>
<!-- Node9&#45;&gt;Node7 -->
<g id="edge11" class="edge">
<title>Node9&#45;&gt;Node7</title>
<path fill="none" stroke="midnightblue" d="M300.2,-60.7C343.55,-64.25 403.14,-70.26 455,-79.5 465.2,-81.32 475.93,-83.62 486.36,-86.08"/>
<polygon fill="midnightblue" stroke="midnightblue" points="485.7,-89.52 496.24,-88.47 487.35,-82.71 485.7,-89.52"/>
</g>
<!-- Node10 -->
<g id="node10" class="node">
<title>Node10</title>
<g id="a_node10"><a xlink:href="a00340.html#a03304936652c2c606c411c7c6a0f0c7f" target="_top" xlink:title=" ">
<polygon fill="white" stroke="black" points="342,-0.5 342,-30.5 449,-30.5 449,-0.5 342,-0.5"/>
<text text-anchor="start" x="350" y="-18.5" font-family="Helvetica,sans-Serif" font-size="10.00">CO_Security_Login\i</text>
<text text-anchor="middle" x="395.5" y="-7.5" font-family="Helvetica,sans-Serif" font-size="10.00">_am_a_god</text>
</a>
</g>
</g>
<!-- Node9&#45;&gt;Node10 -->
<g id="edge12" class="edge">
<title>Node9&#45;&gt;Node10</title>
<path fill="none" stroke="midnightblue" d="M296.34,-41.47C307.95,-38.39 320.22,-35.15 332.02,-32.03"/>
<polygon fill="midnightblue" stroke="midnightblue" points="333.02,-35.38 341.79,-29.44 331.22,-28.62 333.02,-35.38"/>
</g>
</g>
</svg>
