<?xml version="1.0" encoding="UTF-8" standalone="no"?>
<!DOCTYPE svg PUBLIC "-//W3C//DTD SVG 1.1//EN"
 "http://www.w3.org/Graphics/SVG/1.1/DTD/svg11.dtd">
<!-- Generated by graphviz version 2.47.1 (20210417.1919)
 -->
<!-- Title: CO_Access\i_have_this_token Pages: 1 -->
<svg width="785pt" height="121pt"
 viewBox="0.00 0.00 785.00 121.00" xmlns="http://www.w3.org/2000/svg" xmlns:xlink="http://www.w3.org/1999/xlink">
<g id="graph0" class="graph" transform="scale(1 1) rotate(0) translate(4 117)">
<title>CO_Access\i_have_this_token</title>
<polygon fill="white" stroke="transparent" points="-4,4 -4,-117 781,-117 781,4 -4,4"/>
<!-- Node1 -->
<g id="node1" class="node">
<title>Node1</title>
<g id="a_node1"><a xlink:title=" ">
<polygon fill="#bfbfbf" stroke="black" points="0,-44.5 0,-74.5 122,-74.5 122,-44.5 0,-44.5"/>
<text text-anchor="start" x="8" y="-62.5" font-family="Helvetica,sans-Serif" font-size="10.00">CO_Access\i_have_this</text>
<text text-anchor="middle" x="61" y="-51.5" font-family="Helvetica,sans-Serif" font-size="10.00">_token</text>
</a>
</g>
</g>
<!-- Node2 -->
<g id="node2" class="node">
<title>Node2</title>
<g id="a_node2"><a xlink:href="a00352.html#afe9f0a632b2c80e162582cd2ed0d7d3d" target="_top" xlink:title=" ">
<polygon fill="white" stroke="black" points="158,-88 158,-107 302,-107 302,-88 158,-88"/>
<text text-anchor="middle" x="230" y="-95" font-family="Helvetica,sans-Serif" font-size="10.00">CO_Access\get_security_ids</text>
</a>
</g>
</g>
<!-- Node1&#45;&gt;Node2 -->
<g id="edge1" class="edge">
<title>Node1&#45;&gt;Node2</title>
<path fill="none" stroke="midnightblue" d="M122.29,-73.22C140.25,-77.31 159.77,-81.75 177.15,-85.7"/>
<polygon fill="midnightblue" stroke="midnightblue" points="176.57,-89.16 187.1,-87.97 178.13,-82.33 176.57,-89.16"/>
</g>
<!-- Node6 -->
<g id="node6" class="node">
<title>Node6</title>
<g id="a_node6"><a xlink:href="a00352.html#a9cda1533874f3fad2ab78f4e1d3a2fd3" target="_top" xlink:title=" ">
<polygon fill="white" stroke="black" points="341.5,-50 341.5,-69 459.5,-69 459.5,-50 341.5,-50"/>
<text text-anchor="middle" x="400.5" y="-57" font-family="Helvetica,sans-Serif" font-size="10.00">CO_Access\god_mode</text>
</a>
</g>
</g>
<!-- Node1&#45;&gt;Node6 -->
<g id="edge6" class="edge">
<title>Node1&#45;&gt;Node6</title>
<path fill="none" stroke="midnightblue" d="M122.34,-59.5C180.95,-59.5 269.81,-59.5 331.04,-59.5"/>
<polygon fill="midnightblue" stroke="midnightblue" points="331.38,-63 341.38,-59.5 331.38,-56 331.38,-63"/>
</g>
<!-- Node7 -->
<g id="node7" class="node">
<title>Node7</title>
<g id="a_node7"><a xlink:href="a00352.html#a22dd3ef5f47a6f4c40a551a1d7767402" target="_top" xlink:title=" ">
<polygon fill="white" stroke="black" points="176.5,-0.5 176.5,-30.5 283.5,-30.5 283.5,-0.5 176.5,-0.5"/>
<text text-anchor="start" x="184.5" y="-18.5" font-family="Helvetica,sans-Serif" font-size="10.00">CO_Access\security</text>
<text text-anchor="middle" x="230" y="-7.5" font-family="Helvetica,sans-Serif" font-size="10.00">_db_available</text>
</a>
</g>
</g>
<!-- Node1&#45;&gt;Node7 -->
<g id="edge7" class="edge">
<title>Node1&#45;&gt;Node7</title>
<path fill="none" stroke="midnightblue" d="M119,-44.48C134.27,-40.46 150.86,-36.09 166.42,-31.99"/>
<polygon fill="midnightblue" stroke="midnightblue" points="167.69,-35.27 176.46,-29.34 165.9,-28.51 167.69,-35.27"/>
</g>
<!-- Node3 -->
<g id="node3" class="node">
<title>Node3</title>
<g id="a_node3"><a xlink:href="a00352.html#adbc6444fbac916f3a280f4a3ce4f067a" target="_top" xlink:title=" ">
<polygon fill="white" stroke="black" points="338,-88 338,-107 463,-107 463,-88 338,-88"/>
<text text-anchor="middle" x="400.5" y="-95" font-family="Helvetica,sans-Serif" font-size="10.00">CO_Access\get_login_id</text>
</a>
</g>
</g>
<!-- Node2&#45;&gt;Node3 -->
<g id="edge2" class="edge">
<title>Node2&#45;&gt;Node3</title>
<path fill="none" stroke="midnightblue" d="M302.46,-97.5C310.81,-97.5 319.34,-97.5 327.7,-97.5"/>
<polygon fill="midnightblue" stroke="midnightblue" points="327.79,-101 337.79,-97.5 327.79,-94 327.79,-101"/>
</g>
<!-- Node2&#45;&gt;Node6 -->
<g id="edge5" class="edge">
<title>Node2&#45;&gt;Node6</title>
<path fill="none" stroke="midnightblue" d="M273.52,-87.91C295.96,-82.85 323.67,-76.6 347.39,-71.25"/>
<polygon fill="midnightblue" stroke="midnightblue" points="348.3,-74.63 357.29,-69.02 346.76,-67.81 348.3,-74.63"/>
</g>
<!-- Node4 -->
<g id="node4" class="node">
<title>Node4</title>
<g id="a_node4"><a xlink:href="a00352.html#aeab406fa4ecc249662fa1e2e073341b2" target="_top" xlink:title=" ">
<polygon fill="white" stroke="black" points="499,-82.5 499,-112.5 616,-112.5 616,-82.5 499,-82.5"/>
<text text-anchor="start" x="507" y="-100.5" font-family="Helvetica,sans-Serif" font-size="10.00">CO_Access\get_single</text>
<text text-anchor="middle" x="557.5" y="-89.5" font-family="Helvetica,sans-Serif" font-size="10.00">_security_record_by_id</text>
</a>
</g>
</g>
<!-- Node3&#45;&gt;Node4 -->
<g id="edge3" class="edge">
<title>Node3&#45;&gt;Node4</title>
<path fill="none" stroke="midnightblue" d="M463.21,-97.5C471.55,-97.5 480.15,-97.5 488.59,-97.5"/>
<polygon fill="midnightblue" stroke="midnightblue" points="488.78,-101 498.78,-97.5 488.78,-94 488.78,-101"/>
</g>
<!-- Node5 -->
<g id="node5" class="node">
<title>Node5</title>
<g id="a_node5"><a xlink:href="a00352.html#a34c23aea84d5c32e600c512167c3497d" target="_top" xlink:title=" ">
<polygon fill="white" stroke="black" points="652,-82.5 652,-112.5 777,-112.5 777,-82.5 652,-82.5"/>
<text text-anchor="start" x="660" y="-100.5" font-family="Helvetica,sans-Serif" font-size="10.00">CO_Access\get_multiple</text>
<text text-anchor="middle" x="714.5" y="-89.5" font-family="Helvetica,sans-Serif" font-size="10.00">_security_records_by_id</text>
</a>
</g>
</g>
<!-- Node4&#45;&gt;Node5 -->
<g id="edge4" class="edge">
<title>Node4&#45;&gt;Node5</title>
<path fill="none" stroke="midnightblue" d="M616.22,-97.5C624.57,-97.5 633.25,-97.5 641.83,-97.5"/>
<polygon fill="midnightblue" stroke="midnightblue" points="641.84,-101 651.84,-97.5 641.84,-94 641.84,-101"/>
</g>
</g>
</svg>
