<?xml version="1.0" encoding="UTF-8" standalone="no"?>
<!DOCTYPE svg PUBLIC "-//W3C//DTD SVG 1.1//EN"
 "http://www.w3.org/Graphics/SVG/1.1/DTD/svg11.dtd">
<!-- Generated by graphviz version 2.40.1 (20161225.0304)
 -->
<!-- Title: A_CO_DB\delete_record Pages: 1 -->
<svg width="482pt" height="121pt"
 viewBox="0.00 0.00 482.07 121.00" xmlns="http://www.w3.org/2000/svg" xmlns:xlink="http://www.w3.org/1999/xlink">
<g id="graph0" class="graph" transform="scale(1 1) rotate(0) translate(4 117)">
<title>A_CO_DB\delete_record</title>
<polygon fill="#ffffff" stroke="transparent" points="-4,4 -4,-117 478.0723,-117 478.0723,4 -4,4"/>
<!-- Node111 -->
<g id="node1" class="node">
<title>Node111</title>
<polygon fill="#bfbfbf" stroke="#000000" points="0,-21.5 0,-39.5 126.6152,-39.5 126.6152,-21.5 0,-21.5"/>
<text text-anchor="middle" x="63.3076" y="-27.5" font-family="Helvetica,sans-Serif" font-size="10.00" fill="#000000">A_CO_DB\delete_record</text>
</g>
<!-- Node112 -->
<g id="node2" class="node">
<title>Node112</title>
<g id="a_node2"><a xlink:href="a00307.html#ad2356dbed1b38898d8c17bcd8eb405ef" target="_top" xlink:title="A_CO_DB\\_create_security\l_predicate">
<polygon fill="#ffffff" stroke="#000000" points="162.6152,-37.5 162.6152,-65.5 301.4473,-65.5 301.4473,-37.5 162.6152,-37.5"/>
<text text-anchor="start" x="170.6152" y="-53.5" font-family="Helvetica,sans-Serif" font-size="10.00" fill="#000000">A_CO_DB\_create_security</text>
<text text-anchor="middle" x="232.0313" y="-43.5" font-family="Helvetica,sans-Serif" font-size="10.00" fill="#000000">_predicate</text>
</a>
</g>
</g>
<!-- Node111&#45;&gt;Node112 -->
<g id="edge1" class="edge">
<title>Node111&#45;&gt;Node112</title>
<path fill="none" stroke="#191970" d="M127.0948,-38.4392C135.4119,-39.4744 144.0131,-40.5449 152.5476,-41.6072"/>
<polygon fill="#191970" stroke="#191970" points="152.1588,-45.0857 162.5146,-42.8477 153.0234,-38.1393 152.1588,-45.0857"/>
</g>
<!-- Node115 -->
<g id="node5" class="node">
<title>Node115</title>
<g id="a_node5"><a xlink:href="a00307.html#a2396849660aa4ff018ab7509a4badeb5" target="_top" xlink:title="A_CO_DB\\execute_query">
<polygon fill="#ffffff" stroke="#000000" points="166.4995,-.5 166.4995,-18.5 297.563,-18.5 297.563,-.5 166.4995,-.5"/>
<text text-anchor="middle" x="232.0313" y="-6.5" font-family="Helvetica,sans-Serif" font-size="10.00" fill="#000000">A_CO_DB\execute_query</text>
</a>
</g>
</g>
<!-- Node111&#45;&gt;Node115 -->
<g id="edge4" class="edge">
<title>Node111&#45;&gt;Node115</title>
<path fill="none" stroke="#191970" d="M127.0948,-22.5608C136.6527,-21.3712 146.586,-20.1349 156.3618,-18.9181"/>
<polygon fill="#191970" stroke="#191970" points="156.9789,-22.3684 166.47,-17.66 156.1142,-15.422 156.9789,-22.3684"/>
</g>
<!-- Node113 -->
<g id="node3" class="node">
<title>Node113</title>
<g id="a_node3"><a xlink:href="a00307.html#a176b2c663fa7768e95e4fbe93281adc6" target="_top" xlink:title="A_CO_DB\\_create_read\l_security_predicate">
<polygon fill="#ffffff" stroke="#000000" points="343.563,-84.5 343.563,-112.5 467.9565,-112.5 467.9565,-84.5 343.563,-84.5"/>
<text text-anchor="start" x="351.563" y="-100.5" font-family="Helvetica,sans-Serif" font-size="10.00" fill="#000000">A_CO_DB\_create_read</text>
<text text-anchor="middle" x="405.7598" y="-90.5" font-family="Helvetica,sans-Serif" font-size="10.00" fill="#000000">_security_predicate</text>
</a>
</g>
</g>
<!-- Node112&#45;&gt;Node113 -->
<g id="edge2" class="edge">
<title>Node112&#45;&gt;Node113</title>
<path fill="none" stroke="#191970" d="M284.1555,-65.6015C303.0514,-70.7136 324.5731,-76.536 344.205,-81.8472"/>
<polygon fill="#191970" stroke="#191970" points="343.4048,-85.2564 353.9718,-84.4894 345.2329,-78.4993 343.4048,-85.2564"/>
</g>
<!-- Node114 -->
<g id="node4" class="node">
<title>Node114</title>
<g id="a_node4"><a xlink:href="a00307.html#ad4bc3d416f085818935b32a814313202" target="_top" xlink:title="A_CO_DB\\_create_write\l_security_predicate">
<polygon fill="#ffffff" stroke="#000000" points="343.0137,-37.5 343.0137,-65.5 468.5059,-65.5 468.5059,-37.5 343.0137,-37.5"/>
<text text-anchor="start" x="351.0137" y="-53.5" font-family="Helvetica,sans-Serif" font-size="10.00" fill="#000000">A_CO_DB\_create_write</text>
<text text-anchor="middle" x="405.7598" y="-43.5" font-family="Helvetica,sans-Serif" font-size="10.00" fill="#000000">_security_predicate</text>
</a>
</g>
</g>
<!-- Node112&#45;&gt;Node114 -->
<g id="edge3" class="edge">
<title>Node112&#45;&gt;Node114</title>
<path fill="none" stroke="#191970" d="M301.6923,-51.5C311.8874,-51.5 322.4119,-51.5 332.6733,-51.5"/>
<polygon fill="#191970" stroke="#191970" points="332.8249,-55.0001 342.8249,-51.5 332.8248,-48.0001 332.8249,-55.0001"/>
</g>
<!-- Node116 -->
<g id="node6" class="node">
<title>Node116</title>
<g id="a_node6"><a xlink:href="a00307.html#ae41efbdfe739934823b5f4c785b22611" target="_top" xlink:title="A_CO_DB\\_execute_query">
<polygon fill="#ffffff" stroke="#000000" points="337.4473,-.5 337.4473,-18.5 474.0723,-18.5 474.0723,-.5 337.4473,-.5"/>
<text text-anchor="middle" x="405.7598" y="-6.5" font-family="Helvetica,sans-Serif" font-size="10.00" fill="#000000">A_CO_DB\_execute_query</text>
</a>
</g>
</g>
<!-- Node115&#45;&gt;Node116 -->
<g id="edge5" class="edge">
<title>Node115&#45;&gt;Node116</title>
<path fill="none" stroke="#191970" d="M297.7106,-9.5C307.3381,-9.5 317.3354,-9.5 327.189,-9.5"/>
<polygon fill="#191970" stroke="#191970" points="327.3841,-13.0001 337.384,-9.5 327.384,-6.0001 327.3841,-13.0001"/>
</g>
</g>
</svg>
