<?xml version="1.0" encoding="UTF-8" standalone="no"?>
<!DOCTYPE svg PUBLIC "-//W3C//DTD SVG 1.1//EN"
 "http://www.w3.org/Graphics/SVG/1.1/DTD/svg11.dtd">
<!-- Generated by graphviz version 2.40.1 (20161225.0304)
 -->
<!-- Title: CO_Security_Login\user_can_edit_ids Pages: 1 -->
<svg width="289pt" height="37pt"
 viewBox="0.00 0.00 289.45 37.00" xmlns="http://www.w3.org/2000/svg" xmlns:xlink="http://www.w3.org/1999/xlink">
<g id="graph0" class="graph" transform="scale(1 1) rotate(0) translate(4 33)">
<title>CO_Security_Login\user_can_edit_ids</title>
<polygon fill="#ffffff" stroke="transparent" points="-4,4 -4,-33 285.4521,-33 285.4521,4 -4,4"/>
<!-- Node1 -->
<g id="node1" class="node">
<title>Node1</title>
<g id="a_node1"><a xlink:title=" ">
<polygon fill="#bfbfbf" stroke="#000000" points="0,-.5 0,-28.5 124.9453,-28.5 124.9453,-.5 0,-.5"/>
<text text-anchor="start" x="8" y="-16.5" font-family="Helvetica,sans-Serif" font-size="10.00" fill="#000000">CO_Security_Login\user</text>
<text text-anchor="middle" x="62.4727" y="-6.5" font-family="Helvetica,sans-Serif" font-size="10.00" fill="#000000">_can_edit_ids</text>
</a>
</g>
</g>
<!-- Node2 -->
<g id="node2" class="node">
<title>Node2</title>
<g id="a_node2"><a xlink:href="a00308.html#a8780b40e55827b90bb441671faec2a05" target="_top" xlink:title=" ">
<polygon fill="#ffffff" stroke="#000000" points="160.9453,-.5 160.9453,-28.5 281.4521,-28.5 281.4521,-.5 160.9453,-.5"/>
<text text-anchor="start" x="168.9453" y="-16.5" font-family="Helvetica,sans-Serif" font-size="10.00" fill="#000000">A_CO_DB_Table_Base</text>
<text text-anchor="middle" x="221.1987" y="-6.5" font-family="Helvetica,sans-Serif" font-size="10.00" fill="#000000">\get_access_object</text>
</a>
</g>
</g>
<!-- Node1&#45;&gt;Node2 -->
<g id="edge1" class="edge">
<title>Node1&#45;&gt;Node2</title>
<path fill="none" stroke="#191970" d="M125.2054,-14.5C133.5221,-14.5 142.094,-14.5 150.533,-14.5"/>
<polygon fill="#191970" stroke="#191970" points="150.7349,-18.0001 160.7349,-14.5 150.7348,-11.0001 150.7349,-18.0001"/>
</g>
</g>
</svg>
