<?xml version="1.0" encoding="UTF-8" standalone="no"?>
<!DOCTYPE svg PUBLIC "-//W3C//DTD SVG 1.1//EN"
 "http://www.w3.org/Graphics/SVG/1.1/DTD/svg11.dtd">
<!-- Generated by graphviz version 2.40.1 (20161225.0304)
 -->
<!-- Title: A_CO_DB_Table_Base\_write_to_db Pages: 1 -->
<!--zoomable 645 -->
<svg id="main" version="1.1" xmlns="http://www.w3.org/2000/svg" xmlns:xlink="http://www.w3.org/1999/xlink" xml:space="preserve" onload="init(evt)">
<style type="text/css"><![CDATA[
.edge:hover path { stroke: red; }
.edge:hover polygon { stroke: red; fill: red; }
]]></style>
<script type="text/javascript"><![CDATA[
var edges = document.getElementsByTagName('g');
if (edges && edges.length) {
  for (var i=0;i<edges.length;i++) {
    if (edges[i].id.substr(0,4)=='edge') {
      edges[i].setAttribute('class','edge');
    }
  }
}
]]></script>
        <defs>
                <circle id="rim" cx="0" cy="0" r="7"/>
                <circle id="rim2" cx="0" cy="0" r="3.5"/>
                <g id="zoomPlus">
                        <use xlink:href="#rim" fill="#404040">
                                <set attributeName="fill" to="#808080" begin="zoomplus.mouseover" end="zoomplus.mouseout"/>
                        </use>
                        <path d="M-4,0h8M0,-4v8" fill="none" stroke="white" stroke-width="1.5" pointer-events="none"/>
                </g>
                <g id="zoomMin">
                        <use xlink:href="#rim" fill="#404040">
                                <set attributeName="fill" to="#808080" begin="zoomminus.mouseover" end="zoomminus.mouseout"/>
                        </use>
                        <path d="M-4,0h8" fill="none" stroke="white" stroke-width="1.5" pointer-events="none"/>
                </g>
                <g id="dirArrow">
                        <path fill="none" stroke="white" stroke-width="1.5" d="M0,-3.0v7 M-2.5,-0.5L0,-3.0L2.5,-0.5"/>
                </g>
               <g id="resetDef">
                       <use xlink:href="#rim2" fill="#404040">
                               <set attributeName="fill" to="#808080" begin="reset.mouseover" end="reset.mouseout"/>
                       </use>
               </g>
        </defs>

<script type="text/javascript">
var viewWidth = 677;
var viewHeight = 645;
var sectionId = 'dynsection-10';
</script>
<script xlink:href="svgpan.js"/>
<svg id="graph" class="graph">
<g id="viewport">
<title>A_CO_DB_Table_Base\_write_to_db</title>
<polygon fill="#ffffff" stroke="transparent" points="-4,4 -4,-641 673.4951,-641 673.4951,4 -4,4"/>
<!-- Node1 -->
<g id="node1" class="node">
<title>Node1</title>
<g id="a_node1"><a xlink:title=" ">
<polygon fill="#bfbfbf" stroke="#000000" points="548.9883,-332.5 548.9883,-360.5 669.4951,-360.5 669.4951,-332.5 548.9883,-332.5"/>
<text text-anchor="start" x="556.9883" y="-348.5" font-family="Helvetica,sans-Serif" font-size="10.00" fill="#000000">A_CO_DB_Table_Base</text>
<text text-anchor="middle" x="609.2417" y="-338.5" font-family="Helvetica,sans-Serif" font-size="10.00" fill="#000000">\_write_to_db</text>
</a>
</g>
</g>
<!-- Node2 -->
<g id="node2" class="node">
<title>Node2</title>
<g id="a_node2"><a xlink:href="a00340.html#ae927630811dae37fddc34b16878c63fd" target="_top" xlink:title=" ">
<polygon fill="#ffffff" stroke="#000000" points="380.25,-356.5 380.25,-384.5 512.9883,-384.5 512.9883,-356.5 380.25,-356.5"/>
<text text-anchor="start" x="388.25" y="-372.5" font-family="Helvetica,sans-Serif" font-size="10.00" fill="#000000">CO_Security_Login\delete</text>
<text text-anchor="middle" x="446.6191" y="-362.5" font-family="Helvetica,sans-Serif" font-size="10.00" fill="#000000">_from_db</text>
</a>
</g>
</g>
<!-- Node1&#45;&gt;Node2 -->
<g id="edge1" class="edge">
<title>Node1&#45;&gt;Node2</title>
<path fill="none" stroke="#191970" d="M538.5376,-356.9346C530.1341,-358.1748 521.5769,-359.4377 513.2332,-360.669"/>
<polygon fill="#191970" stroke="#191970" points="539.3052,-360.3593 548.6871,-355.4367 538.2832,-353.4343 539.3052,-360.3593"/>
</g>
<!-- Node3 -->
<g id="node3" class="node">
<title>Node3</title>
<g id="a_node3"><a xlink:href="a00308.html#a7487697640051c6661b8cdca6f109959" target="_top" xlink:title=" ">
<polygon fill="#ffffff" stroke="#000000" points="386.3657,-309.5 386.3657,-337.5 506.8726,-337.5 506.8726,-309.5 386.3657,-309.5"/>
<text text-anchor="start" x="394.3657" y="-325.5" font-family="Helvetica,sans-Serif" font-size="10.00" fill="#000000">A_CO_DB_Table_Base</text>
<text text-anchor="middle" x="446.6191" y="-315.5" font-family="Helvetica,sans-Serif" font-size="10.00" fill="#000000">\update_db</text>
</a>
</g>
</g>
<!-- Node1&#45;&gt;Node3 -->
<g id="edge2" class="edge">
<title>Node1&#45;&gt;Node3</title>
<path fill="none" stroke="#191970" d="M538.6566,-336.517C528.0914,-335.0228 517.2802,-333.4937 506.9535,-332.0332"/>
<polygon fill="#191970" stroke="#191970" points="538.2954,-340.0007 548.6871,-337.9356 539.2758,-333.0697 538.2954,-340.0007"/>
</g>
<!-- Node4 -->
<g id="node4" class="node">
<title>Node4</title>
<g id="a_node4"><a xlink:href="a00340.html#a0d11bc2cb9f23f091615dd5918dd2abb" target="_top" xlink:title=" ">
<polygon fill="#ffffff" stroke="#000000" points="198.4551,-618.5 198.4551,-636.5 333.9766,-636.5 333.9766,-618.5 198.4551,-618.5"/>
<text text-anchor="middle" x="266.2158" y="-624.5" font-family="Helvetica,sans-Serif" font-size="10.00" fill="#000000">CO_Security_Login\add_id</text>
</a>
</g>
</g>
<!-- Node3&#45;&gt;Node4 -->
<g id="edge3" class="edge">
<title>Node3&#45;&gt;Node4</title>
<path fill="none" stroke="#191970" d="M383.4051,-344.0215C382.2921,-345.121 381.2373,-346.2795 380.25,-347.5 306.326,-438.8814 423.5327,-522.727 344.25,-609.5 340.9676,-613.0925 337.1242,-616.0391 332.9344,-618.4493"/>
<polygon fill="#191970" stroke="#191970" points="385.8491,-346.5497 391.4974,-337.586 381.4921,-341.071 385.8491,-346.5497"/>
</g>
<!-- Node5 -->
<g id="node5" class="node">
<title>Node5</title>
<g id="a_node5"><a xlink:href="a00340.html#a59e2e5be376349924698305603bfb51f" target="_top" xlink:title=" ">
<polygon fill="#ffffff" stroke="#000000" points="202.6323,-571.5 202.6323,-599.5 329.7993,-599.5 329.7993,-571.5 202.6323,-571.5"/>
<text text-anchor="start" x="210.6323" y="-587.5" font-family="Helvetica,sans-Serif" font-size="10.00" fill="#000000">CO_Security_Login\clear</text>
<text text-anchor="middle" x="266.2158" y="-577.5" font-family="Helvetica,sans-Serif" font-size="10.00" fill="#000000">_api_key</text>
</a>
</g>
</g>
<!-- Node3&#45;&gt;Node5 -->
<g id="edge4" class="edge">
<title>Node3&#45;&gt;Node5</title>
<path fill="none" stroke="#191970" d="M383.4533,-344.0611C382.3259,-345.1488 381.2552,-346.2941 380.25,-347.5 318.2163,-421.9223 408.5011,-489.9833 344.25,-562.5 340.2225,-567.0457 335.3463,-570.7132 330.0202,-573.6693"/>
<polygon fill="#191970" stroke="#191970" points="385.8907,-346.5985 391.6179,-337.685 381.5822,-341.0814 385.8907,-346.5985"/>
</g>
<!-- Node6 -->
<g id="node6" class="node">
<title>Node6</title>
<g id="a_node6"><a xlink:href="a00308.html#ab976e4ab55890095fc60406326b5de80" target="_top" xlink:title=" ">
<polygon fill="#ffffff" stroke="#000000" points="205.9624,-524.5 205.9624,-552.5 326.4692,-552.5 326.4692,-524.5 205.9624,-524.5"/>
<text text-anchor="start" x="213.9624" y="-540.5" font-family="Helvetica,sans-Serif" font-size="10.00" fill="#000000">A_CO_DB_Table_Base</text>
<text text-anchor="middle" x="266.2158" y="-530.5" font-family="Helvetica,sans-Serif" font-size="10.00" fill="#000000">\clear_batch_mode</text>
</a>
</g>
</g>
<!-- Node3&#45;&gt;Node6 -->
<g id="edge5" class="edge">
<title>Node3&#45;&gt;Node6</title>
<path fill="none" stroke="#191970" d="M383.9661,-343.7192C382.656,-344.9082 381.413,-346.1671 380.25,-347.5 330.0446,-405.0372 396.1686,-459.5039 344.25,-515.5 339.3526,-520.7821 333.3094,-524.8724 326.7714,-528.0362"/>
<polygon fill="#191970" stroke="#191970" points="386.1894,-346.4274 392.116,-337.6453 382.0063,-340.8148 386.1894,-346.4274"/>
</g>
<!-- Node7 -->
<g id="node7" class="node">
<title>Node7</title>
<g id="a_node7"><a xlink:href="a00340.html#a1a141bb2d1d8b67737119e0729c7d159" target="_top" xlink:title=" ">
<polygon fill="#ffffff" stroke="#000000" points="197.6274,-487.5 197.6274,-505.5 334.8042,-505.5 334.8042,-487.5 197.6274,-487.5"/>
<text text-anchor="middle" x="266.2158" y="-493.5" font-family="Helvetica,sans-Serif" font-size="10.00" fill="#000000">CO_Security_Login\set_ids</text>
</a>
</g>
</g>
<!-- Node3&#45;&gt;Node7 -->
<g id="edge6" class="edge">
<title>Node3&#45;&gt;Node7</title>
<path fill="none" stroke="#191970" d="M384.1623,-343.7264C382.7877,-344.9134 381.4792,-346.1699 380.25,-347.5 339.2692,-391.8441 387.822,-436.6992 344.25,-478.5 340.5378,-482.0613 336.2686,-484.9692 331.6809,-487.3381"/>
<polygon fill="#191970" stroke="#191970" points="386.5572,-346.3173 392.6649,-337.6602 382.4916,-340.6189 386.5572,-346.3173"/>
</g>
<!-- Node9 -->
<g id="node9" class="node">
<title>Node9</title>
<g id="a_node9"><a xlink:href="a00308.html#a1ed093545fa1cbc3f63a672cdf424734" target="_top" xlink:title=" ">
<polygon fill="#ffffff" stroke="#000000" points="205.9624,-440.5 205.9624,-468.5 326.4692,-468.5 326.4692,-440.5 205.9624,-440.5"/>
<text text-anchor="start" x="213.9624" y="-456.5" font-family="Helvetica,sans-Serif" font-size="10.00" fill="#000000">A_CO_DB_Table_Base</text>
<text text-anchor="middle" x="266.2158" y="-446.5" font-family="Helvetica,sans-Serif" font-size="10.00" fill="#000000">\set_lang</text>
</a>
</g>
</g>
<!-- Node3&#45;&gt;Node9 -->
<g id="edge8" class="edge">
<title>Node3&#45;&gt;Node9</title>
<path fill="none" stroke="#191970" d="M385.5524,-343.0836C383.6911,-344.4585 381.9153,-345.9285 380.25,-347.5 350.7097,-375.3774 374.618,-404.5267 344.25,-431.5 339.0757,-436.0959 333.0233,-439.7751 326.6185,-442.72"/>
<polygon fill="#191970" stroke="#191970" points="387.5893,-345.9371 394.1836,-337.6446 383.8573,-340.0149 387.5893,-345.9371"/>
</g>
<!-- Node10 -->
<g id="node10" class="node">
<title>Node10</title>
<g id="a_node10"><a xlink:href="a00340.html#a061f896c69dc8a8dd3d9ee793b91ddc7" target="_top" xlink:title=" ">
<polygon fill="#ffffff" stroke="#000000" points="194.5659,-403.5 194.5659,-421.5 337.8657,-421.5 337.8657,-403.5 194.5659,-403.5"/>
<text text-anchor="middle" x="266.2158" y="-409.5" font-family="Helvetica,sans-Serif" font-size="10.00" fill="#000000">CO_Security_Login\set_lang</text>
</a>
</g>
</g>
<!-- Node3&#45;&gt;Node10 -->
<g id="edge9" class="edge">
<title>Node3&#45;&gt;Node10</title>
<path fill="none" stroke="#191970" d="M388.5524,-342.1565C385.6581,-343.8033 382.8697,-345.5816 380.25,-347.5 359.021,-363.0459 366.375,-380.2582 344.25,-394.5 338.5215,-398.1874 332.1271,-401.1227 325.5315,-403.4586"/>
<polygon fill="#191970" stroke="#191970" points="390.1689,-345.2611 397.4897,-337.6023 386.9907,-339.0241 390.1689,-345.2611"/>
</g>
<!-- Node11 -->
<g id="node11" class="node">
<title>Node11</title>
<g id="a_node11"><a xlink:href="a00308.html#a92a9b9a122e9471b82dd79432bf3c929" target="_top" xlink:title=" ">
<polygon fill="#ffffff" stroke="#000000" points="205.9624,-356.5 205.9624,-384.5 326.4692,-384.5 326.4692,-356.5 205.9624,-356.5"/>
<text text-anchor="start" x="213.9624" y="-372.5" font-family="Helvetica,sans-Serif" font-size="10.00" fill="#000000">A_CO_DB_Table_Base</text>
<text text-anchor="middle" x="266.2158" y="-362.5" font-family="Helvetica,sans-Serif" font-size="10.00" fill="#000000">\set_name</text>
</a>
</g>
</g>
<!-- Node3&#45;&gt;Node11 -->
<g id="edge10" class="edge">
<title>Node3&#45;&gt;Node11</title>
<path fill="none" stroke="#191970" d="M382.6155,-340.1747C362.1308,-345.5115 339.6722,-351.3626 319.9935,-356.4894"/>
<polygon fill="#191970" stroke="#191970" points="383.6976,-343.5097 392.4922,-337.6015 381.9328,-336.7358 383.6976,-343.5097"/>
</g>
<!-- Node12 -->
<g id="node12" class="node">
<title>Node12</title>
<g id="a_node12"><a xlink:href="a00316.html#a6349c04b5a027e23f0b8bd8810579844" target="_top" xlink:title=" ">
<polygon fill="#ffffff" stroke="#000000" points="200.4131,-309.5 200.4131,-337.5 332.0186,-337.5 332.0186,-309.5 200.4131,-309.5"/>
<text text-anchor="start" x="208.4131" y="-325.5" font-family="Helvetica,sans-Serif" font-size="10.00" fill="#000000">CO_Main_DB_Record\set</text>
<text text-anchor="middle" x="266.2158" y="-315.5" font-family="Helvetica,sans-Serif" font-size="10.00" fill="#000000">_owner_id</text>
</a>
</g>
</g>
<!-- Node3&#45;&gt;Node12 -->
<g id="edge11" class="edge">
<title>Node3&#45;&gt;Node12</title>
<path fill="none" stroke="#191970" d="M375.9245,-323.5C361.4789,-323.5 346.3323,-323.5 332.0644,-323.5"/>
<polygon fill="#191970" stroke="#191970" points="376.2967,-327.0001 386.2966,-323.5 376.2966,-320.0001 376.2967,-327.0001"/>
</g>
<!-- Node13 -->
<g id="node13" class="node">
<title>Node13</title>
<g id="a_node13"><a xlink:href="a00340.html#ac4f0c16cb8cf1e2151451bf4d5cb2238" target="_top" xlink:title=" ">
<polygon fill="#ffffff" stroke="#000000" points="199.5781,-262.5 199.5781,-290.5 332.8535,-290.5 332.8535,-262.5 199.5781,-262.5"/>
<text text-anchor="start" x="207.5781" y="-278.5" font-family="Helvetica,sans-Serif" font-size="10.00" fill="#000000">CO_Security_Login\set</text>
<text text-anchor="middle" x="266.2158" y="-268.5" font-family="Helvetica,sans-Serif" font-size="10.00" fill="#000000">_password_from_cleartext</text>
</a>
</g>
</g>
<!-- Node3&#45;&gt;Node13 -->
<g id="edge12" class="edge">
<title>Node3&#45;&gt;Node13</title>
<path fill="none" stroke="#191970" d="M382.6155,-306.8253C362.1308,-301.4885 339.6722,-295.6374 319.9935,-290.5106"/>
<polygon fill="#191970" stroke="#191970" points="381.9328,-310.2642 392.4922,-309.3985 383.6976,-303.4903 381.9328,-310.2642"/>
</g>
<!-- Node14 -->
<g id="node14" class="node">
<title>Node14</title>
<g id="a_node14"><a xlink:href="a00316.html#a7860101403a734329dd8c1079f5d367e" target="_top" xlink:title=" ">
<polygon fill="#ffffff" stroke="#000000" points="200.4131,-215.5 200.4131,-243.5 332.0186,-243.5 332.0186,-215.5 200.4131,-215.5"/>
<text text-anchor="start" x="208.4131" y="-231.5" font-family="Helvetica,sans-Serif" font-size="10.00" fill="#000000">CO_Main_DB_Record\set</text>
<text text-anchor="middle" x="266.2158" y="-221.5" font-family="Helvetica,sans-Serif" font-size="10.00" fill="#000000">_payload</text>
</a>
</g>
</g>
<!-- Node3&#45;&gt;Node14 -->
<g id="edge13" class="edge">
<title>Node3&#45;&gt;Node14</title>
<path fill="none" stroke="#191970" d="M421.5366,-303.1551C401.5803,-287.7814 372.4219,-267.0764 344.25,-253.5 336.4612,-249.7465 327.9536,-246.4191 319.5121,-243.5278"/>
<polygon fill="#191970" stroke="#191970" points="419.4631,-305.9768 429.4962,-309.3812 423.7759,-300.4632 419.4631,-305.9768"/>
</g>
<!-- Node15 -->
<g id="node15" class="node">
<title>Node15</title>
<g id="a_node15"><a xlink:href="a00340.html#a8d18fed2a089c920e67802253be3cd68" target="_top" xlink:title=" ">
<polygon fill="#ffffff" stroke="#000000" points="206.7998,-168.5 206.7998,-196.5 325.6318,-196.5 325.6318,-168.5 206.7998,-168.5"/>
<text text-anchor="start" x="214.7998" y="-184.5" font-family="Helvetica,sans-Serif" font-size="10.00" fill="#000000">CO_Security_Login\set</text>
<text text-anchor="middle" x="266.2158" y="-174.5" font-family="Helvetica,sans-Serif" font-size="10.00" fill="#000000">_personal_ids</text>
</a>
</g>
</g>
<!-- Node3&#45;&gt;Node15 -->
<g id="edge14" class="edge">
<title>Node3&#45;&gt;Node15</title>
<path fill="none" stroke="#191970" d="M432.4678,-300.7745C414.9025,-274.3883 382.5385,-231.3228 344.25,-206.5 338.3034,-202.6448 331.7029,-199.38 324.9309,-196.622"/>
<polygon fill="#191970" stroke="#191970" points="429.6625,-302.8807 438.0492,-309.3548 435.5303,-299.0637 429.6625,-302.8807"/>
</g>
<!-- Node16 -->
<g id="node16" class="node">
<title>Node16</title>
<g id="a_node16"><a xlink:href="a00308.html#a3d4d1ab7910b9ccfdf8654d767e01d9b" target="_top" xlink:title=" ">
<polygon fill="#ffffff" stroke="#000000" points="205.9624,-121.5 205.9624,-149.5 326.4692,-149.5 326.4692,-121.5 205.9624,-121.5"/>
<text text-anchor="start" x="213.9624" y="-137.5" font-family="Helvetica,sans-Serif" font-size="10.00" fill="#000000">A_CO_DB_Table_Base</text>
<text text-anchor="middle" x="266.2158" y="-127.5" font-family="Helvetica,sans-Serif" font-size="10.00" fill="#000000">\set_read_security_id</text>
</a>
</g>
</g>
<!-- Node3&#45;&gt;Node16 -->
<g id="edge15" class="edge">
<title>Node3&#45;&gt;Node16</title>
<path fill="none" stroke="#191970" d="M438.0487,-299.6653C423.9958,-263.9427 392.6811,-196.7453 344.25,-159.5 338.9693,-155.4389 332.9973,-152.0601 326.7659,-149.2498"/>
<polygon fill="#191970" stroke="#191970" points="434.8749,-301.1659 441.7055,-309.2649 441.4164,-298.674 434.8749,-301.1659"/>
</g>
<!-- Node17 -->
<g id="node17" class="node">
<title>Node17</title>
<g id="a_node17"><a xlink:href="a00316.html#a1f9581fbd4aa2611da866405d446295c" target="_top" xlink:title=" ">
<polygon fill="#ffffff" stroke="#000000" points="190.6816,-84.5 190.6816,-102.5 341.75,-102.5 341.75,-84.5 190.6816,-84.5"/>
<text text-anchor="middle" x="266.2158" y="-90.5" font-family="Helvetica,sans-Serif" font-size="10.00" fill="#000000">CO_Main_DB_Record\set_tag</text>
</a>
</g>
</g>
<!-- Node3&#45;&gt;Node17 -->
<g id="edge16" class="edge">
<title>Node3&#45;&gt;Node17</title>
<path fill="none" stroke="#191970" d="M441.984,-299.5255C432.1645,-255.4339 404.99,-161.514 344.25,-112.5 339.15,-108.3846 333.2924,-105.1398 327.1272,-102.5848"/>
<polygon fill="#191970" stroke="#191970" points="438.5714,-300.3051 444.0681,-309.3625 445.4194,-298.8542 438.5714,-300.3051"/>
</g>
<!-- Node18 -->
<g id="node18" class="node">
<title>Node18</title>
<g id="a_node18"><a xlink:href="a00316.html#a84074211704eba98c263bd7122cd13f7" target="_top" xlink:title=" ">
<polygon fill="#ffffff" stroke="#000000" points="188.1816,-47.5 188.1816,-65.5 344.25,-65.5 344.25,-47.5 188.1816,-47.5"/>
<text text-anchor="middle" x="266.2158" y="-53.5" font-family="Helvetica,sans-Serif" font-size="10.00" fill="#000000">CO_Main_DB_Record\set_tags</text>
</a>
</g>
</g>
<!-- Node3&#45;&gt;Node18 -->
<g id="edge17" class="edge">
<title>Node3&#45;&gt;Node18</title>
<path fill="none" stroke="#191970" d="M443.8713,-299.2931C436.8849,-249.4691 413.7622,-135.1365 344.25,-75.5 339.4879,-71.4144 333.9887,-68.1781 328.1589,-65.6187"/>
<polygon fill="#191970" stroke="#191970" points="440.4305,-299.9749 445.1926,-309.4392 447.3718,-299.0709 440.4305,-299.9749"/>
</g>
<!-- Node20 -->
<g id="node20" class="node">
<title>Node20</title>
<g id="a_node20"><a xlink:href="a00308.html#a55eae92ef3e2f47689019e174f29daf1" target="_top" xlink:title=" ">
<polygon fill="#ffffff" stroke="#000000" points="205.9624,-.5 205.9624,-28.5 326.4692,-28.5 326.4692,-.5 205.9624,-.5"/>
<text text-anchor="start" x="213.9624" y="-16.5" font-family="Helvetica,sans-Serif" font-size="10.00" fill="#000000">A_CO_DB_Table_Base</text>
<text text-anchor="middle" x="266.2158" y="-6.5" font-family="Helvetica,sans-Serif" font-size="10.00" fill="#000000">\set_write_security_id</text>
</a>
</g>
</g>
<!-- Node3&#45;&gt;Node20 -->
<g id="edge19" class="edge">
<title>Node3&#45;&gt;Node20</title>
<path fill="none" stroke="#191970" d="M445.0006,-299.1459C440.0474,-244.4901 420.3869,-111.1791 344.25,-38.5 339.1237,-33.6065 333.0231,-29.7091 326.5244,-26.6052"/>
<polygon fill="#191970" stroke="#191970" points="441.5255,-299.595 445.8286,-309.2766 448.5023,-299.0247 441.5255,-299.595"/>
</g>
<!-- Node8 -->
<g id="node8" class="node">
<title>Node8</title>
<g id="a_node8"><a xlink:href="a00340.html#a985325996e8392412a6782569b294176" target="_top" xlink:title=" ">
<polygon fill="#ffffff" stroke="#000000" points="0,-487.5 0,-505.5 152.1816,-505.5 152.1816,-487.5 0,-487.5"/>
<text text-anchor="middle" x="76.0908" y="-493.5" font-family="Helvetica,sans-Serif" font-size="10.00" fill="#000000">CO_Security_Login\remove_id</text>
</a>
</g>
</g>
<!-- Node7&#45;&gt;Node8 -->
<g id="edge7" class="edge">
<title>Node7&#45;&gt;Node8</title>
<path fill="none" stroke="#191970" d="M187.4771,-496.5C175.8662,-496.5 163.9203,-496.5 152.3606,-496.5"/>
<polygon fill="#191970" stroke="#191970" points="187.5764,-500.0001 197.5763,-496.5 187.5763,-493.0001 187.5764,-500.0001"/>
</g>
<!-- Node19 -->
<g id="node19" class="node">
<title>Node19</title>
<g id="a_node19"><a xlink:href="a00260.html#a887a876b0603db0289a8bdc7ab4e66b2" target="_top" xlink:title=" ">
<polygon fill="#ffffff" stroke="#000000" points="12.2314,-42.5 12.2314,-70.5 139.9502,-70.5 139.9502,-42.5 12.2314,-42.5"/>
<text text-anchor="start" x="20.2314" y="-58.5" font-family="Helvetica,sans-Serif" font-size="10.00" fill="#000000">CO_Place\set_tags_from</text>
<text text-anchor="middle" x="76.0908" y="-48.5" font-family="Helvetica,sans-Serif" font-size="10.00" fill="#000000">_address_elements</text>
</a>
</g>
</g>
<!-- Node18&#45;&gt;Node19 -->
<g id="edge18" class="edge">
<title>Node18&#45;&gt;Node19</title>
<path fill="none" stroke="#191970" d="M177.8807,-56.5C165.1204,-56.5 152.1976,-56.5 140.0382,-56.5"/>
<polygon fill="#191970" stroke="#191970" points="178.0617,-60.0001 188.0616,-56.5 178.0616,-53.0001 178.0617,-60.0001"/>
</g>
</g>
</svg>
        <g id="navigator" transform="translate(0 0)" fill="#404254">
                <rect fill="#f2f5e9" fill-opacity="0.5" stroke="#606060" stroke-width=".5" x="0" y="0" width="60" height="60"/>
                <use id="zoomplus" xlink:href="#zoomPlus" x="17" y="9" onmousedown="handleZoom(evt,'in')"/>
                <use id="zoomminus" xlink:href="#zoomMin" x="42" y="9" onmousedown="handleZoom(evt,'out')"/>
                <use id="reset" xlink:href="#resetDef" x="30" y="36" onmousedown="handleReset()"/>
                <g id="arrowUp" xlink:href="#dirArrow" transform="translate(30 24)" onmousedown="handlePan(0,-1)">
                  <use xlink:href="#rim" fill="#404040">
                        <set attributeName="fill" to="#808080" begin="arrowUp.mouseover" end="arrowUp.mouseout"/>
                  </use>
                  <path fill="none" stroke="white" stroke-width="1.5" d="M0,-3.0v7 M-2.5,-0.5L0,-3.0L2.5,-0.5"/>
                </g>
                <g id="arrowRight" xlink:href="#dirArrow" transform="rotate(90) translate(36 -43)" onmousedown="handlePan(1,0)">
                  <use xlink:href="#rim" fill="#404040">
                        <set attributeName="fill" to="#808080" begin="arrowRight.mouseover" end="arrowRight.mouseout"/>
                  </use>
                  <path fill="none" stroke="white" stroke-width="1.5" d="M0,-3.0v7 M-2.5,-0.5L0,-3.0L2.5,-0.5"/>
                </g>
                <g id="arrowDown" xlink:href="#dirArrow" transform="rotate(180) translate(-30 -48)" onmousedown="handlePan(0,1)">
                  <use xlink:href="#rim" fill="#404040">
                        <set attributeName="fill" to="#808080" begin="arrowDown.mouseover" end="arrowDown.mouseout"/>
                  </use>
                  <path fill="none" stroke="white" stroke-width="1.5" d="M0,-3.0v7 M-2.5,-0.5L0,-3.0L2.5,-0.5"/>
                </g>
                <g id="arrowLeft" xlink:href="#dirArrow" transform="rotate(270) translate(-36 17)" onmousedown="handlePan(-1,0)">
                  <use xlink:href="#rim" fill="#404040">
                        <set attributeName="fill" to="#808080" begin="arrowLeft.mouseover" end="arrowLeft.mouseout"/>
                  </use>
                  <path fill="none" stroke="white" stroke-width="1.5" d="M0,-3.0v7 M-2.5,-0.5L0,-3.0L2.5,-0.5"/>
                </g>
        </g>
        <svg viewBox="0 0 15 15" width="100%" height="30px" preserveAspectRatio="xMaxYMin meet">
         <g id="arrow_out" transform="scale(0.3 0.3)">
          <a xlink:href="a00308_adda14b544e11934db3bf8130aeea0610_icgraph_org.svg" target="_base">
           <rect id="button" ry="5" rx="5" y="6" x="6" height="38" width="38"
                fill="#f2f5e9" fill-opacity="0.5" stroke="#606060" stroke-width="1.0"/>
           <path id="arrow"
             d="M 11.500037,31.436501 C 11.940474,20.09759 22.043105,11.32322 32.158766,21.979434 L 37.068811,17.246167 C 37.068811,17.246167 37.088388,32 37.088388,32 L 22.160133,31.978069 C 22.160133,31.978069 26.997745,27.140456 26.997745,27.140456 C 18.528582,18.264221 13.291696,25.230495 11.500037,31.436501 z"
             style="fill:#404040;"/>
          </a>
         </g>
        </svg>
</svg>
