<?xml version="1.0" encoding="UTF-8" standalone="no"?>
<!DOCTYPE svg PUBLIC "-//W3C//DTD SVG 1.1//EN"
 "http://www.w3.org/Graphics/SVG/1.1/DTD/svg11.dtd">
<!-- Generated by graphviz version 2.40.1 (20161225.0304)
 -->
<!-- Title: A_CO_DB_Table_Base\user_can_write Pages: 1 -->
<!--zoomable 927 -->
<svg id="main" version="1.1" xmlns="http://www.w3.org/2000/svg" xmlns:xlink="http://www.w3.org/1999/xlink" xml:space="preserve" onload="init(evt)">
<style type="text/css"><![CDATA[
.edge:hover path { stroke: red; }
.edge:hover polygon { stroke: red; fill: red; }
]]></style>
<script type="text/javascript"><![CDATA[
var edges = document.getElementsByTagName('g');
if (edges && edges.length) {
  for (var i=0;i<edges.length;i++) {
    if (edges[i].id.substr(0,4)=='edge') {
      edges[i].setAttribute('class','edge');
    }
  }
}
]]></script>
        <defs>
                <circle id="rim" cx="0" cy="0" r="7"/>
                <circle id="rim2" cx="0" cy="0" r="3.5"/>
                <g id="zoomPlus">
                        <use xlink:href="#rim" fill="#404040">
                                <set attributeName="fill" to="#808080" begin="zoomplus.mouseover" end="zoomplus.mouseout"/>
                        </use>
                        <path d="M-4,0h8M0,-4v8" fill="none" stroke="white" stroke-width="1.5" pointer-events="none"/>
                </g>
                <g id="zoomMin">
                        <use xlink:href="#rim" fill="#404040">
                                <set attributeName="fill" to="#808080" begin="zoomminus.mouseover" end="zoomminus.mouseout"/>
                        </use>
                        <path d="M-4,0h8" fill="none" stroke="white" stroke-width="1.5" pointer-events="none"/>
                </g>
                <g id="dirArrow">
                        <path fill="none" stroke="white" stroke-width="1.5" d="M0,-3.0v7 M-2.5,-0.5L0,-3.0L2.5,-0.5"/>
                </g>
               <g id="resetDef">
                       <use xlink:href="#rim2" fill="#404040">
                               <set attributeName="fill" to="#808080" begin="reset.mouseover" end="reset.mouseout"/>
                       </use>
               </g>
        </defs>

<script type="text/javascript">
var viewWidth = 665;
var viewHeight = 927;
var sectionId = 'dynsection-26';
</script>
<script xlink:href="svgpan.js"/>
<svg id="graph" class="graph">
<g id="viewport">
<title>A_CO_DB_Table_Base\user_can_write</title>
<polygon fill="#ffffff" stroke="transparent" points="-4,4 -4,-923 660.7021,-923 660.7021,4 -4,4"/>
<!-- Node264 -->
<g id="node1" class="node">
<title>Node264</title>
<polygon fill="#bfbfbf" stroke="#000000" points="0,-640.5 0,-668.5 120.5068,-668.5 120.5068,-640.5 0,-640.5"/>
<text text-anchor="start" x="8" y="-656.5" font-family="Helvetica,sans-Serif" font-size="10.00" fill="#000000">A_CO_DB_Table_Base</text>
<text text-anchor="middle" x="60.2534" y="-646.5" font-family="Helvetica,sans-Serif" font-size="10.00" fill="#000000">\user_can_write</text>
</g>
<!-- Node265 -->
<g id="node2" class="node">
<title>Node265</title>
<g id="a_node2"><a xlink:href="a00311.html#a6fa77e9fd744981d4a9d7cac37ddf1bf" target="_top" xlink:title="A_CO_DB_Table_Base\l\\delete_from_db">
<polygon fill="#ffffff" stroke="#000000" points="156.5068,-844.5 156.5068,-872.5 277.0137,-872.5 277.0137,-844.5 156.5068,-844.5"/>
<text text-anchor="start" x="164.5068" y="-860.5" font-family="Helvetica,sans-Serif" font-size="10.00" fill="#000000">A_CO_DB_Table_Base</text>
<text text-anchor="middle" x="216.7603" y="-850.5" font-family="Helvetica,sans-Serif" font-size="10.00" fill="#000000">\delete_from_db</text>
</a>
</g>
</g>
<!-- Node264&#45;&gt;Node265 -->
<g id="edge1" class="edge">
<title>Node264&#45;&gt;Node265</title>
<path fill="none" stroke="#191970" d="M67.0383,-678.7117C78.9735,-717.0939 107.2475,-792.0036 156.5068,-835.5 160.3677,-838.9091 164.7865,-841.8357 169.438,-844.3431"/>
<polygon fill="#191970" stroke="#191970" points="70.3247,-677.4855 64.1014,-668.9111 63.6193,-679.4949 70.3247,-677.4855"/>
</g>
<!-- Node266 -->
<g id="node3" class="node">
<title>Node266</title>
<g id="a_node3"><a xlink:href="a00279.html#a3ae822685b2b8ca8af56d8ea4c4a2a6c" target="_top" xlink:title="CO_User_Collection\l\\delete_from_db">
<polygon fill="#ffffff" stroke="#000000" points="163.1865,-797.5 163.1865,-825.5 270.334,-825.5 270.334,-797.5 163.1865,-797.5"/>
<text text-anchor="start" x="171.1865" y="-813.5" font-family="Helvetica,sans-Serif" font-size="10.00" fill="#000000">CO_User_Collection</text>
<text text-anchor="middle" x="216.7603" y="-803.5" font-family="Helvetica,sans-Serif" font-size="10.00" fill="#000000">\delete_from_db</text>
</a>
</g>
</g>
<!-- Node264&#45;&gt;Node266 -->
<g id="edge2" class="edge">
<title>Node264&#45;&gt;Node266</title>
<path fill="none" stroke="#191970" d="M72.9277,-677.5572C89.2074,-705.4365 119.7874,-752.3602 156.5068,-782.5 163.5959,-788.3188 172.0476,-793.3079 180.3458,-797.4254"/>
<polygon fill="#191970" stroke="#191970" points="75.78,-675.4942 67.7791,-668.5489 69.7026,-678.9677 75.78,-675.4942"/>
</g>
<!-- Node267 -->
<g id="node4" class="node">
<title>Node267</title>
<g id="a_node4"><a xlink:href="a00311.html#a1ed093545fa1cbc3f63a672cdf424734" target="_top" xlink:title="A_CO_DB_Table_Base\l\\set_lang">
<polygon fill="#ffffff" stroke="#000000" points="330.7944,-890.5 330.7944,-918.5 451.3013,-918.5 451.3013,-890.5 330.7944,-890.5"/>
<text text-anchor="start" x="338.7944" y="-906.5" font-family="Helvetica,sans-Serif" font-size="10.00" fill="#000000">A_CO_DB_Table_Base</text>
<text text-anchor="middle" x="391.0479" y="-896.5" font-family="Helvetica,sans-Serif" font-size="10.00" fill="#000000">\set_lang</text>
</a>
</g>
</g>
<!-- Node264&#45;&gt;Node267 -->
<g id="edge3" class="edge">
<title>Node264&#45;&gt;Node267</title>
<path fill="none" stroke="#191970" d="M78.0657,-676.2348C95.9804,-696.852 125.3475,-727.4353 156.5068,-746.5 204.8877,-776.1017 236.2324,-749.0811 277.0137,-788.5 308.8819,-819.3036 280.4044,-851.482 313.0137,-881.5 318.1055,-886.1872 324.1069,-889.9226 330.4833,-892.8991"/>
<polygon fill="#191970" stroke="#191970" points="80.7101,-673.9417 71.5595,-668.6014 75.3826,-678.4825 80.7101,-673.9417"/>
</g>
<!-- Node268 -->
<g id="node5" class="node">
<title>Node268</title>
<g id="a_node5"><a xlink:href="a00319.html#a6349c04b5a027e23f0b8bd8810579844" target="_top" xlink:title="CO_Main_DB_Record\\set\l_owner_id">
<polygon fill="#ffffff" stroke="#000000" points="325.2451,-843.5 325.2451,-871.5 456.8506,-871.5 456.8506,-843.5 325.2451,-843.5"/>
<text text-anchor="start" x="333.2451" y="-859.5" font-family="Helvetica,sans-Serif" font-size="10.00" fill="#000000">CO_Main_DB_Record\set</text>
<text text-anchor="middle" x="391.0479" y="-849.5" font-family="Helvetica,sans-Serif" font-size="10.00" fill="#000000">_owner_id</text>
</a>
</g>
</g>
<!-- Node264&#45;&gt;Node268 -->
<g id="edge4" class="edge">
<title>Node264&#45;&gt;Node268</title>
<path fill="none" stroke="#191970" d="M90.0085,-674.1385C108.6274,-685.9124 133.3894,-700.6535 156.5068,-711.5 207.988,-735.6546 235.2253,-715.932 277.0137,-754.5 305.6655,-780.9437 283.6313,-808.8705 313.0137,-834.5 316.9518,-837.9351 321.3817,-840.8578 326.0788,-843.3443"/>
<polygon fill="#191970" stroke="#191970" points="91.7054,-671.0692 81.3959,-668.6271 87.9323,-676.9653 91.7054,-671.0692"/>
</g>
<!-- Node269 -->
<g id="node6" class="node">
<title>Node269</title>
<g id="a_node6"><a xlink:href="a00319.html#a7860101403a734329dd8c1079f5d367e" target="_top" xlink:title="CO_Main_DB_Record\\set\l_payload">
<polygon fill="#ffffff" stroke="#000000" points="325.2451,-796.5 325.2451,-824.5 456.8506,-824.5 456.8506,-796.5 325.2451,-796.5"/>
<text text-anchor="start" x="333.2451" y="-812.5" font-family="Helvetica,sans-Serif" font-size="10.00" fill="#000000">CO_Main_DB_Record\set</text>
<text text-anchor="middle" x="391.0479" y="-802.5" font-family="Helvetica,sans-Serif" font-size="10.00" fill="#000000">_payload</text>
</a>
</g>
</g>
<!-- Node264&#45;&gt;Node269 -->
<g id="edge5" class="edge">
<title>Node264&#45;&gt;Node269</title>
<path fill="none" stroke="#191970" d="M128.2762,-671.0487C187.3485,-685.8915 265.2429,-706.784 277.0137,-716.5 304.2991,-739.0224 285.819,-764.8681 313.0137,-787.5 317.139,-790.9332 321.759,-793.8539 326.636,-796.3387"/>
<polygon fill="#191970" stroke="#191970" points="128.7797,-667.567 118.2294,-668.5368 127.0817,-674.3579 128.7797,-667.567"/>
</g>
<!-- Node270 -->
<g id="node7" class="node">
<title>Node270</title>
<g id="a_node7"><a xlink:href="a00311.html#a3d4d1ab7910b9ccfdf8654d767e01d9b" target="_top" xlink:title="A_CO_DB_Table_Base\l\\set_read_security_id">
<polygon fill="#ffffff" stroke="#000000" points="330.7944,-749.5 330.7944,-777.5 451.3013,-777.5 451.3013,-749.5 330.7944,-749.5"/>
<text text-anchor="start" x="338.7944" y="-765.5" font-family="Helvetica,sans-Serif" font-size="10.00" fill="#000000">A_CO_DB_Table_Base</text>
<text text-anchor="middle" x="391.0479" y="-755.5" font-family="Helvetica,sans-Serif" font-size="10.00" fill="#000000">\set_read_security_id</text>
</a>
</g>
</g>
<!-- Node264&#45;&gt;Node270 -->
<g id="edge6" class="edge">
<title>Node264&#45;&gt;Node270</title>
<path fill="none" stroke="#191970" d="M130.7798,-646.8229C176.0205,-645.4268 234.1037,-650.5397 277.0137,-678.5 303.7102,-695.8955 287.9528,-720.8211 313.0137,-740.5 318.3457,-744.6869 324.4216,-748.1123 330.7749,-750.9146"/>
<polygon fill="#191970" stroke="#191970" points="130.5918,-643.3276 120.7475,-647.2443 130.8857,-650.3214 130.5918,-643.3276"/>
</g>
<!-- Node271 -->
<g id="node8" class="node">
<title>Node271</title>
<g id="a_node8"><a xlink:href="a00319.html#a1f9581fbd4aa2611da866405d446295c" target="_top" xlink:title="CO_Main_DB_Record\\set_tag">
<polygon fill="#ffffff" stroke="#000000" points="315.5137,-413.5 315.5137,-431.5 466.582,-431.5 466.582,-413.5 315.5137,-413.5"/>
<text text-anchor="middle" x="391.0479" y="-419.5" font-family="Helvetica,sans-Serif" font-size="10.00" fill="#000000">CO_Main_DB_Record\set_tag</text>
</a>
</g>
</g>
<!-- Node264&#45;&gt;Node271 -->
<g id="edge7" class="edge">
<title>Node264&#45;&gt;Node271</title>
<path fill="none" stroke="#191970" d="M88.994,-634.4202C144.2849,-595.665 261.4026,-512.9168 277.0137,-496.5 297.1459,-475.3287 289.152,-458.3568 313.0137,-441.5 318.8217,-437.397 325.4126,-434.1747 332.244,-431.645"/>
<polygon fill="#191970" stroke="#191970" points="86.8593,-631.6422 80.676,-640.2456 90.8748,-637.3759 86.8593,-631.6422"/>
</g>
<!-- Node272 -->
<g id="node9" class="node">
<title>Node272</title>
<g id="a_node9"><a xlink:href="a00279.html#a9410d46a4cd780a042c738912e11a27d" target="_top" xlink:title="CO_User_Collection\l\\set_tag">
<polygon fill="#ffffff" stroke="#000000" points="163.1865,-165.5 163.1865,-193.5 270.334,-193.5 270.334,-165.5 163.1865,-165.5"/>
<text text-anchor="start" x="171.1865" y="-181.5" font-family="Helvetica,sans-Serif" font-size="10.00" fill="#000000">CO_User_Collection</text>
<text text-anchor="middle" x="216.7603" y="-171.5" font-family="Helvetica,sans-Serif" font-size="10.00" fill="#000000">\set_tag</text>
</a>
</g>
</g>
<!-- Node264&#45;&gt;Node272 -->
<g id="edge8" class="edge">
<title>Node264&#45;&gt;Node272</title>
<path fill="none" stroke="#191970" d="M68.0703,-630.7755C95.9495,-546.1619 190.0167,-260.6669 212.0946,-193.6604"/>
<polygon fill="#191970" stroke="#191970" points="64.7426,-629.6911 64.9374,-640.2842 71.391,-631.8818 64.7426,-629.6911"/>
</g>
<!-- Node280 -->
<g id="node17" class="node">
<title>Node280</title>
<g id="a_node17"><a xlink:href="a00319.html#a84074211704eba98c263bd7122cd13f7" target="_top" xlink:title="CO_Main_DB_Record\\set_tags">
<polygon fill="#ffffff" stroke="#000000" points="313.0137,-376.5 313.0137,-394.5 469.082,-394.5 469.082,-376.5 313.0137,-376.5"/>
<text text-anchor="middle" x="391.0479" y="-382.5" font-family="Helvetica,sans-Serif" font-size="10.00" fill="#000000">CO_Main_DB_Record\set_tags</text>
</a>
</g>
</g>
<!-- Node264&#45;&gt;Node280 -->
<g id="edge16" class="edge">
<title>Node264&#45;&gt;Node280</title>
<path fill="none" stroke="#191970" d="M70.1612,-630.9288C85.0187,-597.7488 115.7363,-536.8247 156.5068,-496.5 214.0343,-439.6016 237.9161,-433.6197 313.0137,-403.5 321.9175,-399.9289 331.6906,-396.9752 341.2175,-394.5655"/>
<polygon fill="#191970" stroke="#191970" points="66.8707,-629.7176 66.0658,-640.2818 73.283,-632.5253 66.8707,-629.7176"/>
</g>
<!-- Node282 -->
<g id="node19" class="node">
<title>Node282</title>
<g id="a_node19"><a xlink:href="a00311.html#a55eae92ef3e2f47689019e174f29daf1" target="_top" xlink:title="A_CO_DB_Table_Base\l\\set_write_security_id">
<polygon fill="#ffffff" stroke="#000000" points="330.7944,-329.5 330.7944,-357.5 451.3013,-357.5 451.3013,-329.5 330.7944,-329.5"/>
<text text-anchor="start" x="338.7944" y="-345.5" font-family="Helvetica,sans-Serif" font-size="10.00" fill="#000000">A_CO_DB_Table_Base</text>
<text text-anchor="middle" x="391.0479" y="-335.5" font-family="Helvetica,sans-Serif" font-size="10.00" fill="#000000">\set_write_security_id</text>
</a>
</g>
</g>
<!-- Node264&#45;&gt;Node282 -->
<g id="edge18" class="edge">
<title>Node264&#45;&gt;Node282</title>
<path fill="none" stroke="#191970" d="M63.0865,-630.076C69.9893,-581.7942 92.1248,-473.6992 156.5068,-414.5 204.3437,-370.5141 278.5968,-353.7413 330.7109,-347.3667"/>
<polygon fill="#191970" stroke="#191970" points="59.5866,-629.8445 61.7379,-640.2186 66.5255,-630.7672 59.5866,-629.8445"/>
</g>
<!-- Node283 -->
<g id="node20" class="node">
<title>Node283</title>
<g id="a_node20"><a xlink:href="a00311.html#a7487697640051c6661b8cdca6f109959" target="_top" xlink:title="A_CO_DB_Table_Base\l\\update_db">
<polygon fill="#ffffff" stroke="#000000" points="156.5068,-597.5 156.5068,-625.5 277.0137,-625.5 277.0137,-597.5 156.5068,-597.5"/>
<text text-anchor="start" x="164.5068" y="-613.5" font-family="Helvetica,sans-Serif" font-size="10.00" fill="#000000">A_CO_DB_Table_Base</text>
<text text-anchor="middle" x="216.7603" y="-603.5" font-family="Helvetica,sans-Serif" font-size="10.00" fill="#000000">\update_db</text>
</a>
</g>
</g>
<!-- Node264&#45;&gt;Node283 -->
<g id="edge19" class="edge">
<title>Node264&#45;&gt;Node283</title>
<path fill="none" stroke="#191970" d="M121.465,-637.6822C136.0909,-633.6638 151.5515,-629.416 165.6664,-625.538"/>
<polygon fill="#191970" stroke="#191970" points="120.215,-634.3959 111.4996,-640.4202 122.0696,-641.1457 120.215,-634.3959"/>
</g>
<!-- Node273 -->
<g id="node10" class="node">
<title>Node273</title>
<g id="a_node10"><a xlink:href="a00279.html#a28a62f95bbfbb511f01a2b8a3eb3db6f" target="_top" xlink:title="CO_User_Collection\l\\set_surname">
<polygon fill="#ffffff" stroke="#000000" points="337.4741,-282.5 337.4741,-310.5 444.6216,-310.5 444.6216,-282.5 337.4741,-282.5"/>
<text text-anchor="start" x="345.4741" y="-298.5" font-family="Helvetica,sans-Serif" font-size="10.00" fill="#000000">CO_User_Collection</text>
<text text-anchor="middle" x="391.0479" y="-288.5" font-family="Helvetica,sans-Serif" font-size="10.00" fill="#000000">\set_surname</text>
</a>
</g>
</g>
<!-- Node272&#45;&gt;Node273 -->
<g id="edge9" class="edge">
<title>Node272&#45;&gt;Node273</title>
<path fill="none" stroke="#191970" d="M234.0733,-201.3852C251.8076,-222.428 281.2168,-253.7288 313.0137,-272.5 320.4591,-276.8954 328.787,-280.5588 337.154,-283.5895"/>
<polygon fill="#191970" stroke="#191970" points="236.7142,-199.0863 227.6499,-193.6009 231.315,-203.5416 236.7142,-199.0863"/>
</g>
<!-- Node274 -->
<g id="node11" class="node">
<title>Node274</title>
<g id="a_node11"><a xlink:href="a00279.html#a4e60c1e03b490e38e441d4b8dbada19f" target="_top" xlink:title="CO_User_Collection\l\\set_middle_name">
<polygon fill="#ffffff" stroke="#000000" points="337.4741,-235.5 337.4741,-263.5 444.6216,-263.5 444.6216,-235.5 337.4741,-235.5"/>
<text text-anchor="start" x="345.4741" y="-251.5" font-family="Helvetica,sans-Serif" font-size="10.00" fill="#000000">CO_User_Collection</text>
<text text-anchor="middle" x="391.0479" y="-241.5" font-family="Helvetica,sans-Serif" font-size="10.00" fill="#000000">\set_middle_name</text>
</a>
</g>
</g>
<!-- Node272&#45;&gt;Node274 -->
<g id="edge10" class="edge">
<title>Node272&#45;&gt;Node274</title>
<path fill="none" stroke="#191970" d="M252.6005,-198.1801C270.4765,-207.0955 292.5912,-217.5296 313.0137,-225.5 322.1244,-229.0557 331.9928,-232.4382 341.5486,-235.4825"/>
<polygon fill="#191970" stroke="#191970" points="254.1753,-195.0544 243.6703,-193.6773 251.0237,-201.3048 254.1753,-195.0544"/>
</g>
<!-- Node275 -->
<g id="node12" class="node">
<title>Node275</title>
<g id="a_node12"><a xlink:href="a00279.html#ad1254d0e49f000883944fba0b4ce670d" target="_top" xlink:title="CO_User_Collection\l\\set_given_name">
<polygon fill="#ffffff" stroke="#000000" points="337.4741,-188.5 337.4741,-216.5 444.6216,-216.5 444.6216,-188.5 337.4741,-188.5"/>
<text text-anchor="start" x="345.4741" y="-204.5" font-family="Helvetica,sans-Serif" font-size="10.00" fill="#000000">CO_User_Collection</text>
<text text-anchor="middle" x="391.0479" y="-194.5" font-family="Helvetica,sans-Serif" font-size="10.00" fill="#000000">\set_given_name</text>
</a>
</g>
</g>
<!-- Node272&#45;&gt;Node275 -->
<g id="edge11" class="edge">
<title>Node272&#45;&gt;Node275</title>
<path fill="none" stroke="#191970" d="M280.6181,-187.927C299.2017,-190.3795 319.31,-193.0331 337.211,-195.3954"/>
<polygon fill="#191970" stroke="#191970" points="280.8464,-184.4269 270.4744,-186.5884 279.9305,-191.3667 280.8464,-184.4269"/>
</g>
<!-- Node276 -->
<g id="node13" class="node">
<title>Node276</title>
<g id="a_node13"><a xlink:href="a00279.html#adbeef6102042c2ec1530502386a275c4" target="_top" xlink:title="CO_User_Collection\l\\set_prefix">
<polygon fill="#ffffff" stroke="#000000" points="337.4741,-141.5 337.4741,-169.5 444.6216,-169.5 444.6216,-141.5 337.4741,-141.5"/>
<text text-anchor="start" x="345.4741" y="-157.5" font-family="Helvetica,sans-Serif" font-size="10.00" fill="#000000">CO_User_Collection</text>
<text text-anchor="middle" x="391.0479" y="-147.5" font-family="Helvetica,sans-Serif" font-size="10.00" fill="#000000">\set_prefix</text>
</a>
</g>
</g>
<!-- Node272&#45;&gt;Node276 -->
<g id="edge12" class="edge">
<title>Node272&#45;&gt;Node276</title>
<path fill="none" stroke="#191970" d="M280.6181,-170.7066C299.2017,-168.1475 319.31,-165.3785 337.211,-162.9135"/>
<polygon fill="#191970" stroke="#191970" points="279.9034,-167.2718 270.4744,-172.1034 280.8584,-174.2064 279.9034,-167.2718"/>
</g>
<!-- Node277 -->
<g id="node14" class="node">
<title>Node277</title>
<g id="a_node14"><a xlink:href="a00279.html#af4643580a79e531d9e78c75c67c21388" target="_top" xlink:title="CO_User_Collection\l\\set_suffix">
<polygon fill="#ffffff" stroke="#000000" points="337.4741,-94.5 337.4741,-122.5 444.6216,-122.5 444.6216,-94.5 337.4741,-94.5"/>
<text text-anchor="start" x="345.4741" y="-110.5" font-family="Helvetica,sans-Serif" font-size="10.00" fill="#000000">CO_User_Collection</text>
<text text-anchor="middle" x="391.0479" y="-100.5" font-family="Helvetica,sans-Serif" font-size="10.00" fill="#000000">\set_suffix</text>
</a>
</g>
</g>
<!-- Node272&#45;&gt;Node277 -->
<g id="edge13" class="edge">
<title>Node272&#45;&gt;Node277</title>
<path fill="none" stroke="#191970" d="M250.9426,-160.6124C269.0429,-151.0861 291.8515,-139.8205 313.0137,-131.5 321.1632,-128.2958 329.9423,-125.2946 338.5681,-122.586"/>
<polygon fill="#191970" stroke="#191970" points="249.1186,-157.6184 241.9401,-165.4107 252.4111,-163.7957 249.1186,-157.6184"/>
</g>
<!-- Node278 -->
<g id="node15" class="node">
<title>Node278</title>
<g id="a_node15"><a xlink:href="a00279.html#ac70dec96610b3e89b7888a3cab6aef72" target="_top" xlink:title="CO_User_Collection\l\\set_nickname">
<polygon fill="#ffffff" stroke="#000000" points="337.4741,-47.5 337.4741,-75.5 444.6216,-75.5 444.6216,-47.5 337.4741,-47.5"/>
<text text-anchor="start" x="345.4741" y="-63.5" font-family="Helvetica,sans-Serif" font-size="10.00" fill="#000000">CO_User_Collection</text>
<text text-anchor="middle" x="391.0479" y="-53.5" font-family="Helvetica,sans-Serif" font-size="10.00" fill="#000000">\set_nickname</text>
</a>
</g>
</g>
<!-- Node272&#45;&gt;Node278 -->
<g id="edge14" class="edge">
<title>Node272&#45;&gt;Node278</title>
<path fill="none" stroke="#191970" d="M233.6329,-157.4053C251.222,-135.8339 280.6957,-103.5546 313.0137,-84.5 320.4353,-80.1242 328.7506,-76.5279 337.1124,-73.588"/>
<polygon fill="#191970" stroke="#191970" points="230.7767,-155.3732 227.2778,-165.3736 236.2494,-159.7379 230.7767,-155.3732"/>
</g>
<!-- Node279 -->
<g id="node16" class="node">
<title>Node279</title>
<g id="a_node16"><a xlink:href="a00279.html#a2ba17ba0df27d93adda9eb20d1249338" target="_top" xlink:title="CO_User_Collection\l\\set_login">
<polygon fill="#ffffff" stroke="#000000" points="337.4741,-.5 337.4741,-28.5 444.6216,-28.5 444.6216,-.5 337.4741,-.5"/>
<text text-anchor="start" x="345.4741" y="-16.5" font-family="Helvetica,sans-Serif" font-size="10.00" fill="#000000">CO_User_Collection</text>
<text text-anchor="middle" x="391.0479" y="-6.5" font-family="Helvetica,sans-Serif" font-size="10.00" fill="#000000">\set_login</text>
</a>
</g>
</g>
<!-- Node272&#45;&gt;Node279 -->
<g id="edge15" class="edge">
<title>Node272&#45;&gt;Node279</title>
<path fill="none" stroke="#191970" d="M226.4743,-156.0858C240.7749,-124.4837 270.4789,-68.5689 313.0137,-37.5 320.199,-32.2516 328.5737,-28.1935 337.1172,-25.0576"/>
<polygon fill="#191970" stroke="#191970" points="223.1875,-154.8659 222.3758,-165.4296 229.598,-157.6778 223.1875,-154.8659"/>
</g>
<!-- Node281 -->
<g id="node18" class="node">
<title>Node281</title>
<g id="a_node18"><a xlink:href="a00263.html#a887a876b0603db0289a8bdc7ab4e66b2" target="_top" xlink:title="CO_Place\\set_tags_from\l_address_elements">
<polygon fill="#ffffff" stroke="#000000" points="517.0327,-371.5 517.0327,-399.5 644.7515,-399.5 644.7515,-371.5 517.0327,-371.5"/>
<text text-anchor="start" x="525.0327" y="-387.5" font-family="Helvetica,sans-Serif" font-size="10.00" fill="#000000">CO_Place\set_tags_from</text>
<text text-anchor="middle" x="580.8921" y="-377.5" font-family="Helvetica,sans-Serif" font-size="10.00" fill="#000000">_address_elements</text>
</a>
</g>
</g>
<!-- Node280&#45;&gt;Node281 -->
<g id="edge17" class="edge">
<title>Node280&#45;&gt;Node281</title>
<path fill="none" stroke="#191970" d="M479.1871,-385.5C491.8463,-385.5 504.6672,-385.5 516.7431,-385.5"/>
<polygon fill="#191970" stroke="#191970" points="479.0866,-382.0001 469.0866,-385.5 479.0866,-389.0001 479.0866,-382.0001"/>
</g>
<!-- Node283&#45;&gt;Node267 -->
<g id="edge26" class="edge">
<title>Node283&#45;&gt;Node267</title>
<path fill="none" stroke="#191970" d="M227.8369,-635.2718C240.6783,-663.366 261.9977,-711.7103 277.0137,-754.5 296.4404,-809.8586 271.7453,-839.7999 313.0137,-881.5 317.9811,-886.5194 323.985,-890.4555 330.4308,-893.54"/>
<polygon fill="#191970" stroke="#191970" points="230.8772,-633.5061 223.5169,-625.8853 224.5184,-636.4327 230.8772,-633.5061"/>
</g>
<!-- Node283&#45;&gt;Node268 -->
<g id="edge28" class="edge">
<title>Node283&#45;&gt;Node268</title>
<path fill="none" stroke="#191970" d="M231.6627,-634.0035C244.9171,-654.7571 264.1401,-686.7616 277.0137,-716.5 298.7963,-766.8184 274.0589,-795.9131 313.0137,-834.5 316.626,-838.0782 320.7656,-841.1049 325.2126,-843.6644"/>
<polygon fill="#191970" stroke="#191970" points="234.5801,-632.0692 226.2106,-625.5729 228.7021,-635.8706 234.5801,-632.0692"/>
</g>
<!-- Node283&#45;&gt;Node269 -->
<g id="edge30" class="edge">
<title>Node283&#45;&gt;Node269</title>
<path fill="none" stroke="#191970" d="M239.9776,-632.6321C252.4004,-644.9862 267.1318,-661.4674 277.0137,-678.5 302.6162,-722.6291 276.3592,-752.0132 313.0137,-787.5 316.5652,-790.9384 320.6043,-793.8666 324.9312,-796.3597"/>
<polygon fill="#191970" stroke="#191970" points="242.2275,-629.939 232.605,-625.5052 237.3623,-634.9719 242.2275,-629.939"/>
</g>
<!-- Node283&#45;&gt;Node270 -->
<g id="edge31" class="edge">
<title>Node283&#45;&gt;Node270</title>
<path fill="none" stroke="#191970" d="M265.9623,-630.913C270.0115,-633.733 273.782,-636.917 277.0137,-640.5 308.651,-675.5769 278.6427,-708.0971 313.0137,-740.5 318.1521,-745.3442 324.2602,-749.1736 330.763,-752.1997"/>
<polygon fill="#191970" stroke="#191970" points="267.6966,-627.8708 257.3426,-625.6242 264.0357,-633.8372 267.6966,-627.8708"/>
</g>
<!-- Node283&#45;&gt;Node271 -->
<g id="edge32" class="edge">
<title>Node283&#45;&gt;Node271</title>
<path fill="none" stroke="#191970" d="M251.0826,-591.7562C260.6352,-584.8339 270.2378,-576.3016 277.0137,-566.5 309.8894,-518.9437 271.2923,-481.5218 313.0137,-441.5 317.2398,-437.446 322.1797,-434.2108 327.4853,-431.6349"/>
<polygon fill="#191970" stroke="#191970" points="249.0674,-588.8939 242.773,-597.4163 253.0082,-594.6793 249.0674,-588.8939"/>
</g>
<!-- Node283&#45;&gt;Node280 -->
<g id="edge33" class="edge">
<title>Node283&#45;&gt;Node280</title>
<path fill="none" stroke="#191970" d="M229.9292,-588.2655C242.7027,-565.3071 262.2632,-529.0072 277.0137,-496.5 295.328,-456.1387 279.5197,-432.5276 313.0137,-403.5 317.2163,-399.8577 322.0108,-396.9142 327.1095,-394.54"/>
<polygon fill="#191970" stroke="#191970" points="226.7368,-586.8029 224.9041,-597.238 232.8442,-590.2234 226.7368,-586.8029"/>
</g>
<!-- Node283&#45;&gt;Node282 -->
<g id="edge34" class="edge">
<title>Node283&#45;&gt;Node282</title>
<path fill="none" stroke="#191970" d="M219.2428,-587.5264C225.5939,-538.6598 246.9059,-427.0491 313.0137,-366.5 318.1172,-361.8256 324.1259,-358.098 330.5063,-355.126"/>
<polygon fill="#191970" stroke="#191970" points="215.7639,-587.1416 218.0456,-597.4878 222.7139,-587.9769 215.7639,-587.1416"/>
</g>
<!-- Node284 -->
<g id="node21" class="node">
<title>Node284</title>
<g id="a_node21"><a xlink:href="a00331.html#a4a3ed38130b49569d494ec7c262ca32d" target="_top" xlink:title="CO_Security_Node\\add_id">
<polygon fill="#ffffff" stroke="#000000" points="323.5679,-712.5 323.5679,-730.5 458.5278,-730.5 458.5278,-712.5 323.5679,-712.5"/>
<text text-anchor="middle" x="391.0479" y="-718.5" font-family="Helvetica,sans-Serif" font-size="10.00" fill="#000000">CO_Security_Node\add_id</text>
</a>
</g>
</g>
<!-- Node283&#45;&gt;Node284 -->
<g id="edge20" class="edge">
<title>Node283&#45;&gt;Node284</title>
<path fill="none" stroke="#191970" d="M263.7227,-630.5123C268.4889,-633.4667 273.0324,-636.7902 277.0137,-640.5 300.6074,-662.4849 287.131,-684.2623 313.0137,-703.5 317.9235,-707.1493 323.4507,-710.0759 329.2382,-712.4204"/>
<polygon fill="#191970" stroke="#191970" points="265.4073,-627.4442 254.976,-625.5895 261.9739,-633.5444 265.4073,-627.4442"/>
</g>
<!-- Node285 -->
<g id="node22" class="node">
<title>Node285</title>
<g id="a_node22"><a xlink:href="a00343.html#a59e2e5be376349924698305603bfb51f" target="_top" xlink:title="CO_Security_Login\\clear\l_api_key">
<polygon fill="#ffffff" stroke="#000000" points="327.4644,-665.5 327.4644,-693.5 454.6313,-693.5 454.6313,-665.5 327.4644,-665.5"/>
<text text-anchor="start" x="335.4644" y="-681.5" font-family="Helvetica,sans-Serif" font-size="10.00" fill="#000000">CO_Security_Login\clear</text>
<text text-anchor="middle" x="391.0479" y="-671.5" font-family="Helvetica,sans-Serif" font-size="10.00" fill="#000000">_api_key</text>
</a>
</g>
</g>
<!-- Node283&#45;&gt;Node285 -->
<g id="edge21" class="edge">
<title>Node283&#45;&gt;Node285</title>
<path fill="none" stroke="#191970" d="M255.6124,-630.002C279.6688,-641.3985 307.0741,-654.2509 313.0137,-656.5 321.4672,-659.701 330.571,-662.739 339.4718,-665.4954"/>
<polygon fill="#191970" stroke="#191970" points="256.8025,-626.6927 246.2674,-625.5687 253.8021,-633.0171 256.8025,-626.6927"/>
</g>
<!-- Node286 -->
<g id="node23" class="node">
<title>Node286</title>
<g id="a_node23"><a xlink:href="a00311.html#ab976e4ab55890095fc60406326b5de80" target="_top" xlink:title="A_CO_DB_Table_Base\l\\clear_batch_mode">
<polygon fill="#ffffff" stroke="#000000" points="330.7944,-618.5 330.7944,-646.5 451.3013,-646.5 451.3013,-618.5 330.7944,-618.5"/>
<text text-anchor="start" x="338.7944" y="-634.5" font-family="Helvetica,sans-Serif" font-size="10.00" fill="#000000">A_CO_DB_Table_Base</text>
<text text-anchor="middle" x="391.0479" y="-624.5" font-family="Helvetica,sans-Serif" font-size="10.00" fill="#000000">\clear_batch_mode</text>
</a>
</g>
</g>
<!-- Node283&#45;&gt;Node286 -->
<g id="edge22" class="edge">
<title>Node283&#45;&gt;Node286</title>
<path fill="none" stroke="#191970" d="M287.522,-620.0261C301.8388,-621.7512 316.7675,-623.5499 330.6865,-625.227"/>
<polygon fill="#191970" stroke="#191970" points="287.5754,-616.5073 277.2285,-618.7858 286.7379,-623.457 287.5754,-616.5073"/>
</g>
<!-- Node287 -->
<g id="node24" class="node">
<title>Node287</title>
<g id="a_node24"><a xlink:href="a00331.html#a241314e7be52a7ca6487e41f34bb78fd" target="_top" xlink:title="CO_Security_Node\\set_ids">
<polygon fill="#ffffff" stroke="#000000" points="322.7402,-581.5 322.7402,-599.5 459.3555,-599.5 459.3555,-581.5 322.7402,-581.5"/>
<text text-anchor="middle" x="391.0479" y="-587.5" font-family="Helvetica,sans-Serif" font-size="10.00" fill="#000000">CO_Security_Node\set_ids</text>
</a>
</g>
</g>
<!-- Node283&#45;&gt;Node287 -->
<g id="edge23" class="edge">
<title>Node283&#45;&gt;Node287</title>
<path fill="none" stroke="#191970" d="M287.3348,-602.9964C298.9802,-601.5933 311.0355,-600.1407 322.6269,-598.7441"/>
<polygon fill="#191970" stroke="#191970" points="286.7379,-599.5429 277.2285,-604.2142 287.5754,-606.4927 286.7379,-599.5429"/>
</g>
<!-- Node289 -->
<g id="node26" class="node">
<title>Node289</title>
<g id="a_node26"><a xlink:href="a00343.html#a061f896c69dc8a8dd3d9ee793b91ddc7" target="_top" xlink:title="CO_Security_Login\\set_lang">
<polygon fill="#ffffff" stroke="#000000" points="319.3979,-544.5 319.3979,-562.5 462.6978,-562.5 462.6978,-544.5 319.3979,-544.5"/>
<text text-anchor="middle" x="391.0479" y="-550.5" font-family="Helvetica,sans-Serif" font-size="10.00" fill="#000000">CO_Security_Login\set_lang</text>
</a>
</g>
</g>
<!-- Node283&#45;&gt;Node289 -->
<g id="edge25" class="edge">
<title>Node283&#45;&gt;Node289</title>
<path fill="none" stroke="#191970" d="M257.5692,-593.4261C274.5145,-586.3265 294.5087,-578.4665 313.0137,-572.5 324.5591,-568.7775 337.2698,-565.3907 349.0202,-562.5414"/>
<polygon fill="#191970" stroke="#191970" points="255.8154,-590.3682 247.9788,-597.4983 258.5513,-596.8115 255.8154,-590.3682"/>
</g>
<!-- Node290 -->
<g id="node27" class="node">
<title>Node290</title>
<g id="a_node27"><a xlink:href="a00311.html#a92a9b9a122e9471b82dd79432bf3c929" target="_top" xlink:title="A_CO_DB_Table_Base\l\\set_name">
<polygon fill="#ffffff" stroke="#000000" points="330.7944,-497.5 330.7944,-525.5 451.3013,-525.5 451.3013,-497.5 330.7944,-497.5"/>
<text text-anchor="start" x="338.7944" y="-513.5" font-family="Helvetica,sans-Serif" font-size="10.00" fill="#000000">A_CO_DB_Table_Base</text>
<text text-anchor="middle" x="391.0479" y="-503.5" font-family="Helvetica,sans-Serif" font-size="10.00" fill="#000000">\set_name</text>
</a>
</g>
</g>
<!-- Node283&#45;&gt;Node290 -->
<g id="edge27" class="edge">
<title>Node283&#45;&gt;Node290</title>
<path fill="none" stroke="#191970" d="M244.5597,-591.3637C254.8729,-583.7306 266.5918,-574.8624 277.0137,-566.5 293.4822,-553.2859 294.531,-545.7088 313.0137,-535.5 319.9616,-531.6623 327.6039,-528.3552 335.3043,-525.5301"/>
<polygon fill="#191970" stroke="#191970" points="242.2697,-588.7032 236.2865,-597.4468 246.4164,-594.3428 242.2697,-588.7032"/>
</g>
<!-- Node291 -->
<g id="node28" class="node">
<title>Node291</title>
<g id="a_node28"><a xlink:href="a00343.html#ac4f0c16cb8cf1e2151451bf4d5cb2238" target="_top" xlink:title="CO_Security_Login\\set\l_password_from_cleartext">
<polygon fill="#ffffff" stroke="#000000" points="324.4102,-450.5 324.4102,-478.5 457.6855,-478.5 457.6855,-450.5 324.4102,-450.5"/>
<text text-anchor="start" x="332.4102" y="-466.5" font-family="Helvetica,sans-Serif" font-size="10.00" fill="#000000">CO_Security_Login\set</text>
<text text-anchor="middle" x="391.0479" y="-456.5" font-family="Helvetica,sans-Serif" font-size="10.00" fill="#000000">_password_from_cleartext</text>
</a>
</g>
</g>
<!-- Node283&#45;&gt;Node291 -->
<g id="edge29" class="edge">
<title>Node283&#45;&gt;Node291</title>
<path fill="none" stroke="#191970" d="M249.4569,-591.609C259.2023,-584.5607 269.3225,-575.9942 277.0137,-566.5 301.0471,-536.8323 284.2684,-513.6294 313.0137,-488.5 317.4955,-484.5819 322.6072,-481.3035 328.0214,-478.5602"/>
<polygon fill="#191970" stroke="#191970" points="247.3068,-588.84 241.0597,-597.3972 251.2796,-594.6035 247.3068,-588.84"/>
</g>
<!-- Node288 -->
<g id="node25" class="node">
<title>Node288</title>
<g id="a_node25"><a xlink:href="a00331.html#af852d696981829b18e29fb07918d8630" target="_top" xlink:title="CO_Security_Node\\remove_id">
<polygon fill="#ffffff" stroke="#000000" points="505.082,-581.5 505.082,-599.5 656.7021,-599.5 656.7021,-581.5 505.082,-581.5"/>
<text text-anchor="middle" x="580.8921" y="-587.5" font-family="Helvetica,sans-Serif" font-size="10.00" fill="#000000">CO_Security_Node\remove_id</text>
</a>
</g>
</g>
<!-- Node287&#45;&gt;Node288 -->
<g id="edge24" class="edge">
<title>Node287&#45;&gt;Node288</title>
<path fill="none" stroke="#191970" d="M469.7441,-590.5C481.4233,-590.5 493.4403,-590.5 505.0592,-590.5"/>
<polygon fill="#191970" stroke="#191970" points="469.586,-587.0001 459.586,-590.5 469.5859,-594.0001 469.586,-587.0001"/>
</g>
</g>
</svg>
        <g id="navigator" transform="translate(0 0)" fill="#404254">
                <rect fill="#f2f5e9" fill-opacity="0.5" stroke="#606060" stroke-width=".5" x="0" y="0" width="60" height="60"/>
                <use id="zoomplus" xlink:href="#zoomPlus" x="17" y="9" onmousedown="handleZoom(evt,'in')"/>
                <use id="zoomminus" xlink:href="#zoomMin" x="42" y="9" onmousedown="handleZoom(evt,'out')"/>
                <use id="reset" xlink:href="#resetDef" x="30" y="36" onmousedown="handleReset()"/>
                <g id="arrowUp" xlink:href="#dirArrow" transform="translate(30 24)" onmousedown="handlePan(0,-1)">
                  <use xlink:href="#rim" fill="#404040">
                        <set attributeName="fill" to="#808080" begin="arrowUp.mouseover" end="arrowUp.mouseout"/>
                  </use>
                  <path fill="none" stroke="white" stroke-width="1.5" d="M0,-3.0v7 M-2.5,-0.5L0,-3.0L2.5,-0.5"/>
                </g>
                <g id="arrowRight" xlink:href="#dirArrow" transform="rotate(90) translate(36 -43)" onmousedown="handlePan(1,0)">
                  <use xlink:href="#rim" fill="#404040">
                        <set attributeName="fill" to="#808080" begin="arrowRight.mouseover" end="arrowRight.mouseout"/>
                  </use>
                  <path fill="none" stroke="white" stroke-width="1.5" d="M0,-3.0v7 M-2.5,-0.5L0,-3.0L2.5,-0.5"/>
                </g>
                <g id="arrowDown" xlink:href="#dirArrow" transform="rotate(180) translate(-30 -48)" onmousedown="handlePan(0,1)">
                  <use xlink:href="#rim" fill="#404040">
                        <set attributeName="fill" to="#808080" begin="arrowDown.mouseover" end="arrowDown.mouseout"/>
                  </use>
                  <path fill="none" stroke="white" stroke-width="1.5" d="M0,-3.0v7 M-2.5,-0.5L0,-3.0L2.5,-0.5"/>
                </g>
                <g id="arrowLeft" xlink:href="#dirArrow" transform="rotate(270) translate(-36 17)" onmousedown="handlePan(-1,0)">
                  <use xlink:href="#rim" fill="#404040">
                        <set attributeName="fill" to="#808080" begin="arrowLeft.mouseover" end="arrowLeft.mouseout"/>
                  </use>
                  <path fill="none" stroke="white" stroke-width="1.5" d="M0,-3.0v7 M-2.5,-0.5L0,-3.0L2.5,-0.5"/>
                </g>
        </g>
        <svg viewBox="0 0 15 15" width="100%" height="30px" preserveAspectRatio="xMaxYMin meet">
         <g id="arrow_out" transform="scale(0.3 0.3)">
          <a xlink:href="a00311_a7d2537d7675ca572ad78096784fe4fe4_icgraph_org.svg" target="_base">
           <rect id="button" ry="5" rx="5" y="6" x="6" height="38" width="38"
                fill="#f2f5e9" fill-opacity="0.5" stroke="#606060" stroke-width="1.0"/>
           <path id="arrow"
             d="M 11.500037,31.436501 C 11.940474,20.09759 22.043105,11.32322 32.158766,21.979434 L 37.068811,17.246167 C 37.068811,17.246167 37.088388,32 37.088388,32 L 22.160133,31.978069 C 22.160133,31.978069 26.997745,27.140456 26.997745,27.140456 C 18.528582,18.264221 13.291696,25.230495 11.500037,31.436501 z"
             style="fill:#404040;"/>
          </a>
         </g>
        </svg>
</svg>
