<?xml version="1.0" encoding="UTF-8" standalone="no"?>
<!DOCTYPE svg PUBLIC "-//W3C//DTD SVG 1.1//EN"
 "http://www.w3.org/Graphics/SVG/1.1/DTD/svg11.dtd">
<!-- Generated by graphviz version 2.40.1 (20161225.0304)
 -->
<!-- Title: CO_Security_Login\remove_id Pages: 1 -->
<svg width="979pt" height="223pt"
 viewBox="0.00 0.00 978.83 223.00" xmlns="http://www.w3.org/2000/svg" xmlns:xlink="http://www.w3.org/1999/xlink">
<g id="graph0" class="graph" transform="scale(1 1) rotate(0) translate(4 219)">
<title>CO_Security_Login\remove_id</title>
<polygon fill="#ffffff" stroke="transparent" points="-4,4 -4,-219 974.8291,-219 974.8291,4 -4,4"/>
<!-- Node1 -->
<g id="node1" class="node">
<title>Node1</title>
<g id="a_node1"><a xlink:title=" ">
<polygon fill="#bfbfbf" stroke="#000000" points="0,-148.5 0,-166.5 152.1816,-166.5 152.1816,-148.5 0,-148.5"/>
<text text-anchor="middle" x="76.0908" y="-154.5" font-family="Helvetica,sans-Serif" font-size="10.00" fill="#000000">CO_Security_Login\remove_id</text>
</a>
</g>
</g>
<!-- Node2 -->
<g id="node2" class="node">
<title>Node2</title>
<g id="a_node2"><a xlink:href="a00308.html#a8780b40e55827b90bb441671faec2a05" target="_top" xlink:title=" ">
<polygon fill="#ffffff" stroke="#000000" points="681.0322,-105.5 681.0322,-133.5 801.5391,-133.5 801.5391,-105.5 681.0322,-105.5"/>
<text text-anchor="start" x="689.0322" y="-121.5" font-family="Helvetica,sans-Serif" font-size="10.00" fill="#000000">A_CO_DB_Table_Base</text>
<text text-anchor="middle" x="741.2856" y="-111.5" font-family="Helvetica,sans-Serif" font-size="10.00" fill="#000000">\get_access_object</text>
</a>
</g>
</g>
<!-- Node1&#45;&gt;Node2 -->
<g id="edge1" class="edge">
<title>Node1&#45;&gt;Node2</title>
<path fill="none" stroke="#191970" d="M152.3331,-156.6623C261.3008,-154.922 467.7688,-149.6093 642.8105,-133.5 651.9027,-132.6632 661.44,-131.5749 670.8506,-130.3746"/>
<polygon fill="#191970" stroke="#191970" points="671.5304,-133.8153 680.9854,-129.0348 670.6129,-126.8756 671.5304,-133.8153"/>
</g>
<!-- Node3 -->
<g id="node3" class="node">
<title>Node3</title>
<g id="a_node3"><a xlink:href="a00340.html#a1a141bb2d1d8b67737119e0729c7d159" target="_top" xlink:title=" ">
<polygon fill="#ffffff" stroke="#000000" points="188.1816,-110.5 188.1816,-128.5 325.3584,-128.5 325.3584,-110.5 188.1816,-110.5"/>
<text text-anchor="middle" x="256.77" y="-116.5" font-family="Helvetica,sans-Serif" font-size="10.00" fill="#000000">CO_Security_Login\set_ids</text>
</a>
</g>
</g>
<!-- Node1&#45;&gt;Node3 -->
<g id="edge2" class="edge">
<title>Node1&#45;&gt;Node3</title>
<path fill="none" stroke="#191970" d="M118.9093,-148.4945C144.3558,-143.1427 176.8344,-136.3119 203.8749,-130.6248"/>
<polygon fill="#191970" stroke="#191970" points="204.8807,-133.9899 213.9462,-128.5066 203.4399,-127.1398 204.8807,-133.9899"/>
</g>
<!-- Node10 -->
<g id="node10" class="node">
<title>Node10</title>
<g id="a_node10"><a xlink:href="a00340.html#a946d1fc04964f6f0b55c8cc018bf2c70" target="_top" xlink:title=" ">
<polygon fill="#ffffff" stroke="#000000" points="361.3584,-186.5 361.3584,-214.5 486.3037,-214.5 486.3037,-186.5 361.3584,-186.5"/>
<text text-anchor="start" x="369.3584" y="-202.5" font-family="Helvetica,sans-Serif" font-size="10.00" fill="#000000">CO_Security_Login\user</text>
<text text-anchor="middle" x="423.8311" y="-192.5" font-family="Helvetica,sans-Serif" font-size="10.00" fill="#000000">_can_edit_ids</text>
</a>
</g>
</g>
<!-- Node1&#45;&gt;Node10 -->
<g id="edge15" class="edge">
<title>Node1&#45;&gt;Node10</title>
<path fill="none" stroke="#191970" d="M148.1448,-166.519C161.457,-168.1797 175.2391,-169.8954 188.1816,-171.5 242.8701,-178.2803 304.7057,-185.8879 351.3088,-191.6095"/>
<polygon fill="#191970" stroke="#191970" points="350.9605,-195.0929 361.3125,-192.8374 351.8134,-188.145 350.9605,-195.0929"/>
</g>
<!-- Node3&#45;&gt;Node2 -->
<g id="edge3" class="edge">
<title>Node3&#45;&gt;Node2</title>
<path fill="none" stroke="#191970" d="M325.418,-119.5C417.0097,-119.5 578.3527,-119.5 670.8445,-119.5"/>
<polygon fill="#191970" stroke="#191970" points="670.9488,-123.0001 680.9487,-119.5 670.9487,-116.0001 670.9488,-123.0001"/>
</g>
<!-- Node4 -->
<g id="node4" class="node">
<title>Node4</title>
<g id="a_node4"><a xlink:href="a00308.html#a7487697640051c6661b8cdca6f109959" target="_top" xlink:title=" ">
<polygon fill="#ffffff" stroke="#000000" points="363.5776,-62.5 363.5776,-90.5 484.0845,-90.5 484.0845,-62.5 363.5776,-62.5"/>
<text text-anchor="start" x="371.5776" y="-78.5" font-family="Helvetica,sans-Serif" font-size="10.00" fill="#000000">A_CO_DB_Table_Base</text>
<text text-anchor="middle" x="423.8311" y="-68.5" font-family="Helvetica,sans-Serif" font-size="10.00" fill="#000000">\update_db</text>
</a>
</g>
</g>
<!-- Node3&#45;&gt;Node4 -->
<g id="edge4" class="edge">
<title>Node3&#45;&gt;Node4</title>
<path fill="none" stroke="#191970" d="M291.7915,-110.4858C311.3818,-105.4434 336.4197,-98.9989 359.4152,-93.08"/>
<polygon fill="#191970" stroke="#191970" points="360.3117,-96.4635 369.1236,-90.5812 358.5668,-89.6844 360.3117,-96.4635"/>
</g>
<!-- Node3&#45;&gt;Node10 -->
<g id="edge13" class="edge">
<title>Node3&#45;&gt;Node10</title>
<path fill="none" stroke="#191970" d="M275.6093,-128.6343C302.1293,-141.4926 351.0655,-165.2194 385.4338,-181.883"/>
<polygon fill="#191970" stroke="#191970" points="384.1852,-185.1673 394.7104,-186.3807 387.2392,-178.8686 384.1852,-185.1673"/>
</g>
<!-- Node5 -->
<g id="node5" class="node">
<title>Node5</title>
<g id="a_node5"><a xlink:href="a00308.html#adda14b544e11934db3bf8130aeea0610" target="_top" xlink:title=" ">
<polygon fill="#ffffff" stroke="#000000" points="522.3037,-15.5 522.3037,-43.5 642.8105,-43.5 642.8105,-15.5 522.3037,-15.5"/>
<text text-anchor="start" x="530.3037" y="-31.5" font-family="Helvetica,sans-Serif" font-size="10.00" fill="#000000">A_CO_DB_Table_Base</text>
<text text-anchor="middle" x="582.5571" y="-21.5" font-family="Helvetica,sans-Serif" font-size="10.00" fill="#000000">\_write_to_db</text>
</a>
</g>
</g>
<!-- Node4&#45;&gt;Node5 -->
<g id="edge5" class="edge">
<title>Node4&#45;&gt;Node5</title>
<path fill="none" stroke="#191970" d="M471.4541,-62.3985C488.4817,-57.3565 507.8431,-51.6234 525.5799,-46.3714"/>
<polygon fill="#191970" stroke="#191970" points="526.6467,-49.7058 535.2414,-43.5106 524.6591,-42.9939 526.6467,-49.7058"/>
</g>
<!-- Node9 -->
<g id="node9" class="node">
<title>Node9</title>
<g id="a_node9"><a xlink:href="a00308.html#a7d2537d7675ca572ad78096784fe4fe4" target="_top" xlink:title=" ">
<polygon fill="#ffffff" stroke="#000000" points="522.3037,-62.5 522.3037,-90.5 642.8105,-90.5 642.8105,-62.5 522.3037,-62.5"/>
<text text-anchor="start" x="530.3037" y="-78.5" font-family="Helvetica,sans-Serif" font-size="10.00" fill="#000000">A_CO_DB_Table_Base</text>
<text text-anchor="middle" x="582.5571" y="-68.5" font-family="Helvetica,sans-Serif" font-size="10.00" fill="#000000">\user_can_write</text>
</a>
</g>
</g>
<!-- Node4&#45;&gt;Node9 -->
<g id="edge11" class="edge">
<title>Node4&#45;&gt;Node9</title>
<path fill="none" stroke="#191970" d="M484.2914,-76.5C493.4274,-76.5 502.9182,-76.5 512.2404,-76.5"/>
<polygon fill="#191970" stroke="#191970" points="512.2649,-80.0001 522.2649,-76.5 512.2649,-73.0001 512.2649,-80.0001"/>
</g>
<!-- Node5&#45;&gt;Node2 -->
<g id="edge9" class="edge">
<title>Node5&#45;&gt;Node2</title>
<path fill="none" stroke="#191970" d="M623.3172,-43.5723C629.9489,-46.2826 636.6563,-49.2879 642.8105,-52.5 656.8513,-59.8284 689.3493,-82.3769 713.1877,-99.3065"/>
<polygon fill="#191970" stroke="#191970" points="711.3535,-102.2971 721.5283,-105.2508 715.4162,-96.5967 711.3535,-102.2971"/>
</g>
<!-- Node6 -->
<g id="node6" class="node">
<title>Node6</title>
<g id="a_node6"><a xlink:href="a00308.html#a6109c37c5e61ab04ea710b1ebb7615a5" target="_top" xlink:title=" ">
<polygon fill="#ffffff" stroke="#000000" points="678.8105,-37.5 678.8105,-65.5 803.7607,-65.5 803.7607,-37.5 678.8105,-37.5"/>
<text text-anchor="start" x="686.8105" y="-53.5" font-family="Helvetica,sans-Serif" font-size="10.00" fill="#000000">A_CO_DB_Table_Base</text>
<text text-anchor="middle" x="741.2856" y="-43.5" font-family="Helvetica,sans-Serif" font-size="10.00" fill="#000000">\_build_parameter_array</text>
</a>
</g>
</g>
<!-- Node5&#45;&gt;Node6 -->
<g id="edge6" class="edge">
<title>Node5&#45;&gt;Node6</title>
<path fill="none" stroke="#191970" d="M643.0184,-37.88C651.3934,-39.0408 660.0666,-40.2429 668.6347,-41.4305"/>
<polygon fill="#191970" stroke="#191970" points="668.2346,-44.9084 678.6205,-42.8145 669.1957,-37.9747 668.2346,-44.9084"/>
</g>
<!-- Node8 -->
<g id="node8" class="node">
<title>Node8</title>
<g id="a_node8"><a xlink:href="a00308.html#a78affe18a811930d4012fd265e95cdca" target="_top" xlink:title=" ">
<polygon fill="#ffffff" stroke="#000000" points="839.7607,-.5 839.7607,-18.5 970.8291,-18.5 970.8291,-.5 839.7607,-.5"/>
<text text-anchor="middle" x="905.2949" y="-6.5" font-family="Helvetica,sans-Serif" font-size="10.00" fill="#000000">A_CO_DB_Table_Base\id</text>
</a>
</g>
</g>
<!-- Node5&#45;&gt;Node8 -->
<g id="edge10" class="edge">
<title>Node5&#45;&gt;Node8</title>
<path fill="none" stroke="#191970" d="M642.883,-25.7616C695.7213,-22.4872 772.7444,-17.7141 829.6862,-14.1855"/>
<polygon fill="#191970" stroke="#191970" points="829.9517,-17.6758 839.716,-13.5639 829.5186,-10.6892 829.9517,-17.6758"/>
</g>
<!-- Node7 -->
<g id="node7" class="node">
<title>Node7</title>
<g id="a_node7"><a xlink:href="a00308.html#afb32d1e32b8e1c1de2e008c9b88f7846" target="_top" xlink:title=" ">
<polygon fill="#ffffff" stroke="#000000" points="845.0415,-37.5 845.0415,-65.5 965.5483,-65.5 965.5483,-37.5 845.0415,-37.5"/>
<text text-anchor="start" x="853.0415" y="-53.5" font-family="Helvetica,sans-Serif" font-size="10.00" fill="#000000">A_CO_DB_Table_Base</text>
<text text-anchor="middle" x="905.2949" y="-43.5" font-family="Helvetica,sans-Serif" font-size="10.00" fill="#000000">\_badger_serialize</text>
</a>
</g>
</g>
<!-- Node6&#45;&gt;Node7 -->
<g id="edge7" class="edge">
<title>Node6&#45;&gt;Node7</title>
<path fill="none" stroke="#191970" d="M804.2269,-51.5C814.254,-51.5 824.6838,-51.5 834.8703,-51.5"/>
<polygon fill="#191970" stroke="#191970" points="834.9518,-55.0001 844.9517,-51.5 834.9517,-48.0001 834.9518,-55.0001"/>
</g>
<!-- Node6&#45;&gt;Node8 -->
<g id="edge8" class="edge">
<title>Node6&#45;&gt;Node8</title>
<path fill="none" stroke="#191970" d="M796.3546,-37.3978C816.9585,-32.1214 840.1146,-26.1916 859.7625,-21.1601"/>
<polygon fill="#191970" stroke="#191970" points="860.8661,-24.4905 869.6852,-18.619 859.1295,-17.7093 860.8661,-24.4905"/>
</g>
<!-- Node9&#45;&gt;Node2 -->
<g id="edge12" class="edge">
<title>Node9&#45;&gt;Node2</title>
<path fill="none" stroke="#191970" d="M634.5308,-90.5798C648.9935,-94.4978 664.8394,-98.7905 679.7925,-102.8413"/>
<polygon fill="#191970" stroke="#191970" points="678.8991,-106.2254 689.4664,-105.462 680.7295,-99.4689 678.8991,-106.2254"/>
</g>
<!-- Node10&#45;&gt;Node2 -->
<g id="edge14" class="edge">
<title>Node10&#45;&gt;Node2</title>
<path fill="none" stroke="#191970" d="M486.4621,-198.0822C530.965,-194.958 591.6604,-187.8144 642.8105,-171.5 667.0291,-163.7755 692.3472,-150.2683 711.2466,-138.9563"/>
<polygon fill="#191970" stroke="#191970" points="713.2731,-141.8196 719.9759,-133.6144 709.6193,-135.8488 713.2731,-141.8196"/>
</g>
</g>
</svg>
