<?xml version="1.0" encoding="UTF-8" standalone="no"?>
<!DOCTYPE svg PUBLIC "-//W3C//DTD SVG 1.1//EN"
 "http://www.w3.org/Graphics/SVG/1.1/DTD/svg11.dtd">
<!-- Generated by graphviz version 2.40.1 (20161225.0304)
 -->
<!-- Title: CO_Security_DB\get_logins_that_have_any_of_my_ids Pages: 1 -->
<svg width="467pt" height="47pt"
 viewBox="0.00 0.00 466.55 47.00" xmlns="http://www.w3.org/2000/svg" xmlns:xlink="http://www.w3.org/1999/xlink">
<g id="graph0" class="graph" transform="scale(1 1) rotate(0) translate(4 43)">
<title>CO_Security_DB\get_logins_that_have_any_of_my_ids</title>
<polygon fill="#ffffff" stroke="transparent" points="-4,4 -4,-43 462.5498,-43 462.5498,4 -4,4"/>
<!-- Node1 -->
<g id="node1" class="node">
<title>Node1</title>
<g id="a_node1"><a xlink:title=" ">
<polygon fill="#bfbfbf" stroke="#000000" points="0,-.5 0,-38.5 118.8613,-38.5 118.8613,-.5 0,-.5"/>
<text text-anchor="start" x="8" y="-26.5" font-family="Helvetica,sans-Serif" font-size="10.00" fill="#000000">CO_Security_DB\get</text>
<text text-anchor="start" x="8" y="-16.5" font-family="Helvetica,sans-Serif" font-size="10.00" fill="#000000">_logins_that_have_any</text>
<text text-anchor="middle" x="59.4307" y="-6.5" font-family="Helvetica,sans-Serif" font-size="10.00" fill="#000000">_of_my_ids</text>
</a>
</g>
</g>
<!-- Node2 -->
<g id="node2" class="node">
<title>Node2</title>
<g id="a_node2"><a xlink:href="a00304.html#a2396849660aa4ff018ab7509a4badeb5" target="_top" xlink:title=" ">
<polygon fill="#ffffff" stroke="#000000" points="154.8613,-10.5 154.8613,-28.5 285.9248,-28.5 285.9248,-10.5 154.8613,-10.5"/>
<text text-anchor="middle" x="220.3931" y="-16.5" font-family="Helvetica,sans-Serif" font-size="10.00" fill="#000000">A_CO_DB\execute_query</text>
</a>
</g>
</g>
<!-- Node1&#45;&gt;Node2 -->
<g id="edge1" class="edge">
<title>Node1&#45;&gt;Node2</title>
<path fill="none" stroke="#191970" d="M118.9098,-19.5C127.2776,-19.5 135.9711,-19.5 144.5927,-19.5"/>
<polygon fill="#191970" stroke="#191970" points="144.6569,-23.0001 154.6569,-19.5 144.6568,-16.0001 144.6569,-23.0001"/>
</g>
<!-- Node3 -->
<g id="node3" class="node">
<title>Node3</title>
<g id="a_node3"><a xlink:href="a00304.html#ae41efbdfe739934823b5f4c785b22611" target="_top" xlink:title=" ">
<polygon fill="#ffffff" stroke="#000000" points="321.9248,-10.5 321.9248,-28.5 458.5498,-28.5 458.5498,-10.5 321.9248,-10.5"/>
<text text-anchor="middle" x="390.2373" y="-16.5" font-family="Helvetica,sans-Serif" font-size="10.00" fill="#000000">A_CO_DB\_execute_query</text>
</a>
</g>
</g>
<!-- Node2&#45;&gt;Node3 -->
<g id="edge2" class="edge">
<title>Node2&#45;&gt;Node3</title>
<path fill="none" stroke="#191970" d="M286.0593,-19.5C294.3549,-19.5 302.9092,-19.5 311.3826,-19.5"/>
<polygon fill="#191970" stroke="#191970" points="311.6553,-23.0001 321.6552,-19.5 311.6552,-16.0001 311.6553,-23.0001"/>
</g>
</g>
</svg>
