<?xml version="1.0" encoding="UTF-8" standalone="no"?>
<!DOCTYPE svg PUBLIC "-//W3C//DTD SVG 1.1//EN"
 "http://www.w3.org/Graphics/SVG/1.1/DTD/svg11.dtd">
<!-- Generated by graphviz version 2.47.1 (20210417.1919)
 -->
<!-- Title: A_CO_DB_Table_Base Pages: 1 -->
<svg width="638pt" height="1515pt"
 viewBox="0.00 0.00 638.00 1515.00" xmlns="http://www.w3.org/2000/svg" xmlns:xlink="http://www.w3.org/1999/xlink">
<g id="graph0" class="graph" transform="scale(1 1) rotate(0) translate(4 1511)">
<title>A_CO_DB_Table_Base</title>
<polygon fill="white" stroke="transparent" points="-4,4 -4,-1511 634,-1511 634,4 -4,4"/>
<!-- Node1 -->
<g id="node1" class="node">
<title>Node1</title>
<g id="a_node1"><a xlink:title=" ">
<polygon fill="#bfbfbf" stroke="black" points="283.5,-1152.5 283.5,-1506.5 415.5,-1506.5 415.5,-1152.5 283.5,-1152.5"/>
<text text-anchor="middle" x="349.5" y="-1494.5" font-family="Helvetica,sans-Serif" font-size="10.00">A_CO_DB_Table_Base</text>
<polyline fill="none" stroke="black" points="283.5,-1487.5 415.5,-1487.5 "/>
<text text-anchor="start" x="291.5" y="-1475.5" font-family="Helvetica,sans-Serif" font-size="10.00">+ $class_description</text>
<text text-anchor="start" x="291.5" y="-1464.5" font-family="Helvetica,sans-Serif" font-size="10.00">+ $instance_description</text>
<text text-anchor="start" x="291.5" y="-1453.5" font-family="Helvetica,sans-Serif" font-size="10.00">+ $last_access</text>
<text text-anchor="start" x="291.5" y="-1442.5" font-family="Helvetica,sans-Serif" font-size="10.00">+ $name</text>
<text text-anchor="start" x="291.5" y="-1431.5" font-family="Helvetica,sans-Serif" font-size="10.00">+ $read_security_id</text>
<text text-anchor="start" x="291.5" y="-1420.5" font-family="Helvetica,sans-Serif" font-size="10.00">+ $write_security_id</text>
<text text-anchor="start" x="291.5" y="-1409.5" font-family="Helvetica,sans-Serif" font-size="10.00">+ $context</text>
<text text-anchor="start" x="291.5" y="-1398.5" font-family="Helvetica,sans-Serif" font-size="10.00">+ $error</text>
<text text-anchor="start" x="291.5" y="-1387.5" font-family="Helvetica,sans-Serif" font-size="10.00"># $_db_object</text>
<text text-anchor="start" x="291.5" y="-1376.5" font-family="Helvetica,sans-Serif" font-size="10.00"># $_id</text>
<text text-anchor="start" x="291.5" y="-1365.5" font-family="Helvetica,sans-Serif" font-size="10.00"># $_batch_mode</text>
<polyline fill="none" stroke="black" points="283.5,-1358.5 415.5,-1358.5 "/>
<text text-anchor="start" x="291.5" y="-1346.5" font-family="Helvetica,sans-Serif" font-size="10.00">+ __construct()</text>
<text text-anchor="start" x="291.5" y="-1335.5" font-family="Helvetica,sans-Serif" font-size="10.00">+ set_batch_mode()</text>
<text text-anchor="start" x="291.5" y="-1324.5" font-family="Helvetica,sans-Serif" font-size="10.00">+ clear_batch_mode()</text>
<text text-anchor="start" x="291.5" y="-1313.5" font-family="Helvetica,sans-Serif" font-size="10.00">+ load_from_db()</text>
<text text-anchor="start" x="291.5" y="-1302.5" font-family="Helvetica,sans-Serif" font-size="10.00">+ id()</text>
<text text-anchor="start" x="291.5" y="-1291.5" font-family="Helvetica,sans-Serif" font-size="10.00">+ lock()</text>
<text text-anchor="start" x="291.5" y="-1280.5" font-family="Helvetica,sans-Serif" font-size="10.00">+ locked()</text>
<text text-anchor="start" x="291.5" y="-1269.5" font-family="Helvetica,sans-Serif" font-size="10.00">+ danger_will_robinson</text>
<text text-anchor="start" x="291.5" y="-1258.5" font-family="Helvetica,sans-Serif" font-size="10.00">_danger_clear_id()</text>
<text text-anchor="start" x="291.5" y="-1247.5" font-family="Helvetica,sans-Serif" font-size="10.00">+ user_can_read()</text>
<text text-anchor="start" x="291.5" y="-1236.5" font-family="Helvetica,sans-Serif" font-size="10.00">+ user_can_write()</text>
<text text-anchor="start" x="291.5" y="-1225.5" font-family="Helvetica,sans-Serif" font-size="10.00">and 9 more...</text>
<text text-anchor="start" x="291.5" y="-1214.5" font-family="Helvetica,sans-Serif" font-size="10.00"># _default_setup()</text>
<text text-anchor="start" x="291.5" y="-1203.5" font-family="Helvetica,sans-Serif" font-size="10.00"># _build_parameter_array()</text>
<text text-anchor="start" x="291.5" y="-1192.5" font-family="Helvetica,sans-Serif" font-size="10.00"># _badger_serialize()</text>
<text text-anchor="start" x="291.5" y="-1181.5" font-family="Helvetica,sans-Serif" font-size="10.00"># _badger_unserialize()</text>
<text text-anchor="start" x="291.5" y="-1170.5" font-family="Helvetica,sans-Serif" font-size="10.00"># _write_to_db()</text>
<text text-anchor="start" x="291.5" y="-1159.5" font-family="Helvetica,sans-Serif" font-size="10.00"># _seppuku()</text>
</a>
</g>
</g>
<!-- Node2 -->
<g id="node2" class="node">
<title>Node2</title>
<g id="a_node2"><a xlink:href="a00316.html" target="_top" xlink:title=" ">
<polygon fill="white" stroke="black" points="154.5,-915.5 154.5,-1115.5 286.5,-1115.5 286.5,-915.5 154.5,-915.5"/>
<text text-anchor="middle" x="220.5" y="-1103.5" font-family="Helvetica,sans-Serif" font-size="10.00">CO_Main_DB_Record</text>
<polyline fill="none" stroke="black" points="154.5,-1096.5 286.5,-1096.5 "/>
<text text-anchor="start" x="162.5" y="-1084.5" font-family="Helvetica,sans-Serif" font-size="10.00">+ $s_table_name</text>
<text text-anchor="start" x="162.5" y="-1073.5" font-family="Helvetica,sans-Serif" font-size="10.00"># $_owner_id</text>
<text text-anchor="start" x="162.5" y="-1062.5" font-family="Helvetica,sans-Serif" font-size="10.00"># $_tags</text>
<text text-anchor="start" x="162.5" y="-1051.5" font-family="Helvetica,sans-Serif" font-size="10.00">&#45; $_raw_payload</text>
<polyline fill="none" stroke="black" points="154.5,-1044.5 286.5,-1044.5 "/>
<text text-anchor="start" x="162.5" y="-1032.5" font-family="Helvetica,sans-Serif" font-size="10.00">+ __construct()</text>
<text text-anchor="start" x="162.5" y="-1021.5" font-family="Helvetica,sans-Serif" font-size="10.00">+ load_from_db()</text>
<text text-anchor="start" x="162.5" y="-1010.5" font-family="Helvetica,sans-Serif" font-size="10.00">+ set_owner_id()</text>
<text text-anchor="start" x="162.5" y="-999.5" font-family="Helvetica,sans-Serif" font-size="10.00">+ set_tags()</text>
<text text-anchor="start" x="162.5" y="-988.5" font-family="Helvetica,sans-Serif" font-size="10.00">+ set_tag()</text>
<text text-anchor="start" x="162.5" y="-977.5" font-family="Helvetica,sans-Serif" font-size="10.00">+ get_payload()</text>
<text text-anchor="start" x="162.5" y="-966.5" font-family="Helvetica,sans-Serif" font-size="10.00">+ set_payload()</text>
<text text-anchor="start" x="162.5" y="-955.5" font-family="Helvetica,sans-Serif" font-size="10.00">+ owner_id()</text>
<text text-anchor="start" x="162.5" y="-944.5" font-family="Helvetica,sans-Serif" font-size="10.00">+ tags()</text>
<text text-anchor="start" x="162.5" y="-933.5" font-family="Helvetica,sans-Serif" font-size="10.00"># _default_setup()</text>
<text text-anchor="start" x="162.5" y="-922.5" font-family="Helvetica,sans-Serif" font-size="10.00"># _build_parameter_array()</text>
</a>
</g>
</g>
<!-- Node1&#45;&gt;Node2 -->
<g id="edge1" class="edge">
<title>Node1&#45;&gt;Node2</title>
<path fill="none" stroke="midnightblue" d="M279.63,-1159.5C273.43,-1144.52 267.3,-1129.7 261.47,-1115.6"/>
<polygon fill="none" stroke="midnightblue" points="276.43,-1160.94 283.49,-1168.84 282.9,-1158.27 276.43,-1160.94"/>
</g>
<!-- Node11 -->
<g id="node11" class="node">
<title>Node11</title>
<g id="a_node11"><a xlink:href="a00256.html" target="_top" xlink:title=" ">
<polygon fill="white" stroke="black" points="304.5,-981.5 304.5,-1049.5 394.5,-1049.5 394.5,-981.5 304.5,-981.5"/>
<text text-anchor="middle" x="349.5" y="-1037.5" font-family="Helvetica,sans-Serif" font-size="10.00">CO_Owner</text>
<polyline fill="none" stroke="black" points="304.5,-1030.5 394.5,-1030.5 "/>
<text text-anchor="middle" x="349.5" y="-1018.5" font-family="Helvetica,sans-Serif" font-size="10.00"> </text>
<polyline fill="none" stroke="black" points="304.5,-1011.5 394.5,-1011.5 "/>
<text text-anchor="start" x="312.5" y="-999.5" font-family="Helvetica,sans-Serif" font-size="10.00">+ __construct()</text>
<text text-anchor="start" x="312.5" y="-988.5" font-family="Helvetica,sans-Serif" font-size="10.00">+ load_from_db()</text>
</a>
</g>
</g>
<!-- Node1&#45;&gt;Node11 -->
<g id="edge10" class="edge">
<title>Node1&#45;&gt;Node11</title>
<path fill="none" stroke="midnightblue" d="M349.5,-1142.33C349.5,-1106.66 349.5,-1073.18 349.5,-1049.74"/>
<polygon fill="none" stroke="midnightblue" points="346,-1142.44 349.5,-1152.44 353,-1142.44 346,-1142.44"/>
</g>
<!-- Node12 -->
<g id="node12" class="node">
<title>Node12</title>
<g id="a_node12"><a xlink:href="a00328.html" target="_top" xlink:title=" ">
<polygon fill="white" stroke="black" points="412.5,-976 412.5,-1055 544.5,-1055 544.5,-976 412.5,-976"/>
<text text-anchor="middle" x="478.5" y="-1043" font-family="Helvetica,sans-Serif" font-size="10.00">CO_Security_Node</text>
<polyline fill="none" stroke="black" points="412.5,-1036 544.5,-1036 "/>
<text text-anchor="start" x="420.5" y="-1024" font-family="Helvetica,sans-Serif" font-size="10.00"># $_ids</text>
<polyline fill="none" stroke="black" points="412.5,-1017 544.5,-1017 "/>
<text text-anchor="start" x="420.5" y="-1005" font-family="Helvetica,sans-Serif" font-size="10.00">+ __construct()</text>
<text text-anchor="start" x="420.5" y="-994" font-family="Helvetica,sans-Serif" font-size="10.00"># _default_setup()</text>
<text text-anchor="start" x="420.5" y="-983" font-family="Helvetica,sans-Serif" font-size="10.00"># _build_parameter_array()</text>
</a>
</g>
</g>
<!-- Node1&#45;&gt;Node12 -->
<g id="edge11" class="edge">
<title>Node1&#45;&gt;Node12</title>
<path fill="none" stroke="midnightblue" d="M419.41,-1159.41C435.61,-1120.24 451.34,-1082.18 462.5,-1055.2"/>
<polygon fill="none" stroke="midnightblue" points="416.1,-1158.27 415.51,-1168.84 422.57,-1160.94 416.1,-1158.27"/>
</g>
<!-- Node3 -->
<g id="node3" class="node">
<title>Node3</title>
<g id="a_node3"><a xlink:href="a00332.html" target="_top" xlink:title=" ">
<polygon fill="white" stroke="black" points="154,-590.5 154,-878.5 287,-878.5 287,-590.5 154,-590.5"/>
<text text-anchor="middle" x="220.5" y="-866.5" font-family="Helvetica,sans-Serif" font-size="10.00">CO_LL_Location</text>
<polyline fill="none" stroke="black" points="154,-859.5 287,-859.5 "/>
<text text-anchor="start" x="162" y="-847.5" font-family="Helvetica,sans-Serif" font-size="10.00"># $_longitude</text>
<text text-anchor="start" x="162" y="-836.5" font-family="Helvetica,sans-Serif" font-size="10.00"># $_latitude</text>
<polyline fill="none" stroke="black" points="154,-829.5 287,-829.5 "/>
<text text-anchor="start" x="162" y="-817.5" font-family="Helvetica,sans-Serif" font-size="10.00">+ __construct()</text>
<text text-anchor="start" x="162" y="-806.5" font-family="Helvetica,sans-Serif" font-size="10.00">+ load_from_db()</text>
<text text-anchor="start" x="162" y="-795.5" font-family="Helvetica,sans-Serif" font-size="10.00">+ update_db()</text>
<text text-anchor="start" x="162" y="-784.5" font-family="Helvetica,sans-Serif" font-size="10.00">+ set_longitude()</text>
<text text-anchor="start" x="162" y="-773.5" font-family="Helvetica,sans-Serif" font-size="10.00">+ set_latitude()</text>
<text text-anchor="start" x="162" y="-762.5" font-family="Helvetica,sans-Serif" font-size="10.00">+ fuzz_factor()</text>
<text text-anchor="start" x="162" y="-751.5" font-family="Helvetica,sans-Serif" font-size="10.00">+ is_fuzzy()</text>
<text text-anchor="start" x="162" y="-740.5" font-family="Helvetica,sans-Serif" font-size="10.00">+ set_fuzz_factor()</text>
<text text-anchor="start" x="162" y="-729.5" font-family="Helvetica,sans-Serif" font-size="10.00">+ raw_longitude()</text>
<text text-anchor="start" x="162" y="-718.5" font-family="Helvetica,sans-Serif" font-size="10.00">+ raw_latitude()</text>
<text text-anchor="start" x="162" y="-707.5" font-family="Helvetica,sans-Serif" font-size="10.00">+ longitude()</text>
<text text-anchor="start" x="162" y="-696.5" font-family="Helvetica,sans-Serif" font-size="10.00">+ latitude()</text>
<text text-anchor="start" x="162" y="-685.5" font-family="Helvetica,sans-Serif" font-size="10.00">+ set_can_see_through</text>
<text text-anchor="start" x="162" y="-674.5" font-family="Helvetica,sans-Serif" font-size="10.00">_the_fuzz()</text>
<text text-anchor="start" x="162" y="-663.5" font-family="Helvetica,sans-Serif" font-size="10.00">+ can_see_through_the</text>
<text text-anchor="start" x="162" y="-652.5" font-family="Helvetica,sans-Serif" font-size="10.00">_fuzz()</text>
<text text-anchor="start" x="162" y="-641.5" font-family="Helvetica,sans-Serif" font-size="10.00">+ i_can_see_clearly_now()</text>
<text text-anchor="start" x="162" y="-630.5" font-family="Helvetica,sans-Serif" font-size="10.00"># _default_setup()</text>
<text text-anchor="start" x="162" y="-619.5" font-family="Helvetica,sans-Serif" font-size="10.00"># _build_parameter_array()</text>
<text text-anchor="start" x="162" y="-608.5" font-family="Helvetica,sans-Serif" font-size="10.00"># _km_per_degree()</text>
<text text-anchor="start" x="162" y="-597.5" font-family="Helvetica,sans-Serif" font-size="10.00"># _fuzz_me()</text>
</a>
</g>
</g>
<!-- Node2&#45;&gt;Node3 -->
<g id="edge2" class="edge">
<title>Node2&#45;&gt;Node3</title>
<path fill="none" stroke="midnightblue" d="M220.5,-905.21C220.5,-896.51 220.5,-887.63 220.5,-878.74"/>
<polygon fill="none" stroke="midnightblue" points="217,-905.35 220.5,-915.35 224,-905.35 217,-905.35"/>
</g>
<!-- Node4 -->
<g id="node4" class="node">
<title>Node4</title>
<g id="a_node4"><a xlink:href="a00248.html" target="_top" xlink:title=" ">
<polygon fill="white" stroke="black" points="32.5,-381 32.5,-460 130.5,-460 130.5,-381 32.5,-381"/>
<text text-anchor="middle" x="81.5" y="-448" font-family="Helvetica,sans-Serif" font-size="10.00">CO_Collection</text>
<polyline fill="none" stroke="black" points="32.5,-441 130.5,-441 "/>
<text text-anchor="middle" x="81.5" y="-429" font-family="Helvetica,sans-Serif" font-size="10.00"> </text>
<polyline fill="none" stroke="black" points="32.5,-422 130.5,-422 "/>
<text text-anchor="start" x="40.5" y="-410" font-family="Helvetica,sans-Serif" font-size="10.00">+ __construct()</text>
<text text-anchor="start" x="40.5" y="-399" font-family="Helvetica,sans-Serif" font-size="10.00">+ load_from_db()</text>
<text text-anchor="start" x="40.5" y="-388" font-family="Helvetica,sans-Serif" font-size="10.00">+ delete_from_db()</text>
</a>
</g>
</g>
<!-- Node3&#45;&gt;Node4 -->
<g id="edge3" class="edge">
<title>Node3&#45;&gt;Node4</title>
<path fill="none" stroke="midnightblue" d="M152.58,-581.04C132.62,-536.25 112.5,-491.08 98.78,-460.29"/>
<polygon fill="none" stroke="midnightblue" points="149.43,-582.57 156.7,-590.28 155.82,-579.73 149.43,-582.57"/>
</g>
<!-- Node6 -->
<g id="node6" class="node">
<title>Node6</title>
<g id="a_node6"><a xlink:href="a00260.html" target="_top" xlink:title=" ">
<polygon fill="white" stroke="black" points="155.5,-287.5 155.5,-553.5 285.5,-553.5 285.5,-287.5 155.5,-287.5"/>
<text text-anchor="middle" x="220.5" y="-541.5" font-family="Helvetica,sans-Serif" font-size="10.00">CO_Place</text>
<polyline fill="none" stroke="black" points="155.5,-534.5 285.5,-534.5 "/>
<text text-anchor="start" x="163.5" y="-522.5" font-family="Helvetica,sans-Serif" font-size="10.00">+ $address_elements</text>
<text text-anchor="start" x="163.5" y="-511.5" font-family="Helvetica,sans-Serif" font-size="10.00">+ $google_geocode_uri</text>
<text text-anchor="start" x="163.5" y="-500.5" font-family="Helvetica,sans-Serif" font-size="10.00">_prefix</text>
<text text-anchor="start" x="163.5" y="-489.5" font-family="Helvetica,sans-Serif" font-size="10.00">+ $google_lookup_uri</text>
<text text-anchor="start" x="163.5" y="-478.5" font-family="Helvetica,sans-Serif" font-size="10.00">_prefix</text>
<text text-anchor="start" x="163.5" y="-467.5" font-family="Helvetica,sans-Serif" font-size="10.00">+ $region_bias</text>
<polyline fill="none" stroke="black" points="155.5,-460.5 285.5,-460.5 "/>
<text text-anchor="start" x="163.5" y="-448.5" font-family="Helvetica,sans-Serif" font-size="10.00">+ __construct()</text>
<text text-anchor="start" x="163.5" y="-437.5" font-family="Helvetica,sans-Serif" font-size="10.00">+ set_address_elements()</text>
<text text-anchor="start" x="163.5" y="-426.5" font-family="Helvetica,sans-Serif" font-size="10.00">+ set_address_element()</text>
<text text-anchor="start" x="163.5" y="-415.5" font-family="Helvetica,sans-Serif" font-size="10.00">+ set_address_element</text>
<text text-anchor="start" x="163.5" y="-404.5" font-family="Helvetica,sans-Serif" font-size="10.00">_by_key()</text>
<text text-anchor="start" x="163.5" y="-393.5" font-family="Helvetica,sans-Serif" font-size="10.00">+ get_address_element</text>
<text text-anchor="start" x="163.5" y="-382.5" font-family="Helvetica,sans-Serif" font-size="10.00">_by_index()</text>
<text text-anchor="start" x="163.5" y="-371.5" font-family="Helvetica,sans-Serif" font-size="10.00">+ lookup_address()</text>
<text text-anchor="start" x="163.5" y="-360.5" font-family="Helvetica,sans-Serif" font-size="10.00">+ geocode_long_lat()</text>
<text text-anchor="start" x="163.5" y="-349.5" font-family="Helvetica,sans-Serif" font-size="10.00">+ get_readable_address()</text>
<text text-anchor="start" x="163.5" y="-338.5" font-family="Helvetica,sans-Serif" font-size="10.00">+ set_tags_from_address</text>
<text text-anchor="start" x="163.5" y="-327.5" font-family="Helvetica,sans-Serif" font-size="10.00">_elements()</text>
<text text-anchor="start" x="163.5" y="-316.5" font-family="Helvetica,sans-Serif" font-size="10.00">+ get_address_elements()</text>
<text text-anchor="start" x="163.5" y="-305.5" font-family="Helvetica,sans-Serif" font-size="10.00"># _get_address_element</text>
<text text-anchor="start" x="163.5" y="-294.5" font-family="Helvetica,sans-Serif" font-size="10.00">_labels()</text>
</a>
</g>
</g>
<!-- Node3&#45;&gt;Node6 -->
<g id="edge5" class="edge">
<title>Node3&#45;&gt;Node6</title>
<path fill="none" stroke="midnightblue" d="M220.5,-580.28C220.5,-571.41 220.5,-562.53 220.5,-553.75"/>
<polygon fill="none" stroke="midnightblue" points="217,-580.28 220.5,-590.28 224,-580.28 217,-580.28"/>
</g>
<!-- Node10 -->
<g id="node10" class="node">
<title>Node10</title>
<g id="a_node10"><a xlink:href="a00276.html" target="_top" xlink:title=" ">
<polygon fill="white" stroke="black" points="304,-331.5 304,-509.5 429,-509.5 429,-331.5 304,-331.5"/>
<text text-anchor="middle" x="366.5" y="-497.5" font-family="Helvetica,sans-Serif" font-size="10.00">CO_User_Collection</text>
<polyline fill="none" stroke="black" points="304,-490.5 429,-490.5 "/>
<text text-anchor="start" x="312" y="-478.5" font-family="Helvetica,sans-Serif" font-size="10.00">&#45; $_login_object</text>
<polyline fill="none" stroke="black" points="304,-471.5 429,-471.5 "/>
<text text-anchor="start" x="312" y="-459.5" font-family="Helvetica,sans-Serif" font-size="10.00">+ __construct()</text>
<text text-anchor="start" x="312" y="-448.5" font-family="Helvetica,sans-Serif" font-size="10.00">+ load_from_db()</text>
<text text-anchor="start" x="312" y="-437.5" font-family="Helvetica,sans-Serif" font-size="10.00">+ get_login_instance()</text>
<text text-anchor="start" x="312" y="-426.5" font-family="Helvetica,sans-Serif" font-size="10.00">+ has_login()</text>
<text text-anchor="start" x="312" y="-415.5" font-family="Helvetica,sans-Serif" font-size="10.00">+ has_login_i_cant_see()</text>
<text text-anchor="start" x="312" y="-404.5" font-family="Helvetica,sans-Serif" font-size="10.00">+ is_god()</text>
<text text-anchor="start" x="312" y="-393.5" font-family="Helvetica,sans-Serif" font-size="10.00">+ is_manager()</text>
<text text-anchor="start" x="312" y="-382.5" font-family="Helvetica,sans-Serif" font-size="10.00">+ set_tags()</text>
<text text-anchor="start" x="312" y="-371.5" font-family="Helvetica,sans-Serif" font-size="10.00">+ set_tag()</text>
<text text-anchor="start" x="312" y="-360.5" font-family="Helvetica,sans-Serif" font-size="10.00">+ get_surname()</text>
<text text-anchor="start" x="312" y="-349.5" font-family="Helvetica,sans-Serif" font-size="10.00">and 14 more...</text>
<text text-anchor="start" x="312" y="-338.5" font-family="Helvetica,sans-Serif" font-size="10.00"># _load_login()</text>
</a>
</g>
</g>
<!-- Node3&#45;&gt;Node10 -->
<g id="edge9" class="edge">
<title>Node3&#45;&gt;Node10</title>
<path fill="none" stroke="midnightblue" d="M291.37,-582.06C302.99,-557.22 314.69,-532.22 325.27,-509.6"/>
<polygon fill="none" stroke="midnightblue" points="288.16,-580.65 287.09,-591.2 294.5,-583.62 288.16,-580.65"/>
</g>
<!-- Node5 -->
<g id="node5" class="node">
<title>Node5</title>
<g id="a_node5"><a xlink:href="a00252.html" target="_top" xlink:title=" ">
<polygon fill="white" stroke="black" points="0,-116.5 0,-250.5 147,-250.5 147,-116.5 0,-116.5"/>
<text text-anchor="middle" x="73.5" y="-238.5" font-family="Helvetica,sans-Serif" font-size="10.00">CO_KeyValue_CO_Collection</text>
<polyline fill="none" stroke="black" points="0,-231.5 147,-231.5 "/>
<text text-anchor="middle" x="73.5" y="-219.5" font-family="Helvetica,sans-Serif" font-size="10.00"> </text>
<polyline fill="none" stroke="black" points="0,-212.5 147,-212.5 "/>
<text text-anchor="start" x="8" y="-200.5" font-family="Helvetica,sans-Serif" font-size="10.00">+ __construct()</text>
<text text-anchor="start" x="8" y="-189.5" font-family="Helvetica,sans-Serif" font-size="10.00">+ load_from_db()</text>
<text text-anchor="start" x="8" y="-178.5" font-family="Helvetica,sans-Serif" font-size="10.00">+ set_key()</text>
<text text-anchor="start" x="8" y="-167.5" font-family="Helvetica,sans-Serif" font-size="10.00">+ get_key()</text>
<text text-anchor="start" x="8" y="-156.5" font-family="Helvetica,sans-Serif" font-size="10.00">+ get_value()</text>
<text text-anchor="start" x="8" y="-145.5" font-family="Helvetica,sans-Serif" font-size="10.00">+ get_key_value_array()</text>
<text text-anchor="start" x="8" y="-134.5" font-family="Helvetica,sans-Serif" font-size="10.00">+ get_key_value_assoc()</text>
<text text-anchor="start" x="8" y="-123.5" font-family="Helvetica,sans-Serif" font-size="10.00">+ set_value()</text>
</a>
</g>
</g>
<!-- Node4&#45;&gt;Node5 -->
<g id="edge4" class="edge">
<title>Node4&#45;&gt;Node5</title>
<path fill="none" stroke="midnightblue" d="M79.83,-370.59C78.65,-335.83 77.05,-288.76 75.75,-250.65"/>
<polygon fill="none" stroke="midnightblue" points="76.35,-371.08 80.19,-380.96 83.35,-370.84 76.35,-371.08"/>
</g>
<!-- Node7 -->
<g id="node7" class="node">
<title>Node7</title>
<g id="a_node7"><a xlink:href="a00264.html" target="_top" xlink:title=" ">
<polygon fill="white" stroke="black" points="165.5,-144 165.5,-223 275.5,-223 275.5,-144 165.5,-144"/>
<text text-anchor="middle" x="220.5" y="-211" font-family="Helvetica,sans-Serif" font-size="10.00">CO_Place_Collection</text>
<polyline fill="none" stroke="black" points="165.5,-204 275.5,-204 "/>
<text text-anchor="middle" x="220.5" y="-192" font-family="Helvetica,sans-Serif" font-size="10.00"> </text>
<polyline fill="none" stroke="black" points="165.5,-185 275.5,-185 "/>
<text text-anchor="start" x="173.5" y="-173" font-family="Helvetica,sans-Serif" font-size="10.00">+ __construct()</text>
<text text-anchor="start" x="173.5" y="-162" font-family="Helvetica,sans-Serif" font-size="10.00">+ load_from_db()</text>
<text text-anchor="start" x="173.5" y="-151" font-family="Helvetica,sans-Serif" font-size="10.00">+ delete_from_db()</text>
</a>
</g>
</g>
<!-- Node6&#45;&gt;Node7 -->
<g id="edge6" class="edge">
<title>Node6&#45;&gt;Node7</title>
<path fill="none" stroke="midnightblue" d="M220.5,-277.16C220.5,-257.42 220.5,-238.66 220.5,-223.26"/>
<polygon fill="none" stroke="midnightblue" points="217,-277.23 220.5,-287.23 224,-277.23 217,-277.23"/>
</g>
<!-- Node8 -->
<g id="node8" class="node">
<title>Node8</title>
<g id="a_node8"><a xlink:href="a00268.html" target="_top" xlink:title=" ">
<polygon fill="white" stroke="black" points="293.5,-138.5 293.5,-228.5 423.5,-228.5 423.5,-138.5 293.5,-138.5"/>
<text text-anchor="middle" x="358.5" y="-216.5" font-family="Helvetica,sans-Serif" font-size="10.00">CO_US_Place</text>
<polyline fill="none" stroke="black" points="293.5,-209.5 423.5,-209.5 "/>
<text text-anchor="middle" x="358.5" y="-197.5" font-family="Helvetica,sans-Serif" font-size="10.00"> </text>
<polyline fill="none" stroke="black" points="293.5,-190.5 423.5,-190.5 "/>
<text text-anchor="start" x="301.5" y="-178.5" font-family="Helvetica,sans-Serif" font-size="10.00">+ __construct()</text>
<text text-anchor="start" x="301.5" y="-167.5" font-family="Helvetica,sans-Serif" font-size="10.00">+ get_address_elements()</text>
<text text-anchor="start" x="301.5" y="-156.5" font-family="Helvetica,sans-Serif" font-size="10.00"># _get_address_element</text>
<text text-anchor="start" x="301.5" y="-145.5" font-family="Helvetica,sans-Serif" font-size="10.00">_labels()</text>
</a>
</g>
</g>
<!-- Node6&#45;&gt;Node8 -->
<g id="edge7" class="edge">
<title>Node6&#45;&gt;Node8</title>
<path fill="none" stroke="midnightblue" d="M290.61,-293.61C291.91,-291.39 293.21,-289.18 294.5,-287 305.92,-267.67 318.97,-246.6 330.3,-228.61"/>
<polygon fill="none" stroke="midnightblue" points="287.57,-291.87 285.56,-302.28 293.62,-295.4 287.57,-291.87"/>
</g>
<!-- Node9 -->
<g id="node9" class="node">
<title>Node9</title>
<g id="a_node9"><a xlink:href="a00272.html" target="_top" xlink:title=" ">
<polygon fill="white" stroke="black" points="293.5,-0.5 293.5,-79.5 423.5,-79.5 423.5,-0.5 293.5,-0.5"/>
<text text-anchor="middle" x="358.5" y="-67.5" font-family="Helvetica,sans-Serif" font-size="10.00">CO_US_Place_Collection</text>
<polyline fill="none" stroke="black" points="293.5,-60.5 423.5,-60.5 "/>
<text text-anchor="middle" x="358.5" y="-48.5" font-family="Helvetica,sans-Serif" font-size="10.00"> </text>
<polyline fill="none" stroke="black" points="293.5,-41.5 423.5,-41.5 "/>
<text text-anchor="start" x="301.5" y="-29.5" font-family="Helvetica,sans-Serif" font-size="10.00">+ __construct()</text>
<text text-anchor="start" x="301.5" y="-18.5" font-family="Helvetica,sans-Serif" font-size="10.00">+ load_from_db()</text>
<text text-anchor="start" x="301.5" y="-7.5" font-family="Helvetica,sans-Serif" font-size="10.00">+ delete_from_db()</text>
</a>
</g>
</g>
<!-- Node8&#45;&gt;Node9 -->
<g id="edge8" class="edge">
<title>Node8&#45;&gt;Node9</title>
<path fill="none" stroke="midnightblue" d="M358.5,-127.83C358.5,-111.86 358.5,-94.75 358.5,-79.97"/>
<polygon fill="none" stroke="midnightblue" points="355,-128.12 358.5,-138.12 362,-128.12 355,-128.12"/>
</g>
<!-- Node13 -->
<g id="node13" class="node">
<title>Node13</title>
<g id="a_node13"><a xlink:href="a00336.html" target="_top" xlink:title=" ">
<polygon fill="white" stroke="black" points="362.5,-684 362.5,-785 478.5,-785 478.5,-684 362.5,-684"/>
<text text-anchor="middle" x="420.5" y="-773" font-family="Helvetica,sans-Serif" font-size="10.00">CO_Security_ID</text>
<polyline fill="none" stroke="black" points="362.5,-766 478.5,-766 "/>
<text text-anchor="start" x="370.5" y="-754" font-family="Helvetica,sans-Serif" font-size="10.00"># $_special_first_time</text>
<text text-anchor="start" x="370.5" y="-743" font-family="Helvetica,sans-Serif" font-size="10.00">_security_exemption</text>
<polyline fill="none" stroke="black" points="362.5,-736 478.5,-736 "/>
<text text-anchor="start" x="370.5" y="-724" font-family="Helvetica,sans-Serif" font-size="10.00">+ __construct()</text>
<text text-anchor="start" x="370.5" y="-713" font-family="Helvetica,sans-Serif" font-size="10.00">+ load_from_db()</text>
<text text-anchor="start" x="370.5" y="-702" font-family="Helvetica,sans-Serif" font-size="10.00">+ security_exemption()</text>
<text text-anchor="start" x="370.5" y="-691" font-family="Helvetica,sans-Serif" font-size="10.00">+ user_can_read()</text>
</a>
</g>
</g>
<!-- Node12&#45;&gt;Node13 -->
<g id="edge12" class="edge">
<title>Node12&#45;&gt;Node13</title>
<path fill="none" stroke="midnightblue" d="M468.41,-965.96C457.89,-915.37 441.49,-836.46 430.87,-785.37"/>
<polygon fill="none" stroke="midnightblue" points="465.03,-966.92 470.5,-976 471.89,-965.5 465.03,-966.92"/>
</g>
<!-- Node14 -->
<g id="node14" class="node">
<title>Node14</title>
<g id="a_node14"><a xlink:href="a00340.html" target="_top" xlink:title=" ">
<polygon fill="white" stroke="black" points="497,-607 497,-862 630,-862 630,-607 497,-607"/>
<text text-anchor="middle" x="563.5" y="-850" font-family="Helvetica,sans-Serif" font-size="10.00">CO_Security_Login</text>
<polyline fill="none" stroke="black" points="497,-843 630,-843 "/>
<text text-anchor="start" x="505" y="-831" font-family="Helvetica,sans-Serif" font-size="10.00">+ $login_id</text>
<text text-anchor="start" x="505" y="-820" font-family="Helvetica,sans-Serif" font-size="10.00"># $_api_key</text>
<text text-anchor="start" x="505" y="-809" font-family="Helvetica,sans-Serif" font-size="10.00"># $_personal_ids</text>
<text text-anchor="start" x="505" y="-798" font-family="Helvetica,sans-Serif" font-size="10.00"># $_ids</text>
<text text-anchor="start" x="505" y="-787" font-family="Helvetica,sans-Serif" font-size="10.00">&#45; $_override_access_class</text>
<polyline fill="none" stroke="black" points="497,-780 630,-780 "/>
<text text-anchor="start" x="505" y="-768" font-family="Helvetica,sans-Serif" font-size="10.00">+ __construct()</text>
<text text-anchor="start" x="505" y="-757" font-family="Helvetica,sans-Serif" font-size="10.00">+ load_from_db()</text>
<text text-anchor="start" x="505" y="-746" font-family="Helvetica,sans-Serif" font-size="10.00">+ set_ids()</text>
<text text-anchor="start" x="505" y="-735" font-family="Helvetica,sans-Serif" font-size="10.00">+ add_id()</text>
<text text-anchor="start" x="505" y="-724" font-family="Helvetica,sans-Serif" font-size="10.00">+ remove_id()</text>
<text text-anchor="start" x="505" y="-713" font-family="Helvetica,sans-Serif" font-size="10.00">+ ids()</text>
<text text-anchor="start" x="505" y="-702" font-family="Helvetica,sans-Serif" font-size="10.00">+ user_can_edit_ids()</text>
<text text-anchor="start" x="505" y="-691" font-family="Helvetica,sans-Serif" font-size="10.00">+ set_personal_ids()</text>
<text text-anchor="start" x="505" y="-680" font-family="Helvetica,sans-Serif" font-size="10.00">+ personal_ids()</text>
<text text-anchor="start" x="505" y="-669" font-family="Helvetica,sans-Serif" font-size="10.00">+ get_crypted_password()</text>
<text text-anchor="start" x="505" y="-658" font-family="Helvetica,sans-Serif" font-size="10.00">and 17 more...</text>
<text text-anchor="start" x="505" y="-647" font-family="Helvetica,sans-Serif" font-size="10.00"># _set_up_api_key()</text>
<text text-anchor="start" x="505" y="-636" font-family="Helvetica,sans-Serif" font-size="10.00"># _default_setup()</text>
<text text-anchor="start" x="505" y="-625" font-family="Helvetica,sans-Serif" font-size="10.00"># _build_parameter_array()</text>
<text text-anchor="start" x="505" y="-614" font-family="Helvetica,sans-Serif" font-size="10.00"># _random_str()</text>
</a>
</g>
</g>
<!-- Node12&#45;&gt;Node14 -->
<g id="edge13" class="edge">
<title>Node12&#45;&gt;Node14</title>
<path fill="none" stroke="midnightblue" d="M493.22,-966.19C502.02,-937.31 513.64,-899.16 524.9,-862.21"/>
<polygon fill="none" stroke="midnightblue" points="489.8,-965.41 490.23,-976 496.49,-967.45 489.8,-965.41"/>
</g>
<!-- Node15 -->
<g id="node15" class="node">
<title>Node15</title>
<g id="a_node15"><a xlink:href="a00228.html" target="_top" xlink:title=" ">
<polygon fill="white" stroke="black" points="505.5,-370 505.5,-471 621.5,-471 621.5,-370 505.5,-370"/>
<text text-anchor="middle" x="563.5" y="-459" font-family="Helvetica,sans-Serif" font-size="10.00">CO_Cobra_Login</text>
<polyline fill="none" stroke="black" points="505.5,-452 621.5,-452 "/>
<text text-anchor="start" x="513.5" y="-440" font-family="Helvetica,sans-Serif" font-size="10.00"># $_special_first_time</text>
<text text-anchor="start" x="513.5" y="-429" font-family="Helvetica,sans-Serif" font-size="10.00">_security_exemption</text>
<polyline fill="none" stroke="black" points="505.5,-422 621.5,-422 "/>
<text text-anchor="start" x="513.5" y="-410" font-family="Helvetica,sans-Serif" font-size="10.00">+ __construct()</text>
<text text-anchor="start" x="513.5" y="-399" font-family="Helvetica,sans-Serif" font-size="10.00">+ set_personal_ids()</text>
<text text-anchor="start" x="513.5" y="-388" font-family="Helvetica,sans-Serif" font-size="10.00">+ load_from_db()</text>
<text text-anchor="start" x="513.5" y="-377" font-family="Helvetica,sans-Serif" font-size="10.00">+ security_exemption()</text>
</a>
</g>
</g>
<!-- Node14&#45;&gt;Node15 -->
<g id="edge14" class="edge">
<title>Node14&#45;&gt;Node15</title>
<path fill="none" stroke="midnightblue" d="M563.5,-596.51C563.5,-551.88 563.5,-505.14 563.5,-471.2"/>
<polygon fill="none" stroke="midnightblue" points="560,-596.6 563.5,-606.6 567,-596.6 560,-596.6"/>
</g>
<!-- Node16 -->
<g id="node16" class="node">
<title>Node16</title>
<g id="a_node16"><a xlink:href="a00232.html" target="_top" xlink:title=" ">
<polygon fill="white" stroke="black" points="509,-138.5 509,-228.5 618,-228.5 618,-138.5 509,-138.5"/>
<text text-anchor="middle" x="563.5" y="-216.5" font-family="Helvetica,sans-Serif" font-size="10.00">CO_Login_Manager</text>
<polyline fill="none" stroke="black" points="509,-209.5 618,-209.5 "/>
<text text-anchor="start" x="517" y="-197.5" font-family="Helvetica,sans-Serif" font-size="10.00"># $_added_new_id</text>
<polyline fill="none" stroke="black" points="509,-190.5 618,-190.5 "/>
<text text-anchor="start" x="517" y="-178.5" font-family="Helvetica,sans-Serif" font-size="10.00">+ __construct()</text>
<text text-anchor="start" x="517" y="-167.5" font-family="Helvetica,sans-Serif" font-size="10.00">+ load_from_db()</text>
<text text-anchor="start" x="517" y="-156.5" font-family="Helvetica,sans-Serif" font-size="10.00">+ is_manager()</text>
<text text-anchor="start" x="517" y="-145.5" font-family="Helvetica,sans-Serif" font-size="10.00">+ add_new_login_id()</text>
</a>
</g>
</g>
<!-- Node15&#45;&gt;Node16 -->
<g id="edge15" class="edge">
<title>Node15&#45;&gt;Node16</title>
<path fill="none" stroke="midnightblue" d="M563.5,-359.86C563.5,-319.07 563.5,-265.89 563.5,-228.83"/>
<polygon fill="none" stroke="midnightblue" points="560,-359.95 563.5,-369.95 567,-359.95 560,-359.95"/>
</g>
</g>
</svg>
