<?xml version="1.0" encoding="UTF-8" standalone="no"?>
<!DOCTYPE svg PUBLIC "-//W3C//DTD SVG 1.1//EN"
 "http://www.w3.org/Graphics/SVG/1.1/DTD/svg11.dtd">
<!-- Generated by graphviz version 2.40.1 (20161225.0304)
 -->
<!-- Title: A_CO_DB_Table_Base\_build_parameter_array Pages: 1 -->
<!--zoomable 598 -->
<svg id="main" version="1.1" xmlns="http://www.w3.org/2000/svg" xmlns:xlink="http://www.w3.org/1999/xlink" xml:space="preserve" onload="init(evt)">
<style type="text/css"><![CDATA[
.edge:hover path { stroke: red; }
.edge:hover polygon { stroke: red; fill: red; }
]]></style>
<script type="text/javascript"><![CDATA[
var edges = document.getElementsByTagName('g');
if (edges && edges.length) {
  for (var i=0;i<edges.length;i++) {
    if (edges[i].id.substr(0,4)=='edge') {
      edges[i].setAttribute('class','edge');
    }
  }
}
]]></script>
        <defs>
                <circle id="rim" cx="0" cy="0" r="7"/>
                <circle id="rim2" cx="0" cy="0" r="3.5"/>
                <g id="zoomPlus">
                        <use xlink:href="#rim" fill="#404040">
                                <set attributeName="fill" to="#808080" begin="zoomplus.mouseover" end="zoomplus.mouseout"/>
                        </use>
                        <path d="M-4,0h8M0,-4v8" fill="none" stroke="white" stroke-width="1.5" pointer-events="none"/>
                </g>
                <g id="zoomMin">
                        <use xlink:href="#rim" fill="#404040">
                                <set attributeName="fill" to="#808080" begin="zoomminus.mouseover" end="zoomminus.mouseout"/>
                        </use>
                        <path d="M-4,0h8" fill="none" stroke="white" stroke-width="1.5" pointer-events="none"/>
                </g>
                <g id="dirArrow">
                        <path fill="none" stroke="white" stroke-width="1.5" d="M0,-3.0v7 M-2.5,-0.5L0,-3.0L2.5,-0.5"/>
                </g>
               <g id="resetDef">
                       <use xlink:href="#rim2" fill="#404040">
                               <set attributeName="fill" to="#808080" begin="reset.mouseover" end="reset.mouseout"/>
                       </use>
               </g>
        </defs>

<script type="text/javascript">
var viewWidth = 838;
var viewHeight = 598;
var sectionId = 'dynsection-6';
</script>
<script xlink:href="svgpan.js"/>
<svg id="graph" class="graph">
<g id="viewport">
<title>A_CO_DB_Table_Base\_build_parameter_array</title>
<polygon fill="#ffffff" stroke="transparent" points="-4,4 -4,-594 833.8838,-594 833.8838,4 -4,4"/>
<!-- Node36 -->
<g id="node1" class="node">
<title>Node36</title>
<polygon fill="#bfbfbf" stroke="#000000" points="0,-241.5 0,-269.5 124.9502,-269.5 124.9502,-241.5 0,-241.5"/>
<text text-anchor="start" x="8" y="-257.5" font-family="Helvetica,sans-Serif" font-size="10.00" fill="#000000">A_CO_DB_Table_Base</text>
<text text-anchor="middle" x="62.4751" y="-247.5" font-family="Helvetica,sans-Serif" font-size="10.00" fill="#000000">\_build_parameter_array</text>
</g>
<!-- Node37 -->
<g id="node2" class="node">
<title>Node37</title>
<g id="a_node2"><a xlink:href="a00311.html#adda14b544e11934db3bf8130aeea0610" target="_top" xlink:title="A_CO_DB_Table_Base\l\\_write_to_db">
<polygon fill="#ffffff" stroke="#000000" points="160.9502,-241.5 160.9502,-269.5 281.457,-269.5 281.457,-241.5 160.9502,-241.5"/>
<text text-anchor="start" x="168.9502" y="-257.5" font-family="Helvetica,sans-Serif" font-size="10.00" fill="#000000">A_CO_DB_Table_Base</text>
<text text-anchor="middle" x="221.2036" y="-247.5" font-family="Helvetica,sans-Serif" font-size="10.00" fill="#000000">\_write_to_db</text>
</a>
</g>
</g>
<!-- Node36&#45;&gt;Node37 -->
<g id="edge1" class="edge">
<title>Node36&#45;&gt;Node37</title>
<path fill="none" stroke="#191970" d="M135.454,-255.5C143.9142,-255.5 152.4717,-255.5 160.7388,-255.5"/>
<polygon fill="#191970" stroke="#191970" points="135.2088,-252.0001 125.2088,-255.5 135.2088,-259.0001 135.2088,-252.0001"/>
</g>
<!-- Node38 -->
<g id="node3" class="node">
<title>Node38</title>
<g id="a_node3"><a xlink:href="a00311.html#a7487697640051c6661b8cdca6f109959" target="_top" xlink:title="A_CO_DB_Table_Base\l\\update_db">
<polygon fill="#ffffff" stroke="#000000" points="323.5728,-265.5 323.5728,-293.5 444.0796,-293.5 444.0796,-265.5 323.5728,-265.5"/>
<text text-anchor="start" x="331.5728" y="-281.5" font-family="Helvetica,sans-Serif" font-size="10.00" fill="#000000">A_CO_DB_Table_Base</text>
<text text-anchor="middle" x="383.8262" y="-271.5" font-family="Helvetica,sans-Serif" font-size="10.00" fill="#000000">\update_db</text>
</a>
</g>
</g>
<!-- Node37&#45;&gt;Node38 -->
<g id="edge2" class="edge">
<title>Node37&#45;&gt;Node38</title>
<path fill="none" stroke="#191970" d="M291.7887,-265.917C302.354,-267.4762 313.1651,-269.0718 323.4918,-270.5958"/>
<polygon fill="#191970" stroke="#191970" points="292.1621,-262.4343 281.7583,-264.4367 291.1401,-269.3593 292.1621,-262.4343"/>
</g>
<!-- Node55 -->
<g id="node20" class="node">
<title>Node55</title>
<g id="a_node20"><a xlink:href="a00343.html#ae927630811dae37fddc34b16878c63fd" target="_top" xlink:title="CO_Security_Login\\delete\l_from_db">
<polygon fill="#ffffff" stroke="#000000" points="317.457,-218.5 317.457,-246.5 450.1953,-246.5 450.1953,-218.5 317.457,-218.5"/>
<text text-anchor="start" x="325.457" y="-234.5" font-family="Helvetica,sans-Serif" font-size="10.00" fill="#000000">CO_Security_Login\delete</text>
<text text-anchor="middle" x="383.8262" y="-224.5" font-family="Helvetica,sans-Serif" font-size="10.00" fill="#000000">_from_db</text>
</a>
</g>
</g>
<!-- Node37&#45;&gt;Node55 -->
<g id="edge19" class="edge">
<title>Node37&#45;&gt;Node55</title>
<path fill="none" stroke="#191970" d="M291.9077,-245.5002C300.3112,-244.3117 308.8684,-243.1014 317.2121,-241.9213"/>
<polygon fill="#191970" stroke="#191970" points="291.1696,-242.0697 281.7583,-246.9356 292.1499,-249.0007 291.1696,-242.0697"/>
</g>
<!-- Node39 -->
<g id="node4" class="node">
<title>Node39</title>
<g id="a_node4"><a xlink:href="a00311.html#ab976e4ab55890095fc60406326b5de80" target="_top" xlink:title="A_CO_DB_Table_Base\l\\clear_batch_mode">
<polygon fill="#ffffff" stroke="#000000" points="503.9761,-561.5 503.9761,-589.5 624.4829,-589.5 624.4829,-561.5 503.9761,-561.5"/>
<text text-anchor="start" x="511.9761" y="-577.5" font-family="Helvetica,sans-Serif" font-size="10.00" fill="#000000">A_CO_DB_Table_Base</text>
<text text-anchor="middle" x="564.2295" y="-567.5" font-family="Helvetica,sans-Serif" font-size="10.00" fill="#000000">\clear_batch_mode</text>
</a>
</g>
</g>
<!-- Node38&#45;&gt;Node39 -->
<g id="edge3" class="edge">
<title>Node38&#45;&gt;Node39</title>
<path fill="none" stroke="#191970" d="M385.8352,-303.9869C391.5265,-357.1662 412.4998,-483.9369 486.1953,-552.5 491.2622,-557.214 497.2483,-560.9661 503.6162,-563.9518"/>
<polygon fill="#191970" stroke="#191970" points="389.296,-303.4152 384.8392,-293.8034 382.3293,-304.0966 389.296,-303.4152"/>
</g>
<!-- Node40 -->
<g id="node5" class="node">
<title>Node40</title>
<g id="a_node5"><a xlink:href="a00311.html#a3d4d1ab7910b9ccfdf8654d767e01d9b" target="_top" xlink:title="A_CO_DB_Table_Base\l\\set_read_security_id">
<polygon fill="#ffffff" stroke="#000000" points="503.9761,-514.5 503.9761,-542.5 624.4829,-542.5 624.4829,-514.5 503.9761,-514.5"/>
<text text-anchor="start" x="511.9761" y="-530.5" font-family="Helvetica,sans-Serif" font-size="10.00" fill="#000000">A_CO_DB_Table_Base</text>
<text text-anchor="middle" x="564.2295" y="-520.5" font-family="Helvetica,sans-Serif" font-size="10.00" fill="#000000">\set_read_security_id</text>
</a>
</g>
</g>
<!-- Node38&#45;&gt;Node40 -->
<g id="edge4" class="edge">
<title>Node38&#45;&gt;Node40</title>
<path fill="none" stroke="#191970" d="M387.9102,-303.5599C397.0108,-349.6791 423.3218,-450.793 486.1953,-505.5 491.4163,-510.0428 497.4975,-513.6892 503.9183,-516.6159"/>
<polygon fill="#191970" stroke="#191970" points="391.3225,-302.7664 386.0433,-293.5805 384.4419,-304.0536 391.3225,-302.7664"/>
</g>
<!-- Node41 -->
<g id="node6" class="node">
<title>Node41</title>
<g id="a_node6"><a xlink:href="a00311.html#a55eae92ef3e2f47689019e174f29daf1" target="_top" xlink:title="A_CO_DB_Table_Base\l\\set_write_security_id">
<polygon fill="#ffffff" stroke="#000000" points="503.9761,-467.5 503.9761,-495.5 624.4829,-495.5 624.4829,-467.5 503.9761,-467.5"/>
<text text-anchor="start" x="511.9761" y="-483.5" font-family="Helvetica,sans-Serif" font-size="10.00" fill="#000000">A_CO_DB_Table_Base</text>
<text text-anchor="middle" x="564.2295" y="-473.5" font-family="Helvetica,sans-Serif" font-size="10.00" fill="#000000">\set_write_security_id</text>
</a>
</g>
</g>
<!-- Node38&#45;&gt;Node41 -->
<g id="edge5" class="edge">
<title>Node38&#45;&gt;Node41</title>
<path fill="none" stroke="#191970" d="M390.9772,-303.3447C403.7348,-341.7864 434.0852,-417.3034 486.1953,-458.5 491.5135,-462.7044 497.5808,-466.1408 503.9293,-468.9493"/>
<polygon fill="#191970" stroke="#191970" points="394.2227,-302.0027 387.842,-293.5447 387.5556,-304.1357 394.2227,-302.0027"/>
</g>
<!-- Node42 -->
<g id="node7" class="node">
<title>Node42</title>
<g id="a_node7"><a xlink:href="a00311.html#a92a9b9a122e9471b82dd79432bf3c929" target="_top" xlink:title="A_CO_DB_Table_Base\l\\set_name">
<polygon fill="#ffffff" stroke="#000000" points="503.9761,-420.5 503.9761,-448.5 624.4829,-448.5 624.4829,-420.5 503.9761,-420.5"/>
<text text-anchor="start" x="511.9761" y="-436.5" font-family="Helvetica,sans-Serif" font-size="10.00" fill="#000000">A_CO_DB_Table_Base</text>
<text text-anchor="middle" x="564.2295" y="-426.5" font-family="Helvetica,sans-Serif" font-size="10.00" fill="#000000">\set_name</text>
</a>
</g>
</g>
<!-- Node38&#45;&gt;Node42 -->
<g id="edge6" class="edge">
<title>Node38&#45;&gt;Node42</title>
<path fill="none" stroke="#191970" d="M395.735,-302.62C412.1463,-332.207 444.4801,-383.0288 486.1953,-411.5 491.5615,-415.1625 497.5188,-418.2514 503.6815,-420.8546"/>
<polygon fill="#191970" stroke="#191970" points="398.8095,-300.9472 390.9745,-293.8153 392.6519,-304.2765 398.8095,-300.9472"/>
</g>
<!-- Node43 -->
<g id="node8" class="node">
<title>Node43</title>
<g id="a_node8"><a xlink:href="a00311.html#a1ed093545fa1cbc3f63a672cdf424734" target="_top" xlink:title="A_CO_DB_Table_Base\l\\set_lang">
<polygon fill="#ffffff" stroke="#000000" points="503.9761,-373.5 503.9761,-401.5 624.4829,-401.5 624.4829,-373.5 503.9761,-373.5"/>
<text text-anchor="start" x="511.9761" y="-389.5" font-family="Helvetica,sans-Serif" font-size="10.00" fill="#000000">A_CO_DB_Table_Base</text>
<text text-anchor="middle" x="564.2295" y="-379.5" font-family="Helvetica,sans-Serif" font-size="10.00" fill="#000000">\set_lang</text>
</a>
</g>
</g>
<!-- Node38&#45;&gt;Node43 -->
<g id="edge7" class="edge">
<title>Node38&#45;&gt;Node43</title>
<path fill="none" stroke="#191970" d="M404.1608,-300.7475C423.5871,-319.9146 454.523,-347.6147 486.1953,-364.5 492.5516,-367.8887 499.4723,-370.84 506.4803,-373.3938"/>
<polygon fill="#191970" stroke="#191970" points="406.5932,-298.2299 397.0583,-293.6108 401.6316,-303.1678 406.5932,-298.2299"/>
</g>
<!-- Node44 -->
<g id="node9" class="node">
<title>Node44</title>
<g id="a_node9"><a xlink:href="a00319.html#a6349c04b5a027e23f0b8bd8810579844" target="_top" xlink:title="CO_Main_DB_Record\\set\l_owner_id">
<polygon fill="#ffffff" stroke="#000000" points="498.4268,-326.5 498.4268,-354.5 630.0322,-354.5 630.0322,-326.5 498.4268,-326.5"/>
<text text-anchor="start" x="506.4268" y="-342.5" font-family="Helvetica,sans-Serif" font-size="10.00" fill="#000000">CO_Main_DB_Record\set</text>
<text text-anchor="middle" x="564.2295" y="-332.5" font-family="Helvetica,sans-Serif" font-size="10.00" fill="#000000">_owner_id</text>
</a>
</g>
</g>
<!-- Node38&#45;&gt;Node44 -->
<g id="edge8" class="edge">
<title>Node38&#45;&gt;Node44</title>
<path fill="none" stroke="#191970" d="M429.5627,-297.2434C447.17,-303.8721 467.5263,-311.2919 486.1953,-317.5 495.3088,-320.5306 505.0866,-323.574 514.5328,-326.4095"/>
<polygon fill="#191970" stroke="#191970" points="430.6832,-293.9252 420.0918,-293.6548 428.2029,-300.471 430.6832,-293.9252"/>
</g>
<!-- Node45 -->
<g id="node10" class="node">
<title>Node45</title>
<g id="a_node10"><a xlink:href="a00319.html#a84074211704eba98c263bd7122cd13f7" target="_top" xlink:title="CO_Main_DB_Record\\set_tags">
<polygon fill="#ffffff" stroke="#000000" points="486.1953,-289.5 486.1953,-307.5 642.2637,-307.5 642.2637,-289.5 486.1953,-289.5"/>
<text text-anchor="middle" x="564.2295" y="-295.5" font-family="Helvetica,sans-Serif" font-size="10.00" fill="#000000">CO_Main_DB_Record\set_tags</text>
</a>
</g>
</g>
<!-- Node38&#45;&gt;Node45 -->
<g id="edge9" class="edge">
<title>Node38&#45;&gt;Node45</title>
<path fill="none" stroke="#191970" d="M454.3773,-286.9304C464.749,-288.0228 475.4851,-289.1535 486.0002,-290.2609"/>
<polygon fill="#191970" stroke="#191970" points="454.4603,-283.4199 444.1487,-285.8531 453.7271,-290.3814 454.4603,-283.4199"/>
</g>
<!-- Node47 -->
<g id="node12" class="node">
<title>Node47</title>
<g id="a_node12"><a xlink:href="a00319.html#a1f9581fbd4aa2611da866405d446295c" target="_top" xlink:title="CO_Main_DB_Record\\set_tag">
<polygon fill="#ffffff" stroke="#000000" points="488.6953,-252.5 488.6953,-270.5 639.7637,-270.5 639.7637,-252.5 488.6953,-252.5"/>
<text text-anchor="middle" x="564.2295" y="-258.5" font-family="Helvetica,sans-Serif" font-size="10.00" fill="#000000">CO_Main_DB_Record\set_tag</text>
</a>
</g>
</g>
<!-- Node38&#45;&gt;Node47 -->
<g id="edge11" class="edge">
<title>Node38&#45;&gt;Node47</title>
<path fill="none" stroke="#191970" d="M454.3229,-272.4661C465.5559,-271.3453 477.2175,-270.1817 488.564,-269.0496"/>
<polygon fill="#191970" stroke="#191970" points="453.7517,-269.0056 444.1487,-273.4812 454.4468,-275.971 453.7517,-269.0056"/>
</g>
<!-- Node48 -->
<g id="node13" class="node">
<title>Node48</title>
<g id="a_node13"><a xlink:href="a00319.html#a7860101403a734329dd8c1079f5d367e" target="_top" xlink:title="CO_Main_DB_Record\\set\l_payload">
<polygon fill="#ffffff" stroke="#000000" points="498.4268,-205.5 498.4268,-233.5 630.0322,-233.5 630.0322,-205.5 498.4268,-205.5"/>
<text text-anchor="start" x="506.4268" y="-221.5" font-family="Helvetica,sans-Serif" font-size="10.00" fill="#000000">CO_Main_DB_Record\set</text>
<text text-anchor="middle" x="564.2295" y="-211.5" font-family="Helvetica,sans-Serif" font-size="10.00" fill="#000000">_payload</text>
</a>
</g>
</g>
<!-- Node38&#45;&gt;Node48 -->
<g id="edge12" class="edge">
<title>Node38&#45;&gt;Node48</title>
<path fill="none" stroke="#191970" d="M434.2207,-262.1125C439.6166,-260.228 445.022,-258.3304 450.1953,-256.5 466.2324,-250.8259 470.0608,-248.8908 486.1953,-243.5 496.1434,-240.1762 506.8605,-236.7685 517.0709,-233.6033"/>
<polygon fill="#191970" stroke="#191970" points="432.8629,-258.8792 424.5704,-265.4734 435.1652,-265.4897 432.8629,-258.8792"/>
</g>
<!-- Node49 -->
<g id="node14" class="node">
<title>Node49</title>
<g id="a_node14"><a xlink:href="a00331.html#a241314e7be52a7ca6487e41f34bb78fd" target="_top" xlink:title="CO_Security_Node\\set_ids">
<polygon fill="#ffffff" stroke="#000000" points="495.9219,-168.5 495.9219,-186.5 632.5371,-186.5 632.5371,-168.5 495.9219,-168.5"/>
<text text-anchor="middle" x="564.2295" y="-174.5" font-family="Helvetica,sans-Serif" font-size="10.00" fill="#000000">CO_Security_Node\set_ids</text>
</a>
</g>
</g>
<!-- Node38&#45;&gt;Node49 -->
<g id="edge13" class="edge">
<title>Node38&#45;&gt;Node49</title>
<path fill="none" stroke="#191970" d="M445.1865,-260.1819C446.9224,-259.0232 448.5978,-257.7971 450.1953,-256.5 474.3377,-236.8976 461.1516,-214.937 486.1953,-196.5 491.8097,-192.3668 498.2077,-189.1233 504.8691,-186.5796"/>
<polygon fill="#191970" stroke="#191970" points="442.9966,-257.4045 436.0818,-265.4317 446.4932,-263.4686 442.9966,-257.4045"/>
</g>
<!-- Node51 -->
<g id="node16" class="node">
<title>Node51</title>
<g id="a_node16"><a xlink:href="a00331.html#a4a3ed38130b49569d494ec7c262ca32d" target="_top" xlink:title="CO_Security_Node\\add_id">
<polygon fill="#ffffff" stroke="#000000" points="496.7495,-131.5 496.7495,-149.5 631.7095,-149.5 631.7095,-131.5 496.7495,-131.5"/>
<text text-anchor="middle" x="564.2295" y="-137.5" font-family="Helvetica,sans-Serif" font-size="10.00" fill="#000000">CO_Security_Node\add_id</text>
</a>
</g>
</g>
<!-- Node38&#45;&gt;Node51 -->
<g id="edge15" class="edge">
<title>Node38&#45;&gt;Node51</title>
<path fill="none" stroke="#191970" d="M446.6898,-259.6253C447.9073,-258.6337 449.0785,-257.5927 450.1953,-256.5 483.0634,-224.3401 451.8409,-190.0671 486.1953,-159.5 490.7788,-155.4218 496.0919,-152.1843 501.7484,-149.6188"/>
<polygon fill="#191970" stroke="#191970" points="444.3766,-256.9655 438.0715,-265.4799 448.3101,-262.7558 444.3766,-256.9655"/>
</g>
<!-- Node52 -->
<g id="node17" class="node">
<title>Node52</title>
<g id="a_node17"><a xlink:href="a00343.html#a061f896c69dc8a8dd3d9ee793b91ddc7" target="_top" xlink:title="CO_Security_Login\\set_lang">
<polygon fill="#ffffff" stroke="#000000" points="492.5796,-94.5 492.5796,-112.5 635.8794,-112.5 635.8794,-94.5 492.5796,-94.5"/>
<text text-anchor="middle" x="564.2295" y="-100.5" font-family="Helvetica,sans-Serif" font-size="10.00" fill="#000000">CO_Security_Login\set_lang</text>
</a>
</g>
</g>
<!-- Node38&#45;&gt;Node52 -->
<g id="edge16" class="edge">
<title>Node38&#45;&gt;Node52</title>
<path fill="none" stroke="#191970" d="M447.3348,-259.3134C448.3284,-258.4161 449.2837,-257.4789 450.1953,-256.5 492.2225,-211.3715 442.0779,-165.5873 486.1953,-122.5 490.3849,-118.4082 495.3002,-115.1476 500.5903,-112.5557"/>
<polygon fill="#191970" stroke="#191970" points="445.012,-256.6781 439.0569,-265.441 449.1768,-262.3044 445.012,-256.6781"/>
</g>
<!-- Node53 -->
<g id="node18" class="node">
<title>Node53</title>
<g id="a_node18"><a xlink:href="a00343.html#ac4f0c16cb8cf1e2151451bf4d5cb2238" target="_top" xlink:title="CO_Security_Login\\set\l_password_from_cleartext">
<polygon fill="#ffffff" stroke="#000000" points="497.5918,-47.5 497.5918,-75.5 630.8672,-75.5 630.8672,-47.5 497.5918,-47.5"/>
<text text-anchor="start" x="505.5918" y="-63.5" font-family="Helvetica,sans-Serif" font-size="10.00" fill="#000000">CO_Security_Login\set</text>
<text text-anchor="middle" x="564.2295" y="-53.5" font-family="Helvetica,sans-Serif" font-size="10.00" fill="#000000">_password_from_cleartext</text>
</a>
</g>
</g>
<!-- Node38&#45;&gt;Node53 -->
<g id="edge17" class="edge">
<title>Node38&#45;&gt;Node53</title>
<path fill="none" stroke="#191970" d="M447.4842,-259.3105C448.4282,-258.4141 449.3336,-257.4778 450.1953,-256.5 501.5441,-198.2307 433.8285,-142.856 486.1953,-85.5 489.7313,-81.6271 493.8753,-78.3723 498.3776,-75.638"/>
<polygon fill="#191970" stroke="#191970" points="445.341,-256.5434 439.5773,-265.4333 449.6268,-262.0781 445.341,-256.5434"/>
</g>
<!-- Node54 -->
<g id="node19" class="node">
<title>Node54</title>
<g id="a_node19"><a xlink:href="a00343.html#a59e2e5be376349924698305603bfb51f" target="_top" xlink:title="CO_Security_Login\\clear\l_api_key">
<polygon fill="#ffffff" stroke="#000000" points="500.646,-.5 500.646,-28.5 627.813,-28.5 627.813,-.5 500.646,-.5"/>
<text text-anchor="start" x="508.646" y="-16.5" font-family="Helvetica,sans-Serif" font-size="10.00" fill="#000000">CO_Security_Login\clear</text>
<text text-anchor="middle" x="564.2295" y="-6.5" font-family="Helvetica,sans-Serif" font-size="10.00" fill="#000000">_api_key</text>
</a>
</g>
</g>
<!-- Node38&#45;&gt;Node54 -->
<g id="edge18" class="edge">
<title>Node38&#45;&gt;Node54</title>
<path fill="none" stroke="#191970" d="M447.9152,-258.9916C448.7071,-258.1926 449.4683,-257.3624 450.1953,-256.5 513.4906,-181.4189 421.5878,-112.4549 486.1953,-38.5 490.2051,-33.9101 495.0695,-30.1849 500.3882,-27.1636"/>
<polygon fill="#191970" stroke="#191970" points="445.6089,-256.3558 440.0519,-265.3763 450.0213,-261.79 445.6089,-256.3558"/>
</g>
<!-- Node46 -->
<g id="node11" class="node">
<title>Node46</title>
<g id="a_node11"><a xlink:href="a00263.html#a887a876b0603db0289a8bdc7ab4e66b2" target="_top" xlink:title="CO_Place\\set_tags_from\l_address_elements">
<polygon fill="#ffffff" stroke="#000000" points="690.2144,-284.5 690.2144,-312.5 817.9331,-312.5 817.9331,-284.5 690.2144,-284.5"/>
<text text-anchor="start" x="698.2144" y="-300.5" font-family="Helvetica,sans-Serif" font-size="10.00" fill="#000000">CO_Place\set_tags_from</text>
<text text-anchor="middle" x="754.0737" y="-290.5" font-family="Helvetica,sans-Serif" font-size="10.00" fill="#000000">_address_elements</text>
</a>
</g>
</g>
<!-- Node45&#45;&gt;Node46 -->
<g id="edge10" class="edge">
<title>Node45&#45;&gt;Node46</title>
<path fill="none" stroke="#191970" d="M652.3687,-298.5C665.0279,-298.5 677.8489,-298.5 689.9247,-298.5"/>
<polygon fill="#191970" stroke="#191970" points="652.2683,-295.0001 642.2683,-298.5 652.2682,-302.0001 652.2683,-295.0001"/>
</g>
<!-- Node50 -->
<g id="node15" class="node">
<title>Node50</title>
<g id="a_node15"><a xlink:href="a00331.html#af852d696981829b18e29fb07918d8630" target="_top" xlink:title="CO_Security_Node\\remove_id">
<polygon fill="#ffffff" stroke="#000000" points="678.2637,-168.5 678.2637,-186.5 829.8838,-186.5 829.8838,-168.5 678.2637,-168.5"/>
<text text-anchor="middle" x="754.0737" y="-174.5" font-family="Helvetica,sans-Serif" font-size="10.00" fill="#000000">CO_Security_Node\remove_id</text>
</a>
</g>
</g>
<!-- Node49&#45;&gt;Node50 -->
<g id="edge14" class="edge">
<title>Node49&#45;&gt;Node50</title>
<path fill="none" stroke="#191970" d="M642.9257,-177.5C654.605,-177.5 666.6219,-177.5 678.2409,-177.5"/>
<polygon fill="#191970" stroke="#191970" points="642.7677,-174.0001 632.7676,-177.5 642.7676,-181.0001 642.7677,-174.0001"/>
</g>
</g>
</svg>
        <g id="navigator" transform="translate(0 0)" fill="#404254">
                <rect fill="#f2f5e9" fill-opacity="0.5" stroke="#606060" stroke-width=".5" x="0" y="0" width="60" height="60"/>
                <use id="zoomplus" xlink:href="#zoomPlus" x="17" y="9" onmousedown="handleZoom(evt,'in')"/>
                <use id="zoomminus" xlink:href="#zoomMin" x="42" y="9" onmousedown="handleZoom(evt,'out')"/>
                <use id="reset" xlink:href="#resetDef" x="30" y="36" onmousedown="handleReset()"/>
                <g id="arrowUp" xlink:href="#dirArrow" transform="translate(30 24)" onmousedown="handlePan(0,-1)">
                  <use xlink:href="#rim" fill="#404040">
                        <set attributeName="fill" to="#808080" begin="arrowUp.mouseover" end="arrowUp.mouseout"/>
                  </use>
                  <path fill="none" stroke="white" stroke-width="1.5" d="M0,-3.0v7 M-2.5,-0.5L0,-3.0L2.5,-0.5"/>
                </g>
                <g id="arrowRight" xlink:href="#dirArrow" transform="rotate(90) translate(36 -43)" onmousedown="handlePan(1,0)">
                  <use xlink:href="#rim" fill="#404040">
                        <set attributeName="fill" to="#808080" begin="arrowRight.mouseover" end="arrowRight.mouseout"/>
                  </use>
                  <path fill="none" stroke="white" stroke-width="1.5" d="M0,-3.0v7 M-2.5,-0.5L0,-3.0L2.5,-0.5"/>
                </g>
                <g id="arrowDown" xlink:href="#dirArrow" transform="rotate(180) translate(-30 -48)" onmousedown="handlePan(0,1)">
                  <use xlink:href="#rim" fill="#404040">
                        <set attributeName="fill" to="#808080" begin="arrowDown.mouseover" end="arrowDown.mouseout"/>
                  </use>
                  <path fill="none" stroke="white" stroke-width="1.5" d="M0,-3.0v7 M-2.5,-0.5L0,-3.0L2.5,-0.5"/>
                </g>
                <g id="arrowLeft" xlink:href="#dirArrow" transform="rotate(270) translate(-36 17)" onmousedown="handlePan(-1,0)">
                  <use xlink:href="#rim" fill="#404040">
                        <set attributeName="fill" to="#808080" begin="arrowLeft.mouseover" end="arrowLeft.mouseout"/>
                  </use>
                  <path fill="none" stroke="white" stroke-width="1.5" d="M0,-3.0v7 M-2.5,-0.5L0,-3.0L2.5,-0.5"/>
                </g>
        </g>
        <svg viewBox="0 0 15 15" width="100%" height="30px" preserveAspectRatio="xMaxYMin meet">
         <g id="arrow_out" transform="scale(0.3 0.3)">
          <a xlink:href="a00311_a6109c37c5e61ab04ea710b1ebb7615a5_icgraph_org.svg" target="_base">
           <rect id="button" ry="5" rx="5" y="6" x="6" height="38" width="38"
                fill="#f2f5e9" fill-opacity="0.5" stroke="#606060" stroke-width="1.0"/>
           <path id="arrow"
             d="M 11.500037,31.436501 C 11.940474,20.09759 22.043105,11.32322 32.158766,21.979434 L 37.068811,17.246167 C 37.068811,17.246167 37.088388,32 37.088388,32 L 22.160133,31.978069 C 22.160133,31.978069 26.997745,27.140456 26.997745,27.140456 C 18.528582,18.264221 13.291696,25.230495 11.500037,31.436501 z"
             style="fill:#404040;"/>
          </a>
         </g>
        </svg>
</svg>
