<?xml version="1.0" encoding="UTF-8" standalone="no"?>
<!DOCTYPE svg PUBLIC "-//W3C//DTD SVG 1.1//EN"
 "http://www.w3.org/Graphics/SVG/1.1/DTD/svg11.dtd">
<!-- Generated by graphviz version 2.40.1 (20161225.0304)
 -->
<!-- Title: CO_Chameleon_Utils\call_curl Pages: 1 -->
<svg width="300pt" height="111pt"
 viewBox="0.00 0.00 300.02 111.00" xmlns="http://www.w3.org/2000/svg" xmlns:xlink="http://www.w3.org/1999/xlink">
<g id="graph0" class="graph" transform="scale(1 1) rotate(0) translate(4 107)">
<title>CO_Chameleon_Utils\call_curl</title>
<polygon fill="#ffffff" stroke="transparent" points="-4,4 -4,-107 296.0234,-107 296.0234,4 -4,4"/>
<!-- Node1 -->
<g id="node1" class="node">
<title>Node1</title>
<polygon fill="#bfbfbf" stroke="#000000" points="0,-32.5 0,-60.5 112.709,-60.5 112.709,-32.5 0,-32.5"/>
<text text-anchor="start" x="8" y="-48.5" font-family="Helvetica,sans-Serif" font-size="10.00" fill="#000000">CO_Chameleon_Utils</text>
<text text-anchor="middle" x="56.3545" y="-38.5" font-family="Helvetica,sans-Serif" font-size="10.00" fill="#000000">\call_curl</text>
</g>
<!-- Node2 -->
<g id="node2" class="node">
<title>Node2</title>
<g id="a_node2"><a xlink:href="a00211.html#a90b9f5c8286479f877a1a81193eb3b4b" target="_top" xlink:title="CO_places_Basalt_Plugin\l\\_lookup_address">
<polygon fill="#ffffff" stroke="#000000" points="154.2754,-74.5 154.2754,-102.5 286.457,-102.5 286.457,-74.5 154.2754,-74.5"/>
<text text-anchor="start" x="162.2754" y="-90.5" font-family="Helvetica,sans-Serif" font-size="10.00" fill="#000000">CO_places_Basalt_Plugin</text>
<text text-anchor="middle" x="220.3662" y="-80.5" font-family="Helvetica,sans-Serif" font-size="10.00" fill="#000000">\_lookup_address</text>
</a>
</g>
</g>
<!-- Node1&#45;&gt;Node2 -->
<g id="edge1" class="edge">
<title>Node1&#45;&gt;Node2</title>
<path fill="none" stroke="#191970" d="M121.3811,-63.152C135.9709,-66.8881 151.3106,-70.8163 165.4418,-74.435"/>
<polygon fill="#191970" stroke="#191970" points="121.98,-59.6925 111.4243,-60.6022 120.2434,-66.4736 121.98,-59.6925"/>
</g>
<!-- Node3 -->
<g id="node3" class="node">
<title>Node3</title>
<g id="a_node3"><a xlink:href="a00263.html#ae074113629e04696f13a4e6c5316124a" target="_top" xlink:title="CO_Place\\geocode_long_lat">
<polygon fill="#ffffff" stroke="#000000" points="148.709,-37.5 148.709,-55.5 292.0234,-55.5 292.0234,-37.5 148.709,-37.5"/>
<text text-anchor="middle" x="220.3662" y="-43.5" font-family="Helvetica,sans-Serif" font-size="10.00" fill="#000000">CO_Place\geocode_long_lat</text>
</a>
</g>
</g>
<!-- Node1&#45;&gt;Node3 -->
<g id="edge2" class="edge">
<title>Node1&#45;&gt;Node3</title>
<path fill="none" stroke="#191970" d="M122.9235,-46.5C131.3365,-46.5 139.9744,-46.5 148.4656,-46.5"/>
<polygon fill="#191970" stroke="#191970" points="122.7981,-43.0001 112.798,-46.5 122.798,-50.0001 122.7981,-43.0001"/>
</g>
<!-- Node4 -->
<g id="node4" class="node">
<title>Node4</title>
<g id="a_node4"><a xlink:href="a00263.html#a1319c3b11d29aae2bb70fd8aeddfee93" target="_top" xlink:title="CO_Place\\lookup_address">
<polygon fill="#ffffff" stroke="#000000" points="152.8862,-.5 152.8862,-18.5 287.8462,-18.5 287.8462,-.5 152.8862,-.5"/>
<text text-anchor="middle" x="220.3662" y="-6.5" font-family="Helvetica,sans-Serif" font-size="10.00" fill="#000000">CO_Place\lookup_address</text>
</a>
</g>
</g>
<!-- Node1&#45;&gt;Node4 -->
<g id="edge3" class="edge">
<title>Node1&#45;&gt;Node4</title>
<path fill="none" stroke="#191970" d="M122.5926,-31.5571C142.1723,-27.14 162.9982,-22.4419 180.3755,-18.5216"/>
<polygon fill="#191970" stroke="#191970" points="121.7826,-28.1518 112.798,-33.7667 123.3231,-34.9802 121.7826,-28.1518"/>
</g>
</g>
</svg>
