<?xml version="1.0" encoding="UTF-8" standalone="no"?>
<!DOCTYPE svg PUBLIC "-//W3C//DTD SVG 1.1//EN"
 "http://www.w3.org/Graphics/SVG/1.1/DTD/svg11.dtd">
<!-- Generated by graphviz version 2.40.1 (20161225.0304)
 -->
<!-- Title: A_CO_DB_Table_Base\_badger_unserialize Pages: 1 -->
<svg width="442pt" height="84pt"
 viewBox="0.00 0.00 441.52 84.00" xmlns="http://www.w3.org/2000/svg" xmlns:xlink="http://www.w3.org/1999/xlink">
<g id="graph0" class="graph" transform="scale(1 1) rotate(0) translate(4 80)">
<title>A_CO_DB_Table_Base\_badger_unserialize</title>
<polygon fill="#ffffff" stroke="transparent" points="-4,4 -4,-80 437.5205,-80 437.5205,4 -4,4"/>
<!-- Node29 -->
<g id="node1" class="node">
<title>Node29</title>
<polygon fill="#bfbfbf" stroke="#000000" points="0,-23.5 0,-51.5 120.5068,-51.5 120.5068,-23.5 0,-23.5"/>
<text text-anchor="start" x="8" y="-39.5" font-family="Helvetica,sans-Serif" font-size="10.00" fill="#000000">A_CO_DB_Table_Base</text>
<text text-anchor="middle" x="60.2534" y="-29.5" font-family="Helvetica,sans-Serif" font-size="10.00" fill="#000000">\_badger_unserialize</text>
</g>
<!-- Node30 -->
<g id="node2" class="node">
<title>Node30</title>
<g id="a_node2"><a xlink:href="a00311.html#a91b894b2b9aa29d47c43e519f5ad0bf6" target="_top" xlink:title="A_CO_DB_Table_Base\l\\load_from_db">
<polygon fill="#ffffff" stroke="#000000" points="156.5068,-23.5 156.5068,-51.5 277.0137,-51.5 277.0137,-23.5 156.5068,-23.5"/>
<text text-anchor="start" x="164.5068" y="-39.5" font-family="Helvetica,sans-Serif" font-size="10.00" fill="#000000">A_CO_DB_Table_Base</text>
<text text-anchor="middle" x="216.7603" y="-29.5" font-family="Helvetica,sans-Serif" font-size="10.00" fill="#000000">\load_from_db</text>
</a>
</g>
</g>
<!-- Node29&#45;&gt;Node30 -->
<g id="edge1" class="edge">
<title>Node29&#45;&gt;Node30</title>
<path fill="none" stroke="#191970" d="M131.0206,-37.5C139.5003,-37.5 148.0984,-37.5 156.4115,-37.5"/>
<polygon fill="#191970" stroke="#191970" points="130.7631,-34.0001 120.763,-37.5 130.763,-41.0001 130.7631,-34.0001"/>
</g>
<!-- Node31 -->
<g id="node3" class="node">
<title>Node31</title>
<g id="a_node3"><a xlink:href="a00311.html#a4417bcd42c4db0dc6f3d1c0ab94e19f3" target="_top" xlink:title="A_CO_DB_Table_Base\l\\__construct">
<polygon fill="#ffffff" stroke="#000000" points="313.0137,-47.5 313.0137,-75.5 433.5205,-75.5 433.5205,-47.5 313.0137,-47.5"/>
<text text-anchor="start" x="321.0137" y="-63.5" font-family="Helvetica,sans-Serif" font-size="10.00" fill="#000000">A_CO_DB_Table_Base</text>
<text text-anchor="middle" x="373.2671" y="-53.5" font-family="Helvetica,sans-Serif" font-size="10.00" fill="#000000">\__construct</text>
</a>
</g>
</g>
<!-- Node30&#45;&gt;Node31 -->
<g id="edge2" class="edge">
<title>Node30&#45;&gt;Node31</title>
<path fill="none" stroke="#191970" d="M287.248,-48.3091C295.8182,-49.6234 304.5139,-50.9568 312.9184,-52.2457"/>
<polygon fill="#191970" stroke="#191970" points="287.6849,-44.8353 277.2699,-46.779 286.6238,-51.7544 287.6849,-44.8353"/>
</g>
<!-- Node32 -->
<g id="node4" class="node">
<title>Node32</title>
<g id="a_node4"><a xlink:href="a00311.html#aa5e1bc5570c817cfe3ddeb67003d4f45" target="_top" xlink:title="A_CO_DB_Table_Base\l\\reload_from_db">
<polygon fill="#ffffff" stroke="#000000" points="313.0137,-.5 313.0137,-28.5 433.5205,-28.5 433.5205,-.5 313.0137,-.5"/>
<text text-anchor="start" x="321.0137" y="-16.5" font-family="Helvetica,sans-Serif" font-size="10.00" fill="#000000">A_CO_DB_Table_Base</text>
<text text-anchor="middle" x="373.2671" y="-6.5" font-family="Helvetica,sans-Serif" font-size="10.00" fill="#000000">\reload_from_db</text>
</a>
</g>
</g>
<!-- Node30&#45;&gt;Node32 -->
<g id="edge3" class="edge">
<title>Node30&#45;&gt;Node32</title>
<path fill="none" stroke="#191970" d="M287.248,-27.1412C295.8182,-25.8818 304.5139,-24.6039 312.9184,-23.3688"/>
<polygon fill="#191970" stroke="#191970" points="286.6547,-23.6907 277.2699,-28.6076 287.6725,-30.6164 286.6547,-23.6907"/>
</g>
</g>
</svg>
