<?xml version="1.0" encoding="UTF-8" standalone="no"?>
<!DOCTYPE svg PUBLIC "-//W3C//DTD SVG 1.1//EN"
 "http://www.w3.org/Graphics/SVG/1.1/DTD/svg11.dtd">
<!-- Generated by graphviz version 2.47.1 (20210417.1919)
 -->
<!-- Title: CO_Security_Login\get_remaining_time Pages: 1 -->
<svg width="423pt" height="61pt"
 viewBox="0.00 0.00 423.00 61.00" xmlns="http://www.w3.org/2000/svg" xmlns:xlink="http://www.w3.org/1999/xlink">
<g id="graph0" class="graph" transform="scale(1 1) rotate(0) translate(4 57)">
<title>CO_Security_Login\get_remaining_time</title>
<polygon fill="white" stroke="transparent" points="-4,4 -4,-57 419,-57 419,4 -4,4"/>
<!-- Node1 -->
<g id="node1" class="node">
<title>Node1</title>
<g id="a_node1"><a xlink:title=" ">
<polygon fill="#bfbfbf" stroke="black" points="0,-0.5 0,-30.5 118,-30.5 118,-0.5 0,-0.5"/>
<text text-anchor="start" x="8" y="-18.5" font-family="Helvetica,sans-Serif" font-size="10.00">CO_Security_Login\get</text>
<text text-anchor="middle" x="59" y="-7.5" font-family="Helvetica,sans-Serif" font-size="10.00">_remaining_time</text>
</a>
</g>
</g>
<!-- Node2 -->
<g id="node2" class="node">
<title>Node2</title>
<g id="a_node2"><a xlink:href="a00340.html#aecb158735e3a185c0857c44bf60f45f0" target="_top" xlink:title=" ">
<polygon fill="white" stroke="black" points="154,-22.5 154,-52.5 272,-52.5 272,-22.5 154,-22.5"/>
<text text-anchor="start" x="162" y="-40.5" font-family="Helvetica,sans-Serif" font-size="10.00">CO_Security_Login\get</text>
<text text-anchor="middle" x="213" y="-29.5" font-family="Helvetica,sans-Serif" font-size="10.00">_api_key</text>
</a>
</g>
</g>
<!-- Node1&#45;&gt;Node2 -->
<g id="edge1" class="edge">
<title>Node1&#45;&gt;Node2</title>
<path fill="none" stroke="midnightblue" d="M118.33,-23.94C126.7,-25.15 135.36,-26.41 143.9,-27.64"/>
<polygon fill="midnightblue" stroke="midnightblue" points="143.43,-31.11 153.82,-29.08 144.43,-24.18 143.43,-31.11"/>
</g>
<!-- Node3 -->
<g id="node3" class="node">
<title>Node3</title>
<g id="a_node3"><a xlink:href="a00340.html#a03304936652c2c606c411c7c6a0f0c7f" target="_top" xlink:title=" ">
<polygon fill="white" stroke="black" points="308,-0.5 308,-30.5 415,-30.5 415,-0.5 308,-0.5"/>
<text text-anchor="start" x="316" y="-18.5" font-family="Helvetica,sans-Serif" font-size="10.00">CO_Security_Login\i</text>
<text text-anchor="middle" x="361.5" y="-7.5" font-family="Helvetica,sans-Serif" font-size="10.00">_am_a_god</text>
</a>
</g>
</g>
<!-- Node1&#45;&gt;Node3 -->
<g id="edge3" class="edge">
<title>Node1&#45;&gt;Node3</title>
<path fill="none" stroke="midnightblue" d="M118.16,-14.07C130.02,-13.83 142.41,-13.62 154,-13.5 206.44,-12.94 219.56,-12.91 272,-13.5 280.28,-13.59 289,-13.74 297.61,-13.9"/>
<polygon fill="midnightblue" stroke="midnightblue" points="297.55,-17.4 307.62,-14.11 297.7,-10.4 297.55,-17.4"/>
</g>
<!-- Node2&#45;&gt;Node3 -->
<g id="edge2" class="edge">
<title>Node2&#45;&gt;Node3</title>
<path fill="none" stroke="midnightblue" d="M272.32,-28.74C280.6,-27.5 289.15,-26.21 297.52,-24.96"/>
<polygon fill="midnightblue" stroke="midnightblue" points="298.23,-28.39 307.6,-23.44 297.19,-21.47 298.23,-28.39"/>
</g>
</g>
</svg>
