<?xml version="1.0" encoding="UTF-8" standalone="no"?>
<!DOCTYPE svg PUBLIC "-//W3C//DTD SVG 1.1//EN"
 "http://www.w3.org/Graphics/SVG/1.1/DTD/svg11.dtd">
<!-- Generated by graphviz version 2.40.1 (20161225.0304)
 -->
<!-- Title: A_CO_DB\get_all_readable_records Pages: 1 -->
<svg width="495pt" height="144pt"
 viewBox="0.00 0.00 494.87 144.00" xmlns="http://www.w3.org/2000/svg" xmlns:xlink="http://www.w3.org/1999/xlink">
<g id="graph0" class="graph" transform="scale(1 1) rotate(0) translate(4 140)">
<title>A_CO_DB\get_all_readable_records</title>
<polygon fill="#ffffff" stroke="transparent" points="-4,4 -4,-140 490.8701,-140 490.8701,4 -4,4"/>
<!-- Node151 -->
<g id="node1" class="node">
<title>Node151</title>
<polygon fill="#bfbfbf" stroke="#000000" points="0,-37.5 0,-65.5 139.4131,-65.5 139.4131,-37.5 0,-37.5"/>
<text text-anchor="start" x="8" y="-53.5" font-family="Helvetica,sans-Serif" font-size="10.00" fill="#000000">A_CO_DB\get_all_readable</text>
<text text-anchor="middle" x="69.7065" y="-43.5" font-family="Helvetica,sans-Serif" font-size="10.00" fill="#000000">_records</text>
</g>
<!-- Node152 -->
<g id="node2" class="node">
<title>Node152</title>
<g id="a_node2"><a xlink:href="a00307.html#ad2356dbed1b38898d8c17bcd8eb405ef" target="_top" xlink:title="A_CO_DB\\_create_security\l_predicate">
<polygon fill="#ffffff" stroke="#000000" points="175.4131,-84.5 175.4131,-112.5 314.2451,-112.5 314.2451,-84.5 175.4131,-84.5"/>
<text text-anchor="start" x="183.4131" y="-100.5" font-family="Helvetica,sans-Serif" font-size="10.00" fill="#000000">A_CO_DB\_create_security</text>
<text text-anchor="middle" x="244.8291" y="-90.5" font-family="Helvetica,sans-Serif" font-size="10.00" fill="#000000">_predicate</text>
</a>
</g>
</g>
<!-- Node151&#45;&gt;Node152 -->
<g id="edge1" class="edge">
<title>Node151&#45;&gt;Node152</title>
<path fill="none" stroke="#191970" d="M122.2491,-65.6015C141.2965,-70.7136 162.9909,-76.536 182.7804,-81.8472"/>
<polygon fill="#191970" stroke="#191970" points="182.0601,-85.2776 192.6256,-84.4894 183.8747,-78.5169 182.0601,-85.2776"/>
</g>
<!-- Node155 -->
<g id="node5" class="node">
<title>Node155</title>
<g id="a_node5"><a xlink:href="a00307.html#a523e2f40174a0bca0fc873d6286b3ae9" target="_top" xlink:title="A_CO_DB\\_instantiate\l_record">
<polygon fill="#ffffff" stroke="#000000" points="186.5239,-37.5 186.5239,-65.5 303.1343,-65.5 303.1343,-37.5 186.5239,-37.5"/>
<text text-anchor="start" x="194.5239" y="-53.5" font-family="Helvetica,sans-Serif" font-size="10.00" fill="#000000">A_CO_DB\_instantiate</text>
<text text-anchor="middle" x="244.8291" y="-43.5" font-family="Helvetica,sans-Serif" font-size="10.00" fill="#000000">_record</text>
</a>
</g>
</g>
<!-- Node151&#45;&gt;Node155 -->
<g id="edge4" class="edge">
<title>Node151&#45;&gt;Node155</title>
<path fill="none" stroke="#191970" d="M139.4228,-51.5C151.5692,-51.5 164.1941,-51.5 176.308,-51.5"/>
<polygon fill="#191970" stroke="#191970" points="176.3418,-55.0001 186.3418,-51.5 176.3418,-48.0001 176.3418,-55.0001"/>
</g>
<!-- Node156 -->
<g id="node6" class="node">
<title>Node156</title>
<g id="a_node6"><a xlink:href="a00307.html#a2396849660aa4ff018ab7509a4badeb5" target="_top" xlink:title="A_CO_DB\\execute_query">
<polygon fill="#ffffff" stroke="#000000" points="179.2974,-.5 179.2974,-18.5 310.3608,-18.5 310.3608,-.5 179.2974,-.5"/>
<text text-anchor="middle" x="244.8291" y="-6.5" font-family="Helvetica,sans-Serif" font-size="10.00" fill="#000000">A_CO_DB\execute_query</text>
</a>
</g>
</g>
<!-- Node151&#45;&gt;Node156 -->
<g id="edge5" class="edge">
<title>Node151&#45;&gt;Node156</title>
<path fill="none" stroke="#191970" d="M128.507,-37.3978C150.8956,-32.0283 176.1063,-25.9819 197.3194,-20.8944"/>
<polygon fill="#191970" stroke="#191970" points="198.1622,-24.2916 207.0701,-18.5558 196.5296,-17.4846 198.1622,-24.2916"/>
</g>
<!-- Node153 -->
<g id="node3" class="node">
<title>Node153</title>
<g id="a_node3"><a xlink:href="a00307.html#a176b2c663fa7768e95e4fbe93281adc6" target="_top" xlink:title="A_CO_DB\\_create_read\l_security_predicate">
<polygon fill="#ffffff" stroke="#000000" points="356.3608,-107.5 356.3608,-135.5 480.7544,-135.5 480.7544,-107.5 356.3608,-107.5"/>
<text text-anchor="start" x="364.3608" y="-123.5" font-family="Helvetica,sans-Serif" font-size="10.00" fill="#000000">A_CO_DB\_create_read</text>
<text text-anchor="middle" x="418.5576" y="-113.5" font-family="Helvetica,sans-Serif" font-size="10.00" fill="#000000">_security_predicate</text>
</a>
</g>
</g>
<!-- Node152&#45;&gt;Node153 -->
<g id="edge2" class="edge">
<title>Node152&#45;&gt;Node153</title>
<path fill="none" stroke="#191970" d="M314.4901,-107.7225C324.9346,-109.1052 335.7246,-110.5337 346.2233,-111.9236"/>
<polygon fill="#191970" stroke="#191970" points="345.806,-115.3988 356.1789,-113.2417 346.7248,-108.4594 345.806,-115.3988"/>
</g>
<!-- Node154 -->
<g id="node4" class="node">
<title>Node154</title>
<g id="a_node4"><a xlink:href="a00307.html#ad4bc3d416f085818935b32a814313202" target="_top" xlink:title="A_CO_DB\\_create_write\l_security_predicate">
<polygon fill="#ffffff" stroke="#000000" points="355.8115,-60.5 355.8115,-88.5 481.3037,-88.5 481.3037,-60.5 355.8115,-60.5"/>
<text text-anchor="start" x="363.8115" y="-76.5" font-family="Helvetica,sans-Serif" font-size="10.00" fill="#000000">A_CO_DB\_create_write</text>
<text text-anchor="middle" x="418.5576" y="-66.5" font-family="Helvetica,sans-Serif" font-size="10.00" fill="#000000">_security_predicate</text>
</a>
</g>
</g>
<!-- Node152&#45;&gt;Node154 -->
<g id="edge3" class="edge">
<title>Node152&#45;&gt;Node154</title>
<path fill="none" stroke="#191970" d="M314.4901,-88.8766C324.6853,-87.4681 335.2098,-86.0142 345.4711,-84.5967"/>
<polygon fill="#191970" stroke="#191970" points="346.1958,-88.0299 355.6227,-83.1942 345.2378,-81.0957 346.1958,-88.0299"/>
</g>
<!-- Node157 -->
<g id="node7" class="node">
<title>Node157</title>
<g id="a_node7"><a xlink:href="a00307.html#ae41efbdfe739934823b5f4c785b22611" target="_top" xlink:title="A_CO_DB\\_execute_query">
<polygon fill="#ffffff" stroke="#000000" points="350.2451,-.5 350.2451,-18.5 486.8701,-18.5 486.8701,-.5 350.2451,-.5"/>
<text text-anchor="middle" x="418.5576" y="-6.5" font-family="Helvetica,sans-Serif" font-size="10.00" fill="#000000">A_CO_DB\_execute_query</text>
</a>
</g>
</g>
<!-- Node156&#45;&gt;Node157 -->
<g id="edge6" class="edge">
<title>Node156&#45;&gt;Node157</title>
<path fill="none" stroke="#191970" d="M310.5084,-9.5C320.1359,-9.5 330.1332,-9.5 339.9869,-9.5"/>
<polygon fill="#191970" stroke="#191970" points="340.1819,-13.0001 350.1819,-9.5 340.1819,-6.0001 340.1819,-13.0001"/>
</g>
</g>
</svg>
