<?xml version="1.0" encoding="UTF-8" standalone="no"?>
<!DOCTYPE svg PUBLIC "-//W3C//DTD SVG 1.1//EN"
 "http://www.w3.org/Graphics/SVG/1.1/DTD/svg11.dtd">
<!-- Generated by graphviz version 2.40.1 (20161225.0304)
 -->
<!-- Title: CO_Security_DB\get_credentials_by_api_key Pages: 1 -->
<svg width="474pt" height="74pt"
 viewBox="0.00 0.00 473.76 74.00" xmlns="http://www.w3.org/2000/svg" xmlns:xlink="http://www.w3.org/1999/xlink">
<g id="graph0" class="graph" transform="scale(1 1) rotate(0) translate(4 70)">
<title>CO_Security_DB\get_credentials_by_api_key</title>
<polygon fill="#ffffff" stroke="transparent" points="-4,4 -4,-70 469.7617,-70 469.7617,4 -4,4"/>
<!-- Node22 -->
<g id="node1" class="node">
<title>Node22</title>
<polygon fill="#bfbfbf" stroke="#000000" points="0,-16.5 0,-44.5 126.0732,-44.5 126.0732,-16.5 0,-16.5"/>
<text text-anchor="start" x="8" y="-32.5" font-family="Helvetica,sans-Serif" font-size="10.00" fill="#000000">CO_Security_DB\get</text>
<text text-anchor="middle" x="63.0366" y="-22.5" font-family="Helvetica,sans-Serif" font-size="10.00" fill="#000000">_credentials_by_api_key</text>
</g>
<!-- Node23 -->
<g id="node2" class="node">
<title>Node23</title>
<g id="a_node2"><a xlink:href="a00307.html#a523e2f40174a0bca0fc873d6286b3ae9" target="_top" xlink:title="A_CO_DB\\_instantiate\l_record">
<polygon fill="#ffffff" stroke="#000000" points="169.2998,-37.5 169.2998,-65.5 285.9102,-65.5 285.9102,-37.5 169.2998,-37.5"/>
<text text-anchor="start" x="177.2998" y="-53.5" font-family="Helvetica,sans-Serif" font-size="10.00" fill="#000000">A_CO_DB\_instantiate</text>
<text text-anchor="middle" x="227.605" y="-43.5" font-family="Helvetica,sans-Serif" font-size="10.00" fill="#000000">_record</text>
</a>
</g>
</g>
<!-- Node22&#45;&gt;Node23 -->
<g id="edge1" class="edge">
<title>Node22&#45;&gt;Node23</title>
<path fill="none" stroke="#191970" d="M126.1924,-38.5591C137.0185,-39.9406 148.3124,-41.3817 159.2666,-42.7796"/>
<polygon fill="#191970" stroke="#191970" points="158.8453,-46.2541 169.2079,-44.0482 159.7314,-39.3104 158.8453,-46.2541"/>
</g>
<!-- Node24 -->
<g id="node3" class="node">
<title>Node24</title>
<g id="a_node3"><a xlink:href="a00307.html#a2396849660aa4ff018ab7509a4badeb5" target="_top" xlink:title="A_CO_DB\\execute_query">
<polygon fill="#ffffff" stroke="#000000" points="162.0732,-.5 162.0732,-18.5 293.1367,-18.5 293.1367,-.5 162.0732,-.5"/>
<text text-anchor="middle" x="227.605" y="-6.5" font-family="Helvetica,sans-Serif" font-size="10.00" fill="#000000">A_CO_DB\execute_query</text>
</a>
</g>
</g>
<!-- Node22&#45;&gt;Node24 -->
<g id="edge2" class="edge">
<title>Node22&#45;&gt;Node24</title>
<path fill="none" stroke="#191970" d="M126.1924,-22.4409C134.5967,-21.3685 143.2828,-20.2601 151.8731,-19.1639"/>
<polygon fill="#191970" stroke="#191970" points="152.4142,-22.6233 161.8907,-17.8856 151.5281,-15.6796 152.4142,-22.6233"/>
</g>
<!-- Node25 -->
<g id="node4" class="node">
<title>Node25</title>
<g id="a_node4"><a xlink:href="a00307.html#ae41efbdfe739934823b5f4c785b22611" target="_top" xlink:title="A_CO_DB\\_execute_query">
<polygon fill="#ffffff" stroke="#000000" points="329.1367,-.5 329.1367,-18.5 465.7617,-18.5 465.7617,-.5 329.1367,-.5"/>
<text text-anchor="middle" x="397.4492" y="-6.5" font-family="Helvetica,sans-Serif" font-size="10.00" fill="#000000">A_CO_DB\_execute_query</text>
</a>
</g>
</g>
<!-- Node24&#45;&gt;Node25 -->
<g id="edge3" class="edge">
<title>Node24&#45;&gt;Node25</title>
<path fill="none" stroke="#191970" d="M293.2712,-9.5C301.5668,-9.5 310.1211,-9.5 318.5945,-9.5"/>
<polygon fill="#191970" stroke="#191970" points="318.8672,-13.0001 328.8671,-9.5 318.8671,-6.0001 318.8672,-13.0001"/>
</g>
</g>
</svg>
