<?xml version="1.0" encoding="UTF-8" standalone="no"?>
<!DOCTYPE svg PUBLIC "-//W3C//DTD SVG 1.1//EN"
 "http://www.w3.org/Graphics/SVG/1.1/DTD/svg11.dtd">
<!-- Generated by graphviz version 2.40.1 (20161225.0304)
 -->
<!-- Title: CO_Main_Data_DB\_build_sql_query Pages: 1 -->
<svg width="318pt" height="37pt"
 viewBox="0.00 0.00 317.79 37.00" xmlns="http://www.w3.org/2000/svg" xmlns:xlink="http://www.w3.org/1999/xlink">
<g id="graph0" class="graph" transform="scale(1 1) rotate(0) translate(4 33)">
<title>CO_Main_Data_DB\_build_sql_query</title>
<polygon fill="#ffffff" stroke="transparent" points="-4,4 -4,-33 313.792,-33 313.792,4 -4,4"/>
<!-- Node1 -->
<g id="node1" class="node">
<title>Node1</title>
<g id="a_node1"><a xlink:title=" ">
<polygon fill="#bfbfbf" stroke="#000000" points="175.9502,-.5 175.9502,-28.5 309.792,-28.5 309.792,-.5 175.9502,-.5"/>
<text text-anchor="start" x="183.9502" y="-16.5" font-family="Helvetica,sans-Serif" font-size="10.00" fill="#000000">CO_Main_Data_DB\_build</text>
<text text-anchor="middle" x="242.8711" y="-6.5" font-family="Helvetica,sans-Serif" font-size="10.00" fill="#000000">_sql_query</text>
</a>
</g>
</g>
<!-- Node2 -->
<g id="node2" class="node">
<title>Node2</title>
<g id="a_node2"><a xlink:href="a00315.html#a303048d406814c066d27fda70de4ff02" target="_top" xlink:title=" ">
<polygon fill="#ffffff" stroke="#000000" points="0,-.5 0,-28.5 139.9502,-28.5 139.9502,-.5 0,-.5"/>
<text text-anchor="start" x="8" y="-16.5" font-family="Helvetica,sans-Serif" font-size="10.00" fill="#000000">CO_Main_Data_DB\generic</text>
<text text-anchor="middle" x="69.9751" y="-6.5" font-family="Helvetica,sans-Serif" font-size="10.00" fill="#000000">_search</text>
</a>
</g>
</g>
<!-- Node1&#45;&gt;Node2 -->
<g id="edge1" class="edge">
<title>Node1&#45;&gt;Node2</title>
<path fill="none" stroke="#191970" d="M165.3158,-14.5C156.8777,-14.5 148.3254,-14.5 139.985,-14.5"/>
<polygon fill="#191970" stroke="#191970" points="165.5299,-18.0001 175.5299,-14.5 165.5299,-11.0001 165.5299,-18.0001"/>
</g>
</g>
</svg>
