<?xml version="1.0" encoding="UTF-8" standalone="no"?>
<!DOCTYPE svg PUBLIC "-//W3C//DTD SVG 1.1//EN"
 "http://www.w3.org/Graphics/SVG/1.1/DTD/svg11.dtd">
<!-- Generated by graphviz version 2.40.1 (20161225.0304)
 -->
<!-- Title: CO_Main_DB_Record\tags Pages: 1 -->
<svg width="592pt" height="207pt"
 viewBox="0.00 0.00 591.88 207.00" xmlns="http://www.w3.org/2000/svg" xmlns:xlink="http://www.w3.org/1999/xlink">
<g id="graph0" class="graph" transform="scale(1 1) rotate(0) translate(4 203)">
<title>CO_Main_DB_Record\tags</title>
<polygon fill="#ffffff" stroke="transparent" points="-4,4 -4,-203 587.8848,-203 587.8848,4 -4,4"/>
<!-- Node1 -->
<g id="node1" class="node">
<title>Node1</title>
<g id="a_node1"><a xlink:title=" ">
<polygon fill="#bfbfbf" stroke="#000000" points="446.7178,-99.5 446.7178,-117.5 583.8848,-117.5 583.8848,-99.5 446.7178,-99.5"/>
<text text-anchor="middle" x="515.3013" y="-105.5" font-family="Helvetica,sans-Serif" font-size="10.00" fill="#000000">CO_Main_DB_Record\tags</text>
</a>
</g>
</g>
<!-- Node2 -->
<g id="node2" class="node">
<title>Node2</title>
<g id="a_node2"><a xlink:href="a00260.html#a0828fcac351a2f23404059be980e7b41" target="_top" xlink:title=" ">
<polygon fill="#ffffff" stroke="#000000" points="294.6689,-180.5 294.6689,-198.5 410.7178,-198.5 410.7178,-180.5 294.6689,-180.5"/>
<text text-anchor="middle" x="352.6934" y="-186.5" font-family="Helvetica,sans-Serif" font-size="10.00" fill="#000000">CO_Place\__construct</text>
</a>
</g>
</g>
<!-- Node1&#45;&gt;Node2 -->
<g id="edge1" class="edge">
<title>Node1&#45;&gt;Node2</title>
<path fill="none" stroke="#191970" d="M491.1263,-122.6352C470.1713,-134.6545 438.8728,-152.052 410.7178,-165.5 399.5037,-170.8563 386.7708,-176.2014 376.0954,-180.4831"/>
<polygon fill="#191970" stroke="#191970" points="493.0676,-125.5559 499.9779,-117.5249 489.5676,-119.4937 493.0676,-125.5559"/>
</g>
<!-- Node3 -->
<g id="node3" class="node">
<title>Node3</title>
<g id="a_node3"><a xlink:href="a00276.html#a67c82465b52bc0d942c84599eb2b62ff" target="_top" xlink:title=" ">
<polygon fill="#ffffff" stroke="#000000" points="299.1196,-94.5 299.1196,-122.5 406.2671,-122.5 406.2671,-94.5 299.1196,-94.5"/>
<text text-anchor="start" x="307.1196" y="-110.5" font-family="Helvetica,sans-Serif" font-size="10.00" fill="#000000">CO_User_Collection</text>
<text text-anchor="middle" x="352.6934" y="-100.5" font-family="Helvetica,sans-Serif" font-size="10.00" fill="#000000">\_load_login</text>
</a>
</g>
</g>
<!-- Node1&#45;&gt;Node3 -->
<g id="edge2" class="edge">
<title>Node1&#45;&gt;Node3</title>
<path fill="none" stroke="#191970" d="M436.2813,-108.5C426.183,-108.5 416.0376,-108.5 406.469,-108.5"/>
<polygon fill="#191970" stroke="#191970" points="436.3409,-112.0001 446.3409,-108.5 436.3408,-105.0001 436.3409,-112.0001"/>
</g>
<!-- Node7 -->
<g id="node7" class="node">
<title>Node7</title>
<g id="a_node7"><a xlink:href="a00276.html#ac4b573bbcb37aaf83685c3fdff046bf7" target="_top" xlink:title=" ">
<polygon fill="#ffffff" stroke="#000000" points="0,-138.5 0,-166.5 115.5215,-166.5 115.5215,-138.5 0,-138.5"/>
<text text-anchor="start" x="8" y="-154.5" font-family="Helvetica,sans-Serif" font-size="10.00" fill="#000000">CO_User_Collection</text>
<text text-anchor="middle" x="57.7607" y="-144.5" font-family="Helvetica,sans-Serif" font-size="10.00" fill="#000000">\has_login_i_cant_see</text>
</a>
</g>
</g>
<!-- Node1&#45;&gt;Node7 -->
<g id="edge9" class="edge">
<title>Node1&#45;&gt;Node7</title>
<path fill="none" stroke="#191970" d="M472.8085,-119.9669C453.9306,-124.6152 431.3545,-129.5689 410.7178,-132.5 307.4161,-147.1723 185.6653,-151.1775 115.522,-152.2127"/>
<polygon fill="#191970" stroke="#191970" points="473.7524,-123.3386 482.5958,-117.5038 472.044,-116.5503 473.7524,-123.3386"/>
</g>
<!-- Node9 -->
<g id="node9" class="node">
<title>Node9</title>
<g id="a_node9"><a xlink:href="a00276.html#ab94286252d62d4c374bcff2aa4305198" target="_top" xlink:title=" ">
<polygon fill="#ffffff" stroke="#000000" points="299.1196,-47.5 299.1196,-75.5 406.2671,-75.5 406.2671,-47.5 299.1196,-47.5"/>
<text text-anchor="start" x="307.1196" y="-63.5" font-family="Helvetica,sans-Serif" font-size="10.00" fill="#000000">CO_User_Collection</text>
<text text-anchor="middle" x="352.6934" y="-53.5" font-family="Helvetica,sans-Serif" font-size="10.00" fill="#000000">\has_login</text>
</a>
</g>
</g>
<!-- Node1&#45;&gt;Node9 -->
<g id="edge8" class="edge">
<title>Node1&#45;&gt;Node9</title>
<path fill="none" stroke="#191970" d="M474.1648,-96.61C451.9788,-90.1973 424.4634,-82.2443 401.2333,-75.5299"/>
<polygon fill="#191970" stroke="#191970" points="473.3702,-100.0235 483.9488,-99.4379 475.3139,-93.2988 473.3702,-100.0235"/>
</g>
<!-- Node10 -->
<g id="node10" class="node">
<title>Node10</title>
<g id="a_node10"><a xlink:href="a00276.html#ae7fc3a4f853b6b0ce16e5dc31df070ca" target="_top" xlink:title=" ">
<polygon fill="#ffffff" stroke="#000000" points="299.1196,-.5 299.1196,-28.5 406.2671,-28.5 406.2671,-.5 299.1196,-.5"/>
<text text-anchor="start" x="307.1196" y="-16.5" font-family="Helvetica,sans-Serif" font-size="10.00" fill="#000000">CO_User_Collection</text>
<text text-anchor="middle" x="352.6934" y="-6.5" font-family="Helvetica,sans-Serif" font-size="10.00" fill="#000000">\is_god</text>
</a>
</g>
</g>
<!-- Node1&#45;&gt;Node10 -->
<g id="edge10" class="edge">
<title>Node1&#45;&gt;Node10</title>
<path fill="none" stroke="#191970" d="M495.41,-93.0473C474.9614,-77.6392 441.8048,-53.9578 410.7178,-37.5 404.6843,-34.3058 398.1064,-31.2908 391.6173,-28.5603"/>
<polygon fill="#191970" stroke="#191970" points="493.5304,-96.0155 503.6053,-99.294 497.7739,-90.4483 493.5304,-96.0155"/>
</g>
<!-- Node4 -->
<g id="node4" class="node">
<title>Node4</title>
<g id="a_node4"><a xlink:href="a00276.html#a2cc75e169901df4a8fc859f42e0e9f8c" target="_top" xlink:title=" ">
<polygon fill="#ffffff" stroke="#000000" points="151.5215,-92.5 151.5215,-120.5 258.6689,-120.5 258.6689,-92.5 151.5215,-92.5"/>
<text text-anchor="start" x="159.5215" y="-108.5" font-family="Helvetica,sans-Serif" font-size="10.00" fill="#000000">CO_User_Collection</text>
<text text-anchor="middle" x="205.0952" y="-98.5" font-family="Helvetica,sans-Serif" font-size="10.00" fill="#000000">\get_login_instance</text>
</a>
</g>
</g>
<!-- Node3&#45;&gt;Node4 -->
<g id="edge3" class="edge">
<title>Node3&#45;&gt;Node4</title>
<path fill="none" stroke="#191970" d="M288.7674,-107.6338C278.8446,-107.4993 268.6792,-107.3616 259.0064,-107.2305"/>
<polygon fill="#191970" stroke="#191970" points="288.943,-111.1364 298.9895,-107.7723 289.0379,-104.137 288.943,-111.1364"/>
</g>
<!-- Node8 -->
<g id="node8" class="node">
<title>Node8</title>
<g id="a_node8"><a xlink:href="a00276.html#a38a9d15bfc7194ec0057869caf6523c0" target="_top" xlink:title=" ">
<polygon fill="#ffffff" stroke="#000000" points="151.5215,-22.5 151.5215,-50.5 258.6689,-50.5 258.6689,-22.5 151.5215,-22.5"/>
<text text-anchor="start" x="159.5215" y="-38.5" font-family="Helvetica,sans-Serif" font-size="10.00" fill="#000000">CO_User_Collection</text>
<text text-anchor="middle" x="205.0952" y="-28.5" font-family="Helvetica,sans-Serif" font-size="10.00" fill="#000000">\is_manager</text>
</a>
</g>
</g>
<!-- Node3&#45;&gt;Node8 -->
<g id="edge7" class="edge">
<title>Node3&#45;&gt;Node8</title>
<path fill="none" stroke="#191970" d="M307.937,-90.5156C303.4278,-88.5463 298.9398,-86.5214 294.6689,-84.5 272.343,-73.9331 247.6471,-60.5683 229.8504,-50.626"/>
<polygon fill="#191970" stroke="#191970" points="306.589,-93.7457 317.1596,-94.4607 309.342,-87.3098 306.589,-93.7457"/>
</g>
<!-- Node5 -->
<g id="node5" class="node">
<title>Node5</title>
<g id="a_node5"><a xlink:href="a00276.html#a3ae822685b2b8ca8af56d8ea4c4a2a6c" target="_top" xlink:title=" ">
<polygon fill="#ffffff" stroke="#000000" points="4.187,-44.5 4.187,-72.5 111.3345,-72.5 111.3345,-44.5 4.187,-44.5"/>
<text text-anchor="start" x="12.187" y="-60.5" font-family="Helvetica,sans-Serif" font-size="10.00" fill="#000000">CO_User_Collection</text>
<text text-anchor="middle" x="57.7607" y="-50.5" font-family="Helvetica,sans-Serif" font-size="10.00" fill="#000000">\delete_from_db</text>
</a>
</g>
</g>
<!-- Node4&#45;&gt;Node5 -->
<g id="edge4" class="edge">
<title>Node4&#45;&gt;Node5</title>
<path fill="none" stroke="#191970" d="M152.3489,-89.3158C135.4494,-83.8101 116.9482,-77.7827 100.8255,-72.53"/>
<polygon fill="#191970" stroke="#191970" points="151.4916,-92.7175 162.0839,-92.4874 153.66,-86.0618 151.4916,-92.7175"/>
</g>
<!-- Node6 -->
<g id="node6" class="node">
<title>Node6</title>
<g id="a_node6"><a xlink:href="a00276.html#a9041f37ce8eba7afe52a014fe3938cce" target="_top" xlink:title=" ">
<polygon fill="#ffffff" stroke="#000000" points="4.187,-91.5 4.187,-119.5 111.3345,-119.5 111.3345,-91.5 4.187,-91.5"/>
<text text-anchor="start" x="12.187" y="-107.5" font-family="Helvetica,sans-Serif" font-size="10.00" fill="#000000">CO_User_Collection</text>
<text text-anchor="middle" x="57.7607" y="-97.5" font-family="Helvetica,sans-Serif" font-size="10.00" fill="#000000">\get_lang</text>
</a>
</g>
</g>
<!-- Node4&#45;&gt;Node6 -->
<g id="edge5" class="edge">
<title>Node4&#45;&gt;Node6</title>
<path fill="none" stroke="#191970" d="M141.2835,-106.0669C131.3783,-105.9997 121.2311,-105.9308 111.5756,-105.8653"/>
<polygon fill="#191970" stroke="#191970" points="141.4637,-109.5681 151.4873,-106.1361 141.5113,-102.5683 141.4637,-109.5681"/>
</g>
<!-- Node4&#45;&gt;Node7 -->
<g id="edge6" class="edge">
<title>Node4&#45;&gt;Node7</title>
<path fill="none" stroke="#191970" d="M150.4911,-123.5482C134.7723,-128.4559 117.8101,-133.7517 102.7446,-138.4554"/>
<polygon fill="#191970" stroke="#191970" points="151.587,-126.8728 160.0894,-120.5515 149.5007,-120.1909 151.587,-126.8728"/>
</g>
<!-- Node10&#45;&gt;Node8 -->
<g id="edge11" class="edge">
<title>Node10&#45;&gt;Node8</title>
<path fill="none" stroke="#191970" d="M289.0807,-23.9817C279.0586,-25.4755 268.781,-27.0074 259.0064,-28.4644"/>
<polygon fill="#191970" stroke="#191970" points="289.6148,-27.4408 298.9895,-22.5047 288.5828,-20.5173 289.6148,-27.4408"/>
</g>
</g>
</svg>
