<?xml version="1.0" encoding="UTF-8" standalone="no"?>
<!DOCTYPE svg PUBLIC "-//W3C//DTD SVG 1.1//EN"
 "http://www.w3.org/Graphics/SVG/1.1/DTD/svg11.dtd">
<!-- Generated by graphviz version 2.40.1 (20161225.0304)
 -->
<!-- Title: CO_Security_DB\get_all_user_objects_with_access Pages: 1 -->
<svg width="465pt" height="47pt"
 viewBox="0.00 0.00 464.86 47.00" xmlns="http://www.w3.org/2000/svg" xmlns:xlink="http://www.w3.org/1999/xlink">
<g id="graph0" class="graph" transform="scale(1 1) rotate(0) translate(4 43)">
<title>CO_Security_DB\get_all_user_objects_with_access</title>
<polygon fill="#ffffff" stroke="transparent" points="-4,4 -4,-43 460.8604,-43 460.8604,4 -4,4"/>
<!-- Node1 -->
<g id="node1" class="node">
<title>Node1</title>
<g id="a_node1"><a xlink:title=" ">
<polygon fill="#bfbfbf" stroke="#000000" points="0,-.5 0,-38.5 117.1719,-38.5 117.1719,-.5 0,-.5"/>
<text text-anchor="start" x="8" y="-26.5" font-family="Helvetica,sans-Serif" font-size="10.00" fill="#000000">CO_Security_DB\get</text>
<text text-anchor="start" x="8" y="-16.5" font-family="Helvetica,sans-Serif" font-size="10.00" fill="#000000">_all_user_objects_with</text>
<text text-anchor="middle" x="58.5859" y="-6.5" font-family="Helvetica,sans-Serif" font-size="10.00" fill="#000000">_access</text>
</a>
</g>
</g>
<!-- Node2 -->
<g id="node2" class="node">
<title>Node2</title>
<g id="a_node2"><a xlink:href="a00307.html#a2396849660aa4ff018ab7509a4badeb5" target="_top" xlink:title=" ">
<polygon fill="#ffffff" stroke="#000000" points="153.1719,-10.5 153.1719,-28.5 284.2354,-28.5 284.2354,-10.5 153.1719,-10.5"/>
<text text-anchor="middle" x="218.7036" y="-16.5" font-family="Helvetica,sans-Serif" font-size="10.00" fill="#000000">A_CO_DB\execute_query</text>
</a>
</g>
</g>
<!-- Node1&#45;&gt;Node2 -->
<g id="edge1" class="edge">
<title>Node1&#45;&gt;Node2</title>
<path fill="none" stroke="#191970" d="M117.2987,-19.5C125.6382,-19.5 134.3112,-19.5 142.9181,-19.5"/>
<polygon fill="#191970" stroke="#191970" points="142.9676,-23.0001 152.9676,-19.5 142.9675,-16.0001 142.9676,-23.0001"/>
</g>
<!-- Node3 -->
<g id="node3" class="node">
<title>Node3</title>
<g id="a_node3"><a xlink:href="a00307.html#ae41efbdfe739934823b5f4c785b22611" target="_top" xlink:title=" ">
<polygon fill="#ffffff" stroke="#000000" points="320.2354,-10.5 320.2354,-28.5 456.8604,-28.5 456.8604,-10.5 320.2354,-10.5"/>
<text text-anchor="middle" x="388.5479" y="-16.5" font-family="Helvetica,sans-Serif" font-size="10.00" fill="#000000">A_CO_DB\_execute_query</text>
</a>
</g>
</g>
<!-- Node2&#45;&gt;Node3 -->
<g id="edge2" class="edge">
<title>Node2&#45;&gt;Node3</title>
<path fill="none" stroke="#191970" d="M284.3698,-19.5C292.6654,-19.5 301.2197,-19.5 309.6931,-19.5"/>
<polygon fill="#191970" stroke="#191970" points="309.9658,-23.0001 319.9658,-19.5 309.9657,-16.0001 309.9658,-23.0001"/>
</g>
</g>
</svg>
