<?xml version="1.0" encoding="UTF-8" standalone="no"?>
<!DOCTYPE svg PUBLIC "-//W3C//DTD SVG 1.1//EN"
 "http://www.w3.org/Graphics/SVG/1.1/DTD/svg11.dtd">
<!-- Generated by graphviz version 2.40.1 (20161225.0304)
 -->
<!-- Title: CO_Security_Login\get_crypted_password Pages: 1 -->
<svg width="297pt" height="84pt"
 viewBox="0.00 0.00 296.67 84.00" xmlns="http://www.w3.org/2000/svg" xmlns:xlink="http://www.w3.org/1999/xlink">
<g id="graph0" class="graph" transform="scale(1 1) rotate(0) translate(4 80)">
<title>CO_Security_Login\get_crypted_password</title>
<polygon fill="#ffffff" stroke="transparent" points="-4,4 -4,-80 292.6689,-80 292.6689,4 -4,4"/>
<!-- Node1 -->
<g id="node1" class="node">
<title>Node1</title>
<g id="a_node1"><a xlink:title=" ">
<polygon fill="#bfbfbf" stroke="#000000" points="169.2754,-23.5 169.2754,-51.5 288.6689,-51.5 288.6689,-23.5 169.2754,-23.5"/>
<text text-anchor="start" x="177.2754" y="-39.5" font-family="Helvetica,sans-Serif" font-size="10.00" fill="#000000">CO_Security_Login\get</text>
<text text-anchor="middle" x="228.9722" y="-29.5" font-family="Helvetica,sans-Serif" font-size="10.00" fill="#000000">_crypted_password</text>
</a>
</g>
</g>
<!-- Node2 -->
<g id="node2" class="node">
<title>Node2</title>
<g id="a_node2"><a xlink:href="a00340.html#a5ec502fbeb3620816dbcf4868da637e8" target="_top" xlink:title=" ">
<polygon fill="#ffffff" stroke="#000000" points="10.2808,-47.5 10.2808,-75.5 122.9946,-75.5 122.9946,-47.5 10.2808,-47.5"/>
<text text-anchor="start" x="18.2808" y="-63.5" font-family="Helvetica,sans-Serif" font-size="10.00" fill="#000000">CO_Security_Login\is</text>
<text text-anchor="middle" x="66.6377" y="-53.5" font-family="Helvetica,sans-Serif" font-size="10.00" fill="#000000">_login_valid</text>
</a>
</g>
</g>
<!-- Node1&#45;&gt;Node2 -->
<g id="edge1" class="edge">
<title>Node1&#45;&gt;Node2</title>
<path fill="none" stroke="#191970" d="M159.0217,-47.8417C147.0382,-49.6134 134.7222,-51.4342 123.1456,-53.1457"/>
<polygon fill="#191970" stroke="#191970" points="159.6055,-51.2935 168.986,-46.3685 158.5816,-44.3688 159.6055,-51.2935"/>
</g>
<!-- Node3 -->
<g id="node3" class="node">
<title>Node3</title>
<g id="a_node3"><a xlink:href="a00340.html#ac4f0c16cb8cf1e2151451bf4d5cb2238" target="_top" xlink:title=" ">
<polygon fill="#ffffff" stroke="#000000" points="0,-.5 0,-28.5 133.2754,-28.5 133.2754,-.5 0,-.5"/>
<text text-anchor="start" x="8" y="-16.5" font-family="Helvetica,sans-Serif" font-size="10.00" fill="#000000">CO_Security_Login\set</text>
<text text-anchor="middle" x="66.6377" y="-6.5" font-family="Helvetica,sans-Serif" font-size="10.00" fill="#000000">_password_from_cleartext</text>
</a>
</g>
</g>
<!-- Node1&#45;&gt;Node3 -->
<g id="edge2" class="edge">
<title>Node1&#45;&gt;Node3</title>
<path fill="none" stroke="#191970" d="M158.8311,-27.5622C150.42,-26.3705 141.8479,-25.156 133.4853,-23.9712"/>
<polygon fill="#191970" stroke="#191970" points="158.5939,-31.0635 168.986,-29.001 159.5759,-24.1327 158.5939,-31.0635"/>
</g>
</g>
</svg>
