<?xml version="1.0" encoding="UTF-8" standalone="no"?>
<!DOCTYPE svg PUBLIC "-//W3C//DTD SVG 1.1//EN"
 "http://www.w3.org/Graphics/SVG/1.1/DTD/svg11.dtd">
<!-- Generated by graphviz version 2.40.1 (20161225.0304)
 -->
<!-- Title: CO_Access\get_login_item_by_login_string Pages: 1 -->
<svg width="263pt" height="37pt"
 viewBox="0.00 0.00 263.30 37.00" xmlns="http://www.w3.org/2000/svg" xmlns:xlink="http://www.w3.org/1999/xlink">
<g id="graph0" class="graph" transform="scale(1 1) rotate(0) translate(4 33)">
<title>CO_Access\get_login_item_by_login_string</title>
<polygon fill="#ffffff" stroke="transparent" points="-4,4 -4,-33 259.3047,-33 259.3047,4 -4,4"/>
<!-- Node77 -->
<g id="node1" class="node">
<title>Node77</title>
<polygon fill="#bfbfbf" stroke="#000000" points="0,-.5 0,-28.5 113.2803,-28.5 113.2803,-.5 0,-.5"/>
<text text-anchor="start" x="8" y="-16.5" font-family="Helvetica,sans-Serif" font-size="10.00" fill="#000000">CO_Access\get_login</text>
<text text-anchor="middle" x="56.6401" y="-6.5" font-family="Helvetica,sans-Serif" font-size="10.00" fill="#000000">_item_by_login_string</text>
</g>
<!-- Node78 -->
<g id="node2" class="node">
<title>Node78</title>
<g id="a_node2"><a xlink:href="a00355.html#a22dd3ef5f47a6f4c40a551a1d7767402" target="_top" xlink:title="CO_Access\\security\l_db_available">
<polygon fill="#ffffff" stroke="#000000" points="149.2803,-.5 149.2803,-28.5 255.3047,-28.5 255.3047,-.5 149.2803,-.5"/>
<text text-anchor="start" x="157.2803" y="-16.5" font-family="Helvetica,sans-Serif" font-size="10.00" fill="#000000">CO_Access\security</text>
<text text-anchor="middle" x="202.2925" y="-6.5" font-family="Helvetica,sans-Serif" font-size="10.00" fill="#000000">_db_available</text>
</a>
</g>
</g>
<!-- Node77&#45;&gt;Node78 -->
<g id="edge1" class="edge">
<title>Node77&#45;&gt;Node78</title>
<path fill="none" stroke="#191970" d="M113.3702,-14.5C121.6611,-14.5 130.245,-14.5 138.6624,-14.5"/>
<polygon fill="#191970" stroke="#191970" points="138.8163,-18.0001 148.8162,-14.5 138.8162,-11.0001 138.8163,-18.0001"/>
</g>
</g>
</svg>
