<?xml version="1.0" encoding="UTF-8" standalone="no"?>
<!DOCTYPE svg PUBLIC "-//W3C//DTD SVG 1.1//EN"
 "http://www.w3.org/Graphics/SVG/1.1/DTD/svg11.dtd">
<!-- Generated by graphviz version 2.40.1 (20161225.0304)
 -->
<!-- Title: CO_Security_DB\get_initial_record_by_login_id Pages: 1 -->
<svg width="482pt" height="74pt"
 viewBox="0.00 0.00 482.10 74.00" xmlns="http://www.w3.org/2000/svg" xmlns:xlink="http://www.w3.org/1999/xlink">
<g id="graph0" class="graph" transform="scale(1 1) rotate(0) translate(4 70)">
<title>CO_Security_DB\get_initial_record_by_login_id</title>
<polygon fill="#ffffff" stroke="transparent" points="-4,4 -4,-70 478.1016,-70 478.1016,4 -4,4"/>
<!-- Node1 -->
<g id="node1" class="node">
<title>Node1</title>
<g id="a_node1"><a xlink:title=" ">
<polygon fill="#bfbfbf" stroke="#000000" points="0,-16.5 0,-44.5 134.4131,-44.5 134.4131,-16.5 0,-16.5"/>
<text text-anchor="start" x="8" y="-32.5" font-family="Helvetica,sans-Serif" font-size="10.00" fill="#000000">CO_Security_DB\get</text>
<text text-anchor="middle" x="67.2065" y="-22.5" font-family="Helvetica,sans-Serif" font-size="10.00" fill="#000000">_initial_record_by_login_id</text>
</a>
</g>
</g>
<!-- Node2 -->
<g id="node2" class="node">
<title>Node2</title>
<g id="a_node2"><a xlink:href="a00304.html#a523e2f40174a0bca0fc873d6286b3ae9" target="_top" xlink:title=" ">
<polygon fill="#ffffff" stroke="#000000" points="177.6396,-37.5 177.6396,-65.5 294.25,-65.5 294.25,-37.5 177.6396,-37.5"/>
<text text-anchor="start" x="185.6396" y="-53.5" font-family="Helvetica,sans-Serif" font-size="10.00" fill="#000000">A_CO_DB\_instantiate</text>
<text text-anchor="middle" x="235.9448" y="-43.5" font-family="Helvetica,sans-Serif" font-size="10.00" fill="#000000">_record</text>
</a>
</g>
</g>
<!-- Node1&#45;&gt;Node2 -->
<g id="edge1" class="edge">
<title>Node1&#45;&gt;Node2</title>
<path fill="none" stroke="#191970" d="M134.8666,-38.9205C145.5669,-40.2522 156.6407,-41.6304 167.3618,-42.9646"/>
<polygon fill="#191970" stroke="#191970" points="167.1534,-46.4656 177.5091,-44.2275 168.0179,-39.5192 167.1534,-46.4656"/>
</g>
<!-- Node3 -->
<g id="node3" class="node">
<title>Node3</title>
<g id="a_node3"><a xlink:href="a00304.html#a2396849660aa4ff018ab7509a4badeb5" target="_top" xlink:title=" ">
<polygon fill="#ffffff" stroke="#000000" points="170.4131,-.5 170.4131,-18.5 301.4766,-18.5 301.4766,-.5 170.4131,-.5"/>
<text text-anchor="middle" x="235.9448" y="-6.5" font-family="Helvetica,sans-Serif" font-size="10.00" fill="#000000">A_CO_DB\execute_query</text>
</a>
</g>
</g>
<!-- Node1&#45;&gt;Node3 -->
<g id="edge2" class="edge">
<title>Node1&#45;&gt;Node3</title>
<path fill="none" stroke="#191970" d="M134.8666,-22.0795C143.145,-21.0492 151.647,-19.9911 160.0363,-18.947"/>
<polygon fill="#191970" stroke="#191970" points="160.6998,-22.3916 170.1909,-17.6833 159.8352,-15.4452 160.6998,-22.3916"/>
</g>
<!-- Node4 -->
<g id="node4" class="node">
<title>Node4</title>
<g id="a_node4"><a xlink:href="a00304.html#ae41efbdfe739934823b5f4c785b22611" target="_top" xlink:title=" ">
<polygon fill="#ffffff" stroke="#000000" points="337.4766,-.5 337.4766,-18.5 474.1016,-18.5 474.1016,-.5 337.4766,-.5"/>
<text text-anchor="middle" x="405.7891" y="-6.5" font-family="Helvetica,sans-Serif" font-size="10.00" fill="#000000">A_CO_DB\_execute_query</text>
</a>
</g>
</g>
<!-- Node3&#45;&gt;Node4 -->
<g id="edge3" class="edge">
<title>Node3&#45;&gt;Node4</title>
<path fill="none" stroke="#191970" d="M301.611,-9.5C309.9066,-9.5 318.461,-9.5 326.9343,-9.5"/>
<polygon fill="#191970" stroke="#191970" points="327.207,-13.0001 337.207,-9.5 327.207,-6.0001 327.207,-13.0001"/>
</g>
</g>
</svg>
