<?xml version="1.0" encoding="UTF-8" standalone="no"?>
<!DOCTYPE svg PUBLIC "-//W3C//DTD SVG 1.1//EN"
 "http://www.w3.org/Graphics/SVG/1.1/DTD/svg11.dtd">
<!-- Generated by graphviz version 2.40.1 (20161225.0304)
 -->
<!-- Title: A_CO_DB_Table_Base\load_from_db Pages: 1 -->
<svg width="285pt" height="84pt"
 viewBox="0.00 0.00 285.01 84.00" xmlns="http://www.w3.org/2000/svg" xmlns:xlink="http://www.w3.org/1999/xlink">
<g id="graph0" class="graph" transform="scale(1 1) rotate(0) translate(4 80)">
<title>A_CO_DB_Table_Base\load_from_db</title>
<polygon fill="#ffffff" stroke="transparent" points="-4,4 -4,-80 281.0137,-80 281.0137,4 -4,4"/>
<!-- Node1 -->
<g id="node1" class="node">
<title>Node1</title>
<g id="a_node1"><a xlink:title=" ">
<polygon fill="#bfbfbf" stroke="#000000" points="156.5068,-23.5 156.5068,-51.5 277.0137,-51.5 277.0137,-23.5 156.5068,-23.5"/>
<text text-anchor="start" x="164.5068" y="-39.5" font-family="Helvetica,sans-Serif" font-size="10.00" fill="#000000">A_CO_DB_Table_Base</text>
<text text-anchor="middle" x="216.7603" y="-29.5" font-family="Helvetica,sans-Serif" font-size="10.00" fill="#000000">\load_from_db</text>
</a>
</g>
</g>
<!-- Node2 -->
<g id="node2" class="node">
<title>Node2</title>
<g id="a_node2"><a xlink:href="a00311.html#a4417bcd42c4db0dc6f3d1c0ab94e19f3" target="_top" xlink:title=" ">
<polygon fill="#ffffff" stroke="#000000" points="0,-47.5 0,-75.5 120.5068,-75.5 120.5068,-47.5 0,-47.5"/>
<text text-anchor="start" x="8" y="-63.5" font-family="Helvetica,sans-Serif" font-size="10.00" fill="#000000">A_CO_DB_Table_Base</text>
<text text-anchor="middle" x="60.2534" y="-53.5" font-family="Helvetica,sans-Serif" font-size="10.00" fill="#000000">\__construct</text>
</a>
</g>
</g>
<!-- Node1&#45;&gt;Node2 -->
<g id="edge1" class="edge">
<title>Node1&#45;&gt;Node2</title>
<path fill="none" stroke="#191970" d="M146.2725,-48.3091C137.7023,-49.6234 129.0066,-50.9568 120.6021,-52.2457"/>
<polygon fill="#191970" stroke="#191970" points="146.8967,-51.7544 156.2506,-46.779 145.8356,-44.8353 146.8967,-51.7544"/>
</g>
<!-- Node3 -->
<g id="node3" class="node">
<title>Node3</title>
<g id="a_node3"><a xlink:href="a00311.html#aa5e1bc5570c817cfe3ddeb67003d4f45" target="_top" xlink:title=" ">
<polygon fill="#ffffff" stroke="#000000" points="0,-.5 0,-28.5 120.5068,-28.5 120.5068,-.5 0,-.5"/>
<text text-anchor="start" x="8" y="-16.5" font-family="Helvetica,sans-Serif" font-size="10.00" fill="#000000">A_CO_DB_Table_Base</text>
<text text-anchor="middle" x="60.2534" y="-6.5" font-family="Helvetica,sans-Serif" font-size="10.00" fill="#000000">\reload_from_db</text>
</a>
</g>
</g>
<!-- Node1&#45;&gt;Node3 -->
<g id="edge2" class="edge">
<title>Node1&#45;&gt;Node3</title>
<path fill="none" stroke="#191970" d="M146.2725,-27.1412C137.7023,-25.8818 129.0066,-24.6039 120.6021,-23.3688"/>
<polygon fill="#191970" stroke="#191970" points="145.848,-30.6164 156.2506,-28.6076 146.8658,-23.6907 145.848,-30.6164"/>
</g>
</g>
</svg>
