<?xml version="1.0" encoding="UTF-8" standalone="no"?>
<!DOCTYPE svg PUBLIC "-//W3C//DTD SVG 1.1//EN"
 "http://www.w3.org/Graphics/SVG/1.1/DTD/svg11.dtd">
<!-- Generated by graphviz version 2.40.1 (20161225.0304)
 -->
<!-- Title: A_CO_DB\_create_security_predicate Pages: 1 -->
<!--zoomable 628 -->
<svg id="main" version="1.1" xmlns="http://www.w3.org/2000/svg" xmlns:xlink="http://www.w3.org/1999/xlink" xml:space="preserve" onload="init(evt)">
<style type="text/css"><![CDATA[
.edge:hover path { stroke: red; }
.edge:hover polygon { stroke: red; fill: red; }
]]></style>
<script type="text/javascript"><![CDATA[
var edges = document.getElementsByTagName('g');
if (edges && edges.length) {
  for (var i=0;i<edges.length;i++) {
    if (edges[i].id.substr(0,4)=='edge') {
      edges[i].setAttribute('class','edge');
    }
  }
}
]]></script>
        <defs>
                <circle id="rim" cx="0" cy="0" r="7"/>
                <circle id="rim2" cx="0" cy="0" r="3.5"/>
                <g id="zoomPlus">
                        <use xlink:href="#rim" fill="#404040">
                                <set attributeName="fill" to="#808080" begin="zoomplus.mouseover" end="zoomplus.mouseout"/>
                        </use>
                        <path d="M-4,0h8M0,-4v8" fill="none" stroke="white" stroke-width="1.5" pointer-events="none"/>
                </g>
                <g id="zoomMin">
                        <use xlink:href="#rim" fill="#404040">
                                <set attributeName="fill" to="#808080" begin="zoomminus.mouseover" end="zoomminus.mouseout"/>
                        </use>
                        <path d="M-4,0h8" fill="none" stroke="white" stroke-width="1.5" pointer-events="none"/>
                </g>
                <g id="dirArrow">
                        <path fill="none" stroke="white" stroke-width="1.5" d="M0,-3.0v7 M-2.5,-0.5L0,-3.0L2.5,-0.5"/>
                </g>
               <g id="resetDef">
                       <use xlink:href="#rim2" fill="#404040">
                               <set attributeName="fill" to="#808080" begin="reset.mouseover" end="reset.mouseout"/>
                       </use>
               </g>
        </defs>

<script type="text/javascript">
var viewWidth = 680;
var viewHeight = 628;
var sectionId = 'dynsection-4';
</script>
<script xlink:href="svgpan.js"/>
<svg id="graph" class="graph">
<g id="viewport">
<title>A_CO_DB\_create_security_predicate</title>
<polygon fill="#ffffff" stroke="transparent" points="-4,4 -4,-624.2073 675.7168,-624.2073 675.7168,4 -4,4"/>
<!-- Node26 -->
<g id="node1" class="node">
<title>Node26</title>
<polygon fill="#bfbfbf" stroke="#000000" points="0,-298.5 0,-326.5 138.832,-326.5 138.832,-298.5 0,-298.5"/>
<text text-anchor="start" x="8" y="-314.5" font-family="Helvetica,sans-Serif" font-size="10.00" fill="#000000">A_CO_DB\_create_security</text>
<text text-anchor="middle" x="69.416" y="-304.5" font-family="Helvetica,sans-Serif" font-size="10.00" fill="#000000">_predicate</text>
</g>
<!-- Node27 -->
<g id="node2" class="node">
<title>Node27</title>
<g id="a_node2"><a xlink:href="a00315.html#aa97e6ad521aed4c2cbe03e83017af0b7" target="_top" xlink:title="CO_Main_Data_DB\\_build\l_sql_query">
<polygon fill="#ffffff" stroke="#000000" points="359.9692,-575.5 359.9692,-603.5 493.811,-603.5 493.811,-575.5 359.9692,-575.5"/>
<text text-anchor="start" x="367.9692" y="-591.5" font-family="Helvetica,sans-Serif" font-size="10.00" fill="#000000">CO_Main_Data_DB\_build</text>
<text text-anchor="middle" x="426.8901" y="-581.5" font-family="Helvetica,sans-Serif" font-size="10.00" fill="#000000">_sql_query</text>
</a>
</g>
</g>
<!-- Node26&#45;&gt;Node27 -->
<g id="edge1" class="edge">
<title>Node26&#45;&gt;Node27</title>
<path fill="none" stroke="#191970" d="M74.8483,-336.7744C89.3381,-399.1053 130.8124,-562.0368 174.832,-592.5 237.4482,-635.8327 331.3901,-618.8741 385.1472,-603.564"/>
<polygon fill="#191970" stroke="#191970" points="78.1815,-335.6505 72.5355,-326.6855 71.3585,-337.2148 78.1815,-335.6505"/>
</g>
<!-- Node29 -->
<g id="node4" class="node">
<title>Node29</title>
<g id="a_node4"><a xlink:href="a00315.html#a352444b4bfd455cb53a57137f3c44884" target="_top" xlink:title="CO_Main_Data_DB\\_location\l_predicate">
<polygon fill="#ffffff" stroke="#000000" points="174.832,-554.5 174.832,-582.5 322.0137,-582.5 322.0137,-554.5 174.832,-554.5"/>
<text text-anchor="start" x="182.832" y="-570.5" font-family="Helvetica,sans-Serif" font-size="10.00" fill="#000000">CO_Main_Data_DB\_location</text>
<text text-anchor="middle" x="248.4229" y="-560.5" font-family="Helvetica,sans-Serif" font-size="10.00" fill="#000000">_predicate</text>
</a>
</g>
</g>
<!-- Node26&#45;&gt;Node29 -->
<g id="edge3" class="edge">
<title>Node26&#45;&gt;Node29</title>
<path fill="none" stroke="#191970" d="M73.5677,-336.5732C82.9484,-383.6563 110.2082,-488.3129 174.832,-545.5 178.7415,-548.9596 183.1677,-551.8989 187.8626,-554.3961"/>
<polygon fill="#191970" stroke="#191970" points="76.9916,-335.8424 71.6919,-326.6683 70.1139,-337.145 76.9916,-335.8424"/>
</g>
<!-- Node30 -->
<g id="node5" class="node">
<title>Node30</title>
<g id="a_node5"><a xlink:href="a00307.html#af6baed01812f38acbc19df4b00f443b2" target="_top" xlink:title="A_CO_DB\\can_i_see_this\l_record">
<polygon fill="#ffffff" stroke="#000000" points="182.3345,-507.5 182.3345,-535.5 314.5112,-535.5 314.5112,-507.5 182.3345,-507.5"/>
<text text-anchor="start" x="190.3345" y="-523.5" font-family="Helvetica,sans-Serif" font-size="10.00" fill="#000000">A_CO_DB\can_i_see_this</text>
<text text-anchor="middle" x="248.4229" y="-513.5" font-family="Helvetica,sans-Serif" font-size="10.00" fill="#000000">_record</text>
</a>
</g>
</g>
<!-- Node26&#45;&gt;Node30 -->
<g id="edge5" class="edge">
<title>Node26&#45;&gt;Node30</title>
<path fill="none" stroke="#191970" d="M76.4356,-336.0843C89.3787,-375.529 120.7431,-454.8452 174.832,-498.5 179.1027,-501.9468 183.893,-504.8796 188.927,-507.3744"/>
<polygon fill="#191970" stroke="#191970" points="79.7617,-334.9941 73.404,-326.5188 73.0889,-337.109 79.7617,-334.9941"/>
</g>
<!-- Node31 -->
<g id="node6" class="node">
<title>Node31</title>
<g id="a_node6"><a xlink:href="a00307.html#a9794f1140b379f8d09c4265a089fcea0" target="_top" xlink:title="A_CO_DB\\delete_record">
<polygon fill="#ffffff" stroke="#000000" points="185.1152,-470.5 185.1152,-488.5 311.7305,-488.5 311.7305,-470.5 185.1152,-470.5"/>
<text text-anchor="middle" x="248.4229" y="-476.5" font-family="Helvetica,sans-Serif" font-size="10.00" fill="#000000">A_CO_DB\delete_record</text>
</a>
</g>
</g>
<!-- Node26&#45;&gt;Node31 -->
<g id="edge6" class="edge">
<title>Node26&#45;&gt;Node31</title>
<path fill="none" stroke="#191970" d="M79.4487,-335.927C94.923,-369.1638 127.8231,-429.5135 174.832,-461.5 180.2691,-465.1996 186.3896,-468.1407 192.7192,-470.4784"/>
<polygon fill="#191970" stroke="#191970" points="82.5164,-334.2159 75.2095,-326.5439 76.1372,-337.0981 82.5164,-334.2159"/>
</g>
<!-- Node32 -->
<g id="node7" class="node">
<title>Node32</title>
<g id="a_node7"><a xlink:href="a00307.html#a707e7cfdbea32a3713320dbca46dac64" target="_top" xlink:title="A_CO_DB\\get_access\l_class_by_id">
<polygon fill="#ffffff" stroke="#000000" points="190.3984,-423.5 190.3984,-451.5 306.4473,-451.5 306.4473,-423.5 190.3984,-423.5"/>
<text text-anchor="start" x="198.3984" y="-439.5" font-family="Helvetica,sans-Serif" font-size="10.00" fill="#000000">A_CO_DB\get_access</text>
<text text-anchor="middle" x="248.4229" y="-429.5" font-family="Helvetica,sans-Serif" font-size="10.00" fill="#000000">_class_by_id</text>
</a>
</g>
</g>
<!-- Node26&#45;&gt;Node32 -->
<g id="edge7" class="edge">
<title>Node26&#45;&gt;Node32</title>
<path fill="none" stroke="#191970" d="M86.9194,-334.7179C106.1705,-357.7544 139.1454,-393.3056 174.832,-414.5 180.5865,-417.9176 186.9004,-420.8776 193.3357,-423.4283"/>
<polygon fill="#191970" stroke="#191970" points="89.5142,-332.3623 80.4683,-326.8468 84.1003,-336.7996 89.5142,-332.3623"/>
</g>
<!-- Node33 -->
<g id="node8" class="node">
<title>Node33</title>
<g id="a_node8"><a xlink:href="a00327.html#ad75f2ed511a4eae172f9f2acd73f2de9" target="_top" xlink:title="CO_Security_DB\\get\l_all_login_objects">
<polygon fill="#ffffff" stroke="#000000" points="194.0142,-376.5 194.0142,-404.5 302.8315,-404.5 302.8315,-376.5 194.0142,-376.5"/>
<text text-anchor="start" x="202.0142" y="-392.5" font-family="Helvetica,sans-Serif" font-size="10.00" fill="#000000">CO_Security_DB\get</text>
<text text-anchor="middle" x="248.4229" y="-382.5" font-family="Helvetica,sans-Serif" font-size="10.00" fill="#000000">_all_login_objects</text>
</a>
</g>
</g>
<!-- Node26&#45;&gt;Node33 -->
<g id="edge8" class="edge">
<title>Node26&#45;&gt;Node33</title>
<path fill="none" stroke="#191970" d="M102.4216,-331.66C122.8449,-343.0232 149.8509,-357.1757 174.832,-367.5 182.6256,-370.721 191.0401,-373.7495 199.2979,-376.4853"/>
<polygon fill="#191970" stroke="#191970" points="103.9636,-328.5117 93.532,-326.6591 100.5315,-334.6126 103.9636,-328.5117"/>
</g>
<!-- Node34 -->
<g id="node9" class="node">
<title>Node34</title>
<g id="a_node9"><a xlink:href="a00327.html#af39966b2bf3f43bc640b013ec5a472be" target="_top" xlink:title="CO_Security_DB\\get\l_all_login_objects_with\l_access">
<polygon fill="#ffffff" stroke="#000000" points="188.9995,-319.5 188.9995,-357.5 307.8462,-357.5 307.8462,-319.5 188.9995,-319.5"/>
<text text-anchor="start" x="196.9995" y="-345.5" font-family="Helvetica,sans-Serif" font-size="10.00" fill="#000000">CO_Security_DB\get</text>
<text text-anchor="start" x="196.9995" y="-335.5" font-family="Helvetica,sans-Serif" font-size="10.00" fill="#000000">_all_login_objects_with</text>
<text text-anchor="middle" x="248.4229" y="-325.5" font-family="Helvetica,sans-Serif" font-size="10.00" fill="#000000">_access</text>
</a>
</g>
</g>
<!-- Node26&#45;&gt;Node34 -->
<g id="edge9" class="edge">
<title>Node26&#45;&gt;Node34</title>
<path fill="none" stroke="#191970" d="M149.0405,-324.0651C162.4286,-326.0097 176.1152,-327.9976 188.8822,-329.852"/>
<polygon fill="#191970" stroke="#191970" points="149.2802,-320.5633 138.8809,-322.5895 148.274,-327.4906 149.2802,-320.5633"/>
</g>
<!-- Node35 -->
<g id="node10" class="node">
<title>Node35</title>
<g id="a_node10"><a xlink:href="a00307.html#a6ccca3e1b18f58a3d4a4ad6018f067b1" target="_top" xlink:title="A_CO_DB\\get_all_readable\l_records">
<polygon fill="#ffffff" stroke="#000000" points="178.7163,-272.5 178.7163,-300.5 318.1294,-300.5 318.1294,-272.5 178.7163,-272.5"/>
<text text-anchor="start" x="186.7163" y="-288.5" font-family="Helvetica,sans-Serif" font-size="10.00" fill="#000000">A_CO_DB\get_all_readable</text>
<text text-anchor="middle" x="248.4229" y="-278.5" font-family="Helvetica,sans-Serif" font-size="10.00" fill="#000000">_records</text>
</a>
</g>
</g>
<!-- Node26&#45;&gt;Node35 -->
<g id="edge10" class="edge">
<title>Node26&#45;&gt;Node35</title>
<path fill="none" stroke="#191970" d="M148.7781,-300.973C158.7505,-299.5245 168.8931,-298.0514 178.7021,-296.6267"/>
<polygon fill="#191970" stroke="#191970" points="148.274,-297.5094 138.8809,-302.4105 149.2802,-304.4367 148.274,-297.5094"/>
</g>
<!-- Node36 -->
<g id="node11" class="node">
<title>Node36</title>
<g id="a_node11"><a xlink:href="a00307.html#a2b39eabcd72a9d79267e51a5f2b16648" target="_top" xlink:title="A_CO_DB\\get_all_writeable\l_records">
<polygon fill="#ffffff" stroke="#000000" points="178.167,-225.5 178.167,-253.5 318.6787,-253.5 318.6787,-225.5 178.167,-225.5"/>
<text text-anchor="start" x="186.167" y="-241.5" font-family="Helvetica,sans-Serif" font-size="10.00" fill="#000000">A_CO_DB\get_all_writeable</text>
<text text-anchor="middle" x="248.4229" y="-231.5" font-family="Helvetica,sans-Serif" font-size="10.00" fill="#000000">_records</text>
</a>
</g>
</g>
<!-- Node26&#45;&gt;Node36 -->
<g id="edge11" class="edge">
<title>Node26&#45;&gt;Node36</title>
<path fill="none" stroke="#191970" d="M106.2895,-294.0368C126.3131,-284.3487 151.6507,-272.6297 174.832,-263.5 183.7096,-260.0037 193.3235,-256.6006 202.5824,-253.5081"/>
<polygon fill="#191970" stroke="#191970" points="104.6583,-290.9382 97.2055,-298.4685 107.7276,-297.2294 104.6583,-290.9382"/>
</g>
<!-- Node37 -->
<g id="node12" class="node">
<title>Node37</title>
<g id="a_node12"><a xlink:href="a00307.html#aaca8bf49257aa5ade3c354ef76119fa4" target="_top" xlink:title="A_CO_DB\\get_multiple\l_records_by_id">
<polygon fill="#ffffff" stroke="#000000" points="188.731,-178.5 188.731,-206.5 308.1147,-206.5 308.1147,-178.5 188.731,-178.5"/>
<text text-anchor="start" x="196.731" y="-194.5" font-family="Helvetica,sans-Serif" font-size="10.00" fill="#000000">A_CO_DB\get_multiple</text>
<text text-anchor="middle" x="248.4229" y="-184.5" font-family="Helvetica,sans-Serif" font-size="10.00" fill="#000000">_records_by_id</text>
</a>
</g>
</g>
<!-- Node26&#45;&gt;Node37 -->
<g id="edge12" class="edge">
<title>Node26&#45;&gt;Node37</title>
<path fill="none" stroke="#191970" d="M88.0484,-290.4025C107.6027,-268.5115 140.2594,-235.4505 174.832,-215.5 180.7448,-212.0879 187.2225,-209.1225 193.8052,-206.5613"/>
<polygon fill="#191970" stroke="#191970" points="85.1779,-288.3676 81.2188,-298.1949 90.4422,-292.9814 85.1779,-288.3676"/>
</g>
<!-- Node39 -->
<g id="node14" class="node">
<title>Node39</title>
<g id="a_node14"><a xlink:href="a00327.html#af7f9180938518c8325b3d4ba52112e02" target="_top" xlink:title="CO_Security_DB\\get\l_multiple_records_by\l_login_id">
<polygon fill="#ffffff" stroke="#000000" points="192.8984,-121.5 192.8984,-159.5 303.9473,-159.5 303.9473,-121.5 192.8984,-121.5"/>
<text text-anchor="start" x="200.8984" y="-147.5" font-family="Helvetica,sans-Serif" font-size="10.00" fill="#000000">CO_Security_DB\get</text>
<text text-anchor="start" x="200.8984" y="-137.5" font-family="Helvetica,sans-Serif" font-size="10.00" fill="#000000">_multiple_records_by</text>
<text text-anchor="middle" x="248.4229" y="-127.5" font-family="Helvetica,sans-Serif" font-size="10.00" fill="#000000">_login_id</text>
</a>
</g>
</g>
<!-- Node26&#45;&gt;Node39 -->
<g id="edge14" class="edge">
<title>Node26&#45;&gt;Node39</title>
<path fill="none" stroke="#191970" d="M80.9552,-289.1708C97.6263,-257.6762 131.2849,-201.6888 174.832,-168.5 180.2681,-164.357 186.388,-160.7642 192.7171,-157.6648"/>
<polygon fill="#191970" stroke="#191970" points="77.819,-287.616 76.3347,-298.1063 84.0369,-290.8313 77.819,-287.616"/>
</g>
<!-- Node41 -->
<g id="node16" class="node">
<title>Node41</title>
<g id="a_node16"><a xlink:href="a00307.html#af62a0d273b69bdf1f5012f88e619cec7" target="_top" xlink:title="A_CO_DB\\get_single\l_raw_row_by_id">
<polygon fill="#ffffff" stroke="#000000" points="192.896,-74.5 192.896,-102.5 303.9497,-102.5 303.9497,-74.5 192.896,-74.5"/>
<text text-anchor="start" x="200.896" y="-90.5" font-family="Helvetica,sans-Serif" font-size="10.00" fill="#000000">A_CO_DB\get_single</text>
<text text-anchor="middle" x="248.4229" y="-80.5" font-family="Helvetica,sans-Serif" font-size="10.00" fill="#000000">_raw_row_by_id</text>
</a>
</g>
</g>
<!-- Node26&#45;&gt;Node41 -->
<g id="edge16" class="edge">
<title>Node26&#45;&gt;Node41</title>
<path fill="none" stroke="#191970" d="M75.4531,-288.5437C87.2815,-246.4941 117.4967,-159.3386 174.832,-111.5 180.1765,-107.0407 186.3862,-103.444 192.889,-100.5435"/>
<polygon fill="#191970" stroke="#191970" points="72.0078,-287.8769 72.7764,-298.4438 78.7652,-289.7039 72.0078,-287.8769"/>
</g>
<!-- Node42 -->
<g id="node17" class="node">
<title>Node42</title>
<g id="a_node17"><a xlink:href="a00307.html#afacdcd578ddc750ca33d2418b54ab6b9" target="_top" xlink:title="A_CO_DB\\lock_record">
<polygon fill="#ffffff" stroke="#000000" points="189.8467,-37.5 189.8467,-55.5 306.999,-55.5 306.999,-37.5 189.8467,-37.5"/>
<text text-anchor="middle" x="248.4229" y="-43.5" font-family="Helvetica,sans-Serif" font-size="10.00" fill="#000000">A_CO_DB\lock_record</text>
</a>
</g>
</g>
<!-- Node26&#45;&gt;Node42 -->
<g id="edge17" class="edge">
<title>Node26&#45;&gt;Node42</title>
<path fill="none" stroke="#191970" d="M72.485,-288.2822C80.1279,-238.4379 104.734,-124.0693 174.832,-64.5 179.242,-60.7524 184.31,-57.7613 189.6795,-55.3774"/>
<polygon fill="#191970" stroke="#191970" points="68.9844,-288.0371 71.0296,-298.4326 75.9135,-289.0306 68.9844,-288.0371"/>
</g>
<!-- Node43 -->
<g id="node18" class="node">
<title>Node43</title>
<g id="a_node18"><a xlink:href="a00307.html#acac7eadbd231d714f3eed150eec35838" target="_top" xlink:title="A_CO_DB\\write_record">
<polygon fill="#ffffff" stroke="#000000" points="188.1816,-.5 188.1816,-18.5 308.6641,-18.5 308.6641,-.5 188.1816,-.5"/>
<text text-anchor="middle" x="248.4229" y="-6.5" font-family="Helvetica,sans-Serif" font-size="10.00" fill="#000000">A_CO_DB\write_record</text>
</a>
</g>
</g>
<!-- Node26&#45;&gt;Node43 -->
<g id="edge18" class="edge">
<title>Node26&#45;&gt;Node43</title>
<path fill="none" stroke="#191970" d="M70.987,-288.1926C75.9034,-233.0797 95.8162,-97.9575 174.832,-27.5 178.857,-23.911 183.4802,-21.0099 188.407,-18.6685"/>
<polygon fill="#191970" stroke="#191970" points="67.4794,-288.1493 70.17,-298.3968 74.457,-288.7081 67.4794,-288.1493"/>
</g>
<!-- Node28 -->
<g id="node3" class="node">
<title>Node28</title>
<g id="a_node3"><a xlink:href="a00315.html#a303048d406814c066d27fda70de4ff02" target="_top" xlink:title="CO_Main_Data_DB\\generic\l_search">
<polygon fill="#ffffff" stroke="#000000" points="531.7666,-575.5 531.7666,-603.5 671.7168,-603.5 671.7168,-575.5 531.7666,-575.5"/>
<text text-anchor="start" x="539.7666" y="-591.5" font-family="Helvetica,sans-Serif" font-size="10.00" fill="#000000">CO_Main_Data_DB\generic</text>
<text text-anchor="middle" x="601.7417" y="-581.5" font-family="Helvetica,sans-Serif" font-size="10.00" fill="#000000">_search</text>
</a>
</g>
</g>
<!-- Node27&#45;&gt;Node28 -->
<g id="edge2" class="edge">
<title>Node27&#45;&gt;Node28</title>
<path fill="none" stroke="#191970" d="M504.2109,-589.5C513.3368,-589.5 522.6116,-589.5 531.6304,-589.5"/>
<polygon fill="#191970" stroke="#191970" points="503.9923,-586.0001 493.9923,-589.5 503.9922,-593.0001 503.9923,-586.0001"/>
</g>
<!-- Node29&#45;&gt;Node27 -->
<g id="edge4" class="edge">
<title>Node29&#45;&gt;Node27</title>
<path fill="none" stroke="#191970" d="M332.0594,-578.3414C341.3375,-579.4331 350.6965,-580.5344 359.7332,-581.5977"/>
<polygon fill="#191970" stroke="#191970" points="332.3832,-574.8554 322.0427,-577.1627 331.5651,-581.8075 332.3832,-574.8554"/>
</g>
<!-- Node38 -->
<g id="node13" class="node">
<title>Node38</title>
<g id="a_node13"><a xlink:href="a00307.html#a631d8d027d72c940a7cec689cbb4e568" target="_top" xlink:title="A_CO_DB\\get_single\l_record_by_id">
<polygon fill="#ffffff" stroke="#000000" points="371.3633,-178.5 371.3633,-206.5 482.417,-206.5 482.417,-178.5 371.3633,-178.5"/>
<text text-anchor="start" x="379.3633" y="-194.5" font-family="Helvetica,sans-Serif" font-size="10.00" fill="#000000">A_CO_DB\get_single</text>
<text text-anchor="middle" x="426.8901" y="-184.5" font-family="Helvetica,sans-Serif" font-size="10.00" fill="#000000">_record_by_id</text>
</a>
</g>
</g>
<!-- Node37&#45;&gt;Node38 -->
<g id="edge13" class="edge">
<title>Node37&#45;&gt;Node38</title>
<path fill="none" stroke="#191970" d="M318.5273,-192.5C336.0586,-192.5 354.6236,-192.5 371.3402,-192.5"/>
<polygon fill="#191970" stroke="#191970" points="318.3464,-189.0001 308.3463,-192.5 318.3463,-196.0001 318.3464,-189.0001"/>
</g>
<!-- Node40 -->
<g id="node15" class="node">
<title>Node40</title>
<g id="a_node15"><a xlink:href="a00327.html#ab01692597b11329b0d63096b10e1f473" target="_top" xlink:title="CO_Security_DB\\get\l_single_record_by_login_id">
<polygon fill="#ffffff" stroke="#000000" points="358.0137,-126.5 358.0137,-154.5 495.7666,-154.5 495.7666,-126.5 358.0137,-126.5"/>
<text text-anchor="start" x="366.0137" y="-142.5" font-family="Helvetica,sans-Serif" font-size="10.00" fill="#000000">CO_Security_DB\get</text>
<text text-anchor="middle" x="426.8901" y="-132.5" font-family="Helvetica,sans-Serif" font-size="10.00" fill="#000000">_single_record_by_login_id</text>
</a>
</g>
</g>
<!-- Node39&#45;&gt;Node40 -->
<g id="edge15" class="edge">
<title>Node39&#45;&gt;Node40</title>
<path fill="none" stroke="#191970" d="M314.5362,-140.5C328.6875,-140.5 343.6721,-140.5 357.9279,-140.5"/>
<polygon fill="#191970" stroke="#191970" points="314.4014,-137.0001 304.4014,-140.5 314.4013,-144.0001 314.4014,-137.0001"/>
</g>
</g>
</svg>
        <g id="navigator" transform="translate(0 0)" fill="#404254">
                <rect fill="#f2f5e9" fill-opacity="0.5" stroke="#606060" stroke-width=".5" x="0" y="0" width="60" height="60"/>
                <use id="zoomplus" xlink:href="#zoomPlus" x="17" y="9" onmousedown="handleZoom(evt,'in')"/>
                <use id="zoomminus" xlink:href="#zoomMin" x="42" y="9" onmousedown="handleZoom(evt,'out')"/>
                <use id="reset" xlink:href="#resetDef" x="30" y="36" onmousedown="handleReset()"/>
                <g id="arrowUp" xlink:href="#dirArrow" transform="translate(30 24)" onmousedown="handlePan(0,-1)">
                  <use xlink:href="#rim" fill="#404040">
                        <set attributeName="fill" to="#808080" begin="arrowUp.mouseover" end="arrowUp.mouseout"/>
                  </use>
                  <path fill="none" stroke="white" stroke-width="1.5" d="M0,-3.0v7 M-2.5,-0.5L0,-3.0L2.5,-0.5"/>
                </g>
                <g id="arrowRight" xlink:href="#dirArrow" transform="rotate(90) translate(36 -43)" onmousedown="handlePan(1,0)">
                  <use xlink:href="#rim" fill="#404040">
                        <set attributeName="fill" to="#808080" begin="arrowRight.mouseover" end="arrowRight.mouseout"/>
                  </use>
                  <path fill="none" stroke="white" stroke-width="1.5" d="M0,-3.0v7 M-2.5,-0.5L0,-3.0L2.5,-0.5"/>
                </g>
                <g id="arrowDown" xlink:href="#dirArrow" transform="rotate(180) translate(-30 -48)" onmousedown="handlePan(0,1)">
                  <use xlink:href="#rim" fill="#404040">
                        <set attributeName="fill" to="#808080" begin="arrowDown.mouseover" end="arrowDown.mouseout"/>
                  </use>
                  <path fill="none" stroke="white" stroke-width="1.5" d="M0,-3.0v7 M-2.5,-0.5L0,-3.0L2.5,-0.5"/>
                </g>
                <g id="arrowLeft" xlink:href="#dirArrow" transform="rotate(270) translate(-36 17)" onmousedown="handlePan(-1,0)">
                  <use xlink:href="#rim" fill="#404040">
                        <set attributeName="fill" to="#808080" begin="arrowLeft.mouseover" end="arrowLeft.mouseout"/>
                  </use>
                  <path fill="none" stroke="white" stroke-width="1.5" d="M0,-3.0v7 M-2.5,-0.5L0,-3.0L2.5,-0.5"/>
                </g>
        </g>
        <svg viewBox="0 0 15 15" width="100%" height="30px" preserveAspectRatio="xMaxYMin meet">
         <g id="arrow_out" transform="scale(0.3 0.3)">
          <a xlink:href="a00307_ad2356dbed1b38898d8c17bcd8eb405ef_icgraph_org.svg" target="_base">
           <rect id="button" ry="5" rx="5" y="6" x="6" height="38" width="38"
                fill="#f2f5e9" fill-opacity="0.5" stroke="#606060" stroke-width="1.0"/>
           <path id="arrow"
             d="M 11.500037,31.436501 C 11.940474,20.09759 22.043105,11.32322 32.158766,21.979434 L 37.068811,17.246167 C 37.068811,17.246167 37.088388,32 37.088388,32 L 22.160133,31.978069 C 22.160133,31.978069 26.997745,27.140456 26.997745,27.140456 C 18.528582,18.264221 13.291696,25.230495 11.500037,31.436501 z"
             style="fill:#404040;"/>
          </a>
         </g>
        </svg>
</svg>
