<?xml version="1.0" encoding="UTF-8" standalone="no"?>
<!DOCTYPE svg PUBLIC "-//W3C//DTD SVG 1.1//EN"
 "http://www.w3.org/Graphics/SVG/1.1/DTD/svg11.dtd">
<!-- Generated by graphviz version 2.40.1 (20161225.0304)
 -->
<!-- Title: CO_Main_Data_DB\_parse_tags Pages: 1 -->
<svg width="690pt" height="37pt"
 viewBox="0.00 0.00 689.71 37.00" xmlns="http://www.w3.org/2000/svg" xmlns:xlink="http://www.w3.org/1999/xlink">
<g id="graph0" class="graph" transform="scale(1 1) rotate(0) translate(4 33)">
<title>CO_Main_Data_DB\_parse_tags</title>
<polygon fill="#ffffff" stroke="transparent" points="-4,4 -4,-33 685.7119,-33 685.7119,4 -4,4"/>
<!-- Node38 -->
<g id="node1" class="node">
<title>Node38</title>
<polygon fill="#bfbfbf" stroke="#000000" points="0,-5.5 0,-23.5 162.1914,-23.5 162.1914,-5.5 0,-5.5"/>
<text text-anchor="middle" x="81.0957" y="-11.5" font-family="Helvetica,sans-Serif" font-size="10.00" fill="#000000">CO_Main_Data_DB\_parse_tags</text>
</g>
<!-- Node39 -->
<g id="node2" class="node">
<title>Node39</title>
<g id="a_node2"><a xlink:href="a00315.html#a64a118564e4da8a3b0220ee5cf088e9b" target="_top" xlink:title="CO_Main_Data_DB\\_parse\l_parameters">
<polygon fill="#ffffff" stroke="#000000" points="198.1914,-.5 198.1914,-28.5 335.9199,-28.5 335.9199,-.5 198.1914,-.5"/>
<text text-anchor="start" x="206.1914" y="-16.5" font-family="Helvetica,sans-Serif" font-size="10.00" fill="#000000">CO_Main_Data_DB\_parse</text>
<text text-anchor="middle" x="267.0557" y="-6.5" font-family="Helvetica,sans-Serif" font-size="10.00" fill="#000000">_parameters</text>
</a>
</g>
</g>
<!-- Node38&#45;&gt;Node39 -->
<g id="edge1" class="edge">
<title>Node38&#45;&gt;Node39</title>
<path fill="none" stroke="#191970" d="M172.4942,-14.5C181.1239,-14.5 189.7718,-14.5 198.1403,-14.5"/>
<polygon fill="#191970" stroke="#191970" points="172.39,-11.0001 162.3899,-14.5 172.3899,-18.0001 172.39,-11.0001"/>
</g>
<!-- Node40 -->
<g id="node3" class="node">
<title>Node40</title>
<g id="a_node3"><a xlink:href="a00315.html#aa97e6ad521aed4c2cbe03e83017af0b7" target="_top" xlink:title="CO_Main_Data_DB\\_build\l_sql_query">
<polygon fill="#ffffff" stroke="#000000" points="371.9199,-.5 371.9199,-28.5 505.7617,-28.5 505.7617,-.5 371.9199,-.5"/>
<text text-anchor="start" x="379.9199" y="-16.5" font-family="Helvetica,sans-Serif" font-size="10.00" fill="#000000">CO_Main_Data_DB\_build</text>
<text text-anchor="middle" x="438.8408" y="-6.5" font-family="Helvetica,sans-Serif" font-size="10.00" fill="#000000">_sql_query</text>
</a>
</g>
</g>
<!-- Node39&#45;&gt;Node40 -->
<g id="edge2" class="edge">
<title>Node39&#45;&gt;Node40</title>
<path fill="none" stroke="#191970" d="M346.0255,-14.5C354.6739,-14.5 363.4165,-14.5 371.8996,-14.5"/>
<polygon fill="#191970" stroke="#191970" points="345.9375,-11.0001 335.9374,-14.5 345.9374,-18.0001 345.9375,-11.0001"/>
</g>
<!-- Node41 -->
<g id="node4" class="node">
<title>Node41</title>
<g id="a_node4"><a xlink:href="a00315.html#a303048d406814c066d27fda70de4ff02" target="_top" xlink:title="CO_Main_Data_DB\\generic\l_search">
<polygon fill="#ffffff" stroke="#000000" points="541.7617,-.5 541.7617,-28.5 681.7119,-28.5 681.7119,-.5 541.7617,-.5"/>
<text text-anchor="start" x="549.7617" y="-16.5" font-family="Helvetica,sans-Serif" font-size="10.00" fill="#000000">CO_Main_Data_DB\generic</text>
<text text-anchor="middle" x="611.7368" y="-6.5" font-family="Helvetica,sans-Serif" font-size="10.00" fill="#000000">_search</text>
</a>
</g>
</g>
<!-- Node40&#45;&gt;Node41 -->
<g id="edge3" class="edge">
<title>Node40&#45;&gt;Node41</title>
<path fill="none" stroke="#191970" d="M516.3961,-14.5C524.8342,-14.5 533.3865,-14.5 541.7269,-14.5"/>
<polygon fill="#191970" stroke="#191970" points="516.182,-11.0001 506.182,-14.5 516.182,-18.0001 516.182,-11.0001"/>
</g>
</g>
</svg>
