<?xml version="1.0" encoding="UTF-8" standalone="no"?>
<!DOCTYPE svg PUBLIC "-//W3C//DTD SVG 1.1//EN"
 "http://www.w3.org/Graphics/SVG/1.1/DTD/svg11.dtd">
<!-- Generated by graphviz version 2.47.1 (20210417.1919)
 -->
<!-- Title: CO_Security_Login\is_login_valid Pages: 1 -->
<svg width="417pt" height="137pt"
 viewBox="0.00 0.00 417.00 137.00" xmlns="http://www.w3.org/2000/svg" xmlns:xlink="http://www.w3.org/1999/xlink">
<g id="graph0" class="graph" transform="scale(1 1) rotate(0) translate(4 133)">
<title>CO_Security_Login\is_login_valid</title>
<polygon fill="white" stroke="transparent" points="-4,4 -4,-133 413,-133 413,4 -4,4"/>
<!-- Node1 -->
<g id="node1" class="node">
<title>Node1</title>
<g id="a_node1"><a xlink:title=" ">
<polygon fill="#bfbfbf" stroke="black" points="0,-49.5 0,-79.5 112,-79.5 112,-49.5 0,-49.5"/>
<text text-anchor="start" x="8" y="-67.5" font-family="Helvetica,sans-Serif" font-size="10.00">CO_Security_Login\is</text>
<text text-anchor="middle" x="56" y="-56.5" font-family="Helvetica,sans-Serif" font-size="10.00">_login_valid</text>
</a>
</g>
</g>
<!-- Node2 -->
<g id="node2" class="node">
<title>Node2</title>
<g id="a_node2"><a xlink:href="a00340.html#a5f57991e29b7602070594328676cfbb8" target="_top" xlink:title=" ">
<polygon fill="white" stroke="black" points="155,-98.5 155,-128.5 259,-128.5 259,-98.5 155,-98.5"/>
<text text-anchor="start" x="163" y="-116.5" font-family="Helvetica,sans-Serif" font-size="10.00">CO_Security_Login\</text>
<text text-anchor="middle" x="207" y="-105.5" font-family="Helvetica,sans-Serif" font-size="10.00">_set_up_api_key</text>
</a>
</g>
</g>
<!-- Node1&#45;&gt;Node2 -->
<g id="edge1" class="edge">
<title>Node1&#45;&gt;Node2</title>
<path fill="none" stroke="midnightblue" d="M102.92,-79.6C118,-84.56 134.93,-90.13 150.64,-95.29"/>
<polygon fill="midnightblue" stroke="midnightblue" points="149.64,-98.65 160.23,-98.45 151.82,-92 149.64,-98.65"/>
</g>
<!-- Node4 -->
<g id="node4" class="node">
<title>Node4</title>
<g id="a_node4"><a xlink:href="a00340.html#aecb158735e3a185c0857c44bf60f45f0" target="_top" xlink:title=" ">
<polygon fill="white" stroke="black" points="148,-49.5 148,-79.5 266,-79.5 266,-49.5 148,-49.5"/>
<text text-anchor="start" x="156" y="-67.5" font-family="Helvetica,sans-Serif" font-size="10.00">CO_Security_Login\get</text>
<text text-anchor="middle" x="207" y="-56.5" font-family="Helvetica,sans-Serif" font-size="10.00">_api_key</text>
</a>
</g>
</g>
<!-- Node1&#45;&gt;Node4 -->
<g id="edge3" class="edge">
<title>Node1&#45;&gt;Node4</title>
<path fill="none" stroke="midnightblue" d="M112.06,-64.5C120.46,-64.5 129.22,-64.5 137.86,-64.5"/>
<polygon fill="midnightblue" stroke="midnightblue" points="137.92,-68 147.92,-64.5 137.92,-61 137.92,-68"/>
</g>
<!-- Node6 -->
<g id="node6" class="node">
<title>Node6</title>
<g id="a_node6"><a xlink:href="a00340.html#a615bc63ad75ff08982eeb0c1a2da7243" target="_top" xlink:title=" ">
<polygon fill="white" stroke="black" points="148,-0.5 148,-30.5 266,-30.5 266,-0.5 148,-0.5"/>
<text text-anchor="start" x="156" y="-18.5" font-family="Helvetica,sans-Serif" font-size="10.00">CO_Security_Login\get</text>
<text text-anchor="middle" x="207" y="-7.5" font-family="Helvetica,sans-Serif" font-size="10.00">_crypted_password</text>
</a>
</g>
</g>
<!-- Node1&#45;&gt;Node6 -->
<g id="edge5" class="edge">
<title>Node1&#45;&gt;Node6</title>
<path fill="none" stroke="midnightblue" d="M102.92,-49.4C118,-44.44 134.93,-38.87 150.64,-33.71"/>
<polygon fill="midnightblue" stroke="midnightblue" points="151.82,-37 160.23,-30.55 149.64,-30.35 151.82,-37"/>
</g>
<!-- Node3 -->
<g id="node3" class="node">
<title>Node3</title>
<g id="a_node3"><a xlink:href="a00340.html#af0f76c1ede1e466e91739fada248c0f2" target="_top" xlink:title=" ">
<polygon fill="white" stroke="black" points="303.5,-98.5 303.5,-128.5 407.5,-128.5 407.5,-98.5 303.5,-98.5"/>
<text text-anchor="start" x="311.5" y="-116.5" font-family="Helvetica,sans-Serif" font-size="10.00">CO_Security_Login\</text>
<text text-anchor="middle" x="355.5" y="-105.5" font-family="Helvetica,sans-Serif" font-size="10.00">_random_str</text>
</a>
</g>
</g>
<!-- Node2&#45;&gt;Node3 -->
<g id="edge2" class="edge">
<title>Node2&#45;&gt;Node3</title>
<path fill="none" stroke="midnightblue" d="M259.24,-113.5C270.1,-113.5 281.68,-113.5 292.89,-113.5"/>
<polygon fill="midnightblue" stroke="midnightblue" points="293.04,-117 303.04,-113.5 293.04,-110 293.04,-117"/>
</g>
<!-- Node5 -->
<g id="node5" class="node">
<title>Node5</title>
<g id="a_node5"><a xlink:href="a00340.html#a03304936652c2c606c411c7c6a0f0c7f" target="_top" xlink:title=" ">
<polygon fill="white" stroke="black" points="302,-49.5 302,-79.5 409,-79.5 409,-49.5 302,-49.5"/>
<text text-anchor="start" x="310" y="-67.5" font-family="Helvetica,sans-Serif" font-size="10.00">CO_Security_Login\i</text>
<text text-anchor="middle" x="355.5" y="-56.5" font-family="Helvetica,sans-Serif" font-size="10.00">_am_a_god</text>
</a>
</g>
</g>
<!-- Node4&#45;&gt;Node5 -->
<g id="edge4" class="edge">
<title>Node4&#45;&gt;Node5</title>
<path fill="none" stroke="midnightblue" d="M266.32,-64.5C274.6,-64.5 283.15,-64.5 291.52,-64.5"/>
<polygon fill="midnightblue" stroke="midnightblue" points="291.6,-68 301.6,-64.5 291.6,-61 291.6,-68"/>
</g>
</g>
</svg>
