<?xml version="1.0" encoding="UTF-8" standalone="no"?>
<!DOCTYPE svg PUBLIC "-//W3C//DTD SVG 1.1//EN"
 "http://www.w3.org/Graphics/SVG/1.1/DTD/svg11.dtd">
<!-- Generated by graphviz version 2.40.1 (20161225.0304)
 -->
<!-- Title: CO_Main_Data_DB\generic_search Pages: 1 -->
<!--zoomable 234 -->
<svg id="main" version="1.1" xmlns="http://www.w3.org/2000/svg" xmlns:xlink="http://www.w3.org/1999/xlink" xml:space="preserve" onload="init(evt)">
<style type="text/css"><![CDATA[
.edge:hover path { stroke: red; }
.edge:hover polygon { stroke: red; fill: red; }
]]></style>
<script type="text/javascript"><![CDATA[
var edges = document.getElementsByTagName('g');
if (edges && edges.length) {
  for (var i=0;i<edges.length;i++) {
    if (edges[i].id.substr(0,4)=='edge') {
      edges[i].setAttribute('class','edge');
    }
  }
}
]]></script>
        <defs>
                <circle id="rim" cx="0" cy="0" r="7"/>
                <circle id="rim2" cx="0" cy="0" r="3.5"/>
                <g id="zoomPlus">
                        <use xlink:href="#rim" fill="#404040">
                                <set attributeName="fill" to="#808080" begin="zoomplus.mouseover" end="zoomplus.mouseout"/>
                        </use>
                        <path d="M-4,0h8M0,-4v8" fill="none" stroke="white" stroke-width="1.5" pointer-events="none"/>
                </g>
                <g id="zoomMin">
                        <use xlink:href="#rim" fill="#404040">
                                <set attributeName="fill" to="#808080" begin="zoomminus.mouseover" end="zoomminus.mouseout"/>
                        </use>
                        <path d="M-4,0h8" fill="none" stroke="white" stroke-width="1.5" pointer-events="none"/>
                </g>
                <g id="dirArrow">
                        <path fill="none" stroke="white" stroke-width="1.5" d="M0,-3.0v7 M-2.5,-0.5L0,-3.0L2.5,-0.5"/>
                </g>
               <g id="resetDef">
                       <use xlink:href="#rim2" fill="#404040">
                               <set attributeName="fill" to="#808080" begin="reset.mouseover" end="reset.mouseout"/>
                       </use>
               </g>
        </defs>

<script type="text/javascript">
var viewWidth = 861;
var viewHeight = 234;
var sectionId = 'dynsection-11';
</script>
<script xlink:href="svgpan.js"/>
<svg id="graph" class="graph">
<g id="viewport">
<title>CO_Main_Data_DB\generic_search</title>
<polygon fill="#ffffff" stroke="transparent" points="-4,4 -4,-230 856.6572,-230 856.6572,4 -4,4"/>
<!-- Node1 -->
<g id="node1" class="node">
<title>Node1</title>
<g id="a_node1"><a xlink:title=" ">
<polygon fill="#bfbfbf" stroke="#000000" points="0,-63.5 0,-91.5 139.9502,-91.5 139.9502,-63.5 0,-63.5"/>
<text text-anchor="start" x="8" y="-79.5" font-family="Helvetica,sans-Serif" font-size="10.00" fill="#000000">CO_Main_Data_DB\generic</text>
<text text-anchor="middle" x="69.9751" y="-69.5" font-family="Helvetica,sans-Serif" font-size="10.00" fill="#000000">_search</text>
</a>
</g>
</g>
<!-- Node2 -->
<g id="node2" class="node">
<title>Node2</title>
<g id="a_node2"><a xlink:href="a00312.html#aa97e6ad521aed4c2cbe03e83017af0b7" target="_top" xlink:title=" ">
<polygon fill="#ffffff" stroke="#000000" points="175.9502,-131.5 175.9502,-159.5 309.792,-159.5 309.792,-131.5 175.9502,-131.5"/>
<text text-anchor="start" x="183.9502" y="-147.5" font-family="Helvetica,sans-Serif" font-size="10.00" fill="#000000">CO_Main_Data_DB\_build</text>
<text text-anchor="middle" x="242.8711" y="-137.5" font-family="Helvetica,sans-Serif" font-size="10.00" fill="#000000">_sql_query</text>
</a>
</g>
</g>
<!-- Node1&#45;&gt;Node2 -->
<g id="edge1" class="edge">
<title>Node1&#45;&gt;Node2</title>
<path fill="none" stroke="#191970" d="M101.7349,-91.6787C122.663,-100.8496 150.7559,-112.8352 175.9502,-122.5 180.7731,-124.3501 185.817,-126.2129 190.8792,-128.0344"/>
<polygon fill="#191970" stroke="#191970" points="189.9887,-131.432 200.5834,-131.472 192.326,-124.8337 189.9887,-131.432"/>
</g>
<!-- Node11 -->
<g id="node11" class="node">
<title>Node11</title>
<g id="a_node11"><a xlink:href="a00304.html#a523e2f40174a0bca0fc873d6286b3ae9" target="_top" xlink:title=" ">
<polygon fill="#ffffff" stroke="#000000" points="184.5659,-84.5 184.5659,-112.5 301.1763,-112.5 301.1763,-84.5 184.5659,-84.5"/>
<text text-anchor="start" x="192.5659" y="-100.5" font-family="Helvetica,sans-Serif" font-size="10.00" fill="#000000">A_CO_DB\_instantiate</text>
<text text-anchor="middle" x="242.8711" y="-90.5" font-family="Helvetica,sans-Serif" font-size="10.00" fill="#000000">_record</text>
</a>
</g>
</g>
<!-- Node1&#45;&gt;Node11 -->
<g id="edge11" class="edge">
<title>Node1&#45;&gt;Node11</title>
<path fill="none" stroke="#191970" d="M140.2985,-86.0415C151.5364,-87.4065 163.1512,-88.8172 174.3465,-90.177"/>
<polygon fill="#191970" stroke="#191970" points="174.138,-93.6773 184.4871,-91.4087 174.9821,-86.7284 174.138,-93.6773"/>
</g>
<!-- Node12 -->
<g id="node12" class="node">
<title>Node12</title>
<g id="a_node12"><a xlink:href="a00304.html#a2396849660aa4ff018ab7509a4badeb5" target="_top" xlink:title=" ">
<polygon fill="#ffffff" stroke="#000000" points="177.3394,-47.5 177.3394,-65.5 308.4028,-65.5 308.4028,-47.5 177.3394,-47.5"/>
<text text-anchor="middle" x="242.8711" y="-53.5" font-family="Helvetica,sans-Serif" font-size="10.00" fill="#000000">A_CO_DB\execute_query</text>
</a>
</g>
</g>
<!-- Node1&#45;&gt;Node12 -->
<g id="edge12" class="edge">
<title>Node1&#45;&gt;Node12</title>
<path fill="none" stroke="#191970" d="M140.2985,-68.9585C149.129,-67.8859 158.1922,-66.7851 167.1017,-65.703"/>
<polygon fill="#191970" stroke="#191970" points="167.57,-69.1719 177.075,-64.4916 166.7259,-62.223 167.57,-69.1719"/>
</g>
<!-- Node14 -->
<g id="node14" class="node">
<title>Node14</title>
<g id="a_node14"><a xlink:href="a00312.html#ae11526b802f2277322e001bc2d45094b" target="_top" xlink:title="Uses the Vincenty calculation to determine the distance (in Kilometers) between the two given lat/lon...">
<polygon fill="#ffffff" stroke="#000000" points="182.3442,-.5 182.3442,-28.5 303.3979,-28.5 303.3979,-.5 182.3442,-.5"/>
<text text-anchor="start" x="190.3442" y="-16.5" font-family="Helvetica,sans-Serif" font-size="10.00" fill="#000000">CO_Main_Data_DB\get</text>
<text text-anchor="middle" x="242.8711" y="-6.5" font-family="Helvetica,sans-Serif" font-size="10.00" fill="#000000">_accurate_distance</text>
</a>
</g>
</g>
<!-- Node1&#45;&gt;Node14 -->
<g id="edge14" class="edge">
<title>Node1&#45;&gt;Node14</title>
<path fill="none" stroke="#191970" d="M106.6588,-63.3456C127.0166,-55.5682 152.825,-45.8361 175.9502,-37.5 181.0787,-35.6513 186.4401,-33.7524 191.7994,-31.8763"/>
<polygon fill="#191970" stroke="#191970" points="193.0979,-35.1304 201.3933,-28.5397 190.7985,-28.5188 193.0979,-35.1304"/>
</g>
<!-- Node3 -->
<g id="node3" class="node">
<title>Node3</title>
<g id="a_node3"><a xlink:href="a00304.html#ad2356dbed1b38898d8c17bcd8eb405ef" target="_top" xlink:title=" ">
<polygon fill="#ffffff" stroke="#000000" points="540.6533,-174.5 540.6533,-202.5 679.4854,-202.5 679.4854,-174.5 540.6533,-174.5"/>
<text text-anchor="start" x="548.6533" y="-190.5" font-family="Helvetica,sans-Serif" font-size="10.00" fill="#000000">A_CO_DB\_create_security</text>
<text text-anchor="middle" x="610.0693" y="-180.5" font-family="Helvetica,sans-Serif" font-size="10.00" fill="#000000">_predicate</text>
</a>
</g>
</g>
<!-- Node2&#45;&gt;Node3 -->
<g id="edge2" class="edge">
<title>Node2&#45;&gt;Node3</title>
<path fill="none" stroke="#191970" d="M295.7149,-159.5025C311.7029,-163.2831 329.3749,-167.0115 345.792,-169.5 407.2971,-178.8228 477.5696,-183.598 530.1831,-186.0286"/>
<polygon fill="#191970" stroke="#191970" points="530.3173,-189.5379 540.4625,-186.4841 530.6273,-182.5448 530.3173,-189.5379"/>
</g>
<!-- Node6 -->
<g id="node6" class="node">
<title>Node6</title>
<g id="a_node6"><a xlink:href="a00312.html#a352444b4bfd455cb53a57137f3c44884" target="_top" xlink:title=" ">
<polygon fill="#ffffff" stroke="#000000" points="345.792,-131.5 345.792,-159.5 492.9736,-159.5 492.9736,-131.5 345.792,-131.5"/>
<text text-anchor="start" x="353.792" y="-147.5" font-family="Helvetica,sans-Serif" font-size="10.00" fill="#000000">CO_Main_Data_DB\_location</text>
<text text-anchor="middle" x="419.3828" y="-137.5" font-family="Helvetica,sans-Serif" font-size="10.00" fill="#000000">_predicate</text>
</a>
</g>
</g>
<!-- Node2&#45;&gt;Node6 -->
<g id="edge5" class="edge">
<title>Node2&#45;&gt;Node6</title>
<path fill="none" stroke="#191970" d="M309.8543,-145.5C318.266,-145.5 326.9519,-145.5 335.5808,-145.5"/>
<polygon fill="#191970" stroke="#191970" points="335.6645,-149.0001 345.6644,-145.5 335.6644,-142.0001 335.6645,-149.0001"/>
</g>
<!-- Node7 -->
<g id="node7" class="node">
<title>Node7</title>
<g id="a_node7"><a xlink:href="a00312.html#a64a118564e4da8a3b0220ee5cf088e9b" target="_top" xlink:title=" ">
<polygon fill="#ffffff" stroke="#000000" points="350.5186,-84.5 350.5186,-112.5 488.2471,-112.5 488.2471,-84.5 350.5186,-84.5"/>
<text text-anchor="start" x="358.5186" y="-100.5" font-family="Helvetica,sans-Serif" font-size="10.00" fill="#000000">CO_Main_Data_DB\_parse</text>
<text text-anchor="middle" x="419.3828" y="-90.5" font-family="Helvetica,sans-Serif" font-size="10.00" fill="#000000">_parameters</text>
</a>
</g>
</g>
<!-- Node2&#45;&gt;Node7 -->
<g id="edge7" class="edge">
<title>Node2&#45;&gt;Node7</title>
<path fill="none" stroke="#191970" d="M295.8304,-131.3985C315.029,-126.2864 336.8955,-120.464 356.8419,-115.1528"/>
<polygon fill="#191970" stroke="#191970" points="358.0025,-118.4658 366.7652,-112.5106 356.2013,-111.7015 358.0025,-118.4658"/>
</g>
<!-- Node4 -->
<g id="node4" class="node">
<title>Node4</title>
<g id="a_node4"><a xlink:href="a00304.html#a176b2c663fa7768e95e4fbe93281adc6" target="_top" xlink:title=" ">
<polygon fill="#ffffff" stroke="#000000" points="727.7144,-197.5 727.7144,-225.5 852.1079,-225.5 852.1079,-197.5 727.7144,-197.5"/>
<text text-anchor="start" x="735.7144" y="-213.5" font-family="Helvetica,sans-Serif" font-size="10.00" fill="#000000">A_CO_DB\_create_read</text>
<text text-anchor="middle" x="789.9111" y="-203.5" font-family="Helvetica,sans-Serif" font-size="10.00" fill="#000000">_security_predicate</text>
</a>
</g>
</g>
<!-- Node3&#45;&gt;Node4 -->
<g id="edge3" class="edge">
<title>Node3&#45;&gt;Node4</title>
<path fill="none" stroke="#191970" d="M679.6009,-197.3924C692.0798,-198.9883 705.1117,-200.655 717.6651,-202.2604"/>
<polygon fill="#191970" stroke="#191970" points="717.2472,-205.7354 727.6105,-203.5324 718.1353,-198.792 717.2472,-205.7354"/>
</g>
<!-- Node5 -->
<g id="node5" class="node">
<title>Node5</title>
<g id="a_node5"><a xlink:href="a00304.html#ad4bc3d416f085818935b32a814313202" target="_top" xlink:title=" ">
<polygon fill="#ffffff" stroke="#000000" points="727.165,-150.5 727.165,-178.5 852.6572,-178.5 852.6572,-150.5 727.165,-150.5"/>
<text text-anchor="start" x="735.165" y="-166.5" font-family="Helvetica,sans-Serif" font-size="10.00" fill="#000000">A_CO_DB\_create_write</text>
<text text-anchor="middle" x="789.9111" y="-156.5" font-family="Helvetica,sans-Serif" font-size="10.00" fill="#000000">_security_predicate</text>
</a>
</g>
</g>
<!-- Node3&#45;&gt;Node5 -->
<g id="edge4" class="edge">
<title>Node3&#45;&gt;Node5</title>
<path fill="none" stroke="#191970" d="M679.6009,-179.221C691.8018,-177.5928 704.5313,-175.894 716.8255,-174.2533"/>
<polygon fill="#191970" stroke="#191970" points="717.5798,-177.6838 727.029,-172.8917 716.6538,-170.7453 717.5798,-177.6838"/>
</g>
<!-- Node6&#45;&gt;Node3 -->
<g id="edge6" class="edge">
<title>Node6&#45;&gt;Node3</title>
<path fill="none" stroke="#191970" d="M481.5569,-159.5203C499.6136,-163.5921 519.4836,-168.0728 538.0888,-172.2683"/>
<polygon fill="#191970" stroke="#191970" points="537.4548,-175.7132 547.9798,-174.4987 538.9946,-168.8846 537.4548,-175.7132"/>
</g>
<!-- Node8 -->
<g id="node8" class="node">
<title>Node8</title>
<g id="a_node8"><a xlink:href="a00312.html#a884b5749acdbc87467741bc6610794e4" target="_top" xlink:title=" ">
<polygon fill="#ffffff" stroke="#000000" points="541.2051,-127.5 541.2051,-155.5 678.9336,-155.5 678.9336,-127.5 541.2051,-127.5"/>
<text text-anchor="start" x="549.2051" y="-143.5" font-family="Helvetica,sans-Serif" font-size="10.00" fill="#000000">CO_Main_Data_DB\_parse</text>
<text text-anchor="middle" x="610.0693" y="-133.5" font-family="Helvetica,sans-Serif" font-size="10.00" fill="#000000">_integer_parameter</text>
</a>
</g>
</g>
<!-- Node7&#45;&gt;Node8 -->
<g id="edge8" class="edge">
<title>Node7&#45;&gt;Node8</title>
<path fill="none" stroke="#191970" d="M481.5569,-112.5203C499.6136,-116.5921 519.4836,-121.0728 538.0888,-125.2683"/>
<polygon fill="#191970" stroke="#191970" points="537.4548,-128.7132 547.9798,-127.4987 538.9946,-121.8846 537.4548,-128.7132"/>
</g>
<!-- Node9 -->
<g id="node9" class="node">
<title>Node9</title>
<g id="a_node9"><a xlink:href="a00312.html#a46a9af2d7f6fc1388608022c6b84662e" target="_top" xlink:title=" ">
<polygon fill="#ffffff" stroke="#000000" points="541.2051,-80.5 541.2051,-108.5 678.9336,-108.5 678.9336,-80.5 541.2051,-80.5"/>
<text text-anchor="start" x="549.2051" y="-96.5" font-family="Helvetica,sans-Serif" font-size="10.00" fill="#000000">CO_Main_Data_DB\_parse</text>
<text text-anchor="middle" x="610.0693" y="-86.5" font-family="Helvetica,sans-Serif" font-size="10.00" fill="#000000">_string_parameter</text>
</a>
</g>
</g>
<!-- Node7&#45;&gt;Node9 -->
<g id="edge9" class="edge">
<title>Node7&#45;&gt;Node9</title>
<path fill="none" stroke="#191970" d="M488.4946,-97.0503C502.3031,-96.7606 516.9077,-96.4542 531.0212,-96.1582"/>
<polygon fill="#191970" stroke="#191970" points="531.2685,-99.6539 541.1929,-95.9448 531.1217,-92.6554 531.2685,-99.6539"/>
</g>
<!-- Node10 -->
<g id="node10" class="node">
<title>Node10</title>
<g id="a_node10"><a xlink:href="a00312.html#a49c326f37d274ac9f25171380c851164" target="_top" xlink:title=" ">
<polygon fill="#ffffff" stroke="#000000" points="528.9736,-43.5 528.9736,-61.5 691.165,-61.5 691.165,-43.5 528.9736,-43.5"/>
<text text-anchor="middle" x="610.0693" y="-49.5" font-family="Helvetica,sans-Serif" font-size="10.00" fill="#000000">CO_Main_Data_DB\_parse_tags</text>
</a>
</g>
</g>
<!-- Node7&#45;&gt;Node10 -->
<g id="edge10" class="edge">
<title>Node7&#45;&gt;Node10</title>
<path fill="none" stroke="#191970" d="M475.95,-84.4327C492.9835,-80.2321 511.731,-75.6438 528.9736,-71.5 539.3089,-69.0162 550.3951,-66.3923 560.9488,-63.9135"/>
<polygon fill="#191970" stroke="#191970" points="561.9245,-67.2797 570.8624,-61.5906 560.3276,-60.4643 561.9245,-67.2797"/>
</g>
<!-- Node13 -->
<g id="node13" class="node">
<title>Node13</title>
<g id="a_node13"><a xlink:href="a00304.html#ae41efbdfe739934823b5f4c785b22611" target="_top" xlink:title=" ">
<polygon fill="#ffffff" stroke="#000000" points="351.0703,-47.5 351.0703,-65.5 487.6953,-65.5 487.6953,-47.5 351.0703,-47.5"/>
<text text-anchor="middle" x="419.3828" y="-53.5" font-family="Helvetica,sans-Serif" font-size="10.00" fill="#000000">A_CO_DB\_execute_query</text>
</a>
</g>
</g>
<!-- Node12&#45;&gt;Node13 -->
<g id="edge13" class="edge">
<title>Node12&#45;&gt;Node13</title>
<path fill="none" stroke="#191970" d="M308.5975,-56.5C319.0708,-56.5 329.9978,-56.5 340.7328,-56.5"/>
<polygon fill="#191970" stroke="#191970" points="340.9454,-60.0001 350.9454,-56.5 340.9453,-53.0001 340.9454,-60.0001"/>
</g>
</g>
</svg>
        <g id="navigator" transform="translate(0 0)" fill="#404254">
                <rect fill="#f2f5e9" fill-opacity="0.5" stroke="#606060" stroke-width=".5" x="0" y="0" width="60" height="60"/>
                <use id="zoomplus" xlink:href="#zoomPlus" x="17" y="9" onmousedown="handleZoom(evt,'in')"/>
                <use id="zoomminus" xlink:href="#zoomMin" x="42" y="9" onmousedown="handleZoom(evt,'out')"/>
                <use id="reset" xlink:href="#resetDef" x="30" y="36" onmousedown="handleReset()"/>
                <g id="arrowUp" xlink:href="#dirArrow" transform="translate(30 24)" onmousedown="handlePan(0,-1)">
                  <use xlink:href="#rim" fill="#404040">
                        <set attributeName="fill" to="#808080" begin="arrowUp.mouseover" end="arrowUp.mouseout"/>
                  </use>
                  <path fill="none" stroke="white" stroke-width="1.5" d="M0,-3.0v7 M-2.5,-0.5L0,-3.0L2.5,-0.5"/>
                </g>
                <g id="arrowRight" xlink:href="#dirArrow" transform="rotate(90) translate(36 -43)" onmousedown="handlePan(1,0)">
                  <use xlink:href="#rim" fill="#404040">
                        <set attributeName="fill" to="#808080" begin="arrowRight.mouseover" end="arrowRight.mouseout"/>
                  </use>
                  <path fill="none" stroke="white" stroke-width="1.5" d="M0,-3.0v7 M-2.5,-0.5L0,-3.0L2.5,-0.5"/>
                </g>
                <g id="arrowDown" xlink:href="#dirArrow" transform="rotate(180) translate(-30 -48)" onmousedown="handlePan(0,1)">
                  <use xlink:href="#rim" fill="#404040">
                        <set attributeName="fill" to="#808080" begin="arrowDown.mouseover" end="arrowDown.mouseout"/>
                  </use>
                  <path fill="none" stroke="white" stroke-width="1.5" d="M0,-3.0v7 M-2.5,-0.5L0,-3.0L2.5,-0.5"/>
                </g>
                <g id="arrowLeft" xlink:href="#dirArrow" transform="rotate(270) translate(-36 17)" onmousedown="handlePan(-1,0)">
                  <use xlink:href="#rim" fill="#404040">
                        <set attributeName="fill" to="#808080" begin="arrowLeft.mouseover" end="arrowLeft.mouseout"/>
                  </use>
                  <path fill="none" stroke="white" stroke-width="1.5" d="M0,-3.0v7 M-2.5,-0.5L0,-3.0L2.5,-0.5"/>
                </g>
        </g>
        <svg viewBox="0 0 15 15" width="100%" height="30px" preserveAspectRatio="xMaxYMin meet">
         <g id="arrow_out" transform="scale(0.3 0.3)">
          <a xlink:href="a00312_a303048d406814c066d27fda70de4ff02_cgraph_org.svg" target="_base">
           <rect id="button" ry="5" rx="5" y="6" x="6" height="38" width="38"
                fill="#f2f5e9" fill-opacity="0.5" stroke="#606060" stroke-width="1.0"/>
           <path id="arrow"
             d="M 11.500037,31.436501 C 11.940474,20.09759 22.043105,11.32322 32.158766,21.979434 L 37.068811,17.246167 C 37.068811,17.246167 37.088388,32 37.088388,32 L 22.160133,31.978069 C 22.160133,31.978069 26.997745,27.140456 26.997745,27.140456 C 18.528582,18.264221 13.291696,25.230495 11.500037,31.436501 z"
             style="fill:#404040;"/>
          </a>
         </g>
        </svg>
</svg>
