<?xml version="1.0" encoding="UTF-8" standalone="no"?>
<!DOCTYPE svg PUBLIC "-//W3C//DTD SVG 1.1//EN"
 "http://www.w3.org/Graphics/SVG/1.1/DTD/svg11.dtd">
<!-- Generated by graphviz version 2.40.1 (20161225.0304)
 -->
<!-- Title: CO_Access\get_available_tokens Pages: 1 -->
<svg width="617pt" height="69pt"
 viewBox="0.00 0.00 616.89 69.00" xmlns="http://www.w3.org/2000/svg" xmlns:xlink="http://www.w3.org/1999/xlink">
<g id="graph0" class="graph" transform="scale(1 1) rotate(0) translate(4 65)">
<title>CO_Access\get_available_tokens</title>
<polygon fill="#ffffff" stroke="transparent" points="-4,4 -4,-65 612.8945,-65 612.8945,4 -4,4"/>
<!-- Node1 -->
<g id="node1" class="node">
<title>Node1</title>
<g id="a_node1"><a xlink:title=" ">
<polygon fill="#bfbfbf" stroke="#000000" points="0,-13.5 0,-41.5 130.5068,-41.5 130.5068,-13.5 0,-13.5"/>
<text text-anchor="start" x="8" y="-29.5" font-family="Helvetica,sans-Serif" font-size="10.00" fill="#000000">CO_Access\get_available</text>
<text text-anchor="middle" x="65.2534" y="-19.5" font-family="Helvetica,sans-Serif" font-size="10.00" fill="#000000">_tokens</text>
</a>
</g>
</g>
<!-- Node2 -->
<g id="node2" class="node">
<title>Node2</title>
<g id="a_node2"><a xlink:href="a00355.html#adbc6444fbac916f3a280f4a3ce4f067a" target="_top" xlink:title=" ">
<polygon fill="#ffffff" stroke="#000000" points="166.5068,-37.5 166.5068,-55.5 292.0137,-55.5 292.0137,-37.5 166.5068,-37.5"/>
<text text-anchor="middle" x="229.2603" y="-43.5" font-family="Helvetica,sans-Serif" font-size="10.00" fill="#000000">CO_Access\get_login_id</text>
</a>
</g>
</g>
<!-- Node1&#45;&gt;Node2 -->
<g id="edge1" class="edge">
<title>Node1&#45;&gt;Node2</title>
<path fill="none" stroke="#191970" d="M130.5445,-35.0639C139.0196,-36.0457 147.7433,-37.0564 156.3326,-38.0514"/>
<polygon fill="#191970" stroke="#191970" points="155.9946,-41.5356 166.331,-39.2097 156.8002,-34.5821 155.9946,-41.5356"/>
</g>
<!-- Node5 -->
<g id="node5" class="node">
<title>Node5</title>
<g id="a_node5"><a xlink:href="a00355.html#a9cda1533874f3fad2ab78f4e1d3a2fd3" target="_top" xlink:title=" ">
<polygon fill="#ffffff" stroke="#000000" points="169.8442,-.5 169.8442,-18.5 288.6763,-18.5 288.6763,-.5 169.8442,-.5"/>
<text text-anchor="middle" x="229.2603" y="-6.5" font-family="Helvetica,sans-Serif" font-size="10.00" fill="#000000">CO_Access\god_mode</text>
</a>
</g>
</g>
<!-- Node1&#45;&gt;Node5 -->
<g id="edge4" class="edge">
<title>Node1&#45;&gt;Node5</title>
<path fill="none" stroke="#191970" d="M130.5445,-20.3342C140.1578,-19.2791 150.0911,-18.1889 159.7852,-17.125"/>
<polygon fill="#191970" stroke="#191970" points="160.2189,-20.5985 169.7774,-16.0283 159.4552,-13.6403 160.2189,-20.5985"/>
</g>
<!-- Node3 -->
<g id="node3" class="node">
<title>Node3</title>
<g id="a_node3"><a xlink:href="a00355.html#aeab406fa4ecc249662fa1e2e073341b2" target="_top" xlink:title=" ">
<polygon fill="#ffffff" stroke="#000000" points="328.0137,-32.5 328.0137,-60.5 447.4023,-60.5 447.4023,-32.5 328.0137,-32.5"/>
<text text-anchor="start" x="336.0137" y="-48.5" font-family="Helvetica,sans-Serif" font-size="10.00" fill="#000000">CO_Access\get_single</text>
<text text-anchor="middle" x="387.708" y="-38.5" font-family="Helvetica,sans-Serif" font-size="10.00" fill="#000000">_security_record_by_id</text>
</a>
</g>
</g>
<!-- Node2&#45;&gt;Node3 -->
<g id="edge2" class="edge">
<title>Node2&#45;&gt;Node3</title>
<path fill="none" stroke="#191970" d="M292.3383,-46.5C300.6825,-46.5 309.2762,-46.5 317.7277,-46.5"/>
<polygon fill="#191970" stroke="#191970" points="317.9398,-50.0001 327.9398,-46.5 317.9397,-43.0001 317.9398,-50.0001"/>
</g>
<!-- Node4 -->
<g id="node4" class="node">
<title>Node4</title>
<g id="a_node4"><a xlink:href="a00355.html#a34c23aea84d5c32e600c512167c3497d" target="_top" xlink:title=" ">
<polygon fill="#ffffff" stroke="#000000" points="483.4023,-32.5 483.4023,-60.5 608.8945,-60.5 608.8945,-32.5 483.4023,-32.5"/>
<text text-anchor="start" x="491.4023" y="-48.5" font-family="Helvetica,sans-Serif" font-size="10.00" fill="#000000">CO_Access\get_multiple</text>
<text text-anchor="middle" x="546.1484" y="-38.5" font-family="Helvetica,sans-Serif" font-size="10.00" fill="#000000">_security_records_by_id</text>
</a>
</g>
</g>
<!-- Node3&#45;&gt;Node4 -->
<g id="edge3" class="edge">
<title>Node3&#45;&gt;Node4</title>
<path fill="none" stroke="#191970" d="M447.6075,-46.5C455.9846,-46.5 464.6686,-46.5 473.253,-46.5"/>
<polygon fill="#191970" stroke="#191970" points="473.2602,-50.0001 483.2601,-46.5 473.2601,-43.0001 473.2602,-50.0001"/>
</g>
</g>
</svg>
