<?xml version="1.0" encoding="UTF-8" standalone="no"?>
<!DOCTYPE svg PUBLIC "-//W3C//DTD SVG 1.1//EN"
 "http://www.w3.org/Graphics/SVG/1.1/DTD/svg11.dtd">
<!-- Generated by graphviz version 2.40.1 (20161225.0304)
 -->
<!-- Title: A_CO_DB_Table_Base\__construct Pages: 1 -->
<svg width="452pt" height="100pt"
 viewBox="0.00 0.00 452.08 100.00" xmlns="http://www.w3.org/2000/svg" xmlns:xlink="http://www.w3.org/1999/xlink">
<g id="graph0" class="graph" transform="scale(1 1) rotate(0) translate(4 96)">
<title>A_CO_DB_Table_Base\__construct</title>
<polygon fill="#ffffff" stroke="transparent" points="-4,4 -4,-96 448.082,-96 448.082,4 -4,4"/>
<!-- Node1 -->
<g id="node1" class="node">
<title>Node1</title>
<g id="a_node1"><a xlink:title=" ">
<polygon fill="#bfbfbf" stroke="#000000" points="0,-39.5 0,-67.5 120.5068,-67.5 120.5068,-39.5 0,-39.5"/>
<text text-anchor="start" x="8" y="-55.5" font-family="Helvetica,sans-Serif" font-size="10.00" fill="#000000">A_CO_DB_Table_Base</text>
<text text-anchor="middle" x="60.2534" y="-45.5" font-family="Helvetica,sans-Serif" font-size="10.00" fill="#000000">\__construct</text>
</a>
</g>
</g>
<!-- Node2 -->
<g id="node2" class="node">
<title>Node2</title>
<g id="a_node2"><a xlink:href="a00308.html#a1848c2e1bd55a2443af45963f728b20a" target="_top" xlink:title=" ">
<polygon fill="#ffffff" stroke="#000000" points="156.5068,-63.5 156.5068,-91.5 277.0137,-91.5 277.0137,-63.5 156.5068,-63.5"/>
<text text-anchor="start" x="164.5068" y="-79.5" font-family="Helvetica,sans-Serif" font-size="10.00" fill="#000000">A_CO_DB_Table_Base</text>
<text text-anchor="middle" x="216.7603" y="-69.5" font-family="Helvetica,sans-Serif" font-size="10.00" fill="#000000">\_default_setup</text>
</a>
</g>
</g>
<!-- Node1&#45;&gt;Node2 -->
<g id="edge1" class="edge">
<title>Node1&#45;&gt;Node2</title>
<path fill="none" stroke="#191970" d="M120.763,-62.779C129.1713,-64.0684 137.868,-65.402 146.4366,-66.716"/>
<polygon fill="#191970" stroke="#191970" points="145.9965,-70.1894 156.4115,-68.2457 147.0576,-63.2702 145.9965,-70.1894"/>
</g>
<!-- Node3 -->
<g id="node3" class="node">
<title>Node3</title>
<g id="a_node3"><a xlink:href="a00308.html#a91b894b2b9aa29d47c43e519f5ad0bf6" target="_top" xlink:title=" ">
<polygon fill="#ffffff" stroke="#000000" points="156.5068,-16.5 156.5068,-44.5 277.0137,-44.5 277.0137,-16.5 156.5068,-16.5"/>
<text text-anchor="start" x="164.5068" y="-32.5" font-family="Helvetica,sans-Serif" font-size="10.00" fill="#000000">A_CO_DB_Table_Base</text>
<text text-anchor="middle" x="216.7603" y="-22.5" font-family="Helvetica,sans-Serif" font-size="10.00" fill="#000000">\load_from_db</text>
</a>
</g>
</g>
<!-- Node1&#45;&gt;Node3 -->
<g id="edge2" class="edge">
<title>Node1&#45;&gt;Node3</title>
<path fill="none" stroke="#191970" d="M120.763,-44.6076C129.1713,-43.3719 137.868,-42.0939 146.4366,-40.8347"/>
<polygon fill="#191970" stroke="#191970" points="147.0267,-44.2856 156.4115,-39.3688 146.0089,-37.36 147.0267,-44.2856"/>
</g>
<!-- Node4 -->
<g id="node4" class="node">
<title>Node4</title>
<g id="a_node4"><a xlink:href="a00308.html#aecf243af90c7a16d03c7e4630ccc4e8e" target="_top" xlink:title=" ">
<polygon fill="#ffffff" stroke="#000000" points="318.2944,-37.5 318.2944,-65.5 438.8013,-65.5 438.8013,-37.5 318.2944,-37.5"/>
<text text-anchor="start" x="326.2944" y="-53.5" font-family="Helvetica,sans-Serif" font-size="10.00" fill="#000000">A_CO_DB_Table_Base</text>
<text text-anchor="middle" x="378.5479" y="-43.5" font-family="Helvetica,sans-Serif" font-size="10.00" fill="#000000">\_badger_unserialize</text>
</a>
</g>
</g>
<!-- Node3&#45;&gt;Node4 -->
<g id="edge3" class="edge">
<title>Node3&#45;&gt;Node4</title>
<path fill="none" stroke="#191970" d="M277.4643,-38.3794C287.417,-39.6712 297.8053,-41.0196 307.9725,-42.3393"/>
<polygon fill="#191970" stroke="#191970" points="307.6743,-45.8299 318.0417,-43.6463 308.5754,-38.8881 307.6743,-45.8299"/>
</g>
<!-- Node5 -->
<g id="node5" class="node">
<title>Node5</title>
<g id="a_node5"><a xlink:href="a00308.html#a78affe18a811930d4012fd265e95cdca" target="_top" xlink:title=" ">
<polygon fill="#ffffff" stroke="#000000" points="313.0137,-.5 313.0137,-18.5 444.082,-18.5 444.082,-.5 313.0137,-.5"/>
<text text-anchor="middle" x="378.5479" y="-6.5" font-family="Helvetica,sans-Serif" font-size="10.00" fill="#000000">A_CO_DB_Table_Base\id</text>
</a>
</g>
</g>
<!-- Node3&#45;&gt;Node5 -->
<g id="edge4" class="edge">
<title>Node3&#45;&gt;Node5</title>
<path fill="none" stroke="#191970" d="M277.4643,-22.6206C285.7778,-21.5415 294.3953,-20.423 302.9339,-19.3147"/>
<polygon fill="#191970" stroke="#191970" points="303.4322,-22.7795 312.8984,-18.0213 302.5311,-15.8377 303.4322,-22.7795"/>
</g>
</g>
</svg>
