<?xml version="1.0" encoding="UTF-8" standalone="no"?>
<!DOCTYPE svg PUBLIC "-//W3C//DTD SVG 1.1//EN"
 "http://www.w3.org/Graphics/SVG/1.1/DTD/svg11.dtd">
<!-- Generated by graphviz version 2.40.1 (20161225.0304)
 -->
<!-- Title: A_CO_DB_Table_Base\_default_setup Pages: 1 -->
<svg width="285pt" height="37pt"
 viewBox="0.00 0.00 285.01 37.00" xmlns="http://www.w3.org/2000/svg" xmlns:xlink="http://www.w3.org/1999/xlink">
<g id="graph0" class="graph" transform="scale(1 1) rotate(0) translate(4 33)">
<title>A_CO_DB_Table_Base\_default_setup</title>
<polygon fill="#ffffff" stroke="transparent" points="-4,4 -4,-33 281.0137,-33 281.0137,4 -4,4"/>
<!-- Node57 -->
<g id="node1" class="node">
<title>Node57</title>
<polygon fill="#bfbfbf" stroke="#000000" points="0,-.5 0,-28.5 120.5068,-28.5 120.5068,-.5 0,-.5"/>
<text text-anchor="start" x="8" y="-16.5" font-family="Helvetica,sans-Serif" font-size="10.00" fill="#000000">A_CO_DB_Table_Base</text>
<text text-anchor="middle" x="60.2534" y="-6.5" font-family="Helvetica,sans-Serif" font-size="10.00" fill="#000000">\_default_setup</text>
</g>
<!-- Node58 -->
<g id="node2" class="node">
<title>Node58</title>
<g id="a_node2"><a xlink:href="a00311.html#a4417bcd42c4db0dc6f3d1c0ab94e19f3" target="_top" xlink:title="A_CO_DB_Table_Base\l\\__construct">
<polygon fill="#ffffff" stroke="#000000" points="156.5068,-.5 156.5068,-28.5 277.0137,-28.5 277.0137,-.5 156.5068,-.5"/>
<text text-anchor="start" x="164.5068" y="-16.5" font-family="Helvetica,sans-Serif" font-size="10.00" fill="#000000">A_CO_DB_Table_Base</text>
<text text-anchor="middle" x="216.7603" y="-6.5" font-family="Helvetica,sans-Serif" font-size="10.00" fill="#000000">\__construct</text>
</a>
</g>
</g>
<!-- Node57&#45;&gt;Node58 -->
<g id="edge1" class="edge">
<title>Node57&#45;&gt;Node58</title>
<path fill="none" stroke="#191970" d="M131.0206,-14.5C139.5003,-14.5 148.0984,-14.5 156.4115,-14.5"/>
<polygon fill="#191970" stroke="#191970" points="130.7631,-11.0001 120.763,-14.5 130.763,-18.0001 130.7631,-11.0001"/>
</g>
</g>
</svg>
