<?xml version="1.0" encoding="UTF-8" standalone="no"?>
<!DOCTYPE svg PUBLIC "-//W3C//DTD SVG 1.1//EN"
 "http://www.w3.org/Graphics/SVG/1.1/DTD/svg11.dtd">
<!-- Generated by graphviz version 2.40.1 (20161225.0304)
 -->
<!-- Title: CO_Security_Login\delete_from_db Pages: 1 -->
<!--zoomable 172 -->
<svg id="main" version="1.1" xmlns="http://www.w3.org/2000/svg" xmlns:xlink="http://www.w3.org/1999/xlink" xml:space="preserve" onload="init(evt)">
<style type="text/css"><![CDATA[
.edge:hover path { stroke: red; }
.edge:hover polygon { stroke: red; fill: red; }
]]></style>
<script type="text/javascript"><![CDATA[
var edges = document.getElementsByTagName('g');
if (edges && edges.length) {
  for (var i=0;i<edges.length;i++) {
    if (edges[i].id.substr(0,4)=='edge') {
      edges[i].setAttribute('class','edge');
    }
  }
}
]]></script>
        <defs>
                <circle id="rim" cx="0" cy="0" r="7"/>
                <circle id="rim2" cx="0" cy="0" r="3.5"/>
                <g id="zoomPlus">
                        <use xlink:href="#rim" fill="#404040">
                                <set attributeName="fill" to="#808080" begin="zoomplus.mouseover" end="zoomplus.mouseout"/>
                        </use>
                        <path d="M-4,0h8M0,-4v8" fill="none" stroke="white" stroke-width="1.5" pointer-events="none"/>
                </g>
                <g id="zoomMin">
                        <use xlink:href="#rim" fill="#404040">
                                <set attributeName="fill" to="#808080" begin="zoomminus.mouseover" end="zoomminus.mouseout"/>
                        </use>
                        <path d="M-4,0h8" fill="none" stroke="white" stroke-width="1.5" pointer-events="none"/>
                </g>
                <g id="dirArrow">
                        <path fill="none" stroke="white" stroke-width="1.5" d="M0,-3.0v7 M-2.5,-0.5L0,-3.0L2.5,-0.5"/>
                </g>
               <g id="resetDef">
                       <use xlink:href="#rim2" fill="#404040">
                               <set attributeName="fill" to="#808080" begin="reset.mouseover" end="reset.mouseout"/>
                       </use>
               </g>
        </defs>

<script type="text/javascript">
var viewWidth = 630;
var viewHeight = 172;
var sectionId = 'dynsection-4';
</script>
<script xlink:href="svgpan.js"/>
<svg id="graph" class="graph">
<g id="viewport">
<title>CO_Security_Login\delete_from_db</title>
<polygon fill="#ffffff" stroke="transparent" points="-4,4 -4,-168 625.7021,-168 625.7021,4 -4,4"/>
<!-- Node20 -->
<g id="node1" class="node">
<title>Node20</title>
<polygon fill="#bfbfbf" stroke="#000000" points="0,-47.5 0,-75.5 132.7383,-75.5 132.7383,-47.5 0,-47.5"/>
<text text-anchor="start" x="8" y="-63.5" font-family="Helvetica,sans-Serif" font-size="10.00" fill="#000000">CO_Security_Login\delete</text>
<text text-anchor="middle" x="66.3691" y="-53.5" font-family="Helvetica,sans-Serif" font-size="10.00" fill="#000000">_from_db</text>
</g>
<!-- Node21 -->
<g id="node2" class="node">
<title>Node21</title>
<g id="a_node2"><a xlink:href="a00311.html#adda14b544e11934db3bf8130aeea0610" target="_top" xlink:title="A_CO_DB_Table_Base\l\\_write_to_db">
<polygon fill="#ffffff" stroke="#000000" points="170.9575,-94.5 170.9575,-122.5 291.4644,-122.5 291.4644,-94.5 170.9575,-94.5"/>
<text text-anchor="start" x="178.9575" y="-110.5" font-family="Helvetica,sans-Serif" font-size="10.00" fill="#000000">A_CO_DB_Table_Base</text>
<text text-anchor="middle" x="231.2109" y="-100.5" font-family="Helvetica,sans-Serif" font-size="10.00" fill="#000000">\_write_to_db</text>
</a>
</g>
</g>
<!-- Node20&#45;&gt;Node21 -->
<g id="edge1" class="edge">
<title>Node20&#45;&gt;Node21</title>
<path fill="none" stroke="#191970" d="M115.8271,-75.6015C133.5926,-80.6669 153.8044,-86.4297 172.2941,-91.7015"/>
<polygon fill="#191970" stroke="#191970" points="171.4957,-95.1133 182.0721,-94.4894 173.4151,-88.3816 171.4957,-95.1133"/>
</g>
<!-- Node26 -->
<g id="node7" class="node">
<title>Node26</title>
<g id="a_node7"><a xlink:href="a00343.html#a30db2d11dd81390f5a671bcd32835544" target="_top" xlink:title="CO_Security_Login\\get\l_user_object">
<polygon fill="#ffffff" stroke="#000000" points="171.5142,-47.5 171.5142,-75.5 290.9077,-75.5 290.9077,-47.5 171.5142,-47.5"/>
<text text-anchor="start" x="179.5142" y="-63.5" font-family="Helvetica,sans-Serif" font-size="10.00" fill="#000000">CO_Security_Login\get</text>
<text text-anchor="middle" x="231.2109" y="-53.5" font-family="Helvetica,sans-Serif" font-size="10.00" fill="#000000">_user_object</text>
</a>
</g>
</g>
<!-- Node20&#45;&gt;Node26 -->
<g id="edge7" class="edge">
<title>Node20&#45;&gt;Node26</title>
<path fill="none" stroke="#191970" d="M132.9415,-61.5C142.2595,-61.5 151.8584,-61.5 161.2372,-61.5"/>
<polygon fill="#191970" stroke="#191970" points="161.3041,-65.0001 171.304,-61.5 161.304,-58.0001 161.3041,-65.0001"/>
</g>
<!-- Node27 -->
<g id="node8" class="node">
<title>Node27</title>
<g id="a_node8"><a xlink:href="a00343.html#aba256552040dd8af7196f0fea2a58609" target="_top" xlink:title="CO_Security_Login\\user\l_can_write">
<polygon fill="#ffffff" stroke="#000000" points="168.7383,-.5 168.7383,-28.5 293.6836,-28.5 293.6836,-.5 168.7383,-.5"/>
<text text-anchor="start" x="176.7383" y="-16.5" font-family="Helvetica,sans-Serif" font-size="10.00" fill="#000000">CO_Security_Login\user</text>
<text text-anchor="middle" x="231.2109" y="-6.5" font-family="Helvetica,sans-Serif" font-size="10.00" fill="#000000">_can_write</text>
</a>
</g>
</g>
<!-- Node20&#45;&gt;Node27 -->
<g id="edge9" class="edge">
<title>Node20&#45;&gt;Node27</title>
<path fill="none" stroke="#191970" d="M115.8271,-47.3985C133.5926,-42.3331 153.8044,-36.5703 172.2941,-31.2985"/>
<polygon fill="#191970" stroke="#191970" points="173.4151,-34.6184 182.0721,-28.5106 171.4957,-27.8867 173.4151,-34.6184"/>
</g>
<!-- Node22 -->
<g id="node3" class="node">
<title>Node22</title>
<g id="a_node3"><a xlink:href="a00311.html#a6109c37c5e61ab04ea710b1ebb7615a5" target="_top" xlink:title="A_CO_DB_Table_Base\l\\_build_parameter_array">
<polygon fill="#ffffff" stroke="#000000" points="329.6836,-135.5 329.6836,-163.5 454.6338,-163.5 454.6338,-135.5 329.6836,-135.5"/>
<text text-anchor="start" x="337.6836" y="-151.5" font-family="Helvetica,sans-Serif" font-size="10.00" fill="#000000">A_CO_DB_Table_Base</text>
<text text-anchor="middle" x="392.1587" y="-141.5" font-family="Helvetica,sans-Serif" font-size="10.00" fill="#000000">\_build_parameter_array</text>
</a>
</g>
</g>
<!-- Node21&#45;&gt;Node22 -->
<g id="edge2" class="edge">
<title>Node21&#45;&gt;Node22</title>
<path fill="none" stroke="#191970" d="M286.6,-122.6099C299.5704,-125.914 313.5068,-129.4641 326.8642,-132.8668"/>
<polygon fill="#191970" stroke="#191970" points="326.3857,-136.3566 336.9403,-135.4336 328.1138,-129.5733 326.3857,-136.3566"/>
</g>
<!-- Node24 -->
<g id="node5" class="node">
<title>Node24</title>
<g id="a_node5"><a xlink:href="a00311.html#a78affe18a811930d4012fd265e95cdca" target="_top" xlink:title="A_CO_DB_Table_Base\\id">
<polygon fill="#ffffff" stroke="#000000" points="490.6338,-98.5 490.6338,-116.5 621.7021,-116.5 621.7021,-98.5 490.6338,-98.5"/>
<text text-anchor="middle" x="556.168" y="-104.5" font-family="Helvetica,sans-Serif" font-size="10.00" fill="#000000">A_CO_DB_Table_Base\id</text>
</a>
</g>
</g>
<!-- Node21&#45;&gt;Node24 -->
<g id="edge6" class="edge">
<title>Node21&#45;&gt;Node24</title>
<path fill="none" stroke="#191970" d="M291.5713,-108.3143C344.9012,-108.1501 422.9147,-107.9101 480.4218,-107.7331"/>
<polygon fill="#191970" stroke="#191970" points="480.5595,-111.2328 490.5486,-107.7019 480.5379,-104.2328 480.5595,-111.2328"/>
</g>
<!-- Node25 -->
<g id="node6" class="node">
<title>Node25</title>
<g id="a_node6"><a xlink:href="a00311.html#a8780b40e55827b90bb441671faec2a05" target="_top" xlink:title="A_CO_DB_Table_Base\l\\get_access_object">
<polygon fill="#ffffff" stroke="#000000" points="331.9053,-47.5 331.9053,-75.5 452.4121,-75.5 452.4121,-47.5 331.9053,-47.5"/>
<text text-anchor="start" x="339.9053" y="-63.5" font-family="Helvetica,sans-Serif" font-size="10.00" fill="#000000">A_CO_DB_Table_Base</text>
<text text-anchor="middle" x="392.1587" y="-53.5" font-family="Helvetica,sans-Serif" font-size="10.00" fill="#000000">\get_access_object</text>
</a>
</g>
</g>
<!-- Node21&#45;&gt;Node25 -->
<g id="edge5" class="edge">
<title>Node21&#45;&gt;Node25</title>
<path fill="none" stroke="#191970" d="M279.5006,-94.3985C296.7665,-89.3565 316.3989,-83.6234 334.3839,-78.3714"/>
<polygon fill="#191970" stroke="#191970" points="335.5627,-81.6734 344.1807,-75.5106 333.6005,-74.9541 335.5627,-81.6734"/>
</g>
<!-- Node23 -->
<g id="node4" class="node">
<title>Node23</title>
<g id="a_node4"><a xlink:href="a00311.html#afb32d1e32b8e1c1de2e008c9b88f7846" target="_top" xlink:title="A_CO_DB_Table_Base\l\\_badger_serialize">
<polygon fill="#ffffff" stroke="#000000" points="495.9146,-135.5 495.9146,-163.5 616.4214,-163.5 616.4214,-135.5 495.9146,-135.5"/>
<text text-anchor="start" x="503.9146" y="-151.5" font-family="Helvetica,sans-Serif" font-size="10.00" fill="#000000">A_CO_DB_Table_Base</text>
<text text-anchor="middle" x="556.168" y="-141.5" font-family="Helvetica,sans-Serif" font-size="10.00" fill="#000000">\_badger_serialize</text>
</a>
</g>
</g>
<!-- Node22&#45;&gt;Node23 -->
<g id="edge3" class="edge">
<title>Node22&#45;&gt;Node23</title>
<path fill="none" stroke="#191970" d="M455.0999,-149.5C465.1271,-149.5 475.5568,-149.5 485.7433,-149.5"/>
<polygon fill="#191970" stroke="#191970" points="485.8248,-153.0001 495.8248,-149.5 485.8247,-146.0001 485.8248,-153.0001"/>
</g>
<!-- Node22&#45;&gt;Node24 -->
<g id="edge4" class="edge">
<title>Node22&#45;&gt;Node24</title>
<path fill="none" stroke="#191970" d="M447.2277,-135.3978C467.8316,-130.1214 490.9876,-124.1916 510.6355,-119.1601"/>
<polygon fill="#191970" stroke="#191970" points="511.7392,-122.4905 520.5583,-116.619 510.0026,-115.7093 511.7392,-122.4905"/>
</g>
<!-- Node26&#45;&gt;Node25 -->
<g id="edge8" class="edge">
<title>Node26&#45;&gt;Node25</title>
<path fill="none" stroke="#191970" d="M291.1419,-61.5C301.0625,-61.5 311.4295,-61.5 321.583,-61.5"/>
<polygon fill="#191970" stroke="#191970" points="321.6409,-65.0001 331.6409,-61.5 321.6408,-58.0001 321.6409,-65.0001"/>
</g>
<!-- Node27&#45;&gt;Node25 -->
<g id="edge11" class="edge">
<title>Node27&#45;&gt;Node25</title>
<path fill="none" stroke="#191970" d="M279.5006,-28.6015C296.7665,-33.6435 316.3989,-39.3766 334.3839,-44.6286"/>
<polygon fill="#191970" stroke="#191970" points="333.6005,-48.0459 344.1807,-47.4894 335.5627,-41.3266 333.6005,-48.0459"/>
</g>
<!-- Node28 -->
<g id="node9" class="node">
<title>Node28</title>
<g id="a_node9"><a xlink:href="a00343.html#a03304936652c2c606c411c7c6a0f0c7f" target="_top" xlink:title="CO_Security_Login\\i\l_am_a_god">
<polygon fill="#ffffff" stroke="#000000" points="338.3018,-.5 338.3018,-28.5 446.0156,-28.5 446.0156,-.5 338.3018,-.5"/>
<text text-anchor="start" x="346.3018" y="-16.5" font-family="Helvetica,sans-Serif" font-size="10.00" fill="#000000">CO_Security_Login\i</text>
<text text-anchor="middle" x="392.1587" y="-6.5" font-family="Helvetica,sans-Serif" font-size="10.00" fill="#000000">_am_a_god</text>
</a>
</g>
</g>
<!-- Node27&#45;&gt;Node28 -->
<g id="edge10" class="edge">
<title>Node27&#45;&gt;Node28</title>
<path fill="none" stroke="#191970" d="M293.8984,-14.5C305.1163,-14.5 316.8195,-14.5 328.076,-14.5"/>
<polygon fill="#191970" stroke="#191970" points="328.2612,-18.0001 338.2612,-14.5 328.2612,-11.0001 328.2612,-18.0001"/>
</g>
</g>
</svg>
        <g id="navigator" transform="translate(0 0)" fill="#404254">
                <rect fill="#f2f5e9" fill-opacity="0.5" stroke="#606060" stroke-width=".5" x="0" y="0" width="60" height="60"/>
                <use id="zoomplus" xlink:href="#zoomPlus" x="17" y="9" onmousedown="handleZoom(evt,'in')"/>
                <use id="zoomminus" xlink:href="#zoomMin" x="42" y="9" onmousedown="handleZoom(evt,'out')"/>
                <use id="reset" xlink:href="#resetDef" x="30" y="36" onmousedown="handleReset()"/>
                <g id="arrowUp" xlink:href="#dirArrow" transform="translate(30 24)" onmousedown="handlePan(0,-1)">
                  <use xlink:href="#rim" fill="#404040">
                        <set attributeName="fill" to="#808080" begin="arrowUp.mouseover" end="arrowUp.mouseout"/>
                  </use>
                  <path fill="none" stroke="white" stroke-width="1.5" d="M0,-3.0v7 M-2.5,-0.5L0,-3.0L2.5,-0.5"/>
                </g>
                <g id="arrowRight" xlink:href="#dirArrow" transform="rotate(90) translate(36 -43)" onmousedown="handlePan(1,0)">
                  <use xlink:href="#rim" fill="#404040">
                        <set attributeName="fill" to="#808080" begin="arrowRight.mouseover" end="arrowRight.mouseout"/>
                  </use>
                  <path fill="none" stroke="white" stroke-width="1.5" d="M0,-3.0v7 M-2.5,-0.5L0,-3.0L2.5,-0.5"/>
                </g>
                <g id="arrowDown" xlink:href="#dirArrow" transform="rotate(180) translate(-30 -48)" onmousedown="handlePan(0,1)">
                  <use xlink:href="#rim" fill="#404040">
                        <set attributeName="fill" to="#808080" begin="arrowDown.mouseover" end="arrowDown.mouseout"/>
                  </use>
                  <path fill="none" stroke="white" stroke-width="1.5" d="M0,-3.0v7 M-2.5,-0.5L0,-3.0L2.5,-0.5"/>
                </g>
                <g id="arrowLeft" xlink:href="#dirArrow" transform="rotate(270) translate(-36 17)" onmousedown="handlePan(-1,0)">
                  <use xlink:href="#rim" fill="#404040">
                        <set attributeName="fill" to="#808080" begin="arrowLeft.mouseover" end="arrowLeft.mouseout"/>
                  </use>
                  <path fill="none" stroke="white" stroke-width="1.5" d="M0,-3.0v7 M-2.5,-0.5L0,-3.0L2.5,-0.5"/>
                </g>
        </g>
        <svg viewBox="0 0 15 15" width="100%" height="30px" preserveAspectRatio="xMaxYMin meet">
         <g id="arrow_out" transform="scale(0.3 0.3)">
          <a xlink:href="a00343_ae927630811dae37fddc34b16878c63fd_cgraph_org.svg" target="_base">
           <rect id="button" ry="5" rx="5" y="6" x="6" height="38" width="38"
                fill="#f2f5e9" fill-opacity="0.5" stroke="#606060" stroke-width="1.0"/>
           <path id="arrow"
             d="M 11.500037,31.436501 C 11.940474,20.09759 22.043105,11.32322 32.158766,21.979434 L 37.068811,17.246167 C 37.068811,17.246167 37.088388,32 37.088388,32 L 22.160133,31.978069 C 22.160133,31.978069 26.997745,27.140456 26.997745,27.140456 C 18.528582,18.264221 13.291696,25.230495 11.500037,31.436501 z"
             style="fill:#404040;"/>
          </a>
         </g>
        </svg>
</svg>
