<?xml version="1.0" encoding="UTF-8" standalone="no"?>
<!DOCTYPE svg PUBLIC "-//W3C//DTD SVG 1.1//EN"
 "http://www.w3.org/Graphics/SVG/1.1/DTD/svg11.dtd">
<!-- Generated by graphviz version 2.40.1 (20161225.0304)
 -->
<!-- Title: CO_Main_DB_Record\set_tags Pages: 1 -->
<svg width="805pt" height="126pt"
 viewBox="0.00 0.00 805.10 126.00" xmlns="http://www.w3.org/2000/svg" xmlns:xlink="http://www.w3.org/1999/xlink">
<g id="graph0" class="graph" transform="scale(1 1) rotate(0) translate(4 122)">
<title>CO_Main_DB_Record\set_tags</title>
<polygon fill="#ffffff" stroke="transparent" points="-4,4 -4,-122 801.1006,-122 801.1006,4 -4,4"/>
<!-- Node39 -->
<g id="node1" class="node">
<title>Node39</title>
<polygon fill="#bfbfbf" stroke="#000000" points="0,-26.5 0,-44.5 156.0684,-44.5 156.0684,-26.5 0,-26.5"/>
<text text-anchor="middle" x="78.0342" y="-32.5" font-family="Helvetica,sans-Serif" font-size="10.00" fill="#000000">CO_Main_DB_Record\set_tags</text>
</g>
<!-- Node40 -->
<g id="node2" class="node">
<title>Node40</title>
<g id="a_node2"><a xlink:href="a00311.html#a7487697640051c6661b8cdca6f109959" target="_top" xlink:title="A_CO_DB_Table_Base\l\\update_db">
<polygon fill="#ffffff" stroke="#000000" points="192.0684,-43.5 192.0684,-71.5 312.5752,-71.5 312.5752,-43.5 192.0684,-43.5"/>
<text text-anchor="start" x="200.0684" y="-59.5" font-family="Helvetica,sans-Serif" font-size="10.00" fill="#000000">A_CO_DB_Table_Base</text>
<text text-anchor="middle" x="252.3218" y="-49.5" font-family="Helvetica,sans-Serif" font-size="10.00" fill="#000000">\update_db</text>
</a>
</g>
</g>
<!-- Node39&#45;&gt;Node40 -->
<g id="edge1" class="edge">
<title>Node39&#45;&gt;Node40</title>
<path fill="none" stroke="#191970" d="M149.4265,-44.5117C160.1125,-45.8606 171.1254,-47.2507 181.7933,-48.5973"/>
<polygon fill="#191970" stroke="#191970" points="181.534,-52.0923 191.8937,-49.8723 182.4107,-45.1474 181.534,-52.0923"/>
</g>
<!-- Node46 -->
<g id="node8" class="node">
<title>Node46</title>
<g id="a_node8"><a xlink:href="a00311.html#a7d2537d7675ca572ad78096784fe4fe4" target="_top" xlink:title="A_CO_DB_Table_Base\l\\user_can_write">
<polygon fill="#ffffff" stroke="#000000" points="348.5752,-.5 348.5752,-28.5 469.082,-28.5 469.082,-.5 348.5752,-.5"/>
<text text-anchor="start" x="356.5752" y="-16.5" font-family="Helvetica,sans-Serif" font-size="10.00" fill="#000000">A_CO_DB_Table_Base</text>
<text text-anchor="middle" x="408.8286" y="-6.5" font-family="Helvetica,sans-Serif" font-size="10.00" fill="#000000">\user_can_write</text>
</a>
</g>
</g>
<!-- Node39&#45;&gt;Node46 -->
<g id="edge10" class="edge">
<title>Node39&#45;&gt;Node46</title>
<path fill="none" stroke="#191970" d="M156.4278,-30.5233C211.6203,-27.0195 284.8821,-22.3686 338.2527,-18.9804"/>
<polygon fill="#191970" stroke="#191970" points="338.5556,-22.4683 348.3137,-18.3417 338.112,-15.4824 338.5556,-22.4683"/>
</g>
<!-- Node41 -->
<g id="node3" class="node">
<title>Node41</title>
<g id="a_node3"><a xlink:href="a00311.html#adda14b544e11934db3bf8130aeea0610" target="_top" xlink:title="A_CO_DB_Table_Base\l\\_write_to_db">
<polygon fill="#ffffff" stroke="#000000" points="348.5752,-47.5 348.5752,-75.5 469.082,-75.5 469.082,-47.5 348.5752,-47.5"/>
<text text-anchor="start" x="356.5752" y="-63.5" font-family="Helvetica,sans-Serif" font-size="10.00" fill="#000000">A_CO_DB_Table_Base</text>
<text text-anchor="middle" x="408.8286" y="-53.5" font-family="Helvetica,sans-Serif" font-size="10.00" fill="#000000">\_write_to_db</text>
</a>
</g>
</g>
<!-- Node40&#45;&gt;Node41 -->
<g id="edge2" class="edge">
<title>Node40&#45;&gt;Node41</title>
<path fill="none" stroke="#191970" d="M312.8314,-59.0465C321.1482,-59.2591 329.7473,-59.4788 338.2255,-59.6955"/>
<polygon fill="#191970" stroke="#191970" points="338.3937,-63.2009 348.4799,-59.9576 338.5726,-56.2032 338.3937,-63.2009"/>
</g>
<!-- Node40&#45;&gt;Node46 -->
<g id="edge8" class="edge">
<title>Node40&#45;&gt;Node46</title>
<path fill="none" stroke="#191970" d="M303.568,-43.4202C317.6924,-39.5395 333.1549,-35.2912 347.7747,-31.2745"/>
<polygon fill="#191970" stroke="#191970" points="349.0193,-34.5623 357.7347,-28.538 347.1648,-27.8124 349.0193,-34.5623"/>
</g>
<!-- Node42 -->
<g id="node4" class="node">
<title>Node42</title>
<g id="a_node4"><a xlink:href="a00311.html#a6109c37c5e61ab04ea710b1ebb7615a5" target="_top" xlink:title="A_CO_DB_Table_Base\l\\_build_parameter_array">
<polygon fill="#ffffff" stroke="#000000" points="505.082,-89.5 505.082,-117.5 630.0322,-117.5 630.0322,-89.5 505.082,-89.5"/>
<text text-anchor="start" x="513.082" y="-105.5" font-family="Helvetica,sans-Serif" font-size="10.00" fill="#000000">A_CO_DB_Table_Base</text>
<text text-anchor="middle" x="567.5571" y="-95.5" font-family="Helvetica,sans-Serif" font-size="10.00" fill="#000000">\_build_parameter_array</text>
</a>
</g>
</g>
<!-- Node41&#45;&gt;Node42 -->
<g id="edge3" class="edge">
<title>Node41&#45;&gt;Node42</title>
<path fill="none" stroke="#191970" d="M462.1245,-75.6022C475.6769,-79.1882 490.3701,-83.0761 504.363,-86.7787"/>
<polygon fill="#191970" stroke="#191970" points="503.8393,-90.2605 514.4019,-89.435 505.63,-83.4934 503.8393,-90.2605"/>
</g>
<!-- Node44 -->
<g id="node6" class="node">
<title>Node44</title>
<g id="a_node6"><a xlink:href="a00311.html#a78affe18a811930d4012fd265e95cdca" target="_top" xlink:title="A_CO_DB_Table_Base\\id">
<polygon fill="#ffffff" stroke="#000000" points="666.0322,-52.5 666.0322,-70.5 797.1006,-70.5 797.1006,-52.5 666.0322,-52.5"/>
<text text-anchor="middle" x="731.5664" y="-58.5" font-family="Helvetica,sans-Serif" font-size="10.00" fill="#000000">A_CO_DB_Table_Base\id</text>
</a>
</g>
</g>
<!-- Node41&#45;&gt;Node44 -->
<g id="edge7" class="edge">
<title>Node41&#45;&gt;Node44</title>
<path fill="none" stroke="#191970" d="M469.1545,-61.5C521.9928,-61.5 599.0158,-61.5 655.9576,-61.5"/>
<polygon fill="#191970" stroke="#191970" points="655.9875,-65.0001 665.9875,-61.5 655.9874,-58.0001 655.9875,-65.0001"/>
</g>
<!-- Node45 -->
<g id="node7" class="node">
<title>Node45</title>
<g id="a_node7"><a xlink:href="a00311.html#a8780b40e55827b90bb441671faec2a05" target="_top" xlink:title="A_CO_DB_Table_Base\l\\get_access_object">
<polygon fill="#ffffff" stroke="#000000" points="507.3037,-2.5 507.3037,-30.5 627.8105,-30.5 627.8105,-2.5 507.3037,-2.5"/>
<text text-anchor="start" x="515.3037" y="-18.5" font-family="Helvetica,sans-Serif" font-size="10.00" fill="#000000">A_CO_DB_Table_Base</text>
<text text-anchor="middle" x="567.5571" y="-8.5" font-family="Helvetica,sans-Serif" font-size="10.00" fill="#000000">\get_access_object</text>
</a>
</g>
</g>
<!-- Node41&#45;&gt;Node45 -->
<g id="edge6" class="edge">
<title>Node41&#45;&gt;Node45</title>
<path fill="none" stroke="#191970" d="M458.6158,-47.3852C474.2764,-42.9454 491.7299,-37.9972 507.9976,-33.3853"/>
<polygon fill="#191970" stroke="#191970" points="509.2804,-36.6596 517.9466,-30.5647 507.3711,-29.925 509.2804,-36.6596"/>
</g>
<!-- Node43 -->
<g id="node5" class="node">
<title>Node43</title>
<g id="a_node5"><a xlink:href="a00311.html#afb32d1e32b8e1c1de2e008c9b88f7846" target="_top" xlink:title="A_CO_DB_Table_Base\l\\_badger_serialize">
<polygon fill="#ffffff" stroke="#000000" points="671.313,-89.5 671.313,-117.5 791.8198,-117.5 791.8198,-89.5 671.313,-89.5"/>
<text text-anchor="start" x="679.313" y="-105.5" font-family="Helvetica,sans-Serif" font-size="10.00" fill="#000000">A_CO_DB_Table_Base</text>
<text text-anchor="middle" x="731.5664" y="-95.5" font-family="Helvetica,sans-Serif" font-size="10.00" fill="#000000">\_badger_serialize</text>
</a>
</g>
</g>
<!-- Node42&#45;&gt;Node43 -->
<g id="edge4" class="edge">
<title>Node42&#45;&gt;Node43</title>
<path fill="none" stroke="#191970" d="M630.4983,-103.5C640.5255,-103.5 650.9553,-103.5 661.1417,-103.5"/>
<polygon fill="#191970" stroke="#191970" points="661.2232,-107.0001 671.2232,-103.5 661.2232,-100.0001 661.2232,-107.0001"/>
</g>
<!-- Node42&#45;&gt;Node44 -->
<g id="edge5" class="edge">
<title>Node42&#45;&gt;Node44</title>
<path fill="none" stroke="#191970" d="M622.6261,-89.3978C643.23,-84.1214 666.386,-78.1916 686.034,-73.1601"/>
<polygon fill="#191970" stroke="#191970" points="687.1376,-76.4905 695.9567,-70.619 685.401,-69.7093 687.1376,-76.4905"/>
</g>
<!-- Node46&#45;&gt;Node45 -->
<g id="edge9" class="edge">
<title>Node46&#45;&gt;Node45</title>
<path fill="none" stroke="#191970" d="M469.2899,-15.2618C478.426,-15.3769 487.917,-15.4965 497.2393,-15.614"/>
<polygon fill="#191970" stroke="#191970" points="497.2206,-19.1139 507.264,-15.7403 497.3089,-12.1145 497.2206,-19.1139"/>
</g>
</g>
</svg>
