<?xml version="1.0" encoding="UTF-8" standalone="no"?>
<!DOCTYPE svg PUBLIC "-//W3C//DTD SVG 1.1//EN"
 "http://www.w3.org/Graphics/SVG/1.1/DTD/svg11.dtd">
<!-- Generated by graphviz version 2.40.1 (20161225.0304)
 -->
<!-- Title: CO_Main_Data_DB\_parse_integer_parameter Pages: 1 -->
<!--zoomable 37 -->
<svg id="main" version="1.1" xmlns="http://www.w3.org/2000/svg" xmlns:xlink="http://www.w3.org/1999/xlink" xml:space="preserve" onload="init(evt)">
<style type="text/css"><![CDATA[
.edge:hover path { stroke: red; }
.edge:hover polygon { stroke: red; fill: red; }
]]></style>
<script type="text/javascript"><![CDATA[
var edges = document.getElementsByTagName('g');
if (edges && edges.length) {
  for (var i=0;i<edges.length;i++) {
    if (edges[i].id.substr(0,4)=='edge') {
      edges[i].setAttribute('class','edge');
    }
  }
}
]]></script>
        <defs>
                <circle id="rim" cx="0" cy="0" r="7"/>
                <circle id="rim2" cx="0" cy="0" r="3.5"/>
                <g id="zoomPlus">
                        <use xlink:href="#rim" fill="#404040">
                                <set attributeName="fill" to="#808080" begin="zoomplus.mouseover" end="zoomplus.mouseout"/>
                        </use>
                        <path d="M-4,0h8M0,-4v8" fill="none" stroke="white" stroke-width="1.5" pointer-events="none"/>
                </g>
                <g id="zoomMin">
                        <use xlink:href="#rim" fill="#404040">
                                <set attributeName="fill" to="#808080" begin="zoomminus.mouseover" end="zoomminus.mouseout"/>
                        </use>
                        <path d="M-4,0h8" fill="none" stroke="white" stroke-width="1.5" pointer-events="none"/>
                </g>
                <g id="dirArrow">
                        <path fill="none" stroke="white" stroke-width="1.5" d="M0,-3.0v7 M-2.5,-0.5L0,-3.0L2.5,-0.5"/>
                </g>
               <g id="resetDef">
                       <use xlink:href="#rim2" fill="#404040">
                               <set attributeName="fill" to="#808080" begin="reset.mouseover" end="reset.mouseout"/>
                       </use>
               </g>
        </defs>

<script type="text/javascript">
var viewWidth = 665;
var viewHeight = 37;
var sectionId = 'dynsection-6';
</script>
<script xlink:href="svgpan.js"/>
<svg id="graph" class="graph">
<g id="viewport">
<title>CO_Main_Data_DB\_parse_integer_parameter</title>
<polygon fill="#ffffff" stroke="transparent" points="-4,4 -4,-33 661.249,-33 661.249,4 -4,4"/>
<!-- Node21 -->
<g id="node1" class="node">
<title>Node21</title>
<polygon fill="#bfbfbf" stroke="#000000" points="0,-.5 0,-28.5 137.7285,-28.5 137.7285,-.5 0,-.5"/>
<text text-anchor="start" x="8" y="-16.5" font-family="Helvetica,sans-Serif" font-size="10.00" fill="#000000">CO_Main_Data_DB\_parse</text>
<text text-anchor="middle" x="68.8643" y="-6.5" font-family="Helvetica,sans-Serif" font-size="10.00" fill="#000000">_integer_parameter</text>
</g>
<!-- Node22 -->
<g id="node2" class="node">
<title>Node22</title>
<g id="a_node2"><a xlink:href="a00315.html#a64a118564e4da8a3b0220ee5cf088e9b" target="_top" xlink:title="CO_Main_Data_DB\\_parse\l_parameters">
<polygon fill="#ffffff" stroke="#000000" points="173.7285,-.5 173.7285,-28.5 311.457,-28.5 311.457,-.5 173.7285,-.5"/>
<text text-anchor="start" x="181.7285" y="-16.5" font-family="Helvetica,sans-Serif" font-size="10.00" fill="#000000">CO_Main_Data_DB\_parse</text>
<text text-anchor="middle" x="242.5928" y="-6.5" font-family="Helvetica,sans-Serif" font-size="10.00" fill="#000000">_parameters</text>
</a>
</g>
</g>
<!-- Node21&#45;&gt;Node22 -->
<g id="edge1" class="edge">
<title>Node21&#45;&gt;Node22</title>
<path fill="none" stroke="#191970" d="M148.2915,-14.5C156.7643,-14.5 165.3321,-14.5 173.6694,-14.5"/>
<polygon fill="#191970" stroke="#191970" points="148.0256,-11.0001 138.0255,-14.5 148.0255,-18.0001 148.0256,-11.0001"/>
</g>
<!-- Node23 -->
<g id="node3" class="node">
<title>Node23</title>
<g id="a_node3"><a xlink:href="a00315.html#aa97e6ad521aed4c2cbe03e83017af0b7" target="_top" xlink:title="CO_Main_Data_DB\\_build\l_sql_query">
<polygon fill="#ffffff" stroke="#000000" points="347.457,-.5 347.457,-28.5 481.2988,-28.5 481.2988,-.5 347.457,-.5"/>
<text text-anchor="start" x="355.457" y="-16.5" font-family="Helvetica,sans-Serif" font-size="10.00" fill="#000000">CO_Main_Data_DB\_build</text>
<text text-anchor="middle" x="414.3779" y="-6.5" font-family="Helvetica,sans-Serif" font-size="10.00" fill="#000000">_sql_query</text>
</a>
</g>
</g>
<!-- Node22&#45;&gt;Node23 -->
<g id="edge2" class="edge">
<title>Node22&#45;&gt;Node23</title>
<path fill="none" stroke="#191970" d="M321.5626,-14.5C330.211,-14.5 338.9536,-14.5 347.4367,-14.5"/>
<polygon fill="#191970" stroke="#191970" points="321.4746,-11.0001 311.4745,-14.5 321.4745,-18.0001 321.4746,-11.0001"/>
</g>
<!-- Node24 -->
<g id="node4" class="node">
<title>Node24</title>
<g id="a_node4"><a xlink:href="a00315.html#a303048d406814c066d27fda70de4ff02" target="_top" xlink:title="CO_Main_Data_DB\\generic\l_search">
<polygon fill="#ffffff" stroke="#000000" points="517.2988,-.5 517.2988,-28.5 657.249,-28.5 657.249,-.5 517.2988,-.5"/>
<text text-anchor="start" x="525.2988" y="-16.5" font-family="Helvetica,sans-Serif" font-size="10.00" fill="#000000">CO_Main_Data_DB\generic</text>
<text text-anchor="middle" x="587.2739" y="-6.5" font-family="Helvetica,sans-Serif" font-size="10.00" fill="#000000">_search</text>
</a>
</g>
</g>
<!-- Node23&#45;&gt;Node24 -->
<g id="edge3" class="edge">
<title>Node23&#45;&gt;Node24</title>
<path fill="none" stroke="#191970" d="M491.9332,-14.5C500.3713,-14.5 508.9236,-14.5 517.264,-14.5"/>
<polygon fill="#191970" stroke="#191970" points="491.7191,-11.0001 481.7191,-14.5 491.7191,-18.0001 491.7191,-11.0001"/>
</g>
</g>
</svg>
        <g id="navigator" transform="translate(0 0)" fill="#404254">
                <rect fill="#f2f5e9" fill-opacity="0.5" stroke="#606060" stroke-width=".5" x="0" y="0" width="60" height="60"/>
                <use id="zoomplus" xlink:href="#zoomPlus" x="17" y="9" onmousedown="handleZoom(evt,'in')"/>
                <use id="zoomminus" xlink:href="#zoomMin" x="42" y="9" onmousedown="handleZoom(evt,'out')"/>
                <use id="reset" xlink:href="#resetDef" x="30" y="36" onmousedown="handleReset()"/>
                <g id="arrowUp" xlink:href="#dirArrow" transform="translate(30 24)" onmousedown="handlePan(0,-1)">
                  <use xlink:href="#rim" fill="#404040">
                        <set attributeName="fill" to="#808080" begin="arrowUp.mouseover" end="arrowUp.mouseout"/>
                  </use>
                  <path fill="none" stroke="white" stroke-width="1.5" d="M0,-3.0v7 M-2.5,-0.5L0,-3.0L2.5,-0.5"/>
                </g>
                <g id="arrowRight" xlink:href="#dirArrow" transform="rotate(90) translate(36 -43)" onmousedown="handlePan(1,0)">
                  <use xlink:href="#rim" fill="#404040">
                        <set attributeName="fill" to="#808080" begin="arrowRight.mouseover" end="arrowRight.mouseout"/>
                  </use>
                  <path fill="none" stroke="white" stroke-width="1.5" d="M0,-3.0v7 M-2.5,-0.5L0,-3.0L2.5,-0.5"/>
                </g>
                <g id="arrowDown" xlink:href="#dirArrow" transform="rotate(180) translate(-30 -48)" onmousedown="handlePan(0,1)">
                  <use xlink:href="#rim" fill="#404040">
                        <set attributeName="fill" to="#808080" begin="arrowDown.mouseover" end="arrowDown.mouseout"/>
                  </use>
                  <path fill="none" stroke="white" stroke-width="1.5" d="M0,-3.0v7 M-2.5,-0.5L0,-3.0L2.5,-0.5"/>
                </g>
                <g id="arrowLeft" xlink:href="#dirArrow" transform="rotate(270) translate(-36 17)" onmousedown="handlePan(-1,0)">
                  <use xlink:href="#rim" fill="#404040">
                        <set attributeName="fill" to="#808080" begin="arrowLeft.mouseover" end="arrowLeft.mouseout"/>
                  </use>
                  <path fill="none" stroke="white" stroke-width="1.5" d="M0,-3.0v7 M-2.5,-0.5L0,-3.0L2.5,-0.5"/>
                </g>
        </g>
        <svg viewBox="0 0 15 15" width="100%" height="30px" preserveAspectRatio="xMaxYMin meet">
         <g id="arrow_out" transform="scale(0.3 0.3)">
          <a xlink:href="a00315_a884b5749acdbc87467741bc6610794e4_icgraph_org.svg" target="_base">
           <rect id="button" ry="5" rx="5" y="6" x="6" height="38" width="38"
                fill="#f2f5e9" fill-opacity="0.5" stroke="#606060" stroke-width="1.0"/>
           <path id="arrow"
             d="M 11.500037,31.436501 C 11.940474,20.09759 22.043105,11.32322 32.158766,21.979434 L 37.068811,17.246167 C 37.068811,17.246167 37.088388,32 37.088388,32 L 22.160133,31.978069 C 22.160133,31.978069 26.997745,27.140456 26.997745,27.140456 C 18.528582,18.264221 13.291696,25.230495 11.500037,31.436501 z"
             style="fill:#404040;"/>
          </a>
         </g>
        </svg>
</svg>
