<?xml version="1.0" encoding="UTF-8" standalone="no"?>
<!DOCTYPE svg PUBLIC "-//W3C//DTD SVG 1.1//EN"
 "http://www.w3.org/Graphics/SVG/1.1/DTD/svg11.dtd">
<!-- Generated by graphviz version 2.40.1 (20161225.0304)
 -->
<!-- Title: A_CO_DB\_instantiate_record Pages: 1 -->
<svg width="475pt" height="480pt"
 viewBox="0.00 0.00 474.88 480.00" xmlns="http://www.w3.org/2000/svg" xmlns:xlink="http://www.w3.org/1999/xlink">
<g id="graph0" class="graph" transform="scale(1 1) rotate(0) translate(4 476)">
<title>A_CO_DB\_instantiate_record</title>
<polygon fill="#ffffff" stroke="transparent" points="-4,4 -4,-476 470.875,-476 470.875,4 -4,4"/>
<!-- Node1 -->
<g id="node1" class="node">
<title>Node1</title>
<g id="a_node1"><a xlink:title=" ">
<polygon fill="#bfbfbf" stroke="#000000" points="350.2646,-221.5 350.2646,-249.5 466.875,-249.5 466.875,-221.5 350.2646,-221.5"/>
<text text-anchor="start" x="358.2646" y="-237.5" font-family="Helvetica,sans-Serif" font-size="10.00" fill="#000000">A_CO_DB\_instantiate</text>
<text text-anchor="middle" x="408.5698" y="-227.5" font-family="Helvetica,sans-Serif" font-size="10.00" fill="#000000">_record</text>
</a>
</g>
</g>
<!-- Node2 -->
<g id="node2" class="node">
<title>Node2</title>
<g id="a_node2"><a xlink:href="a00315.html#a303048d406814c066d27fda70de4ff02" target="_top" xlink:title=" ">
<polygon fill="#ffffff" stroke="#000000" points="174.0337,-443.5 174.0337,-471.5 313.9839,-471.5 313.9839,-443.5 174.0337,-443.5"/>
<text text-anchor="start" x="182.0337" y="-459.5" font-family="Helvetica,sans-Serif" font-size="10.00" fill="#000000">CO_Main_Data_DB\generic</text>
<text text-anchor="middle" x="244.0088" y="-449.5" font-family="Helvetica,sans-Serif" font-size="10.00" fill="#000000">_search</text>
</a>
</g>
</g>
<!-- Node1&#45;&gt;Node2 -->
<g id="edge1" class="edge">
<title>Node1&#45;&gt;Node2</title>
<path fill="none" stroke="#191970" d="M403.7193,-259.4121C394.0558,-300.9881 368.4908,-386.7176 314.2646,-434.5 310.3167,-437.9788 305.8312,-440.9333 301.0817,-443.4421"/>
<polygon fill="#191970" stroke="#191970" points="407.1444,-260.1328 405.8898,-249.6126 400.3101,-258.619 407.1444,-260.1328"/>
</g>
<!-- Node3 -->
<g id="node3" class="node">
<title>Node3</title>
<g id="a_node3"><a xlink:href="a00327.html#ad75f2ed511a4eae172f9f2acd73f2de9" target="_top" xlink:title=" ">
<polygon fill="#ffffff" stroke="#000000" points="189.6001,-396.5 189.6001,-424.5 298.4175,-424.5 298.4175,-396.5 189.6001,-396.5"/>
<text text-anchor="start" x="197.6001" y="-412.5" font-family="Helvetica,sans-Serif" font-size="10.00" fill="#000000">CO_Security_DB\get</text>
<text text-anchor="middle" x="244.0088" y="-402.5" font-family="Helvetica,sans-Serif" font-size="10.00" fill="#000000">_all_login_objects</text>
</a>
</g>
</g>
<!-- Node1&#45;&gt;Node3 -->
<g id="edge2" class="edge">
<title>Node1&#45;&gt;Node3</title>
<path fill="none" stroke="#191970" d="M400.068,-258.9167C386.8066,-292.2304 358.0833,-353.0735 314.2646,-387.5 309.5214,-391.2266 304.1517,-394.3601 298.5455,-396.9926"/>
<polygon fill="#191970" stroke="#191970" points="403.3585,-260.1113 403.6868,-249.5215 396.8263,-257.5952 403.3585,-260.1113"/>
</g>
<!-- Node4 -->
<g id="node4" class="node">
<title>Node4</title>
<g id="a_node4"><a xlink:href="a00327.html#af39966b2bf3f43bc640b013ec5a472be" target="_top" xlink:title=" ">
<polygon fill="#ffffff" stroke="#000000" points="184.5854,-339.5 184.5854,-377.5 303.4321,-377.5 303.4321,-339.5 184.5854,-339.5"/>
<text text-anchor="start" x="192.5854" y="-365.5" font-family="Helvetica,sans-Serif" font-size="10.00" fill="#000000">CO_Security_DB\get</text>
<text text-anchor="start" x="192.5854" y="-355.5" font-family="Helvetica,sans-Serif" font-size="10.00" fill="#000000">_all_login_objects_with</text>
<text text-anchor="middle" x="244.0088" y="-345.5" font-family="Helvetica,sans-Serif" font-size="10.00" fill="#000000">_access</text>
</a>
</g>
</g>
<!-- Node1&#45;&gt;Node4 -->
<g id="edge3" class="edge">
<title>Node1&#45;&gt;Node4</title>
<path fill="none" stroke="#191970" d="M391.457,-257.3417C373.968,-278.4475 345.07,-310.1337 314.2646,-330.5 309.3358,-333.7586 303.969,-336.7367 298.4704,-339.4324"/>
<polygon fill="#191970" stroke="#191970" points="394.2019,-259.5138 397.7964,-249.5473 388.7713,-255.0969 394.2019,-259.5138"/>
</g>
<!-- Node5 -->
<g id="node5" class="node">
<title>Node5</title>
<g id="a_node5"><a xlink:href="a00307.html#a6ccca3e1b18f58a3d4a4ad6018f067b1" target="_top" xlink:title=" ">
<polygon fill="#ffffff" stroke="#000000" points="174.3022,-292.5 174.3022,-320.5 313.7153,-320.5 313.7153,-292.5 174.3022,-292.5"/>
<text text-anchor="start" x="182.3022" y="-308.5" font-family="Helvetica,sans-Serif" font-size="10.00" fill="#000000">A_CO_DB\get_all_readable</text>
<text text-anchor="middle" x="244.0088" y="-298.5" font-family="Helvetica,sans-Serif" font-size="10.00" fill="#000000">_records</text>
</a>
</g>
</g>
<!-- Node1&#45;&gt;Node5 -->
<g id="edge4" class="edge">
<title>Node1&#45;&gt;Node5</title>
<path fill="none" stroke="#191970" d="M374.646,-254.3728C356.9563,-263.7997 334.7808,-274.9804 314.2646,-283.5 306.6788,-286.6501 298.4949,-289.6627 290.4861,-292.4096"/>
<polygon fill="#191970" stroke="#191970" points="376.3119,-257.451 383.4552,-249.6263 372.9915,-251.2885 376.3119,-257.451"/>
</g>
<!-- Node6 -->
<g id="node6" class="node">
<title>Node6</title>
<g id="a_node6"><a xlink:href="a00307.html#a2b39eabcd72a9d79267e51a5f2b16648" target="_top" xlink:title=" ">
<polygon fill="#ffffff" stroke="#000000" points="173.7529,-245.5 173.7529,-273.5 314.2646,-273.5 314.2646,-245.5 173.7529,-245.5"/>
<text text-anchor="start" x="181.7529" y="-261.5" font-family="Helvetica,sans-Serif" font-size="10.00" fill="#000000">A_CO_DB\get_all_writeable</text>
<text text-anchor="middle" x="244.0088" y="-251.5" font-family="Helvetica,sans-Serif" font-size="10.00" fill="#000000">_records</text>
</a>
</g>
</g>
<!-- Node1&#45;&gt;Node6 -->
<g id="edge5" class="edge">
<title>Node1&#45;&gt;Node6</title>
<path fill="none" stroke="#191970" d="M339.9275,-245.511C331.4973,-246.7405 322.8705,-247.9986 314.4147,-249.2318"/>
<polygon fill="#191970" stroke="#191970" points="340.6982,-248.9357 350.0884,-244.0291 339.688,-242.009 340.6982,-248.9357"/>
</g>
<!-- Node7 -->
<g id="node7" class="node">
<title>Node7</title>
<g id="a_node7"><a xlink:href="a00327.html#a4e2e3180a3be3bbe410fa3066572a8a0" target="_top" xlink:title=" ">
<polygon fill="#ffffff" stroke="#000000" points="180.9722,-198.5 180.9722,-226.5 307.0454,-226.5 307.0454,-198.5 180.9722,-198.5"/>
<text text-anchor="start" x="188.9722" y="-214.5" font-family="Helvetica,sans-Serif" font-size="10.00" fill="#000000">CO_Security_DB\get</text>
<text text-anchor="middle" x="244.0088" y="-204.5" font-family="Helvetica,sans-Serif" font-size="10.00" fill="#000000">_credentials_by_api_key</text>
</a>
</g>
</g>
<!-- Node1&#45;&gt;Node7 -->
<g id="edge6" class="edge">
<title>Node1&#45;&gt;Node7</title>
<path fill="none" stroke="#191970" d="M340.1387,-225.9357C329.1759,-224.4034 317.8754,-222.824 307.046,-221.3104"/>
<polygon fill="#191970" stroke="#191970" points="339.7002,-229.4083 350.0884,-227.3263 340.6692,-222.4757 339.7002,-229.4083"/>
</g>
<!-- Node8 -->
<g id="node8" class="node">
<title>Node8</title>
<g id="a_node8"><a xlink:href="a00327.html#ab7c6d41fc8b4b571f313be2c8b03b17d" target="_top" xlink:title=" ">
<polygon fill="#ffffff" stroke="#000000" points="189.6001,-151.5 189.6001,-179.5 298.4175,-179.5 298.4175,-151.5 189.6001,-151.5"/>
<text text-anchor="start" x="197.6001" y="-167.5" font-family="Helvetica,sans-Serif" font-size="10.00" fill="#000000">CO_Security_DB\get</text>
<text text-anchor="middle" x="244.0088" y="-157.5" font-family="Helvetica,sans-Serif" font-size="10.00" fill="#000000">_initial_record_by_id</text>
</a>
</g>
</g>
<!-- Node1&#45;&gt;Node8 -->
<g id="edge7" class="edge">
<title>Node1&#45;&gt;Node8</title>
<path fill="none" stroke="#191970" d="M372.5264,-216.6083C355.1507,-207.8408 333.8704,-197.5935 314.2646,-189.5 305.8057,-186.0081 296.6348,-182.607 287.7975,-179.515"/>
<polygon fill="#191970" stroke="#191970" points="371.2433,-219.8826 381.7424,-221.3038 374.4211,-213.6455 371.2433,-219.8826"/>
</g>
<!-- Node9 -->
<g id="node9" class="node">
<title>Node9</title>
<g id="a_node9"><a xlink:href="a00327.html#a5d73fc994a204fe7362e8ca77df1b344" target="_top" xlink:title=" ">
<polygon fill="#ffffff" stroke="#000000" points="176.8022,-104.5 176.8022,-132.5 311.2153,-132.5 311.2153,-104.5 176.8022,-104.5"/>
<text text-anchor="start" x="184.8022" y="-120.5" font-family="Helvetica,sans-Serif" font-size="10.00" fill="#000000">CO_Security_DB\get</text>
<text text-anchor="middle" x="244.0088" y="-110.5" font-family="Helvetica,sans-Serif" font-size="10.00" fill="#000000">_initial_record_by_login_id</text>
</a>
</g>
</g>
<!-- Node1&#45;&gt;Node9 -->
<g id="edge8" class="edge">
<title>Node1&#45;&gt;Node9</title>
<path fill="none" stroke="#191970" d="M391.0516,-213.1801C373.6004,-192.2903 345.0333,-161.5258 314.2646,-142.5 308.1255,-138.7039 301.3104,-135.4201 294.4089,-132.6062"/>
<polygon fill="#191970" stroke="#191970" points="388.5677,-215.6714 397.6084,-221.1956 393.9859,-211.2393 388.5677,-215.6714"/>
</g>
<!-- Node10 -->
<g id="node10" class="node">
<title>Node10</title>
<g id="a_node10"><a xlink:href="a00307.html#aaca8bf49257aa5ade3c354ef76119fa4" target="_top" xlink:title=" ">
<polygon fill="#ffffff" stroke="#000000" points="184.3169,-57.5 184.3169,-85.5 303.7007,-85.5 303.7007,-57.5 184.3169,-57.5"/>
<text text-anchor="start" x="192.3169" y="-73.5" font-family="Helvetica,sans-Serif" font-size="10.00" fill="#000000">A_CO_DB\get_multiple</text>
<text text-anchor="middle" x="244.0088" y="-63.5" font-family="Helvetica,sans-Serif" font-size="10.00" fill="#000000">_records_by_id</text>
</a>
</g>
</g>
<!-- Node1&#45;&gt;Node10 -->
<g id="edge9" class="edge">
<title>Node1&#45;&gt;Node10</title>
<path fill="none" stroke="#191970" d="M398.6833,-212.1946C384.4167,-181.2462 355.2025,-126.8538 314.2646,-95.5 309.2506,-91.6598 303.582,-88.4104 297.6932,-85.6663"/>
<polygon fill="#191970" stroke="#191970" points="395.5057,-213.6627 402.786,-221.36 401.8949,-210.8027 395.5057,-213.6627"/>
</g>
<!-- Node12 -->
<g id="node12" class="node">
<title>Node12</title>
<g id="a_node12"><a xlink:href="a00327.html#af7f9180938518c8325b3d4ba52112e02" target="_top" xlink:title=" ">
<polygon fill="#ffffff" stroke="#000000" points="188.4844,-.5 188.4844,-38.5 299.5332,-38.5 299.5332,-.5 188.4844,-.5"/>
<text text-anchor="start" x="196.4844" y="-26.5" font-family="Helvetica,sans-Serif" font-size="10.00" fill="#000000">CO_Security_DB\get</text>
<text text-anchor="start" x="196.4844" y="-16.5" font-family="Helvetica,sans-Serif" font-size="10.00" fill="#000000">_multiple_records_by</text>
<text text-anchor="middle" x="244.0088" y="-6.5" font-family="Helvetica,sans-Serif" font-size="10.00" fill="#000000">_login_id</text>
</a>
</g>
</g>
<!-- Node1&#45;&gt;Node12 -->
<g id="edge11" class="edge">
<title>Node1&#45;&gt;Node12</title>
<path fill="none" stroke="#191970" d="M402.3992,-211.5221C391.1733,-172.3709 363.8625,-94.4825 314.2646,-48.5 309.9102,-44.4629 304.9157,-40.9491 299.6409,-37.8992"/>
<polygon fill="#191970" stroke="#191970" points="399.1122,-212.7687 405.1442,-221.4789 405.8605,-210.9083 399.1122,-212.7687"/>
</g>
<!-- Node11 -->
<g id="node11" class="node">
<title>Node11</title>
<g id="a_node11"><a xlink:href="a00307.html#a631d8d027d72c940a7cec689cbb4e568" target="_top" xlink:title=" ">
<polygon fill="#ffffff" stroke="#000000" points="13.3496,-57.5 13.3496,-85.5 124.4033,-85.5 124.4033,-57.5 13.3496,-57.5"/>
<text text-anchor="start" x="21.3496" y="-73.5" font-family="Helvetica,sans-Serif" font-size="10.00" fill="#000000">A_CO_DB\get_single</text>
<text text-anchor="middle" x="68.8765" y="-63.5" font-family="Helvetica,sans-Serif" font-size="10.00" fill="#000000">_record_by_id</text>
</a>
</g>
</g>
<!-- Node10&#45;&gt;Node11 -->
<g id="edge10" class="edge">
<title>Node10&#45;&gt;Node11</title>
<path fill="none" stroke="#191970" d="M174.1083,-71.5C157.6395,-71.5 140.3009,-71.5 124.5555,-71.5"/>
<polygon fill="#191970" stroke="#191970" points="174.228,-75.0001 184.228,-71.5 174.228,-68.0001 174.228,-75.0001"/>
</g>
<!-- Node13 -->
<g id="node13" class="node">
<title>Node13</title>
<g id="a_node13"><a xlink:href="a00327.html#ab01692597b11329b0d63096b10e1f473" target="_top" xlink:title=" ">
<polygon fill="#ffffff" stroke="#000000" points="0,-5.5 0,-33.5 137.7529,-33.5 137.7529,-5.5 0,-5.5"/>
<text text-anchor="start" x="8" y="-21.5" font-family="Helvetica,sans-Serif" font-size="10.00" fill="#000000">CO_Security_DB\get</text>
<text text-anchor="middle" x="68.8765" y="-11.5" font-family="Helvetica,sans-Serif" font-size="10.00" fill="#000000">_single_record_by_login_id</text>
</a>
</g>
</g>
<!-- Node12&#45;&gt;Node13 -->
<g id="edge12" class="edge">
<title>Node12&#45;&gt;Node13</title>
<path fill="none" stroke="#191970" d="M177.8505,-19.5C164.8432,-19.5 151.1646,-19.5 138.061,-19.5"/>
<polygon fill="#191970" stroke="#191970" points="178.1143,-23.0001 188.1143,-19.5 178.1143,-16.0001 178.1143,-23.0001"/>
</g>
</g>
</svg>
