<?xml version="1.0" encoding="UTF-8" standalone="no"?>
<!DOCTYPE svg PUBLIC "-//W3C//DTD SVG 1.1//EN"
 "http://www.w3.org/Graphics/SVG/1.1/DTD/svg11.dtd">
<!-- Generated by graphviz version 2.40.1 (20161225.0304)
 -->
<!-- Title: A_CO_DB\get_all_writeable_records Pages: 1 -->
<svg width="496pt" height="144pt"
 viewBox="0.00 0.00 495.97 144.00" xmlns="http://www.w3.org/2000/svg" xmlns:xlink="http://www.w3.org/1999/xlink">
<g id="graph0" class="graph" transform="scale(1 1) rotate(0) translate(4 140)">
<title>A_CO_DB\get_all_writeable_records</title>
<polygon fill="#ffffff" stroke="transparent" points="-4,4 -4,-140 491.9688,-140 491.9688,4 -4,4"/>
<!-- Node1 -->
<g id="node1" class="node">
<title>Node1</title>
<g id="a_node1"><a xlink:title=" ">
<polygon fill="#bfbfbf" stroke="#000000" points="0,-37.5 0,-65.5 140.5117,-65.5 140.5117,-37.5 0,-37.5"/>
<text text-anchor="start" x="8" y="-53.5" font-family="Helvetica,sans-Serif" font-size="10.00" fill="#000000">A_CO_DB\get_all_writeable</text>
<text text-anchor="middle" x="70.2559" y="-43.5" font-family="Helvetica,sans-Serif" font-size="10.00" fill="#000000">_records</text>
</a>
</g>
</g>
<!-- Node2 -->
<g id="node2" class="node">
<title>Node2</title>
<g id="a_node2"><a xlink:href="a00304.html#ad2356dbed1b38898d8c17bcd8eb405ef" target="_top" xlink:title=" ">
<polygon fill="#ffffff" stroke="#000000" points="176.5117,-84.5 176.5117,-112.5 315.3438,-112.5 315.3438,-84.5 176.5117,-84.5"/>
<text text-anchor="start" x="184.5117" y="-100.5" font-family="Helvetica,sans-Serif" font-size="10.00" fill="#000000">A_CO_DB\_create_security</text>
<text text-anchor="middle" x="245.9277" y="-90.5" font-family="Helvetica,sans-Serif" font-size="10.00" fill="#000000">_predicate</text>
</a>
</g>
</g>
<!-- Node1&#45;&gt;Node2 -->
<g id="edge1" class="edge">
<title>Node1&#45;&gt;Node2</title>
<path fill="none" stroke="#191970" d="M122.9632,-65.6015C142.0704,-70.7136 163.8329,-76.536 183.6844,-81.8472"/>
<polygon fill="#191970" stroke="#191970" points="182.9956,-85.2859 193.5605,-84.4894 184.8049,-78.5237 182.9956,-85.2859"/>
</g>
<!-- Node5 -->
<g id="node5" class="node">
<title>Node5</title>
<g id="a_node5"><a xlink:href="a00304.html#a523e2f40174a0bca0fc873d6286b3ae9" target="_top" xlink:title=" ">
<polygon fill="#ffffff" stroke="#000000" points="187.6226,-37.5 187.6226,-65.5 304.2329,-65.5 304.2329,-37.5 187.6226,-37.5"/>
<text text-anchor="start" x="195.6226" y="-53.5" font-family="Helvetica,sans-Serif" font-size="10.00" fill="#000000">A_CO_DB\_instantiate</text>
<text text-anchor="middle" x="245.9277" y="-43.5" font-family="Helvetica,sans-Serif" font-size="10.00" fill="#000000">_record</text>
</a>
</g>
</g>
<!-- Node1&#45;&gt;Node5 -->
<g id="edge4" class="edge">
<title>Node1&#45;&gt;Node5</title>
<path fill="none" stroke="#191970" d="M140.6961,-51.5C152.8518,-51.5 165.4705,-51.5 177.5699,-51.5"/>
<polygon fill="#191970" stroke="#191970" points="177.5898,-55.0001 187.5898,-51.5 177.5898,-48.0001 177.5898,-55.0001"/>
</g>
<!-- Node6 -->
<g id="node6" class="node">
<title>Node6</title>
<g id="a_node6"><a xlink:href="a00304.html#a2396849660aa4ff018ab7509a4badeb5" target="_top" xlink:title=" ">
<polygon fill="#ffffff" stroke="#000000" points="180.396,-.5 180.396,-18.5 311.4595,-18.5 311.4595,-.5 180.396,-.5"/>
<text text-anchor="middle" x="245.9277" y="-6.5" font-family="Helvetica,sans-Serif" font-size="10.00" fill="#000000">A_CO_DB\execute_query</text>
</a>
</g>
</g>
<!-- Node1&#45;&gt;Node6 -->
<g id="edge5" class="edge">
<title>Node1&#45;&gt;Node6</title>
<path fill="none" stroke="#191970" d="M129.2407,-37.3978C151.6996,-32.0283 176.9893,-25.9819 198.269,-20.8944"/>
<polygon fill="#191970" stroke="#191970" points="199.1383,-24.2852 208.0503,-18.5558 197.5105,-17.4771 199.1383,-24.2852"/>
</g>
<!-- Node3 -->
<g id="node3" class="node">
<title>Node3</title>
<g id="a_node3"><a xlink:href="a00304.html#a176b2c663fa7768e95e4fbe93281adc6" target="_top" xlink:title=" ">
<polygon fill="#ffffff" stroke="#000000" points="357.4595,-107.5 357.4595,-135.5 481.853,-135.5 481.853,-107.5 357.4595,-107.5"/>
<text text-anchor="start" x="365.4595" y="-123.5" font-family="Helvetica,sans-Serif" font-size="10.00" fill="#000000">A_CO_DB\_create_read</text>
<text text-anchor="middle" x="419.6563" y="-113.5" font-family="Helvetica,sans-Serif" font-size="10.00" fill="#000000">_security_predicate</text>
</a>
</g>
</g>
<!-- Node2&#45;&gt;Node3 -->
<g id="edge2" class="edge">
<title>Node2&#45;&gt;Node3</title>
<path fill="none" stroke="#191970" d="M315.5888,-107.7225C326.0332,-109.1052 336.8233,-110.5337 347.3219,-111.9236"/>
<polygon fill="#191970" stroke="#191970" points="346.9047,-115.3988 357.2775,-113.2417 347.8234,-108.4594 346.9047,-115.3988"/>
</g>
<!-- Node4 -->
<g id="node4" class="node">
<title>Node4</title>
<g id="a_node4"><a xlink:href="a00304.html#ad4bc3d416f085818935b32a814313202" target="_top" xlink:title=" ">
<polygon fill="#ffffff" stroke="#000000" points="356.9102,-60.5 356.9102,-88.5 482.4023,-88.5 482.4023,-60.5 356.9102,-60.5"/>
<text text-anchor="start" x="364.9102" y="-76.5" font-family="Helvetica,sans-Serif" font-size="10.00" fill="#000000">A_CO_DB\_create_write</text>
<text text-anchor="middle" x="419.6563" y="-66.5" font-family="Helvetica,sans-Serif" font-size="10.00" fill="#000000">_security_predicate</text>
</a>
</g>
</g>
<!-- Node2&#45;&gt;Node4 -->
<g id="edge3" class="edge">
<title>Node2&#45;&gt;Node4</title>
<path fill="none" stroke="#191970" d="M315.5888,-88.8766C325.7839,-87.4681 336.3084,-86.0142 346.5697,-84.5967"/>
<polygon fill="#191970" stroke="#191970" points="347.2944,-88.0299 356.7214,-83.1942 346.3364,-81.0957 347.2944,-88.0299"/>
</g>
<!-- Node7 -->
<g id="node7" class="node">
<title>Node7</title>
<g id="a_node7"><a xlink:href="a00304.html#ae41efbdfe739934823b5f4c785b22611" target="_top" xlink:title=" ">
<polygon fill="#ffffff" stroke="#000000" points="351.3438,-.5 351.3438,-18.5 487.9688,-18.5 487.9688,-.5 351.3438,-.5"/>
<text text-anchor="middle" x="419.6563" y="-6.5" font-family="Helvetica,sans-Serif" font-size="10.00" fill="#000000">A_CO_DB\_execute_query</text>
</a>
</g>
</g>
<!-- Node6&#45;&gt;Node7 -->
<g id="edge6" class="edge">
<title>Node6&#45;&gt;Node7</title>
<path fill="none" stroke="#191970" d="M311.607,-9.5C321.2346,-9.5 331.2319,-9.5 341.0855,-9.5"/>
<polygon fill="#191970" stroke="#191970" points="341.2806,-13.0001 351.2805,-9.5 341.2805,-6.0001 341.2806,-13.0001"/>
</g>
</g>
</svg>
