<?xml version="1.0" encoding="UTF-8" standalone="no"?>
<!DOCTYPE svg PUBLIC "-//W3C//DTD SVG 1.1//EN"
 "http://www.w3.org/Graphics/SVG/1.1/DTD/svg11.dtd">
<!-- Generated by graphviz version 2.47.1 (20210417.1919)
 -->
<!-- Title: A_CO_DB\get_single_record_by_id Pages: 1 -->
<svg width="618pt" height="151pt"
 viewBox="0.00 0.00 618.00 150.50" xmlns="http://www.w3.org/2000/svg" xmlns:xlink="http://www.w3.org/1999/xlink">
<g id="graph0" class="graph" transform="scale(1 1) rotate(0) translate(4 146.5)">
<title>A_CO_DB\get_single_record_by_id</title>
<polygon fill="white" stroke="transparent" points="-4,4 -4,-146.5 614,-146.5 614,4 -4,4"/>
<!-- Node1 -->
<g id="node1" class="node">
<title>Node1</title>
<g id="a_node1"><a xlink:title=" ">
<polygon fill="#bfbfbf" stroke="black" points="0,-39 0,-69 110,-69 110,-39 0,-39"/>
<text text-anchor="start" x="8" y="-57" font-family="Helvetica,sans-Serif" font-size="10.00">A_CO_DB\get_single</text>
<text text-anchor="middle" x="55" y="-46" font-family="Helvetica,sans-Serif" font-size="10.00">_record_by_id</text>
</a>
</g>
</g>
<!-- Node2 -->
<g id="node2" class="node">
<title>Node2</title>
<g id="a_node2"><a xlink:href="a00304.html#aaca8bf49257aa5ade3c354ef76119fa4" target="_top" xlink:title=" ">
<polygon fill="white" stroke="black" points="146,-39 146,-69 265,-69 265,-39 146,-39"/>
<text text-anchor="start" x="154" y="-57" font-family="Helvetica,sans-Serif" font-size="10.00">A_CO_DB\get_multiple</text>
<text text-anchor="middle" x="205.5" y="-46" font-family="Helvetica,sans-Serif" font-size="10.00">_records_by_id</text>
</a>
</g>
</g>
<!-- Node1&#45;&gt;Node2 -->
<g id="edge1" class="edge">
<title>Node1&#45;&gt;Node2</title>
<path fill="none" stroke="midnightblue" d="M110.03,-54C118.44,-54 127.21,-54 135.89,-54"/>
<polygon fill="midnightblue" stroke="midnightblue" points="136,-57.5 146,-54 136,-50.5 136,-57.5"/>
</g>
<!-- Node3 -->
<g id="node3" class="node">
<title>Node3</title>
<g id="a_node3"><a xlink:href="a00304.html#ad2356dbed1b38898d8c17bcd8eb405ef" target="_top" xlink:title=" ">
<polygon fill="white" stroke="black" points="301,-88 301,-118 439,-118 439,-88 301,-88"/>
<text text-anchor="start" x="309" y="-106" font-family="Helvetica,sans-Serif" font-size="10.00">A_CO_DB\_create_security</text>
<text text-anchor="middle" x="370" y="-95" font-family="Helvetica,sans-Serif" font-size="10.00">_predicate</text>
</a>
</g>
</g>
<!-- Node2&#45;&gt;Node3 -->
<g id="edge2" class="edge">
<title>Node2&#45;&gt;Node3</title>
<path fill="none" stroke="midnightblue" d="M256.58,-69.1C273.19,-74.11 291.84,-79.73 309.1,-84.94"/>
<polygon fill="midnightblue" stroke="midnightblue" points="308.5,-88.41 319.08,-87.95 310.52,-81.71 308.5,-88.41"/>
</g>
<!-- Node6 -->
<g id="node6" class="node">
<title>Node6</title>
<g id="a_node6"><a xlink:href="a00304.html#a523e2f40174a0bca0fc873d6286b3ae9" target="_top" xlink:title=" ">
<polygon fill="white" stroke="black" points="312,-39 312,-69 428,-69 428,-39 312,-39"/>
<text text-anchor="start" x="320" y="-57" font-family="Helvetica,sans-Serif" font-size="10.00">A_CO_DB\_instantiate</text>
<text text-anchor="middle" x="370" y="-46" font-family="Helvetica,sans-Serif" font-size="10.00">_record</text>
</a>
</g>
</g>
<!-- Node2&#45;&gt;Node6 -->
<g id="edge5" class="edge">
<title>Node2&#45;&gt;Node6</title>
<path fill="none" stroke="midnightblue" d="M265.17,-54C277.03,-54 289.59,-54 301.72,-54"/>
<polygon fill="midnightblue" stroke="midnightblue" points="301.78,-57.5 311.78,-54 301.78,-50.5 301.78,-57.5"/>
</g>
<!-- Node7 -->
<g id="node7" class="node">
<title>Node7</title>
<g id="a_node7"><a xlink:href="a00304.html#a2396849660aa4ff018ab7509a4badeb5" target="_top" xlink:title=" ">
<polygon fill="white" stroke="black" points="305,-0.5 305,-19.5 435,-19.5 435,-0.5 305,-0.5"/>
<text text-anchor="middle" x="370" y="-7.5" font-family="Helvetica,sans-Serif" font-size="10.00">A_CO_DB\execute_query</text>
</a>
</g>
</g>
<!-- Node2&#45;&gt;Node7 -->
<g id="edge6" class="edge">
<title>Node2&#45;&gt;Node7</title>
<path fill="none" stroke="midnightblue" d="M261.97,-38.98C282.17,-33.51 304.74,-27.4 323.93,-22.2"/>
<polygon fill="midnightblue" stroke="midnightblue" points="324.89,-25.57 333.63,-19.58 323.06,-18.81 324.89,-25.57"/>
</g>
<!-- Node4 -->
<g id="node4" class="node">
<title>Node4</title>
<g id="a_node4"><a xlink:href="a00304.html#a176b2c663fa7768e95e4fbe93281adc6" target="_top" xlink:title=" ">
<polygon fill="white" stroke="black" points="481.5,-112 481.5,-142 603.5,-142 603.5,-112 481.5,-112"/>
<text text-anchor="start" x="489.5" y="-130" font-family="Helvetica,sans-Serif" font-size="10.00">A_CO_DB\_create_read</text>
<text text-anchor="middle" x="542.5" y="-119" font-family="Helvetica,sans-Serif" font-size="10.00">_security_predicate</text>
</a>
</g>
</g>
<!-- Node3&#45;&gt;Node4 -->
<g id="edge3" class="edge">
<title>Node3&#45;&gt;Node4</title>
<path fill="none" stroke="midnightblue" d="M439.37,-112.62C449.9,-114.11 460.79,-115.64 471.36,-117.13"/>
<polygon fill="midnightblue" stroke="midnightblue" points="470.98,-120.61 481.37,-118.54 471.95,-113.68 470.98,-120.61"/>
</g>
<!-- Node5 -->
<g id="node5" class="node">
<title>Node5</title>
<g id="a_node5"><a xlink:href="a00304.html#ad4bc3d416f085818935b32a814313202" target="_top" xlink:title=" ">
<polygon fill="white" stroke="black" points="480,-63 480,-93 605,-93 605,-63 480,-63"/>
<text text-anchor="start" x="488" y="-81" font-family="Helvetica,sans-Serif" font-size="10.00">A_CO_DB\_create_write</text>
<text text-anchor="middle" x="542.5" y="-70" font-family="Helvetica,sans-Serif" font-size="10.00">_security_predicate</text>
</a>
</g>
</g>
<!-- Node3&#45;&gt;Node5 -->
<g id="edge4" class="edge">
<title>Node3&#45;&gt;Node5</title>
<path fill="none" stroke="midnightblue" d="M439.37,-92.98C449.37,-91.51 459.7,-89.99 469.77,-88.52"/>
<polygon fill="midnightblue" stroke="midnightblue" points="470.35,-91.97 479.73,-87.06 469.33,-85.04 470.35,-91.97"/>
</g>
<!-- Node8 -->
<g id="node8" class="node">
<title>Node8</title>
<g id="a_node8"><a xlink:href="a00304.html#ae41efbdfe739934823b5f4c785b22611" target="_top" xlink:title=" ">
<polygon fill="white" stroke="black" points="475,-0.5 475,-19.5 610,-19.5 610,-0.5 475,-0.5"/>
<text text-anchor="middle" x="542.5" y="-7.5" font-family="Helvetica,sans-Serif" font-size="10.00">A_CO_DB\_execute_query</text>
</a>
</g>
</g>
<!-- Node7&#45;&gt;Node8 -->
<g id="edge7" class="edge">
<title>Node7&#45;&gt;Node8</title>
<path fill="none" stroke="midnightblue" d="M435.46,-10C445.05,-10 455.01,-10 464.82,-10"/>
<polygon fill="midnightblue" stroke="midnightblue" points="464.96,-13.5 474.96,-10 464.96,-6.5 464.96,-13.5"/>
</g>
</g>
</svg>
