<?xml version="1.0" encoding="UTF-8" standalone="no"?>
<!DOCTYPE svg PUBLIC "-//W3C//DTD SVG 1.1//EN"
 "http://www.w3.org/Graphics/SVG/1.1/DTD/svg11.dtd">
<!-- Generated by graphviz version 2.40.1 (20161225.0304)
 -->
<!-- Title: CO_Security_Login\set_lang Pages: 1 -->
<!--zoomable 211 -->
<svg id="main" version="1.1" xmlns="http://www.w3.org/2000/svg" xmlns:xlink="http://www.w3.org/1999/xlink" xml:space="preserve" onload="init(evt)">
<style type="text/css"><![CDATA[
.edge:hover path { stroke: red; }
.edge:hover polygon { stroke: red; fill: red; }
]]></style>
<script type="text/javascript"><![CDATA[
var edges = document.getElementsByTagName('g');
if (edges && edges.length) {
  for (var i=0;i<edges.length;i++) {
    if (edges[i].id.substr(0,4)=='edge') {
      edges[i].setAttribute('class','edge');
    }
  }
}
]]></script>
        <defs>
                <circle id="rim" cx="0" cy="0" r="7"/>
                <circle id="rim2" cx="0" cy="0" r="3.5"/>
                <g id="zoomPlus">
                        <use xlink:href="#rim" fill="#404040">
                                <set attributeName="fill" to="#808080" begin="zoomplus.mouseover" end="zoomplus.mouseout"/>
                        </use>
                        <path d="M-4,0h8M0,-4v8" fill="none" stroke="white" stroke-width="1.5" pointer-events="none"/>
                </g>
                <g id="zoomMin">
                        <use xlink:href="#rim" fill="#404040">
                                <set attributeName="fill" to="#808080" begin="zoomminus.mouseover" end="zoomminus.mouseout"/>
                        </use>
                        <path d="M-4,0h8" fill="none" stroke="white" stroke-width="1.5" pointer-events="none"/>
                </g>
                <g id="dirArrow">
                        <path fill="none" stroke="white" stroke-width="1.5" d="M0,-3.0v7 M-2.5,-0.5L0,-3.0L2.5,-0.5"/>
                </g>
               <g id="resetDef">
                       <use xlink:href="#rim2" fill="#404040">
                               <set attributeName="fill" to="#808080" begin="reset.mouseover" end="reset.mouseout"/>
                       </use>
               </g>
        </defs>

<script type="text/javascript">
var viewWidth = 797;
var viewHeight = 211;
var sectionId = 'dynsection-18';
</script>
<script xlink:href="svgpan.js"/>
<svg id="graph" class="graph">
<g id="viewport">
<title>CO_Security_Login\set_lang</title>
<polygon fill="#ffffff" stroke="transparent" points="-4,4 -4,-207 792.7705,-207 792.7705,4 -4,4"/>
<!-- Node1 -->
<g id="node1" class="node">
<title>Node1</title>
<g id="a_node1"><a xlink:title=" ">
<polygon fill="#bfbfbf" stroke="#000000" points="0,-69.5 0,-87.5 143.2998,-87.5 143.2998,-69.5 0,-69.5"/>
<text text-anchor="middle" x="71.6499" y="-75.5" font-family="Helvetica,sans-Serif" font-size="10.00" fill="#000000">CO_Security_Login\set_lang</text>
</a>
</g>
</g>
<!-- Node2 -->
<g id="node2" class="node">
<title>Node2</title>
<g id="a_node2"><a xlink:href="a00311.html#a7487697640051c6661b8cdca6f109959" target="_top" xlink:title=" ">
<polygon fill="#ffffff" stroke="#000000" points="181.519,-88.5 181.519,-116.5 302.0259,-116.5 302.0259,-88.5 181.519,-88.5"/>
<text text-anchor="start" x="189.519" y="-104.5" font-family="Helvetica,sans-Serif" font-size="10.00" fill="#000000">A_CO_DB_Table_Base</text>
<text text-anchor="middle" x="241.7725" y="-94.5" font-family="Helvetica,sans-Serif" font-size="10.00" fill="#000000">\update_db</text>
</a>
</g>
</g>
<!-- Node1&#45;&gt;Node2 -->
<g id="edge1" class="edge">
<title>Node1&#45;&gt;Node2</title>
<path fill="none" stroke="#191970" d="M135.4813,-87.505C147.0759,-89.1407 159.2327,-90.8557 171.0128,-92.5176"/>
<polygon fill="#191970" stroke="#191970" points="170.8535,-96.0297 181.2444,-93.961 171.8314,-89.0983 170.8535,-96.0297"/>
</g>
<!-- Node9 -->
<g id="node9" class="node">
<title>Node9</title>
<g id="a_node9"><a xlink:href="a00343.html#aba256552040dd8af7196f0fea2a58609" target="_top" xlink:title=" ">
<polygon fill="#ffffff" stroke="#000000" points="179.2998,-41.5 179.2998,-69.5 304.2451,-69.5 304.2451,-41.5 179.2998,-41.5"/>
<text text-anchor="start" x="187.2998" y="-57.5" font-family="Helvetica,sans-Serif" font-size="10.00" fill="#000000">CO_Security_Login\user</text>
<text text-anchor="middle" x="241.7725" y="-47.5" font-family="Helvetica,sans-Serif" font-size="10.00" fill="#000000">_can_write</text>
</a>
</g>
</g>
<!-- Node1&#45;&gt;Node9 -->
<g id="edge10" class="edge">
<title>Node1&#45;&gt;Node9</title>
<path fill="none" stroke="#191970" d="M138.3986,-69.4758C148.452,-68.1166 158.8638,-66.709 169.0353,-65.3338"/>
<polygon fill="#191970" stroke="#191970" points="169.6637,-68.7808 179.1046,-63.9725 168.7258,-61.8439 169.6637,-68.7808"/>
</g>
<!-- Node3 -->
<g id="node3" class="node">
<title>Node3</title>
<g id="a_node3"><a xlink:href="a00311.html#adda14b544e11934db3bf8130aeea0610" target="_top" xlink:title=" ">
<polygon fill="#ffffff" stroke="#000000" points="340.2451,-133.5 340.2451,-161.5 460.752,-161.5 460.752,-133.5 340.2451,-133.5"/>
<text text-anchor="start" x="348.2451" y="-149.5" font-family="Helvetica,sans-Serif" font-size="10.00" fill="#000000">A_CO_DB_Table_Base</text>
<text text-anchor="middle" x="400.4985" y="-139.5" font-family="Helvetica,sans-Serif" font-size="10.00" fill="#000000">\_write_to_db</text>
</a>
</g>
</g>
<!-- Node2&#45;&gt;Node3 -->
<g id="edge2" class="edge">
<title>Node2&#45;&gt;Node3</title>
<path fill="none" stroke="#191970" d="M291.5589,-116.6148C307.2192,-121.0546 324.6725,-126.0028 340.9399,-130.6147"/>
<polygon fill="#191970" stroke="#191970" points="340.3133,-134.0749 350.8888,-133.4353 342.2226,-127.3403 340.3133,-134.0749"/>
</g>
<!-- Node8 -->
<g id="node8" class="node">
<title>Node8</title>
<g id="a_node8"><a xlink:href="a00311.html#a7d2537d7675ca572ad78096784fe4fe4" target="_top" xlink:title=" ">
<polygon fill="#ffffff" stroke="#000000" points="340.2451,-86.5 340.2451,-114.5 460.752,-114.5 460.752,-86.5 340.2451,-86.5"/>
<text text-anchor="start" x="348.2451" y="-102.5" font-family="Helvetica,sans-Serif" font-size="10.00" fill="#000000">A_CO_DB_Table_Base</text>
<text text-anchor="middle" x="400.4985" y="-92.5" font-family="Helvetica,sans-Serif" font-size="10.00" fill="#000000">\user_can_write</text>
</a>
</g>
</g>
<!-- Node2&#45;&gt;Node8 -->
<g id="edge8" class="edge">
<title>Node2&#45;&gt;Node8</title>
<path fill="none" stroke="#191970" d="M302.2328,-101.7382C311.3688,-101.6231 320.8596,-101.5035 330.1818,-101.386"/>
<polygon fill="#191970" stroke="#191970" points="330.2512,-104.8855 340.2063,-101.2597 330.163,-97.8861 330.2512,-104.8855"/>
</g>
<!-- Node4 -->
<g id="node4" class="node">
<title>Node4</title>
<g id="a_node4"><a xlink:href="a00311.html#a6109c37c5e61ab04ea710b1ebb7615a5" target="_top" xlink:title=" ">
<polygon fill="#ffffff" stroke="#000000" points="496.752,-174.5 496.752,-202.5 621.7021,-202.5 621.7021,-174.5 496.752,-174.5"/>
<text text-anchor="start" x="504.752" y="-190.5" font-family="Helvetica,sans-Serif" font-size="10.00" fill="#000000">A_CO_DB_Table_Base</text>
<text text-anchor="middle" x="559.2271" y="-180.5" font-family="Helvetica,sans-Serif" font-size="10.00" fill="#000000">\_build_parameter_array</text>
</a>
</g>
</g>
<!-- Node3&#45;&gt;Node4 -->
<g id="edge3" class="edge">
<title>Node3&#45;&gt;Node4</title>
<path fill="none" stroke="#191970" d="M455.1239,-161.6099C467.9154,-164.914 481.6596,-168.4641 494.8329,-171.8668"/>
<polygon fill="#191970" stroke="#191970" points="494.2124,-175.3214 504.77,-174.4336 495.9631,-168.5438 494.2124,-175.3214"/>
</g>
<!-- Node6 -->
<g id="node6" class="node">
<title>Node6</title>
<g id="a_node6"><a xlink:href="a00311.html#a78affe18a811930d4012fd265e95cdca" target="_top" xlink:title=" ">
<polygon fill="#ffffff" stroke="#000000" points="657.7021,-137.5 657.7021,-155.5 788.7705,-155.5 788.7705,-137.5 657.7021,-137.5"/>
<text text-anchor="middle" x="723.2363" y="-143.5" font-family="Helvetica,sans-Serif" font-size="10.00" fill="#000000">A_CO_DB_Table_Base\id</text>
</a>
</g>
</g>
<!-- Node3&#45;&gt;Node6 -->
<g id="edge7" class="edge">
<title>Node3&#45;&gt;Node6</title>
<path fill="none" stroke="#191970" d="M460.8244,-147.3131C513.6627,-147.1494 590.6858,-146.9107 647.6276,-146.7343"/>
<polygon fill="#191970" stroke="#191970" points="647.6683,-150.2343 657.6574,-146.7032 647.6466,-143.2343 647.6683,-150.2343"/>
</g>
<!-- Node7 -->
<g id="node7" class="node">
<title>Node7</title>
<g id="a_node7"><a xlink:href="a00311.html#a8780b40e55827b90bb441671faec2a05" target="_top" xlink:title=" ">
<polygon fill="#ffffff" stroke="#000000" points="498.9736,-86.5 498.9736,-114.5 619.4805,-114.5 619.4805,-86.5 498.9736,-86.5"/>
<text text-anchor="start" x="506.9736" y="-102.5" font-family="Helvetica,sans-Serif" font-size="10.00" fill="#000000">A_CO_DB_Table_Base</text>
<text text-anchor="middle" x="559.2271" y="-92.5" font-family="Helvetica,sans-Serif" font-size="10.00" fill="#000000">\get_access_object</text>
</a>
</g>
</g>
<!-- Node3&#45;&gt;Node7 -->
<g id="edge6" class="edge">
<title>Node3&#45;&gt;Node7</title>
<path fill="none" stroke="#191970" d="M448.1223,-133.3985C465.1502,-128.3565 484.5119,-122.6234 502.2489,-117.3714"/>
<polygon fill="#191970" stroke="#191970" points="503.3158,-120.7058 511.9106,-114.5106 501.3283,-113.9938 503.3158,-120.7058"/>
</g>
<!-- Node5 -->
<g id="node5" class="node">
<title>Node5</title>
<g id="a_node5"><a xlink:href="a00311.html#afb32d1e32b8e1c1de2e008c9b88f7846" target="_top" xlink:title=" ">
<polygon fill="#ffffff" stroke="#000000" points="662.9829,-174.5 662.9829,-202.5 783.4897,-202.5 783.4897,-174.5 662.9829,-174.5"/>
<text text-anchor="start" x="670.9829" y="-190.5" font-family="Helvetica,sans-Serif" font-size="10.00" fill="#000000">A_CO_DB_Table_Base</text>
<text text-anchor="middle" x="723.2363" y="-180.5" font-family="Helvetica,sans-Serif" font-size="10.00" fill="#000000">\_badger_serialize</text>
</a>
</g>
</g>
<!-- Node4&#45;&gt;Node5 -->
<g id="edge4" class="edge">
<title>Node4&#45;&gt;Node5</title>
<path fill="none" stroke="#191970" d="M622.1683,-188.5C632.1954,-188.5 642.6252,-188.5 652.8117,-188.5"/>
<polygon fill="#191970" stroke="#191970" points="652.8932,-192.0001 662.8931,-188.5 652.8931,-185.0001 652.8932,-192.0001"/>
</g>
<!-- Node4&#45;&gt;Node6 -->
<g id="edge5" class="edge">
<title>Node4&#45;&gt;Node6</title>
<path fill="none" stroke="#191970" d="M614.296,-174.3978C634.9,-169.1214 658.056,-163.1916 677.7039,-158.1601"/>
<polygon fill="#191970" stroke="#191970" points="678.8075,-161.4905 687.6266,-155.619 677.0709,-154.7093 678.8075,-161.4905"/>
</g>
<!-- Node8&#45;&gt;Node7 -->
<g id="edge9" class="edge">
<title>Node8&#45;&gt;Node7</title>
<path fill="none" stroke="#191970" d="M460.9598,-100.5C470.0959,-100.5 479.5869,-100.5 488.9092,-100.5"/>
<polygon fill="#191970" stroke="#191970" points="488.9339,-104.0001 498.9339,-100.5 488.9339,-97.0001 488.9339,-104.0001"/>
</g>
<!-- Node9&#45;&gt;Node7 -->
<g id="edge11" class="edge">
<title>Node9&#45;&gt;Node7</title>
<path fill="none" stroke="#191970" d="M304.3534,-59.626C348.3053,-63.0504 408.3614,-68.7876 460.752,-77.5 471.8697,-79.3489 483.604,-81.7167 494.9464,-84.2271"/>
<polygon fill="#191970" stroke="#191970" points="494.2611,-87.6605 504.7877,-86.4604 495.8103,-80.8341 494.2611,-87.6605"/>
</g>
<!-- Node10 -->
<g id="node10" class="node">
<title>Node10</title>
<g id="a_node10"><a xlink:href="a00343.html#a03304936652c2c606c411c7c6a0f0c7f" target="_top" xlink:title=" ">
<polygon fill="#ffffff" stroke="#000000" points="346.6416,-.5 346.6416,-28.5 454.3555,-28.5 454.3555,-.5 346.6416,-.5"/>
<text text-anchor="start" x="354.6416" y="-16.5" font-family="Helvetica,sans-Serif" font-size="10.00" fill="#000000">CO_Security_Login\i</text>
<text text-anchor="middle" x="400.4985" y="-6.5" font-family="Helvetica,sans-Serif" font-size="10.00" fill="#000000">_am_a_god</text>
</a>
</g>
</g>
<!-- Node9&#45;&gt;Node10 -->
<g id="edge12" class="edge">
<title>Node9&#45;&gt;Node10</title>
<path fill="none" stroke="#191970" d="M296.397,-41.3901C309.3312,-38.0491 323.2396,-34.4565 336.5467,-31.0192"/>
<polygon fill="#191970" stroke="#191970" points="337.7726,-34.3175 346.5795,-28.4277 336.0219,-27.5399 337.7726,-34.3175"/>
</g>
</g>
</svg>
        <g id="navigator" transform="translate(0 0)" fill="#404254">
                <rect fill="#f2f5e9" fill-opacity="0.5" stroke="#606060" stroke-width=".5" x="0" y="0" width="60" height="60"/>
                <use id="zoomplus" xlink:href="#zoomPlus" x="17" y="9" onmousedown="handleZoom(evt,'in')"/>
                <use id="zoomminus" xlink:href="#zoomMin" x="42" y="9" onmousedown="handleZoom(evt,'out')"/>
                <use id="reset" xlink:href="#resetDef" x="30" y="36" onmousedown="handleReset()"/>
                <g id="arrowUp" xlink:href="#dirArrow" transform="translate(30 24)" onmousedown="handlePan(0,-1)">
                  <use xlink:href="#rim" fill="#404040">
                        <set attributeName="fill" to="#808080" begin="arrowUp.mouseover" end="arrowUp.mouseout"/>
                  </use>
                  <path fill="none" stroke="white" stroke-width="1.5" d="M0,-3.0v7 M-2.5,-0.5L0,-3.0L2.5,-0.5"/>
                </g>
                <g id="arrowRight" xlink:href="#dirArrow" transform="rotate(90) translate(36 -43)" onmousedown="handlePan(1,0)">
                  <use xlink:href="#rim" fill="#404040">
                        <set attributeName="fill" to="#808080" begin="arrowRight.mouseover" end="arrowRight.mouseout"/>
                  </use>
                  <path fill="none" stroke="white" stroke-width="1.5" d="M0,-3.0v7 M-2.5,-0.5L0,-3.0L2.5,-0.5"/>
                </g>
                <g id="arrowDown" xlink:href="#dirArrow" transform="rotate(180) translate(-30 -48)" onmousedown="handlePan(0,1)">
                  <use xlink:href="#rim" fill="#404040">
                        <set attributeName="fill" to="#808080" begin="arrowDown.mouseover" end="arrowDown.mouseout"/>
                  </use>
                  <path fill="none" stroke="white" stroke-width="1.5" d="M0,-3.0v7 M-2.5,-0.5L0,-3.0L2.5,-0.5"/>
                </g>
                <g id="arrowLeft" xlink:href="#dirArrow" transform="rotate(270) translate(-36 17)" onmousedown="handlePan(-1,0)">
                  <use xlink:href="#rim" fill="#404040">
                        <set attributeName="fill" to="#808080" begin="arrowLeft.mouseover" end="arrowLeft.mouseout"/>
                  </use>
                  <path fill="none" stroke="white" stroke-width="1.5" d="M0,-3.0v7 M-2.5,-0.5L0,-3.0L2.5,-0.5"/>
                </g>
        </g>
        <svg viewBox="0 0 15 15" width="100%" height="30px" preserveAspectRatio="xMaxYMin meet">
         <g id="arrow_out" transform="scale(0.3 0.3)">
          <a xlink:href="a00343_a061f896c69dc8a8dd3d9ee793b91ddc7_cgraph_org.svg" target="_base">
           <rect id="button" ry="5" rx="5" y="6" x="6" height="38" width="38"
                fill="#f2f5e9" fill-opacity="0.5" stroke="#606060" stroke-width="1.0"/>
           <path id="arrow"
             d="M 11.500037,31.436501 C 11.940474,20.09759 22.043105,11.32322 32.158766,21.979434 L 37.068811,17.246167 C 37.068811,17.246167 37.088388,32 37.088388,32 L 22.160133,31.978069 C 22.160133,31.978069 26.997745,27.140456 26.997745,27.140456 C 18.528582,18.264221 13.291696,25.230495 11.500037,31.436501 z"
             style="fill:#404040;"/>
          </a>
         </g>
        </svg>
</svg>
