<?xml version="1.0" encoding="UTF-8" standalone="no"?>
<!DOCTYPE svg PUBLIC "-//W3C//DTD SVG 1.1//EN"
 "http://www.w3.org/Graphics/SVG/1.1/DTD/svg11.dtd">
<!-- Generated by graphviz version 2.47.1 (20210417.1919)
 -->
<!-- Title: CO_Security_Login\remove_id Pages: 1 -->
<svg width="966pt" height="231pt"
 viewBox="0.00 0.00 966.00 230.50" xmlns="http://www.w3.org/2000/svg" xmlns:xlink="http://www.w3.org/1999/xlink">
<g id="graph0" class="graph" transform="scale(1 1) rotate(0) translate(4 226.5)">
<title>CO_Security_Login\remove_id</title>
<polygon fill="white" stroke="transparent" points="-4,4 -4,-226.5 962,-226.5 962,4 -4,4"/>
<!-- Node1 -->
<g id="node1" class="node">
<title>Node1</title>
<g id="a_node1"><a xlink:title=" ">
<polygon fill="#bfbfbf" stroke="black" points="0,-153.5 0,-172.5 149,-172.5 149,-153.5 0,-153.5"/>
<text text-anchor="middle" x="74.5" y="-160.5" font-family="Helvetica,sans-Serif" font-size="10.00">CO_Security_Login\remove_id</text>
</a>
</g>
</g>
<!-- Node2 -->
<g id="node2" class="node">
<title>Node2</title>
<g id="a_node2"><a xlink:href="a00308.html#a8780b40e55827b90bb441671faec2a05" target="_top" xlink:title=" ">
<polygon fill="white" stroke="black" points="672,-110 672,-140 791,-140 791,-110 672,-110"/>
<text text-anchor="start" x="680" y="-128" font-family="Helvetica,sans-Serif" font-size="10.00">A_CO_DB_Table_Base</text>
<text text-anchor="middle" x="731.5" y="-117" font-family="Helvetica,sans-Serif" font-size="10.00">\get_access_object</text>
</a>
</g>
</g>
<!-- Node1&#45;&gt;Node2 -->
<g id="edge1" class="edge">
<title>Node1&#45;&gt;Node2</title>
<path fill="none" stroke="midnightblue" d="M149.43,-162.24C256.66,-160.6 461.5,-155.4 635,-139 643.67,-138.18 652.75,-137.12 661.72,-135.94"/>
<polygon fill="midnightblue" stroke="midnightblue" points="662.34,-139.39 671.77,-134.58 661.39,-132.46 662.34,-139.39"/>
</g>
<!-- Node3 -->
<g id="node3" class="node">
<title>Node3</title>
<g id="a_node3"><a xlink:href="a00340.html#a1a141bb2d1d8b67737119e0729c7d159" target="_top" xlink:title=" ">
<polygon fill="white" stroke="black" points="185,-115.5 185,-134.5 321,-134.5 321,-115.5 185,-115.5"/>
<text text-anchor="middle" x="253" y="-122.5" font-family="Helvetica,sans-Serif" font-size="10.00">CO_Security_Login\set_ids</text>
</a>
</g>
</g>
<!-- Node1&#45;&gt;Node3 -->
<g id="edge2" class="edge">
<title>Node1&#45;&gt;Node3</title>
<path fill="none" stroke="midnightblue" d="M120.04,-153.41C143.64,-148.33 172.83,-142.04 197.75,-136.68"/>
<polygon fill="midnightblue" stroke="midnightblue" points="198.74,-140.05 207.78,-134.52 197.27,-133.2 198.74,-140.05"/>
</g>
<!-- Node10 -->
<g id="node10" class="node">
<title>Node10</title>
<g id="a_node10"><a xlink:href="a00340.html#a946d1fc04964f6f0b55c8cc018bf2c70" target="_top" xlink:title=" ">
<polygon fill="white" stroke="black" points="357,-192 357,-222 480,-222 480,-192 357,-192"/>
<text text-anchor="start" x="365" y="-210" font-family="Helvetica,sans-Serif" font-size="10.00">CO_Security_Login\user</text>
<text text-anchor="middle" x="418.5" y="-199" font-family="Helvetica,sans-Serif" font-size="10.00">_can_edit_ids</text>
</a>
</g>
</g>
<!-- Node1&#45;&gt;Node10 -->
<g id="edge15" class="edge">
<title>Node1&#45;&gt;Node10</title>
<path fill="none" stroke="midnightblue" d="M149.29,-172.49C207.82,-180.02 289.12,-190.48 346.83,-197.91"/>
<polygon fill="midnightblue" stroke="midnightblue" points="346.59,-201.41 356.96,-199.21 347.49,-194.46 346.59,-201.41"/>
</g>
<!-- Node3&#45;&gt;Node2 -->
<g id="edge3" class="edge">
<title>Node3&#45;&gt;Node2</title>
<path fill="none" stroke="midnightblue" d="M321.01,-125C411.1,-125 570.46,-125 661.54,-125"/>
<polygon fill="midnightblue" stroke="midnightblue" points="661.76,-128.5 671.76,-125 661.75,-121.5 661.76,-128.5"/>
</g>
<!-- Node4 -->
<g id="node4" class="node">
<title>Node4</title>
<g id="a_node4"><a xlink:href="a00308.html#a7487697640051c6661b8cdca6f109959" target="_top" xlink:title=" ">
<polygon fill="white" stroke="black" points="359,-66 359,-96 478,-96 478,-66 359,-66"/>
<text text-anchor="start" x="367" y="-84" font-family="Helvetica,sans-Serif" font-size="10.00">A_CO_DB_Table_Base</text>
<text text-anchor="middle" x="418.5" y="-73" font-family="Helvetica,sans-Serif" font-size="10.00">\update_db</text>
</a>
</g>
</g>
<!-- Node3&#45;&gt;Node4 -->
<g id="edge4" class="edge">
<title>Node3&#45;&gt;Node4</title>
<path fill="none" stroke="midnightblue" d="M289.48,-115.45C307.72,-110.54 330.55,-104.4 351.86,-98.67"/>
<polygon fill="midnightblue" stroke="midnightblue" points="352.77,-102.04 361.52,-96.07 350.95,-95.28 352.77,-102.04"/>
</g>
<!-- Node3&#45;&gt;Node10 -->
<g id="edge13" class="edge">
<title>Node3&#45;&gt;Node10</title>
<path fill="none" stroke="midnightblue" d="M273.08,-134.57C298.79,-147.46 345.19,-170.74 378.46,-187.42"/>
<polygon fill="midnightblue" stroke="midnightblue" points="376.96,-190.59 387.47,-191.94 380.1,-184.33 376.96,-190.59"/>
</g>
<!-- Node5 -->
<g id="node5" class="node">
<title>Node5</title>
<g id="a_node5"><a xlink:href="a00308.html#adda14b544e11934db3bf8130aeea0610" target="_top" xlink:title=" ">
<polygon fill="white" stroke="black" points="516,-17 516,-47 635,-47 635,-17 516,-17"/>
<text text-anchor="start" x="524" y="-35" font-family="Helvetica,sans-Serif" font-size="10.00">A_CO_DB_Table_Base</text>
<text text-anchor="middle" x="575.5" y="-24" font-family="Helvetica,sans-Serif" font-size="10.00">\_write_to_db</text>
</a>
</g>
</g>
<!-- Node4&#45;&gt;Node5 -->
<g id="edge5" class="edge">
<title>Node4&#45;&gt;Node5</title>
<path fill="none" stroke="midnightblue" d="M467.27,-65.9C482.96,-60.94 500.57,-55.37 516.91,-50.21"/>
<polygon fill="midnightblue" stroke="midnightblue" points="518.41,-53.4 526.89,-47.05 516.3,-46.73 518.41,-53.4"/>
</g>
<!-- Node9 -->
<g id="node9" class="node">
<title>Node9</title>
<g id="a_node9"><a xlink:href="a00308.html#a7d2537d7675ca572ad78096784fe4fe4" target="_top" xlink:title=" ">
<polygon fill="white" stroke="black" points="516,-66 516,-96 635,-96 635,-66 516,-66"/>
<text text-anchor="start" x="524" y="-84" font-family="Helvetica,sans-Serif" font-size="10.00">A_CO_DB_Table_Base</text>
<text text-anchor="middle" x="575.5" y="-73" font-family="Helvetica,sans-Serif" font-size="10.00">\user_can_write</text>
</a>
</g>
</g>
<!-- Node4&#45;&gt;Node9 -->
<g id="edge11" class="edge">
<title>Node4&#45;&gt;Node9</title>
<path fill="none" stroke="midnightblue" d="M478.1,-81C487.07,-81 496.4,-81 505.56,-81"/>
<polygon fill="midnightblue" stroke="midnightblue" points="505.82,-84.5 515.82,-81 505.82,-77.5 505.82,-84.5"/>
</g>
<!-- Node5&#45;&gt;Node2 -->
<g id="edge9" class="edge">
<title>Node5&#45;&gt;Node2</title>
<path fill="none" stroke="midnightblue" d="M616.74,-47.03C622.97,-49.78 629.24,-52.8 635,-56 659.8,-69.79 685.77,-88.9 704.36,-103.52"/>
<polygon fill="midnightblue" stroke="midnightblue" points="702.35,-106.39 712.35,-109.88 706.71,-100.91 702.35,-106.39"/>
</g>
<!-- Node6 -->
<g id="node6" class="node">
<title>Node6</title>
<g id="a_node6"><a xlink:href="a00308.html#a6109c37c5e61ab04ea710b1ebb7615a5" target="_top" xlink:title=" ">
<polygon fill="white" stroke="black" points="671,-39 671,-69 792,-69 792,-39 671,-39"/>
<text text-anchor="start" x="679" y="-57" font-family="Helvetica,sans-Serif" font-size="10.00">A_CO_DB_Table_Base</text>
<text text-anchor="middle" x="731.5" y="-46" font-family="Helvetica,sans-Serif" font-size="10.00">\_build_parameter_array</text>
</a>
</g>
</g>
<!-- Node5&#45;&gt;Node6 -->
<g id="edge6" class="edge">
<title>Node5&#45;&gt;Node6</title>
<path fill="none" stroke="midnightblue" d="M635.16,-40.38C643.59,-41.58 652.33,-42.83 660.95,-44.06"/>
<polygon fill="midnightblue" stroke="midnightblue" points="660.59,-47.55 670.98,-45.5 661.58,-40.62 660.59,-47.55"/>
</g>
<!-- Node8 -->
<g id="node8" class="node">
<title>Node8</title>
<g id="a_node8"><a xlink:href="a00308.html#a78affe18a811930d4012fd265e95cdca" target="_top" xlink:title=" ">
<polygon fill="white" stroke="black" points="828,-0.5 828,-19.5 958,-19.5 958,-0.5 828,-0.5"/>
<text text-anchor="middle" x="893" y="-7.5" font-family="Helvetica,sans-Serif" font-size="10.00">A_CO_DB_Table_Base\id</text>
</a>
</g>
</g>
<!-- Node5&#45;&gt;Node8 -->
<g id="edge10" class="edge">
<title>Node5&#45;&gt;Node8</title>
<path fill="none" stroke="midnightblue" d="M635.1,-27.91C686.61,-24.32 761.82,-19.08 817.57,-15.19"/>
<polygon fill="midnightblue" stroke="midnightblue" points="818.01,-18.67 827.74,-14.48 817.52,-11.69 818.01,-18.67"/>
</g>
<!-- Node7 -->
<g id="node7" class="node">
<title>Node7</title>
<g id="a_node7"><a xlink:href="a00308.html#afb32d1e32b8e1c1de2e008c9b88f7846" target="_top" xlink:title=" ">
<polygon fill="white" stroke="black" points="833.5,-39 833.5,-69 952.5,-69 952.5,-39 833.5,-39"/>
<text text-anchor="start" x="841.5" y="-57" font-family="Helvetica,sans-Serif" font-size="10.00">A_CO_DB_Table_Base</text>
<text text-anchor="middle" x="893" y="-46" font-family="Helvetica,sans-Serif" font-size="10.00">\_badger_serialize</text>
</a>
</g>
</g>
<!-- Node6&#45;&gt;Node7 -->
<g id="edge7" class="edge">
<title>Node6&#45;&gt;Node7</title>
<path fill="none" stroke="midnightblue" d="M792.35,-54C802.42,-54 812.95,-54 823.23,-54"/>
<polygon fill="midnightblue" stroke="midnightblue" points="823.41,-57.5 833.41,-54 823.41,-50.5 823.41,-57.5"/>
</g>
<!-- Node6&#45;&gt;Node8 -->
<g id="edge8" class="edge">
<title>Node6&#45;&gt;Node8</title>
<path fill="none" stroke="midnightblue" d="M786.94,-38.98C806.68,-33.54 828.72,-27.46 847.5,-22.28"/>
<polygon fill="midnightblue" stroke="midnightblue" points="848.57,-25.61 857.28,-19.58 846.71,-18.86 848.57,-25.61"/>
</g>
<!-- Node9&#45;&gt;Node2 -->
<g id="edge12" class="edge">
<title>Node9&#45;&gt;Node2</title>
<path fill="none" stroke="midnightblue" d="M629.07,-96.02C641.64,-99.61 655.17,-103.48 668.13,-107.18"/>
<polygon fill="midnightblue" stroke="midnightblue" points="667.33,-110.59 677.91,-109.97 669.25,-103.86 667.33,-110.59"/>
</g>
<!-- Node10&#45;&gt;Node2 -->
<g id="edge14" class="edge">
<title>Node10&#45;&gt;Node2</title>
<path fill="none" stroke="midnightblue" d="M480.27,-204.37C524.18,-201.08 584.42,-193.68 635,-177 657.75,-169.5 681.41,-156.66 699.49,-145.62"/>
<polygon fill="midnightblue" stroke="midnightblue" points="701.77,-148.31 708.4,-140.04 698.06,-142.38 701.77,-148.31"/>
</g>
</g>
</svg>
