<?xml version="1.0" encoding="UTF-8" standalone="no"?>
<!DOCTYPE svg PUBLIC "-//W3C//DTD SVG 1.1//EN"
 "http://www.w3.org/Graphics/SVG/1.1/DTD/svg11.dtd">
<!-- Generated by graphviz version 2.47.1 (20210417.1919)
 -->
<!-- Title: CO_Security_Login\get_api_key Pages: 1 -->
<svg width="280pt" height="137pt"
 viewBox="0.00 0.00 280.00 137.00" xmlns="http://www.w3.org/2000/svg" xmlns:xlink="http://www.w3.org/1999/xlink">
<g id="graph0" class="graph" transform="scale(1 1) rotate(0) translate(4 133)">
<title>CO_Security_Login\get_api_key</title>
<polygon fill="white" stroke="transparent" points="-4,4 -4,-133 276,-133 276,4 -4,4"/>
<!-- Node1 -->
<g id="node1" class="node">
<title>Node1</title>
<g id="a_node1"><a xlink:title=" ">
<polygon fill="#bfbfbf" stroke="black" points="154,-49.5 154,-79.5 272,-79.5 272,-49.5 154,-49.5"/>
<text text-anchor="start" x="162" y="-67.5" font-family="Helvetica,sans-Serif" font-size="10.00">CO_Security_Login\get</text>
<text text-anchor="middle" x="213" y="-56.5" font-family="Helvetica,sans-Serif" font-size="10.00">_api_key</text>
</a>
</g>
</g>
<!-- Node2 -->
<g id="node2" class="node">
<title>Node2</title>
<g id="a_node2"><a xlink:href="a00340.html#ae37929d54934c063f8f78a3527cbbbba" target="_top" xlink:title=" ">
<polygon fill="white" stroke="black" points="0,-98.5 0,-128.5 118,-128.5 118,-98.5 0,-98.5"/>
<text text-anchor="start" x="8" y="-116.5" font-family="Helvetica,sans-Serif" font-size="10.00">CO_Security_Login\get</text>
<text text-anchor="middle" x="59" y="-105.5" font-family="Helvetica,sans-Serif" font-size="10.00">_remaining_time</text>
</a>
</g>
</g>
<!-- Node1&#45;&gt;Node2 -->
<g id="edge1" class="edge">
<title>Node1&#45;&gt;Node2</title>
<path fill="none" stroke="midnightblue" d="M155.36,-82.76C139.33,-87.93 122.06,-93.49 106.69,-98.45"/>
<polygon fill="midnightblue" stroke="midnightblue" points="156.71,-86 165.15,-79.6 154.56,-79.34 156.71,-86"/>
</g>
<!-- Node3 -->
<g id="node3" class="node">
<title>Node3</title>
<g id="a_node3"><a xlink:href="a00340.html#aa5c815210d09779bd16fc72ddd0fce59" target="_top" xlink:title=" ">
<polygon fill="white" stroke="black" points="3,-49.5 3,-79.5 115,-79.5 115,-49.5 3,-49.5"/>
<text text-anchor="start" x="11" y="-67.5" font-family="Helvetica,sans-Serif" font-size="10.00">CO_Security_Login\is</text>
<text text-anchor="middle" x="59" y="-56.5" font-family="Helvetica,sans-Serif" font-size="10.00">_api_key_valid</text>
</a>
</g>
</g>
<!-- Node1&#45;&gt;Node3 -->
<g id="edge2" class="edge">
<title>Node1&#45;&gt;Node3</title>
<path fill="none" stroke="midnightblue" d="M143.54,-64.5C134.13,-64.5 124.56,-64.5 115.43,-64.5"/>
<polygon fill="midnightblue" stroke="midnightblue" points="143.67,-68 153.67,-64.5 143.67,-61 143.67,-68"/>
</g>
<!-- Node4 -->
<g id="node4" class="node">
<title>Node4</title>
<g id="a_node4"><a xlink:href="a00340.html#a5ec502fbeb3620816dbcf4868da637e8" target="_top" xlink:title=" ">
<polygon fill="white" stroke="black" points="3,-0.5 3,-30.5 115,-30.5 115,-0.5 3,-0.5"/>
<text text-anchor="start" x="11" y="-18.5" font-family="Helvetica,sans-Serif" font-size="10.00">CO_Security_Login\is</text>
<text text-anchor="middle" x="59" y="-7.5" font-family="Helvetica,sans-Serif" font-size="10.00">_login_valid</text>
</a>
</g>
</g>
<!-- Node1&#45;&gt;Node4 -->
<g id="edge3" class="edge">
<title>Node1&#45;&gt;Node4</title>
<path fill="none" stroke="midnightblue" d="M155.36,-46.24C139.33,-41.07 122.06,-35.51 106.69,-30.55"/>
<polygon fill="midnightblue" stroke="midnightblue" points="154.56,-49.66 165.15,-49.4 156.71,-43 154.56,-49.66"/>
</g>
</g>
</svg>
