<?xml version="1.0" encoding="UTF-8" standalone="no"?>
<!DOCTYPE svg PUBLIC "-//W3C//DTD SVG 1.1//EN"
 "http://www.w3.org/Graphics/SVG/1.1/DTD/svg11.dtd">
<!-- Generated by graphviz version 2.47.1 (20210417.1919)
 -->
<!-- Title: CO_Security_Login\user_can_write Pages: 1 -->
<svg width="308pt" height="127pt"
 viewBox="0.00 0.00 308.00 127.00" xmlns="http://www.w3.org/2000/svg" xmlns:xlink="http://www.w3.org/1999/xlink">
<g id="graph0" class="graph" transform="scale(1 1) rotate(0) translate(4 123)">
<title>CO_Security_Login\user_can_write</title>
<polygon fill="white" stroke="transparent" points="-4,4 -4,-123 304,-123 304,4 -4,4"/>
<!-- Node1 -->
<g id="node1" class="node">
<title>Node1</title>
<g id="a_node1"><a xlink:title=" ">
<polygon fill="#bfbfbf" stroke="black" points="177,-44.5 177,-74.5 300,-74.5 300,-44.5 177,-44.5"/>
<text text-anchor="start" x="185" y="-62.5" font-family="Helvetica,sans-Serif" font-size="10.00">CO_Security_Login\user</text>
<text text-anchor="middle" x="238.5" y="-51.5" font-family="Helvetica,sans-Serif" font-size="10.00">_can_write</text>
</a>
</g>
</g>
<!-- Node2 -->
<g id="node2" class="node">
<title>Node2</title>
<g id="a_node2"><a xlink:href="a00340.html#ae927630811dae37fddc34b16878c63fd" target="_top" xlink:title=" ">
<polygon fill="white" stroke="black" points="5,-88.5 5,-118.5 136,-118.5 136,-88.5 5,-88.5"/>
<text text-anchor="start" x="13" y="-106.5" font-family="Helvetica,sans-Serif" font-size="10.00">CO_Security_Login\delete</text>
<text text-anchor="middle" x="70.5" y="-95.5" font-family="Helvetica,sans-Serif" font-size="10.00">_from_db</text>
</a>
</g>
</g>
<!-- Node1&#45;&gt;Node2 -->
<g id="edge1" class="edge">
<title>Node1&#45;&gt;Node2</title>
<path fill="none" stroke="midnightblue" d="M171.12,-77.09C156.9,-80.86 142,-84.81 128.19,-88.47"/>
<polygon fill="midnightblue" stroke="midnightblue" points="172.07,-80.46 180.84,-74.52 170.27,-73.7 172.07,-80.46"/>
</g>
<!-- Node3 -->
<g id="node3" class="node">
<title>Node3</title>
<g id="a_node3"><a xlink:href="a00340.html#a061f896c69dc8a8dd3d9ee793b91ddc7" target="_top" xlink:title=" ">
<polygon fill="white" stroke="black" points="0,-50 0,-69 141,-69 141,-50 0,-50"/>
<text text-anchor="middle" x="70.5" y="-57" font-family="Helvetica,sans-Serif" font-size="10.00">CO_Security_Login\set_lang</text>
</a>
</g>
</g>
<!-- Node1&#45;&gt;Node3 -->
<g id="edge2" class="edge">
<title>Node1&#45;&gt;Node3</title>
<path fill="none" stroke="midnightblue" d="M166.47,-59.5C158.05,-59.5 149.46,-59.5 141.07,-59.5"/>
<polygon fill="midnightblue" stroke="midnightblue" points="166.63,-63 176.63,-59.5 166.63,-56 166.63,-63"/>
</g>
<!-- Node4 -->
<g id="node4" class="node">
<title>Node4</title>
<g id="a_node4"><a xlink:href="a00340.html#ac4f0c16cb8cf1e2151451bf4d5cb2238" target="_top" xlink:title=" ">
<polygon fill="white" stroke="black" points="5,-0.5 5,-30.5 136,-30.5 136,-0.5 5,-0.5"/>
<text text-anchor="start" x="13" y="-18.5" font-family="Helvetica,sans-Serif" font-size="10.00">CO_Security_Login\set</text>
<text text-anchor="middle" x="70.5" y="-7.5" font-family="Helvetica,sans-Serif" font-size="10.00">_password_from_cleartext</text>
</a>
</g>
</g>
<!-- Node1&#45;&gt;Node4 -->
<g id="edge3" class="edge">
<title>Node1&#45;&gt;Node4</title>
<path fill="none" stroke="midnightblue" d="M171.12,-41.91C156.9,-38.14 142,-34.19 128.19,-30.53"/>
<polygon fill="midnightblue" stroke="midnightblue" points="170.27,-45.3 180.84,-44.48 172.07,-38.54 170.27,-45.3"/>
</g>
</g>
</svg>
