<?xml version="1.0" encoding="UTF-8" standalone="no"?>
<!DOCTYPE svg PUBLIC "-//W3C//DTD SVG 1.1//EN"
 "http://www.w3.org/Graphics/SVG/1.1/DTD/svg11.dtd">
<!-- Generated by graphviz version 2.40.1 (20161225.0304)
 -->
<!-- Title: CO_Access\get_login_id Pages: 1 -->
<svg width="493pt" height="208pt"
 viewBox="0.00 0.00 492.62 208.00" xmlns="http://www.w3.org/2000/svg" xmlns:xlink="http://www.w3.org/1999/xlink">
<g id="graph0" class="graph" transform="scale(1 1) rotate(0) translate(4 204)">
<title>CO_Access\get_login_id</title>
<polygon fill="#ffffff" stroke="transparent" points="-4,4 -4,-204 488.624,-204 488.624,4 -4,4"/>
<!-- Node58 -->
<g id="node1" class="node">
<title>Node58</title>
<polygon fill="#bfbfbf" stroke="#000000" points="0,-92.5 0,-110.5 125.5068,-110.5 125.5068,-92.5 0,-92.5"/>
<text text-anchor="middle" x="62.7534" y="-98.5" font-family="Helvetica,sans-Serif" font-size="10.00" fill="#000000">CO_Access\get_login_id</text>
</g>
<!-- Node59 -->
<g id="node2" class="node">
<title>Node59</title>
<g id="a_node2"><a xlink:href="a00355.html#a115c46a27b51a3f2226125230fd6183d" target="_top" xlink:title="CO_Access\\get_available\l_tokens">
<polygon fill="#ffffff" stroke="#000000" points="168.1694,-171.5 168.1694,-199.5 298.6763,-199.5 298.6763,-171.5 168.1694,-171.5"/>
<text text-anchor="start" x="176.1694" y="-187.5" font-family="Helvetica,sans-Serif" font-size="10.00" fill="#000000">CO_Access\get_available</text>
<text text-anchor="middle" x="233.4229" y="-177.5" font-family="Helvetica,sans-Serif" font-size="10.00" fill="#000000">_tokens</text>
</a>
</g>
</g>
<!-- Node58&#45;&gt;Node59 -->
<g id="edge1" class="edge">
<title>Node58&#45;&gt;Node59</title>
<path fill="none" stroke="#191970" d="M83.6675,-116.5164C103.1007,-129.9508 133.2203,-149.478 161.5068,-162.5 168.6512,-165.789 176.3971,-168.7997 184.0701,-171.4818"/>
<polygon fill="#191970" stroke="#191970" points="85.4858,-113.5167 75.2884,-110.6421 81.4674,-119.2485 85.4858,-113.5167"/>
</g>
<!-- Node60 -->
<g id="node3" class="node">
<title>Node60</title>
<g id="a_node3"><a xlink:href="a00355.html#a65c256cad68440723a8de979b1b7a1bb" target="_top" xlink:title="CO_Access\\get_login_item">
<polygon fill="#ffffff" stroke="#000000" points="165.1152,-134.5 165.1152,-152.5 301.7305,-152.5 301.7305,-134.5 165.1152,-134.5"/>
<text text-anchor="middle" x="233.4229" y="-140.5" font-family="Helvetica,sans-Serif" font-size="10.00" fill="#000000">CO_Access\get_login_item</text>
</a>
</g>
</g>
<!-- Node58&#45;&gt;Node60 -->
<g id="edge2" class="edge">
<title>Node58&#45;&gt;Node60</title>
<path fill="none" stroke="#191970" d="M109.1508,-112.9179C136.6291,-119.6801 170.964,-128.1295 196.5765,-134.4325"/>
<polygon fill="#191970" stroke="#191970" points="109.913,-109.5011 99.3663,-110.5101 108.2402,-116.2983 109.913,-109.5011"/>
</g>
<!-- Node64 -->
<g id="node7" class="node">
<title>Node64</title>
<g id="a_node7"><a xlink:href="a00355.html#aa6f82dc430e7a655e35e09b64c48fa46" target="_top" xlink:title="CO_Access\\get_security_ids">
<polygon fill="#ffffff" stroke="#000000" points="161.5068,-50.5 161.5068,-68.5 305.3389,-68.5 305.3389,-50.5 161.5068,-50.5"/>
<text text-anchor="middle" x="233.4229" y="-56.5" font-family="Helvetica,sans-Serif" font-size="10.00" fill="#000000">CO_Access\get_security_ids</text>
</a>
</g>
</g>
<!-- Node58&#45;&gt;Node64 -->
<g id="edge6" class="edge">
<title>Node58&#45;&gt;Node64</title>
<path fill="none" stroke="#191970" d="M109.1508,-90.0821C136.6291,-83.3199 170.964,-74.8705 196.5765,-68.5675"/>
<polygon fill="#191970" stroke="#191970" points="108.2402,-86.7017 99.3663,-92.4899 109.913,-93.4989 108.2402,-86.7017"/>
</g>
<!-- Node66 -->
<g id="node9" class="node">
<title>Node66</title>
<g id="a_node9"><a xlink:href="a00299.html#a88b451020a7174eeb0c06e216ca517cf" target="_top" xlink:title="CO_Chameleon\\get_user\l_from_login">
<polygon fill="#ffffff" stroke="#000000" points="168.7236,-87.5 168.7236,-115.5 298.1221,-115.5 298.1221,-87.5 168.7236,-87.5"/>
<text text-anchor="start" x="176.7236" y="-103.5" font-family="Helvetica,sans-Serif" font-size="10.00" fill="#000000">CO_Chameleon\get_user</text>
<text text-anchor="middle" x="233.4229" y="-93.5" font-family="Helvetica,sans-Serif" font-size="10.00" fill="#000000">_from_login</text>
</a>
</g>
</g>
<!-- Node58&#45;&gt;Node66 -->
<g id="edge8" class="edge">
<title>Node58&#45;&gt;Node66</title>
<path fill="none" stroke="#191970" d="M136.0883,-101.5C146.907,-101.5 157.9883,-101.5 168.6177,-101.5"/>
<polygon fill="#191970" stroke="#191970" points="135.8196,-98.0001 125.8195,-101.5 135.8195,-105.0001 135.8196,-98.0001"/>
</g>
<!-- Node67 -->
<g id="node10" class="node">
<title>Node67</title>
<g id="a_node10"><a xlink:href="a00355.html#a2249312ed569b15e5b6b15c0112ce83b" target="_top" xlink:title="CO_Access\\make_new\l_blank_record">
<polygon fill="#ffffff" stroke="#000000" points="173.4575,-2.5 173.4575,-30.5 293.3882,-30.5 293.3882,-2.5 173.4575,-2.5"/>
<text text-anchor="start" x="181.4575" y="-18.5" font-family="Helvetica,sans-Serif" font-size="10.00" fill="#000000">CO_Access\make_new</text>
<text text-anchor="middle" x="233.4229" y="-8.5" font-family="Helvetica,sans-Serif" font-size="10.00" fill="#000000">_blank_record</text>
</a>
</g>
</g>
<!-- Node58&#45;&gt;Node67 -->
<g id="edge10" class="edge">
<title>Node58&#45;&gt;Node67</title>
<path fill="none" stroke="#191970" d="M84.11,-86.6998C103.6303,-73.6216 133.6198,-54.6377 161.5068,-41.5 169.9969,-37.5003 179.3093,-33.7962 188.335,-30.5314"/>
<polygon fill="#191970" stroke="#191970" points="81.9844,-83.9124 75.6734,-92.4224 85.9139,-89.7054 81.9844,-83.9124"/>
</g>
<!-- Node61 -->
<g id="node4" class="node">
<title>Node61</title>
<g id="a_node4"><a xlink:href="a00355.html#ae2a40cf404135bb4aae747c37520733e" target="_top" xlink:title="CO_Access\\get_lang">
<polygon fill="#ffffff" stroke="#000000" points="358.0112,-170.5 358.0112,-188.5 467.9517,-188.5 467.9517,-170.5 358.0112,-170.5"/>
<text text-anchor="middle" x="412.9814" y="-176.5" font-family="Helvetica,sans-Serif" font-size="10.00" fill="#000000">CO_Access\get_lang</text>
</a>
</g>
</g>
<!-- Node60&#45;&gt;Node61 -->
<g id="edge3" class="edge">
<title>Node60&#45;&gt;Node61</title>
<path fill="none" stroke="#191970" d="M288.6182,-154.5662C314.082,-159.6715 343.9273,-165.6552 367.9971,-170.481"/>
<polygon fill="#191970" stroke="#191970" points="289.226,-151.1185 278.7331,-152.5843 287.8499,-157.9819 289.226,-151.1185"/>
</g>
<!-- Node62 -->
<g id="node5" class="node">
<title>Node62</title>
<g id="a_node5"><a xlink:href="a00299.html#ac6ba71b99a641f6d19aa0a0d73997234" target="_top" xlink:title="CO_Chameleon\\get_lang">
<polygon fill="#ffffff" stroke="#000000" points="348.5557,-95.5 348.5557,-113.5 477.4072,-113.5 477.4072,-95.5 348.5557,-95.5"/>
<text text-anchor="middle" x="412.9814" y="-101.5" font-family="Helvetica,sans-Serif" font-size="10.00" fill="#000000">CO_Chameleon\get_lang</text>
</a>
</g>
</g>
<!-- Node60&#45;&gt;Node62 -->
<g id="edge4" class="edge">
<title>Node60&#45;&gt;Node62</title>
<path fill="none" stroke="#191970" d="M284.8673,-132.3263C312.2504,-126.3787 345.4915,-119.1588 371.251,-113.5638"/>
<polygon fill="#191970" stroke="#191970" points="284.0978,-128.9118 275.0685,-134.4546 285.5836,-135.7523 284.0978,-128.9118"/>
</g>
<!-- Node63 -->
<g id="node6" class="node">
<title>Node63</title>
<g id="a_node6"><a xlink:href="a00299.html#aa13745bd0d40cac3820bb3ae7f6d5fbb" target="_top" xlink:title="CO_Chameleon\\test_access">
<polygon fill="#ffffff" stroke="#000000" points="341.3389,-133.5 341.3389,-151.5 484.624,-151.5 484.624,-133.5 341.3389,-133.5"/>
<text text-anchor="middle" x="412.9814" y="-139.5" font-family="Helvetica,sans-Serif" font-size="10.00" fill="#000000">CO_Chameleon\test_access</text>
</a>
</g>
</g>
<!-- Node60&#45;&gt;Node63 -->
<g id="edge5" class="edge">
<title>Node60&#45;&gt;Node63</title>
<path fill="none" stroke="#191970" d="M311.8882,-143.063C321.6327,-143.0087 331.5578,-142.9535 341.1946,-142.8998"/>
<polygon fill="#191970" stroke="#191970" points="311.7988,-139.5634 301.8185,-143.1191 311.8379,-146.5632 311.7988,-139.5634"/>
</g>
<!-- Node65 -->
<g id="node8" class="node">
<title>Node65</title>
<g id="a_node8"><a xlink:href="a00355.html#ae548938d26a8e1c2f5378e94d2921419" target="_top" xlink:title="CO_Access\\i_have_this\l_token">
<polygon fill="#ffffff" stroke="#000000" points="351.9004,-47.5 351.9004,-75.5 474.0625,-75.5 474.0625,-47.5 351.9004,-47.5"/>
<text text-anchor="start" x="359.9004" y="-63.5" font-family="Helvetica,sans-Serif" font-size="10.00" fill="#000000">CO_Access\i_have_this</text>
<text text-anchor="middle" x="412.9814" y="-53.5" font-family="Helvetica,sans-Serif" font-size="10.00" fill="#000000">_token</text>
</a>
</g>
</g>
<!-- Node64&#45;&gt;Node65 -->
<g id="edge7" class="edge">
<title>Node64&#45;&gt;Node65</title>
<path fill="none" stroke="#191970" d="M315.5577,-60.4149C327.7005,-60.5501 340.0312,-60.6874 351.6525,-60.8169"/>
<polygon fill="#191970" stroke="#191970" points="315.46,-56.9136 305.4216,-60.302 315.382,-63.9132 315.46,-56.9136"/>
</g>
<!-- Node66&#45;&gt;Node62 -->
<g id="edge9" class="edge">
<title>Node66&#45;&gt;Node62</title>
<path fill="none" stroke="#191970" d="M308.3541,-102.7519C321.7118,-102.9751 335.5205,-103.2058 348.553,-103.4236"/>
<polygon fill="#191970" stroke="#191970" points="308.3047,-99.2507 298.2476,-102.5831 308.1877,-106.2497 308.3047,-99.2507"/>
</g>
<!-- Node68 -->
<g id="node11" class="node">
<title>Node68</title>
<g id="a_node11"><a xlink:href="a00299.html#af193950805884bd481b8863ffd6d4fb1" target="_top" xlink:title="CO_Chameleon\\set_value\l_for_key">
<polygon fill="#ffffff" stroke="#000000" points="346.3364,-.5 346.3364,-28.5 479.6265,-28.5 479.6265,-.5 346.3364,-.5"/>
<text text-anchor="start" x="354.3364" y="-16.5" font-family="Helvetica,sans-Serif" font-size="10.00" fill="#000000">CO_Chameleon\set_value</text>
<text text-anchor="middle" x="412.9814" y="-6.5" font-family="Helvetica,sans-Serif" font-size="10.00" fill="#000000">_for_key</text>
</a>
</g>
</g>
<!-- Node67&#45;&gt;Node68 -->
<g id="edge11" class="edge">
<title>Node67&#45;&gt;Node68</title>
<path fill="none" stroke="#191970" d="M303.7198,-15.717C317.6505,-15.5618 332.2387,-15.3993 346.0536,-15.2455"/>
<polygon fill="#191970" stroke="#191970" points="303.6731,-12.2172 293.7128,-15.8285 303.7512,-19.2168 303.6731,-12.2172"/>
</g>
</g>
</svg>
