<?xml version="1.0" encoding="UTF-8" standalone="no"?>
<!DOCTYPE svg PUBLIC "-//W3C//DTD SVG 1.1//EN"
 "http://www.w3.org/Graphics/SVG/1.1/DTD/svg11.dtd">
<!-- Generated by graphviz version 2.40.1 (20161225.0304)
 -->
<!-- Title: CO_Access\check_user_exists Pages: 1 -->
<svg width="433pt" height="37pt"
 viewBox="0.00 0.00 433.12 37.00" xmlns="http://www.w3.org/2000/svg" xmlns:xlink="http://www.w3.org/1999/xlink">
<g id="graph0" class="graph" transform="scale(1 1) rotate(0) translate(4 33)">
<title>CO_Access\check_user_exists</title>
<polygon fill="#ffffff" stroke="transparent" points="-4,4 -4,-33 429.1172,-33 429.1172,4 -4,4"/>
<!-- Node1 -->
<g id="node1" class="node">
<title>Node1</title>
<g id="a_node1"><a xlink:title=" ">
<polygon fill="#bfbfbf" stroke="#000000" points="0,-.5 0,-28.5 122.709,-28.5 122.709,-.5 0,-.5"/>
<text text-anchor="start" x="8" y="-16.5" font-family="Helvetica,sans-Serif" font-size="10.00" fill="#000000">CO_Access\check_user</text>
<text text-anchor="middle" x="61.3545" y="-6.5" font-family="Helvetica,sans-Serif" font-size="10.00" fill="#000000">_exists</text>
</a>
</g>
</g>
<!-- Node2 -->
<g id="node2" class="node">
<title>Node2</title>
<g id="a_node2"><a xlink:href="a00352.html#a78b40b6d7e4af9b87523b3ba8b272cee" target="_top" xlink:title=" ">
<polygon fill="#ffffff" stroke="#000000" points="158.709,-.5 158.709,-28.5 283.0928,-28.5 283.0928,-.5 158.709,-.5"/>
<text text-anchor="start" x="166.709" y="-16.5" font-family="Helvetica,sans-Serif" font-size="10.00" fill="#000000">CO_Access\check_login</text>
<text text-anchor="middle" x="220.9009" y="-6.5" font-family="Helvetica,sans-Serif" font-size="10.00" fill="#000000">_exists</text>
</a>
</g>
</g>
<!-- Node1&#45;&gt;Node2 -->
<g id="edge1" class="edge">
<title>Node1&#45;&gt;Node2</title>
<path fill="none" stroke="#191970" d="M123.0393,-14.5C131.3306,-14.5 139.8971,-14.5 148.3544,-14.5"/>
<polygon fill="#191970" stroke="#191970" points="148.5905,-18.0001 158.5905,-14.5 148.5904,-11.0001 148.5905,-18.0001"/>
</g>
<!-- Node3 -->
<g id="node3" class="node">
<title>Node3</title>
<g id="a_node3"><a xlink:href="a00352.html#a22dd3ef5f47a6f4c40a551a1d7767402" target="_top" xlink:title=" ">
<polygon fill="#ffffff" stroke="#000000" points="319.0928,-.5 319.0928,-28.5 425.1172,-28.5 425.1172,-.5 319.0928,-.5"/>
<text text-anchor="start" x="327.0928" y="-16.5" font-family="Helvetica,sans-Serif" font-size="10.00" fill="#000000">CO_Access\security</text>
<text text-anchor="middle" x="372.105" y="-6.5" font-family="Helvetica,sans-Serif" font-size="10.00" fill="#000000">_db_available</text>
</a>
</g>
</g>
<!-- Node2&#45;&gt;Node3 -->
<g id="edge2" class="edge">
<title>Node2&#45;&gt;Node3</title>
<path fill="none" stroke="#191970" d="M283.2743,-14.5C291.7182,-14.5 300.3892,-14.5 308.8483,-14.5"/>
<polygon fill="#191970" stroke="#191970" points="309.032,-18.0001 319.0319,-14.5 309.0319,-11.0001 309.032,-18.0001"/>
</g>
</g>
</svg>
