<?xml version="1.0" encoding="UTF-8" standalone="no"?>
<!DOCTYPE svg PUBLIC "-//W3C//DTD SVG 1.1//EN"
 "http://www.w3.org/Graphics/SVG/1.1/DTD/svg11.dtd">
<!-- Generated by graphviz version 2.40.1 (20161225.0304)
 -->
<!-- Title: CO_Main_DB_Record\set_tag Pages: 1 -->
<svg width="800pt" height="126pt"
 viewBox="0.00 0.00 800.10 126.00" xmlns="http://www.w3.org/2000/svg" xmlns:xlink="http://www.w3.org/1999/xlink">
<g id="graph0" class="graph" transform="scale(1 1) rotate(0) translate(4 122)">
<title>CO_Main_DB_Record\set_tag</title>
<polygon fill="#ffffff" stroke="transparent" points="-4,4 -4,-122 796.1006,-122 796.1006,4 -4,4"/>
<!-- Node1 -->
<g id="node1" class="node">
<title>Node1</title>
<g id="a_node1"><a xlink:title=" ">
<polygon fill="#bfbfbf" stroke="#000000" points="0,-26.5 0,-44.5 151.0684,-44.5 151.0684,-26.5 0,-26.5"/>
<text text-anchor="middle" x="75.5342" y="-32.5" font-family="Helvetica,sans-Serif" font-size="10.00" fill="#000000">CO_Main_DB_Record\set_tag</text>
</a>
</g>
</g>
<!-- Node2 -->
<g id="node2" class="node">
<title>Node2</title>
<g id="a_node2"><a xlink:href="a00308.html#a7487697640051c6661b8cdca6f109959" target="_top" xlink:title=" ">
<polygon fill="#ffffff" stroke="#000000" points="187.0684,-43.5 187.0684,-71.5 307.5752,-71.5 307.5752,-43.5 187.0684,-43.5"/>
<text text-anchor="start" x="195.0684" y="-59.5" font-family="Helvetica,sans-Serif" font-size="10.00" fill="#000000">A_CO_DB_Table_Base</text>
<text text-anchor="middle" x="247.3218" y="-49.5" font-family="Helvetica,sans-Serif" font-size="10.00" fill="#000000">\update_db</text>
</a>
</g>
</g>
<!-- Node1&#45;&gt;Node2 -->
<g id="edge1" class="edge">
<title>Node1&#45;&gt;Node2</title>
<path fill="none" stroke="#191970" d="M145.9024,-44.5117C156.1181,-45.82 166.6369,-47.1671 176.8545,-48.4756"/>
<polygon fill="#191970" stroke="#191970" points="176.5857,-51.9697 186.9493,-49.7684 177.475,-45.0264 176.5857,-51.9697"/>
</g>
<!-- Node8 -->
<g id="node8" class="node">
<title>Node8</title>
<g id="a_node8"><a xlink:href="a00308.html#a7d2537d7675ca572ad78096784fe4fe4" target="_top" xlink:title=" ">
<polygon fill="#ffffff" stroke="#000000" points="343.5752,-.5 343.5752,-28.5 464.082,-28.5 464.082,-.5 343.5752,-.5"/>
<text text-anchor="start" x="351.5752" y="-16.5" font-family="Helvetica,sans-Serif" font-size="10.00" fill="#000000">A_CO_DB_Table_Base</text>
<text text-anchor="middle" x="403.8286" y="-6.5" font-family="Helvetica,sans-Serif" font-size="10.00" fill="#000000">\user_can_write</text>
</a>
</g>
</g>
<!-- Node1&#45;&gt;Node8 -->
<g id="edge10" class="edge">
<title>Node1&#45;&gt;Node8</title>
<path fill="none" stroke="#191970" d="M151.2638,-30.6558C206.1449,-27.1452 279.8213,-22.4324 333.4296,-19.0032"/>
<polygon fill="#191970" stroke="#191970" points="333.778,-22.4882 343.5341,-18.3569 333.331,-15.5025 333.778,-22.4882"/>
</g>
<!-- Node3 -->
<g id="node3" class="node">
<title>Node3</title>
<g id="a_node3"><a xlink:href="a00308.html#adda14b544e11934db3bf8130aeea0610" target="_top" xlink:title=" ">
<polygon fill="#ffffff" stroke="#000000" points="343.5752,-47.5 343.5752,-75.5 464.082,-75.5 464.082,-47.5 343.5752,-47.5"/>
<text text-anchor="start" x="351.5752" y="-63.5" font-family="Helvetica,sans-Serif" font-size="10.00" fill="#000000">A_CO_DB_Table_Base</text>
<text text-anchor="middle" x="403.8286" y="-53.5" font-family="Helvetica,sans-Serif" font-size="10.00" fill="#000000">\_write_to_db</text>
</a>
</g>
</g>
<!-- Node2&#45;&gt;Node3 -->
<g id="edge2" class="edge">
<title>Node2&#45;&gt;Node3</title>
<path fill="none" stroke="#191970" d="M307.8314,-59.0465C316.1482,-59.2591 324.7473,-59.4788 333.2255,-59.6955"/>
<polygon fill="#191970" stroke="#191970" points="333.3937,-63.2009 343.4799,-59.9576 333.5726,-56.2032 333.3937,-63.2009"/>
</g>
<!-- Node2&#45;&gt;Node8 -->
<g id="edge8" class="edge">
<title>Node2&#45;&gt;Node8</title>
<path fill="none" stroke="#191970" d="M298.568,-43.4202C312.6924,-39.5395 328.1549,-35.2912 342.7747,-31.2745"/>
<polygon fill="#191970" stroke="#191970" points="344.0193,-34.5623 352.7347,-28.538 342.1648,-27.8124 344.0193,-34.5623"/>
</g>
<!-- Node4 -->
<g id="node4" class="node">
<title>Node4</title>
<g id="a_node4"><a xlink:href="a00308.html#a6109c37c5e61ab04ea710b1ebb7615a5" target="_top" xlink:title=" ">
<polygon fill="#ffffff" stroke="#000000" points="500.082,-89.5 500.082,-117.5 625.0322,-117.5 625.0322,-89.5 500.082,-89.5"/>
<text text-anchor="start" x="508.082" y="-105.5" font-family="Helvetica,sans-Serif" font-size="10.00" fill="#000000">A_CO_DB_Table_Base</text>
<text text-anchor="middle" x="562.5571" y="-95.5" font-family="Helvetica,sans-Serif" font-size="10.00" fill="#000000">\_build_parameter_array</text>
</a>
</g>
</g>
<!-- Node3&#45;&gt;Node4 -->
<g id="edge3" class="edge">
<title>Node3&#45;&gt;Node4</title>
<path fill="none" stroke="#191970" d="M457.1245,-75.6022C470.6769,-79.1882 485.3701,-83.0761 499.363,-86.7787"/>
<polygon fill="#191970" stroke="#191970" points="498.8393,-90.2605 509.4019,-89.435 500.63,-83.4934 498.8393,-90.2605"/>
</g>
<!-- Node6 -->
<g id="node6" class="node">
<title>Node6</title>
<g id="a_node6"><a xlink:href="a00308.html#a78affe18a811930d4012fd265e95cdca" target="_top" xlink:title=" ">
<polygon fill="#ffffff" stroke="#000000" points="661.0322,-52.5 661.0322,-70.5 792.1006,-70.5 792.1006,-52.5 661.0322,-52.5"/>
<text text-anchor="middle" x="726.5664" y="-58.5" font-family="Helvetica,sans-Serif" font-size="10.00" fill="#000000">A_CO_DB_Table_Base\id</text>
</a>
</g>
</g>
<!-- Node3&#45;&gt;Node6 -->
<g id="edge7" class="edge">
<title>Node3&#45;&gt;Node6</title>
<path fill="none" stroke="#191970" d="M464.1545,-61.5C516.9928,-61.5 594.0158,-61.5 650.9576,-61.5"/>
<polygon fill="#191970" stroke="#191970" points="650.9875,-65.0001 660.9875,-61.5 650.9874,-58.0001 650.9875,-65.0001"/>
</g>
<!-- Node7 -->
<g id="node7" class="node">
<title>Node7</title>
<g id="a_node7"><a xlink:href="a00308.html#a8780b40e55827b90bb441671faec2a05" target="_top" xlink:title=" ">
<polygon fill="#ffffff" stroke="#000000" points="502.3037,-2.5 502.3037,-30.5 622.8105,-30.5 622.8105,-2.5 502.3037,-2.5"/>
<text text-anchor="start" x="510.3037" y="-18.5" font-family="Helvetica,sans-Serif" font-size="10.00" fill="#000000">A_CO_DB_Table_Base</text>
<text text-anchor="middle" x="562.5571" y="-8.5" font-family="Helvetica,sans-Serif" font-size="10.00" fill="#000000">\get_access_object</text>
</a>
</g>
</g>
<!-- Node3&#45;&gt;Node7 -->
<g id="edge6" class="edge">
<title>Node3&#45;&gt;Node7</title>
<path fill="none" stroke="#191970" d="M453.6158,-47.3852C469.2764,-42.9454 486.7299,-37.9972 502.9976,-33.3853"/>
<polygon fill="#191970" stroke="#191970" points="504.2804,-36.6596 512.9466,-30.5647 502.3711,-29.925 504.2804,-36.6596"/>
</g>
<!-- Node5 -->
<g id="node5" class="node">
<title>Node5</title>
<g id="a_node5"><a xlink:href="a00308.html#afb32d1e32b8e1c1de2e008c9b88f7846" target="_top" xlink:title=" ">
<polygon fill="#ffffff" stroke="#000000" points="666.313,-89.5 666.313,-117.5 786.8198,-117.5 786.8198,-89.5 666.313,-89.5"/>
<text text-anchor="start" x="674.313" y="-105.5" font-family="Helvetica,sans-Serif" font-size="10.00" fill="#000000">A_CO_DB_Table_Base</text>
<text text-anchor="middle" x="726.5664" y="-95.5" font-family="Helvetica,sans-Serif" font-size="10.00" fill="#000000">\_badger_serialize</text>
</a>
</g>
</g>
<!-- Node4&#45;&gt;Node5 -->
<g id="edge4" class="edge">
<title>Node4&#45;&gt;Node5</title>
<path fill="none" stroke="#191970" d="M625.4983,-103.5C635.5255,-103.5 645.9553,-103.5 656.1417,-103.5"/>
<polygon fill="#191970" stroke="#191970" points="656.2232,-107.0001 666.2232,-103.5 656.2232,-100.0001 656.2232,-107.0001"/>
</g>
<!-- Node4&#45;&gt;Node6 -->
<g id="edge5" class="edge">
<title>Node4&#45;&gt;Node6</title>
<path fill="none" stroke="#191970" d="M617.6261,-89.3978C638.23,-84.1214 661.386,-78.1916 681.034,-73.1601"/>
<polygon fill="#191970" stroke="#191970" points="682.1376,-76.4905 690.9567,-70.619 680.401,-69.7093 682.1376,-76.4905"/>
</g>
<!-- Node8&#45;&gt;Node7 -->
<g id="edge9" class="edge">
<title>Node8&#45;&gt;Node7</title>
<path fill="none" stroke="#191970" d="M464.2899,-15.2618C473.426,-15.3769 482.917,-15.4965 492.2393,-15.614"/>
<polygon fill="#191970" stroke="#191970" points="492.2206,-19.1139 502.264,-15.7403 492.3089,-12.1145 492.2206,-19.1139"/>
</g>
</g>
</svg>
