<?xml version="1.0" encoding="UTF-8" standalone="no"?>
<!DOCTYPE svg PUBLIC "-//W3C//DTD SVG 1.1//EN"
 "http://www.w3.org/Graphics/SVG/1.1/DTD/svg11.dtd">
<!-- Generated by graphviz version 2.40.1 (20161225.0304)
 -->
<!-- Title: CO_Main_Data_DB\generic_search Pages: 1 -->
<svg width="861pt" height="191pt"
 viewBox="0.00 0.00 860.66 191.00" xmlns="http://www.w3.org/2000/svg" xmlns:xlink="http://www.w3.org/1999/xlink">
<g id="graph0" class="graph" transform="scale(1 1) rotate(0) translate(4 187)">
<title>CO_Main_Data_DB\generic_search</title>
<polygon fill="#ffffff" stroke="transparent" points="-4,4 -4,-187 856.6572,-187 856.6572,4 -4,4"/>
<!-- Node42 -->
<g id="node1" class="node">
<title>Node42</title>
<polygon fill="#bfbfbf" stroke="#000000" points="0,-41.5 0,-69.5 139.9502,-69.5 139.9502,-41.5 0,-41.5"/>
<text text-anchor="start" x="8" y="-57.5" font-family="Helvetica,sans-Serif" font-size="10.00" fill="#000000">CO_Main_Data_DB\generic</text>
<text text-anchor="middle" x="69.9751" y="-47.5" font-family="Helvetica,sans-Serif" font-size="10.00" fill="#000000">_search</text>
</g>
<!-- Node43 -->
<g id="node2" class="node">
<title>Node43</title>
<g id="a_node2"><a xlink:href="a00315.html#aa97e6ad521aed4c2cbe03e83017af0b7" target="_top" xlink:title="CO_Main_Data_DB\\_build\l_sql_query">
<polygon fill="#ffffff" stroke="#000000" points="175.9502,-88.5 175.9502,-116.5 309.792,-116.5 309.792,-88.5 175.9502,-88.5"/>
<text text-anchor="start" x="183.9502" y="-104.5" font-family="Helvetica,sans-Serif" font-size="10.00" fill="#000000">CO_Main_Data_DB\_build</text>
<text text-anchor="middle" x="242.8711" y="-94.5" font-family="Helvetica,sans-Serif" font-size="10.00" fill="#000000">_sql_query</text>
</a>
</g>
</g>
<!-- Node42&#45;&gt;Node43 -->
<g id="edge1" class="edge">
<title>Node42&#45;&gt;Node43</title>
<path fill="none" stroke="#191970" d="M121.8496,-69.6015C140.6549,-74.7136 162.0735,-80.536 181.6113,-85.8472"/>
<polygon fill="#191970" stroke="#191970" points="180.7634,-89.2436 191.3313,-88.4894 182.5997,-82.4887 180.7634,-89.2436"/>
</g>
<!-- Node52 -->
<g id="node11" class="node">
<title>Node52</title>
<g id="a_node11"><a xlink:href="a00307.html#a523e2f40174a0bca0fc873d6286b3ae9" target="_top" xlink:title="A_CO_DB\\_instantiate\l_record">
<polygon fill="#ffffff" stroke="#000000" points="184.5659,-41.5 184.5659,-69.5 301.1763,-69.5 301.1763,-41.5 184.5659,-41.5"/>
<text text-anchor="start" x="192.5659" y="-57.5" font-family="Helvetica,sans-Serif" font-size="10.00" fill="#000000">A_CO_DB\_instantiate</text>
<text text-anchor="middle" x="242.8711" y="-47.5" font-family="Helvetica,sans-Serif" font-size="10.00" fill="#000000">_record</text>
</a>
</g>
</g>
<!-- Node42&#45;&gt;Node52 -->
<g id="edge11" class="edge">
<title>Node42&#45;&gt;Node52</title>
<path fill="none" stroke="#191970" d="M140.2985,-55.5C151.5364,-55.5 163.1512,-55.5 174.3465,-55.5"/>
<polygon fill="#191970" stroke="#191970" points="174.4871,-59.0001 184.4871,-55.5 174.487,-52.0001 174.4871,-59.0001"/>
</g>
<!-- Node53 -->
<g id="node12" class="node">
<title>Node53</title>
<g id="a_node12"><a xlink:href="a00307.html#a2396849660aa4ff018ab7509a4badeb5" target="_top" xlink:title="A_CO_DB\\execute_query">
<polygon fill="#ffffff" stroke="#000000" points="177.3394,-4.5 177.3394,-22.5 308.4028,-22.5 308.4028,-4.5 177.3394,-4.5"/>
<text text-anchor="middle" x="242.8711" y="-10.5" font-family="Helvetica,sans-Serif" font-size="10.00" fill="#000000">A_CO_DB\execute_query</text>
</a>
</g>
</g>
<!-- Node42&#45;&gt;Node53 -->
<g id="edge12" class="edge">
<title>Node42&#45;&gt;Node53</title>
<path fill="none" stroke="#191970" d="M128.0279,-41.3978C150.0319,-36.0526 174.7968,-30.0366 195.6809,-24.9635"/>
<polygon fill="#191970" stroke="#191970" points="196.701,-28.3175 205.5922,-22.5558 195.0486,-21.5154 196.701,-28.3175"/>
</g>
<!-- Node44 -->
<g id="node3" class="node">
<title>Node44</title>
<g id="a_node3"><a xlink:href="a00307.html#ad2356dbed1b38898d8c17bcd8eb405ef" target="_top" xlink:title="A_CO_DB\\_create_security\l_predicate">
<polygon fill="#ffffff" stroke="#000000" points="540.6533,-131.5 540.6533,-159.5 679.4854,-159.5 679.4854,-131.5 540.6533,-131.5"/>
<text text-anchor="start" x="548.6533" y="-147.5" font-family="Helvetica,sans-Serif" font-size="10.00" fill="#000000">A_CO_DB\_create_security</text>
<text text-anchor="middle" x="610.0693" y="-137.5" font-family="Helvetica,sans-Serif" font-size="10.00" fill="#000000">_predicate</text>
</a>
</g>
</g>
<!-- Node43&#45;&gt;Node44 -->
<g id="edge2" class="edge">
<title>Node43&#45;&gt;Node44</title>
<path fill="none" stroke="#191970" d="M295.7149,-116.5025C311.7029,-120.2831 329.3749,-124.0115 345.792,-126.5 407.2971,-135.8228 477.5696,-140.598 530.1831,-143.0286"/>
<polygon fill="#191970" stroke="#191970" points="530.3173,-146.5379 540.4625,-143.4841 530.6273,-139.5448 530.3173,-146.5379"/>
</g>
<!-- Node47 -->
<g id="node6" class="node">
<title>Node47</title>
<g id="a_node6"><a xlink:href="a00315.html#a352444b4bfd455cb53a57137f3c44884" target="_top" xlink:title="CO_Main_Data_DB\\_location\l_predicate">
<polygon fill="#ffffff" stroke="#000000" points="345.792,-88.5 345.792,-116.5 492.9736,-116.5 492.9736,-88.5 345.792,-88.5"/>
<text text-anchor="start" x="353.792" y="-104.5" font-family="Helvetica,sans-Serif" font-size="10.00" fill="#000000">CO_Main_Data_DB\_location</text>
<text text-anchor="middle" x="419.3828" y="-94.5" font-family="Helvetica,sans-Serif" font-size="10.00" fill="#000000">_predicate</text>
</a>
</g>
</g>
<!-- Node43&#45;&gt;Node47 -->
<g id="edge5" class="edge">
<title>Node43&#45;&gt;Node47</title>
<path fill="none" stroke="#191970" d="M309.8543,-102.5C318.266,-102.5 326.9519,-102.5 335.5808,-102.5"/>
<polygon fill="#191970" stroke="#191970" points="335.6645,-106.0001 345.6644,-102.5 335.6644,-99.0001 335.6645,-106.0001"/>
</g>
<!-- Node48 -->
<g id="node7" class="node">
<title>Node48</title>
<g id="a_node7"><a xlink:href="a00315.html#a64a118564e4da8a3b0220ee5cf088e9b" target="_top" xlink:title="CO_Main_Data_DB\\_parse\l_parameters">
<polygon fill="#ffffff" stroke="#000000" points="350.5186,-41.5 350.5186,-69.5 488.2471,-69.5 488.2471,-41.5 350.5186,-41.5"/>
<text text-anchor="start" x="358.5186" y="-57.5" font-family="Helvetica,sans-Serif" font-size="10.00" fill="#000000">CO_Main_Data_DB\_parse</text>
<text text-anchor="middle" x="419.3828" y="-47.5" font-family="Helvetica,sans-Serif" font-size="10.00" fill="#000000">_parameters</text>
</a>
</g>
</g>
<!-- Node43&#45;&gt;Node48 -->
<g id="edge7" class="edge">
<title>Node43&#45;&gt;Node48</title>
<path fill="none" stroke="#191970" d="M295.8304,-88.3985C315.029,-83.2864 336.8955,-77.464 356.8419,-72.1528"/>
<polygon fill="#191970" stroke="#191970" points="358.0025,-75.4658 366.7652,-69.5106 356.2013,-68.7015 358.0025,-75.4658"/>
</g>
<!-- Node45 -->
<g id="node4" class="node">
<title>Node45</title>
<g id="a_node4"><a xlink:href="a00307.html#a176b2c663fa7768e95e4fbe93281adc6" target="_top" xlink:title="A_CO_DB\\_create_read\l_security_predicate">
<polygon fill="#ffffff" stroke="#000000" points="727.7144,-154.5 727.7144,-182.5 852.1079,-182.5 852.1079,-154.5 727.7144,-154.5"/>
<text text-anchor="start" x="735.7144" y="-170.5" font-family="Helvetica,sans-Serif" font-size="10.00" fill="#000000">A_CO_DB\_create_read</text>
<text text-anchor="middle" x="789.9111" y="-160.5" font-family="Helvetica,sans-Serif" font-size="10.00" fill="#000000">_security_predicate</text>
</a>
</g>
</g>
<!-- Node44&#45;&gt;Node45 -->
<g id="edge3" class="edge">
<title>Node44&#45;&gt;Node45</title>
<path fill="none" stroke="#191970" d="M679.6009,-154.3924C692.0798,-155.9883 705.1117,-157.655 717.6651,-159.2604"/>
<polygon fill="#191970" stroke="#191970" points="717.2472,-162.7354 727.6105,-160.5324 718.1353,-155.792 717.2472,-162.7354"/>
</g>
<!-- Node46 -->
<g id="node5" class="node">
<title>Node46</title>
<g id="a_node5"><a xlink:href="a00307.html#ad4bc3d416f085818935b32a814313202" target="_top" xlink:title="A_CO_DB\\_create_write\l_security_predicate">
<polygon fill="#ffffff" stroke="#000000" points="727.165,-107.5 727.165,-135.5 852.6572,-135.5 852.6572,-107.5 727.165,-107.5"/>
<text text-anchor="start" x="735.165" y="-123.5" font-family="Helvetica,sans-Serif" font-size="10.00" fill="#000000">A_CO_DB\_create_write</text>
<text text-anchor="middle" x="789.9111" y="-113.5" font-family="Helvetica,sans-Serif" font-size="10.00" fill="#000000">_security_predicate</text>
</a>
</g>
</g>
<!-- Node44&#45;&gt;Node46 -->
<g id="edge4" class="edge">
<title>Node44&#45;&gt;Node46</title>
<path fill="none" stroke="#191970" d="M679.6009,-136.221C691.8018,-134.5928 704.5313,-132.894 716.8255,-131.2533"/>
<polygon fill="#191970" stroke="#191970" points="717.5798,-134.6838 727.029,-129.8917 716.6538,-127.7453 717.5798,-134.6838"/>
</g>
<!-- Node47&#45;&gt;Node44 -->
<g id="edge6" class="edge">
<title>Node47&#45;&gt;Node44</title>
<path fill="none" stroke="#191970" d="M481.5569,-116.5203C499.6136,-120.5921 519.4836,-125.0728 538.0888,-129.2683"/>
<polygon fill="#191970" stroke="#191970" points="537.4548,-132.7132 547.9798,-131.4987 538.9946,-125.8846 537.4548,-132.7132"/>
</g>
<!-- Node49 -->
<g id="node8" class="node">
<title>Node49</title>
<g id="a_node8"><a xlink:href="a00315.html#a884b5749acdbc87467741bc6610794e4" target="_top" xlink:title="CO_Main_Data_DB\\_parse\l_integer_parameter">
<polygon fill="#ffffff" stroke="#000000" points="541.2051,-84.5 541.2051,-112.5 678.9336,-112.5 678.9336,-84.5 541.2051,-84.5"/>
<text text-anchor="start" x="549.2051" y="-100.5" font-family="Helvetica,sans-Serif" font-size="10.00" fill="#000000">CO_Main_Data_DB\_parse</text>
<text text-anchor="middle" x="610.0693" y="-90.5" font-family="Helvetica,sans-Serif" font-size="10.00" fill="#000000">_integer_parameter</text>
</a>
</g>
</g>
<!-- Node48&#45;&gt;Node49 -->
<g id="edge8" class="edge">
<title>Node48&#45;&gt;Node49</title>
<path fill="none" stroke="#191970" d="M481.5569,-69.5203C499.6136,-73.5921 519.4836,-78.0728 538.0888,-82.2683"/>
<polygon fill="#191970" stroke="#191970" points="537.4548,-85.7132 547.9798,-84.4987 538.9946,-78.8846 537.4548,-85.7132"/>
</g>
<!-- Node50 -->
<g id="node9" class="node">
<title>Node50</title>
<g id="a_node9"><a xlink:href="a00315.html#a46a9af2d7f6fc1388608022c6b84662e" target="_top" xlink:title="CO_Main_Data_DB\\_parse\l_string_parameter">
<polygon fill="#ffffff" stroke="#000000" points="541.2051,-37.5 541.2051,-65.5 678.9336,-65.5 678.9336,-37.5 541.2051,-37.5"/>
<text text-anchor="start" x="549.2051" y="-53.5" font-family="Helvetica,sans-Serif" font-size="10.00" fill="#000000">CO_Main_Data_DB\_parse</text>
<text text-anchor="middle" x="610.0693" y="-43.5" font-family="Helvetica,sans-Serif" font-size="10.00" fill="#000000">_string_parameter</text>
</a>
</g>
</g>
<!-- Node48&#45;&gt;Node50 -->
<g id="edge9" class="edge">
<title>Node48&#45;&gt;Node50</title>
<path fill="none" stroke="#191970" d="M488.4946,-54.0503C502.3031,-53.7606 516.9077,-53.4542 531.0212,-53.1582"/>
<polygon fill="#191970" stroke="#191970" points="531.2685,-56.6539 541.1929,-52.9448 531.1217,-49.6554 531.2685,-56.6539"/>
</g>
<!-- Node51 -->
<g id="node10" class="node">
<title>Node51</title>
<g id="a_node10"><a xlink:href="a00315.html#a49c326f37d274ac9f25171380c851164" target="_top" xlink:title="CO_Main_Data_DB\\_parse_tags">
<polygon fill="#ffffff" stroke="#000000" points="528.9736,-.5 528.9736,-18.5 691.165,-18.5 691.165,-.5 528.9736,-.5"/>
<text text-anchor="middle" x="610.0693" y="-6.5" font-family="Helvetica,sans-Serif" font-size="10.00" fill="#000000">CO_Main_Data_DB\_parse_tags</text>
</a>
</g>
</g>
<!-- Node48&#45;&gt;Node51 -->
<g id="edge10" class="edge">
<title>Node48&#45;&gt;Node51</title>
<path fill="none" stroke="#191970" d="M475.95,-41.4327C492.9835,-37.2321 511.731,-32.6438 528.9736,-28.5 539.3089,-26.0162 550.3951,-23.3923 560.9488,-20.9135"/>
<polygon fill="#191970" stroke="#191970" points="561.9245,-24.2797 570.8624,-18.5906 560.3276,-17.4643 561.9245,-24.2797"/>
</g>
<!-- Node54 -->
<g id="node13" class="node">
<title>Node54</title>
<g id="a_node13"><a xlink:href="a00307.html#ae41efbdfe739934823b5f4c785b22611" target="_top" xlink:title="A_CO_DB\\_execute_query">
<polygon fill="#ffffff" stroke="#000000" points="351.0703,-4.5 351.0703,-22.5 487.6953,-22.5 487.6953,-4.5 351.0703,-4.5"/>
<text text-anchor="middle" x="419.3828" y="-10.5" font-family="Helvetica,sans-Serif" font-size="10.00" fill="#000000">A_CO_DB\_execute_query</text>
</a>
</g>
</g>
<!-- Node53&#45;&gt;Node54 -->
<g id="edge13" class="edge">
<title>Node53&#45;&gt;Node54</title>
<path fill="none" stroke="#191970" d="M308.5975,-13.5C319.0708,-13.5 329.9978,-13.5 340.7328,-13.5"/>
<polygon fill="#191970" stroke="#191970" points="340.9454,-17.0001 350.9454,-13.5 340.9453,-10.0001 340.9454,-17.0001"/>
</g>
</g>
</svg>
