<?xml version="1.0" encoding="UTF-8" standalone="no"?>
<!DOCTYPE svg PUBLIC "-//W3C//DTD SVG 1.1//EN"
 "http://www.w3.org/Graphics/SVG/1.1/DTD/svg11.dtd">
<!-- Generated by graphviz version 2.40.1 (20161225.0304)
 -->
<!-- Title: CO_Security_Login\_set_up_api_key Pages: 1 -->
<svg width="262pt" height="37pt"
 viewBox="0.00 0.00 262.21 37.00" xmlns="http://www.w3.org/2000/svg" xmlns:xlink="http://www.w3.org/1999/xlink">
<g id="graph0" class="graph" transform="scale(1 1) rotate(0) translate(4 33)">
<title>CO_Security_Login\_set_up_api_key</title>
<polygon fill="#ffffff" stroke="transparent" points="-4,4 -4,-33 258.2061,-33 258.2061,4 -4,4"/>
<!-- Node9 -->
<g id="node1" class="node">
<title>Node9</title>
<polygon fill="#bfbfbf" stroke="#000000" points="0,-.5 0,-28.5 105.4922,-28.5 105.4922,-.5 0,-.5"/>
<text text-anchor="start" x="8" y="-16.5" font-family="Helvetica,sans-Serif" font-size="10.00" fill="#000000">CO_Security_Login\</text>
<text text-anchor="middle" x="52.7461" y="-6.5" font-family="Helvetica,sans-Serif" font-size="10.00" fill="#000000">_set_up_api_key</text>
</g>
<!-- Node10 -->
<g id="node2" class="node">
<title>Node10</title>
<g id="a_node2"><a xlink:href="a00343.html#a5ec502fbeb3620816dbcf4868da637e8" target="_top" xlink:title="CO_Security_Login\\is\l_login_valid">
<polygon fill="#ffffff" stroke="#000000" points="141.4922,-.5 141.4922,-28.5 254.2061,-28.5 254.2061,-.5 141.4922,-.5"/>
<text text-anchor="start" x="149.4922" y="-16.5" font-family="Helvetica,sans-Serif" font-size="10.00" fill="#000000">CO_Security_Login\is</text>
<text text-anchor="middle" x="197.8491" y="-6.5" font-family="Helvetica,sans-Serif" font-size="10.00" fill="#000000">_login_valid</text>
</a>
</g>
</g>
<!-- Node9&#45;&gt;Node10 -->
<g id="edge1" class="edge">
<title>Node9&#45;&gt;Node10</title>
<path fill="none" stroke="#191970" d="M115.8137,-14.5C124.3332,-14.5 133.0302,-14.5 141.4239,-14.5"/>
<polygon fill="#191970" stroke="#191970" points="115.5421,-11.0001 105.5421,-14.5 115.5421,-18.0001 115.5421,-11.0001"/>
</g>
</g>
</svg>
