<?xml version="1.0" encoding="UTF-8" standalone="no"?>
<!DOCTYPE svg PUBLIC "-//W3C//DTD SVG 1.1//EN"
 "http://www.w3.org/Graphics/SVG/1.1/DTD/svg11.dtd">
<!-- Generated by graphviz version 2.40.1 (20161225.0304)
 -->
<!-- Title: A_CO_DB\_create_read_security_predicate Pages: 1 -->
<!--zoomable 628 -->
<svg id="main" version="1.1" xmlns="http://www.w3.org/2000/svg" xmlns:xlink="http://www.w3.org/1999/xlink" xml:space="preserve" onload="init(evt)">
<style type="text/css"><![CDATA[
.edge:hover path { stroke: red; }
.edge:hover polygon { stroke: red; fill: red; }
]]></style>
<script type="text/javascript"><![CDATA[
var edges = document.getElementsByTagName('g');
if (edges && edges.length) {
  for (var i=0;i<edges.length;i++) {
    if (edges[i].id.substr(0,4)=='edge') {
      edges[i].setAttribute('class','edge');
    }
  }
}
]]></script>
        <defs>
                <circle id="rim" cx="0" cy="0" r="7"/>
                <circle id="rim2" cx="0" cy="0" r="3.5"/>
                <g id="zoomPlus">
                        <use xlink:href="#rim" fill="#404040">
                                <set attributeName="fill" to="#808080" begin="zoomplus.mouseover" end="zoomplus.mouseout"/>
                        </use>
                        <path d="M-4,0h8M0,-4v8" fill="none" stroke="white" stroke-width="1.5" pointer-events="none"/>
                </g>
                <g id="zoomMin">
                        <use xlink:href="#rim" fill="#404040">
                                <set attributeName="fill" to="#808080" begin="zoomminus.mouseover" end="zoomminus.mouseout"/>
                        </use>
                        <path d="M-4,0h8" fill="none" stroke="white" stroke-width="1.5" pointer-events="none"/>
                </g>
                <g id="dirArrow">
                        <path fill="none" stroke="white" stroke-width="1.5" d="M0,-3.0v7 M-2.5,-0.5L0,-3.0L2.5,-0.5"/>
                </g>
               <g id="resetDef">
                       <use xlink:href="#rim2" fill="#404040">
                               <set attributeName="fill" to="#808080" begin="reset.mouseover" end="reset.mouseout"/>
                       </use>
               </g>
        </defs>

<script type="text/javascript">
var viewWidth = 840;
var viewHeight = 628;
var sectionId = 'dynsection-2';
</script>
<script xlink:href="svgpan.js"/>
<svg id="graph" class="graph">
<g id="viewport">
<title>A_CO_DB\_create_read_security_predicate</title>
<polygon fill="#ffffff" stroke="transparent" points="-4,4 -4,-624.2073 836.1104,-624.2073 836.1104,4 -4,4"/>
<!-- Node1 -->
<g id="node1" class="node">
<title>Node1</title>
<g id="a_node1"><a xlink:title=" ">
<polygon fill="#bfbfbf" stroke="#000000" points="707.7168,-251.5 707.7168,-279.5 832.1104,-279.5 832.1104,-251.5 707.7168,-251.5"/>
<text text-anchor="start" x="715.7168" y="-267.5" font-family="Helvetica,sans-Serif" font-size="10.00" fill="#000000">A_CO_DB\_create_read</text>
<text text-anchor="middle" x="769.9136" y="-257.5" font-family="Helvetica,sans-Serif" font-size="10.00" fill="#000000">_security_predicate</text>
</a>
</g>
</g>
<!-- Node2 -->
<g id="node2" class="node">
<title>Node2</title>
<g id="a_node2"><a xlink:href="a00307.html#ad2356dbed1b38898d8c17bcd8eb405ef" target="_top" xlink:title=" ">
<polygon fill="#ffffff" stroke="#000000" points="532.8848,-298.5 532.8848,-326.5 671.7168,-326.5 671.7168,-298.5 532.8848,-298.5"/>
<text text-anchor="start" x="540.8848" y="-314.5" font-family="Helvetica,sans-Serif" font-size="10.00" fill="#000000">A_CO_DB\_create_security</text>
<text text-anchor="middle" x="602.3008" y="-304.5" font-family="Helvetica,sans-Serif" font-size="10.00" fill="#000000">_predicate</text>
</a>
</g>
</g>
<!-- Node1&#45;&gt;Node2 -->
<g id="edge1" class="edge">
<title>Node1&#45;&gt;Node2</title>
<path fill="none" stroke="#191970" d="M709.9282,-282.3204C691.0362,-287.6179 670.3829,-293.4092 652.2656,-298.4894"/>
<polygon fill="#191970" stroke="#191970" points="710.9406,-285.6716 719.6242,-279.6015 709.0506,-278.9315 710.9406,-285.6716"/>
</g>
<!-- Node20 -->
<g id="node20" class="node">
<title>Node20</title>
<g id="a_node20"><a xlink:href="a00315.html#ad5f95b226e01879bbee99a65b33cb12b" target="_top" xlink:title=" ">
<polygon fill="#ffffff" stroke="#000000" points="541.7739,-251.5 541.7739,-279.5 662.8276,-279.5 662.8276,-251.5 541.7739,-251.5"/>
<text text-anchor="start" x="549.7739" y="-267.5" font-family="Helvetica,sans-Serif" font-size="10.00" fill="#000000">CO_Main_Data_DB\get</text>
<text text-anchor="middle" x="602.3008" y="-257.5" font-family="Helvetica,sans-Serif" font-size="10.00" fill="#000000">_all_visible_users</text>
</a>
</g>
</g>
<!-- Node1&#45;&gt;Node20 -->
<g id="edge20" class="edge">
<title>Node1&#45;&gt;Node20</title>
<path fill="none" stroke="#191970" d="M697.1648,-265.5C685.7988,-265.5 674.1566,-265.5 663.0943,-265.5"/>
<polygon fill="#191970" stroke="#191970" points="697.5008,-269.0001 707.5008,-265.5 697.5007,-262.0001 697.5008,-269.0001"/>
</g>
<!-- Node21 -->
<g id="node21" class="node">
<title>Node21</title>
<g id="a_node21"><a xlink:href="a00315.html#aad50ae8e57d81015ec1e8601dd2eaba4" target="_top" xlink:title=" ">
<polygon fill="#ffffff" stroke="#000000" points="539.2788,-204.5 539.2788,-232.5 665.3228,-232.5 665.3228,-204.5 539.2788,-204.5"/>
<text text-anchor="start" x="547.2788" y="-220.5" font-family="Helvetica,sans-Serif" font-size="10.00" fill="#000000">CO_Main_Data_DB\item</text>
<text text-anchor="middle" x="602.3008" y="-210.5" font-family="Helvetica,sans-Serif" font-size="10.00" fill="#000000">_exists</text>
</a>
</g>
</g>
<!-- Node1&#45;&gt;Node21 -->
<g id="edge21" class="edge">
<title>Node1&#45;&gt;Node21</title>
<path fill="none" stroke="#191970" d="M709.9282,-248.6796C691.0362,-243.3821 670.3829,-237.5908 652.2656,-232.5106"/>
<polygon fill="#191970" stroke="#191970" points="709.0506,-252.0685 719.6242,-251.3985 710.9406,-245.3284 709.0506,-252.0685"/>
</g>
<!-- Node3 -->
<g id="node3" class="node">
<title>Node3</title>
<g id="a_node3"><a xlink:href="a00315.html#aa97e6ad521aed4c2cbe03e83017af0b7" target="_top" xlink:title=" ">
<polygon fill="#ffffff" stroke="#000000" points="177.9058,-575.5 177.9058,-603.5 311.7476,-603.5 311.7476,-575.5 177.9058,-575.5"/>
<text text-anchor="start" x="185.9058" y="-591.5" font-family="Helvetica,sans-Serif" font-size="10.00" fill="#000000">CO_Main_Data_DB\_build</text>
<text text-anchor="middle" x="244.8267" y="-581.5" font-family="Helvetica,sans-Serif" font-size="10.00" fill="#000000">_sql_query</text>
</a>
</g>
</g>
<!-- Node2&#45;&gt;Node3 -->
<g id="edge2" class="edge">
<title>Node2&#45;&gt;Node3</title>
<path fill="none" stroke="#191970" d="M596.8685,-336.7744C582.3787,-399.1053 540.9044,-562.0368 496.8848,-592.5 434.2686,-635.8327 340.3267,-618.8741 286.5696,-603.564"/>
<polygon fill="#191970" stroke="#191970" points="600.3583,-337.2148 599.1813,-326.6855 593.5353,-335.6505 600.3583,-337.2148"/>
</g>
<!-- Node5 -->
<g id="node5" class="node">
<title>Node5</title>
<g id="a_node5"><a xlink:href="a00315.html#a352444b4bfd455cb53a57137f3c44884" target="_top" xlink:title=" ">
<polygon fill="#ffffff" stroke="#000000" points="349.7031,-554.5 349.7031,-582.5 496.8848,-582.5 496.8848,-554.5 349.7031,-554.5"/>
<text text-anchor="start" x="357.7031" y="-570.5" font-family="Helvetica,sans-Serif" font-size="10.00" fill="#000000">CO_Main_Data_DB\_location</text>
<text text-anchor="middle" x="423.2939" y="-560.5" font-family="Helvetica,sans-Serif" font-size="10.00" fill="#000000">_predicate</text>
</a>
</g>
</g>
<!-- Node2&#45;&gt;Node5 -->
<g id="edge4" class="edge">
<title>Node2&#45;&gt;Node5</title>
<path fill="none" stroke="#191970" d="M598.1491,-336.5732C588.7684,-383.6563 561.5086,-488.3129 496.8848,-545.5 492.9753,-548.9596 488.5491,-551.8989 483.8542,-554.3961"/>
<polygon fill="#191970" stroke="#191970" points="601.6029,-337.145 600.0249,-326.6683 594.7252,-335.8424 601.6029,-337.145"/>
</g>
<!-- Node6 -->
<g id="node6" class="node">
<title>Node6</title>
<g id="a_node6"><a xlink:href="a00307.html#af6baed01812f38acbc19df4b00f443b2" target="_top" xlink:title=" ">
<polygon fill="#ffffff" stroke="#000000" points="357.2056,-507.5 357.2056,-535.5 489.3823,-535.5 489.3823,-507.5 357.2056,-507.5"/>
<text text-anchor="start" x="365.2056" y="-523.5" font-family="Helvetica,sans-Serif" font-size="10.00" fill="#000000">A_CO_DB\can_i_see_this</text>
<text text-anchor="middle" x="423.2939" y="-513.5" font-family="Helvetica,sans-Serif" font-size="10.00" fill="#000000">_record</text>
</a>
</g>
</g>
<!-- Node2&#45;&gt;Node6 -->
<g id="edge6" class="edge">
<title>Node2&#45;&gt;Node6</title>
<path fill="none" stroke="#191970" d="M595.2812,-336.0843C582.3381,-375.529 550.9737,-454.8452 496.8848,-498.5 492.6141,-501.9468 487.8238,-504.8796 482.7898,-507.3744"/>
<polygon fill="#191970" stroke="#191970" points="598.6279,-337.109 598.3128,-326.5188 591.9551,-334.9941 598.6279,-337.109"/>
</g>
<!-- Node7 -->
<g id="node7" class="node">
<title>Node7</title>
<g id="a_node7"><a xlink:href="a00307.html#a9794f1140b379f8d09c4265a089fcea0" target="_top" xlink:title=" ">
<polygon fill="#ffffff" stroke="#000000" points="359.9863,-470.5 359.9863,-488.5 486.6016,-488.5 486.6016,-470.5 359.9863,-470.5"/>
<text text-anchor="middle" x="423.2939" y="-476.5" font-family="Helvetica,sans-Serif" font-size="10.00" fill="#000000">A_CO_DB\delete_record</text>
</a>
</g>
</g>
<!-- Node2&#45;&gt;Node7 -->
<g id="edge7" class="edge">
<title>Node2&#45;&gt;Node7</title>
<path fill="none" stroke="#191970" d="M592.2681,-335.927C576.7938,-369.1638 543.8937,-429.5135 496.8848,-461.5 491.4477,-465.1996 485.3272,-468.1407 478.9976,-470.4784"/>
<polygon fill="#191970" stroke="#191970" points="595.5796,-337.0981 596.5073,-326.5439 589.2004,-334.2159 595.5796,-337.0981"/>
</g>
<!-- Node8 -->
<g id="node8" class="node">
<title>Node8</title>
<g id="a_node8"><a xlink:href="a00307.html#a707e7cfdbea32a3713320dbca46dac64" target="_top" xlink:title=" ">
<polygon fill="#ffffff" stroke="#000000" points="365.2695,-423.5 365.2695,-451.5 481.3184,-451.5 481.3184,-423.5 365.2695,-423.5"/>
<text text-anchor="start" x="373.2695" y="-439.5" font-family="Helvetica,sans-Serif" font-size="10.00" fill="#000000">A_CO_DB\get_access</text>
<text text-anchor="middle" x="423.2939" y="-429.5" font-family="Helvetica,sans-Serif" font-size="10.00" fill="#000000">_class_by_id</text>
</a>
</g>
</g>
<!-- Node2&#45;&gt;Node8 -->
<g id="edge8" class="edge">
<title>Node2&#45;&gt;Node8</title>
<path fill="none" stroke="#191970" d="M584.7974,-334.7179C565.5463,-357.7544 532.5714,-393.3056 496.8848,-414.5 491.1303,-417.9176 484.8164,-420.8776 478.3811,-423.4283"/>
<polygon fill="#191970" stroke="#191970" points="587.6165,-336.7996 591.2485,-326.8468 582.2026,-332.3623 587.6165,-336.7996"/>
</g>
<!-- Node9 -->
<g id="node9" class="node">
<title>Node9</title>
<g id="a_node9"><a xlink:href="a00327.html#ad75f2ed511a4eae172f9f2acd73f2de9" target="_top" xlink:title=" ">
<polygon fill="#ffffff" stroke="#000000" points="368.8853,-376.5 368.8853,-404.5 477.7026,-404.5 477.7026,-376.5 368.8853,-376.5"/>
<text text-anchor="start" x="376.8853" y="-392.5" font-family="Helvetica,sans-Serif" font-size="10.00" fill="#000000">CO_Security_DB\get</text>
<text text-anchor="middle" x="423.2939" y="-382.5" font-family="Helvetica,sans-Serif" font-size="10.00" fill="#000000">_all_login_objects</text>
</a>
</g>
</g>
<!-- Node2&#45;&gt;Node9 -->
<g id="edge9" class="edge">
<title>Node2&#45;&gt;Node9</title>
<path fill="none" stroke="#191970" d="M569.2952,-331.66C548.8719,-343.0232 521.8659,-357.1757 496.8848,-367.5 489.0912,-370.721 480.6767,-373.7495 472.4189,-376.4853"/>
<polygon fill="#191970" stroke="#191970" points="571.1853,-334.6126 578.1848,-326.6591 567.7532,-328.5117 571.1853,-334.6126"/>
</g>
<!-- Node10 -->
<g id="node10" class="node">
<title>Node10</title>
<g id="a_node10"><a xlink:href="a00327.html#af39966b2bf3f43bc640b013ec5a472be" target="_top" xlink:title=" ">
<polygon fill="#ffffff" stroke="#000000" points="363.8706,-319.5 363.8706,-357.5 482.7173,-357.5 482.7173,-319.5 363.8706,-319.5"/>
<text text-anchor="start" x="371.8706" y="-345.5" font-family="Helvetica,sans-Serif" font-size="10.00" fill="#000000">CO_Security_DB\get</text>
<text text-anchor="start" x="371.8706" y="-335.5" font-family="Helvetica,sans-Serif" font-size="10.00" fill="#000000">_all_login_objects_with</text>
<text text-anchor="middle" x="423.2939" y="-325.5" font-family="Helvetica,sans-Serif" font-size="10.00" fill="#000000">_access</text>
</a>
</g>
</g>
<!-- Node2&#45;&gt;Node10 -->
<g id="edge10" class="edge">
<title>Node2&#45;&gt;Node10</title>
<path fill="none" stroke="#191970" d="M522.6763,-324.0651C509.2882,-326.0097 495.6016,-327.9976 482.8346,-329.852"/>
<polygon fill="#191970" stroke="#191970" points="523.4428,-327.4906 532.8359,-322.5895 522.4366,-320.5633 523.4428,-327.4906"/>
</g>
<!-- Node11 -->
<g id="node11" class="node">
<title>Node11</title>
<g id="a_node11"><a xlink:href="a00307.html#a6ccca3e1b18f58a3d4a4ad6018f067b1" target="_top" xlink:title=" ">
<polygon fill="#ffffff" stroke="#000000" points="353.5874,-272.5 353.5874,-300.5 493.0005,-300.5 493.0005,-272.5 353.5874,-272.5"/>
<text text-anchor="start" x="361.5874" y="-288.5" font-family="Helvetica,sans-Serif" font-size="10.00" fill="#000000">A_CO_DB\get_all_readable</text>
<text text-anchor="middle" x="423.2939" y="-278.5" font-family="Helvetica,sans-Serif" font-size="10.00" fill="#000000">_records</text>
</a>
</g>
</g>
<!-- Node2&#45;&gt;Node11 -->
<g id="edge11" class="edge">
<title>Node2&#45;&gt;Node11</title>
<path fill="none" stroke="#191970" d="M522.9387,-300.973C512.9663,-299.5245 502.8237,-298.0514 493.0147,-296.6267"/>
<polygon fill="#191970" stroke="#191970" points="522.4366,-304.4367 532.8359,-302.4105 523.4428,-297.5094 522.4366,-304.4367"/>
</g>
<!-- Node12 -->
<g id="node12" class="node">
<title>Node12</title>
<g id="a_node12"><a xlink:href="a00307.html#a2b39eabcd72a9d79267e51a5f2b16648" target="_top" xlink:title=" ">
<polygon fill="#ffffff" stroke="#000000" points="353.0381,-225.5 353.0381,-253.5 493.5498,-253.5 493.5498,-225.5 353.0381,-225.5"/>
<text text-anchor="start" x="361.0381" y="-241.5" font-family="Helvetica,sans-Serif" font-size="10.00" fill="#000000">A_CO_DB\get_all_writeable</text>
<text text-anchor="middle" x="423.2939" y="-231.5" font-family="Helvetica,sans-Serif" font-size="10.00" fill="#000000">_records</text>
</a>
</g>
</g>
<!-- Node2&#45;&gt;Node12 -->
<g id="edge12" class="edge">
<title>Node2&#45;&gt;Node12</title>
<path fill="none" stroke="#191970" d="M543.8747,-294.6093C540.1029,-293.006 536.4082,-291.3019 532.8848,-289.5 515.3127,-280.5138 514.4779,-272.4449 496.8848,-263.5 489.5775,-259.7848 481.5743,-256.4774 473.6217,-253.5945"/>
<polygon fill="#191970" stroke="#191970" points="542.7707,-297.937 553.356,-298.3858 545.361,-291.4339 542.7707,-297.937"/>
</g>
<!-- Node13 -->
<g id="node13" class="node">
<title>Node13</title>
<g id="a_node13"><a xlink:href="a00307.html#aaca8bf49257aa5ade3c354ef76119fa4" target="_top" xlink:title=" ">
<polygon fill="#ffffff" stroke="#000000" points="363.6021,-178.5 363.6021,-206.5 482.9858,-206.5 482.9858,-178.5 363.6021,-178.5"/>
<text text-anchor="start" x="371.6021" y="-194.5" font-family="Helvetica,sans-Serif" font-size="10.00" fill="#000000">A_CO_DB\get_multiple</text>
<text text-anchor="middle" x="423.2939" y="-184.5" font-family="Helvetica,sans-Serif" font-size="10.00" fill="#000000">_records_by_id</text>
</a>
</g>
</g>
<!-- Node2&#45;&gt;Node13 -->
<g id="edge13" class="edge">
<title>Node2&#45;&gt;Node13</title>
<path fill="none" stroke="#191970" d="M537.0995,-292.8583C535.6397,-291.7969 534.2312,-290.6785 532.8848,-289.5 505.3635,-265.4114 524.6101,-239.3534 496.8848,-215.5 492.7245,-211.9207 488.0092,-208.898 483.0233,-206.3453"/>
<polygon fill="#191970" stroke="#191970" points="535.5994,-296.0461 545.944,-298.3352 539.2847,-290.0947 535.5994,-296.0461"/>
</g>
<!-- Node15 -->
<g id="node15" class="node">
<title>Node15</title>
<g id="a_node15"><a xlink:href="a00327.html#af7f9180938518c8325b3d4ba52112e02" target="_top" xlink:title=" ">
<polygon fill="#ffffff" stroke="#000000" points="367.7695,-121.5 367.7695,-159.5 478.8184,-159.5 478.8184,-121.5 367.7695,-121.5"/>
<text text-anchor="start" x="375.7695" y="-147.5" font-family="Helvetica,sans-Serif" font-size="10.00" fill="#000000">CO_Security_DB\get</text>
<text text-anchor="start" x="375.7695" y="-137.5" font-family="Helvetica,sans-Serif" font-size="10.00" fill="#000000">_multiple_records_by</text>
<text text-anchor="middle" x="423.2939" y="-127.5" font-family="Helvetica,sans-Serif" font-size="10.00" fill="#000000">_login_id</text>
</a>
</g>
</g>
<!-- Node2&#45;&gt;Node15 -->
<g id="edge15" class="edge">
<title>Node2&#45;&gt;Node15</title>
<path fill="none" stroke="#191970" d="M536.1822,-292.5966C535.0358,-291.6137 533.9343,-290.5823 532.8848,-289.5 493.8259,-249.2203 535.056,-209.6218 496.8848,-168.5 491.8629,-163.0899 485.6852,-158.7163 479.0627,-155.1827"/>
<polygon fill="#191970" stroke="#191970" points="534.1516,-295.4473 544.3254,-298.4045 538.2163,-289.7483 534.1516,-295.4473"/>
</g>
<!-- Node17 -->
<g id="node17" class="node">
<title>Node17</title>
<g id="a_node17"><a xlink:href="a00307.html#af62a0d273b69bdf1f5012f88e619cec7" target="_top" xlink:title=" ">
<polygon fill="#ffffff" stroke="#000000" points="367.7671,-74.5 367.7671,-102.5 478.8208,-102.5 478.8208,-74.5 367.7671,-74.5"/>
<text text-anchor="start" x="375.7671" y="-90.5" font-family="Helvetica,sans-Serif" font-size="10.00" fill="#000000">A_CO_DB\get_single</text>
<text text-anchor="middle" x="423.2939" y="-80.5" font-family="Helvetica,sans-Serif" font-size="10.00" fill="#000000">_raw_row_by_id</text>
</a>
</g>
</g>
<!-- Node2&#45;&gt;Node17 -->
<g id="edge17" class="edge">
<title>Node2&#45;&gt;Node17</title>
<path fill="none" stroke="#191970" d="M535.2527,-291.9714C534.433,-291.1785 533.6426,-290.3551 532.8848,-289.5 479.3491,-229.0972 550.9328,-171.4448 496.8848,-111.5 491.9549,-106.0322 485.7465,-101.8523 479.0365,-98.6591"/>
<polygon fill="#191970" stroke="#191970" points="533.3063,-294.893 543.3334,-298.3147 537.6286,-289.3868 533.3063,-294.893"/>
</g>
<!-- Node18 -->
<g id="node18" class="node">
<title>Node18</title>
<g id="a_node18"><a xlink:href="a00307.html#afacdcd578ddc750ca33d2418b54ab6b9" target="_top" xlink:title=" ">
<polygon fill="#ffffff" stroke="#000000" points="364.7178,-37.5 364.7178,-55.5 481.8701,-55.5 481.8701,-37.5 364.7178,-37.5"/>
<text text-anchor="middle" x="423.2939" y="-43.5" font-family="Helvetica,sans-Serif" font-size="10.00" fill="#000000">A_CO_DB\lock_record</text>
</a>
</g>
</g>
<!-- Node2&#45;&gt;Node18 -->
<g id="edge18" class="edge">
<title>Node2&#45;&gt;Node18</title>
<path fill="none" stroke="#191970" d="M535.2034,-292.0141C534.399,-291.208 533.625,-290.3704 532.8848,-289.5 467.2764,-212.3537 565.5281,-138.9587 496.8848,-64.5 492.6947,-59.9549 487.5626,-56.472 481.9757,-53.8144"/>
<polygon fill="#191970" stroke="#191970" points="533.1974,-294.8928 543.177,-298.4504 537.5941,-289.4459 533.1974,-294.8928"/>
</g>
<!-- Node19 -->
<g id="node19" class="node">
<title>Node19</title>
<g id="a_node19"><a xlink:href="a00307.html#acac7eadbd231d714f3eed150eec35838" target="_top" xlink:title=" ">
<polygon fill="#ffffff" stroke="#000000" points="363.0527,-.5 363.0527,-18.5 483.5352,-18.5 483.5352,-.5 363.0527,-.5"/>
<text text-anchor="middle" x="423.2939" y="-6.5" font-family="Helvetica,sans-Serif" font-size="10.00" fill="#000000">A_CO_DB\write_record</text>
</a>
</g>
</g>
<!-- Node2&#45;&gt;Node19 -->
<g id="edge19" class="edge">
<title>Node2&#45;&gt;Node19</title>
<path fill="none" stroke="#191970" d="M534.8219,-291.6705C534.1527,-290.9706 533.5063,-290.2474 532.8848,-289.5 457.7325,-199.1261 575.5938,-114.7937 496.8848,-27.5 493.1855,-23.3973 488.7193,-20.1563 483.8373,-17.6047"/>
<polygon fill="#191970" stroke="#191970" points="532.8553,-294.5881 542.7746,-298.3108 537.3418,-289.2148 532.8553,-294.5881"/>
</g>
<!-- Node4 -->
<g id="node4" class="node">
<title>Node4</title>
<g id="a_node4"><a xlink:href="a00315.html#a303048d406814c066d27fda70de4ff02" target="_top" xlink:title=" ">
<polygon fill="#ffffff" stroke="#000000" points="0,-575.5 0,-603.5 139.9502,-603.5 139.9502,-575.5 0,-575.5"/>
<text text-anchor="start" x="8" y="-591.5" font-family="Helvetica,sans-Serif" font-size="10.00" fill="#000000">CO_Main_Data_DB\generic</text>
<text text-anchor="middle" x="69.9751" y="-581.5" font-family="Helvetica,sans-Serif" font-size="10.00" fill="#000000">_search</text>
</a>
</g>
</g>
<!-- Node3&#45;&gt;Node4 -->
<g id="edge3" class="edge">
<title>Node3&#45;&gt;Node4</title>
<path fill="none" stroke="#191970" d="M167.5059,-589.5C158.38,-589.5 149.1052,-589.5 140.0864,-589.5"/>
<polygon fill="#191970" stroke="#191970" points="167.7246,-593.0001 177.7245,-589.5 167.7245,-586.0001 167.7246,-593.0001"/>
</g>
<!-- Node5&#45;&gt;Node3 -->
<g id="edge5" class="edge">
<title>Node5&#45;&gt;Node3</title>
<path fill="none" stroke="#191970" d="M339.6573,-578.3414C330.3793,-579.4331 321.0203,-580.5344 311.9836,-581.5977"/>
<polygon fill="#191970" stroke="#191970" points="340.1517,-581.8075 349.6741,-577.1627 339.3336,-574.8554 340.1517,-581.8075"/>
</g>
<!-- Node14 -->
<g id="node14" class="node">
<title>Node14</title>
<g id="a_node14"><a xlink:href="a00307.html#a631d8d027d72c940a7cec689cbb4e568" target="_top" xlink:title=" ">
<polygon fill="#ffffff" stroke="#000000" points="189.2998,-178.5 189.2998,-206.5 300.3535,-206.5 300.3535,-178.5 189.2998,-178.5"/>
<text text-anchor="start" x="197.2998" y="-194.5" font-family="Helvetica,sans-Serif" font-size="10.00" fill="#000000">A_CO_DB\get_single</text>
<text text-anchor="middle" x="244.8267" y="-184.5" font-family="Helvetica,sans-Serif" font-size="10.00" fill="#000000">_record_by_id</text>
</a>
</g>
</g>
<!-- Node13&#45;&gt;Node14 -->
<g id="edge14" class="edge">
<title>Node13&#45;&gt;Node14</title>
<path fill="none" stroke="#191970" d="M353.1895,-192.5C335.6582,-192.5 317.0932,-192.5 300.3766,-192.5"/>
<polygon fill="#191970" stroke="#191970" points="353.3705,-196.0001 363.3704,-192.5 353.3704,-189.0001 353.3705,-196.0001"/>
</g>
<!-- Node16 -->
<g id="node16" class="node">
<title>Node16</title>
<g id="a_node16"><a xlink:href="a00327.html#ab01692597b11329b0d63096b10e1f473" target="_top" xlink:title=" ">
<polygon fill="#ffffff" stroke="#000000" points="175.9502,-126.5 175.9502,-154.5 313.7031,-154.5 313.7031,-126.5 175.9502,-126.5"/>
<text text-anchor="start" x="183.9502" y="-142.5" font-family="Helvetica,sans-Serif" font-size="10.00" fill="#000000">CO_Security_DB\get</text>
<text text-anchor="middle" x="244.8267" y="-132.5" font-family="Helvetica,sans-Serif" font-size="10.00" fill="#000000">_single_record_by_login_id</text>
</a>
</g>
</g>
<!-- Node15&#45;&gt;Node16 -->
<g id="edge16" class="edge">
<title>Node15&#45;&gt;Node16</title>
<path fill="none" stroke="#191970" d="M357.1806,-140.5C343.0293,-140.5 328.0447,-140.5 313.7889,-140.5"/>
<polygon fill="#191970" stroke="#191970" points="357.3155,-144.0001 367.3154,-140.5 357.3154,-137.0001 357.3155,-144.0001"/>
</g>
</g>
</svg>
        <g id="navigator" transform="translate(0 0)" fill="#404254">
                <rect fill="#f2f5e9" fill-opacity="0.5" stroke="#606060" stroke-width=".5" x="0" y="0" width="60" height="60"/>
                <use id="zoomplus" xlink:href="#zoomPlus" x="17" y="9" onmousedown="handleZoom(evt,'in')"/>
                <use id="zoomminus" xlink:href="#zoomMin" x="42" y="9" onmousedown="handleZoom(evt,'out')"/>
                <use id="reset" xlink:href="#resetDef" x="30" y="36" onmousedown="handleReset()"/>
                <g id="arrowUp" xlink:href="#dirArrow" transform="translate(30 24)" onmousedown="handlePan(0,-1)">
                  <use xlink:href="#rim" fill="#404040">
                        <set attributeName="fill" to="#808080" begin="arrowUp.mouseover" end="arrowUp.mouseout"/>
                  </use>
                  <path fill="none" stroke="white" stroke-width="1.5" d="M0,-3.0v7 M-2.5,-0.5L0,-3.0L2.5,-0.5"/>
                </g>
                <g id="arrowRight" xlink:href="#dirArrow" transform="rotate(90) translate(36 -43)" onmousedown="handlePan(1,0)">
                  <use xlink:href="#rim" fill="#404040">
                        <set attributeName="fill" to="#808080" begin="arrowRight.mouseover" end="arrowRight.mouseout"/>
                  </use>
                  <path fill="none" stroke="white" stroke-width="1.5" d="M0,-3.0v7 M-2.5,-0.5L0,-3.0L2.5,-0.5"/>
                </g>
                <g id="arrowDown" xlink:href="#dirArrow" transform="rotate(180) translate(-30 -48)" onmousedown="handlePan(0,1)">
                  <use xlink:href="#rim" fill="#404040">
                        <set attributeName="fill" to="#808080" begin="arrowDown.mouseover" end="arrowDown.mouseout"/>
                  </use>
                  <path fill="none" stroke="white" stroke-width="1.5" d="M0,-3.0v7 M-2.5,-0.5L0,-3.0L2.5,-0.5"/>
                </g>
                <g id="arrowLeft" xlink:href="#dirArrow" transform="rotate(270) translate(-36 17)" onmousedown="handlePan(-1,0)">
                  <use xlink:href="#rim" fill="#404040">
                        <set attributeName="fill" to="#808080" begin="arrowLeft.mouseover" end="arrowLeft.mouseout"/>
                  </use>
                  <path fill="none" stroke="white" stroke-width="1.5" d="M0,-3.0v7 M-2.5,-0.5L0,-3.0L2.5,-0.5"/>
                </g>
        </g>
        <svg viewBox="0 0 15 15" width="100%" height="30px" preserveAspectRatio="xMaxYMin meet">
         <g id="arrow_out" transform="scale(0.3 0.3)">
          <a xlink:href="a00307_a176b2c663fa7768e95e4fbe93281adc6_icgraph_org.svg" target="_base">
           <rect id="button" ry="5" rx="5" y="6" x="6" height="38" width="38"
                fill="#f2f5e9" fill-opacity="0.5" stroke="#606060" stroke-width="1.0"/>
           <path id="arrow"
             d="M 11.500037,31.436501 C 11.940474,20.09759 22.043105,11.32322 32.158766,21.979434 L 37.068811,17.246167 C 37.068811,17.246167 37.088388,32 37.088388,32 L 22.160133,31.978069 C 22.160133,31.978069 26.997745,27.140456 26.997745,27.140456 C 18.528582,18.264221 13.291696,25.230495 11.500037,31.436501 z"
             style="fill:#404040;"/>
          </a>
         </g>
        </svg>
</svg>
