<?xml version="1.0" encoding="UTF-8" standalone="no"?>
<!DOCTYPE svg PUBLIC "-//W3C//DTD SVG 1.1//EN"
 "http://www.w3.org/Graphics/SVG/1.1/DTD/svg11.dtd">
<!-- Generated by graphviz version 2.40.1 (20161225.0304)
 -->
<!-- Title: CO_Security_DB\remove_personal_token_from_this_login Pages: 1 -->
<svg width="476pt" height="47pt"
 viewBox="0.00 0.00 475.95 47.00" xmlns="http://www.w3.org/2000/svg" xmlns:xlink="http://www.w3.org/1999/xlink">
<g id="graph0" class="graph" transform="scale(1 1) rotate(0) translate(4 43)">
<title>CO_Security_DB\remove_personal_token_from_this_login</title>
<polygon fill="#ffffff" stroke="transparent" points="-4,4 -4,-43 471.9492,-43 471.9492,4 -4,4"/>
<!-- Node1 -->
<g id="node1" class="node">
<title>Node1</title>
<g id="a_node1"><a xlink:title=" ">
<polygon fill="#bfbfbf" stroke="#000000" points="0,-.5 0,-38.5 128.2607,-38.5 128.2607,-.5 0,-.5"/>
<text text-anchor="start" x="8" y="-26.5" font-family="Helvetica,sans-Serif" font-size="10.00" fill="#000000">CO_Security_DB\remove</text>
<text text-anchor="start" x="8" y="-16.5" font-family="Helvetica,sans-Serif" font-size="10.00" fill="#000000">_personal_token_from</text>
<text text-anchor="middle" x="64.1304" y="-6.5" font-family="Helvetica,sans-Serif" font-size="10.00" fill="#000000">_this_login</text>
</a>
</g>
</g>
<!-- Node2 -->
<g id="node2" class="node">
<title>Node2</title>
<g id="a_node2"><a xlink:href="a00304.html#a2396849660aa4ff018ab7509a4badeb5" target="_top" xlink:title=" ">
<polygon fill="#ffffff" stroke="#000000" points="164.2607,-10.5 164.2607,-28.5 295.3242,-28.5 295.3242,-10.5 164.2607,-10.5"/>
<text text-anchor="middle" x="229.7925" y="-16.5" font-family="Helvetica,sans-Serif" font-size="10.00" fill="#000000">A_CO_DB\execute_query</text>
</a>
</g>
</g>
<!-- Node1&#45;&gt;Node2 -->
<g id="edge1" class="edge">
<title>Node1&#45;&gt;Node2</title>
<path fill="none" stroke="#191970" d="M128.654,-19.5C136.9214,-19.5 145.4448,-19.5 153.8722,-19.5"/>
<polygon fill="#191970" stroke="#191970" points="154.0805,-23.0001 164.0805,-19.5 154.0805,-16.0001 154.0805,-23.0001"/>
</g>
<!-- Node3 -->
<g id="node3" class="node">
<title>Node3</title>
<g id="a_node3"><a xlink:href="a00304.html#ae41efbdfe739934823b5f4c785b22611" target="_top" xlink:title=" ">
<polygon fill="#ffffff" stroke="#000000" points="331.3242,-10.5 331.3242,-28.5 467.9492,-28.5 467.9492,-10.5 331.3242,-10.5"/>
<text text-anchor="middle" x="399.6367" y="-16.5" font-family="Helvetica,sans-Serif" font-size="10.00" fill="#000000">A_CO_DB\_execute_query</text>
</a>
</g>
</g>
<!-- Node2&#45;&gt;Node3 -->
<g id="edge2" class="edge">
<title>Node2&#45;&gt;Node3</title>
<path fill="none" stroke="#191970" d="M295.4587,-19.5C303.7543,-19.5 312.3086,-19.5 320.782,-19.5"/>
<polygon fill="#191970" stroke="#191970" points="321.0547,-23.0001 331.0546,-19.5 321.0546,-16.0001 321.0547,-23.0001"/>
</g>
</g>
</svg>
