<?xml version="1.0" encoding="UTF-8" standalone="no"?>
<!DOCTYPE svg PUBLIC "-//W3C//DTD SVG 1.1//EN"
 "http://www.w3.org/Graphics/SVG/1.1/DTD/svg11.dtd">
<!-- Generated by graphviz version 2.40.1 (20161225.0304)
 -->
<!-- Title: A_CO_DB_Table_Base\id Pages: 1 -->
<!--zoomable 645 -->
<svg id="main" version="1.1" xmlns="http://www.w3.org/2000/svg" xmlns:xlink="http://www.w3.org/1999/xlink" xml:space="preserve" onload="init(evt)">
<style type="text/css"><![CDATA[
.edge:hover path { stroke: red; }
.edge:hover polygon { stroke: red; fill: red; }
]]></style>
<script type="text/javascript"><![CDATA[
var edges = document.getElementsByTagName('g');
if (edges && edges.length) {
  for (var i=0;i<edges.length;i++) {
    if (edges[i].id.substr(0,4)=='edge') {
      edges[i].setAttribute('class','edge');
    }
  }
}
]]></script>
        <defs>
                <circle id="rim" cx="0" cy="0" r="7"/>
                <circle id="rim2" cx="0" cy="0" r="3.5"/>
                <g id="zoomPlus">
                        <use xlink:href="#rim" fill="#404040">
                                <set attributeName="fill" to="#808080" begin="zoomplus.mouseover" end="zoomplus.mouseout"/>
                        </use>
                        <path d="M-4,0h8M0,-4v8" fill="none" stroke="white" stroke-width="1.5" pointer-events="none"/>
                </g>
                <g id="zoomMin">
                        <use xlink:href="#rim" fill="#404040">
                                <set attributeName="fill" to="#808080" begin="zoomminus.mouseover" end="zoomminus.mouseout"/>
                        </use>
                        <path d="M-4,0h8" fill="none" stroke="white" stroke-width="1.5" pointer-events="none"/>
                </g>
                <g id="dirArrow">
                        <path fill="none" stroke="white" stroke-width="1.5" d="M0,-3.0v7 M-2.5,-0.5L0,-3.0L2.5,-0.5"/>
                </g>
               <g id="resetDef">
                       <use xlink:href="#rim2" fill="#404040">
                               <set attributeName="fill" to="#808080" begin="reset.mouseover" end="reset.mouseout"/>
                       </use>
               </g>
        </defs>

<script type="text/javascript">
var viewWidth = 1065;
var viewHeight = 645;
var sectionId = 'dynsection-14';
</script>
<script xlink:href="svgpan.js"/>
<svg id="graph" class="graph">
<g id="viewport">
<title>A_CO_DB_Table_Base\id</title>
<polygon fill="#ffffff" stroke="transparent" points="-4,4 -4,-641 1060.9766,-641 1060.9766,4 -4,4"/>
<!-- Node1 -->
<g id="node1" class="node">
<title>Node1</title>
<g id="a_node1"><a xlink:title=" ">
<polygon fill="#bfbfbf" stroke="#000000" points="925.9082,-249.5 925.9082,-267.5 1056.9766,-267.5 1056.9766,-249.5 925.9082,-249.5"/>
<text text-anchor="middle" x="991.4424" y="-255.5" font-family="Helvetica,sans-Serif" font-size="10.00" fill="#000000">A_CO_DB_Table_Base\id</text>
</a>
</g>
</g>
<!-- Node2 -->
<g id="node2" class="node">
<title>Node2</title>
<g id="a_node2"><a xlink:href="a00336.html#af1d11dbf7700212c87723b2cbd5d4e80" target="_top" xlink:title=" ">
<polygon fill="#ffffff" stroke="#000000" points="747.1895,-353.5 747.1895,-371.5 889.9082,-371.5 889.9082,-353.5 747.1895,-353.5"/>
<text text-anchor="middle" x="818.5488" y="-359.5" font-family="Helvetica,sans-Serif" font-size="10.00" fill="#000000">CO_Security_ID\__construct</text>
</a>
</g>
</g>
<!-- Node1&#45;&gt;Node2 -->
<g id="edge1" class="edge">
<title>Node1&#45;&gt;Node2</title>
<path fill="none" stroke="#191970" d="M976.5084,-275.1018C958.05,-294.6047 924.7821,-326.5688 889.9082,-344.5 882.8633,-348.1223 875.0451,-351.0459 867.2416,-353.3966"/>
<polygon fill="#191970" stroke="#191970" points="979.245,-277.2979 983.4739,-267.5836 974.1101,-272.5405 979.245,-277.2979"/>
</g>
<!-- Node3 -->
<g id="node3" class="node">
<title>Node3</title>
<g id="a_node3"><a xlink:href="a00308.html#a6109c37c5e61ab04ea710b1ebb7615a5" target="_top" xlink:title=" ">
<polygon fill="#ffffff" stroke="#000000" points="756.0737,-306.5 756.0737,-334.5 881.0239,-334.5 881.0239,-306.5 756.0737,-306.5"/>
<text text-anchor="start" x="764.0737" y="-322.5" font-family="Helvetica,sans-Serif" font-size="10.00" fill="#000000">A_CO_DB_Table_Base</text>
<text text-anchor="middle" x="818.5488" y="-312.5" font-family="Helvetica,sans-Serif" font-size="10.00" fill="#000000">\_build_parameter_array</text>
</a>
</g>
</g>
<!-- Node1&#45;&gt;Node3 -->
<g id="edge2" class="edge">
<title>Node1&#45;&gt;Node3</title>
<path fill="none" stroke="#191970" d="M956.7209,-270.9512C928.1193,-281.2078 887.5698,-295.7489 857.7946,-306.4264"/>
<polygon fill="#191970" stroke="#191970" points="958.0706,-274.1855 966.3022,-267.5153 955.7076,-267.5964 958.0706,-274.1855"/>
</g>
<!-- Node4 -->
<g id="node4" class="node">
<title>Node4</title>
<g id="a_node4"><a xlink:href="a00308.html#adda14b544e11934db3bf8130aeea0610" target="_top" xlink:title=" ">
<polygon fill="#ffffff" stroke="#000000" points="585.126,-309.5 585.126,-337.5 705.6328,-337.5 705.6328,-309.5 585.126,-309.5"/>
<text text-anchor="start" x="593.126" y="-325.5" font-family="Helvetica,sans-Serif" font-size="10.00" fill="#000000">A_CO_DB_Table_Base</text>
<text text-anchor="middle" x="645.3794" y="-315.5" font-family="Helvetica,sans-Serif" font-size="10.00" fill="#000000">\_write_to_db</text>
</a>
</g>
</g>
<!-- Node1&#45;&gt;Node4 -->
<g id="edge23" class="edge">
<title>Node1&#45;&gt;Node4</title>
<path fill="none" stroke="#191970" d="M915.749,-268.7583C867.3416,-275.7688 803.328,-285.8754 747.1895,-297.5 730.5762,-300.9401 712.5974,-305.312 696.4376,-309.4848"/>
<polygon fill="#191970" stroke="#191970" points="916.4325,-272.1961 925.8333,-267.3099 915.4372,-265.2672 916.4325,-272.1961"/>
</g>
<!-- Node24 -->
<g id="node24" class="node">
<title>Node24</title>
<g id="a_node24"><a xlink:href="a00340.html#aac538e52310a1c332914682a9c2ec8d2" target="_top" xlink:title=" ">
<polygon fill="#ffffff" stroke="#000000" points="751.0688,-230.5 751.0688,-248.5 886.0288,-248.5 886.0288,-230.5 751.0688,-230.5"/>
<text text-anchor="middle" x="818.5488" y="-236.5" font-family="Helvetica,sans-Serif" font-size="10.00" fill="#000000">CO_Security_Login\is_god</text>
</a>
</g>
</g>
<!-- Node1&#45;&gt;Node24 -->
<g id="edge24" class="edge">
<title>Node1&#45;&gt;Node24</title>
<path fill="none" stroke="#191970" d="M915.5134,-250.1558C905.765,-249.0846 895.8355,-247.9934 886.2307,-246.9378"/>
<polygon fill="#191970" stroke="#191970" points="915.263,-253.6493 925.5855,-251.2627 916.0277,-246.6912 915.263,-253.6493"/>
</g>
<!-- Node31 -->
<g id="node31" class="node">
<title>Node31</title>
<g id="a_node31"><a xlink:href="a00308.html#a91b894b2b9aa29d47c43e519f5ad0bf6" target="_top" xlink:title=" ">
<polygon fill="#ffffff" stroke="#000000" points="758.2954,-157.5 758.2954,-185.5 878.8022,-185.5 878.8022,-157.5 758.2954,-157.5"/>
<text text-anchor="start" x="766.2954" y="-173.5" font-family="Helvetica,sans-Serif" font-size="10.00" fill="#000000">A_CO_DB_Table_Base</text>
<text text-anchor="middle" x="818.5488" y="-163.5" font-family="Helvetica,sans-Serif" font-size="10.00" fill="#000000">\load_from_db</text>
</a>
</g>
</g>
<!-- Node1&#45;&gt;Node31 -->
<g id="edge31" class="edge">
<title>Node1&#45;&gt;Node31</title>
<path fill="none" stroke="#191970" d="M963.9947,-244.6883C931.8122,-228.4941 878.7662,-201.8014 846.4074,-185.5184"/>
<polygon fill="#191970" stroke="#191970" points="962.7604,-247.9854 973.2665,-249.3539 965.907,-241.7324 962.7604,-247.9854"/>
</g>
<!-- Node36 -->
<g id="node36" class="node">
<title>Node36</title>
<g id="a_node36"><a xlink:href="a00336.html#ac71178523968cdc025bcbc226951896b" target="_top" xlink:title=" ">
<polygon fill="#ffffff" stroke="#000000" points="763.5835,-110.5 763.5835,-138.5 873.5142,-138.5 873.5142,-110.5 763.5835,-110.5"/>
<text text-anchor="start" x="771.5835" y="-126.5" font-family="Helvetica,sans-Serif" font-size="10.00" fill="#000000">CO_Security_ID\load</text>
<text text-anchor="middle" x="818.5488" y="-116.5" font-family="Helvetica,sans-Serif" font-size="10.00" fill="#000000">_from_db</text>
</a>
</g>
</g>
<!-- Node1&#45;&gt;Node36 -->
<g id="edge36" class="edge">
<title>Node1&#45;&gt;Node36</title>
<path fill="none" stroke="#191970" d="M979.5611,-240.8675C962.4425,-216.7393 928.6107,-173.5766 889.9082,-148.5 883.9847,-144.662 877.3851,-141.3753 870.6582,-138.578"/>
<polygon fill="#191970" stroke="#191970" points="976.892,-243.1605 985.467,-249.383 982.644,-239.1712 976.892,-243.1605"/>
</g>
<!-- Node3&#45;&gt;Node4 -->
<g id="edge3" class="edge">
<title>Node3&#45;&gt;Node4</title>
<path fill="none" stroke="#191970" d="M745.9211,-321.7582C732.5561,-321.9897 718.7355,-322.2292 705.7785,-322.4536"/>
<polygon fill="#191970" stroke="#191970" points="746.0928,-325.2559 756.0307,-321.5831 745.9715,-318.2569 746.0928,-325.2559"/>
</g>
<!-- Node5 -->
<g id="node5" class="node">
<title>Node5</title>
<g id="a_node5"><a xlink:href="a00340.html#ae927630811dae37fddc34b16878c63fd" target="_top" xlink:title=" ">
<polygon fill="#ffffff" stroke="#000000" points="395.5405,-356.5 395.5405,-384.5 528.2788,-384.5 528.2788,-356.5 395.5405,-356.5"/>
<text text-anchor="start" x="403.5405" y="-372.5" font-family="Helvetica,sans-Serif" font-size="10.00" fill="#000000">CO_Security_Login\delete</text>
<text text-anchor="middle" x="461.9097" y="-362.5" font-family="Helvetica,sans-Serif" font-size="10.00" fill="#000000">_from_db</text>
</a>
</g>
</g>
<!-- Node4&#45;&gt;Node5 -->
<g id="edge4" class="edge">
<title>Node4&#45;&gt;Node5</title>
<path fill="none" stroke="#191970" d="M580.5718,-340.102C559.6626,-345.4583 536.7056,-351.3393 516.6014,-356.4894"/>
<polygon fill="#191970" stroke="#191970" points="581.5138,-343.4737 590.3324,-337.6015 579.7766,-336.6927 581.5138,-343.4737"/>
</g>
<!-- Node6 -->
<g id="node6" class="node">
<title>Node6</title>
<g id="a_node6"><a xlink:href="a00308.html#a7487697640051c6661b8cdca6f109959" target="_top" xlink:title=" ">
<polygon fill="#ffffff" stroke="#000000" points="401.6563,-309.5 401.6563,-337.5 522.1631,-337.5 522.1631,-309.5 401.6563,-309.5"/>
<text text-anchor="start" x="409.6563" y="-325.5" font-family="Helvetica,sans-Serif" font-size="10.00" fill="#000000">A_CO_DB_Table_Base</text>
<text text-anchor="middle" x="461.9097" y="-315.5" font-family="Helvetica,sans-Serif" font-size="10.00" fill="#000000">\update_db</text>
</a>
</g>
</g>
<!-- Node4&#45;&gt;Node6 -->
<g id="edge5" class="edge">
<title>Node4&#45;&gt;Node6</title>
<path fill="none" stroke="#191970" d="M574.9638,-323.5C557.5859,-323.5 539.1275,-323.5 522.2749,-323.5"/>
<polygon fill="#191970" stroke="#191970" points="575.0505,-327.0001 585.0504,-323.5 575.0504,-320.0001 575.0505,-327.0001"/>
</g>
<!-- Node7 -->
<g id="node7" class="node">
<title>Node7</title>
<g id="a_node7"><a xlink:href="a00340.html#a0d11bc2cb9f23f091615dd5918dd2abb" target="_top" xlink:title=" ">
<polygon fill="#ffffff" stroke="#000000" points="198.4551,-618.5 198.4551,-636.5 333.9766,-636.5 333.9766,-618.5 198.4551,-618.5"/>
<text text-anchor="middle" x="266.2158" y="-624.5" font-family="Helvetica,sans-Serif" font-size="10.00" fill="#000000">CO_Security_Login\add_id</text>
</a>
</g>
</g>
<!-- Node6&#45;&gt;Node7 -->
<g id="edge6" class="edge">
<title>Node6&#45;&gt;Node7</title>
<path fill="none" stroke="#191970" d="M392.312,-337.2884C387.8191,-340.1049 383.716,-343.4737 380.25,-347.5 303.5679,-436.5796 423.5327,-522.727 344.25,-609.5 340.9676,-613.0925 337.1242,-616.0391 332.9344,-618.4493"/>
<polygon fill="#191970" stroke="#191970" points="394.1466,-340.2781 401.3675,-332.5251 390.8878,-334.0829 394.1466,-340.2781"/>
</g>
<!-- Node8 -->
<g id="node8" class="node">
<title>Node8</title>
<g id="a_node8"><a xlink:href="a00340.html#a59e2e5be376349924698305603bfb51f" target="_top" xlink:title=" ">
<polygon fill="#ffffff" stroke="#000000" points="202.6323,-571.5 202.6323,-599.5 329.7993,-599.5 329.7993,-571.5 202.6323,-571.5"/>
<text text-anchor="start" x="210.6323" y="-587.5" font-family="Helvetica,sans-Serif" font-size="10.00" fill="#000000">CO_Security_Login\clear</text>
<text text-anchor="middle" x="266.2158" y="-577.5" font-family="Helvetica,sans-Serif" font-size="10.00" fill="#000000">_api_key</text>
</a>
</g>
</g>
<!-- Node6&#45;&gt;Node8 -->
<g id="edge7" class="edge">
<title>Node6&#45;&gt;Node8</title>
<path fill="none" stroke="#191970" d="M392.4421,-337.4021C387.92,-340.1931 383.7747,-343.525 380.25,-347.5 315.9709,-419.9918 408.5011,-489.9833 344.25,-562.5 340.2225,-567.0457 335.3463,-570.7132 330.0202,-573.6693"/>
<polygon fill="#191970" stroke="#191970" points="394.2794,-340.3918 401.5387,-332.6747 391.0514,-334.1804 394.2794,-340.3918"/>
</g>
<!-- Node9 -->
<g id="node9" class="node">
<title>Node9</title>
<g id="a_node9"><a xlink:href="a00308.html#ab976e4ab55890095fc60406326b5de80" target="_top" xlink:title=" ">
<polygon fill="#ffffff" stroke="#000000" points="205.9624,-524.5 205.9624,-552.5 326.4692,-552.5 326.4692,-524.5 205.9624,-524.5"/>
<text text-anchor="start" x="213.9624" y="-540.5" font-family="Helvetica,sans-Serif" font-size="10.00" fill="#000000">A_CO_DB_Table_Base</text>
<text text-anchor="middle" x="266.2158" y="-530.5" font-family="Helvetica,sans-Serif" font-size="10.00" fill="#000000">\clear_batch_mode</text>
</a>
</g>
</g>
<!-- Node6&#45;&gt;Node9 -->
<g id="edge8" class="edge">
<title>Node6&#45;&gt;Node9</title>
<path fill="none" stroke="#191970" d="M392.4073,-337.7212C387.9303,-340.4429 383.8024,-343.6716 380.25,-347.5 328.3097,-403.4761 396.1686,-459.5039 344.25,-515.5 339.3526,-520.7821 333.3094,-524.8724 326.7714,-528.0362"/>
<polygon fill="#191970" stroke="#191970" points="394.1054,-340.7835 401.3873,-333.0878 390.8956,-334.5627 394.1054,-340.7835"/>
</g>
<!-- Node10 -->
<g id="node10" class="node">
<title>Node10</title>
<g id="a_node10"><a xlink:href="a00340.html#a1a141bb2d1d8b67737119e0729c7d159" target="_top" xlink:title=" ">
<polygon fill="#ffffff" stroke="#000000" points="197.6274,-487.5 197.6274,-505.5 334.8042,-505.5 334.8042,-487.5 197.6274,-487.5"/>
<text text-anchor="middle" x="266.2158" y="-493.5" font-family="Helvetica,sans-Serif" font-size="10.00" fill="#000000">CO_Security_Login\set_ids</text>
</a>
</g>
</g>
<!-- Node6&#45;&gt;Node10 -->
<g id="edge9" class="edge">
<title>Node6&#45;&gt;Node10</title>
<path fill="none" stroke="#191970" d="M392.0725,-338.2932C387.7602,-340.8891 383.7548,-343.9327 380.25,-347.5 337.9332,-390.571 387.822,-436.6992 344.25,-478.5 340.5378,-482.0613 336.2686,-484.9692 331.6809,-487.3381"/>
<polygon fill="#191970" stroke="#191970" points="393.9891,-341.2439 401.293,-333.5689 390.7971,-335.014 393.9891,-341.2439"/>
</g>
<!-- Node12 -->
<g id="node12" class="node">
<title>Node12</title>
<g id="a_node12"><a xlink:href="a00308.html#a1ed093545fa1cbc3f63a672cdf424734" target="_top" xlink:title=" ">
<polygon fill="#ffffff" stroke="#000000" points="205.9624,-440.5 205.9624,-468.5 326.4692,-468.5 326.4692,-440.5 205.9624,-440.5"/>
<text text-anchor="start" x="213.9624" y="-456.5" font-family="Helvetica,sans-Serif" font-size="10.00" fill="#000000">A_CO_DB_Table_Base</text>
<text text-anchor="middle" x="266.2158" y="-446.5" font-family="Helvetica,sans-Serif" font-size="10.00" fill="#000000">\set_lang</text>
</a>
</g>
</g>
<!-- Node6&#45;&gt;Node12 -->
<g id="edge11" class="edge">
<title>Node6&#45;&gt;Node12</title>
<path fill="none" stroke="#191970" d="M392.3712,-338.983C388.0224,-341.4196 383.9247,-344.2386 380.25,-347.5 349.8715,-374.4616 374.618,-404.5267 344.25,-431.5 339.0757,-436.0959 333.0233,-439.7751 326.6185,-442.72"/>
<polygon fill="#191970" stroke="#191970" points="394.1316,-342.0189 401.5954,-334.4994 391.0714,-335.7232 394.1316,-342.0189"/>
</g>
<!-- Node13 -->
<g id="node13" class="node">
<title>Node13</title>
<g id="a_node13"><a xlink:href="a00340.html#a061f896c69dc8a8dd3d9ee793b91ddc7" target="_top" xlink:title=" ">
<polygon fill="#ffffff" stroke="#000000" points="194.5659,-403.5 194.5659,-421.5 337.8657,-421.5 337.8657,-403.5 194.5659,-403.5"/>
<text text-anchor="middle" x="266.2158" y="-409.5" font-family="Helvetica,sans-Serif" font-size="10.00" fill="#000000">CO_Security_Login\set_lang</text>
</a>
</g>
</g>
<!-- Node6&#45;&gt;Node13 -->
<g id="edge12" class="edge">
<title>Node6&#45;&gt;Node13</title>
<path fill="none" stroke="#191970" d="M392.158,-340.5943C387.9922,-342.6452 383.983,-344.9379 380.25,-347.5 358.5558,-362.3898 366.375,-380.2582 344.25,-394.5 338.5215,-398.1874 332.1271,-401.1227 325.5315,-403.4586"/>
<polygon fill="#191970" stroke="#191970" points="393.746,-343.7193 401.4816,-336.4797 390.9197,-337.3152 393.746,-343.7193"/>
</g>
<!-- Node14 -->
<g id="node14" class="node">
<title>Node14</title>
<g id="a_node14"><a xlink:href="a00308.html#a92a9b9a122e9471b82dd79432bf3c929" target="_top" xlink:title=" ">
<polygon fill="#ffffff" stroke="#000000" points="205.9624,-356.5 205.9624,-384.5 326.4692,-384.5 326.4692,-356.5 205.9624,-356.5"/>
<text text-anchor="start" x="213.9624" y="-372.5" font-family="Helvetica,sans-Serif" font-size="10.00" fill="#000000">A_CO_DB_Table_Base</text>
<text text-anchor="middle" x="266.2158" y="-362.5" font-family="Helvetica,sans-Serif" font-size="10.00" fill="#000000">\set_name</text>
</a>
</g>
</g>
<!-- Node6&#45;&gt;Node14 -->
<g id="edge13" class="edge">
<title>Node6&#45;&gt;Node14</title>
<path fill="none" stroke="#191970" d="M393.6485,-339.8944C371.1679,-345.2935 346.3874,-351.2451 324.7021,-356.4533"/>
<polygon fill="#191970" stroke="#191970" points="394.554,-343.2765 403.4601,-337.5379 392.9193,-336.47 394.554,-343.2765"/>
</g>
<!-- Node15 -->
<g id="node15" class="node">
<title>Node15</title>
<g id="a_node15"><a xlink:href="a00316.html#a6349c04b5a027e23f0b8bd8810579844" target="_top" xlink:title=" ">
<polygon fill="#ffffff" stroke="#000000" points="200.4131,-309.5 200.4131,-337.5 332.0186,-337.5 332.0186,-309.5 200.4131,-309.5"/>
<text text-anchor="start" x="208.4131" y="-325.5" font-family="Helvetica,sans-Serif" font-size="10.00" fill="#000000">CO_Main_DB_Record\set</text>
<text text-anchor="middle" x="266.2158" y="-315.5" font-family="Helvetica,sans-Serif" font-size="10.00" fill="#000000">_owner_id</text>
</a>
</g>
</g>
<!-- Node6&#45;&gt;Node15 -->
<g id="edge14" class="edge">
<title>Node6&#45;&gt;Node15</title>
<path fill="none" stroke="#191970" d="M391.3498,-323.5C372.0286,-323.5 351.1645,-323.5 332.1151,-323.5"/>
<polygon fill="#191970" stroke="#191970" points="391.5983,-327.0001 401.5983,-323.5 391.5982,-320.0001 391.5983,-327.0001"/>
</g>
<!-- Node16 -->
<g id="node16" class="node">
<title>Node16</title>
<g id="a_node16"><a xlink:href="a00340.html#ac4f0c16cb8cf1e2151451bf4d5cb2238" target="_top" xlink:title=" ">
<polygon fill="#ffffff" stroke="#000000" points="199.5781,-262.5 199.5781,-290.5 332.8535,-290.5 332.8535,-262.5 199.5781,-262.5"/>
<text text-anchor="start" x="207.5781" y="-278.5" font-family="Helvetica,sans-Serif" font-size="10.00" fill="#000000">CO_Security_Login\set</text>
<text text-anchor="middle" x="266.2158" y="-268.5" font-family="Helvetica,sans-Serif" font-size="10.00" fill="#000000">_password_from_cleartext</text>
</a>
</g>
</g>
<!-- Node6&#45;&gt;Node16 -->
<g id="edge15" class="edge">
<title>Node6&#45;&gt;Node16</title>
<path fill="none" stroke="#191970" d="M393.6485,-307.1056C371.1679,-301.7065 346.3874,-295.7549 324.7021,-290.5467"/>
<polygon fill="#191970" stroke="#191970" points="392.9193,-310.53 403.4601,-309.4621 394.554,-303.7235 392.9193,-310.53"/>
</g>
<!-- Node17 -->
<g id="node17" class="node">
<title>Node17</title>
<g id="a_node17"><a xlink:href="a00316.html#a7860101403a734329dd8c1079f5d367e" target="_top" xlink:title=" ">
<polygon fill="#ffffff" stroke="#000000" points="200.4131,-215.5 200.4131,-243.5 332.0186,-243.5 332.0186,-215.5 200.4131,-215.5"/>
<text text-anchor="start" x="208.4131" y="-231.5" font-family="Helvetica,sans-Serif" font-size="10.00" fill="#000000">CO_Main_DB_Record\set</text>
<text text-anchor="middle" x="266.2158" y="-221.5" font-family="Helvetica,sans-Serif" font-size="10.00" fill="#000000">_payload</text>
</a>
</g>
</g>
<!-- Node6&#45;&gt;Node17 -->
<g id="edge16" class="edge">
<title>Node6&#45;&gt;Node17</title>
<path fill="none" stroke="#191970" d="M392.1633,-307.2978C387.9962,-305.2887 383.9852,-303.0327 380.25,-300.5 358.472,-285.7331 365.8505,-268.5254 344.25,-253.5 338.6649,-249.615 332.4308,-246.3431 325.9874,-243.591"/>
<polygon fill="#191970" stroke="#191970" points="390.92,-310.5731 401.4889,-311.3135 393.6885,-304.1438 390.92,-310.5731"/>
</g>
<!-- Node18 -->
<g id="node18" class="node">
<title>Node18</title>
<g id="a_node18"><a xlink:href="a00340.html#a8d18fed2a089c920e67802253be3cd68" target="_top" xlink:title=" ">
<polygon fill="#ffffff" stroke="#000000" points="206.7998,-168.5 206.7998,-196.5 325.6318,-196.5 325.6318,-168.5 206.7998,-168.5"/>
<text text-anchor="start" x="214.7998" y="-184.5" font-family="Helvetica,sans-Serif" font-size="10.00" fill="#000000">CO_Security_Login\set</text>
<text text-anchor="middle" x="266.2158" y="-174.5" font-family="Helvetica,sans-Serif" font-size="10.00" fill="#000000">_personal_ids</text>
</a>
</g>
</g>
<!-- Node6&#45;&gt;Node18 -->
<g id="edge17" class="edge">
<title>Node6&#45;&gt;Node18</title>
<path fill="none" stroke="#191970" d="M392.2405,-309.0618C387.9223,-306.6333 383.8672,-303.8014 380.25,-300.5 347.2071,-270.3412 376.9312,-237.0504 344.25,-206.5 338.8658,-201.4668 332.4492,-197.4881 325.6418,-194.3432"/>
<polygon fill="#191970" stroke="#191970" points="390.8918,-312.2973 401.4179,-313.5015 393.9402,-305.9959 390.8918,-312.2973"/>
</g>
<!-- Node19 -->
<g id="node19" class="node">
<title>Node19</title>
<g id="a_node19"><a xlink:href="a00308.html#a3d4d1ab7910b9ccfdf8654d767e01d9b" target="_top" xlink:title=" ">
<polygon fill="#ffffff" stroke="#000000" points="205.9624,-121.5 205.9624,-149.5 326.4692,-149.5 326.4692,-121.5 205.9624,-121.5"/>
<text text-anchor="start" x="213.9624" y="-137.5" font-family="Helvetica,sans-Serif" font-size="10.00" fill="#000000">A_CO_DB_Table_Base</text>
<text text-anchor="middle" x="266.2158" y="-127.5" font-family="Helvetica,sans-Serif" font-size="10.00" fill="#000000">\set_read_security_id</text>
</a>
</g>
</g>
<!-- Node6&#45;&gt;Node19 -->
<g id="edge18" class="edge">
<title>Node6&#45;&gt;Node19</title>
<path fill="none" stroke="#191970" d="M392.5925,-309.9985C388.0736,-307.3614 383.8855,-304.2259 380.25,-300.5 335.0816,-254.2082 388.8636,-206.3267 344.25,-159.5 339.2637,-154.2664 333.1671,-150.1655 326.6005,-146.9538"/>
<polygon fill="#191970" stroke="#191970" points="391.118,-313.1739 401.6321,-314.4796 394.2271,-306.9022 391.118,-313.1739"/>
</g>
<!-- Node20 -->
<g id="node20" class="node">
<title>Node20</title>
<g id="a_node20"><a xlink:href="a00316.html#a1f9581fbd4aa2611da866405d446295c" target="_top" xlink:title=" ">
<polygon fill="#ffffff" stroke="#000000" points="190.6816,-84.5 190.6816,-102.5 341.75,-102.5 341.75,-84.5 190.6816,-84.5"/>
<text text-anchor="middle" x="266.2158" y="-90.5" font-family="Helvetica,sans-Serif" font-size="10.00" fill="#000000">CO_Main_DB_Record\set_tag</text>
</a>
</g>
</g>
<!-- Node6&#45;&gt;Node20 -->
<g id="edge19" class="edge">
<title>Node6&#45;&gt;Node20</title>
<path fill="none" stroke="#191970" d="M392.3323,-310.2447C387.8723,-307.5518 383.7687,-304.3363 380.25,-300.5 322.4504,-237.4825 403.5404,-173.117 344.25,-111.5 340.7795,-107.8933 336.742,-104.9451 332.3655,-102.5414"/>
<polygon fill="#191970" stroke="#191970" points="390.7887,-313.3863 401.2882,-314.8049 393.9651,-307.1484 390.7887,-313.3863"/>
</g>
<!-- Node21 -->
<g id="node21" class="node">
<title>Node21</title>
<g id="a_node21"><a xlink:href="a00316.html#a84074211704eba98c263bd7122cd13f7" target="_top" xlink:title=" ">
<polygon fill="#ffffff" stroke="#000000" points="188.1816,-47.5 188.1816,-65.5 344.25,-65.5 344.25,-47.5 188.1816,-47.5"/>
<text text-anchor="middle" x="266.2158" y="-53.5" font-family="Helvetica,sans-Serif" font-size="10.00" fill="#000000">CO_Main_DB_Record\set_tags</text>
</a>
</g>
</g>
<!-- Node6&#45;&gt;Node21 -->
<g id="edge20" class="edge">
<title>Node6&#45;&gt;Node21</title>
<path fill="none" stroke="#191970" d="M392.4315,-310.5025C387.9118,-307.7548 383.7699,-304.4562 380.25,-300.5 312.6416,-224.5119 413.6566,-148.8493 344.25,-74.5 340.9294,-70.9429 337.0581,-68.022 332.8488,-65.6298"/>
<polygon fill="#191970" stroke="#191970" points="391.0257,-313.7143 401.5247,-315.1355 394.2035,-307.4772 391.0257,-313.7143"/>
</g>
<!-- Node23 -->
<g id="node23" class="node">
<title>Node23</title>
<g id="a_node23"><a xlink:href="a00308.html#a55eae92ef3e2f47689019e174f29daf1" target="_top" xlink:title=" ">
<polygon fill="#ffffff" stroke="#000000" points="205.9624,-.5 205.9624,-28.5 326.4692,-28.5 326.4692,-.5 205.9624,-.5"/>
<text text-anchor="start" x="213.9624" y="-16.5" font-family="Helvetica,sans-Serif" font-size="10.00" fill="#000000">A_CO_DB_Table_Base</text>
<text text-anchor="middle" x="266.2158" y="-6.5" font-family="Helvetica,sans-Serif" font-size="10.00" fill="#000000">\set_write_security_id</text>
</a>
</g>
</g>
<!-- Node6&#45;&gt;Node23 -->
<g id="edge22" class="edge">
<title>Node6&#45;&gt;Node23</title>
<path fill="none" stroke="#191970" d="M392.3349,-310.5875C387.8369,-307.8207 383.7263,-304.4945 380.25,-300.5 302.7991,-211.5035 421.1618,-126.9627 344.25,-37.5 339.4621,-31.9308 333.3996,-27.6751 326.7779,-24.4291"/>
<polygon fill="#191970" stroke="#191970" points="390.9039,-313.7873 401.3977,-315.2473 394.1048,-307.562 390.9039,-313.7873"/>
</g>
<!-- Node11 -->
<g id="node11" class="node">
<title>Node11</title>
<g id="a_node11"><a xlink:href="a00340.html#a985325996e8392412a6782569b294176" target="_top" xlink:title=" ">
<polygon fill="#ffffff" stroke="#000000" points="0,-487.5 0,-505.5 152.1816,-505.5 152.1816,-487.5 0,-487.5"/>
<text text-anchor="middle" x="76.0908" y="-493.5" font-family="Helvetica,sans-Serif" font-size="10.00" fill="#000000">CO_Security_Login\remove_id</text>
</a>
</g>
</g>
<!-- Node10&#45;&gt;Node11 -->
<g id="edge10" class="edge">
<title>Node10&#45;&gt;Node11</title>
<path fill="none" stroke="#191970" d="M187.4771,-496.5C175.8662,-496.5 163.9203,-496.5 152.3606,-496.5"/>
<polygon fill="#191970" stroke="#191970" points="187.5764,-500.0001 197.5763,-496.5 187.5763,-493.0001 187.5764,-500.0001"/>
</g>
<!-- Node22 -->
<g id="node22" class="node">
<title>Node22</title>
<g id="a_node22"><a xlink:href="a00260.html#a887a876b0603db0289a8bdc7ab4e66b2" target="_top" xlink:title=" ">
<polygon fill="#ffffff" stroke="#000000" points="12.2314,-42.5 12.2314,-70.5 139.9502,-70.5 139.9502,-42.5 12.2314,-42.5"/>
<text text-anchor="start" x="20.2314" y="-58.5" font-family="Helvetica,sans-Serif" font-size="10.00" fill="#000000">CO_Place\set_tags_from</text>
<text text-anchor="middle" x="76.0908" y="-48.5" font-family="Helvetica,sans-Serif" font-size="10.00" fill="#000000">_address_elements</text>
</a>
</g>
</g>
<!-- Node21&#45;&gt;Node22 -->
<g id="edge21" class="edge">
<title>Node21&#45;&gt;Node22</title>
<path fill="none" stroke="#191970" d="M177.8807,-56.5C165.1204,-56.5 152.1976,-56.5 140.0382,-56.5"/>
<polygon fill="#191970" stroke="#191970" points="178.0617,-60.0001 188.0616,-56.5 178.0616,-53.0001 178.0617,-60.0001"/>
</g>
<!-- Node25 -->
<g id="node25" class="node">
<title>Node25</title>
<g id="a_node25"><a xlink:href="a00236.html#a15371cf35e812615a00fc5f535320338" target="_top" xlink:title=" ">
<polygon fill="#ffffff" stroke="#000000" points="579.5693,-272.5 579.5693,-290.5 711.1895,-290.5 711.1895,-272.5 579.5693,-272.5"/>
<text text-anchor="middle" x="645.3794" y="-278.5" font-family="Helvetica,sans-Serif" font-size="10.00" fill="#000000">CO_Cobra\_convert_login</text>
</a>
</g>
</g>
<!-- Node24&#45;&gt;Node25 -->
<g id="edge25" class="edge">
<title>Node24&#45;&gt;Node25</title>
<path fill="none" stroke="#191970" d="M771.4718,-250.9179C743.591,-257.6801 708.7532,-266.1295 682.7655,-272.4325"/>
<polygon fill="#191970" stroke="#191970" points="772.5064,-254.2686 781.3996,-248.5101 770.8564,-247.4658 772.5064,-254.2686"/>
</g>
<!-- Node27 -->
<g id="node27" class="node">
<title>Node27</title>
<g id="a_node27"><a xlink:href="a00236.html#ae1d5d148ccfdfdfa1e0d8636130479ab" target="_top" xlink:title=" ">
<polygon fill="#ffffff" stroke="#000000" points="583.4609,-225.5 583.4609,-253.5 707.2979,-253.5 707.2979,-225.5 583.4609,-225.5"/>
<text text-anchor="start" x="591.4609" y="-241.5" font-family="Helvetica,sans-Serif" font-size="10.00" fill="#000000">CO_Cobra\_create_new</text>
<text text-anchor="middle" x="645.3794" y="-231.5" font-family="Helvetica,sans-Serif" font-size="10.00" fill="#000000">_login</text>
</a>
</g>
</g>
<!-- Node24&#45;&gt;Node27 -->
<g id="edge27" class="edge">
<title>Node24&#45;&gt;Node27</title>
<path fill="none" stroke="#191970" d="M740.5161,-239.5C729.4503,-239.5 718.1963,-239.5 707.4867,-239.5"/>
<polygon fill="#191970" stroke="#191970" points="740.6047,-243.0001 750.6047,-239.5 740.6047,-236.0001 740.6047,-243.0001"/>
</g>
<!-- Node30 -->
<g id="node30" class="node">
<title>Node30</title>
<g id="a_node30"><a xlink:href="a00340.html#aa1e788b0d2d7b7e807083d7333f2596e" target="_top" xlink:title=" ">
<polygon fill="#ffffff" stroke="#000000" points="589.0225,-178.5 589.0225,-206.5 701.7363,-206.5 701.7363,-178.5 589.0225,-178.5"/>
<text text-anchor="start" x="597.0225" y="-194.5" font-family="Helvetica,sans-Serif" font-size="10.00" fill="#000000">CO_Security_Login\is</text>
<text text-anchor="middle" x="645.3794" y="-184.5" font-family="Helvetica,sans-Serif" font-size="10.00" fill="#000000">_manager</text>
</a>
</g>
</g>
<!-- Node24&#45;&gt;Node30 -->
<g id="edge30" class="edge">
<title>Node24&#45;&gt;Node30</title>
<path fill="none" stroke="#191970" d="M775.3777,-227.7829C751.6418,-221.3407 722.0338,-213.3048 697.0721,-206.5299"/>
<polygon fill="#191970" stroke="#191970" points="774.5924,-231.1963 785.16,-230.4379 776.426,-224.4407 774.5924,-231.1963"/>
</g>
<!-- Node26 -->
<g id="node26" class="node">
<title>Node26</title>
<g id="a_node26"><a xlink:href="a00236.html#a8f75d437e7a86f0ec0095b281c804397" target="_top" xlink:title=" ">
<polygon fill="#ffffff" stroke="#000000" points="398.8804,-272.5 398.8804,-290.5 524.939,-290.5 524.939,-272.5 398.8804,-272.5"/>
<text text-anchor="middle" x="461.9097" y="-278.5" font-family="Helvetica,sans-Serif" font-size="10.00" fill="#000000">CO_Cobra\convert_login</text>
</a>
</g>
</g>
<!-- Node25&#45;&gt;Node26 -->
<g id="edge26" class="edge">
<title>Node25&#45;&gt;Node26</title>
<path fill="none" stroke="#191970" d="M569.3354,-281.5C554.6394,-281.5 539.3897,-281.5 525.1559,-281.5"/>
<polygon fill="#191970" stroke="#191970" points="569.4019,-285.0001 579.4018,-281.5 569.4018,-278.0001 569.4019,-285.0001"/>
</g>
<!-- Node28 -->
<g id="node28" class="node">
<title>Node28</title>
<g id="a_node28"><a xlink:href="a00236.html#a8587af0d1680b694bf079f74161b6e2f" target="_top" xlink:title=" ">
<polygon fill="#ffffff" stroke="#000000" points="402.772,-225.5 402.772,-253.5 521.0474,-253.5 521.0474,-225.5 402.772,-225.5"/>
<text text-anchor="start" x="410.772" y="-241.5" font-family="Helvetica,sans-Serif" font-size="10.00" fill="#000000">CO_Cobra\create_new</text>
<text text-anchor="middle" x="461.9097" y="-231.5" font-family="Helvetica,sans-Serif" font-size="10.00" fill="#000000">_manager_login</text>
</a>
</g>
</g>
<!-- Node27&#45;&gt;Node28 -->
<g id="edge28" class="edge">
<title>Node27&#45;&gt;Node28</title>
<path fill="none" stroke="#191970" d="M573.2385,-239.5C555.9857,-239.5 537.763,-239.5 521.1683,-239.5"/>
<polygon fill="#191970" stroke="#191970" points="573.2649,-243.0001 583.2649,-239.5 573.2649,-236.0001 573.2649,-243.0001"/>
</g>
<!-- Node29 -->
<g id="node29" class="node">
<title>Node29</title>
<g id="a_node29"><a xlink:href="a00236.html#ab407239c70f2b284c8ef0d02efa17b01" target="_top" xlink:title=" ">
<polygon fill="#ffffff" stroke="#000000" points="402.772,-178.5 402.772,-206.5 521.0474,-206.5 521.0474,-178.5 402.772,-178.5"/>
<text text-anchor="start" x="410.772" y="-194.5" font-family="Helvetica,sans-Serif" font-size="10.00" fill="#000000">CO_Cobra\create_new</text>
<text text-anchor="middle" x="461.9097" y="-184.5" font-family="Helvetica,sans-Serif" font-size="10.00" fill="#000000">_standard_login</text>
</a>
</g>
</g>
<!-- Node27&#45;&gt;Node29 -->
<g id="edge29" class="edge">
<title>Node27&#45;&gt;Node29</title>
<path fill="none" stroke="#191970" d="M580.5718,-222.898C559.6626,-217.5417 536.7056,-211.6607 516.6014,-206.5106"/>
<polygon fill="#191970" stroke="#191970" points="579.7766,-226.3073 590.3324,-225.3985 581.5138,-219.5263 579.7766,-226.3073"/>
</g>
<!-- Node32 -->
<g id="node32" class="node">
<title>Node32</title>
<g id="a_node32"><a xlink:href="a00308.html#a4417bcd42c4db0dc6f3d1c0ab94e19f3" target="_top" xlink:title=" ">
<polygon fill="#ffffff" stroke="#000000" points="585.126,-131.5 585.126,-159.5 705.6328,-159.5 705.6328,-131.5 585.126,-131.5"/>
<text text-anchor="start" x="593.126" y="-147.5" font-family="Helvetica,sans-Serif" font-size="10.00" fill="#000000">A_CO_DB_Table_Base</text>
<text text-anchor="middle" x="645.3794" y="-137.5" font-family="Helvetica,sans-Serif" font-size="10.00" fill="#000000">\__construct</text>
</a>
</g>
</g>
<!-- Node31&#45;&gt;Node32 -->
<g id="edge32" class="edge">
<title>Node31&#45;&gt;Node32</title>
<path fill="none" stroke="#191970" d="M747.9512,-160.9003C734.006,-158.8066 719.4876,-156.6267 705.9115,-154.5884"/>
<polygon fill="#191970" stroke="#191970" points="747.5737,-164.3828 757.9826,-162.4065 748.6131,-157.4604 747.5737,-164.3828"/>
</g>
<!-- Node33 -->
<g id="node33" class="node">
<title>Node33</title>
<g id="a_node33"><a xlink:href="a00308.html#aa5e1bc5570c817cfe3ddeb67003d4f45" target="_top" xlink:title=" ">
<polygon fill="#ffffff" stroke="#000000" points="585.126,-84.5 585.126,-112.5 705.6328,-112.5 705.6328,-84.5 585.126,-84.5"/>
<text text-anchor="start" x="593.126" y="-100.5" font-family="Helvetica,sans-Serif" font-size="10.00" fill="#000000">A_CO_DB_Table_Base</text>
<text text-anchor="middle" x="645.3794" y="-90.5" font-family="Helvetica,sans-Serif" font-size="10.00" fill="#000000">\reload_from_db</text>
</a>
</g>
</g>
<!-- Node31&#45;&gt;Node33 -->
<g id="edge33" class="edge">
<title>Node31&#45;&gt;Node33</title>
<path fill="none" stroke="#191970" d="M758.8146,-153.8192C754.823,-152.1586 750.9129,-150.385 747.1895,-148.5 729.5809,-139.5855 728.626,-131.7466 711.1895,-122.5 704.3132,-118.8535 696.7619,-115.5303 689.3029,-112.5966"/>
<polygon fill="#191970" stroke="#191970" points="757.6384,-157.1172 768.2268,-157.4879 760.1806,-150.5951 757.6384,-157.1172"/>
</g>
<!-- Node34 -->
<g id="node34" class="node">
<title>Node34</title>
<g id="a_node34"><a xlink:href="a00340.html#a64b021e6e339891ad10a60c6a45e7b06" target="_top" xlink:title=" ">
<polygon fill="#ffffff" stroke="#000000" points="400.8213,-100.5 400.8213,-138.5 522.998,-138.5 522.998,-100.5 400.8213,-100.5"/>
<text text-anchor="start" x="408.8213" y="-126.5" font-family="Helvetica,sans-Serif" font-size="10.00" fill="#000000">CO_Security_Login\add</text>
<text text-anchor="start" x="408.8213" y="-116.5" font-family="Helvetica,sans-Serif" font-size="10.00" fill="#000000">_personal_token_from</text>
<text text-anchor="middle" x="461.9097" y="-106.5" font-family="Helvetica,sans-Serif" font-size="10.00" fill="#000000">_current_login</text>
</a>
</g>
</g>
<!-- Node33&#45;&gt;Node34 -->
<g id="edge34" class="edge">
<title>Node33&#45;&gt;Node34</title>
<path fill="none" stroke="#191970" d="M574.643,-106.5965C557.6823,-108.5378 539.7095,-110.595 523.2166,-112.4828"/>
<polygon fill="#191970" stroke="#191970" points="575.5133,-110.0198 585.0504,-105.4053 574.7173,-103.0652 575.5133,-110.0198"/>
</g>
<!-- Node35 -->
<g id="node35" class="node">
<title>Node35</title>
<g id="a_node35"><a xlink:href="a00340.html#a6d1a5f62b1742349eb0cc8ba921fa5cf" target="_top" xlink:title=" ">
<polygon fill="#ffffff" stroke="#000000" points="380.25,-53.5 380.25,-81.5 543.5693,-81.5 543.5693,-53.5 380.25,-53.5"/>
<text text-anchor="start" x="388.25" y="-69.5" font-family="Helvetica,sans-Serif" font-size="10.00" fill="#000000">CO_Security_Login\remove</text>
<text text-anchor="middle" x="461.9097" y="-59.5" font-family="Helvetica,sans-Serif" font-size="10.00" fill="#000000">_personal_token_from_this_login</text>
</a>
</g>
</g>
<!-- Node33&#45;&gt;Node35 -->
<g id="edge35" class="edge">
<title>Node33&#45;&gt;Node35</title>
<path fill="none" stroke="#191970" d="M574.936,-86.5975C564.6757,-84.8639 554.0393,-83.0667 543.5796,-81.2994"/>
<polygon fill="#191970" stroke="#191970" points="574.607,-90.0915 585.0504,-88.3065 575.7733,-83.1893 574.607,-90.0915"/>
</g>
</g>
</svg>
        <g id="navigator" transform="translate(0 0)" fill="#404254">
                <rect fill="#f2f5e9" fill-opacity="0.5" stroke="#606060" stroke-width=".5" x="0" y="0" width="60" height="60"/>
                <use id="zoomplus" xlink:href="#zoomPlus" x="17" y="9" onmousedown="handleZoom(evt,'in')"/>
                <use id="zoomminus" xlink:href="#zoomMin" x="42" y="9" onmousedown="handleZoom(evt,'out')"/>
                <use id="reset" xlink:href="#resetDef" x="30" y="36" onmousedown="handleReset()"/>
                <g id="arrowUp" xlink:href="#dirArrow" transform="translate(30 24)" onmousedown="handlePan(0,-1)">
                  <use xlink:href="#rim" fill="#404040">
                        <set attributeName="fill" to="#808080" begin="arrowUp.mouseover" end="arrowUp.mouseout"/>
                  </use>
                  <path fill="none" stroke="white" stroke-width="1.5" d="M0,-3.0v7 M-2.5,-0.5L0,-3.0L2.5,-0.5"/>
                </g>
                <g id="arrowRight" xlink:href="#dirArrow" transform="rotate(90) translate(36 -43)" onmousedown="handlePan(1,0)">
                  <use xlink:href="#rim" fill="#404040">
                        <set attributeName="fill" to="#808080" begin="arrowRight.mouseover" end="arrowRight.mouseout"/>
                  </use>
                  <path fill="none" stroke="white" stroke-width="1.5" d="M0,-3.0v7 M-2.5,-0.5L0,-3.0L2.5,-0.5"/>
                </g>
                <g id="arrowDown" xlink:href="#dirArrow" transform="rotate(180) translate(-30 -48)" onmousedown="handlePan(0,1)">
                  <use xlink:href="#rim" fill="#404040">
                        <set attributeName="fill" to="#808080" begin="arrowDown.mouseover" end="arrowDown.mouseout"/>
                  </use>
                  <path fill="none" stroke="white" stroke-width="1.5" d="M0,-3.0v7 M-2.5,-0.5L0,-3.0L2.5,-0.5"/>
                </g>
                <g id="arrowLeft" xlink:href="#dirArrow" transform="rotate(270) translate(-36 17)" onmousedown="handlePan(-1,0)">
                  <use xlink:href="#rim" fill="#404040">
                        <set attributeName="fill" to="#808080" begin="arrowLeft.mouseover" end="arrowLeft.mouseout"/>
                  </use>
                  <path fill="none" stroke="white" stroke-width="1.5" d="M0,-3.0v7 M-2.5,-0.5L0,-3.0L2.5,-0.5"/>
                </g>
        </g>
        <svg viewBox="0 0 15 15" width="100%" height="30px" preserveAspectRatio="xMaxYMin meet">
         <g id="arrow_out" transform="scale(0.3 0.3)">
          <a xlink:href="a00308_a78affe18a811930d4012fd265e95cdca_icgraph_org.svg" target="_base">
           <rect id="button" ry="5" rx="5" y="6" x="6" height="38" width="38"
                fill="#f2f5e9" fill-opacity="0.5" stroke="#606060" stroke-width="1.0"/>
           <path id="arrow"
             d="M 11.500037,31.436501 C 11.940474,20.09759 22.043105,11.32322 32.158766,21.979434 L 37.068811,17.246167 C 37.068811,17.246167 37.088388,32 37.088388,32 L 22.160133,31.978069 C 22.160133,31.978069 26.997745,27.140456 26.997745,27.140456 C 18.528582,18.264221 13.291696,25.230495 11.500037,31.436501 z"
             style="fill:#404040;"/>
          </a>
         </g>
        </svg>
</svg>
