<?xml version="1.0" encoding="UTF-8" standalone="no"?>
<!DOCTYPE svg PUBLIC "-//W3C//DTD SVG 1.1//EN"
 "http://www.w3.org/Graphics/SVG/1.1/DTD/svg11.dtd">
<!-- Generated by graphviz version 2.47.1 (20210417.1919)
 -->
<!-- Title: CO_Security_Node Pages: 1 -->
<svg width="276pt" height="1036pt"
 viewBox="0.00 0.00 275.50 1036.00" xmlns="http://www.w3.org/2000/svg" xmlns:xlink="http://www.w3.org/1999/xlink">
<g id="graph0" class="graph" transform="scale(1 1) rotate(0) translate(4 1032)">
<title>CO_Security_Node</title>
<polygon fill="white" stroke="transparent" points="-4,4 -4,-1032 271.5,-1032 271.5,4 -4,4"/>
<!-- Node1 -->
<g id="node1" class="node">
<title>Node1</title>
<g id="a_node1"><a xlink:title=" ">
<polygon fill="#bfbfbf" stroke="black" points="63,-557.5 63,-636.5 195,-636.5 195,-557.5 63,-557.5"/>
<text text-anchor="middle" x="129" y="-624.5" font-family="Helvetica,sans-Serif" font-size="10.00">CO_Security_Node</text>
<polyline fill="none" stroke="black" points="63,-617.5 195,-617.5 "/>
<text text-anchor="start" x="71" y="-605.5" font-family="Helvetica,sans-Serif" font-size="10.00"># $_ids</text>
<polyline fill="none" stroke="black" points="63,-598.5 195,-598.5 "/>
<text text-anchor="start" x="71" y="-586.5" font-family="Helvetica,sans-Serif" font-size="10.00">+ __construct()</text>
<text text-anchor="start" x="71" y="-575.5" font-family="Helvetica,sans-Serif" font-size="10.00"># _default_setup()</text>
<text text-anchor="start" x="71" y="-564.5" font-family="Helvetica,sans-Serif" font-size="10.00"># _build_parameter_array()</text>
</a>
</g>
</g>
<!-- Node3 -->
<g id="node3" class="node">
<title>Node3</title>
<g id="a_node3"><a xlink:href="a00336.html" target="_top" xlink:title=" ">
<polygon fill="white" stroke="black" points="0,-342.5 0,-443.5 116,-443.5 116,-342.5 0,-342.5"/>
<text text-anchor="middle" x="58" y="-431.5" font-family="Helvetica,sans-Serif" font-size="10.00">CO_Security_ID</text>
<polyline fill="none" stroke="black" points="0,-424.5 116,-424.5 "/>
<text text-anchor="start" x="8" y="-412.5" font-family="Helvetica,sans-Serif" font-size="10.00"># $_special_first_time</text>
<text text-anchor="start" x="8" y="-401.5" font-family="Helvetica,sans-Serif" font-size="10.00">_security_exemption</text>
<polyline fill="none" stroke="black" points="0,-394.5 116,-394.5 "/>
<text text-anchor="start" x="8" y="-382.5" font-family="Helvetica,sans-Serif" font-size="10.00">+ __construct()</text>
<text text-anchor="start" x="8" y="-371.5" font-family="Helvetica,sans-Serif" font-size="10.00">+ load_from_db()</text>
<text text-anchor="start" x="8" y="-360.5" font-family="Helvetica,sans-Serif" font-size="10.00">+ security_exemption()</text>
<text text-anchor="start" x="8" y="-349.5" font-family="Helvetica,sans-Serif" font-size="10.00">+ user_can_read()</text>
</a>
</g>
</g>
<!-- Node1&#45;&gt;Node3 -->
<g id="edge2" class="edge">
<title>Node1&#45;&gt;Node3</title>
<path fill="none" stroke="midnightblue" d="M111.99,-547.61C100.94,-516.16 86.56,-475.26 75.43,-443.58"/>
<polygon fill="none" stroke="midnightblue" points="108.69,-548.78 115.31,-557.05 115.3,-546.46 108.69,-548.78"/>
</g>
<!-- Node4 -->
<g id="node4" class="node">
<title>Node4</title>
<g id="a_node4"><a xlink:href="a00340.html" target="_top" xlink:title=" ">
<polygon fill="white" stroke="black" points="134.5,-265.5 134.5,-520.5 267.5,-520.5 267.5,-265.5 134.5,-265.5"/>
<text text-anchor="middle" x="201" y="-508.5" font-family="Helvetica,sans-Serif" font-size="10.00">CO_Security_Login</text>
<polyline fill="none" stroke="black" points="134.5,-501.5 267.5,-501.5 "/>
<text text-anchor="start" x="142.5" y="-489.5" font-family="Helvetica,sans-Serif" font-size="10.00">+ $login_id</text>
<text text-anchor="start" x="142.5" y="-478.5" font-family="Helvetica,sans-Serif" font-size="10.00"># $_api_key</text>
<text text-anchor="start" x="142.5" y="-467.5" font-family="Helvetica,sans-Serif" font-size="10.00"># $_personal_ids</text>
<text text-anchor="start" x="142.5" y="-456.5" font-family="Helvetica,sans-Serif" font-size="10.00"># $_ids</text>
<text text-anchor="start" x="142.5" y="-445.5" font-family="Helvetica,sans-Serif" font-size="10.00">&#45; $_override_access_class</text>
<polyline fill="none" stroke="black" points="134.5,-438.5 267.5,-438.5 "/>
<text text-anchor="start" x="142.5" y="-426.5" font-family="Helvetica,sans-Serif" font-size="10.00">+ __construct()</text>
<text text-anchor="start" x="142.5" y="-415.5" font-family="Helvetica,sans-Serif" font-size="10.00">+ load_from_db()</text>
<text text-anchor="start" x="142.5" y="-404.5" font-family="Helvetica,sans-Serif" font-size="10.00">+ set_ids()</text>
<text text-anchor="start" x="142.5" y="-393.5" font-family="Helvetica,sans-Serif" font-size="10.00">+ add_id()</text>
<text text-anchor="start" x="142.5" y="-382.5" font-family="Helvetica,sans-Serif" font-size="10.00">+ remove_id()</text>
<text text-anchor="start" x="142.5" y="-371.5" font-family="Helvetica,sans-Serif" font-size="10.00">+ ids()</text>
<text text-anchor="start" x="142.5" y="-360.5" font-family="Helvetica,sans-Serif" font-size="10.00">+ user_can_edit_ids()</text>
<text text-anchor="start" x="142.5" y="-349.5" font-family="Helvetica,sans-Serif" font-size="10.00">+ set_personal_ids()</text>
<text text-anchor="start" x="142.5" y="-338.5" font-family="Helvetica,sans-Serif" font-size="10.00">+ personal_ids()</text>
<text text-anchor="start" x="142.5" y="-327.5" font-family="Helvetica,sans-Serif" font-size="10.00">+ get_crypted_password()</text>
<text text-anchor="start" x="142.5" y="-316.5" font-family="Helvetica,sans-Serif" font-size="10.00">and 17 more...</text>
<text text-anchor="start" x="142.5" y="-305.5" font-family="Helvetica,sans-Serif" font-size="10.00"># _set_up_api_key()</text>
<text text-anchor="start" x="142.5" y="-294.5" font-family="Helvetica,sans-Serif" font-size="10.00"># _default_setup()</text>
<text text-anchor="start" x="142.5" y="-283.5" font-family="Helvetica,sans-Serif" font-size="10.00"># _build_parameter_array()</text>
<text text-anchor="start" x="142.5" y="-272.5" font-family="Helvetica,sans-Serif" font-size="10.00"># _random_str()</text>
</a>
</g>
</g>
<!-- Node1&#45;&gt;Node4 -->
<g id="edge3" class="edge">
<title>Node1&#45;&gt;Node4</title>
<path fill="none" stroke="midnightblue" d="M146.28,-547.51C149.28,-539.1 152.52,-530.02 155.87,-520.62"/>
<polygon fill="none" stroke="midnightblue" points="142.94,-546.46 142.88,-557.05 149.54,-548.81 142.94,-546.46"/>
</g>
<!-- Node2 -->
<g id="node2" class="node">
<title>Node2</title>
<g id="a_node2"><a xlink:href="a00308.html" target="_top" xlink:title=" ">
<polygon fill="white" stroke="black" points="63,-673.5 63,-1027.5 195,-1027.5 195,-673.5 63,-673.5"/>
<text text-anchor="middle" x="129" y="-1015.5" font-family="Helvetica,sans-Serif" font-size="10.00">A_CO_DB_Table_Base</text>
<polyline fill="none" stroke="black" points="63,-1008.5 195,-1008.5 "/>
<text text-anchor="start" x="71" y="-996.5" font-family="Helvetica,sans-Serif" font-size="10.00">+ $class_description</text>
<text text-anchor="start" x="71" y="-985.5" font-family="Helvetica,sans-Serif" font-size="10.00">+ $instance_description</text>
<text text-anchor="start" x="71" y="-974.5" font-family="Helvetica,sans-Serif" font-size="10.00">+ $last_access</text>
<text text-anchor="start" x="71" y="-963.5" font-family="Helvetica,sans-Serif" font-size="10.00">+ $name</text>
<text text-anchor="start" x="71" y="-952.5" font-family="Helvetica,sans-Serif" font-size="10.00">+ $read_security_id</text>
<text text-anchor="start" x="71" y="-941.5" font-family="Helvetica,sans-Serif" font-size="10.00">+ $write_security_id</text>
<text text-anchor="start" x="71" y="-930.5" font-family="Helvetica,sans-Serif" font-size="10.00">+ $context</text>
<text text-anchor="start" x="71" y="-919.5" font-family="Helvetica,sans-Serif" font-size="10.00">+ $error</text>
<text text-anchor="start" x="71" y="-908.5" font-family="Helvetica,sans-Serif" font-size="10.00"># $_db_object</text>
<text text-anchor="start" x="71" y="-897.5" font-family="Helvetica,sans-Serif" font-size="10.00"># $_id</text>
<text text-anchor="start" x="71" y="-886.5" font-family="Helvetica,sans-Serif" font-size="10.00"># $_batch_mode</text>
<polyline fill="none" stroke="black" points="63,-879.5 195,-879.5 "/>
<text text-anchor="start" x="71" y="-867.5" font-family="Helvetica,sans-Serif" font-size="10.00">+ __construct()</text>
<text text-anchor="start" x="71" y="-856.5" font-family="Helvetica,sans-Serif" font-size="10.00">+ set_batch_mode()</text>
<text text-anchor="start" x="71" y="-845.5" font-family="Helvetica,sans-Serif" font-size="10.00">+ clear_batch_mode()</text>
<text text-anchor="start" x="71" y="-834.5" font-family="Helvetica,sans-Serif" font-size="10.00">+ load_from_db()</text>
<text text-anchor="start" x="71" y="-823.5" font-family="Helvetica,sans-Serif" font-size="10.00">+ id()</text>
<text text-anchor="start" x="71" y="-812.5" font-family="Helvetica,sans-Serif" font-size="10.00">+ lock()</text>
<text text-anchor="start" x="71" y="-801.5" font-family="Helvetica,sans-Serif" font-size="10.00">+ locked()</text>
<text text-anchor="start" x="71" y="-790.5" font-family="Helvetica,sans-Serif" font-size="10.00">+ danger_will_robinson</text>
<text text-anchor="start" x="71" y="-779.5" font-family="Helvetica,sans-Serif" font-size="10.00">_danger_clear_id()</text>
<text text-anchor="start" x="71" y="-768.5" font-family="Helvetica,sans-Serif" font-size="10.00">+ user_can_read()</text>
<text text-anchor="start" x="71" y="-757.5" font-family="Helvetica,sans-Serif" font-size="10.00">+ user_can_write()</text>
<text text-anchor="start" x="71" y="-746.5" font-family="Helvetica,sans-Serif" font-size="10.00">and 9 more...</text>
<text text-anchor="start" x="71" y="-735.5" font-family="Helvetica,sans-Serif" font-size="10.00"># _default_setup()</text>
<text text-anchor="start" x="71" y="-724.5" font-family="Helvetica,sans-Serif" font-size="10.00"># _build_parameter_array()</text>
<text text-anchor="start" x="71" y="-713.5" font-family="Helvetica,sans-Serif" font-size="10.00"># _badger_serialize()</text>
<text text-anchor="start" x="71" y="-702.5" font-family="Helvetica,sans-Serif" font-size="10.00"># _badger_unserialize()</text>
<text text-anchor="start" x="71" y="-691.5" font-family="Helvetica,sans-Serif" font-size="10.00"># _write_to_db()</text>
<text text-anchor="start" x="71" y="-680.5" font-family="Helvetica,sans-Serif" font-size="10.00"># _seppuku()</text>
</a>
</g>
</g>
<!-- Node2&#45;&gt;Node1 -->
<g id="edge1" class="edge">
<title>Node2&#45;&gt;Node1</title>
<path fill="none" stroke="midnightblue" d="M129,-663.31C129,-653.77 129,-644.84 129,-636.83"/>
<polygon fill="none" stroke="midnightblue" points="125.5,-663.46 129,-673.46 132.5,-663.46 125.5,-663.46"/>
</g>
<!-- Node5 -->
<g id="node5" class="node">
<title>Node5</title>
<g id="a_node5"><a xlink:href="a00228.html" target="_top" xlink:title=" ">
<polygon fill="white" stroke="black" points="143,-127.5 143,-228.5 259,-228.5 259,-127.5 143,-127.5"/>
<text text-anchor="middle" x="201" y="-216.5" font-family="Helvetica,sans-Serif" font-size="10.00">CO_Cobra_Login</text>
<polyline fill="none" stroke="black" points="143,-209.5 259,-209.5 "/>
<text text-anchor="start" x="151" y="-197.5" font-family="Helvetica,sans-Serif" font-size="10.00"># $_special_first_time</text>
<text text-anchor="start" x="151" y="-186.5" font-family="Helvetica,sans-Serif" font-size="10.00">_security_exemption</text>
<polyline fill="none" stroke="black" points="143,-179.5 259,-179.5 "/>
<text text-anchor="start" x="151" y="-167.5" font-family="Helvetica,sans-Serif" font-size="10.00">+ __construct()</text>
<text text-anchor="start" x="151" y="-156.5" font-family="Helvetica,sans-Serif" font-size="10.00">+ set_personal_ids()</text>
<text text-anchor="start" x="151" y="-145.5" font-family="Helvetica,sans-Serif" font-size="10.00">+ load_from_db()</text>
<text text-anchor="start" x="151" y="-134.5" font-family="Helvetica,sans-Serif" font-size="10.00">+ security_exemption()</text>
</a>
</g>
</g>
<!-- Node4&#45;&gt;Node5 -->
<g id="edge4" class="edge">
<title>Node4&#45;&gt;Node5</title>
<path fill="none" stroke="midnightblue" d="M201,-255.18C201,-245.93 201,-237.02 201,-228.75"/>
<polygon fill="none" stroke="midnightblue" points="197.5,-255.33 201,-265.33 204.5,-255.33 197.5,-255.33"/>
</g>
<!-- Node6 -->
<g id="node6" class="node">
<title>Node6</title>
<g id="a_node6"><a xlink:href="a00232.html" target="_top" xlink:title=" ">
<polygon fill="white" stroke="black" points="146.5,-0.5 146.5,-90.5 255.5,-90.5 255.5,-0.5 146.5,-0.5"/>
<text text-anchor="middle" x="201" y="-78.5" font-family="Helvetica,sans-Serif" font-size="10.00">CO_Login_Manager</text>
<polyline fill="none" stroke="black" points="146.5,-71.5 255.5,-71.5 "/>
<text text-anchor="start" x="154.5" y="-59.5" font-family="Helvetica,sans-Serif" font-size="10.00"># $_added_new_id</text>
<polyline fill="none" stroke="black" points="146.5,-52.5 255.5,-52.5 "/>
<text text-anchor="start" x="154.5" y="-40.5" font-family="Helvetica,sans-Serif" font-size="10.00">+ __construct()</text>
<text text-anchor="start" x="154.5" y="-29.5" font-family="Helvetica,sans-Serif" font-size="10.00">+ load_from_db()</text>
<text text-anchor="start" x="154.5" y="-18.5" font-family="Helvetica,sans-Serif" font-size="10.00">+ is_manager()</text>
<text text-anchor="start" x="154.5" y="-7.5" font-family="Helvetica,sans-Serif" font-size="10.00">+ add_new_login_id()</text>
</a>
</g>
</g>
<!-- Node5&#45;&gt;Node6 -->
<g id="edge5" class="edge">
<title>Node5&#45;&gt;Node6</title>
<path fill="none" stroke="midnightblue" d="M201,-117.23C201,-108.24 201,-99.1 201,-90.52"/>
<polygon fill="none" stroke="midnightblue" points="197.5,-117.29 201,-127.29 204.5,-117.29 197.5,-117.29"/>
</g>
</g>
</svg>
