<?xml version="1.0" encoding="UTF-8" standalone="no"?>
<!DOCTYPE svg PUBLIC "-//W3C//DTD SVG 1.1//EN"
 "http://www.w3.org/Graphics/SVG/1.1/DTD/svg11.dtd">
<!-- Generated by graphviz version 2.40.1 (20161225.0304)
 -->
<!-- Title: A_CO_DB\execute_query Pages: 1 -->
<svg width="489pt" height="1118pt"
 viewBox="0.00 0.00 489.33 1118.00" xmlns="http://www.w3.org/2000/svg" xmlns:xlink="http://www.w3.org/1999/xlink">
<g id="graph0" class="graph" transform="scale(1 1) rotate(0) translate(4 1114)">
<title>A_CO_DB\execute_query</title>
<polygon fill="#ffffff" stroke="transparent" points="-4,4 -4,-1114 485.3281,-1114 485.3281,4 -4,4"/>
<!-- Node1 -->
<g id="node1" class="node">
<title>Node1</title>
<g id="a_node1"><a xlink:title=" ">
<polygon fill="#bfbfbf" stroke="#000000" points="350.2646,-525.5 350.2646,-543.5 481.3281,-543.5 481.3281,-525.5 350.2646,-525.5"/>
<text text-anchor="middle" x="415.7964" y="-531.5" font-family="Helvetica,sans-Serif" font-size="10.00" fill="#000000">A_CO_DB\execute_query</text>
</a>
</g>
</g>
<!-- Node2 -->
<g id="node2" class="node">
<title>Node2</title>
<g id="a_node2"><a xlink:href="a00307.html#af6baed01812f38acbc19df4b00f443b2" target="_top" xlink:title=" ">
<polygon fill="#ffffff" stroke="#000000" points="177.9204,-1081.5 177.9204,-1109.5 310.0972,-1109.5 310.0972,-1081.5 177.9204,-1081.5"/>
<text text-anchor="start" x="185.9204" y="-1097.5" font-family="Helvetica,sans-Serif" font-size="10.00" fill="#000000">A_CO_DB\can_i_see_this</text>
<text text-anchor="middle" x="244.0088" y="-1087.5" font-family="Helvetica,sans-Serif" font-size="10.00" fill="#000000">_record</text>
</a>
</g>
</g>
<!-- Node1&#45;&gt;Node2 -->
<g id="edge1" class="edge">
<title>Node1&#45;&gt;Node2</title>
<path fill="none" stroke="#191970" d="M414.7221,-553.9306C409.5462,-640.765 384.4819,-992.5172 314.2646,-1072.5 311.2164,-1075.9721 307.6362,-1078.9226 303.7339,-1081.4294"/>
<polygon fill="#191970" stroke="#191970" points="418.2198,-554.0702 415.3013,-543.8853 411.2314,-553.6672 418.2198,-554.0702"/>
</g>
<!-- Node3 -->
<g id="node3" class="node">
<title>Node3</title>
<g id="a_node3"><a xlink:href="a00327.html#a744a82a9eac23300f9e55127859d4ead" target="_top" xlink:title=" ">
<polygon fill="#ffffff" stroke="#000000" points="184.3193,-1024.5 184.3193,-1062.5 303.6982,-1062.5 303.6982,-1024.5 184.3193,-1024.5"/>
<text text-anchor="start" x="192.3193" y="-1050.5" font-family="Helvetica,sans-Serif" font-size="10.00" fill="#000000">CO_Security_DB\count</text>
<text text-anchor="start" x="192.3193" y="-1040.5" font-family="Helvetica,sans-Serif" font-size="10.00" fill="#000000">_all_login_objects_with</text>
<text text-anchor="middle" x="244.0088" y="-1030.5" font-family="Helvetica,sans-Serif" font-size="10.00" fill="#000000">_access</text>
</a>
</g>
</g>
<!-- Node1&#45;&gt;Node3 -->
<g id="edge2" class="edge">
<title>Node1&#45;&gt;Node3</title>
<path fill="none" stroke="#191970" d="M414.1358,-553.7796C406.8472,-634.3141 375.3009,-943.0041 314.2646,-1015.5 311.2203,-1019.116 307.6428,-1022.2686 303.7424,-1025.0168"/>
<polygon fill="#191970" stroke="#191970" points="417.6406,-553.8778 415.0357,-543.6082 410.6679,-553.2608 417.6406,-553.8778"/>
</g>
<!-- Node4 -->
<g id="node4" class="node">
<title>Node4</title>
<g id="a_node4"><a xlink:href="a00307.html#a9794f1140b379f8d09c4265a089fcea0" target="_top" xlink:title=" ">
<polygon fill="#ffffff" stroke="#000000" points="180.7012,-987.5 180.7012,-1005.5 307.3164,-1005.5 307.3164,-987.5 180.7012,-987.5"/>
<text text-anchor="middle" x="244.0088" y="-993.5" font-family="Helvetica,sans-Serif" font-size="10.00" fill="#000000">A_CO_DB\delete_record</text>
</a>
</g>
</g>
<!-- Node1&#45;&gt;Node4 -->
<g id="edge3" class="edge">
<title>Node1&#45;&gt;Node4</title>
<path fill="none" stroke="#191970" d="M414.0078,-553.9629C406.5114,-631.3418 375.1497,-916.0109 314.2646,-978.5 310.7499,-982.1073 306.6183,-985.0268 302.1484,-987.3853"/>
<polygon fill="#191970" stroke="#191970" points="417.5172,-554.0283 414.9744,-543.7431 410.5483,-553.3691 417.5172,-554.0283"/>
</g>
<!-- Node5 -->
<g id="node5" class="node">
<title>Node5</title>
<g id="a_node5"><a xlink:href="a00315.html#a303048d406814c066d27fda70de4ff02" target="_top" xlink:title=" ">
<polygon fill="#ffffff" stroke="#000000" points="174.0337,-940.5 174.0337,-968.5 313.9839,-968.5 313.9839,-940.5 174.0337,-940.5"/>
<text text-anchor="start" x="182.0337" y="-956.5" font-family="Helvetica,sans-Serif" font-size="10.00" fill="#000000">CO_Main_Data_DB\generic</text>
<text text-anchor="middle" x="244.0088" y="-946.5" font-family="Helvetica,sans-Serif" font-size="10.00" fill="#000000">_search</text>
</a>
</g>
</g>
<!-- Node1&#45;&gt;Node5 -->
<g id="edge4" class="edge">
<title>Node1&#45;&gt;Node5</title>
<path fill="none" stroke="#191970" d="M413.2976,-554.061C403.7387,-626.0204 367.3419,-874.7989 314.2646,-931.5 311.0195,-934.9668 307.2447,-937.9119 303.1613,-940.4137"/>
<polygon fill="#191970" stroke="#191970" points="416.8195,-554.1195 414.6427,-543.7507 409.8784,-553.2138 416.8195,-554.1195"/>
</g>
<!-- Node6 -->
<g id="node6" class="node">
<title>Node6</title>
<g id="a_node6"><a xlink:href="a00307.html#a707e7cfdbea32a3713320dbca46dac64" target="_top" xlink:title=" ">
<polygon fill="#ffffff" stroke="#000000" points="185.9844,-893.5 185.9844,-921.5 302.0332,-921.5 302.0332,-893.5 185.9844,-893.5"/>
<text text-anchor="start" x="193.9844" y="-909.5" font-family="Helvetica,sans-Serif" font-size="10.00" fill="#000000">A_CO_DB\get_access</text>
<text text-anchor="middle" x="244.0088" y="-899.5" font-family="Helvetica,sans-Serif" font-size="10.00" fill="#000000">_class_by_id</text>
</a>
</g>
</g>
<!-- Node1&#45;&gt;Node6 -->
<g id="edge5" class="edge">
<title>Node1&#45;&gt;Node6</title>
<path fill="none" stroke="#191970" d="M412.6173,-553.839C401.3972,-619.9178 361.7588,-835.3611 314.2646,-884.5 310.6969,-888.1913 306.5288,-891.2906 302.0352,-893.8928"/>
<polygon fill="#191970" stroke="#191970" points="416.1287,-554.0607 414.3265,-543.6203 409.2246,-552.9059 416.1287,-554.0607"/>
</g>
<!-- Node7 -->
<g id="node7" class="node">
<title>Node7</title>
<g id="a_node7"><a xlink:href="a00327.html#ad75f2ed511a4eae172f9f2acd73f2de9" target="_top" xlink:title=" ">
<polygon fill="#ffffff" stroke="#000000" points="189.6001,-846.5 189.6001,-874.5 298.4175,-874.5 298.4175,-846.5 189.6001,-846.5"/>
<text text-anchor="start" x="197.6001" y="-862.5" font-family="Helvetica,sans-Serif" font-size="10.00" fill="#000000">CO_Security_DB\get</text>
<text text-anchor="middle" x="244.0088" y="-852.5" font-family="Helvetica,sans-Serif" font-size="10.00" fill="#000000">_all_login_objects</text>
</a>
</g>
</g>
<!-- Node1&#45;&gt;Node7 -->
<g id="edge6" class="edge">
<title>Node1&#45;&gt;Node7</title>
<path fill="none" stroke="#191970" d="M415.0721,-553.717C412.0304,-606.662 396.2324,-756.1 314.2646,-837.5 309.7113,-842.0218 304.2566,-845.6546 298.4263,-848.5733"/>
<polygon fill="#191970" stroke="#191970" points="418.57,-553.8432 415.5567,-543.6859 411.5782,-553.5053 418.57,-553.8432"/>
</g>
<!-- Node8 -->
<g id="node8" class="node">
<title>Node8</title>
<g id="a_node8"><a xlink:href="a00327.html#af39966b2bf3f43bc640b013ec5a472be" target="_top" xlink:title=" ">
<polygon fill="#ffffff" stroke="#000000" points="184.5854,-789.5 184.5854,-827.5 303.4321,-827.5 303.4321,-789.5 184.5854,-789.5"/>
<text text-anchor="start" x="192.5854" y="-815.5" font-family="Helvetica,sans-Serif" font-size="10.00" fill="#000000">CO_Security_DB\get</text>
<text text-anchor="start" x="192.5854" y="-805.5" font-family="Helvetica,sans-Serif" font-size="10.00" fill="#000000">_all_login_objects_with</text>
<text text-anchor="middle" x="244.0088" y="-795.5" font-family="Helvetica,sans-Serif" font-size="10.00" fill="#000000">_access</text>
</a>
</g>
</g>
<!-- Node1&#45;&gt;Node8 -->
<g id="edge7" class="edge">
<title>Node1&#45;&gt;Node8</title>
<path fill="none" stroke="#191970" d="M412.9998,-554.0383C405.4638,-599.7891 380.6237,-714.9445 314.2646,-780.5 310.9019,-783.822 307.0957,-786.7634 303.0371,-789.3655"/>
<polygon fill="#191970" stroke="#191970" points="416.4867,-554.3922 414.5577,-543.9745 409.569,-553.3213 416.4867,-554.3922"/>
</g>
<!-- Node9 -->
<g id="node9" class="node">
<title>Node9</title>
<g id="a_node9"><a xlink:href="a00307.html#a6ccca3e1b18f58a3d4a4ad6018f067b1" target="_top" xlink:title=" ">
<polygon fill="#ffffff" stroke="#000000" points="174.3022,-742.5 174.3022,-770.5 313.7153,-770.5 313.7153,-742.5 174.3022,-742.5"/>
<text text-anchor="start" x="182.3022" y="-758.5" font-family="Helvetica,sans-Serif" font-size="10.00" fill="#000000">A_CO_DB\get_all_readable</text>
<text text-anchor="middle" x="244.0088" y="-748.5" font-family="Helvetica,sans-Serif" font-size="10.00" fill="#000000">_records</text>
</a>
</g>
</g>
<!-- Node1&#45;&gt;Node9 -->
<g id="edge8" class="edge">
<title>Node1&#45;&gt;Node9</title>
<path fill="none" stroke="#191970" d="M411.3574,-553.4137C401.1558,-592.7467 372.3284,-683.8247 314.2646,-733.5 310.2662,-736.9208 305.7465,-739.8358 300.975,-742.3192"/>
<polygon fill="#191970" stroke="#191970" points="414.789,-554.1163 413.7971,-543.568 407.9945,-552.4326 414.789,-554.1163"/>
</g>
<!-- Node10 -->
<g id="node10" class="node">
<title>Node10</title>
<g id="a_node10"><a xlink:href="a00327.html#a89e505e3f61a75590a72969b16e97bea" target="_top" xlink:title=" ">
<polygon fill="#ffffff" stroke="#000000" points="189.6001,-695.5 189.6001,-723.5 298.4175,-723.5 298.4175,-695.5 189.6001,-695.5"/>
<text text-anchor="start" x="197.6001" y="-711.5" font-family="Helvetica,sans-Serif" font-size="10.00" fill="#000000">CO_Security_DB\get</text>
<text text-anchor="middle" x="244.0088" y="-701.5" font-family="Helvetica,sans-Serif" font-size="10.00" fill="#000000">_all_tokens</text>
</a>
</g>
</g>
<!-- Node1&#45;&gt;Node10 -->
<g id="edge9" class="edge">
<title>Node1&#45;&gt;Node10</title>
<path fill="none" stroke="#191970" d="M408.3192,-553.0004C394.5018,-584.9004 361.961,-650.3062 314.2646,-686.5 309.4595,-690.1464 304.0506,-693.2291 298.4217,-695.8322"/>
<polygon fill="#191970" stroke="#191970" points="411.6397,-554.1326 412.2821,-543.5573 405.185,-551.4238 411.6397,-554.1326"/>
</g>
<!-- Node11 -->
<g id="node11" class="node">
<title>Node11</title>
<g id="a_node11"><a xlink:href="a00327.html#a8c467296937e33f1d083ae9b68141108" target="_top" xlink:title=" ">
<polygon fill="#ffffff" stroke="#000000" points="185.4229,-638.5 185.4229,-676.5 302.5947,-676.5 302.5947,-638.5 185.4229,-638.5"/>
<text text-anchor="start" x="193.4229" y="-664.5" font-family="Helvetica,sans-Serif" font-size="10.00" fill="#000000">CO_Security_DB\get</text>
<text text-anchor="start" x="193.4229" y="-654.5" font-family="Helvetica,sans-Serif" font-size="10.00" fill="#000000">_all_user_objects_with</text>
<text text-anchor="middle" x="244.0088" y="-644.5" font-family="Helvetica,sans-Serif" font-size="10.00" fill="#000000">_access</text>
</a>
</g>
</g>
<!-- Node1&#45;&gt;Node11 -->
<g id="edge10" class="edge">
<title>Node1&#45;&gt;Node11</title>
<path fill="none" stroke="#191970" d="M401.5825,-551.188C383.2049,-571.9013 349.3707,-607.2099 314.2646,-629.5 309.1657,-632.7375 303.6308,-635.7156 297.9813,-638.4229"/>
<polygon fill="#191970" stroke="#191970" points="404.3262,-553.367 408.2612,-543.5299 399.0507,-548.766 404.3262,-553.367"/>
</g>
<!-- Node12 -->
<g id="node12" class="node">
<title>Node12</title>
<g id="a_node12"><a xlink:href="a00315.html#ad5f95b226e01879bbee99a65b33cb12b" target="_top" xlink:title=" ">
<polygon fill="#ffffff" stroke="#000000" points="183.4819,-591.5 183.4819,-619.5 304.5356,-619.5 304.5356,-591.5 183.4819,-591.5"/>
<text text-anchor="start" x="191.4819" y="-607.5" font-family="Helvetica,sans-Serif" font-size="10.00" fill="#000000">CO_Main_Data_DB\get</text>
<text text-anchor="middle" x="244.0088" y="-597.5" font-family="Helvetica,sans-Serif" font-size="10.00" fill="#000000">_all_visible_users</text>
</a>
</g>
</g>
<!-- Node1&#45;&gt;Node12 -->
<g id="edge11" class="edge">
<title>Node1&#45;&gt;Node12</title>
<path fill="none" stroke="#191970" d="M389.5484,-548.0229C369.2809,-558.1906 340.3792,-572.0998 314.2646,-582.5 306.3952,-585.634 297.9137,-588.6808 289.6588,-591.477"/>
<polygon fill="#191970" stroke="#191970" points="391.14,-551.1401 398.4827,-543.5024 387.9797,-544.8941 391.14,-551.1401"/>
</g>
<!-- Node13 -->
<g id="node13" class="node">
<title>Node13</title>
<g id="a_node13"><a xlink:href="a00307.html#a2b39eabcd72a9d79267e51a5f2b16648" target="_top" xlink:title=" ">
<polygon fill="#ffffff" stroke="#000000" points="173.7529,-544.5 173.7529,-572.5 314.2646,-572.5 314.2646,-544.5 173.7529,-544.5"/>
<text text-anchor="start" x="181.7529" y="-560.5" font-family="Helvetica,sans-Serif" font-size="10.00" fill="#000000">A_CO_DB\get_all_writeable</text>
<text text-anchor="middle" x="244.0088" y="-550.5" font-family="Helvetica,sans-Serif" font-size="10.00" fill="#000000">_records</text>
</a>
</g>
</g>
<!-- Node1&#45;&gt;Node13 -->
<g id="edge12" class="edge">
<title>Node1&#45;&gt;Node13</title>
<path fill="none" stroke="#191970" d="M341.3073,-544.9067C332.3385,-546.1597 323.2008,-547.4363 314.2947,-548.6805"/>
<polygon fill="#191970" stroke="#191970" points="341.9208,-548.3551 351.3403,-543.505 340.9522,-541.4224 341.9208,-548.3551"/>
</g>
<!-- Node14 -->
<g id="node14" class="node">
<title>Node14</title>
<g id="a_node14"><a xlink:href="a00327.html#a4e2e3180a3be3bbe410fa3066572a8a0" target="_top" xlink:title=" ">
<polygon fill="#ffffff" stroke="#000000" points="180.9722,-497.5 180.9722,-525.5 307.0454,-525.5 307.0454,-497.5 180.9722,-497.5"/>
<text text-anchor="start" x="188.9722" y="-513.5" font-family="Helvetica,sans-Serif" font-size="10.00" fill="#000000">CO_Security_DB\get</text>
<text text-anchor="middle" x="244.0088" y="-503.5" font-family="Helvetica,sans-Serif" font-size="10.00" fill="#000000">_credentials_by_api_key</text>
</a>
</g>
</g>
<!-- Node1&#45;&gt;Node14 -->
<g id="edge13" class="edge">
<title>Node1&#45;&gt;Node14</title>
<path fill="none" stroke="#191970" d="M339.9209,-524.3413C328.9978,-522.8789 317.8556,-521.3871 307.2138,-519.9623"/>
<polygon fill="#191970" stroke="#191970" points="339.4941,-527.8153 349.8701,-525.6734 340.423,-520.8772 339.4941,-527.8153"/>
</g>
<!-- Node15 -->
<g id="node15" class="node">
<title>Node15</title>
<g id="a_node15"><a xlink:href="a00307.html#a4b86c0613b521ffdbbd62f8928ad07f8" target="_top" xlink:title=" ">
<polygon fill="#ffffff" stroke="#000000" points="177.0806,-460.5 177.0806,-478.5 310.937,-478.5 310.937,-460.5 177.0806,-460.5"/>
<text text-anchor="middle" x="244.0088" y="-466.5" font-family="Helvetica,sans-Serif" font-size="10.00" fill="#000000">A_CO_DB\get_db_backup</text>
</a>
</g>
</g>
<!-- Node1&#45;&gt;Node15 -->
<g id="edge14" class="edge">
<title>Node1&#45;&gt;Node15</title>
<path fill="none" stroke="#191970" d="M388.9911,-520.9199C368.8002,-511.0462 340.2467,-497.8302 314.2646,-488.5 303.9187,-484.7848 292.4907,-481.4004 281.9109,-478.551"/>
<polygon fill="#191970" stroke="#191970" points="387.6681,-524.1703 398.1833,-525.4669 390.7718,-517.8959 387.6681,-524.1703"/>
</g>
<!-- Node16 -->
<g id="node16" class="node">
<title>Node16</title>
<g id="a_node16"><a xlink:href="a00327.html#ab7c6d41fc8b4b571f313be2c8b03b17d" target="_top" xlink:title=" ">
<polygon fill="#ffffff" stroke="#000000" points="189.6001,-413.5 189.6001,-441.5 298.4175,-441.5 298.4175,-413.5 189.6001,-413.5"/>
<text text-anchor="start" x="197.6001" y="-429.5" font-family="Helvetica,sans-Serif" font-size="10.00" fill="#000000">CO_Security_DB\get</text>
<text text-anchor="middle" x="244.0088" y="-419.5" font-family="Helvetica,sans-Serif" font-size="10.00" fill="#000000">_initial_record_by_id</text>
</a>
</g>
</g>
<!-- Node1&#45;&gt;Node16 -->
<g id="edge15" class="edge">
<title>Node1&#45;&gt;Node16</title>
<path fill="none" stroke="#191970" d="M399.6072,-518.1182C380.6293,-499.7075 347.5236,-469.9835 314.2646,-451.5 307.5049,-447.7433 300.0544,-444.4292 292.6085,-441.5565"/>
<polygon fill="#191970" stroke="#191970" points="397.2585,-520.7177 406.8349,-525.2501 402.1751,-515.735 397.2585,-520.7177"/>
</g>
<!-- Node17 -->
<g id="node17" class="node">
<title>Node17</title>
<g id="a_node17"><a xlink:href="a00327.html#a5d73fc994a204fe7362e8ca77df1b344" target="_top" xlink:title=" ">
<polygon fill="#ffffff" stroke="#000000" points="176.8022,-366.5 176.8022,-394.5 311.2153,-394.5 311.2153,-366.5 176.8022,-366.5"/>
<text text-anchor="start" x="184.8022" y="-382.5" font-family="Helvetica,sans-Serif" font-size="10.00" fill="#000000">CO_Security_DB\get</text>
<text text-anchor="middle" x="244.0088" y="-372.5" font-family="Helvetica,sans-Serif" font-size="10.00" fill="#000000">_initial_record_by_login_id</text>
</a>
</g>
</g>
<!-- Node1&#45;&gt;Node17 -->
<g id="edge16" class="edge">
<title>Node1&#45;&gt;Node17</title>
<path fill="none" stroke="#191970" d="M406.273,-516.4426C390.6711,-488.5322 357.0731,-434.9619 314.2646,-404.5 308.8037,-400.6141 302.6625,-397.3166 296.3428,-394.5288"/>
<polygon fill="#191970" stroke="#191970" points="403.3347,-518.3653 411.1906,-525.474 409.4824,-515.0178 403.3347,-518.3653"/>
</g>
<!-- Node18 -->
<g id="node18" class="node">
<title>Node18</title>
<g id="a_node18"><a xlink:href="a00307.html#aaca8bf49257aa5ade3c354ef76119fa4" target="_top" xlink:title=" ">
<polygon fill="#ffffff" stroke="#000000" points="184.3169,-319.5 184.3169,-347.5 303.7007,-347.5 303.7007,-319.5 184.3169,-319.5"/>
<text text-anchor="start" x="192.3169" y="-335.5" font-family="Helvetica,sans-Serif" font-size="10.00" fill="#000000">A_CO_DB\get_multiple</text>
<text text-anchor="middle" x="244.0088" y="-325.5" font-family="Helvetica,sans-Serif" font-size="10.00" fill="#000000">_records_by_id</text>
</a>
</g>
</g>
<!-- Node1&#45;&gt;Node18 -->
<g id="edge17" class="edge">
<title>Node1&#45;&gt;Node18</title>
<path fill="none" stroke="#191970" d="M409.9656,-515.5383C397.9454,-479.5377 367.0228,-401.0066 314.2646,-357.5 309.5909,-353.6458 304.2652,-350.3979 298.6845,-347.6635"/>
<polygon fill="#191970" stroke="#191970" points="406.6985,-516.8116 413.0924,-525.2596 413.3623,-514.6682 406.6985,-516.8116"/>
</g>
<!-- Node20 -->
<g id="node20" class="node">
<title>Node20</title>
<g id="a_node20"><a xlink:href="a00327.html#af7f9180938518c8325b3d4ba52112e02" target="_top" xlink:title=" ">
<polygon fill="#ffffff" stroke="#000000" points="188.4844,-262.5 188.4844,-300.5 299.5332,-300.5 299.5332,-262.5 188.4844,-262.5"/>
<text text-anchor="start" x="196.4844" y="-288.5" font-family="Helvetica,sans-Serif" font-size="10.00" fill="#000000">CO_Security_DB\get</text>
<text text-anchor="start" x="196.4844" y="-278.5" font-family="Helvetica,sans-Serif" font-size="10.00" fill="#000000">_multiple_records_by</text>
<text text-anchor="middle" x="244.0088" y="-268.5" font-family="Helvetica,sans-Serif" font-size="10.00" fill="#000000">_login_id</text>
</a>
</g>
</g>
<!-- Node1&#45;&gt;Node20 -->
<g id="edge19" class="edge">
<title>Node1&#45;&gt;Node20</title>
<path fill="none" stroke="#191970" d="M412.1773,-515.6269C403.1309,-473.3033 375.7043,-369.8797 314.2646,-310.5 309.9949,-306.3734 305.0554,-302.8015 299.8136,-299.7168"/>
<polygon fill="#191970" stroke="#191970" points="408.7492,-516.3333 414.1733,-525.4344 415.6086,-514.9373 408.7492,-516.3333"/>
</g>
<!-- Node22 -->
<g id="node22" class="node">
<title>Node22</title>
<g id="a_node22"><a xlink:href="a00327.html#a178b936fc390b03173e55cb28d0362f7" target="_top" xlink:title=" ">
<polygon fill="#ffffff" stroke="#000000" points="189.6001,-215.5 189.6001,-243.5 298.4175,-243.5 298.4175,-215.5 189.6001,-215.5"/>
<text text-anchor="start" x="197.6001" y="-231.5" font-family="Helvetica,sans-Serif" font-size="10.00" fill="#000000">CO_Security_DB\get</text>
<text text-anchor="middle" x="244.0088" y="-221.5" font-family="Helvetica,sans-Serif" font-size="10.00" fill="#000000">_security_ids_for_id</text>
</a>
</g>
</g>
<!-- Node1&#45;&gt;Node22 -->
<g id="edge21" class="edge">
<title>Node1&#45;&gt;Node22</title>
<path fill="none" stroke="#191970" d="M414.4406,-515.4079C409.86,-465.2658 390.6386,-328.5455 314.2646,-253.5 309.7597,-249.0735 304.4055,-245.4622 298.692,-242.5162"/>
<polygon fill="#191970" stroke="#191970" points="410.9608,-515.798 415.2646,-525.4793 417.9374,-515.2271 410.9608,-515.798"/>
</g>
<!-- Node23 -->
<g id="node23" class="node">
<title>Node23</title>
<g id="a_node23"><a xlink:href="a00307.html#af62a0d273b69bdf1f5012f88e619cec7" target="_top" xlink:title=" ">
<polygon fill="#ffffff" stroke="#000000" points="188.4819,-168.5 188.4819,-196.5 299.5356,-196.5 299.5356,-168.5 188.4819,-168.5"/>
<text text-anchor="start" x="196.4819" y="-184.5" font-family="Helvetica,sans-Serif" font-size="10.00" fill="#000000">A_CO_DB\get_single</text>
<text text-anchor="middle" x="244.0088" y="-174.5" font-family="Helvetica,sans-Serif" font-size="10.00" fill="#000000">_raw_row_by_id</text>
</a>
</g>
</g>
<!-- Node1&#45;&gt;Node23 -->
<g id="edge22" class="edge">
<title>Node1&#45;&gt;Node23</title>
<path fill="none" stroke="#191970" d="M412.1928,-515.1755C400.043,-451.905 358.8407,-252.3872 314.2646,-206.5 310.0436,-202.1548 305.0043,-198.5961 299.5896,-195.6816"/>
<polygon fill="#191970" stroke="#191970" points="408.8174,-516.1624 414.1176,-525.3362 415.6951,-514.8595 408.8174,-516.1624"/>
</g>
<!-- Node24 -->
<g id="node24" class="node">
<title>Node24</title>
<g id="a_node24"><a xlink:href="a00327.html#a3cd67075c3669e321c903e1b935d37a4" target="_top" xlink:title=" ">
<polygon fill="#ffffff" stroke="#000000" points="181.8169,-121.5 181.8169,-149.5 306.2007,-149.5 306.2007,-121.5 181.8169,-121.5"/>
<text text-anchor="start" x="189.8169" y="-137.5" font-family="Helvetica,sans-Serif" font-size="10.00" fill="#000000">CO_Security_DB\i_have</text>
<text text-anchor="middle" x="244.0088" y="-127.5" font-family="Helvetica,sans-Serif" font-size="10.00" fill="#000000">_all_ids</text>
</a>
</g>
</g>
<!-- Node1&#45;&gt;Node24 -->
<g id="edge23" class="edge">
<title>Node1&#45;&gt;Node24</title>
<path fill="none" stroke="#191970" d="M412.9902,-515.1635C402.6136,-446.1183 364.4064,-212.9992 314.2646,-159.5 310.6508,-155.6442 306.3925,-152.4079 301.7888,-149.6915"/>
<polygon fill="#191970" stroke="#191970" points="409.5835,-516.0522 414.5086,-525.4327 416.5082,-515.0283 409.5835,-516.0522"/>
</g>
<!-- Node25 -->
<g id="node25" class="node">
<title>Node25</title>
<g id="a_node25"><a xlink:href="a00315.html#aad50ae8e57d81015ec1e8601dd2eaba4" target="_top" xlink:title=" ">
<polygon fill="#ffffff" stroke="#000000" points="180.9868,-74.5 180.9868,-102.5 307.0308,-102.5 307.0308,-74.5 180.9868,-74.5"/>
<text text-anchor="start" x="188.9868" y="-90.5" font-family="Helvetica,sans-Serif" font-size="10.00" fill="#000000">CO_Main_Data_DB\item</text>
<text text-anchor="middle" x="244.0088" y="-80.5" font-family="Helvetica,sans-Serif" font-size="10.00" fill="#000000">_exists</text>
</a>
</g>
</g>
<!-- Node1&#45;&gt;Node25 -->
<g id="edge24" class="edge">
<title>Node1&#45;&gt;Node25</title>
<path fill="none" stroke="#191970" d="M413.6188,-515.1875C404.8673,-440.7692 370.0218,-173.7039 314.2646,-112.5 310.7058,-108.5934 306.4848,-105.3226 301.905,-102.5841"/>
<polygon fill="#191970" stroke="#191970" points="410.1758,-515.883 414.7986,-525.4161 417.1297,-515.0809 410.1758,-515.883"/>
</g>
<!-- Node26 -->
<g id="node26" class="node">
<title>Node26</title>
<g id="a_node26"><a xlink:href="a00307.html#afacdcd578ddc750ca33d2418b54ab6b9" target="_top" xlink:title=" ">
<polygon fill="#ffffff" stroke="#000000" points="185.4326,-37.5 185.4326,-55.5 302.585,-55.5 302.585,-37.5 185.4326,-37.5"/>
<text text-anchor="middle" x="244.0088" y="-43.5" font-family="Helvetica,sans-Serif" font-size="10.00" fill="#000000">A_CO_DB\lock_record</text>
</a>
</g>
</g>
<!-- Node1&#45;&gt;Node26 -->
<g id="edge25" class="edge">
<title>Node1&#45;&gt;Node26</title>
<path fill="none" stroke="#191970" d="M414.2338,-514.9965C407.4328,-434.9116 377.8532,-132.4122 314.2646,-65.5 310.3478,-61.3784 305.6371,-58.1187 300.5327,-55.5453"/>
<polygon fill="#191970" stroke="#191970" points="410.7607,-515.4666 415.0733,-525.144 417.7368,-514.8894 410.7607,-515.4666"/>
</g>
<!-- Node27 -->
<g id="node27" class="node">
<title>Node27</title>
<g id="a_node27"><a xlink:href="a00307.html#acac7eadbd231d714f3eed150eec35838" target="_top" xlink:title=" ">
<polygon fill="#ffffff" stroke="#000000" points="183.7676,-.5 183.7676,-18.5 304.25,-18.5 304.25,-.5 183.7676,-.5"/>
<text text-anchor="middle" x="244.0088" y="-6.5" font-family="Helvetica,sans-Serif" font-size="10.00" fill="#000000">A_CO_DB\write_record</text>
</a>
</g>
</g>
<!-- Node1&#45;&gt;Node27 -->
<g id="edge26" class="edge">
<title>Node1&#45;&gt;Node27</title>
<path fill="none" stroke="#191970" d="M414.574,-515.0914C408.9104,-431.2908 382.5366,-101.4405 314.2646,-28.5 310.4655,-24.441 305.8969,-21.2161 300.9355,-18.6583"/>
<polygon fill="#191970" stroke="#191970" points="411.0919,-515.4808 415.2379,-525.2307 418.0769,-515.0234 411.0919,-515.4808"/>
</g>
<!-- Node19 -->
<g id="node19" class="node">
<title>Node19</title>
<g id="a_node19"><a xlink:href="a00307.html#a631d8d027d72c940a7cec689cbb4e568" target="_top" xlink:title=" ">
<polygon fill="#ffffff" stroke="#000000" points="13.3496,-319.5 13.3496,-347.5 124.4033,-347.5 124.4033,-319.5 13.3496,-319.5"/>
<text text-anchor="start" x="21.3496" y="-335.5" font-family="Helvetica,sans-Serif" font-size="10.00" fill="#000000">A_CO_DB\get_single</text>
<text text-anchor="middle" x="68.8765" y="-325.5" font-family="Helvetica,sans-Serif" font-size="10.00" fill="#000000">_record_by_id</text>
</a>
</g>
</g>
<!-- Node18&#45;&gt;Node19 -->
<g id="edge18" class="edge">
<title>Node18&#45;&gt;Node19</title>
<path fill="none" stroke="#191970" d="M174.1083,-333.5C157.6395,-333.5 140.3009,-333.5 124.5555,-333.5"/>
<polygon fill="#191970" stroke="#191970" points="174.228,-337.0001 184.228,-333.5 174.228,-330.0001 174.228,-337.0001"/>
</g>
<!-- Node21 -->
<g id="node21" class="node">
<title>Node21</title>
<g id="a_node21"><a xlink:href="a00327.html#ab01692597b11329b0d63096b10e1f473" target="_top" xlink:title=" ">
<polygon fill="#ffffff" stroke="#000000" points="0,-267.5 0,-295.5 137.7529,-295.5 137.7529,-267.5 0,-267.5"/>
<text text-anchor="start" x="8" y="-283.5" font-family="Helvetica,sans-Serif" font-size="10.00" fill="#000000">CO_Security_DB\get</text>
<text text-anchor="middle" x="68.8765" y="-273.5" font-family="Helvetica,sans-Serif" font-size="10.00" fill="#000000">_single_record_by_login_id</text>
</a>
</g>
</g>
<!-- Node20&#45;&gt;Node21 -->
<g id="edge20" class="edge">
<title>Node20&#45;&gt;Node21</title>
<path fill="none" stroke="#191970" d="M177.8505,-281.5C164.8432,-281.5 151.1646,-281.5 138.061,-281.5"/>
<polygon fill="#191970" stroke="#191970" points="178.1143,-285.0001 188.1143,-281.5 178.1143,-278.0001 178.1143,-285.0001"/>
</g>
</g>
</svg>
