<?xml version="1.0" encoding="UTF-8" standalone="no"?>
<!DOCTYPE svg PUBLIC "-//W3C//DTD SVG 1.1//EN"
 "http://www.w3.org/Graphics/SVG/1.1/DTD/svg11.dtd">
<!-- Generated by graphviz version 2.47.1 (20210417.1919)
 -->
<!-- Title: CO_Main_Data_DB\_build_sql_query Pages: 1 -->
<svg width="679pt" height="200pt"
 viewBox="0.00 0.00 679.00 199.50" xmlns="http://www.w3.org/2000/svg" xmlns:xlink="http://www.w3.org/1999/xlink">
<g id="graph0" class="graph" transform="scale(1 1) rotate(0) translate(4 195.5)">
<title>CO_Main_Data_DB\_build_sql_query</title>
<polygon fill="white" stroke="transparent" points="-4,4 -4,-195.5 675,-195.5 675,4 -4,4"/>
<!-- Node1 -->
<g id="node1" class="node">
<title>Node1</title>
<g id="a_node1"><a xlink:title=" ">
<polygon fill="#bfbfbf" stroke="black" points="0,-93 0,-123 132,-123 132,-93 0,-93"/>
<text text-anchor="start" x="8" y="-111" font-family="Helvetica,sans-Serif" font-size="10.00">CO_Main_Data_DB\_build</text>
<text text-anchor="middle" x="66" y="-100" font-family="Helvetica,sans-Serif" font-size="10.00">_sql_query</text>
</a>
</g>
</g>
<!-- Node2 -->
<g id="node2" class="node">
<title>Node2</title>
<g id="a_node2"><a xlink:href="a00304.html#ad2356dbed1b38898d8c17bcd8eb405ef" target="_top" xlink:title=" ">
<polygon fill="white" stroke="black" points="361,-137 361,-167 499,-167 499,-137 361,-137"/>
<text text-anchor="start" x="369" y="-155" font-family="Helvetica,sans-Serif" font-size="10.00">A_CO_DB\_create_security</text>
<text text-anchor="middle" x="430" y="-144" font-family="Helvetica,sans-Serif" font-size="10.00">_predicate</text>
</a>
</g>
</g>
<!-- Node1&#45;&gt;Node2 -->
<g id="edge1" class="edge">
<title>Node1&#45;&gt;Node2</title>
<path fill="none" stroke="midnightblue" d="M120.38,-123.01C135.65,-126.81 152.39,-130.52 168,-133 228.89,-142.68 298.56,-147.44 350.6,-149.77"/>
<polygon fill="midnightblue" stroke="midnightblue" points="350.63,-153.27 360.77,-150.2 350.92,-146.28 350.63,-153.27"/>
</g>
<!-- Node5 -->
<g id="node5" class="node">
<title>Node5</title>
<g id="a_node5"><a xlink:href="a00312.html#a352444b4bfd455cb53a57137f3c44884" target="_top" xlink:title=" ">
<polygon fill="white" stroke="black" points="168,-93 168,-123 314,-123 314,-93 168,-93"/>
<text text-anchor="start" x="176" y="-111" font-family="Helvetica,sans-Serif" font-size="10.00">CO_Main_Data_DB\_location</text>
<text text-anchor="middle" x="241" y="-100" font-family="Helvetica,sans-Serif" font-size="10.00">_predicate</text>
</a>
</g>
</g>
<!-- Node1&#45;&gt;Node5 -->
<g id="edge4" class="edge">
<title>Node1&#45;&gt;Node5</title>
<path fill="none" stroke="midnightblue" d="M132.4,-108C140.64,-108 149.14,-108 157.59,-108"/>
<polygon fill="midnightblue" stroke="midnightblue" points="157.85,-111.5 167.85,-108 157.85,-104.5 157.85,-111.5"/>
</g>
<!-- Node6 -->
<g id="node6" class="node">
<title>Node6</title>
<g id="a_node6"><a xlink:href="a00312.html#a64a118564e4da8a3b0220ee5cf088e9b" target="_top" xlink:title=" ">
<polygon fill="white" stroke="black" points="173,-42 173,-72 309,-72 309,-42 173,-42"/>
<text text-anchor="start" x="181" y="-60" font-family="Helvetica,sans-Serif" font-size="10.00">CO_Main_Data_DB\_parse</text>
<text text-anchor="middle" x="241" y="-49" font-family="Helvetica,sans-Serif" font-size="10.00">_parameters</text>
</a>
</g>
</g>
<!-- Node1&#45;&gt;Node6 -->
<g id="edge6" class="edge">
<title>Node1&#45;&gt;Node6</title>
<path fill="none" stroke="midnightblue" d="M117.97,-92.97C137.24,-87.29 159.36,-80.77 179.43,-74.86"/>
<polygon fill="midnightblue" stroke="midnightblue" points="180.49,-78.19 189.1,-72.01 178.51,-71.48 180.49,-78.19"/>
</g>
<!-- Node3 -->
<g id="node3" class="node">
<title>Node3</title>
<g id="a_node3"><a xlink:href="a00304.html#a176b2c663fa7768e95e4fbe93281adc6" target="_top" xlink:title=" ">
<polygon fill="white" stroke="black" points="547.5,-161 547.5,-191 669.5,-191 669.5,-161 547.5,-161"/>
<text text-anchor="start" x="555.5" y="-179" font-family="Helvetica,sans-Serif" font-size="10.00">A_CO_DB\_create_read</text>
<text text-anchor="middle" x="608.5" y="-168" font-family="Helvetica,sans-Serif" font-size="10.00">_security_predicate</text>
</a>
</g>
</g>
<!-- Node2&#45;&gt;Node3 -->
<g id="edge2" class="edge">
<title>Node2&#45;&gt;Node3</title>
<path fill="none" stroke="midnightblue" d="M499.24,-161.28C511.79,-162.99 524.92,-164.77 537.52,-166.48"/>
<polygon fill="midnightblue" stroke="midnightblue" points="537.11,-169.96 547.5,-167.84 538.06,-163.03 537.11,-169.96"/>
</g>
<!-- Node4 -->
<g id="node4" class="node">
<title>Node4</title>
<g id="a_node4"><a xlink:href="a00304.html#ad4bc3d416f085818935b32a814313202" target="_top" xlink:title=" ">
<polygon fill="white" stroke="black" points="546,-112 546,-142 671,-142 671,-112 546,-112"/>
<text text-anchor="start" x="554" y="-130" font-family="Helvetica,sans-Serif" font-size="10.00">A_CO_DB\_create_write</text>
<text text-anchor="middle" x="608.5" y="-119" font-family="Helvetica,sans-Serif" font-size="10.00">_security_predicate</text>
</a>
</g>
</g>
<!-- Node2&#45;&gt;Node4 -->
<g id="edge3" class="edge">
<title>Node2&#45;&gt;Node4</title>
<path fill="none" stroke="midnightblue" d="M499.24,-142.33C511.21,-140.64 523.71,-138.87 535.77,-137.16"/>
<polygon fill="midnightblue" stroke="midnightblue" points="536.38,-140.61 545.79,-135.74 535.39,-133.68 536.38,-140.61"/>
</g>
<!-- Node5&#45;&gt;Node2 -->
<g id="edge5" class="edge">
<title>Node5&#45;&gt;Node2</title>
<path fill="none" stroke="midnightblue" d="M305.83,-123.02C321.69,-126.75 338.82,-130.78 355.12,-134.62"/>
<polygon fill="midnightblue" stroke="midnightblue" points="354.6,-138.09 365.14,-136.97 356.21,-131.28 354.6,-138.09"/>
</g>
<!-- Node7 -->
<g id="node7" class="node">
<title>Node7</title>
<g id="a_node7"><a xlink:href="a00312.html#a884b5749acdbc87467741bc6610794e4" target="_top" xlink:title=" ">
<polygon fill="white" stroke="black" points="362,-88 362,-118 498,-118 498,-88 362,-88"/>
<text text-anchor="start" x="370" y="-106" font-family="Helvetica,sans-Serif" font-size="10.00">CO_Main_Data_DB\_parse</text>
<text text-anchor="middle" x="430" y="-95" font-family="Helvetica,sans-Serif" font-size="10.00">_integer_parameter</text>
</a>
</g>
</g>
<!-- Node6&#45;&gt;Node7 -->
<g id="edge7" class="edge">
<title>Node6&#45;&gt;Node7</title>
<path fill="none" stroke="midnightblue" d="M303.23,-72.06C320.76,-76.37 340.01,-81.11 358.06,-85.55"/>
<polygon fill="midnightblue" stroke="midnightblue" points="357.4,-88.99 367.95,-87.98 359.08,-82.2 357.4,-88.99"/>
</g>
<!-- Node8 -->
<g id="node8" class="node">
<title>Node8</title>
<g id="a_node8"><a xlink:href="a00312.html#a46a9af2d7f6fc1388608022c6b84662e" target="_top" xlink:title=" ">
<polygon fill="white" stroke="black" points="362,-39 362,-69 498,-69 498,-39 362,-39"/>
<text text-anchor="start" x="370" y="-57" font-family="Helvetica,sans-Serif" font-size="10.00">CO_Main_Data_DB\_parse</text>
<text text-anchor="middle" x="430" y="-46" font-family="Helvetica,sans-Serif" font-size="10.00">_string_parameter</text>
</a>
</g>
</g>
<!-- Node6&#45;&gt;Node8 -->
<g id="edge8" class="edge">
<title>Node6&#45;&gt;Node8</title>
<path fill="none" stroke="midnightblue" d="M309.25,-55.92C322.98,-55.7 337.54,-55.47 351.59,-55.24"/>
<polygon fill="midnightblue" stroke="midnightblue" points="351.78,-58.74 361.72,-55.08 351.67,-51.74 351.78,-58.74"/>
</g>
<!-- Node9 -->
<g id="node9" class="node">
<title>Node9</title>
<g id="a_node9"><a xlink:href="a00312.html#a49c326f37d274ac9f25171380c851164" target="_top" xlink:title=" ">
<polygon fill="white" stroke="black" points="350,-0.5 350,-19.5 510,-19.5 510,-0.5 350,-0.5"/>
<text text-anchor="middle" x="430" y="-7.5" font-family="Helvetica,sans-Serif" font-size="10.00">CO_Main_Data_DB\_parse_tags</text>
</a>
</g>
</g>
<!-- Node6&#45;&gt;Node9 -->
<g id="edge9" class="edge">
<title>Node6&#45;&gt;Node9</title>
<path fill="none" stroke="midnightblue" d="M299.12,-41.99C315.53,-37.73 333.46,-33.13 350,-29 359.34,-26.67 369.32,-24.22 378.94,-21.9"/>
<polygon fill="midnightblue" stroke="midnightblue" points="379.88,-25.27 388.78,-19.53 378.24,-18.47 379.88,-25.27"/>
</g>
</g>
</svg>
