<?xml version="1.0" encoding="UTF-8" standalone="no"?>
<!DOCTYPE svg PUBLIC "-//W3C//DTD SVG 1.1//EN"
 "http://www.w3.org/Graphics/SVG/1.1/DTD/svg11.dtd">
<!-- Generated by graphviz version 2.40.1 (20161225.0304)
 -->
<!-- Title: CO_Access\i_have_this_token Pages: 1 -->
<!--zoomable 118 -->
<svg id="main" version="1.1" xmlns="http://www.w3.org/2000/svg" xmlns:xlink="http://www.w3.org/1999/xlink" xml:space="preserve" onload="init(evt)">
<style type="text/css"><![CDATA[
.edge:hover path { stroke: red; }
.edge:hover polygon { stroke: red; fill: red; }
]]></style>
<script type="text/javascript"><![CDATA[
var edges = document.getElementsByTagName('g');
if (edges && edges.length) {
  for (var i=0;i<edges.length;i++) {
    if (edges[i].id.substr(0,4)=='edge') {
      edges[i].setAttribute('class','edge');
    }
  }
}
]]></script>
        <defs>
                <circle id="rim" cx="0" cy="0" r="7"/>
                <circle id="rim2" cx="0" cy="0" r="3.5"/>
                <g id="zoomPlus">
                        <use xlink:href="#rim" fill="#404040">
                                <set attributeName="fill" to="#808080" begin="zoomplus.mouseover" end="zoomplus.mouseout"/>
                        </use>
                        <path d="M-4,0h8M0,-4v8" fill="none" stroke="white" stroke-width="1.5" pointer-events="none"/>
                </g>
                <g id="zoomMin">
                        <use xlink:href="#rim" fill="#404040">
                                <set attributeName="fill" to="#808080" begin="zoomminus.mouseover" end="zoomminus.mouseout"/>
                        </use>
                        <path d="M-4,0h8" fill="none" stroke="white" stroke-width="1.5" pointer-events="none"/>
                </g>
                <g id="dirArrow">
                        <path fill="none" stroke="white" stroke-width="1.5" d="M0,-3.0v7 M-2.5,-0.5L0,-3.0L2.5,-0.5"/>
                </g>
               <g id="resetDef">
                       <use xlink:href="#rim2" fill="#404040">
                               <set attributeName="fill" to="#808080" begin="reset.mouseover" end="reset.mouseout"/>
                       </use>
               </g>
        </defs>

<script type="text/javascript">
var viewWidth = 788;
var viewHeight = 118;
var sectionId = 'dynsection-22';
</script>
<script xlink:href="svgpan.js"/>
<svg id="graph" class="graph">
<g id="viewport">
<title>CO_Access\i_have_this_token</title>
<polygon fill="#ffffff" stroke="transparent" points="-4,4 -4,-114 784.3818,-114 784.3818,4 -4,4"/>
<!-- Node129 -->
<g id="node1" class="node">
<title>Node129</title>
<polygon fill="#bfbfbf" stroke="#000000" points="0,-43.5 0,-71.5 122.1621,-71.5 122.1621,-43.5 0,-43.5"/>
<text text-anchor="start" x="8" y="-59.5" font-family="Helvetica,sans-Serif" font-size="10.00" fill="#000000">CO_Access\i_have_this</text>
<text text-anchor="middle" x="61.0811" y="-49.5" font-family="Helvetica,sans-Serif" font-size="10.00" fill="#000000">_token</text>
</g>
<!-- Node130 -->
<g id="node2" class="node">
<title>Node130</title>
<g id="a_node2"><a xlink:href="a00355.html#aa6f82dc430e7a655e35e09b64c48fa46" target="_top" xlink:title="CO_Access\\get_security_ids">
<polygon fill="#ffffff" stroke="#000000" points="158.1621,-86.5 158.1621,-104.5 301.9941,-104.5 301.9941,-86.5 158.1621,-86.5"/>
<text text-anchor="middle" x="230.0781" y="-92.5" font-family="Helvetica,sans-Serif" font-size="10.00" fill="#000000">CO_Access\get_security_ids</text>
</a>
</g>
</g>
<!-- Node129&#45;&gt;Node130 -->
<g id="edge1" class="edge">
<title>Node129&#45;&gt;Node130</title>
<path fill="none" stroke="#191970" d="M122.5709,-71.3264C141.435,-75.5681 161.9553,-80.1822 179.9635,-84.2314"/>
<polygon fill="#191970" stroke="#191970" points="179.4387,-87.7007 189.9629,-86.4799 180.9744,-80.8713 179.4387,-87.7007"/>
</g>
<!-- Node134 -->
<g id="node6" class="node">
<title>Node134</title>
<g id="a_node6"><a xlink:href="a00355.html#a9cda1533874f3fad2ab78f4e1d3a2fd3" target="_top" xlink:title="CO_Access\\god_mode">
<polygon fill="#ffffff" stroke="#000000" points="341.3315,-49.5 341.3315,-67.5 460.1636,-67.5 460.1636,-49.5 341.3315,-49.5"/>
<text text-anchor="middle" x="400.7476" y="-55.5" font-family="Helvetica,sans-Serif" font-size="10.00" fill="#000000">CO_Access\god_mode</text>
</a>
</g>
</g>
<!-- Node129&#45;&gt;Node134 -->
<g id="edge6" class="edge">
<title>Node129&#45;&gt;Node134</title>
<path fill="none" stroke="#191970" d="M122.1989,-57.6799C181.0005,-57.8531 269.798,-58.1145 331.259,-58.2954"/>
<polygon fill="#191970" stroke="#191970" points="331.2493,-61.7953 341.2596,-58.3249 331.27,-54.7953 331.2493,-61.7953"/>
</g>
<!-- Node135 -->
<g id="node7" class="node">
<title>Node135</title>
<g id="a_node7"><a xlink:href="a00355.html#a22dd3ef5f47a6f4c40a551a1d7767402" target="_top" xlink:title="CO_Access\\security\l_db_available">
<polygon fill="#ffffff" stroke="#000000" points="177.0659,-.5 177.0659,-28.5 283.0903,-28.5 283.0903,-.5 177.0659,-.5"/>
<text text-anchor="start" x="185.0659" y="-16.5" font-family="Helvetica,sans-Serif" font-size="10.00" fill="#000000">CO_Access\security</text>
<text text-anchor="middle" x="230.0781" y="-6.5" font-family="Helvetica,sans-Serif" font-size="10.00" fill="#000000">_db_available</text>
</a>
</g>
</g>
<!-- Node129&#45;&gt;Node135 -->
<g id="edge7" class="edge">
<title>Node129&#45;&gt;Node135</title>
<path fill="none" stroke="#191970" d="M116.417,-43.4202C132.52,-39.3229 150.2336,-34.8158 166.7864,-30.6041"/>
<polygon fill="#191970" stroke="#191970" points="168.0899,-33.884 176.918,-28.0262 166.3637,-27.1002 168.0899,-33.884"/>
</g>
<!-- Node131 -->
<g id="node3" class="node">
<title>Node131</title>
<g id="a_node3"><a xlink:href="a00355.html#adbc6444fbac916f3a280f4a3ce4f067a" target="_top" xlink:title="CO_Access\\get_login_id">
<polygon fill="#ffffff" stroke="#000000" points="337.9941,-86.5 337.9941,-104.5 463.501,-104.5 463.501,-86.5 337.9941,-86.5"/>
<text text-anchor="middle" x="400.7476" y="-92.5" font-family="Helvetica,sans-Serif" font-size="10.00" fill="#000000">CO_Access\get_login_id</text>
</a>
</g>
</g>
<!-- Node130&#45;&gt;Node131 -->
<g id="edge2" class="edge">
<title>Node130&#45;&gt;Node131</title>
<path fill="none" stroke="#191970" d="M302.4573,-95.5C310.854,-95.5 319.422,-95.5 327.8259,-95.5"/>
<polygon fill="#191970" stroke="#191970" points="327.9729,-99.0001 337.9728,-95.5 327.9728,-92.0001 327.9729,-99.0001"/>
</g>
<!-- Node130&#45;&gt;Node134 -->
<g id="edge5" class="edge">
<title>Node130&#45;&gt;Node134</title>
<path fill="none" stroke="#191970" d="M271.8286,-86.4488C295.1601,-81.3907 324.4336,-75.0444 349.1864,-69.6781"/>
<polygon fill="#191970" stroke="#191970" points="350.1013,-73.0612 359.1327,-67.5218 348.6182,-66.2201 350.1013,-73.0612"/>
</g>
<!-- Node132 -->
<g id="node4" class="node">
<title>Node132</title>
<g id="a_node4"><a xlink:href="a00355.html#aeab406fa4ecc249662fa1e2e073341b2" target="_top" xlink:title="CO_Access\\get_single\l_security_record_by_id">
<polygon fill="#ffffff" stroke="#000000" points="499.501,-81.5 499.501,-109.5 618.8896,-109.5 618.8896,-81.5 499.501,-81.5"/>
<text text-anchor="start" x="507.501" y="-97.5" font-family="Helvetica,sans-Serif" font-size="10.00" fill="#000000">CO_Access\get_single</text>
<text text-anchor="middle" x="559.1953" y="-87.5" font-family="Helvetica,sans-Serif" font-size="10.00" fill="#000000">_security_record_by_id</text>
</a>
</g>
</g>
<!-- Node131&#45;&gt;Node132 -->
<g id="edge3" class="edge">
<title>Node131&#45;&gt;Node132</title>
<path fill="none" stroke="#191970" d="M463.8256,-95.5C472.1698,-95.5 480.7635,-95.5 489.215,-95.5"/>
<polygon fill="#191970" stroke="#191970" points="489.4271,-99.0001 499.4271,-95.5 489.4271,-92.0001 489.4271,-99.0001"/>
</g>
<!-- Node133 -->
<g id="node5" class="node">
<title>Node133</title>
<g id="a_node5"><a xlink:href="a00355.html#a34c23aea84d5c32e600c512167c3497d" target="_top" xlink:title="CO_Access\\get_multiple\l_security_records_by_id">
<polygon fill="#ffffff" stroke="#000000" points="654.8896,-81.5 654.8896,-109.5 780.3818,-109.5 780.3818,-81.5 654.8896,-81.5"/>
<text text-anchor="start" x="662.8896" y="-97.5" font-family="Helvetica,sans-Serif" font-size="10.00" fill="#000000">CO_Access\get_multiple</text>
<text text-anchor="middle" x="717.6357" y="-87.5" font-family="Helvetica,sans-Serif" font-size="10.00" fill="#000000">_security_records_by_id</text>
</a>
</g>
</g>
<!-- Node132&#45;&gt;Node133 -->
<g id="edge4" class="edge">
<title>Node132&#45;&gt;Node133</title>
<path fill="none" stroke="#191970" d="M619.0948,-95.5C627.4719,-95.5 636.1559,-95.5 644.7403,-95.5"/>
<polygon fill="#191970" stroke="#191970" points="644.7475,-99.0001 654.7474,-95.5 644.7474,-92.0001 644.7475,-99.0001"/>
</g>
</g>
</svg>
        <g id="navigator" transform="translate(0 0)" fill="#404254">
                <rect fill="#f2f5e9" fill-opacity="0.5" stroke="#606060" stroke-width=".5" x="0" y="0" width="60" height="60"/>
                <use id="zoomplus" xlink:href="#zoomPlus" x="17" y="9" onmousedown="handleZoom(evt,'in')"/>
                <use id="zoomminus" xlink:href="#zoomMin" x="42" y="9" onmousedown="handleZoom(evt,'out')"/>
                <use id="reset" xlink:href="#resetDef" x="30" y="36" onmousedown="handleReset()"/>
                <g id="arrowUp" xlink:href="#dirArrow" transform="translate(30 24)" onmousedown="handlePan(0,-1)">
                  <use xlink:href="#rim" fill="#404040">
                        <set attributeName="fill" to="#808080" begin="arrowUp.mouseover" end="arrowUp.mouseout"/>
                  </use>
                  <path fill="none" stroke="white" stroke-width="1.5" d="M0,-3.0v7 M-2.5,-0.5L0,-3.0L2.5,-0.5"/>
                </g>
                <g id="arrowRight" xlink:href="#dirArrow" transform="rotate(90) translate(36 -43)" onmousedown="handlePan(1,0)">
                  <use xlink:href="#rim" fill="#404040">
                        <set attributeName="fill" to="#808080" begin="arrowRight.mouseover" end="arrowRight.mouseout"/>
                  </use>
                  <path fill="none" stroke="white" stroke-width="1.5" d="M0,-3.0v7 M-2.5,-0.5L0,-3.0L2.5,-0.5"/>
                </g>
                <g id="arrowDown" xlink:href="#dirArrow" transform="rotate(180) translate(-30 -48)" onmousedown="handlePan(0,1)">
                  <use xlink:href="#rim" fill="#404040">
                        <set attributeName="fill" to="#808080" begin="arrowDown.mouseover" end="arrowDown.mouseout"/>
                  </use>
                  <path fill="none" stroke="white" stroke-width="1.5" d="M0,-3.0v7 M-2.5,-0.5L0,-3.0L2.5,-0.5"/>
                </g>
                <g id="arrowLeft" xlink:href="#dirArrow" transform="rotate(270) translate(-36 17)" onmousedown="handlePan(-1,0)">
                  <use xlink:href="#rim" fill="#404040">
                        <set attributeName="fill" to="#808080" begin="arrowLeft.mouseover" end="arrowLeft.mouseout"/>
                  </use>
                  <path fill="none" stroke="white" stroke-width="1.5" d="M0,-3.0v7 M-2.5,-0.5L0,-3.0L2.5,-0.5"/>
                </g>
        </g>
        <svg viewBox="0 0 15 15" width="100%" height="30px" preserveAspectRatio="xMaxYMin meet">
         <g id="arrow_out" transform="scale(0.3 0.3)">
          <a xlink:href="a00355_ae548938d26a8e1c2f5378e94d2921419_cgraph_org.svg" target="_base">
           <rect id="button" ry="5" rx="5" y="6" x="6" height="38" width="38"
                fill="#f2f5e9" fill-opacity="0.5" stroke="#606060" stroke-width="1.0"/>
           <path id="arrow"
             d="M 11.500037,31.436501 C 11.940474,20.09759 22.043105,11.32322 32.158766,21.979434 L 37.068811,17.246167 C 37.068811,17.246167 37.088388,32 37.088388,32 L 22.160133,31.978069 C 22.160133,31.978069 26.997745,27.140456 26.997745,27.140456 C 18.528582,18.264221 13.291696,25.230495 11.500037,31.436501 z"
             style="fill:#404040;"/>
          </a>
         </g>
        </svg>
</svg>
