<?xml version="1.0" encoding="UTF-8" standalone="no"?>
<!DOCTYPE svg PUBLIC "-//W3C//DTD SVG 1.1//EN"
 "http://www.w3.org/Graphics/SVG/1.1/DTD/svg11.dtd">
<!-- Generated by graphviz version 2.40.1 (20161225.0304)
 -->
<!-- Title: CO_Access\get_personal_security_ids Pages: 1 -->
<svg width="322pt" height="84pt"
 viewBox="0.00 0.00 322.23 84.00" xmlns="http://www.w3.org/2000/svg" xmlns:xlink="http://www.w3.org/1999/xlink">
<g id="graph0" class="graph" transform="scale(1 1) rotate(0) translate(4 80)">
<title>CO_Access\get_personal_security_ids</title>
<polygon fill="#ffffff" stroke="transparent" points="-4,4 -4,-80 318.2305,-80 318.2305,4 -4,4"/>
<!-- Node1 -->
<g id="node1" class="node">
<title>Node1</title>
<g id="a_node1"><a xlink:title=" ">
<polygon fill="#bfbfbf" stroke="#000000" points="184.8369,-23.5 184.8369,-51.5 314.2305,-51.5 314.2305,-23.5 184.8369,-23.5"/>
<text text-anchor="start" x="192.8369" y="-39.5" font-family="Helvetica,sans-Serif" font-size="10.00" fill="#000000">CO_Access\get_personal</text>
<text text-anchor="middle" x="249.5337" y="-29.5" font-family="Helvetica,sans-Serif" font-size="10.00" fill="#000000">_security_ids</text>
</a>
</g>
</g>
<!-- Node2 -->
<g id="node2" class="node">
<title>Node2</title>
<g id="a_node2"><a xlink:href="a00352.html#a82bba10b220d78a598bff74a99ce3bbb" target="_top" xlink:title=" ">
<polygon fill="#ffffff" stroke="#000000" points="6.9385,-47.5 6.9385,-75.5 141.8984,-75.5 141.8984,-47.5 6.9385,-47.5"/>
<text text-anchor="start" x="14.9385" y="-63.5" font-family="Helvetica,sans-Serif" font-size="10.00" fill="#000000">CO_Access\add_personal</text>
<text text-anchor="middle" x="74.4185" y="-53.5" font-family="Helvetica,sans-Serif" font-size="10.00" fill="#000000">_token_from_current_login</text>
</a>
</g>
</g>
<!-- Node1&#45;&gt;Node2 -->
<g id="edge1" class="edge">
<title>Node1&#45;&gt;Node2</title>
<path fill="none" stroke="#191970" d="M174.9118,-47.7271C164.0121,-49.221 152.8391,-50.7523 142.0883,-52.2257"/>
<polygon fill="#191970" stroke="#191970" points="175.3927,-51.194 184.8248,-46.3685 174.4421,-44.2589 175.3927,-51.194"/>
</g>
<!-- Node3 -->
<g id="node3" class="node">
<title>Node3</title>
<g id="a_node3"><a xlink:href="a00352.html#a7f9cb2fc56cf3fcf37d507c4e9d83264" target="_top" xlink:title=" ">
<polygon fill="#ffffff" stroke="#000000" points="0,-.5 0,-28.5 148.8369,-28.5 148.8369,-.5 0,-.5"/>
<text text-anchor="start" x="8" y="-16.5" font-family="Helvetica,sans-Serif" font-size="10.00" fill="#000000">CO_Access\remove_personal</text>
<text text-anchor="middle" x="74.4185" y="-6.5" font-family="Helvetica,sans-Serif" font-size="10.00" fill="#000000">_token_from_this_login</text>
</a>
</g>
</g>
<!-- Node1&#45;&gt;Node3 -->
<g id="edge2" class="edge">
<title>Node1&#45;&gt;Node3</title>
<path fill="none" stroke="#191970" d="M174.8418,-27.6898C166.2543,-26.5619 157.498,-25.4118 148.9132,-24.2843"/>
<polygon fill="#191970" stroke="#191970" points="174.4541,-31.1689 184.8248,-29.001 175.3657,-24.2285 174.4541,-31.1689"/>
</g>
</g>
</svg>
