<?xml version="1.0" encoding="UTF-8" standalone="no"?>
<!DOCTYPE svg PUBLIC "-//W3C//DTD SVG 1.1//EN"
 "http://www.w3.org/Graphics/SVG/1.1/DTD/svg11.dtd">
<!-- Generated by graphviz version 2.40.1 (20161225.0304)
 -->
<!-- Title: A_CO_DB\lock_record Pages: 1 -->
<svg width="473pt" height="121pt"
 viewBox="0.00 0.00 472.61 121.00" xmlns="http://www.w3.org/2000/svg" xmlns:xlink="http://www.w3.org/1999/xlink">
<g id="graph0" class="graph" transform="scale(1 1) rotate(0) translate(4 117)">
<title>A_CO_DB\lock_record</title>
<polygon fill="#ffffff" stroke="transparent" points="-4,4 -4,-117 468.6094,-117 468.6094,4 -4,4"/>
<!-- Node1 -->
<g id="node1" class="node">
<title>Node1</title>
<g id="a_node1"><a xlink:title=" ">
<polygon fill="#bfbfbf" stroke="#000000" points="0,-21.5 0,-39.5 117.1523,-39.5 117.1523,-21.5 0,-21.5"/>
<text text-anchor="middle" x="58.5762" y="-27.5" font-family="Helvetica,sans-Serif" font-size="10.00" fill="#000000">A_CO_DB\lock_record</text>
</a>
</g>
</g>
<!-- Node2 -->
<g id="node2" class="node">
<title>Node2</title>
<g id="a_node2"><a xlink:href="a00307.html#ad2356dbed1b38898d8c17bcd8eb405ef" target="_top" xlink:title=" ">
<polygon fill="#ffffff" stroke="#000000" points="153.1523,-37.5 153.1523,-65.5 291.9844,-65.5 291.9844,-37.5 153.1523,-37.5"/>
<text text-anchor="start" x="161.1523" y="-53.5" font-family="Helvetica,sans-Serif" font-size="10.00" fill="#000000">A_CO_DB\_create_security</text>
<text text-anchor="middle" x="222.5684" y="-43.5" font-family="Helvetica,sans-Serif" font-size="10.00" fill="#000000">_predicate</text>
</a>
</g>
</g>
<!-- Node1&#45;&gt;Node2 -->
<g id="edge1" class="edge">
<title>Node1&#45;&gt;Node2</title>
<path fill="none" stroke="#191970" d="M117.3179,-38.0222C125.6411,-39.088 134.3129,-40.1985 142.9494,-41.3044"/>
<polygon fill="#191970" stroke="#191970" points="142.6852,-44.7991 153.0488,-42.5977 143.5744,-37.8558 142.6852,-44.7991"/>
</g>
<!-- Node5 -->
<g id="node5" class="node">
<title>Node5</title>
<g id="a_node5"><a xlink:href="a00307.html#a2396849660aa4ff018ab7509a4badeb5" target="_top" xlink:title=" ">
<polygon fill="#ffffff" stroke="#000000" points="157.0366,-.5 157.0366,-18.5 288.1001,-18.5 288.1001,-.5 157.0366,-.5"/>
<text text-anchor="middle" x="222.5684" y="-6.5" font-family="Helvetica,sans-Serif" font-size="10.00" fill="#000000">A_CO_DB\execute_query</text>
</a>
</g>
</g>
<!-- Node1&#45;&gt;Node5 -->
<g id="edge4" class="edge">
<title>Node1&#45;&gt;Node5</title>
<path fill="none" stroke="#191970" d="M117.3179,-22.9778C126.968,-21.7421 137.0866,-20.4464 147.0757,-19.1672"/>
<polygon fill="#191970" stroke="#191970" points="147.525,-22.6383 156.9994,-17.8964 146.6358,-15.695 147.525,-22.6383"/>
</g>
<!-- Node3 -->
<g id="node3" class="node">
<title>Node3</title>
<g id="a_node3"><a xlink:href="a00307.html#a176b2c663fa7768e95e4fbe93281adc6" target="_top" xlink:title=" ">
<polygon fill="#ffffff" stroke="#000000" points="334.1001,-84.5 334.1001,-112.5 458.4937,-112.5 458.4937,-84.5 334.1001,-84.5"/>
<text text-anchor="start" x="342.1001" y="-100.5" font-family="Helvetica,sans-Serif" font-size="10.00" fill="#000000">A_CO_DB\_create_read</text>
<text text-anchor="middle" x="396.2969" y="-90.5" font-family="Helvetica,sans-Serif" font-size="10.00" fill="#000000">_security_predicate</text>
</a>
</g>
</g>
<!-- Node2&#45;&gt;Node3 -->
<g id="edge2" class="edge">
<title>Node2&#45;&gt;Node3</title>
<path fill="none" stroke="#191970" d="M274.6926,-65.6015C293.5885,-70.7136 315.1102,-76.536 334.7421,-81.8472"/>
<polygon fill="#191970" stroke="#191970" points="333.9419,-85.2564 344.5089,-84.4894 335.77,-78.4993 333.9419,-85.2564"/>
</g>
<!-- Node4 -->
<g id="node4" class="node">
<title>Node4</title>
<g id="a_node4"><a xlink:href="a00307.html#ad4bc3d416f085818935b32a814313202" target="_top" xlink:title=" ">
<polygon fill="#ffffff" stroke="#000000" points="333.5508,-37.5 333.5508,-65.5 459.043,-65.5 459.043,-37.5 333.5508,-37.5"/>
<text text-anchor="start" x="341.5508" y="-53.5" font-family="Helvetica,sans-Serif" font-size="10.00" fill="#000000">A_CO_DB\_create_write</text>
<text text-anchor="middle" x="396.2969" y="-43.5" font-family="Helvetica,sans-Serif" font-size="10.00" fill="#000000">_security_predicate</text>
</a>
</g>
</g>
<!-- Node2&#45;&gt;Node4 -->
<g id="edge3" class="edge">
<title>Node2&#45;&gt;Node4</title>
<path fill="none" stroke="#191970" d="M292.2294,-51.5C302.4245,-51.5 312.9491,-51.5 323.2104,-51.5"/>
<polygon fill="#191970" stroke="#191970" points="323.362,-55.0001 333.362,-51.5 323.3619,-48.0001 323.362,-55.0001"/>
</g>
<!-- Node6 -->
<g id="node6" class="node">
<title>Node6</title>
<g id="a_node6"><a xlink:href="a00307.html#ae41efbdfe739934823b5f4c785b22611" target="_top" xlink:title=" ">
<polygon fill="#ffffff" stroke="#000000" points="327.9844,-.5 327.9844,-18.5 464.6094,-18.5 464.6094,-.5 327.9844,-.5"/>
<text text-anchor="middle" x="396.2969" y="-6.5" font-family="Helvetica,sans-Serif" font-size="10.00" fill="#000000">A_CO_DB\_execute_query</text>
</a>
</g>
</g>
<!-- Node5&#45;&gt;Node6 -->
<g id="edge5" class="edge">
<title>Node5&#45;&gt;Node6</title>
<path fill="none" stroke="#191970" d="M288.2477,-9.5C297.8752,-9.5 307.8725,-9.5 317.7261,-9.5"/>
<polygon fill="#191970" stroke="#191970" points="317.9212,-13.0001 327.9212,-9.5 317.9211,-6.0001 317.9212,-13.0001"/>
</g>
</g>
</svg>
