<?xml version="1.0" encoding="UTF-8" standalone="no"?>
<!DOCTYPE svg PUBLIC "-//W3C//DTD SVG 1.1//EN"
 "http://www.w3.org/Graphics/SVG/1.1/DTD/svg11.dtd">
<!-- Generated by graphviz version 2.40.1 (20161225.0304)
 -->
<!-- Title: CO_Main_Data_DB\_location_predicate Pages: 1 -->
<svg width="501pt" height="37pt"
 viewBox="0.00 0.00 500.97 37.00" xmlns="http://www.w3.org/2000/svg" xmlns:xlink="http://www.w3.org/1999/xlink">
<g id="graph0" class="graph" transform="scale(1 1) rotate(0) translate(4 33)">
<title>CO_Main_Data_DB\_location_predicate</title>
<polygon fill="#ffffff" stroke="transparent" points="-4,4 -4,-33 496.9736,-33 496.9736,4 -4,4"/>
<!-- Node17 -->
<g id="node1" class="node">
<title>Node17</title>
<polygon fill="#bfbfbf" stroke="#000000" points="0,-.5 0,-28.5 147.1816,-28.5 147.1816,-.5 0,-.5"/>
<text text-anchor="start" x="8" y="-16.5" font-family="Helvetica,sans-Serif" font-size="10.00" fill="#000000">CO_Main_Data_DB\_location</text>
<text text-anchor="middle" x="73.5908" y="-6.5" font-family="Helvetica,sans-Serif" font-size="10.00" fill="#000000">_predicate</text>
</g>
<!-- Node18 -->
<g id="node2" class="node">
<title>Node18</title>
<g id="a_node2"><a xlink:href="a00315.html#aa97e6ad521aed4c2cbe03e83017af0b7" target="_top" xlink:title="CO_Main_Data_DB\\_build\l_sql_query">
<polygon fill="#ffffff" stroke="#000000" points="183.1816,-.5 183.1816,-28.5 317.0234,-28.5 317.0234,-.5 183.1816,-.5"/>
<text text-anchor="start" x="191.1816" y="-16.5" font-family="Helvetica,sans-Serif" font-size="10.00" fill="#000000">CO_Main_Data_DB\_build</text>
<text text-anchor="middle" x="250.1025" y="-6.5" font-family="Helvetica,sans-Serif" font-size="10.00" fill="#000000">_sql_query</text>
</a>
</g>
</g>
<!-- Node17&#45;&gt;Node18 -->
<g id="edge1" class="edge">
<title>Node17&#45;&gt;Node18</title>
<path fill="none" stroke="#191970" d="M157.4531,-14.5C166.034,-14.5 174.6704,-14.5 183.0367,-14.5"/>
<polygon fill="#191970" stroke="#191970" points="157.425,-11.0001 147.4249,-14.5 157.4249,-18.0001 157.425,-11.0001"/>
</g>
<!-- Node19 -->
<g id="node3" class="node">
<title>Node19</title>
<g id="a_node3"><a xlink:href="a00315.html#a303048d406814c066d27fda70de4ff02" target="_top" xlink:title="CO_Main_Data_DB\\generic\l_search">
<polygon fill="#ffffff" stroke="#000000" points="353.0234,-.5 353.0234,-28.5 492.9736,-28.5 492.9736,-.5 353.0234,-.5"/>
<text text-anchor="start" x="361.0234" y="-16.5" font-family="Helvetica,sans-Serif" font-size="10.00" fill="#000000">CO_Main_Data_DB\generic</text>
<text text-anchor="middle" x="422.9985" y="-6.5" font-family="Helvetica,sans-Serif" font-size="10.00" fill="#000000">_search</text>
</a>
</g>
</g>
<!-- Node18&#45;&gt;Node19 -->
<g id="edge2" class="edge">
<title>Node18&#45;&gt;Node19</title>
<path fill="none" stroke="#191970" d="M327.6578,-14.5C336.0959,-14.5 344.6482,-14.5 352.9886,-14.5"/>
<polygon fill="#191970" stroke="#191970" points="327.4438,-11.0001 317.4437,-14.5 327.4437,-18.0001 327.4438,-11.0001"/>
</g>
</g>
</svg>
