<?xml version="1.0" encoding="UTF-8" standalone="no"?>
<!DOCTYPE svg PUBLIC "-//W3C//DTD SVG 1.1//EN"
 "http://www.w3.org/Graphics/SVG/1.1/DTD/svg11.dtd">
<!-- Generated by graphviz version 2.47.1 (20210417.1919)
 -->
<!-- Title: A_CO_DB_Table_Base\user_can_write Pages: 1 -->
<!--zoomable 1016 -->
<svg id="main" version="1.1" xmlns="http://www.w3.org/2000/svg" xmlns:xlink="http://www.w3.org/1999/xlink" xml:space="preserve" onload="init(evt)">
<style type="text/css"><![CDATA[
.edge:hover path { stroke: red; }
.edge:hover polygon { stroke: red; fill: red; }
]]></style>
<script type="text/javascript"><![CDATA[
var edges = document.getElementsByTagName('g');
if (edges && edges.length) {
  for (var i=0;i<edges.length;i++) {
    if (edges[i].id.substr(0,4)=='edge') {
      edges[i].setAttribute('class','edge');
    }
  }
}
]]></script>
        <defs>
                <circle id="rim" cx="0" cy="0" r="7"/>
                <circle id="rim2" cx="0" cy="0" r="3.5"/>
                <g id="zoomPlus">
                        <use xlink:href="#rim" fill="#404040">
                                <set attributeName="fill" to="#808080" begin="zoomplus.mouseover" end="zoomplus.mouseout"/>
                        </use>
                        <path d="M-4,0h8M0,-4v8" fill="none" stroke="white" stroke-width="1.5" pointer-events="none"/>
                </g>
                <g id="zoomMin">
                        <use xlink:href="#rim" fill="#404040">
                                <set attributeName="fill" to="#808080" begin="zoomminus.mouseover" end="zoomminus.mouseout"/>
                        </use>
                        <path d="M-4,0h8" fill="none" stroke="white" stroke-width="1.5" pointer-events="none"/>
                </g>
                <g id="dirArrow">
                        <path fill="none" stroke="white" stroke-width="1.5" d="M0,-3.0v7 M-2.5,-0.5L0,-3.0L2.5,-0.5"/>
                </g>
               <g id="resetDef">
                       <use xlink:href="#rim2" fill="#404040">
                               <set attributeName="fill" to="#808080" begin="reset.mouseover" end="reset.mouseout"/>
                       </use>
               </g>
        </defs>

<script type="text/javascript">
var viewWidth = 658;
var viewHeight = 1016;
var sectionId = 'dynsection-27';
</script>
<script xlink:href="svgpan.js"/>
<svg id="graph" class="graph">
<g id="viewport">
<title>A_CO_DB_Table_Base\user_can_write</title>
<polygon fill="white" stroke="transparent" points="-4,4 -4,-1012 654,-1012 654,4 -4,4"/>
<!-- Node1 -->
<g id="node1" class="node">
<title>Node1</title>
<g id="a_node1"><a xlink:title=" ">
<polygon fill="#bfbfbf" stroke="black" points="531,-688.5 531,-718.5 650,-718.5 650,-688.5 531,-688.5"/>
<text text-anchor="start" x="539" y="-706.5" font-family="Helvetica,sans-Serif" font-size="10.00">A_CO_DB_Table_Base</text>
<text text-anchor="middle" x="590.5" y="-695.5" font-family="Helvetica,sans-Serif" font-size="10.00">\user_can_write</text>
</a>
</g>
</g>
<!-- Node2 -->
<g id="node2" class="node">
<title>Node2</title>
<g id="a_node2"><a xlink:href="a00276.html#a3ae822685b2b8ca8af56d8ea4c4a2a6c" target="_top" xlink:title=" ">
<polygon fill="white" stroke="black" points="382,-895.5 382,-925.5 489,-925.5 489,-895.5 382,-895.5"/>
<text text-anchor="start" x="390" y="-913.5" font-family="Helvetica,sans-Serif" font-size="10.00">CO_User_Collection</text>
<text text-anchor="middle" x="435.5" y="-902.5" font-family="Helvetica,sans-Serif" font-size="10.00">\delete_from_db</text>
</a>
</g>
</g>
<!-- Node1&#45;&gt;Node2 -->
<g id="edge1" class="edge">
<title>Node1&#45;&gt;Node2</title>
<path fill="none" stroke="midnightblue" d="M582.65,-728.7C570.89,-767.56 543.32,-842.23 495,-886.5 491.28,-889.91 487,-892.87 482.5,-895.43"/>
<polygon fill="midnightblue" stroke="midnightblue" points="586.11,-729.33 585.55,-718.74 579.39,-727.37 586.11,-729.33"/>
</g>
<!-- Node3 -->
<g id="node3" class="node">
<title>Node3</title>
<g id="a_node3"><a xlink:href="a00308.html#a6fa77e9fd744981d4a9d7cac37ddf1bf" target="_top" xlink:title=" ">
<polygon fill="white" stroke="black" points="376,-846.5 376,-876.5 495,-876.5 495,-846.5 376,-846.5"/>
<text text-anchor="start" x="384" y="-864.5" font-family="Helvetica,sans-Serif" font-size="10.00">A_CO_DB_Table_Base</text>
<text text-anchor="middle" x="435.5" y="-853.5" font-family="Helvetica,sans-Serif" font-size="10.00">\delete_from_db</text>
</a>
</g>
</g>
<!-- Node1&#45;&gt;Node3 -->
<g id="edge2" class="edge">
<title>Node1&#45;&gt;Node3</title>
<path fill="none" stroke="midnightblue" d="M576.47,-727.37C560.33,-755.22 530.55,-801.29 495,-831.5 488.3,-837.19 480.34,-842.17 472.48,-846.36"/>
<polygon fill="midnightblue" stroke="midnightblue" points="579.52,-729.1 581.42,-718.68 573.43,-725.64 579.52,-729.1"/>
</g>
<!-- Node4 -->
<g id="node4" class="node">
<title>Node4</title>
<g id="a_node4"><a xlink:href="a00308.html#a1ed093545fa1cbc3f63a672cdf424734" target="_top" xlink:title=" ">
<polygon fill="white" stroke="black" points="203,-977.5 203,-1007.5 322,-1007.5 322,-977.5 203,-977.5"/>
<text text-anchor="start" x="211" y="-995.5" font-family="Helvetica,sans-Serif" font-size="10.00">A_CO_DB_Table_Base</text>
<text text-anchor="middle" x="262.5" y="-984.5" font-family="Helvetica,sans-Serif" font-size="10.00">\set_lang</text>
</a>
</g>
</g>
<!-- Node1&#45;&gt;Node4 -->
<g id="edge3" class="edge">
<title>Node1&#45;&gt;Node4</title>
<path fill="none" stroke="midnightblue" d="M570.95,-726.54C553.32,-747.12 525.09,-776.82 495,-795.5 447.35,-825.08 414.22,-796.46 376,-837.5 334.85,-881.69 381.92,-925.05 340,-968.5 334.97,-973.71 328.83,-977.79 322.24,-980.99"/>
<polygon fill="midnightblue" stroke="midnightblue" points="573.86,-728.52 577.61,-718.61 568.5,-724.02 573.86,-728.52"/>
</g>
<!-- Node5 -->
<g id="node5" class="node">
<title>Node5</title>
<g id="a_node5"><a xlink:href="a00316.html#a6349c04b5a027e23f0b8bd8810579844" target="_top" xlink:title=" ">
<polygon fill="white" stroke="black" points="197,-928.5 197,-958.5 328,-958.5 328,-928.5 197,-928.5"/>
<text text-anchor="start" x="205" y="-946.5" font-family="Helvetica,sans-Serif" font-size="10.00">CO_Main_DB_Record\set</text>
<text text-anchor="middle" x="262.5" y="-935.5" font-family="Helvetica,sans-Serif" font-size="10.00">_owner_id</text>
</a>
</g>
</g>
<!-- Node1&#45;&gt;Node5 -->
<g id="edge4" class="edge">
<title>Node1&#45;&gt;Node5</title>
<path fill="none" stroke="midnightblue" d="M558.87,-724.07C540.78,-735.69 517.15,-749.95 495,-760.5 444.23,-784.69 414.84,-762.83 376,-803.5 338.71,-842.53 378.11,-881.27 340,-919.5 336.46,-923.05 332.41,-926.07 328.05,-928.65"/>
<polygon fill="midnightblue" stroke="midnightblue" points="560.8,-727 567.28,-718.61 556.99,-721.13 560.8,-727"/>
</g>
<!-- Node6 -->
<g id="node6" class="node">
<title>Node6</title>
<g id="a_node6"><a xlink:href="a00316.html#a7860101403a734329dd8c1079f5d367e" target="_top" xlink:title=" ">
<polygon fill="white" stroke="black" points="197,-879.5 197,-909.5 328,-909.5 328,-879.5 197,-879.5"/>
<text text-anchor="start" x="205" y="-897.5" font-family="Helvetica,sans-Serif" font-size="10.00">CO_Main_DB_Record\set</text>
<text text-anchor="middle" x="262.5" y="-886.5" font-family="Helvetica,sans-Serif" font-size="10.00">_payload</text>
</a>
</g>
</g>
<!-- Node1&#45;&gt;Node6 -->
<g id="edge5" class="edge">
<title>Node1&#45;&gt;Node6</title>
<path fill="none" stroke="midnightblue" d="M520.85,-720.08C462.61,-734.68 386.81,-755.19 376,-765.5 340.29,-799.54 375.34,-836.08 340,-870.5 336.51,-873.9 332.54,-876.82 328.3,-879.32"/>
<polygon fill="midnightblue" stroke="midnightblue" points="521.91,-723.42 530.76,-717.6 520.21,-716.63 521.91,-723.42"/>
</g>
<!-- Node7 -->
<g id="node7" class="node">
<title>Node7</title>
<g id="a_node7"><a xlink:href="a00308.html#a3d4d1ab7910b9ccfdf8654d767e01d9b" target="_top" xlink:title=" ">
<polygon fill="white" stroke="black" points="203,-830.5 203,-860.5 322,-860.5 322,-830.5 203,-830.5"/>
<text text-anchor="start" x="211" y="-848.5" font-family="Helvetica,sans-Serif" font-size="10.00">A_CO_DB_Table_Base</text>
<text text-anchor="middle" x="262.5" y="-837.5" font-family="Helvetica,sans-Serif" font-size="10.00">\set_read_security_id</text>
</a>
</g>
</g>
<!-- Node1&#45;&gt;Node7 -->
<g id="edge6" class="edge">
<title>Node1&#45;&gt;Node7</title>
<path fill="none" stroke="midnightblue" d="M520.78,-694C475.22,-691.52 416.59,-696.09 376,-727.5 340.62,-754.88 372.6,-790.86 340,-821.5 334.83,-826.36 328.68,-830.24 322.15,-833.33"/>
<polygon fill="midnightblue" stroke="midnightblue" points="520.67,-697.5 530.88,-694.67 521.13,-690.51 520.67,-697.5"/>
</g>
<!-- Node8 -->
<g id="node8" class="node">
<title>Node8</title>
<g id="a_node8"><a xlink:href="a00316.html#a1f9581fbd4aa2611da866405d446295c" target="_top" xlink:title=" ">
<polygon fill="white" stroke="black" points="188,-431 188,-450 337,-450 337,-431 188,-431"/>
<text text-anchor="middle" x="262.5" y="-438" font-family="Helvetica,sans-Serif" font-size="10.00">CO_Main_DB_Record\set_tag</text>
</a>
</g>
</g>
<!-- Node1&#45;&gt;Node8 -->
<g id="edge7" class="edge">
<title>Node1&#45;&gt;Node8</title>
<path fill="none" stroke="midnightblue" d="M561.94,-682.28C511.25,-642.93 405.72,-559.41 376,-523.5 355.19,-498.36 365.96,-479.27 340,-459.5 334.88,-455.6 329.07,-452.5 322.98,-450.02"/>
<polygon fill="midnightblue" stroke="midnightblue" points="559.82,-685.07 569.87,-688.42 564.11,-679.53 559.82,-685.07"/>
</g>
<!-- Node9 -->
<g id="node9" class="node">
<title>Node9</title>
<g id="a_node9"><a xlink:href="a00276.html#a9410d46a4cd780a042c738912e11a27d" target="_top" xlink:title=" ">
<polygon fill="white" stroke="black" points="382,-172.5 382,-202.5 489,-202.5 489,-172.5 382,-172.5"/>
<text text-anchor="start" x="390" y="-190.5" font-family="Helvetica,sans-Serif" font-size="10.00">CO_User_Collection</text>
<text text-anchor="middle" x="435.5" y="-179.5" font-family="Helvetica,sans-Serif" font-size="10.00">\set_tag</text>
</a>
</g>
</g>
<!-- Node1&#45;&gt;Node9 -->
<g id="edge8" class="edge">
<title>Node1&#45;&gt;Node9</title>
<path fill="none" stroke="midnightblue" d="M582.88,-678.64C567.91,-622.81 530.08,-483.27 495,-367.5 476.42,-306.18 452.2,-233.84 441.72,-202.84"/>
<polygon fill="midnightblue" stroke="midnightblue" points="579.51,-679.61 585.48,-688.37 586.27,-677.8 579.51,-679.61"/>
</g>
<!-- Node17 -->
<g id="node17" class="node">
<title>Node17</title>
<g id="a_node17"><a xlink:href="a00316.html#a84074211704eba98c263bd7122cd13f7" target="_top" xlink:title=" ">
<polygon fill="white" stroke="black" points="185,-393 185,-412 340,-412 340,-393 185,-393"/>
<text text-anchor="middle" x="262.5" y="-400" font-family="Helvetica,sans-Serif" font-size="10.00">CO_Main_DB_Record\set_tags</text>
</a>
</g>
</g>
<!-- Node1&#45;&gt;Node17 -->
<g id="edge16" class="edge">
<title>Node1&#45;&gt;Node17</title>
<path fill="none" stroke="midnightblue" d="M581.17,-678.95C567.66,-641.92 538.11,-571.08 495,-523.5 439.63,-462.38 415.54,-454.58 340,-421.5 331.35,-417.71 321.81,-414.59 312.48,-412.04"/>
<polygon fill="midnightblue" stroke="midnightblue" points="577.9,-680.2 584.55,-688.44 584.49,-677.85 577.9,-680.2"/>
</g>
<!-- Node19 -->
<g id="node19" class="node">
<title>Node19</title>
<g id="a_node19"><a xlink:href="a00308.html#a55eae92ef3e2f47689019e174f29daf1" target="_top" xlink:title=" ">
<polygon fill="white" stroke="black" points="203,-343.5 203,-373.5 322,-373.5 322,-343.5 203,-343.5"/>
<text text-anchor="start" x="211" y="-361.5" font-family="Helvetica,sans-Serif" font-size="10.00">A_CO_DB_Table_Base</text>
<text text-anchor="middle" x="262.5" y="-350.5" font-family="Helvetica,sans-Serif" font-size="10.00">\set_write_security_id</text>
</a>
</g>
</g>
<!-- Node1&#45;&gt;Node19 -->
<g id="edge18" class="edge">
<title>Node1&#45;&gt;Node19</title>
<path fill="none" stroke="midnightblue" d="M587.91,-677.97C583.22,-624.89 564.98,-501.86 495,-433.5 448.38,-387.96 373.9,-370.07 322.05,-363.04"/>
<polygon fill="midnightblue" stroke="midnightblue" points="584.44,-678.5 588.72,-688.19 591.42,-677.95 584.44,-678.5"/>
</g>
<!-- Node20 -->
<g id="node20" class="node">
<title>Node20</title>
<g id="a_node20"><a xlink:href="a00308.html#a7487697640051c6661b8cdca6f109959" target="_top" xlink:title=" ">
<polygon fill="white" stroke="black" points="376,-644.5 376,-674.5 495,-674.5 495,-644.5 376,-644.5"/>
<text text-anchor="start" x="384" y="-662.5" font-family="Helvetica,sans-Serif" font-size="10.00">A_CO_DB_Table_Base</text>
<text text-anchor="middle" x="435.5" y="-651.5" font-family="Helvetica,sans-Serif" font-size="10.00">\update_db</text>
</a>
</g>
</g>
<!-- Node1&#45;&gt;Node20 -->
<g id="edge19" class="edge">
<title>Node1&#45;&gt;Node20</title>
<path fill="none" stroke="midnightblue" d="M527.56,-685.69C514.69,-681.98 501.24,-678.12 488.75,-674.53"/>
<polygon fill="midnightblue" stroke="midnightblue" points="526.7,-689.08 537.27,-688.48 528.63,-682.35 526.7,-689.08"/>
</g>
<!-- Node10 -->
<g id="node10" class="node">
<title>Node10</title>
<g id="a_node10"><a xlink:href="a00276.html#ad1254d0e49f000883944fba0b4ce670d" target="_top" xlink:title=" ">
<polygon fill="white" stroke="black" points="209,-147.5 209,-177.5 316,-177.5 316,-147.5 209,-147.5"/>
<text text-anchor="start" x="217" y="-165.5" font-family="Helvetica,sans-Serif" font-size="10.00">CO_User_Collection</text>
<text text-anchor="middle" x="262.5" y="-154.5" font-family="Helvetica,sans-Serif" font-size="10.00">\set_given_name</text>
</a>
</g>
</g>
<!-- Node9&#45;&gt;Node10 -->
<g id="edge9" class="edge">
<title>Node9&#45;&gt;Node10</title>
<path fill="none" stroke="midnightblue" d="M371.8,-178.33C353.48,-175.65 333.65,-172.76 316.03,-170.18"/>
<polygon fill="midnightblue" stroke="midnightblue" points="371.4,-181.81 381.8,-179.8 372.41,-174.89 371.4,-181.81"/>
</g>
<!-- Node11 -->
<g id="node11" class="node">
<title>Node11</title>
<g id="a_node11"><a xlink:href="a00276.html#a2ba17ba0df27d93adda9eb20d1249338" target="_top" xlink:title=" ">
<polygon fill="white" stroke="black" points="209,-98.5 209,-128.5 316,-128.5 316,-98.5 209,-98.5"/>
<text text-anchor="start" x="217" y="-116.5" font-family="Helvetica,sans-Serif" font-size="10.00">CO_User_Collection</text>
<text text-anchor="middle" x="262.5" y="-105.5" font-family="Helvetica,sans-Serif" font-size="10.00">\set_login</text>
</a>
</g>
</g>
<!-- Node9&#45;&gt;Node11 -->
<g id="edge10" class="edge">
<title>Node9&#45;&gt;Node11</title>
<path fill="none" stroke="midnightblue" d="M400.26,-167.44C382.63,-157.61 360.57,-146.08 340,-137.5 332.29,-134.28 324,-131.26 315.81,-128.51"/>
<polygon fill="midnightblue" stroke="midnightblue" points="398.62,-170.53 409.05,-172.4 402.06,-164.43 398.62,-170.53"/>
</g>
<!-- Node12 -->
<g id="node12" class="node">
<title>Node12</title>
<g id="a_node12"><a xlink:href="a00276.html#a4e60c1e03b490e38e441d4b8dbada19f" target="_top" xlink:title=" ">
<polygon fill="white" stroke="black" points="209,-49.5 209,-79.5 316,-79.5 316,-49.5 209,-49.5"/>
<text text-anchor="start" x="217" y="-67.5" font-family="Helvetica,sans-Serif" font-size="10.00">CO_User_Collection</text>
<text text-anchor="middle" x="262.5" y="-56.5" font-family="Helvetica,sans-Serif" font-size="10.00">\set_middle_name</text>
</a>
</g>
</g>
<!-- Node9&#45;&gt;Node12 -->
<g id="edge11" class="edge">
<title>Node9&#45;&gt;Node12</title>
<path fill="none" stroke="midnightblue" d="M417.87,-164.18C400.73,-141.77 372.06,-108.44 340,-88.5 332.67,-83.94 324.41,-80.19 316.09,-77.11"/>
<polygon fill="midnightblue" stroke="midnightblue" points="415.27,-166.56 424.06,-172.48 420.88,-162.37 415.27,-166.56"/>
</g>
<!-- Node13 -->
<g id="node13" class="node">
<title>Node13</title>
<g id="a_node13"><a xlink:href="a00276.html#ac70dec96610b3e89b7888a3cab6aef72" target="_top" xlink:title=" ">
<polygon fill="white" stroke="black" points="209,-0.5 209,-30.5 316,-30.5 316,-0.5 209,-0.5"/>
<text text-anchor="start" x="217" y="-18.5" font-family="Helvetica,sans-Serif" font-size="10.00">CO_User_Collection</text>
<text text-anchor="middle" x="262.5" y="-7.5" font-family="Helvetica,sans-Serif" font-size="10.00">\set_nickname</text>
</a>
</g>
</g>
<!-- Node9&#45;&gt;Node13 -->
<g id="edge12" class="edge">
<title>Node9&#45;&gt;Node13</title>
<path fill="none" stroke="midnightblue" d="M425.23,-163.13C411.53,-130.31 382.78,-72.24 340,-39.5 332.93,-34.09 324.61,-29.88 316.11,-26.61"/>
<polygon fill="midnightblue" stroke="midnightblue" points="422.01,-164.49 429,-172.45 428.5,-161.87 422.01,-164.49"/>
</g>
<!-- Node14 -->
<g id="node14" class="node">
<title>Node14</title>
<g id="a_node14"><a xlink:href="a00276.html#adbeef6102042c2ec1530502386a275c4" target="_top" xlink:title=" ">
<polygon fill="white" stroke="black" points="209,-294.5 209,-324.5 316,-324.5 316,-294.5 209,-294.5"/>
<text text-anchor="start" x="217" y="-312.5" font-family="Helvetica,sans-Serif" font-size="10.00">CO_User_Collection</text>
<text text-anchor="middle" x="262.5" y="-301.5" font-family="Helvetica,sans-Serif" font-size="10.00">\set_prefix</text>
</a>
</g>
</g>
<!-- Node9&#45;&gt;Node14 -->
<g id="edge13" class="edge">
<title>Node9&#45;&gt;Node14</title>
<path fill="none" stroke="midnightblue" d="M417.43,-210.62C400.14,-232.5 371.53,-264.85 340,-284.5 332.65,-289.08 324.37,-292.91 316.04,-296.08"/>
<polygon fill="midnightblue" stroke="midnightblue" points="420.35,-212.56 423.69,-202.51 414.81,-208.28 420.35,-212.56"/>
</g>
<!-- Node15 -->
<g id="node15" class="node">
<title>Node15</title>
<g id="a_node15"><a xlink:href="a00276.html#af4643580a79e531d9e78c75c67c21388" target="_top" xlink:title=" ">
<polygon fill="white" stroke="black" points="209,-245.5 209,-275.5 316,-275.5 316,-245.5 209,-245.5"/>
<text text-anchor="start" x="217" y="-263.5" font-family="Helvetica,sans-Serif" font-size="10.00">CO_User_Collection</text>
<text text-anchor="middle" x="262.5" y="-252.5" font-family="Helvetica,sans-Serif" font-size="10.00">\set_suffix</text>
</a>
</g>
</g>
<!-- Node9&#45;&gt;Node15 -->
<g id="edge14" class="edge">
<title>Node9&#45;&gt;Node15</title>
<path fill="none" stroke="midnightblue" d="M398.13,-207.63C380.82,-216.78 359.65,-227.36 340,-235.5 331.48,-239.03 322.27,-242.4 313.29,-245.46"/>
<polygon fill="midnightblue" stroke="midnightblue" points="400.15,-210.52 407.32,-202.72 396.85,-204.35 400.15,-210.52"/>
</g>
<!-- Node16 -->
<g id="node16" class="node">
<title>Node16</title>
<g id="a_node16"><a xlink:href="a00276.html#a28a62f95bbfbb511f01a2b8a3eb3db6f" target="_top" xlink:title=" ">
<polygon fill="white" stroke="black" points="209,-196.5 209,-226.5 316,-226.5 316,-196.5 209,-196.5"/>
<text text-anchor="start" x="217" y="-214.5" font-family="Helvetica,sans-Serif" font-size="10.00">CO_User_Collection</text>
<text text-anchor="middle" x="262.5" y="-203.5" font-family="Helvetica,sans-Serif" font-size="10.00">\set_surname</text>
</a>
</g>
</g>
<!-- Node9&#45;&gt;Node16 -->
<g id="edge15" class="edge">
<title>Node9&#45;&gt;Node16</title>
<path fill="none" stroke="midnightblue" d="M371.8,-196.3C353.48,-198.87 333.65,-201.65 316.03,-204.13"/>
<polygon fill="midnightblue" stroke="midnightblue" points="372.38,-199.75 381.8,-194.9 371.41,-192.82 372.38,-199.75"/>
</g>
<!-- Node18 -->
<g id="node18" class="node">
<title>Node18</title>
<g id="a_node18"><a xlink:href="a00260.html#a887a876b0603db0289a8bdc7ab4e66b2" target="_top" xlink:title=" ">
<polygon fill="white" stroke="black" points="11,-387.5 11,-417.5 138,-417.5 138,-387.5 11,-387.5"/>
<text text-anchor="start" x="19" y="-405.5" font-family="Helvetica,sans-Serif" font-size="10.00">CO_Place\set_tags_from</text>
<text text-anchor="middle" x="74.5" y="-394.5" font-family="Helvetica,sans-Serif" font-size="10.00">_address_elements</text>
</a>
</g>
</g>
<!-- Node17&#45;&gt;Node18 -->
<g id="edge17" class="edge">
<title>Node17&#45;&gt;Node18</title>
<path fill="none" stroke="midnightblue" d="M174.52,-402.5C162.26,-402.5 149.86,-402.5 138.17,-402.5"/>
<polygon fill="midnightblue" stroke="midnightblue" points="174.77,-406 184.77,-402.5 174.77,-399 174.77,-406"/>
</g>
<!-- Node20&#45;&gt;Node4 -->
<g id="edge25" class="edge">
<title>Node20&#45;&gt;Node4</title>
<path fill="none" stroke="midnightblue" d="M423.1,-683.86C410.23,-712.13 389.35,-760.38 376,-803.5 353.79,-875.2 390.66,-913.11 340,-968.5 335.02,-973.94 328.82,-978.16 322.13,-981.43"/>
<polygon fill="midnightblue" stroke="midnightblue" points="426.3,-685.29 427.3,-674.74 419.94,-682.36 426.3,-685.29"/>
</g>
<!-- Node20&#45;&gt;Node5 -->
<g id="edge28" class="edge">
<title>Node20&#45;&gt;Node5</title>
<path fill="none" stroke="midnightblue" d="M418.94,-683.18C405.83,-704.08 387.43,-735.76 376,-765.5 350.78,-831.11 387.82,-867.98 340,-919.5 336.59,-923.17 332.63,-926.29 328.33,-928.93"/>
<polygon fill="midnightblue" stroke="midnightblue" points="421.96,-684.97 424.38,-674.65 416.05,-681.21 421.96,-684.97"/>
</g>
<!-- Node20&#45;&gt;Node6 -->
<g id="edge30" class="edge">
<title>Node20&#45;&gt;Node6</title>
<path fill="none" stroke="midnightblue" d="M410.55,-681.86C398.57,-694.25 384.79,-710.56 376,-727.5 345.82,-785.68 384.99,-822.85 340,-870.5 336.56,-874.14 332.57,-877.24 328.26,-879.86"/>
<polygon fill="midnightblue" stroke="midnightblue" points="413.13,-684.22 417.72,-674.67 408.18,-679.28 413.13,-684.22"/>
</g>
<!-- Node20&#45;&gt;Node7 -->
<g id="edge32" class="edge">
<title>Node20&#45;&gt;Node7</title>
<path fill="none" stroke="midnightblue" d="M385.79,-680.11C382.17,-682.89 378.83,-686.02 376,-689.5 337.69,-736.72 382.18,-777.7 340,-821.5 334.98,-826.71 328.84,-830.8 322.25,-834"/>
<polygon fill="midnightblue" stroke="midnightblue" points="387.75,-683 394.1,-674.52 383.85,-677.19 387.75,-683"/>
</g>
<!-- Node20&#45;&gt;Node8 -->
<g id="edge33" class="edge">
<title>Node20&#45;&gt;Node8</title>
<path fill="none" stroke="midnightblue" d="M403.93,-637.82C393.69,-629.15 383.09,-618.39 376,-606.5 341.57,-548.72 387.49,-507.14 340,-459.5 336.23,-455.72 331.84,-452.65 327.09,-450.16"/>
<polygon fill="midnightblue" stroke="midnightblue" points="402,-640.76 411.99,-644.3 406.39,-635.31 402,-640.76"/>
</g>
<!-- Node20&#45;&gt;Node17 -->
<g id="edge34" class="edge">
<title>Node20&#45;&gt;Node17</title>
<path fill="none" stroke="midnightblue" d="M423.38,-635.02C411.23,-607.95 391.42,-562.94 376,-523.5 358.49,-478.73 375.58,-453.83 340,-421.5 335.75,-417.64 330.83,-414.53 325.58,-412.03"/>
<polygon fill="midnightblue" stroke="midnightblue" points="420.19,-636.46 427.49,-644.14 426.57,-633.58 420.19,-636.46"/>
</g>
<!-- Node20&#45;&gt;Node19 -->
<g id="edge35" class="edge">
<title>Node20&#45;&gt;Node19</title>
<path fill="none" stroke="midnightblue" d="M433.13,-634.15C428.86,-580.34 411.36,-453.86 340,-383.5 334.93,-378.5 328.84,-374.49 322.34,-371.29"/>
<polygon fill="midnightblue" stroke="midnightblue" points="429.65,-634.47 433.84,-644.2 436.63,-633.98 429.65,-634.47"/>
</g>
<!-- Node21 -->
<g id="node21" class="node">
<title>Node21</title>
<g id="a_node21"><a xlink:href="a00340.html#a0d11bc2cb9f23f091615dd5918dd2abb" target="_top" xlink:title=" ">
<polygon fill="white" stroke="black" points="196,-694 196,-713 329,-713 329,-694 196,-694"/>
<text text-anchor="middle" x="262.5" y="-701" font-family="Helvetica,sans-Serif" font-size="10.00">CO_Security_Login\add_id</text>
</a>
</g>
</g>
<!-- Node20&#45;&gt;Node21 -->
<g id="edge20" class="edge">
<title>Node20&#45;&gt;Node21</title>
<path fill="none" stroke="midnightblue" d="M368.46,-677.11C358.92,-679.61 349.21,-682.14 340,-684.5 327.8,-687.63 314.49,-690.96 302.45,-693.95"/>
<polygon fill="midnightblue" stroke="midnightblue" points="369.54,-680.44 378.32,-674.51 367.76,-673.67 369.54,-680.44"/>
</g>
<!-- Node22 -->
<g id="node22" class="node">
<title>Node22</title>
<g id="a_node22"><a xlink:href="a00340.html#a59e2e5be376349924698305603bfb51f" target="_top" xlink:title=" ">
<polygon fill="white" stroke="black" points="200,-644.5 200,-674.5 325,-674.5 325,-644.5 200,-644.5"/>
<text text-anchor="start" x="208" y="-662.5" font-family="Helvetica,sans-Serif" font-size="10.00">CO_Security_Login\clear</text>
<text text-anchor="middle" x="262.5" y="-651.5" font-family="Helvetica,sans-Serif" font-size="10.00">_api_key</text>
</a>
</g>
</g>
<!-- Node20&#45;&gt;Node22 -->
<g id="edge21" class="edge">
<title>Node20&#45;&gt;Node22</title>
<path fill="none" stroke="midnightblue" d="M365.55,-659.5C352.16,-659.5 338.21,-659.5 325.08,-659.5"/>
<polygon fill="midnightblue" stroke="midnightblue" points="365.65,-663 375.65,-659.5 365.65,-656 365.65,-663"/>
</g>
<!-- Node23 -->
<g id="node23" class="node">
<title>Node23</title>
<g id="a_node23"><a xlink:href="a00308.html#ab976e4ab55890095fc60406326b5de80" target="_top" xlink:title=" ">
<polygon fill="white" stroke="black" points="203,-595.5 203,-625.5 322,-625.5 322,-595.5 203,-595.5"/>
<text text-anchor="start" x="211" y="-613.5" font-family="Helvetica,sans-Serif" font-size="10.00">A_CO_DB_Table_Base</text>
<text text-anchor="middle" x="262.5" y="-602.5" font-family="Helvetica,sans-Serif" font-size="10.00">\clear_batch_mode</text>
</a>
</g>
</g>
<!-- Node20&#45;&gt;Node23 -->
<g id="edge22" class="edge">
<title>Node20&#45;&gt;Node23</title>
<path fill="none" stroke="midnightblue" d="M372.05,-641.61C353.66,-636.34 333.73,-630.62 316.03,-625.55"/>
<polygon fill="midnightblue" stroke="midnightblue" points="371.22,-645.01 381.8,-644.4 373.15,-638.28 371.22,-645.01"/>
</g>
<!-- Node24 -->
<g id="node24" class="node">
<title>Node24</title>
<g id="a_node24"><a xlink:href="a00340.html#a1a141bb2d1d8b67737119e0729c7d159" target="_top" xlink:title=" ">
<polygon fill="white" stroke="black" points="194.5,-557 194.5,-576 330.5,-576 330.5,-557 194.5,-557"/>
<text text-anchor="middle" x="262.5" y="-564" font-family="Helvetica,sans-Serif" font-size="10.00">CO_Security_Login\set_ids</text>
</a>
</g>
</g>
<!-- Node20&#45;&gt;Node24 -->
<g id="edge23" class="edge">
<title>Node20&#45;&gt;Node24</title>
<path fill="none" stroke="midnightblue" d="M411.86,-637.24C393.8,-620.67 367.12,-598.73 340,-585.5 332.13,-581.66 323.41,-578.55 314.76,-576.05"/>
<polygon fill="midnightblue" stroke="midnightblue" points="409.83,-640.13 419.52,-644.42 414.62,-635.03 409.83,-640.13"/>
</g>
<!-- Node26 -->
<g id="node26" class="node">
<title>Node26</title>
<g id="a_node26"><a xlink:href="a00340.html#a061f896c69dc8a8dd3d9ee793b91ddc7" target="_top" xlink:title=" ">
<polygon fill="white" stroke="black" points="192,-519 192,-538 333,-538 333,-519 192,-519"/>
<text text-anchor="middle" x="262.5" y="-526" font-family="Helvetica,sans-Serif" font-size="10.00">CO_Security_Login\set_lang</text>
</a>
</g>
</g>
<!-- Node20&#45;&gt;Node26 -->
<g id="edge26" class="edge">
<title>Node20&#45;&gt;Node26</title>
<path fill="none" stroke="midnightblue" d="M407.32,-637.76C396.88,-628.7 385.26,-617.69 376,-606.5 356.42,-582.83 364.76,-565.68 340,-547.5 334.7,-543.61 328.71,-540.52 322.45,-538.05"/>
<polygon fill="midnightblue" stroke="midnightblue" points="405.12,-640.48 415.01,-644.28 409.64,-635.14 405.12,-640.48"/>
</g>
<!-- Node27 -->
<g id="node27" class="node">
<title>Node27</title>
<g id="a_node27"><a xlink:href="a00308.html#a92a9b9a122e9471b82dd79432bf3c929" target="_top" xlink:title=" ">
<polygon fill="white" stroke="black" points="203,-469.5 203,-499.5 322,-499.5 322,-469.5 203,-469.5"/>
<text text-anchor="start" x="211" y="-487.5" font-family="Helvetica,sans-Serif" font-size="10.00">A_CO_DB_Table_Base</text>
<text text-anchor="middle" x="262.5" y="-476.5" font-family="Helvetica,sans-Serif" font-size="10.00">\set_name</text>
</a>
</g>
</g>
<!-- Node20&#45;&gt;Node27 -->
<g id="edge27" class="edge">
<title>Node20&#45;&gt;Node27</title>
<path fill="none" stroke="midnightblue" d="M405.45,-638.01C395.05,-629.18 383.96,-618.26 376,-606.5 350.22,-568.42 373.15,-541.37 340,-509.5 334.86,-504.56 328.74,-500.6 322.22,-497.42"/>
<polygon fill="midnightblue" stroke="midnightblue" points="403.23,-640.73 413.19,-644.34 407.66,-635.31 403.23,-640.73"/>
</g>
<!-- Node28 -->
<g id="node28" class="node">
<title>Node28</title>
<g id="a_node28"><a xlink:href="a00340.html#ac4f0c16cb8cf1e2151451bf4d5cb2238" target="_top" xlink:title=" ">
<polygon fill="white" stroke="black" points="197,-781.5 197,-811.5 328,-811.5 328,-781.5 197,-781.5"/>
<text text-anchor="start" x="205" y="-799.5" font-family="Helvetica,sans-Serif" font-size="10.00">CO_Security_Login\set</text>
<text text-anchor="middle" x="262.5" y="-788.5" font-family="Helvetica,sans-Serif" font-size="10.00">_password_from_cleartext</text>
</a>
</g>
</g>
<!-- Node20&#45;&gt;Node28 -->
<g id="edge29" class="edge">
<title>Node20&#45;&gt;Node28</title>
<path fill="none" stroke="midnightblue" d="M387.13,-679.98C383.08,-682.82 379.29,-685.99 376,-689.5 348.5,-718.84 369.89,-745.6 340,-772.5 336.17,-775.95 331.85,-778.9 327.26,-781.42"/>
<polygon fill="midnightblue" stroke="midnightblue" points="389.08,-682.88 395.69,-674.59 385.36,-676.96 389.08,-682.88"/>
</g>
<!-- Node29 -->
<g id="node29" class="node">
<title>Node29</title>
<g id="a_node29"><a xlink:href="a00340.html#a8d18fed2a089c920e67802253be3cd68" target="_top" xlink:title=" ">
<polygon fill="white" stroke="black" points="203.5,-732.5 203.5,-762.5 321.5,-762.5 321.5,-732.5 203.5,-732.5"/>
<text text-anchor="start" x="211.5" y="-750.5" font-family="Helvetica,sans-Serif" font-size="10.00">CO_Security_Login\set</text>
<text text-anchor="middle" x="262.5" y="-739.5" font-family="Helvetica,sans-Serif" font-size="10.00">_personal_ids</text>
</a>
</g>
</g>
<!-- Node20&#45;&gt;Node29 -->
<g id="edge31" class="edge">
<title>Node20&#45;&gt;Node29</title>
<path fill="none" stroke="midnightblue" d="M392.51,-679.29C386.82,-682.47 381.16,-685.91 376,-689.5 358.18,-701.9 358.74,-711.55 340,-722.5 333.49,-726.31 326.32,-729.62 319.06,-732.48"/>
<polygon fill="midnightblue" stroke="midnightblue" points="394.26,-682.32 401.42,-674.51 390.95,-676.15 394.26,-682.32"/>
</g>
<!-- Node25 -->
<g id="node25" class="node">
<title>Node25</title>
<g id="a_node25"><a xlink:href="a00340.html#a985325996e8392412a6782569b294176" target="_top" xlink:title=" ">
<polygon fill="white" stroke="black" points="0,-557 0,-576 149,-576 149,-557 0,-557"/>
<text text-anchor="middle" x="74.5" y="-564" font-family="Helvetica,sans-Serif" font-size="10.00">CO_Security_Login\remove_id</text>
</a>
</g>
</g>
<!-- Node24&#45;&gt;Node25 -->
<g id="edge24" class="edge">
<title>Node24&#45;&gt;Node25</title>
<path fill="none" stroke="midnightblue" d="M184.25,-566.5C172.64,-566.5 160.69,-566.5 149.16,-566.5"/>
<polygon fill="midnightblue" stroke="midnightblue" points="184.35,-570 194.35,-566.5 184.35,-563 184.35,-570"/>
</g>
</g>
</svg>
        <g id="navigator" transform="translate(0 0)" fill="#404254">
                <rect fill="#f2f5e9" fill-opacity="0.5" stroke="#606060" stroke-width=".5" x="0" y="0" width="60" height="60"/>
                <use id="zoomplus" xlink:href="#zoomPlus" x="17" y="9" onmousedown="handleZoom(evt,'in')"/>
                <use id="zoomminus" xlink:href="#zoomMin" x="42" y="9" onmousedown="handleZoom(evt,'out')"/>
                <use id="reset" xlink:href="#resetDef" x="30" y="36" onmousedown="handleReset()"/>
                <g id="arrowUp" xlink:href="#dirArrow" transform="translate(30 24)" onmousedown="handlePan(0,-1)">
                  <use xlink:href="#rim" fill="#404040">
                        <set attributeName="fill" to="#808080" begin="arrowUp.mouseover" end="arrowUp.mouseout"/>
                  </use>
                  <path fill="none" stroke="white" stroke-width="1.5" d="M0,-3.0v7 M-2.5,-0.5L0,-3.0L2.5,-0.5"/>
                </g>
                <g id="arrowRight" xlink:href="#dirArrow" transform="rotate(90) translate(36 -43)" onmousedown="handlePan(1,0)">
                  <use xlink:href="#rim" fill="#404040">
                        <set attributeName="fill" to="#808080" begin="arrowRight.mouseover" end="arrowRight.mouseout"/>
                  </use>
                  <path fill="none" stroke="white" stroke-width="1.5" d="M0,-3.0v7 M-2.5,-0.5L0,-3.0L2.5,-0.5"/>
                </g>
                <g id="arrowDown" xlink:href="#dirArrow" transform="rotate(180) translate(-30 -48)" onmousedown="handlePan(0,1)">
                  <use xlink:href="#rim" fill="#404040">
                        <set attributeName="fill" to="#808080" begin="arrowDown.mouseover" end="arrowDown.mouseout"/>
                  </use>
                  <path fill="none" stroke="white" stroke-width="1.5" d="M0,-3.0v7 M-2.5,-0.5L0,-3.0L2.5,-0.5"/>
                </g>
                <g id="arrowLeft" xlink:href="#dirArrow" transform="rotate(270) translate(-36 17)" onmousedown="handlePan(-1,0)">
                  <use xlink:href="#rim" fill="#404040">
                        <set attributeName="fill" to="#808080" begin="arrowLeft.mouseover" end="arrowLeft.mouseout"/>
                  </use>
                  <path fill="none" stroke="white" stroke-width="1.5" d="M0,-3.0v7 M-2.5,-0.5L0,-3.0L2.5,-0.5"/>
                </g>
        </g>
        <svg viewBox="0 0 15 15" width="100%" height="30px" preserveAspectRatio="xMaxYMin meet">
         <g id="arrow_out" transform="scale(0.3 0.3)">
          <a xlink:href="a00308_a7d2537d7675ca572ad78096784fe4fe4_icgraph_org.svg" target="_base">
           <rect id="button" ry="5" rx="5" y="6" x="6" height="38" width="38"
                fill="#f2f5e9" fill-opacity="0.5" stroke="#606060" stroke-width="1.0"/>
           <path id="arrow"
             d="M 11.500037,31.436501 C 11.940474,20.09759 22.043105,11.32322 32.158766,21.979434 L 37.068811,17.246167 C 37.068811,17.246167 37.088388,32 37.088388,32 L 22.160133,31.978069 C 22.160133,31.978069 26.997745,27.140456 26.997745,27.140456 C 18.528582,18.264221 13.291696,25.230495 11.500037,31.436501 z"
             style="fill:#404040;"/>
          </a>
         </g>
        </svg>
</svg>
