<?xml version="1.0" encoding="UTF-8" standalone="no"?>
<!DOCTYPE svg PUBLIC "-//W3C//DTD SVG 1.1//EN"
 "http://www.w3.org/Graphics/SVG/1.1/DTD/svg11.dtd">
<!-- Generated by graphviz version 2.47.1 (20210417.1919)
 -->
<!-- Title: CO_Chameleon_Utils\call_curl Pages: 1 -->
<svg width="463pt" height="116pt"
 viewBox="0.00 0.00 463.00 115.50" xmlns="http://www.w3.org/2000/svg" xmlns:xlink="http://www.w3.org/1999/xlink">
<g id="graph0" class="graph" transform="scale(1 1) rotate(0) translate(4 111.5)">
<title>CO_Chameleon_Utils\call_curl</title>
<polygon fill="white" stroke="transparent" points="-4,4 -4,-111.5 459,-111.5 459,4 -4,4"/>
<!-- Node1 -->
<g id="node1" class="node">
<title>Node1</title>
<g id="a_node1"><a xlink:title="This is a function that returns the results of an HTTP call to a URI. It is a lot more secure than fi...">
<polygon fill="#bfbfbf" stroke="black" points="343,-33 343,-63 455,-63 455,-33 343,-33"/>
<text text-anchor="start" x="351" y="-51" font-family="Helvetica,sans-Serif" font-size="10.00">CO_Chameleon_Utils</text>
<text text-anchor="middle" x="399" y="-40" font-family="Helvetica,sans-Serif" font-size="10.00">\call_curl</text>
</a>
</g>
</g>
<!-- Node2 -->
<g id="node2" class="node">
<title>Node2</title>
<g id="a_node2"><a xlink:href="a00208.html#a90b9f5c8286479f877a1a81193eb3b4b" target="_top" xlink:title=" ">
<polygon fill="white" stroke="black" points="171.5,-77 171.5,-107 302.5,-107 302.5,-77 171.5,-77"/>
<text text-anchor="start" x="179.5" y="-95" font-family="Helvetica,sans-Serif" font-size="10.00">CO_places_Basalt_Plugin</text>
<text text-anchor="middle" x="237" y="-84" font-family="Helvetica,sans-Serif" font-size="10.00">\_lookup_address</text>
</a>
</g>
</g>
<!-- Node1&#45;&gt;Node2 -->
<g id="edge1" class="edge">
<title>Node1&#45;&gt;Node2</title>
<path fill="none" stroke="midnightblue" d="M333.63,-65.7C320.04,-69.44 305.83,-73.35 292.64,-76.97"/>
<polygon fill="midnightblue" stroke="midnightblue" points="334.67,-69.05 343.38,-63.02 332.81,-62.3 334.67,-69.05"/>
</g>
<!-- Node4 -->
<g id="node4" class="node">
<title>Node4</title>
<g id="a_node4"><a xlink:href="a00260.html#ae074113629e04696f13a4e6c5316124a" target="_top" xlink:title=" ">
<polygon fill="white" stroke="black" points="167,-38.5 167,-57.5 307,-57.5 307,-38.5 167,-38.5"/>
<text text-anchor="middle" x="237" y="-45.5" font-family="Helvetica,sans-Serif" font-size="10.00">CO_Place\geocode_long_lat</text>
</a>
</g>
</g>
<!-- Node1&#45;&gt;Node4 -->
<g id="edge3" class="edge">
<title>Node1&#45;&gt;Node4</title>
<path fill="none" stroke="midnightblue" d="M332.74,-48C324.26,-48 315.55,-48 307.02,-48"/>
<polygon fill="midnightblue" stroke="midnightblue" points="332.94,-51.5 342.94,-48 332.94,-44.5 332.94,-51.5"/>
</g>
<!-- Node5 -->
<g id="node5" class="node">
<title>Node5</title>
<g id="a_node5"><a xlink:href="a00260.html#a1319c3b11d29aae2bb70fd8aeddfee93" target="_top" xlink:title=" ">
<polygon fill="white" stroke="black" points="170.5,-0.5 170.5,-19.5 303.5,-19.5 303.5,-0.5 170.5,-0.5"/>
<text text-anchor="middle" x="237" y="-7.5" font-family="Helvetica,sans-Serif" font-size="10.00">CO_Place\lookup_address</text>
</a>
</g>
</g>
<!-- Node1&#45;&gt;Node5 -->
<g id="edge4" class="edge">
<title>Node1&#45;&gt;Node5</title>
<path fill="none" stroke="midnightblue" d="M333.03,-32.57C314.4,-28.15 294.65,-23.45 278.01,-19.5"/>
<polygon fill="midnightblue" stroke="midnightblue" points="332.4,-36.02 342.94,-34.92 334.02,-29.21 332.4,-36.02"/>
</g>
<!-- Node3 -->
<g id="node3" class="node">
<title>Node3</title>
<g id="a_node3"><a xlink:href="a00208.html#a66729507ef35bcc83810d707412207fb" target="_top" xlink:title=" ">
<polygon fill="white" stroke="black" points="0,-77 0,-107 131,-107 131,-77 0,-77"/>
<text text-anchor="start" x="8" y="-95" font-family="Helvetica,sans-Serif" font-size="10.00">CO_places_Basalt_Plugin</text>
<text text-anchor="middle" x="65.5" y="-84" font-family="Helvetica,sans-Serif" font-size="10.00">\process_command</text>
</a>
</g>
</g>
<!-- Node2&#45;&gt;Node3 -->
<g id="edge2" class="edge">
<title>Node2&#45;&gt;Node3</title>
<path fill="none" stroke="midnightblue" d="M161.43,-92C151.35,-92 141.06,-92 131.17,-92"/>
<polygon fill="midnightblue" stroke="midnightblue" points="161.44,-95.5 171.44,-92 161.44,-88.5 161.44,-95.5"/>
</g>
</g>
</svg>
