<?xml version="1.0" encoding="UTF-8" standalone="no"?>
<!DOCTYPE svg PUBLIC "-//W3C//DTD SVG 1.1//EN"
 "http://www.w3.org/Graphics/SVG/1.1/DTD/svg11.dtd">
<!-- Generated by graphviz version 2.47.1 (20210417.1919)
 -->
<!-- Title: CO_Security_Login\add_personal_token_from_current_login Pages: 1 -->
<svg width="604pt" height="105pt"
 viewBox="0.00 0.00 604.00 104.50" xmlns="http://www.w3.org/2000/svg" xmlns:xlink="http://www.w3.org/1999/xlink">
<g id="graph0" class="graph" transform="scale(1 1) rotate(0) translate(4 100.5)">
<title>CO_Security_Login\add_personal_token_from_current_login</title>
<polygon fill="white" stroke="transparent" points="-4,4 -4,-100.5 600,-100.5 600,4 -4,4"/>
<!-- Node1 -->
<g id="node1" class="node">
<title>Node1</title>
<g id="a_node1"><a xlink:title=" ">
<polygon fill="#bfbfbf" stroke="black" points="0,-38.5 0,-79.5 120,-79.5 120,-38.5 0,-38.5"/>
<text text-anchor="start" x="8" y="-67.5" font-family="Helvetica,sans-Serif" font-size="10.00">CO_Security_Login\add</text>
<text text-anchor="start" x="8" y="-56.5" font-family="Helvetica,sans-Serif" font-size="10.00">_personal_token_from</text>
<text text-anchor="middle" x="60" y="-45.5" font-family="Helvetica,sans-Serif" font-size="10.00">_current_login</text>
</a>
</g>
</g>
<!-- Node2 -->
<g id="node2" class="node">
<title>Node2</title>
<g id="a_node2"><a xlink:href="a00308.html#a8780b40e55827b90bb441671faec2a05" target="_top" xlink:title=" ">
<polygon fill="white" stroke="black" points="311,-66 311,-96 430,-96 430,-66 311,-66"/>
<text text-anchor="start" x="319" y="-84" font-family="Helvetica,sans-Serif" font-size="10.00">A_CO_DB_Table_Base</text>
<text text-anchor="middle" x="370.5" y="-73" font-family="Helvetica,sans-Serif" font-size="10.00">\get_access_object</text>
</a>
</g>
</g>
<!-- Node1&#45;&gt;Node2 -->
<g id="edge1" class="edge">
<title>Node1&#45;&gt;Node2</title>
<path fill="none" stroke="midnightblue" d="M120.12,-63.22C171.65,-66.89 246.41,-72.22 300.63,-76.09"/>
<polygon fill="midnightblue" stroke="midnightblue" points="300.62,-79.6 310.85,-76.82 301.12,-72.61 300.62,-79.6"/>
</g>
<!-- Node3 -->
<g id="node3" class="node">
<title>Node3</title>
<g id="a_node3"><a xlink:href="a00308.html#aa5e1bc5570c817cfe3ddeb67003d4f45" target="_top" xlink:title=" ">
<polygon fill="white" stroke="black" points="156,-22 156,-52 275,-52 275,-22 156,-22"/>
<text text-anchor="start" x="164" y="-40" font-family="Helvetica,sans-Serif" font-size="10.00">A_CO_DB_Table_Base</text>
<text text-anchor="middle" x="215.5" y="-29" font-family="Helvetica,sans-Serif" font-size="10.00">\reload_from_db</text>
</a>
</g>
</g>
<!-- Node1&#45;&gt;Node3 -->
<g id="edge2" class="edge">
<title>Node1&#45;&gt;Node3</title>
<path fill="none" stroke="midnightblue" d="M120.35,-50.49C128.72,-49.29 137.37,-48.05 145.9,-46.83"/>
<polygon fill="midnightblue" stroke="midnightblue" points="146.41,-50.29 155.82,-45.41 145.42,-43.36 146.41,-50.29"/>
</g>
<!-- Node3&#45;&gt;Node2 -->
<g id="edge3" class="edge">
<title>Node3&#45;&gt;Node2</title>
<path fill="none" stroke="midnightblue" d="M268.73,-52.02C281.21,-55.61 294.66,-59.48 307.54,-63.18"/>
<polygon fill="midnightblue" stroke="midnightblue" points="306.67,-66.57 317.25,-65.97 308.61,-59.85 306.67,-66.57"/>
</g>
<!-- Node4 -->
<g id="node4" class="node">
<title>Node4</title>
<g id="a_node4"><a xlink:href="a00308.html#a91b894b2b9aa29d47c43e519f5ad0bf6" target="_top" xlink:title=" ">
<polygon fill="white" stroke="black" points="311,-17 311,-47 430,-47 430,-17 311,-17"/>
<text text-anchor="start" x="319" y="-35" font-family="Helvetica,sans-Serif" font-size="10.00">A_CO_DB_Table_Base</text>
<text text-anchor="middle" x="370.5" y="-24" font-family="Helvetica,sans-Serif" font-size="10.00">\load_from_db</text>
</a>
</g>
</g>
<!-- Node3&#45;&gt;Node4 -->
<g id="edge4" class="edge">
<title>Node3&#45;&gt;Node4</title>
<path fill="none" stroke="midnightblue" d="M275.22,-35.08C283.54,-34.81 292.17,-34.53 300.67,-34.25"/>
<polygon fill="midnightblue" stroke="midnightblue" points="301.06,-37.74 310.94,-33.91 300.83,-30.74 301.06,-37.74"/>
</g>
<!-- Node5 -->
<g id="node5" class="node">
<title>Node5</title>
<g id="a_node5"><a xlink:href="a00308.html#aecf243af90c7a16d03c7e4630ccc4e8e" target="_top" xlink:title=" ">
<polygon fill="white" stroke="black" points="471.5,-39 471.5,-69 590.5,-69 590.5,-39 471.5,-39"/>
<text text-anchor="start" x="479.5" y="-57" font-family="Helvetica,sans-Serif" font-size="10.00">A_CO_DB_Table_Base</text>
<text text-anchor="middle" x="531" y="-46" font-family="Helvetica,sans-Serif" font-size="10.00">\_badger_unserialize</text>
</a>
</g>
</g>
<!-- Node4&#45;&gt;Node5 -->
<g id="edge5" class="edge">
<title>Node4&#45;&gt;Node5</title>
<path fill="none" stroke="midnightblue" d="M430.07,-40.13C440.29,-41.55 451.01,-43.04 461.48,-44.49"/>
<polygon fill="midnightblue" stroke="midnightblue" points="461.02,-47.96 471.41,-45.87 461.98,-41.03 461.02,-47.96"/>
</g>
<!-- Node6 -->
<g id="node6" class="node">
<title>Node6</title>
<g id="a_node6"><a xlink:href="a00308.html#a78affe18a811930d4012fd265e95cdca" target="_top" xlink:title=" ">
<polygon fill="white" stroke="black" points="466,-0.5 466,-19.5 596,-19.5 596,-0.5 466,-0.5"/>
<text text-anchor="middle" x="531" y="-7.5" font-family="Helvetica,sans-Serif" font-size="10.00">A_CO_DB_Table_Base\id</text>
</a>
</g>
</g>
<!-- Node4&#45;&gt;Node6 -->
<g id="edge6" class="edge">
<title>Node4&#45;&gt;Node6</title>
<path fill="none" stroke="midnightblue" d="M430.07,-23.87C438.44,-22.71 447.13,-21.5 455.75,-20.31"/>
<polygon fill="midnightblue" stroke="midnightblue" points="456.38,-23.75 465.81,-18.91 455.42,-16.82 456.38,-23.75"/>
</g>
</g>
</svg>
