<?xml version="1.0" encoding="UTF-8" standalone="no"?>
<!DOCTYPE svg PUBLIC "-//W3C//DTD SVG 1.1//EN"
 "http://www.w3.org/Graphics/SVG/1.1/DTD/svg11.dtd">
<!-- Generated by graphviz version 2.40.1 (20161225.0304)
 -->
<!-- Title: CO_Security_Node\user_can_edit_ids Pages: 1 -->
<svg width="493pt" height="103pt"
 viewBox="0.00 0.00 492.62 103.00" xmlns="http://www.w3.org/2000/svg" xmlns:xlink="http://www.w3.org/1999/xlink">
<g id="graph0" class="graph" transform="scale(1 1) rotate(0) translate(4 99)">
<title>CO_Security_Node\user_can_edit_ids</title>
<polygon fill="#ffffff" stroke="transparent" points="-4,4 -4,-99 488.6191,-99 488.6191,4 -4,4"/>
<!-- Node45 -->
<g id="node1" class="node">
<title>Node45</title>
<polygon fill="#bfbfbf" stroke="#000000" points="0,-33.5 0,-61.5 124.3838,-61.5 124.3838,-33.5 0,-33.5"/>
<text text-anchor="start" x="8" y="-49.5" font-family="Helvetica,sans-Serif" font-size="10.00" fill="#000000">CO_Security_Node\user</text>
<text text-anchor="middle" x="62.1919" y="-39.5" font-family="Helvetica,sans-Serif" font-size="10.00" fill="#000000">_can_edit_ids</text>
</g>
<!-- Node46 -->
<g id="node2" class="node">
<title>Node46</title>
<g id="a_node2"><a xlink:href="a00331.html#a4a3ed38130b49569d494ec7c262ca32d" target="_top" xlink:title="CO_Security_Node\\add_id">
<polygon fill="#ffffff" stroke="#000000" points="161.2114,-76.5 161.2114,-94.5 296.1714,-94.5 296.1714,-76.5 161.2114,-76.5"/>
<text text-anchor="middle" x="228.6914" y="-82.5" font-family="Helvetica,sans-Serif" font-size="10.00" fill="#000000">CO_Security_Node\add_id</text>
</a>
</g>
</g>
<!-- Node45&#45;&gt;Node46 -->
<g id="edge1" class="edge">
<title>Node45&#45;&gt;Node46</title>
<path fill="none" stroke="#191970" d="M133.5729,-63.7912C152.6088,-68.1358 172.4899,-72.6732 189.1245,-76.4697"/>
<polygon fill="#191970" stroke="#191970" points="134.2452,-60.3547 123.7171,-61.5418 132.6876,-67.1792 134.2452,-60.3547"/>
</g>
<!-- Node47 -->
<g id="node3" class="node">
<title>Node47</title>
<g id="a_node3"><a xlink:href="a00331.html#af852d696981829b18e29fb07918d8630" target="_top" xlink:title="CO_Security_Node\\remove_id">
<polygon fill="#ffffff" stroke="#000000" points="332.999,-19.5 332.999,-37.5 484.6191,-37.5 484.6191,-19.5 332.999,-19.5"/>
<text text-anchor="middle" x="408.8091" y="-25.5" font-family="Helvetica,sans-Serif" font-size="10.00" fill="#000000">CO_Security_Node\remove_id</text>
</a>
</g>
</g>
<!-- Node45&#45;&gt;Node47 -->
<g id="edge2" class="edge">
<title>Node45&#45;&gt;Node47</title>
<path fill="none" stroke="#191970" d="M134.7487,-43.5228C192.7502,-40.3434 273.8174,-35.8996 332.7278,-32.6704"/>
<polygon fill="#191970" stroke="#191970" points="134.3538,-40.0391 124.5604,-44.0812 134.737,-47.0286 134.3538,-40.0391"/>
</g>
<!-- Node48 -->
<g id="node4" class="node">
<title>Node48</title>
<g id="a_node4"><a xlink:href="a00331.html#a241314e7be52a7ca6487e41f34bb78fd" target="_top" xlink:title="CO_Security_Node\\set_ids">
<polygon fill="#ffffff" stroke="#000000" points="160.3838,-.5 160.3838,-18.5 296.999,-18.5 296.999,-.5 160.3838,-.5"/>
<text text-anchor="middle" x="228.6914" y="-6.5" font-family="Helvetica,sans-Serif" font-size="10.00" fill="#000000">CO_Security_Node\set_ids</text>
</a>
</g>
</g>
<!-- Node45&#45;&gt;Node48 -->
<g id="edge3" class="edge">
<title>Node45&#45;&gt;Node48</title>
<path fill="none" stroke="#191970" d="M133.5729,-31.2088C152.6088,-26.8642 172.4899,-22.3268 189.1245,-18.5303"/>
<polygon fill="#191970" stroke="#191970" points="132.6876,-27.8208 123.7171,-33.4582 134.2452,-34.6453 132.6876,-27.8208"/>
</g>
<!-- Node48&#45;&gt;Node47 -->
<g id="edge4" class="edge">
<title>Node48&#45;&gt;Node47</title>
<path fill="none" stroke="#191970" d="M307.0564,-17.7665C315.6594,-18.674 324.4072,-19.5967 332.9786,-20.5009"/>
<polygon fill="#191970" stroke="#191970" points="307.355,-14.2786 297.043,-16.7102 306.6206,-21.24 307.355,-14.2786"/>
</g>
</g>
</svg>
