<?xml version="1.0" encoding="UTF-8" standalone="no"?>
<!DOCTYPE svg PUBLIC "-//W3C//DTD SVG 1.1//EN"
 "http://www.w3.org/Graphics/SVG/1.1/DTD/svg11.dtd">
<!-- Generated by graphviz version 2.40.1 (20161225.0304)
 -->
<!-- Title: CO_Access\get_multiple_security_records_by_id Pages: 1 -->
<!--zoomable 231 -->
<svg id="main" version="1.1" xmlns="http://www.w3.org/2000/svg" xmlns:xlink="http://www.w3.org/1999/xlink" xml:space="preserve" onload="init(evt)">
<style type="text/css"><![CDATA[
.edge:hover path { stroke: red; }
.edge:hover polygon { stroke: red; fill: red; }
]]></style>
<script type="text/javascript"><![CDATA[
var edges = document.getElementsByTagName('g');
if (edges && edges.length) {
  for (var i=0;i<edges.length;i++) {
    if (edges[i].id.substr(0,4)=='edge') {
      edges[i].setAttribute('class','edge');
    }
  }
}
]]></script>
        <defs>
                <circle id="rim" cx="0" cy="0" r="7"/>
                <circle id="rim2" cx="0" cy="0" r="3.5"/>
                <g id="zoomPlus">
                        <use xlink:href="#rim" fill="#404040">
                                <set attributeName="fill" to="#808080" begin="zoomplus.mouseover" end="zoomplus.mouseout"/>
                        </use>
                        <path d="M-4,0h8M0,-4v8" fill="none" stroke="white" stroke-width="1.5" pointer-events="none"/>
                </g>
                <g id="zoomMin">
                        <use xlink:href="#rim" fill="#404040">
                                <set attributeName="fill" to="#808080" begin="zoomminus.mouseover" end="zoomminus.mouseout"/>
                        </use>
                        <path d="M-4,0h8" fill="none" stroke="white" stroke-width="1.5" pointer-events="none"/>
                </g>
                <g id="dirArrow">
                        <path fill="none" stroke="white" stroke-width="1.5" d="M0,-3.0v7 M-2.5,-0.5L0,-3.0L2.5,-0.5"/>
                </g>
               <g id="resetDef">
                       <use xlink:href="#rim2" fill="#404040">
                               <set attributeName="fill" to="#808080" begin="reset.mouseover" end="reset.mouseout"/>
                       </use>
               </g>
        </defs>

<script type="text/javascript">
var viewWidth = 810;
var viewHeight = 231;
var sectionId = 'dynsection-15';
</script>
<script xlink:href="svgpan.js"/>
<svg id="graph" class="graph">
<g id="viewport">
<title>CO_Access\get_multiple_security_records_by_id</title>
<polygon fill="#ffffff" stroke="transparent" points="-4,4 -4,-227 805.5049,-227 805.5049,4 -4,4"/>
<!-- Node84 -->
<g id="node1" class="node">
<title>Node84</title>
<polygon fill="#bfbfbf" stroke="#000000" points="0,-134.5 0,-162.5 125.4922,-162.5 125.4922,-134.5 0,-134.5"/>
<text text-anchor="start" x="8" y="-150.5" font-family="Helvetica,sans-Serif" font-size="10.00" fill="#000000">CO_Access\get_multiple</text>
<text text-anchor="middle" x="62.7461" y="-140.5" font-family="Helvetica,sans-Serif" font-size="10.00" fill="#000000">_security_records_by_id</text>
</g>
<!-- Node85 -->
<g id="node2" class="node">
<title>Node85</title>
<g id="a_node2"><a xlink:href="a00355.html#aeab406fa4ecc249662fa1e2e073341b2" target="_top" xlink:title="CO_Access\\get_single\l_security_record_by_id">
<polygon fill="#ffffff" stroke="#000000" points="161.4922,-134.5 161.4922,-162.5 280.8809,-162.5 280.8809,-134.5 161.4922,-134.5"/>
<text text-anchor="start" x="169.4922" y="-150.5" font-family="Helvetica,sans-Serif" font-size="10.00" fill="#000000">CO_Access\get_single</text>
<text text-anchor="middle" x="221.1865" y="-140.5" font-family="Helvetica,sans-Serif" font-size="10.00" fill="#000000">_security_record_by_id</text>
</a>
</g>
</g>
<!-- Node84&#45;&gt;Node85 -->
<g id="edge1" class="edge">
<title>Node84&#45;&gt;Node85</title>
<path fill="none" stroke="#191970" d="M136.0962,-148.5C144.5782,-148.5 153.1504,-148.5 161.4211,-148.5"/>
<polygon fill="#191970" stroke="#191970" points="135.8212,-145.0001 125.8212,-148.5 135.8212,-152.0001 135.8212,-145.0001"/>
</g>
<!-- Node86 -->
<g id="node3" class="node">
<title>Node86</title>
<g id="a_node3"><a xlink:href="a00355.html#adbc6444fbac916f3a280f4a3ce4f067a" target="_top" xlink:title="CO_Access\\get_login_id">
<polygon fill="#ffffff" stroke="#000000" points="316.8809,-120.5 316.8809,-138.5 442.3877,-138.5 442.3877,-120.5 316.8809,-120.5"/>
<text text-anchor="middle" x="379.6343" y="-126.5" font-family="Helvetica,sans-Serif" font-size="10.00" fill="#000000">CO_Access\get_login_id</text>
</a>
</g>
</g>
<!-- Node85&#45;&gt;Node86 -->
<g id="edge2" class="edge">
<title>Node85&#45;&gt;Node86</title>
<path fill="none" stroke="#191970" d="M291.0399,-140.1237C299.5953,-139.0977 308.2986,-138.0541 316.743,-137.0415"/>
<polygon fill="#191970" stroke="#191970" points="290.601,-136.6511 281.0888,-141.3169 291.4344,-143.6013 290.601,-136.6511"/>
</g>
<!-- Node88 -->
<g id="node5" class="node">
<title>Node88</title>
<g id="a_node5"><a xlink:href="a00355.html#a65c256cad68440723a8de979b1b7a1bb" target="_top" xlink:title="CO_Access\\get_login_item">
<polygon fill="#ffffff" stroke="#000000" points="481.9961,-186.5 481.9961,-204.5 618.6113,-204.5 618.6113,-186.5 481.9961,-186.5"/>
<text text-anchor="middle" x="550.3037" y="-192.5" font-family="Helvetica,sans-Serif" font-size="10.00" fill="#000000">CO_Access\get_login_item</text>
</a>
</g>
</g>
<!-- Node85&#45;&gt;Node88 -->
<g id="edge14" class="edge">
<title>Node85&#45;&gt;Node88</title>
<path fill="none" stroke="#191970" d="M291.3545,-158.5204C349.3812,-166.807 431.0664,-178.4722 487.0889,-186.4725"/>
<polygon fill="#191970" stroke="#191970" points="291.5634,-155.0148 281.169,-157.0659 290.5737,-161.9445 291.5634,-155.0148"/>
</g>
<!-- Node87 -->
<g id="node4" class="node">
<title>Node87</title>
<g id="a_node4"><a xlink:href="a00355.html#a115c46a27b51a3f2226125230fd6183d" target="_top" xlink:title="CO_Access\\get_available\l_tokens">
<polygon fill="#ffffff" stroke="#000000" points="485.0503,-139.5 485.0503,-167.5 615.5571,-167.5 615.5571,-139.5 485.0503,-139.5"/>
<text text-anchor="start" x="493.0503" y="-155.5" font-family="Helvetica,sans-Serif" font-size="10.00" fill="#000000">CO_Access\get_available</text>
<text text-anchor="middle" x="550.3037" y="-145.5" font-family="Helvetica,sans-Serif" font-size="10.00" fill="#000000">_tokens</text>
</a>
</g>
</g>
<!-- Node86&#45;&gt;Node87 -->
<g id="edge3" class="edge">
<title>Node86&#45;&gt;Node87</title>
<path fill="none" stroke="#191970" d="M452.8281,-139.7927C463.4973,-141.293 474.425,-142.8297 484.9256,-144.3064"/>
<polygon fill="#191970" stroke="#191970" points="453.0904,-136.2952 442.7004,-138.3685 452.1155,-143.227 453.0904,-136.2952"/>
</g>
<!-- Node86&#45;&gt;Node88 -->
<g id="edge4" class="edge">
<title>Node86&#45;&gt;Node88</title>
<path fill="none" stroke="#191970" d="M404.4863,-143.3673C424.0887,-153.862 452.3697,-168.0368 478.3877,-177.5 487.8221,-180.9315 498.1837,-183.9429 508.0316,-186.4717"/>
<polygon fill="#191970" stroke="#191970" points="406.0669,-140.2428 395.6085,-138.5478 402.7271,-146.3948 406.0669,-140.2428"/>
</g>
<!-- Node92 -->
<g id="node9" class="node">
<title>Node92</title>
<g id="a_node9"><a xlink:href="a00355.html#aa6f82dc430e7a655e35e09b64c48fa46" target="_top" xlink:title="CO_Access\\get_security_ids">
<polygon fill="#ffffff" stroke="#000000" points="478.3877,-7.5 478.3877,-25.5 622.2197,-25.5 622.2197,-7.5 478.3877,-7.5"/>
<text text-anchor="middle" x="550.3037" y="-13.5" font-family="Helvetica,sans-Serif" font-size="10.00" fill="#000000">CO_Access\get_security_ids</text>
</a>
</g>
</g>
<!-- Node86&#45;&gt;Node92 -->
<g id="edge8" class="edge">
<title>Node86&#45;&gt;Node92</title>
<path fill="none" stroke="#191970" d="M393.0756,-112.5541C410.552,-91.6444 443.0469,-56.4227 478.3877,-36.5 486.5158,-31.9179 495.7605,-28.3312 504.8508,-25.5425"/>
<polygon fill="#191970" stroke="#191970" points="390.3591,-110.347 386.7391,-120.3043 395.7784,-114.7778 390.3591,-110.347"/>
</g>
<!-- Node94 -->
<g id="node11" class="node">
<title>Node94</title>
<g id="a_node11"><a xlink:href="a00299.html#a88b451020a7174eeb0c06e216ca517cf" target="_top" xlink:title="CO_Chameleon\\get_user\l_from_login">
<polygon fill="#ffffff" stroke="#000000" points="485.6045,-92.5 485.6045,-120.5 615.0029,-120.5 615.0029,-92.5 485.6045,-92.5"/>
<text text-anchor="start" x="493.6045" y="-108.5" font-family="Helvetica,sans-Serif" font-size="10.00" fill="#000000">CO_Chameleon\get_user</text>
<text text-anchor="middle" x="550.3037" y="-98.5" font-family="Helvetica,sans-Serif" font-size="10.00" fill="#000000">_from_login</text>
</a>
</g>
</g>
<!-- Node86&#45;&gt;Node94 -->
<g id="edge10" class="edge">
<title>Node86&#45;&gt;Node94</title>
<path fill="none" stroke="#191970" d="M452.6347,-119.6622C463.5593,-118.19 474.7595,-116.6806 485.4986,-115.2334"/>
<polygon fill="#191970" stroke="#191970" points="452.1433,-116.1967 442.7004,-121.001 453.0783,-123.134 452.1433,-116.1967"/>
</g>
<!-- Node95 -->
<g id="node12" class="node">
<title>Node95</title>
<g id="a_node12"><a xlink:href="a00355.html#a2249312ed569b15e5b6b15c0112ce83b" target="_top" xlink:title="CO_Access\\make_new\l_blank_record">
<polygon fill="#ffffff" stroke="#000000" points="490.3384,-45.5 490.3384,-73.5 610.269,-73.5 610.269,-45.5 490.3384,-45.5"/>
<text text-anchor="start" x="498.3384" y="-61.5" font-family="Helvetica,sans-Serif" font-size="10.00" fill="#000000">CO_Access\make_new</text>
<text text-anchor="middle" x="550.3037" y="-51.5" font-family="Helvetica,sans-Serif" font-size="10.00" fill="#000000">_blank_record</text>
</a>
</g>
</g>
<!-- Node86&#45;&gt;Node95 -->
<g id="edge12" class="edge">
<title>Node86&#45;&gt;Node95</title>
<path fill="none" stroke="#191970" d="M406.5419,-115.9526C426.1951,-106.3081 453.6233,-93.3628 478.3877,-83.5 487.0697,-80.0422 496.4677,-76.6564 505.5166,-73.5685"/>
<polygon fill="#191970" stroke="#191970" points="404.9755,-112.8226 397.5644,-120.394 408.0795,-119.0967 404.9755,-112.8226"/>
</g>
<!-- Node89 -->
<g id="node6" class="node">
<title>Node89</title>
<g id="a_node6"><a xlink:href="a00299.html#ac6ba71b99a641f6d19aa0a0d73997234" target="_top" xlink:title="CO_Chameleon\\get_lang">
<polygon fill="#ffffff" stroke="#000000" points="665.4365,-123.5 665.4365,-141.5 794.2881,-141.5 794.2881,-123.5 665.4365,-123.5"/>
<text text-anchor="middle" x="729.8623" y="-129.5" font-family="Helvetica,sans-Serif" font-size="10.00" fill="#000000">CO_Chameleon\get_lang</text>
</a>
</g>
</g>
<!-- Node88&#45;&gt;Node89 -->
<g id="edge5" class="edge">
<title>Node88&#45;&gt;Node89</title>
<path fill="none" stroke="#191970" d="M603.6866,-183.6712C610.0035,-181.8224 616.3033,-179.7638 622.2197,-177.5 639.1168,-171.0348 641.6775,-165.8254 658.2197,-158.5 672.496,-152.178 688.8327,-146.1601 702.2973,-141.5091"/>
<polygon fill="#191970" stroke="#191970" points="602.5053,-180.3663 593.7983,-186.4028 604.3693,-187.1136 602.5053,-180.3663"/>
</g>
<!-- Node90 -->
<g id="node7" class="node">
<title>Node90</title>
<g id="a_node7"><a xlink:href="a00355.html#ae2a40cf404135bb4aae747c37520733e" target="_top" xlink:title="CO_Access\\get_lang">
<polygon fill="#ffffff" stroke="#000000" points="674.8921,-167.5 674.8921,-185.5 784.8325,-185.5 784.8325,-167.5 674.8921,-167.5"/>
<text text-anchor="middle" x="729.8623" y="-173.5" font-family="Helvetica,sans-Serif" font-size="10.00" fill="#000000">CO_Access\get_lang</text>
</a>
</g>
</g>
<!-- Node88&#45;&gt;Node90 -->
<g id="edge6" class="edge">
<title>Node88&#45;&gt;Node90</title>
<path fill="none" stroke="#191970" d="M628.7951,-187.1944C644.2881,-185.555 660.2369,-183.8674 674.7561,-182.3311"/>
<polygon fill="#191970" stroke="#191970" points="628.2755,-183.7298 618.6993,-188.2627 629.0122,-190.6909 628.2755,-183.7298"/>
</g>
<!-- Node91 -->
<g id="node8" class="node">
<title>Node91</title>
<g id="a_node8"><a xlink:href="a00299.html#aa13745bd0d40cac3820bb3ae7f6d5fbb" target="_top" xlink:title="CO_Chameleon\\test_access">
<polygon fill="#ffffff" stroke="#000000" points="658.2197,-204.5 658.2197,-222.5 801.5049,-222.5 801.5049,-204.5 658.2197,-204.5"/>
<text text-anchor="middle" x="729.8623" y="-210.5" font-family="Helvetica,sans-Serif" font-size="10.00" fill="#000000">CO_Chameleon\test_access</text>
</a>
</g>
</g>
<!-- Node88&#45;&gt;Node91 -->
<g id="edge7" class="edge">
<title>Node88&#45;&gt;Node91</title>
<path fill="none" stroke="#191970" d="M628.7691,-203.3658C638.5135,-204.3427 648.4387,-205.3376 658.0755,-206.3037"/>
<polygon fill="#191970" stroke="#191970" points="628.9986,-199.8714 618.6993,-202.3564 628.3003,-206.8365 628.9986,-199.8714"/>
</g>
<!-- Node93 -->
<g id="node10" class="node">
<title>Node93</title>
<g id="a_node10"><a xlink:href="a00355.html#ae548938d26a8e1c2f5378e94d2921419" target="_top" xlink:title="CO_Access\\i_have_this\l_token">
<polygon fill="#ffffff" stroke="#000000" points="668.7813,-.5 668.7813,-28.5 790.9434,-28.5 790.9434,-.5 668.7813,-.5"/>
<text text-anchor="start" x="676.7813" y="-16.5" font-family="Helvetica,sans-Serif" font-size="10.00" fill="#000000">CO_Access\i_have_this</text>
<text text-anchor="middle" x="729.8623" y="-6.5" font-family="Helvetica,sans-Serif" font-size="10.00" fill="#000000">_token</text>
</a>
</g>
</g>
<!-- Node92&#45;&gt;Node93 -->
<g id="edge9" class="edge">
<title>Node92&#45;&gt;Node93</title>
<path fill="none" stroke="#191970" d="M632.4385,-15.5851C644.5813,-15.4499 656.912,-15.3126 668.5334,-15.1831"/>
<polygon fill="#191970" stroke="#191970" points="632.2628,-12.0868 622.3025,-15.698 632.3408,-19.0864 632.2628,-12.0868"/>
</g>
<!-- Node94&#45;&gt;Node89 -->
<g id="edge11" class="edge">
<title>Node94&#45;&gt;Node89</title>
<path fill="none" stroke="#191970" d="M625.2639,-117.3542C639.3325,-119.3913 653.9004,-121.5008 667.5339,-123.4749"/>
<polygon fill="#191970" stroke="#191970" points="625.5269,-113.8559 615.1285,-115.8866 624.5237,-120.7836 625.5269,-113.8559"/>
</g>
<!-- Node96 -->
<g id="node13" class="node">
<title>Node96</title>
<g id="a_node13"><a xlink:href="a00299.html#af193950805884bd481b8863ffd6d4fb1" target="_top" xlink:title="CO_Chameleon\\set_value\l_for_key">
<polygon fill="#ffffff" stroke="#000000" points="663.2173,-47.5 663.2173,-75.5 796.5073,-75.5 796.5073,-47.5 663.2173,-47.5"/>
<text text-anchor="start" x="671.2173" y="-63.5" font-family="Helvetica,sans-Serif" font-size="10.00" fill="#000000">CO_Chameleon\set_value</text>
<text text-anchor="middle" x="729.8623" y="-53.5" font-family="Helvetica,sans-Serif" font-size="10.00" fill="#000000">_for_key</text>
</a>
</g>
</g>
<!-- Node95&#45;&gt;Node96 -->
<g id="edge13" class="edge">
<title>Node95&#45;&gt;Node96</title>
<path fill="none" stroke="#191970" d="M620.6007,-60.283C634.5314,-60.4382 649.1196,-60.6007 662.9345,-60.7545"/>
<polygon fill="#191970" stroke="#191970" points="620.632,-56.7832 610.5936,-60.1715 620.554,-63.7828 620.632,-56.7832"/>
</g>
</g>
</svg>
        <g id="navigator" transform="translate(0 0)" fill="#404254">
                <rect fill="#f2f5e9" fill-opacity="0.5" stroke="#606060" stroke-width=".5" x="0" y="0" width="60" height="60"/>
                <use id="zoomplus" xlink:href="#zoomPlus" x="17" y="9" onmousedown="handleZoom(evt,'in')"/>
                <use id="zoomminus" xlink:href="#zoomMin" x="42" y="9" onmousedown="handleZoom(evt,'out')"/>
                <use id="reset" xlink:href="#resetDef" x="30" y="36" onmousedown="handleReset()"/>
                <g id="arrowUp" xlink:href="#dirArrow" transform="translate(30 24)" onmousedown="handlePan(0,-1)">
                  <use xlink:href="#rim" fill="#404040">
                        <set attributeName="fill" to="#808080" begin="arrowUp.mouseover" end="arrowUp.mouseout"/>
                  </use>
                  <path fill="none" stroke="white" stroke-width="1.5" d="M0,-3.0v7 M-2.5,-0.5L0,-3.0L2.5,-0.5"/>
                </g>
                <g id="arrowRight" xlink:href="#dirArrow" transform="rotate(90) translate(36 -43)" onmousedown="handlePan(1,0)">
                  <use xlink:href="#rim" fill="#404040">
                        <set attributeName="fill" to="#808080" begin="arrowRight.mouseover" end="arrowRight.mouseout"/>
                  </use>
                  <path fill="none" stroke="white" stroke-width="1.5" d="M0,-3.0v7 M-2.5,-0.5L0,-3.0L2.5,-0.5"/>
                </g>
                <g id="arrowDown" xlink:href="#dirArrow" transform="rotate(180) translate(-30 -48)" onmousedown="handlePan(0,1)">
                  <use xlink:href="#rim" fill="#404040">
                        <set attributeName="fill" to="#808080" begin="arrowDown.mouseover" end="arrowDown.mouseout"/>
                  </use>
                  <path fill="none" stroke="white" stroke-width="1.5" d="M0,-3.0v7 M-2.5,-0.5L0,-3.0L2.5,-0.5"/>
                </g>
                <g id="arrowLeft" xlink:href="#dirArrow" transform="rotate(270) translate(-36 17)" onmousedown="handlePan(-1,0)">
                  <use xlink:href="#rim" fill="#404040">
                        <set attributeName="fill" to="#808080" begin="arrowLeft.mouseover" end="arrowLeft.mouseout"/>
                  </use>
                  <path fill="none" stroke="white" stroke-width="1.5" d="M0,-3.0v7 M-2.5,-0.5L0,-3.0L2.5,-0.5"/>
                </g>
        </g>
        <svg viewBox="0 0 15 15" width="100%" height="30px" preserveAspectRatio="xMaxYMin meet">
         <g id="arrow_out" transform="scale(0.3 0.3)">
          <a xlink:href="a00355_a34c23aea84d5c32e600c512167c3497d_icgraph_org.svg" target="_base">
           <rect id="button" ry="5" rx="5" y="6" x="6" height="38" width="38"
                fill="#f2f5e9" fill-opacity="0.5" stroke="#606060" stroke-width="1.0"/>
           <path id="arrow"
             d="M 11.500037,31.436501 C 11.940474,20.09759 22.043105,11.32322 32.158766,21.979434 L 37.068811,17.246167 C 37.068811,17.246167 37.088388,32 37.088388,32 L 22.160133,31.978069 C 22.160133,31.978069 26.997745,27.140456 26.997745,27.140456 C 18.528582,18.264221 13.291696,25.230495 11.500037,31.436501 z"
             style="fill:#404040;"/>
          </a>
         </g>
        </svg>
</svg>
