<?xml version="1.0" encoding="UTF-8" standalone="no"?>
<!DOCTYPE svg PUBLIC "-//W3C//DTD SVG 1.1//EN"
 "http://www.w3.org/Graphics/SVG/1.1/DTD/svg11.dtd">
<!-- Generated by graphviz version 2.40.1 (20161225.0304)
 -->
<!-- Title: CO_Security_Login\is_login_valid Pages: 1 -->
<svg width="420pt" height="131pt"
 viewBox="0.00 0.00 419.82 131.00" xmlns="http://www.w3.org/2000/svg" xmlns:xlink="http://www.w3.org/1999/xlink">
<g id="graph0" class="graph" transform="scale(1 1) rotate(0) translate(4 127)">
<title>CO_Security_Login\is_login_valid</title>
<polygon fill="#ffffff" stroke="transparent" points="-4,4 -4,-127 415.8213,-127 415.8213,4 -4,4"/>
<!-- Node1 -->
<g id="node1" class="node">
<title>Node1</title>
<g id="a_node1"><a xlink:title=" ">
<polygon fill="#bfbfbf" stroke="#000000" points="0,-47.5 0,-75.5 112.7139,-75.5 112.7139,-47.5 0,-47.5"/>
<text text-anchor="start" x="8" y="-63.5" font-family="Helvetica,sans-Serif" font-size="10.00" fill="#000000">CO_Security_Login\is</text>
<text text-anchor="middle" x="56.3569" y="-53.5" font-family="Helvetica,sans-Serif" font-size="10.00" fill="#000000">_login_valid</text>
</a>
</g>
</g>
<!-- Node2 -->
<g id="node2" class="node">
<title>Node2</title>
<g id="a_node2"><a xlink:href="a00340.html#a5f57991e29b7602070594328676cfbb8" target="_top" xlink:title=" ">
<polygon fill="#ffffff" stroke="#000000" points="155.6646,-94.5 155.6646,-122.5 261.1567,-122.5 261.1567,-94.5 155.6646,-94.5"/>
<text text-anchor="start" x="163.6646" y="-110.5" font-family="Helvetica,sans-Serif" font-size="10.00" fill="#000000">CO_Security_Login\</text>
<text text-anchor="middle" x="208.4106" y="-100.5" font-family="Helvetica,sans-Serif" font-size="10.00" fill="#000000">_set_up_api_key</text>
</a>
</g>
</g>
<!-- Node1&#45;&gt;Node2 -->
<g id="edge1" class="edge">
<title>Node1&#45;&gt;Node2</title>
<path fill="none" stroke="#191970" d="M101.9781,-75.6015C118.1388,-80.5969 136.4941,-86.2705 153.3562,-91.4826"/>
<polygon fill="#191970" stroke="#191970" points="152.4963,-94.8801 163.0839,-94.4894 154.5635,-88.1923 152.4963,-94.8801"/>
</g>
<!-- Node4 -->
<g id="node4" class="node">
<title>Node4</title>
<g id="a_node4"><a xlink:href="a00340.html#aecb158735e3a185c0857c44bf60f45f0" target="_top" xlink:title=" ">
<polygon fill="#ffffff" stroke="#000000" points="148.7139,-47.5 148.7139,-75.5 268.1074,-75.5 268.1074,-47.5 148.7139,-47.5"/>
<text text-anchor="start" x="156.7139" y="-63.5" font-family="Helvetica,sans-Serif" font-size="10.00" fill="#000000">CO_Security_Login\get</text>
<text text-anchor="middle" x="208.4106" y="-53.5" font-family="Helvetica,sans-Serif" font-size="10.00" fill="#000000">_api_key</text>
</a>
</g>
</g>
<!-- Node1&#45;&gt;Node4 -->
<g id="edge3" class="edge">
<title>Node1&#45;&gt;Node4</title>
<path fill="none" stroke="#191970" d="M112.9761,-61.5C121.3511,-61.5 130.0628,-61.5 138.6664,-61.5"/>
<polygon fill="#191970" stroke="#191970" points="138.6901,-65.0001 148.6901,-61.5 138.69,-58.0001 138.6901,-65.0001"/>
</g>
<!-- Node6 -->
<g id="node6" class="node">
<title>Node6</title>
<g id="a_node6"><a xlink:href="a00340.html#a615bc63ad75ff08982eeb0c1a2da7243" target="_top" xlink:title=" ">
<polygon fill="#ffffff" stroke="#000000" points="148.7139,-.5 148.7139,-28.5 268.1074,-28.5 268.1074,-.5 148.7139,-.5"/>
<text text-anchor="start" x="156.7139" y="-16.5" font-family="Helvetica,sans-Serif" font-size="10.00" fill="#000000">CO_Security_Login\get</text>
<text text-anchor="middle" x="208.4106" y="-6.5" font-family="Helvetica,sans-Serif" font-size="10.00" fill="#000000">_crypted_password</text>
</a>
</g>
</g>
<!-- Node1&#45;&gt;Node6 -->
<g id="edge5" class="edge">
<title>Node1&#45;&gt;Node6</title>
<path fill="none" stroke="#191970" d="M101.9781,-47.3985C118.1388,-42.4031 136.4941,-36.7295 153.3562,-31.5174"/>
<polygon fill="#191970" stroke="#191970" points="154.5635,-34.8077 163.0839,-28.5106 152.4963,-28.1199 154.5635,-34.8077"/>
</g>
<!-- Node3 -->
<g id="node3" class="node">
<title>Node3</title>
<g id="a_node3"><a xlink:href="a00340.html#af0f76c1ede1e466e91739fada248c0f2" target="_top" xlink:title=" ">
<polygon fill="#ffffff" stroke="#000000" points="305.2183,-94.5 305.2183,-122.5 410.7104,-122.5 410.7104,-94.5 305.2183,-94.5"/>
<text text-anchor="start" x="313.2183" y="-110.5" font-family="Helvetica,sans-Serif" font-size="10.00" fill="#000000">CO_Security_Login\</text>
<text text-anchor="middle" x="357.9644" y="-100.5" font-family="Helvetica,sans-Serif" font-size="10.00" fill="#000000">_random_str</text>
</a>
</g>
</g>
<!-- Node2&#45;&gt;Node3 -->
<g id="edge2" class="edge">
<title>Node2&#45;&gt;Node3</title>
<path fill="none" stroke="#191970" d="M261.5588,-108.5C272.3578,-108.5 283.8152,-108.5 294.9188,-108.5"/>
<polygon fill="#191970" stroke="#191970" points="294.9874,-112.0001 304.9874,-108.5 294.9873,-105.0001 294.9874,-112.0001"/>
</g>
<!-- Node5 -->
<g id="node5" class="node">
<title>Node5</title>
<g id="a_node5"><a xlink:href="a00340.html#a03304936652c2c606c411c7c6a0f0c7f" target="_top" xlink:title=" ">
<polygon fill="#ffffff" stroke="#000000" points="304.1074,-47.5 304.1074,-75.5 411.8213,-75.5 411.8213,-47.5 304.1074,-47.5"/>
<text text-anchor="start" x="312.1074" y="-63.5" font-family="Helvetica,sans-Serif" font-size="10.00" fill="#000000">CO_Security_Login\i</text>
<text text-anchor="middle" x="357.9644" y="-53.5" font-family="Helvetica,sans-Serif" font-size="10.00" fill="#000000">_am_a_god</text>
</a>
</g>
</g>
<!-- Node4&#45;&gt;Node5 -->
<g id="edge4" class="edge">
<title>Node4&#45;&gt;Node5</title>
<path fill="none" stroke="#191970" d="M268.3781,-61.5C276.6975,-61.5 285.2716,-61.5 293.666,-61.5"/>
<polygon fill="#191970" stroke="#191970" points="293.7871,-65.0001 303.787,-61.5 293.787,-58.0001 293.7871,-65.0001"/>
</g>
</g>
</svg>
