<?xml version="1.0" encoding="UTF-8" standalone="no"?>
<!DOCTYPE svg PUBLIC "-//W3C//DTD SVG 1.1//EN"
 "http://www.w3.org/Graphics/SVG/1.1/DTD/svg11.dtd">
<!-- Generated by graphviz version 2.40.1 (20161225.0304)
 -->
<!-- Title: CO_Security_Login\get_api_key Pages: 1 -->
<svg width="276pt" height="84pt"
 viewBox="0.00 0.00 276.11 84.00" xmlns="http://www.w3.org/2000/svg" xmlns:xlink="http://www.w3.org/1999/xlink">
<g id="graph0" class="graph" transform="scale(1 1) rotate(0) translate(4 80)">
<title>CO_Security_Login\get_api_key</title>
<polygon fill="#ffffff" stroke="transparent" points="-4,4 -4,-80 272.1074,-80 272.1074,4 -4,4"/>
<!-- Node32 -->
<g id="node1" class="node">
<title>Node32</title>
<polygon fill="#bfbfbf" stroke="#000000" points="0,-23.5 0,-51.5 119.3936,-51.5 119.3936,-23.5 0,-23.5"/>
<text text-anchor="start" x="8" y="-39.5" font-family="Helvetica,sans-Serif" font-size="10.00" fill="#000000">CO_Security_Login\get</text>
<text text-anchor="middle" x="59.6968" y="-29.5" font-family="Helvetica,sans-Serif" font-size="10.00" fill="#000000">_api_key</text>
</g>
<!-- Node33 -->
<g id="node2" class="node">
<title>Node33</title>
<g id="a_node2"><a xlink:href="a00343.html#aa5c815210d09779bd16fc72ddd0fce59" target="_top" xlink:title="CO_Security_Login\\is\l_api_key_valid">
<polygon fill="#ffffff" stroke="#000000" points="155.3936,-47.5 155.3936,-75.5 268.1074,-75.5 268.1074,-47.5 155.3936,-47.5"/>
<text text-anchor="start" x="163.3936" y="-63.5" font-family="Helvetica,sans-Serif" font-size="10.00" fill="#000000">CO_Security_Login\is</text>
<text text-anchor="middle" x="211.7505" y="-53.5" font-family="Helvetica,sans-Serif" font-size="10.00" fill="#000000">_api_key_valid</text>
</a>
</g>
</g>
<!-- Node32&#45;&gt;Node33 -->
<g id="edge1" class="edge">
<title>Node32&#45;&gt;Node33</title>
<path fill="none" stroke="#191970" d="M129.6958,-48.5486C138.1935,-49.8898 146.7922,-51.2471 155.0637,-52.5526"/>
<polygon fill="#191970" stroke="#191970" points="130.2159,-45.0874 119.7924,-46.9854 129.1244,-52.0018 130.2159,-45.0874"/>
</g>
<!-- Node34 -->
<g id="node3" class="node">
<title>Node34</title>
<g id="a_node3"><a xlink:href="a00343.html#a5ec502fbeb3620816dbcf4868da637e8" target="_top" xlink:title="CO_Security_Login\\is\l_login_valid">
<polygon fill="#ffffff" stroke="#000000" points="155.3936,-.5 155.3936,-28.5 268.1074,-28.5 268.1074,-.5 155.3936,-.5"/>
<text text-anchor="start" x="163.3936" y="-16.5" font-family="Helvetica,sans-Serif" font-size="10.00" fill="#000000">CO_Security_Login\is</text>
<text text-anchor="middle" x="211.7505" y="-6.5" font-family="Helvetica,sans-Serif" font-size="10.00" fill="#000000">_login_valid</text>
</a>
</g>
</g>
<!-- Node32&#45;&gt;Node34 -->
<g id="edge2" class="edge">
<title>Node32&#45;&gt;Node34</title>
<path fill="none" stroke="#191970" d="M129.6958,-26.9118C138.1935,-25.6264 146.7922,-24.3257 155.0637,-23.0746"/>
<polygon fill="#191970" stroke="#191970" points="129.1565,-23.4535 119.7924,-28.4098 130.2034,-30.3747 129.1565,-23.4535"/>
</g>
</g>
</svg>
