<?xml version="1.0" encoding="UTF-8" standalone="no"?>
<!DOCTYPE svg PUBLIC "-//W3C//DTD SVG 1.1//EN"
 "http://www.w3.org/Graphics/SVG/1.1/DTD/svg11.dtd">
<!-- Generated by graphviz version 2.40.1 (20161225.0304)
 -->
<!-- Title: A_CO_DB\can_i_see_this_record Pages: 1 -->
<svg width="488pt" height="121pt"
 viewBox="0.00 0.00 487.63 121.00" xmlns="http://www.w3.org/2000/svg" xmlns:xlink="http://www.w3.org/1999/xlink">
<g id="graph0" class="graph" transform="scale(1 1) rotate(0) translate(4 117)">
<title>A_CO_DB\can_i_see_this_record</title>
<polygon fill="#ffffff" stroke="transparent" points="-4,4 -4,-117 483.6338,-117 483.6338,4 -4,4"/>
<!-- Node104 -->
<g id="node1" class="node">
<title>Node104</title>
<polygon fill="#bfbfbf" stroke="#000000" points="0,-16.5 0,-44.5 132.1768,-44.5 132.1768,-16.5 0,-16.5"/>
<text text-anchor="start" x="8" y="-32.5" font-family="Helvetica,sans-Serif" font-size="10.00" fill="#000000">A_CO_DB\can_i_see_this</text>
<text text-anchor="middle" x="66.0884" y="-22.5" font-family="Helvetica,sans-Serif" font-size="10.00" fill="#000000">_record</text>
</g>
<!-- Node105 -->
<g id="node2" class="node">
<title>Node105</title>
<g id="a_node2"><a xlink:href="a00307.html#ad2356dbed1b38898d8c17bcd8eb405ef" target="_top" xlink:title="A_CO_DB\\_create_security\l_predicate">
<polygon fill="#ffffff" stroke="#000000" points="168.1768,-37.5 168.1768,-65.5 307.0088,-65.5 307.0088,-37.5 168.1768,-37.5"/>
<text text-anchor="start" x="176.1768" y="-53.5" font-family="Helvetica,sans-Serif" font-size="10.00" fill="#000000">A_CO_DB\_create_security</text>
<text text-anchor="middle" x="237.5928" y="-43.5" font-family="Helvetica,sans-Serif" font-size="10.00" fill="#000000">_predicate</text>
</a>
</g>
</g>
<!-- Node104&#45;&gt;Node105 -->
<g id="edge1" class="edge">
<title>Node104&#45;&gt;Node105</title>
<path fill="none" stroke="#191970" d="M132.3965,-38.6191C140.7974,-39.6478 149.4612,-40.7087 158.0417,-41.7593"/>
<polygon fill="#191970" stroke="#191970" points="157.7043,-45.244 168.0556,-42.9855 158.5551,-38.2959 157.7043,-45.244"/>
</g>
<!-- Node108 -->
<g id="node5" class="node">
<title>Node108</title>
<g id="a_node5"><a xlink:href="a00307.html#a2396849660aa4ff018ab7509a4badeb5" target="_top" xlink:title="A_CO_DB\\execute_query">
<polygon fill="#ffffff" stroke="#000000" points="172.061,-.5 172.061,-18.5 303.1245,-18.5 303.1245,-.5 172.061,-.5"/>
<text text-anchor="middle" x="237.5928" y="-6.5" font-family="Helvetica,sans-Serif" font-size="10.00" fill="#000000">A_CO_DB\execute_query</text>
</a>
</g>
</g>
<!-- Node104&#45;&gt;Node108 -->
<g id="edge4" class="edge">
<title>Node104&#45;&gt;Node108</title>
<path fill="none" stroke="#191970" d="M132.3965,-22.3809C142.0508,-21.1987 152.0522,-19.9741 161.8755,-18.7713"/>
<polygon fill="#191970" stroke="#191970" points="162.5255,-22.2179 172.0259,-17.5284 161.6747,-15.2698 162.5255,-22.2179"/>
</g>
<!-- Node106 -->
<g id="node3" class="node">
<title>Node106</title>
<g id="a_node3"><a xlink:href="a00307.html#a176b2c663fa7768e95e4fbe93281adc6" target="_top" xlink:title="A_CO_DB\\_create_read\l_security_predicate">
<polygon fill="#ffffff" stroke="#000000" points="349.1245,-84.5 349.1245,-112.5 473.5181,-112.5 473.5181,-84.5 349.1245,-84.5"/>
<text text-anchor="start" x="357.1245" y="-100.5" font-family="Helvetica,sans-Serif" font-size="10.00" fill="#000000">A_CO_DB\_create_read</text>
<text text-anchor="middle" x="411.3213" y="-90.5" font-family="Helvetica,sans-Serif" font-size="10.00" fill="#000000">_security_predicate</text>
</a>
</g>
</g>
<!-- Node105&#45;&gt;Node106 -->
<g id="edge2" class="edge">
<title>Node105&#45;&gt;Node106</title>
<path fill="none" stroke="#191970" d="M289.7171,-65.6015C308.6129,-70.7136 330.1346,-76.536 349.7665,-81.8472"/>
<polygon fill="#191970" stroke="#191970" points="348.9663,-85.2564 359.5334,-84.4894 350.7944,-78.4993 348.9663,-85.2564"/>
</g>
<!-- Node107 -->
<g id="node4" class="node">
<title>Node107</title>
<g id="a_node4"><a xlink:href="a00307.html#ad4bc3d416f085818935b32a814313202" target="_top" xlink:title="A_CO_DB\\_create_write\l_security_predicate">
<polygon fill="#ffffff" stroke="#000000" points="348.5752,-37.5 348.5752,-65.5 474.0674,-65.5 474.0674,-37.5 348.5752,-37.5"/>
<text text-anchor="start" x="356.5752" y="-53.5" font-family="Helvetica,sans-Serif" font-size="10.00" fill="#000000">A_CO_DB\_create_write</text>
<text text-anchor="middle" x="411.3213" y="-43.5" font-family="Helvetica,sans-Serif" font-size="10.00" fill="#000000">_security_predicate</text>
</a>
</g>
</g>
<!-- Node105&#45;&gt;Node107 -->
<g id="edge3" class="edge">
<title>Node105&#45;&gt;Node107</title>
<path fill="none" stroke="#191970" d="M307.2538,-51.5C317.4489,-51.5 327.9735,-51.5 338.2348,-51.5"/>
<polygon fill="#191970" stroke="#191970" points="338.3864,-55.0001 348.3864,-51.5 338.3864,-48.0001 338.3864,-55.0001"/>
</g>
<!-- Node109 -->
<g id="node6" class="node">
<title>Node109</title>
<g id="a_node6"><a xlink:href="a00307.html#ae41efbdfe739934823b5f4c785b22611" target="_top" xlink:title="A_CO_DB\\_execute_query">
<polygon fill="#ffffff" stroke="#000000" points="343.0088,-.5 343.0088,-18.5 479.6338,-18.5 479.6338,-.5 343.0088,-.5"/>
<text text-anchor="middle" x="411.3213" y="-6.5" font-family="Helvetica,sans-Serif" font-size="10.00" fill="#000000">A_CO_DB\_execute_query</text>
</a>
</g>
</g>
<!-- Node108&#45;&gt;Node109 -->
<g id="edge5" class="edge">
<title>Node108&#45;&gt;Node109</title>
<path fill="none" stroke="#191970" d="M303.2721,-9.5C312.8996,-9.5 322.8969,-9.5 332.7506,-9.5"/>
<polygon fill="#191970" stroke="#191970" points="332.9456,-13.0001 342.9456,-9.5 332.9455,-6.0001 332.9456,-13.0001"/>
</g>
</g>
</svg>
