<?xml version="1.0" encoding="UTF-8" standalone="no"?>
<!DOCTYPE svg PUBLIC "-//W3C//DTD SVG 1.1//EN"
 "http://www.w3.org/Graphics/SVG/1.1/DTD/svg11.dtd">
<!-- Generated by graphviz version 2.40.1 (20161225.0304)
 -->
<!-- Title: CO_Access\make_new_blank_record Pages: 1 -->
<svg width="297pt" height="37pt"
 viewBox="0.00 0.00 297.22 37.00" xmlns="http://www.w3.org/2000/svg" xmlns:xlink="http://www.w3.org/1999/xlink">
<g id="graph0" class="graph" transform="scale(1 1) rotate(0) translate(4 33)">
<title>CO_Access\make_new_blank_record</title>
<polygon fill="#ffffff" stroke="transparent" points="-4,4 -4,-33 293.2207,-33 293.2207,4 -4,4"/>
<!-- Node1 -->
<g id="node1" class="node">
<title>Node1</title>
<g id="a_node1"><a xlink:title=" ">
<polygon fill="#bfbfbf" stroke="#000000" points="169.29,-.5 169.29,-28.5 289.2207,-28.5 289.2207,-.5 169.29,-.5"/>
<text text-anchor="start" x="177.29" y="-16.5" font-family="Helvetica,sans-Serif" font-size="10.00" fill="#000000">CO_Access\make_new</text>
<text text-anchor="middle" x="229.2554" y="-6.5" font-family="Helvetica,sans-Serif" font-size="10.00" fill="#000000">_blank_record</text>
</a>
</g>
</g>
<!-- Node2 -->
<g id="node2" class="node">
<title>Node2</title>
<g id="a_node2"><a xlink:href="a00296.html#af193950805884bd481b8863ffd6d4fb1" target="_top" xlink:title=" ">
<polygon fill="#ffffff" stroke="#000000" points="0,-.5 0,-28.5 133.29,-28.5 133.29,-.5 0,-.5"/>
<text text-anchor="start" x="8" y="-16.5" font-family="Helvetica,sans-Serif" font-size="10.00" fill="#000000">CO_Chameleon\set_value</text>
<text text-anchor="middle" x="66.645" y="-6.5" font-family="Helvetica,sans-Serif" font-size="10.00" fill="#000000">_for_key</text>
</a>
</g>
</g>
<!-- Node1&#45;&gt;Node2 -->
<g id="edge1" class="edge">
<title>Node1&#45;&gt;Node2</title>
<path fill="none" stroke="#191970" d="M158.9148,-14.5C150.4225,-14.5 141.7677,-14.5 133.3302,-14.5"/>
<polygon fill="#191970" stroke="#191970" points="159.1673,-18.0001 169.1673,-14.5 159.1672,-11.0001 159.1673,-18.0001"/>
</g>
</g>
</svg>
