<?xml version="1.0" encoding="UTF-8" standalone="no"?>
<!DOCTYPE svg PUBLIC "-//W3C//DTD SVG 1.1//EN"
 "http://www.w3.org/Graphics/SVG/1.1/DTD/svg11.dtd">
<!-- Generated by graphviz version 2.40.1 (20161225.0304)
 -->
<!-- Title: A_CO_DB\_execute_query Pages: 1 -->
<svg width="662pt" height="957pt"
 viewBox="0.00 0.00 661.95 957.00" xmlns="http://www.w3.org/2000/svg" xmlns:xlink="http://www.w3.org/1999/xlink">
<g id="graph0" class="graph" transform="scale(1 1) rotate(0) translate(4 953)">
<title>A_CO_DB\_execute_query</title>
<polygon fill="#ffffff" stroke="transparent" points="-4,4 -4,-953 657.9531,-953 657.9531,4 -4,4"/>
<!-- Node65 -->
<g id="node1" class="node">
<title>Node65</title>
<polygon fill="#bfbfbf" stroke="#000000" points="0,-495.5 0,-513.5 136.625,-513.5 136.625,-495.5 0,-495.5"/>
<text text-anchor="middle" x="68.3125" y="-501.5" font-family="Helvetica,sans-Serif" font-size="10.00" fill="#000000">A_CO_DB\_execute_query</text>
</g>
<!-- Node66 -->
<g id="node2" class="node">
<title>Node66</title>
<g id="a_node2"><a xlink:href="a00307.html#a2396849660aa4ff018ab7509a4badeb5" target="_top" xlink:title="A_CO_DB\\execute_query">
<polygon fill="#ffffff" stroke="#000000" points="172.625,-495.5 172.625,-513.5 303.6885,-513.5 303.6885,-495.5 172.625,-495.5"/>
<text text-anchor="middle" x="238.1567" y="-501.5" font-family="Helvetica,sans-Serif" font-size="10.00" fill="#000000">A_CO_DB\execute_query</text>
</a>
</g>
</g>
<!-- Node65&#45;&gt;Node66 -->
<g id="edge1" class="edge">
<title>Node65&#45;&gt;Node66</title>
<path fill="none" stroke="#191970" d="M146.9305,-504.5C155.5226,-504.5 164.2012,-504.5 172.612,-504.5"/>
<polygon fill="#191970" stroke="#191970" points="146.9051,-501.0001 136.9051,-504.5 146.905,-508.0001 146.9051,-501.0001"/>
</g>
<!-- Node67 -->
<g id="node3" class="node">
<title>Node67</title>
<g id="a_node3"><a xlink:href="a00307.html#a4b86c0613b521ffdbbd62f8928ad07f8" target="_top" xlink:title="A_CO_DB\\get_db_backup">
<polygon fill="#ffffff" stroke="#000000" points="343.0161,-930.5 343.0161,-948.5 476.8726,-948.5 476.8726,-930.5 343.0161,-930.5"/>
<text text-anchor="middle" x="409.9443" y="-936.5" font-family="Helvetica,sans-Serif" font-size="10.00" fill="#000000">A_CO_DB\get_db_backup</text>
</a>
</g>
</g>
<!-- Node66&#45;&gt;Node67 -->
<g id="edge2" class="edge">
<title>Node66&#45;&gt;Node67</title>
<path fill="none" stroke="#191970" d="M240.227,-523.7187C248.5807,-597.7561 282.1477,-863.2659 339.6885,-921.5 343.2284,-925.0826 347.3773,-927.9851 351.8585,-930.3325"/>
<polygon fill="#191970" stroke="#191970" points="243.6796,-523.0966 239.1029,-513.5413 236.7219,-523.8651 243.6796,-523.0966"/>
</g>
<!-- Node68 -->
<g id="node4" class="node">
<title>Node68</title>
<g id="a_node4"><a xlink:href="a00307.html#a707e7cfdbea32a3713320dbca46dac64" target="_top" xlink:title="A_CO_DB\\get_access\l_class_by_id">
<polygon fill="#ffffff" stroke="#000000" points="351.9199,-883.5 351.9199,-911.5 467.9688,-911.5 467.9688,-883.5 351.9199,-883.5"/>
<text text-anchor="start" x="359.9199" y="-899.5" font-family="Helvetica,sans-Serif" font-size="10.00" fill="#000000">A_CO_DB\get_access</text>
<text text-anchor="middle" x="409.9443" y="-889.5" font-family="Helvetica,sans-Serif" font-size="10.00" fill="#000000">_class_by_id</text>
</a>
</g>
</g>
<!-- Node66&#45;&gt;Node68 -->
<g id="edge3" class="edge">
<title>Node66&#45;&gt;Node68</title>
<path fill="none" stroke="#191970" d="M241.0446,-524.0499C251.5654,-592.8102 289.8514,-822.1821 339.6885,-874.5 343.2293,-878.2171 347.3789,-881.3342 351.8605,-883.9479"/>
<polygon fill="#191970" stroke="#191970" points="244.4504,-523.1617 239.5006,-513.7942 237.5284,-524.2039 244.4504,-523.1617"/>
</g>
<!-- Node69 -->
<g id="node5" class="node">
<title>Node69</title>
<g id="a_node5"><a xlink:href="a00307.html#af6baed01812f38acbc19df4b00f443b2" target="_top" xlink:title="A_CO_DB\\can_i_see_this\l_record">
<polygon fill="#ffffff" stroke="#000000" points="343.856,-836.5 343.856,-864.5 476.0327,-864.5 476.0327,-836.5 343.856,-836.5"/>
<text text-anchor="start" x="351.856" y="-852.5" font-family="Helvetica,sans-Serif" font-size="10.00" fill="#000000">A_CO_DB\can_i_see_this</text>
<text text-anchor="middle" x="409.9443" y="-842.5" font-family="Helvetica,sans-Serif" font-size="10.00" fill="#000000">_record</text>
</a>
</g>
</g>
<!-- Node66&#45;&gt;Node69 -->
<g id="edge4" class="edge">
<title>Node66&#45;&gt;Node69</title>
<path fill="none" stroke="#191970" d="M241.7786,-523.5548C253.9854,-585.9385 295.3453,-782.6297 339.6885,-827.5 343.1166,-830.9689 347.075,-833.9147 351.3307,-836.4163"/>
<polygon fill="#191970" stroke="#191970" points="245.1766,-522.6914 239.8444,-513.5362 238.3035,-524.0184 245.1766,-522.6914"/>
</g>
<!-- Node70 -->
<g id="node6" class="node">
<title>Node70</title>
<g id="a_node6"><a xlink:href="a00307.html#af62a0d273b69bdf1f5012f88e619cec7" target="_top" xlink:title="A_CO_DB\\get_single\l_raw_row_by_id">
<polygon fill="#ffffff" stroke="#000000" points="354.4175,-789.5 354.4175,-817.5 465.4712,-817.5 465.4712,-789.5 354.4175,-789.5"/>
<text text-anchor="start" x="362.4175" y="-805.5" font-family="Helvetica,sans-Serif" font-size="10.00" fill="#000000">A_CO_DB\get_single</text>
<text text-anchor="middle" x="409.9443" y="-795.5" font-family="Helvetica,sans-Serif" font-size="10.00" fill="#000000">_raw_row_by_id</text>
</a>
</g>
</g>
<!-- Node66&#45;&gt;Node70 -->
<g id="edge5" class="edge">
<title>Node66&#45;&gt;Node70</title>
<path fill="none" stroke="#191970" d="M239.6028,-523.6482C244.3818,-573.3185 264.0029,-707.5004 339.6885,-780.5 343.9378,-784.5985 348.9283,-787.9667 354.2566,-790.7347"/>
<polygon fill="#191970" stroke="#191970" points="243.0866,-523.3089 238.7368,-513.6482 236.1128,-523.9129 243.0866,-523.3089"/>
</g>
<!-- Node71 -->
<g id="node7" class="node">
<title>Node71</title>
<g id="a_node7"><a xlink:href="a00307.html#aaca8bf49257aa5ade3c354ef76119fa4" target="_top" xlink:title="A_CO_DB\\get_multiple\l_records_by_id">
<polygon fill="#ffffff" stroke="#000000" points="350.2524,-742.5 350.2524,-770.5 469.6362,-770.5 469.6362,-742.5 350.2524,-742.5"/>
<text text-anchor="start" x="358.2524" y="-758.5" font-family="Helvetica,sans-Serif" font-size="10.00" fill="#000000">A_CO_DB\get_multiple</text>
<text text-anchor="middle" x="409.9443" y="-748.5" font-family="Helvetica,sans-Serif" font-size="10.00" fill="#000000">_records_by_id</text>
</a>
</g>
</g>
<!-- Node66&#45;&gt;Node71 -->
<g id="edge6" class="edge">
<title>Node66&#45;&gt;Node71</title>
<path fill="none" stroke="#191970" d="M241.2773,-523.8505C249.3483,-567.6325 274.9853,-675.0197 339.6885,-733.5 343.4971,-736.9423 347.8307,-739.8704 352.4323,-742.3609"/>
<polygon fill="#191970" stroke="#191970" points="244.7151,-523.1902 239.5547,-513.9371 237.8184,-524.3887 244.7151,-523.1902"/>
</g>
<!-- Node73 -->
<g id="node9" class="node">
<title>Node73</title>
<g id="a_node9"><a xlink:href="a00307.html#a6ccca3e1b18f58a3d4a4ad6018f067b1" target="_top" xlink:title="A_CO_DB\\get_all_readable\l_records">
<polygon fill="#ffffff" stroke="#000000" points="340.2378,-695.5 340.2378,-723.5 479.6509,-723.5 479.6509,-695.5 340.2378,-695.5"/>
<text text-anchor="start" x="348.2378" y="-711.5" font-family="Helvetica,sans-Serif" font-size="10.00" fill="#000000">A_CO_DB\get_all_readable</text>
<text text-anchor="middle" x="409.9443" y="-701.5" font-family="Helvetica,sans-Serif" font-size="10.00" fill="#000000">_records</text>
</a>
</g>
</g>
<!-- Node66&#45;&gt;Node73 -->
<g id="edge8" class="edge">
<title>Node66&#45;&gt;Node73</title>
<path fill="none" stroke="#191970" d="M243.6167,-523.5364C255.1604,-560.4139 285.5329,-641.8803 339.6885,-686.5 343.8487,-689.9277 348.5348,-692.8497 353.4624,-695.3397"/>
<polygon fill="#191970" stroke="#191970" points="246.8644,-522.182 240.6332,-513.6132 240.1608,-524.1975 246.8644,-522.182"/>
</g>
<!-- Node74 -->
<g id="node10" class="node">
<title>Node74</title>
<g id="a_node10"><a xlink:href="a00307.html#a2b39eabcd72a9d79267e51a5f2b16648" target="_top" xlink:title="A_CO_DB\\get_all_writeable\l_records">
<polygon fill="#ffffff" stroke="#000000" points="339.6885,-648.5 339.6885,-676.5 480.2002,-676.5 480.2002,-648.5 339.6885,-648.5"/>
<text text-anchor="start" x="347.6885" y="-664.5" font-family="Helvetica,sans-Serif" font-size="10.00" fill="#000000">A_CO_DB\get_all_writeable</text>
<text text-anchor="middle" x="409.9443" y="-654.5" font-family="Helvetica,sans-Serif" font-size="10.00" fill="#000000">_records</text>
</a>
</g>
</g>
<!-- Node66&#45;&gt;Node74 -->
<g id="edge9" class="edge">
<title>Node66&#45;&gt;Node74</title>
<path fill="none" stroke="#191970" d="M247.0321,-522.5277C262.1325,-551.382 295.5295,-607.8965 339.6885,-639.5 344.4894,-642.9359 349.8333,-645.8796 355.3702,-648.3971"/>
<polygon fill="#191970" stroke="#191970" points="250.123,-520.8843 242.4663,-513.5613 243.8851,-524.0607 250.123,-520.8843"/>
</g>
<!-- Node75 -->
<g id="node11" class="node">
<title>Node75</title>
<g id="a_node11"><a xlink:href="a00307.html#afacdcd578ddc750ca33d2418b54ab6b9" target="_top" xlink:title="A_CO_DB\\lock_record">
<polygon fill="#ffffff" stroke="#000000" points="351.3682,-611.5 351.3682,-629.5 468.5205,-629.5 468.5205,-611.5 351.3682,-611.5"/>
<text text-anchor="middle" x="409.9443" y="-617.5" font-family="Helvetica,sans-Serif" font-size="10.00" fill="#000000">A_CO_DB\lock_record</text>
</a>
</g>
</g>
<!-- Node66&#45;&gt;Node75 -->
<g id="edge10" class="edge">
<title>Node66&#45;&gt;Node75</title>
<path fill="none" stroke="#191970" d="M251.2717,-521.8174C268.9312,-543.9027 302.4649,-581.715 339.6885,-602.5 346.2845,-606.1831 353.648,-609.1285 361.0567,-611.4798"/>
<polygon fill="#191970" stroke="#191970" points="253.8222,-519.3968 244.9084,-513.6701 248.3054,-523.7056 253.8222,-519.3968"/>
</g>
<!-- Node76 -->
<g id="node12" class="node">
<title>Node76</title>
<g id="a_node12"><a xlink:href="a00307.html#acac7eadbd231d714f3eed150eec35838" target="_top" xlink:title="A_CO_DB\\write_record">
<polygon fill="#ffffff" stroke="#000000" points="349.7031,-574.5 349.7031,-592.5 470.1855,-592.5 470.1855,-574.5 349.7031,-574.5"/>
<text text-anchor="middle" x="409.9443" y="-580.5" font-family="Helvetica,sans-Serif" font-size="10.00" fill="#000000">A_CO_DB\write_record</text>
</a>
</g>
</g>
<!-- Node66&#45;&gt;Node76 -->
<g id="edge11" class="edge">
<title>Node66&#45;&gt;Node76</title>
<path fill="none" stroke="#191970" d="M258.9461,-519.464C278.825,-533.1593 310.0727,-553.1213 339.6885,-565.5 348.169,-569.0447 357.5258,-572.0314 366.5695,-574.4902"/>
<polygon fill="#191970" stroke="#191970" points="260.8585,-516.5304 250.6592,-513.6623 256.8438,-522.2647 260.8585,-516.5304"/>
</g>
<!-- Node77 -->
<g id="node13" class="node">
<title>Node77</title>
<g id="a_node13"><a xlink:href="a00307.html#a9794f1140b379f8d09c4265a089fcea0" target="_top" xlink:title="A_CO_DB\\delete_record">
<polygon fill="#ffffff" stroke="#000000" points="346.6367,-537.5 346.6367,-555.5 473.252,-555.5 473.252,-537.5 346.6367,-537.5"/>
<text text-anchor="middle" x="409.9443" y="-543.5" font-family="Helvetica,sans-Serif" font-size="10.00" fill="#000000">A_CO_DB\delete_record</text>
</a>
</g>
</g>
<!-- Node66&#45;&gt;Node77 -->
<g id="edge12" class="edge">
<title>Node66&#45;&gt;Node77</title>
<path fill="none" stroke="#191970" d="M284.8581,-515.9179C312.5164,-522.6801 347.0762,-531.1295 372.8565,-537.4325"/>
<polygon fill="#191970" stroke="#191970" points="285.5546,-512.4852 275.0095,-513.5101 283.8921,-519.2849 285.5546,-512.4852"/>
</g>
<!-- Node78 -->
<g id="node14" class="node">
<title>Node78</title>
<g id="a_node14"><a xlink:href="a00315.html#aad50ae8e57d81015ec1e8601dd2eaba4" target="_top" xlink:title="CO_Main_Data_DB\\item\l_exists">
<polygon fill="#ffffff" stroke="#000000" points="346.9224,-490.5 346.9224,-518.5 472.9663,-518.5 472.9663,-490.5 346.9224,-490.5"/>
<text text-anchor="start" x="354.9224" y="-506.5" font-family="Helvetica,sans-Serif" font-size="10.00" fill="#000000">CO_Main_Data_DB\item</text>
<text text-anchor="middle" x="409.9443" y="-496.5" font-family="Helvetica,sans-Serif" font-size="10.00" fill="#000000">_exists</text>
</a>
</g>
</g>
<!-- Node66&#45;&gt;Node78 -->
<g id="edge13" class="edge">
<title>Node66&#45;&gt;Node78</title>
<path fill="none" stroke="#191970" d="M314.3667,-504.5C325.1827,-504.5 336.2062,-504.5 346.7393,-504.5"/>
<polygon fill="#191970" stroke="#191970" points="314.083,-501.0001 304.083,-504.5 314.083,-508.0001 314.083,-501.0001"/>
</g>
<!-- Node79 -->
<g id="node15" class="node">
<title>Node79</title>
<g id="a_node15"><a xlink:href="a00315.html#a303048d406814c066d27fda70de4ff02" target="_top" xlink:title="CO_Main_Data_DB\\generic\l_search">
<polygon fill="#ffffff" stroke="#000000" points="339.9692,-443.5 339.9692,-471.5 479.9194,-471.5 479.9194,-443.5 339.9692,-443.5"/>
<text text-anchor="start" x="347.9692" y="-459.5" font-family="Helvetica,sans-Serif" font-size="10.00" fill="#000000">CO_Main_Data_DB\generic</text>
<text text-anchor="middle" x="409.9443" y="-449.5" font-family="Helvetica,sans-Serif" font-size="10.00" fill="#000000">_search</text>
</a>
</g>
</g>
<!-- Node66&#45;&gt;Node79 -->
<g id="edge14" class="edge">
<title>Node66&#45;&gt;Node79</title>
<path fill="none" stroke="#191970" d="M280.9834,-492.7829C304.5299,-486.3407 333.9016,-478.3048 358.6642,-471.5299"/>
<polygon fill="#191970" stroke="#191970" points="280.001,-489.423 271.2791,-495.4379 281.8483,-496.1748 280.001,-489.423"/>
</g>
<!-- Node80 -->
<g id="node16" class="node">
<title>Node80</title>
<g id="a_node16"><a xlink:href="a00327.html#a178b936fc390b03173e55cb28d0362f7" target="_top" xlink:title="CO_Security_DB\\get\l_security_ids_for_id">
<polygon fill="#ffffff" stroke="#000000" points="355.5356,-396.5 355.5356,-424.5 464.353,-424.5 464.353,-396.5 355.5356,-396.5"/>
<text text-anchor="start" x="363.5356" y="-412.5" font-family="Helvetica,sans-Serif" font-size="10.00" fill="#000000">CO_Security_DB\get</text>
<text text-anchor="middle" x="409.9443" y="-402.5" font-family="Helvetica,sans-Serif" font-size="10.00" fill="#000000">_security_ids_for_id</text>
</a>
</g>
</g>
<!-- Node66&#45;&gt;Node80 -->
<g id="edge15" class="edge">
<title>Node66&#45;&gt;Node80</title>
<path fill="none" stroke="#191970" d="M256.9497,-489.1828C276.6181,-473.7356 308.8703,-450.0149 339.6885,-434.5 346.9414,-430.8486 354.8794,-427.5409 362.726,-424.6288"/>
<polygon fill="#191970" stroke="#191970" points="254.7311,-486.4753 249.0901,-495.4435 259.0926,-491.9505 254.7311,-486.4753"/>
</g>
<!-- Node81 -->
<g id="node17" class="node">
<title>Node81</title>
<g id="a_node17"><a xlink:href="a00327.html#a3cd67075c3669e321c903e1b935d37a4" target="_top" xlink:title="CO_Security_DB\\i_have\l_all_ids">
<polygon fill="#ffffff" stroke="#000000" points="347.7524,-349.5 347.7524,-377.5 472.1362,-377.5 472.1362,-349.5 347.7524,-349.5"/>
<text text-anchor="start" x="355.7524" y="-365.5" font-family="Helvetica,sans-Serif" font-size="10.00" fill="#000000">CO_Security_DB\i_have</text>
<text text-anchor="middle" x="409.9443" y="-355.5" font-family="Helvetica,sans-Serif" font-size="10.00" fill="#000000">_all_ids</text>
</a>
</g>
</g>
<!-- Node66&#45;&gt;Node81 -->
<g id="edge16" class="edge">
<title>Node66&#45;&gt;Node81</title>
<path fill="none" stroke="#191970" d="M249.0708,-486.8381C265.6492,-461.3993 299.5325,-414.5394 339.6885,-387.5 345.3549,-383.6845 351.6864,-380.4201 358.1646,-377.6423"/>
<polygon fill="#191970" stroke="#191970" points="246.0044,-485.1375 243.5872,-495.453 251.9096,-488.8964 246.0044,-485.1375"/>
</g>
<!-- Node82 -->
<g id="node18" class="node">
<title>Node82</title>
<g id="a_node18"><a xlink:href="a00327.html#a89e505e3f61a75590a72969b16e97bea" target="_top" xlink:title="CO_Security_DB\\get\l_all_tokens">
<polygon fill="#ffffff" stroke="#000000" points="355.5356,-302.5 355.5356,-330.5 464.353,-330.5 464.353,-302.5 355.5356,-302.5"/>
<text text-anchor="start" x="363.5356" y="-318.5" font-family="Helvetica,sans-Serif" font-size="10.00" fill="#000000">CO_Security_DB\get</text>
<text text-anchor="middle" x="409.9443" y="-308.5" font-family="Helvetica,sans-Serif" font-size="10.00" fill="#000000">_all_tokens</text>
</a>
</g>
</g>
<!-- Node66&#45;&gt;Node82 -->
<g id="edge17" class="edge">
<title>Node66&#45;&gt;Node82</title>
<path fill="none" stroke="#191970" d="M244.9191,-485.5368C257.9712,-451.5786 289.8257,-380.2331 339.6885,-340.5 344.527,-336.6444 350.021,-333.3909 355.7546,-330.6493"/>
<polygon fill="#191970" stroke="#191970" points="241.5453,-484.568 241.3431,-495.1609 248.107,-487.0062 241.5453,-484.568"/>
</g>
<!-- Node83 -->
<g id="node19" class="node">
<title>Node83</title>
<g id="a_node19"><a xlink:href="a00327.html#a5d73fc994a204fe7362e8ca77df1b344" target="_top" xlink:title="CO_Security_DB\\get\l_initial_record_by_login_id">
<polygon fill="#ffffff" stroke="#000000" points="342.7378,-255.5 342.7378,-283.5 477.1509,-283.5 477.1509,-255.5 342.7378,-255.5"/>
<text text-anchor="start" x="350.7378" y="-271.5" font-family="Helvetica,sans-Serif" font-size="10.00" fill="#000000">CO_Security_DB\get</text>
<text text-anchor="middle" x="409.9443" y="-261.5" font-family="Helvetica,sans-Serif" font-size="10.00" fill="#000000">_initial_record_by_login_id</text>
</a>
</g>
</g>
<!-- Node66&#45;&gt;Node83 -->
<g id="edge18" class="edge">
<title>Node66&#45;&gt;Node83</title>
<path fill="none" stroke="#191970" d="M242.1082,-485.3609C251.5711,-444.2727 279.3733,-347.0165 339.6885,-293.5 344.1234,-289.5649 349.233,-286.2691 354.6315,-283.5099"/>
<polygon fill="#191970" stroke="#191970" points="238.635,-484.8601 239.9137,-495.3775 245.4728,-486.3582 238.635,-484.8601"/>
</g>
<!-- Node84 -->
<g id="node20" class="node">
<title>Node84</title>
<g id="a_node20"><a xlink:href="a00327.html#a4e2e3180a3be3bbe410fa3066572a8a0" target="_top" xlink:title="CO_Security_DB\\get\l_credentials_by_api_key">
<polygon fill="#ffffff" stroke="#000000" points="346.9077,-208.5 346.9077,-236.5 472.981,-236.5 472.981,-208.5 346.9077,-208.5"/>
<text text-anchor="start" x="354.9077" y="-224.5" font-family="Helvetica,sans-Serif" font-size="10.00" fill="#000000">CO_Security_DB\get</text>
<text text-anchor="middle" x="409.9443" y="-214.5" font-family="Helvetica,sans-Serif" font-size="10.00" fill="#000000">_credentials_by_api_key</text>
</a>
</g>
</g>
<!-- Node66&#45;&gt;Node84 -->
<g id="edge19" class="edge">
<title>Node66&#45;&gt;Node84</title>
<path fill="none" stroke="#191970" d="M240.2185,-485.4009C246.3329,-438.0892 268.626,-314.3842 339.6885,-246.5 343.7893,-242.5826 348.5559,-239.3028 353.6383,-236.5571"/>
<polygon fill="#191970" stroke="#191970" points="236.7264,-485.1275 239.0178,-495.4716 243.6772,-485.9563 236.7264,-485.1275"/>
</g>
<!-- Node85 -->
<g id="node21" class="node">
<title>Node85</title>
<g id="a_node21"><a xlink:href="a00327.html#ab7c6d41fc8b4b571f313be2c8b03b17d" target="_top" xlink:title="CO_Security_DB\\get\l_initial_record_by_id">
<polygon fill="#ffffff" stroke="#000000" points="355.5356,-161.5 355.5356,-189.5 464.353,-189.5 464.353,-161.5 355.5356,-161.5"/>
<text text-anchor="start" x="363.5356" y="-177.5" font-family="Helvetica,sans-Serif" font-size="10.00" fill="#000000">CO_Security_DB\get</text>
<text text-anchor="middle" x="409.9443" y="-167.5" font-family="Helvetica,sans-Serif" font-size="10.00" fill="#000000">_initial_record_by_id</text>
</a>
</g>
</g>
<!-- Node66&#45;&gt;Node85 -->
<g id="edge20" class="edge">
<title>Node66&#45;&gt;Node85</title>
<path fill="none" stroke="#191970" d="M238.8936,-485.214C241.9678,-432.068 257.8414,-281.9902 339.6885,-199.5 344.2276,-194.9252 349.6737,-191.2218 355.4994,-188.2241"/>
<polygon fill="#191970" stroke="#191970" points="235.394,-485.1235 238.4027,-495.2822 242.3857,-485.4645 235.394,-485.1235"/>
</g>
<!-- Node86 -->
<g id="node22" class="node">
<title>Node86</title>
<g id="a_node22"><a xlink:href="a00327.html#af7f9180938518c8325b3d4ba52112e02" target="_top" xlink:title="CO_Security_DB\\get\l_multiple_records_by\l_login_id">
<polygon fill="#ffffff" stroke="#000000" points="354.4199,-104.5 354.4199,-142.5 465.4688,-142.5 465.4688,-104.5 354.4199,-104.5"/>
<text text-anchor="start" x="362.4199" y="-130.5" font-family="Helvetica,sans-Serif" font-size="10.00" fill="#000000">CO_Security_DB\get</text>
<text text-anchor="start" x="362.4199" y="-120.5" font-family="Helvetica,sans-Serif" font-size="10.00" fill="#000000">_multiple_records_by</text>
<text text-anchor="middle" x="409.9443" y="-110.5" font-family="Helvetica,sans-Serif" font-size="10.00" fill="#000000">_login_id</text>
</a>
</g>
</g>
<!-- Node66&#45;&gt;Node86 -->
<g id="edge21" class="edge">
<title>Node66&#45;&gt;Node86</title>
<path fill="none" stroke="#191970" d="M241.4585,-485.1799C253.0795,-419.147 293.8708,-203.6902 339.6885,-152.5 343.8246,-147.8788 348.8102,-143.977 354.1937,-140.6861"/>
<polygon fill="#191970" stroke="#191970" points="237.948,-484.9389 239.6859,-495.3902 244.8449,-486.1362 237.948,-484.9389"/>
</g>
<!-- Node88 -->
<g id="node24" class="node">
<title>Node88</title>
<g id="a_node24"><a xlink:href="a00327.html#ad75f2ed511a4eae172f9f2acd73f2de9" target="_top" xlink:title="CO_Security_DB\\get\l_all_login_objects">
<polygon fill="#ffffff" stroke="#000000" points="355.5356,-57.5 355.5356,-85.5 464.353,-85.5 464.353,-57.5 355.5356,-57.5"/>
<text text-anchor="start" x="363.5356" y="-73.5" font-family="Helvetica,sans-Serif" font-size="10.00" fill="#000000">CO_Security_DB\get</text>
<text text-anchor="middle" x="409.9443" y="-63.5" font-family="Helvetica,sans-Serif" font-size="10.00" fill="#000000">_all_login_objects</text>
</a>
</g>
</g>
<!-- Node66&#45;&gt;Node88 -->
<g id="edge23" class="edge">
<title>Node66&#45;&gt;Node88</title>
<path fill="none" stroke="#191970" d="M240.4781,-485.3069C249.6397,-412.5134 285.4569,-154.5996 339.6885,-95.5 344.1329,-90.6566 349.5948,-86.7905 355.4924,-83.7045"/>
<polygon fill="#191970" stroke="#191970" points="236.991,-484.9877 239.2379,-495.3415 243.9382,-485.8464 236.991,-484.9877"/>
</g>
<!-- Node89 -->
<g id="node25" class="node">
<title>Node89</title>
<g id="a_node25"><a xlink:href="a00327.html#af39966b2bf3f43bc640b013ec5a472be" target="_top" xlink:title="CO_Security_DB\\get\l_all_login_objects_with\l_access">
<polygon fill="#ffffff" stroke="#000000" points="350.521,-.5 350.521,-38.5 469.3677,-38.5 469.3677,-.5 350.521,-.5"/>
<text text-anchor="start" x="358.521" y="-26.5" font-family="Helvetica,sans-Serif" font-size="10.00" fill="#000000">CO_Security_DB\get</text>
<text text-anchor="start" x="358.521" y="-16.5" font-family="Helvetica,sans-Serif" font-size="10.00" fill="#000000">_all_login_objects_with</text>
<text text-anchor="middle" x="409.9443" y="-6.5" font-family="Helvetica,sans-Serif" font-size="10.00" fill="#000000">_access</text>
</a>
</g>
</g>
<!-- Node66&#45;&gt;Node89 -->
<g id="edge24" class="edge">
<title>Node66&#45;&gt;Node89</title>
<path fill="none" stroke="#191970" d="M240.1333,-484.7575C248.3496,-406.2311 282.093,-116.9903 339.6885,-48.5 342.8308,-44.7633 346.5324,-41.5009 350.5659,-38.6539"/>
<polygon fill="#191970" stroke="#191970" points="236.6084,-484.8217 239.0699,-495.1266 243.5719,-485.5359 236.6084,-484.8217"/>
</g>
<!-- Node72 -->
<g id="node8" class="node">
<title>Node72</title>
<g id="a_node8"><a xlink:href="a00307.html#a631d8d027d72c940a7cec689cbb4e568" target="_top" xlink:title="A_CO_DB\\get_single\l_record_by_id">
<polygon fill="#ffffff" stroke="#000000" points="529.5498,-742.5 529.5498,-770.5 640.6035,-770.5 640.6035,-742.5 529.5498,-742.5"/>
<text text-anchor="start" x="537.5498" y="-758.5" font-family="Helvetica,sans-Serif" font-size="10.00" fill="#000000">A_CO_DB\get_single</text>
<text text-anchor="middle" x="585.0767" y="-748.5" font-family="Helvetica,sans-Serif" font-size="10.00" fill="#000000">_record_by_id</text>
</a>
</g>
</g>
<!-- Node71&#45;&gt;Node72 -->
<g id="edge7" class="edge">
<title>Node71&#45;&gt;Node72</title>
<path fill="none" stroke="#191970" d="M479.8448,-756.5C496.3136,-756.5 513.6522,-756.5 529.3977,-756.5"/>
<polygon fill="#191970" stroke="#191970" points="479.7252,-753.0001 469.7251,-756.5 479.7251,-760.0001 479.7252,-753.0001"/>
</g>
<!-- Node87 -->
<g id="node23" class="node">
<title>Node87</title>
<g id="a_node23"><a xlink:href="a00327.html#ab01692597b11329b0d63096b10e1f473" target="_top" xlink:title="CO_Security_DB\\get\l_single_record_by_login_id">
<polygon fill="#ffffff" stroke="#000000" points="516.2002,-109.5 516.2002,-137.5 653.9531,-137.5 653.9531,-109.5 516.2002,-109.5"/>
<text text-anchor="start" x="524.2002" y="-125.5" font-family="Helvetica,sans-Serif" font-size="10.00" fill="#000000">CO_Security_DB\get</text>
<text text-anchor="middle" x="585.0767" y="-115.5" font-family="Helvetica,sans-Serif" font-size="10.00" fill="#000000">_single_record_by_login_id</text>
</a>
</g>
</g>
<!-- Node86&#45;&gt;Node87 -->
<g id="edge22" class="edge">
<title>Node86&#45;&gt;Node87</title>
<path fill="none" stroke="#191970" d="M476.1026,-123.5C489.1099,-123.5 502.7886,-123.5 515.8921,-123.5"/>
<polygon fill="#191970" stroke="#191970" points="475.8388,-120.0001 465.8388,-123.5 475.8388,-127.0001 475.8388,-120.0001"/>
</g>
</g>
</svg>
