<?xml version="1.0" encoding="UTF-8" standalone="no"?>
<!DOCTYPE svg PUBLIC "-//W3C//DTD SVG 1.1//EN"
 "http://www.w3.org/Graphics/SVG/1.1/DTD/svg11.dtd">
<!-- Generated by graphviz version 2.47.1 (20210417.1919)
 -->
<!-- Title: CO_Security_Login\delete_from_db Pages: 1 -->
<svg width="621pt" height="178pt"
 viewBox="0.00 0.00 621.00 178.00" xmlns="http://www.w3.org/2000/svg" xmlns:xlink="http://www.w3.org/1999/xlink">
<g id="graph0" class="graph" transform="scale(1 1) rotate(0) translate(4 174)">
<title>CO_Security_Login\delete_from_db</title>
<polygon fill="white" stroke="transparent" points="-4,4 -4,-174 617,-174 617,4 -4,4"/>
<!-- Node1 -->
<g id="node1" class="node">
<title>Node1</title>
<g id="a_node1"><a xlink:title=" ">
<polygon fill="#bfbfbf" stroke="black" points="0,-49.5 0,-79.5 131,-79.5 131,-49.5 0,-49.5"/>
<text text-anchor="start" x="8" y="-67.5" font-family="Helvetica,sans-Serif" font-size="10.00">CO_Security_Login\delete</text>
<text text-anchor="middle" x="65.5" y="-56.5" font-family="Helvetica,sans-Serif" font-size="10.00">_from_db</text>
</a>
</g>
</g>
<!-- Node2 -->
<g id="node2" class="node">
<title>Node2</title>
<g id="a_node2"><a xlink:href="a00308.html#adda14b544e11934db3bf8130aeea0610" target="_top" xlink:title=" ">
<polygon fill="white" stroke="black" points="169,-98.5 169,-128.5 288,-128.5 288,-98.5 169,-98.5"/>
<text text-anchor="start" x="177" y="-116.5" font-family="Helvetica,sans-Serif" font-size="10.00">A_CO_DB_Table_Base</text>
<text text-anchor="middle" x="228.5" y="-105.5" font-family="Helvetica,sans-Serif" font-size="10.00">\_write_to_db</text>
</a>
</g>
</g>
<!-- Node1&#45;&gt;Node2 -->
<g id="edge1" class="edge">
<title>Node1&#45;&gt;Node2</title>
<path fill="none" stroke="midnightblue" d="M116.12,-79.6C132.57,-84.61 151.05,-90.23 168.16,-95.44"/>
<polygon fill="midnightblue" stroke="midnightblue" points="167.46,-98.89 178.04,-98.45 169.5,-92.19 167.46,-98.89"/>
</g>
<!-- Node7 -->
<g id="node7" class="node">
<title>Node7</title>
<g id="a_node7"><a xlink:href="a00340.html#a30db2d11dd81390f5a671bcd32835544" target="_top" xlink:title=" ">
<polygon fill="white" stroke="black" points="169.5,-49.5 169.5,-79.5 287.5,-79.5 287.5,-49.5 169.5,-49.5"/>
<text text-anchor="start" x="177.5" y="-67.5" font-family="Helvetica,sans-Serif" font-size="10.00">CO_Security_Login\get</text>
<text text-anchor="middle" x="228.5" y="-56.5" font-family="Helvetica,sans-Serif" font-size="10.00">_user_object</text>
</a>
</g>
</g>
<!-- Node1&#45;&gt;Node7 -->
<g id="edge7" class="edge">
<title>Node1&#45;&gt;Node7</title>
<path fill="none" stroke="midnightblue" d="M131.06,-64.5C140.37,-64.5 149.99,-64.5 159.37,-64.5"/>
<polygon fill="midnightblue" stroke="midnightblue" points="159.43,-68 169.43,-64.5 159.43,-61 159.43,-68"/>
</g>
<!-- Node8 -->
<g id="node8" class="node">
<title>Node8</title>
<g id="a_node8"><a xlink:href="a00340.html#aba256552040dd8af7196f0fea2a58609" target="_top" xlink:title=" ">
<polygon fill="white" stroke="black" points="167,-0.5 167,-30.5 290,-30.5 290,-0.5 167,-0.5"/>
<text text-anchor="start" x="175" y="-18.5" font-family="Helvetica,sans-Serif" font-size="10.00">CO_Security_Login\user</text>
<text text-anchor="middle" x="228.5" y="-7.5" font-family="Helvetica,sans-Serif" font-size="10.00">_can_write</text>
</a>
</g>
</g>
<!-- Node1&#45;&gt;Node8 -->
<g id="edge9" class="edge">
<title>Node1&#45;&gt;Node8</title>
<path fill="none" stroke="midnightblue" d="M116.12,-49.4C132.57,-44.39 151.05,-38.77 168.16,-33.56"/>
<polygon fill="midnightblue" stroke="midnightblue" points="169.5,-36.81 178.04,-30.55 167.46,-30.11 169.5,-36.81"/>
</g>
<!-- Node3 -->
<g id="node3" class="node">
<title>Node3</title>
<g id="a_node3"><a xlink:href="a00308.html#a6109c37c5e61ab04ea710b1ebb7615a5" target="_top" xlink:title=" ">
<polygon fill="white" stroke="black" points="326,-139.5 326,-169.5 447,-169.5 447,-139.5 326,-139.5"/>
<text text-anchor="start" x="334" y="-157.5" font-family="Helvetica,sans-Serif" font-size="10.00">A_CO_DB_Table_Base</text>
<text text-anchor="middle" x="386.5" y="-146.5" font-family="Helvetica,sans-Serif" font-size="10.00">\_build_parameter_array</text>
</a>
</g>
</g>
<!-- Node2&#45;&gt;Node3 -->
<g id="edge2" class="edge">
<title>Node2&#45;&gt;Node3</title>
<path fill="none" stroke="midnightblue" d="M286.7,-128.53C296.98,-131.24 307.78,-134.07 318.31,-136.84"/>
<polygon fill="midnightblue" stroke="midnightblue" points="317.74,-140.31 328.3,-139.47 319.52,-133.54 317.74,-140.31"/>
</g>
<!-- Node5 -->
<g id="node5" class="node">
<title>Node5</title>
<g id="a_node5"><a xlink:href="a00308.html#a78affe18a811930d4012fd265e95cdca" target="_top" xlink:title=" ">
<polygon fill="white" stroke="black" points="483,-101 483,-120 613,-120 613,-101 483,-101"/>
<text text-anchor="middle" x="548" y="-108" font-family="Helvetica,sans-Serif" font-size="10.00">A_CO_DB_Table_Base\id</text>
</a>
</g>
</g>
<!-- Node2&#45;&gt;Node5 -->
<g id="edge6" class="edge">
<title>Node2&#45;&gt;Node5</title>
<path fill="none" stroke="midnightblue" d="M288.1,-112.95C340.06,-112.46 416.2,-111.74 472.47,-111.2"/>
<polygon fill="midnightblue" stroke="midnightblue" points="472.77,-114.7 482.73,-111.11 472.7,-107.7 472.77,-114.7"/>
</g>
<!-- Node6 -->
<g id="node6" class="node">
<title>Node6</title>
<g id="a_node6"><a xlink:href="a00308.html#a8780b40e55827b90bb441671faec2a05" target="_top" xlink:title=" ">
<polygon fill="white" stroke="black" points="327,-49.5 327,-79.5 446,-79.5 446,-49.5 327,-49.5"/>
<text text-anchor="start" x="335" y="-67.5" font-family="Helvetica,sans-Serif" font-size="10.00">A_CO_DB_Table_Base</text>
<text text-anchor="middle" x="386.5" y="-56.5" font-family="Helvetica,sans-Serif" font-size="10.00">\get_access_object</text>
</a>
</g>
</g>
<!-- Node2&#45;&gt;Node6 -->
<g id="edge5" class="edge">
<title>Node2&#45;&gt;Node6</title>
<path fill="none" stroke="midnightblue" d="M277.58,-98.4C293.52,-93.39 311.42,-87.77 328,-82.56"/>
<polygon fill="midnightblue" stroke="midnightblue" points="329.09,-85.89 337.58,-79.55 326.99,-79.21 329.09,-85.89"/>
</g>
<!-- Node4 -->
<g id="node4" class="node">
<title>Node4</title>
<g id="a_node4"><a xlink:href="a00308.html#afb32d1e32b8e1c1de2e008c9b88f7846" target="_top" xlink:title=" ">
<polygon fill="white" stroke="black" points="488.5,-139.5 488.5,-169.5 607.5,-169.5 607.5,-139.5 488.5,-139.5"/>
<text text-anchor="start" x="496.5" y="-157.5" font-family="Helvetica,sans-Serif" font-size="10.00">A_CO_DB_Table_Base</text>
<text text-anchor="middle" x="548" y="-146.5" font-family="Helvetica,sans-Serif" font-size="10.00">\_badger_serialize</text>
</a>
</g>
</g>
<!-- Node3&#45;&gt;Node4 -->
<g id="edge3" class="edge">
<title>Node3&#45;&gt;Node4</title>
<path fill="none" stroke="midnightblue" d="M447.35,-154.5C457.42,-154.5 467.95,-154.5 478.23,-154.5"/>
<polygon fill="midnightblue" stroke="midnightblue" points="478.41,-158 488.41,-154.5 478.41,-151 478.41,-158"/>
</g>
<!-- Node3&#45;&gt;Node5 -->
<g id="edge4" class="edge">
<title>Node3&#45;&gt;Node5</title>
<path fill="none" stroke="midnightblue" d="M441.94,-139.48C461.68,-134.04 483.72,-127.96 502.5,-122.78"/>
<polygon fill="midnightblue" stroke="midnightblue" points="503.57,-126.11 512.28,-120.08 501.71,-119.36 503.57,-126.11"/>
</g>
<!-- Node7&#45;&gt;Node6 -->
<g id="edge8" class="edge">
<title>Node7&#45;&gt;Node6</title>
<path fill="none" stroke="midnightblue" d="M287.59,-64.5C297.1,-64.5 307.04,-64.5 316.79,-64.5"/>
<polygon fill="midnightblue" stroke="midnightblue" points="316.84,-68 326.84,-64.5 316.84,-61 316.84,-68"/>
</g>
<!-- Node8&#45;&gt;Node6 -->
<g id="edge10" class="edge">
<title>Node8&#45;&gt;Node6</title>
<path fill="none" stroke="midnightblue" d="M277.58,-30.6C293.52,-35.61 311.42,-41.23 328,-46.44"/>
<polygon fill="midnightblue" stroke="midnightblue" points="326.99,-49.79 337.58,-49.45 329.09,-43.11 326.99,-49.79"/>
</g>
<!-- Node9 -->
<g id="node9" class="node">
<title>Node9</title>
<g id="a_node9"><a xlink:href="a00340.html#a03304936652c2c606c411c7c6a0f0c7f" target="_top" xlink:title=" ">
<polygon fill="white" stroke="black" points="333,-0.5 333,-30.5 440,-30.5 440,-0.5 333,-0.5"/>
<text text-anchor="start" x="341" y="-18.5" font-family="Helvetica,sans-Serif" font-size="10.00">CO_Security_Login\i</text>
<text text-anchor="middle" x="386.5" y="-7.5" font-family="Helvetica,sans-Serif" font-size="10.00">_am_a_god</text>
</a>
</g>
</g>
<!-- Node8&#45;&gt;Node9 -->
<g id="edge11" class="edge">
<title>Node8&#45;&gt;Node9</title>
<path fill="none" stroke="midnightblue" d="M290.26,-15.5C300.89,-15.5 311.98,-15.5 322.66,-15.5"/>
<polygon fill="midnightblue" stroke="midnightblue" points="322.76,-19 332.76,-15.5 322.76,-12 322.76,-19"/>
</g>
</g>
</svg>
