<?xml version="1.0" encoding="UTF-8" standalone="no"?>
<!DOCTYPE svg PUBLIC "-//W3C//DTD SVG 1.1//EN"
 "http://www.w3.org/Graphics/SVG/1.1/DTD/svg11.dtd">
<!-- Generated by graphviz version 2.40.1 (20161225.0304)
 -->
<!-- Title: CO_Security_Login\is_api_key_valid Pages: 1 -->
<svg width="420pt" height="37pt"
 viewBox="0.00 0.00 419.82 37.00" xmlns="http://www.w3.org/2000/svg" xmlns:xlink="http://www.w3.org/1999/xlink">
<g id="graph0" class="graph" transform="scale(1 1) rotate(0) translate(4 33)">
<title>CO_Security_Login\is_api_key_valid</title>
<polygon fill="#ffffff" stroke="transparent" points="-4,4 -4,-33 415.8213,-33 415.8213,4 -4,4"/>
<!-- Node1 -->
<g id="node1" class="node">
<title>Node1</title>
<g id="a_node1"><a xlink:title=" ">
<polygon fill="#bfbfbf" stroke="#000000" points="0,-.5 0,-28.5 112.7139,-28.5 112.7139,-.5 0,-.5"/>
<text text-anchor="start" x="8" y="-16.5" font-family="Helvetica,sans-Serif" font-size="10.00" fill="#000000">CO_Security_Login\is</text>
<text text-anchor="middle" x="56.3569" y="-6.5" font-family="Helvetica,sans-Serif" font-size="10.00" fill="#000000">_api_key_valid</text>
</a>
</g>
</g>
<!-- Node2 -->
<g id="node2" class="node">
<title>Node2</title>
<g id="a_node2"><a xlink:href="a00343.html#aecb158735e3a185c0857c44bf60f45f0" target="_top" xlink:title=" ">
<polygon fill="#ffffff" stroke="#000000" points="148.7139,-.5 148.7139,-28.5 268.1074,-28.5 268.1074,-.5 148.7139,-.5"/>
<text text-anchor="start" x="156.7139" y="-16.5" font-family="Helvetica,sans-Serif" font-size="10.00" fill="#000000">CO_Security_Login\get</text>
<text text-anchor="middle" x="208.4106" y="-6.5" font-family="Helvetica,sans-Serif" font-size="10.00" fill="#000000">_api_key</text>
</a>
</g>
</g>
<!-- Node1&#45;&gt;Node2 -->
<g id="edge1" class="edge">
<title>Node1&#45;&gt;Node2</title>
<path fill="none" stroke="#191970" d="M112.9761,-14.5C121.3511,-14.5 130.0628,-14.5 138.6664,-14.5"/>
<polygon fill="#191970" stroke="#191970" points="138.6901,-18.0001 148.6901,-14.5 138.69,-11.0001 138.6901,-18.0001"/>
</g>
<!-- Node3 -->
<g id="node3" class="node">
<title>Node3</title>
<g id="a_node3"><a xlink:href="a00343.html#a03304936652c2c606c411c7c6a0f0c7f" target="_top" xlink:title=" ">
<polygon fill="#ffffff" stroke="#000000" points="304.1074,-.5 304.1074,-28.5 411.8213,-28.5 411.8213,-.5 304.1074,-.5"/>
<text text-anchor="start" x="312.1074" y="-16.5" font-family="Helvetica,sans-Serif" font-size="10.00" fill="#000000">CO_Security_Login\i</text>
<text text-anchor="middle" x="357.9644" y="-6.5" font-family="Helvetica,sans-Serif" font-size="10.00" fill="#000000">_am_a_god</text>
</a>
</g>
</g>
<!-- Node2&#45;&gt;Node3 -->
<g id="edge2" class="edge">
<title>Node2&#45;&gt;Node3</title>
<path fill="none" stroke="#191970" d="M268.3781,-14.5C276.6975,-14.5 285.2716,-14.5 293.666,-14.5"/>
<polygon fill="#191970" stroke="#191970" points="293.7871,-18.0001 303.787,-14.5 293.787,-11.0001 293.7871,-18.0001"/>
</g>
</g>
</svg>
