<?xml version="1.0" encoding="UTF-8" standalone="no"?>
<!DOCTYPE svg PUBLIC "-//W3C//DTD SVG 1.1//EN"
 "http://www.w3.org/Graphics/SVG/1.1/DTD/svg11.dtd">
<!-- Generated by graphviz version 2.47.1 (20210417.1919)
 -->
<!-- Title: CO_Main_Data_DB\generic_search Pages: 1 -->
<!--zoomable 244 -->
<svg id="main" version="1.1" xmlns="http://www.w3.org/2000/svg" xmlns:xlink="http://www.w3.org/1999/xlink" xml:space="preserve" onload="init(evt)">
<style type="text/css"><![CDATA[
.edge:hover path { stroke: red; }
.edge:hover polygon { stroke: red; fill: red; }
]]></style>
<script type="text/javascript"><![CDATA[
var edges = document.getElementsByTagName('g');
if (edges && edges.length) {
  for (var i=0;i<edges.length;i++) {
    if (edges[i].id.substr(0,4)=='edge') {
      edges[i].setAttribute('class','edge');
    }
  }
}
]]></script>
        <defs>
                <circle id="rim" cx="0" cy="0" r="7"/>
                <circle id="rim2" cx="0" cy="0" r="3.5"/>
                <g id="zoomPlus">
                        <use xlink:href="#rim" fill="#404040">
                                <set attributeName="fill" to="#808080" begin="zoomplus.mouseover" end="zoomplus.mouseout"/>
                        </use>
                        <path d="M-4,0h8M0,-4v8" fill="none" stroke="white" stroke-width="1.5" pointer-events="none"/>
                </g>
                <g id="zoomMin">
                        <use xlink:href="#rim" fill="#404040">
                                <set attributeName="fill" to="#808080" begin="zoomminus.mouseover" end="zoomminus.mouseout"/>
                        </use>
                        <path d="M-4,0h8" fill="none" stroke="white" stroke-width="1.5" pointer-events="none"/>
                </g>
                <g id="dirArrow">
                        <path fill="none" stroke="white" stroke-width="1.5" d="M0,-3.0v7 M-2.5,-0.5L0,-3.0L2.5,-0.5"/>
                </g>
               <g id="resetDef">
                       <use xlink:href="#rim2" fill="#404040">
                               <set attributeName="fill" to="#808080" begin="reset.mouseover" end="reset.mouseout"/>
                       </use>
               </g>
        </defs>

<script type="text/javascript">
var viewWidth = 853;
var viewHeight = 244;
var sectionId = 'dynsection-11';
</script>
<script xlink:href="svgpan.js"/>
<svg id="graph" class="graph">
<g id="viewport">
<title>CO_Main_Data_DB\generic_search</title>
<polygon fill="white" stroke="transparent" points="-4,4 -4,-240 849,-240 849,4 -4,4"/>
<!-- Node1 -->
<g id="node1" class="node">
<title>Node1</title>
<g id="a_node1"><a xlink:title=" ">
<polygon fill="#bfbfbf" stroke="black" points="0,-66.5 0,-96.5 138,-96.5 138,-66.5 0,-66.5"/>
<text text-anchor="start" x="8" y="-84.5" font-family="Helvetica,sans-Serif" font-size="10.00">CO_Main_Data_DB\generic</text>
<text text-anchor="middle" x="69" y="-73.5" font-family="Helvetica,sans-Serif" font-size="10.00">_search</text>
</a>
</g>
</g>
<!-- Node2 -->
<g id="node2" class="node">
<title>Node2</title>
<g id="a_node2"><a xlink:href="a00312.html#aa97e6ad521aed4c2cbe03e83017af0b7" target="_top" xlink:title=" ">
<polygon fill="white" stroke="black" points="174,-137.5 174,-167.5 306,-167.5 306,-137.5 174,-137.5"/>
<text text-anchor="start" x="182" y="-155.5" font-family="Helvetica,sans-Serif" font-size="10.00">CO_Main_Data_DB\_build</text>
<text text-anchor="middle" x="240" y="-144.5" font-family="Helvetica,sans-Serif" font-size="10.00">_sql_query</text>
</a>
</g>
</g>
<!-- Node1&#45;&gt;Node2 -->
<g id="edge1" class="edge">
<title>Node1&#45;&gt;Node2</title>
<path fill="none" stroke="midnightblue" d="M102.07,-96.7C122.5,-106.21 149.62,-118.5 174,-128.5 178.36,-130.29 182.91,-132.09 187.49,-133.86"/>
<polygon fill="midnightblue" stroke="midnightblue" points="186.28,-137.15 196.87,-137.44 188.78,-130.61 186.28,-137.15"/>
</g>
<!-- Node11 -->
<g id="node11" class="node">
<title>Node11</title>
<g id="a_node11"><a xlink:href="a00304.html#a523e2f40174a0bca0fc873d6286b3ae9" target="_top" xlink:title=" ">
<polygon fill="white" stroke="black" points="182,-88.5 182,-118.5 298,-118.5 298,-88.5 182,-88.5"/>
<text text-anchor="start" x="190" y="-106.5" font-family="Helvetica,sans-Serif" font-size="10.00">A_CO_DB\_instantiate</text>
<text text-anchor="middle" x="240" y="-95.5" font-family="Helvetica,sans-Serif" font-size="10.00">_record</text>
</a>
</g>
</g>
<!-- Node1&#45;&gt;Node11 -->
<g id="edge11" class="edge">
<title>Node1&#45;&gt;Node11</title>
<path fill="none" stroke="midnightblue" d="M138.25,-90.38C149.33,-91.83 160.8,-93.32 171.86,-94.76"/>
<polygon fill="midnightblue" stroke="midnightblue" points="171.5,-98.24 181.87,-96.06 172.41,-91.3 171.5,-98.24"/>
</g>
<!-- Node12 -->
<g id="node12" class="node">
<title>Node12</title>
<g id="a_node12"><a xlink:href="a00304.html#a2396849660aa4ff018ab7509a4badeb5" target="_top" xlink:title=" ">
<polygon fill="white" stroke="black" points="175,-50 175,-69 305,-69 305,-50 175,-50"/>
<text text-anchor="middle" x="240" y="-57" font-family="Helvetica,sans-Serif" font-size="10.00">A_CO_DB\execute_query</text>
</a>
</g>
</g>
<!-- Node1&#45;&gt;Node12 -->
<g id="edge12" class="edge">
<title>Node1&#45;&gt;Node12</title>
<path fill="none" stroke="midnightblue" d="M138.25,-72.62C147.04,-71.47 156.07,-70.3 164.94,-69.14"/>
<polygon fill="midnightblue" stroke="midnightblue" points="165.41,-72.61 174.87,-67.85 164.5,-65.67 165.41,-72.61"/>
</g>
<!-- Node14 -->
<g id="node14" class="node">
<title>Node14</title>
<g id="a_node14"><a xlink:href="a00312.html#ae11526b802f2277322e001bc2d45094b" target="_top" xlink:title="Uses the Vincenty calculation to determine the distance (in Kilometers) between the two given lat/lon...">
<polygon fill="white" stroke="black" points="180,-0.5 180,-30.5 300,-30.5 300,-0.5 180,-0.5"/>
<text text-anchor="start" x="188" y="-18.5" font-family="Helvetica,sans-Serif" font-size="10.00">CO_Main_Data_DB\get</text>
<text text-anchor="middle" x="240" y="-7.5" font-family="Helvetica,sans-Serif" font-size="10.00">_accurate_distance</text>
</a>
</g>
</g>
<!-- Node1&#45;&gt;Node14 -->
<g id="edge14" class="edge">
<title>Node1&#45;&gt;Node14</title>
<path fill="none" stroke="midnightblue" d="M108,-66.43C127.69,-58.65 152.12,-49.02 174,-40.5 179.21,-38.47 184.66,-36.36 190.09,-34.26"/>
<polygon fill="midnightblue" stroke="midnightblue" points="191.72,-37.38 199.8,-30.52 189.21,-30.85 191.72,-37.38"/>
</g>
<!-- Node3 -->
<g id="node3" class="node">
<title>Node3</title>
<g id="a_node3"><a xlink:href="a00304.html#ad2356dbed1b38898d8c17bcd8eb405ef" target="_top" xlink:title=" ">
<polygon fill="white" stroke="black" points="535,-181.5 535,-211.5 673,-211.5 673,-181.5 535,-181.5"/>
<text text-anchor="start" x="543" y="-199.5" font-family="Helvetica,sans-Serif" font-size="10.00">A_CO_DB\_create_security</text>
<text text-anchor="middle" x="604" y="-188.5" font-family="Helvetica,sans-Serif" font-size="10.00">_predicate</text>
</a>
</g>
</g>
<!-- Node2&#45;&gt;Node3 -->
<g id="edge2" class="edge">
<title>Node2&#45;&gt;Node3</title>
<path fill="none" stroke="midnightblue" d="M294.38,-167.51C309.65,-171.31 326.39,-175.02 342,-177.5 402.89,-187.18 472.56,-191.94 524.6,-194.27"/>
<polygon fill="midnightblue" stroke="midnightblue" points="524.63,-197.77 534.77,-194.7 524.92,-190.78 524.63,-197.77"/>
</g>
<!-- Node6 -->
<g id="node6" class="node">
<title>Node6</title>
<g id="a_node6"><a xlink:href="a00312.html#a352444b4bfd455cb53a57137f3c44884" target="_top" xlink:title=" ">
<polygon fill="white" stroke="black" points="342,-137.5 342,-167.5 488,-167.5 488,-137.5 342,-137.5"/>
<text text-anchor="start" x="350" y="-155.5" font-family="Helvetica,sans-Serif" font-size="10.00">CO_Main_Data_DB\_location</text>
<text text-anchor="middle" x="415" y="-144.5" font-family="Helvetica,sans-Serif" font-size="10.00">_predicate</text>
</a>
</g>
</g>
<!-- Node2&#45;&gt;Node6 -->
<g id="edge5" class="edge">
<title>Node2&#45;&gt;Node6</title>
<path fill="none" stroke="midnightblue" d="M306.4,-152.5C314.64,-152.5 323.14,-152.5 331.59,-152.5"/>
<polygon fill="midnightblue" stroke="midnightblue" points="331.85,-156 341.85,-152.5 331.85,-149 331.85,-156"/>
</g>
<!-- Node7 -->
<g id="node7" class="node">
<title>Node7</title>
<g id="a_node7"><a xlink:href="a00312.html#a64a118564e4da8a3b0220ee5cf088e9b" target="_top" xlink:title=" ">
<polygon fill="white" stroke="black" points="347,-88.5 347,-118.5 483,-118.5 483,-88.5 347,-88.5"/>
<text text-anchor="start" x="355" y="-106.5" font-family="Helvetica,sans-Serif" font-size="10.00">CO_Main_Data_DB\_parse</text>
<text text-anchor="middle" x="415" y="-95.5" font-family="Helvetica,sans-Serif" font-size="10.00">_parameters</text>
</a>
</g>
</g>
<!-- Node2&#45;&gt;Node7 -->
<g id="edge7" class="edge">
<title>Node2&#45;&gt;Node7</title>
<path fill="none" stroke="midnightblue" d="M294.32,-137.4C312.24,-132.32 332.41,-126.61 351.01,-121.34"/>
<polygon fill="midnightblue" stroke="midnightblue" points="352.19,-124.64 360.86,-118.55 350.28,-117.91 352.19,-124.64"/>
</g>
<!-- Node4 -->
<g id="node4" class="node">
<title>Node4</title>
<g id="a_node4"><a xlink:href="a00304.html#a176b2c663fa7768e95e4fbe93281adc6" target="_top" xlink:title=" ">
<polygon fill="white" stroke="black" points="721.5,-205.5 721.5,-235.5 843.5,-235.5 843.5,-205.5 721.5,-205.5"/>
<text text-anchor="start" x="729.5" y="-223.5" font-family="Helvetica,sans-Serif" font-size="10.00">A_CO_DB\_create_read</text>
<text text-anchor="middle" x="782.5" y="-212.5" font-family="Helvetica,sans-Serif" font-size="10.00">_security_predicate</text>
</a>
</g>
</g>
<!-- Node3&#45;&gt;Node4 -->
<g id="edge3" class="edge">
<title>Node3&#45;&gt;Node4</title>
<path fill="none" stroke="midnightblue" d="M673.24,-205.78C685.79,-207.49 698.92,-209.27 711.52,-210.98"/>
<polygon fill="midnightblue" stroke="midnightblue" points="711.11,-214.46 721.5,-212.34 712.06,-207.53 711.11,-214.46"/>
</g>
<!-- Node5 -->
<g id="node5" class="node">
<title>Node5</title>
<g id="a_node5"><a xlink:href="a00304.html#ad4bc3d416f085818935b32a814313202" target="_top" xlink:title=" ">
<polygon fill="white" stroke="black" points="720,-156.5 720,-186.5 845,-186.5 845,-156.5 720,-156.5"/>
<text text-anchor="start" x="728" y="-174.5" font-family="Helvetica,sans-Serif" font-size="10.00">A_CO_DB\_create_write</text>
<text text-anchor="middle" x="782.5" y="-163.5" font-family="Helvetica,sans-Serif" font-size="10.00">_security_predicate</text>
</a>
</g>
</g>
<!-- Node3&#45;&gt;Node5 -->
<g id="edge4" class="edge">
<title>Node3&#45;&gt;Node5</title>
<path fill="none" stroke="midnightblue" d="M673.24,-186.83C685.21,-185.14 697.71,-183.37 709.77,-181.66"/>
<polygon fill="midnightblue" stroke="midnightblue" points="710.38,-185.11 719.79,-180.24 709.39,-178.18 710.38,-185.11"/>
</g>
<!-- Node6&#45;&gt;Node3 -->
<g id="edge6" class="edge">
<title>Node6&#45;&gt;Node3</title>
<path fill="none" stroke="midnightblue" d="M479.83,-167.52C495.69,-171.25 512.82,-175.28 529.12,-179.12"/>
<polygon fill="midnightblue" stroke="midnightblue" points="528.6,-182.59 539.14,-181.47 530.21,-175.78 528.6,-182.59"/>
</g>
<!-- Node8 -->
<g id="node8" class="node">
<title>Node8</title>
<g id="a_node8"><a xlink:href="a00312.html#a884b5749acdbc87467741bc6610794e4" target="_top" xlink:title=" ">
<polygon fill="white" stroke="black" points="536,-132.5 536,-162.5 672,-162.5 672,-132.5 536,-132.5"/>
<text text-anchor="start" x="544" y="-150.5" font-family="Helvetica,sans-Serif" font-size="10.00">CO_Main_Data_DB\_parse</text>
<text text-anchor="middle" x="604" y="-139.5" font-family="Helvetica,sans-Serif" font-size="10.00">_integer_parameter</text>
</a>
</g>
</g>
<!-- Node7&#45;&gt;Node8 -->
<g id="edge8" class="edge">
<title>Node7&#45;&gt;Node8</title>
<path fill="none" stroke="midnightblue" d="M479.83,-118.52C495.69,-122.25 512.82,-126.28 529.12,-130.12"/>
<polygon fill="midnightblue" stroke="midnightblue" points="528.6,-133.59 539.14,-132.47 530.21,-126.78 528.6,-133.59"/>
</g>
<!-- Node9 -->
<g id="node9" class="node">
<title>Node9</title>
<g id="a_node9"><a xlink:href="a00312.html#a46a9af2d7f6fc1388608022c6b84662e" target="_top" xlink:title=" ">
<polygon fill="white" stroke="black" points="536,-83.5 536,-113.5 672,-113.5 672,-83.5 536,-83.5"/>
<text text-anchor="start" x="544" y="-101.5" font-family="Helvetica,sans-Serif" font-size="10.00">CO_Main_Data_DB\_parse</text>
<text text-anchor="middle" x="604" y="-90.5" font-family="Helvetica,sans-Serif" font-size="10.00">_string_parameter</text>
</a>
</g>
</g>
<!-- Node7&#45;&gt;Node9 -->
<g id="edge9" class="edge">
<title>Node7&#45;&gt;Node9</title>
<path fill="none" stroke="midnightblue" d="M483.25,-101.7C496.98,-101.33 511.54,-100.95 525.59,-100.57"/>
<polygon fill="midnightblue" stroke="midnightblue" points="525.82,-104.07 535.72,-100.3 525.63,-97.07 525.82,-104.07"/>
</g>
<!-- Node10 -->
<g id="node10" class="node">
<title>Node10</title>
<g id="a_node10"><a xlink:href="a00312.html#a49c326f37d274ac9f25171380c851164" target="_top" xlink:title=" ">
<polygon fill="white" stroke="black" points="524,-45 524,-64 684,-64 684,-45 524,-45"/>
<text text-anchor="middle" x="604" y="-52" font-family="Helvetica,sans-Serif" font-size="10.00">CO_Main_Data_DB\_parse_tags</text>
</a>
</g>
</g>
<!-- Node7&#45;&gt;Node10 -->
<g id="edge10" class="edge">
<title>Node7&#45;&gt;Node10</title>
<path fill="none" stroke="midnightblue" d="M471.46,-88.44C488.32,-83.91 506.91,-78.96 524,-74.5 533.96,-71.9 544.64,-69.17 554.82,-66.58"/>
<polygon fill="midnightblue" stroke="midnightblue" points="555.96,-69.9 564.8,-64.05 554.25,-63.12 555.96,-69.9"/>
</g>
<!-- Node13 -->
<g id="node13" class="node">
<title>Node13</title>
<g id="a_node13"><a xlink:href="a00304.html#ae41efbdfe739934823b5f4c785b22611" target="_top" xlink:title=" ">
<polygon fill="white" stroke="black" points="347.5,-50 347.5,-69 482.5,-69 482.5,-50 347.5,-50"/>
<text text-anchor="middle" x="415" y="-57" font-family="Helvetica,sans-Serif" font-size="10.00">A_CO_DB\_execute_query</text>
</a>
</g>
</g>
<!-- Node12&#45;&gt;Node13 -->
<g id="edge13" class="edge">
<title>Node12&#45;&gt;Node13</title>
<path fill="none" stroke="midnightblue" d="M305.42,-59.5C315.76,-59.5 326.55,-59.5 337.14,-59.5"/>
<polygon fill="midnightblue" stroke="midnightblue" points="337.21,-63 347.21,-59.5 337.21,-56 337.21,-63"/>
</g>
</g>
</svg>
        <g id="navigator" transform="translate(0 0)" fill="#404254">
                <rect fill="#f2f5e9" fill-opacity="0.5" stroke="#606060" stroke-width=".5" x="0" y="0" width="60" height="60"/>
                <use id="zoomplus" xlink:href="#zoomPlus" x="17" y="9" onmousedown="handleZoom(evt,'in')"/>
                <use id="zoomminus" xlink:href="#zoomMin" x="42" y="9" onmousedown="handleZoom(evt,'out')"/>
                <use id="reset" xlink:href="#resetDef" x="30" y="36" onmousedown="handleReset()"/>
                <g id="arrowUp" xlink:href="#dirArrow" transform="translate(30 24)" onmousedown="handlePan(0,-1)">
                  <use xlink:href="#rim" fill="#404040">
                        <set attributeName="fill" to="#808080" begin="arrowUp.mouseover" end="arrowUp.mouseout"/>
                  </use>
                  <path fill="none" stroke="white" stroke-width="1.5" d="M0,-3.0v7 M-2.5,-0.5L0,-3.0L2.5,-0.5"/>
                </g>
                <g id="arrowRight" xlink:href="#dirArrow" transform="rotate(90) translate(36 -43)" onmousedown="handlePan(1,0)">
                  <use xlink:href="#rim" fill="#404040">
                        <set attributeName="fill" to="#808080" begin="arrowRight.mouseover" end="arrowRight.mouseout"/>
                  </use>
                  <path fill="none" stroke="white" stroke-width="1.5" d="M0,-3.0v7 M-2.5,-0.5L0,-3.0L2.5,-0.5"/>
                </g>
                <g id="arrowDown" xlink:href="#dirArrow" transform="rotate(180) translate(-30 -48)" onmousedown="handlePan(0,1)">
                  <use xlink:href="#rim" fill="#404040">
                        <set attributeName="fill" to="#808080" begin="arrowDown.mouseover" end="arrowDown.mouseout"/>
                  </use>
                  <path fill="none" stroke="white" stroke-width="1.5" d="M0,-3.0v7 M-2.5,-0.5L0,-3.0L2.5,-0.5"/>
                </g>
                <g id="arrowLeft" xlink:href="#dirArrow" transform="rotate(270) translate(-36 17)" onmousedown="handlePan(-1,0)">
                  <use xlink:href="#rim" fill="#404040">
                        <set attributeName="fill" to="#808080" begin="arrowLeft.mouseover" end="arrowLeft.mouseout"/>
                  </use>
                  <path fill="none" stroke="white" stroke-width="1.5" d="M0,-3.0v7 M-2.5,-0.5L0,-3.0L2.5,-0.5"/>
                </g>
        </g>
        <svg viewBox="0 0 15 15" width="100%" height="30px" preserveAspectRatio="xMaxYMin meet">
         <g id="arrow_out" transform="scale(0.3 0.3)">
          <a xlink:href="a00312_a303048d406814c066d27fda70de4ff02_cgraph_org.svg" target="_base">
           <rect id="button" ry="5" rx="5" y="6" x="6" height="38" width="38"
                fill="#f2f5e9" fill-opacity="0.5" stroke="#606060" stroke-width="1.0"/>
           <path id="arrow"
             d="M 11.500037,31.436501 C 11.940474,20.09759 22.043105,11.32322 32.158766,21.979434 L 37.068811,17.246167 C 37.068811,17.246167 37.088388,32 37.088388,32 L 22.160133,31.978069 C 22.160133,31.978069 26.997745,27.140456 26.997745,27.140456 C 18.528582,18.264221 13.291696,25.230495 11.500037,31.436501 z"
             style="fill:#404040;"/>
          </a>
         </g>
        </svg>
</svg>
