<?xml version="1.0" encoding="UTF-8" standalone="no"?>
<!DOCTYPE svg PUBLIC "-//W3C//DTD SVG 1.1//EN"
 "http://www.w3.org/Graphics/SVG/1.1/DTD/svg11.dtd">
<!-- Generated by graphviz version 2.40.1 (20161225.0304)
 -->
<!-- Title: A_CO_DB\get_single_record_by_id Pages: 1 -->
<svg width="622pt" height="144pt"
 viewBox="0.00 0.00 621.89 144.00" xmlns="http://www.w3.org/2000/svg" xmlns:xlink="http://www.w3.org/1999/xlink">
<g id="graph0" class="graph" transform="scale(1 1) rotate(0) translate(4 140)">
<title>A_CO_DB\get_single_record_by_id</title>
<polygon fill="#ffffff" stroke="transparent" points="-4,4 -4,-140 617.8945,-140 617.8945,4 -4,4"/>
<!-- Node187 -->
<g id="node1" class="node">
<title>Node187</title>
<polygon fill="#bfbfbf" stroke="#000000" points="0,-37.5 0,-65.5 111.0537,-65.5 111.0537,-37.5 0,-37.5"/>
<text text-anchor="start" x="8" y="-53.5" font-family="Helvetica,sans-Serif" font-size="10.00" fill="#000000">A_CO_DB\get_single</text>
<text text-anchor="middle" x="55.5269" y="-43.5" font-family="Helvetica,sans-Serif" font-size="10.00" fill="#000000">_record_by_id</text>
</g>
<!-- Node188 -->
<g id="node2" class="node">
<title>Node188</title>
<g id="a_node2"><a xlink:href="a00307.html#aaca8bf49257aa5ade3c354ef76119fa4" target="_top" xlink:title="A_CO_DB\\get_multiple\l_records_by_id">
<polygon fill="#ffffff" stroke="#000000" points="147.0537,-37.5 147.0537,-65.5 266.4375,-65.5 266.4375,-37.5 147.0537,-37.5"/>
<text text-anchor="start" x="155.0537" y="-53.5" font-family="Helvetica,sans-Serif" font-size="10.00" fill="#000000">A_CO_DB\get_multiple</text>
<text text-anchor="middle" x="206.7456" y="-43.5" font-family="Helvetica,sans-Serif" font-size="10.00" fill="#000000">_records_by_id</text>
</a>
</g>
</g>
<!-- Node187&#45;&gt;Node188 -->
<g id="edge1" class="edge">
<title>Node187&#45;&gt;Node188</title>
<path fill="none" stroke="#191970" d="M111.4055,-51.5C119.7505,-51.5 128.4404,-51.5 137.0282,-51.5"/>
<polygon fill="#191970" stroke="#191970" points="137.036,-55.0001 147.0359,-51.5 137.0359,-48.0001 137.036,-55.0001"/>
</g>
<!-- Node189 -->
<g id="node3" class="node">
<title>Node189</title>
<g id="a_node3"><a xlink:href="a00307.html#ad2356dbed1b38898d8c17bcd8eb405ef" target="_top" xlink:title="A_CO_DB\\_create_security\l_predicate">
<polygon fill="#ffffff" stroke="#000000" points="302.4375,-84.5 302.4375,-112.5 441.2695,-112.5 441.2695,-84.5 302.4375,-84.5"/>
<text text-anchor="start" x="310.4375" y="-100.5" font-family="Helvetica,sans-Serif" font-size="10.00" fill="#000000">A_CO_DB\_create_security</text>
<text text-anchor="middle" x="371.8535" y="-90.5" font-family="Helvetica,sans-Serif" font-size="10.00" fill="#000000">_predicate</text>
</a>
</g>
</g>
<!-- Node188&#45;&gt;Node189 -->
<g id="edge2" class="edge">
<title>Node188&#45;&gt;Node189</title>
<path fill="none" stroke="#191970" d="M256.2834,-65.6015C274.0776,-70.6669 294.322,-76.4297 312.8416,-81.7015"/>
<polygon fill="#191970" stroke="#191970" points="312.0592,-85.1178 322.6354,-84.4894 313.9757,-78.3852 312.0592,-85.1178"/>
</g>
<!-- Node192 -->
<g id="node6" class="node">
<title>Node192</title>
<g id="a_node6"><a xlink:href="a00307.html#a523e2f40174a0bca0fc873d6286b3ae9" target="_top" xlink:title="A_CO_DB\\_instantiate\l_record">
<polygon fill="#ffffff" stroke="#000000" points="313.5483,-37.5 313.5483,-65.5 430.1587,-65.5 430.1587,-37.5 313.5483,-37.5"/>
<text text-anchor="start" x="321.5483" y="-53.5" font-family="Helvetica,sans-Serif" font-size="10.00" fill="#000000">A_CO_DB\_instantiate</text>
<text text-anchor="middle" x="371.8535" y="-43.5" font-family="Helvetica,sans-Serif" font-size="10.00" fill="#000000">_record</text>
</a>
</g>
</g>
<!-- Node188&#45;&gt;Node192 -->
<g id="edge5" class="edge">
<title>Node188&#45;&gt;Node192</title>
<path fill="none" stroke="#191970" d="M266.8204,-51.5C278.7061,-51.5 291.2647,-51.5 303.404,-51.5"/>
<polygon fill="#191970" stroke="#191970" points="303.4784,-55.0001 313.4784,-51.5 303.4783,-48.0001 303.4784,-55.0001"/>
</g>
<!-- Node193 -->
<g id="node7" class="node">
<title>Node193</title>
<g id="a_node7"><a xlink:href="a00307.html#a2396849660aa4ff018ab7509a4badeb5" target="_top" xlink:title="A_CO_DB\\execute_query">
<polygon fill="#ffffff" stroke="#000000" points="306.3218,-.5 306.3218,-18.5 437.3853,-18.5 437.3853,-.5 306.3218,-.5"/>
<text text-anchor="middle" x="371.8535" y="-6.5" font-family="Helvetica,sans-Serif" font-size="10.00" fill="#000000">A_CO_DB\execute_query</text>
</a>
</g>
</g>
<!-- Node188&#45;&gt;Node193 -->
<g id="edge6" class="edge">
<title>Node188&#45;&gt;Node193</title>
<path fill="none" stroke="#191970" d="M262.1835,-37.3978C283.0206,-32.0972 306.4504,-26.1372 326.2881,-21.0909"/>
<polygon fill="#191970" stroke="#191970" points="327.1768,-24.4764 336.0053,-18.619 325.4511,-17.6924 327.1768,-24.4764"/>
</g>
<!-- Node190 -->
<g id="node4" class="node">
<title>Node190</title>
<g id="a_node4"><a xlink:href="a00307.html#a176b2c663fa7768e95e4fbe93281adc6" target="_top" xlink:title="A_CO_DB\\_create_read\l_security_predicate">
<polygon fill="#ffffff" stroke="#000000" points="483.3853,-107.5 483.3853,-135.5 607.7788,-135.5 607.7788,-107.5 483.3853,-107.5"/>
<text text-anchor="start" x="491.3853" y="-123.5" font-family="Helvetica,sans-Serif" font-size="10.00" fill="#000000">A_CO_DB\_create_read</text>
<text text-anchor="middle" x="545.582" y="-113.5" font-family="Helvetica,sans-Serif" font-size="10.00" fill="#000000">_security_predicate</text>
</a>
</g>
</g>
<!-- Node189&#45;&gt;Node190 -->
<g id="edge3" class="edge">
<title>Node189&#45;&gt;Node190</title>
<path fill="none" stroke="#191970" d="M441.5145,-107.7225C451.959,-109.1052 462.7491,-110.5337 473.2477,-111.9236"/>
<polygon fill="#191970" stroke="#191970" points="472.8304,-115.3988 483.2033,-113.2417 473.7492,-108.4594 472.8304,-115.3988"/>
</g>
<!-- Node191 -->
<g id="node5" class="node">
<title>Node191</title>
<g id="a_node5"><a xlink:href="a00307.html#ad4bc3d416f085818935b32a814313202" target="_top" xlink:title="A_CO_DB\\_create_write\l_security_predicate">
<polygon fill="#ffffff" stroke="#000000" points="482.8359,-60.5 482.8359,-88.5 608.3281,-88.5 608.3281,-60.5 482.8359,-60.5"/>
<text text-anchor="start" x="490.8359" y="-76.5" font-family="Helvetica,sans-Serif" font-size="10.00" fill="#000000">A_CO_DB\_create_write</text>
<text text-anchor="middle" x="545.582" y="-66.5" font-family="Helvetica,sans-Serif" font-size="10.00" fill="#000000">_security_predicate</text>
</a>
</g>
</g>
<!-- Node189&#45;&gt;Node191 -->
<g id="edge4" class="edge">
<title>Node189&#45;&gt;Node191</title>
<path fill="none" stroke="#191970" d="M441.5145,-88.8766C451.7097,-87.4681 462.2342,-86.0142 472.4955,-84.5967"/>
<polygon fill="#191970" stroke="#191970" points="473.2202,-88.0299 482.6471,-83.1942 472.2622,-81.0957 473.2202,-88.0299"/>
</g>
<!-- Node194 -->
<g id="node8" class="node">
<title>Node194</title>
<g id="a_node8"><a xlink:href="a00307.html#ae41efbdfe739934823b5f4c785b22611" target="_top" xlink:title="A_CO_DB\\_execute_query">
<polygon fill="#ffffff" stroke="#000000" points="477.2695,-.5 477.2695,-18.5 613.8945,-18.5 613.8945,-.5 477.2695,-.5"/>
<text text-anchor="middle" x="545.582" y="-6.5" font-family="Helvetica,sans-Serif" font-size="10.00" fill="#000000">A_CO_DB\_execute_query</text>
</a>
</g>
</g>
<!-- Node193&#45;&gt;Node194 -->
<g id="edge7" class="edge">
<title>Node193&#45;&gt;Node194</title>
<path fill="none" stroke="#191970" d="M437.5328,-9.5C447.1604,-9.5 457.1576,-9.5 467.0113,-9.5"/>
<polygon fill="#191970" stroke="#191970" points="467.2063,-13.0001 477.2063,-9.5 467.2063,-6.0001 467.2063,-13.0001"/>
</g>
</g>
</svg>
