<?xml version="1.0" encoding="UTF-8" standalone="no"?>
<!DOCTYPE svg PUBLIC "-//W3C//DTD SVG 1.1//EN"
 "http://www.w3.org/Graphics/SVG/1.1/DTD/svg11.dtd">
<!-- Generated by graphviz version 2.40.1 (20161225.0304)
 -->
<!-- Title: A_CO_DB_Table_Base\__construct Pages: 1 -->
<svg width="452pt" height="105pt"
 viewBox="0.00 0.00 452.08 105.00" xmlns="http://www.w3.org/2000/svg" xmlns:xlink="http://www.w3.org/1999/xlink">
<g id="graph0" class="graph" transform="scale(1 1) rotate(0) translate(4 101)">
<title>A_CO_DB_Table_Base\__construct</title>
<polygon fill="#ffffff" stroke="transparent" points="-4,4 -4,-101 448.082,-101 448.082,4 -4,4"/>
<!-- Node0 -->
<g id="node1" class="node">
<title>Node0</title>
<polygon fill="#bfbfbf" stroke="#000000" points="0,-44.5 0,-72.5 120.5068,-72.5 120.5068,-44.5 0,-44.5"/>
<text text-anchor="start" x="8" y="-60.5" font-family="Helvetica,sans-Serif" font-size="10.00" fill="#000000">A_CO_DB_Table_Base</text>
<text text-anchor="middle" x="60.2534" y="-50.5" font-family="Helvetica,sans-Serif" font-size="10.00" fill="#000000">\__construct</text>
</g>
<!-- Node1 -->
<g id="node2" class="node">
<title>Node1</title>
<g id="a_node2"><a xlink:href="a00311.html#a1848c2e1bd55a2443af45963f728b20a" target="_top" xlink:title="A_CO_DB_Table_Base\l\\_default_setup">
<polygon fill="#ffffff" stroke="#000000" points="156.5068,-68.5 156.5068,-96.5 277.0137,-96.5 277.0137,-68.5 156.5068,-68.5"/>
<text text-anchor="start" x="164.5068" y="-84.5" font-family="Helvetica,sans-Serif" font-size="10.00" fill="#000000">A_CO_DB_Table_Base</text>
<text text-anchor="middle" x="216.7603" y="-74.5" font-family="Helvetica,sans-Serif" font-size="10.00" fill="#000000">\_default_setup</text>
</a>
</g>
</g>
<!-- Node0&#45;&gt;Node1 -->
<g id="edge1" class="edge">
<title>Node0&#45;&gt;Node1</title>
<path fill="none" stroke="#191970" d="M120.763,-67.779C129.1713,-69.0684 137.868,-70.402 146.4366,-71.716"/>
<polygon fill="#191970" stroke="#191970" points="145.9965,-75.1894 156.4115,-73.2457 147.0576,-68.2702 145.9965,-75.1894"/>
</g>
<!-- Node2 -->
<g id="node3" class="node">
<title>Node2</title>
<g id="a_node3"><a xlink:href="a00311.html#a91b894b2b9aa29d47c43e519f5ad0bf6" target="_top" xlink:title="A_CO_DB_Table_Base\l\\load_from_db">
<polygon fill="#ffffff" stroke="#000000" points="156.5068,-21.5 156.5068,-49.5 277.0137,-49.5 277.0137,-21.5 156.5068,-21.5"/>
<text text-anchor="start" x="164.5068" y="-37.5" font-family="Helvetica,sans-Serif" font-size="10.00" fill="#000000">A_CO_DB_Table_Base</text>
<text text-anchor="middle" x="216.7603" y="-27.5" font-family="Helvetica,sans-Serif" font-size="10.00" fill="#000000">\load_from_db</text>
</a>
</g>
</g>
<!-- Node0&#45;&gt;Node2 -->
<g id="edge2" class="edge">
<title>Node0&#45;&gt;Node2</title>
<path fill="none" stroke="#191970" d="M120.763,-49.6076C129.1713,-48.3719 137.868,-47.0939 146.4366,-45.8347"/>
<polygon fill="#191970" stroke="#191970" points="147.0267,-49.2856 156.4115,-44.3688 146.0089,-42.36 147.0267,-49.2856"/>
</g>
<!-- Node3 -->
<g id="node4" class="node">
<title>Node3</title>
<g id="a_node4"><a xlink:href="a00311.html#a78affe18a811930d4012fd265e95cdca" target="_top" xlink:title="A_CO_DB_Table_Base\\id">
<polygon fill="#ffffff" stroke="#000000" points="313.0137,-47.5 313.0137,-65.5 444.082,-65.5 444.082,-47.5 313.0137,-47.5"/>
<text text-anchor="middle" x="378.5479" y="-53.5" font-family="Helvetica,sans-Serif" font-size="10.00" fill="#000000">A_CO_DB_Table_Base\id</text>
</a>
</g>
</g>
<!-- Node2&#45;&gt;Node3 -->
<g id="edge3" class="edge">
<title>Node2&#45;&gt;Node3</title>
<path fill="none" stroke="#191970" d="M277.4643,-43.3794C285.7778,-44.4585 294.3953,-45.577 302.9339,-46.6853"/>
<polygon fill="#191970" stroke="#191970" points="302.5311,-50.1623 312.8984,-47.9787 303.4322,-43.2205 302.5311,-50.1623"/>
</g>
<!-- Node4 -->
<g id="node5" class="node">
<title>Node4</title>
<g id="a_node5"><a xlink:href="a00311.html#aecf243af90c7a16d03c7e4630ccc4e8e" target="_top" xlink:title="A_CO_DB_Table_Base\l\\_badger_unserialize">
<polygon fill="#ffffff" stroke="#000000" points="318.2944,-.5 318.2944,-28.5 438.8013,-28.5 438.8013,-.5 318.2944,-.5"/>
<text text-anchor="start" x="326.2944" y="-16.5" font-family="Helvetica,sans-Serif" font-size="10.00" fill="#000000">A_CO_DB_Table_Base</text>
<text text-anchor="middle" x="378.5479" y="-6.5" font-family="Helvetica,sans-Serif" font-size="10.00" fill="#000000">\_badger_unserialize</text>
</a>
</g>
</g>
<!-- Node2&#45;&gt;Node4 -->
<g id="edge4" class="edge">
<title>Node2&#45;&gt;Node4</title>
<path fill="none" stroke="#191970" d="M277.4643,-27.6206C287.417,-26.3288 297.8053,-24.9804 307.9725,-23.6607"/>
<polygon fill="#191970" stroke="#191970" points="308.5754,-27.1119 318.0417,-22.3537 307.6743,-20.1701 308.5754,-27.1119"/>
</g>
</g>
</svg>
