<?xml version="1.0" encoding="UTF-8" standalone="no"?>
<!DOCTYPE svg PUBLIC "-//W3C//DTD SVG 1.1//EN"
 "http://www.w3.org/Graphics/SVG/1.1/DTD/svg11.dtd">
<!-- Generated by graphviz version 2.40.1 (20161225.0304)
 -->
<!-- Title: CO_Access\make_new_blank_record Pages: 1 -->
<svg width="606pt" height="37pt"
 viewBox="0.00 0.00 606.32 37.00" xmlns="http://www.w3.org/2000/svg" xmlns:xlink="http://www.w3.org/1999/xlink">
<g id="graph0" class="graph" transform="scale(1 1) rotate(0) translate(4 33)">
<title>CO_Access\make_new_blank_record</title>
<polygon fill="#ffffff" stroke="transparent" points="-4,4 -4,-33 602.3184,-33 602.3184,4 -4,4"/>
<!-- Node1 -->
<g id="node1" class="node">
<title>Node1</title>
<g id="a_node1"><a xlink:title=" ">
<polygon fill="#bfbfbf" stroke="#000000" points="0,-.5 0,-28.5 119.9307,-28.5 119.9307,-.5 0,-.5"/>
<text text-anchor="start" x="8" y="-16.5" font-family="Helvetica,sans-Serif" font-size="10.00" fill="#000000">CO_Access\make_new</text>
<text text-anchor="middle" x="59.9653" y="-6.5" font-family="Helvetica,sans-Serif" font-size="10.00" fill="#000000">_blank_record</text>
</a>
</g>
</g>
<!-- Node2 -->
<g id="node2" class="node">
<title>Node2</title>
<g id="a_node2"><a xlink:href="a00355.html#adbc6444fbac916f3a280f4a3ce4f067a" target="_top" xlink:title=" ">
<polygon fill="#ffffff" stroke="#000000" points="155.9307,-5.5 155.9307,-23.5 281.4375,-23.5 281.4375,-5.5 155.9307,-5.5"/>
<text text-anchor="middle" x="218.6841" y="-11.5" font-family="Helvetica,sans-Serif" font-size="10.00" fill="#000000">CO_Access\get_login_id</text>
</a>
</g>
</g>
<!-- Node1&#45;&gt;Node2 -->
<g id="edge1" class="edge">
<title>Node1&#45;&gt;Node2</title>
<path fill="none" stroke="#191970" d="M119.9701,-14.5C128.3619,-14.5 137.0612,-14.5 145.6606,-14.5"/>
<polygon fill="#191970" stroke="#191970" points="145.6853,-18.0001 155.6853,-14.5 145.6853,-11.0001 145.6853,-18.0001"/>
</g>
<!-- Node3 -->
<g id="node3" class="node">
<title>Node3</title>
<g id="a_node3"><a xlink:href="a00355.html#aeab406fa4ecc249662fa1e2e073341b2" target="_top" xlink:title=" ">
<polygon fill="#ffffff" stroke="#000000" points="317.4375,-.5 317.4375,-28.5 436.8262,-28.5 436.8262,-.5 317.4375,-.5"/>
<text text-anchor="start" x="325.4375" y="-16.5" font-family="Helvetica,sans-Serif" font-size="10.00" fill="#000000">CO_Access\get_single</text>
<text text-anchor="middle" x="377.1318" y="-6.5" font-family="Helvetica,sans-Serif" font-size="10.00" fill="#000000">_security_record_by_id</text>
</a>
</g>
</g>
<!-- Node2&#45;&gt;Node3 -->
<g id="edge2" class="edge">
<title>Node2&#45;&gt;Node3</title>
<path fill="none" stroke="#191970" d="M281.7621,-14.5C290.1063,-14.5 298.7001,-14.5 307.1515,-14.5"/>
<polygon fill="#191970" stroke="#191970" points="307.3636,-18.0001 317.3636,-14.5 307.3636,-11.0001 307.3636,-18.0001"/>
</g>
<!-- Node4 -->
<g id="node4" class="node">
<title>Node4</title>
<g id="a_node4"><a xlink:href="a00355.html#a34c23aea84d5c32e600c512167c3497d" target="_top" xlink:title=" ">
<polygon fill="#ffffff" stroke="#000000" points="472.8262,-.5 472.8262,-28.5 598.3184,-28.5 598.3184,-.5 472.8262,-.5"/>
<text text-anchor="start" x="480.8262" y="-16.5" font-family="Helvetica,sans-Serif" font-size="10.00" fill="#000000">CO_Access\get_multiple</text>
<text text-anchor="middle" x="535.5723" y="-6.5" font-family="Helvetica,sans-Serif" font-size="10.00" fill="#000000">_security_records_by_id</text>
</a>
</g>
</g>
<!-- Node3&#45;&gt;Node4 -->
<g id="edge3" class="edge">
<title>Node3&#45;&gt;Node4</title>
<path fill="none" stroke="#191970" d="M437.0314,-14.5C445.4084,-14.5 454.0925,-14.5 462.6768,-14.5"/>
<polygon fill="#191970" stroke="#191970" points="462.684,-18.0001 472.6839,-14.5 462.6839,-11.0001 462.684,-18.0001"/>
</g>
</g>
</svg>
