<?xml version="1.0" encoding="UTF-8" standalone="no"?>
<!DOCTYPE svg PUBLIC "-//W3C//DTD SVG 1.1//EN"
 "http://www.w3.org/Graphics/SVG/1.1/DTD/svg11.dtd">
<!-- Generated by graphviz version 2.40.1 (20161225.0304)
 -->
<!-- Title: A_CO_DB_Table_Base\user_can_write Pages: 1 -->
<svg width="665pt" height="974pt"
 viewBox="0.00 0.00 665.26 974.00" xmlns="http://www.w3.org/2000/svg" xmlns:xlink="http://www.w3.org/1999/xlink">
<g id="graph0" class="graph" transform="scale(1 1) rotate(0) translate(4 970)">
<title>A_CO_DB_Table_Base\user_can_write</title>
<polygon fill="#ffffff" stroke="transparent" points="-4,4 -4,-970 661.2637,-970 661.2637,4 -4,4"/>
<!-- Node1 -->
<g id="node1" class="node">
<title>Node1</title>
<g id="a_node1"><a xlink:title=" ">
<polygon fill="#bfbfbf" stroke="#000000" points="536.7568,-661.5 536.7568,-689.5 657.2637,-689.5 657.2637,-661.5 536.7568,-661.5"/>
<text text-anchor="start" x="544.7568" y="-677.5" font-family="Helvetica,sans-Serif" font-size="10.00" fill="#000000">A_CO_DB_Table_Base</text>
<text text-anchor="middle" x="597.0103" y="-667.5" font-family="Helvetica,sans-Serif" font-size="10.00" fill="#000000">\user_can_write</text>
</a>
</g>
</g>
<!-- Node2 -->
<g id="node2" class="node">
<title>Node2</title>
<g id="a_node2"><a xlink:href="a00276.html#a3ae822685b2b8ca8af56d8ea4c4a2a6c" target="_top" xlink:title=" ">
<polygon fill="#ffffff" stroke="#000000" points="386.9297,-865.5 386.9297,-893.5 494.0771,-893.5 494.0771,-865.5 386.9297,-865.5"/>
<text text-anchor="start" x="394.9297" y="-881.5" font-family="Helvetica,sans-Serif" font-size="10.00" fill="#000000">CO_User_Collection</text>
<text text-anchor="middle" x="440.5034" y="-871.5" font-family="Helvetica,sans-Serif" font-size="10.00" fill="#000000">\delete_from_db</text>
</a>
</g>
</g>
<!-- Node1&#45;&gt;Node2 -->
<g id="edge1" class="edge">
<title>Node1&#45;&gt;Node2</title>
<path fill="none" stroke="#191970" d="M590.2254,-699.7117C578.2902,-738.0939 550.0162,-813.0036 500.7568,-856.5 496.896,-859.9091 492.4772,-862.8357 487.8257,-865.3431"/>
<polygon fill="#191970" stroke="#191970" points="593.6444,-700.4949 593.1623,-689.9111 586.939,-698.4855 593.6444,-700.4949"/>
</g>
<!-- Node3 -->
<g id="node3" class="node">
<title>Node3</title>
<g id="a_node3"><a xlink:href="a00308.html#a6fa77e9fd744981d4a9d7cac37ddf1bf" target="_top" xlink:title=" ">
<polygon fill="#ffffff" stroke="#000000" points="380.25,-818.5 380.25,-846.5 500.7568,-846.5 500.7568,-818.5 380.25,-818.5"/>
<text text-anchor="start" x="388.25" y="-834.5" font-family="Helvetica,sans-Serif" font-size="10.00" fill="#000000">A_CO_DB_Table_Base</text>
<text text-anchor="middle" x="440.5034" y="-824.5" font-family="Helvetica,sans-Serif" font-size="10.00" fill="#000000">\delete_from_db</text>
</a>
</g>
</g>
<!-- Node1&#45;&gt;Node3 -->
<g id="edge2" class="edge">
<title>Node1&#45;&gt;Node3</title>
<path fill="none" stroke="#191970" d="M584.336,-698.5572C568.0563,-726.4365 537.4763,-773.3602 500.7568,-803.5 493.6678,-809.3188 485.2161,-814.3079 476.9178,-818.4254"/>
<polygon fill="#191970" stroke="#191970" points="587.5611,-699.9677 589.4845,-689.5489 581.4837,-696.4942 587.5611,-699.9677"/>
</g>
<!-- Node4 -->
<g id="node4" class="node">
<title>Node4</title>
<g id="a_node4"><a xlink:href="a00308.html#a1ed093545fa1cbc3f63a672cdf424734" target="_top" xlink:title=" ">
<polygon fill="#ffffff" stroke="#000000" points="205.9624,-937.5 205.9624,-965.5 326.4692,-965.5 326.4692,-937.5 205.9624,-937.5"/>
<text text-anchor="start" x="213.9624" y="-953.5" font-family="Helvetica,sans-Serif" font-size="10.00" fill="#000000">A_CO_DB_Table_Base</text>
<text text-anchor="middle" x="266.2158" y="-943.5" font-family="Helvetica,sans-Serif" font-size="10.00" fill="#000000">\set_lang</text>
</a>
</g>
</g>
<!-- Node1&#45;&gt;Node4 -->
<g id="edge3" class="edge">
<title>Node1&#45;&gt;Node4</title>
<path fill="none" stroke="#191970" d="M579.198,-697.2348C561.2833,-717.852 531.9161,-748.4353 500.7568,-767.5 452.376,-797.1017 419.5132,-768.5687 380.25,-809.5 341.999,-849.376 383.4612,-889.5678 344.25,-928.5 339.2387,-933.4757 333.2081,-937.3851 326.7477,-940.455"/>
<polygon fill="#191970" stroke="#191970" points="581.881,-699.4825 585.7042,-689.6014 576.5536,-694.9417 581.881,-699.4825"/>
</g>
<!-- Node5 -->
<g id="node5" class="node">
<title>Node5</title>
<g id="a_node5"><a xlink:href="a00316.html#a6349c04b5a027e23f0b8bd8810579844" target="_top" xlink:title=" ">
<polygon fill="#ffffff" stroke="#000000" points="200.4131,-890.5 200.4131,-918.5 332.0186,-918.5 332.0186,-890.5 200.4131,-890.5"/>
<text text-anchor="start" x="208.4131" y="-906.5" font-family="Helvetica,sans-Serif" font-size="10.00" fill="#000000">CO_Main_DB_Record\set</text>
<text text-anchor="middle" x="266.2158" y="-896.5" font-family="Helvetica,sans-Serif" font-size="10.00" fill="#000000">_owner_id</text>
</a>
</g>
</g>
<!-- Node1&#45;&gt;Node5 -->
<g id="edge4" class="edge">
<title>Node1&#45;&gt;Node5</title>
<path fill="none" stroke="#191970" d="M567.2552,-695.1385C548.6363,-706.9124 523.8743,-721.6535 500.7568,-732.5 449.2756,-756.6546 420.1508,-734.9823 380.25,-775.5 345.3396,-810.9502 380.1412,-847.0431 344.25,-881.5 340.684,-884.9235 336.6345,-887.8408 332.3003,-890.3263"/>
<polygon fill="#191970" stroke="#191970" points="569.3313,-697.9653 575.8678,-689.6271 565.5582,-692.0692 569.3313,-697.9653"/>
</g>
<!-- Node6 -->
<g id="node6" class="node">
<title>Node6</title>
<g id="a_node6"><a xlink:href="a00316.html#a7860101403a734329dd8c1079f5d367e" target="_top" xlink:title=" ">
<polygon fill="#ffffff" stroke="#000000" points="200.4131,-843.5 200.4131,-871.5 332.0186,-871.5 332.0186,-843.5 200.4131,-843.5"/>
<text text-anchor="start" x="208.4131" y="-859.5" font-family="Helvetica,sans-Serif" font-size="10.00" fill="#000000">CO_Main_DB_Record\set</text>
<text text-anchor="middle" x="266.2158" y="-849.5" font-family="Helvetica,sans-Serif" font-size="10.00" fill="#000000">_payload</text>
</a>
</g>
</g>
<!-- Node1&#45;&gt;Node6 -->
<g id="edge5" class="edge">
<title>Node1&#45;&gt;Node6</title>
<path fill="none" stroke="#191970" d="M527.6461,-692.0158C468.5249,-706.6315 391.3808,-727.1927 380.25,-737.5 346.51,-768.7439 377.8642,-803.1208 344.25,-834.5 340.5332,-837.9696 336.3186,-840.9183 331.8197,-843.4238"/>
<polygon fill="#191970" stroke="#191970" points="528.8341,-695.3281 537.7095,-689.5421 527.1631,-688.5304 528.8341,-695.3281"/>
</g>
<!-- Node7 -->
<g id="node7" class="node">
<title>Node7</title>
<g id="a_node7"><a xlink:href="a00308.html#a3d4d1ab7910b9ccfdf8654d767e01d9b" target="_top" xlink:title=" ">
<polygon fill="#ffffff" stroke="#000000" points="205.9624,-796.5 205.9624,-824.5 326.4692,-824.5 326.4692,-796.5 205.9624,-796.5"/>
<text text-anchor="start" x="213.9624" y="-812.5" font-family="Helvetica,sans-Serif" font-size="10.00" fill="#000000">A_CO_DB_Table_Base</text>
<text text-anchor="middle" x="266.2158" y="-802.5" font-family="Helvetica,sans-Serif" font-size="10.00" fill="#000000">\set_read_security_id</text>
</a>
</g>
</g>
<!-- Node1&#45;&gt;Node7 -->
<g id="edge6" class="edge">
<title>Node1&#45;&gt;Node7</title>
<path fill="none" stroke="#191970" d="M526.5446,-665.9669C480.534,-663.6047 421.5556,-668.335 380.25,-699.5 346.5172,-724.9514 375.6105,-759.1768 344.25,-787.5 339.114,-792.1386 333.0852,-795.8441 326.6936,-798.8038"/>
<polygon fill="#191970" stroke="#191970" points="526.5461,-669.4739 536.7482,-666.6161 526.9907,-662.4881 526.5461,-669.4739"/>
</g>
<!-- Node8 -->
<g id="node8" class="node">
<title>Node8</title>
<g id="a_node8"><a xlink:href="a00316.html#a1f9581fbd4aa2611da866405d446295c" target="_top" xlink:title=" ">
<polygon fill="#ffffff" stroke="#000000" points="190.6816,-413.5 190.6816,-431.5 341.75,-431.5 341.75,-413.5 190.6816,-413.5"/>
<text text-anchor="middle" x="266.2158" y="-419.5" font-family="Helvetica,sans-Serif" font-size="10.00" fill="#000000">CO_Main_DB_Record\set_tag</text>
</a>
</g>
</g>
<!-- Node1&#45;&gt;Node8 -->
<g id="edge7" class="edge">
<title>Node1&#45;&gt;Node8</title>
<path fill="none" stroke="#191970" d="M569.0996,-655.2502C517.6842,-617.6231 410.4949,-537.5716 380.25,-502.5 359.4405,-478.3696 369.8892,-459.4193 344.25,-440.5 339.3276,-436.8677 333.7921,-433.9523 327.9996,-431.6146"/>
<polygon fill="#191970" stroke="#191970" points="567.297,-658.2677 577.4373,-661.3376 571.4247,-652.6141 567.297,-658.2677"/>
</g>
<!-- Node9 -->
<g id="node9" class="node">
<title>Node9</title>
<g id="a_node9"><a xlink:href="a00276.html#a9410d46a4cd780a042c738912e11a27d" target="_top" xlink:title=" ">
<polygon fill="#ffffff" stroke="#000000" points="386.9297,-165.5 386.9297,-193.5 494.0771,-193.5 494.0771,-165.5 386.9297,-165.5"/>
<text text-anchor="start" x="394.9297" y="-181.5" font-family="Helvetica,sans-Serif" font-size="10.00" fill="#000000">CO_User_Collection</text>
<text text-anchor="middle" x="440.5034" y="-171.5" font-family="Helvetica,sans-Serif" font-size="10.00" fill="#000000">\set_tag</text>
</a>
</g>
</g>
<!-- Node1&#45;&gt;Node9 -->
<g id="edge8" class="edge">
<title>Node1&#45;&gt;Node9</title>
<path fill="none" stroke="#191970" d="M590.3222,-651.5486C575.1883,-597.6845 536.8217,-462.9879 500.7568,-351.5 481.6696,-292.4954 456.4902,-223.0183 445.7359,-193.6922"/>
<polygon fill="#191970" stroke="#191970" points="586.962,-652.5289 593.0317,-661.2128 593.7021,-650.6392 586.962,-652.5289"/>
</g>
<!-- Node17 -->
<g id="node17" class="node">
<title>Node17</title>
<g id="a_node17"><a xlink:href="a00316.html#a84074211704eba98c263bd7122cd13f7" target="_top" xlink:title=" ">
<polygon fill="#ffffff" stroke="#000000" points="188.1816,-376.5 188.1816,-394.5 344.25,-394.5 344.25,-376.5 188.1816,-376.5"/>
<text text-anchor="middle" x="266.2158" y="-382.5" font-family="Helvetica,sans-Serif" font-size="10.00" fill="#000000">CO_Main_DB_Record\set_tags</text>
</a>
</g>
</g>
<!-- Node1&#45;&gt;Node17 -->
<g id="edge16" class="edge">
<title>Node1&#45;&gt;Node17</title>
<path fill="none" stroke="#191970" d="M588.3106,-651.9047C574.2591,-616.2447 543.7345,-547.9676 500.7568,-502.5 444.2181,-442.6856 420.2074,-435.1997 344.25,-403.5 335.6534,-399.9123 326.2114,-396.9696 316.9555,-394.5801"/>
<polygon fill="#191970" stroke="#191970" points="585.1288,-653.382 591.9864,-661.4582 591.6619,-650.8683 585.1288,-653.382"/>
</g>
<!-- Node19 -->
<g id="node19" class="node">
<title>Node19</title>
<g id="a_node19"><a xlink:href="a00308.html#a55eae92ef3e2f47689019e174f29daf1" target="_top" xlink:title=" ">
<polygon fill="#ffffff" stroke="#000000" points="205.9624,-329.5 205.9624,-357.5 326.4692,-357.5 326.4692,-329.5 205.9624,-329.5"/>
<text text-anchor="start" x="213.9624" y="-345.5" font-family="Helvetica,sans-Serif" font-size="10.00" fill="#000000">A_CO_DB_Table_Base</text>
<text text-anchor="middle" x="266.2158" y="-335.5" font-family="Helvetica,sans-Serif" font-size="10.00" fill="#000000">\set_write_security_id</text>
</a>
</g>
</g>
<!-- Node1&#45;&gt;Node19 -->
<g id="edge18" class="edge">
<title>Node1&#45;&gt;Node19</title>
<path fill="none" stroke="#191970" d="M595.0254,-651.2378C589.544,-600.1841 569.6754,-480.9811 500.7568,-415.5 453.5119,-370.6116 378.9631,-353.661 326.6225,-347.2876"/>
<polygon fill="#191970" stroke="#191970" points="591.5554,-651.7159 596.0133,-661.3272 598.5221,-651.0337 591.5554,-651.7159"/>
</g>
<!-- Node20 -->
<g id="node20" class="node">
<title>Node20</title>
<g id="a_node20"><a xlink:href="a00308.html#a7487697640051c6661b8cdca6f109959" target="_top" xlink:title=" ">
<polygon fill="#ffffff" stroke="#000000" points="380.25,-618.5 380.25,-646.5 500.7568,-646.5 500.7568,-618.5 380.25,-618.5"/>
<text text-anchor="start" x="388.25" y="-634.5" font-family="Helvetica,sans-Serif" font-size="10.00" fill="#000000">A_CO_DB_Table_Base</text>
<text text-anchor="middle" x="440.5034" y="-624.5" font-family="Helvetica,sans-Serif" font-size="10.00" fill="#000000">\update_db</text>
</a>
</g>
</g>
<!-- Node1&#45;&gt;Node20 -->
<g id="edge19" class="edge">
<title>Node1&#45;&gt;Node20</title>
<path fill="none" stroke="#191970" d="M535.7986,-658.6822C521.1728,-654.6638 505.7121,-650.416 491.5973,-646.538"/>
<polygon fill="#191970" stroke="#191970" points="535.1941,-662.1457 545.7641,-661.4202 537.0487,-655.3959 535.1941,-662.1457"/>
</g>
<!-- Node10 -->
<g id="node10" class="node">
<title>Node10</title>
<g id="a_node10"><a xlink:href="a00276.html#ad1254d0e49f000883944fba0b4ce670d" target="_top" xlink:title=" ">
<polygon fill="#ffffff" stroke="#000000" points="212.6421,-141.5 212.6421,-169.5 319.7896,-169.5 319.7896,-141.5 212.6421,-141.5"/>
<text text-anchor="start" x="220.6421" y="-157.5" font-family="Helvetica,sans-Serif" font-size="10.00" fill="#000000">CO_User_Collection</text>
<text text-anchor="middle" x="266.2158" y="-147.5" font-family="Helvetica,sans-Serif" font-size="10.00" fill="#000000">\set_given_name</text>
</a>
</g>
</g>
<!-- Node9&#45;&gt;Node10 -->
<g id="edge9" class="edge">
<title>Node9&#45;&gt;Node10</title>
<path fill="none" stroke="#191970" d="M376.6456,-170.7066C358.062,-168.1475 337.9537,-165.3785 320.0526,-162.9135"/>
<polygon fill="#191970" stroke="#191970" points="376.4053,-174.2064 386.7893,-172.1034 377.3602,-167.2718 376.4053,-174.2064"/>
</g>
<!-- Node11 -->
<g id="node11" class="node">
<title>Node11</title>
<g id="a_node11"><a xlink:href="a00276.html#a2ba17ba0df27d93adda9eb20d1249338" target="_top" xlink:title=" ">
<polygon fill="#ffffff" stroke="#000000" points="212.6421,-94.5 212.6421,-122.5 319.7896,-122.5 319.7896,-94.5 212.6421,-94.5"/>
<text text-anchor="start" x="220.6421" y="-110.5" font-family="Helvetica,sans-Serif" font-size="10.00" fill="#000000">CO_User_Collection</text>
<text text-anchor="middle" x="266.2158" y="-100.5" font-family="Helvetica,sans-Serif" font-size="10.00" fill="#000000">\set_login</text>
</a>
</g>
</g>
<!-- Node9&#45;&gt;Node11 -->
<g id="edge10" class="edge">
<title>Node9&#45;&gt;Node11</title>
<path fill="none" stroke="#191970" d="M406.3211,-160.6124C388.2207,-151.0861 365.4121,-139.8205 344.25,-131.5 336.1005,-128.2958 327.3214,-125.2946 318.6955,-122.586"/>
<polygon fill="#191970" stroke="#191970" points="404.8525,-163.7957 415.3236,-165.4107 408.1451,-157.6184 404.8525,-163.7957"/>
</g>
<!-- Node12 -->
<g id="node12" class="node">
<title>Node12</title>
<g id="a_node12"><a xlink:href="a00276.html#a4e60c1e03b490e38e441d4b8dbada19f" target="_top" xlink:title=" ">
<polygon fill="#ffffff" stroke="#000000" points="212.6421,-47.5 212.6421,-75.5 319.7896,-75.5 319.7896,-47.5 212.6421,-47.5"/>
<text text-anchor="start" x="220.6421" y="-63.5" font-family="Helvetica,sans-Serif" font-size="10.00" fill="#000000">CO_User_Collection</text>
<text text-anchor="middle" x="266.2158" y="-53.5" font-family="Helvetica,sans-Serif" font-size="10.00" fill="#000000">\set_middle_name</text>
</a>
</g>
</g>
<!-- Node9&#45;&gt;Node12 -->
<g id="edge11" class="edge">
<title>Node9&#45;&gt;Node12</title>
<path fill="none" stroke="#191970" d="M423.6308,-157.4053C406.0416,-135.8339 376.5679,-103.5546 344.25,-84.5 336.8284,-80.1242 328.513,-76.5279 320.1512,-73.588"/>
<polygon fill="#191970" stroke="#191970" points="421.0143,-159.7379 429.9859,-165.3736 426.4869,-155.3732 421.0143,-159.7379"/>
</g>
<!-- Node13 -->
<g id="node13" class="node">
<title>Node13</title>
<g id="a_node13"><a xlink:href="a00276.html#ac70dec96610b3e89b7888a3cab6aef72" target="_top" xlink:title=" ">
<polygon fill="#ffffff" stroke="#000000" points="212.6421,-.5 212.6421,-28.5 319.7896,-28.5 319.7896,-.5 212.6421,-.5"/>
<text text-anchor="start" x="220.6421" y="-16.5" font-family="Helvetica,sans-Serif" font-size="10.00" fill="#000000">CO_User_Collection</text>
<text text-anchor="middle" x="266.2158" y="-6.5" font-family="Helvetica,sans-Serif" font-size="10.00" fill="#000000">\set_nickname</text>
</a>
</g>
</g>
<!-- Node9&#45;&gt;Node13 -->
<g id="edge12" class="edge">
<title>Node9&#45;&gt;Node13</title>
<path fill="none" stroke="#191970" d="M430.7894,-156.0858C416.4888,-124.4837 386.7848,-68.5689 344.25,-37.5 337.0647,-32.2516 328.69,-28.1935 320.1464,-25.0576"/>
<polygon fill="#191970" stroke="#191970" points="427.6657,-157.6778 434.8879,-165.4296 434.0762,-154.8659 427.6657,-157.6778"/>
</g>
<!-- Node14 -->
<g id="node14" class="node">
<title>Node14</title>
<g id="a_node14"><a xlink:href="a00276.html#adbeef6102042c2ec1530502386a275c4" target="_top" xlink:title=" ">
<polygon fill="#ffffff" stroke="#000000" points="212.6421,-282.5 212.6421,-310.5 319.7896,-310.5 319.7896,-282.5 212.6421,-282.5"/>
<text text-anchor="start" x="220.6421" y="-298.5" font-family="Helvetica,sans-Serif" font-size="10.00" fill="#000000">CO_User_Collection</text>
<text text-anchor="middle" x="266.2158" y="-288.5" font-family="Helvetica,sans-Serif" font-size="10.00" fill="#000000">\set_prefix</text>
</a>
</g>
</g>
<!-- Node9&#45;&gt;Node14 -->
<g id="edge13" class="edge">
<title>Node9&#45;&gt;Node14</title>
<path fill="none" stroke="#191970" d="M423.1903,-201.3852C405.456,-222.428 376.0469,-253.7288 344.25,-272.5 336.8045,-276.8954 328.4767,-280.5588 320.1097,-283.5895"/>
<polygon fill="#191970" stroke="#191970" points="425.9487,-203.5416 429.6138,-193.6009 420.5495,-199.0863 425.9487,-203.5416"/>
</g>
<!-- Node15 -->
<g id="node15" class="node">
<title>Node15</title>
<g id="a_node15"><a xlink:href="a00276.html#af4643580a79e531d9e78c75c67c21388" target="_top" xlink:title=" ">
<polygon fill="#ffffff" stroke="#000000" points="212.6421,-235.5 212.6421,-263.5 319.7896,-263.5 319.7896,-235.5 212.6421,-235.5"/>
<text text-anchor="start" x="220.6421" y="-251.5" font-family="Helvetica,sans-Serif" font-size="10.00" fill="#000000">CO_User_Collection</text>
<text text-anchor="middle" x="266.2158" y="-241.5" font-family="Helvetica,sans-Serif" font-size="10.00" fill="#000000">\set_suffix</text>
</a>
</g>
</g>
<!-- Node9&#45;&gt;Node15 -->
<g id="edge14" class="edge">
<title>Node9&#45;&gt;Node15</title>
<path fill="none" stroke="#191970" d="M404.6632,-198.1801C386.7872,-207.0955 364.6725,-217.5296 344.25,-225.5 335.1393,-229.0557 325.2709,-232.4382 315.7151,-235.4825"/>
<polygon fill="#191970" stroke="#191970" points="406.24,-201.3048 413.5934,-193.6773 403.0884,-195.0544 406.24,-201.3048"/>
</g>
<!-- Node16 -->
<g id="node16" class="node">
<title>Node16</title>
<g id="a_node16"><a xlink:href="a00276.html#a28a62f95bbfbb511f01a2b8a3eb3db6f" target="_top" xlink:title=" ">
<polygon fill="#ffffff" stroke="#000000" points="212.6421,-188.5 212.6421,-216.5 319.7896,-216.5 319.7896,-188.5 212.6421,-188.5"/>
<text text-anchor="start" x="220.6421" y="-204.5" font-family="Helvetica,sans-Serif" font-size="10.00" fill="#000000">CO_User_Collection</text>
<text text-anchor="middle" x="266.2158" y="-194.5" font-family="Helvetica,sans-Serif" font-size="10.00" fill="#000000">\set_surname</text>
</a>
</g>
</g>
<!-- Node9&#45;&gt;Node16 -->
<g id="edge15" class="edge">
<title>Node9&#45;&gt;Node16</title>
<path fill="none" stroke="#191970" d="M376.6456,-187.927C358.062,-190.3795 337.9537,-193.0331 320.0526,-195.3954"/>
<polygon fill="#191970" stroke="#191970" points="377.3332,-191.3667 386.7893,-186.5884 376.4173,-184.4269 377.3332,-191.3667"/>
</g>
<!-- Node18 -->
<g id="node18" class="node">
<title>Node18</title>
<g id="a_node18"><a xlink:href="a00260.html#a887a876b0603db0289a8bdc7ab4e66b2" target="_top" xlink:title=" ">
<polygon fill="#ffffff" stroke="#000000" points="12.2314,-371.5 12.2314,-399.5 139.9502,-399.5 139.9502,-371.5 12.2314,-371.5"/>
<text text-anchor="start" x="20.2314" y="-387.5" font-family="Helvetica,sans-Serif" font-size="10.00" fill="#000000">CO_Place\set_tags_from</text>
<text text-anchor="middle" x="76.0908" y="-377.5" font-family="Helvetica,sans-Serif" font-size="10.00" fill="#000000">_address_elements</text>
</a>
</g>
</g>
<!-- Node17&#45;&gt;Node18 -->
<g id="edge17" class="edge">
<title>Node17&#45;&gt;Node18</title>
<path fill="none" stroke="#191970" d="M177.8807,-385.5C165.1204,-385.5 152.1976,-385.5 140.0382,-385.5"/>
<polygon fill="#191970" stroke="#191970" points="178.0617,-389.0001 188.0616,-385.5 178.0616,-382.0001 178.0617,-389.0001"/>
</g>
<!-- Node20&#45;&gt;Node4 -->
<g id="edge25" class="edge">
<title>Node20&#45;&gt;Node4</title>
<path fill="none" stroke="#191970" d="M429.0857,-656.1564C415.9215,-684.1414 394.2967,-732.3824 380.25,-775.5 358.6115,-841.9212 392.2559,-877.7512 344.25,-928.5 339.3,-933.7328 333.2252,-937.7936 326.6703,-940.9415"/>
<polygon fill="#191970" stroke="#191970" points="432.3961,-657.3444 433.5232,-646.8097 426.0726,-654.3422 432.3961,-657.3444"/>
</g>
<!-- Node20&#45;&gt;Node5 -->
<g id="edge28" class="edge">
<title>Node20&#45;&gt;Node5</title>
<path fill="none" stroke="#191970" d="M425.0088,-655.203C411.5197,-675.8639 392.2907,-707.612 380.25,-737.5 355.5986,-798.6907 389.9162,-833.8912 344.25,-881.5 340.7303,-885.1694 336.6574,-888.2616 332.2564,-890.8665"/>
<polygon fill="#191970" stroke="#191970" points="427.9704,-657.0699 430.5782,-646.801 422.1358,-653.2023 427.9704,-657.0699"/>
</g>
<!-- Node20&#45;&gt;Node6 -->
<g id="edge30" class="edge">
<title>Node20&#45;&gt;Node6</title>
<path fill="none" stroke="#191970" d="M416.6495,-653.6571C404.16,-665.9173 389.5687,-682.3001 380.25,-699.5 350.6693,-754.0984 387.5839,-790.0234 344.25,-834.5 340.7018,-838.1418 336.6083,-841.2142 332.1931,-843.8053"/>
<polygon fill="#191970" stroke="#191970" points="419.252,-656.0123 424.0885,-646.5858 414.4292,-650.9387 419.252,-656.0123"/>
</g>
<!-- Node20&#45;&gt;Node7 -->
<g id="edge32" class="edge">
<title>Node20&#45;&gt;Node7</title>
<path fill="none" stroke="#191970" d="M390.5632,-652.0363C386.7515,-654.8171 383.2343,-657.9588 380.25,-661.5 342.7186,-706.0353 385.2607,-746.1464 344.25,-787.5 339.2773,-792.5143 333.2703,-796.4472 326.8227,-799.53"/>
<polygon fill="#191970" stroke="#191970" points="392.7111,-654.8188 399.2852,-646.5103 388.9647,-648.9057 392.7111,-654.8188"/>
</g>
<!-- Node20&#45;&gt;Node8 -->
<g id="edge33" class="edge">
<title>Node20&#45;&gt;Node8</title>
<path fill="none" stroke="#191970" d="M408.8001,-612.2831C398.3345,-604.1802 387.5228,-594.018 380.25,-582.5 345.4888,-527.4485 390.7823,-486.0385 344.25,-440.5 340.5734,-436.9019 336.3295,-433.9679 331.7591,-431.5812"/>
<polygon fill="#191970" stroke="#191970" points="406.9104,-615.2375 417.0449,-618.3266 411.0487,-609.5917 406.9104,-615.2375"/>
</g>
<!-- Node20&#45;&gt;Node17 -->
<g id="edge34" class="edge">
<title>Node20&#45;&gt;Node17</title>
<path fill="none" stroke="#191970" d="M428.995,-609.2481C416.3947,-583.4418 395.901,-540.425 380.25,-502.5 362.3898,-459.2217 379.3136,-434.5249 344.25,-403.5 340.1891,-399.9069 335.5545,-396.9907 330.6151,-394.6288"/>
<polygon fill="#191970" stroke="#191970" points="425.8643,-610.8134 433.4111,-618.2495 432.1487,-607.7301 425.8643,-610.8134"/>
</g>
<!-- Node20&#45;&gt;Node19 -->
<g id="edge35" class="edge">
<title>Node20&#45;&gt;Node19</title>
<path fill="none" stroke="#191970" d="M438.8528,-608.2944C433.9887,-556.3032 415.1984,-433.2761 344.25,-366.5 339.1076,-361.66 332.9971,-357.8332 326.493,-354.8085"/>
<polygon fill="#191970" stroke="#191970" points="435.3655,-608.594 439.6931,-618.2647 442.3408,-608.0061 435.3655,-608.594"/>
</g>
<!-- Node21 -->
<g id="node21" class="node">
<title>Node21</title>
<g id="a_node21"><a xlink:href="a00340.html#a0d11bc2cb9f23f091615dd5918dd2abb" target="_top" xlink:title=" ">
<polygon fill="#ffffff" stroke="#000000" points="198.4551,-665.5 198.4551,-683.5 333.9766,-683.5 333.9766,-665.5 198.4551,-665.5"/>
<text text-anchor="middle" x="266.2158" y="-671.5" font-family="Helvetica,sans-Serif" font-size="10.00" fill="#000000">CO_Security_Login\add_id</text>
</a>
</g>
</g>
<!-- Node20&#45;&gt;Node21 -->
<g id="edge20" class="edge">
<title>Node20&#45;&gt;Node21</title>
<path fill="none" stroke="#191970" d="M375.2347,-648.9394C364.8764,-651.5007 354.2758,-654.0939 344.25,-656.5 331.8121,-659.4849 318.2358,-662.6491 305.9456,-665.4783"/>
<polygon fill="#191970" stroke="#191970" points="376.2019,-652.3057 385.0649,-646.5007 374.5163,-645.5116 376.2019,-652.3057"/>
</g>
<!-- Node22 -->
<g id="node22" class="node">
<title>Node22</title>
<g id="a_node22"><a xlink:href="a00340.html#a59e2e5be376349924698305603bfb51f" target="_top" xlink:title=" ">
<polygon fill="#ffffff" stroke="#000000" points="202.6323,-618.5 202.6323,-646.5 329.7993,-646.5 329.7993,-618.5 202.6323,-618.5"/>
<text text-anchor="start" x="210.6323" y="-634.5" font-family="Helvetica,sans-Serif" font-size="10.00" fill="#000000">CO_Security_Login\clear</text>
<text text-anchor="middle" x="266.2158" y="-624.5" font-family="Helvetica,sans-Serif" font-size="10.00" fill="#000000">_api_key</text>
</a>
</g>
</g>
<!-- Node20&#45;&gt;Node22 -->
<g id="edge21" class="edge">
<title>Node20&#45;&gt;Node22</title>
<path fill="none" stroke="#191970" d="M370.0023,-632.5C356.7175,-632.5 342.8969,-632.5 329.8379,-632.5"/>
<polygon fill="#191970" stroke="#191970" points="370.0352,-636.0001 380.0352,-632.5 370.0352,-629.0001 370.0352,-636.0001"/>
</g>
<!-- Node23 -->
<g id="node23" class="node">
<title>Node23</title>
<g id="a_node23"><a xlink:href="a00308.html#ab976e4ab55890095fc60406326b5de80" target="_top" xlink:title=" ">
<polygon fill="#ffffff" stroke="#000000" points="205.9624,-571.5 205.9624,-599.5 326.4692,-599.5 326.4692,-571.5 205.9624,-571.5"/>
<text text-anchor="start" x="213.9624" y="-587.5" font-family="Helvetica,sans-Serif" font-size="10.00" fill="#000000">A_CO_DB_Table_Base</text>
<text text-anchor="middle" x="266.2158" y="-577.5" font-family="Helvetica,sans-Serif" font-size="10.00" fill="#000000">\clear_batch_mode</text>
</a>
</g>
</g>
<!-- Node20&#45;&gt;Node23 -->
<g id="edge22" class="edge">
<title>Node20&#45;&gt;Node23</title>
<path fill="none" stroke="#191970" d="M378.3995,-615.7525C358.682,-610.4353 337.0956,-604.6141 318.1704,-599.5106"/>
<polygon fill="#191970" stroke="#191970" points="377.645,-619.174 388.2114,-618.3985 379.4676,-612.4154 377.645,-619.174"/>
</g>
<!-- Node24 -->
<g id="node24" class="node">
<title>Node24</title>
<g id="a_node24"><a xlink:href="a00340.html#a1a141bb2d1d8b67737119e0729c7d159" target="_top" xlink:title=" ">
<polygon fill="#ffffff" stroke="#000000" points="197.6274,-534.5 197.6274,-552.5 334.8042,-552.5 334.8042,-534.5 197.6274,-534.5"/>
<text text-anchor="middle" x="266.2158" y="-540.5" font-family="Helvetica,sans-Serif" font-size="10.00" fill="#000000">CO_Security_Login\set_ids</text>
</a>
</g>
</g>
<!-- Node20&#45;&gt;Node24 -->
<g id="edge23" class="edge">
<title>Node20&#45;&gt;Node24</title>
<path fill="none" stroke="#191970" d="M414.9857,-611.826C391.8015,-593.3925 359.0354,-568.301 344.25,-561.5 336.2924,-557.8397 327.5255,-554.8908 318.8295,-552.5248"/>
<polygon fill="#191970" stroke="#191970" points="413.047,-614.7572 423.0426,-618.2699 417.4192,-609.2906 413.047,-614.7572"/>
</g>
<!-- Node26 -->
<g id="node26" class="node">
<title>Node26</title>
<g id="a_node26"><a xlink:href="a00340.html#a061f896c69dc8a8dd3d9ee793b91ddc7" target="_top" xlink:title=" ">
<polygon fill="#ffffff" stroke="#000000" points="194.5659,-497.5 194.5659,-515.5 337.8657,-515.5 337.8657,-497.5 194.5659,-497.5"/>
<text text-anchor="middle" x="266.2158" y="-503.5" font-family="Helvetica,sans-Serif" font-size="10.00" fill="#000000">CO_Security_Login\set_lang</text>
</a>
</g>
</g>
<!-- Node20&#45;&gt;Node26 -->
<g id="edge26" class="edge">
<title>Node20&#45;&gt;Node26</title>
<path fill="none" stroke="#191970" d="M412.4315,-612.3029C401.6702,-603.7993 389.715,-593.3613 380.25,-582.5 360.3173,-559.6268 368.9251,-542.1531 344.25,-524.5 339.1616,-520.8596 333.4509,-517.9429 327.494,-515.6079"/>
<polygon fill="#191970" stroke="#191970" points="410.3057,-615.0834 420.3669,-618.4035 414.5722,-609.5338 410.3057,-615.0834"/>
</g>
<!-- Node27 -->
<g id="node27" class="node">
<title>Node27</title>
<g id="a_node27"><a xlink:href="a00308.html#a92a9b9a122e9471b82dd79432bf3c929" target="_top" xlink:title=" ">
<polygon fill="#ffffff" stroke="#000000" points="205.9624,-450.5 205.9624,-478.5 326.4692,-478.5 326.4692,-450.5 205.9624,-450.5"/>
<text text-anchor="start" x="213.9624" y="-466.5" font-family="Helvetica,sans-Serif" font-size="10.00" fill="#000000">A_CO_DB_Table_Base</text>
<text text-anchor="middle" x="266.2158" y="-456.5" font-family="Helvetica,sans-Serif" font-size="10.00" fill="#000000">\set_name</text>
</a>
</g>
</g>
<!-- Node20&#45;&gt;Node27 -->
<g id="edge27" class="edge">
<title>Node20&#45;&gt;Node27</title>
<path fill="none" stroke="#191970" d="M410.0064,-612.1858C399.464,-603.9703 388.2915,-593.7598 380.25,-582.5 354.0085,-545.7563 377.3612,-518.198 344.25,-487.5 339.1749,-482.7948 333.1837,-479.0481 326.8131,-476.0655"/>
<polygon fill="#191970" stroke="#191970" points="408.1435,-615.1625 418.2542,-618.3288 412.3248,-609.5485 408.1435,-615.1625"/>
</g>
<!-- Node28 -->
<g id="node28" class="node">
<title>Node28</title>
<g id="a_node28"><a xlink:href="a00340.html#ac4f0c16cb8cf1e2151451bf4d5cb2238" target="_top" xlink:title=" ">
<polygon fill="#ffffff" stroke="#000000" points="199.5781,-749.5 199.5781,-777.5 332.8535,-777.5 332.8535,-749.5 199.5781,-749.5"/>
<text text-anchor="start" x="207.5781" y="-765.5" font-family="Helvetica,sans-Serif" font-size="10.00" fill="#000000">CO_Security_Login\set</text>
<text text-anchor="middle" x="266.2158" y="-755.5" font-family="Helvetica,sans-Serif" font-size="10.00" fill="#000000">_password_from_cleartext</text>
</a>
</g>
</g>
<!-- Node20&#45;&gt;Node28 -->
<g id="edge29" class="edge">
<title>Node20&#45;&gt;Node28</title>
<path fill="none" stroke="#191970" d="M392.2933,-651.7403C387.9257,-654.617 383.8137,-657.8607 380.25,-661.5 353.2543,-689.0685 373.3872,-715.2054 344.25,-740.5 340.3038,-743.9258 335.8681,-746.8418 331.1671,-749.3238"/>
<polygon fill="#191970" stroke="#191970" points="394.0907,-654.7437 400.9308,-646.6528 390.5381,-648.7122 394.0907,-654.7437"/>
</g>
<!-- Node29 -->
<g id="node29" class="node">
<title>Node29</title>
<g id="a_node29"><a xlink:href="a00340.html#a8d18fed2a089c920e67802253be3cd68" target="_top" xlink:title=" ">
<polygon fill="#ffffff" stroke="#000000" points="206.7998,-702.5 206.7998,-730.5 325.6318,-730.5 325.6318,-702.5 206.7998,-702.5"/>
<text text-anchor="start" x="214.7998" y="-718.5" font-family="Helvetica,sans-Serif" font-size="10.00" fill="#000000">CO_Security_Login\set</text>
<text text-anchor="middle" x="266.2158" y="-708.5" font-family="Helvetica,sans-Serif" font-size="10.00" fill="#000000">_personal_ids</text>
</a>
</g>
</g>
<!-- Node20&#45;&gt;Node29 -->
<g id="edge31" class="edge">
<title>Node20&#45;&gt;Node29</title>
<path fill="none" stroke="#191970" d="M398.1142,-651.0464C391.965,-654.2639 385.8328,-657.7813 380.25,-661.5 362.4334,-673.3676 362.9682,-683.1124 344.25,-693.5 338.0752,-696.9267 331.3357,-699.8922 324.4875,-702.446"/>
<polygon fill="#191970" stroke="#191970" points="399.7002,-654.1665 407.0736,-646.5584 396.565,-647.9079 399.7002,-654.1665"/>
</g>
<!-- Node25 -->
<g id="node25" class="node">
<title>Node25</title>
<g id="a_node25"><a xlink:href="a00340.html#a985325996e8392412a6782569b294176" target="_top" xlink:title=" ">
<polygon fill="#ffffff" stroke="#000000" points="0,-534.5 0,-552.5 152.1816,-552.5 152.1816,-534.5 0,-534.5"/>
<text text-anchor="middle" x="76.0908" y="-540.5" font-family="Helvetica,sans-Serif" font-size="10.00" fill="#000000">CO_Security_Login\remove_id</text>
</a>
</g>
</g>
<!-- Node24&#45;&gt;Node25 -->
<g id="edge24" class="edge">
<title>Node24&#45;&gt;Node25</title>
<path fill="none" stroke="#191970" d="M187.4771,-543.5C175.8662,-543.5 163.9203,-543.5 152.3606,-543.5"/>
<polygon fill="#191970" stroke="#191970" points="187.5764,-547.0001 197.5763,-543.5 187.5763,-540.0001 187.5764,-547.0001"/>
</g>
</g>
</svg>
