<?xml version="1.0" encoding="UTF-8" standalone="no"?>
<!DOCTYPE svg PUBLIC "-//W3C//DTD SVG 1.1//EN"
 "http://www.w3.org/Graphics/SVG/1.1/DTD/svg11.dtd">
<!-- Generated by graphviz version 2.47.1 (20210417.1919)
 -->
<!-- Title: A_CO_DB\write_record Pages: 1 -->
<svg width="472pt" height="127pt"
 viewBox="0.00 0.00 472.00 126.50" xmlns="http://www.w3.org/2000/svg" xmlns:xlink="http://www.w3.org/1999/xlink">
<g id="graph0" class="graph" transform="scale(1 1) rotate(0) translate(4 122.5)">
<title>A_CO_DB\write_record</title>
<polygon fill="white" stroke="transparent" points="-4,4 -4,-122.5 468,-122.5 468,4 -4,4"/>
<!-- Node1 -->
<g id="node1" class="node">
<title>Node1</title>
<g id="a_node1"><a xlink:title=" ">
<polygon fill="#bfbfbf" stroke="black" points="0,-22.5 0,-41.5 119,-41.5 119,-22.5 0,-22.5"/>
<text text-anchor="middle" x="59.5" y="-29.5" font-family="Helvetica,sans-Serif" font-size="10.00">A_CO_DB\write_record</text>
</a>
</g>
</g>
<!-- Node2 -->
<g id="node2" class="node">
<title>Node2</title>
<g id="a_node2"><a xlink:href="a00304.html#ad2356dbed1b38898d8c17bcd8eb405ef" target="_top" xlink:title=" ">
<polygon fill="white" stroke="black" points="155,-39 155,-69 293,-69 293,-39 155,-39"/>
<text text-anchor="start" x="163" y="-57" font-family="Helvetica,sans-Serif" font-size="10.00">A_CO_DB\_create_security</text>
<text text-anchor="middle" x="224" y="-46" font-family="Helvetica,sans-Serif" font-size="10.00">_predicate</text>
</a>
</g>
</g>
<!-- Node1&#45;&gt;Node2 -->
<g id="edge1" class="edge">
<title>Node1&#45;&gt;Node2</title>
<path fill="none" stroke="midnightblue" d="M119.17,-39.94C127.46,-41.07 136.1,-42.24 144.7,-43.4"/>
<polygon fill="midnightblue" stroke="midnightblue" points="144.37,-46.89 154.75,-44.76 145.31,-39.95 144.37,-46.89"/>
</g>
<!-- Node5 -->
<g id="node5" class="node">
<title>Node5</title>
<g id="a_node5"><a xlink:href="a00304.html#a2396849660aa4ff018ab7509a4badeb5" target="_top" xlink:title=" ">
<polygon fill="white" stroke="black" points="159,-0.5 159,-19.5 289,-19.5 289,-0.5 159,-0.5"/>
<text text-anchor="middle" x="224" y="-7.5" font-family="Helvetica,sans-Serif" font-size="10.00">A_CO_DB\execute_query</text>
</a>
</g>
</g>
<!-- Node1&#45;&gt;Node5 -->
<g id="edge4" class="edge">
<title>Node1&#45;&gt;Node5</title>
<path fill="none" stroke="midnightblue" d="M119.17,-24.06C128.85,-22.75 138.99,-21.37 148.99,-20.02"/>
<polygon fill="midnightblue" stroke="midnightblue" points="149.48,-23.49 158.92,-18.68 148.54,-16.55 149.48,-23.49"/>
</g>
<!-- Node3 -->
<g id="node3" class="node">
<title>Node3</title>
<g id="a_node3"><a xlink:href="a00304.html#a176b2c663fa7768e95e4fbe93281adc6" target="_top" xlink:title=" ">
<polygon fill="white" stroke="black" points="335.5,-88 335.5,-118 457.5,-118 457.5,-88 335.5,-88"/>
<text text-anchor="start" x="343.5" y="-106" font-family="Helvetica,sans-Serif" font-size="10.00">A_CO_DB\_create_read</text>
<text text-anchor="middle" x="396.5" y="-95" font-family="Helvetica,sans-Serif" font-size="10.00">_security_predicate</text>
</a>
</g>
</g>
<!-- Node2&#45;&gt;Node3 -->
<g id="edge2" class="edge">
<title>Node2&#45;&gt;Node3</title>
<path fill="none" stroke="midnightblue" d="M277.55,-69.1C295.21,-74.18 315.09,-79.89 333.42,-85.16"/>
<polygon fill="midnightblue" stroke="midnightblue" points="332.55,-88.55 343.13,-87.95 334.48,-81.82 332.55,-88.55"/>
</g>
<!-- Node4 -->
<g id="node4" class="node">
<title>Node4</title>
<g id="a_node4"><a xlink:href="a00304.html#ad4bc3d416f085818935b32a814313202" target="_top" xlink:title=" ">
<polygon fill="white" stroke="black" points="334,-39 334,-69 459,-69 459,-39 334,-39"/>
<text text-anchor="start" x="342" y="-57" font-family="Helvetica,sans-Serif" font-size="10.00">A_CO_DB\_create_write</text>
<text text-anchor="middle" x="396.5" y="-46" font-family="Helvetica,sans-Serif" font-size="10.00">_security_predicate</text>
</a>
</g>
</g>
<!-- Node2&#45;&gt;Node4 -->
<g id="edge3" class="edge">
<title>Node2&#45;&gt;Node4</title>
<path fill="none" stroke="midnightblue" d="M293.37,-54C303.27,-54 313.49,-54 323.46,-54"/>
<polygon fill="midnightblue" stroke="midnightblue" points="323.73,-57.5 333.73,-54 323.73,-50.5 323.73,-57.5"/>
</g>
<!-- Node6 -->
<g id="node6" class="node">
<title>Node6</title>
<g id="a_node6"><a xlink:href="a00304.html#ae41efbdfe739934823b5f4c785b22611" target="_top" xlink:title=" ">
<polygon fill="white" stroke="black" points="329,-0.5 329,-19.5 464,-19.5 464,-0.5 329,-0.5"/>
<text text-anchor="middle" x="396.5" y="-7.5" font-family="Helvetica,sans-Serif" font-size="10.00">A_CO_DB\_execute_query</text>
</a>
</g>
</g>
<!-- Node5&#45;&gt;Node6 -->
<g id="edge5" class="edge">
<title>Node5&#45;&gt;Node6</title>
<path fill="none" stroke="midnightblue" d="M289.46,-10C299.05,-10 309.01,-10 318.82,-10"/>
<polygon fill="midnightblue" stroke="midnightblue" points="318.96,-13.5 328.96,-10 318.96,-6.5 318.96,-13.5"/>
</g>
</g>
</svg>
