<?xml version="1.0" encoding="UTF-8" standalone="no"?>
<!DOCTYPE svg PUBLIC "-//W3C//DTD SVG 1.1//EN"
 "http://www.w3.org/Graphics/SVG/1.1/DTD/svg11.dtd">
<!-- Generated by graphviz version 2.40.1 (20161225.0304)
 -->
<!-- Title: CO_Security_DB\get_single_record_by_login_id Pages: 1 -->
<!--zoomable 144 -->
<svg id="main" version="1.1" xmlns="http://www.w3.org/2000/svg" xmlns:xlink="http://www.w3.org/1999/xlink" xml:space="preserve" onload="init(evt)">
<style type="text/css"><![CDATA[
.edge:hover path { stroke: red; }
.edge:hover polygon { stroke: red; fill: red; }
]]></style>
<script type="text/javascript"><![CDATA[
var edges = document.getElementsByTagName('g');
if (edges && edges.length) {
  for (var i=0;i<edges.length;i++) {
    if (edges[i].id.substr(0,4)=='edge') {
      edges[i].setAttribute('class','edge');
    }
  }
}
]]></script>
        <defs>
                <circle id="rim" cx="0" cy="0" r="7"/>
                <circle id="rim2" cx="0" cy="0" r="3.5"/>
                <g id="zoomPlus">
                        <use xlink:href="#rim" fill="#404040">
                                <set attributeName="fill" to="#808080" begin="zoomplus.mouseover" end="zoomplus.mouseout"/>
                        </use>
                        <path d="M-4,0h8M0,-4v8" fill="none" stroke="white" stroke-width="1.5" pointer-events="none"/>
                </g>
                <g id="zoomMin">
                        <use xlink:href="#rim" fill="#404040">
                                <set attributeName="fill" to="#808080" begin="zoomminus.mouseover" end="zoomminus.mouseout"/>
                        </use>
                        <path d="M-4,0h8" fill="none" stroke="white" stroke-width="1.5" pointer-events="none"/>
                </g>
                <g id="dirArrow">
                        <path fill="none" stroke="white" stroke-width="1.5" d="M0,-3.0v7 M-2.5,-0.5L0,-3.0L2.5,-0.5"/>
                </g>
               <g id="resetDef">
                       <use xlink:href="#rim2" fill="#404040">
                               <set attributeName="fill" to="#808080" begin="reset.mouseover" end="reset.mouseout"/>
                       </use>
               </g>
        </defs>

<script type="text/javascript">
var viewWidth = 640;
var viewHeight = 144;
var sectionId = 'dynsection-13';
</script>
<script xlink:href="svgpan.js"/>
<svg id="graph" class="graph">
<g id="viewport">
<title>CO_Security_DB\get_single_record_by_login_id</title>
<polygon fill="#ffffff" stroke="transparent" points="-4,4 -4,-140 636.2588,-140 636.2588,4 -4,4"/>
<!-- Node1 -->
<g id="node1" class="node">
<title>Node1</title>
<g id="a_node1"><a xlink:title=" ">
<polygon fill="#bfbfbf" stroke="#000000" points="0,-37.5 0,-65.5 137.7529,-65.5 137.7529,-37.5 0,-37.5"/>
<text text-anchor="start" x="8" y="-53.5" font-family="Helvetica,sans-Serif" font-size="10.00" fill="#000000">CO_Security_DB\get</text>
<text text-anchor="middle" x="68.8765" y="-43.5" font-family="Helvetica,sans-Serif" font-size="10.00" fill="#000000">_single_record_by_login_id</text>
</a>
</g>
</g>
<!-- Node2 -->
<g id="node2" class="node">
<title>Node2</title>
<g id="a_node2"><a xlink:href="a00327.html#af7f9180938518c8325b3d4ba52112e02" target="_top" xlink:title=" ">
<polygon fill="#ffffff" stroke="#000000" points="173.7529,-32.5 173.7529,-70.5 284.8018,-70.5 284.8018,-32.5 173.7529,-32.5"/>
<text text-anchor="start" x="181.7529" y="-58.5" font-family="Helvetica,sans-Serif" font-size="10.00" fill="#000000">CO_Security_DB\get</text>
<text text-anchor="start" x="181.7529" y="-48.5" font-family="Helvetica,sans-Serif" font-size="10.00" fill="#000000">_multiple_records_by</text>
<text text-anchor="middle" x="229.2773" y="-38.5" font-family="Helvetica,sans-Serif" font-size="10.00" fill="#000000">_login_id</text>
</a>
</g>
</g>
<!-- Node1&#45;&gt;Node2 -->
<g id="edge1" class="edge">
<title>Node1&#45;&gt;Node2</title>
<path fill="none" stroke="#191970" d="M137.8318,-51.5C146.283,-51.5 154.9042,-51.5 163.3099,-51.5"/>
<polygon fill="#191970" stroke="#191970" points="163.4302,-55.0001 173.4302,-51.5 163.4302,-48.0001 163.4302,-55.0001"/>
</g>
<!-- Node3 -->
<g id="node3" class="node">
<title>Node3</title>
<g id="a_node3"><a xlink:href="a00307.html#ad2356dbed1b38898d8c17bcd8eb405ef" target="_top" xlink:title=" ">
<polygon fill="#ffffff" stroke="#000000" points="320.8018,-84.5 320.8018,-112.5 459.6338,-112.5 459.6338,-84.5 320.8018,-84.5"/>
<text text-anchor="start" x="328.8018" y="-100.5" font-family="Helvetica,sans-Serif" font-size="10.00" fill="#000000">A_CO_DB\_create_security</text>
<text text-anchor="middle" x="390.2178" y="-90.5" font-family="Helvetica,sans-Serif" font-size="10.00" fill="#000000">_predicate</text>
</a>
</g>
</g>
<!-- Node2&#45;&gt;Node3 -->
<g id="edge2" class="edge">
<title>Node2&#45;&gt;Node3</title>
<path fill="none" stroke="#191970" d="M285.1148,-67.8064C300.3821,-72.265 316.9586,-77.1059 332.3373,-81.5969"/>
<polygon fill="#191970" stroke="#191970" points="331.6643,-85.0465 342.2445,-84.4902 333.6266,-78.3272 331.6643,-85.0465"/>
</g>
<!-- Node6 -->
<g id="node6" class="node">
<title>Node6</title>
<g id="a_node6"><a xlink:href="a00307.html#a523e2f40174a0bca0fc873d6286b3ae9" target="_top" xlink:title=" ">
<polygon fill="#ffffff" stroke="#000000" points="331.9126,-37.5 331.9126,-65.5 448.5229,-65.5 448.5229,-37.5 331.9126,-37.5"/>
<text text-anchor="start" x="339.9126" y="-53.5" font-family="Helvetica,sans-Serif" font-size="10.00" fill="#000000">A_CO_DB\_instantiate</text>
<text text-anchor="middle" x="390.2178" y="-43.5" font-family="Helvetica,sans-Serif" font-size="10.00" fill="#000000">_record</text>
</a>
</g>
</g>
<!-- Node2&#45;&gt;Node6 -->
<g id="edge5" class="edge">
<title>Node2&#45;&gt;Node6</title>
<path fill="none" stroke="#191970" d="M285.1148,-51.5C296.8889,-51.5 309.4416,-51.5 321.6231,-51.5"/>
<polygon fill="#191970" stroke="#191970" points="321.743,-55.0001 331.7429,-51.5 321.7429,-48.0001 321.743,-55.0001"/>
</g>
<!-- Node7 -->
<g id="node7" class="node">
<title>Node7</title>
<g id="a_node7"><a xlink:href="a00307.html#a2396849660aa4ff018ab7509a4badeb5" target="_top" xlink:title=" ">
<polygon fill="#ffffff" stroke="#000000" points="324.686,-.5 324.686,-18.5 455.7495,-18.5 455.7495,-.5 324.686,-.5"/>
<text text-anchor="middle" x="390.2178" y="-6.5" font-family="Helvetica,sans-Serif" font-size="10.00" fill="#000000">A_CO_DB\execute_query</text>
</a>
</g>
</g>
<!-- Node2&#45;&gt;Node7 -->
<g id="edge6" class="edge">
<title>Node2&#45;&gt;Node7</title>
<path fill="none" stroke="#191970" d="M285.1148,-36.9283C304.9697,-31.7469 327.0388,-25.9876 345.8081,-21.0894"/>
<polygon fill="#191970" stroke="#191970" points="346.784,-24.452 355.5762,-18.5403 345.0164,-17.6789 346.784,-24.452"/>
</g>
<!-- Node4 -->
<g id="node4" class="node">
<title>Node4</title>
<g id="a_node4"><a xlink:href="a00307.html#a176b2c663fa7768e95e4fbe93281adc6" target="_top" xlink:title=" ">
<polygon fill="#ffffff" stroke="#000000" points="501.7495,-107.5 501.7495,-135.5 626.1431,-135.5 626.1431,-107.5 501.7495,-107.5"/>
<text text-anchor="start" x="509.7495" y="-123.5" font-family="Helvetica,sans-Serif" font-size="10.00" fill="#000000">A_CO_DB\_create_read</text>
<text text-anchor="middle" x="563.9463" y="-113.5" font-family="Helvetica,sans-Serif" font-size="10.00" fill="#000000">_security_predicate</text>
</a>
</g>
</g>
<!-- Node3&#45;&gt;Node4 -->
<g id="edge3" class="edge">
<title>Node3&#45;&gt;Node4</title>
<path fill="none" stroke="#191970" d="M459.8788,-107.7225C470.3232,-109.1052 481.1133,-110.5337 491.612,-111.9236"/>
<polygon fill="#191970" stroke="#191970" points="491.1947,-115.3988 501.5676,-113.2417 492.1135,-108.4594 491.1947,-115.3988"/>
</g>
<!-- Node5 -->
<g id="node5" class="node">
<title>Node5</title>
<g id="a_node5"><a xlink:href="a00307.html#ad4bc3d416f085818935b32a814313202" target="_top" xlink:title=" ">
<polygon fill="#ffffff" stroke="#000000" points="501.2002,-60.5 501.2002,-88.5 626.6924,-88.5 626.6924,-60.5 501.2002,-60.5"/>
<text text-anchor="start" x="509.2002" y="-76.5" font-family="Helvetica,sans-Serif" font-size="10.00" fill="#000000">A_CO_DB\_create_write</text>
<text text-anchor="middle" x="563.9463" y="-66.5" font-family="Helvetica,sans-Serif" font-size="10.00" fill="#000000">_security_predicate</text>
</a>
</g>
</g>
<!-- Node3&#45;&gt;Node5 -->
<g id="edge4" class="edge">
<title>Node3&#45;&gt;Node5</title>
<path fill="none" stroke="#191970" d="M459.8788,-88.8766C470.0739,-87.4681 480.5985,-86.0142 490.8598,-84.5967"/>
<polygon fill="#191970" stroke="#191970" points="491.5845,-88.0299 501.0114,-83.1942 490.6265,-81.0957 491.5845,-88.0299"/>
</g>
<!-- Node8 -->
<g id="node8" class="node">
<title>Node8</title>
<g id="a_node8"><a xlink:href="a00307.html#ae41efbdfe739934823b5f4c785b22611" target="_top" xlink:title=" ">
<polygon fill="#ffffff" stroke="#000000" points="495.6338,-.5 495.6338,-18.5 632.2588,-18.5 632.2588,-.5 495.6338,-.5"/>
<text text-anchor="middle" x="563.9463" y="-6.5" font-family="Helvetica,sans-Serif" font-size="10.00" fill="#000000">A_CO_DB\_execute_query</text>
</a>
</g>
</g>
<!-- Node7&#45;&gt;Node8 -->
<g id="edge7" class="edge">
<title>Node7&#45;&gt;Node8</title>
<path fill="none" stroke="#191970" d="M455.8971,-9.5C465.5246,-9.5 475.5219,-9.5 485.3756,-9.5"/>
<polygon fill="#191970" stroke="#191970" points="485.5706,-13.0001 495.5706,-9.5 485.5705,-6.0001 485.5706,-13.0001"/>
</g>
</g>
</svg>
        <g id="navigator" transform="translate(0 0)" fill="#404254">
                <rect fill="#f2f5e9" fill-opacity="0.5" stroke="#606060" stroke-width=".5" x="0" y="0" width="60" height="60"/>
                <use id="zoomplus" xlink:href="#zoomPlus" x="17" y="9" onmousedown="handleZoom(evt,'in')"/>
                <use id="zoomminus" xlink:href="#zoomMin" x="42" y="9" onmousedown="handleZoom(evt,'out')"/>
                <use id="reset" xlink:href="#resetDef" x="30" y="36" onmousedown="handleReset()"/>
                <g id="arrowUp" xlink:href="#dirArrow" transform="translate(30 24)" onmousedown="handlePan(0,-1)">
                  <use xlink:href="#rim" fill="#404040">
                        <set attributeName="fill" to="#808080" begin="arrowUp.mouseover" end="arrowUp.mouseout"/>
                  </use>
                  <path fill="none" stroke="white" stroke-width="1.5" d="M0,-3.0v7 M-2.5,-0.5L0,-3.0L2.5,-0.5"/>
                </g>
                <g id="arrowRight" xlink:href="#dirArrow" transform="rotate(90) translate(36 -43)" onmousedown="handlePan(1,0)">
                  <use xlink:href="#rim" fill="#404040">
                        <set attributeName="fill" to="#808080" begin="arrowRight.mouseover" end="arrowRight.mouseout"/>
                  </use>
                  <path fill="none" stroke="white" stroke-width="1.5" d="M0,-3.0v7 M-2.5,-0.5L0,-3.0L2.5,-0.5"/>
                </g>
                <g id="arrowDown" xlink:href="#dirArrow" transform="rotate(180) translate(-30 -48)" onmousedown="handlePan(0,1)">
                  <use xlink:href="#rim" fill="#404040">
                        <set attributeName="fill" to="#808080" begin="arrowDown.mouseover" end="arrowDown.mouseout"/>
                  </use>
                  <path fill="none" stroke="white" stroke-width="1.5" d="M0,-3.0v7 M-2.5,-0.5L0,-3.0L2.5,-0.5"/>
                </g>
                <g id="arrowLeft" xlink:href="#dirArrow" transform="rotate(270) translate(-36 17)" onmousedown="handlePan(-1,0)">
                  <use xlink:href="#rim" fill="#404040">
                        <set attributeName="fill" to="#808080" begin="arrowLeft.mouseover" end="arrowLeft.mouseout"/>
                  </use>
                  <path fill="none" stroke="white" stroke-width="1.5" d="M0,-3.0v7 M-2.5,-0.5L0,-3.0L2.5,-0.5"/>
                </g>
        </g>
        <svg viewBox="0 0 15 15" width="100%" height="30px" preserveAspectRatio="xMaxYMin meet">
         <g id="arrow_out" transform="scale(0.3 0.3)">
          <a xlink:href="a00327_ab01692597b11329b0d63096b10e1f473_cgraph_org.svg" target="_base">
           <rect id="button" ry="5" rx="5" y="6" x="6" height="38" width="38"
                fill="#f2f5e9" fill-opacity="0.5" stroke="#606060" stroke-width="1.0"/>
           <path id="arrow"
             d="M 11.500037,31.436501 C 11.940474,20.09759 22.043105,11.32322 32.158766,21.979434 L 37.068811,17.246167 C 37.068811,17.246167 37.088388,32 37.088388,32 L 22.160133,31.978069 C 22.160133,31.978069 26.997745,27.140456 26.997745,27.140456 C 18.528582,18.264221 13.291696,25.230495 11.500037,31.436501 z"
             style="fill:#404040;"/>
          </a>
         </g>
        </svg>
</svg>
