<?xml version="1.0" encoding="UTF-8" standalone="no"?>
<!DOCTYPE svg PUBLIC "-//W3C//DTD SVG 1.1//EN"
 "http://www.w3.org/Graphics/SVG/1.1/DTD/svg11.dtd">
<!-- Generated by graphviz version 2.40.1 (20161225.0304)
 -->
<!-- Title: A_CO_DB_Table_Base\_badger_serialize Pages: 1 -->
<!--zoomable 598 -->
<svg id="main" version="1.1" xmlns="http://www.w3.org/2000/svg" xmlns:xlink="http://www.w3.org/1999/xlink" xml:space="preserve" onload="init(evt)">
<style type="text/css"><![CDATA[
.edge:hover path { stroke: red; }
.edge:hover polygon { stroke: red; fill: red; }
]]></style>
<script type="text/javascript"><![CDATA[
var edges = document.getElementsByTagName('g');
if (edges && edges.length) {
  for (var i=0;i<edges.length;i++) {
    if (edges[i].id.substr(0,4)=='edge') {
      edges[i].setAttribute('class','edge');
    }
  }
}
]]></script>
        <defs>
                <circle id="rim" cx="0" cy="0" r="7"/>
                <circle id="rim2" cx="0" cy="0" r="3.5"/>
                <g id="zoomPlus">
                        <use xlink:href="#rim" fill="#404040">
                                <set attributeName="fill" to="#808080" begin="zoomplus.mouseover" end="zoomplus.mouseout"/>
                        </use>
                        <path d="M-4,0h8M0,-4v8" fill="none" stroke="white" stroke-width="1.5" pointer-events="none"/>
                </g>
                <g id="zoomMin">
                        <use xlink:href="#rim" fill="#404040">
                                <set attributeName="fill" to="#808080" begin="zoomminus.mouseover" end="zoomminus.mouseout"/>
                        </use>
                        <path d="M-4,0h8" fill="none" stroke="white" stroke-width="1.5" pointer-events="none"/>
                </g>
                <g id="dirArrow">
                        <path fill="none" stroke="white" stroke-width="1.5" d="M0,-3.0v7 M-2.5,-0.5L0,-3.0L2.5,-0.5"/>
                </g>
               <g id="resetDef">
                       <use xlink:href="#rim2" fill="#404040">
                               <set attributeName="fill" to="#808080" begin="reset.mouseover" end="reset.mouseout"/>
                       </use>
               </g>
        </defs>

<script type="text/javascript">
var viewWidth = 994;
var viewHeight = 598;
var sectionId = 'dynsection-3';
</script>
<script xlink:href="svgpan.js"/>
<svg id="graph" class="graph">
<g id="viewport">
<title>A_CO_DB_Table_Base\_badger_serialize</title>
<polygon fill="#ffffff" stroke="transparent" points="-4,4 -4,-594 990.3906,-594 990.3906,4 -4,4"/>
<!-- Node1 -->
<g id="node1" class="node">
<title>Node1</title>
<g id="a_node1"><a xlink:title=" ">
<polygon fill="#bfbfbf" stroke="#000000" points="865.8838,-308.5 865.8838,-336.5 986.3906,-336.5 986.3906,-308.5 865.8838,-308.5"/>
<text text-anchor="start" x="873.8838" y="-324.5" font-family="Helvetica,sans-Serif" font-size="10.00" fill="#000000">A_CO_DB_Table_Base</text>
<text text-anchor="middle" x="926.1372" y="-314.5" font-family="Helvetica,sans-Serif" font-size="10.00" fill="#000000">\_badger_serialize</text>
</a>
</g>
</g>
<!-- Node2 -->
<g id="node2" class="node">
<title>Node2</title>
<g id="a_node2"><a xlink:href="a00311.html#a6109c37c5e61ab04ea710b1ebb7615a5" target="_top" xlink:title=" ">
<polygon fill="#ffffff" stroke="#000000" points="704.9336,-308.5 704.9336,-336.5 829.8838,-336.5 829.8838,-308.5 704.9336,-308.5"/>
<text text-anchor="start" x="712.9336" y="-324.5" font-family="Helvetica,sans-Serif" font-size="10.00" fill="#000000">A_CO_DB_Table_Base</text>
<text text-anchor="middle" x="767.4087" y="-314.5" font-family="Helvetica,sans-Serif" font-size="10.00" fill="#000000">\_build_parameter_array</text>
</a>
</g>
</g>
<!-- Node1&#45;&gt;Node2 -->
<g id="edge1" class="edge">
<title>Node1&#45;&gt;Node2</title>
<path fill="none" stroke="#191970" d="M855.4529,-322.5C846.9961,-322.5 838.4064,-322.5 830.0739,-322.5"/>
<polygon fill="#191970" stroke="#191970" points="855.676,-326.0001 865.676,-322.5 855.6759,-319.0001 855.676,-326.0001"/>
</g>
<!-- Node3 -->
<g id="node3" class="node">
<title>Node3</title>
<g id="a_node3"><a xlink:href="a00311.html#adda14b544e11934db3bf8130aeea0610" target="_top" xlink:title=" ">
<polygon fill="#ffffff" stroke="#000000" points="548.4268,-308.5 548.4268,-336.5 668.9336,-336.5 668.9336,-308.5 548.4268,-308.5"/>
<text text-anchor="start" x="556.4268" y="-324.5" font-family="Helvetica,sans-Serif" font-size="10.00" fill="#000000">A_CO_DB_Table_Base</text>
<text text-anchor="middle" x="608.6802" y="-314.5" font-family="Helvetica,sans-Serif" font-size="10.00" fill="#000000">\_write_to_db</text>
</a>
</g>
</g>
<!-- Node2&#45;&gt;Node3 -->
<g id="edge2" class="edge">
<title>Node2&#45;&gt;Node3</title>
<path fill="none" stroke="#191970" d="M694.4298,-322.5C685.9696,-322.5 677.4121,-322.5 669.145,-322.5"/>
<polygon fill="#191970" stroke="#191970" points="694.675,-326.0001 704.675,-322.5 694.6749,-319.0001 694.675,-326.0001"/>
</g>
<!-- Node4 -->
<g id="node4" class="node">
<title>Node4</title>
<g id="a_node4"><a xlink:href="a00343.html#ae927630811dae37fddc34b16878c63fd" target="_top" xlink:title=" ">
<polygon fill="#ffffff" stroke="#000000" points="379.6885,-332.5 379.6885,-360.5 512.4268,-360.5 512.4268,-332.5 379.6885,-332.5"/>
<text text-anchor="start" x="387.6885" y="-348.5" font-family="Helvetica,sans-Serif" font-size="10.00" fill="#000000">CO_Security_Login\delete</text>
<text text-anchor="middle" x="446.0576" y="-338.5" font-family="Helvetica,sans-Serif" font-size="10.00" fill="#000000">_from_db</text>
</a>
</g>
</g>
<!-- Node3&#45;&gt;Node4 -->
<g id="edge3" class="edge">
<title>Node3&#45;&gt;Node4</title>
<path fill="none" stroke="#191970" d="M537.9761,-332.9346C529.5726,-334.1748 521.0153,-335.4377 512.6717,-336.669"/>
<polygon fill="#191970" stroke="#191970" points="538.7437,-336.3593 548.1255,-331.4367 537.7217,-329.4343 538.7437,-336.3593"/>
</g>
<!-- Node5 -->
<g id="node5" class="node">
<title>Node5</title>
<g id="a_node5"><a xlink:href="a00311.html#a7487697640051c6661b8cdca6f109959" target="_top" xlink:title=" ">
<polygon fill="#ffffff" stroke="#000000" points="385.8042,-285.5 385.8042,-313.5 506.311,-313.5 506.311,-285.5 385.8042,-285.5"/>
<text text-anchor="start" x="393.8042" y="-301.5" font-family="Helvetica,sans-Serif" font-size="10.00" fill="#000000">A_CO_DB_Table_Base</text>
<text text-anchor="middle" x="446.0576" y="-291.5" font-family="Helvetica,sans-Serif" font-size="10.00" fill="#000000">\update_db</text>
</a>
</g>
</g>
<!-- Node3&#45;&gt;Node5 -->
<g id="edge4" class="edge">
<title>Node3&#45;&gt;Node5</title>
<path fill="none" stroke="#191970" d="M538.0951,-312.517C527.5298,-311.0228 516.7186,-309.4937 506.392,-308.0332"/>
<polygon fill="#191970" stroke="#191970" points="537.7339,-316.0007 548.1255,-313.9356 538.7142,-309.0697 537.7339,-316.0007"/>
</g>
<!-- Node6 -->
<g id="node6" class="node">
<title>Node6</title>
<g id="a_node6"><a xlink:href="a00331.html#a4a3ed38130b49569d494ec7c262ca32d" target="_top" xlink:title=" ">
<polygon fill="#ffffff" stroke="#000000" points="198.1743,-571.5 198.1743,-589.5 333.1343,-589.5 333.1343,-571.5 198.1743,-571.5"/>
<text text-anchor="middle" x="265.6543" y="-577.5" font-family="Helvetica,sans-Serif" font-size="10.00" fill="#000000">CO_Security_Node\add_id</text>
</a>
</g>
</g>
<!-- Node5&#45;&gt;Node6 -->
<g id="edge5" class="edge">
<title>Node5&#45;&gt;Node6</title>
<path fill="none" stroke="#191970" d="M382.8649,-320.0389C381.7456,-321.1332 380.6837,-322.2859 379.6885,-323.5 311.5886,-406.5757 416.6584,-483.6676 343.6885,-562.5 340.3829,-566.0711 336.5226,-569.0022 332.321,-571.4016"/>
<polygon fill="#191970" stroke="#191970" points="385.306,-322.5711 390.9892,-313.6295 380.9704,-317.0754 385.306,-322.5711"/>
</g>
<!-- Node7 -->
<g id="node7" class="node">
<title>Node7</title>
<g id="a_node7"><a xlink:href="a00343.html#a59e2e5be376349924698305603bfb51f" target="_top" xlink:title=" ">
<polygon fill="#ffffff" stroke="#000000" points="202.0708,-524.5 202.0708,-552.5 329.2378,-552.5 329.2378,-524.5 202.0708,-524.5"/>
<text text-anchor="start" x="210.0708" y="-540.5" font-family="Helvetica,sans-Serif" font-size="10.00" fill="#000000">CO_Security_Login\clear</text>
<text text-anchor="middle" x="265.6543" y="-530.5" font-family="Helvetica,sans-Serif" font-size="10.00" fill="#000000">_api_key</text>
</a>
</g>
</g>
<!-- Node5&#45;&gt;Node7 -->
<g id="edge6" class="edge">
<title>Node5&#45;&gt;Node7</title>
<path fill="none" stroke="#191970" d="M383.3585,-319.6795C382.0619,-320.8802 380.8343,-322.1522 379.6885,-323.5 323.4537,-389.647 401.8936,-451.0799 343.6885,-515.5 339.6169,-520.0063 334.7115,-523.6477 329.3673,-526.5875"/>
<polygon fill="#191970" stroke="#191970" points="385.5887,-322.3811 391.4492,-313.5546 381.3636,-316.7999 385.5887,-322.3811"/>
</g>
<!-- Node8 -->
<g id="node8" class="node">
<title>Node8</title>
<g id="a_node8"><a xlink:href="a00311.html#ab976e4ab55890095fc60406326b5de80" target="_top" xlink:title=" ">
<polygon fill="#ffffff" stroke="#000000" points="205.4009,-477.5 205.4009,-505.5 325.9077,-505.5 325.9077,-477.5 205.4009,-477.5"/>
<text text-anchor="start" x="213.4009" y="-493.5" font-family="Helvetica,sans-Serif" font-size="10.00" fill="#000000">A_CO_DB_Table_Base</text>
<text text-anchor="middle" x="265.6543" y="-483.5" font-family="Helvetica,sans-Serif" font-size="10.00" fill="#000000">\clear_batch_mode</text>
</a>
</g>
</g>
<!-- Node5&#45;&gt;Node8 -->
<g id="edge7" class="edge">
<title>Node5&#45;&gt;Node8</title>
<path fill="none" stroke="#191970" d="M383.5565,-319.6861C382.1949,-320.8848 380.9011,-322.1548 379.6885,-323.5 335.2306,-372.8213 389.6143,-420.5427 343.6885,-468.5 338.7065,-473.7024 332.6124,-477.7448 326.0472,-480.8829"/>
<polygon fill="#191970" stroke="#191970" points="385.9571,-322.269 392.003,-313.5686 381.8511,-316.5997 385.9571,-322.269"/>
</g>
<!-- Node9 -->
<g id="node9" class="node">
<title>Node9</title>
<g id="a_node9"><a xlink:href="a00331.html#a241314e7be52a7ca6487e41f34bb78fd" target="_top" xlink:title=" ">
<polygon fill="#ffffff" stroke="#000000" points="197.3467,-440.5 197.3467,-458.5 333.9619,-458.5 333.9619,-440.5 197.3467,-440.5"/>
<text text-anchor="middle" x="265.6543" y="-446.5" font-family="Helvetica,sans-Serif" font-size="10.00" fill="#000000">CO_Security_Node\set_ids</text>
</a>
</g>
</g>
<!-- Node5&#45;&gt;Node9 -->
<g id="edge8" class="edge">
<title>Node5&#45;&gt;Node9</title>
<path fill="none" stroke="#191970" d="M384.186,-319.4131C382.605,-320.6919 381.0999,-322.0525 379.6885,-323.5 344.3656,-359.7256 381.1248,-397.4629 343.6885,-431.5 339.6765,-435.1477 335.0759,-438.1017 330.159,-440.4888"/>
<polygon fill="#191970" stroke="#191970" points="386.331,-322.1873 392.6397,-313.6755 382.4,-316.3953 386.331,-322.1873"/>
</g>
<!-- Node11 -->
<g id="node11" class="node">
<title>Node11</title>
<g id="a_node11"><a xlink:href="a00311.html#a1ed093545fa1cbc3f63a672cdf424734" target="_top" xlink:title=" ">
<polygon fill="#ffffff" stroke="#000000" points="205.4009,-393.5 205.4009,-421.5 325.9077,-421.5 325.9077,-393.5 205.4009,-393.5"/>
<text text-anchor="start" x="213.4009" y="-409.5" font-family="Helvetica,sans-Serif" font-size="10.00" fill="#000000">A_CO_DB_Table_Base</text>
<text text-anchor="middle" x="265.6543" y="-399.5" font-family="Helvetica,sans-Serif" font-size="10.00" fill="#000000">\set_lang</text>
</a>
</g>
</g>
<!-- Node5&#45;&gt;Node11 -->
<g id="edge10" class="edge">
<title>Node5&#45;&gt;Node11</title>
<path fill="none" stroke="#191970" d="M386.2364,-318.7113C383.9469,-320.1954 381.7517,-321.7891 379.6885,-323.5 355.4558,-343.5945 368.5165,-365.1459 343.6885,-384.5 338.4531,-388.5812 332.5097,-391.939 326.2949,-394.7016"/>
<polygon fill="#191970" stroke="#191970" points="388.4631,-321.474 395.4557,-313.5146 385.0257,-315.3761 388.4631,-321.474"/>
</g>
<!-- Node12 -->
<g id="node12" class="node">
<title>Node12</title>
<g id="a_node12"><a xlink:href="a00343.html#a061f896c69dc8a8dd3d9ee793b91ddc7" target="_top" xlink:title=" ">
<polygon fill="#ffffff" stroke="#000000" points="194.0044,-356.5 194.0044,-374.5 337.3042,-374.5 337.3042,-356.5 194.0044,-356.5"/>
<text text-anchor="middle" x="265.6543" y="-362.5" font-family="Helvetica,sans-Serif" font-size="10.00" fill="#000000">CO_Security_Login\set_lang</text>
</a>
</g>
</g>
<!-- Node5&#45;&gt;Node12 -->
<g id="edge11" class="edge">
<title>Node5&#45;&gt;Node12</title>
<path fill="none" stroke="#191970" d="M393.1013,-317.3289C388.504,-319.2725 383.9748,-321.3362 379.6885,-323.5 362.5222,-332.1658 361.3446,-339.8816 343.6885,-347.5 335.2631,-351.1354 325.9954,-354.0928 316.8796,-356.48"/>
<polygon fill="#191970" stroke="#191970" points="394.6078,-320.4955 402.5777,-313.5146 391.994,-314.0018 394.6078,-320.4955"/>
</g>
<!-- Node13 -->
<g id="node13" class="node">
<title>Node13</title>
<g id="a_node13"><a xlink:href="a00311.html#a92a9b9a122e9471b82dd79432bf3c929" target="_top" xlink:title=" ">
<polygon fill="#ffffff" stroke="#000000" points="205.4009,-309.5 205.4009,-337.5 325.9077,-337.5 325.9077,-309.5 205.4009,-309.5"/>
<text text-anchor="start" x="213.4009" y="-325.5" font-family="Helvetica,sans-Serif" font-size="10.00" fill="#000000">A_CO_DB_Table_Base</text>
<text text-anchor="middle" x="265.6543" y="-315.5" font-family="Helvetica,sans-Serif" font-size="10.00" fill="#000000">\set_name</text>
</a>
</g>
</g>
<!-- Node5&#45;&gt;Node13 -->
<g id="edge12" class="edge">
<title>Node5&#45;&gt;Node13</title>
<path fill="none" stroke="#191970" d="M375.645,-308.8674C359.2151,-311.0531 341.8638,-313.3614 325.92,-315.4825"/>
<polygon fill="#191970" stroke="#191970" points="376.284,-312.3133 385.7351,-307.525 375.3609,-305.3744 376.284,-312.3133"/>
</g>
<!-- Node14 -->
<g id="node14" class="node">
<title>Node14</title>
<g id="a_node14"><a xlink:href="a00319.html#a6349c04b5a027e23f0b8bd8810579844" target="_top" xlink:title=" ">
<polygon fill="#ffffff" stroke="#000000" points="199.8516,-262.5 199.8516,-290.5 331.457,-290.5 331.457,-262.5 199.8516,-262.5"/>
<text text-anchor="start" x="207.8516" y="-278.5" font-family="Helvetica,sans-Serif" font-size="10.00" fill="#000000">CO_Main_DB_Record\set</text>
<text text-anchor="middle" x="265.6543" y="-268.5" font-family="Helvetica,sans-Serif" font-size="10.00" fill="#000000">_owner_id</text>
</a>
</g>
</g>
<!-- Node5&#45;&gt;Node14 -->
<g id="edge13" class="edge">
<title>Node5&#45;&gt;Node14</title>
<path fill="none" stroke="#191970" d="M375.7835,-290.5406C361.2116,-288.6828 345.9093,-286.7319 331.5029,-284.8952"/>
<polygon fill="#191970" stroke="#191970" points="375.3727,-294.0165 385.7351,-291.8094 376.2581,-287.0727 375.3727,-294.0165"/>
</g>
<!-- Node15 -->
<g id="node15" class="node">
<title>Node15</title>
<g id="a_node15"><a xlink:href="a00343.html#ac4f0c16cb8cf1e2151451bf4d5cb2238" target="_top" xlink:title=" ">
<polygon fill="#ffffff" stroke="#000000" points="199.0166,-215.5 199.0166,-243.5 332.292,-243.5 332.292,-215.5 199.0166,-215.5"/>
<text text-anchor="start" x="207.0166" y="-231.5" font-family="Helvetica,sans-Serif" font-size="10.00" fill="#000000">CO_Security_Login\set</text>
<text text-anchor="middle" x="265.6543" y="-221.5" font-family="Helvetica,sans-Serif" font-size="10.00" fill="#000000">_password_from_cleartext</text>
</a>
</g>
</g>
<!-- Node5&#45;&gt;Node15 -->
<g id="edge14" class="edge">
<title>Node5&#45;&gt;Node15</title>
<path fill="none" stroke="#191970" d="M408.082,-281.0822C388.9954,-272.1741 365.3692,-261.6693 343.6885,-253.5 334.404,-250.0016 324.3625,-246.622 314.6722,-243.5577"/>
<polygon fill="#191970" stroke="#191970" points="406.798,-284.3462 417.336,-285.4416 409.7811,-278.0136 406.798,-284.3462"/>
</g>
<!-- Node16 -->
<g id="node16" class="node">
<title>Node16</title>
<g id="a_node16"><a xlink:href="a00319.html#a7860101403a734329dd8c1079f5d367e" target="_top" xlink:title=" ">
<polygon fill="#ffffff" stroke="#000000" points="199.8516,-168.5 199.8516,-196.5 331.457,-196.5 331.457,-168.5 199.8516,-168.5"/>
<text text-anchor="start" x="207.8516" y="-184.5" font-family="Helvetica,sans-Serif" font-size="10.00" fill="#000000">CO_Main_DB_Record\set</text>
<text text-anchor="middle" x="265.6543" y="-174.5" font-family="Helvetica,sans-Serif" font-size="10.00" fill="#000000">_payload</text>
</a>
</g>
</g>
<!-- Node5&#45;&gt;Node16 -->
<g id="edge15" class="edge">
<title>Node5&#45;&gt;Node16</title>
<path fill="none" stroke="#191970" d="M427.6097,-277.9443C408.5566,-256.9391 376.9865,-225.4737 343.6885,-206.5 336.9153,-202.6405 329.4505,-199.3316 321.904,-196.5149"/>
<polygon fill="#191970" stroke="#191970" points="425.0137,-280.292 434.2767,-285.4347 430.2425,-275.638 425.0137,-280.292"/>
</g>
<!-- Node17 -->
<g id="node17" class="node">
<title>Node17</title>
<g id="a_node17"><a xlink:href="a00311.html#a3d4d1ab7910b9ccfdf8654d767e01d9b" target="_top" xlink:title=" ">
<polygon fill="#ffffff" stroke="#000000" points="205.4009,-121.5 205.4009,-149.5 325.9077,-149.5 325.9077,-121.5 205.4009,-121.5"/>
<text text-anchor="start" x="213.4009" y="-137.5" font-family="Helvetica,sans-Serif" font-size="10.00" fill="#000000">A_CO_DB_Table_Base</text>
<text text-anchor="middle" x="265.6543" y="-127.5" font-family="Helvetica,sans-Serif" font-size="10.00" fill="#000000">\set_read_security_id</text>
</a>
</g>
</g>
<!-- Node5&#45;&gt;Node17 -->
<g id="edge16" class="edge">
<title>Node5&#45;&gt;Node17</title>
<path fill="none" stroke="#191970" d="M434.9489,-276.0135C419.0358,-244.8602 386.8422,-190.2364 343.6885,-159.5 338.2624,-155.6353 332.1984,-152.3806 325.9137,-149.6424"/>
<polygon fill="#191970" stroke="#191970" points="431.9514,-277.8465 439.5367,-285.2435 438.2198,-274.7308 431.9514,-277.8465"/>
</g>
<!-- Node18 -->
<g id="node18" class="node">
<title>Node18</title>
<g id="a_node18"><a xlink:href="a00319.html#a1f9581fbd4aa2611da866405d446295c" target="_top" xlink:title=" ">
<polygon fill="#ffffff" stroke="#000000" points="190.1201,-84.5 190.1201,-102.5 341.1885,-102.5 341.1885,-84.5 190.1201,-84.5"/>
<text text-anchor="middle" x="265.6543" y="-90.5" font-family="Helvetica,sans-Serif" font-size="10.00" fill="#000000">CO_Main_DB_Record\set_tag</text>
</a>
</g>
</g>
<!-- Node5&#45;&gt;Node18 -->
<g id="edge17" class="edge">
<title>Node5&#45;&gt;Node18</title>
<path fill="none" stroke="#191970" d="M439.8606,-275.7156C428.14,-235.6128 398.8154,-154.7902 343.6885,-112.5 338.2676,-108.3414 332.063,-105.0787 325.5733,-102.5212"/>
<polygon fill="#191970" stroke="#191970" points="436.516,-276.7514 442.5869,-285.4345 443.2559,-274.8608 436.516,-276.7514"/>
</g>
<!-- Node19 -->
<g id="node19" class="node">
<title>Node19</title>
<g id="a_node19"><a xlink:href="a00319.html#a84074211704eba98c263bd7122cd13f7" target="_top" xlink:title=" ">
<polygon fill="#ffffff" stroke="#000000" points="187.6201,-47.5 187.6201,-65.5 343.6885,-65.5 343.6885,-47.5 187.6201,-47.5"/>
<text text-anchor="middle" x="265.6543" y="-53.5" font-family="Helvetica,sans-Serif" font-size="10.00" fill="#000000">CO_Main_DB_Record\set_tags</text>
</a>
</g>
</g>
<!-- Node5&#45;&gt;Node19 -->
<g id="edge18" class="edge">
<title>Node5&#45;&gt;Node19</title>
<path fill="none" stroke="#191970" d="M442.1358,-275.3792C433.3158,-229.1943 407.4688,-128.1921 343.6885,-75.5 338.7437,-71.4149 333.0564,-68.1844 327.0531,-65.6333"/>
<polygon fill="#191970" stroke="#191970" points="438.7196,-276.1572 443.9395,-285.3769 445.6084,-274.9143 438.7196,-276.1572"/>
</g>
<!-- Node21 -->
<g id="node21" class="node">
<title>Node21</title>
<g id="a_node21"><a xlink:href="a00311.html#a55eae92ef3e2f47689019e174f29daf1" target="_top" xlink:title=" ">
<polygon fill="#ffffff" stroke="#000000" points="205.4009,-.5 205.4009,-28.5 325.9077,-28.5 325.9077,-.5 205.4009,-.5"/>
<text text-anchor="start" x="213.4009" y="-16.5" font-family="Helvetica,sans-Serif" font-size="10.00" fill="#000000">A_CO_DB_Table_Base</text>
<text text-anchor="middle" x="265.6543" y="-6.5" font-family="Helvetica,sans-Serif" font-size="10.00" fill="#000000">\set_write_security_id</text>
</a>
</g>
</g>
<!-- Node5&#45;&gt;Node21 -->
<g id="edge20" class="edge">
<title>Node5&#45;&gt;Node21</title>
<path fill="none" stroke="#191970" d="M443.5071,-275.087C436.8343,-223.7267 414.179,-103.866 343.6885,-38.5 338.5959,-33.7776 332.5939,-29.9837 326.2172,-26.9359"/>
<polygon fill="#191970" stroke="#191970" points="440.0589,-275.7284 444.7304,-285.2378 447.0087,-274.8908 440.0589,-275.7284"/>
</g>
<!-- Node10 -->
<g id="node10" class="node">
<title>Node10</title>
<g id="a_node10"><a xlink:href="a00331.html#af852d696981829b18e29fb07918d8630" target="_top" xlink:title=" ">
<polygon fill="#ffffff" stroke="#000000" points="0,-440.5 0,-458.5 151.6201,-458.5 151.6201,-440.5 0,-440.5"/>
<text text-anchor="middle" x="75.8101" y="-446.5" font-family="Helvetica,sans-Serif" font-size="10.00" fill="#000000">CO_Security_Node\remove_id</text>
</a>
</g>
</g>
<!-- Node9&#45;&gt;Node10 -->
<g id="edge9" class="edge">
<title>Node9&#45;&gt;Node10</title>
<path fill="none" stroke="#191970" d="M186.9581,-449.5C175.2788,-449.5 163.2619,-449.5 151.6429,-449.5"/>
<polygon fill="#191970" stroke="#191970" points="187.1162,-453.0001 197.1162,-449.5 187.1161,-446.0001 187.1162,-453.0001"/>
</g>
<!-- Node20 -->
<g id="node20" class="node">
<title>Node20</title>
<g id="a_node20"><a xlink:href="a00263.html#a887a876b0603db0289a8bdc7ab4e66b2" target="_top" xlink:title=" ">
<polygon fill="#ffffff" stroke="#000000" points="11.9507,-42.5 11.9507,-70.5 139.6694,-70.5 139.6694,-42.5 11.9507,-42.5"/>
<text text-anchor="start" x="19.9507" y="-58.5" font-family="Helvetica,sans-Serif" font-size="10.00" fill="#000000">CO_Place\set_tags_from</text>
<text text-anchor="middle" x="75.8101" y="-48.5" font-family="Helvetica,sans-Serif" font-size="10.00" fill="#000000">_address_elements</text>
</a>
</g>
</g>
<!-- Node19&#45;&gt;Node20 -->
<g id="edge19" class="edge">
<title>Node19&#45;&gt;Node20</title>
<path fill="none" stroke="#191970" d="M177.5151,-56.5C164.8559,-56.5 152.0349,-56.5 139.9591,-56.5"/>
<polygon fill="#191970" stroke="#191970" points="177.6156,-60.0001 187.6155,-56.5 177.6155,-53.0001 177.6156,-60.0001"/>
</g>
</g>
</svg>
        <g id="navigator" transform="translate(0 0)" fill="#404254">
                <rect fill="#f2f5e9" fill-opacity="0.5" stroke="#606060" stroke-width=".5" x="0" y="0" width="60" height="60"/>
                <use id="zoomplus" xlink:href="#zoomPlus" x="17" y="9" onmousedown="handleZoom(evt,'in')"/>
                <use id="zoomminus" xlink:href="#zoomMin" x="42" y="9" onmousedown="handleZoom(evt,'out')"/>
                <use id="reset" xlink:href="#resetDef" x="30" y="36" onmousedown="handleReset()"/>
                <g id="arrowUp" xlink:href="#dirArrow" transform="translate(30 24)" onmousedown="handlePan(0,-1)">
                  <use xlink:href="#rim" fill="#404040">
                        <set attributeName="fill" to="#808080" begin="arrowUp.mouseover" end="arrowUp.mouseout"/>
                  </use>
                  <path fill="none" stroke="white" stroke-width="1.5" d="M0,-3.0v7 M-2.5,-0.5L0,-3.0L2.5,-0.5"/>
                </g>
                <g id="arrowRight" xlink:href="#dirArrow" transform="rotate(90) translate(36 -43)" onmousedown="handlePan(1,0)">
                  <use xlink:href="#rim" fill="#404040">
                        <set attributeName="fill" to="#808080" begin="arrowRight.mouseover" end="arrowRight.mouseout"/>
                  </use>
                  <path fill="none" stroke="white" stroke-width="1.5" d="M0,-3.0v7 M-2.5,-0.5L0,-3.0L2.5,-0.5"/>
                </g>
                <g id="arrowDown" xlink:href="#dirArrow" transform="rotate(180) translate(-30 -48)" onmousedown="handlePan(0,1)">
                  <use xlink:href="#rim" fill="#404040">
                        <set attributeName="fill" to="#808080" begin="arrowDown.mouseover" end="arrowDown.mouseout"/>
                  </use>
                  <path fill="none" stroke="white" stroke-width="1.5" d="M0,-3.0v7 M-2.5,-0.5L0,-3.0L2.5,-0.5"/>
                </g>
                <g id="arrowLeft" xlink:href="#dirArrow" transform="rotate(270) translate(-36 17)" onmousedown="handlePan(-1,0)">
                  <use xlink:href="#rim" fill="#404040">
                        <set attributeName="fill" to="#808080" begin="arrowLeft.mouseover" end="arrowLeft.mouseout"/>
                  </use>
                  <path fill="none" stroke="white" stroke-width="1.5" d="M0,-3.0v7 M-2.5,-0.5L0,-3.0L2.5,-0.5"/>
                </g>
        </g>
        <svg viewBox="0 0 15 15" width="100%" height="30px" preserveAspectRatio="xMaxYMin meet">
         <g id="arrow_out" transform="scale(0.3 0.3)">
          <a xlink:href="a00311_afb32d1e32b8e1c1de2e008c9b88f7846_icgraph_org.svg" target="_base">
           <rect id="button" ry="5" rx="5" y="6" x="6" height="38" width="38"
                fill="#f2f5e9" fill-opacity="0.5" stroke="#606060" stroke-width="1.0"/>
           <path id="arrow"
             d="M 11.500037,31.436501 C 11.940474,20.09759 22.043105,11.32322 32.158766,21.979434 L 37.068811,17.246167 C 37.068811,17.246167 37.088388,32 37.088388,32 L 22.160133,31.978069 C 22.160133,31.978069 26.997745,27.140456 26.997745,27.140456 C 18.528582,18.264221 13.291696,25.230495 11.500037,31.436501 z"
             style="fill:#404040;"/>
          </a>
         </g>
        </svg>
</svg>
