<?xml version="1.0" encoding="UTF-8" standalone="no"?>
<!DOCTYPE svg PUBLIC "-//W3C//DTD SVG 1.1//EN"
 "http://www.w3.org/Graphics/SVG/1.1/DTD/svg11.dtd">
<!-- Generated by graphviz version 2.47.1 (20210417.1919)
 -->
<!-- Title: A_CO_DB_Table_Base\_write_to_db Pages: 1 -->
<svg width="450pt" height="127pt"
 viewBox="0.00 0.00 450.00 127.00" xmlns="http://www.w3.org/2000/svg" xmlns:xlink="http://www.w3.org/1999/xlink">
<g id="graph0" class="graph" transform="scale(1 1) rotate(0) translate(4 123)">
<title>A_CO_DB_Table_Base\_write_to_db</title>
<polygon fill="white" stroke="transparent" points="-4,4 -4,-123 446,-123 446,4 -4,4"/>
<!-- Node1 -->
<g id="node1" class="node">
<title>Node1</title>
<g id="a_node1"><a xlink:title=" ">
<polygon fill="#bfbfbf" stroke="black" points="0,-44.5 0,-74.5 119,-74.5 119,-44.5 0,-44.5"/>
<text text-anchor="start" x="8" y="-62.5" font-family="Helvetica,sans-Serif" font-size="10.00">A_CO_DB_Table_Base</text>
<text text-anchor="middle" x="59.5" y="-51.5" font-family="Helvetica,sans-Serif" font-size="10.00">\_write_to_db</text>
</a>
</g>
</g>
<!-- Node2 -->
<g id="node2" class="node">
<title>Node2</title>
<g id="a_node2"><a xlink:href="a00308.html#a6109c37c5e61ab04ea710b1ebb7615a5" target="_top" xlink:title=" ">
<polygon fill="white" stroke="black" points="155,-88.5 155,-118.5 276,-118.5 276,-88.5 155,-88.5"/>
<text text-anchor="start" x="163" y="-106.5" font-family="Helvetica,sans-Serif" font-size="10.00">A_CO_DB_Table_Base</text>
<text text-anchor="middle" x="215.5" y="-95.5" font-family="Helvetica,sans-Serif" font-size="10.00">\_build_parameter_array</text>
</a>
</g>
</g>
<!-- Node1&#45;&gt;Node2 -->
<g id="edge1" class="edge">
<title>Node1&#45;&gt;Node2</title>
<path fill="none" stroke="midnightblue" d="M113.07,-74.52C125.64,-78.11 139.17,-81.98 152.13,-85.68"/>
<polygon fill="midnightblue" stroke="midnightblue" points="151.33,-89.09 161.91,-88.47 153.25,-82.36 151.33,-89.09"/>
</g>
<!-- Node4 -->
<g id="node4" class="node">
<title>Node4</title>
<g id="a_node4"><a xlink:href="a00308.html#a78affe18a811930d4012fd265e95cdca" target="_top" xlink:title=" ">
<polygon fill="white" stroke="black" points="312,-50 312,-69 442,-69 442,-50 312,-50"/>
<text text-anchor="middle" x="377" y="-57" font-family="Helvetica,sans-Serif" font-size="10.00">A_CO_DB_Table_Base\id</text>
</a>
</g>
</g>
<!-- Node1&#45;&gt;Node4 -->
<g id="edge5" class="edge">
<title>Node1&#45;&gt;Node4</title>
<path fill="none" stroke="midnightblue" d="M119.1,-59.5C170.61,-59.5 245.82,-59.5 301.57,-59.5"/>
<polygon fill="midnightblue" stroke="midnightblue" points="301.74,-63 311.74,-59.5 301.74,-56 301.74,-63"/>
</g>
<!-- Node5 -->
<g id="node5" class="node">
<title>Node5</title>
<g id="a_node5"><a xlink:href="a00308.html#a8780b40e55827b90bb441671faec2a05" target="_top" xlink:title=" ">
<polygon fill="white" stroke="black" points="156,-0.5 156,-30.5 275,-30.5 275,-0.5 156,-0.5"/>
<text text-anchor="start" x="164" y="-18.5" font-family="Helvetica,sans-Serif" font-size="10.00">A_CO_DB_Table_Base</text>
<text text-anchor="middle" x="215.5" y="-7.5" font-family="Helvetica,sans-Serif" font-size="10.00">\get_access_object</text>
</a>
</g>
</g>
<!-- Node1&#45;&gt;Node5 -->
<g id="edge4" class="edge">
<title>Node1&#45;&gt;Node5</title>
<path fill="none" stroke="midnightblue" d="M113.07,-44.48C125.64,-40.89 139.17,-37.02 152.13,-33.32"/>
<polygon fill="midnightblue" stroke="midnightblue" points="153.25,-36.64 161.91,-30.53 151.33,-29.91 153.25,-36.64"/>
</g>
<!-- Node3 -->
<g id="node3" class="node">
<title>Node3</title>
<g id="a_node3"><a xlink:href="a00308.html#afb32d1e32b8e1c1de2e008c9b88f7846" target="_top" xlink:title=" ">
<polygon fill="white" stroke="black" points="317.5,-88.5 317.5,-118.5 436.5,-118.5 436.5,-88.5 317.5,-88.5"/>
<text text-anchor="start" x="325.5" y="-106.5" font-family="Helvetica,sans-Serif" font-size="10.00">A_CO_DB_Table_Base</text>
<text text-anchor="middle" x="377" y="-95.5" font-family="Helvetica,sans-Serif" font-size="10.00">\_badger_serialize</text>
</a>
</g>
</g>
<!-- Node2&#45;&gt;Node3 -->
<g id="edge2" class="edge">
<title>Node2&#45;&gt;Node3</title>
<path fill="none" stroke="midnightblue" d="M276.35,-103.5C286.42,-103.5 296.95,-103.5 307.23,-103.5"/>
<polygon fill="midnightblue" stroke="midnightblue" points="307.41,-107 317.41,-103.5 307.41,-100 307.41,-107"/>
</g>
<!-- Node2&#45;&gt;Node4 -->
<g id="edge3" class="edge">
<title>Node2&#45;&gt;Node4</title>
<path fill="none" stroke="midnightblue" d="M270.94,-88.48C290.68,-83.04 312.72,-76.96 331.5,-71.78"/>
<polygon fill="midnightblue" stroke="midnightblue" points="332.57,-75.11 341.28,-69.08 330.71,-68.36 332.57,-75.11"/>
</g>
</g>
</svg>
