<?xml version="1.0" encoding="UTF-8" standalone="no"?>
<!DOCTYPE svg PUBLIC "-//W3C//DTD SVG 1.1//EN"
 "http://www.w3.org/Graphics/SVG/1.1/DTD/svg11.dtd">
<!-- Generated by graphviz version 2.40.1 (20161225.0304)
 -->
<!-- Title: CO_Security_Login\is_god Pages: 1 -->
<svg width="457pt" height="107pt"
 viewBox="0.00 0.00 457.07 107.00" xmlns="http://www.w3.org/2000/svg" xmlns:xlink="http://www.w3.org/1999/xlink">
<g id="graph0" class="graph" transform="scale(1 1) rotate(0) translate(4 103)">
<title>CO_Security_Login\is_god</title>
<polygon fill="#ffffff" stroke="transparent" points="-4,4 -4,-103 453.0723,-103 453.0723,4 -4,4"/>
<!-- Node62 -->
<g id="node1" class="node">
<title>Node62</title>
<polygon fill="#bfbfbf" stroke="#000000" points="0,-28.5 0,-46.5 134.96,-46.5 134.96,-28.5 0,-28.5"/>
<text text-anchor="middle" x="67.48" y="-34.5" font-family="Helvetica,sans-Serif" font-size="10.00" fill="#000000">CO_Security_Login\is_god</text>
</g>
<!-- Node63 -->
<g id="node2" class="node">
<title>Node63</title>
<g id="a_node2"><a xlink:href="a00239.html#a7710a3275a7b2dfdba8e00a8bd2c0f61" target="_top" xlink:title="CO_Cobra\\_create_new\l_login">
<polygon fill="#ffffff" stroke="#000000" points="170.96,-47.5 170.96,-75.5 294.7969,-75.5 294.7969,-47.5 170.96,-47.5"/>
<text text-anchor="start" x="178.96" y="-63.5" font-family="Helvetica,sans-Serif" font-size="10.00" fill="#000000">CO_Cobra\_create_new</text>
<text text-anchor="middle" x="232.8784" y="-53.5" font-family="Helvetica,sans-Serif" font-size="10.00" fill="#000000">_login</text>
</a>
</g>
</g>
<!-- Node62&#45;&gt;Node63 -->
<g id="edge1" class="edge">
<title>Node62&#45;&gt;Node63</title>
<path fill="none" stroke="#191970" d="M139.4444,-47.9423C149.8731,-49.4556 160.5334,-51.0024 170.7469,-52.4845"/>
<polygon fill="#191970" stroke="#191970" points="139.9378,-44.4774 129.5388,-46.505 138.9326,-51.4048 139.9378,-44.4774"/>
</g>
<!-- Node66 -->
<g id="node5" class="node">
<title>Node66</title>
<g id="a_node5"><a xlink:href="a00343.html#aa1e788b0d2d7b7e807083d7333f2596e" target="_top" xlink:title="CO_Security_Login\\is\l_manager">
<polygon fill="#ffffff" stroke="#000000" points="176.5215,-.5 176.5215,-28.5 289.2354,-28.5 289.2354,-.5 176.5215,-.5"/>
<text text-anchor="start" x="184.5215" y="-16.5" font-family="Helvetica,sans-Serif" font-size="10.00" fill="#000000">CO_Security_Login\is</text>
<text text-anchor="middle" x="232.8784" y="-6.5" font-family="Helvetica,sans-Serif" font-size="10.00" fill="#000000">_manager</text>
</a>
</g>
</g>
<!-- Node62&#45;&gt;Node66 -->
<g id="edge4" class="edge">
<title>Node62&#45;&gt;Node66</title>
<path fill="none" stroke="#191970" d="M142.3756,-27.0852C153.84,-25.4909 165.5063,-23.8686 176.4825,-22.3423"/>
<polygon fill="#191970" stroke="#191970" points="141.7977,-23.6317 132.3751,-28.4758 142.7619,-30.565 141.7977,-23.6317"/>
</g>
<!-- Node64 -->
<g id="node3" class="node">
<title>Node64</title>
<g id="a_node3"><a xlink:href="a00239.html#ac8a3c537cc29c1d4cdb6df5f004ce6d0" target="_top" xlink:title="CO_Cobra\\create_new\l_manager_login">
<polygon fill="#ffffff" stroke="#000000" points="330.7969,-70.5 330.7969,-98.5 449.0723,-98.5 449.0723,-70.5 330.7969,-70.5"/>
<text text-anchor="start" x="338.7969" y="-86.5" font-family="Helvetica,sans-Serif" font-size="10.00" fill="#000000">CO_Cobra\create_new</text>
<text text-anchor="middle" x="389.9346" y="-76.5" font-family="Helvetica,sans-Serif" font-size="10.00" fill="#000000">_manager_login</text>
</a>
</g>
</g>
<!-- Node63&#45;&gt;Node64 -->
<g id="edge2" class="edge">
<title>Node63&#45;&gt;Node64</title>
<path fill="none" stroke="#191970" d="M304.9596,-72.0559C313.547,-73.3135 322.2379,-74.5862 330.6178,-75.8134"/>
<polygon fill="#191970" stroke="#191970" points="305.3528,-68.5762 294.9512,-70.5902 304.3385,-75.5023 305.3528,-68.5762"/>
</g>
<!-- Node65 -->
<g id="node4" class="node">
<title>Node65</title>
<g id="a_node4"><a xlink:href="a00239.html#a327fb6e4cfcaf6d32639123eed2ea412" target="_top" xlink:title="CO_Cobra\\create_new\l_standard_login">
<polygon fill="#ffffff" stroke="#000000" points="330.7969,-23.5 330.7969,-51.5 449.0723,-51.5 449.0723,-23.5 330.7969,-23.5"/>
<text text-anchor="start" x="338.7969" y="-39.5" font-family="Helvetica,sans-Serif" font-size="10.00" fill="#000000">CO_Cobra\create_new</text>
<text text-anchor="middle" x="389.9346" y="-29.5" font-family="Helvetica,sans-Serif" font-size="10.00" fill="#000000">_standard_login</text>
</a>
</g>
</g>
<!-- Node63&#45;&gt;Node65 -->
<g id="edge3" class="edge">
<title>Node63&#45;&gt;Node65</title>
<path fill="none" stroke="#191970" d="M304.9596,-50.4852C313.547,-49.1729 322.2379,-47.8448 330.6178,-46.5643"/>
<polygon fill="#191970" stroke="#191970" points="304.3077,-47.0441 294.9512,-52.0146 305.3652,-53.9637 304.3077,-47.0441"/>
</g>
</g>
</svg>
