<?xml version="1.0" encoding="UTF-8" standalone="no"?>
<!DOCTYPE svg PUBLIC "-//W3C//DTD SVG 1.1//EN"
 "http://www.w3.org/Graphics/SVG/1.1/DTD/svg11.dtd">
<!-- Generated by graphviz version 2.47.1 (20210417.1919)
 -->
<!-- Title: CO_Access\get_multiple_security_records_by_id Pages: 1 -->
<svg width="810pt" height="307pt"
 viewBox="0.00 0.00 810.00 306.50" xmlns="http://www.w3.org/2000/svg" xmlns:xlink="http://www.w3.org/1999/xlink">
<g id="graph0" class="graph" transform="scale(1 1) rotate(0) translate(4 302.5)">
<title>CO_Access\get_multiple_security_records_by_id</title>
<polygon fill="white" stroke="transparent" points="-4,4 -4,-302.5 806,-302.5 806,4 -4,4"/>
<!-- Node1 -->
<g id="node1" class="node">
<title>Node1</title>
<g id="a_node1"><a xlink:title=" ">
<polygon fill="#bfbfbf" stroke="black" points="677,-164.5 677,-194.5 802,-194.5 802,-164.5 677,-164.5"/>
<text text-anchor="start" x="685" y="-182.5" font-family="Helvetica,sans-Serif" font-size="10.00">CO_Access\get_multiple</text>
<text text-anchor="middle" x="739.5" y="-171.5" font-family="Helvetica,sans-Serif" font-size="10.00">_security_records_by_id</text>
</a>
</g>
</g>
<!-- Node2 -->
<g id="node2" class="node">
<title>Node2</title>
<g id="a_node2"><a xlink:href="a00352.html#aeab406fa4ecc249662fa1e2e073341b2" target="_top" xlink:title=" ">
<polygon fill="white" stroke="black" points="524,-164.5 524,-194.5 641,-194.5 641,-164.5 524,-164.5"/>
<text text-anchor="start" x="532" y="-182.5" font-family="Helvetica,sans-Serif" font-size="10.00">CO_Access\get_single</text>
<text text-anchor="middle" x="582.5" y="-171.5" font-family="Helvetica,sans-Serif" font-size="10.00">_security_record_by_id</text>
</a>
</g>
</g>
<!-- Node1&#45;&gt;Node2 -->
<g id="edge1" class="edge">
<title>Node1&#45;&gt;Node2</title>
<path fill="none" stroke="midnightblue" d="M666.52,-179.5C658.04,-179.5 649.47,-179.5 641.22,-179.5"/>
<polygon fill="midnightblue" stroke="midnightblue" points="666.79,-183 676.79,-179.5 666.79,-176 666.79,-183"/>
</g>
<!-- Node3 -->
<g id="node3" class="node">
<title>Node3</title>
<g id="a_node3"><a xlink:href="a00352.html#adbc6444fbac916f3a280f4a3ce4f067a" target="_top" xlink:title=" ">
<polygon fill="white" stroke="black" points="363,-151 363,-170 488,-170 488,-151 363,-151"/>
<text text-anchor="middle" x="425.5" y="-158" font-family="Helvetica,sans-Serif" font-size="10.00">CO_Access\get_login_id</text>
</a>
</g>
</g>
<!-- Node2&#45;&gt;Node3 -->
<g id="edge2" class="edge">
<title>Node2&#45;&gt;Node3</title>
<path fill="none" stroke="midnightblue" d="M513.85,-171.21C505.31,-170.16 496.6,-169.09 488.16,-168.06"/>
<polygon fill="midnightblue" stroke="midnightblue" points="513.43,-174.68 523.78,-172.43 514.28,-167.73 513.43,-174.68"/>
</g>
<!-- Node5 -->
<g id="node5" class="node">
<title>Node5</title>
<g id="a_node5"><a xlink:href="a00352.html#a65c256cad68440723a8de979b1b7a1bb" target="_top" xlink:title=" ">
<polygon fill="white" stroke="black" points="187,-244 187,-263 323,-263 323,-244 187,-244"/>
<text text-anchor="middle" x="255" y="-251" font-family="Helvetica,sans-Serif" font-size="10.00">CO_Access\get_login_item</text>
</a>
</g>
</g>
<!-- Node2&#45;&gt;Node5 -->
<g id="edge17" class="edge">
<title>Node2&#45;&gt;Node5</title>
<path fill="none" stroke="midnightblue" d="M513.54,-194.95C448.65,-209.7 352.88,-231.47 298.27,-243.89"/>
<polygon fill="midnightblue" stroke="midnightblue" points="514.71,-198.27 523.68,-192.64 513.16,-191.45 514.71,-198.27"/>
</g>
<!-- Node4 -->
<g id="node4" class="node">
<title>Node4</title>
<g id="a_node4"><a xlink:href="a00352.html#a2467c84d780ce52c35cfa9b5dc8604d4" target="_top" xlink:title=" ">
<polygon fill="white" stroke="black" points="190,-194.5 190,-224.5 320,-224.5 320,-194.5 190,-194.5"/>
<text text-anchor="start" x="198" y="-212.5" font-family="Helvetica,sans-Serif" font-size="10.00">CO_Access\get_available</text>
<text text-anchor="middle" x="255" y="-201.5" font-family="Helvetica,sans-Serif" font-size="10.00">_tokens</text>
</a>
</g>
</g>
<!-- Node3&#45;&gt;Node4 -->
<g id="edge3" class="edge">
<title>Node3&#45;&gt;Node4</title>
<path fill="none" stroke="midnightblue" d="M381.98,-172.87C359.42,-179.43 331.51,-187.54 307.71,-194.46"/>
<polygon fill="midnightblue" stroke="midnightblue" points="382.99,-176.22 391.61,-170.06 381.03,-169.5 382.99,-176.22"/>
</g>
<!-- Node3&#45;&gt;Node5 -->
<g id="edge4" class="edge">
<title>Node3&#45;&gt;Node5</title>
<path fill="none" stroke="midnightblue" d="M405.15,-176.61C381.74,-195.86 343.4,-226.47 327,-234.5 319.21,-238.32 310.54,-241.45 302.02,-243.98"/>
<polygon fill="midnightblue" stroke="midnightblue" points="407.56,-179.17 413.04,-170.1 403.1,-173.77 407.56,-179.17"/>
</g>
<!-- Node9 -->
<g id="node9" class="node">
<title>Node9</title>
<g id="a_node9"><a xlink:href="a00352.html#afdbd62c65cc83a1abbdbce6634b51dda" target="_top" xlink:title=" ">
<polygon fill="white" stroke="black" points="191,-96.5 191,-126.5 319,-126.5 319,-96.5 191,-96.5"/>
<text text-anchor="start" x="199" y="-114.5" font-family="Helvetica,sans-Serif" font-size="10.00">CO_Access\get_personal</text>
<text text-anchor="middle" x="255" y="-103.5" font-family="Helvetica,sans-Serif" font-size="10.00">_security_ids</text>
</a>
</g>
</g>
<!-- Node3&#45;&gt;Node9 -->
<g id="edge8" class="edge">
<title>Node3&#45;&gt;Node9</title>
<path fill="none" stroke="midnightblue" d="M381.98,-148.13C359.42,-141.57 331.51,-133.46 307.71,-126.54"/>
<polygon fill="midnightblue" stroke="midnightblue" points="381.03,-151.5 391.61,-150.94 382.99,-144.78 381.03,-151.5"/>
</g>
<!-- Node12 -->
<g id="node12" class="node">
<title>Node12</title>
<g id="a_node12"><a xlink:href="a00352.html#afe9f0a632b2c80e162582cd2ed0d7d3d" target="_top" xlink:title=" ">
<polygon fill="white" stroke="black" points="183,-56 183,-75 327,-75 327,-56 183,-56"/>
<text text-anchor="middle" x="255" y="-63" font-family="Helvetica,sans-Serif" font-size="10.00">CO_Access\get_security_ids</text>
</a>
</g>
</g>
<!-- Node3&#45;&gt;Node12 -->
<g id="edge11" class="edge">
<title>Node3&#45;&gt;Node12</title>
<path fill="none" stroke="midnightblue" d="M406.52,-144.02C387.86,-127.68 357.22,-102.91 327,-87.5 317.11,-82.46 305.86,-78.32 295.27,-75.05"/>
<polygon fill="midnightblue" stroke="midnightblue" points="404.41,-146.83 414.2,-150.87 409.07,-141.6 404.41,-146.83"/>
</g>
<!-- Node14 -->
<g id="node14" class="node">
<title>Node14</title>
<g id="a_node14"><a xlink:href="a00296.html#a88b451020a7174eeb0c06e216ca517cf" target="_top" xlink:title=" ">
<polygon fill="white" stroke="black" points="191.5,-145.5 191.5,-175.5 318.5,-175.5 318.5,-145.5 191.5,-145.5"/>
<text text-anchor="start" x="199.5" y="-163.5" font-family="Helvetica,sans-Serif" font-size="10.00">CO_Chameleon\get_user</text>
<text text-anchor="middle" x="255" y="-152.5" font-family="Helvetica,sans-Serif" font-size="10.00">_from_login</text>
</a>
</g>
</g>
<!-- Node3&#45;&gt;Node14 -->
<g id="edge13" class="edge">
<title>Node3&#45;&gt;Node14</title>
<path fill="none" stroke="midnightblue" d="M352.48,-160.5C341.22,-160.5 329.66,-160.5 318.63,-160.5"/>
<polygon fill="midnightblue" stroke="midnightblue" points="352.71,-164 362.71,-160.5 352.71,-157 352.71,-164"/>
</g>
<!-- Node15 -->
<g id="node15" class="node">
<title>Node15</title>
<g id="a_node15"><a xlink:href="a00352.html#a2249312ed569b15e5b6b15c0112ce83b" target="_top" xlink:title=" ">
<polygon fill="white" stroke="black" points="195,-4.5 195,-34.5 315,-34.5 315,-4.5 195,-4.5"/>
<text text-anchor="start" x="203" y="-22.5" font-family="Helvetica,sans-Serif" font-size="10.00">CO_Access\make_new</text>
<text text-anchor="middle" x="255" y="-11.5" font-family="Helvetica,sans-Serif" font-size="10.00">_blank_record</text>
</a>
</g>
</g>
<!-- Node3&#45;&gt;Node15 -->
<g id="edge15" class="edge">
<title>Node3&#45;&gt;Node15</title>
<path fill="none" stroke="midnightblue" d="M413.24,-142.36C397,-117.54 364.77,-73.08 327,-46.5 320.42,-41.87 312.95,-37.91 305.38,-34.57"/>
<polygon fill="midnightblue" stroke="midnightblue" points="410.32,-144.29 418.66,-150.83 416.22,-140.52 410.32,-144.29"/>
</g>
<!-- Node6 -->
<g id="node6" class="node">
<title>Node6</title>
<g id="a_node6"><a xlink:href="a00352.html#ae2a40cf404135bb4aae747c37520733e" target="_top" xlink:title=" ">
<polygon fill="white" stroke="black" points="18.5,-279 18.5,-298 128.5,-298 128.5,-279 18.5,-279"/>
<text text-anchor="middle" x="73.5" y="-286" font-family="Helvetica,sans-Serif" font-size="10.00">CO_Access\get_lang</text>
</a>
</g>
</g>
<!-- Node5&#45;&gt;Node6 -->
<g id="edge5" class="edge">
<title>Node5&#45;&gt;Node6</title>
<path fill="none" stroke="midnightblue" d="M194.91,-265.02C171.77,-269.53 145.55,-274.65 123.49,-278.95"/>
<polygon fill="midnightblue" stroke="midnightblue" points="195.81,-268.41 204.95,-263.06 194.47,-261.54 195.81,-268.41"/>
</g>
<!-- Node7 -->
<g id="node7" class="node">
<title>Node7</title>
<g id="a_node7"><a xlink:href="a00296.html#ac6ba71b99a641f6d19aa0a0d73997234" target="_top" xlink:title=" ">
<polygon fill="white" stroke="black" points="10.5,-201 10.5,-220 136.5,-220 136.5,-201 10.5,-201"/>
<text text-anchor="middle" x="73.5" y="-208" font-family="Helvetica,sans-Serif" font-size="10.00">CO_Chameleon\get_lang</text>
</a>
</g>
</g>
<!-- Node5&#45;&gt;Node7 -->
<g id="edge6" class="edge">
<title>Node5&#45;&gt;Node7</title>
<path fill="none" stroke="midnightblue" d="M204.42,-241.62C176,-234.81 140.81,-226.38 114.23,-220.02"/>
<polygon fill="midnightblue" stroke="midnightblue" points="203.62,-245.03 214.16,-243.96 205.25,-238.22 203.62,-245.03"/>
</g>
<!-- Node8 -->
<g id="node8" class="node">
<title>Node8</title>
<g id="a_node8"><a xlink:href="a00296.html#aa13745bd0d40cac3820bb3ae7f6d5fbb" target="_top" xlink:title=" ">
<polygon fill="white" stroke="black" points="2,-241 2,-260 145,-260 145,-241 2,-241"/>
<text text-anchor="middle" x="73.5" y="-248" font-family="Helvetica,sans-Serif" font-size="10.00">CO_Chameleon\test_access</text>
</a>
</g>
</g>
<!-- Node5&#45;&gt;Node8 -->
<g id="edge7" class="edge">
<title>Node5&#45;&gt;Node8</title>
<path fill="none" stroke="midnightblue" d="M176.88,-252.21C166.33,-252.03 155.54,-251.85 145.11,-251.68"/>
<polygon fill="midnightblue" stroke="midnightblue" points="176.85,-255.71 186.91,-252.38 176.97,-248.71 176.85,-255.71"/>
</g>
<!-- Node10 -->
<g id="node10" class="node">
<title>Node10</title>
<g id="a_node10"><a xlink:href="a00352.html#a82bba10b220d78a598bff74a99ce3bbb" target="_top" xlink:title=" ">
<polygon fill="white" stroke="black" points="8,-147.5 8,-177.5 139,-177.5 139,-147.5 8,-147.5"/>
<text text-anchor="start" x="16" y="-165.5" font-family="Helvetica,sans-Serif" font-size="10.00">CO_Access\add_personal</text>
<text text-anchor="middle" x="73.5" y="-154.5" font-family="Helvetica,sans-Serif" font-size="10.00">_token_from_current_login</text>
</a>
</g>
</g>
<!-- Node9&#45;&gt;Node10 -->
<g id="edge9" class="edge">
<title>Node9&#45;&gt;Node10</title>
<path fill="none" stroke="midnightblue" d="M191.37,-129.3C170.47,-135.23 147.4,-141.79 127.32,-147.49"/>
<polygon fill="midnightblue" stroke="midnightblue" points="192.45,-132.63 201.11,-126.53 190.54,-125.89 192.45,-132.63"/>
</g>
<!-- Node11 -->
<g id="node11" class="node">
<title>Node11</title>
<g id="a_node11"><a xlink:href="a00352.html#a7f9cb2fc56cf3fcf37d507c4e9d83264" target="_top" xlink:title=" ">
<polygon fill="white" stroke="black" points="0,-98.5 0,-128.5 147,-128.5 147,-98.5 0,-98.5"/>
<text text-anchor="start" x="8" y="-116.5" font-family="Helvetica,sans-Serif" font-size="10.00">CO_Access\remove_personal</text>
<text text-anchor="middle" x="73.5" y="-105.5" font-family="Helvetica,sans-Serif" font-size="10.00">_token_from_this_login</text>
</a>
</g>
</g>
<!-- Node9&#45;&gt;Node11 -->
<g id="edge10" class="edge">
<title>Node9&#45;&gt;Node11</title>
<path fill="none" stroke="midnightblue" d="M180.88,-112.31C169.77,-112.44 158.31,-112.57 147.21,-112.69"/>
<polygon fill="midnightblue" stroke="midnightblue" points="181.01,-115.81 190.97,-112.2 180.93,-108.81 181.01,-115.81"/>
</g>
<!-- Node13 -->
<g id="node13" class="node">
<title>Node13</title>
<g id="a_node13"><a xlink:href="a00352.html#ae548938d26a8e1c2f5378e94d2921419" target="_top" xlink:title=" ">
<polygon fill="white" stroke="black" points="12.5,-49.5 12.5,-79.5 134.5,-79.5 134.5,-49.5 12.5,-49.5"/>
<text text-anchor="start" x="20.5" y="-67.5" font-family="Helvetica,sans-Serif" font-size="10.00">CO_Access\i_have_this</text>
<text text-anchor="middle" x="73.5" y="-56.5" font-family="Helvetica,sans-Serif" font-size="10.00">_token</text>
</a>
</g>
</g>
<!-- Node12&#45;&gt;Node13 -->
<g id="edge12" class="edge">
<title>Node12&#45;&gt;Node13</title>
<path fill="none" stroke="midnightblue" d="M172.61,-65.05C159.83,-64.98 146.81,-64.9 134.62,-64.83"/>
<polygon fill="midnightblue" stroke="midnightblue" points="172.78,-68.55 182.8,-65.1 172.82,-61.55 172.78,-68.55"/>
</g>
<!-- Node14&#45;&gt;Node7 -->
<g id="edge14" class="edge">
<title>Node14&#45;&gt;Node7</title>
<path fill="none" stroke="midnightblue" d="M190.22,-178.27C162.78,-185.91 131.79,-194.54 108.8,-200.95"/>
<polygon fill="midnightblue" stroke="midnightblue" points="191.45,-181.56 200.14,-175.5 189.57,-174.81 191.45,-181.56"/>
</g>
<!-- Node16 -->
<g id="node16" class="node">
<title>Node16</title>
<g id="a_node16"><a xlink:href="a00296.html#af193950805884bd481b8863ffd6d4fb1" target="_top" xlink:title=" ">
<polygon fill="white" stroke="black" points="8,-0.5 8,-30.5 139,-30.5 139,-0.5 8,-0.5"/>
<text text-anchor="start" x="16" y="-18.5" font-family="Helvetica,sans-Serif" font-size="10.00">CO_Chameleon\set_value</text>
<text text-anchor="middle" x="73.5" y="-7.5" font-family="Helvetica,sans-Serif" font-size="10.00">_for_key</text>
</a>
</g>
</g>
<!-- Node15&#45;&gt;Node16 -->
<g id="edge16" class="edge">
<title>Node15&#45;&gt;Node16</title>
<path fill="none" stroke="midnightblue" d="M184.56,-17.95C169.67,-17.62 153.99,-17.27 139.28,-16.94"/>
<polygon fill="midnightblue" stroke="midnightblue" points="184.65,-21.46 194.73,-18.18 184.81,-14.46 184.65,-21.46"/>
</g>
</g>
</svg>
