<?xml version="1.0" encoding="UTF-8" standalone="no"?>
<!DOCTYPE svg PUBLIC "-//W3C//DTD SVG 1.1//EN"
 "http://www.w3.org/Graphics/SVG/1.1/DTD/svg11.dtd">
<!-- Generated by graphviz version 2.47.1 (20210417.1919)
 -->
<!-- Title: A_CO_DB\get_all_writeable_records Pages: 1 -->
<svg width="492pt" height="151pt"
 viewBox="0.00 0.00 492.00 150.50" xmlns="http://www.w3.org/2000/svg" xmlns:xlink="http://www.w3.org/1999/xlink">
<g id="graph0" class="graph" transform="scale(1 1) rotate(0) translate(4 146.5)">
<title>A_CO_DB\get_all_writeable_records</title>
<polygon fill="white" stroke="transparent" points="-4,4 -4,-146.5 488,-146.5 488,4 -4,4"/>
<!-- Node1 -->
<g id="node1" class="node">
<title>Node1</title>
<g id="a_node1"><a xlink:title=" ">
<polygon fill="#bfbfbf" stroke="black" points="0,-39 0,-69 139,-69 139,-39 0,-39"/>
<text text-anchor="start" x="8" y="-57" font-family="Helvetica,sans-Serif" font-size="10.00">A_CO_DB\get_all_writeable</text>
<text text-anchor="middle" x="69.5" y="-46" font-family="Helvetica,sans-Serif" font-size="10.00">_records</text>
</a>
</g>
</g>
<!-- Node2 -->
<g id="node2" class="node">
<title>Node2</title>
<g id="a_node2"><a xlink:href="a00304.html#ad2356dbed1b38898d8c17bcd8eb405ef" target="_top" xlink:title=" ">
<polygon fill="white" stroke="black" points="175,-88 175,-118 313,-118 313,-88 175,-88"/>
<text text-anchor="start" x="183" y="-106" font-family="Helvetica,sans-Serif" font-size="10.00">A_CO_DB\_create_security</text>
<text text-anchor="middle" x="244" y="-95" font-family="Helvetica,sans-Serif" font-size="10.00">_predicate</text>
</a>
</g>
</g>
<!-- Node1&#45;&gt;Node2 -->
<g id="edge1" class="edge">
<title>Node1&#45;&gt;Node2</title>
<path fill="none" stroke="midnightblue" d="M123.66,-69.1C141.54,-74.18 161.64,-79.89 180.19,-85.16"/>
<polygon fill="midnightblue" stroke="midnightblue" points="179.44,-88.58 190.01,-87.95 181.35,-81.85 179.44,-88.58"/>
</g>
<!-- Node5 -->
<g id="node5" class="node">
<title>Node5</title>
<g id="a_node5"><a xlink:href="a00304.html#a523e2f40174a0bca0fc873d6286b3ae9" target="_top" xlink:title=" ">
<polygon fill="white" stroke="black" points="186,-39 186,-69 302,-69 302,-39 186,-39"/>
<text text-anchor="start" x="194" y="-57" font-family="Helvetica,sans-Serif" font-size="10.00">A_CO_DB\_instantiate</text>
<text text-anchor="middle" x="244" y="-46" font-family="Helvetica,sans-Serif" font-size="10.00">_record</text>
</a>
</g>
</g>
<!-- Node1&#45;&gt;Node5 -->
<g id="edge4" class="edge">
<title>Node1&#45;&gt;Node5</title>
<path fill="none" stroke="midnightblue" d="M139.17,-54C151.16,-54 163.63,-54 175.58,-54"/>
<polygon fill="midnightblue" stroke="midnightblue" points="175.93,-57.5 185.93,-54 175.93,-50.5 175.93,-57.5"/>
</g>
<!-- Node6 -->
<g id="node6" class="node">
<title>Node6</title>
<g id="a_node6"><a xlink:href="a00304.html#a2396849660aa4ff018ab7509a4badeb5" target="_top" xlink:title=" ">
<polygon fill="white" stroke="black" points="179,-0.5 179,-19.5 309,-19.5 309,-0.5 179,-0.5"/>
<text text-anchor="middle" x="244" y="-7.5" font-family="Helvetica,sans-Serif" font-size="10.00">A_CO_DB\execute_query</text>
</a>
</g>
</g>
<!-- Node1&#45;&gt;Node6 -->
<g id="edge5" class="edge">
<title>Node1&#45;&gt;Node6</title>
<path fill="none" stroke="midnightblue" d="M129.38,-38.98C151.11,-33.44 175.41,-27.24 195.95,-22"/>
<polygon fill="midnightblue" stroke="midnightblue" points="196.88,-25.38 205.71,-19.51 195.15,-18.59 196.88,-25.38"/>
</g>
<!-- Node3 -->
<g id="node3" class="node">
<title>Node3</title>
<g id="a_node3"><a xlink:href="a00304.html#a176b2c663fa7768e95e4fbe93281adc6" target="_top" xlink:title=" ">
<polygon fill="white" stroke="black" points="355.5,-112 355.5,-142 477.5,-142 477.5,-112 355.5,-112"/>
<text text-anchor="start" x="363.5" y="-130" font-family="Helvetica,sans-Serif" font-size="10.00">A_CO_DB\_create_read</text>
<text text-anchor="middle" x="416.5" y="-119" font-family="Helvetica,sans-Serif" font-size="10.00">_security_predicate</text>
</a>
</g>
</g>
<!-- Node2&#45;&gt;Node3 -->
<g id="edge2" class="edge">
<title>Node2&#45;&gt;Node3</title>
<path fill="none" stroke="midnightblue" d="M313.37,-112.62C323.9,-114.11 334.79,-115.64 345.36,-117.13"/>
<polygon fill="midnightblue" stroke="midnightblue" points="344.98,-120.61 355.37,-118.54 345.95,-113.68 344.98,-120.61"/>
</g>
<!-- Node4 -->
<g id="node4" class="node">
<title>Node4</title>
<g id="a_node4"><a xlink:href="a00304.html#ad4bc3d416f085818935b32a814313202" target="_top" xlink:title=" ">
<polygon fill="white" stroke="black" points="354,-63 354,-93 479,-93 479,-63 354,-63"/>
<text text-anchor="start" x="362" y="-81" font-family="Helvetica,sans-Serif" font-size="10.00">A_CO_DB\_create_write</text>
<text text-anchor="middle" x="416.5" y="-70" font-family="Helvetica,sans-Serif" font-size="10.00">_security_predicate</text>
</a>
</g>
</g>
<!-- Node2&#45;&gt;Node4 -->
<g id="edge3" class="edge">
<title>Node2&#45;&gt;Node4</title>
<path fill="none" stroke="midnightblue" d="M313.37,-92.98C323.37,-91.51 333.7,-89.99 343.77,-88.52"/>
<polygon fill="midnightblue" stroke="midnightblue" points="344.35,-91.97 353.73,-87.06 343.33,-85.04 344.35,-91.97"/>
</g>
<!-- Node7 -->
<g id="node7" class="node">
<title>Node7</title>
<g id="a_node7"><a xlink:href="a00304.html#ae41efbdfe739934823b5f4c785b22611" target="_top" xlink:title=" ">
<polygon fill="white" stroke="black" points="349,-0.5 349,-19.5 484,-19.5 484,-0.5 349,-0.5"/>
<text text-anchor="middle" x="416.5" y="-7.5" font-family="Helvetica,sans-Serif" font-size="10.00">A_CO_DB\_execute_query</text>
</a>
</g>
</g>
<!-- Node6&#45;&gt;Node7 -->
<g id="edge6" class="edge">
<title>Node6&#45;&gt;Node7</title>
<path fill="none" stroke="midnightblue" d="M309.46,-10C319.05,-10 329.01,-10 338.82,-10"/>
<polygon fill="midnightblue" stroke="midnightblue" points="338.96,-13.5 348.96,-10 338.96,-6.5 338.96,-13.5"/>
</g>
</g>
</svg>
