<?xml version="1.0" encoding="UTF-8" standalone="no"?>
<!DOCTYPE svg PUBLIC "-//W3C//DTD SVG 1.1//EN"
 "http://www.w3.org/Graphics/SVG/1.1/DTD/svg11.dtd">
<!-- Generated by graphviz version 2.47.1 (20210417.1919)
 -->
<!-- Title: CO_Security_Login\set_password_from_cleartext Pages: 1 -->
<svg width="776pt" height="217pt"
 viewBox="0.00 0.00 776.00 217.00" xmlns="http://www.w3.org/2000/svg" xmlns:xlink="http://www.w3.org/1999/xlink">
<g id="graph0" class="graph" transform="scale(1 1) rotate(0) translate(4 213)">
<title>CO_Security_Login\set_password_from_cleartext</title>
<polygon fill="white" stroke="transparent" points="-4,4 -4,-213 772,-213 772,4 -4,4"/>
<!-- Node1 -->
<g id="node1" class="node">
<title>Node1</title>
<g id="a_node1"><a xlink:title=" ">
<polygon fill="#bfbfbf" stroke="black" points="0,-90.5 0,-120.5 131,-120.5 131,-90.5 0,-90.5"/>
<text text-anchor="start" x="8" y="-108.5" font-family="Helvetica,sans-Serif" font-size="10.00">CO_Security_Login\set</text>
<text text-anchor="middle" x="65.5" y="-97.5" font-family="Helvetica,sans-Serif" font-size="10.00">_password_from_cleartext</text>
</a>
</g>
</g>
<!-- Node2 -->
<g id="node2" class="node">
<title>Node2</title>
<g id="a_node2"><a xlink:href="a00340.html#a615bc63ad75ff08982eeb0c1a2da7243" target="_top" xlink:title=" ">
<polygon fill="white" stroke="black" points="169.5,-139.5 169.5,-169.5 287.5,-169.5 287.5,-139.5 169.5,-139.5"/>
<text text-anchor="start" x="177.5" y="-157.5" font-family="Helvetica,sans-Serif" font-size="10.00">CO_Security_Login\get</text>
<text text-anchor="middle" x="228.5" y="-146.5" font-family="Helvetica,sans-Serif" font-size="10.00">_crypted_password</text>
</a>
</g>
</g>
<!-- Node1&#45;&gt;Node2 -->
<g id="edge1" class="edge">
<title>Node1&#45;&gt;Node2</title>
<path fill="none" stroke="midnightblue" d="M116.12,-120.6C132.57,-125.61 151.05,-131.23 168.16,-136.44"/>
<polygon fill="midnightblue" stroke="midnightblue" points="167.46,-139.89 178.04,-139.45 169.5,-133.19 167.46,-139.89"/>
</g>
<!-- Node3 -->
<g id="node3" class="node">
<title>Node3</title>
<g id="a_node3"><a xlink:href="a00308.html#a7487697640051c6661b8cdca6f109959" target="_top" xlink:title=" ">
<polygon fill="white" stroke="black" points="169,-90.5 169,-120.5 288,-120.5 288,-90.5 169,-90.5"/>
<text text-anchor="start" x="177" y="-108.5" font-family="Helvetica,sans-Serif" font-size="10.00">A_CO_DB_Table_Base</text>
<text text-anchor="middle" x="228.5" y="-97.5" font-family="Helvetica,sans-Serif" font-size="10.00">\update_db</text>
</a>
</g>
</g>
<!-- Node1&#45;&gt;Node3 -->
<g id="edge2" class="edge">
<title>Node1&#45;&gt;Node3</title>
<path fill="none" stroke="midnightblue" d="M131.06,-105.5C140.15,-105.5 149.52,-105.5 158.68,-105.5"/>
<polygon fill="midnightblue" stroke="midnightblue" points="158.92,-109 168.92,-105.5 158.92,-102 158.92,-109"/>
</g>
<!-- Node10 -->
<g id="node10" class="node">
<title>Node10</title>
<g id="a_node10"><a xlink:href="a00340.html#aba256552040dd8af7196f0fea2a58609" target="_top" xlink:title=" ">
<polygon fill="white" stroke="black" points="167,-41.5 167,-71.5 290,-71.5 290,-41.5 167,-41.5"/>
<text text-anchor="start" x="175" y="-59.5" font-family="Helvetica,sans-Serif" font-size="10.00">CO_Security_Login\user</text>
<text text-anchor="middle" x="228.5" y="-48.5" font-family="Helvetica,sans-Serif" font-size="10.00">_can_write</text>
</a>
</g>
</g>
<!-- Node1&#45;&gt;Node10 -->
<g id="edge11" class="edge">
<title>Node1&#45;&gt;Node10</title>
<path fill="none" stroke="midnightblue" d="M116.12,-90.4C132.57,-85.39 151.05,-79.77 168.16,-74.56"/>
<polygon fill="midnightblue" stroke="midnightblue" points="169.5,-77.81 178.04,-71.55 167.46,-71.11 169.5,-77.81"/>
</g>
<!-- Node4 -->
<g id="node4" class="node">
<title>Node4</title>
<g id="a_node4"><a xlink:href="a00308.html#adda14b544e11934db3bf8130aeea0610" target="_top" xlink:title=" ">
<polygon fill="white" stroke="black" points="326,-137.5 326,-167.5 445,-167.5 445,-137.5 326,-137.5"/>
<text text-anchor="start" x="334" y="-155.5" font-family="Helvetica,sans-Serif" font-size="10.00">A_CO_DB_Table_Base</text>
<text text-anchor="middle" x="385.5" y="-144.5" font-family="Helvetica,sans-Serif" font-size="10.00">\_write_to_db</text>
</a>
</g>
</g>
<!-- Node3&#45;&gt;Node4 -->
<g id="edge3" class="edge">
<title>Node3&#45;&gt;Node4</title>
<path fill="none" stroke="midnightblue" d="M278.97,-120.5C293.65,-124.95 309.88,-129.87 325.12,-134.5"/>
<polygon fill="midnightblue" stroke="midnightblue" points="324.38,-137.93 334.97,-137.48 326.42,-131.23 324.38,-137.93"/>
</g>
<!-- Node9 -->
<g id="node9" class="node">
<title>Node9</title>
<g id="a_node9"><a xlink:href="a00308.html#a7d2537d7675ca572ad78096784fe4fe4" target="_top" xlink:title=" ">
<polygon fill="white" stroke="black" points="326,-88.5 326,-118.5 445,-118.5 445,-88.5 326,-88.5"/>
<text text-anchor="start" x="334" y="-106.5" font-family="Helvetica,sans-Serif" font-size="10.00">A_CO_DB_Table_Base</text>
<text text-anchor="middle" x="385.5" y="-95.5" font-family="Helvetica,sans-Serif" font-size="10.00">\user_can_write</text>
</a>
</g>
</g>
<!-- Node3&#45;&gt;Node9 -->
<g id="edge9" class="edge">
<title>Node3&#45;&gt;Node9</title>
<path fill="none" stroke="midnightblue" d="M288.1,-104.74C297.07,-104.63 306.4,-104.51 315.56,-104.39"/>
<polygon fill="midnightblue" stroke="midnightblue" points="315.86,-107.89 325.82,-104.26 315.77,-100.89 315.86,-107.89"/>
</g>
<!-- Node5 -->
<g id="node5" class="node">
<title>Node5</title>
<g id="a_node5"><a xlink:href="a00308.html#a6109c37c5e61ab04ea710b1ebb7615a5" target="_top" xlink:title=" ">
<polygon fill="white" stroke="black" points="481,-178.5 481,-208.5 602,-208.5 602,-178.5 481,-178.5"/>
<text text-anchor="start" x="489" y="-196.5" font-family="Helvetica,sans-Serif" font-size="10.00">A_CO_DB_Table_Base</text>
<text text-anchor="middle" x="541.5" y="-185.5" font-family="Helvetica,sans-Serif" font-size="10.00">\_build_parameter_array</text>
</a>
</g>
</g>
<!-- Node4&#45;&gt;Node5 -->
<g id="edge4" class="edge">
<title>Node4&#45;&gt;Node5</title>
<path fill="none" stroke="midnightblue" d="M442.97,-167.53C453.12,-170.24 463.78,-173.07 474.18,-175.84"/>
<polygon fill="midnightblue" stroke="midnightblue" points="473.47,-179.28 484.04,-178.47 475.27,-172.51 473.47,-179.28"/>
</g>
<!-- Node7 -->
<g id="node7" class="node">
<title>Node7</title>
<g id="a_node7"><a xlink:href="a00308.html#a78affe18a811930d4012fd265e95cdca" target="_top" xlink:title=" ">
<polygon fill="white" stroke="black" points="638,-140 638,-159 768,-159 768,-140 638,-140"/>
<text text-anchor="middle" x="703" y="-147" font-family="Helvetica,sans-Serif" font-size="10.00">A_CO_DB_Table_Base\id</text>
</a>
</g>
</g>
<!-- Node4&#45;&gt;Node7 -->
<g id="edge8" class="edge">
<title>Node4&#45;&gt;Node7</title>
<path fill="none" stroke="midnightblue" d="M445.1,-151.94C496.61,-151.45 571.82,-150.74 627.57,-150.21"/>
<polygon fill="midnightblue" stroke="midnightblue" points="627.77,-153.71 637.74,-150.11 627.71,-146.71 627.77,-153.71"/>
</g>
<!-- Node8 -->
<g id="node8" class="node">
<title>Node8</title>
<g id="a_node8"><a xlink:href="a00308.html#a8780b40e55827b90bb441671faec2a05" target="_top" xlink:title=" ">
<polygon fill="white" stroke="black" points="482,-88.5 482,-118.5 601,-118.5 601,-88.5 482,-88.5"/>
<text text-anchor="start" x="490" y="-106.5" font-family="Helvetica,sans-Serif" font-size="10.00">A_CO_DB_Table_Base</text>
<text text-anchor="middle" x="541.5" y="-95.5" font-family="Helvetica,sans-Serif" font-size="10.00">\get_access_object</text>
</a>
</g>
</g>
<!-- Node4&#45;&gt;Node8 -->
<g id="edge7" class="edge">
<title>Node4&#45;&gt;Node8</title>
<path fill="none" stroke="midnightblue" d="M433.96,-137.4C449.55,-132.44 467.04,-126.87 483.28,-121.71"/>
<polygon fill="midnightblue" stroke="midnightblue" points="484.73,-124.92 493.2,-118.55 482.6,-118.25 484.73,-124.92"/>
</g>
<!-- Node6 -->
<g id="node6" class="node">
<title>Node6</title>
<g id="a_node6"><a xlink:href="a00308.html#afb32d1e32b8e1c1de2e008c9b88f7846" target="_top" xlink:title=" ">
<polygon fill="white" stroke="black" points="643.5,-178.5 643.5,-208.5 762.5,-208.5 762.5,-178.5 643.5,-178.5"/>
<text text-anchor="start" x="651.5" y="-196.5" font-family="Helvetica,sans-Serif" font-size="10.00">A_CO_DB_Table_Base</text>
<text text-anchor="middle" x="703" y="-185.5" font-family="Helvetica,sans-Serif" font-size="10.00">\_badger_serialize</text>
</a>
</g>
</g>
<!-- Node5&#45;&gt;Node6 -->
<g id="edge5" class="edge">
<title>Node5&#45;&gt;Node6</title>
<path fill="none" stroke="midnightblue" d="M602.35,-193.5C612.42,-193.5 622.95,-193.5 633.23,-193.5"/>
<polygon fill="midnightblue" stroke="midnightblue" points="633.41,-197 643.41,-193.5 633.41,-190 633.41,-197"/>
</g>
<!-- Node5&#45;&gt;Node7 -->
<g id="edge6" class="edge">
<title>Node5&#45;&gt;Node7</title>
<path fill="none" stroke="midnightblue" d="M596.94,-178.48C616.68,-173.04 638.72,-166.96 657.5,-161.78"/>
<polygon fill="midnightblue" stroke="midnightblue" points="658.57,-165.11 667.28,-159.08 656.71,-158.36 658.57,-165.11"/>
</g>
<!-- Node9&#45;&gt;Node8 -->
<g id="edge10" class="edge">
<title>Node9&#45;&gt;Node8</title>
<path fill="none" stroke="midnightblue" d="M445.16,-103.5C453.77,-103.5 462.71,-103.5 471.51,-103.5"/>
<polygon fill="midnightblue" stroke="midnightblue" points="471.75,-107 481.75,-103.5 471.75,-100 471.75,-107"/>
</g>
<!-- Node10&#45;&gt;Node8 -->
<g id="edge12" class="edge">
<title>Node10&#45;&gt;Node8</title>
<path fill="none" stroke="midnightblue" d="M290.2,-60.7C333.55,-64.25 393.14,-70.26 445,-79.5 455.2,-81.32 465.93,-83.62 476.36,-86.08"/>
<polygon fill="midnightblue" stroke="midnightblue" points="475.7,-89.52 486.24,-88.47 477.35,-82.71 475.7,-89.52"/>
</g>
<!-- Node11 -->
<g id="node11" class="node">
<title>Node11</title>
<g id="a_node11"><a xlink:href="a00340.html#a03304936652c2c606c411c7c6a0f0c7f" target="_top" xlink:title=" ">
<polygon fill="white" stroke="black" points="332,-0.5 332,-30.5 439,-30.5 439,-0.5 332,-0.5"/>
<text text-anchor="start" x="340" y="-18.5" font-family="Helvetica,sans-Serif" font-size="10.00">CO_Security_Login\i</text>
<text text-anchor="middle" x="385.5" y="-7.5" font-family="Helvetica,sans-Serif" font-size="10.00">_am_a_god</text>
</a>
</g>
</g>
<!-- Node10&#45;&gt;Node11 -->
<g id="edge13" class="edge">
<title>Node10&#45;&gt;Node11</title>
<path fill="none" stroke="midnightblue" d="M286.34,-41.47C297.95,-38.39 310.22,-35.15 322.02,-32.03"/>
<polygon fill="midnightblue" stroke="midnightblue" points="323.02,-35.38 331.79,-29.44 321.22,-28.62 323.02,-35.38"/>
</g>
</g>
</svg>
