<?xml version="1.0" encoding="UTF-8" standalone="no"?>
<!DOCTYPE svg PUBLIC "-//W3C//DTD SVG 1.1//EN"
 "http://www.w3.org/Graphics/SVG/1.1/DTD/svg11.dtd">
<!-- Generated by graphviz version 2.40.1 (20161225.0304)
 -->
<!-- Title: A_CO_DB\get_multiple_records_by_id Pages: 1 -->
<svg width="475pt" height="144pt"
 viewBox="0.00 0.00 474.84 144.00" xmlns="http://www.w3.org/2000/svg" xmlns:xlink="http://www.w3.org/1999/xlink">
<g id="graph0" class="graph" transform="scale(1 1) rotate(0) translate(4 140)">
<title>A_CO_DB\get_multiple_records_by_id</title>
<polygon fill="#ffffff" stroke="transparent" points="-4,4 -4,-140 470.8408,-140 470.8408,4 -4,4"/>
<!-- Node1 -->
<g id="node1" class="node">
<title>Node1</title>
<g id="a_node1"><a xlink:title=" ">
<polygon fill="#bfbfbf" stroke="#000000" points="0,-37.5 0,-65.5 119.3838,-65.5 119.3838,-37.5 0,-37.5"/>
<text text-anchor="start" x="8" y="-53.5" font-family="Helvetica,sans-Serif" font-size="10.00" fill="#000000">A_CO_DB\get_multiple</text>
<text text-anchor="middle" x="59.6919" y="-43.5" font-family="Helvetica,sans-Serif" font-size="10.00" fill="#000000">_records_by_id</text>
</a>
</g>
</g>
<!-- Node2 -->
<g id="node2" class="node">
<title>Node2</title>
<g id="a_node2"><a xlink:href="a00304.html#ad2356dbed1b38898d8c17bcd8eb405ef" target="_top" xlink:title=" ">
<polygon fill="#ffffff" stroke="#000000" points="155.3838,-84.5 155.3838,-112.5 294.2158,-112.5 294.2158,-84.5 155.3838,-84.5"/>
<text text-anchor="start" x="163.3838" y="-100.5" font-family="Helvetica,sans-Serif" font-size="10.00" fill="#000000">A_CO_DB\_create_security</text>
<text text-anchor="middle" x="224.7998" y="-90.5" font-family="Helvetica,sans-Serif" font-size="10.00" fill="#000000">_predicate</text>
</a>
</g>
</g>
<!-- Node1&#45;&gt;Node2 -->
<g id="edge1" class="edge">
<title>Node1&#45;&gt;Node2</title>
<path fill="none" stroke="#191970" d="M109.2297,-65.6015C127.0239,-70.6669 147.2683,-76.4297 165.7878,-81.7015"/>
<polygon fill="#191970" stroke="#191970" points="165.0055,-85.1178 175.5816,-84.4894 166.922,-78.3852 165.0055,-85.1178"/>
</g>
<!-- Node5 -->
<g id="node5" class="node">
<title>Node5</title>
<g id="a_node5"><a xlink:href="a00304.html#a523e2f40174a0bca0fc873d6286b3ae9" target="_top" xlink:title=" ">
<polygon fill="#ffffff" stroke="#000000" points="166.4946,-37.5 166.4946,-65.5 283.105,-65.5 283.105,-37.5 166.4946,-37.5"/>
<text text-anchor="start" x="174.4946" y="-53.5" font-family="Helvetica,sans-Serif" font-size="10.00" fill="#000000">A_CO_DB\_instantiate</text>
<text text-anchor="middle" x="224.7998" y="-43.5" font-family="Helvetica,sans-Serif" font-size="10.00" fill="#000000">_record</text>
</a>
</g>
</g>
<!-- Node1&#45;&gt;Node5 -->
<g id="edge4" class="edge">
<title>Node1&#45;&gt;Node5</title>
<path fill="none" stroke="#191970" d="M119.7667,-51.5C131.6524,-51.5 144.211,-51.5 156.3503,-51.5"/>
<polygon fill="#191970" stroke="#191970" points="156.4247,-55.0001 166.4247,-51.5 156.4246,-48.0001 156.4247,-55.0001"/>
</g>
<!-- Node6 -->
<g id="node6" class="node">
<title>Node6</title>
<g id="a_node6"><a xlink:href="a00304.html#a2396849660aa4ff018ab7509a4badeb5" target="_top" xlink:title=" ">
<polygon fill="#ffffff" stroke="#000000" points="159.2681,-.5 159.2681,-18.5 290.3315,-18.5 290.3315,-.5 159.2681,-.5"/>
<text text-anchor="middle" x="224.7998" y="-6.5" font-family="Helvetica,sans-Serif" font-size="10.00" fill="#000000">A_CO_DB\execute_query</text>
</a>
</g>
</g>
<!-- Node1&#45;&gt;Node6 -->
<g id="edge5" class="edge">
<title>Node1&#45;&gt;Node6</title>
<path fill="none" stroke="#191970" d="M115.1297,-37.3978C135.9668,-32.0972 159.3967,-26.1372 179.2344,-21.0909"/>
<polygon fill="#191970" stroke="#191970" points="180.1231,-24.4764 188.9516,-18.619 178.3974,-17.6924 180.1231,-24.4764"/>
</g>
<!-- Node3 -->
<g id="node3" class="node">
<title>Node3</title>
<g id="a_node3"><a xlink:href="a00304.html#a176b2c663fa7768e95e4fbe93281adc6" target="_top" xlink:title=" ">
<polygon fill="#ffffff" stroke="#000000" points="336.3315,-107.5 336.3315,-135.5 460.7251,-135.5 460.7251,-107.5 336.3315,-107.5"/>
<text text-anchor="start" x="344.3315" y="-123.5" font-family="Helvetica,sans-Serif" font-size="10.00" fill="#000000">A_CO_DB\_create_read</text>
<text text-anchor="middle" x="398.5283" y="-113.5" font-family="Helvetica,sans-Serif" font-size="10.00" fill="#000000">_security_predicate</text>
</a>
</g>
</g>
<!-- Node2&#45;&gt;Node3 -->
<g id="edge2" class="edge">
<title>Node2&#45;&gt;Node3</title>
<path fill="none" stroke="#191970" d="M294.4608,-107.7225C304.9053,-109.1052 315.6954,-110.5337 326.194,-111.9236"/>
<polygon fill="#191970" stroke="#191970" points="325.7767,-115.3988 336.1496,-113.2417 326.6955,-108.4594 325.7767,-115.3988"/>
</g>
<!-- Node4 -->
<g id="node4" class="node">
<title>Node4</title>
<g id="a_node4"><a xlink:href="a00304.html#ad4bc3d416f085818935b32a814313202" target="_top" xlink:title=" ">
<polygon fill="#ffffff" stroke="#000000" points="335.7822,-60.5 335.7822,-88.5 461.2744,-88.5 461.2744,-60.5 335.7822,-60.5"/>
<text text-anchor="start" x="343.7822" y="-76.5" font-family="Helvetica,sans-Serif" font-size="10.00" fill="#000000">A_CO_DB\_create_write</text>
<text text-anchor="middle" x="398.5283" y="-66.5" font-family="Helvetica,sans-Serif" font-size="10.00" fill="#000000">_security_predicate</text>
</a>
</g>
</g>
<!-- Node2&#45;&gt;Node4 -->
<g id="edge3" class="edge">
<title>Node2&#45;&gt;Node4</title>
<path fill="none" stroke="#191970" d="M294.4608,-88.8766C304.656,-87.4681 315.1805,-86.0142 325.4418,-84.5967"/>
<polygon fill="#191970" stroke="#191970" points="326.1665,-88.0299 335.5934,-83.1942 325.2085,-81.0957 326.1665,-88.0299"/>
</g>
<!-- Node7 -->
<g id="node7" class="node">
<title>Node7</title>
<g id="a_node7"><a xlink:href="a00304.html#ae41efbdfe739934823b5f4c785b22611" target="_top" xlink:title=" ">
<polygon fill="#ffffff" stroke="#000000" points="330.2158,-.5 330.2158,-18.5 466.8408,-18.5 466.8408,-.5 330.2158,-.5"/>
<text text-anchor="middle" x="398.5283" y="-6.5" font-family="Helvetica,sans-Serif" font-size="10.00" fill="#000000">A_CO_DB\_execute_query</text>
</a>
</g>
</g>
<!-- Node6&#45;&gt;Node7 -->
<g id="edge6" class="edge">
<title>Node6&#45;&gt;Node7</title>
<path fill="none" stroke="#191970" d="M290.4791,-9.5C300.1066,-9.5 310.1039,-9.5 319.9576,-9.5"/>
<polygon fill="#191970" stroke="#191970" points="320.1526,-13.0001 330.1526,-9.5 320.1526,-6.0001 320.1526,-13.0001"/>
</g>
</g>
</svg>
