<?xml version="1.0" encoding="UTF-8" standalone="no"?>
<!DOCTYPE svg PUBLIC "-//W3C//DTD SVG 1.1//EN"
 "http://www.w3.org/Graphics/SVG/1.1/DTD/svg11.dtd">
<!-- Generated by graphviz version 2.40.1 (20161225.0304)
 -->
<!-- Title: A_CO_DB_Table_Base\_write_to_db Pages: 1 -->
<svg width="457pt" height="123pt"
 viewBox="0.00 0.00 456.53 123.00" xmlns="http://www.w3.org/2000/svg" xmlns:xlink="http://www.w3.org/1999/xlink">
<g id="graph0" class="graph" transform="scale(1 1) rotate(0) translate(4 119)">
<title>A_CO_DB_Table_Base\_write_to_db</title>
<polygon fill="#ffffff" stroke="transparent" points="-4,4 -4,-119 452.5254,-119 452.5254,4 -4,4"/>
<!-- Node1 -->
<g id="node1" class="node">
<title>Node1</title>
<g id="a_node1"><a xlink:title=" ">
<polygon fill="#bfbfbf" stroke="#000000" points="0,-43.5 0,-71.5 120.5068,-71.5 120.5068,-43.5 0,-43.5"/>
<text text-anchor="start" x="8" y="-59.5" font-family="Helvetica,sans-Serif" font-size="10.00" fill="#000000">A_CO_DB_Table_Base</text>
<text text-anchor="middle" x="60.2534" y="-49.5" font-family="Helvetica,sans-Serif" font-size="10.00" fill="#000000">\_write_to_db</text>
</a>
</g>
</g>
<!-- Node2 -->
<g id="node2" class="node">
<title>Node2</title>
<g id="a_node2"><a xlink:href="a00311.html#a6109c37c5e61ab04ea710b1ebb7615a5" target="_top" xlink:title=" ">
<polygon fill="#ffffff" stroke="#000000" points="156.5068,-86.5 156.5068,-114.5 281.457,-114.5 281.457,-86.5 156.5068,-86.5"/>
<text text-anchor="start" x="164.5068" y="-102.5" font-family="Helvetica,sans-Serif" font-size="10.00" fill="#000000">A_CO_DB_Table_Base</text>
<text text-anchor="middle" x="218.9819" y="-92.5" font-family="Helvetica,sans-Serif" font-size="10.00" fill="#000000">\_build_parameter_array</text>
</a>
</g>
</g>
<!-- Node1&#45;&gt;Node2 -->
<g id="edge1" class="edge">
<title>Node1&#45;&gt;Node2</title>
<path fill="none" stroke="#191970" d="M112.2271,-71.5798C126.6898,-75.4978 142.5357,-79.7905 157.4888,-83.8413"/>
<polygon fill="#191970" stroke="#191970" points="156.5954,-87.2254 167.1627,-86.462 158.4258,-80.4689 156.5954,-87.2254"/>
</g>
<!-- Node4 -->
<g id="node4" class="node">
<title>Node4</title>
<g id="a_node4"><a xlink:href="a00311.html#a78affe18a811930d4012fd265e95cdca" target="_top" xlink:title=" ">
<polygon fill="#ffffff" stroke="#000000" points="317.457,-49.5 317.457,-67.5 448.5254,-67.5 448.5254,-49.5 317.457,-49.5"/>
<text text-anchor="middle" x="382.9912" y="-55.5" font-family="Helvetica,sans-Serif" font-size="10.00" fill="#000000">A_CO_DB_Table_Base\id</text>
</a>
</g>
</g>
<!-- Node1&#45;&gt;Node4 -->
<g id="edge5" class="edge">
<title>Node1&#45;&gt;Node4</title>
<path fill="none" stroke="#191970" d="M120.5793,-57.6869C173.4176,-57.8506 250.4406,-58.0893 307.3824,-58.2657"/>
<polygon fill="#191970" stroke="#191970" points="307.4015,-61.7657 317.4123,-58.2968 307.4232,-54.7657 307.4015,-61.7657"/>
</g>
<!-- Node5 -->
<g id="node5" class="node">
<title>Node5</title>
<g id="a_node5"><a xlink:href="a00311.html#a8780b40e55827b90bb441671faec2a05" target="_top" xlink:title=" ">
<polygon fill="#ffffff" stroke="#000000" points="158.7285,-.5 158.7285,-28.5 279.2354,-28.5 279.2354,-.5 158.7285,-.5"/>
<text text-anchor="start" x="166.7285" y="-16.5" font-family="Helvetica,sans-Serif" font-size="10.00" fill="#000000">A_CO_DB_Table_Base</text>
<text text-anchor="middle" x="218.9819" y="-6.5" font-family="Helvetica,sans-Serif" font-size="10.00" fill="#000000">\get_access_object</text>
</a>
</g>
</g>
<!-- Node1&#45;&gt;Node5 -->
<g id="edge4" class="edge">
<title>Node1&#45;&gt;Node5</title>
<path fill="none" stroke="#191970" d="M112.2271,-43.4202C126.6898,-39.5022 142.5357,-35.2095 157.4888,-31.1587"/>
<polygon fill="#191970" stroke="#191970" points="158.4258,-34.5311 167.1627,-28.538 156.5954,-27.7746 158.4258,-34.5311"/>
</g>
<!-- Node3 -->
<g id="node3" class="node">
<title>Node3</title>
<g id="a_node3"><a xlink:href="a00311.html#afb32d1e32b8e1c1de2e008c9b88f7846" target="_top" xlink:title=" ">
<polygon fill="#ffffff" stroke="#000000" points="322.7378,-86.5 322.7378,-114.5 443.2446,-114.5 443.2446,-86.5 322.7378,-86.5"/>
<text text-anchor="start" x="330.7378" y="-102.5" font-family="Helvetica,sans-Serif" font-size="10.00" fill="#000000">A_CO_DB_Table_Base</text>
<text text-anchor="middle" x="382.9912" y="-92.5" font-family="Helvetica,sans-Serif" font-size="10.00" fill="#000000">\_badger_serialize</text>
</a>
</g>
</g>
<!-- Node2&#45;&gt;Node3 -->
<g id="edge2" class="edge">
<title>Node2&#45;&gt;Node3</title>
<path fill="none" stroke="#191970" d="M281.9231,-100.5C291.9503,-100.5 302.3801,-100.5 312.5665,-100.5"/>
<polygon fill="#191970" stroke="#191970" points="312.648,-104.0001 322.648,-100.5 312.648,-97.0001 312.648,-104.0001"/>
</g>
<!-- Node2&#45;&gt;Node4 -->
<g id="edge3" class="edge">
<title>Node2&#45;&gt;Node4</title>
<path fill="none" stroke="#191970" d="M274.0509,-86.3978C294.6548,-81.1214 317.8108,-75.1916 337.4588,-70.1601"/>
<polygon fill="#191970" stroke="#191970" points="338.5624,-73.4905 347.3815,-67.619 336.8258,-66.7093 338.5624,-73.4905"/>
</g>
</g>
</svg>
