<?xml version="1.0" encoding="UTF-8" standalone="no"?>
<!DOCTYPE svg PUBLIC "-//W3C//DTD SVG 1.1//EN"
 "http://www.w3.org/Graphics/SVG/1.1/DTD/svg11.dtd">
<!-- Generated by graphviz version 2.40.1 (20161225.0304)
 -->
<!-- Title: A_CO_DB\get_db_backup Pages: 1 -->
<svg width="482pt" height="27pt"
 viewBox="0.00 0.00 481.54 27.00" xmlns="http://www.w3.org/2000/svg" xmlns:xlink="http://www.w3.org/1999/xlink">
<g id="graph0" class="graph" transform="scale(1 1) rotate(0) translate(4 23)">
<title>A_CO_DB\get_db_backup</title>
<polygon fill="#ffffff" stroke="transparent" points="-4,4 -4,-23 477.5449,-23 477.5449,4 -4,4"/>
<!-- Node167 -->
<g id="node1" class="node">
<title>Node167</title>
<polygon fill="#bfbfbf" stroke="#000000" points="0,-.5 0,-18.5 133.8564,-18.5 133.8564,-.5 0,-.5"/>
<text text-anchor="middle" x="66.9282" y="-6.5" font-family="Helvetica,sans-Serif" font-size="10.00" fill="#000000">A_CO_DB\get_db_backup</text>
</g>
<!-- Node168 -->
<g id="node2" class="node">
<title>Node168</title>
<g id="a_node2"><a xlink:href="a00307.html#a2396849660aa4ff018ab7509a4badeb5" target="_top" xlink:title="A_CO_DB\\execute_query">
<polygon fill="#ffffff" stroke="#000000" points="169.8564,-.5 169.8564,-18.5 300.9199,-18.5 300.9199,-.5 169.8564,-.5"/>
<text text-anchor="middle" x="235.3882" y="-6.5" font-family="Helvetica,sans-Serif" font-size="10.00" fill="#000000">A_CO_DB\execute_query</text>
</a>
</g>
</g>
<!-- Node167&#45;&gt;Node168 -->
<g id="edge1" class="edge">
<title>Node167&#45;&gt;Node168</title>
<path fill="none" stroke="#191970" d="M133.9921,-9.5C142.3417,-9.5 150.9264,-9.5 159.3987,-9.5"/>
<polygon fill="#191970" stroke="#191970" points="159.6541,-13.0001 169.6541,-9.5 159.6541,-6.0001 159.6541,-13.0001"/>
</g>
<!-- Node169 -->
<g id="node3" class="node">
<title>Node169</title>
<g id="a_node3"><a xlink:href="a00307.html#ae41efbdfe739934823b5f4c785b22611" target="_top" xlink:title="A_CO_DB\\_execute_query">
<polygon fill="#ffffff" stroke="#000000" points="336.9199,-.5 336.9199,-18.5 473.5449,-18.5 473.5449,-.5 336.9199,-.5"/>
<text text-anchor="middle" x="405.2324" y="-6.5" font-family="Helvetica,sans-Serif" font-size="10.00" fill="#000000">A_CO_DB\_execute_query</text>
</a>
</g>
</g>
<!-- Node168&#45;&gt;Node169 -->
<g id="edge2" class="edge">
<title>Node168&#45;&gt;Node169</title>
<path fill="none" stroke="#191970" d="M301.0544,-9.5C309.35,-9.5 317.9043,-9.5 326.3777,-9.5"/>
<polygon fill="#191970" stroke="#191970" points="326.6504,-13.0001 336.6504,-9.5 326.6503,-6.0001 326.6504,-13.0001"/>
</g>
</g>
</svg>
