<?xml version="1.0" encoding="UTF-8" standalone="no"?>
<!DOCTYPE svg PUBLIC "-//W3C//DTD SVG 1.1//EN"
 "http://www.w3.org/Graphics/SVG/1.1/DTD/svg11.dtd">
<!-- Generated by graphviz version 2.47.1 (20210417.1919)
 -->
<!-- Title: CO_Main_DB_Record\set_tags Pages: 1 -->
<svg width="796pt" height="130pt"
 viewBox="0.00 0.00 796.00 130.00" xmlns="http://www.w3.org/2000/svg" xmlns:xlink="http://www.w3.org/1999/xlink">
<g id="graph0" class="graph" transform="scale(1 1) rotate(0) translate(4 126)">
<title>CO_Main_DB_Record\set_tags</title>
<polygon fill="white" stroke="transparent" points="-4,4 -4,-126 792,-126 792,4 -4,4"/>
<!-- Node1 -->
<g id="node1" class="node">
<title>Node1</title>
<g id="a_node1"><a xlink:title=" ">
<polygon fill="#bfbfbf" stroke="black" points="0,-28 0,-47 155,-47 155,-28 0,-28"/>
<text text-anchor="middle" x="77.5" y="-35" font-family="Helvetica,sans-Serif" font-size="10.00">CO_Main_DB_Record\set_tags</text>
</a>
</g>
</g>
<!-- Node2 -->
<g id="node2" class="node">
<title>Node2</title>
<g id="a_node2"><a xlink:href="a00308.html#a7487697640051c6661b8cdca6f109959" target="_top" xlink:title=" ">
<polygon fill="white" stroke="black" points="191,-44.5 191,-74.5 310,-74.5 310,-44.5 191,-44.5"/>
<text text-anchor="start" x="199" y="-62.5" font-family="Helvetica,sans-Serif" font-size="10.00">A_CO_DB_Table_Base</text>
<text text-anchor="middle" x="250.5" y="-51.5" font-family="Helvetica,sans-Serif" font-size="10.00">\update_db</text>
</a>
</g>
</g>
<!-- Node1&#45;&gt;Node2 -->
<g id="edge1" class="edge">
<title>Node1&#45;&gt;Node2</title>
<path fill="none" stroke="midnightblue" d="M152.51,-47.02C161.92,-48.23 171.52,-49.47 180.85,-50.67"/>
<polygon fill="midnightblue" stroke="midnightblue" points="180.47,-54.15 190.83,-51.95 181.36,-47.2 180.47,-54.15"/>
</g>
<!-- Node8 -->
<g id="node8" class="node">
<title>Node8</title>
<g id="a_node8"><a xlink:href="a00308.html#a7d2537d7675ca572ad78096784fe4fe4" target="_top" xlink:title=" ">
<polygon fill="white" stroke="black" points="346,-0.5 346,-30.5 465,-30.5 465,-0.5 346,-0.5"/>
<text text-anchor="start" x="354" y="-18.5" font-family="Helvetica,sans-Serif" font-size="10.00">A_CO_DB_Table_Base</text>
<text text-anchor="middle" x="405.5" y="-7.5" font-family="Helvetica,sans-Serif" font-size="10.00">\user_can_write</text>
</a>
</g>
</g>
<!-- Node1&#45;&gt;Node8 -->
<g id="edge10" class="edge">
<title>Node1&#45;&gt;Node8</title>
<path fill="none" stroke="midnightblue" d="M155.34,-32.31C209.96,-28.63 282.7,-23.72 335.47,-20.16"/>
<polygon fill="midnightblue" stroke="midnightblue" points="336,-23.63 345.75,-19.46 335.53,-16.65 336,-23.63"/>
</g>
<!-- Node3 -->
<g id="node3" class="node">
<title>Node3</title>
<g id="a_node3"><a xlink:href="a00308.html#adda14b544e11934db3bf8130aeea0610" target="_top" xlink:title=" ">
<polygon fill="white" stroke="black" points="346,-49.5 346,-79.5 465,-79.5 465,-49.5 346,-49.5"/>
<text text-anchor="start" x="354" y="-67.5" font-family="Helvetica,sans-Serif" font-size="10.00">A_CO_DB_Table_Base</text>
<text text-anchor="middle" x="405.5" y="-56.5" font-family="Helvetica,sans-Serif" font-size="10.00">\_write_to_db</text>
</a>
</g>
</g>
<!-- Node2&#45;&gt;Node3 -->
<g id="edge2" class="edge">
<title>Node2&#45;&gt;Node3</title>
<path fill="none" stroke="midnightblue" d="M310.22,-61.42C318.54,-61.69 327.17,-61.97 335.67,-62.25"/>
<polygon fill="midnightblue" stroke="midnightblue" points="335.83,-65.76 345.94,-62.59 336.06,-58.76 335.83,-65.76"/>
</g>
<!-- Node2&#45;&gt;Node8 -->
<g id="edge8" class="edge">
<title>Node2&#45;&gt;Node8</title>
<path fill="none" stroke="midnightblue" d="M303.73,-44.48C316.21,-40.89 329.66,-37.02 342.54,-33.32"/>
<polygon fill="midnightblue" stroke="midnightblue" points="343.61,-36.65 352.25,-30.53 341.67,-29.93 343.61,-36.65"/>
</g>
<!-- Node4 -->
<g id="node4" class="node">
<title>Node4</title>
<g id="a_node4"><a xlink:href="a00308.html#a6109c37c5e61ab04ea710b1ebb7615a5" target="_top" xlink:title=" ">
<polygon fill="white" stroke="black" points="501,-91.5 501,-121.5 622,-121.5 622,-91.5 501,-91.5"/>
<text text-anchor="start" x="509" y="-109.5" font-family="Helvetica,sans-Serif" font-size="10.00">A_CO_DB_Table_Base</text>
<text text-anchor="middle" x="561.5" y="-98.5" font-family="Helvetica,sans-Serif" font-size="10.00">\_build_parameter_array</text>
</a>
</g>
</g>
<!-- Node3&#45;&gt;Node4 -->
<g id="edge3" class="edge">
<title>Node3&#45;&gt;Node4</title>
<path fill="none" stroke="midnightblue" d="M461.66,-79.54C472.68,-82.55 484.34,-85.73 495.65,-88.81"/>
<polygon fill="midnightblue" stroke="midnightblue" points="494.9,-92.24 505.46,-91.49 496.74,-85.48 494.9,-92.24"/>
</g>
<!-- Node6 -->
<g id="node6" class="node">
<title>Node6</title>
<g id="a_node6"><a xlink:href="a00308.html#a78affe18a811930d4012fd265e95cdca" target="_top" xlink:title=" ">
<polygon fill="white" stroke="black" points="658,-53 658,-72 788,-72 788,-53 658,-53"/>
<text text-anchor="middle" x="723" y="-60" font-family="Helvetica,sans-Serif" font-size="10.00">A_CO_DB_Table_Base\id</text>
</a>
</g>
</g>
<!-- Node3&#45;&gt;Node6 -->
<g id="edge7" class="edge">
<title>Node3&#45;&gt;Node6</title>
<path fill="none" stroke="midnightblue" d="M465.1,-64.13C516.61,-63.8 591.82,-63.33 647.57,-62.97"/>
<polygon fill="midnightblue" stroke="midnightblue" points="647.76,-66.47 657.74,-62.91 647.72,-59.47 647.76,-66.47"/>
</g>
<!-- Node7 -->
<g id="node7" class="node">
<title>Node7</title>
<g id="a_node7"><a xlink:href="a00308.html#a8780b40e55827b90bb441671faec2a05" target="_top" xlink:title=" ">
<polygon fill="white" stroke="black" points="502,-2.5 502,-32.5 621,-32.5 621,-2.5 502,-2.5"/>
<text text-anchor="start" x="510" y="-20.5" font-family="Helvetica,sans-Serif" font-size="10.00">A_CO_DB_Table_Base</text>
<text text-anchor="middle" x="561.5" y="-9.5" font-family="Helvetica,sans-Serif" font-size="10.00">\get_access_object</text>
</a>
</g>
</g>
<!-- Node3&#45;&gt;Node7 -->
<g id="edge6" class="edge">
<title>Node3&#45;&gt;Node7</title>
<path fill="none" stroke="midnightblue" d="M455.65,-49.5C470.24,-45.05 486.36,-40.13 501.51,-35.5"/>
<polygon fill="midnightblue" stroke="midnightblue" points="502.75,-38.79 511.29,-32.52 500.7,-32.09 502.75,-38.79"/>
</g>
<!-- Node5 -->
<g id="node5" class="node">
<title>Node5</title>
<g id="a_node5"><a xlink:href="a00308.html#afb32d1e32b8e1c1de2e008c9b88f7846" target="_top" xlink:title=" ">
<polygon fill="white" stroke="black" points="663.5,-91.5 663.5,-121.5 782.5,-121.5 782.5,-91.5 663.5,-91.5"/>
<text text-anchor="start" x="671.5" y="-109.5" font-family="Helvetica,sans-Serif" font-size="10.00">A_CO_DB_Table_Base</text>
<text text-anchor="middle" x="723" y="-98.5" font-family="Helvetica,sans-Serif" font-size="10.00">\_badger_serialize</text>
</a>
</g>
</g>
<!-- Node4&#45;&gt;Node5 -->
<g id="edge4" class="edge">
<title>Node4&#45;&gt;Node5</title>
<path fill="none" stroke="midnightblue" d="M622.35,-106.5C632.42,-106.5 642.95,-106.5 653.23,-106.5"/>
<polygon fill="midnightblue" stroke="midnightblue" points="653.41,-110 663.41,-106.5 653.41,-103 653.41,-110"/>
</g>
<!-- Node4&#45;&gt;Node6 -->
<g id="edge5" class="edge">
<title>Node4&#45;&gt;Node6</title>
<path fill="none" stroke="midnightblue" d="M616.94,-91.48C636.68,-86.04 658.72,-79.96 677.5,-74.78"/>
<polygon fill="midnightblue" stroke="midnightblue" points="678.57,-78.11 687.28,-72.08 676.71,-71.36 678.57,-78.11"/>
</g>
<!-- Node8&#45;&gt;Node7 -->
<g id="edge9" class="edge">
<title>Node8&#45;&gt;Node7</title>
<path fill="none" stroke="midnightblue" d="M465.16,-16.26C473.77,-16.37 482.71,-16.49 491.51,-16.6"/>
<polygon fill="midnightblue" stroke="midnightblue" points="491.7,-20.11 501.75,-16.74 491.79,-13.11 491.7,-20.11"/>
</g>
</g>
</svg>
