<?xml version="1.0" encoding="UTF-8" standalone="no"?>
<!DOCTYPE svg PUBLIC "-//W3C//DTD SVG 1.1//EN"
 "http://www.w3.org/Graphics/SVG/1.1/DTD/svg11.dtd">
<!-- Generated by graphviz version 2.40.1 (20161225.0304)
 -->
<!-- Title: CO_Main_Data_DB\_build_sql_query Pages: 1 -->
<svg width="685pt" height="191pt"
 viewBox="0.00 0.00 684.71 191.00" xmlns="http://www.w3.org/2000/svg" xmlns:xlink="http://www.w3.org/1999/xlink">
<g id="graph0" class="graph" transform="scale(1 1) rotate(0) translate(4 187)">
<title>CO_Main_Data_DB\_build_sql_query</title>
<polygon fill="#ffffff" stroke="transparent" points="-4,4 -4,-187 680.707,-187 680.707,4 -4,4"/>
<!-- Node2 -->
<g id="node1" class="node">
<title>Node2</title>
<polygon fill="#bfbfbf" stroke="#000000" points="0,-88.5 0,-116.5 133.8418,-116.5 133.8418,-88.5 0,-88.5"/>
<text text-anchor="start" x="8" y="-104.5" font-family="Helvetica,sans-Serif" font-size="10.00" fill="#000000">CO_Main_Data_DB\_build</text>
<text text-anchor="middle" x="66.9209" y="-94.5" font-family="Helvetica,sans-Serif" font-size="10.00" fill="#000000">_sql_query</text>
</g>
<!-- Node3 -->
<g id="node2" class="node">
<title>Node3</title>
<g id="a_node2"><a xlink:href="a00307.html#ad2356dbed1b38898d8c17bcd8eb405ef" target="_top" xlink:title="A_CO_DB\\_create_security\l_predicate">
<polygon fill="#ffffff" stroke="#000000" points="364.7031,-131.5 364.7031,-159.5 503.5352,-159.5 503.5352,-131.5 364.7031,-131.5"/>
<text text-anchor="start" x="372.7031" y="-147.5" font-family="Helvetica,sans-Serif" font-size="10.00" fill="#000000">A_CO_DB\_create_security</text>
<text text-anchor="middle" x="434.1191" y="-137.5" font-family="Helvetica,sans-Serif" font-size="10.00" fill="#000000">_predicate</text>
</a>
</g>
</g>
<!-- Node2&#45;&gt;Node3 -->
<g id="edge1" class="edge">
<title>Node2&#45;&gt;Node3</title>
<path fill="none" stroke="#191970" d="M119.7647,-116.5025C135.7527,-120.2831 153.4248,-124.0115 169.8418,-126.5 231.3469,-135.8228 301.6194,-140.598 354.2329,-143.0286"/>
<polygon fill="#191970" stroke="#191970" points="354.3671,-146.5379 364.5123,-143.4841 354.6771,-139.5448 354.3671,-146.5379"/>
</g>
<!-- Node6 -->
<g id="node5" class="node">
<title>Node6</title>
<g id="a_node5"><a xlink:href="a00315.html#a352444b4bfd455cb53a57137f3c44884" target="_top" xlink:title="CO_Main_Data_DB\\_location\l_predicate">
<polygon fill="#ffffff" stroke="#000000" points="169.8418,-88.5 169.8418,-116.5 317.0234,-116.5 317.0234,-88.5 169.8418,-88.5"/>
<text text-anchor="start" x="177.8418" y="-104.5" font-family="Helvetica,sans-Serif" font-size="10.00" fill="#000000">CO_Main_Data_DB\_location</text>
<text text-anchor="middle" x="243.4326" y="-94.5" font-family="Helvetica,sans-Serif" font-size="10.00" fill="#000000">_predicate</text>
</a>
</g>
</g>
<!-- Node2&#45;&gt;Node6 -->
<g id="edge4" class="edge">
<title>Node2&#45;&gt;Node6</title>
<path fill="none" stroke="#191970" d="M133.9041,-102.5C142.3158,-102.5 151.0017,-102.5 159.6306,-102.5"/>
<polygon fill="#191970" stroke="#191970" points="159.7143,-106.0001 169.7142,-102.5 159.7142,-99.0001 159.7143,-106.0001"/>
</g>
<!-- Node7 -->
<g id="node6" class="node">
<title>Node7</title>
<g id="a_node6"><a xlink:href="a00315.html#a64a118564e4da8a3b0220ee5cf088e9b" target="_top" xlink:title="CO_Main_Data_DB\\_parse\l_parameters">
<polygon fill="#ffffff" stroke="#000000" points="174.5684,-39.5 174.5684,-67.5 312.2969,-67.5 312.2969,-39.5 174.5684,-39.5"/>
<text text-anchor="start" x="182.5684" y="-55.5" font-family="Helvetica,sans-Serif" font-size="10.00" fill="#000000">CO_Main_Data_DB\_parse</text>
<text text-anchor="middle" x="243.4326" y="-45.5" font-family="Helvetica,sans-Serif" font-size="10.00" fill="#000000">_parameters</text>
</a>
</g>
</g>
<!-- Node2&#45;&gt;Node7 -->
<g id="edge6" class="edge">
<title>Node2&#45;&gt;Node7</title>
<path fill="none" stroke="#191970" d="M117.5021,-88.4586C137.9053,-82.7946 161.6156,-76.2126 182.9237,-70.2974"/>
<polygon fill="#191970" stroke="#191970" points="184.1447,-73.5909 192.8441,-67.5435 182.2722,-66.846 184.1447,-73.5909"/>
</g>
<!-- Node4 -->
<g id="node3" class="node">
<title>Node4</title>
<g id="a_node3"><a xlink:href="a00307.html#a176b2c663fa7768e95e4fbe93281adc6" target="_top" xlink:title="A_CO_DB\\_create_read\l_security_predicate">
<polygon fill="#ffffff" stroke="#000000" points="551.7642,-154.5 551.7642,-182.5 676.1577,-182.5 676.1577,-154.5 551.7642,-154.5"/>
<text text-anchor="start" x="559.7642" y="-170.5" font-family="Helvetica,sans-Serif" font-size="10.00" fill="#000000">A_CO_DB\_create_read</text>
<text text-anchor="middle" x="613.9609" y="-160.5" font-family="Helvetica,sans-Serif" font-size="10.00" fill="#000000">_security_predicate</text>
</a>
</g>
</g>
<!-- Node3&#45;&gt;Node4 -->
<g id="edge2" class="edge">
<title>Node3&#45;&gt;Node4</title>
<path fill="none" stroke="#191970" d="M503.6507,-154.3924C516.1296,-155.9883 529.1615,-157.655 541.7149,-159.2604"/>
<polygon fill="#191970" stroke="#191970" points="541.297,-162.7354 551.6603,-160.5324 542.1851,-155.792 541.297,-162.7354"/>
</g>
<!-- Node5 -->
<g id="node4" class="node">
<title>Node5</title>
<g id="a_node4"><a xlink:href="a00307.html#ad4bc3d416f085818935b32a814313202" target="_top" xlink:title="A_CO_DB\\_create_write\l_security_predicate">
<polygon fill="#ffffff" stroke="#000000" points="551.2148,-107.5 551.2148,-135.5 676.707,-135.5 676.707,-107.5 551.2148,-107.5"/>
<text text-anchor="start" x="559.2148" y="-123.5" font-family="Helvetica,sans-Serif" font-size="10.00" fill="#000000">A_CO_DB\_create_write</text>
<text text-anchor="middle" x="613.9609" y="-113.5" font-family="Helvetica,sans-Serif" font-size="10.00" fill="#000000">_security_predicate</text>
</a>
</g>
</g>
<!-- Node3&#45;&gt;Node5 -->
<g id="edge3" class="edge">
<title>Node3&#45;&gt;Node5</title>
<path fill="none" stroke="#191970" d="M503.6507,-136.221C515.8516,-134.5928 528.5811,-132.894 540.8753,-131.2533"/>
<polygon fill="#191970" stroke="#191970" points="541.6296,-134.6838 551.0788,-129.8917 540.7036,-127.7453 541.6296,-134.6838"/>
</g>
<!-- Node6&#45;&gt;Node3 -->
<g id="edge5" class="edge">
<title>Node6&#45;&gt;Node3</title>
<path fill="none" stroke="#191970" d="M305.6067,-116.5203C323.6634,-120.5921 343.5335,-125.0728 362.1386,-129.2683"/>
<polygon fill="#191970" stroke="#191970" points="361.5046,-132.7132 372.0296,-131.4987 363.0445,-125.8846 361.5046,-132.7132"/>
</g>
<!-- Node8 -->
<g id="node7" class="node">
<title>Node8</title>
<g id="a_node7"><a xlink:href="a00315.html#a884b5749acdbc87467741bc6610794e4" target="_top" xlink:title="CO_Main_Data_DB\\_parse\l_integer_parameter">
<polygon fill="#ffffff" stroke="#000000" points="365.2549,-84.5 365.2549,-112.5 502.9834,-112.5 502.9834,-84.5 365.2549,-84.5"/>
<text text-anchor="start" x="373.2549" y="-100.5" font-family="Helvetica,sans-Serif" font-size="10.00" fill="#000000">CO_Main_Data_DB\_parse</text>
<text text-anchor="middle" x="434.1191" y="-90.5" font-family="Helvetica,sans-Serif" font-size="10.00" fill="#000000">_integer_parameter</text>
</a>
</g>
</g>
<!-- Node7&#45;&gt;Node8 -->
<g id="edge7" class="edge">
<title>Node7&#45;&gt;Node8</title>
<path fill="none" stroke="#191970" d="M302.9827,-67.5532C322.6098,-72.185 344.6042,-77.3754 364.8897,-82.1626"/>
<polygon fill="#191970" stroke="#191970" points="364.1564,-85.5856 374.693,-84.4761 365.7642,-78.7727 364.1564,-85.5856"/>
</g>
<!-- Node9 -->
<g id="node8" class="node">
<title>Node9</title>
<g id="a_node8"><a xlink:href="a00315.html#a46a9af2d7f6fc1388608022c6b84662e" target="_top" xlink:title="CO_Main_Data_DB\\_parse\l_string_parameter">
<polygon fill="#ffffff" stroke="#000000" points="365.2549,-37.5 365.2549,-65.5 502.9834,-65.5 502.9834,-37.5 365.2549,-37.5"/>
<text text-anchor="start" x="373.2549" y="-53.5" font-family="Helvetica,sans-Serif" font-size="10.00" fill="#000000">CO_Main_Data_DB\_parse</text>
<text text-anchor="middle" x="434.1191" y="-43.5" font-family="Helvetica,sans-Serif" font-size="10.00" fill="#000000">_string_parameter</text>
</a>
</g>
</g>
<!-- Node7&#45;&gt;Node9 -->
<g id="edge8" class="edge">
<title>Node7&#45;&gt;Node9</title>
<path fill="none" stroke="#191970" d="M312.5444,-52.7751C326.3529,-52.6303 340.9575,-52.4771 355.071,-52.3291"/>
<polygon fill="#191970" stroke="#191970" points="355.28,-55.8272 365.2427,-52.2224 355.2065,-48.8276 355.28,-55.8272"/>
</g>
<!-- Node10 -->
<g id="node9" class="node">
<title>Node10</title>
<g id="a_node9"><a xlink:href="a00315.html#a49c326f37d274ac9f25171380c851164" target="_top" xlink:title="CO_Main_Data_DB\\_parse_tags">
<polygon fill="#ffffff" stroke="#000000" points="353.0234,-.5 353.0234,-18.5 515.2148,-18.5 515.2148,-.5 353.0234,-.5"/>
<text text-anchor="middle" x="434.1191" y="-6.5" font-family="Helvetica,sans-Serif" font-size="10.00" fill="#000000">CO_Main_Data_DB\_parse_tags</text>
</a>
</g>
</g>
<!-- Node7&#45;&gt;Node10 -->
<g id="edge9" class="edge">
<title>Node7&#45;&gt;Node10</title>
<path fill="none" stroke="#191970" d="M301.977,-39.4446C318.4745,-35.529 336.4426,-31.3068 353.0234,-27.5 362.7221,-25.2733 373.084,-22.9392 383.0469,-20.7175"/>
<polygon fill="#191970" stroke="#191970" points="383.8352,-24.1278 392.8376,-18.5414 382.3164,-17.2946 383.8352,-24.1278"/>
</g>
</g>
</svg>
