<?xml version="1.0" encoding="UTF-8" standalone="no"?>
<!DOCTYPE svg PUBLIC "-//W3C//DTD SVG 1.1//EN"
 "http://www.w3.org/Graphics/SVG/1.1/DTD/svg11.dtd">
<!-- Generated by graphviz version 2.40.1 (20161225.0304)
 -->
<!-- Title: CO_LL_Location\_km_per_degree Pages: 1 -->
<svg width="278pt" height="37pt"
 viewBox="0.00 0.00 277.78 37.00" xmlns="http://www.w3.org/2000/svg" xmlns:xlink="http://www.w3.org/1999/xlink">
<g id="graph0" class="graph" transform="scale(1 1) rotate(0) translate(4 33)">
<title>CO_LL_Location\_km_per_degree</title>
<polygon fill="#ffffff" stroke="transparent" points="-4,4 -4,-33 273.7773,-33 273.7773,4 -4,4"/>
<!-- Node8 -->
<g id="node1" class="node">
<title>Node8</title>
<polygon fill="#bfbfbf" stroke="#000000" points="0,-.5 0,-28.5 112.7236,-28.5 112.7236,-.5 0,-.5"/>
<text text-anchor="start" x="8" y="-16.5" font-family="Helvetica,sans-Serif" font-size="10.00" fill="#000000">CO_LL_Location\_km</text>
<text text-anchor="middle" x="56.3618" y="-6.5" font-family="Helvetica,sans-Serif" font-size="10.00" fill="#000000">_per_degree</text>
</g>
<!-- Node9 -->
<g id="node2" class="node">
<title>Node9</title>
<g id="a_node2"><a xlink:href="a00315.html#ae11526b802f2277322e001bc2d45094b" target="_top" xlink:title="Uses the Vincenty calculation to determine the distance (in Kilometers) between the two given lat/lon...">
<polygon fill="#ffffff" stroke="#000000" points="148.7236,-.5 148.7236,-28.5 269.7773,-28.5 269.7773,-.5 148.7236,-.5"/>
<text text-anchor="start" x="156.7236" y="-16.5" font-family="Helvetica,sans-Serif" font-size="10.00" fill="#000000">CO_Main_Data_DB\get</text>
<text text-anchor="middle" x="209.2505" y="-6.5" font-family="Helvetica,sans-Serif" font-size="10.00" fill="#000000">_accurate_distance</text>
</a>
</g>
</g>
<!-- Node8&#45;&gt;Node9 -->
<g id="edge1" class="edge">
<title>Node8&#45;&gt;Node9</title>
<path fill="none" stroke="#191970" d="M112.8575,-14.5C121.2336,-14.5 129.9532,-14.5 138.5744,-14.5"/>
<polygon fill="#191970" stroke="#191970" points="138.6233,-18.0001 148.6233,-14.5 138.6232,-11.0001 138.6233,-18.0001"/>
</g>
</g>
</svg>
