<?xml version="1.0" encoding="UTF-8" standalone="no"?>
<!DOCTYPE svg PUBLIC "-//W3C//DTD SVG 1.1//EN"
 "http://www.w3.org/Graphics/SVG/1.1/DTD/svg11.dtd">
<!-- Generated by graphviz version 2.40.1 (20161225.0304)
 -->
<!-- Title: A_CO_DB_Table_Base\update_db Pages: 1 -->
<!--zoomable 598 -->
<svg id="main" version="1.1" xmlns="http://www.w3.org/2000/svg" xmlns:xlink="http://www.w3.org/1999/xlink" xml:space="preserve" onload="init(evt)">
<style type="text/css"><![CDATA[
.edge:hover path { stroke: red; }
.edge:hover polygon { stroke: red; fill: red; }
]]></style>
<script type="text/javascript"><![CDATA[
var edges = document.getElementsByTagName('g');
if (edges && edges.length) {
  for (var i=0;i<edges.length;i++) {
    if (edges[i].id.substr(0,4)=='edge') {
      edges[i].setAttribute('class','edge');
    }
  }
}
]]></script>
        <defs>
                <circle id="rim" cx="0" cy="0" r="7"/>
                <circle id="rim2" cx="0" cy="0" r="3.5"/>
                <g id="zoomPlus">
                        <use xlink:href="#rim" fill="#404040">
                                <set attributeName="fill" to="#808080" begin="zoomplus.mouseover" end="zoomplus.mouseout"/>
                        </use>
                        <path d="M-4,0h8M0,-4v8" fill="none" stroke="white" stroke-width="1.5" pointer-events="none"/>
                </g>
                <g id="zoomMin">
                        <use xlink:href="#rim" fill="#404040">
                                <set attributeName="fill" to="#808080" begin="zoomminus.mouseover" end="zoomminus.mouseout"/>
                        </use>
                        <path d="M-4,0h8" fill="none" stroke="white" stroke-width="1.5" pointer-events="none"/>
                </g>
                <g id="dirArrow">
                        <path fill="none" stroke="white" stroke-width="1.5" d="M0,-3.0v7 M-2.5,-0.5L0,-3.0L2.5,-0.5"/>
                </g>
               <g id="resetDef">
                       <use xlink:href="#rim2" fill="#404040">
                               <set attributeName="fill" to="#808080" begin="reset.mouseover" end="reset.mouseout"/>
                       </use>
               </g>
        </defs>

<script type="text/javascript">
var viewWidth = 508;
var viewHeight = 598;
var sectionId = 'dynsection-23';
</script>
<script xlink:href="svgpan.js"/>
<svg id="graph" class="graph">
<g id="viewport">
<title>A_CO_DB_Table_Base\update_db</title>
<polygon fill="#ffffff" stroke="transparent" points="-4,4 -4,-594 504.1953,-594 504.1953,4 -4,4"/>
<!-- Node1 -->
<g id="node1" class="node">
<title>Node1</title>
<g id="a_node1"><a xlink:title=" ">
<polygon fill="#bfbfbf" stroke="#000000" points="379.6885,-285.5 379.6885,-313.5 500.1953,-313.5 500.1953,-285.5 379.6885,-285.5"/>
<text text-anchor="start" x="387.6885" y="-301.5" font-family="Helvetica,sans-Serif" font-size="10.00" fill="#000000">A_CO_DB_Table_Base</text>
<text text-anchor="middle" x="439.9419" y="-291.5" font-family="Helvetica,sans-Serif" font-size="10.00" fill="#000000">\update_db</text>
</a>
</g>
</g>
<!-- Node2 -->
<g id="node2" class="node">
<title>Node2</title>
<g id="a_node2"><a xlink:href="a00331.html#a4a3ed38130b49569d494ec7c262ca32d" target="_top" xlink:title=" ">
<polygon fill="#ffffff" stroke="#000000" points="198.1743,-571.5 198.1743,-589.5 333.1343,-589.5 333.1343,-571.5 198.1743,-571.5"/>
<text text-anchor="middle" x="265.6543" y="-577.5" font-family="Helvetica,sans-Serif" font-size="10.00" fill="#000000">CO_Security_Node\add_id</text>
</a>
</g>
</g>
<!-- Node1&#45;&gt;Node2 -->
<g id="edge1" class="edge">
<title>Node1&#45;&gt;Node2</title>
<path fill="none" stroke="#191970" d="M438.4976,-323.7635C434.0385,-375.8177 415.9953,-498.6549 343.6885,-562.5 339.6239,-566.0889 334.9866,-569.0021 330.0456,-571.3622"/>
<polygon fill="#191970" stroke="#191970" points="441.9886,-324.0136 439.2576,-313.7768 435.0088,-323.4824 441.9886,-324.0136"/>
</g>
<!-- Node3 -->
<g id="node3" class="node">
<title>Node3</title>
<g id="a_node3"><a xlink:href="a00343.html#a59e2e5be376349924698305603bfb51f" target="_top" xlink:title=" ">
<polygon fill="#ffffff" stroke="#000000" points="202.0708,-524.5 202.0708,-552.5 329.2378,-552.5 329.2378,-524.5 202.0708,-524.5"/>
<text text-anchor="start" x="210.0708" y="-540.5" font-family="Helvetica,sans-Serif" font-size="10.00" fill="#000000">CO_Security_Login\clear</text>
<text text-anchor="middle" x="265.6543" y="-530.5" font-family="Helvetica,sans-Serif" font-size="10.00" fill="#000000">_api_key</text>
</a>
</g>
</g>
<!-- Node1&#45;&gt;Node3 -->
<g id="edge2" class="edge">
<title>Node1&#45;&gt;Node3</title>
<path fill="none" stroke="#191970" d="M436.0433,-323.4058C427.5246,-367.8828 403.0442,-463.5344 343.6885,-515.5 339.4378,-519.2214 334.6104,-522.3414 329.4901,-524.9571"/>
<polygon fill="#191970" stroke="#191970" points="439.499,-323.9644 437.8355,-313.5009 432.6108,-322.7179 439.499,-323.9644"/>
</g>
<!-- Node4 -->
<g id="node4" class="node">
<title>Node4</title>
<g id="a_node4"><a xlink:href="a00311.html#ab976e4ab55890095fc60406326b5de80" target="_top" xlink:title=" ">
<polygon fill="#ffffff" stroke="#000000" points="205.4009,-477.5 205.4009,-505.5 325.9077,-505.5 325.9077,-477.5 205.4009,-477.5"/>
<text text-anchor="start" x="213.4009" y="-493.5" font-family="Helvetica,sans-Serif" font-size="10.00" fill="#000000">A_CO_DB_Table_Base</text>
<text text-anchor="middle" x="265.6543" y="-483.5" font-family="Helvetica,sans-Serif" font-size="10.00" fill="#000000">\clear_batch_mode</text>
</a>
</g>
</g>
<!-- Node1&#45;&gt;Node4 -->
<g id="edge3" class="edge">
<title>Node1&#45;&gt;Node4</title>
<path fill="none" stroke="#191970" d="M432.7298,-323.5657C420.4811,-360.3062 392.1116,-430.1486 343.6885,-468.5 338.374,-472.7091 332.309,-476.1484 325.9619,-478.9586"/>
<polygon fill="#191970" stroke="#191970" points="436.1678,-324.3065 435.8896,-313.7153 429.5023,-322.1683 436.1678,-324.3065"/>
</g>
<!-- Node5 -->
<g id="node5" class="node">
<title>Node5</title>
<g id="a_node5"><a xlink:href="a00331.html#a241314e7be52a7ca6487e41f34bb78fd" target="_top" xlink:title=" ">
<polygon fill="#ffffff" stroke="#000000" points="197.3467,-440.5 197.3467,-458.5 333.9619,-458.5 333.9619,-440.5 197.3467,-440.5"/>
<text text-anchor="middle" x="265.6543" y="-446.5" font-family="Helvetica,sans-Serif" font-size="10.00" fill="#000000">CO_Security_Node\set_ids</text>
</a>
</g>
</g>
<!-- Node1&#45;&gt;Node5 -->
<g id="edge4" class="edge">
<title>Node1&#45;&gt;Node5</title>
<path fill="none" stroke="#191970" d="M429.392,-322.9283C414.6365,-352.9203 384.9375,-404.2548 343.6885,-431.5 338.1199,-435.1781 331.8962,-438.1097 325.4587,-440.4454"/>
<polygon fill="#191970" stroke="#191970" points="432.6754,-324.174 433.8182,-313.6409 426.3564,-321.1623 432.6754,-324.174"/>
</g>
<!-- Node7 -->
<g id="node7" class="node">
<title>Node7</title>
<g id="a_node7"><a xlink:href="a00311.html#a1ed093545fa1cbc3f63a672cdf424734" target="_top" xlink:title=" ">
<polygon fill="#ffffff" stroke="#000000" points="205.4009,-393.5 205.4009,-421.5 325.9077,-421.5 325.9077,-393.5 205.4009,-393.5"/>
<text text-anchor="start" x="213.4009" y="-409.5" font-family="Helvetica,sans-Serif" font-size="10.00" fill="#000000">A_CO_DB_Table_Base</text>
<text text-anchor="middle" x="265.6543" y="-399.5" font-family="Helvetica,sans-Serif" font-size="10.00" fill="#000000">\set_lang</text>
</a>
</g>
</g>
<!-- Node1&#45;&gt;Node7 -->
<g id="edge6" class="edge">
<title>Node1&#45;&gt;Node7</title>
<path fill="none" stroke="#191970" d="M420.8292,-321.0615C402.7204,-340.2591 373.8694,-367.8153 343.6885,-384.5 337.5081,-387.9167 330.7652,-390.8761 323.9152,-393.4265"/>
<polygon fill="#191970" stroke="#191970" points="423.4599,-323.3718 427.6778,-313.6528 418.3196,-318.6202 423.4599,-323.3718"/>
</g>
<!-- Node8 -->
<g id="node8" class="node">
<title>Node8</title>
<g id="a_node8"><a xlink:href="a00343.html#a061f896c69dc8a8dd3d9ee793b91ddc7" target="_top" xlink:title=" ">
<polygon fill="#ffffff" stroke="#000000" points="194.0044,-356.5 194.0044,-374.5 337.3042,-374.5 337.3042,-356.5 194.0044,-356.5"/>
<text text-anchor="middle" x="265.6543" y="-362.5" font-family="Helvetica,sans-Serif" font-size="10.00" fill="#000000">CO_Security_Login\set_lang</text>
</a>
</g>
</g>
<!-- Node1&#45;&gt;Node8 -->
<g id="edge7" class="edge">
<title>Node1&#45;&gt;Node8</title>
<path fill="none" stroke="#191970" d="M406.7117,-318.5088C388.5492,-328.2677 365.3897,-339.7098 343.6885,-347.5 334.005,-350.9761 323.3995,-353.9466 313.2141,-356.4134"/>
<polygon fill="#191970" stroke="#191970" points="408.6222,-321.4533 415.7198,-313.5872 405.266,-315.3104 408.6222,-321.4533"/>
</g>
<!-- Node9 -->
<g id="node9" class="node">
<title>Node9</title>
<g id="a_node9"><a xlink:href="a00311.html#a92a9b9a122e9471b82dd79432bf3c929" target="_top" xlink:title=" ">
<polygon fill="#ffffff" stroke="#000000" points="205.4009,-309.5 205.4009,-337.5 325.9077,-337.5 325.9077,-309.5 205.4009,-309.5"/>
<text text-anchor="start" x="213.4009" y="-325.5" font-family="Helvetica,sans-Serif" font-size="10.00" fill="#000000">A_CO_DB_Table_Base</text>
<text text-anchor="middle" x="265.6543" y="-315.5" font-family="Helvetica,sans-Serif" font-size="10.00" fill="#000000">\set_name</text>
</a>
</g>
</g>
<!-- Node1&#45;&gt;Node9 -->
<g id="edge8" class="edge">
<title>Node1&#45;&gt;Node9</title>
<path fill="none" stroke="#191970" d="M369.1802,-309.2441C354.8634,-311.2156 339.9346,-313.2713 326.0156,-315.188"/>
<polygon fill="#191970" stroke="#191970" points="370.0447,-312.6582 379.4737,-307.8267 369.0897,-305.7236 370.0447,-312.6582"/>
</g>
<!-- Node10 -->
<g id="node10" class="node">
<title>Node10</title>
<g id="a_node10"><a xlink:href="a00319.html#a6349c04b5a027e23f0b8bd8810579844" target="_top" xlink:title=" ">
<polygon fill="#ffffff" stroke="#000000" points="199.8516,-262.5 199.8516,-290.5 331.457,-290.5 331.457,-262.5 199.8516,-262.5"/>
<text text-anchor="start" x="207.8516" y="-278.5" font-family="Helvetica,sans-Serif" font-size="10.00" fill="#000000">CO_Main_DB_Record\set</text>
<text text-anchor="middle" x="265.6543" y="-268.5" font-family="Helvetica,sans-Serif" font-size="10.00" fill="#000000">_owner_id</text>
</a>
</g>
</g>
<!-- Node1&#45;&gt;Node10 -->
<g id="edge9" class="edge">
<title>Node1&#45;&gt;Node10</title>
<path fill="none" stroke="#191970" d="M369.1897,-290.1631C356.7906,-288.5269 343.9323,-286.83 331.6682,-285.2116"/>
<polygon fill="#191970" stroke="#191970" points="369.1017,-293.6818 379.4737,-291.5203 370.0176,-286.7419 369.1017,-293.6818"/>
</g>
<!-- Node11 -->
<g id="node11" class="node">
<title>Node11</title>
<g id="a_node11"><a xlink:href="a00343.html#ac4f0c16cb8cf1e2151451bf4d5cb2238" target="_top" xlink:title=" ">
<polygon fill="#ffffff" stroke="#000000" points="199.0166,-215.5 199.0166,-243.5 332.292,-243.5 332.292,-215.5 199.0166,-215.5"/>
<text text-anchor="start" x="207.0166" y="-231.5" font-family="Helvetica,sans-Serif" font-size="10.00" fill="#000000">CO_Security_Login\set</text>
<text text-anchor="middle" x="265.6543" y="-221.5" font-family="Helvetica,sans-Serif" font-size="10.00" fill="#000000">_password_from_cleartext</text>
</a>
</g>
</g>
<!-- Node1&#45;&gt;Node11 -->
<g id="edge10" class="edge">
<title>Node1&#45;&gt;Node11</title>
<path fill="none" stroke="#191970" d="M404.1017,-280.8199C386.2257,-271.9045 364.1109,-261.4704 343.6885,-253.5 334.5778,-249.9443 324.7094,-246.5618 315.1535,-243.5175"/>
<polygon fill="#191970" stroke="#191970" points="402.5269,-283.9456 413.0319,-285.3227 405.6785,-277.6952 402.5269,-283.9456"/>
</g>
<!-- Node12 -->
<g id="node12" class="node">
<title>Node12</title>
<g id="a_node12"><a xlink:href="a00319.html#a7860101403a734329dd8c1079f5d367e" target="_top" xlink:title=" ">
<polygon fill="#ffffff" stroke="#000000" points="199.8516,-168.5 199.8516,-196.5 331.457,-196.5 331.457,-168.5 199.8516,-168.5"/>
<text text-anchor="start" x="207.8516" y="-184.5" font-family="Helvetica,sans-Serif" font-size="10.00" fill="#000000">CO_Main_DB_Record\set</text>
<text text-anchor="middle" x="265.6543" y="-174.5" font-family="Helvetica,sans-Serif" font-size="10.00" fill="#000000">_payload</text>
</a>
</g>
</g>
<!-- Node1&#45;&gt;Node12 -->
<g id="edge11" class="edge">
<title>Node1&#45;&gt;Node12</title>
<path fill="none" stroke="#191970" d="M422.6288,-277.6148C404.8945,-256.572 375.4853,-225.2712 343.6885,-206.5 337.2195,-202.681 330.0844,-199.4147 322.8362,-196.6358"/>
<polygon fill="#191970" stroke="#191970" points="419.988,-279.9137 429.0522,-285.3991 425.3872,-275.4584 419.988,-279.9137"/>
</g>
<!-- Node13 -->
<g id="node13" class="node">
<title>Node13</title>
<g id="a_node13"><a xlink:href="a00311.html#a3d4d1ab7910b9ccfdf8654d767e01d9b" target="_top" xlink:title=" ">
<polygon fill="#ffffff" stroke="#000000" points="205.4009,-121.5 205.4009,-149.5 325.9077,-149.5 325.9077,-121.5 205.4009,-121.5"/>
<text text-anchor="start" x="213.4009" y="-137.5" font-family="Helvetica,sans-Serif" font-size="10.00" fill="#000000">A_CO_DB_Table_Base</text>
<text text-anchor="middle" x="265.6543" y="-127.5" font-family="Helvetica,sans-Serif" font-size="10.00" fill="#000000">\set_read_security_id</text>
</a>
</g>
</g>
<!-- Node1&#45;&gt;Node13 -->
<g id="edge12" class="edge">
<title>Node1&#45;&gt;Node13</title>
<path fill="none" stroke="#191970" d="M429.8651,-276.0088C415.3197,-244.8502 385.5199,-190.2205 343.6885,-159.5 338.3191,-155.5568 332.2911,-152.2526 326.0272,-149.4855"/>
<polygon fill="#191970" stroke="#191970" points="426.7327,-277.5761 434.0476,-285.2405 433.1088,-274.6873 426.7327,-277.5761"/>
</g>
<!-- Node14 -->
<g id="node14" class="node">
<title>Node14</title>
<g id="a_node14"><a xlink:href="a00319.html#a1f9581fbd4aa2611da866405d446295c" target="_top" xlink:title=" ">
<polygon fill="#ffffff" stroke="#000000" points="190.1201,-84.5 190.1201,-102.5 341.1885,-102.5 341.1885,-84.5 190.1201,-84.5"/>
<text text-anchor="middle" x="265.6543" y="-90.5" font-family="Helvetica,sans-Serif" font-size="10.00" fill="#000000">CO_Main_DB_Record\set_tag</text>
</a>
</g>
</g>
<!-- Node1&#45;&gt;Node14 -->
<g id="edge13" class="edge">
<title>Node1&#45;&gt;Node14</title>
<path fill="none" stroke="#191970" d="M434.5451,-275.7414C424.1696,-235.6774 397.5371,-154.9115 343.6885,-112.5 338.4306,-108.3589 332.4011,-105.1027 326.074,-102.5452"/>
<polygon fill="#191970" stroke="#191970" points="431.1476,-276.5825 436.945,-285.4505 437.9431,-274.9028 431.1476,-276.5825"/>
</g>
<!-- Node15 -->
<g id="node15" class="node">
<title>Node15</title>
<g id="a_node15"><a xlink:href="a00319.html#a84074211704eba98c263bd7122cd13f7" target="_top" xlink:title=" ">
<polygon fill="#ffffff" stroke="#000000" points="187.6201,-47.5 187.6201,-65.5 343.6885,-65.5 343.6885,-47.5 187.6201,-47.5"/>
<text text-anchor="middle" x="265.6543" y="-53.5" font-family="Helvetica,sans-Serif" font-size="10.00" fill="#000000">CO_Main_DB_Record\set_tags</text>
</a>
</g>
</g>
<!-- Node1&#45;&gt;Node15 -->
<g id="edge14" class="edge">
<title>Node1&#45;&gt;Node15</title>
<path fill="none" stroke="#191970" d="M436.714,-275.4126C429.2161,-229.2855 406.2277,-128.3787 343.6885,-75.5 338.7906,-71.3587 333.1334,-68.0923 327.1479,-65.5199"/>
<polygon fill="#191970" stroke="#191970" points="433.2685,-276.0365 438.231,-285.3973 440.1891,-274.985 433.2685,-276.0365"/>
</g>
<!-- Node17 -->
<g id="node17" class="node">
<title>Node17</title>
<g id="a_node17"><a xlink:href="a00311.html#a55eae92ef3e2f47689019e174f29daf1" target="_top" xlink:title=" ">
<polygon fill="#ffffff" stroke="#000000" points="205.4009,-.5 205.4009,-28.5 325.9077,-28.5 325.9077,-.5 205.4009,-.5"/>
<text text-anchor="start" x="213.4009" y="-16.5" font-family="Helvetica,sans-Serif" font-size="10.00" fill="#000000">A_CO_DB_Table_Base</text>
<text text-anchor="middle" x="265.6543" y="-6.5" font-family="Helvetica,sans-Serif" font-size="10.00" fill="#000000">\set_write_security_id</text>
</a>
</g>
</g>
<!-- Node1&#45;&gt;Node17 -->
<g id="edge16" class="edge">
<title>Node1&#45;&gt;Node17</title>
<path fill="none" stroke="#191970" d="M438.0131,-275.1192C432.6391,-223.8205 412.9648,-104.0713 343.6885,-38.5 338.5415,-33.6283 332.4283,-29.7441 325.9227,-26.6475"/>
<polygon fill="#191970" stroke="#191970" points="434.5462,-275.6344 438.979,-285.2573 441.5147,-274.9704 434.5462,-275.6344"/>
</g>
<!-- Node6 -->
<g id="node6" class="node">
<title>Node6</title>
<g id="a_node6"><a xlink:href="a00331.html#af852d696981829b18e29fb07918d8630" target="_top" xlink:title=" ">
<polygon fill="#ffffff" stroke="#000000" points="0,-440.5 0,-458.5 151.6201,-458.5 151.6201,-440.5 0,-440.5"/>
<text text-anchor="middle" x="75.8101" y="-446.5" font-family="Helvetica,sans-Serif" font-size="10.00" fill="#000000">CO_Security_Node\remove_id</text>
</a>
</g>
</g>
<!-- Node5&#45;&gt;Node6 -->
<g id="edge5" class="edge">
<title>Node5&#45;&gt;Node6</title>
<path fill="none" stroke="#191970" d="M186.9581,-449.5C175.2788,-449.5 163.2619,-449.5 151.6429,-449.5"/>
<polygon fill="#191970" stroke="#191970" points="187.1162,-453.0001 197.1162,-449.5 187.1161,-446.0001 187.1162,-453.0001"/>
</g>
<!-- Node16 -->
<g id="node16" class="node">
<title>Node16</title>
<g id="a_node16"><a xlink:href="a00263.html#a887a876b0603db0289a8bdc7ab4e66b2" target="_top" xlink:title=" ">
<polygon fill="#ffffff" stroke="#000000" points="11.9507,-42.5 11.9507,-70.5 139.6694,-70.5 139.6694,-42.5 11.9507,-42.5"/>
<text text-anchor="start" x="19.9507" y="-58.5" font-family="Helvetica,sans-Serif" font-size="10.00" fill="#000000">CO_Place\set_tags_from</text>
<text text-anchor="middle" x="75.8101" y="-48.5" font-family="Helvetica,sans-Serif" font-size="10.00" fill="#000000">_address_elements</text>
</a>
</g>
</g>
<!-- Node15&#45;&gt;Node16 -->
<g id="edge15" class="edge">
<title>Node15&#45;&gt;Node16</title>
<path fill="none" stroke="#191970" d="M177.5151,-56.5C164.8559,-56.5 152.0349,-56.5 139.9591,-56.5"/>
<polygon fill="#191970" stroke="#191970" points="177.6156,-60.0001 187.6155,-56.5 177.6155,-53.0001 177.6156,-60.0001"/>
</g>
</g>
</svg>
        <g id="navigator" transform="translate(0 0)" fill="#404254">
                <rect fill="#f2f5e9" fill-opacity="0.5" stroke="#606060" stroke-width=".5" x="0" y="0" width="60" height="60"/>
                <use id="zoomplus" xlink:href="#zoomPlus" x="17" y="9" onmousedown="handleZoom(evt,'in')"/>
                <use id="zoomminus" xlink:href="#zoomMin" x="42" y="9" onmousedown="handleZoom(evt,'out')"/>
                <use id="reset" xlink:href="#resetDef" x="30" y="36" onmousedown="handleReset()"/>
                <g id="arrowUp" xlink:href="#dirArrow" transform="translate(30 24)" onmousedown="handlePan(0,-1)">
                  <use xlink:href="#rim" fill="#404040">
                        <set attributeName="fill" to="#808080" begin="arrowUp.mouseover" end="arrowUp.mouseout"/>
                  </use>
                  <path fill="none" stroke="white" stroke-width="1.5" d="M0,-3.0v7 M-2.5,-0.5L0,-3.0L2.5,-0.5"/>
                </g>
                <g id="arrowRight" xlink:href="#dirArrow" transform="rotate(90) translate(36 -43)" onmousedown="handlePan(1,0)">
                  <use xlink:href="#rim" fill="#404040">
                        <set attributeName="fill" to="#808080" begin="arrowRight.mouseover" end="arrowRight.mouseout"/>
                  </use>
                  <path fill="none" stroke="white" stroke-width="1.5" d="M0,-3.0v7 M-2.5,-0.5L0,-3.0L2.5,-0.5"/>
                </g>
                <g id="arrowDown" xlink:href="#dirArrow" transform="rotate(180) translate(-30 -48)" onmousedown="handlePan(0,1)">
                  <use xlink:href="#rim" fill="#404040">
                        <set attributeName="fill" to="#808080" begin="arrowDown.mouseover" end="arrowDown.mouseout"/>
                  </use>
                  <path fill="none" stroke="white" stroke-width="1.5" d="M0,-3.0v7 M-2.5,-0.5L0,-3.0L2.5,-0.5"/>
                </g>
                <g id="arrowLeft" xlink:href="#dirArrow" transform="rotate(270) translate(-36 17)" onmousedown="handlePan(-1,0)">
                  <use xlink:href="#rim" fill="#404040">
                        <set attributeName="fill" to="#808080" begin="arrowLeft.mouseover" end="arrowLeft.mouseout"/>
                  </use>
                  <path fill="none" stroke="white" stroke-width="1.5" d="M0,-3.0v7 M-2.5,-0.5L0,-3.0L2.5,-0.5"/>
                </g>
        </g>
        <svg viewBox="0 0 15 15" width="100%" height="30px" preserveAspectRatio="xMaxYMin meet">
         <g id="arrow_out" transform="scale(0.3 0.3)">
          <a xlink:href="a00311_a7487697640051c6661b8cdca6f109959_icgraph_org.svg" target="_base">
           <rect id="button" ry="5" rx="5" y="6" x="6" height="38" width="38"
                fill="#f2f5e9" fill-opacity="0.5" stroke="#606060" stroke-width="1.0"/>
           <path id="arrow"
             d="M 11.500037,31.436501 C 11.940474,20.09759 22.043105,11.32322 32.158766,21.979434 L 37.068811,17.246167 C 37.068811,17.246167 37.088388,32 37.088388,32 L 22.160133,31.978069 C 22.160133,31.978069 26.997745,27.140456 26.997745,27.140456 C 18.528582,18.264221 13.291696,25.230495 11.500037,31.436501 z"
             style="fill:#404040;"/>
          </a>
         </g>
        </svg>
</svg>
