<?xml version="1.0" encoding="UTF-8" standalone="no"?>
<!DOCTYPE svg PUBLIC "-//W3C//DTD SVG 1.1//EN"
 "http://www.w3.org/Graphics/SVG/1.1/DTD/svg11.dtd">
<!-- Generated by graphviz version 2.40.1 (20161225.0304)
 -->
<!-- Title: A_CO_DB_Table_Base\set_name Pages: 1 -->
<svg width="770pt" height="121pt"
 viewBox="0.00 0.00 769.54 121.00" xmlns="http://www.w3.org/2000/svg" xmlns:xlink="http://www.w3.org/1999/xlink">
<g id="graph0" class="graph" transform="scale(1 1) rotate(0) translate(4 117)">
<title>A_CO_DB_Table_Base\set_name</title>
<polygon fill="#ffffff" stroke="transparent" points="-4,4 -4,-117 765.5391,-117 765.5391,4 -4,4"/>
<!-- Node208 -->
<g id="node1" class="node">
<title>Node208</title>
<polygon fill="#bfbfbf" stroke="#000000" points="0,-60.5 0,-88.5 120.5068,-88.5 120.5068,-60.5 0,-60.5"/>
<text text-anchor="start" x="8" y="-76.5" font-family="Helvetica,sans-Serif" font-size="10.00" fill="#000000">A_CO_DB_Table_Base</text>
<text text-anchor="middle" x="60.2534" y="-66.5" font-family="Helvetica,sans-Serif" font-size="10.00" fill="#000000">\set_name</text>
</g>
<!-- Node209 -->
<g id="node2" class="node">
<title>Node209</title>
<g id="a_node2"><a xlink:href="a00311.html#a7487697640051c6661b8cdca6f109959" target="_top" xlink:title="A_CO_DB_Table_Base\l\\update_db">
<polygon fill="#ffffff" stroke="#000000" points="156.5068,-60.5 156.5068,-88.5 277.0137,-88.5 277.0137,-60.5 156.5068,-60.5"/>
<text text-anchor="start" x="164.5068" y="-76.5" font-family="Helvetica,sans-Serif" font-size="10.00" fill="#000000">A_CO_DB_Table_Base</text>
<text text-anchor="middle" x="216.7603" y="-66.5" font-family="Helvetica,sans-Serif" font-size="10.00" fill="#000000">\update_db</text>
</a>
</g>
</g>
<!-- Node208&#45;&gt;Node209 -->
<g id="edge1" class="edge">
<title>Node208&#45;&gt;Node209</title>
<path fill="none" stroke="#191970" d="M120.763,-74.5C129.0799,-74.5 137.679,-74.5 146.1571,-74.5"/>
<polygon fill="#191970" stroke="#191970" points="146.4116,-78.0001 156.4115,-74.5 146.4115,-71.0001 146.4116,-78.0001"/>
</g>
<!-- Node210 -->
<g id="node3" class="node">
<title>Node210</title>
<g id="a_node3"><a xlink:href="a00311.html#a7d2537d7675ca572ad78096784fe4fe4" target="_top" xlink:title="A_CO_DB_Table_Base\l\\user_can_write">
<polygon fill="#ffffff" stroke="#000000" points="313.0137,-84.5 313.0137,-112.5 433.5205,-112.5 433.5205,-84.5 313.0137,-84.5"/>
<text text-anchor="start" x="321.0137" y="-100.5" font-family="Helvetica,sans-Serif" font-size="10.00" fill="#000000">A_CO_DB_Table_Base</text>
<text text-anchor="middle" x="373.2671" y="-90.5" font-family="Helvetica,sans-Serif" font-size="10.00" fill="#000000">\user_can_write</text>
</a>
</g>
</g>
<!-- Node209&#45;&gt;Node210 -->
<g id="edge2" class="edge">
<title>Node209&#45;&gt;Node210</title>
<path fill="none" stroke="#191970" d="M277.2699,-83.779C285.6781,-85.0684 294.3748,-86.402 302.9434,-87.716"/>
<polygon fill="#191970" stroke="#191970" points="302.5034,-91.1894 312.9184,-89.2457 303.5645,-84.2702 302.5034,-91.1894"/>
</g>
<!-- Node212 -->
<g id="node5" class="node">
<title>Node212</title>
<g id="a_node5"><a xlink:href="a00311.html#adda14b544e11934db3bf8130aeea0610" target="_top" xlink:title="A_CO_DB_Table_Base\l\\_write_to_db">
<polygon fill="#ffffff" stroke="#000000" points="313.0137,-37.5 313.0137,-65.5 433.5205,-65.5 433.5205,-37.5 313.0137,-37.5"/>
<text text-anchor="start" x="321.0137" y="-53.5" font-family="Helvetica,sans-Serif" font-size="10.00" fill="#000000">A_CO_DB_Table_Base</text>
<text text-anchor="middle" x="373.2671" y="-43.5" font-family="Helvetica,sans-Serif" font-size="10.00" fill="#000000">\_write_to_db</text>
</a>
</g>
</g>
<!-- Node209&#45;&gt;Node212 -->
<g id="edge4" class="edge">
<title>Node209&#45;&gt;Node212</title>
<path fill="none" stroke="#191970" d="M277.2699,-65.6076C285.6781,-64.3719 294.3748,-63.0939 302.9434,-61.8347"/>
<polygon fill="#191970" stroke="#191970" points="303.5336,-65.2856 312.9184,-60.3688 302.5157,-58.36 303.5336,-65.2856"/>
</g>
<!-- Node211 -->
<g id="node4" class="node">
<title>Node211</title>
<g id="a_node4"><a xlink:href="a00311.html#a8780b40e55827b90bb441671faec2a05" target="_top" xlink:title="A_CO_DB_Table_Base\l\\get_access_object">
<polygon fill="#ffffff" stroke="#000000" points="471.7422,-84.5 471.7422,-112.5 592.249,-112.5 592.249,-84.5 471.7422,-84.5"/>
<text text-anchor="start" x="479.7422" y="-100.5" font-family="Helvetica,sans-Serif" font-size="10.00" fill="#000000">A_CO_DB_Table_Base</text>
<text text-anchor="middle" x="531.9956" y="-90.5" font-family="Helvetica,sans-Serif" font-size="10.00" fill="#000000">\get_access_object</text>
</a>
</g>
</g>
<!-- Node210&#45;&gt;Node211 -->
<g id="edge3" class="edge">
<title>Node210&#45;&gt;Node211</title>
<path fill="none" stroke="#191970" d="M433.7283,-98.5C442.8645,-98.5 452.3555,-98.5 461.6778,-98.5"/>
<polygon fill="#191970" stroke="#191970" points="461.7025,-102.0001 471.7025,-98.5 461.7024,-95.0001 461.7025,-102.0001"/>
</g>
<!-- Node212&#45;&gt;Node211 -->
<g id="edge8" class="edge">
<title>Node212&#45;&gt;Node211</title>
<path fill="none" stroke="#191970" d="M420.8909,-65.6015C437.9187,-70.6435 457.2804,-76.3766 475.0175,-81.6286"/>
<polygon fill="#191970" stroke="#191970" points="474.0969,-85.0062 484.6791,-84.4894 476.0844,-78.2942 474.0969,-85.0062"/>
</g>
<!-- Node213 -->
<g id="node6" class="node">
<title>Node213</title>
<g id="a_node6"><a xlink:href="a00311.html#a6109c37c5e61ab04ea710b1ebb7615a5" target="_top" xlink:title="A_CO_DB_Table_Base\l\\_build_parameter_array">
<polygon fill="#ffffff" stroke="#000000" points="469.5205,-37.5 469.5205,-65.5 594.4707,-65.5 594.4707,-37.5 469.5205,-37.5"/>
<text text-anchor="start" x="477.5205" y="-53.5" font-family="Helvetica,sans-Serif" font-size="10.00" fill="#000000">A_CO_DB_Table_Base</text>
<text text-anchor="middle" x="531.9956" y="-43.5" font-family="Helvetica,sans-Serif" font-size="10.00" fill="#000000">\_build_parameter_array</text>
</a>
</g>
</g>
<!-- Node212&#45;&gt;Node213 -->
<g id="edge5" class="edge">
<title>Node212&#45;&gt;Node213</title>
<path fill="none" stroke="#191970" d="M433.7283,-51.5C442.0123,-51.5 450.5881,-51.5 459.0652,-51.5"/>
<polygon fill="#191970" stroke="#191970" points="459.3305,-55.0001 469.3304,-51.5 459.3304,-48.0001 459.3305,-55.0001"/>
</g>
<!-- Node215 -->
<g id="node8" class="node">
<title>Node215</title>
<g id="a_node8"><a xlink:href="a00311.html#a78affe18a811930d4012fd265e95cdca" target="_top" xlink:title="A_CO_DB_Table_Base\\id">
<polygon fill="#ffffff" stroke="#000000" points="630.4707,-.5 630.4707,-18.5 761.5391,-18.5 761.5391,-.5 630.4707,-.5"/>
<text text-anchor="middle" x="696.0049" y="-6.5" font-family="Helvetica,sans-Serif" font-size="10.00" fill="#000000">A_CO_DB_Table_Base\id</text>
</a>
</g>
</g>
<!-- Node212&#45;&gt;Node215 -->
<g id="edge9" class="edge">
<title>Node212&#45;&gt;Node215</title>
<path fill="none" stroke="#191970" d="M422.8991,-37.4636C437.785,-33.7053 454.223,-29.9975 469.5205,-27.5 519.36,-19.3631 575.9946,-14.8629 620.1626,-12.3971"/>
<polygon fill="#191970" stroke="#191970" points="620.4494,-15.8868 630.248,-11.8571 620.0751,-8.8968 620.4494,-15.8868"/>
</g>
<!-- Node214 -->
<g id="node7" class="node">
<title>Node214</title>
<g id="a_node7"><a xlink:href="a00311.html#afb32d1e32b8e1c1de2e008c9b88f7846" target="_top" xlink:title="A_CO_DB_Table_Base\l\\_badger_serialize">
<polygon fill="#ffffff" stroke="#000000" points="635.7515,-37.5 635.7515,-65.5 756.2583,-65.5 756.2583,-37.5 635.7515,-37.5"/>
<text text-anchor="start" x="643.7515" y="-53.5" font-family="Helvetica,sans-Serif" font-size="10.00" fill="#000000">A_CO_DB_Table_Base</text>
<text text-anchor="middle" x="696.0049" y="-43.5" font-family="Helvetica,sans-Serif" font-size="10.00" fill="#000000">\_badger_serialize</text>
</a>
</g>
</g>
<!-- Node213&#45;&gt;Node214 -->
<g id="edge6" class="edge">
<title>Node213&#45;&gt;Node214</title>
<path fill="none" stroke="#191970" d="M594.9368,-51.5C604.964,-51.5 615.3937,-51.5 625.5802,-51.5"/>
<polygon fill="#191970" stroke="#191970" points="625.6617,-55.0001 635.6617,-51.5 625.6616,-48.0001 625.6617,-55.0001"/>
</g>
<!-- Node213&#45;&gt;Node215 -->
<g id="edge7" class="edge">
<title>Node213&#45;&gt;Node215</title>
<path fill="none" stroke="#191970" d="M587.0646,-37.3978C607.6685,-32.1214 630.8245,-26.1916 650.4725,-21.1601"/>
<polygon fill="#191970" stroke="#191970" points="651.5761,-24.4905 660.3952,-18.619 649.8395,-17.7093 651.5761,-24.4905"/>
</g>
</g>
</svg>
