<?xml version="1.0" encoding="UTF-8" standalone="no"?>
<!DOCTYPE svg PUBLIC "-//W3C//DTD SVG 1.1//EN"
 "http://www.w3.org/Graphics/SVG/1.1/DTD/svg11.dtd">
<!-- Generated by graphviz version 2.40.1 (20161225.0304)
 -->
<!-- Title: CO_Access\security_db_available Pages: 1 -->
<svg width="452pt" height="262pt"
 viewBox="0.00 0.00 452.02 262.00" xmlns="http://www.w3.org/2000/svg" xmlns:xlink="http://www.w3.org/1999/xlink">
<g id="graph0" class="graph" transform="scale(1 1) rotate(0) translate(4 258)">
<title>CO_Access\security_db_available</title>
<polygon fill="#ffffff" stroke="transparent" points="-4,4 -4,-258 448.0186,-258 448.0186,4 -4,4"/>
<!-- Node148 -->
<g id="node1" class="node">
<title>Node148</title>
<polygon fill="#bfbfbf" stroke="#000000" points="0,-107.5 0,-135.5 106.0244,-135.5 106.0244,-107.5 0,-107.5"/>
<text text-anchor="start" x="8" y="-123.5" font-family="Helvetica,sans-Serif" font-size="10.00" fill="#000000">CO_Access\security</text>
<text text-anchor="middle" x="53.0122" y="-113.5" font-family="Helvetica,sans-Serif" font-size="10.00" fill="#000000">_db_available</text>
</g>
<!-- Node149 -->
<g id="node2" class="node">
<title>Node149</title>
<g id="a_node2"><a xlink:href="a00355.html#a78b40b6d7e4af9b87523b3ba8b272cee" target="_top" xlink:title="CO_Access\\check_login\l_exists">
<polygon fill="#ffffff" stroke="#000000" points="151.4751,-225.5 151.4751,-253.5 275.8589,-253.5 275.8589,-225.5 151.4751,-225.5"/>
<text text-anchor="start" x="159.4751" y="-241.5" font-family="Helvetica,sans-Serif" font-size="10.00" fill="#000000">CO_Access\check_login</text>
<text text-anchor="middle" x="213.667" y="-231.5" font-family="Helvetica,sans-Serif" font-size="10.00" fill="#000000">_exists</text>
</a>
</g>
</g>
<!-- Node148&#45;&gt;Node149 -->
<g id="edge1" class="edge">
<title>Node148&#45;&gt;Node149</title>
<path fill="none" stroke="#191970" d="M68.5627,-143.7703C84.6482,-165.2554 111.6434,-197.2708 142.0244,-216.5 147.433,-219.9233 153.3959,-222.8788 159.5027,-225.4201"/>
<polygon fill="#191970" stroke="#191970" points="71.2814,-141.5587 62.5549,-135.5505 65.63,-145.6893 71.2814,-141.5587"/>
</g>
<!-- Node151 -->
<g id="node4" class="node">
<title>Node151</title>
<g id="a_node4"><a xlink:href="a00355.html#a230fb285585783de4008259505a1618e" target="_top" xlink:title="CO_Access\\check_login\l_exists_by_login_string">
<polygon fill="#ffffff" stroke="#000000" points="151.4751,-178.5 151.4751,-206.5 275.8589,-206.5 275.8589,-178.5 151.4751,-178.5"/>
<text text-anchor="start" x="159.4751" y="-194.5" font-family="Helvetica,sans-Serif" font-size="10.00" fill="#000000">CO_Access\check_login</text>
<text text-anchor="middle" x="213.667" y="-184.5" font-family="Helvetica,sans-Serif" font-size="10.00" fill="#000000">_exists_by_login_string</text>
</a>
</g>
</g>
<!-- Node148&#45;&gt;Node151 -->
<g id="edge3" class="edge">
<title>Node148&#45;&gt;Node151</title>
<path fill="none" stroke="#191970" d="M85.0013,-140.6033C101.6432,-150.0612 122.5343,-161.1999 142.0244,-169.5 149.5962,-172.7245 157.7801,-175.7549 165.8162,-178.4914"/>
<polygon fill="#191970" stroke="#191970" points="86.6411,-137.5088 76.2288,-135.5506 83.1473,-143.5746 86.6411,-137.5088"/>
</g>
<!-- Node152 -->
<g id="node5" class="node">
<title>Node152</title>
<g id="a_node5"><a xlink:href="a00355.html#a2fbe1324f57f4424bc61c0338fbe589b" target="_top" xlink:title="CO_Access\\get_login\l_item_by_login_string">
<polygon fill="#ffffff" stroke="#000000" points="157.0269,-131.5 157.0269,-159.5 270.3071,-159.5 270.3071,-131.5 157.0269,-131.5"/>
<text text-anchor="start" x="165.0269" y="-147.5" font-family="Helvetica,sans-Serif" font-size="10.00" fill="#000000">CO_Access\get_login</text>
<text text-anchor="middle" x="213.667" y="-137.5" font-family="Helvetica,sans-Serif" font-size="10.00" fill="#000000">_item_by_login_string</text>
</a>
</g>
</g>
<!-- Node148&#45;&gt;Node152 -->
<g id="edge4" class="edge">
<title>Node148&#45;&gt;Node152</title>
<path fill="none" stroke="#191970" d="M116.1589,-130.9334C129.5679,-132.9366 143.6471,-135.0398 156.8053,-137.0055"/>
<polygon fill="#191970" stroke="#191970" points="116.4692,-127.441 106.0618,-129.425 115.4349,-134.3642 116.4692,-127.441"/>
</g>
<!-- Node153 -->
<g id="node6" class="node">
<title>Node153</title>
<g id="a_node6"><a xlink:href="a00355.html#ae548938d26a8e1c2f5378e94d2921419" target="_top" xlink:title="CO_Access\\i_have_this\l_token">
<polygon fill="#ffffff" stroke="#000000" points="152.5859,-84.5 152.5859,-112.5 274.748,-112.5 274.748,-84.5 152.5859,-84.5"/>
<text text-anchor="start" x="160.5859" y="-100.5" font-family="Helvetica,sans-Serif" font-size="10.00" fill="#000000">CO_Access\i_have_this</text>
<text text-anchor="middle" x="213.667" y="-90.5" font-family="Helvetica,sans-Serif" font-size="10.00" fill="#000000">_token</text>
</a>
</g>
</g>
<!-- Node148&#45;&gt;Node153 -->
<g id="edge5" class="edge">
<title>Node148&#45;&gt;Node153</title>
<path fill="none" stroke="#191970" d="M116.314,-112.4375C128.1633,-110.7411 140.5308,-108.9705 152.3197,-107.2827"/>
<polygon fill="#191970" stroke="#191970" points="115.4649,-109.0232 106.0618,-113.9052 116.457,-115.9526 115.4649,-109.0232"/>
</g>
<!-- Node154 -->
<g id="node7" class="node">
<title>Node154</title>
<g id="a_node7"><a xlink:href="a00299.html#af193950805884bd481b8863ffd6d4fb1" target="_top" xlink:title="CO_Chameleon\\set_value\l_for_key">
<polygon fill="#ffffff" stroke="#000000" points="147.022,-37.5 147.022,-65.5 280.312,-65.5 280.312,-37.5 147.022,-37.5"/>
<text text-anchor="start" x="155.022" y="-53.5" font-family="Helvetica,sans-Serif" font-size="10.00" fill="#000000">CO_Chameleon\set_value</text>
<text text-anchor="middle" x="213.667" y="-43.5" font-family="Helvetica,sans-Serif" font-size="10.00" fill="#000000">_for_key</text>
</a>
</g>
</g>
<!-- Node148&#45;&gt;Node154 -->
<g id="edge6" class="edge">
<title>Node148&#45;&gt;Node154</title>
<path fill="none" stroke="#191970" d="M87.0018,-102.3715C103.354,-93.5759 123.4086,-83.3732 142.0244,-75.5 150.3605,-71.9744 159.4075,-68.6058 168.1767,-65.5657"/>
<polygon fill="#191970" stroke="#191970" points="84.9496,-99.5037 77.8406,-107.3594 88.2969,-105.6515 84.9496,-99.5037"/>
</g>
<!-- Node155 -->
<g id="node8" class="node">
<title>Node155</title>
<g id="a_node8"><a xlink:href="a00299.html#aa13745bd0d40cac3820bb3ae7f6d5fbb" target="_top" xlink:title="CO_Chameleon\\test_access">
<polygon fill="#ffffff" stroke="#000000" points="142.0244,-.5 142.0244,-18.5 285.3096,-18.5 285.3096,-.5 142.0244,-.5"/>
<text text-anchor="middle" x="213.667" y="-6.5" font-family="Helvetica,sans-Serif" font-size="10.00" fill="#000000">CO_Chameleon\test_access</text>
</a>
</g>
</g>
<!-- Node148&#45;&gt;Node155 -->
<g id="edge7" class="edge">
<title>Node148&#45;&gt;Node155</title>
<path fill="none" stroke="#191970" d="M68.7274,-99.0222C84.7671,-77.7497 111.5763,-46.4741 142.0244,-28.5 149.0056,-24.3789 156.8895,-21.1355 164.8091,-18.5873"/>
<polygon fill="#191970" stroke="#191970" points="65.8307,-97.0535 62.7296,-107.1843 71.4715,-101.1986 65.8307,-97.0535"/>
</g>
<!-- Node150 -->
<g id="node3" class="node">
<title>Node150</title>
<g id="a_node3"><a xlink:href="a00355.html#a96c5de557dbba65d1fc15f58cfd01255" target="_top" xlink:title="CO_Access\\check_user\l_exists">
<polygon fill="#ffffff" stroke="#000000" points="321.3096,-225.5 321.3096,-253.5 444.0186,-253.5 444.0186,-225.5 321.3096,-225.5"/>
<text text-anchor="start" x="329.3096" y="-241.5" font-family="Helvetica,sans-Serif" font-size="10.00" fill="#000000">CO_Access\check_user</text>
<text text-anchor="middle" x="382.6641" y="-231.5" font-family="Helvetica,sans-Serif" font-size="10.00" fill="#000000">_exists</text>
</a>
</g>
</g>
<!-- Node149&#45;&gt;Node150 -->
<g id="edge2" class="edge">
<title>Node149&#45;&gt;Node150</title>
<path fill="none" stroke="#191970" d="M286.2089,-239.5C297.8106,-239.5 309.7191,-239.5 321.0359,-239.5"/>
<polygon fill="#191970" stroke="#191970" points="286.1152,-236.0001 276.1151,-239.5 286.1151,-243.0001 286.1152,-236.0001"/>
</g>
</g>
</svg>
