<?xml version="1.0" encoding="UTF-8" standalone="no"?>
<!DOCTYPE svg PUBLIC "-//W3C//DTD SVG 1.1//EN"
 "http://www.w3.org/Graphics/SVG/1.1/DTD/svg11.dtd">
<!-- Generated by graphviz version 2.47.1 (20210417.1919)
 -->
<!-- Title: CO_Security_Login\user_can_write Pages: 1 -->
<svg width="286pt" height="88pt"
 viewBox="0.00 0.00 286.00 88.00" xmlns="http://www.w3.org/2000/svg" xmlns:xlink="http://www.w3.org/1999/xlink">
<g id="graph0" class="graph" transform="scale(1 1) rotate(0) translate(4 84)">
<title>CO_Security_Login\user_can_write</title>
<polygon fill="white" stroke="transparent" points="-4,4 -4,-84 282,-84 282,4 -4,4"/>
<!-- Node1 -->
<g id="node1" class="node">
<title>Node1</title>
<g id="a_node1"><a xlink:title=" ">
<polygon fill="#bfbfbf" stroke="black" points="0,-24.5 0,-54.5 123,-54.5 123,-24.5 0,-24.5"/>
<text text-anchor="start" x="8" y="-42.5" font-family="Helvetica,sans-Serif" font-size="10.00">CO_Security_Login\user</text>
<text text-anchor="middle" x="61.5" y="-31.5" font-family="Helvetica,sans-Serif" font-size="10.00">_can_write</text>
</a>
</g>
</g>
<!-- Node2 -->
<g id="node2" class="node">
<title>Node2</title>
<g id="a_node2"><a xlink:href="a00308.html#a8780b40e55827b90bb441671faec2a05" target="_top" xlink:title=" ">
<polygon fill="white" stroke="black" points="159,-49.5 159,-79.5 278,-79.5 278,-49.5 159,-49.5"/>
<text text-anchor="start" x="167" y="-67.5" font-family="Helvetica,sans-Serif" font-size="10.00">A_CO_DB_Table_Base</text>
<text text-anchor="middle" x="218.5" y="-56.5" font-family="Helvetica,sans-Serif" font-size="10.00">\get_access_object</text>
</a>
</g>
</g>
<!-- Node1&#45;&gt;Node2 -->
<g id="edge1" class="edge">
<title>Node1&#45;&gt;Node2</title>
<path fill="none" stroke="midnightblue" d="M123.32,-49.31C131.73,-50.67 140.42,-52.07 148.96,-53.44"/>
<polygon fill="midnightblue" stroke="midnightblue" points="148.46,-56.91 158.89,-55.05 149.57,-50 148.46,-56.91"/>
</g>
<!-- Node3 -->
<g id="node3" class="node">
<title>Node3</title>
<g id="a_node3"><a xlink:href="a00340.html#a03304936652c2c606c411c7c6a0f0c7f" target="_top" xlink:title=" ">
<polygon fill="white" stroke="black" points="165,-0.5 165,-30.5 272,-30.5 272,-0.5 165,-0.5"/>
<text text-anchor="start" x="173" y="-18.5" font-family="Helvetica,sans-Serif" font-size="10.00">CO_Security_Login\i</text>
<text text-anchor="middle" x="218.5" y="-7.5" font-family="Helvetica,sans-Serif" font-size="10.00">_am_a_god</text>
</a>
</g>
</g>
<!-- Node1&#45;&gt;Node3 -->
<g id="edge2" class="edge">
<title>Node1&#45;&gt;Node3</title>
<path fill="none" stroke="midnightblue" d="M123.32,-30.08C133.62,-28.49 144.34,-26.83 154.69,-25.23"/>
<polygon fill="midnightblue" stroke="midnightblue" points="155.55,-28.63 164.9,-23.64 154.48,-21.72 155.55,-28.63"/>
</g>
</g>
</svg>
