<?xml version="1.0" encoding="UTF-8" standalone="no"?>
<!DOCTYPE svg PUBLIC "-//W3C//DTD SVG 1.1//EN"
 "http://www.w3.org/Graphics/SVG/1.1/DTD/svg11.dtd">
<!-- Generated by graphviz version 2.40.1 (20161225.0304)
 -->
<!-- Title: CO_Access\check_login_exists_by_login_string Pages: 1 -->
<svg width="274pt" height="37pt"
 viewBox="0.00 0.00 274.41 37.00" xmlns="http://www.w3.org/2000/svg" xmlns:xlink="http://www.w3.org/1999/xlink">
<g id="graph0" class="graph" transform="scale(1 1) rotate(0) translate(4 33)">
<title>CO_Access\check_login_exists_by_login_string</title>
<polygon fill="#ffffff" stroke="transparent" points="-4,4 -4,-33 270.4082,-33 270.4082,4 -4,4"/>
<!-- Node10 -->
<g id="node1" class="node">
<title>Node10</title>
<polygon fill="#bfbfbf" stroke="#000000" points="0,-.5 0,-28.5 124.3838,-28.5 124.3838,-.5 0,-.5"/>
<text text-anchor="start" x="8" y="-16.5" font-family="Helvetica,sans-Serif" font-size="10.00" fill="#000000">CO_Access\check_login</text>
<text text-anchor="middle" x="62.1919" y="-6.5" font-family="Helvetica,sans-Serif" font-size="10.00" fill="#000000">_exists_by_login_string</text>
</g>
<!-- Node11 -->
<g id="node2" class="node">
<title>Node11</title>
<g id="a_node2"><a xlink:href="a00355.html#a22dd3ef5f47a6f4c40a551a1d7767402" target="_top" xlink:title="CO_Access\\security\l_db_available">
<polygon fill="#ffffff" stroke="#000000" points="160.3838,-.5 160.3838,-28.5 266.4082,-28.5 266.4082,-.5 160.3838,-.5"/>
<text text-anchor="start" x="168.3838" y="-16.5" font-family="Helvetica,sans-Serif" font-size="10.00" fill="#000000">CO_Access\security</text>
<text text-anchor="middle" x="213.396" y="-6.5" font-family="Helvetica,sans-Serif" font-size="10.00" fill="#000000">_db_available</text>
</a>
</g>
</g>
<!-- Node10&#45;&gt;Node11 -->
<g id="edge1" class="edge">
<title>Node10&#45;&gt;Node11</title>
<path fill="none" stroke="#191970" d="M124.5654,-14.5C133.0092,-14.5 141.6802,-14.5 150.1393,-14.5"/>
<polygon fill="#191970" stroke="#191970" points="150.323,-18.0001 160.3229,-14.5 150.3229,-11.0001 150.323,-18.0001"/>
</g>
</g>
</svg>
