<?xml version="1.0" encoding="UTF-8" standalone="no"?>
<!DOCTYPE svg PUBLIC "-//W3C//DTD SVG 1.1//EN"
 "http://www.w3.org/Graphics/SVG/1.1/DTD/svg11.dtd">
<!-- Generated by graphviz version 2.47.1 (20210417.1919)
 -->
<!-- Title: A_CO_DB_Table_Base\reload_from_db Pages: 1 -->
<svg width="448pt" height="105pt"
 viewBox="0.00 0.00 448.00 104.50" xmlns="http://www.w3.org/2000/svg" xmlns:xlink="http://www.w3.org/1999/xlink">
<g id="graph0" class="graph" transform="scale(1 1) rotate(0) translate(4 100.5)">
<title>A_CO_DB_Table_Base\reload_from_db</title>
<polygon fill="white" stroke="transparent" points="-4,4 -4,-100.5 444,-100.5 444,4 -4,4"/>
<!-- Node1 -->
<g id="node1" class="node">
<title>Node1</title>
<g id="a_node1"><a xlink:title=" ">
<polygon fill="#bfbfbf" stroke="black" points="0,-41 0,-71 119,-71 119,-41 0,-41"/>
<text text-anchor="start" x="8" y="-59" font-family="Helvetica,sans-Serif" font-size="10.00">A_CO_DB_Table_Base</text>
<text text-anchor="middle" x="59.5" y="-48" font-family="Helvetica,sans-Serif" font-size="10.00">\reload_from_db</text>
</a>
</g>
</g>
<!-- Node2 -->
<g id="node2" class="node">
<title>Node2</title>
<g id="a_node2"><a xlink:href="a00308.html#a8780b40e55827b90bb441671faec2a05" target="_top" xlink:title=" ">
<polygon fill="white" stroke="black" points="155,-66 155,-96 274,-96 274,-66 155,-66"/>
<text text-anchor="start" x="163" y="-84" font-family="Helvetica,sans-Serif" font-size="10.00">A_CO_DB_Table_Base</text>
<text text-anchor="middle" x="214.5" y="-73" font-family="Helvetica,sans-Serif" font-size="10.00">\get_access_object</text>
</a>
</g>
</g>
<!-- Node1&#45;&gt;Node2 -->
<g id="edge1" class="edge">
<title>Node1&#45;&gt;Node2</title>
<path fill="none" stroke="midnightblue" d="M119.22,-65.59C127.64,-66.97 136.36,-68.4 144.95,-69.8"/>
<polygon fill="midnightblue" stroke="midnightblue" points="144.51,-73.27 154.94,-71.43 145.64,-66.36 144.51,-73.27"/>
</g>
<!-- Node3 -->
<g id="node3" class="node">
<title>Node3</title>
<g id="a_node3"><a xlink:href="a00308.html#a91b894b2b9aa29d47c43e519f5ad0bf6" target="_top" xlink:title=" ">
<polygon fill="white" stroke="black" points="155,-17 155,-47 274,-47 274,-17 155,-17"/>
<text text-anchor="start" x="163" y="-35" font-family="Helvetica,sans-Serif" font-size="10.00">A_CO_DB_Table_Base</text>
<text text-anchor="middle" x="214.5" y="-24" font-family="Helvetica,sans-Serif" font-size="10.00">\load_from_db</text>
</a>
</g>
</g>
<!-- Node1&#45;&gt;Node3 -->
<g id="edge2" class="edge">
<title>Node1&#45;&gt;Node3</title>
<path fill="none" stroke="midnightblue" d="M119.22,-46.79C127.64,-45.47 136.36,-44.1 144.95,-42.75"/>
<polygon fill="midnightblue" stroke="midnightblue" points="145.6,-46.19 154.94,-41.19 144.52,-39.28 145.6,-46.19"/>
</g>
<!-- Node4 -->
<g id="node4" class="node">
<title>Node4</title>
<g id="a_node4"><a xlink:href="a00308.html#aecf243af90c7a16d03c7e4630ccc4e8e" target="_top" xlink:title=" ">
<polygon fill="white" stroke="black" points="315.5,-39 315.5,-69 434.5,-69 434.5,-39 315.5,-39"/>
<text text-anchor="start" x="323.5" y="-57" font-family="Helvetica,sans-Serif" font-size="10.00">A_CO_DB_Table_Base</text>
<text text-anchor="middle" x="375" y="-46" font-family="Helvetica,sans-Serif" font-size="10.00">\_badger_unserialize</text>
</a>
</g>
</g>
<!-- Node3&#45;&gt;Node4 -->
<g id="edge3" class="edge">
<title>Node3&#45;&gt;Node4</title>
<path fill="none" stroke="midnightblue" d="M274.07,-40.13C284.29,-41.55 295.01,-43.04 305.48,-44.49"/>
<polygon fill="midnightblue" stroke="midnightblue" points="305.02,-47.96 315.41,-45.87 305.98,-41.03 305.02,-47.96"/>
</g>
<!-- Node5 -->
<g id="node5" class="node">
<title>Node5</title>
<g id="a_node5"><a xlink:href="a00308.html#a78affe18a811930d4012fd265e95cdca" target="_top" xlink:title=" ">
<polygon fill="white" stroke="black" points="310,-0.5 310,-19.5 440,-19.5 440,-0.5 310,-0.5"/>
<text text-anchor="middle" x="375" y="-7.5" font-family="Helvetica,sans-Serif" font-size="10.00">A_CO_DB_Table_Base\id</text>
</a>
</g>
</g>
<!-- Node3&#45;&gt;Node5 -->
<g id="edge4" class="edge">
<title>Node3&#45;&gt;Node5</title>
<path fill="none" stroke="midnightblue" d="M274.07,-23.87C282.44,-22.71 291.13,-21.5 299.75,-20.31"/>
<polygon fill="midnightblue" stroke="midnightblue" points="300.38,-23.75 309.81,-18.91 299.42,-16.82 300.38,-23.75"/>
</g>
</g>
</svg>
