<?xml version="1.0" encoding="UTF-8" standalone="no"?>
<!DOCTYPE svg PUBLIC "-//W3C//DTD SVG 1.1//EN"
 "http://www.w3.org/Graphics/SVG/1.1/DTD/svg11.dtd">
<!-- Generated by graphviz version 2.40.1 (20161225.0304)
 -->
<!-- Title: CO_Main_Data_DB\item_exists Pages: 1 -->
<svg width="474pt" height="74pt"
 viewBox="0.00 0.00 473.73 74.00" xmlns="http://www.w3.org/2000/svg" xmlns:xlink="http://www.w3.org/1999/xlink">
<g id="graph0" class="graph" transform="scale(1 1) rotate(0) translate(4 70)">
<title>CO_Main_Data_DB\item_exists</title>
<polygon fill="#ffffff" stroke="transparent" points="-4,4 -4,-70 469.7324,-70 469.7324,4 -4,4"/>
<!-- Node59 -->
<g id="node1" class="node">
<title>Node59</title>
<polygon fill="#bfbfbf" stroke="#000000" points="0,-16.5 0,-44.5 126.0439,-44.5 126.0439,-16.5 0,-16.5"/>
<text text-anchor="start" x="8" y="-32.5" font-family="Helvetica,sans-Serif" font-size="10.00" fill="#000000">CO_Main_Data_DB\item</text>
<text text-anchor="middle" x="63.022" y="-22.5" font-family="Helvetica,sans-Serif" font-size="10.00" fill="#000000">_exists</text>
</g>
<!-- Node60 -->
<g id="node2" class="node">
<title>Node60</title>
<g id="a_node2"><a xlink:href="a00307.html#a176b2c663fa7768e95e4fbe93281adc6" target="_top" xlink:title="A_CO_DB\\_create_read\l_security_predicate">
<polygon fill="#ffffff" stroke="#000000" points="165.3789,-37.5 165.3789,-65.5 289.7725,-65.5 289.7725,-37.5 165.3789,-37.5"/>
<text text-anchor="start" x="173.3789" y="-53.5" font-family="Helvetica,sans-Serif" font-size="10.00" fill="#000000">A_CO_DB\_create_read</text>
<text text-anchor="middle" x="227.5757" y="-43.5" font-family="Helvetica,sans-Serif" font-size="10.00" fill="#000000">_security_predicate</text>
</a>
</g>
</g>
<!-- Node59&#45;&gt;Node60 -->
<g id="edge1" class="edge">
<title>Node59&#45;&gt;Node60</title>
<path fill="none" stroke="#191970" d="M126.1721,-38.5591C135.6569,-39.7695 145.5007,-41.0258 155.1605,-42.2585"/>
<polygon fill="#191970" stroke="#191970" points="154.775,-45.7376 165.1377,-43.5318 155.6612,-38.794 154.775,-45.7376"/>
</g>
<!-- Node61 -->
<g id="node3" class="node">
<title>Node61</title>
<g id="a_node3"><a xlink:href="a00307.html#a2396849660aa4ff018ab7509a4badeb5" target="_top" xlink:title="A_CO_DB\\execute_query">
<polygon fill="#ffffff" stroke="#000000" points="162.0439,-.5 162.0439,-18.5 293.1074,-18.5 293.1074,-.5 162.0439,-.5"/>
<text text-anchor="middle" x="227.5757" y="-6.5" font-family="Helvetica,sans-Serif" font-size="10.00" fill="#000000">A_CO_DB\execute_query</text>
</a>
</g>
</g>
<!-- Node59&#45;&gt;Node61 -->
<g id="edge2" class="edge">
<title>Node59&#45;&gt;Node61</title>
<path fill="none" stroke="#191970" d="M126.1721,-22.4409C134.5757,-21.3685 143.261,-20.2601 151.8506,-19.1639"/>
<polygon fill="#191970" stroke="#191970" points="152.3908,-22.6234 161.8673,-17.8856 151.5046,-15.6797 152.3908,-22.6234"/>
</g>
<!-- Node62 -->
<g id="node4" class="node">
<title>Node62</title>
<g id="a_node4"><a xlink:href="a00307.html#ae41efbdfe739934823b5f4c785b22611" target="_top" xlink:title="A_CO_DB\\_execute_query">
<polygon fill="#ffffff" stroke="#000000" points="329.1074,-.5 329.1074,-18.5 465.7324,-18.5 465.7324,-.5 329.1074,-.5"/>
<text text-anchor="middle" x="397.4199" y="-6.5" font-family="Helvetica,sans-Serif" font-size="10.00" fill="#000000">A_CO_DB\_execute_query</text>
</a>
</g>
</g>
<!-- Node61&#45;&gt;Node62 -->
<g id="edge3" class="edge">
<title>Node61&#45;&gt;Node62</title>
<path fill="none" stroke="#191970" d="M293.2419,-9.5C301.5375,-9.5 310.0918,-9.5 318.5652,-9.5"/>
<polygon fill="#191970" stroke="#191970" points="318.8379,-13.0001 328.8379,-9.5 318.8378,-6.0001 318.8379,-13.0001"/>
</g>
</g>
</svg>
