<?xml version="1.0" encoding="UTF-8" standalone="no"?>
<!DOCTYPE svg PUBLIC "-//W3C//DTD SVG 1.1//EN"
 "http://www.w3.org/Graphics/SVG/1.1/DTD/svg11.dtd">
<!-- Generated by graphviz version 2.40.1 (20161225.0304)
 -->
<!-- Title: CO_LL_Location\update_db Pages: 1 -->
<svg width="611pt" height="84pt"
 viewBox="0.00 0.00 610.82 84.00" xmlns="http://www.w3.org/2000/svg" xmlns:xlink="http://www.w3.org/1999/xlink">
<g id="graph0" class="graph" transform="scale(1 1) rotate(0) translate(4 80)">
<title>CO_LL_Location\update_db</title>
<polygon fill="#ffffff" stroke="transparent" points="-4,4 -4,-80 606.8154,-80 606.8154,4 -4,4"/>
<!-- Node1 -->
<g id="node1" class="node">
<title>Node1</title>
<g id="a_node1"><a xlink:title=" ">
<polygon fill="#bfbfbf" stroke="#000000" points="461.7129,-26.5 461.7129,-44.5 602.8154,-44.5 602.8154,-26.5 461.7129,-26.5"/>
<text text-anchor="middle" x="532.2642" y="-32.5" font-family="Helvetica,sans-Serif" font-size="10.00" fill="#000000">CO_LL_Location\update_db</text>
</a>
</g>
</g>
<!-- Node2 -->
<g id="node2" class="node">
<title>Node2</title>
<g id="a_node2"><a xlink:href="a00263.html#a7b99eb196e710f9cf14ad39601e2b3ad" target="_top" xlink:title=" ">
<polygon fill="#ffffff" stroke="#000000" points="306.8809,-43.5 306.8809,-71.5 425.7129,-71.5 425.7129,-43.5 306.8809,-43.5"/>
<text text-anchor="start" x="314.8809" y="-59.5" font-family="Helvetica,sans-Serif" font-size="10.00" fill="#000000">CO_Place\set_address</text>
<text text-anchor="middle" x="366.2969" y="-49.5" font-family="Helvetica,sans-Serif" font-size="10.00" fill="#000000">_element</text>
</a>
</g>
</g>
<!-- Node1&#45;&gt;Node2 -->
<g id="edge1" class="edge">
<title>Node1&#45;&gt;Node2</title>
<path fill="none" stroke="#191970" d="M454.0709,-45.865C444.6108,-47.119 435.0674,-48.384 425.9346,-49.5946"/>
<polygon fill="#191970" stroke="#191970" points="454.8267,-49.2955 464.28,-44.5117 453.9068,-42.3562 454.8267,-49.2955"/>
</g>
<!-- Node4 -->
<g id="node4" class="node">
<title>Node4</title>
<g id="a_node4"><a xlink:href="a00263.html#a94507f0c219ba9bc342e40d6064941db" target="_top" xlink:title=" ">
<polygon fill="#ffffff" stroke="#000000" points="152.0488,-.5 152.0488,-28.5 270.8809,-28.5 270.8809,-.5 152.0488,-.5"/>
<text text-anchor="start" x="160.0488" y="-16.5" font-family="Helvetica,sans-Serif" font-size="10.00" fill="#000000">CO_Place\set_address</text>
<text text-anchor="middle" x="211.4648" y="-6.5" font-family="Helvetica,sans-Serif" font-size="10.00" fill="#000000">_elements</text>
</a>
</g>
</g>
<!-- Node1&#45;&gt;Node4 -->
<g id="edge5" class="edge">
<title>Node1&#45;&gt;Node4</title>
<path fill="none" stroke="#191970" d="M451.2076,-30.1939C395.1395,-26.5236 321.7825,-21.7216 271.0518,-18.4007"/>
<polygon fill="#191970" stroke="#191970" points="451.259,-33.7047 461.4663,-30.8655 451.7163,-26.7196 451.259,-33.7047"/>
</g>
<!-- Node3 -->
<g id="node3" class="node">
<title>Node3</title>
<g id="a_node3"><a xlink:href="a00263.html#a775079ce6d7951fc6597173ac55d0218" target="_top" xlink:title=" ">
<polygon fill="#ffffff" stroke="#000000" points="152.0488,-47.5 152.0488,-75.5 270.8809,-75.5 270.8809,-47.5 152.0488,-47.5"/>
<text text-anchor="start" x="160.0488" y="-63.5" font-family="Helvetica,sans-Serif" font-size="10.00" fill="#000000">CO_Place\set_address</text>
<text text-anchor="middle" x="211.4648" y="-53.5" font-family="Helvetica,sans-Serif" font-size="10.00" fill="#000000">_element_by_key</text>
</a>
</g>
</g>
<!-- Node2&#45;&gt;Node3 -->
<g id="edge2" class="edge">
<title>Node2&#45;&gt;Node3</title>
<path fill="none" stroke="#191970" d="M296.8344,-59.2945C288.2048,-59.5175 279.442,-59.7438 270.981,-59.9624"/>
<polygon fill="#191970" stroke="#191970" points="296.9713,-62.7923 306.8776,-59.0351 296.7905,-55.7946 296.9713,-62.7923"/>
</g>
<!-- Node2&#45;&gt;Node4 -->
<g id="edge3" class="edge">
<title>Node2&#45;&gt;Node4</title>
<path fill="none" stroke="#191970" d="M305.7403,-40.6822C291.2709,-36.6638 275.9757,-32.416 262.012,-28.538"/>
<polygon fill="#191970" stroke="#191970" points="305.0272,-44.1166 315.5991,-43.4202 306.9004,-37.3718 305.0272,-44.1166"/>
</g>
<!-- Node5 -->
<g id="node5" class="node">
<title>Node5</title>
<g id="a_node5"><a xlink:href="a00263.html#a0828fcac351a2f23404059be980e7b41" target="_top" xlink:title=" ">
<polygon fill="#ffffff" stroke="#000000" points="0,-5.5 0,-23.5 116.0488,-23.5 116.0488,-5.5 0,-5.5"/>
<text text-anchor="middle" x="58.0244" y="-11.5" font-family="Helvetica,sans-Serif" font-size="10.00" fill="#000000">CO_Place\__construct</text>
</a>
</g>
</g>
<!-- Node4&#45;&gt;Node5 -->
<g id="edge4" class="edge">
<title>Node4&#45;&gt;Node5</title>
<path fill="none" stroke="#191970" d="M141.4477,-14.5C132.9738,-14.5 124.3899,-14.5 116.114,-14.5"/>
<polygon fill="#191970" stroke="#191970" points="141.7014,-18.0001 151.7014,-14.5 141.7014,-11.0001 141.7014,-18.0001"/>
</g>
</g>
</svg>
