<?xml version="1.0" encoding="UTF-8" standalone="no"?>
<!DOCTYPE svg PUBLIC "-//W3C//DTD SVG 1.1//EN"
 "http://www.w3.org/Graphics/SVG/1.1/DTD/svg11.dtd">
<!-- Generated by graphviz version 2.40.1 (20161225.0304)
 -->
<!-- Title: CO_Security_Login\user_can_write Pages: 1 -->
<svg width="289pt" height="84pt"
 viewBox="0.00 0.00 289.45 84.00" xmlns="http://www.w3.org/2000/svg" xmlns:xlink="http://www.w3.org/1999/xlink">
<g id="graph0" class="graph" transform="scale(1 1) rotate(0) translate(4 80)">
<title>CO_Security_Login\user_can_write</title>
<polygon fill="#ffffff" stroke="transparent" points="-4,4 -4,-80 285.4521,-80 285.4521,4 -4,4"/>
<!-- Node1 -->
<g id="node1" class="node">
<title>Node1</title>
<g id="a_node1"><a xlink:title=" ">
<polygon fill="#bfbfbf" stroke="#000000" points="0,-23.5 0,-51.5 124.9453,-51.5 124.9453,-23.5 0,-23.5"/>
<text text-anchor="start" x="8" y="-39.5" font-family="Helvetica,sans-Serif" font-size="10.00" fill="#000000">CO_Security_Login\user</text>
<text text-anchor="middle" x="62.4727" y="-29.5" font-family="Helvetica,sans-Serif" font-size="10.00" fill="#000000">_can_write</text>
</a>
</g>
</g>
<!-- Node2 -->
<g id="node2" class="node">
<title>Node2</title>
<g id="a_node2"><a xlink:href="a00308.html#a8780b40e55827b90bb441671faec2a05" target="_top" xlink:title=" ">
<polygon fill="#ffffff" stroke="#000000" points="160.9453,-47.5 160.9453,-75.5 281.4521,-75.5 281.4521,-47.5 160.9453,-47.5"/>
<text text-anchor="start" x="168.9453" y="-63.5" font-family="Helvetica,sans-Serif" font-size="10.00" fill="#000000">A_CO_DB_Table_Base</text>
<text text-anchor="middle" x="221.1987" y="-53.5" font-family="Helvetica,sans-Serif" font-size="10.00" fill="#000000">\get_access_object</text>
</a>
</g>
</g>
<!-- Node1&#45;&gt;Node2 -->
<g id="edge1" class="edge">
<title>Node1&#45;&gt;Node2</title>
<path fill="none" stroke="#191970" d="M125.2054,-46.9854C133.6135,-48.2568 142.2824,-49.5675 150.8112,-50.8571"/>
<polygon fill="#191970" stroke="#191970" points="150.324,-54.3232 160.7349,-52.3576 151.3706,-47.4018 150.324,-54.3232"/>
</g>
<!-- Node3 -->
<g id="node3" class="node">
<title>Node3</title>
<g id="a_node3"><a xlink:href="a00340.html#a03304936652c2c606c411c7c6a0f0c7f" target="_top" xlink:title=" ">
<polygon fill="#ffffff" stroke="#000000" points="167.3418,-.5 167.3418,-28.5 275.0557,-28.5 275.0557,-.5 167.3418,-.5"/>
<text text-anchor="start" x="175.3418" y="-16.5" font-family="Helvetica,sans-Serif" font-size="10.00" fill="#000000">CO_Security_Login\i</text>
<text text-anchor="middle" x="221.1987" y="-6.5" font-family="Helvetica,sans-Serif" font-size="10.00" fill="#000000">_am_a_god</text>
</a>
</g>
</g>
<!-- Node1&#45;&gt;Node3 -->
<g id="edge2" class="edge">
<title>Node1&#45;&gt;Node3</title>
<path fill="none" stroke="#191970" d="M125.2054,-28.4098C135.7122,-26.8873 146.6261,-25.3059 157.165,-23.7787"/>
<polygon fill="#191970" stroke="#191970" points="157.7343,-27.2329 167.129,-22.3349 156.7304,-20.3052 157.7343,-27.2329"/>
</g>
</g>
</svg>
