<?xml version="1.0" encoding="UTF-8" standalone="no"?>
<!DOCTYPE svg PUBLIC "-//W3C//DTD SVG 1.1//EN"
 "http://www.w3.org/Graphics/SVG/1.1/DTD/svg11.dtd">
<!-- Generated by graphviz version 2.40.1 (20161225.0304)
 -->
<!-- Title: CO_Security_Login\set_personal_ids Pages: 1 -->
<!--zoomable 142 -->
<svg id="main" version="1.1" xmlns="http://www.w3.org/2000/svg" xmlns:xlink="http://www.w3.org/1999/xlink" xml:space="preserve" onload="init(evt)">
<style type="text/css"><![CDATA[
.edge:hover path { stroke: red; }
.edge:hover polygon { stroke: red; fill: red; }
]]></style>
<script type="text/javascript"><![CDATA[
var edges = document.getElementsByTagName('g');
if (edges && edges.length) {
  for (var i=0;i<edges.length;i++) {
    if (edges[i].id.substr(0,4)=='edge') {
      edges[i].setAttribute('class','edge');
    }
  }
}
]]></script>
        <defs>
                <circle id="rim" cx="0" cy="0" r="7"/>
                <circle id="rim2" cx="0" cy="0" r="3.5"/>
                <g id="zoomPlus">
                        <use xlink:href="#rim" fill="#404040">
                                <set attributeName="fill" to="#808080" begin="zoomplus.mouseover" end="zoomplus.mouseout"/>
                        </use>
                        <path d="M-4,0h8M0,-4v8" fill="none" stroke="white" stroke-width="1.5" pointer-events="none"/>
                </g>
                <g id="zoomMin">
                        <use xlink:href="#rim" fill="#404040">
                                <set attributeName="fill" to="#808080" begin="zoomminus.mouseover" end="zoomminus.mouseout"/>
                        </use>
                        <path d="M-4,0h8" fill="none" stroke="white" stroke-width="1.5" pointer-events="none"/>
                </g>
                <g id="dirArrow">
                        <path fill="none" stroke="white" stroke-width="1.5" d="M0,-3.0v7 M-2.5,-0.5L0,-3.0L2.5,-0.5"/>
                </g>
               <g id="resetDef">
                       <use xlink:href="#rim2" fill="#404040">
                               <set attributeName="fill" to="#808080" begin="reset.mouseover" end="reset.mouseout"/>
                       </use>
               </g>
        </defs>

<script type="text/javascript">
var viewWidth = 768;
var viewHeight = 142;
var sectionId = 'dynsection-30';
</script>
<script xlink:href="svgpan.js"/>
<svg id="graph" class="graph">
<g id="viewport">
<title>CO_Security_Login\set_personal_ids</title>
<polygon fill="#ffffff" stroke="transparent" points="-4,4 -4,-138 763.8643,-138 763.8643,4 -4,4"/>
<!-- Node1 -->
<g id="node1" class="node">
<title>Node1</title>
<g id="a_node1"><a xlink:title=" ">
<polygon fill="#bfbfbf" stroke="#000000" points="0,-105.5 0,-133.5 118.832,-133.5 118.832,-105.5 0,-105.5"/>
<text text-anchor="start" x="8" y="-121.5" font-family="Helvetica,sans-Serif" font-size="10.00" fill="#000000">CO_Security_Login\set</text>
<text text-anchor="middle" x="59.416" y="-111.5" font-family="Helvetica,sans-Serif" font-size="10.00" fill="#000000">_personal_ids</text>
</a>
</g>
</g>
<!-- Node2 -->
<g id="node2" class="node">
<title>Node2</title>
<g id="a_node2"><a xlink:href="a00308.html#a8780b40e55827b90bb441671faec2a05" target="_top" xlink:title=" ">
<polygon fill="#ffffff" stroke="#000000" points="470.0674,-84.5 470.0674,-112.5 590.5742,-112.5 590.5742,-84.5 470.0674,-84.5"/>
<text text-anchor="start" x="478.0674" y="-100.5" font-family="Helvetica,sans-Serif" font-size="10.00" fill="#000000">A_CO_DB_Table_Base</text>
<text text-anchor="middle" x="530.3208" y="-90.5" font-family="Helvetica,sans-Serif" font-size="10.00" fill="#000000">\get_access_object</text>
</a>
</g>
</g>
<!-- Node1&#45;&gt;Node2 -->
<g id="edge1" class="edge">
<title>Node1&#45;&gt;Node2</title>
<path fill="none" stroke="#191970" d="M119.018,-124.6332C192.7736,-129.9169 322.066,-135.6846 431.8457,-122.5 445.2112,-120.8948 459.3824,-118.1058 472.6842,-114.9838"/>
<polygon fill="#191970" stroke="#191970" points="473.776,-118.3201 482.659,-112.5457 472.1139,-111.5203 473.776,-118.3201"/>
</g>
<!-- Node3 -->
<g id="node3" class="node">
<title>Node3</title>
<g id="a_node3"><a xlink:href="a00308.html#a7487697640051c6661b8cdca6f109959" target="_top" xlink:title=" ">
<polygon fill="#ffffff" stroke="#000000" points="154.832,-84.5 154.832,-112.5 275.3389,-112.5 275.3389,-84.5 154.832,-84.5"/>
<text text-anchor="start" x="162.832" y="-100.5" font-family="Helvetica,sans-Serif" font-size="10.00" fill="#000000">A_CO_DB_Table_Base</text>
<text text-anchor="middle" x="215.0854" y="-90.5" font-family="Helvetica,sans-Serif" font-size="10.00" fill="#000000">\update_db</text>
</a>
</g>
</g>
<!-- Node1&#45;&gt;Node3 -->
<g id="edge2" class="edge">
<title>Node1&#45;&gt;Node3</title>
<path fill="none" stroke="#191970" d="M119.1567,-111.4409C127.5379,-110.3103 136.2154,-109.1397 144.7707,-107.9856"/>
<polygon fill="#191970" stroke="#191970" points="145.2902,-111.4473 154.7325,-106.6417 144.3543,-104.5101 145.2902,-111.4473"/>
</g>
<!-- Node4 -->
<g id="node4" class="node">
<title>Node4</title>
<g id="a_node4"><a xlink:href="a00308.html#adda14b544e11934db3bf8130aeea0610" target="_top" xlink:title=" ">
<polygon fill="#ffffff" stroke="#000000" points="311.3389,-37.5 311.3389,-65.5 431.8457,-65.5 431.8457,-37.5 311.3389,-37.5"/>
<text text-anchor="start" x="319.3389" y="-53.5" font-family="Helvetica,sans-Serif" font-size="10.00" fill="#000000">A_CO_DB_Table_Base</text>
<text text-anchor="middle" x="371.5923" y="-43.5" font-family="Helvetica,sans-Serif" font-size="10.00" fill="#000000">\_write_to_db</text>
</a>
</g>
</g>
<!-- Node3&#45;&gt;Node4 -->
<g id="edge3" class="edge">
<title>Node3&#45;&gt;Node4</title>
<path fill="none" stroke="#191970" d="M262.0427,-84.3985C278.6767,-79.4031 297.5695,-73.7295 314.9255,-68.5174"/>
<polygon fill="#191970" stroke="#191970" points="316.3673,-71.7389 324.9381,-65.5106 314.3539,-65.0347 316.3673,-71.7389"/>
</g>
<!-- Node8 -->
<g id="node8" class="node">
<title>Node8</title>
<g id="a_node8"><a xlink:href="a00308.html#a7d2537d7675ca572ad78096784fe4fe4" target="_top" xlink:title=" ">
<polygon fill="#ffffff" stroke="#000000" points="311.3389,-84.5 311.3389,-112.5 431.8457,-112.5 431.8457,-84.5 311.3389,-84.5"/>
<text text-anchor="start" x="319.3389" y="-100.5" font-family="Helvetica,sans-Serif" font-size="10.00" fill="#000000">A_CO_DB_Table_Base</text>
<text text-anchor="middle" x="371.5923" y="-90.5" font-family="Helvetica,sans-Serif" font-size="10.00" fill="#000000">\user_can_write</text>
</a>
</g>
</g>
<!-- Node3&#45;&gt;Node8 -->
<g id="edge9" class="edge">
<title>Node3&#45;&gt;Node8</title>
<path fill="none" stroke="#191970" d="M275.5951,-98.5C283.9119,-98.5 292.511,-98.5 300.9892,-98.5"/>
<polygon fill="#191970" stroke="#191970" points="301.2436,-102.0001 311.2436,-98.5 301.2435,-95.0001 301.2436,-102.0001"/>
</g>
<!-- Node4&#45;&gt;Node2 -->
<g id="edge7" class="edge">
<title>Node4&#45;&gt;Node2</title>
<path fill="none" stroke="#191970" d="M419.2161,-65.6015C436.2439,-70.6435 455.6056,-76.3766 473.3427,-81.6286"/>
<polygon fill="#191970" stroke="#191970" points="472.4221,-85.0062 483.0043,-84.4894 474.4096,-78.2942 472.4221,-85.0062"/>
</g>
<!-- Node5 -->
<g id="node5" class="node">
<title>Node5</title>
<g id="a_node5"><a xlink:href="a00308.html#a6109c37c5e61ab04ea710b1ebb7615a5" target="_top" xlink:title=" ">
<polygon fill="#ffffff" stroke="#000000" points="467.8457,-37.5 467.8457,-65.5 592.7959,-65.5 592.7959,-37.5 467.8457,-37.5"/>
<text text-anchor="start" x="475.8457" y="-53.5" font-family="Helvetica,sans-Serif" font-size="10.00" fill="#000000">A_CO_DB_Table_Base</text>
<text text-anchor="middle" x="530.3208" y="-43.5" font-family="Helvetica,sans-Serif" font-size="10.00" fill="#000000">\_build_parameter_array</text>
</a>
</g>
</g>
<!-- Node4&#45;&gt;Node5 -->
<g id="edge4" class="edge">
<title>Node4&#45;&gt;Node5</title>
<path fill="none" stroke="#191970" d="M432.0535,-51.5C440.3375,-51.5 448.9133,-51.5 457.3904,-51.5"/>
<polygon fill="#191970" stroke="#191970" points="457.6557,-55.0001 467.6556,-51.5 457.6556,-48.0001 457.6557,-55.0001"/>
</g>
<!-- Node7 -->
<g id="node7" class="node">
<title>Node7</title>
<g id="a_node7"><a xlink:href="a00308.html#a78affe18a811930d4012fd265e95cdca" target="_top" xlink:title=" ">
<polygon fill="#ffffff" stroke="#000000" points="628.7959,-.5 628.7959,-18.5 759.8643,-18.5 759.8643,-.5 628.7959,-.5"/>
<text text-anchor="middle" x="694.3301" y="-6.5" font-family="Helvetica,sans-Serif" font-size="10.00" fill="#000000">A_CO_DB_Table_Base\id</text>
</a>
</g>
</g>
<!-- Node4&#45;&gt;Node7 -->
<g id="edge8" class="edge">
<title>Node4&#45;&gt;Node7</title>
<path fill="none" stroke="#191970" d="M421.2243,-37.4636C436.1102,-33.7053 452.5482,-29.9975 467.8457,-27.5 517.6852,-19.3631 574.3198,-14.8629 618.4878,-12.3971"/>
<polygon fill="#191970" stroke="#191970" points="618.7746,-15.8868 628.5732,-11.8571 618.4003,-8.8968 618.7746,-15.8868"/>
</g>
<!-- Node6 -->
<g id="node6" class="node">
<title>Node6</title>
<g id="a_node6"><a xlink:href="a00308.html#afb32d1e32b8e1c1de2e008c9b88f7846" target="_top" xlink:title=" ">
<polygon fill="#ffffff" stroke="#000000" points="634.0767,-37.5 634.0767,-65.5 754.5835,-65.5 754.5835,-37.5 634.0767,-37.5"/>
<text text-anchor="start" x="642.0767" y="-53.5" font-family="Helvetica,sans-Serif" font-size="10.00" fill="#000000">A_CO_DB_Table_Base</text>
<text text-anchor="middle" x="694.3301" y="-43.5" font-family="Helvetica,sans-Serif" font-size="10.00" fill="#000000">\_badger_serialize</text>
</a>
</g>
</g>
<!-- Node5&#45;&gt;Node6 -->
<g id="edge5" class="edge">
<title>Node5&#45;&gt;Node6</title>
<path fill="none" stroke="#191970" d="M593.262,-51.5C603.2892,-51.5 613.7189,-51.5 623.9054,-51.5"/>
<polygon fill="#191970" stroke="#191970" points="623.9869,-55.0001 633.9869,-51.5 623.9868,-48.0001 623.9869,-55.0001"/>
</g>
<!-- Node5&#45;&gt;Node7 -->
<g id="edge6" class="edge">
<title>Node5&#45;&gt;Node7</title>
<path fill="none" stroke="#191970" d="M585.3898,-37.3978C605.9937,-32.1214 629.1497,-26.1916 648.7977,-21.1601"/>
<polygon fill="#191970" stroke="#191970" points="649.9013,-24.4905 658.7204,-18.619 648.1647,-17.7093 649.9013,-24.4905"/>
</g>
<!-- Node8&#45;&gt;Node2 -->
<g id="edge10" class="edge">
<title>Node8&#45;&gt;Node2</title>
<path fill="none" stroke="#191970" d="M432.0535,-98.5C441.1897,-98.5 450.6807,-98.5 460.003,-98.5"/>
<polygon fill="#191970" stroke="#191970" points="460.0277,-102.0001 470.0277,-98.5 460.0276,-95.0001 460.0277,-102.0001"/>
</g>
</g>
</svg>
        <g id="navigator" transform="translate(0 0)" fill="#404254">
                <rect fill="#f2f5e9" fill-opacity="0.5" stroke="#606060" stroke-width=".5" x="0" y="0" width="60" height="60"/>
                <use id="zoomplus" xlink:href="#zoomPlus" x="17" y="9" onmousedown="handleZoom(evt,'in')"/>
                <use id="zoomminus" xlink:href="#zoomMin" x="42" y="9" onmousedown="handleZoom(evt,'out')"/>
                <use id="reset" xlink:href="#resetDef" x="30" y="36" onmousedown="handleReset()"/>
                <g id="arrowUp" xlink:href="#dirArrow" transform="translate(30 24)" onmousedown="handlePan(0,-1)">
                  <use xlink:href="#rim" fill="#404040">
                        <set attributeName="fill" to="#808080" begin="arrowUp.mouseover" end="arrowUp.mouseout"/>
                  </use>
                  <path fill="none" stroke="white" stroke-width="1.5" d="M0,-3.0v7 M-2.5,-0.5L0,-3.0L2.5,-0.5"/>
                </g>
                <g id="arrowRight" xlink:href="#dirArrow" transform="rotate(90) translate(36 -43)" onmousedown="handlePan(1,0)">
                  <use xlink:href="#rim" fill="#404040">
                        <set attributeName="fill" to="#808080" begin="arrowRight.mouseover" end="arrowRight.mouseout"/>
                  </use>
                  <path fill="none" stroke="white" stroke-width="1.5" d="M0,-3.0v7 M-2.5,-0.5L0,-3.0L2.5,-0.5"/>
                </g>
                <g id="arrowDown" xlink:href="#dirArrow" transform="rotate(180) translate(-30 -48)" onmousedown="handlePan(0,1)">
                  <use xlink:href="#rim" fill="#404040">
                        <set attributeName="fill" to="#808080" begin="arrowDown.mouseover" end="arrowDown.mouseout"/>
                  </use>
                  <path fill="none" stroke="white" stroke-width="1.5" d="M0,-3.0v7 M-2.5,-0.5L0,-3.0L2.5,-0.5"/>
                </g>
                <g id="arrowLeft" xlink:href="#dirArrow" transform="rotate(270) translate(-36 17)" onmousedown="handlePan(-1,0)">
                  <use xlink:href="#rim" fill="#404040">
                        <set attributeName="fill" to="#808080" begin="arrowLeft.mouseover" end="arrowLeft.mouseout"/>
                  </use>
                  <path fill="none" stroke="white" stroke-width="1.5" d="M0,-3.0v7 M-2.5,-0.5L0,-3.0L2.5,-0.5"/>
                </g>
        </g>
        <svg viewBox="0 0 15 15" width="100%" height="30px" preserveAspectRatio="xMaxYMin meet">
         <g id="arrow_out" transform="scale(0.3 0.3)">
          <a xlink:href="a00340_a8d18fed2a089c920e67802253be3cd68_cgraph_org.svg" target="_base">
           <rect id="button" ry="5" rx="5" y="6" x="6" height="38" width="38"
                fill="#f2f5e9" fill-opacity="0.5" stroke="#606060" stroke-width="1.0"/>
           <path id="arrow"
             d="M 11.500037,31.436501 C 11.940474,20.09759 22.043105,11.32322 32.158766,21.979434 L 37.068811,17.246167 C 37.068811,17.246167 37.088388,32 37.088388,32 L 22.160133,31.978069 C 22.160133,31.978069 26.997745,27.140456 26.997745,27.140456 C 18.528582,18.264221 13.291696,25.230495 11.500037,31.436501 z"
             style="fill:#404040;"/>
          </a>
         </g>
        </svg>
</svg>
