<?xml version="1.0" encoding="UTF-8" standalone="no"?>
<!DOCTYPE svg PUBLIC "-//W3C//DTD SVG 1.1//EN"
 "http://www.w3.org/Graphics/SVG/1.1/DTD/svg11.dtd">
<!-- Generated by graphviz version 2.47.1 (20210417.1919)
 -->
<!-- Title: A_CO_DB_Table_Base\set_write_security_id Pages: 1 -->
<svg width="760pt" height="130pt"
 viewBox="0.00 0.00 760.00 130.00" xmlns="http://www.w3.org/2000/svg" xmlns:xlink="http://www.w3.org/1999/xlink">
<g id="graph0" class="graph" transform="scale(1 1) rotate(0) translate(4 126)">
<title>A_CO_DB_Table_Base\set_write_security_id</title>
<polygon fill="white" stroke="transparent" points="-4,4 -4,-126 756,-126 756,4 -4,4"/>
<!-- Node1 -->
<g id="node1" class="node">
<title>Node1</title>
<g id="a_node1"><a xlink:title=" ">
<polygon fill="#bfbfbf" stroke="black" points="0,-22.5 0,-52.5 119,-52.5 119,-22.5 0,-22.5"/>
<text text-anchor="start" x="8" y="-40.5" font-family="Helvetica,sans-Serif" font-size="10.00">A_CO_DB_Table_Base</text>
<text text-anchor="middle" x="59.5" y="-29.5" font-family="Helvetica,sans-Serif" font-size="10.00">\set_write_security_id</text>
</a>
</g>
</g>
<!-- Node2 -->
<g id="node2" class="node">
<title>Node2</title>
<g id="a_node2"><a xlink:href="a00308.html#a7487697640051c6661b8cdca6f109959" target="_top" xlink:title=" ">
<polygon fill="white" stroke="black" points="155,-44.5 155,-74.5 274,-74.5 274,-44.5 155,-44.5"/>
<text text-anchor="start" x="163" y="-62.5" font-family="Helvetica,sans-Serif" font-size="10.00">A_CO_DB_Table_Base</text>
<text text-anchor="middle" x="214.5" y="-51.5" font-family="Helvetica,sans-Serif" font-size="10.00">\update_db</text>
</a>
</g>
</g>
<!-- Node1&#45;&gt;Node2 -->
<g id="edge1" class="edge">
<title>Node1&#45;&gt;Node2</title>
<path fill="none" stroke="midnightblue" d="M119.22,-45.94C127.64,-47.15 136.36,-48.41 144.95,-49.64"/>
<polygon fill="midnightblue" stroke="midnightblue" points="144.54,-53.12 154.94,-51.08 145.54,-46.19 144.54,-53.12"/>
</g>
<!-- Node8 -->
<g id="node8" class="node">
<title>Node8</title>
<g id="a_node8"><a xlink:href="a00308.html#a7d2537d7675ca572ad78096784fe4fe4" target="_top" xlink:title=" ">
<polygon fill="white" stroke="black" points="310,-0.5 310,-30.5 429,-30.5 429,-0.5 310,-0.5"/>
<text text-anchor="start" x="318" y="-18.5" font-family="Helvetica,sans-Serif" font-size="10.00">A_CO_DB_Table_Base</text>
<text text-anchor="middle" x="369.5" y="-7.5" font-family="Helvetica,sans-Serif" font-size="10.00">\user_can_write</text>
</a>
</g>
</g>
<!-- Node1&#45;&gt;Node8 -->
<g id="edge10" class="edge">
<title>Node1&#45;&gt;Node8</title>
<path fill="none" stroke="midnightblue" d="M119.16,-33.31C170.56,-29.64 245.33,-24.3 299.58,-20.42"/>
<polygon fill="midnightblue" stroke="midnightblue" points="300.07,-23.9 309.8,-19.69 299.58,-16.91 300.07,-23.9"/>
</g>
<!-- Node3 -->
<g id="node3" class="node">
<title>Node3</title>
<g id="a_node3"><a xlink:href="a00308.html#adda14b544e11934db3bf8130aeea0610" target="_top" xlink:title=" ">
<polygon fill="white" stroke="black" points="310,-49.5 310,-79.5 429,-79.5 429,-49.5 310,-49.5"/>
<text text-anchor="start" x="318" y="-67.5" font-family="Helvetica,sans-Serif" font-size="10.00">A_CO_DB_Table_Base</text>
<text text-anchor="middle" x="369.5" y="-56.5" font-family="Helvetica,sans-Serif" font-size="10.00">\_write_to_db</text>
</a>
</g>
</g>
<!-- Node2&#45;&gt;Node3 -->
<g id="edge2" class="edge">
<title>Node2&#45;&gt;Node3</title>
<path fill="none" stroke="midnightblue" d="M274.22,-61.42C282.54,-61.69 291.17,-61.97 299.67,-62.25"/>
<polygon fill="midnightblue" stroke="midnightblue" points="299.83,-65.76 309.94,-62.59 300.06,-58.76 299.83,-65.76"/>
</g>
<!-- Node2&#45;&gt;Node8 -->
<g id="edge8" class="edge">
<title>Node2&#45;&gt;Node8</title>
<path fill="none" stroke="midnightblue" d="M267.73,-44.48C280.21,-40.89 293.66,-37.02 306.54,-33.32"/>
<polygon fill="midnightblue" stroke="midnightblue" points="307.61,-36.65 316.25,-30.53 305.67,-29.93 307.61,-36.65"/>
</g>
<!-- Node4 -->
<g id="node4" class="node">
<title>Node4</title>
<g id="a_node4"><a xlink:href="a00308.html#a6109c37c5e61ab04ea710b1ebb7615a5" target="_top" xlink:title=" ">
<polygon fill="white" stroke="black" points="465,-91.5 465,-121.5 586,-121.5 586,-91.5 465,-91.5"/>
<text text-anchor="start" x="473" y="-109.5" font-family="Helvetica,sans-Serif" font-size="10.00">A_CO_DB_Table_Base</text>
<text text-anchor="middle" x="525.5" y="-98.5" font-family="Helvetica,sans-Serif" font-size="10.00">\_build_parameter_array</text>
</a>
</g>
</g>
<!-- Node3&#45;&gt;Node4 -->
<g id="edge3" class="edge">
<title>Node3&#45;&gt;Node4</title>
<path fill="none" stroke="midnightblue" d="M425.66,-79.54C436.68,-82.55 448.34,-85.73 459.65,-88.81"/>
<polygon fill="midnightblue" stroke="midnightblue" points="458.9,-92.24 469.46,-91.49 460.74,-85.48 458.9,-92.24"/>
</g>
<!-- Node6 -->
<g id="node6" class="node">
<title>Node6</title>
<g id="a_node6"><a xlink:href="a00308.html#a78affe18a811930d4012fd265e95cdca" target="_top" xlink:title=" ">
<polygon fill="white" stroke="black" points="622,-53 622,-72 752,-72 752,-53 622,-53"/>
<text text-anchor="middle" x="687" y="-60" font-family="Helvetica,sans-Serif" font-size="10.00">A_CO_DB_Table_Base\id</text>
</a>
</g>
</g>
<!-- Node3&#45;&gt;Node6 -->
<g id="edge7" class="edge">
<title>Node3&#45;&gt;Node6</title>
<path fill="none" stroke="midnightblue" d="M429.1,-64.13C480.61,-63.8 555.82,-63.33 611.57,-62.97"/>
<polygon fill="midnightblue" stroke="midnightblue" points="611.76,-66.47 621.74,-62.91 611.72,-59.47 611.76,-66.47"/>
</g>
<!-- Node7 -->
<g id="node7" class="node">
<title>Node7</title>
<g id="a_node7"><a xlink:href="a00308.html#a8780b40e55827b90bb441671faec2a05" target="_top" xlink:title=" ">
<polygon fill="white" stroke="black" points="466,-2.5 466,-32.5 585,-32.5 585,-2.5 466,-2.5"/>
<text text-anchor="start" x="474" y="-20.5" font-family="Helvetica,sans-Serif" font-size="10.00">A_CO_DB_Table_Base</text>
<text text-anchor="middle" x="525.5" y="-9.5" font-family="Helvetica,sans-Serif" font-size="10.00">\get_access_object</text>
</a>
</g>
</g>
<!-- Node3&#45;&gt;Node7 -->
<g id="edge6" class="edge">
<title>Node3&#45;&gt;Node7</title>
<path fill="none" stroke="midnightblue" d="M419.65,-49.5C434.24,-45.05 450.36,-40.13 465.51,-35.5"/>
<polygon fill="midnightblue" stroke="midnightblue" points="466.75,-38.79 475.29,-32.52 464.7,-32.09 466.75,-38.79"/>
</g>
<!-- Node5 -->
<g id="node5" class="node">
<title>Node5</title>
<g id="a_node5"><a xlink:href="a00308.html#afb32d1e32b8e1c1de2e008c9b88f7846" target="_top" xlink:title=" ">
<polygon fill="white" stroke="black" points="627.5,-91.5 627.5,-121.5 746.5,-121.5 746.5,-91.5 627.5,-91.5"/>
<text text-anchor="start" x="635.5" y="-109.5" font-family="Helvetica,sans-Serif" font-size="10.00">A_CO_DB_Table_Base</text>
<text text-anchor="middle" x="687" y="-98.5" font-family="Helvetica,sans-Serif" font-size="10.00">\_badger_serialize</text>
</a>
</g>
</g>
<!-- Node4&#45;&gt;Node5 -->
<g id="edge4" class="edge">
<title>Node4&#45;&gt;Node5</title>
<path fill="none" stroke="midnightblue" d="M586.35,-106.5C596.42,-106.5 606.95,-106.5 617.23,-106.5"/>
<polygon fill="midnightblue" stroke="midnightblue" points="617.41,-110 627.41,-106.5 617.41,-103 617.41,-110"/>
</g>
<!-- Node4&#45;&gt;Node6 -->
<g id="edge5" class="edge">
<title>Node4&#45;&gt;Node6</title>
<path fill="none" stroke="midnightblue" d="M580.94,-91.48C600.68,-86.04 622.72,-79.96 641.5,-74.78"/>
<polygon fill="midnightblue" stroke="midnightblue" points="642.57,-78.11 651.28,-72.08 640.71,-71.36 642.57,-78.11"/>
</g>
<!-- Node8&#45;&gt;Node7 -->
<g id="edge9" class="edge">
<title>Node8&#45;&gt;Node7</title>
<path fill="none" stroke="midnightblue" d="M429.16,-16.26C437.77,-16.37 446.71,-16.49 455.51,-16.6"/>
<polygon fill="midnightblue" stroke="midnightblue" points="455.7,-20.11 465.75,-16.74 455.79,-13.11 455.7,-20.11"/>
</g>
</g>
</svg>
