<?xml version="1.0" encoding="UTF-8" standalone="no"?>
<!DOCTYPE svg PUBLIC "-//W3C//DTD SVG 1.1//EN"
 "http://www.w3.org/Graphics/SVG/1.1/DTD/svg11.dtd">
<!-- Generated by graphviz version 2.40.1 (20161225.0304)
 -->
<!-- Title: A_CO_DB\_create_write_security_predicate Pages: 1 -->
<!--zoomable 628 -->
<svg id="main" version="1.1" xmlns="http://www.w3.org/2000/svg" xmlns:xlink="http://www.w3.org/1999/xlink" xml:space="preserve" onload="init(evt)">
<style type="text/css"><![CDATA[
.edge:hover path { stroke: red; }
.edge:hover polygon { stroke: red; fill: red; }
]]></style>
<script type="text/javascript"><![CDATA[
var edges = document.getElementsByTagName('g');
if (edges && edges.length) {
  for (var i=0;i<edges.length;i++) {
    if (edges[i].id.substr(0,4)=='edge') {
      edges[i].setAttribute('class','edge');
    }
  }
}
]]></script>
        <defs>
                <circle id="rim" cx="0" cy="0" r="7"/>
                <circle id="rim2" cx="0" cy="0" r="3.5"/>
                <g id="zoomPlus">
                        <use xlink:href="#rim" fill="#404040">
                                <set attributeName="fill" to="#808080" begin="zoomplus.mouseover" end="zoomplus.mouseout"/>
                        </use>
                        <path d="M-4,0h8M0,-4v8" fill="none" stroke="white" stroke-width="1.5" pointer-events="none"/>
                </g>
                <g id="zoomMin">
                        <use xlink:href="#rim" fill="#404040">
                                <set attributeName="fill" to="#808080" begin="zoomminus.mouseover" end="zoomminus.mouseout"/>
                        </use>
                        <path d="M-4,0h8" fill="none" stroke="white" stroke-width="1.5" pointer-events="none"/>
                </g>
                <g id="dirArrow">
                        <path fill="none" stroke="white" stroke-width="1.5" d="M0,-3.0v7 M-2.5,-0.5L0,-3.0L2.5,-0.5"/>
                </g>
               <g id="resetDef">
                       <use xlink:href="#rim2" fill="#404040">
                               <set attributeName="fill" to="#808080" begin="reset.mouseover" end="reset.mouseout"/>
                       </use>
               </g>
        </defs>

<script type="text/javascript">
var viewWidth = 841;
var viewHeight = 628;
var sectionId = 'dynsection-5';
</script>
<script xlink:href="svgpan.js"/>
<svg id="graph" class="graph">
<g id="viewport">
<title>A_CO_DB\_create_write_security_predicate</title>
<polygon fill="#ffffff" stroke="transparent" points="-4,4 -4,-624.2073 837.209,-624.2073 837.209,4 -4,4"/>
<!-- Node45 -->
<g id="node1" class="node">
<title>Node45</title>
<polygon fill="#bfbfbf" stroke="#000000" points="0,-298.5 0,-326.5 125.4922,-326.5 125.4922,-298.5 0,-298.5"/>
<text text-anchor="start" x="8" y="-314.5" font-family="Helvetica,sans-Serif" font-size="10.00" fill="#000000">A_CO_DB\_create_write</text>
<text text-anchor="middle" x="62.7461" y="-304.5" font-family="Helvetica,sans-Serif" font-size="10.00" fill="#000000">_security_predicate</text>
</g>
<!-- Node46 -->
<g id="node2" class="node">
<title>Node46</title>
<g id="a_node2"><a xlink:href="a00307.html#ad2356dbed1b38898d8c17bcd8eb405ef" target="_top" xlink:title="A_CO_DB\\_create_security\l_predicate">
<polygon fill="#ffffff" stroke="#000000" points="161.4922,-298.5 161.4922,-326.5 300.3242,-326.5 300.3242,-298.5 161.4922,-298.5"/>
<text text-anchor="start" x="169.4922" y="-314.5" font-family="Helvetica,sans-Serif" font-size="10.00" fill="#000000">A_CO_DB\_create_security</text>
<text text-anchor="middle" x="230.9082" y="-304.5" font-family="Helvetica,sans-Serif" font-size="10.00" fill="#000000">_predicate</text>
</a>
</g>
</g>
<!-- Node45&#45;&gt;Node46 -->
<g id="edge1" class="edge">
<title>Node45&#45;&gt;Node46</title>
<path fill="none" stroke="#191970" d="M135.9821,-312.5C144.3737,-312.5 152.9118,-312.5 161.2546,-312.5"/>
<polygon fill="#191970" stroke="#191970" points="135.8419,-309.0001 125.8419,-312.5 135.8419,-316.0001 135.8419,-309.0001"/>
</g>
<!-- Node47 -->
<g id="node3" class="node">
<title>Node47</title>
<g id="a_node3"><a xlink:href="a00315.html#aa97e6ad521aed4c2cbe03e83017af0b7" target="_top" xlink:title="CO_Main_Data_DB\\_build\l_sql_query">
<polygon fill="#ffffff" stroke="#000000" points="521.4614,-575.5 521.4614,-603.5 655.3032,-603.5 655.3032,-575.5 521.4614,-575.5"/>
<text text-anchor="start" x="529.4614" y="-591.5" font-family="Helvetica,sans-Serif" font-size="10.00" fill="#000000">CO_Main_Data_DB\_build</text>
<text text-anchor="middle" x="588.3823" y="-581.5" font-family="Helvetica,sans-Serif" font-size="10.00" fill="#000000">_sql_query</text>
</a>
</g>
</g>
<!-- Node46&#45;&gt;Node47 -->
<g id="edge2" class="edge">
<title>Node46&#45;&gt;Node47</title>
<path fill="none" stroke="#191970" d="M236.3405,-336.7744C250.8303,-399.1053 292.3046,-562.0368 336.3242,-592.5 398.9404,-635.8327 492.8823,-618.8741 546.6394,-603.564"/>
<polygon fill="#191970" stroke="#191970" points="239.6737,-335.6505 234.0276,-326.6855 232.8507,-337.2148 239.6737,-335.6505"/>
</g>
<!-- Node49 -->
<g id="node5" class="node">
<title>Node49</title>
<g id="a_node5"><a xlink:href="a00315.html#a352444b4bfd455cb53a57137f3c44884" target="_top" xlink:title="CO_Main_Data_DB\\_location\l_predicate">
<polygon fill="#ffffff" stroke="#000000" points="336.3242,-554.5 336.3242,-582.5 483.5059,-582.5 483.5059,-554.5 336.3242,-554.5"/>
<text text-anchor="start" x="344.3242" y="-570.5" font-family="Helvetica,sans-Serif" font-size="10.00" fill="#000000">CO_Main_Data_DB\_location</text>
<text text-anchor="middle" x="409.915" y="-560.5" font-family="Helvetica,sans-Serif" font-size="10.00" fill="#000000">_predicate</text>
</a>
</g>
</g>
<!-- Node46&#45;&gt;Node49 -->
<g id="edge4" class="edge">
<title>Node46&#45;&gt;Node49</title>
<path fill="none" stroke="#191970" d="M235.0599,-336.5732C244.4406,-383.6563 271.7004,-488.3129 336.3242,-545.5 340.2337,-548.9596 344.6599,-551.8989 349.3548,-554.3961"/>
<polygon fill="#191970" stroke="#191970" points="238.4838,-335.8424 233.1841,-326.6683 231.6061,-337.145 238.4838,-335.8424"/>
</g>
<!-- Node50 -->
<g id="node6" class="node">
<title>Node50</title>
<g id="a_node6"><a xlink:href="a00307.html#af6baed01812f38acbc19df4b00f443b2" target="_top" xlink:title="A_CO_DB\\can_i_see_this\l_record">
<polygon fill="#ffffff" stroke="#000000" points="343.8267,-507.5 343.8267,-535.5 476.0034,-535.5 476.0034,-507.5 343.8267,-507.5"/>
<text text-anchor="start" x="351.8267" y="-523.5" font-family="Helvetica,sans-Serif" font-size="10.00" fill="#000000">A_CO_DB\can_i_see_this</text>
<text text-anchor="middle" x="409.915" y="-513.5" font-family="Helvetica,sans-Serif" font-size="10.00" fill="#000000">_record</text>
</a>
</g>
</g>
<!-- Node46&#45;&gt;Node50 -->
<g id="edge6" class="edge">
<title>Node46&#45;&gt;Node50</title>
<path fill="none" stroke="#191970" d="M237.9278,-336.0843C250.8709,-375.529 282.2353,-454.8452 336.3242,-498.5 340.5949,-501.9468 345.3852,-504.8796 350.4192,-507.3744"/>
<polygon fill="#191970" stroke="#191970" points="241.2539,-334.9941 234.8962,-326.5188 234.581,-337.109 241.2539,-334.9941"/>
</g>
<!-- Node51 -->
<g id="node7" class="node">
<title>Node51</title>
<g id="a_node7"><a xlink:href="a00307.html#a9794f1140b379f8d09c4265a089fcea0" target="_top" xlink:title="A_CO_DB\\delete_record">
<polygon fill="#ffffff" stroke="#000000" points="346.6074,-470.5 346.6074,-488.5 473.2227,-488.5 473.2227,-470.5 346.6074,-470.5"/>
<text text-anchor="middle" x="409.915" y="-476.5" font-family="Helvetica,sans-Serif" font-size="10.00" fill="#000000">A_CO_DB\delete_record</text>
</a>
</g>
</g>
<!-- Node46&#45;&gt;Node51 -->
<g id="edge7" class="edge">
<title>Node46&#45;&gt;Node51</title>
<path fill="none" stroke="#191970" d="M240.9409,-335.927C256.4152,-369.1638 289.3153,-429.5135 336.3242,-461.5 341.7613,-465.1996 347.8818,-468.1407 354.2114,-470.4784"/>
<polygon fill="#191970" stroke="#191970" points="244.0086,-334.2159 236.7017,-326.5439 237.6294,-337.0981 244.0086,-334.2159"/>
</g>
<!-- Node52 -->
<g id="node8" class="node">
<title>Node52</title>
<g id="a_node8"><a xlink:href="a00307.html#a707e7cfdbea32a3713320dbca46dac64" target="_top" xlink:title="A_CO_DB\\get_access\l_class_by_id">
<polygon fill="#ffffff" stroke="#000000" points="351.8906,-423.5 351.8906,-451.5 467.9395,-451.5 467.9395,-423.5 351.8906,-423.5"/>
<text text-anchor="start" x="359.8906" y="-439.5" font-family="Helvetica,sans-Serif" font-size="10.00" fill="#000000">A_CO_DB\get_access</text>
<text text-anchor="middle" x="409.915" y="-429.5" font-family="Helvetica,sans-Serif" font-size="10.00" fill="#000000">_class_by_id</text>
</a>
</g>
</g>
<!-- Node46&#45;&gt;Node52 -->
<g id="edge8" class="edge">
<title>Node46&#45;&gt;Node52</title>
<path fill="none" stroke="#191970" d="M248.4116,-334.7179C267.6627,-357.7544 300.6376,-393.3056 336.3242,-414.5 342.0787,-417.9176 348.3926,-420.8776 354.8279,-423.4283"/>
<polygon fill="#191970" stroke="#191970" points="251.0064,-332.3623 241.9604,-326.8468 245.5925,-336.7996 251.0064,-332.3623"/>
</g>
<!-- Node53 -->
<g id="node9" class="node">
<title>Node53</title>
<g id="a_node9"><a xlink:href="a00327.html#ad75f2ed511a4eae172f9f2acd73f2de9" target="_top" xlink:title="CO_Security_DB\\get\l_all_login_objects">
<polygon fill="#ffffff" stroke="#000000" points="355.5063,-376.5 355.5063,-404.5 464.3237,-404.5 464.3237,-376.5 355.5063,-376.5"/>
<text text-anchor="start" x="363.5063" y="-392.5" font-family="Helvetica,sans-Serif" font-size="10.00" fill="#000000">CO_Security_DB\get</text>
<text text-anchor="middle" x="409.915" y="-382.5" font-family="Helvetica,sans-Serif" font-size="10.00" fill="#000000">_all_login_objects</text>
</a>
</g>
</g>
<!-- Node46&#45;&gt;Node53 -->
<g id="edge9" class="edge">
<title>Node46&#45;&gt;Node53</title>
<path fill="none" stroke="#191970" d="M263.9137,-331.66C284.3371,-343.0232 311.3431,-357.1757 336.3242,-367.5 344.1178,-370.721 352.5323,-373.7495 360.7901,-376.4853"/>
<polygon fill="#191970" stroke="#191970" points="265.4558,-328.5117 255.0242,-326.6591 262.0237,-334.6126 265.4558,-328.5117"/>
</g>
<!-- Node54 -->
<g id="node10" class="node">
<title>Node54</title>
<g id="a_node10"><a xlink:href="a00327.html#af39966b2bf3f43bc640b013ec5a472be" target="_top" xlink:title="CO_Security_DB\\get\l_all_login_objects_with\l_access">
<polygon fill="#ffffff" stroke="#000000" points="350.4917,-319.5 350.4917,-357.5 469.3384,-357.5 469.3384,-319.5 350.4917,-319.5"/>
<text text-anchor="start" x="358.4917" y="-345.5" font-family="Helvetica,sans-Serif" font-size="10.00" fill="#000000">CO_Security_DB\get</text>
<text text-anchor="start" x="358.4917" y="-335.5" font-family="Helvetica,sans-Serif" font-size="10.00" fill="#000000">_all_login_objects_with</text>
<text text-anchor="middle" x="409.915" y="-325.5" font-family="Helvetica,sans-Serif" font-size="10.00" fill="#000000">_access</text>
</a>
</g>
</g>
<!-- Node46&#45;&gt;Node54 -->
<g id="edge10" class="edge">
<title>Node46&#45;&gt;Node54</title>
<path fill="none" stroke="#191970" d="M310.5327,-324.0651C323.9208,-326.0097 337.6073,-327.9976 350.3744,-329.852"/>
<polygon fill="#191970" stroke="#191970" points="310.7724,-320.5633 300.3731,-322.5895 309.7662,-327.4906 310.7724,-320.5633"/>
</g>
<!-- Node55 -->
<g id="node11" class="node">
<title>Node55</title>
<g id="a_node11"><a xlink:href="a00307.html#a6ccca3e1b18f58a3d4a4ad6018f067b1" target="_top" xlink:title="A_CO_DB\\get_all_readable\l_records">
<polygon fill="#ffffff" stroke="#000000" points="340.2085,-272.5 340.2085,-300.5 479.6216,-300.5 479.6216,-272.5 340.2085,-272.5"/>
<text text-anchor="start" x="348.2085" y="-288.5" font-family="Helvetica,sans-Serif" font-size="10.00" fill="#000000">A_CO_DB\get_all_readable</text>
<text text-anchor="middle" x="409.915" y="-278.5" font-family="Helvetica,sans-Serif" font-size="10.00" fill="#000000">_records</text>
</a>
</g>
</g>
<!-- Node46&#45;&gt;Node55 -->
<g id="edge11" class="edge">
<title>Node46&#45;&gt;Node55</title>
<path fill="none" stroke="#191970" d="M310.2702,-300.973C320.2427,-299.5245 330.3853,-298.0514 340.1943,-296.6267"/>
<polygon fill="#191970" stroke="#191970" points="309.7662,-297.5094 300.3731,-302.4105 310.7724,-304.4367 309.7662,-297.5094"/>
</g>
<!-- Node56 -->
<g id="node12" class="node">
<title>Node56</title>
<g id="a_node12"><a xlink:href="a00307.html#a2b39eabcd72a9d79267e51a5f2b16648" target="_top" xlink:title="A_CO_DB\\get_all_writeable\l_records">
<polygon fill="#ffffff" stroke="#000000" points="339.6592,-225.5 339.6592,-253.5 480.1709,-253.5 480.1709,-225.5 339.6592,-225.5"/>
<text text-anchor="start" x="347.6592" y="-241.5" font-family="Helvetica,sans-Serif" font-size="10.00" fill="#000000">A_CO_DB\get_all_writeable</text>
<text text-anchor="middle" x="409.915" y="-231.5" font-family="Helvetica,sans-Serif" font-size="10.00" fill="#000000">_records</text>
</a>
</g>
</g>
<!-- Node46&#45;&gt;Node56 -->
<g id="edge12" class="edge">
<title>Node46&#45;&gt;Node56</title>
<path fill="none" stroke="#191970" d="M267.7817,-294.0368C287.8053,-284.3487 313.1428,-272.6297 336.3242,-263.5 345.2018,-260.0037 354.8157,-256.6006 364.0746,-253.5081"/>
<polygon fill="#191970" stroke="#191970" points="266.1505,-290.9382 258.6977,-298.4685 269.2198,-297.2294 266.1505,-290.9382"/>
</g>
<!-- Node57 -->
<g id="node13" class="node">
<title>Node57</title>
<g id="a_node13"><a xlink:href="a00307.html#aaca8bf49257aa5ade3c354ef76119fa4" target="_top" xlink:title="A_CO_DB\\get_multiple\l_records_by_id">
<polygon fill="#ffffff" stroke="#000000" points="350.2231,-178.5 350.2231,-206.5 469.6069,-206.5 469.6069,-178.5 350.2231,-178.5"/>
<text text-anchor="start" x="358.2231" y="-194.5" font-family="Helvetica,sans-Serif" font-size="10.00" fill="#000000">A_CO_DB\get_multiple</text>
<text text-anchor="middle" x="409.915" y="-184.5" font-family="Helvetica,sans-Serif" font-size="10.00" fill="#000000">_records_by_id</text>
</a>
</g>
</g>
<!-- Node46&#45;&gt;Node57 -->
<g id="edge13" class="edge">
<title>Node46&#45;&gt;Node57</title>
<path fill="none" stroke="#191970" d="M249.5406,-290.4025C269.0949,-268.5115 301.7516,-235.4505 336.3242,-215.5 342.237,-212.0879 348.7146,-209.1225 355.2973,-206.5613"/>
<polygon fill="#191970" stroke="#191970" points="246.6701,-288.3676 242.711,-298.1949 251.9344,-292.9814 246.6701,-288.3676"/>
</g>
<!-- Node59 -->
<g id="node15" class="node">
<title>Node59</title>
<g id="a_node15"><a xlink:href="a00327.html#af7f9180938518c8325b3d4ba52112e02" target="_top" xlink:title="CO_Security_DB\\get\l_multiple_records_by\l_login_id">
<polygon fill="#ffffff" stroke="#000000" points="354.3906,-121.5 354.3906,-159.5 465.4395,-159.5 465.4395,-121.5 354.3906,-121.5"/>
<text text-anchor="start" x="362.3906" y="-147.5" font-family="Helvetica,sans-Serif" font-size="10.00" fill="#000000">CO_Security_DB\get</text>
<text text-anchor="start" x="362.3906" y="-137.5" font-family="Helvetica,sans-Serif" font-size="10.00" fill="#000000">_multiple_records_by</text>
<text text-anchor="middle" x="409.915" y="-127.5" font-family="Helvetica,sans-Serif" font-size="10.00" fill="#000000">_login_id</text>
</a>
</g>
</g>
<!-- Node46&#45;&gt;Node59 -->
<g id="edge15" class="edge">
<title>Node46&#45;&gt;Node59</title>
<path fill="none" stroke="#191970" d="M242.4474,-289.1708C259.1185,-257.6762 292.7771,-201.6888 336.3242,-168.5 341.7603,-164.357 347.8801,-160.7642 354.2093,-157.6648"/>
<polygon fill="#191970" stroke="#191970" points="239.3112,-287.616 237.8269,-298.1063 245.5291,-290.8313 239.3112,-287.616"/>
</g>
<!-- Node61 -->
<g id="node17" class="node">
<title>Node61</title>
<g id="a_node17"><a xlink:href="a00307.html#af62a0d273b69bdf1f5012f88e619cec7" target="_top" xlink:title="A_CO_DB\\get_single\l_raw_row_by_id">
<polygon fill="#ffffff" stroke="#000000" points="354.3882,-74.5 354.3882,-102.5 465.4419,-102.5 465.4419,-74.5 354.3882,-74.5"/>
<text text-anchor="start" x="362.3882" y="-90.5" font-family="Helvetica,sans-Serif" font-size="10.00" fill="#000000">A_CO_DB\get_single</text>
<text text-anchor="middle" x="409.915" y="-80.5" font-family="Helvetica,sans-Serif" font-size="10.00" fill="#000000">_raw_row_by_id</text>
</a>
</g>
</g>
<!-- Node46&#45;&gt;Node61 -->
<g id="edge17" class="edge">
<title>Node46&#45;&gt;Node61</title>
<path fill="none" stroke="#191970" d="M236.9453,-288.5437C248.7737,-246.4941 278.9889,-159.3386 336.3242,-111.5 341.6687,-107.0407 347.8784,-103.444 354.3812,-100.5435"/>
<polygon fill="#191970" stroke="#191970" points="233.5,-287.8769 234.2686,-298.4438 240.2574,-289.7039 233.5,-287.8769"/>
</g>
<!-- Node62 -->
<g id="node18" class="node">
<title>Node62</title>
<g id="a_node18"><a xlink:href="a00307.html#afacdcd578ddc750ca33d2418b54ab6b9" target="_top" xlink:title="A_CO_DB\\lock_record">
<polygon fill="#ffffff" stroke="#000000" points="351.3389,-37.5 351.3389,-55.5 468.4912,-55.5 468.4912,-37.5 351.3389,-37.5"/>
<text text-anchor="middle" x="409.915" y="-43.5" font-family="Helvetica,sans-Serif" font-size="10.00" fill="#000000">A_CO_DB\lock_record</text>
</a>
</g>
</g>
<!-- Node46&#45;&gt;Node62 -->
<g id="edge18" class="edge">
<title>Node46&#45;&gt;Node62</title>
<path fill="none" stroke="#191970" d="M233.9771,-288.2822C241.6201,-238.4379 266.2262,-124.0693 336.3242,-64.5 340.7342,-60.7524 345.8022,-57.7613 351.1717,-55.3774"/>
<polygon fill="#191970" stroke="#191970" points="230.4766,-288.0371 232.5218,-298.4326 237.4057,-289.0306 230.4766,-288.0371"/>
</g>
<!-- Node63 -->
<g id="node19" class="node">
<title>Node63</title>
<g id="a_node19"><a xlink:href="a00307.html#acac7eadbd231d714f3eed150eec35838" target="_top" xlink:title="A_CO_DB\\write_record">
<polygon fill="#ffffff" stroke="#000000" points="349.6738,-.5 349.6738,-18.5 470.1563,-18.5 470.1563,-.5 349.6738,-.5"/>
<text text-anchor="middle" x="409.915" y="-6.5" font-family="Helvetica,sans-Serif" font-size="10.00" fill="#000000">A_CO_DB\write_record</text>
</a>
</g>
</g>
<!-- Node46&#45;&gt;Node63 -->
<g id="edge19" class="edge">
<title>Node46&#45;&gt;Node63</title>
<path fill="none" stroke="#191970" d="M232.4792,-288.1926C237.3956,-233.0797 257.3083,-97.9575 336.3242,-27.5 340.3491,-23.911 344.9724,-21.0099 349.8992,-18.6685"/>
<polygon fill="#191970" stroke="#191970" points="228.9716,-288.1493 231.6622,-298.3968 235.9492,-288.7081 228.9716,-288.1493"/>
</g>
<!-- Node48 -->
<g id="node4" class="node">
<title>Node48</title>
<g id="a_node4"><a xlink:href="a00315.html#a303048d406814c066d27fda70de4ff02" target="_top" xlink:title="CO_Main_Data_DB\\generic\l_search">
<polygon fill="#ffffff" stroke="#000000" points="693.2588,-575.5 693.2588,-603.5 833.209,-603.5 833.209,-575.5 693.2588,-575.5"/>
<text text-anchor="start" x="701.2588" y="-591.5" font-family="Helvetica,sans-Serif" font-size="10.00" fill="#000000">CO_Main_Data_DB\generic</text>
<text text-anchor="middle" x="763.2339" y="-581.5" font-family="Helvetica,sans-Serif" font-size="10.00" fill="#000000">_search</text>
</a>
</g>
</g>
<!-- Node47&#45;&gt;Node48 -->
<g id="edge3" class="edge">
<title>Node47&#45;&gt;Node48</title>
<path fill="none" stroke="#191970" d="M665.7031,-589.5C674.829,-589.5 684.1038,-589.5 693.1226,-589.5"/>
<polygon fill="#191970" stroke="#191970" points="665.4845,-586.0001 655.4844,-589.5 665.4844,-593.0001 665.4845,-586.0001"/>
</g>
<!-- Node49&#45;&gt;Node47 -->
<g id="edge5" class="edge">
<title>Node49&#45;&gt;Node47</title>
<path fill="none" stroke="#191970" d="M493.5516,-578.3414C502.8297,-579.4331 512.1887,-580.5344 521.2254,-581.5977"/>
<polygon fill="#191970" stroke="#191970" points="493.8754,-574.8554 483.5349,-577.1627 493.0573,-581.8075 493.8754,-574.8554"/>
</g>
<!-- Node58 -->
<g id="node14" class="node">
<title>Node58</title>
<g id="a_node14"><a xlink:href="a00307.html#a631d8d027d72c940a7cec689cbb4e568" target="_top" xlink:title="A_CO_DB\\get_single\l_record_by_id">
<polygon fill="#ffffff" stroke="#000000" points="532.8555,-178.5 532.8555,-206.5 643.9092,-206.5 643.9092,-178.5 532.8555,-178.5"/>
<text text-anchor="start" x="540.8555" y="-194.5" font-family="Helvetica,sans-Serif" font-size="10.00" fill="#000000">A_CO_DB\get_single</text>
<text text-anchor="middle" x="588.3823" y="-184.5" font-family="Helvetica,sans-Serif" font-size="10.00" fill="#000000">_record_by_id</text>
</a>
</g>
</g>
<!-- Node57&#45;&gt;Node58 -->
<g id="edge14" class="edge">
<title>Node57&#45;&gt;Node58</title>
<path fill="none" stroke="#191970" d="M480.0195,-192.5C497.5508,-192.5 516.1158,-192.5 532.8324,-192.5"/>
<polygon fill="#191970" stroke="#191970" points="479.8386,-189.0001 469.8385,-192.5 479.8385,-196.0001 479.8386,-189.0001"/>
</g>
<!-- Node60 -->
<g id="node16" class="node">
<title>Node60</title>
<g id="a_node16"><a xlink:href="a00327.html#ab01692597b11329b0d63096b10e1f473" target="_top" xlink:title="CO_Security_DB\\get\l_single_record_by_login_id">
<polygon fill="#ffffff" stroke="#000000" points="519.5059,-126.5 519.5059,-154.5 657.2588,-154.5 657.2588,-126.5 519.5059,-126.5"/>
<text text-anchor="start" x="527.5059" y="-142.5" font-family="Helvetica,sans-Serif" font-size="10.00" fill="#000000">CO_Security_DB\get</text>
<text text-anchor="middle" x="588.3823" y="-132.5" font-family="Helvetica,sans-Serif" font-size="10.00" fill="#000000">_single_record_by_login_id</text>
</a>
</g>
</g>
<!-- Node59&#45;&gt;Node60 -->
<g id="edge16" class="edge">
<title>Node59&#45;&gt;Node60</title>
<path fill="none" stroke="#191970" d="M476.0283,-140.5C490.1797,-140.5 505.1643,-140.5 519.4201,-140.5"/>
<polygon fill="#191970" stroke="#191970" points="475.8936,-137.0001 465.8935,-140.5 475.8935,-144.0001 475.8936,-137.0001"/>
</g>
</g>
</svg>
        <g id="navigator" transform="translate(0 0)" fill="#404254">
                <rect fill="#f2f5e9" fill-opacity="0.5" stroke="#606060" stroke-width=".5" x="0" y="0" width="60" height="60"/>
                <use id="zoomplus" xlink:href="#zoomPlus" x="17" y="9" onmousedown="handleZoom(evt,'in')"/>
                <use id="zoomminus" xlink:href="#zoomMin" x="42" y="9" onmousedown="handleZoom(evt,'out')"/>
                <use id="reset" xlink:href="#resetDef" x="30" y="36" onmousedown="handleReset()"/>
                <g id="arrowUp" xlink:href="#dirArrow" transform="translate(30 24)" onmousedown="handlePan(0,-1)">
                  <use xlink:href="#rim" fill="#404040">
                        <set attributeName="fill" to="#808080" begin="arrowUp.mouseover" end="arrowUp.mouseout"/>
                  </use>
                  <path fill="none" stroke="white" stroke-width="1.5" d="M0,-3.0v7 M-2.5,-0.5L0,-3.0L2.5,-0.5"/>
                </g>
                <g id="arrowRight" xlink:href="#dirArrow" transform="rotate(90) translate(36 -43)" onmousedown="handlePan(1,0)">
                  <use xlink:href="#rim" fill="#404040">
                        <set attributeName="fill" to="#808080" begin="arrowRight.mouseover" end="arrowRight.mouseout"/>
                  </use>
                  <path fill="none" stroke="white" stroke-width="1.5" d="M0,-3.0v7 M-2.5,-0.5L0,-3.0L2.5,-0.5"/>
                </g>
                <g id="arrowDown" xlink:href="#dirArrow" transform="rotate(180) translate(-30 -48)" onmousedown="handlePan(0,1)">
                  <use xlink:href="#rim" fill="#404040">
                        <set attributeName="fill" to="#808080" begin="arrowDown.mouseover" end="arrowDown.mouseout"/>
                  </use>
                  <path fill="none" stroke="white" stroke-width="1.5" d="M0,-3.0v7 M-2.5,-0.5L0,-3.0L2.5,-0.5"/>
                </g>
                <g id="arrowLeft" xlink:href="#dirArrow" transform="rotate(270) translate(-36 17)" onmousedown="handlePan(-1,0)">
                  <use xlink:href="#rim" fill="#404040">
                        <set attributeName="fill" to="#808080" begin="arrowLeft.mouseover" end="arrowLeft.mouseout"/>
                  </use>
                  <path fill="none" stroke="white" stroke-width="1.5" d="M0,-3.0v7 M-2.5,-0.5L0,-3.0L2.5,-0.5"/>
                </g>
        </g>
        <svg viewBox="0 0 15 15" width="100%" height="30px" preserveAspectRatio="xMaxYMin meet">
         <g id="arrow_out" transform="scale(0.3 0.3)">
          <a xlink:href="a00307_ad4bc3d416f085818935b32a814313202_icgraph_org.svg" target="_base">
           <rect id="button" ry="5" rx="5" y="6" x="6" height="38" width="38"
                fill="#f2f5e9" fill-opacity="0.5" stroke="#606060" stroke-width="1.0"/>
           <path id="arrow"
             d="M 11.500037,31.436501 C 11.940474,20.09759 22.043105,11.32322 32.158766,21.979434 L 37.068811,17.246167 C 37.068811,17.246167 37.088388,32 37.088388,32 L 22.160133,31.978069 C 22.160133,31.978069 26.997745,27.140456 26.997745,27.140456 C 18.528582,18.264221 13.291696,25.230495 11.500037,31.436501 z"
             style="fill:#404040;"/>
          </a>
         </g>
        </svg>
</svg>
