<?xml version="1.0" encoding="UTF-8" standalone="no"?>
<!DOCTYPE svg PUBLIC "-//W3C//DTD SVG 1.1//EN"
 "http://www.w3.org/Graphics/SVG/1.1/DTD/svg11.dtd">
<!-- Generated by graphviz version 2.47.1 (20210417.1919)
 -->
<!-- Title: CO_Security_Login\set_ids Pages: 1 -->
<!--zoomable 195 -->
<svg id="main" version="1.1" xmlns="http://www.w3.org/2000/svg" xmlns:xlink="http://www.w3.org/1999/xlink" xml:space="preserve" onload="init(evt)">
<style type="text/css"><![CDATA[
.edge:hover path { stroke: red; }
.edge:hover polygon { stroke: red; fill: red; }
]]></style>
<script type="text/javascript"><![CDATA[
var edges = document.getElementsByTagName('g');
if (edges && edges.length) {
  for (var i=0;i<edges.length;i++) {
    if (edges[i].id.substr(0,4)=='edge') {
      edges[i].setAttribute('class','edge');
    }
  }
}
]]></script>
        <defs>
                <circle id="rim" cx="0" cy="0" r="7"/>
                <circle id="rim2" cx="0" cy="0" r="3.5"/>
                <g id="zoomPlus">
                        <use xlink:href="#rim" fill="#404040">
                                <set attributeName="fill" to="#808080" begin="zoomplus.mouseover" end="zoomplus.mouseout"/>
                        </use>
                        <path d="M-4,0h8M0,-4v8" fill="none" stroke="white" stroke-width="1.5" pointer-events="none"/>
                </g>
                <g id="zoomMin">
                        <use xlink:href="#rim" fill="#404040">
                                <set attributeName="fill" to="#808080" begin="zoomminus.mouseover" end="zoomminus.mouseout"/>
                        </use>
                        <path d="M-4,0h8" fill="none" stroke="white" stroke-width="1.5" pointer-events="none"/>
                </g>
                <g id="dirArrow">
                        <path fill="none" stroke="white" stroke-width="1.5" d="M0,-3.0v7 M-2.5,-0.5L0,-3.0L2.5,-0.5"/>
                </g>
               <g id="resetDef">
                       <use xlink:href="#rim2" fill="#404040">
                               <set attributeName="fill" to="#808080" begin="reset.mouseover" end="reset.mouseout"/>
                       </use>
               </g>
        </defs>

<script type="text/javascript">
var viewWidth = 781;
var viewHeight = 195;
var sectionId = 'dynsection-26';
</script>
<script xlink:href="svgpan.js"/>
<svg id="graph" class="graph">
<g id="viewport">
<title>CO_Security_Login\set_ids</title>
<polygon fill="white" stroke="transparent" points="-4,4 -4,-191 777,-191 777,4 -4,4"/>
<!-- Node1 -->
<g id="node1" class="node">
<title>Node1</title>
<g id="a_node1"><a xlink:title=" ">
<polygon fill="#bfbfbf" stroke="black" points="0,-118 0,-137 136,-137 136,-118 0,-118"/>
<text text-anchor="middle" x="68" y="-125" font-family="Helvetica,sans-Serif" font-size="10.00">CO_Security_Login\set_ids</text>
</a>
</g>
</g>
<!-- Node2 -->
<g id="node2" class="node">
<title>Node2</title>
<g id="a_node2"><a xlink:href="a00308.html#a8780b40e55827b90bb441671faec2a05" target="_top" xlink:title=" ">
<polygon fill="white" stroke="black" points="487,-100.5 487,-130.5 606,-130.5 606,-100.5 487,-100.5"/>
<text text-anchor="start" x="495" y="-118.5" font-family="Helvetica,sans-Serif" font-size="10.00">A_CO_DB_Table_Base</text>
<text text-anchor="middle" x="546.5" y="-107.5" font-family="Helvetica,sans-Serif" font-size="10.00">\get_access_object</text>
</a>
</g>
</g>
<!-- Node1&#45;&gt;Node2 -->
<g id="edge1" class="edge">
<title>Node1&#45;&gt;Node2</title>
<path fill="none" stroke="midnightblue" d="M136.01,-125.81C226.1,-123.54 385.46,-119.53 476.54,-117.24"/>
<polygon fill="midnightblue" stroke="midnightblue" points="476.85,-120.73 486.76,-116.98 476.67,-113.73 476.85,-120.73"/>
</g>
<!-- Node3 -->
<g id="node3" class="node">
<title>Node3</title>
<g id="a_node3"><a xlink:href="a00308.html#a7487697640051c6661b8cdca6f109959" target="_top" xlink:title=" ">
<polygon fill="white" stroke="black" points="174,-68.5 174,-98.5 293,-98.5 293,-68.5 174,-68.5"/>
<text text-anchor="start" x="182" y="-86.5" font-family="Helvetica,sans-Serif" font-size="10.00">A_CO_DB_Table_Base</text>
<text text-anchor="middle" x="233.5" y="-75.5" font-family="Helvetica,sans-Serif" font-size="10.00">\update_db</text>
</a>
</g>
</g>
<!-- Node1&#45;&gt;Node3 -->
<g id="edge2" class="edge">
<title>Node1&#45;&gt;Node3</title>
<path fill="none" stroke="midnightblue" d="M104.48,-117.95C122.72,-113.04 145.55,-106.9 166.86,-101.17"/>
<polygon fill="midnightblue" stroke="midnightblue" points="167.77,-104.54 176.52,-98.57 165.95,-97.78 167.77,-104.54"/>
</g>
<!-- Node9 -->
<g id="node9" class="node">
<title>Node9</title>
<g id="a_node9"><a xlink:href="a00340.html#a946d1fc04964f6f0b55c8cc018bf2c70" target="_top" xlink:title=" ">
<polygon fill="white" stroke="black" points="172,-156.5 172,-186.5 295,-186.5 295,-156.5 172,-156.5"/>
<text text-anchor="start" x="180" y="-174.5" font-family="Helvetica,sans-Serif" font-size="10.00">CO_Security_Login\user</text>
<text text-anchor="middle" x="233.5" y="-163.5" font-family="Helvetica,sans-Serif" font-size="10.00">_can_edit_ids</text>
</a>
</g>
</g>
<!-- Node1&#45;&gt;Node9 -->
<g id="edge11" class="edge">
<title>Node1&#45;&gt;Node9</title>
<path fill="none" stroke="midnightblue" d="M104.48,-137.05C122.72,-141.96 145.55,-148.1 166.86,-153.83"/>
<polygon fill="midnightblue" stroke="midnightblue" points="165.95,-157.22 176.52,-156.43 167.77,-150.46 165.95,-157.22"/>
</g>
<!-- Node4 -->
<g id="node4" class="node">
<title>Node4</title>
<g id="a_node4"><a xlink:href="a00308.html#adda14b544e11934db3bf8130aeea0610" target="_top" xlink:title=" ">
<polygon fill="white" stroke="black" points="331,-19.5 331,-49.5 450,-49.5 450,-19.5 331,-19.5"/>
<text text-anchor="start" x="339" y="-37.5" font-family="Helvetica,sans-Serif" font-size="10.00">A_CO_DB_Table_Base</text>
<text text-anchor="middle" x="390.5" y="-26.5" font-family="Helvetica,sans-Serif" font-size="10.00">\_write_to_db</text>
</a>
</g>
</g>
<!-- Node3&#45;&gt;Node4 -->
<g id="edge3" class="edge">
<title>Node3&#45;&gt;Node4</title>
<path fill="none" stroke="midnightblue" d="M282.27,-68.4C297.96,-63.44 315.57,-57.87 331.91,-52.71"/>
<polygon fill="midnightblue" stroke="midnightblue" points="333.41,-55.9 341.89,-49.55 331.3,-49.23 333.41,-55.9"/>
</g>
<!-- Node8 -->
<g id="node8" class="node">
<title>Node8</title>
<g id="a_node8"><a xlink:href="a00308.html#a7d2537d7675ca572ad78096784fe4fe4" target="_top" xlink:title=" ">
<polygon fill="white" stroke="black" points="331,-68.5 331,-98.5 450,-98.5 450,-68.5 331,-68.5"/>
<text text-anchor="start" x="339" y="-86.5" font-family="Helvetica,sans-Serif" font-size="10.00">A_CO_DB_Table_Base</text>
<text text-anchor="middle" x="390.5" y="-75.5" font-family="Helvetica,sans-Serif" font-size="10.00">\user_can_write</text>
</a>
</g>
</g>
<!-- Node3&#45;&gt;Node8 -->
<g id="edge9" class="edge">
<title>Node3&#45;&gt;Node8</title>
<path fill="none" stroke="midnightblue" d="M293.1,-83.5C302.07,-83.5 311.4,-83.5 320.56,-83.5"/>
<polygon fill="midnightblue" stroke="midnightblue" points="320.82,-87 330.82,-83.5 320.82,-80 320.82,-87"/>
</g>
<!-- Node4&#45;&gt;Node2 -->
<g id="edge7" class="edge">
<title>Node4&#45;&gt;Node2</title>
<path fill="none" stroke="midnightblue" d="M430.57,-49.58C437.13,-52.38 443.81,-55.41 450,-58.5 471.96,-69.48 495.68,-83.62 513.98,-95.07"/>
<polygon fill="midnightblue" stroke="midnightblue" points="512.17,-98.07 522.5,-100.45 515.91,-92.15 512.17,-98.07"/>
</g>
<!-- Node5 -->
<g id="node5" class="node">
<title>Node5</title>
<g id="a_node5"><a xlink:href="a00308.html#a6109c37c5e61ab04ea710b1ebb7615a5" target="_top" xlink:title=" ">
<polygon fill="white" stroke="black" points="486,-0.5 486,-30.5 607,-30.5 607,-0.5 486,-0.5"/>
<text text-anchor="start" x="494" y="-18.5" font-family="Helvetica,sans-Serif" font-size="10.00">A_CO_DB_Table_Base</text>
<text text-anchor="middle" x="546.5" y="-7.5" font-family="Helvetica,sans-Serif" font-size="10.00">\_build_parameter_array</text>
</a>
</g>
</g>
<!-- Node4&#45;&gt;Node5 -->
<g id="edge4" class="edge">
<title>Node4&#45;&gt;Node5</title>
<path fill="none" stroke="midnightblue" d="M450.16,-27.26C458.59,-26.22 467.33,-25.14 475.95,-24.08"/>
<polygon fill="midnightblue" stroke="midnightblue" points="476.49,-27.54 485.98,-22.84 475.63,-20.59 476.49,-27.54"/>
</g>
<!-- Node7 -->
<g id="node7" class="node">
<title>Node7</title>
<g id="a_node7"><a xlink:href="a00308.html#a78affe18a811930d4012fd265e95cdca" target="_top" xlink:title=" ">
<polygon fill="white" stroke="black" points="643,-50 643,-69 773,-69 773,-50 643,-50"/>
<text text-anchor="middle" x="708" y="-57" font-family="Helvetica,sans-Serif" font-size="10.00">A_CO_DB_Table_Base\id</text>
</a>
</g>
</g>
<!-- Node4&#45;&gt;Node7 -->
<g id="edge8" class="edge">
<title>Node4&#45;&gt;Node7</title>
<path fill="none" stroke="midnightblue" d="M450.1,-39.14C501.61,-43.22 576.82,-49.18 632.57,-53.6"/>
<polygon fill="midnightblue" stroke="midnightblue" points="632.49,-57.11 642.74,-54.41 633.05,-50.13 632.49,-57.11"/>
</g>
<!-- Node6 -->
<g id="node6" class="node">
<title>Node6</title>
<g id="a_node6"><a xlink:href="a00308.html#afb32d1e32b8e1c1de2e008c9b88f7846" target="_top" xlink:title=" ">
<polygon fill="white" stroke="black" points="648.5,-0.5 648.5,-30.5 767.5,-30.5 767.5,-0.5 648.5,-0.5"/>
<text text-anchor="start" x="656.5" y="-18.5" font-family="Helvetica,sans-Serif" font-size="10.00">A_CO_DB_Table_Base</text>
<text text-anchor="middle" x="708" y="-7.5" font-family="Helvetica,sans-Serif" font-size="10.00">\_badger_serialize</text>
</a>
</g>
</g>
<!-- Node5&#45;&gt;Node6 -->
<g id="edge5" class="edge">
<title>Node5&#45;&gt;Node6</title>
<path fill="none" stroke="midnightblue" d="M607.35,-15.5C617.42,-15.5 627.95,-15.5 638.23,-15.5"/>
<polygon fill="midnightblue" stroke="midnightblue" points="638.41,-19 648.41,-15.5 638.41,-12 638.41,-19"/>
</g>
<!-- Node5&#45;&gt;Node7 -->
<g id="edge6" class="edge">
<title>Node5&#45;&gt;Node7</title>
<path fill="none" stroke="midnightblue" d="M601.94,-30.52C621.68,-35.96 643.72,-42.04 662.5,-47.22"/>
<polygon fill="midnightblue" stroke="midnightblue" points="661.71,-50.64 672.28,-49.92 663.57,-43.89 661.71,-50.64"/>
</g>
<!-- Node8&#45;&gt;Node2 -->
<g id="edge10" class="edge">
<title>Node8&#45;&gt;Node2</title>
<path fill="none" stroke="midnightblue" d="M450.16,-95.69C458.87,-97.5 467.91,-99.38 476.8,-101.22"/>
<polygon fill="midnightblue" stroke="midnightblue" points="476.25,-104.68 486.75,-103.29 477.67,-97.83 476.25,-104.68"/>
</g>
<!-- Node9&#45;&gt;Node2 -->
<g id="edge12" class="edge">
<title>Node9&#45;&gt;Node2</title>
<path fill="none" stroke="midnightblue" d="M295.23,-165.14C338.6,-160.09 398.19,-152.11 450,-141.5 461.33,-139.18 473.3,-136.28 484.79,-133.27"/>
<polygon fill="midnightblue" stroke="midnightblue" points="485.98,-136.58 494.74,-130.61 484.17,-129.81 485.98,-136.58"/>
</g>
</g>
</svg>
        <g id="navigator" transform="translate(0 0)" fill="#404254">
                <rect fill="#f2f5e9" fill-opacity="0.5" stroke="#606060" stroke-width=".5" x="0" y="0" width="60" height="60"/>
                <use id="zoomplus" xlink:href="#zoomPlus" x="17" y="9" onmousedown="handleZoom(evt,'in')"/>
                <use id="zoomminus" xlink:href="#zoomMin" x="42" y="9" onmousedown="handleZoom(evt,'out')"/>
                <use id="reset" xlink:href="#resetDef" x="30" y="36" onmousedown="handleReset()"/>
                <g id="arrowUp" xlink:href="#dirArrow" transform="translate(30 24)" onmousedown="handlePan(0,-1)">
                  <use xlink:href="#rim" fill="#404040">
                        <set attributeName="fill" to="#808080" begin="arrowUp.mouseover" end="arrowUp.mouseout"/>
                  </use>
                  <path fill="none" stroke="white" stroke-width="1.5" d="M0,-3.0v7 M-2.5,-0.5L0,-3.0L2.5,-0.5"/>
                </g>
                <g id="arrowRight" xlink:href="#dirArrow" transform="rotate(90) translate(36 -43)" onmousedown="handlePan(1,0)">
                  <use xlink:href="#rim" fill="#404040">
                        <set attributeName="fill" to="#808080" begin="arrowRight.mouseover" end="arrowRight.mouseout"/>
                  </use>
                  <path fill="none" stroke="white" stroke-width="1.5" d="M0,-3.0v7 M-2.5,-0.5L0,-3.0L2.5,-0.5"/>
                </g>
                <g id="arrowDown" xlink:href="#dirArrow" transform="rotate(180) translate(-30 -48)" onmousedown="handlePan(0,1)">
                  <use xlink:href="#rim" fill="#404040">
                        <set attributeName="fill" to="#808080" begin="arrowDown.mouseover" end="arrowDown.mouseout"/>
                  </use>
                  <path fill="none" stroke="white" stroke-width="1.5" d="M0,-3.0v7 M-2.5,-0.5L0,-3.0L2.5,-0.5"/>
                </g>
                <g id="arrowLeft" xlink:href="#dirArrow" transform="rotate(270) translate(-36 17)" onmousedown="handlePan(-1,0)">
                  <use xlink:href="#rim" fill="#404040">
                        <set attributeName="fill" to="#808080" begin="arrowLeft.mouseover" end="arrowLeft.mouseout"/>
                  </use>
                  <path fill="none" stroke="white" stroke-width="1.5" d="M0,-3.0v7 M-2.5,-0.5L0,-3.0L2.5,-0.5"/>
                </g>
        </g>
        <svg viewBox="0 0 15 15" width="100%" height="30px" preserveAspectRatio="xMaxYMin meet">
         <g id="arrow_out" transform="scale(0.3 0.3)">
          <a xlink:href="a00340_a1a141bb2d1d8b67737119e0729c7d159_cgraph_org.svg" target="_base">
           <rect id="button" ry="5" rx="5" y="6" x="6" height="38" width="38"
                fill="#f2f5e9" fill-opacity="0.5" stroke="#606060" stroke-width="1.0"/>
           <path id="arrow"
             d="M 11.500037,31.436501 C 11.940474,20.09759 22.043105,11.32322 32.158766,21.979434 L 37.068811,17.246167 C 37.068811,17.246167 37.088388,32 37.088388,32 L 22.160133,31.978069 C 22.160133,31.978069 26.997745,27.140456 26.997745,27.140456 C 18.528582,18.264221 13.291696,25.230495 11.500037,31.436501 z"
             style="fill:#404040;"/>
          </a>
         </g>
        </svg>
</svg>
