<?xml version="1.0" encoding="UTF-8" standalone="no"?>
<!DOCTYPE svg PUBLIC "-//W3C//DTD SVG 1.1//EN"
 "http://www.w3.org/Graphics/SVG/1.1/DTD/svg11.dtd">
<!-- Generated by graphviz version 2.47.1 (20210417.1919)
 -->
<!-- Title: CO_Security_Login\i_am_a_god Pages: 1 -->
<svg width="451pt" height="225pt"
 viewBox="0.00 0.00 451.00 225.00" xmlns="http://www.w3.org/2000/svg" xmlns:xlink="http://www.w3.org/1999/xlink">
<g id="graph0" class="graph" transform="scale(1 1) rotate(0) translate(4 221)">
<title>CO_Security_Login\i_am_a_god</title>
<polygon fill="white" stroke="transparent" points="-4,4 -4,-221 447,-221 447,4 -4,4"/>
<!-- Node1 -->
<g id="node1" class="node">
<title>Node1</title>
<g id="a_node1"><a xlink:title=" ">
<polygon fill="#bfbfbf" stroke="black" points="336,-90.5 336,-120.5 443,-120.5 443,-90.5 336,-90.5"/>
<text text-anchor="start" x="344" y="-108.5" font-family="Helvetica,sans-Serif" font-size="10.00">CO_Security_Login\i</text>
<text text-anchor="middle" x="389.5" y="-97.5" font-family="Helvetica,sans-Serif" font-size="10.00">_am_a_god</text>
</a>
</g>
</g>
<!-- Node2 -->
<g id="node2" class="node">
<title>Node2</title>
<g id="a_node2"><a xlink:href="a00340.html#aecb158735e3a185c0857c44bf60f45f0" target="_top" xlink:title=" ">
<polygon fill="white" stroke="black" points="179.5,-137.5 179.5,-167.5 297.5,-167.5 297.5,-137.5 179.5,-137.5"/>
<text text-anchor="start" x="187.5" y="-155.5" font-family="Helvetica,sans-Serif" font-size="10.00">CO_Security_Login\get</text>
<text text-anchor="middle" x="238.5" y="-144.5" font-family="Helvetica,sans-Serif" font-size="10.00">_api_key</text>
</a>
</g>
</g>
<!-- Node1&#45;&gt;Node2 -->
<g id="edge1" class="edge">
<title>Node1&#45;&gt;Node2</title>
<path fill="none" stroke="midnightblue" d="M331.06,-123.62C316.54,-128.2 301.1,-133.07 287.11,-137.48"/>
<polygon fill="midnightblue" stroke="midnightblue" points="332.46,-126.85 340.95,-120.5 330.36,-120.17 332.46,-126.85"/>
</g>
<!-- Node5 -->
<g id="node5" class="node">
<title>Node5</title>
<g id="a_node5"><a xlink:href="a00340.html#aba256552040dd8af7196f0fea2a58609" target="_top" xlink:title=" ">
<polygon fill="white" stroke="black" points="177,-66.5 177,-96.5 300,-96.5 300,-66.5 177,-66.5"/>
<text text-anchor="start" x="185" y="-84.5" font-family="Helvetica,sans-Serif" font-size="10.00">CO_Security_Login\user</text>
<text text-anchor="middle" x="238.5" y="-73.5" font-family="Helvetica,sans-Serif" font-size="10.00">_can_write</text>
</a>
</g>
</g>
<!-- Node1&#45;&gt;Node5 -->
<g id="edge4" class="edge">
<title>Node1&#45;&gt;Node5</title>
<path fill="none" stroke="midnightblue" d="M326.06,-95.44C317.5,-94.06 308.73,-92.65 300.21,-91.28"/>
<polygon fill="midnightblue" stroke="midnightblue" points="325.54,-98.9 335.97,-97.04 326.65,-91.99 325.54,-98.9"/>
</g>
<!-- Node3 -->
<g id="node3" class="node">
<title>Node3</title>
<g id="a_node3"><a xlink:href="a00340.html#aa5c815210d09779bd16fc72ddd0fce59" target="_top" xlink:title=" ">
<polygon fill="white" stroke="black" points="14.5,-186.5 14.5,-216.5 126.5,-216.5 126.5,-186.5 14.5,-186.5"/>
<text text-anchor="start" x="22.5" y="-204.5" font-family="Helvetica,sans-Serif" font-size="10.00">CO_Security_Login\is</text>
<text text-anchor="middle" x="70.5" y="-193.5" font-family="Helvetica,sans-Serif" font-size="10.00">_api_key_valid</text>
</a>
</g>
</g>
<!-- Node2&#45;&gt;Node3 -->
<g id="edge2" class="edge">
<title>Node2&#45;&gt;Node3</title>
<path fill="none" stroke="midnightblue" d="M176.63,-170.47C158.85,-175.72 139.6,-181.4 122.49,-186.45"/>
<polygon fill="midnightblue" stroke="midnightblue" points="177.74,-173.79 186.34,-167.6 175.76,-167.08 177.74,-173.79"/>
</g>
<!-- Node4 -->
<g id="node4" class="node">
<title>Node4</title>
<g id="a_node4"><a xlink:href="a00340.html#a5ec502fbeb3620816dbcf4868da637e8" target="_top" xlink:title=" ">
<polygon fill="white" stroke="black" points="14.5,-137.5 14.5,-167.5 126.5,-167.5 126.5,-137.5 14.5,-137.5"/>
<text text-anchor="start" x="22.5" y="-155.5" font-family="Helvetica,sans-Serif" font-size="10.00">CO_Security_Login\is</text>
<text text-anchor="middle" x="70.5" y="-144.5" font-family="Helvetica,sans-Serif" font-size="10.00">_login_valid</text>
</a>
</g>
</g>
<!-- Node2&#45;&gt;Node4 -->
<g id="edge3" class="edge">
<title>Node2&#45;&gt;Node4</title>
<path fill="none" stroke="midnightblue" d="M169.26,-152.5C155.11,-152.5 140.36,-152.5 126.74,-152.5"/>
<polygon fill="midnightblue" stroke="midnightblue" points="169.44,-156 179.44,-152.5 169.44,-149 169.44,-156"/>
</g>
<!-- Node6 -->
<g id="node6" class="node">
<title>Node6</title>
<g id="a_node6"><a xlink:href="a00340.html#ae927630811dae37fddc34b16878c63fd" target="_top" xlink:title=" ">
<polygon fill="white" stroke="black" points="5,-88.5 5,-118.5 136,-118.5 136,-88.5 5,-88.5"/>
<text text-anchor="start" x="13" y="-106.5" font-family="Helvetica,sans-Serif" font-size="10.00">CO_Security_Login\delete</text>
<text text-anchor="middle" x="70.5" y="-95.5" font-family="Helvetica,sans-Serif" font-size="10.00">_from_db</text>
</a>
</g>
</g>
<!-- Node5&#45;&gt;Node6 -->
<g id="edge5" class="edge">
<title>Node5&#45;&gt;Node6</title>
<path fill="none" stroke="midnightblue" d="M166.65,-90.89C156.56,-92.23 146.23,-93.6 136.27,-94.92"/>
<polygon fill="midnightblue" stroke="midnightblue" points="167.18,-94.35 176.63,-89.57 166.26,-87.41 167.18,-94.35"/>
</g>
<!-- Node7 -->
<g id="node7" class="node">
<title>Node7</title>
<g id="a_node7"><a xlink:href="a00340.html#a061f896c69dc8a8dd3d9ee793b91ddc7" target="_top" xlink:title=" ">
<polygon fill="white" stroke="black" points="0,-50 0,-69 141,-69 141,-50 0,-50"/>
<text text-anchor="middle" x="70.5" y="-57" font-family="Helvetica,sans-Serif" font-size="10.00">CO_Security_Login\set_lang</text>
</a>
</g>
</g>
<!-- Node5&#45;&gt;Node7 -->
<g id="edge6" class="edge">
<title>Node5&#45;&gt;Node7</title>
<path fill="none" stroke="midnightblue" d="M166.47,-72.09C158.05,-70.97 149.46,-69.83 141.07,-68.72"/>
<polygon fill="midnightblue" stroke="midnightblue" points="166.26,-75.59 176.63,-73.43 167.18,-68.65 166.26,-75.59"/>
</g>
<!-- Node8 -->
<g id="node8" class="node">
<title>Node8</title>
<g id="a_node8"><a xlink:href="a00340.html#ac4f0c16cb8cf1e2151451bf4d5cb2238" target="_top" xlink:title=" ">
<polygon fill="white" stroke="black" points="5,-0.5 5,-30.5 136,-30.5 136,-0.5 5,-0.5"/>
<text text-anchor="start" x="13" y="-18.5" font-family="Helvetica,sans-Serif" font-size="10.00">CO_Security_Login\set</text>
<text text-anchor="middle" x="70.5" y="-7.5" font-family="Helvetica,sans-Serif" font-size="10.00">_password_from_cleartext</text>
</a>
</g>
</g>
<!-- Node5&#45;&gt;Node8 -->
<g id="edge7" class="edge">
<title>Node5&#45;&gt;Node8</title>
<path fill="none" stroke="midnightblue" d="M193.91,-62.36C177.42,-55.29 158.43,-47.33 141,-40.5 132.52,-37.18 123.4,-33.78 114.65,-30.59"/>
<polygon fill="midnightblue" stroke="midnightblue" points="192.74,-65.67 203.3,-66.42 195.51,-59.24 192.74,-65.67"/>
</g>
</g>
</svg>
