<?xml version="1.0" encoding="UTF-8" standalone="no"?>
<!DOCTYPE svg PUBLIC "-//W3C//DTD SVG 1.1//EN"
 "http://www.w3.org/Graphics/SVG/1.1/DTD/svg11.dtd">
<!-- Generated by graphviz version 2.40.1 (20161225.0304)
 -->
<!-- Title: CO_Security_Node\add_id Pages: 1 -->
<!--zoomable 189 -->
<svg id="main" version="1.1" xmlns="http://www.w3.org/2000/svg" xmlns:xlink="http://www.w3.org/1999/xlink" xml:space="preserve" onload="init(evt)">
<style type="text/css"><![CDATA[
.edge:hover path { stroke: red; }
.edge:hover polygon { stroke: red; fill: red; }
]]></style>
<script type="text/javascript"><![CDATA[
var edges = document.getElementsByTagName('g');
if (edges && edges.length) {
  for (var i=0;i<edges.length;i++) {
    if (edges[i].id.substr(0,4)=='edge') {
      edges[i].setAttribute('class','edge');
    }
  }
}
]]></script>
        <defs>
                <circle id="rim" cx="0" cy="0" r="7"/>
                <circle id="rim2" cx="0" cy="0" r="3.5"/>
                <g id="zoomPlus">
                        <use xlink:href="#rim" fill="#404040">
                                <set attributeName="fill" to="#808080" begin="zoomplus.mouseover" end="zoomplus.mouseout"/>
                        </use>
                        <path d="M-4,0h8M0,-4v8" fill="none" stroke="white" stroke-width="1.5" pointer-events="none"/>
                </g>
                <g id="zoomMin">
                        <use xlink:href="#rim" fill="#404040">
                                <set attributeName="fill" to="#808080" begin="zoomminus.mouseover" end="zoomminus.mouseout"/>
                        </use>
                        <path d="M-4,0h8" fill="none" stroke="white" stroke-width="1.5" pointer-events="none"/>
                </g>
                <g id="dirArrow">
                        <path fill="none" stroke="white" stroke-width="1.5" d="M0,-3.0v7 M-2.5,-0.5L0,-3.0L2.5,-0.5"/>
                </g>
               <g id="resetDef">
                       <use xlink:href="#rim2" fill="#404040">
                               <set attributeName="fill" to="#808080" begin="reset.mouseover" end="reset.mouseout"/>
                       </use>
               </g>
        </defs>

<script type="text/javascript">
var viewWidth = 788;
var viewHeight = 189;
var sectionId = 'dynsection-2';
</script>
<script xlink:href="svgpan.js"/>
<svg id="graph" class="graph">
<g id="viewport">
<title>CO_Security_Node\add_id</title>
<polygon fill="#ffffff" stroke="transparent" points="-4,4 -4,-185 783.8691,-185 783.8691,4 -4,4"/>
<!-- Node1 -->
<g id="node1" class="node">
<title>Node1</title>
<g id="a_node1"><a xlink:title=" ">
<polygon fill="#bfbfbf" stroke="#000000" points="0,-114.5 0,-132.5 134.96,-132.5 134.96,-114.5 0,-114.5"/>
<text text-anchor="middle" x="67.48" y="-120.5" font-family="Helvetica,sans-Serif" font-size="10.00" fill="#000000">CO_Security_Node\add_id</text>
</a>
</g>
</g>
<!-- Node2 -->
<g id="node2" class="node">
<title>Node2</title>
<g id="a_node2"><a xlink:href="a00311.html#a8780b40e55827b90bb441671faec2a05" target="_top" xlink:title=" ">
<polygon fill="#ffffff" stroke="#000000" points="490.0723,-97.5 490.0723,-125.5 610.5791,-125.5 610.5791,-97.5 490.0723,-97.5"/>
<text text-anchor="start" x="498.0723" y="-113.5" font-family="Helvetica,sans-Serif" font-size="10.00" fill="#000000">A_CO_DB_Table_Base</text>
<text text-anchor="middle" x="550.3257" y="-103.5" font-family="Helvetica,sans-Serif" font-size="10.00" fill="#000000">\get_access_object</text>
</a>
</g>
</g>
<!-- Node1&#45;&gt;Node2 -->
<g id="edge1" class="edge">
<title>Node1&#45;&gt;Node2</title>
<path fill="none" stroke="#191970" d="M135.126,-121.8188C226.186,-119.5557 387.4123,-115.5488 479.8834,-113.2507"/>
<polygon fill="#191970" stroke="#191970" points="480.0757,-116.7471 489.9857,-112.9996 479.9018,-109.7492 480.0757,-116.7471"/>
</g>
<!-- Node3 -->
<g id="node3" class="node">
<title>Node3</title>
<g id="a_node3"><a xlink:href="a00311.html#a7487697640051c6661b8cdca6f109959" target="_top" xlink:title=" ">
<polygon fill="#ffffff" stroke="#000000" points="172.8984,-66.5 172.8984,-94.5 293.4053,-94.5 293.4053,-66.5 172.8984,-66.5"/>
<text text-anchor="start" x="180.8984" y="-82.5" font-family="Helvetica,sans-Serif" font-size="10.00" fill="#000000">A_CO_DB_Table_Base</text>
<text text-anchor="middle" x="233.1519" y="-72.5" font-family="Helvetica,sans-Serif" font-size="10.00" fill="#000000">\update_db</text>
</a>
</g>
</g>
<!-- Node1&#45;&gt;Node3 -->
<g id="edge2" class="edge">
<title>Node1&#45;&gt;Node3</title>
<path fill="none" stroke="#191970" d="M102.2102,-114.4858C121.5509,-109.4659 146.2457,-103.0564 168.9661,-97.1594"/>
<polygon fill="#191970" stroke="#191970" points="170.0993,-100.4813 178.8993,-94.5812 168.3407,-93.7058 170.0993,-100.4813"/>
</g>
<!-- Node9 -->
<g id="node9" class="node">
<title>Node9</title>
<g id="a_node9"><a xlink:href="a00331.html#a96f66bb905272a8f499456d97f79fa05" target="_top" xlink:title=" ">
<polygon fill="#ffffff" stroke="#000000" points="170.96,-152.5 170.96,-180.5 295.3438,-180.5 295.3438,-152.5 170.96,-152.5"/>
<text text-anchor="start" x="178.96" y="-168.5" font-family="Helvetica,sans-Serif" font-size="10.00" fill="#000000">CO_Security_Node\user</text>
<text text-anchor="middle" x="233.1519" y="-158.5" font-family="Helvetica,sans-Serif" font-size="10.00" fill="#000000">_can_edit_ids</text>
</a>
</g>
</g>
<!-- Node1&#45;&gt;Node9 -->
<g id="edge11" class="edge">
<title>Node1&#45;&gt;Node9</title>
<path fill="none" stroke="#191970" d="M102.2102,-132.5142C121.5509,-137.5341 146.2457,-143.9436 168.9661,-149.8406"/>
<polygon fill="#191970" stroke="#191970" points="168.3407,-153.2942 178.8993,-152.4188 170.0993,-146.5187 168.3407,-153.2942"/>
</g>
<!-- Node4 -->
<g id="node4" class="node">
<title>Node4</title>
<g id="a_node4"><a xlink:href="a00311.html#adda14b544e11934db3bf8130aeea0610" target="_top" xlink:title=" ">
<polygon fill="#ffffff" stroke="#000000" points="331.3438,-19.5 331.3438,-47.5 451.8506,-47.5 451.8506,-19.5 331.3438,-19.5"/>
<text text-anchor="start" x="339.3438" y="-35.5" font-family="Helvetica,sans-Serif" font-size="10.00" fill="#000000">A_CO_DB_Table_Base</text>
<text text-anchor="middle" x="391.5972" y="-25.5" font-family="Helvetica,sans-Serif" font-size="10.00" fill="#000000">\_write_to_db</text>
</a>
</g>
</g>
<!-- Node3&#45;&gt;Node4 -->
<g id="edge3" class="edge">
<title>Node3&#45;&gt;Node4</title>
<path fill="none" stroke="#191970" d="M280.6907,-66.3985C297.6881,-61.3565 317.0153,-55.6234 334.7207,-50.3714"/>
<polygon fill="#191970" stroke="#191970" points="335.7734,-53.71 344.3651,-47.5106 333.7826,-46.999 335.7734,-53.71"/>
</g>
<!-- Node8 -->
<g id="node8" class="node">
<title>Node8</title>
<g id="a_node8"><a xlink:href="a00311.html#a7d2537d7675ca572ad78096784fe4fe4" target="_top" xlink:title=" ">
<polygon fill="#ffffff" stroke="#000000" points="331.3438,-66.5 331.3438,-94.5 451.8506,-94.5 451.8506,-66.5 331.3438,-66.5"/>
<text text-anchor="start" x="339.3438" y="-82.5" font-family="Helvetica,sans-Serif" font-size="10.00" fill="#000000">A_CO_DB_Table_Base</text>
<text text-anchor="middle" x="391.5972" y="-72.5" font-family="Helvetica,sans-Serif" font-size="10.00" fill="#000000">\user_can_write</text>
</a>
</g>
</g>
<!-- Node3&#45;&gt;Node8 -->
<g id="edge9" class="edge">
<title>Node3&#45;&gt;Node8</title>
<path fill="none" stroke="#191970" d="M293.5052,-80.5C302.4645,-80.5 311.7656,-80.5 320.9131,-80.5"/>
<polygon fill="#191970" stroke="#191970" points="321.1493,-84.0001 331.1493,-80.5 321.1492,-77.0001 321.1493,-84.0001"/>
</g>
<!-- Node4&#45;&gt;Node2 -->
<g id="edge7" class="edge">
<title>Node4&#45;&gt;Node2</title>
<path fill="none" stroke="#191970" d="M430.8365,-47.5335C437.9071,-50.3287 445.1551,-53.3724 451.8506,-56.5 474.721,-67.1834 499.5277,-81.0531 518.5218,-92.1915"/>
<polygon fill="#191970" stroke="#191970" points="516.957,-95.3324 527.3453,-97.4141 520.5226,-89.3085 516.957,-95.3324"/>
</g>
<!-- Node5 -->
<g id="node5" class="node">
<title>Node5</title>
<g id="a_node5"><a xlink:href="a00311.html#a6109c37c5e61ab04ea710b1ebb7615a5" target="_top" xlink:title=" ">
<polygon fill="#ffffff" stroke="#000000" points="487.8506,-.5 487.8506,-28.5 612.8008,-28.5 612.8008,-.5 487.8506,-.5"/>
<text text-anchor="start" x="495.8506" y="-16.5" font-family="Helvetica,sans-Serif" font-size="10.00" fill="#000000">A_CO_DB_Table_Base</text>
<text text-anchor="middle" x="550.3257" y="-6.5" font-family="Helvetica,sans-Serif" font-size="10.00" fill="#000000">\_build_parameter_array</text>
</a>
</g>
</g>
<!-- Node4&#45;&gt;Node5 -->
<g id="edge4" class="edge">
<title>Node4&#45;&gt;Node5</title>
<path fill="none" stroke="#191970" d="M452.0584,-26.2627C460.4334,-25.2602 469.1067,-24.222 477.6748,-23.1964"/>
<polygon fill="#191970" stroke="#191970" points="478.1474,-26.6649 487.6605,-22.0011 477.3154,-19.7145 478.1474,-26.6649"/>
</g>
<!-- Node7 -->
<g id="node7" class="node">
<title>Node7</title>
<g id="a_node7"><a xlink:href="a00311.html#a78affe18a811930d4012fd265e95cdca" target="_top" xlink:title=" ">
<polygon fill="#ffffff" stroke="#000000" points="648.8008,-47.5 648.8008,-65.5 779.8691,-65.5 779.8691,-47.5 648.8008,-47.5"/>
<text text-anchor="middle" x="714.335" y="-53.5" font-family="Helvetica,sans-Serif" font-size="10.00" fill="#000000">A_CO_DB_Table_Base\id</text>
</a>
</g>
</g>
<!-- Node4&#45;&gt;Node7 -->
<g id="edge8" class="edge">
<title>Node4&#45;&gt;Node7</title>
<path fill="none" stroke="#191970" d="M451.9231,-37.7991C504.7613,-41.5647 581.7844,-47.0537 638.7262,-51.1117"/>
<polygon fill="#191970" stroke="#191970" points="638.5325,-54.6067 648.756,-51.8265 639.0302,-47.6244 638.5325,-54.6067"/>
</g>
<!-- Node6 -->
<g id="node6" class="node">
<title>Node6</title>
<g id="a_node6"><a xlink:href="a00311.html#afb32d1e32b8e1c1de2e008c9b88f7846" target="_top" xlink:title=" ">
<polygon fill="#ffffff" stroke="#000000" points="654.0815,-.5 654.0815,-28.5 774.5884,-28.5 774.5884,-.5 654.0815,-.5"/>
<text text-anchor="start" x="662.0815" y="-16.5" font-family="Helvetica,sans-Serif" font-size="10.00" fill="#000000">A_CO_DB_Table_Base</text>
<text text-anchor="middle" x="714.335" y="-6.5" font-family="Helvetica,sans-Serif" font-size="10.00" fill="#000000">\_badger_serialize</text>
</a>
</g>
</g>
<!-- Node5&#45;&gt;Node6 -->
<g id="edge5" class="edge">
<title>Node5&#45;&gt;Node6</title>
<path fill="none" stroke="#191970" d="M613.2669,-14.5C623.2941,-14.5 633.7238,-14.5 643.9103,-14.5"/>
<polygon fill="#191970" stroke="#191970" points="643.9918,-18.0001 653.9918,-14.5 643.9917,-11.0001 643.9918,-18.0001"/>
</g>
<!-- Node5&#45;&gt;Node7 -->
<g id="edge6" class="edge">
<title>Node5&#45;&gt;Node7</title>
<path fill="none" stroke="#191970" d="M605.3947,-28.6022C625.9986,-33.8786 649.1546,-39.8084 668.8025,-44.8399"/>
<polygon fill="#191970" stroke="#191970" points="668.1696,-48.2907 678.7253,-47.381 669.9062,-41.5095 668.1696,-48.2907"/>
</g>
<!-- Node8&#45;&gt;Node2 -->
<g id="edge10" class="edge">
<title>Node8&#45;&gt;Node2</title>
<path fill="none" stroke="#191970" d="M452.0584,-92.3082C461.1946,-94.0925 470.6855,-95.9461 480.0078,-97.7668"/>
<polygon fill="#191970" stroke="#191970" points="479.5471,-101.2428 490.0325,-99.7246 480.8889,-94.3726 479.5471,-101.2428"/>
</g>
<!-- Node9&#45;&gt;Node2 -->
<g id="edge12" class="edge">
<title>Node9&#45;&gt;Node2</title>
<path fill="none" stroke="#191970" d="M295.7115,-160.3282C339.634,-155.4782 399.6212,-147.815 451.8506,-137.5 464.9829,-134.9064 478.9598,-131.5732 492.1333,-128.1644"/>
<polygon fill="#191970" stroke="#191970" points="493.2477,-131.4903 502.0233,-125.5541 491.4612,-124.722 493.2477,-131.4903"/>
</g>
</g>
</svg>
        <g id="navigator" transform="translate(0 0)" fill="#404254">
                <rect fill="#f2f5e9" fill-opacity="0.5" stroke="#606060" stroke-width=".5" x="0" y="0" width="60" height="60"/>
                <use id="zoomplus" xlink:href="#zoomPlus" x="17" y="9" onmousedown="handleZoom(evt,'in')"/>
                <use id="zoomminus" xlink:href="#zoomMin" x="42" y="9" onmousedown="handleZoom(evt,'out')"/>
                <use id="reset" xlink:href="#resetDef" x="30" y="36" onmousedown="handleReset()"/>
                <g id="arrowUp" xlink:href="#dirArrow" transform="translate(30 24)" onmousedown="handlePan(0,-1)">
                  <use xlink:href="#rim" fill="#404040">
                        <set attributeName="fill" to="#808080" begin="arrowUp.mouseover" end="arrowUp.mouseout"/>
                  </use>
                  <path fill="none" stroke="white" stroke-width="1.5" d="M0,-3.0v7 M-2.5,-0.5L0,-3.0L2.5,-0.5"/>
                </g>
                <g id="arrowRight" xlink:href="#dirArrow" transform="rotate(90) translate(36 -43)" onmousedown="handlePan(1,0)">
                  <use xlink:href="#rim" fill="#404040">
                        <set attributeName="fill" to="#808080" begin="arrowRight.mouseover" end="arrowRight.mouseout"/>
                  </use>
                  <path fill="none" stroke="white" stroke-width="1.5" d="M0,-3.0v7 M-2.5,-0.5L0,-3.0L2.5,-0.5"/>
                </g>
                <g id="arrowDown" xlink:href="#dirArrow" transform="rotate(180) translate(-30 -48)" onmousedown="handlePan(0,1)">
                  <use xlink:href="#rim" fill="#404040">
                        <set attributeName="fill" to="#808080" begin="arrowDown.mouseover" end="arrowDown.mouseout"/>
                  </use>
                  <path fill="none" stroke="white" stroke-width="1.5" d="M0,-3.0v7 M-2.5,-0.5L0,-3.0L2.5,-0.5"/>
                </g>
                <g id="arrowLeft" xlink:href="#dirArrow" transform="rotate(270) translate(-36 17)" onmousedown="handlePan(-1,0)">
                  <use xlink:href="#rim" fill="#404040">
                        <set attributeName="fill" to="#808080" begin="arrowLeft.mouseover" end="arrowLeft.mouseout"/>
                  </use>
                  <path fill="none" stroke="white" stroke-width="1.5" d="M0,-3.0v7 M-2.5,-0.5L0,-3.0L2.5,-0.5"/>
                </g>
        </g>
        <svg viewBox="0 0 15 15" width="100%" height="30px" preserveAspectRatio="xMaxYMin meet">
         <g id="arrow_out" transform="scale(0.3 0.3)">
          <a xlink:href="a00331_a4a3ed38130b49569d494ec7c262ca32d_cgraph_org.svg" target="_base">
           <rect id="button" ry="5" rx="5" y="6" x="6" height="38" width="38"
                fill="#f2f5e9" fill-opacity="0.5" stroke="#606060" stroke-width="1.0"/>
           <path id="arrow"
             d="M 11.500037,31.436501 C 11.940474,20.09759 22.043105,11.32322 32.158766,21.979434 L 37.068811,17.246167 C 37.068811,17.246167 37.088388,32 37.088388,32 L 22.160133,31.978069 C 22.160133,31.978069 26.997745,27.140456 26.997745,27.140456 C 18.528582,18.264221 13.291696,25.230495 11.500037,31.436501 z"
             style="fill:#404040;"/>
          </a>
         </g>
        </svg>
</svg>
