<?xml version="1.0" encoding="UTF-8" standalone="no"?>
<!DOCTYPE svg PUBLIC "-//W3C//DTD SVG 1.1//EN"
 "http://www.w3.org/Graphics/SVG/1.1/DTD/svg11.dtd">
<!-- Generated by graphviz version 2.40.1 (20161225.0304)
 -->
<!-- Title: CO_Access\get_login_id Pages: 1 -->
<svg width="493pt" height="208pt"
 viewBox="0.00 0.00 492.62 208.00" xmlns="http://www.w3.org/2000/svg" xmlns:xlink="http://www.w3.org/1999/xlink">
<g id="graph0" class="graph" transform="scale(1 1) rotate(0) translate(4 204)">
<title>CO_Access\get_login_id</title>
<polygon fill="#ffffff" stroke="transparent" points="-4,4 -4,-204 488.624,-204 488.624,4 -4,4"/>
<!-- Node1 -->
<g id="node1" class="node">
<title>Node1</title>
<g id="a_node1"><a xlink:title=" ">
<polygon fill="#bfbfbf" stroke="#000000" points="359.1172,-92.5 359.1172,-110.5 484.624,-110.5 484.624,-92.5 359.1172,-92.5"/>
<text text-anchor="middle" x="421.8706" y="-98.5" font-family="Helvetica,sans-Serif" font-size="10.00" fill="#000000">CO_Access\get_login_id</text>
</a>
</g>
</g>
<!-- Node2 -->
<g id="node2" class="node">
<title>Node2</title>
<g id="a_node2"><a xlink:href="a00355.html#a115c46a27b51a3f2226125230fd6183d" target="_top" xlink:title=" ">
<polygon fill="#ffffff" stroke="#000000" points="185.9478,-171.5 185.9478,-199.5 316.4546,-199.5 316.4546,-171.5 185.9478,-171.5"/>
<text text-anchor="start" x="193.9478" y="-187.5" font-family="Helvetica,sans-Serif" font-size="10.00" fill="#000000">CO_Access\get_available</text>
<text text-anchor="middle" x="251.2012" y="-177.5" font-family="Helvetica,sans-Serif" font-size="10.00" fill="#000000">_tokens</text>
</a>
</g>
</g>
<!-- Node1&#45;&gt;Node2 -->
<g id="edge1" class="edge">
<title>Node1&#45;&gt;Node2</title>
<path fill="none" stroke="#191970" d="M400.9565,-116.5164C381.5233,-129.9508 351.4037,-149.478 323.1172,-162.5 315.9728,-165.789 308.227,-168.7997 300.5539,-171.4818"/>
<polygon fill="#191970" stroke="#191970" points="403.1566,-119.2485 409.3356,-110.6421 399.1382,-113.5167 403.1566,-119.2485"/>
</g>
<!-- Node3 -->
<g id="node3" class="node">
<title>Node3</title>
<g id="a_node3"><a xlink:href="a00355.html#a65c256cad68440723a8de979b1b7a1bb" target="_top" xlink:title=" ">
<polygon fill="#ffffff" stroke="#000000" points="182.8936,-134.5 182.8936,-152.5 319.5088,-152.5 319.5088,-134.5 182.8936,-134.5"/>
<text text-anchor="middle" x="251.2012" y="-140.5" font-family="Helvetica,sans-Serif" font-size="10.00" fill="#000000">CO_Access\get_login_item</text>
</a>
</g>
</g>
<!-- Node1&#45;&gt;Node3 -->
<g id="edge2" class="edge">
<title>Node1&#45;&gt;Node3</title>
<path fill="none" stroke="#191970" d="M375.4732,-112.9179C347.9949,-119.6801 313.6601,-128.1295 288.0476,-134.4325"/>
<polygon fill="#191970" stroke="#191970" points="376.3838,-116.2983 385.2577,-110.5101 374.711,-109.5011 376.3838,-116.2983"/>
</g>
<!-- Node7 -->
<g id="node7" class="node">
<title>Node7</title>
<g id="a_node7"><a xlink:href="a00355.html#aa6f82dc430e7a655e35e09b64c48fa46" target="_top" xlink:title=" ">
<polygon fill="#ffffff" stroke="#000000" points="179.2852,-50.5 179.2852,-68.5 323.1172,-68.5 323.1172,-50.5 179.2852,-50.5"/>
<text text-anchor="middle" x="251.2012" y="-56.5" font-family="Helvetica,sans-Serif" font-size="10.00" fill="#000000">CO_Access\get_security_ids</text>
</a>
</g>
</g>
<!-- Node1&#45;&gt;Node7 -->
<g id="edge6" class="edge">
<title>Node1&#45;&gt;Node7</title>
<path fill="none" stroke="#191970" d="M375.4732,-90.0821C347.9949,-83.3199 313.6601,-74.8705 288.0476,-68.5675"/>
<polygon fill="#191970" stroke="#191970" points="374.711,-93.4989 385.2577,-92.4899 376.3838,-86.7017 374.711,-93.4989"/>
</g>
<!-- Node9 -->
<g id="node9" class="node">
<title>Node9</title>
<g id="a_node9"><a xlink:href="a00299.html#a88b451020a7174eeb0c06e216ca517cf" target="_top" xlink:title=" ">
<polygon fill="#ffffff" stroke="#000000" points="186.502,-87.5 186.502,-115.5 315.9004,-115.5 315.9004,-87.5 186.502,-87.5"/>
<text text-anchor="start" x="194.502" y="-103.5" font-family="Helvetica,sans-Serif" font-size="10.00" fill="#000000">CO_Chameleon\get_user</text>
<text text-anchor="middle" x="251.2012" y="-93.5" font-family="Helvetica,sans-Serif" font-size="10.00" fill="#000000">_from_login</text>
</a>
</g>
</g>
<!-- Node1&#45;&gt;Node9 -->
<g id="edge8" class="edge">
<title>Node1&#45;&gt;Node9</title>
<path fill="none" stroke="#191970" d="M348.5357,-101.5C337.717,-101.5 326.6358,-101.5 316.0063,-101.5"/>
<polygon fill="#191970" stroke="#191970" points="348.8045,-105.0001 358.8045,-101.5 348.8045,-98.0001 348.8045,-105.0001"/>
</g>
<!-- Node10 -->
<g id="node10" class="node">
<title>Node10</title>
<g id="a_node10"><a xlink:href="a00355.html#a2249312ed569b15e5b6b15c0112ce83b" target="_top" xlink:title=" ">
<polygon fill="#ffffff" stroke="#000000" points="191.2358,-2.5 191.2358,-30.5 311.1665,-30.5 311.1665,-2.5 191.2358,-2.5"/>
<text text-anchor="start" x="199.2358" y="-18.5" font-family="Helvetica,sans-Serif" font-size="10.00" fill="#000000">CO_Access\make_new</text>
<text text-anchor="middle" x="251.2012" y="-8.5" font-family="Helvetica,sans-Serif" font-size="10.00" fill="#000000">_blank_record</text>
</a>
</g>
</g>
<!-- Node1&#45;&gt;Node10 -->
<g id="edge10" class="edge">
<title>Node1&#45;&gt;Node10</title>
<path fill="none" stroke="#191970" d="M400.514,-86.6998C380.9937,-73.6216 351.0042,-54.6377 323.1172,-41.5 314.6272,-37.5003 305.3147,-33.7962 296.289,-30.5314"/>
<polygon fill="#191970" stroke="#191970" points="398.7101,-89.7054 408.9507,-92.4224 402.6396,-83.9124 398.7101,-89.7054"/>
</g>
<!-- Node4 -->
<g id="node4" class="node">
<title>Node4</title>
<g id="a_node4"><a xlink:href="a00355.html#ae2a40cf404135bb4aae747c37520733e" target="_top" xlink:title=" ">
<polygon fill="#ffffff" stroke="#000000" points="16.6724,-170.5 16.6724,-188.5 126.6128,-188.5 126.6128,-170.5 16.6724,-170.5"/>
<text text-anchor="middle" x="71.6426" y="-176.5" font-family="Helvetica,sans-Serif" font-size="10.00" fill="#000000">CO_Access\get_lang</text>
</a>
</g>
</g>
<!-- Node3&#45;&gt;Node4 -->
<g id="edge3" class="edge">
<title>Node3&#45;&gt;Node4</title>
<path fill="none" stroke="#191970" d="M196.0059,-154.5662C170.542,-159.6715 140.6967,-165.6552 116.627,-170.481"/>
<polygon fill="#191970" stroke="#191970" points="196.7741,-157.9819 205.891,-152.5843 195.398,-151.1185 196.7741,-157.9819"/>
</g>
<!-- Node5 -->
<g id="node5" class="node">
<title>Node5</title>
<g id="a_node5"><a xlink:href="a00299.html#ac6ba71b99a641f6d19aa0a0d73997234" target="_top" xlink:title=" ">
<polygon fill="#ffffff" stroke="#000000" points="7.2168,-95.5 7.2168,-113.5 136.0684,-113.5 136.0684,-95.5 7.2168,-95.5"/>
<text text-anchor="middle" x="71.6426" y="-101.5" font-family="Helvetica,sans-Serif" font-size="10.00" fill="#000000">CO_Chameleon\get_lang</text>
</a>
</g>
</g>
<!-- Node3&#45;&gt;Node5 -->
<g id="edge4" class="edge">
<title>Node3&#45;&gt;Node5</title>
<path fill="none" stroke="#191970" d="M199.7567,-132.3263C172.3737,-126.3787 139.1326,-119.1588 113.373,-113.5638"/>
<polygon fill="#191970" stroke="#191970" points="199.0404,-135.7523 209.5555,-134.4546 200.5263,-128.9118 199.0404,-135.7523"/>
</g>
<!-- Node6 -->
<g id="node6" class="node">
<title>Node6</title>
<g id="a_node6"><a xlink:href="a00299.html#aa13745bd0d40cac3820bb3ae7f6d5fbb" target="_top" xlink:title=" ">
<polygon fill="#ffffff" stroke="#000000" points="0,-133.5 0,-151.5 143.2852,-151.5 143.2852,-133.5 0,-133.5"/>
<text text-anchor="middle" x="71.6426" y="-139.5" font-family="Helvetica,sans-Serif" font-size="10.00" fill="#000000">CO_Chameleon\test_access</text>
</a>
</g>
</g>
<!-- Node3&#45;&gt;Node6 -->
<g id="edge5" class="edge">
<title>Node3&#45;&gt;Node6</title>
<path fill="none" stroke="#191970" d="M172.7358,-143.063C162.9913,-143.0087 153.0662,-142.9535 143.4294,-142.8998"/>
<polygon fill="#191970" stroke="#191970" points="172.7862,-146.5632 182.8055,-143.1191 172.8252,-139.5634 172.7862,-146.5632"/>
</g>
<!-- Node8 -->
<g id="node8" class="node">
<title>Node8</title>
<g id="a_node8"><a xlink:href="a00355.html#ae548938d26a8e1c2f5378e94d2921419" target="_top" xlink:title=" ">
<polygon fill="#ffffff" stroke="#000000" points="10.5615,-47.5 10.5615,-75.5 132.7236,-75.5 132.7236,-47.5 10.5615,-47.5"/>
<text text-anchor="start" x="18.5615" y="-63.5" font-family="Helvetica,sans-Serif" font-size="10.00" fill="#000000">CO_Access\i_have_this</text>
<text text-anchor="middle" x="71.6426" y="-53.5" font-family="Helvetica,sans-Serif" font-size="10.00" fill="#000000">_token</text>
</a>
</g>
</g>
<!-- Node7&#45;&gt;Node8 -->
<g id="edge7" class="edge">
<title>Node7&#45;&gt;Node8</title>
<path fill="none" stroke="#191970" d="M169.0664,-60.4149C156.9235,-60.5501 144.5929,-60.6874 132.9715,-60.8169"/>
<polygon fill="#191970" stroke="#191970" points="169.2421,-63.9132 179.2024,-60.302 169.164,-56.9136 169.2421,-63.9132"/>
</g>
<!-- Node9&#45;&gt;Node5 -->
<g id="edge9" class="edge">
<title>Node9&#45;&gt;Node5</title>
<path fill="none" stroke="#191970" d="M176.2699,-102.7519C162.9122,-102.9751 149.1035,-103.2058 136.0711,-103.4236"/>
<polygon fill="#191970" stroke="#191970" points="176.4363,-106.2497 186.3764,-102.5831 176.3193,-99.2507 176.4363,-106.2497"/>
</g>
<!-- Node11 -->
<g id="node11" class="node">
<title>Node11</title>
<g id="a_node11"><a xlink:href="a00299.html#af193950805884bd481b8863ffd6d4fb1" target="_top" xlink:title=" ">
<polygon fill="#ffffff" stroke="#000000" points="4.9976,-.5 4.9976,-28.5 138.2876,-28.5 138.2876,-.5 4.9976,-.5"/>
<text text-anchor="start" x="12.9976" y="-16.5" font-family="Helvetica,sans-Serif" font-size="10.00" fill="#000000">CO_Chameleon\set_value</text>
<text text-anchor="middle" x="71.6426" y="-6.5" font-family="Helvetica,sans-Serif" font-size="10.00" fill="#000000">_for_key</text>
</a>
</g>
</g>
<!-- Node10&#45;&gt;Node11 -->
<g id="edge11" class="edge">
<title>Node10&#45;&gt;Node11</title>
<path fill="none" stroke="#191970" d="M180.9042,-15.717C166.9735,-15.5618 152.3853,-15.3993 138.5704,-15.2455"/>
<polygon fill="#191970" stroke="#191970" points="180.8729,-19.2168 190.9112,-15.8285 180.9509,-12.2172 180.8729,-19.2168"/>
</g>
</g>
</svg>
