<?xml version="1.0" encoding="UTF-8" standalone="no"?>
<!DOCTYPE svg PUBLIC "-//W3C//DTD SVG 1.1//EN"
 "http://www.w3.org/Graphics/SVG/1.1/DTD/svg11.dtd">
<!-- Generated by graphviz version 2.47.1 (20210417.1919)
 -->
<!-- Title: CO_LL_Location\update_db Pages: 1 -->
<svg width="605pt" height="88pt"
 viewBox="0.00 0.00 605.00 88.00" xmlns="http://www.w3.org/2000/svg" xmlns:xlink="http://www.w3.org/1999/xlink">
<g id="graph0" class="graph" transform="scale(1 1) rotate(0) translate(4 84)">
<title>CO_LL_Location\update_db</title>
<polygon fill="white" stroke="transparent" points="-4,4 -4,-84 601,-84 601,4 -4,4"/>
<!-- Node1 -->
<g id="node1" class="node">
<title>Node1</title>
<g id="a_node1"><a xlink:title=" ">
<polygon fill="#bfbfbf" stroke="black" points="460,-28 460,-47 597,-47 597,-28 460,-28"/>
<text text-anchor="middle" x="528.5" y="-35" font-family="Helvetica,sans-Serif" font-size="10.00">CO_LL_Location\update_db</text>
</a>
</g>
</g>
<!-- Node2 -->
<g id="node2" class="node">
<title>Node2</title>
<g id="a_node2"><a xlink:href="a00260.html#a7b99eb196e710f9cf14ad39601e2b3ad" target="_top" xlink:title=" ">
<polygon fill="white" stroke="black" points="306,-44.5 306,-74.5 424,-74.5 424,-44.5 306,-44.5"/>
<text text-anchor="start" x="314" y="-62.5" font-family="Helvetica,sans-Serif" font-size="10.00">CO_Place\set_address</text>
<text text-anchor="middle" x="365" y="-51.5" font-family="Helvetica,sans-Serif" font-size="10.00">_element</text>
</a>
</g>
</g>
<!-- Node1&#45;&gt;Node2 -->
<g id="edge1" class="edge">
<title>Node1&#45;&gt;Node2</title>
<path fill="none" stroke="midnightblue" d="M449.81,-48.08C441.14,-49.26 432.42,-50.45 424.06,-51.59"/>
<polygon fill="midnightblue" stroke="midnightblue" points="450.51,-51.52 459.95,-46.7 449.56,-44.58 450.51,-51.52"/>
</g>
<!-- Node4 -->
<g id="node4" class="node">
<title>Node4</title>
<g id="a_node4"><a xlink:href="a00260.html#a94507f0c219ba9bc342e40d6064941db" target="_top" xlink:title=" ">
<polygon fill="white" stroke="black" points="152,-0.5 152,-30.5 270,-30.5 270,-0.5 152,-0.5"/>
<text text-anchor="start" x="160" y="-18.5" font-family="Helvetica,sans-Serif" font-size="10.00">CO_Place\set_address</text>
<text text-anchor="middle" x="211" y="-7.5" font-family="Helvetica,sans-Serif" font-size="10.00">_elements</text>
</a>
</g>
</g>
<!-- Node1&#45;&gt;Node4 -->
<g id="edge5" class="edge">
<title>Node1&#45;&gt;Node4</title>
<path fill="none" stroke="midnightblue" d="M449.66,-32.07C394.08,-28.2 320.52,-23.07 270.04,-19.55"/>
<polygon fill="midnightblue" stroke="midnightblue" points="449.6,-35.58 459.82,-32.78 450.09,-28.59 449.6,-35.58"/>
</g>
<!-- Node3 -->
<g id="node3" class="node">
<title>Node3</title>
<g id="a_node3"><a xlink:href="a00260.html#a775079ce6d7951fc6597173ac55d0218" target="_top" xlink:title=" ">
<polygon fill="white" stroke="black" points="152,-49.5 152,-79.5 270,-79.5 270,-49.5 152,-49.5"/>
<text text-anchor="start" x="160" y="-67.5" font-family="Helvetica,sans-Serif" font-size="10.00">CO_Place\set_address</text>
<text text-anchor="middle" x="211" y="-56.5" font-family="Helvetica,sans-Serif" font-size="10.00">_element_by_key</text>
</a>
</g>
</g>
<!-- Node2&#45;&gt;Node3 -->
<g id="edge2" class="edge">
<title>Node2&#45;&gt;Node3</title>
<path fill="none" stroke="midnightblue" d="M295.46,-61.75C287.01,-62.03 278.45,-62.31 270.18,-62.59"/>
<polygon fill="midnightblue" stroke="midnightblue" points="295.79,-65.25 305.67,-61.42 295.56,-58.25 295.79,-65.25"/>
</g>
<!-- Node2&#45;&gt;Node4 -->
<g id="edge3" class="edge">
<title>Node2&#45;&gt;Node4</title>
<path fill="none" stroke="midnightblue" d="M302.47,-41.69C289.68,-37.98 276.31,-34.12 263.91,-30.53"/>
<polygon fill="midnightblue" stroke="midnightblue" points="301.54,-45.06 312.12,-44.48 303.48,-38.34 301.54,-45.06"/>
</g>
<!-- Node5 -->
<g id="node5" class="node">
<title>Node5</title>
<g id="a_node5"><a xlink:href="a00260.html#a0828fcac351a2f23404059be980e7b41" target="_top" xlink:title=" ">
<polygon fill="white" stroke="black" points="0,-6 0,-25 116,-25 116,-6 0,-6"/>
<text text-anchor="middle" x="58" y="-13" font-family="Helvetica,sans-Serif" font-size="10.00">CO_Place\__construct</text>
</a>
</g>
</g>
<!-- Node4&#45;&gt;Node5 -->
<g id="edge4" class="edge">
<title>Node4&#45;&gt;Node5</title>
<path fill="none" stroke="midnightblue" d="M141.43,-15.5C133,-15.5 124.46,-15.5 116.23,-15.5"/>
<polygon fill="midnightblue" stroke="midnightblue" points="141.62,-19 151.62,-15.5 141.62,-12 141.62,-19"/>
</g>
</g>
</svg>
