<?xml version="1.0" encoding="UTF-8" standalone="no"?>
<!DOCTYPE svg PUBLIC "-//W3C//DTD SVG 1.1//EN"
 "http://www.w3.org/Graphics/SVG/1.1/DTD/svg11.dtd">
<!-- Generated by graphviz version 2.40.1 (20161225.0304)
 -->
<!-- Title: A_CO_DB_Table_Base\delete_from_db Pages: 1 -->
<svg width="442pt" height="84pt"
 viewBox="0.00 0.00 441.52 84.00" xmlns="http://www.w3.org/2000/svg" xmlns:xlink="http://www.w3.org/1999/xlink">
<g id="graph0" class="graph" transform="scale(1 1) rotate(0) translate(4 80)">
<title>A_CO_DB_Table_Base\delete_from_db</title>
<polygon fill="#ffffff" stroke="transparent" points="-4,4 -4,-80 437.5205,-80 437.5205,4 -4,4"/>
<!-- Node1 -->
<g id="node1" class="node">
<title>Node1</title>
<g id="a_node1"><a xlink:title=" ">
<polygon fill="#bfbfbf" stroke="#000000" points="0,-23.5 0,-51.5 120.5068,-51.5 120.5068,-23.5 0,-23.5"/>
<text text-anchor="start" x="8" y="-39.5" font-family="Helvetica,sans-Serif" font-size="10.00" fill="#000000">A_CO_DB_Table_Base</text>
<text text-anchor="middle" x="60.2534" y="-29.5" font-family="Helvetica,sans-Serif" font-size="10.00" fill="#000000">\delete_from_db</text>
</a>
</g>
</g>
<!-- Node2 -->
<g id="node2" class="node">
<title>Node2</title>
<g id="a_node2"><a xlink:href="a00311.html#a5d6e21b94d1abeca9e47be0d9c681e55" target="_top" xlink:title=" ">
<polygon fill="#ffffff" stroke="#000000" points="156.5068,-47.5 156.5068,-75.5 277.0137,-75.5 277.0137,-47.5 156.5068,-47.5"/>
<text text-anchor="start" x="164.5068" y="-63.5" font-family="Helvetica,sans-Serif" font-size="10.00" fill="#000000">A_CO_DB_Table_Base</text>
<text text-anchor="middle" x="216.7603" y="-53.5" font-family="Helvetica,sans-Serif" font-size="10.00" fill="#000000">\_seppuku</text>
</a>
</g>
</g>
<!-- Node1&#45;&gt;Node2 -->
<g id="edge1" class="edge">
<title>Node1&#45;&gt;Node2</title>
<path fill="none" stroke="#191970" d="M120.763,-46.779C129.1713,-48.0684 137.868,-49.402 146.4366,-50.716"/>
<polygon fill="#191970" stroke="#191970" points="145.9965,-54.1894 156.4115,-52.2457 147.0576,-47.2702 145.9965,-54.1894"/>
</g>
<!-- Node3 -->
<g id="node3" class="node">
<title>Node3</title>
<g id="a_node3"><a xlink:href="a00311.html#a7d2537d7675ca572ad78096784fe4fe4" target="_top" xlink:title=" ">
<polygon fill="#ffffff" stroke="#000000" points="156.5068,-.5 156.5068,-28.5 277.0137,-28.5 277.0137,-.5 156.5068,-.5"/>
<text text-anchor="start" x="164.5068" y="-16.5" font-family="Helvetica,sans-Serif" font-size="10.00" fill="#000000">A_CO_DB_Table_Base</text>
<text text-anchor="middle" x="216.7603" y="-6.5" font-family="Helvetica,sans-Serif" font-size="10.00" fill="#000000">\user_can_write</text>
</a>
</g>
</g>
<!-- Node1&#45;&gt;Node3 -->
<g id="edge2" class="edge">
<title>Node1&#45;&gt;Node3</title>
<path fill="none" stroke="#191970" d="M120.763,-28.6076C129.1713,-27.3719 137.868,-26.0939 146.4366,-24.8347"/>
<polygon fill="#191970" stroke="#191970" points="147.0267,-28.2856 156.4115,-23.3688 146.0089,-21.36 147.0267,-28.2856"/>
</g>
<!-- Node4 -->
<g id="node4" class="node">
<title>Node4</title>
<g id="a_node4"><a xlink:href="a00311.html#a8780b40e55827b90bb441671faec2a05" target="_top" xlink:title=" ">
<polygon fill="#ffffff" stroke="#000000" points="313.0137,-.5 313.0137,-28.5 433.5205,-28.5 433.5205,-.5 313.0137,-.5"/>
<text text-anchor="start" x="321.0137" y="-16.5" font-family="Helvetica,sans-Serif" font-size="10.00" fill="#000000">A_CO_DB_Table_Base</text>
<text text-anchor="middle" x="373.2671" y="-6.5" font-family="Helvetica,sans-Serif" font-size="10.00" fill="#000000">\get_access_object</text>
</a>
</g>
</g>
<!-- Node3&#45;&gt;Node4 -->
<g id="edge3" class="edge">
<title>Node3&#45;&gt;Node4</title>
<path fill="none" stroke="#191970" d="M277.2699,-14.5C285.5867,-14.5 294.1858,-14.5 302.664,-14.5"/>
<polygon fill="#191970" stroke="#191970" points="302.9184,-18.0001 312.9184,-14.5 302.9183,-11.0001 302.9184,-18.0001"/>
</g>
</g>
</svg>
