<?xml version="1.0" encoding="UTF-8" standalone="no"?>
<!DOCTYPE svg PUBLIC "-//W3C//DTD SVG 1.1//EN"
 "http://www.w3.org/Graphics/SVG/1.1/DTD/svg11.dtd">
<!-- Generated by graphviz version 2.47.1 (20210417.1919)
 -->
<!-- Title: CO_Security_Login\i_am_a_god Pages: 1 -->
<svg width="451pt" height="274pt"
 viewBox="0.00 0.00 451.00 274.00" xmlns="http://www.w3.org/2000/svg" xmlns:xlink="http://www.w3.org/1999/xlink">
<g id="graph0" class="graph" transform="scale(1 1) rotate(0) translate(4 270)">
<title>CO_Security_Login\i_am_a_god</title>
<polygon fill="white" stroke="transparent" points="-4,4 -4,-270 447,-270 447,4 -4,4"/>
<!-- Node1 -->
<g id="node1" class="node">
<title>Node1</title>
<g id="a_node1"><a xlink:title=" ">
<polygon fill="#bfbfbf" stroke="black" points="336,-186.5 336,-216.5 443,-216.5 443,-186.5 336,-186.5"/>
<text text-anchor="start" x="344" y="-204.5" font-family="Helvetica,sans-Serif" font-size="10.00">CO_Security_Login\i</text>
<text text-anchor="middle" x="389.5" y="-193.5" font-family="Helvetica,sans-Serif" font-size="10.00">_am_a_god</text>
</a>
</g>
</g>
<!-- Node2 -->
<g id="node2" class="node">
<title>Node2</title>
<g id="a_node2"><a xlink:href="a00340.html#aecb158735e3a185c0857c44bf60f45f0" target="_top" xlink:title=" ">
<polygon fill="white" stroke="black" points="179.5,-186.5 179.5,-216.5 297.5,-216.5 297.5,-186.5 179.5,-186.5"/>
<text text-anchor="start" x="187.5" y="-204.5" font-family="Helvetica,sans-Serif" font-size="10.00">CO_Security_Login\get</text>
<text text-anchor="middle" x="238.5" y="-193.5" font-family="Helvetica,sans-Serif" font-size="10.00">_api_key</text>
</a>
</g>
</g>
<!-- Node1&#45;&gt;Node2 -->
<g id="edge1" class="edge">
<title>Node1&#45;&gt;Node2</title>
<path fill="none" stroke="midnightblue" d="M325.93,-201.5C316.55,-201.5 306.92,-201.5 297.64,-201.5"/>
<polygon fill="midnightblue" stroke="midnightblue" points="325.97,-205 335.97,-201.5 325.97,-198 325.97,-205"/>
</g>
<!-- Node3 -->
<g id="node3" class="node">
<title>Node3</title>
<g id="a_node3"><a xlink:href="a00340.html#ae37929d54934c063f8f78a3527cbbbba" target="_top" xlink:title=" ">
<polygon fill="white" stroke="black" points="11.5,-235.5 11.5,-265.5 129.5,-265.5 129.5,-235.5 11.5,-235.5"/>
<text text-anchor="start" x="19.5" y="-253.5" font-family="Helvetica,sans-Serif" font-size="10.00">CO_Security_Login\get</text>
<text text-anchor="middle" x="70.5" y="-242.5" font-family="Helvetica,sans-Serif" font-size="10.00">_remaining_time</text>
</a>
</g>
</g>
<!-- Node1&#45;&gt;Node3 -->
<g id="edge5" class="edge">
<title>Node1&#45;&gt;Node3</title>
<path fill="none" stroke="midnightblue" d="M331.32,-219.19C320.97,-221.95 310.22,-224.54 300,-226.5 242.61,-237.54 176.08,-243.8 129.66,-247.14"/>
<polygon fill="midnightblue" stroke="midnightblue" points="332.38,-222.53 341.09,-216.5 330.52,-215.78 332.38,-222.53"/>
</g>
<!-- Node6 -->
<g id="node6" class="node">
<title>Node6</title>
<g id="a_node6"><a xlink:href="a00340.html#aba256552040dd8af7196f0fea2a58609" target="_top" xlink:title=" ">
<polygon fill="white" stroke="black" points="177,-66.5 177,-96.5 300,-96.5 300,-66.5 177,-66.5"/>
<text text-anchor="start" x="185" y="-84.5" font-family="Helvetica,sans-Serif" font-size="10.00">CO_Security_Login\user</text>
<text text-anchor="middle" x="238.5" y="-73.5" font-family="Helvetica,sans-Serif" font-size="10.00">_can_write</text>
</a>
</g>
</g>
<!-- Node1&#45;&gt;Node6 -->
<g id="edge6" class="edge">
<title>Node1&#45;&gt;Node6</title>
<path fill="none" stroke="midnightblue" d="M361.71,-179.92C331.85,-155.87 284.33,-117.61 258.22,-96.57"/>
<polygon fill="midnightblue" stroke="midnightblue" points="359.65,-182.76 369.63,-186.3 364.04,-177.3 359.65,-182.76"/>
</g>
<!-- Node2&#45;&gt;Node3 -->
<g id="edge2" class="edge">
<title>Node2&#45;&gt;Node3</title>
<path fill="none" stroke="midnightblue" d="M176.63,-219.47C158.85,-224.72 139.6,-230.4 122.49,-235.45"/>
<polygon fill="midnightblue" stroke="midnightblue" points="177.74,-222.79 186.34,-216.6 175.76,-216.08 177.74,-222.79"/>
</g>
<!-- Node4 -->
<g id="node4" class="node">
<title>Node4</title>
<g id="a_node4"><a xlink:href="a00340.html#aa5c815210d09779bd16fc72ddd0fce59" target="_top" xlink:title=" ">
<polygon fill="white" stroke="black" points="14.5,-186.5 14.5,-216.5 126.5,-216.5 126.5,-186.5 14.5,-186.5"/>
<text text-anchor="start" x="22.5" y="-204.5" font-family="Helvetica,sans-Serif" font-size="10.00">CO_Security_Login\is</text>
<text text-anchor="middle" x="70.5" y="-193.5" font-family="Helvetica,sans-Serif" font-size="10.00">_api_key_valid</text>
</a>
</g>
</g>
<!-- Node2&#45;&gt;Node4 -->
<g id="edge3" class="edge">
<title>Node2&#45;&gt;Node4</title>
<path fill="none" stroke="midnightblue" d="M169.26,-201.5C155.11,-201.5 140.36,-201.5 126.74,-201.5"/>
<polygon fill="midnightblue" stroke="midnightblue" points="169.44,-205 179.44,-201.5 169.44,-198 169.44,-205"/>
</g>
<!-- Node5 -->
<g id="node5" class="node">
<title>Node5</title>
<g id="a_node5"><a xlink:href="a00340.html#a5ec502fbeb3620816dbcf4868da637e8" target="_top" xlink:title=" ">
<polygon fill="white" stroke="black" points="14.5,-137.5 14.5,-167.5 126.5,-167.5 126.5,-137.5 14.5,-137.5"/>
<text text-anchor="start" x="22.5" y="-155.5" font-family="Helvetica,sans-Serif" font-size="10.00">CO_Security_Login\is</text>
<text text-anchor="middle" x="70.5" y="-144.5" font-family="Helvetica,sans-Serif" font-size="10.00">_login_valid</text>
</a>
</g>
</g>
<!-- Node2&#45;&gt;Node5 -->
<g id="edge4" class="edge">
<title>Node2&#45;&gt;Node5</title>
<path fill="none" stroke="midnightblue" d="M176.63,-183.53C158.85,-178.28 139.6,-172.6 122.49,-167.55"/>
<polygon fill="midnightblue" stroke="midnightblue" points="175.76,-186.92 186.34,-186.4 177.74,-180.21 175.76,-186.92"/>
</g>
<!-- Node7 -->
<g id="node7" class="node">
<title>Node7</title>
<g id="a_node7"><a xlink:href="a00340.html#ae927630811dae37fddc34b16878c63fd" target="_top" xlink:title=" ">
<polygon fill="white" stroke="black" points="5,-88.5 5,-118.5 136,-118.5 136,-88.5 5,-88.5"/>
<text text-anchor="start" x="13" y="-106.5" font-family="Helvetica,sans-Serif" font-size="10.00">CO_Security_Login\delete</text>
<text text-anchor="middle" x="70.5" y="-95.5" font-family="Helvetica,sans-Serif" font-size="10.00">_from_db</text>
</a>
</g>
</g>
<!-- Node6&#45;&gt;Node7 -->
<g id="edge7" class="edge">
<title>Node6&#45;&gt;Node7</title>
<path fill="none" stroke="midnightblue" d="M166.65,-90.89C156.56,-92.23 146.23,-93.6 136.27,-94.92"/>
<polygon fill="midnightblue" stroke="midnightblue" points="167.18,-94.35 176.63,-89.57 166.26,-87.41 167.18,-94.35"/>
</g>
<!-- Node8 -->
<g id="node8" class="node">
<title>Node8</title>
<g id="a_node8"><a xlink:href="a00340.html#a061f896c69dc8a8dd3d9ee793b91ddc7" target="_top" xlink:title=" ">
<polygon fill="white" stroke="black" points="0,-50 0,-69 141,-69 141,-50 0,-50"/>
<text text-anchor="middle" x="70.5" y="-57" font-family="Helvetica,sans-Serif" font-size="10.00">CO_Security_Login\set_lang</text>
</a>
</g>
</g>
<!-- Node6&#45;&gt;Node8 -->
<g id="edge8" class="edge">
<title>Node6&#45;&gt;Node8</title>
<path fill="none" stroke="midnightblue" d="M166.47,-72.09C158.05,-70.97 149.46,-69.83 141.07,-68.72"/>
<polygon fill="midnightblue" stroke="midnightblue" points="166.26,-75.59 176.63,-73.43 167.18,-68.65 166.26,-75.59"/>
</g>
<!-- Node9 -->
<g id="node9" class="node">
<title>Node9</title>
<g id="a_node9"><a xlink:href="a00340.html#ac4f0c16cb8cf1e2151451bf4d5cb2238" target="_top" xlink:title=" ">
<polygon fill="white" stroke="black" points="5,-0.5 5,-30.5 136,-30.5 136,-0.5 5,-0.5"/>
<text text-anchor="start" x="13" y="-18.5" font-family="Helvetica,sans-Serif" font-size="10.00">CO_Security_Login\set</text>
<text text-anchor="middle" x="70.5" y="-7.5" font-family="Helvetica,sans-Serif" font-size="10.00">_password_from_cleartext</text>
</a>
</g>
</g>
<!-- Node6&#45;&gt;Node9 -->
<g id="edge9" class="edge">
<title>Node6&#45;&gt;Node9</title>
<path fill="none" stroke="midnightblue" d="M193.91,-62.36C177.42,-55.29 158.43,-47.33 141,-40.5 132.52,-37.18 123.4,-33.78 114.65,-30.59"/>
<polygon fill="midnightblue" stroke="midnightblue" points="192.74,-65.67 203.3,-66.42 195.51,-59.24 192.74,-65.67"/>
</g>
</g>
</svg>
