<?xml version="1.0" encoding="UTF-8" standalone="no"?>
<!DOCTYPE svg PUBLIC "-//W3C//DTD SVG 1.1//EN"
 "http://www.w3.org/Graphics/SVG/1.1/DTD/svg11.dtd">
<!-- Generated by graphviz version 2.40.1 (20161225.0304)
 -->
<!-- Title: CO_Security_Login\set_ids Pages: 1 -->
<svg width="791pt" height="189pt"
 viewBox="0.00 0.00 790.65 189.00" xmlns="http://www.w3.org/2000/svg" xmlns:xlink="http://www.w3.org/1999/xlink">
<g id="graph0" class="graph" transform="scale(1 1) rotate(0) translate(4 185)">
<title>CO_Security_Login\set_ids</title>
<polygon fill="#ffffff" stroke="transparent" points="-4,4 -4,-185 786.6475,-185 786.6475,4 -4,4"/>
<!-- Node1 -->
<g id="node1" class="node">
<title>Node1</title>
<g id="a_node1"><a xlink:title=" ">
<polygon fill="#bfbfbf" stroke="#000000" points="0,-114.5 0,-132.5 137.1768,-132.5 137.1768,-114.5 0,-114.5"/>
<text text-anchor="middle" x="68.5884" y="-120.5" font-family="Helvetica,sans-Serif" font-size="10.00" fill="#000000">CO_Security_Login\set_ids</text>
</a>
</g>
</g>
<!-- Node2 -->
<g id="node2" class="node">
<title>Node2</title>
<g id="a_node2"><a xlink:href="a00308.html#a8780b40e55827b90bb441671faec2a05" target="_top" xlink:title=" ">
<polygon fill="#ffffff" stroke="#000000" points="492.8506,-97.5 492.8506,-125.5 613.3574,-125.5 613.3574,-97.5 492.8506,-97.5"/>
<text text-anchor="start" x="500.8506" y="-113.5" font-family="Helvetica,sans-Serif" font-size="10.00" fill="#000000">A_CO_DB_Table_Base</text>
<text text-anchor="middle" x="553.104" y="-103.5" font-family="Helvetica,sans-Serif" font-size="10.00" fill="#000000">\get_access_object</text>
</a>
</g>
</g>
<!-- Node1&#45;&gt;Node2 -->
<g id="edge1" class="edge">
<title>Node1&#45;&gt;Node2</title>
<path fill="none" stroke="#191970" d="M137.2364,-121.7998C228.8281,-119.5313 390.1711,-115.5354 482.6629,-113.2446"/>
<polygon fill="#191970" stroke="#191970" points="482.8569,-116.741 492.7671,-112.9944 482.6835,-109.7431 482.8569,-116.741"/>
</g>
<!-- Node3 -->
<g id="node3" class="node">
<title>Node3</title>
<g id="a_node3"><a xlink:href="a00308.html#a7487697640051c6661b8cdca6f109959" target="_top" xlink:title=" ">
<polygon fill="#ffffff" stroke="#000000" points="175.396,-66.5 175.396,-94.5 295.9028,-94.5 295.9028,-66.5 175.396,-66.5"/>
<text text-anchor="start" x="183.396" y="-82.5" font-family="Helvetica,sans-Serif" font-size="10.00" fill="#000000">A_CO_DB_Table_Base</text>
<text text-anchor="middle" x="235.6494" y="-72.5" font-family="Helvetica,sans-Serif" font-size="10.00" fill="#000000">\update_db</text>
</a>
</g>
</g>
<!-- Node1&#45;&gt;Node3 -->
<g id="edge2" class="edge">
<title>Node1&#45;&gt;Node3</title>
<path fill="none" stroke="#191970" d="M103.6098,-114.4858C123.2001,-109.4434 148.238,-102.9989 171.2336,-97.08"/>
<polygon fill="#191970" stroke="#191970" points="172.1301,-100.4635 180.942,-94.5812 170.3852,-93.6844 172.1301,-100.4635"/>
</g>
<!-- Node9 -->
<g id="node9" class="node">
<title>Node9</title>
<g id="a_node9"><a xlink:href="a00340.html#a946d1fc04964f6f0b55c8cc018bf2c70" target="_top" xlink:title=" ">
<polygon fill="#ffffff" stroke="#000000" points="173.1768,-152.5 173.1768,-180.5 298.1221,-180.5 298.1221,-152.5 173.1768,-152.5"/>
<text text-anchor="start" x="181.1768" y="-168.5" font-family="Helvetica,sans-Serif" font-size="10.00" fill="#000000">CO_Security_Login\user</text>
<text text-anchor="middle" x="235.6494" y="-158.5" font-family="Helvetica,sans-Serif" font-size="10.00" fill="#000000">_can_edit_ids</text>
</a>
</g>
</g>
<!-- Node1&#45;&gt;Node9 -->
<g id="edge11" class="edge">
<title>Node1&#45;&gt;Node9</title>
<path fill="none" stroke="#191970" d="M103.6098,-132.5142C123.2001,-137.5566 148.238,-144.0011 171.2336,-149.92"/>
<polygon fill="#191970" stroke="#191970" points="170.3852,-153.3156 180.942,-152.4188 172.1301,-146.5365 170.3852,-153.3156"/>
</g>
<!-- Node4 -->
<g id="node4" class="node">
<title>Node4</title>
<g id="a_node4"><a xlink:href="a00308.html#adda14b544e11934db3bf8130aeea0610" target="_top" xlink:title=" ">
<polygon fill="#ffffff" stroke="#000000" points="334.1221,-19.5 334.1221,-47.5 454.6289,-47.5 454.6289,-19.5 334.1221,-19.5"/>
<text text-anchor="start" x="342.1221" y="-35.5" font-family="Helvetica,sans-Serif" font-size="10.00" fill="#000000">A_CO_DB_Table_Base</text>
<text text-anchor="middle" x="394.3755" y="-25.5" font-family="Helvetica,sans-Serif" font-size="10.00" fill="#000000">\_write_to_db</text>
</a>
</g>
</g>
<!-- Node3&#45;&gt;Node4 -->
<g id="edge3" class="edge">
<title>Node3&#45;&gt;Node4</title>
<path fill="none" stroke="#191970" d="M283.2725,-66.3985C300.3,-61.3565 319.6615,-55.6234 337.3982,-50.3714"/>
<polygon fill="#191970" stroke="#191970" points="338.465,-53.7058 347.0597,-47.5106 336.4775,-46.9939 338.465,-53.7058"/>
</g>
<!-- Node8 -->
<g id="node8" class="node">
<title>Node8</title>
<g id="a_node8"><a xlink:href="a00308.html#a7d2537d7675ca572ad78096784fe4fe4" target="_top" xlink:title=" ">
<polygon fill="#ffffff" stroke="#000000" points="334.1221,-66.5 334.1221,-94.5 454.6289,-94.5 454.6289,-66.5 334.1221,-66.5"/>
<text text-anchor="start" x="342.1221" y="-82.5" font-family="Helvetica,sans-Serif" font-size="10.00" fill="#000000">A_CO_DB_Table_Base</text>
<text text-anchor="middle" x="394.3755" y="-72.5" font-family="Helvetica,sans-Serif" font-size="10.00" fill="#000000">\user_can_write</text>
</a>
</g>
</g>
<!-- Node3&#45;&gt;Node8 -->
<g id="edge9" class="edge">
<title>Node3&#45;&gt;Node8</title>
<path fill="none" stroke="#191970" d="M296.1097,-80.5C305.2457,-80.5 314.7366,-80.5 324.0587,-80.5"/>
<polygon fill="#191970" stroke="#191970" points="324.0833,-84.0001 334.0833,-80.5 324.0832,-77.0001 324.0833,-84.0001"/>
</g>
<!-- Node4&#45;&gt;Node2 -->
<g id="edge7" class="edge">
<title>Node4&#45;&gt;Node2</title>
<path fill="none" stroke="#191970" d="M433.6149,-47.5335C440.6855,-50.3287 447.9334,-53.3724 454.6289,-56.5 477.4993,-67.1834 502.306,-81.0531 521.3002,-92.1915"/>
<polygon fill="#191970" stroke="#191970" points="519.7353,-95.3324 530.1237,-97.4141 523.3009,-89.3085 519.7353,-95.3324"/>
</g>
<!-- Node5 -->
<g id="node5" class="node">
<title>Node5</title>
<g id="a_node5"><a xlink:href="a00308.html#a6109c37c5e61ab04ea710b1ebb7615a5" target="_top" xlink:title=" ">
<polygon fill="#ffffff" stroke="#000000" points="490.6289,-.5 490.6289,-28.5 615.5791,-28.5 615.5791,-.5 490.6289,-.5"/>
<text text-anchor="start" x="498.6289" y="-16.5" font-family="Helvetica,sans-Serif" font-size="10.00" fill="#000000">A_CO_DB_Table_Base</text>
<text text-anchor="middle" x="553.104" y="-6.5" font-family="Helvetica,sans-Serif" font-size="10.00" fill="#000000">\_build_parameter_array</text>
</a>
</g>
</g>
<!-- Node4&#45;&gt;Node5 -->
<g id="edge4" class="edge">
<title>Node4&#45;&gt;Node5</title>
<path fill="none" stroke="#191970" d="M454.8367,-26.2627C463.2118,-25.2602 471.885,-24.222 480.4531,-23.1964"/>
<polygon fill="#191970" stroke="#191970" points="480.9257,-26.6649 490.4388,-22.0011 480.0937,-19.7145 480.9257,-26.6649"/>
</g>
<!-- Node7 -->
<g id="node7" class="node">
<title>Node7</title>
<g id="a_node7"><a xlink:href="a00308.html#a78affe18a811930d4012fd265e95cdca" target="_top" xlink:title=" ">
<polygon fill="#ffffff" stroke="#000000" points="651.5791,-47.5 651.5791,-65.5 782.6475,-65.5 782.6475,-47.5 651.5791,-47.5"/>
<text text-anchor="middle" x="717.1133" y="-53.5" font-family="Helvetica,sans-Serif" font-size="10.00" fill="#000000">A_CO_DB_Table_Base\id</text>
</a>
</g>
</g>
<!-- Node4&#45;&gt;Node7 -->
<g id="edge8" class="edge">
<title>Node4&#45;&gt;Node7</title>
<path fill="none" stroke="#191970" d="M454.7014,-37.7991C507.5396,-41.5647 584.5627,-47.0537 641.5045,-51.1117"/>
<polygon fill="#191970" stroke="#191970" points="641.3108,-54.6067 651.5344,-51.8265 641.8085,-47.6244 641.3108,-54.6067"/>
</g>
<!-- Node6 -->
<g id="node6" class="node">
<title>Node6</title>
<g id="a_node6"><a xlink:href="a00308.html#afb32d1e32b8e1c1de2e008c9b88f7846" target="_top" xlink:title=" ">
<polygon fill="#ffffff" stroke="#000000" points="656.8599,-.5 656.8599,-28.5 777.3667,-28.5 777.3667,-.5 656.8599,-.5"/>
<text text-anchor="start" x="664.8599" y="-16.5" font-family="Helvetica,sans-Serif" font-size="10.00" fill="#000000">A_CO_DB_Table_Base</text>
<text text-anchor="middle" x="717.1133" y="-6.5" font-family="Helvetica,sans-Serif" font-size="10.00" fill="#000000">\_badger_serialize</text>
</a>
</g>
</g>
<!-- Node5&#45;&gt;Node6 -->
<g id="edge5" class="edge">
<title>Node5&#45;&gt;Node6</title>
<path fill="none" stroke="#191970" d="M616.0452,-14.5C626.0724,-14.5 636.5021,-14.5 646.6886,-14.5"/>
<polygon fill="#191970" stroke="#191970" points="646.7701,-18.0001 656.7701,-14.5 646.77,-11.0001 646.7701,-18.0001"/>
</g>
<!-- Node5&#45;&gt;Node7 -->
<g id="edge6" class="edge">
<title>Node5&#45;&gt;Node7</title>
<path fill="none" stroke="#191970" d="M608.173,-28.6022C628.7769,-33.8786 651.9329,-39.8084 671.5809,-44.8399"/>
<polygon fill="#191970" stroke="#191970" points="670.9479,-48.2907 681.5036,-47.381 672.6845,-41.5095 670.9479,-48.2907"/>
</g>
<!-- Node8&#45;&gt;Node2 -->
<g id="edge10" class="edge">
<title>Node8&#45;&gt;Node2</title>
<path fill="none" stroke="#191970" d="M454.8367,-92.3082C463.9729,-94.0925 473.4639,-95.9461 482.7862,-97.7668"/>
<polygon fill="#191970" stroke="#191970" points="482.3254,-101.2428 492.8109,-99.7246 483.6672,-94.3726 482.3254,-101.2428"/>
</g>
<!-- Node9&#45;&gt;Node2 -->
<g id="edge12" class="edge">
<title>Node9&#45;&gt;Node2</title>
<path fill="none" stroke="#191970" d="M298.2895,-160.3337C342.2685,-155.4861 402.3328,-147.8236 454.6289,-137.5 467.7615,-134.9075 481.7384,-131.5747 494.912,-128.1661"/>
<polygon fill="#191970" stroke="#191970" points="496.0263,-131.4919 504.802,-125.5557 494.2399,-124.7237 496.0263,-131.4919"/>
</g>
</g>
</svg>
