<?xml version="1.0" encoding="UTF-8" standalone="no"?>
<!DOCTYPE svg PUBLIC "-//W3C//DTD SVG 1.1//EN"
 "http://www.w3.org/Graphics/SVG/1.1/DTD/svg11.dtd">
<!-- Generated by graphviz version 2.40.1 (20161225.0304)
 -->
<!-- Title: CO_Main_Data_DB\get_all_visible_users Pages: 1 -->
<svg width="469pt" height="74pt"
 viewBox="0.00 0.00 468.74 74.00" xmlns="http://www.w3.org/2000/svg" xmlns:xlink="http://www.w3.org/1999/xlink">
<g id="graph0" class="graph" transform="scale(1 1) rotate(0) translate(4 70)">
<title>CO_Main_Data_DB\get_all_visible_users</title>
<polygon fill="#ffffff" stroke="transparent" points="-4,4 -4,-70 464.7422,-70 464.7422,4 -4,4"/>
<!-- Node1 -->
<g id="node1" class="node">
<title>Node1</title>
<g id="a_node1"><a xlink:title=" ">
<polygon fill="#bfbfbf" stroke="#000000" points="0,-16.5 0,-44.5 121.0537,-44.5 121.0537,-16.5 0,-16.5"/>
<text text-anchor="start" x="8" y="-32.5" font-family="Helvetica,sans-Serif" font-size="10.00" fill="#000000">CO_Main_Data_DB\get</text>
<text text-anchor="middle" x="60.5269" y="-22.5" font-family="Helvetica,sans-Serif" font-size="10.00" fill="#000000">_all_visible_users</text>
</a>
</g>
</g>
<!-- Node2 -->
<g id="node2" class="node">
<title>Node2</title>
<g id="a_node2"><a xlink:href="a00307.html#a176b2c663fa7768e95e4fbe93281adc6" target="_top" xlink:title=" ">
<polygon fill="#ffffff" stroke="#000000" points="160.3887,-37.5 160.3887,-65.5 284.7822,-65.5 284.7822,-37.5 160.3887,-37.5"/>
<text text-anchor="start" x="168.3887" y="-53.5" font-family="Helvetica,sans-Serif" font-size="10.00" fill="#000000">A_CO_DB\_create_read</text>
<text text-anchor="middle" x="222.5854" y="-43.5" font-family="Helvetica,sans-Serif" font-size="10.00" fill="#000000">_security_predicate</text>
</a>
</g>
</g>
<!-- Node1&#45;&gt;Node2 -->
<g id="edge1" class="edge">
<title>Node1&#45;&gt;Node2</title>
<path fill="none" stroke="#191970" d="M121.3326,-38.3794C130.7981,-39.6059 140.657,-40.8835 150.3463,-42.139"/>
<polygon fill="#191970" stroke="#191970" points="149.9916,-45.6223 160.3585,-43.4365 150.8912,-38.6803 149.9916,-45.6223"/>
</g>
<!-- Node3 -->
<g id="node3" class="node">
<title>Node3</title>
<g id="a_node3"><a xlink:href="a00307.html#a2396849660aa4ff018ab7509a4badeb5" target="_top" xlink:title=" ">
<polygon fill="#ffffff" stroke="#000000" points="157.0537,-.5 157.0537,-18.5 288.1172,-18.5 288.1172,-.5 157.0537,-.5"/>
<text text-anchor="middle" x="222.5854" y="-6.5" font-family="Helvetica,sans-Serif" font-size="10.00" fill="#000000">A_CO_DB\execute_query</text>
</a>
</g>
</g>
<!-- Node1&#45;&gt;Node3 -->
<g id="edge2" class="edge">
<title>Node1&#45;&gt;Node3</title>
<path fill="none" stroke="#191970" d="M121.3326,-22.6206C129.66,-21.5415 138.2919,-20.423 146.8449,-19.3147"/>
<polygon fill="#191970" stroke="#191970" points="147.3588,-22.7774 156.8261,-18.0213 146.4592,-15.8355 147.3588,-22.7774"/>
</g>
<!-- Node4 -->
<g id="node4" class="node">
<title>Node4</title>
<g id="a_node4"><a xlink:href="a00307.html#ae41efbdfe739934823b5f4c785b22611" target="_top" xlink:title=" ">
<polygon fill="#ffffff" stroke="#000000" points="324.1172,-.5 324.1172,-18.5 460.7422,-18.5 460.7422,-.5 324.1172,-.5"/>
<text text-anchor="middle" x="392.4297" y="-6.5" font-family="Helvetica,sans-Serif" font-size="10.00" fill="#000000">A_CO_DB\_execute_query</text>
</a>
</g>
</g>
<!-- Node3&#45;&gt;Node4 -->
<g id="edge3" class="edge">
<title>Node3&#45;&gt;Node4</title>
<path fill="none" stroke="#191970" d="M288.2517,-9.5C296.5472,-9.5 305.1016,-9.5 313.575,-9.5"/>
<polygon fill="#191970" stroke="#191970" points="313.8477,-13.0001 323.8476,-9.5 313.8476,-6.0001 313.8477,-13.0001"/>
</g>
</g>
</svg>
