<?xml version="1.0" encoding="UTF-8" standalone="no"?>
<!DOCTYPE svg PUBLIC "-//W3C//DTD SVG 1.1//EN"
 "http://www.w3.org/Graphics/SVG/1.1/DTD/svg11.dtd">
<!-- Generated by graphviz version 2.40.1 (20161225.0304)
 -->
<!-- Title: CO_Access\security_db_available Pages: 1 -->
<svg width="452pt" height="262pt"
 viewBox="0.00 0.00 452.02 262.00" xmlns="http://www.w3.org/2000/svg" xmlns:xlink="http://www.w3.org/1999/xlink">
<g id="graph0" class="graph" transform="scale(1 1) rotate(0) translate(4 258)">
<title>CO_Access\security_db_available</title>
<polygon fill="#ffffff" stroke="transparent" points="-4,4 -4,-258 448.0186,-258 448.0186,4 -4,4"/>
<!-- Node1 -->
<g id="node1" class="node">
<title>Node1</title>
<g id="a_node1"><a xlink:title=" ">
<polygon fill="#bfbfbf" stroke="#000000" points="337.9941,-107.5 337.9941,-135.5 444.0186,-135.5 444.0186,-107.5 337.9941,-107.5"/>
<text text-anchor="start" x="345.9941" y="-123.5" font-family="Helvetica,sans-Serif" font-size="10.00" fill="#000000">CO_Access\security</text>
<text text-anchor="middle" x="391.0063" y="-113.5" font-family="Helvetica,sans-Serif" font-size="10.00" fill="#000000">_db_available</text>
</a>
</g>
</g>
<!-- Node2 -->
<g id="node2" class="node">
<title>Node2</title>
<g id="a_node2"><a xlink:href="a00355.html#a78b40b6d7e4af9b87523b3ba8b272cee" target="_top" xlink:title=" ">
<polygon fill="#ffffff" stroke="#000000" points="168.1597,-225.5 168.1597,-253.5 292.5435,-253.5 292.5435,-225.5 168.1597,-225.5"/>
<text text-anchor="start" x="176.1597" y="-241.5" font-family="Helvetica,sans-Serif" font-size="10.00" fill="#000000">CO_Access\check_login</text>
<text text-anchor="middle" x="230.3516" y="-231.5" font-family="Helvetica,sans-Serif" font-size="10.00" fill="#000000">_exists</text>
</a>
</g>
</g>
<!-- Node1&#45;&gt;Node2 -->
<g id="edge1" class="edge">
<title>Node1&#45;&gt;Node2</title>
<path fill="none" stroke="#191970" d="M375.4559,-143.7703C359.3703,-165.2554 332.3751,-197.2708 301.9941,-216.5 296.5855,-219.9233 290.6227,-222.8788 284.5159,-225.4201"/>
<polygon fill="#191970" stroke="#191970" points="378.3886,-145.6893 381.4636,-135.5505 372.7371,-141.5587 378.3886,-145.6893"/>
</g>
<!-- Node4 -->
<g id="node4" class="node">
<title>Node4</title>
<g id="a_node4"><a xlink:href="a00355.html#a230fb285585783de4008259505a1618e" target="_top" xlink:title=" ">
<polygon fill="#ffffff" stroke="#000000" points="168.1597,-178.5 168.1597,-206.5 292.5435,-206.5 292.5435,-178.5 168.1597,-178.5"/>
<text text-anchor="start" x="176.1597" y="-194.5" font-family="Helvetica,sans-Serif" font-size="10.00" fill="#000000">CO_Access\check_login</text>
<text text-anchor="middle" x="230.3516" y="-184.5" font-family="Helvetica,sans-Serif" font-size="10.00" fill="#000000">_exists_by_login_string</text>
</a>
</g>
</g>
<!-- Node1&#45;&gt;Node4 -->
<g id="edge3" class="edge">
<title>Node1&#45;&gt;Node4</title>
<path fill="none" stroke="#191970" d="M359.0173,-140.6033C342.3753,-150.0612 321.4843,-161.1999 301.9941,-169.5 294.4223,-172.7245 286.2385,-175.7549 278.2023,-178.4914"/>
<polygon fill="#191970" stroke="#191970" points="360.8713,-143.5746 367.7898,-135.5506 357.3775,-137.5088 360.8713,-143.5746"/>
</g>
<!-- Node5 -->
<g id="node5" class="node">
<title>Node5</title>
<g id="a_node5"><a xlink:href="a00355.html#a2fbe1324f57f4424bc61c0338fbe589b" target="_top" xlink:title=" ">
<polygon fill="#ffffff" stroke="#000000" points="173.7114,-131.5 173.7114,-159.5 286.9917,-159.5 286.9917,-131.5 173.7114,-131.5"/>
<text text-anchor="start" x="181.7114" y="-147.5" font-family="Helvetica,sans-Serif" font-size="10.00" fill="#000000">CO_Access\get_login</text>
<text text-anchor="middle" x="230.3516" y="-137.5" font-family="Helvetica,sans-Serif" font-size="10.00" fill="#000000">_item_by_login_string</text>
</a>
</g>
</g>
<!-- Node1&#45;&gt;Node5 -->
<g id="edge4" class="edge">
<title>Node1&#45;&gt;Node5</title>
<path fill="none" stroke="#191970" d="M327.8597,-130.9334C314.4506,-132.9366 300.3715,-135.0398 287.2132,-137.0055"/>
<polygon fill="#191970" stroke="#191970" points="328.5836,-134.3642 337.9567,-129.425 327.5493,-127.441 328.5836,-134.3642"/>
</g>
<!-- Node6 -->
<g id="node6" class="node">
<title>Node6</title>
<g id="a_node6"><a xlink:href="a00355.html#ae548938d26a8e1c2f5378e94d2921419" target="_top" xlink:title=" ">
<polygon fill="#ffffff" stroke="#000000" points="169.2705,-84.5 169.2705,-112.5 291.4326,-112.5 291.4326,-84.5 169.2705,-84.5"/>
<text text-anchor="start" x="177.2705" y="-100.5" font-family="Helvetica,sans-Serif" font-size="10.00" fill="#000000">CO_Access\i_have_this</text>
<text text-anchor="middle" x="230.3516" y="-90.5" font-family="Helvetica,sans-Serif" font-size="10.00" fill="#000000">_token</text>
</a>
</g>
</g>
<!-- Node1&#45;&gt;Node6 -->
<g id="edge5" class="edge">
<title>Node1&#45;&gt;Node6</title>
<path fill="none" stroke="#191970" d="M327.7046,-112.4375C315.8552,-110.7411 303.4878,-108.9705 291.6988,-107.2827"/>
<polygon fill="#191970" stroke="#191970" points="327.5616,-115.9526 337.9567,-113.9052 328.5537,-109.0232 327.5616,-115.9526"/>
</g>
<!-- Node7 -->
<g id="node7" class="node">
<title>Node7</title>
<g id="a_node7"><a xlink:href="a00299.html#af193950805884bd481b8863ffd6d4fb1" target="_top" xlink:title=" ">
<polygon fill="#ffffff" stroke="#000000" points="163.7065,-37.5 163.7065,-65.5 296.9966,-65.5 296.9966,-37.5 163.7065,-37.5"/>
<text text-anchor="start" x="171.7065" y="-53.5" font-family="Helvetica,sans-Serif" font-size="10.00" fill="#000000">CO_Chameleon\set_value</text>
<text text-anchor="middle" x="230.3516" y="-43.5" font-family="Helvetica,sans-Serif" font-size="10.00" fill="#000000">_for_key</text>
</a>
</g>
</g>
<!-- Node1&#45;&gt;Node7 -->
<g id="edge6" class="edge">
<title>Node1&#45;&gt;Node7</title>
<path fill="none" stroke="#191970" d="M357.0168,-102.3715C340.6646,-93.5759 320.61,-83.3732 301.9941,-75.5 293.6581,-71.9744 284.6111,-68.6058 275.8419,-65.5657"/>
<polygon fill="#191970" stroke="#191970" points="355.7217,-105.6515 366.178,-107.3594 359.0689,-99.5037 355.7217,-105.6515"/>
</g>
<!-- Node8 -->
<g id="node8" class="node">
<title>Node8</title>
<g id="a_node8"><a xlink:href="a00299.html#aa13745bd0d40cac3820bb3ae7f6d5fbb" target="_top" xlink:title=" ">
<polygon fill="#ffffff" stroke="#000000" points="158.709,-.5 158.709,-18.5 301.9941,-18.5 301.9941,-.5 158.709,-.5"/>
<text text-anchor="middle" x="230.3516" y="-6.5" font-family="Helvetica,sans-Serif" font-size="10.00" fill="#000000">CO_Chameleon\test_access</text>
</a>
</g>
</g>
<!-- Node1&#45;&gt;Node8 -->
<g id="edge7" class="edge">
<title>Node1&#45;&gt;Node8</title>
<path fill="none" stroke="#191970" d="M375.2912,-99.0222C359.2515,-77.7497 332.4423,-46.4741 301.9941,-28.5 295.013,-24.3789 287.129,-21.1355 279.2094,-18.5873"/>
<polygon fill="#191970" stroke="#191970" points="372.547,-101.1986 381.289,-107.1843 378.1878,-97.0535 372.547,-101.1986"/>
</g>
<!-- Node3 -->
<g id="node3" class="node">
<title>Node3</title>
<g id="a_node3"><a xlink:href="a00355.html#a96c5de557dbba65d1fc15f58cfd01255" target="_top" xlink:title=" ">
<polygon fill="#ffffff" stroke="#000000" points="0,-225.5 0,-253.5 122.709,-253.5 122.709,-225.5 0,-225.5"/>
<text text-anchor="start" x="8" y="-241.5" font-family="Helvetica,sans-Serif" font-size="10.00" fill="#000000">CO_Access\check_user</text>
<text text-anchor="middle" x="61.3545" y="-231.5" font-family="Helvetica,sans-Serif" font-size="10.00" fill="#000000">_exists</text>
</a>
</g>
</g>
<!-- Node2&#45;&gt;Node3 -->
<g id="edge2" class="edge">
<title>Node2&#45;&gt;Node3</title>
<path fill="none" stroke="#191970" d="M157.8096,-239.5C146.208,-239.5 134.2994,-239.5 122.9827,-239.5"/>
<polygon fill="#191970" stroke="#191970" points="157.9035,-243.0001 167.9034,-239.5 157.9034,-236.0001 157.9035,-243.0001"/>
</g>
</g>
</svg>
