<?xml version="1.0" encoding="UTF-8" standalone="no"?>
<!DOCTYPE svg PUBLIC "-//W3C//DTD SVG 1.1//EN"
 "http://www.w3.org/Graphics/SVG/1.1/DTD/svg11.dtd">
<!-- Generated by graphviz version 2.47.1 (20210417.1919)
 -->
<!-- Title: CO_Security_DB\is_this_a_personal_id Pages: 1 -->
<svg width="631pt" height="50pt"
 viewBox="0.00 0.00 631.00 50.00" xmlns="http://www.w3.org/2000/svg" xmlns:xlink="http://www.w3.org/1999/xlink">
<g id="graph0" class="graph" transform="scale(1 1) rotate(0) translate(4 46)">
<title>CO_Security_DB\is_this_a_personal_id</title>
<polygon fill="white" stroke="transparent" points="-4,4 -4,-46 627,-46 627,4 -4,4"/>
<!-- Node1 -->
<g id="node1" class="node">
<title>Node1</title>
<g id="a_node1"><a xlink:title=" ">
<polygon fill="#bfbfbf" stroke="black" points="0,-6 0,-36 124,-36 124,-6 0,-6"/>
<text text-anchor="start" x="8" y="-24" font-family="Helvetica,sans-Serif" font-size="10.00">CO_Security_DB\is_this</text>
<text text-anchor="middle" x="62" y="-13" font-family="Helvetica,sans-Serif" font-size="10.00">_a_personal_id</text>
</a>
</g>
</g>
<!-- Node2 -->
<g id="node2" class="node">
<title>Node2</title>
<g id="a_node2"><a xlink:href="a00324.html#ade2e3afd7cb253a8d3683cf0bb043674" target="_top" xlink:title=" ">
<polygon fill="white" stroke="black" points="160,-0.5 160,-41.5 286,-41.5 286,-0.5 160,-0.5"/>
<text text-anchor="start" x="168" y="-29.5" font-family="Helvetica,sans-Serif" font-size="10.00">CO_Security_DB\get</text>
<text text-anchor="start" x="168" y="-18.5" font-family="Helvetica,sans-Serif" font-size="10.00">_all_personal_ids_except</text>
<text text-anchor="middle" x="223" y="-7.5" font-family="Helvetica,sans-Serif" font-size="10.00">_for_id</text>
</a>
</g>
</g>
<!-- Node1&#45;&gt;Node2 -->
<g id="edge1" class="edge">
<title>Node1&#45;&gt;Node2</title>
<path fill="none" stroke="midnightblue" d="M124.02,-21C132.45,-21 141.18,-21 149.8,-21"/>
<polygon fill="midnightblue" stroke="midnightblue" points="149.83,-24.5 159.83,-21 149.83,-17.5 149.83,-24.5"/>
</g>
<!-- Node3 -->
<g id="node3" class="node">
<title>Node3</title>
<g id="a_node3"><a xlink:href="a00304.html#a2396849660aa4ff018ab7509a4badeb5" target="_top" xlink:title=" ">
<polygon fill="white" stroke="black" points="322,-11.5 322,-30.5 452,-30.5 452,-11.5 322,-11.5"/>
<text text-anchor="middle" x="387" y="-18.5" font-family="Helvetica,sans-Serif" font-size="10.00">A_CO_DB\execute_query</text>
</a>
</g>
</g>
<!-- Node2&#45;&gt;Node3 -->
<g id="edge2" class="edge">
<title>Node2&#45;&gt;Node3</title>
<path fill="none" stroke="midnightblue" d="M286.17,-21C294.57,-21 303.26,-21 311.84,-21"/>
<polygon fill="midnightblue" stroke="midnightblue" points="311.85,-24.5 321.85,-21 311.85,-17.5 311.85,-24.5"/>
</g>
<!-- Node4 -->
<g id="node4" class="node">
<title>Node4</title>
<g id="a_node4"><a xlink:href="a00304.html#ae41efbdfe739934823b5f4c785b22611" target="_top" xlink:title=" ">
<polygon fill="white" stroke="black" points="488,-11.5 488,-30.5 623,-30.5 623,-11.5 488,-11.5"/>
<text text-anchor="middle" x="555.5" y="-18.5" font-family="Helvetica,sans-Serif" font-size="10.00">A_CO_DB\_execute_query</text>
</a>
</g>
</g>
<!-- Node3&#45;&gt;Node4 -->
<g id="edge3" class="edge">
<title>Node3&#45;&gt;Node4</title>
<path fill="none" stroke="midnightblue" d="M452.37,-21C460.64,-21 469.16,-21 477.6,-21"/>
<polygon fill="midnightblue" stroke="midnightblue" points="477.82,-24.5 487.82,-21 477.82,-17.5 477.82,-24.5"/>
</g>
</g>
</svg>
