<?xml version="1.0" encoding="UTF-8" standalone="no"?>
<!DOCTYPE svg PUBLIC "-//W3C//DTD SVG 1.1//EN"
 "http://www.w3.org/Graphics/SVG/1.1/DTD/svg11.dtd">
<!-- Generated by graphviz version 2.40.1 (20161225.0304)
 -->
<!-- Title: CO_Access\get_personal_security_ids Pages: 1 -->
<svg width="616pt" height="37pt"
 viewBox="0.00 0.00 615.78 37.00" xmlns="http://www.w3.org/2000/svg" xmlns:xlink="http://www.w3.org/1999/xlink">
<g id="graph0" class="graph" transform="scale(1 1) rotate(0) translate(4 33)">
<title>CO_Access\get_personal_security_ids</title>
<polygon fill="#ffffff" stroke="transparent" points="-4,4 -4,-33 611.7813,-33 611.7813,4 -4,4"/>
<!-- Node1 -->
<g id="node1" class="node">
<title>Node1</title>
<g id="a_node1"><a xlink:title=" ">
<polygon fill="#bfbfbf" stroke="#000000" points="0,-.5 0,-28.5 129.3936,-28.5 129.3936,-.5 0,-.5"/>
<text text-anchor="start" x="8" y="-16.5" font-family="Helvetica,sans-Serif" font-size="10.00" fill="#000000">CO_Access\get_personal</text>
<text text-anchor="middle" x="64.6968" y="-6.5" font-family="Helvetica,sans-Serif" font-size="10.00" fill="#000000">_security_ids</text>
</a>
</g>
</g>
<!-- Node2 -->
<g id="node2" class="node">
<title>Node2</title>
<g id="a_node2"><a xlink:href="a00352.html#adbc6444fbac916f3a280f4a3ce4f067a" target="_top" xlink:title=" ">
<polygon fill="#ffffff" stroke="#000000" points="165.3936,-5.5 165.3936,-23.5 290.9004,-23.5 290.9004,-5.5 165.3936,-5.5"/>
<text text-anchor="middle" x="228.147" y="-11.5" font-family="Helvetica,sans-Serif" font-size="10.00" fill="#000000">CO_Access\get_login_id</text>
</a>
</g>
</g>
<!-- Node1&#45;&gt;Node2 -->
<g id="edge1" class="edge">
<title>Node1&#45;&gt;Node2</title>
<path fill="none" stroke="#191970" d="M129.7663,-14.5C138.0575,-14.5 146.5875,-14.5 154.9951,-14.5"/>
<polygon fill="#191970" stroke="#191970" points="155.1657,-18.0001 165.1657,-14.5 155.1656,-11.0001 155.1657,-18.0001"/>
</g>
<!-- Node3 -->
<g id="node3" class="node">
<title>Node3</title>
<g id="a_node3"><a xlink:href="a00352.html#aeab406fa4ecc249662fa1e2e073341b2" target="_top" xlink:title=" ">
<polygon fill="#ffffff" stroke="#000000" points="326.9004,-.5 326.9004,-28.5 446.2891,-28.5 446.2891,-.5 326.9004,-.5"/>
<text text-anchor="start" x="334.9004" y="-16.5" font-family="Helvetica,sans-Serif" font-size="10.00" fill="#000000">CO_Access\get_single</text>
<text text-anchor="middle" x="386.5947" y="-6.5" font-family="Helvetica,sans-Serif" font-size="10.00" fill="#000000">_security_record_by_id</text>
</a>
</g>
</g>
<!-- Node2&#45;&gt;Node3 -->
<g id="edge2" class="edge">
<title>Node2&#45;&gt;Node3</title>
<path fill="none" stroke="#191970" d="M291.225,-14.5C299.5692,-14.5 308.163,-14.5 316.6144,-14.5"/>
<polygon fill="#191970" stroke="#191970" points="316.8265,-18.0001 326.8265,-14.5 316.8265,-11.0001 316.8265,-18.0001"/>
</g>
<!-- Node4 -->
<g id="node4" class="node">
<title>Node4</title>
<g id="a_node4"><a xlink:href="a00352.html#a34c23aea84d5c32e600c512167c3497d" target="_top" xlink:title=" ">
<polygon fill="#ffffff" stroke="#000000" points="482.2891,-.5 482.2891,-28.5 607.7813,-28.5 607.7813,-.5 482.2891,-.5"/>
<text text-anchor="start" x="490.2891" y="-16.5" font-family="Helvetica,sans-Serif" font-size="10.00" fill="#000000">CO_Access\get_multiple</text>
<text text-anchor="middle" x="545.0352" y="-6.5" font-family="Helvetica,sans-Serif" font-size="10.00" fill="#000000">_security_records_by_id</text>
</a>
</g>
</g>
<!-- Node3&#45;&gt;Node4 -->
<g id="edge3" class="edge">
<title>Node3&#45;&gt;Node4</title>
<path fill="none" stroke="#191970" d="M446.4943,-14.5C454.8713,-14.5 463.5554,-14.5 472.1397,-14.5"/>
<polygon fill="#191970" stroke="#191970" points="472.1469,-18.0001 482.1468,-14.5 472.1468,-11.0001 472.1469,-18.0001"/>
</g>
</g>
</svg>
