<?xml version="1.0" encoding="UTF-8" standalone="no"?>
<!DOCTYPE svg PUBLIC "-//W3C//DTD SVG 1.1//EN"
 "http://www.w3.org/Graphics/SVG/1.1/DTD/svg11.dtd">
<!-- Generated by graphviz version 2.47.1 (20210417.1919)
 -->
<!-- Title: A_CO_DB\_instantiate_record Pages: 1 -->
<svg width="469pt" height="504pt"
 viewBox="0.00 0.00 469.00 503.50" xmlns="http://www.w3.org/2000/svg" xmlns:xlink="http://www.w3.org/1999/xlink">
<g id="graph0" class="graph" transform="scale(1 1) rotate(0) translate(4 499.5)">
<title>A_CO_DB\_instantiate_record</title>
<polygon fill="white" stroke="transparent" points="-4,4 -4,-499.5 465,-499.5 465,4 -4,4"/>
<!-- Node1 -->
<g id="node1" class="node">
<title>Node1</title>
<g id="a_node1"><a xlink:title=" ">
<polygon fill="#bfbfbf" stroke="black" points="345,-232 345,-262 461,-262 461,-232 345,-232"/>
<text text-anchor="start" x="353" y="-250" font-family="Helvetica,sans-Serif" font-size="10.00">A_CO_DB\_instantiate</text>
<text text-anchor="middle" x="403" y="-239" font-family="Helvetica,sans-Serif" font-size="10.00">_record</text>
</a>
</g>
</g>
<!-- Node2 -->
<g id="node2" class="node">
<title>Node2</title>
<g id="a_node2"><a xlink:href="a00312.html#a303048d406814c066d27fda70de4ff02" target="_top" xlink:title=" ">
<polygon fill="white" stroke="black" points="170.5,-465 170.5,-495 308.5,-495 308.5,-465 170.5,-465"/>
<text text-anchor="start" x="178.5" y="-483" font-family="Helvetica,sans-Serif" font-size="10.00">CO_Main_Data_DB\generic</text>
<text text-anchor="middle" x="239.5" y="-472" font-family="Helvetica,sans-Serif" font-size="10.00">_search</text>
</a>
</g>
</g>
<!-- Node1&#45;&gt;Node2 -->
<g id="edge1" class="edge">
<title>Node1&#45;&gt;Node2</title>
<path fill="none" stroke="midnightblue" d="M397.56,-272.01C388.58,-315.47 364.19,-405.14 309,-456 305.29,-459.42 301.07,-462.35 296.59,-464.87"/>
<polygon fill="midnightblue" stroke="midnightblue" points="401.04,-272.5 399.53,-262.01 394.17,-271.15 401.04,-272.5"/>
</g>
<!-- Node3 -->
<g id="node3" class="node">
<title>Node3</title>
<g id="a_node3"><a xlink:href="a00324.html#ad75f2ed511a4eae172f9f2acd73f2de9" target="_top" xlink:title=" ">
<polygon fill="white" stroke="black" points="185,-416 185,-446 294,-446 294,-416 185,-416"/>
<text text-anchor="start" x="193" y="-434" font-family="Helvetica,sans-Serif" font-size="10.00">CO_Security_DB\get</text>
<text text-anchor="middle" x="239.5" y="-423" font-family="Helvetica,sans-Serif" font-size="10.00">_all_login_objects</text>
</a>
</g>
</g>
<!-- Node1&#45;&gt;Node3 -->
<g id="edge2" class="edge">
<title>Node1&#45;&gt;Node3</title>
<path fill="none" stroke="midnightblue" d="M393.64,-271.82C380.75,-306.52 352.82,-369.41 309,-406 304.43,-409.81 299.23,-413.07 293.79,-415.84"/>
<polygon fill="midnightblue" stroke="midnightblue" points="397.08,-272.6 397.16,-262.01 390.49,-270.24 397.08,-272.6"/>
</g>
<!-- Node4 -->
<g id="node4" class="node">
<title>Node4</title>
<g id="a_node4"><a xlink:href="a00324.html#af39966b2bf3f43bc640b013ec5a472be" target="_top" xlink:title=" ">
<polygon fill="white" stroke="black" points="181,-355.5 181,-396.5 298,-396.5 298,-355.5 181,-355.5"/>
<text text-anchor="start" x="189" y="-384.5" font-family="Helvetica,sans-Serif" font-size="10.00">CO_Security_DB\get</text>
<text text-anchor="start" x="189" y="-373.5" font-family="Helvetica,sans-Serif" font-size="10.00">_all_login_objects_with</text>
<text text-anchor="middle" x="239.5" y="-362.5" font-family="Helvetica,sans-Serif" font-size="10.00">_access</text>
</a>
</g>
</g>
<!-- Node1&#45;&gt;Node4 -->
<g id="edge3" class="edge">
<title>Node1&#45;&gt;Node4</title>
<path fill="none" stroke="midnightblue" d="M384.65,-270.33C367.42,-292.19 339.27,-324.63 309,-346 304.23,-349.37 299.02,-352.48 293.67,-355.32"/>
<polygon fill="midnightblue" stroke="midnightblue" points="387.56,-272.28 390.91,-262.23 382.02,-268 387.56,-272.28"/>
</g>
<!-- Node5 -->
<g id="node5" class="node">
<title>Node5</title>
<g id="a_node5"><a xlink:href="a00304.html#a6ccca3e1b18f58a3d4a4ad6018f067b1" target="_top" xlink:title=" ">
<polygon fill="white" stroke="black" points="171,-306 171,-336 308,-336 308,-306 171,-306"/>
<text text-anchor="start" x="179" y="-324" font-family="Helvetica,sans-Serif" font-size="10.00">A_CO_DB\get_all_readable</text>
<text text-anchor="middle" x="239.5" y="-313" font-family="Helvetica,sans-Serif" font-size="10.00">_records</text>
</a>
</g>
</g>
<!-- Node1&#45;&gt;Node5 -->
<g id="edge4" class="edge">
<title>Node1&#45;&gt;Node5</title>
<path fill="none" stroke="midnightblue" d="M367.37,-267.29C350.14,-276.95 328.81,-288.27 309,-297 301.85,-300.15 294.15,-303.18 286.58,-305.97"/>
<polygon fill="midnightblue" stroke="midnightblue" points="369.51,-270.1 376.49,-262.12 366.06,-264.01 369.51,-270.1"/>
</g>
<!-- Node6 -->
<g id="node6" class="node">
<title>Node6</title>
<g id="a_node6"><a xlink:href="a00304.html#a2b39eabcd72a9d79267e51a5f2b16648" target="_top" xlink:title=" ">
<polygon fill="white" stroke="black" points="170,-257 170,-287 309,-287 309,-257 170,-257"/>
<text text-anchor="start" x="178" y="-275" font-family="Helvetica,sans-Serif" font-size="10.00">A_CO_DB\get_all_writeable</text>
<text text-anchor="middle" x="239.5" y="-264" font-family="Helvetica,sans-Serif" font-size="10.00">_records</text>
</a>
</g>
</g>
<!-- Node1&#45;&gt;Node6 -->
<g id="edge5" class="edge">
<title>Node1&#45;&gt;Node6</title>
<path fill="none" stroke="midnightblue" d="M334.47,-257.45C326.06,-258.75 317.46,-260.09 309.04,-261.39"/>
<polygon fill="midnightblue" stroke="midnightblue" points="335.26,-260.87 344.61,-255.88 334.19,-253.96 335.26,-260.87"/>
</g>
<!-- Node7 -->
<g id="node7" class="node">
<title>Node7</title>
<g id="a_node7"><a xlink:href="a00324.html#a4e2e3180a3be3bbe410fa3066572a8a0" target="_top" xlink:title=" ">
<polygon fill="white" stroke="black" points="177.5,-208 177.5,-238 301.5,-238 301.5,-208 177.5,-208"/>
<text text-anchor="start" x="185.5" y="-226" font-family="Helvetica,sans-Serif" font-size="10.00">CO_Security_DB\get</text>
<text text-anchor="middle" x="239.5" y="-215" font-family="Helvetica,sans-Serif" font-size="10.00">_credentials_by_api_key</text>
</a>
</g>
</g>
<!-- Node1&#45;&gt;Node7 -->
<g id="edge6" class="edge">
<title>Node1&#45;&gt;Node7</title>
<path fill="none" stroke="midnightblue" d="M334.65,-236.99C323.67,-235.36 312.35,-233.68 301.54,-232.07"/>
<polygon fill="midnightblue" stroke="midnightblue" points="334.2,-240.46 344.61,-238.47 335.23,-233.54 334.2,-240.46"/>
</g>
<!-- Node8 -->
<g id="node8" class="node">
<title>Node8</title>
<g id="a_node8"><a xlink:href="a00324.html#ab7c6d41fc8b4b571f313be2c8b03b17d" target="_top" xlink:title=" ">
<polygon fill="white" stroke="black" points="185,-159 185,-189 294,-189 294,-159 185,-159"/>
<text text-anchor="start" x="193" y="-177" font-family="Helvetica,sans-Serif" font-size="10.00">CO_Security_DB\get</text>
<text text-anchor="middle" x="239.5" y="-166" font-family="Helvetica,sans-Serif" font-size="10.00">_initial_record_by_id</text>
</a>
</g>
</g>
<!-- Node1&#45;&gt;Node8 -->
<g id="edge7" class="edge">
<title>Node1&#45;&gt;Node8</title>
<path fill="none" stroke="midnightblue" d="M365.75,-226.93C348.76,-217.88 328.09,-207.37 309,-199 301.12,-195.54 292.59,-192.16 284.31,-189.05"/>
<polygon fill="midnightblue" stroke="midnightblue" points="364.31,-230.13 374.77,-231.79 367.62,-223.97 364.31,-230.13"/>
</g>
<!-- Node9 -->
<g id="node9" class="node">
<title>Node9</title>
<g id="a_node9"><a xlink:href="a00324.html#a5d73fc994a204fe7362e8ca77df1b344" target="_top" xlink:title=" ">
<polygon fill="white" stroke="black" points="174,-110 174,-140 305,-140 305,-110 174,-110"/>
<text text-anchor="start" x="182" y="-128" font-family="Helvetica,sans-Serif" font-size="10.00">CO_Security_DB\get</text>
<text text-anchor="middle" x="239.5" y="-117" font-family="Helvetica,sans-Serif" font-size="10.00">_initial_record_by_login_id</text>
</a>
</g>
</g>
<!-- Node1&#45;&gt;Node9 -->
<g id="edge8" class="edge">
<title>Node1&#45;&gt;Node9</title>
<path fill="none" stroke="midnightblue" d="M384.84,-223.74C367.75,-202.02 339.7,-170.04 309,-150 303.28,-146.26 296.92,-142.99 290.45,-140.15"/>
<polygon fill="midnightblue" stroke="midnightblue" points="382.17,-226.01 391.05,-231.79 387.71,-221.74 382.17,-226.01"/>
</g>
<!-- Node10 -->
<g id="node10" class="node">
<title>Node10</title>
<g id="a_node10"><a xlink:href="a00304.html#aaca8bf49257aa5ade3c354ef76119fa4" target="_top" xlink:title=" ">
<polygon fill="white" stroke="black" points="180,-61 180,-91 299,-91 299,-61 180,-61"/>
<text text-anchor="start" x="188" y="-79" font-family="Helvetica,sans-Serif" font-size="10.00">A_CO_DB\get_multiple</text>
<text text-anchor="middle" x="239.5" y="-68" font-family="Helvetica,sans-Serif" font-size="10.00">_records_by_id</text>
</a>
</g>
</g>
<!-- Node1&#45;&gt;Node10 -->
<g id="edge9" class="edge">
<title>Node1&#45;&gt;Node10</title>
<path fill="none" stroke="midnightblue" d="M392.29,-222.32C378.42,-190.1 350.01,-133.95 309,-101 304.26,-97.19 298.89,-93.94 293.3,-91.16"/>
<polygon fill="midnightblue" stroke="midnightblue" points="389.2,-224 396.28,-231.88 395.66,-221.31 389.2,-224"/>
</g>
<!-- Node12 -->
<g id="node12" class="node">
<title>Node12</title>
<g id="a_node12"><a xlink:href="a00324.html#af7f9180938518c8325b3d4ba52112e02" target="_top" xlink:title=" ">
<polygon fill="white" stroke="black" points="185,-0.5 185,-41.5 294,-41.5 294,-0.5 185,-0.5"/>
<text text-anchor="start" x="193" y="-29.5" font-family="Helvetica,sans-Serif" font-size="10.00">CO_Security_DB\get</text>
<text text-anchor="start" x="193" y="-18.5" font-family="Helvetica,sans-Serif" font-size="10.00">_multiple_records_by</text>
<text text-anchor="middle" x="239.5" y="-7.5" font-family="Helvetica,sans-Serif" font-size="10.00">_login_id</text>
</a>
</g>
</g>
<!-- Node1&#45;&gt;Node12 -->
<g id="edge11" class="edge">
<title>Node1&#45;&gt;Node12</title>
<path fill="none" stroke="midnightblue" d="M396.2,-221.92C385.56,-181.05 359.25,-99.75 309,-51 304.62,-46.75 299.54,-43.05 294.16,-39.84"/>
<polygon fill="midnightblue" stroke="midnightblue" points="392.86,-223 398.68,-231.86 399.66,-221.31 392.86,-223"/>
</g>
<!-- Node11 -->
<g id="node11" class="node">
<title>Node11</title>
<g id="a_node11"><a xlink:href="a00304.html#a631d8d027d72c940a7cec689cbb4e568" target="_top" xlink:title=" ">
<polygon fill="white" stroke="black" points="12,-61 12,-91 122,-91 122,-61 12,-61"/>
<text text-anchor="start" x="20" y="-79" font-family="Helvetica,sans-Serif" font-size="10.00">A_CO_DB\get_single</text>
<text text-anchor="middle" x="67" y="-68" font-family="Helvetica,sans-Serif" font-size="10.00">_record_by_id</text>
</a>
</g>
</g>
<!-- Node10&#45;&gt;Node11 -->
<g id="edge10" class="edge">
<title>Node10&#45;&gt;Node11</title>
<path fill="none" stroke="midnightblue" d="M169.59,-76C153.81,-76 137.26,-76 122.2,-76"/>
<polygon fill="midnightblue" stroke="midnightblue" points="169.82,-79.5 179.82,-76 169.82,-72.5 169.82,-79.5"/>
</g>
<!-- Node13 -->
<g id="node13" class="node">
<title>Node13</title>
<g id="a_node13"><a xlink:href="a00324.html#ab01692597b11329b0d63096b10e1f473" target="_top" xlink:title=" ">
<polygon fill="white" stroke="black" points="0,-6 0,-36 134,-36 134,-6 0,-6"/>
<text text-anchor="start" x="8" y="-24" font-family="Helvetica,sans-Serif" font-size="10.00">CO_Security_DB\get</text>
<text text-anchor="middle" x="67" y="-13" font-family="Helvetica,sans-Serif" font-size="10.00">_single_record_by_login_id</text>
</a>
</g>
</g>
<!-- Node12&#45;&gt;Node13 -->
<g id="edge12" class="edge">
<title>Node12&#45;&gt;Node13</title>
<path fill="none" stroke="midnightblue" d="M174.23,-21C161.13,-21 147.33,-21 134.16,-21"/>
<polygon fill="midnightblue" stroke="midnightblue" points="174.55,-24.5 184.55,-21 174.55,-17.5 174.55,-24.5"/>
</g>
</g>
</svg>
