<?xml version="1.0" encoding="UTF-8" standalone="no"?>
<!DOCTYPE svg PUBLIC "-//W3C//DTD SVG 1.1//EN"
 "http://www.w3.org/Graphics/SVG/1.1/DTD/svg11.dtd">
<!-- Generated by graphviz version 2.40.1 (20161225.0304)
 -->
<!-- Title: A_CO_DB_Table_Base\update_db Pages: 1 -->
<svg width="613pt" height="126pt"
 viewBox="0.00 0.00 613.03 126.00" xmlns="http://www.w3.org/2000/svg" xmlns:xlink="http://www.w3.org/1999/xlink">
<g id="graph0" class="graph" transform="scale(1 1) rotate(0) translate(4 122)">
<title>A_CO_DB_Table_Base\update_db</title>
<polygon fill="#ffffff" stroke="transparent" points="-4,4 -4,-122 609.0322,-122 609.0322,4 -4,4"/>
<!-- Node1 -->
<g id="node1" class="node">
<title>Node1</title>
<g id="a_node1"><a xlink:title=" ">
<polygon fill="#bfbfbf" stroke="#000000" points="0,-23.5 0,-51.5 120.5068,-51.5 120.5068,-23.5 0,-23.5"/>
<text text-anchor="start" x="8" y="-39.5" font-family="Helvetica,sans-Serif" font-size="10.00" fill="#000000">A_CO_DB_Table_Base</text>
<text text-anchor="middle" x="60.2534" y="-29.5" font-family="Helvetica,sans-Serif" font-size="10.00" fill="#000000">\update_db</text>
</a>
</g>
</g>
<!-- Node2 -->
<g id="node2" class="node">
<title>Node2</title>
<g id="a_node2"><a xlink:href="a00308.html#adda14b544e11934db3bf8130aeea0610" target="_top" xlink:title=" ">
<polygon fill="#ffffff" stroke="#000000" points="156.5068,-47.5 156.5068,-75.5 277.0137,-75.5 277.0137,-47.5 156.5068,-47.5"/>
<text text-anchor="start" x="164.5068" y="-63.5" font-family="Helvetica,sans-Serif" font-size="10.00" fill="#000000">A_CO_DB_Table_Base</text>
<text text-anchor="middle" x="216.7603" y="-53.5" font-family="Helvetica,sans-Serif" font-size="10.00" fill="#000000">\_write_to_db</text>
</a>
</g>
</g>
<!-- Node1&#45;&gt;Node2 -->
<g id="edge1" class="edge">
<title>Node1&#45;&gt;Node2</title>
<path fill="none" stroke="#191970" d="M120.763,-46.779C129.1713,-48.0684 137.868,-49.402 146.4366,-50.716"/>
<polygon fill="#191970" stroke="#191970" points="145.9965,-54.1894 156.4115,-52.2457 147.0576,-47.2702 145.9965,-54.1894"/>
</g>
<!-- Node7 -->
<g id="node7" class="node">
<title>Node7</title>
<g id="a_node7"><a xlink:href="a00308.html#a7d2537d7675ca572ad78096784fe4fe4" target="_top" xlink:title=" ">
<polygon fill="#ffffff" stroke="#000000" points="156.5068,-.5 156.5068,-28.5 277.0137,-28.5 277.0137,-.5 156.5068,-.5"/>
<text text-anchor="start" x="164.5068" y="-16.5" font-family="Helvetica,sans-Serif" font-size="10.00" fill="#000000">A_CO_DB_Table_Base</text>
<text text-anchor="middle" x="216.7603" y="-6.5" font-family="Helvetica,sans-Serif" font-size="10.00" fill="#000000">\user_can_write</text>
</a>
</g>
</g>
<!-- Node1&#45;&gt;Node7 -->
<g id="edge7" class="edge">
<title>Node1&#45;&gt;Node7</title>
<path fill="none" stroke="#191970" d="M120.763,-28.6076C129.1713,-27.3719 137.868,-26.0939 146.4366,-24.8347"/>
<polygon fill="#191970" stroke="#191970" points="147.0267,-28.2856 156.4115,-23.3688 146.0089,-21.36 147.0267,-28.2856"/>
</g>
<!-- Node3 -->
<g id="node3" class="node">
<title>Node3</title>
<g id="a_node3"><a xlink:href="a00308.html#a6109c37c5e61ab04ea710b1ebb7615a5" target="_top" xlink:title=" ">
<polygon fill="#ffffff" stroke="#000000" points="313.0137,-89.5 313.0137,-117.5 437.9639,-117.5 437.9639,-89.5 313.0137,-89.5"/>
<text text-anchor="start" x="321.0137" y="-105.5" font-family="Helvetica,sans-Serif" font-size="10.00" fill="#000000">A_CO_DB_Table_Base</text>
<text text-anchor="middle" x="375.4888" y="-95.5" font-family="Helvetica,sans-Serif" font-size="10.00" fill="#000000">\_build_parameter_array</text>
</a>
</g>
</g>
<!-- Node2&#45;&gt;Node3 -->
<g id="edge2" class="edge">
<title>Node2&#45;&gt;Node3</title>
<path fill="none" stroke="#191970" d="M270.0561,-75.6022C283.6085,-79.1882 298.3018,-83.0761 312.2947,-86.7787"/>
<polygon fill="#191970" stroke="#191970" points="311.7709,-90.2605 322.3336,-89.435 313.5616,-83.4934 311.7709,-90.2605"/>
</g>
<!-- Node5 -->
<g id="node5" class="node">
<title>Node5</title>
<g id="a_node5"><a xlink:href="a00308.html#a78affe18a811930d4012fd265e95cdca" target="_top" xlink:title=" ">
<polygon fill="#ffffff" stroke="#000000" points="473.9639,-52.5 473.9639,-70.5 605.0322,-70.5 605.0322,-52.5 473.9639,-52.5"/>
<text text-anchor="middle" x="539.498" y="-58.5" font-family="Helvetica,sans-Serif" font-size="10.00" fill="#000000">A_CO_DB_Table_Base\id</text>
</a>
</g>
</g>
<!-- Node2&#45;&gt;Node5 -->
<g id="edge6" class="edge">
<title>Node2&#45;&gt;Node5</title>
<path fill="none" stroke="#191970" d="M277.0862,-61.5C329.9244,-61.5 406.9475,-61.5 463.8893,-61.5"/>
<polygon fill="#191970" stroke="#191970" points="463.9192,-65.0001 473.9191,-61.5 463.9191,-58.0001 463.9192,-65.0001"/>
</g>
<!-- Node6 -->
<g id="node6" class="node">
<title>Node6</title>
<g id="a_node6"><a xlink:href="a00308.html#a8780b40e55827b90bb441671faec2a05" target="_top" xlink:title=" ">
<polygon fill="#ffffff" stroke="#000000" points="315.2354,-2.5 315.2354,-30.5 435.7422,-30.5 435.7422,-2.5 315.2354,-2.5"/>
<text text-anchor="start" x="323.2354" y="-18.5" font-family="Helvetica,sans-Serif" font-size="10.00" fill="#000000">A_CO_DB_Table_Base</text>
<text text-anchor="middle" x="375.4888" y="-8.5" font-family="Helvetica,sans-Serif" font-size="10.00" fill="#000000">\get_access_object</text>
</a>
</g>
</g>
<!-- Node2&#45;&gt;Node6 -->
<g id="edge5" class="edge">
<title>Node2&#45;&gt;Node6</title>
<path fill="none" stroke="#191970" d="M266.5474,-47.3852C282.208,-42.9454 299.6616,-37.9972 315.9292,-33.3853"/>
<polygon fill="#191970" stroke="#191970" points="317.2121,-36.6596 325.8782,-30.5647 315.3027,-29.925 317.2121,-36.6596"/>
</g>
<!-- Node4 -->
<g id="node4" class="node">
<title>Node4</title>
<g id="a_node4"><a xlink:href="a00308.html#afb32d1e32b8e1c1de2e008c9b88f7846" target="_top" xlink:title=" ">
<polygon fill="#ffffff" stroke="#000000" points="479.2446,-89.5 479.2446,-117.5 599.7515,-117.5 599.7515,-89.5 479.2446,-89.5"/>
<text text-anchor="start" x="487.2446" y="-105.5" font-family="Helvetica,sans-Serif" font-size="10.00" fill="#000000">A_CO_DB_Table_Base</text>
<text text-anchor="middle" x="539.498" y="-95.5" font-family="Helvetica,sans-Serif" font-size="10.00" fill="#000000">\_badger_serialize</text>
</a>
</g>
</g>
<!-- Node3&#45;&gt;Node4 -->
<g id="edge3" class="edge">
<title>Node3&#45;&gt;Node4</title>
<path fill="none" stroke="#191970" d="M438.43,-103.5C448.4572,-103.5 458.8869,-103.5 469.0734,-103.5"/>
<polygon fill="#191970" stroke="#191970" points="469.1549,-107.0001 479.1548,-103.5 469.1548,-100.0001 469.1549,-107.0001"/>
</g>
<!-- Node3&#45;&gt;Node5 -->
<g id="edge4" class="edge">
<title>Node3&#45;&gt;Node5</title>
<path fill="none" stroke="#191970" d="M430.5577,-89.3978C451.1617,-84.1214 474.3177,-78.1916 493.9656,-73.1601"/>
<polygon fill="#191970" stroke="#191970" points="495.0693,-76.4905 503.8884,-70.619 493.3327,-69.7093 495.0693,-76.4905"/>
</g>
<!-- Node7&#45;&gt;Node6 -->
<g id="edge8" class="edge">
<title>Node7&#45;&gt;Node6</title>
<path fill="none" stroke="#191970" d="M277.2215,-15.2618C286.3576,-15.3769 295.8486,-15.4965 305.1709,-15.614"/>
<polygon fill="#191970" stroke="#191970" points="305.1523,-19.1139 315.1956,-15.7403 305.2405,-12.1145 305.1523,-19.1139"/>
</g>
</g>
</svg>
