<?xml version="1.0" encoding="UTF-8" standalone="no"?>
<!DOCTYPE svg PUBLIC "-//W3C//DTD SVG 1.1//EN"
 "http://www.w3.org/Graphics/SVG/1.1/DTD/svg11.dtd">
<!-- Generated by graphviz version 2.40.1 (20161225.0304)
 -->
<!-- Title: CO_Security_Login\set_password_from_cleartext Pages: 1 -->
<svg width="787pt" height="211pt"
 viewBox="0.00 0.00 786.75 211.00" xmlns="http://www.w3.org/2000/svg" xmlns:xlink="http://www.w3.org/1999/xlink">
<g id="graph0" class="graph" transform="scale(1 1) rotate(0) translate(4 207)">
<title>CO_Security_Login\set_password_from_cleartext</title>
<polygon fill="#ffffff" stroke="transparent" points="-4,4 -4,-207 782.7461,-207 782.7461,4 -4,4"/>
<!-- Node90 -->
<g id="node1" class="node">
<title>Node90</title>
<polygon fill="#bfbfbf" stroke="#000000" points="0,-88.5 0,-116.5 133.2754,-116.5 133.2754,-88.5 0,-88.5"/>
<text text-anchor="start" x="8" y="-104.5" font-family="Helvetica,sans-Serif" font-size="10.00" fill="#000000">CO_Security_Login\set</text>
<text text-anchor="middle" x="66.6377" y="-94.5" font-family="Helvetica,sans-Serif" font-size="10.00" fill="#000000">_password_from_cleartext</text>
</g>
<!-- Node91 -->
<g id="node2" class="node">
<title>Node91</title>
<g id="a_node2"><a xlink:href="a00343.html#a615bc63ad75ff08982eeb0c1a2da7243" target="_top" xlink:title="CO_Security_Login\\get\l_crypted_password">
<polygon fill="#ffffff" stroke="#000000" points="172.0513,-135.5 172.0513,-163.5 291.4448,-163.5 291.4448,-135.5 172.0513,-135.5"/>
<text text-anchor="start" x="180.0513" y="-151.5" font-family="Helvetica,sans-Serif" font-size="10.00" fill="#000000">CO_Security_Login\get</text>
<text text-anchor="middle" x="231.748" y="-141.5" font-family="Helvetica,sans-Serif" font-size="10.00" fill="#000000">_crypted_password</text>
</a>
</g>
</g>
<!-- Node90&#45;&gt;Node91 -->
<g id="edge1" class="edge">
<title>Node90&#45;&gt;Node91</title>
<path fill="none" stroke="#191970" d="M116.1762,-116.6015C133.9707,-121.6669 154.2154,-127.4297 172.7352,-132.7015"/>
<polygon fill="#191970" stroke="#191970" points="171.953,-136.1178 182.5292,-135.4894 173.8695,-129.3853 171.953,-136.1178"/>
</g>
<!-- Node92 -->
<g id="node3" class="node">
<title>Node92</title>
<g id="a_node3"><a xlink:href="a00311.html#a7487697640051c6661b8cdca6f109959" target="_top" xlink:title="A_CO_DB_Table_Base\l\\update_db">
<polygon fill="#ffffff" stroke="#000000" points="171.4946,-88.5 171.4946,-116.5 292.0015,-116.5 292.0015,-88.5 171.4946,-88.5"/>
<text text-anchor="start" x="179.4946" y="-104.5" font-family="Helvetica,sans-Serif" font-size="10.00" fill="#000000">A_CO_DB_Table_Base</text>
<text text-anchor="middle" x="231.748" y="-94.5" font-family="Helvetica,sans-Serif" font-size="10.00" fill="#000000">\update_db</text>
</a>
</g>
</g>
<!-- Node90&#45;&gt;Node92 -->
<g id="edge2" class="edge">
<title>Node90&#45;&gt;Node92</title>
<path fill="none" stroke="#191970" d="M133.3185,-102.5C142.586,-102.5 152.1308,-102.5 161.4618,-102.5"/>
<polygon fill="#191970" stroke="#191970" points="161.4797,-106.0001 171.4797,-102.5 161.4796,-99.0001 161.4797,-106.0001"/>
</g>
<!-- Node99 -->
<g id="node10" class="node">
<title>Node99</title>
<g id="a_node10"><a xlink:href="a00343.html#aba256552040dd8af7196f0fea2a58609" target="_top" xlink:title="CO_Security_Login\\user\l_can_write">
<polygon fill="#ffffff" stroke="#000000" points="169.2754,-41.5 169.2754,-69.5 294.2207,-69.5 294.2207,-41.5 169.2754,-41.5"/>
<text text-anchor="start" x="177.2754" y="-57.5" font-family="Helvetica,sans-Serif" font-size="10.00" fill="#000000">CO_Security_Login\user</text>
<text text-anchor="middle" x="231.748" y="-47.5" font-family="Helvetica,sans-Serif" font-size="10.00" fill="#000000">_can_write</text>
</a>
</g>
</g>
<!-- Node90&#45;&gt;Node99 -->
<g id="edge11" class="edge">
<title>Node90&#45;&gt;Node99</title>
<path fill="none" stroke="#191970" d="M116.1762,-88.3985C133.9707,-83.3331 154.2154,-77.5703 172.7352,-72.2985"/>
<polygon fill="#191970" stroke="#191970" points="173.8695,-75.6147 182.5292,-69.5106 171.953,-68.8822 173.8695,-75.6147"/>
</g>
<!-- Node93 -->
<g id="node4" class="node">
<title>Node93</title>
<g id="a_node4"><a xlink:href="a00311.html#adda14b544e11934db3bf8130aeea0610" target="_top" xlink:title="A_CO_DB_Table_Base\l\\_write_to_db">
<polygon fill="#ffffff" stroke="#000000" points="330.2207,-133.5 330.2207,-161.5 450.7275,-161.5 450.7275,-133.5 330.2207,-133.5"/>
<text text-anchor="start" x="338.2207" y="-149.5" font-family="Helvetica,sans-Serif" font-size="10.00" fill="#000000">A_CO_DB_Table_Base</text>
<text text-anchor="middle" x="390.4741" y="-139.5" font-family="Helvetica,sans-Serif" font-size="10.00" fill="#000000">\_write_to_db</text>
</a>
</g>
</g>
<!-- Node92&#45;&gt;Node93 -->
<g id="edge3" class="edge">
<title>Node92&#45;&gt;Node93</title>
<path fill="none" stroke="#191970" d="M281.5345,-116.6148C297.1948,-121.0546 314.6481,-126.0028 330.9155,-130.6147"/>
<polygon fill="#191970" stroke="#191970" points="330.2888,-134.0749 340.8644,-133.4353 332.1982,-127.3403 330.2888,-134.0749"/>
</g>
<!-- Node98 -->
<g id="node9" class="node">
<title>Node98</title>
<g id="a_node9"><a xlink:href="a00311.html#a7d2537d7675ca572ad78096784fe4fe4" target="_top" xlink:title="A_CO_DB_Table_Base\l\\user_can_write">
<polygon fill="#ffffff" stroke="#000000" points="330.2207,-86.5 330.2207,-114.5 450.7275,-114.5 450.7275,-86.5 330.2207,-86.5"/>
<text text-anchor="start" x="338.2207" y="-102.5" font-family="Helvetica,sans-Serif" font-size="10.00" fill="#000000">A_CO_DB_Table_Base</text>
<text text-anchor="middle" x="390.4741" y="-92.5" font-family="Helvetica,sans-Serif" font-size="10.00" fill="#000000">\user_can_write</text>
</a>
</g>
</g>
<!-- Node92&#45;&gt;Node98 -->
<g id="edge9" class="edge">
<title>Node92&#45;&gt;Node98</title>
<path fill="none" stroke="#191970" d="M292.2084,-101.7382C301.3444,-101.6231 310.8352,-101.5035 320.1574,-101.386"/>
<polygon fill="#191970" stroke="#191970" points="320.2268,-104.8855 330.1819,-101.2597 320.1386,-97.8861 320.2268,-104.8855"/>
</g>
<!-- Node94 -->
<g id="node5" class="node">
<title>Node94</title>
<g id="a_node5"><a xlink:href="a00311.html#a6109c37c5e61ab04ea710b1ebb7615a5" target="_top" xlink:title="A_CO_DB_Table_Base\l\\_build_parameter_array">
<polygon fill="#ffffff" stroke="#000000" points="486.7275,-174.5 486.7275,-202.5 611.6777,-202.5 611.6777,-174.5 486.7275,-174.5"/>
<text text-anchor="start" x="494.7275" y="-190.5" font-family="Helvetica,sans-Serif" font-size="10.00" fill="#000000">A_CO_DB_Table_Base</text>
<text text-anchor="middle" x="549.2026" y="-180.5" font-family="Helvetica,sans-Serif" font-size="10.00" fill="#000000">\_build_parameter_array</text>
</a>
</g>
</g>
<!-- Node93&#45;&gt;Node94 -->
<g id="edge4" class="edge">
<title>Node93&#45;&gt;Node94</title>
<path fill="none" stroke="#191970" d="M445.0995,-161.6099C457.891,-164.914 471.6352,-168.4641 484.8085,-171.8668"/>
<polygon fill="#191970" stroke="#191970" points="484.188,-175.3214 494.7456,-174.4336 485.9387,-168.5438 484.188,-175.3214"/>
</g>
<!-- Node96 -->
<g id="node7" class="node">
<title>Node96</title>
<g id="a_node7"><a xlink:href="a00311.html#a78affe18a811930d4012fd265e95cdca" target="_top" xlink:title="A_CO_DB_Table_Base\\id">
<polygon fill="#ffffff" stroke="#000000" points="647.6777,-137.5 647.6777,-155.5 778.7461,-155.5 778.7461,-137.5 647.6777,-137.5"/>
<text text-anchor="middle" x="713.2119" y="-143.5" font-family="Helvetica,sans-Serif" font-size="10.00" fill="#000000">A_CO_DB_Table_Base\id</text>
</a>
</g>
</g>
<!-- Node93&#45;&gt;Node96 -->
<g id="edge8" class="edge">
<title>Node93&#45;&gt;Node96</title>
<path fill="none" stroke="#191970" d="M450.8,-147.3131C503.6383,-147.1494 580.6614,-146.9107 637.6031,-146.7343"/>
<polygon fill="#191970" stroke="#191970" points="637.6439,-150.2343 647.633,-146.7032 637.6222,-143.2343 637.6439,-150.2343"/>
</g>
<!-- Node97 -->
<g id="node8" class="node">
<title>Node97</title>
<g id="a_node8"><a xlink:href="a00311.html#a8780b40e55827b90bb441671faec2a05" target="_top" xlink:title="A_CO_DB_Table_Base\l\\get_access_object">
<polygon fill="#ffffff" stroke="#000000" points="488.9492,-86.5 488.9492,-114.5 609.4561,-114.5 609.4561,-86.5 488.9492,-86.5"/>
<text text-anchor="start" x="496.9492" y="-102.5" font-family="Helvetica,sans-Serif" font-size="10.00" fill="#000000">A_CO_DB_Table_Base</text>
<text text-anchor="middle" x="549.2026" y="-92.5" font-family="Helvetica,sans-Serif" font-size="10.00" fill="#000000">\get_access_object</text>
</a>
</g>
</g>
<!-- Node93&#45;&gt;Node97 -->
<g id="edge7" class="edge">
<title>Node93&#45;&gt;Node97</title>
<path fill="none" stroke="#191970" d="M438.0979,-133.3985C455.1257,-128.3565 474.4875,-122.6234 492.2245,-117.3714"/>
<polygon fill="#191970" stroke="#191970" points="493.2914,-120.7058 501.8862,-114.5106 491.3039,-113.9938 493.2914,-120.7058"/>
</g>
<!-- Node95 -->
<g id="node6" class="node">
<title>Node95</title>
<g id="a_node6"><a xlink:href="a00311.html#afb32d1e32b8e1c1de2e008c9b88f7846" target="_top" xlink:title="A_CO_DB_Table_Base\l\\_badger_serialize">
<polygon fill="#ffffff" stroke="#000000" points="652.9585,-174.5 652.9585,-202.5 773.4653,-202.5 773.4653,-174.5 652.9585,-174.5"/>
<text text-anchor="start" x="660.9585" y="-190.5" font-family="Helvetica,sans-Serif" font-size="10.00" fill="#000000">A_CO_DB_Table_Base</text>
<text text-anchor="middle" x="713.2119" y="-180.5" font-family="Helvetica,sans-Serif" font-size="10.00" fill="#000000">\_badger_serialize</text>
</a>
</g>
</g>
<!-- Node94&#45;&gt;Node95 -->
<g id="edge5" class="edge">
<title>Node94&#45;&gt;Node95</title>
<path fill="none" stroke="#191970" d="M612.1438,-188.5C622.171,-188.5 632.6008,-188.5 642.7872,-188.5"/>
<polygon fill="#191970" stroke="#191970" points="642.8687,-192.0001 652.8687,-188.5 642.8687,-185.0001 642.8687,-192.0001"/>
</g>
<!-- Node94&#45;&gt;Node96 -->
<g id="edge6" class="edge">
<title>Node94&#45;&gt;Node96</title>
<path fill="none" stroke="#191970" d="M604.2716,-174.3978C624.8755,-169.1214 648.0315,-163.1916 667.6795,-158.1601"/>
<polygon fill="#191970" stroke="#191970" points="668.7831,-161.4905 677.6022,-155.619 667.0465,-154.7093 668.7831,-161.4905"/>
</g>
<!-- Node98&#45;&gt;Node97 -->
<g id="edge10" class="edge">
<title>Node98&#45;&gt;Node97</title>
<path fill="none" stroke="#191970" d="M450.9354,-100.5C460.0715,-100.5 469.5625,-100.5 478.8848,-100.5"/>
<polygon fill="#191970" stroke="#191970" points="478.9095,-104.0001 488.9095,-100.5 478.9095,-97.0001 478.9095,-104.0001"/>
</g>
<!-- Node99&#45;&gt;Node97 -->
<g id="edge13" class="edge">
<title>Node99&#45;&gt;Node97</title>
<path fill="none" stroke="#191970" d="M294.329,-59.626C338.2809,-63.0504 398.337,-68.7876 450.7275,-77.5 461.8453,-79.3489 473.5795,-81.7167 484.922,-84.2271"/>
<polygon fill="#191970" stroke="#191970" points="484.2367,-87.6605 494.7633,-86.4604 485.7859,-80.8341 484.2367,-87.6605"/>
</g>
<!-- Node100 -->
<g id="node11" class="node">
<title>Node100</title>
<g id="a_node11"><a xlink:href="a00343.html#a03304936652c2c606c411c7c6a0f0c7f" target="_top" xlink:title="CO_Security_Login\\i\l_am_a_god">
<polygon fill="#ffffff" stroke="#000000" points="336.6172,-.5 336.6172,-28.5 444.3311,-28.5 444.3311,-.5 336.6172,-.5"/>
<text text-anchor="start" x="344.6172" y="-16.5" font-family="Helvetica,sans-Serif" font-size="10.00" fill="#000000">CO_Security_Login\i</text>
<text text-anchor="middle" x="390.4741" y="-6.5" font-family="Helvetica,sans-Serif" font-size="10.00" fill="#000000">_am_a_god</text>
</a>
</g>
</g>
<!-- Node99&#45;&gt;Node100 -->
<g id="edge12" class="edge">
<title>Node99&#45;&gt;Node100</title>
<path fill="none" stroke="#191970" d="M286.3726,-41.3901C299.3068,-38.0491 313.2152,-34.4565 326.5223,-31.0192"/>
<polygon fill="#191970" stroke="#191970" points="327.7482,-34.3175 336.555,-28.4277 325.9975,-27.5399 327.7482,-34.3175"/>
</g>
</g>
</svg>
