<?xml version="1.0" encoding="UTF-8" standalone="no"?>
<!DOCTYPE svg PUBLIC "-//W3C//DTD SVG 1.1//EN"
 "http://www.w3.org/Graphics/SVG/1.1/DTD/svg11.dtd">
<!-- Generated by graphviz version 2.40.1 (20161225.0304)
 -->
<!-- Title: CO_Access\get_lang Pages: 1 -->
<svg width="769pt" height="51pt"
 viewBox="0.00 0.00 768.94 51.00" xmlns="http://www.w3.org/2000/svg" xmlns:xlink="http://www.w3.org/1999/xlink">
<g id="graph0" class="graph" transform="scale(1 1) rotate(0) translate(4 47)">
<title>CO_Access\get_lang</title>
<polygon fill="#ffffff" stroke="transparent" points="-4,4 -4,-47 764.9434,-47 764.9434,4 -4,4"/>
<!-- Node49 -->
<g id="node1" class="node">
<title>Node49</title>
<polygon fill="#bfbfbf" stroke="#000000" points="0,-5.5 0,-23.5 109.9404,-23.5 109.9404,-5.5 0,-5.5"/>
<text text-anchor="middle" x="54.9702" y="-11.5" font-family="Helvetica,sans-Serif" font-size="10.00" fill="#000000">CO_Access\get_lang</text>
</g>
<!-- Node50 -->
<g id="node2" class="node">
<title>Node50</title>
<g id="a_node2"><a xlink:href="a00355.html#a65c256cad68440723a8de979b1b7a1bb" target="_top" xlink:title="CO_Access\\get_login_item">
<polygon fill="#ffffff" stroke="#000000" points="145.9404,-5.5 145.9404,-23.5 282.5557,-23.5 282.5557,-5.5 145.9404,-5.5"/>
<text text-anchor="middle" x="214.248" y="-11.5" font-family="Helvetica,sans-Serif" font-size="10.00" fill="#000000">CO_Access\get_login_item</text>
</a>
</g>
</g>
<!-- Node49&#45;&gt;Node50 -->
<g id="edge1" class="edge">
<title>Node49&#45;&gt;Node50</title>
<path fill="none" stroke="#191970" d="M110.2309,-14.5C118.4971,-14.5 127.1511,-14.5 135.7866,-14.5"/>
<polygon fill="#191970" stroke="#191970" points="135.8912,-18.0001 145.8912,-14.5 135.8911,-11.0001 135.8912,-18.0001"/>
</g>
<!-- Node51 -->
<g id="node3" class="node">
<title>Node51</title>
<g id="a_node3"><a xlink:href="a00355.html#adbc6444fbac916f3a280f4a3ce4f067a" target="_top" xlink:title="CO_Access\\get_login_id">
<polygon fill="#ffffff" stroke="#000000" points="318.5557,-24.5 318.5557,-42.5 444.0625,-42.5 444.0625,-24.5 318.5557,-24.5"/>
<text text-anchor="middle" x="381.3091" y="-30.5" font-family="Helvetica,sans-Serif" font-size="10.00" fill="#000000">CO_Access\get_login_id</text>
</a>
</g>
</g>
<!-- Node50&#45;&gt;Node51 -->
<g id="edge2" class="edge">
<title>Node50&#45;&gt;Node51</title>
<path fill="none" stroke="#191970" d="M282.6802,-22.2828C291.1646,-23.2478 299.8639,-24.2372 308.4123,-25.2094"/>
<polygon fill="#191970" stroke="#191970" points="308.0245,-28.6878 318.356,-26.3403 308.8156,-21.7326 308.0245,-28.6878"/>
</g>
<!-- Node52 -->
<g id="node4" class="node">
<title>Node52</title>
<g id="a_node4"><a xlink:href="a00355.html#aeab406fa4ecc249662fa1e2e073341b2" target="_top" xlink:title="CO_Access\\get_single\l_security_record_by_id">
<polygon fill="#ffffff" stroke="#000000" points="480.0625,-.5 480.0625,-28.5 599.4512,-28.5 599.4512,-.5 480.0625,-.5"/>
<text text-anchor="start" x="488.0625" y="-16.5" font-family="Helvetica,sans-Serif" font-size="10.00" fill="#000000">CO_Access\get_single</text>
<text text-anchor="middle" x="539.7568" y="-6.5" font-family="Helvetica,sans-Serif" font-size="10.00" fill="#000000">_security_record_by_id</text>
</a>
</g>
</g>
<!-- Node50&#45;&gt;Node52 -->
<g id="edge5" class="edge">
<title>Node50&#45;&gt;Node52</title>
<path fill="none" stroke="#191970" d="M282.8823,-14.5C337.8437,-14.5 414.6229,-14.5 469.9036,-14.5"/>
<polygon fill="#191970" stroke="#191970" points="469.9655,-18.0001 479.9654,-14.5 469.9654,-11.0001 469.9655,-18.0001"/>
</g>
<!-- Node51&#45;&gt;Node52 -->
<g id="edge3" class="edge">
<title>Node51&#45;&gt;Node52</title>
<path fill="none" stroke="#191970" d="M444.3871,-25.9361C452.823,-24.9245 461.514,-23.8824 470.0551,-22.8582"/>
<polygon fill="#191970" stroke="#191970" points="470.4765,-26.3328 479.9886,-21.667 469.643,-19.3826 470.4765,-26.3328"/>
</g>
<!-- Node53 -->
<g id="node5" class="node">
<title>Node53</title>
<g id="a_node5"><a xlink:href="a00355.html#a34c23aea84d5c32e600c512167c3497d" target="_top" xlink:title="CO_Access\\get_multiple\l_security_records_by_id">
<polygon fill="#ffffff" stroke="#000000" points="635.4512,-.5 635.4512,-28.5 760.9434,-28.5 760.9434,-.5 635.4512,-.5"/>
<text text-anchor="start" x="643.4512" y="-16.5" font-family="Helvetica,sans-Serif" font-size="10.00" fill="#000000">CO_Access\get_multiple</text>
<text text-anchor="middle" x="698.1973" y="-6.5" font-family="Helvetica,sans-Serif" font-size="10.00" fill="#000000">_security_records_by_id</text>
</a>
</g>
</g>
<!-- Node52&#45;&gt;Node53 -->
<g id="edge4" class="edge">
<title>Node52&#45;&gt;Node53</title>
<path fill="none" stroke="#191970" d="M599.6564,-14.5C608.0334,-14.5 616.7175,-14.5 625.3018,-14.5"/>
<polygon fill="#191970" stroke="#191970" points="625.309,-18.0001 635.3089,-14.5 625.3089,-11.0001 625.309,-18.0001"/>
</g>
</g>
</svg>
