<?xml version="1.0" encoding="UTF-8" standalone="no"?>
<!DOCTYPE svg PUBLIC "-//W3C//DTD SVG 1.1//EN"
 "http://www.w3.org/Graphics/SVG/1.1/DTD/svg11.dtd">
<!-- Generated by graphviz version 2.40.1 (20161225.0304)
 -->
<!-- Title: CO_Security_DB\is_this_a_login_id Pages: 1 -->
<svg width="616pt" height="37pt"
 viewBox="0.00 0.00 615.77 37.00" xmlns="http://www.w3.org/2000/svg" xmlns:xlink="http://www.w3.org/1999/xlink">
<g id="graph0" class="graph" transform="scale(1 1) rotate(0) translate(4 33)">
<title>CO_Security_DB\is_this_a_login_id</title>
<polygon fill="#ffffff" stroke="transparent" points="-4,4 -4,-33 611.7666,-33 611.7666,4 -4,4"/>
<!-- Node1 -->
<g id="node1" class="node">
<title>Node1</title>
<g id="a_node1"><a xlink:title=" ">
<polygon fill="#bfbfbf" stroke="#000000" points="0,-.5 0,-28.5 123.2607,-28.5 123.2607,-.5 0,-.5"/>
<text text-anchor="start" x="8" y="-16.5" font-family="Helvetica,sans-Serif" font-size="10.00" fill="#000000">CO_Security_DB\is_this</text>
<text text-anchor="middle" x="61.6304" y="-6.5" font-family="Helvetica,sans-Serif" font-size="10.00" fill="#000000">_a_login_id</text>
</a>
</g>
</g>
<!-- Node2 -->
<g id="node2" class="node">
<title>Node2</title>
<g id="a_node2"><a xlink:href="a00324.html#a937e331e12bd0f22d302133c1ac88c5e" target="_top" xlink:title=" ">
<polygon fill="#ffffff" stroke="#000000" points="159.2607,-.5 159.2607,-28.5 268.0781,-28.5 268.0781,-.5 159.2607,-.5"/>
<text text-anchor="start" x="167.2607" y="-16.5" font-family="Helvetica,sans-Serif" font-size="10.00" fill="#000000">CO_Security_DB\get</text>
<text text-anchor="middle" x="213.6694" y="-6.5" font-family="Helvetica,sans-Serif" font-size="10.00" fill="#000000">_all_login_ids</text>
</a>
</g>
</g>
<!-- Node1&#45;&gt;Node2 -->
<g id="edge1" class="edge">
<title>Node1&#45;&gt;Node2</title>
<path fill="none" stroke="#191970" d="M123.4705,-14.5C131.887,-14.5 140.5439,-14.5 149.0086,-14.5"/>
<polygon fill="#191970" stroke="#191970" points="149.2093,-18.0001 159.2093,-14.5 149.2092,-11.0001 149.2093,-18.0001"/>
</g>
<!-- Node3 -->
<g id="node3" class="node">
<title>Node3</title>
<g id="a_node3"><a xlink:href="a00304.html#a2396849660aa4ff018ab7509a4badeb5" target="_top" xlink:title=" ">
<polygon fill="#ffffff" stroke="#000000" points="304.0781,-5.5 304.0781,-23.5 435.1416,-23.5 435.1416,-5.5 304.0781,-5.5"/>
<text text-anchor="middle" x="369.6099" y="-11.5" font-family="Helvetica,sans-Serif" font-size="10.00" fill="#000000">A_CO_DB\execute_query</text>
</a>
</g>
</g>
<!-- Node2&#45;&gt;Node3 -->
<g id="edge2" class="edge">
<title>Node2&#45;&gt;Node3</title>
<path fill="none" stroke="#191970" d="M268.2098,-14.5C276.4795,-14.5 285.1369,-14.5 293.7596,-14.5"/>
<polygon fill="#191970" stroke="#191970" points="293.8408,-18.0001 303.8408,-14.5 293.8408,-11.0001 293.8408,-18.0001"/>
</g>
<!-- Node4 -->
<g id="node4" class="node">
<title>Node4</title>
<g id="a_node4"><a xlink:href="a00304.html#ae41efbdfe739934823b5f4c785b22611" target="_top" xlink:title=" ">
<polygon fill="#ffffff" stroke="#000000" points="471.1416,-5.5 471.1416,-23.5 607.7666,-23.5 607.7666,-5.5 471.1416,-5.5"/>
<text text-anchor="middle" x="539.4541" y="-11.5" font-family="Helvetica,sans-Serif" font-size="10.00" fill="#000000">A_CO_DB\_execute_query</text>
</a>
</g>
</g>
<!-- Node3&#45;&gt;Node4 -->
<g id="edge3" class="edge">
<title>Node3&#45;&gt;Node4</title>
<path fill="none" stroke="#191970" d="M435.2761,-14.5C443.5716,-14.5 452.126,-14.5 460.5994,-14.5"/>
<polygon fill="#191970" stroke="#191970" points="460.8721,-18.0001 470.872,-14.5 460.872,-11.0001 460.8721,-18.0001"/>
</g>
</g>
</svg>
