<?xml version="1.0" encoding="UTF-8" standalone="no"?>
<!DOCTYPE svg PUBLIC "-//W3C//DTD SVG 1.1//EN"
 "http://www.w3.org/Graphics/SVG/1.1/DTD/svg11.dtd">
<!-- Generated by graphviz version 2.40.1 (20161225.0304)
 -->
<!-- Title: CO_Main_Data_DB\_parse_parameters Pages: 1 -->
<svg width="344pt" height="121pt"
 viewBox="0.00 0.00 343.92 121.00" xmlns="http://www.w3.org/2000/svg" xmlns:xlink="http://www.w3.org/1999/xlink">
<g id="graph0" class="graph" transform="scale(1 1) rotate(0) translate(4 117)">
<title>CO_Main_Data_DB\_parse_parameters</title>
<polygon fill="#ffffff" stroke="transparent" points="-4,4 -4,-117 339.9199,-117 339.9199,4 -4,4"/>
<!-- Node25 -->
<g id="node1" class="node">
<title>Node25</title>
<polygon fill="#bfbfbf" stroke="#000000" points="0,-37.5 0,-65.5 137.7285,-65.5 137.7285,-37.5 0,-37.5"/>
<text text-anchor="start" x="8" y="-53.5" font-family="Helvetica,sans-Serif" font-size="10.00" fill="#000000">CO_Main_Data_DB\_parse</text>
<text text-anchor="middle" x="68.8643" y="-43.5" font-family="Helvetica,sans-Serif" font-size="10.00" fill="#000000">_parameters</text>
</g>
<!-- Node26 -->
<g id="node2" class="node">
<title>Node26</title>
<g id="a_node2"><a xlink:href="a00315.html#a884b5749acdbc87467741bc6610794e4" target="_top" xlink:title="CO_Main_Data_DB\\_parse\l_integer_parameter">
<polygon fill="#ffffff" stroke="#000000" points="185.96,-84.5 185.96,-112.5 323.6885,-112.5 323.6885,-84.5 185.96,-84.5"/>
<text text-anchor="start" x="193.96" y="-100.5" font-family="Helvetica,sans-Serif" font-size="10.00" fill="#000000">CO_Main_Data_DB\_parse</text>
<text text-anchor="middle" x="254.8242" y="-90.5" font-family="Helvetica,sans-Serif" font-size="10.00" fill="#000000">_integer_parameter</text>
</a>
</g>
</g>
<!-- Node25&#45;&gt;Node26 -->
<g id="edge1" class="edge">
<title>Node25&#45;&gt;Node26</title>
<path fill="none" stroke="#191970" d="M124.4065,-65.5379C144.825,-70.6985 168.1352,-76.59 189.3469,-81.9511"/>
<polygon fill="#191970" stroke="#191970" points="188.6943,-85.3961 199.2471,-84.4533 190.4096,-78.6095 188.6943,-85.3961"/>
</g>
<!-- Node27 -->
<g id="node3" class="node">
<title>Node27</title>
<g id="a_node3"><a xlink:href="a00315.html#a46a9af2d7f6fc1388608022c6b84662e" target="_top" xlink:title="CO_Main_Data_DB\\_parse\l_string_parameter">
<polygon fill="#ffffff" stroke="#000000" points="185.96,-37.5 185.96,-65.5 323.6885,-65.5 323.6885,-37.5 185.96,-37.5"/>
<text text-anchor="start" x="193.96" y="-53.5" font-family="Helvetica,sans-Serif" font-size="10.00" fill="#000000">CO_Main_Data_DB\_parse</text>
<text text-anchor="middle" x="254.8242" y="-43.5" font-family="Helvetica,sans-Serif" font-size="10.00" fill="#000000">_string_parameter</text>
</a>
</g>
</g>
<!-- Node25&#45;&gt;Node27 -->
<g id="edge2" class="edge">
<title>Node25&#45;&gt;Node27</title>
<path fill="none" stroke="#191970" d="M137.8446,-51.5C150.2418,-51.5 163.2501,-51.5 175.9028,-51.5"/>
<polygon fill="#191970" stroke="#191970" points="175.9553,-55.0001 185.9553,-51.5 175.9553,-48.0001 175.9553,-55.0001"/>
</g>
<!-- Node28 -->
<g id="node4" class="node">
<title>Node28</title>
<g id="a_node4"><a xlink:href="a00315.html#a49c326f37d274ac9f25171380c851164" target="_top" xlink:title="CO_Main_Data_DB\\_parse_tags">
<polygon fill="#ffffff" stroke="#000000" points="173.7285,-.5 173.7285,-18.5 335.9199,-18.5 335.9199,-.5 173.7285,-.5"/>
<text text-anchor="middle" x="254.8242" y="-6.5" font-family="Helvetica,sans-Serif" font-size="10.00" fill="#000000">CO_Main_Data_DB\_parse_tags</text>
</a>
</g>
</g>
<!-- Node25&#45;&gt;Node28 -->
<g id="edge3" class="edge">
<title>Node25&#45;&gt;Node28</title>
<path fill="none" stroke="#191970" d="M131.0448,-37.4562C155.1422,-32.0137 182.3512,-25.8684 205.1097,-20.7283"/>
<polygon fill="#191970" stroke="#191970" points="205.9131,-24.1351 214.8964,-18.5179 204.3709,-17.307 205.9131,-24.1351"/>
</g>
</g>
</svg>
