<?xml version="1.0" encoding="UTF-8" standalone="no"?>
<!DOCTYPE svg PUBLIC "-//W3C//DTD SVG 1.1//EN"
 "http://www.w3.org/Graphics/SVG/1.1/DTD/svg11.dtd">
<!-- Generated by graphviz version 2.40.1 (20161225.0304)
 -->
<!-- Title: CO_Security_DB\get_multiple_records_by_login_id Pages: 1 -->
<svg width="467pt" height="144pt"
 viewBox="0.00 0.00 466.51 144.00" xmlns="http://www.w3.org/2000/svg" xmlns:xlink="http://www.w3.org/1999/xlink">
<g id="graph0" class="graph" transform="scale(1 1) rotate(0) translate(4 140)">
<title>CO_Security_DB\get_multiple_records_by_login_id</title>
<polygon fill="#ffffff" stroke="transparent" points="-4,4 -4,-140 462.5059,-140 462.5059,4 -4,4"/>
<!-- Node37 -->
<g id="node1" class="node">
<title>Node37</title>
<polygon fill="#bfbfbf" stroke="#000000" points="0,-32.5 0,-70.5 111.0488,-70.5 111.0488,-32.5 0,-32.5"/>
<text text-anchor="start" x="8" y="-58.5" font-family="Helvetica,sans-Serif" font-size="10.00" fill="#000000">CO_Security_DB\get</text>
<text text-anchor="start" x="8" y="-48.5" font-family="Helvetica,sans-Serif" font-size="10.00" fill="#000000">_multiple_records_by</text>
<text text-anchor="middle" x="55.5244" y="-38.5" font-family="Helvetica,sans-Serif" font-size="10.00" fill="#000000">_login_id</text>
</g>
<!-- Node38 -->
<g id="node2" class="node">
<title>Node38</title>
<g id="a_node2"><a xlink:href="a00307.html#ad2356dbed1b38898d8c17bcd8eb405ef" target="_top" xlink:title="A_CO_DB\\_create_security\l_predicate">
<polygon fill="#ffffff" stroke="#000000" points="147.0488,-84.5 147.0488,-112.5 285.8809,-112.5 285.8809,-84.5 147.0488,-84.5"/>
<text text-anchor="start" x="155.0488" y="-100.5" font-family="Helvetica,sans-Serif" font-size="10.00" fill="#000000">A_CO_DB\_create_security</text>
<text text-anchor="middle" x="216.4648" y="-90.5" font-family="Helvetica,sans-Serif" font-size="10.00" fill="#000000">_predicate</text>
</a>
</g>
</g>
<!-- Node37&#45;&gt;Node38 -->
<g id="edge1" class="edge">
<title>Node37&#45;&gt;Node38</title>
<path fill="none" stroke="#191970" d="M111.3619,-67.8064C126.6292,-72.265 143.2056,-77.1059 158.5843,-81.5969"/>
<polygon fill="#191970" stroke="#191970" points="157.9113,-85.0465 168.4916,-84.4902 159.8737,-78.3272 157.9113,-85.0465"/>
</g>
<!-- Node41 -->
<g id="node5" class="node">
<title>Node41</title>
<g id="a_node5"><a xlink:href="a00307.html#a523e2f40174a0bca0fc873d6286b3ae9" target="_top" xlink:title="A_CO_DB\\_instantiate\l_record">
<polygon fill="#ffffff" stroke="#000000" points="158.1597,-37.5 158.1597,-65.5 274.77,-65.5 274.77,-37.5 158.1597,-37.5"/>
<text text-anchor="start" x="166.1597" y="-53.5" font-family="Helvetica,sans-Serif" font-size="10.00" fill="#000000">A_CO_DB\_instantiate</text>
<text text-anchor="middle" x="216.4648" y="-43.5" font-family="Helvetica,sans-Serif" font-size="10.00" fill="#000000">_record</text>
</a>
</g>
</g>
<!-- Node37&#45;&gt;Node41 -->
<g id="edge4" class="edge">
<title>Node37&#45;&gt;Node41</title>
<path fill="none" stroke="#191970" d="M111.3619,-51.5C123.136,-51.5 135.6887,-51.5 147.8701,-51.5"/>
<polygon fill="#191970" stroke="#191970" points="147.9901,-55.0001 157.99,-51.5 147.99,-48.0001 147.9901,-55.0001"/>
</g>
<!-- Node42 -->
<g id="node6" class="node">
<title>Node42</title>
<g id="a_node6"><a xlink:href="a00307.html#a2396849660aa4ff018ab7509a4badeb5" target="_top" xlink:title="A_CO_DB\\execute_query">
<polygon fill="#ffffff" stroke="#000000" points="150.9331,-.5 150.9331,-18.5 281.9966,-18.5 281.9966,-.5 150.9331,-.5"/>
<text text-anchor="middle" x="216.4648" y="-6.5" font-family="Helvetica,sans-Serif" font-size="10.00" fill="#000000">A_CO_DB\execute_query</text>
</a>
</g>
</g>
<!-- Node37&#45;&gt;Node42 -->
<g id="edge5" class="edge">
<title>Node37&#45;&gt;Node42</title>
<path fill="none" stroke="#191970" d="M111.3619,-36.9283C131.2168,-31.7469 153.2859,-25.9876 172.0552,-21.0894"/>
<polygon fill="#191970" stroke="#191970" points="173.0311,-24.452 181.8232,-18.5403 171.2635,-17.6789 173.0311,-24.452"/>
</g>
<!-- Node39 -->
<g id="node3" class="node">
<title>Node39</title>
<g id="a_node3"><a xlink:href="a00307.html#a176b2c663fa7768e95e4fbe93281adc6" target="_top" xlink:title="A_CO_DB\\_create_read\l_security_predicate">
<polygon fill="#ffffff" stroke="#000000" points="327.9966,-107.5 327.9966,-135.5 452.3901,-135.5 452.3901,-107.5 327.9966,-107.5"/>
<text text-anchor="start" x="335.9966" y="-123.5" font-family="Helvetica,sans-Serif" font-size="10.00" fill="#000000">A_CO_DB\_create_read</text>
<text text-anchor="middle" x="390.1934" y="-113.5" font-family="Helvetica,sans-Serif" font-size="10.00" fill="#000000">_security_predicate</text>
</a>
</g>
</g>
<!-- Node38&#45;&gt;Node39 -->
<g id="edge2" class="edge">
<title>Node38&#45;&gt;Node39</title>
<path fill="none" stroke="#191970" d="M286.1259,-107.7225C296.5703,-109.1052 307.3604,-110.5337 317.859,-111.9236"/>
<polygon fill="#191970" stroke="#191970" points="317.4418,-115.3988 327.8146,-113.2417 318.3605,-108.4594 317.4418,-115.3988"/>
</g>
<!-- Node40 -->
<g id="node4" class="node">
<title>Node40</title>
<g id="a_node4"><a xlink:href="a00307.html#ad4bc3d416f085818935b32a814313202" target="_top" xlink:title="A_CO_DB\\_create_write\l_security_predicate">
<polygon fill="#ffffff" stroke="#000000" points="327.4473,-60.5 327.4473,-88.5 452.9395,-88.5 452.9395,-60.5 327.4473,-60.5"/>
<text text-anchor="start" x="335.4473" y="-76.5" font-family="Helvetica,sans-Serif" font-size="10.00" fill="#000000">A_CO_DB\_create_write</text>
<text text-anchor="middle" x="390.1934" y="-66.5" font-family="Helvetica,sans-Serif" font-size="10.00" fill="#000000">_security_predicate</text>
</a>
</g>
</g>
<!-- Node38&#45;&gt;Node40 -->
<g id="edge3" class="edge">
<title>Node38&#45;&gt;Node40</title>
<path fill="none" stroke="#191970" d="M286.1259,-88.8766C296.321,-87.4681 306.8455,-86.0142 317.1068,-84.5967"/>
<polygon fill="#191970" stroke="#191970" points="317.8315,-88.0299 327.2585,-83.1942 316.8735,-81.0957 317.8315,-88.0299"/>
</g>
<!-- Node43 -->
<g id="node7" class="node">
<title>Node43</title>
<g id="a_node7"><a xlink:href="a00307.html#ae41efbdfe739934823b5f4c785b22611" target="_top" xlink:title="A_CO_DB\\_execute_query">
<polygon fill="#ffffff" stroke="#000000" points="321.8809,-.5 321.8809,-18.5 458.5059,-18.5 458.5059,-.5 321.8809,-.5"/>
<text text-anchor="middle" x="390.1934" y="-6.5" font-family="Helvetica,sans-Serif" font-size="10.00" fill="#000000">A_CO_DB\_execute_query</text>
</a>
</g>
</g>
<!-- Node42&#45;&gt;Node43 -->
<g id="edge6" class="edge">
<title>Node42&#45;&gt;Node43</title>
<path fill="none" stroke="#191970" d="M282.1441,-9.5C291.7717,-9.5 301.769,-9.5 311.6226,-9.5"/>
<polygon fill="#191970" stroke="#191970" points="311.8177,-13.0001 321.8176,-9.5 311.8176,-6.0001 311.8177,-13.0001"/>
</g>
</g>
</svg>
