<?xml version="1.0" encoding="UTF-8" standalone="no"?>
<!DOCTYPE svg PUBLIC "-//W3C//DTD SVG 1.1//EN"
 "http://www.w3.org/Graphics/SVG/1.1/DTD/svg11.dtd">
<!-- Generated by graphviz version 2.40.1 (20161225.0304)
 -->
<!-- Title: A_CO_DB_Table_Base\_badger_serialize Pages: 1 -->
<!--zoomable 598 -->
<svg id="main" version="1.1" xmlns="http://www.w3.org/2000/svg" xmlns:xlink="http://www.w3.org/1999/xlink" xml:space="preserve" onload="init(evt)">
<style type="text/css"><![CDATA[
.edge:hover path { stroke: red; }
.edge:hover polygon { stroke: red; fill: red; }
]]></style>
<script type="text/javascript"><![CDATA[
var edges = document.getElementsByTagName('g');
if (edges && edges.length) {
  for (var i=0;i<edges.length;i++) {
    if (edges[i].id.substr(0,4)=='edge') {
      edges[i].setAttribute('class','edge');
    }
  }
}
]]></script>
        <defs>
                <circle id="rim" cx="0" cy="0" r="7"/>
                <circle id="rim2" cx="0" cy="0" r="3.5"/>
                <g id="zoomPlus">
                        <use xlink:href="#rim" fill="#404040">
                                <set attributeName="fill" to="#808080" begin="zoomplus.mouseover" end="zoomplus.mouseout"/>
                        </use>
                        <path d="M-4,0h8M0,-4v8" fill="none" stroke="white" stroke-width="1.5" pointer-events="none"/>
                </g>
                <g id="zoomMin">
                        <use xlink:href="#rim" fill="#404040">
                                <set attributeName="fill" to="#808080" begin="zoomminus.mouseover" end="zoomminus.mouseout"/>
                        </use>
                        <path d="M-4,0h8" fill="none" stroke="white" stroke-width="1.5" pointer-events="none"/>
                </g>
                <g id="dirArrow">
                        <path fill="none" stroke="white" stroke-width="1.5" d="M0,-3.0v7 M-2.5,-0.5L0,-3.0L2.5,-0.5"/>
                </g>
               <g id="resetDef">
                       <use xlink:href="#rim2" fill="#404040">
                               <set attributeName="fill" to="#808080" begin="reset.mouseover" end="reset.mouseout"/>
                       </use>
               </g>
        </defs>

<script type="text/javascript">
var viewWidth = 994;
var viewHeight = 598;
var sectionId = 'dynsection-3';
</script>
<script xlink:href="svgpan.js"/>
<svg id="graph" class="graph">
<g id="viewport">
<title>A_CO_DB_Table_Base\_badger_serialize</title>
<polygon fill="#ffffff" stroke="transparent" points="-4,4 -4,-594 990.3906,-594 990.3906,4 -4,4"/>
<!-- Node7 -->
<g id="node1" class="node">
<title>Node7</title>
<polygon fill="#bfbfbf" stroke="#000000" points="0,-241.5 0,-269.5 120.5068,-269.5 120.5068,-241.5 0,-241.5"/>
<text text-anchor="start" x="8" y="-257.5" font-family="Helvetica,sans-Serif" font-size="10.00" fill="#000000">A_CO_DB_Table_Base</text>
<text text-anchor="middle" x="60.2534" y="-247.5" font-family="Helvetica,sans-Serif" font-size="10.00" fill="#000000">\_badger_serialize</text>
</g>
<!-- Node8 -->
<g id="node2" class="node">
<title>Node8</title>
<g id="a_node2"><a xlink:href="a00311.html#a6109c37c5e61ab04ea710b1ebb7615a5" target="_top" xlink:title="A_CO_DB_Table_Base\l\\_build_parameter_array">
<polygon fill="#ffffff" stroke="#000000" points="156.5068,-241.5 156.5068,-269.5 281.457,-269.5 281.457,-241.5 156.5068,-241.5"/>
<text text-anchor="start" x="164.5068" y="-257.5" font-family="Helvetica,sans-Serif" font-size="10.00" fill="#000000">A_CO_DB_Table_Base</text>
<text text-anchor="middle" x="218.9819" y="-247.5" font-family="Helvetica,sans-Serif" font-size="10.00" fill="#000000">\_build_parameter_array</text>
</a>
</g>
</g>
<!-- Node7&#45;&gt;Node8 -->
<g id="edge1" class="edge">
<title>Node7&#45;&gt;Node8</title>
<path fill="none" stroke="#191970" d="M130.9378,-255.5C139.3945,-255.5 147.9842,-255.5 156.3168,-255.5"/>
<polygon fill="#191970" stroke="#191970" points="130.7147,-252.0001 120.7147,-255.5 130.7146,-259.0001 130.7147,-252.0001"/>
</g>
<!-- Node9 -->
<g id="node3" class="node">
<title>Node9</title>
<g id="a_node3"><a xlink:href="a00311.html#adda14b544e11934db3bf8130aeea0610" target="_top" xlink:title="A_CO_DB_Table_Base\l\\_write_to_db">
<polygon fill="#ffffff" stroke="#000000" points="317.457,-241.5 317.457,-269.5 437.9639,-269.5 437.9639,-241.5 317.457,-241.5"/>
<text text-anchor="start" x="325.457" y="-257.5" font-family="Helvetica,sans-Serif" font-size="10.00" fill="#000000">A_CO_DB_Table_Base</text>
<text text-anchor="middle" x="377.7104" y="-247.5" font-family="Helvetica,sans-Serif" font-size="10.00" fill="#000000">\_write_to_db</text>
</a>
</g>
</g>
<!-- Node8&#45;&gt;Node9 -->
<g id="edge2" class="edge">
<title>Node8&#45;&gt;Node9</title>
<path fill="none" stroke="#191970" d="M291.9608,-255.5C300.421,-255.5 308.9786,-255.5 317.2457,-255.5"/>
<polygon fill="#191970" stroke="#191970" points="291.7157,-252.0001 281.7156,-255.5 291.7156,-259.0001 291.7157,-252.0001"/>
</g>
<!-- Node10 -->
<g id="node4" class="node">
<title>Node10</title>
<g id="a_node4"><a xlink:href="a00311.html#a7487697640051c6661b8cdca6f109959" target="_top" xlink:title="A_CO_DB_Table_Base\l\\update_db">
<polygon fill="#ffffff" stroke="#000000" points="480.0796,-265.5 480.0796,-293.5 600.5864,-293.5 600.5864,-265.5 480.0796,-265.5"/>
<text text-anchor="start" x="488.0796" y="-281.5" font-family="Helvetica,sans-Serif" font-size="10.00" fill="#000000">A_CO_DB_Table_Base</text>
<text text-anchor="middle" x="540.333" y="-271.5" font-family="Helvetica,sans-Serif" font-size="10.00" fill="#000000">\update_db</text>
</a>
</g>
</g>
<!-- Node9&#45;&gt;Node10 -->
<g id="edge3" class="edge">
<title>Node9&#45;&gt;Node10</title>
<path fill="none" stroke="#191970" d="M448.2955,-265.917C458.8608,-267.4762 469.672,-269.0718 479.9986,-270.5958"/>
<polygon fill="#191970" stroke="#191970" points="448.669,-262.4343 438.2651,-264.4367 447.6469,-269.3593 448.669,-262.4343"/>
</g>
<!-- Node27 -->
<g id="node21" class="node">
<title>Node27</title>
<g id="a_node21"><a xlink:href="a00343.html#ae927630811dae37fddc34b16878c63fd" target="_top" xlink:title="CO_Security_Login\\delete\l_from_db">
<polygon fill="#ffffff" stroke="#000000" points="473.9639,-218.5 473.9639,-246.5 606.7021,-246.5 606.7021,-218.5 473.9639,-218.5"/>
<text text-anchor="start" x="481.9639" y="-234.5" font-family="Helvetica,sans-Serif" font-size="10.00" fill="#000000">CO_Security_Login\delete</text>
<text text-anchor="middle" x="540.333" y="-224.5" font-family="Helvetica,sans-Serif" font-size="10.00" fill="#000000">_from_db</text>
</a>
</g>
</g>
<!-- Node9&#45;&gt;Node27 -->
<g id="edge20" class="edge">
<title>Node9&#45;&gt;Node27</title>
<path fill="none" stroke="#191970" d="M448.4145,-245.5002C456.818,-244.3117 465.3753,-243.1014 473.719,-241.9213"/>
<polygon fill="#191970" stroke="#191970" points="447.6764,-242.0697 438.2651,-246.9356 448.6567,-249.0007 447.6764,-242.0697"/>
</g>
<!-- Node11 -->
<g id="node5" class="node">
<title>Node11</title>
<g id="a_node5"><a xlink:href="a00311.html#ab976e4ab55890095fc60406326b5de80" target="_top" xlink:title="A_CO_DB_Table_Base\l\\clear_batch_mode">
<polygon fill="#ffffff" stroke="#000000" points="660.4829,-561.5 660.4829,-589.5 780.9897,-589.5 780.9897,-561.5 660.4829,-561.5"/>
<text text-anchor="start" x="668.4829" y="-577.5" font-family="Helvetica,sans-Serif" font-size="10.00" fill="#000000">A_CO_DB_Table_Base</text>
<text text-anchor="middle" x="720.7363" y="-567.5" font-family="Helvetica,sans-Serif" font-size="10.00" fill="#000000">\clear_batch_mode</text>
</a>
</g>
</g>
<!-- Node10&#45;&gt;Node11 -->
<g id="edge4" class="edge">
<title>Node10&#45;&gt;Node11</title>
<path fill="none" stroke="#191970" d="M542.342,-303.9869C548.0333,-357.1662 569.0066,-483.9369 642.7021,-552.5 647.7691,-557.214 653.7552,-560.9661 660.123,-563.9518"/>
<polygon fill="#191970" stroke="#191970" points="545.8029,-303.4152 541.346,-293.8034 538.8361,-304.0966 545.8029,-303.4152"/>
</g>
<!-- Node12 -->
<g id="node6" class="node">
<title>Node12</title>
<g id="a_node6"><a xlink:href="a00311.html#a3d4d1ab7910b9ccfdf8654d767e01d9b" target="_top" xlink:title="A_CO_DB_Table_Base\l\\set_read_security_id">
<polygon fill="#ffffff" stroke="#000000" points="660.4829,-514.5 660.4829,-542.5 780.9897,-542.5 780.9897,-514.5 660.4829,-514.5"/>
<text text-anchor="start" x="668.4829" y="-530.5" font-family="Helvetica,sans-Serif" font-size="10.00" fill="#000000">A_CO_DB_Table_Base</text>
<text text-anchor="middle" x="720.7363" y="-520.5" font-family="Helvetica,sans-Serif" font-size="10.00" fill="#000000">\set_read_security_id</text>
</a>
</g>
</g>
<!-- Node10&#45;&gt;Node12 -->
<g id="edge5" class="edge">
<title>Node10&#45;&gt;Node12</title>
<path fill="none" stroke="#191970" d="M544.417,-303.5599C553.5176,-349.6791 579.8286,-450.793 642.7021,-505.5 647.9231,-510.0428 654.0043,-513.6892 660.4252,-516.6159"/>
<polygon fill="#191970" stroke="#191970" points="547.8294,-302.7664 542.5501,-293.5805 540.9487,-304.0536 547.8294,-302.7664"/>
</g>
<!-- Node13 -->
<g id="node7" class="node">
<title>Node13</title>
<g id="a_node7"><a xlink:href="a00311.html#a55eae92ef3e2f47689019e174f29daf1" target="_top" xlink:title="A_CO_DB_Table_Base\l\\set_write_security_id">
<polygon fill="#ffffff" stroke="#000000" points="660.4829,-467.5 660.4829,-495.5 780.9897,-495.5 780.9897,-467.5 660.4829,-467.5"/>
<text text-anchor="start" x="668.4829" y="-483.5" font-family="Helvetica,sans-Serif" font-size="10.00" fill="#000000">A_CO_DB_Table_Base</text>
<text text-anchor="middle" x="720.7363" y="-473.5" font-family="Helvetica,sans-Serif" font-size="10.00" fill="#000000">\set_write_security_id</text>
</a>
</g>
</g>
<!-- Node10&#45;&gt;Node13 -->
<g id="edge6" class="edge">
<title>Node10&#45;&gt;Node13</title>
<path fill="none" stroke="#191970" d="M547.4841,-303.3447C560.2416,-341.7864 590.592,-417.3034 642.7021,-458.5 648.0204,-462.7044 654.0877,-466.1408 660.4361,-468.9493"/>
<polygon fill="#191970" stroke="#191970" points="550.7295,-302.0027 544.3488,-293.5447 544.0624,-304.1357 550.7295,-302.0027"/>
</g>
<!-- Node14 -->
<g id="node8" class="node">
<title>Node14</title>
<g id="a_node8"><a xlink:href="a00311.html#a92a9b9a122e9471b82dd79432bf3c929" target="_top" xlink:title="A_CO_DB_Table_Base\l\\set_name">
<polygon fill="#ffffff" stroke="#000000" points="660.4829,-420.5 660.4829,-448.5 780.9897,-448.5 780.9897,-420.5 660.4829,-420.5"/>
<text text-anchor="start" x="668.4829" y="-436.5" font-family="Helvetica,sans-Serif" font-size="10.00" fill="#000000">A_CO_DB_Table_Base</text>
<text text-anchor="middle" x="720.7363" y="-426.5" font-family="Helvetica,sans-Serif" font-size="10.00" fill="#000000">\set_name</text>
</a>
</g>
</g>
<!-- Node10&#45;&gt;Node14 -->
<g id="edge7" class="edge">
<title>Node10&#45;&gt;Node14</title>
<path fill="none" stroke="#191970" d="M552.2419,-302.62C568.6531,-332.207 600.9869,-383.0288 642.7021,-411.5 648.0684,-415.1625 654.0256,-418.2514 660.1883,-420.8546"/>
<polygon fill="#191970" stroke="#191970" points="555.3163,-300.9472 547.4813,-293.8153 549.1587,-304.2765 555.3163,-300.9472"/>
</g>
<!-- Node15 -->
<g id="node9" class="node">
<title>Node15</title>
<g id="a_node9"><a xlink:href="a00311.html#a1ed093545fa1cbc3f63a672cdf424734" target="_top" xlink:title="A_CO_DB_Table_Base\l\\set_lang">
<polygon fill="#ffffff" stroke="#000000" points="660.4829,-373.5 660.4829,-401.5 780.9897,-401.5 780.9897,-373.5 660.4829,-373.5"/>
<text text-anchor="start" x="668.4829" y="-389.5" font-family="Helvetica,sans-Serif" font-size="10.00" fill="#000000">A_CO_DB_Table_Base</text>
<text text-anchor="middle" x="720.7363" y="-379.5" font-family="Helvetica,sans-Serif" font-size="10.00" fill="#000000">\set_lang</text>
</a>
</g>
</g>
<!-- Node10&#45;&gt;Node15 -->
<g id="edge8" class="edge">
<title>Node10&#45;&gt;Node15</title>
<path fill="none" stroke="#191970" d="M560.6676,-300.7475C580.0939,-319.9146 611.0298,-347.6147 642.7021,-364.5 649.0584,-367.8887 655.9791,-370.84 662.9871,-373.3938"/>
<polygon fill="#191970" stroke="#191970" points="563.1001,-298.2299 553.5651,-293.6108 558.1385,-303.1678 563.1001,-298.2299"/>
</g>
<!-- Node16 -->
<g id="node10" class="node">
<title>Node16</title>
<g id="a_node10"><a xlink:href="a00319.html#a6349c04b5a027e23f0b8bd8810579844" target="_top" xlink:title="CO_Main_DB_Record\\set\l_owner_id">
<polygon fill="#ffffff" stroke="#000000" points="654.9336,-326.5 654.9336,-354.5 786.5391,-354.5 786.5391,-326.5 654.9336,-326.5"/>
<text text-anchor="start" x="662.9336" y="-342.5" font-family="Helvetica,sans-Serif" font-size="10.00" fill="#000000">CO_Main_DB_Record\set</text>
<text text-anchor="middle" x="720.7363" y="-332.5" font-family="Helvetica,sans-Serif" font-size="10.00" fill="#000000">_owner_id</text>
</a>
</g>
</g>
<!-- Node10&#45;&gt;Node16 -->
<g id="edge9" class="edge">
<title>Node10&#45;&gt;Node16</title>
<path fill="none" stroke="#191970" d="M586.0695,-297.2434C603.6768,-303.8721 624.0331,-311.2919 642.7021,-317.5 651.8157,-320.5306 661.5934,-323.574 671.0396,-326.4095"/>
<polygon fill="#191970" stroke="#191970" points="587.19,-293.9252 576.5987,-293.6548 584.7098,-300.471 587.19,-293.9252"/>
</g>
<!-- Node17 -->
<g id="node11" class="node">
<title>Node17</title>
<g id="a_node11"><a xlink:href="a00319.html#a84074211704eba98c263bd7122cd13f7" target="_top" xlink:title="CO_Main_DB_Record\\set_tags">
<polygon fill="#ffffff" stroke="#000000" points="642.7021,-289.5 642.7021,-307.5 798.7705,-307.5 798.7705,-289.5 642.7021,-289.5"/>
<text text-anchor="middle" x="720.7363" y="-295.5" font-family="Helvetica,sans-Serif" font-size="10.00" fill="#000000">CO_Main_DB_Record\set_tags</text>
</a>
</g>
</g>
<!-- Node10&#45;&gt;Node17 -->
<g id="edge10" class="edge">
<title>Node10&#45;&gt;Node17</title>
<path fill="none" stroke="#191970" d="M610.8841,-286.9304C621.2559,-288.0228 631.9919,-289.1535 642.507,-290.2609"/>
<polygon fill="#191970" stroke="#191970" points="610.9671,-283.4199 600.6555,-285.8531 610.2339,-290.3814 610.9671,-283.4199"/>
</g>
<!-- Node19 -->
<g id="node13" class="node">
<title>Node19</title>
<g id="a_node13"><a xlink:href="a00319.html#a1f9581fbd4aa2611da866405d446295c" target="_top" xlink:title="CO_Main_DB_Record\\set_tag">
<polygon fill="#ffffff" stroke="#000000" points="645.2021,-252.5 645.2021,-270.5 796.2705,-270.5 796.2705,-252.5 645.2021,-252.5"/>
<text text-anchor="middle" x="720.7363" y="-258.5" font-family="Helvetica,sans-Serif" font-size="10.00" fill="#000000">CO_Main_DB_Record\set_tag</text>
</a>
</g>
</g>
<!-- Node10&#45;&gt;Node19 -->
<g id="edge12" class="edge">
<title>Node10&#45;&gt;Node19</title>
<path fill="none" stroke="#191970" d="M610.8297,-272.4661C622.0627,-271.3453 633.7244,-270.1817 645.0709,-269.0496"/>
<polygon fill="#191970" stroke="#191970" points="610.2586,-269.0056 600.6555,-273.4812 610.9536,-275.971 610.2586,-269.0056"/>
</g>
<!-- Node20 -->
<g id="node14" class="node">
<title>Node20</title>
<g id="a_node14"><a xlink:href="a00319.html#a7860101403a734329dd8c1079f5d367e" target="_top" xlink:title="CO_Main_DB_Record\\set\l_payload">
<polygon fill="#ffffff" stroke="#000000" points="654.9336,-205.5 654.9336,-233.5 786.5391,-233.5 786.5391,-205.5 654.9336,-205.5"/>
<text text-anchor="start" x="662.9336" y="-221.5" font-family="Helvetica,sans-Serif" font-size="10.00" fill="#000000">CO_Main_DB_Record\set</text>
<text text-anchor="middle" x="720.7363" y="-211.5" font-family="Helvetica,sans-Serif" font-size="10.00" fill="#000000">_payload</text>
</a>
</g>
</g>
<!-- Node10&#45;&gt;Node20 -->
<g id="edge13" class="edge">
<title>Node10&#45;&gt;Node20</title>
<path fill="none" stroke="#191970" d="M590.7275,-262.1125C596.1235,-260.228 601.5288,-258.3304 606.7021,-256.5 622.7392,-250.8259 626.5677,-248.8908 642.7021,-243.5 652.6502,-240.1762 663.3674,-236.7685 673.5778,-233.6033"/>
<polygon fill="#191970" stroke="#191970" points="589.3698,-258.8792 581.0772,-265.4734 591.672,-265.4897 589.3698,-258.8792"/>
</g>
<!-- Node21 -->
<g id="node15" class="node">
<title>Node21</title>
<g id="a_node15"><a xlink:href="a00331.html#a241314e7be52a7ca6487e41f34bb78fd" target="_top" xlink:title="CO_Security_Node\\set_ids">
<polygon fill="#ffffff" stroke="#000000" points="652.4287,-168.5 652.4287,-186.5 789.0439,-186.5 789.0439,-168.5 652.4287,-168.5"/>
<text text-anchor="middle" x="720.7363" y="-174.5" font-family="Helvetica,sans-Serif" font-size="10.00" fill="#000000">CO_Security_Node\set_ids</text>
</a>
</g>
</g>
<!-- Node10&#45;&gt;Node21 -->
<g id="edge14" class="edge">
<title>Node10&#45;&gt;Node21</title>
<path fill="none" stroke="#191970" d="M601.6934,-260.1819C603.4293,-259.0232 605.1046,-257.7971 606.7021,-256.5 630.8445,-236.8976 617.6584,-214.937 642.7021,-196.5 648.3165,-192.3668 654.7145,-189.1233 661.3759,-186.5796"/>
<polygon fill="#191970" stroke="#191970" points="599.5034,-257.4045 592.5886,-265.4317 603,-263.4686 599.5034,-257.4045"/>
</g>
<!-- Node23 -->
<g id="node17" class="node">
<title>Node23</title>
<g id="a_node17"><a xlink:href="a00331.html#a4a3ed38130b49569d494ec7c262ca32d" target="_top" xlink:title="CO_Security_Node\\add_id">
<polygon fill="#ffffff" stroke="#000000" points="653.2563,-131.5 653.2563,-149.5 788.2163,-149.5 788.2163,-131.5 653.2563,-131.5"/>
<text text-anchor="middle" x="720.7363" y="-137.5" font-family="Helvetica,sans-Serif" font-size="10.00" fill="#000000">CO_Security_Node\add_id</text>
</a>
</g>
</g>
<!-- Node10&#45;&gt;Node23 -->
<g id="edge16" class="edge">
<title>Node10&#45;&gt;Node23</title>
<path fill="none" stroke="#191970" d="M603.1967,-259.6253C604.4141,-258.6337 605.5854,-257.5927 606.7021,-256.5 639.5702,-224.3401 608.3478,-190.0671 642.7021,-159.5 647.2856,-155.4218 652.5987,-152.1843 658.2552,-149.6188"/>
<polygon fill="#191970" stroke="#191970" points="600.8835,-256.9655 594.5783,-265.4799 604.817,-262.7558 600.8835,-256.9655"/>
</g>
<!-- Node24 -->
<g id="node18" class="node">
<title>Node24</title>
<g id="a_node18"><a xlink:href="a00343.html#a061f896c69dc8a8dd3d9ee793b91ddc7" target="_top" xlink:title="CO_Security_Login\\set_lang">
<polygon fill="#ffffff" stroke="#000000" points="649.0864,-94.5 649.0864,-112.5 792.3862,-112.5 792.3862,-94.5 649.0864,-94.5"/>
<text text-anchor="middle" x="720.7363" y="-100.5" font-family="Helvetica,sans-Serif" font-size="10.00" fill="#000000">CO_Security_Login\set_lang</text>
</a>
</g>
</g>
<!-- Node10&#45;&gt;Node24 -->
<g id="edge17" class="edge">
<title>Node10&#45;&gt;Node24</title>
<path fill="none" stroke="#191970" d="M603.8416,-259.3134C604.8352,-258.4161 605.7906,-257.4789 606.7021,-256.5 648.7294,-211.3715 598.5847,-165.5873 642.7021,-122.5 646.8917,-118.4082 651.807,-115.1476 657.0971,-112.5557"/>
<polygon fill="#191970" stroke="#191970" points="601.5189,-256.6781 595.5638,-265.441 605.6837,-262.3044 601.5189,-256.6781"/>
</g>
<!-- Node25 -->
<g id="node19" class="node">
<title>Node25</title>
<g id="a_node19"><a xlink:href="a00343.html#ac4f0c16cb8cf1e2151451bf4d5cb2238" target="_top" xlink:title="CO_Security_Login\\set\l_password_from_cleartext">
<polygon fill="#ffffff" stroke="#000000" points="654.0986,-47.5 654.0986,-75.5 787.374,-75.5 787.374,-47.5 654.0986,-47.5"/>
<text text-anchor="start" x="662.0986" y="-63.5" font-family="Helvetica,sans-Serif" font-size="10.00" fill="#000000">CO_Security_Login\set</text>
<text text-anchor="middle" x="720.7363" y="-53.5" font-family="Helvetica,sans-Serif" font-size="10.00" fill="#000000">_password_from_cleartext</text>
</a>
</g>
</g>
<!-- Node10&#45;&gt;Node25 -->
<g id="edge18" class="edge">
<title>Node10&#45;&gt;Node25</title>
<path fill="none" stroke="#191970" d="M603.9911,-259.3105C604.9351,-258.4141 605.8405,-257.4778 606.7021,-256.5 658.0509,-198.2307 590.3353,-142.856 642.7021,-85.5 646.2382,-81.6271 650.3822,-78.3723 654.8845,-75.638"/>
<polygon fill="#191970" stroke="#191970" points="601.8479,-256.5434 596.0841,-265.4333 606.1336,-262.0781 601.8479,-256.5434"/>
</g>
<!-- Node26 -->
<g id="node20" class="node">
<title>Node26</title>
<g id="a_node20"><a xlink:href="a00343.html#a59e2e5be376349924698305603bfb51f" target="_top" xlink:title="CO_Security_Login\\clear\l_api_key">
<polygon fill="#ffffff" stroke="#000000" points="657.1528,-.5 657.1528,-28.5 784.3198,-28.5 784.3198,-.5 657.1528,-.5"/>
<text text-anchor="start" x="665.1528" y="-16.5" font-family="Helvetica,sans-Serif" font-size="10.00" fill="#000000">CO_Security_Login\clear</text>
<text text-anchor="middle" x="720.7363" y="-6.5" font-family="Helvetica,sans-Serif" font-size="10.00" fill="#000000">_api_key</text>
</a>
</g>
</g>
<!-- Node10&#45;&gt;Node26 -->
<g id="edge19" class="edge">
<title>Node10&#45;&gt;Node26</title>
<path fill="none" stroke="#191970" d="M604.4221,-258.9916C605.2139,-258.1926 605.9751,-257.3624 606.7021,-256.5 669.9974,-181.4189 578.0946,-112.4549 642.7021,-38.5 646.712,-33.9101 651.5763,-30.1849 656.8951,-27.1636"/>
<polygon fill="#191970" stroke="#191970" points="602.1158,-256.3558 596.5588,-265.3763 606.5282,-261.79 602.1158,-256.3558"/>
</g>
<!-- Node18 -->
<g id="node12" class="node">
<title>Node18</title>
<g id="a_node12"><a xlink:href="a00263.html#a887a876b0603db0289a8bdc7ab4e66b2" target="_top" xlink:title="CO_Place\\set_tags_from\l_address_elements">
<polygon fill="#ffffff" stroke="#000000" points="846.7212,-284.5 846.7212,-312.5 974.4399,-312.5 974.4399,-284.5 846.7212,-284.5"/>
<text text-anchor="start" x="854.7212" y="-300.5" font-family="Helvetica,sans-Serif" font-size="10.00" fill="#000000">CO_Place\set_tags_from</text>
<text text-anchor="middle" x="910.5806" y="-290.5" font-family="Helvetica,sans-Serif" font-size="10.00" fill="#000000">_address_elements</text>
</a>
</g>
</g>
<!-- Node17&#45;&gt;Node18 -->
<g id="edge11" class="edge">
<title>Node17&#45;&gt;Node18</title>
<path fill="none" stroke="#191970" d="M808.8755,-298.5C821.5348,-298.5 834.3557,-298.5 846.4315,-298.5"/>
<polygon fill="#191970" stroke="#191970" points="808.7751,-295.0001 798.7751,-298.5 808.7751,-302.0001 808.7751,-295.0001"/>
</g>
<!-- Node22 -->
<g id="node16" class="node">
<title>Node22</title>
<g id="a_node16"><a xlink:href="a00331.html#af852d696981829b18e29fb07918d8630" target="_top" xlink:title="CO_Security_Node\\remove_id">
<polygon fill="#ffffff" stroke="#000000" points="834.7705,-168.5 834.7705,-186.5 986.3906,-186.5 986.3906,-168.5 834.7705,-168.5"/>
<text text-anchor="middle" x="910.5806" y="-174.5" font-family="Helvetica,sans-Serif" font-size="10.00" fill="#000000">CO_Security_Node\remove_id</text>
</a>
</g>
</g>
<!-- Node21&#45;&gt;Node22 -->
<g id="edge15" class="edge">
<title>Node21&#45;&gt;Node22</title>
<path fill="none" stroke="#191970" d="M799.4326,-177.5C811.1118,-177.5 823.1288,-177.5 834.7477,-177.5"/>
<polygon fill="#191970" stroke="#191970" points="799.2745,-174.0001 789.2745,-177.5 799.2744,-181.0001 799.2745,-174.0001"/>
</g>
</g>
</svg>
        <g id="navigator" transform="translate(0 0)" fill="#404254">
                <rect fill="#f2f5e9" fill-opacity="0.5" stroke="#606060" stroke-width=".5" x="0" y="0" width="60" height="60"/>
                <use id="zoomplus" xlink:href="#zoomPlus" x="17" y="9" onmousedown="handleZoom(evt,'in')"/>
                <use id="zoomminus" xlink:href="#zoomMin" x="42" y="9" onmousedown="handleZoom(evt,'out')"/>
                <use id="reset" xlink:href="#resetDef" x="30" y="36" onmousedown="handleReset()"/>
                <g id="arrowUp" xlink:href="#dirArrow" transform="translate(30 24)" onmousedown="handlePan(0,-1)">
                  <use xlink:href="#rim" fill="#404040">
                        <set attributeName="fill" to="#808080" begin="arrowUp.mouseover" end="arrowUp.mouseout"/>
                  </use>
                  <path fill="none" stroke="white" stroke-width="1.5" d="M0,-3.0v7 M-2.5,-0.5L0,-3.0L2.5,-0.5"/>
                </g>
                <g id="arrowRight" xlink:href="#dirArrow" transform="rotate(90) translate(36 -43)" onmousedown="handlePan(1,0)">
                  <use xlink:href="#rim" fill="#404040">
                        <set attributeName="fill" to="#808080" begin="arrowRight.mouseover" end="arrowRight.mouseout"/>
                  </use>
                  <path fill="none" stroke="white" stroke-width="1.5" d="M0,-3.0v7 M-2.5,-0.5L0,-3.0L2.5,-0.5"/>
                </g>
                <g id="arrowDown" xlink:href="#dirArrow" transform="rotate(180) translate(-30 -48)" onmousedown="handlePan(0,1)">
                  <use xlink:href="#rim" fill="#404040">
                        <set attributeName="fill" to="#808080" begin="arrowDown.mouseover" end="arrowDown.mouseout"/>
                  </use>
                  <path fill="none" stroke="white" stroke-width="1.5" d="M0,-3.0v7 M-2.5,-0.5L0,-3.0L2.5,-0.5"/>
                </g>
                <g id="arrowLeft" xlink:href="#dirArrow" transform="rotate(270) translate(-36 17)" onmousedown="handlePan(-1,0)">
                  <use xlink:href="#rim" fill="#404040">
                        <set attributeName="fill" to="#808080" begin="arrowLeft.mouseover" end="arrowLeft.mouseout"/>
                  </use>
                  <path fill="none" stroke="white" stroke-width="1.5" d="M0,-3.0v7 M-2.5,-0.5L0,-3.0L2.5,-0.5"/>
                </g>
        </g>
        <svg viewBox="0 0 15 15" width="100%" height="30px" preserveAspectRatio="xMaxYMin meet">
         <g id="arrow_out" transform="scale(0.3 0.3)">
          <a xlink:href="a00311_afb32d1e32b8e1c1de2e008c9b88f7846_icgraph_org.svg" target="_base">
           <rect id="button" ry="5" rx="5" y="6" x="6" height="38" width="38"
                fill="#f2f5e9" fill-opacity="0.5" stroke="#606060" stroke-width="1.0"/>
           <path id="arrow"
             d="M 11.500037,31.436501 C 11.940474,20.09759 22.043105,11.32322 32.158766,21.979434 L 37.068811,17.246167 C 37.068811,17.246167 37.088388,32 37.088388,32 L 22.160133,31.978069 C 22.160133,31.978069 26.997745,27.140456 26.997745,27.140456 C 18.528582,18.264221 13.291696,25.230495 11.500037,31.436501 z"
             style="fill:#404040;"/>
          </a>
         </g>
        </svg>
</svg>
