<?xml version="1.0" encoding="UTF-8" standalone="no"?>
<!DOCTYPE svg PUBLIC "-//W3C//DTD SVG 1.1//EN"
 "http://www.w3.org/Graphics/SVG/1.1/DTD/svg11.dtd">
<!-- Generated by graphviz version 2.40.1 (20161225.0304)
 -->
<!-- Title: A_CO_DB\get_access_class_by_id Pages: 1 -->
<svg width="472pt" height="121pt"
 viewBox="0.00 0.00 471.51 121.00" xmlns="http://www.w3.org/2000/svg" xmlns:xlink="http://www.w3.org/1999/xlink">
<g id="graph0" class="graph" transform="scale(1 1) rotate(0) translate(4 117)">
<title>A_CO_DB\get_access_class_by_id</title>
<polygon fill="#ffffff" stroke="transparent" points="-4,4 -4,-117 467.5059,-117 467.5059,4 -4,4"/>
<!-- Node144 -->
<g id="node1" class="node">
<title>Node144</title>
<polygon fill="#bfbfbf" stroke="#000000" points="0,-16.5 0,-44.5 116.0488,-44.5 116.0488,-16.5 0,-16.5"/>
<text text-anchor="start" x="8" y="-32.5" font-family="Helvetica,sans-Serif" font-size="10.00" fill="#000000">A_CO_DB\get_access</text>
<text text-anchor="middle" x="58.0244" y="-22.5" font-family="Helvetica,sans-Serif" font-size="10.00" fill="#000000">_class_by_id</text>
</g>
<!-- Node145 -->
<g id="node2" class="node">
<title>Node145</title>
<g id="a_node2"><a xlink:href="a00307.html#ad2356dbed1b38898d8c17bcd8eb405ef" target="_top" xlink:title="A_CO_DB\\_create_security\l_predicate">
<polygon fill="#ffffff" stroke="#000000" points="152.0488,-37.5 152.0488,-65.5 290.8809,-65.5 290.8809,-37.5 152.0488,-37.5"/>
<text text-anchor="start" x="160.0488" y="-53.5" font-family="Helvetica,sans-Serif" font-size="10.00" fill="#000000">A_CO_DB\_create_security</text>
<text text-anchor="middle" x="221.4648" y="-43.5" font-family="Helvetica,sans-Serif" font-size="10.00" fill="#000000">_predicate</text>
</a>
</g>
</g>
<!-- Node144&#45;&gt;Node145 -->
<g id="edge1" class="edge">
<title>Node144&#45;&gt;Node145</title>
<path fill="none" stroke="#191970" d="M116.1076,-37.9629C124.417,-39.0306 133.0831,-40.1441 141.7197,-41.2538"/>
<polygon fill="#191970" stroke="#191970" points="141.4573,-44.7487 151.8218,-42.5518 142.3494,-37.8058 141.4573,-44.7487"/>
</g>
<!-- Node148 -->
<g id="node5" class="node">
<title>Node148</title>
<g id="a_node5"><a xlink:href="a00307.html#a2396849660aa4ff018ab7509a4badeb5" target="_top" xlink:title="A_CO_DB\\execute_query">
<polygon fill="#ffffff" stroke="#000000" points="155.9331,-.5 155.9331,-18.5 286.9966,-18.5 286.9966,-.5 155.9331,-.5"/>
<text text-anchor="middle" x="221.4648" y="-6.5" font-family="Helvetica,sans-Serif" font-size="10.00" fill="#000000">A_CO_DB\execute_query</text>
</a>
</g>
</g>
<!-- Node144&#45;&gt;Node148 -->
<g id="edge4" class="edge">
<title>Node144&#45;&gt;Node148</title>
<path fill="none" stroke="#191970" d="M116.1076,-23.0371C125.7416,-21.7992 135.8552,-20.4997 145.8465,-19.216"/>
<polygon fill="#191970" stroke="#191970" points="146.3023,-22.6863 155.7747,-17.9403 145.4102,-15.7434 146.3023,-22.6863"/>
</g>
<!-- Node146 -->
<g id="node3" class="node">
<title>Node146</title>
<g id="a_node3"><a xlink:href="a00307.html#a176b2c663fa7768e95e4fbe93281adc6" target="_top" xlink:title="A_CO_DB\\_create_read\l_security_predicate">
<polygon fill="#ffffff" stroke="#000000" points="332.9966,-84.5 332.9966,-112.5 457.3901,-112.5 457.3901,-84.5 332.9966,-84.5"/>
<text text-anchor="start" x="340.9966" y="-100.5" font-family="Helvetica,sans-Serif" font-size="10.00" fill="#000000">A_CO_DB\_create_read</text>
<text text-anchor="middle" x="395.1934" y="-90.5" font-family="Helvetica,sans-Serif" font-size="10.00" fill="#000000">_security_predicate</text>
</a>
</g>
</g>
<!-- Node145&#45;&gt;Node146 -->
<g id="edge2" class="edge">
<title>Node145&#45;&gt;Node146</title>
<path fill="none" stroke="#191970" d="M273.5891,-65.6015C292.485,-70.7136 314.0067,-76.536 333.6386,-81.8472"/>
<polygon fill="#191970" stroke="#191970" points="332.8384,-85.2564 343.4054,-84.4894 334.6665,-78.4993 332.8384,-85.2564"/>
</g>
<!-- Node147 -->
<g id="node4" class="node">
<title>Node147</title>
<g id="a_node4"><a xlink:href="a00307.html#ad4bc3d416f085818935b32a814313202" target="_top" xlink:title="A_CO_DB\\_create_write\l_security_predicate">
<polygon fill="#ffffff" stroke="#000000" points="332.4473,-37.5 332.4473,-65.5 457.9395,-65.5 457.9395,-37.5 332.4473,-37.5"/>
<text text-anchor="start" x="340.4473" y="-53.5" font-family="Helvetica,sans-Serif" font-size="10.00" fill="#000000">A_CO_DB\_create_write</text>
<text text-anchor="middle" x="395.1934" y="-43.5" font-family="Helvetica,sans-Serif" font-size="10.00" fill="#000000">_security_predicate</text>
</a>
</g>
</g>
<!-- Node145&#45;&gt;Node147 -->
<g id="edge3" class="edge">
<title>Node145&#45;&gt;Node147</title>
<path fill="none" stroke="#191970" d="M291.1259,-51.5C301.321,-51.5 311.8455,-51.5 322.1068,-51.5"/>
<polygon fill="#191970" stroke="#191970" points="322.2585,-55.0001 332.2585,-51.5 322.2584,-48.0001 322.2585,-55.0001"/>
</g>
<!-- Node149 -->
<g id="node6" class="node">
<title>Node149</title>
<g id="a_node6"><a xlink:href="a00307.html#ae41efbdfe739934823b5f4c785b22611" target="_top" xlink:title="A_CO_DB\\_execute_query">
<polygon fill="#ffffff" stroke="#000000" points="326.8809,-.5 326.8809,-18.5 463.5059,-18.5 463.5059,-.5 326.8809,-.5"/>
<text text-anchor="middle" x="395.1934" y="-6.5" font-family="Helvetica,sans-Serif" font-size="10.00" fill="#000000">A_CO_DB\_execute_query</text>
</a>
</g>
</g>
<!-- Node148&#45;&gt;Node149 -->
<g id="edge5" class="edge">
<title>Node148&#45;&gt;Node149</title>
<path fill="none" stroke="#191970" d="M287.1441,-9.5C296.7717,-9.5 306.769,-9.5 316.6226,-9.5"/>
<polygon fill="#191970" stroke="#191970" points="316.8177,-13.0001 326.8176,-9.5 316.8176,-6.0001 316.8177,-13.0001"/>
</g>
</g>
</svg>
