<?xml version="1.0" encoding="UTF-8" standalone="no"?>
<!DOCTYPE svg PUBLIC "-//W3C//DTD SVG 1.1//EN"
 "http://www.w3.org/Graphics/SVG/1.1/DTD/svg11.dtd">
<!-- Generated by graphviz version 2.40.1 (20161225.0304)
 -->
<!-- Title: A_CO_DB_Table_Base\id Pages: 1 -->
<svg width="1026pt" height="598pt"
 viewBox="0.00 0.00 1026.05 598.00" xmlns="http://www.w3.org/2000/svg" xmlns:xlink="http://www.w3.org/1999/xlink">
<g id="graph0" class="graph" transform="scale(1 1) rotate(0) translate(4 594)">
<title>A_CO_DB_Table_Base\id</title>
<polygon fill="#ffffff" stroke="transparent" points="-4,4 -4,-594 1022.0508,-594 1022.0508,4 -4,4"/>
<!-- Node150 -->
<g id="node1" class="node">
<title>Node150</title>
<polygon fill="#bfbfbf" stroke="#000000" points="0,-227.5 0,-245.5 131.0684,-245.5 131.0684,-227.5 0,-227.5"/>
<text text-anchor="middle" x="65.5342" y="-233.5" font-family="Helvetica,sans-Serif" font-size="10.00" fill="#000000">A_CO_DB_Table_Base\id</text>
</g>
<!-- Node151 -->
<g id="node2" class="node">
<title>Node151</title>
<g id="a_node2"><a xlink:href="a00339.html#af1d11dbf7700212c87723b2cbd5d4e80" target="_top" xlink:title="CO_Security_ID\\__construct">
<polygon fill="#ffffff" stroke="#000000" points="167.0684,-331.5 167.0684,-349.5 309.7871,-349.5 309.7871,-331.5 167.0684,-331.5"/>
<text text-anchor="middle" x="238.4277" y="-337.5" font-family="Helvetica,sans-Serif" font-size="10.00" fill="#000000">CO_Security_ID\__construct</text>
</a>
</g>
</g>
<!-- Node150&#45;&gt;Node151 -->
<g id="edge1" class="edge">
<title>Node150&#45;&gt;Node151</title>
<path fill="none" stroke="#191970" d="M80.4682,-253.1018C98.9265,-272.6047 132.1945,-304.5688 167.0684,-322.5 174.1133,-326.1223 181.9314,-329.0459 189.735,-331.3966"/>
<polygon fill="#191970" stroke="#191970" points="82.8665,-250.5405 73.5027,-245.5836 77.7315,-255.2979 82.8665,-250.5405"/>
</g>
<!-- Node152 -->
<g id="node3" class="node">
<title>Node152</title>
<g id="a_node3"><a xlink:href="a00311.html#a6109c37c5e61ab04ea710b1ebb7615a5" target="_top" xlink:title="A_CO_DB_Table_Base\l\\_build_parameter_array">
<polygon fill="#ffffff" stroke="#000000" points="175.9526,-284.5 175.9526,-312.5 300.9028,-312.5 300.9028,-284.5 175.9526,-284.5"/>
<text text-anchor="start" x="183.9526" y="-300.5" font-family="Helvetica,sans-Serif" font-size="10.00" fill="#000000">A_CO_DB_Table_Base</text>
<text text-anchor="middle" x="238.4277" y="-290.5" font-family="Helvetica,sans-Serif" font-size="10.00" fill="#000000">\_build_parameter_array</text>
</a>
</g>
</g>
<!-- Node150&#45;&gt;Node152 -->
<g id="edge2" class="edge">
<title>Node150&#45;&gt;Node152</title>
<path fill="none" stroke="#191970" d="M100.2556,-248.9512C128.8573,-259.2078 169.4067,-273.7489 199.182,-284.4264"/>
<polygon fill="#191970" stroke="#191970" points="101.2689,-245.5964 90.6744,-245.5153 98.906,-252.1855 101.2689,-245.5964"/>
</g>
<!-- Node153 -->
<g id="node4" class="node">
<title>Node153</title>
<g id="a_node4"><a xlink:href="a00311.html#adda14b544e11934db3bf8130aeea0610" target="_top" xlink:title="A_CO_DB_Table_Base\l\\_write_to_db">
<polygon fill="#ffffff" stroke="#000000" points="347.4521,-277.5 347.4521,-305.5 467.959,-305.5 467.959,-277.5 347.4521,-277.5"/>
<text text-anchor="start" x="355.4521" y="-293.5" font-family="Helvetica,sans-Serif" font-size="10.00" fill="#000000">A_CO_DB_Table_Base</text>
<text text-anchor="middle" x="407.7056" y="-283.5" font-family="Helvetica,sans-Serif" font-size="10.00" fill="#000000">\_write_to_db</text>
</a>
</g>
</g>
<!-- Node150&#45;&gt;Node153 -->
<g id="edge22" class="edge">
<title>Node150&#45;&gt;Node153</title>
<path fill="none" stroke="#191970" d="M132.4748,-247.1213C181.5636,-254.9264 249.8272,-265.8144 309.7871,-275.5 321.9455,-277.464 334.9506,-279.579 347.381,-281.6075"/>
<polygon fill="#191970" stroke="#191970" points="132.7262,-243.6174 122.3007,-245.5041 131.6273,-250.5306 132.7262,-243.6174"/>
</g>
<!-- Node172 -->
<g id="node23" class="node">
<title>Node172</title>
<g id="a_node23"><a xlink:href="a00343.html#aac538e52310a1c332914682a9c2ec8d2" target="_top" xlink:title="CO_Security_Login\\is_god">
<polygon fill="#ffffff" stroke="#000000" points="170.9478,-208.5 170.9478,-226.5 305.9077,-226.5 305.9077,-208.5 170.9478,-208.5"/>
<text text-anchor="middle" x="238.4277" y="-214.5" font-family="Helvetica,sans-Serif" font-size="10.00" fill="#000000">CO_Security_Login\is_god</text>
</a>
</g>
</g>
<!-- Node150&#45;&gt;Node172 -->
<g id="edge23" class="edge">
<title>Node150&#45;&gt;Node172</title>
<path fill="none" stroke="#191970" d="M141.4631,-228.1558C151.2115,-227.0846 161.141,-225.9934 170.7458,-224.9378"/>
<polygon fill="#191970" stroke="#191970" points="140.9488,-224.6912 131.391,-229.2627 141.7135,-231.6493 140.9488,-224.6912"/>
</g>
<!-- Node177 -->
<g id="node28" class="node">
<title>Node177</title>
<g id="a_node28"><a xlink:href="a00339.html#ac71178523968cdc025bcbc226951896b" target="_top" xlink:title="CO_Security_ID\\load\l_from_db">
<polygon fill="#ffffff" stroke="#000000" points="183.4624,-161.5 183.4624,-189.5 293.3931,-189.5 293.3931,-161.5 183.4624,-161.5"/>
<text text-anchor="start" x="191.4624" y="-177.5" font-family="Helvetica,sans-Serif" font-size="10.00" fill="#000000">CO_Security_ID\load</text>
<text text-anchor="middle" x="238.4277" y="-167.5" font-family="Helvetica,sans-Serif" font-size="10.00" fill="#000000">_from_db</text>
</a>
</g>
</g>
<!-- Node150&#45;&gt;Node177 -->
<g id="edge28" class="edge">
<title>Node150&#45;&gt;Node177</title>
<path fill="none" stroke="#191970" d="M99.5507,-223.8633C119.2328,-216.6121 144.4989,-207.4062 167.0684,-199.5 176.4435,-196.2158 186.5414,-192.7664 196.1066,-189.5393"/>
<polygon fill="#191970" stroke="#191970" points="98.2615,-220.6083 90.093,-227.3555 100.6863,-227.175 98.2615,-220.6083"/>
</g>
<!-- Node178 -->
<g id="node29" class="node">
<title>Node178</title>
<g id="a_node29"><a xlink:href="a00311.html#a91b894b2b9aa29d47c43e519f5ad0bf6" target="_top" xlink:title="A_CO_DB_Table_Base\l\\load_from_db">
<polygon fill="#ffffff" stroke="#000000" points="178.1743,-114.5 178.1743,-142.5 298.6812,-142.5 298.6812,-114.5 178.1743,-114.5"/>
<text text-anchor="start" x="186.1743" y="-130.5" font-family="Helvetica,sans-Serif" font-size="10.00" fill="#000000">A_CO_DB_Table_Base</text>
<text text-anchor="middle" x="238.4277" y="-120.5" font-family="Helvetica,sans-Serif" font-size="10.00" fill="#000000">\load_from_db</text>
</a>
</g>
</g>
<!-- Node150&#45;&gt;Node178 -->
<g id="edge29" class="edge">
<title>Node150&#45;&gt;Node178</title>
<path fill="none" stroke="#191970" d="M81.3732,-220.1719C100.2516,-201.5248 133.4834,-171.1895 167.0684,-152.5 173.807,-148.7501 181.2298,-145.4539 188.6635,-142.6014"/>
<polygon fill="#191970" stroke="#191970" points="78.7738,-217.8221 74.2021,-227.3799 83.7363,-222.7592 78.7738,-217.8221"/>
</g>
<!-- Node152&#45;&gt;Node153 -->
<g id="edge3" class="edge">
<title>Node152&#45;&gt;Node153</title>
<path fill="none" stroke="#191970" d="M311.0541,-295.4967C323.1679,-294.9958 335.6169,-294.481 347.3811,-293.9945"/>
<polygon fill="#191970" stroke="#191970" points="310.8264,-292.0031 300.9796,-295.9133 311.1157,-298.9971 310.8264,-292.0031"/>
</g>
<!-- Node154 -->
<g id="node5" class="node">
<title>Node154</title>
<g id="a_node5"><a xlink:href="a00343.html#ae927630811dae37fddc34b16878c63fd" target="_top" xlink:title="CO_Security_Login\\delete\l_from_db">
<polygon fill="#ffffff" stroke="#000000" points="505.624,-312.5 505.624,-340.5 638.3623,-340.5 638.3623,-312.5 505.624,-312.5"/>
<text text-anchor="start" x="513.624" y="-328.5" font-family="Helvetica,sans-Serif" font-size="10.00" fill="#000000">CO_Security_Login\delete</text>
<text text-anchor="middle" x="571.9932" y="-318.5" font-family="Helvetica,sans-Serif" font-size="10.00" fill="#000000">_from_db</text>
</a>
</g>
</g>
<!-- Node153&#45;&gt;Node154 -->
<g id="edge4" class="edge">
<title>Node153&#45;&gt;Node154</title>
<path fill="none" stroke="#191970" d="M478.2961,-306.5387C487.4956,-308.4986 496.8924,-310.5005 506.0124,-312.4434"/>
<polygon fill="#191970" stroke="#191970" points="478.9233,-303.0938 468.4134,-304.4333 477.4646,-309.9402 478.9233,-303.0938"/>
</g>
<!-- Node155 -->
<g id="node6" class="node">
<title>Node155</title>
<g id="a_node6"><a xlink:href="a00311.html#a7487697640051c6661b8cdca6f109959" target="_top" xlink:title="A_CO_DB_Table_Base\l\\update_db">
<polygon fill="#ffffff" stroke="#000000" points="511.7397,-265.5 511.7397,-293.5 632.2466,-293.5 632.2466,-265.5 511.7397,-265.5"/>
<text text-anchor="start" x="519.7397" y="-281.5" font-family="Helvetica,sans-Serif" font-size="10.00" fill="#000000">A_CO_DB_Table_Base</text>
<text text-anchor="middle" x="571.9932" y="-271.5" font-family="Helvetica,sans-Serif" font-size="10.00" fill="#000000">\update_db</text>
</a>
</g>
</g>
<!-- Node153&#45;&gt;Node155 -->
<g id="edge5" class="edge">
<title>Node153&#45;&gt;Node155</title>
<path fill="none" stroke="#191970" d="M478.4363,-286.3336C489.4612,-285.5284 500.7658,-284.7026 511.5348,-283.916"/>
<polygon fill="#191970" stroke="#191970" points="478.1319,-282.8465 468.4134,-287.0657 478.6419,-289.8279 478.1319,-282.8465"/>
</g>
<!-- Node156 -->
<g id="node7" class="node">
<title>Node156</title>
<g id="a_node7"><a xlink:href="a00311.html#ab976e4ab55890095fc60406326b5de80" target="_top" xlink:title="A_CO_DB_Table_Base\l\\clear_batch_mode">
<polygon fill="#ffffff" stroke="#000000" points="692.1431,-561.5 692.1431,-589.5 812.6499,-589.5 812.6499,-561.5 692.1431,-561.5"/>
<text text-anchor="start" x="700.1431" y="-577.5" font-family="Helvetica,sans-Serif" font-size="10.00" fill="#000000">A_CO_DB_Table_Base</text>
<text text-anchor="middle" x="752.3965" y="-567.5" font-family="Helvetica,sans-Serif" font-size="10.00" fill="#000000">\clear_batch_mode</text>
</a>
</g>
</g>
<!-- Node155&#45;&gt;Node156 -->
<g id="edge6" class="edge">
<title>Node155&#45;&gt;Node156</title>
<path fill="none" stroke="#191970" d="M635.1956,-300.0309C636.3121,-301.1276 637.3707,-302.283 638.3623,-303.5 708.9933,-390.1855 601.1478,-467.9852 674.3623,-552.5 679.1712,-558.0511 685.2461,-562.296 691.8744,-565.5364"/>
<polygon fill="#191970" stroke="#191970" points="637.0986,-297.0733 627.0859,-293.6096 632.7532,-302.5613 637.0986,-297.0733"/>
</g>
<!-- Node157 -->
<g id="node8" class="node">
<title>Node157</title>
<g id="a_node8"><a xlink:href="a00311.html#a3d4d1ab7910b9ccfdf8654d767e01d9b" target="_top" xlink:title="A_CO_DB_Table_Base\l\\set_read_security_id">
<polygon fill="#ffffff" stroke="#000000" points="692.1431,-514.5 692.1431,-542.5 812.6499,-542.5 812.6499,-514.5 692.1431,-514.5"/>
<text text-anchor="start" x="700.1431" y="-530.5" font-family="Helvetica,sans-Serif" font-size="10.00" fill="#000000">A_CO_DB_Table_Base</text>
<text text-anchor="middle" x="752.3965" y="-520.5" font-family="Helvetica,sans-Serif" font-size="10.00" fill="#000000">\set_read_security_id</text>
</a>
</g>
</g>
<!-- Node155&#45;&gt;Node157 -->
<g id="edge7" class="edge">
<title>Node155&#45;&gt;Node157</title>
<path fill="none" stroke="#191970" d="M634.7084,-299.6658C636.0003,-300.8705 637.2226,-302.1471 638.3623,-303.5 697.1163,-373.2425 613.5307,-437.5621 674.3623,-505.5 679.2615,-510.9715 685.3901,-515.1692 692.0465,-518.3848"/>
<polygon fill="#191970" stroke="#191970" points="636.7156,-296.795 626.6385,-293.5233 632.4759,-302.3651 636.7156,-296.795"/>
</g>
<!-- Node158 -->
<g id="node9" class="node">
<title>Node158</title>
<g id="a_node9"><a xlink:href="a00311.html#a55eae92ef3e2f47689019e174f29daf1" target="_top" xlink:title="A_CO_DB_Table_Base\l\\set_write_security_id">
<polygon fill="#ffffff" stroke="#000000" points="692.1431,-467.5 692.1431,-495.5 812.6499,-495.5 812.6499,-467.5 692.1431,-467.5"/>
<text text-anchor="start" x="700.1431" y="-483.5" font-family="Helvetica,sans-Serif" font-size="10.00" fill="#000000">A_CO_DB_Table_Base</text>
<text text-anchor="middle" x="752.3965" y="-473.5" font-family="Helvetica,sans-Serif" font-size="10.00" fill="#000000">\set_write_security_id</text>
</a>
</g>
</g>
<!-- Node155&#45;&gt;Node158 -->
<g id="edge8" class="edge">
<title>Node155&#45;&gt;Node158</title>
<path fill="none" stroke="#191970" d="M634.5215,-299.6617C635.8751,-300.8676 637.1599,-302.1456 638.3623,-303.5 685.3145,-356.3883 625.8356,-407.0525 674.3623,-458.5 679.3048,-463.74 685.375,-467.805 691.9275,-470.9552"/>
<polygon fill="#191970" stroke="#191970" points="636.2482,-296.5886 626.1095,-293.5133 632.1176,-302.2399 636.2482,-296.5886"/>
</g>
<!-- Node159 -->
<g id="node10" class="node">
<title>Node159</title>
<g id="a_node10"><a xlink:href="a00311.html#a92a9b9a122e9471b82dd79432bf3c929" target="_top" xlink:title="A_CO_DB_Table_Base\l\\set_name">
<polygon fill="#ffffff" stroke="#000000" points="692.1431,-420.5 692.1431,-448.5 812.6499,-448.5 812.6499,-420.5 692.1431,-420.5"/>
<text text-anchor="start" x="700.1431" y="-436.5" font-family="Helvetica,sans-Serif" font-size="10.00" fill="#000000">A_CO_DB_Table_Base</text>
<text text-anchor="middle" x="752.3965" y="-426.5" font-family="Helvetica,sans-Serif" font-size="10.00" fill="#000000">\set_name</text>
</a>
</g>
</g>
<!-- Node155&#45;&gt;Node159 -->
<g id="edge9" class="edge">
<title>Node155&#45;&gt;Node159</title>
<path fill="none" stroke="#191970" d="M633.8647,-299.4131C635.4457,-300.6919 636.9509,-302.0525 638.3623,-303.5 673.6852,-339.7256 637.9624,-376.3567 674.3623,-411.5 679.4427,-416.4051 685.5154,-420.2715 691.9989,-423.3178"/>
<polygon fill="#191970" stroke="#191970" points="635.6508,-296.3953 625.411,-293.6755 631.7197,-302.1873 635.6508,-296.3953"/>
</g>
<!-- Node160 -->
<g id="node11" class="node">
<title>Node160</title>
<g id="a_node11"><a xlink:href="a00311.html#a1ed093545fa1cbc3f63a672cdf424734" target="_top" xlink:title="A_CO_DB_Table_Base\l\\set_lang">
<polygon fill="#ffffff" stroke="#000000" points="692.1431,-373.5 692.1431,-401.5 812.6499,-401.5 812.6499,-373.5 692.1431,-373.5"/>
<text text-anchor="start" x="700.1431" y="-389.5" font-family="Helvetica,sans-Serif" font-size="10.00" fill="#000000">A_CO_DB_Table_Base</text>
<text text-anchor="middle" x="752.3965" y="-379.5" font-family="Helvetica,sans-Serif" font-size="10.00" fill="#000000">\set_lang</text>
</a>
</g>
</g>
<!-- Node155&#45;&gt;Node160 -->
<g id="edge10" class="edge">
<title>Node155&#45;&gt;Node160</title>
<path fill="none" stroke="#191970" d="M631.8143,-298.7113C634.1039,-300.1954 636.2991,-301.7891 638.3623,-303.5 662.595,-323.5945 649.5343,-345.1459 674.3623,-364.5 679.5977,-368.5812 685.541,-371.939 691.7558,-374.7016"/>
<polygon fill="#191970" stroke="#191970" points="633.0251,-295.3761 622.595,-293.5146 629.5877,-301.474 633.0251,-295.3761"/>
</g>
<!-- Node161 -->
<g id="node12" class="node">
<title>Node161</title>
<g id="a_node12"><a xlink:href="a00319.html#a6349c04b5a027e23f0b8bd8810579844" target="_top" xlink:title="CO_Main_DB_Record\\set\l_owner_id">
<polygon fill="#ffffff" stroke="#000000" points="686.5938,-326.5 686.5938,-354.5 818.1992,-354.5 818.1992,-326.5 686.5938,-326.5"/>
<text text-anchor="start" x="694.5938" y="-342.5" font-family="Helvetica,sans-Serif" font-size="10.00" fill="#000000">CO_Main_DB_Record\set</text>
<text text-anchor="middle" x="752.3965" y="-332.5" font-family="Helvetica,sans-Serif" font-size="10.00" fill="#000000">_owner_id</text>
</a>
</g>
</g>
<!-- Node155&#45;&gt;Node161 -->
<g id="edge11" class="edge">
<title>Node155&#45;&gt;Node161</title>
<path fill="none" stroke="#191970" d="M621.085,-297.1031C626.9155,-299.2379 632.777,-301.4044 638.3623,-303.5 654.4355,-309.5305 658.1144,-311.9572 674.3623,-317.5 683.3185,-320.5553 692.9317,-323.5868 702.2446,-326.3976"/>
<polygon fill="#191970" stroke="#191970" points="621.9501,-293.6933 611.3561,-293.5586 619.5539,-300.2704 621.9501,-293.6933"/>
</g>
<!-- Node162 -->
<g id="node13" class="node">
<title>Node162</title>
<g id="a_node13"><a xlink:href="a00319.html#a84074211704eba98c263bd7122cd13f7" target="_top" xlink:title="CO_Main_DB_Record\\set_tags">
<polygon fill="#ffffff" stroke="#000000" points="674.3623,-289.5 674.3623,-307.5 830.4307,-307.5 830.4307,-289.5 674.3623,-289.5"/>
<text text-anchor="middle" x="752.3965" y="-295.5" font-family="Helvetica,sans-Serif" font-size="10.00" fill="#000000">CO_Main_DB_Record\set_tags</text>
</a>
</g>
</g>
<!-- Node155&#45;&gt;Node162 -->
<g id="edge12" class="edge">
<title>Node155&#45;&gt;Node162</title>
<path fill="none" stroke="#191970" d="M642.5443,-286.9304C652.916,-288.0228 663.6521,-289.1535 674.1672,-290.2609"/>
<polygon fill="#191970" stroke="#191970" points="642.6273,-283.4199 632.3157,-285.8531 641.894,-290.3814 642.6273,-283.4199"/>
</g>
<!-- Node164 -->
<g id="node15" class="node">
<title>Node164</title>
<g id="a_node15"><a xlink:href="a00319.html#a1f9581fbd4aa2611da866405d446295c" target="_top" xlink:title="CO_Main_DB_Record\\set_tag">
<polygon fill="#ffffff" stroke="#000000" points="676.8623,-252.5 676.8623,-270.5 827.9307,-270.5 827.9307,-252.5 676.8623,-252.5"/>
<text text-anchor="middle" x="752.3965" y="-258.5" font-family="Helvetica,sans-Serif" font-size="10.00" fill="#000000">CO_Main_DB_Record\set_tag</text>
</a>
</g>
</g>
<!-- Node155&#45;&gt;Node164 -->
<g id="edge14" class="edge">
<title>Node155&#45;&gt;Node164</title>
<path fill="none" stroke="#191970" d="M642.4899,-272.4661C653.7229,-271.3453 665.3845,-270.1817 676.731,-269.0496"/>
<polygon fill="#191970" stroke="#191970" points="641.9187,-269.0056 632.3157,-273.4812 642.6138,-275.971 641.9187,-269.0056"/>
</g>
<!-- Node165 -->
<g id="node16" class="node">
<title>Node165</title>
<g id="a_node16"><a xlink:href="a00319.html#a7860101403a734329dd8c1079f5d367e" target="_top" xlink:title="CO_Main_DB_Record\\set\l_payload">
<polygon fill="#ffffff" stroke="#000000" points="686.5938,-205.5 686.5938,-233.5 818.1992,-233.5 818.1992,-205.5 686.5938,-205.5"/>
<text text-anchor="start" x="694.5938" y="-221.5" font-family="Helvetica,sans-Serif" font-size="10.00" fill="#000000">CO_Main_DB_Record\set</text>
<text text-anchor="middle" x="752.3965" y="-211.5" font-family="Helvetica,sans-Serif" font-size="10.00" fill="#000000">_payload</text>
</a>
</g>
</g>
<!-- Node155&#45;&gt;Node165 -->
<g id="edge15" class="edge">
<title>Node155&#45;&gt;Node165</title>
<path fill="none" stroke="#191970" d="M620.4727,-262.0071C637.4654,-255.9938 656.7123,-249.3151 674.3623,-243.5 684.4588,-240.1735 695.3372,-236.7362 705.6726,-233.5385"/>
<polygon fill="#191970" stroke="#191970" points="619.0082,-258.813 610.7573,-265.4593 621.352,-265.409 619.0082,-258.813"/>
</g>
<!-- Node166 -->
<g id="node17" class="node">
<title>Node166</title>
<g id="a_node17"><a xlink:href="a00331.html#a241314e7be52a7ca6487e41f34bb78fd" target="_top" xlink:title="CO_Security_Node\\set_ids">
<polygon fill="#ffffff" stroke="#000000" points="684.0889,-168.5 684.0889,-186.5 820.7041,-186.5 820.7041,-168.5 684.0889,-168.5"/>
<text text-anchor="middle" x="752.3965" y="-174.5" font-family="Helvetica,sans-Serif" font-size="10.00" fill="#000000">CO_Security_Node\set_ids</text>
</a>
</g>
</g>
<!-- Node155&#45;&gt;Node166 -->
<g id="edge16" class="edge">
<title>Node155&#45;&gt;Node166</title>
<path fill="none" stroke="#191970" d="M603.035,-259.8005C614.4967,-252.0634 627.3638,-242.8126 638.3623,-233.5 655.8724,-218.6738 654.4394,-207.8797 674.3623,-196.5 681.6268,-192.3506 689.7726,-189.1025 697.9876,-186.5612"/>
<polygon fill="#191970" stroke="#191970" points="600.9962,-256.9529 594.5984,-265.3979 604.8662,-262.7858 600.9962,-256.9529"/>
</g>
<!-- Node168 -->
<g id="node19" class="node">
<title>Node168</title>
<g id="a_node19"><a xlink:href="a00331.html#a4a3ed38130b49569d494ec7c262ca32d" target="_top" xlink:title="CO_Security_Node\\add_id">
<polygon fill="#ffffff" stroke="#000000" points="684.9165,-131.5 684.9165,-149.5 819.8765,-149.5 819.8765,-131.5 684.9165,-131.5"/>
<text text-anchor="middle" x="752.3965" y="-137.5" font-family="Helvetica,sans-Serif" font-size="10.00" fill="#000000">CO_Security_Node\add_id</text>
</a>
</g>
</g>
<!-- Node155&#45;&gt;Node168 -->
<g id="edge18" class="edge">
<title>Node155&#45;&gt;Node168</title>
<path fill="none" stroke="#191970" d="M607.2767,-259.9089C618.2047,-252.6422 629.65,-243.6618 638.3623,-233.5 662.168,-205.7337 645.887,-182.4529 674.3623,-159.5 679.4645,-155.3873 685.3235,-152.1443 691.4895,-149.5903"/>
<polygon fill="#191970" stroke="#191970" points="605.2548,-257.0467 598.6857,-265.3592 609.0048,-262.9575 605.2548,-257.0467"/>
</g>
<!-- Node169 -->
<g id="node20" class="node">
<title>Node169</title>
<g id="a_node20"><a xlink:href="a00343.html#a061f896c69dc8a8dd3d9ee793b91ddc7" target="_top" xlink:title="CO_Security_Login\\set_lang">
<polygon fill="#ffffff" stroke="#000000" points="680.7466,-94.5 680.7466,-112.5 824.0464,-112.5 824.0464,-94.5 680.7466,-94.5"/>
<text text-anchor="middle" x="752.3965" y="-100.5" font-family="Helvetica,sans-Serif" font-size="10.00" fill="#000000">CO_Security_Login\set_lang</text>
</a>
</g>
</g>
<!-- Node155&#45;&gt;Node169 -->
<g id="edge19" class="edge">
<title>Node155&#45;&gt;Node169</title>
<path fill="none" stroke="#191970" d="M608.9689,-260.066C619.691,-252.9303 630.5893,-243.9867 638.3623,-233.5 669.4974,-191.4949 635.8655,-156.8811 674.3623,-121.5 678.2522,-117.9249 682.7067,-115.0145 687.4725,-112.6504"/>
<polygon fill="#191970" stroke="#191970" points="607.0828,-257.1175 600.4709,-265.396 610.8022,-263.0476 607.0828,-257.1175"/>
</g>
<!-- Node170 -->
<g id="node21" class="node">
<title>Node170</title>
<g id="a_node21"><a xlink:href="a00343.html#ac4f0c16cb8cf1e2151451bf4d5cb2238" target="_top" xlink:title="CO_Security_Login\\set\l_password_from_cleartext">
<polygon fill="#ffffff" stroke="#000000" points="685.7588,-47.5 685.7588,-75.5 819.0342,-75.5 819.0342,-47.5 685.7588,-47.5"/>
<text text-anchor="start" x="693.7588" y="-63.5" font-family="Helvetica,sans-Serif" font-size="10.00" fill="#000000">CO_Security_Login\set</text>
<text text-anchor="middle" x="752.3965" y="-53.5" font-family="Helvetica,sans-Serif" font-size="10.00" fill="#000000">_password_from_cleartext</text>
</a>
</g>
</g>
<!-- Node155&#45;&gt;Node170 -->
<g id="edge20" class="edge">
<title>Node155&#45;&gt;Node170</title>
<path fill="none" stroke="#191970" d="M610.3062,-259.8323C620.7644,-252.8042 631.1791,-243.9796 638.3623,-233.5 676.8804,-177.3062 627.3971,-133.8524 674.3623,-84.5 677.6727,-81.0213 681.4803,-78.061 685.5945,-75.5426"/>
<polygon fill="#191970" stroke="#191970" points="608.1893,-257.0287 601.5812,-265.3102 611.9114,-262.9571 608.1893,-257.0287"/>
</g>
<!-- Node171 -->
<g id="node22" class="node">
<title>Node171</title>
<g id="a_node22"><a xlink:href="a00343.html#a59e2e5be376349924698305603bfb51f" target="_top" xlink:title="CO_Security_Login\\clear\l_api_key">
<polygon fill="#ffffff" stroke="#000000" points="688.813,-.5 688.813,-28.5 815.98,-28.5 815.98,-.5 688.813,-.5"/>
<text text-anchor="start" x="696.813" y="-16.5" font-family="Helvetica,sans-Serif" font-size="10.00" fill="#000000">CO_Security_Login\clear</text>
<text text-anchor="middle" x="752.3965" y="-6.5" font-family="Helvetica,sans-Serif" font-size="10.00" fill="#000000">_api_key</text>
</a>
</g>
</g>
<!-- Node155&#45;&gt;Node171 -->
<g id="edge21" class="edge">
<title>Node155&#45;&gt;Node171</title>
<path fill="none" stroke="#191970" d="M610.9439,-259.8944C621.3209,-252.9028 631.5316,-244.0825 638.3623,-233.5 686.3938,-159.0868 615.107,-103.3267 674.3623,-37.5 678.4255,-32.9862 683.3254,-29.3398 688.6661,-26.3968"/>
<polygon fill="#191970" stroke="#191970" points="608.8747,-257.0605 602.2587,-265.3357 612.5912,-262.9925 608.8747,-257.0605"/>
</g>
<!-- Node163 -->
<g id="node14" class="node">
<title>Node163</title>
<g id="a_node14"><a xlink:href="a00263.html#a887a876b0603db0289a8bdc7ab4e66b2" target="_top" xlink:title="CO_Place\\set_tags_from\l_address_elements">
<polygon fill="#ffffff" stroke="#000000" points="878.3813,-284.5 878.3813,-312.5 1006.1001,-312.5 1006.1001,-284.5 878.3813,-284.5"/>
<text text-anchor="start" x="886.3813" y="-300.5" font-family="Helvetica,sans-Serif" font-size="10.00" fill="#000000">CO_Place\set_tags_from</text>
<text text-anchor="middle" x="942.2407" y="-290.5" font-family="Helvetica,sans-Serif" font-size="10.00" fill="#000000">_address_elements</text>
</a>
</g>
</g>
<!-- Node162&#45;&gt;Node163 -->
<g id="edge13" class="edge">
<title>Node162&#45;&gt;Node163</title>
<path fill="none" stroke="#191970" d="M840.5357,-298.5C853.1949,-298.5 866.0159,-298.5 878.0917,-298.5"/>
<polygon fill="#191970" stroke="#191970" points="840.4353,-295.0001 830.4352,-298.5 840.4352,-302.0001 840.4353,-295.0001"/>
</g>
<!-- Node167 -->
<g id="node18" class="node">
<title>Node167</title>
<g id="a_node18"><a xlink:href="a00331.html#af852d696981829b18e29fb07918d8630" target="_top" xlink:title="CO_Security_Node\\remove_id">
<polygon fill="#ffffff" stroke="#000000" points="866.4307,-168.5 866.4307,-186.5 1018.0508,-186.5 1018.0508,-168.5 866.4307,-168.5"/>
<text text-anchor="middle" x="942.2407" y="-174.5" font-family="Helvetica,sans-Serif" font-size="10.00" fill="#000000">CO_Security_Node\remove_id</text>
</a>
</g>
</g>
<!-- Node166&#45;&gt;Node167 -->
<g id="edge17" class="edge">
<title>Node166&#45;&gt;Node167</title>
<path fill="none" stroke="#191970" d="M831.0927,-177.5C842.772,-177.5 854.7889,-177.5 866.4079,-177.5"/>
<polygon fill="#191970" stroke="#191970" points="830.9346,-174.0001 820.9346,-177.5 830.9346,-181.0001 830.9346,-174.0001"/>
</g>
<!-- Node173 -->
<g id="node24" class="node">
<title>Node173</title>
<g id="a_node24"><a xlink:href="a00343.html#aa1e788b0d2d7b7e807083d7333f2596e" target="_top" xlink:title="CO_Security_Login\\is\l_manager">
<polygon fill="#ffffff" stroke="#000000" points="351.3486,-230.5 351.3486,-258.5 464.0625,-258.5 464.0625,-230.5 351.3486,-230.5"/>
<text text-anchor="start" x="359.3486" y="-246.5" font-family="Helvetica,sans-Serif" font-size="10.00" fill="#000000">CO_Security_Login\is</text>
<text text-anchor="middle" x="407.7056" y="-236.5" font-family="Helvetica,sans-Serif" font-size="10.00" fill="#000000">_manager</text>
</a>
</g>
</g>
<!-- Node172&#45;&gt;Node173 -->
<g id="edge24" class="edge">
<title>Node172&#45;&gt;Node173</title>
<path fill="none" stroke="#191970" d="M305.1614,-228.1441C320.4324,-230.5798 336.5183,-233.1456 351.3054,-235.5041"/>
<polygon fill="#191970" stroke="#191970" points="305.6922,-224.6846 295.2657,-226.5657 304.5896,-231.5972 305.6922,-224.6846"/>
</g>
<!-- Node174 -->
<g id="node25" class="node">
<title>Node174</title>
<g id="a_node25"><a xlink:href="a00239.html#a7710a3275a7b2dfdba8e00a8bd2c0f61" target="_top" xlink:title="CO_Cobra\\_create_new\l_login">
<polygon fill="#ffffff" stroke="#000000" points="345.7871,-183.5 345.7871,-211.5 469.624,-211.5 469.624,-183.5 345.7871,-183.5"/>
<text text-anchor="start" x="353.7871" y="-199.5" font-family="Helvetica,sans-Serif" font-size="10.00" fill="#000000">CO_Cobra\_create_new</text>
<text text-anchor="middle" x="407.7056" y="-189.5" font-family="Helvetica,sans-Serif" font-size="10.00" fill="#000000">_login</text>
</a>
</g>
</g>
<!-- Node172&#45;&gt;Node174 -->
<g id="edge25" class="edge">
<title>Node172&#45;&gt;Node174</title>
<path fill="none" stroke="#191970" d="M316.4222,-208.285C326.1938,-207.1305 336.0843,-205.962 345.5683,-204.8414"/>
<polygon fill="#191970" stroke="#191970" points="315.8244,-204.8312 306.3041,-209.4805 316.6458,-211.7829 315.8244,-204.8312"/>
</g>
<!-- Node175 -->
<g id="node26" class="node">
<title>Node175</title>
<g id="a_node26"><a xlink:href="a00239.html#a327fb6e4cfcaf6d32639123eed2ea412" target="_top" xlink:title="CO_Cobra\\create_new\l_standard_login">
<polygon fill="#ffffff" stroke="#000000" points="512.8555,-195.5 512.8555,-223.5 631.1309,-223.5 631.1309,-195.5 512.8555,-195.5"/>
<text text-anchor="start" x="520.8555" y="-211.5" font-family="Helvetica,sans-Serif" font-size="10.00" fill="#000000">CO_Cobra\create_new</text>
<text text-anchor="middle" x="571.9932" y="-201.5" font-family="Helvetica,sans-Serif" font-size="10.00" fill="#000000">_standard_login</text>
</a>
</g>
</g>
<!-- Node174&#45;&gt;Node175 -->
<g id="edge26" class="edge">
<title>Node174&#45;&gt;Node175</title>
<path fill="none" stroke="#191970" d="M479.8334,-202.7684C490.8414,-203.5725 502.0929,-204.3943 512.7813,-205.175"/>
<polygon fill="#191970" stroke="#191970" points="480.0441,-199.2746 469.8157,-202.0367 479.5341,-206.256 480.0441,-199.2746"/>
</g>
<!-- Node176 -->
<g id="node27" class="node">
<title>Node176</title>
<g id="a_node27"><a xlink:href="a00239.html#ac8a3c537cc29c1d4cdb6df5f004ce6d0" target="_top" xlink:title="CO_Cobra\\create_new\l_manager_login">
<polygon fill="#ffffff" stroke="#000000" points="512.8555,-148.5 512.8555,-176.5 631.1309,-176.5 631.1309,-148.5 512.8555,-148.5"/>
<text text-anchor="start" x="520.8555" y="-164.5" font-family="Helvetica,sans-Serif" font-size="10.00" fill="#000000">CO_Cobra\create_new</text>
<text text-anchor="middle" x="571.9932" y="-154.5" font-family="Helvetica,sans-Serif" font-size="10.00" fill="#000000">_manager_login</text>
</a>
</g>
</g>
<!-- Node174&#45;&gt;Node176 -->
<g id="edge27" class="edge">
<title>Node174&#45;&gt;Node176</title>
<path fill="none" stroke="#191970" d="M479.8334,-182.1338C490.8414,-179.7887 502.0929,-177.3916 512.7813,-175.1146"/>
<polygon fill="#191970" stroke="#191970" points="478.8669,-178.7611 469.8157,-184.268 480.3255,-185.6075 478.8669,-178.7611"/>
</g>
<!-- Node179 -->
<g id="node30" class="node">
<title>Node179</title>
<g id="a_node30"><a xlink:href="a00311.html#a4417bcd42c4db0dc6f3d1c0ab94e19f3" target="_top" xlink:title="A_CO_DB_Table_Base\l\\__construct">
<polygon fill="#ffffff" stroke="#000000" points="347.4521,-122.5 347.4521,-150.5 467.959,-150.5 467.959,-122.5 347.4521,-122.5"/>
<text text-anchor="start" x="355.4521" y="-138.5" font-family="Helvetica,sans-Serif" font-size="10.00" fill="#000000">A_CO_DB_Table_Base</text>
<text text-anchor="middle" x="407.7056" y="-128.5" font-family="Helvetica,sans-Serif" font-size="10.00" fill="#000000">\__construct</text>
</a>
</g>
</g>
<!-- Node178&#45;&gt;Node179 -->
<g id="edge30" class="edge">
<title>Node178&#45;&gt;Node179</title>
<path fill="none" stroke="#191970" d="M309.1053,-131.8402C321.7701,-132.4387 334.8637,-133.0575 347.2095,-133.641"/>
<polygon fill="#191970" stroke="#191970" points="309.2169,-128.3417 299.0628,-131.3656 308.8864,-135.3338 309.2169,-128.3417"/>
</g>
<!-- Node180 -->
<g id="node31" class="node">
<title>Node180</title>
<g id="a_node31"><a xlink:href="a00311.html#aa5e1bc5570c817cfe3ddeb67003d4f45" target="_top" xlink:title="A_CO_DB_Table_Base\l\\reload_from_db">
<polygon fill="#ffffff" stroke="#000000" points="347.4521,-75.5 347.4521,-103.5 467.959,-103.5 467.959,-75.5 347.4521,-75.5"/>
<text text-anchor="start" x="355.4521" y="-91.5" font-family="Helvetica,sans-Serif" font-size="10.00" fill="#000000">A_CO_DB_Table_Base</text>
<text text-anchor="middle" x="407.7056" y="-81.5" font-family="Helvetica,sans-Serif" font-size="10.00" fill="#000000">\reload_from_db</text>
</a>
</g>
</g>
<!-- Node178&#45;&gt;Node180 -->
<g id="edge31" class="edge">
<title>Node178&#45;&gt;Node180</title>
<path fill="none" stroke="#191970" d="M309.1053,-112.2166C321.7701,-109.2987 334.8637,-106.2821 347.2095,-103.4377"/>
<polygon fill="#191970" stroke="#191970" points="308.0217,-108.8744 299.0628,-114.5303 309.5933,-115.6957 308.0217,-108.8744"/>
</g>
</g>
</svg>
