<?xml version="1.0" encoding="UTF-8" standalone="no"?>
<!DOCTYPE svg PUBLIC "-//W3C//DTD SVG 1.1//EN"
 "http://www.w3.org/Graphics/SVG/1.1/DTD/svg11.dtd">
<!-- Generated by graphviz version 2.40.1 (20161225.0304)
 -->
<!-- Title: CO_Security_Login\get_crypted_password Pages: 1 -->
<svg width="297pt" height="84pt"
 viewBox="0.00 0.00 296.67 84.00" xmlns="http://www.w3.org/2000/svg" xmlns:xlink="http://www.w3.org/1999/xlink">
<g id="graph0" class="graph" transform="scale(1 1) rotate(0) translate(4 80)">
<title>CO_Security_Login\get_crypted_password</title>
<polygon fill="#ffffff" stroke="transparent" points="-4,4 -4,-80 292.6689,-80 292.6689,4 -4,4"/>
<!-- Node38 -->
<g id="node1" class="node">
<title>Node38</title>
<polygon fill="#bfbfbf" stroke="#000000" points="0,-23.5 0,-51.5 119.3936,-51.5 119.3936,-23.5 0,-23.5"/>
<text text-anchor="start" x="8" y="-39.5" font-family="Helvetica,sans-Serif" font-size="10.00" fill="#000000">CO_Security_Login\get</text>
<text text-anchor="middle" x="59.6968" y="-29.5" font-family="Helvetica,sans-Serif" font-size="10.00" fill="#000000">_crypted_password</text>
</g>
<!-- Node39 -->
<g id="node2" class="node">
<title>Node39</title>
<g id="a_node2"><a xlink:href="a00343.html#a5ec502fbeb3620816dbcf4868da637e8" target="_top" xlink:title="CO_Security_Login\\is\l_login_valid">
<polygon fill="#ffffff" stroke="#000000" points="165.6743,-47.5 165.6743,-75.5 278.3882,-75.5 278.3882,-47.5 165.6743,-47.5"/>
<text text-anchor="start" x="173.6743" y="-63.5" font-family="Helvetica,sans-Serif" font-size="10.00" fill="#000000">CO_Security_Login\is</text>
<text text-anchor="middle" x="222.0313" y="-53.5" font-family="Helvetica,sans-Serif" font-size="10.00" fill="#000000">_login_valid</text>
</a>
</g>
</g>
<!-- Node38&#45;&gt;Node39 -->
<g id="edge1" class="edge">
<title>Node38&#45;&gt;Node39</title>
<path fill="none" stroke="#191970" d="M129.6473,-47.8417C141.6307,-49.6134 153.9468,-51.4342 165.5233,-53.1457"/>
<polygon fill="#191970" stroke="#191970" points="130.0873,-44.3688 119.6829,-46.3685 129.0635,-51.2935 130.0873,-44.3688"/>
</g>
<!-- Node40 -->
<g id="node3" class="node">
<title>Node40</title>
<g id="a_node3"><a xlink:href="a00343.html#ac4f0c16cb8cf1e2151451bf4d5cb2238" target="_top" xlink:title="CO_Security_Login\\set\l_password_from_cleartext">
<polygon fill="#ffffff" stroke="#000000" points="155.3936,-.5 155.3936,-28.5 288.6689,-28.5 288.6689,-.5 155.3936,-.5"/>
<text text-anchor="start" x="163.3936" y="-16.5" font-family="Helvetica,sans-Serif" font-size="10.00" fill="#000000">CO_Security_Login\set</text>
<text text-anchor="middle" x="222.0313" y="-6.5" font-family="Helvetica,sans-Serif" font-size="10.00" fill="#000000">_password_from_cleartext</text>
</a>
</g>
</g>
<!-- Node38&#45;&gt;Node40 -->
<g id="edge2" class="edge">
<title>Node38&#45;&gt;Node40</title>
<path fill="none" stroke="#191970" d="M129.8379,-27.5622C138.249,-26.3705 146.821,-25.156 155.1836,-23.9712"/>
<polygon fill="#191970" stroke="#191970" points="129.093,-24.1327 119.6829,-29.001 130.0751,-31.0635 129.093,-24.1327"/>
</g>
</g>
</svg>
