<?xml version="1.0" encoding="UTF-8" standalone="no"?>
<!DOCTYPE svg PUBLIC "-//W3C//DTD SVG 1.1//EN"
 "http://www.w3.org/Graphics/SVG/1.1/DTD/svg11.dtd">
<!-- Generated by graphviz version 2.40.1 (20161225.0304)
 -->
<!-- Title: A_CO_DB\execute_query Pages: 1 -->
<!--zoomable 957 -->
<svg id="main" version="1.1" xmlns="http://www.w3.org/2000/svg" xmlns:xlink="http://www.w3.org/1999/xlink" xml:space="preserve" onload="init(evt)">
<style type="text/css"><![CDATA[
.edge:hover path { stroke: red; }
.edge:hover polygon { stroke: red; fill: red; }
]]></style>
<script type="text/javascript"><![CDATA[
var edges = document.getElementsByTagName('g');
if (edges && edges.length) {
  for (var i=0;i<edges.length;i++) {
    if (edges[i].id.substr(0,4)=='edge') {
      edges[i].setAttribute('class','edge');
    }
  }
}
]]></script>
        <defs>
                <circle id="rim" cx="0" cy="0" r="7"/>
                <circle id="rim2" cx="0" cy="0" r="3.5"/>
                <g id="zoomPlus">
                        <use xlink:href="#rim" fill="#404040">
                                <set attributeName="fill" to="#808080" begin="zoomplus.mouseover" end="zoomplus.mouseout"/>
                        </use>
                        <path d="M-4,0h8M0,-4v8" fill="none" stroke="white" stroke-width="1.5" pointer-events="none"/>
                </g>
                <g id="zoomMin">
                        <use xlink:href="#rim" fill="#404040">
                                <set attributeName="fill" to="#808080" begin="zoomminus.mouseover" end="zoomminus.mouseout"/>
                        </use>
                        <path d="M-4,0h8" fill="none" stroke="white" stroke-width="1.5" pointer-events="none"/>
                </g>
                <g id="dirArrow">
                        <path fill="none" stroke="white" stroke-width="1.5" d="M0,-3.0v7 M-2.5,-0.5L0,-3.0L2.5,-0.5"/>
                </g>
               <g id="resetDef">
                       <use xlink:href="#rim2" fill="#404040">
                               <set attributeName="fill" to="#808080" begin="reset.mouseover" end="reset.mouseout"/>
                       </use>
               </g>
        </defs>

<script type="text/javascript">
var viewWidth = 489;
var viewHeight = 957;
var sectionId = 'dynsection-11';
</script>
<script xlink:href="svgpan.js"/>
<svg id="graph" class="graph">
<g id="viewport">
<title>A_CO_DB\execute_query</title>
<polygon fill="#ffffff" stroke="transparent" points="-4,4 -4,-953 485.3281,-953 485.3281,4 -4,4"/>
<!-- Node120 -->
<g id="node1" class="node">
<title>Node120</title>
<polygon fill="#bfbfbf" stroke="#000000" points="0,-460.5 0,-478.5 131.0635,-478.5 131.0635,-460.5 0,-460.5"/>
<text text-anchor="middle" x="65.5317" y="-466.5" font-family="Helvetica,sans-Serif" font-size="10.00" fill="#000000">A_CO_DB\execute_query</text>
</g>
<!-- Node121 -->
<g id="node2" class="node">
<title>Node121</title>
<g id="a_node2"><a xlink:href="a00307.html#af6baed01812f38acbc19df4b00f443b2" target="_top" xlink:title="A_CO_DB\\can_i_see_this\l_record">
<polygon fill="#ffffff" stroke="#000000" points="171.231,-920.5 171.231,-948.5 303.4077,-948.5 303.4077,-920.5 171.231,-920.5"/>
<text text-anchor="start" x="179.231" y="-936.5" font-family="Helvetica,sans-Serif" font-size="10.00" fill="#000000">A_CO_DB\can_i_see_this</text>
<text text-anchor="middle" x="237.3193" y="-926.5" font-family="Helvetica,sans-Serif" font-size="10.00" fill="#000000">_record</text>
</a>
</g>
</g>
<!-- Node120&#45;&gt;Node121 -->
<g id="edge1" class="edge">
<title>Node120&#45;&gt;Node121</title>
<path fill="none" stroke="#191970" d="M67.4518,-488.7644C75.4518,-565.3704 108.4796,-847.3535 167.0635,-911.5 170.1793,-914.9116 173.8081,-917.8186 177.744,-920.2953"/>
<polygon fill="#191970" stroke="#191970" points="70.9165,-488.2399 66.4175,-478.6477 63.9528,-488.9518 70.9165,-488.2399"/>
</g>
<!-- Node122 -->
<g id="node3" class="node">
<title>Node122</title>
<g id="a_node3"><a xlink:href="a00307.html#a9794f1140b379f8d09c4265a089fcea0" target="_top" xlink:title="A_CO_DB\\delete_record">
<polygon fill="#ffffff" stroke="#000000" points="174.0117,-883.5 174.0117,-901.5 300.627,-901.5 300.627,-883.5 174.0117,-883.5"/>
<text text-anchor="middle" x="237.3193" y="-889.5" font-family="Helvetica,sans-Serif" font-size="10.00" fill="#000000">A_CO_DB\delete_record</text>
</a>
</g>
</g>
<!-- Node120&#45;&gt;Node122 -->
<g id="edge2" class="edge">
<title>Node120&#45;&gt;Node122</title>
<path fill="none" stroke="#191970" d="M67.7408,-488.6401C76.4929,-561.2128 111.0137,-818.1592 167.0635,-874.5 170.7044,-878.1598 174.9811,-881.109 179.5966,-883.4814"/>
<polygon fill="#191970" stroke="#191970" points="71.2079,-488.1546 66.5581,-478.6346 64.2563,-488.9764 71.2079,-488.1546"/>
</g>
<!-- Node123 -->
<g id="node4" class="node">
<title>Node123</title>
<g id="a_node4"><a xlink:href="a00315.html#a303048d406814c066d27fda70de4ff02" target="_top" xlink:title="CO_Main_Data_DB\\generic\l_search">
<polygon fill="#ffffff" stroke="#000000" points="167.3442,-836.5 167.3442,-864.5 307.2944,-864.5 307.2944,-836.5 167.3442,-836.5"/>
<text text-anchor="start" x="175.3442" y="-852.5" font-family="Helvetica,sans-Serif" font-size="10.00" fill="#000000">CO_Main_Data_DB\generic</text>
<text text-anchor="middle" x="237.3193" y="-842.5" font-family="Helvetica,sans-Serif" font-size="10.00" fill="#000000">_search</text>
</a>
</g>
</g>
<!-- Node120&#45;&gt;Node123 -->
<g id="edge3" class="edge">
<title>Node120&#45;&gt;Node123</title>
<path fill="none" stroke="#191970" d="M68.5805,-488.859C79.5033,-555.9388 118.6175,-777.075 167.0635,-827.5 170.3534,-830.9243 174.1599,-833.8393 178.265,-836.3205"/>
<polygon fill="#191970" stroke="#191970" points="72.011,-488.1463 66.9715,-478.8267 65.0993,-489.2548 72.011,-488.1463"/>
</g>
<!-- Node124 -->
<g id="node5" class="node">
<title>Node124</title>
<g id="a_node5"><a xlink:href="a00307.html#a707e7cfdbea32a3713320dbca46dac64" target="_top" xlink:title="A_CO_DB\\get_access\l_class_by_id">
<polygon fill="#ffffff" stroke="#000000" points="179.2949,-789.5 179.2949,-817.5 295.3438,-817.5 295.3438,-789.5 179.2949,-789.5"/>
<text text-anchor="start" x="187.2949" y="-805.5" font-family="Helvetica,sans-Serif" font-size="10.00" fill="#000000">A_CO_DB\get_access</text>
<text text-anchor="middle" x="237.3193" y="-795.5" font-family="Helvetica,sans-Serif" font-size="10.00" fill="#000000">_class_by_id</text>
</a>
</g>
</g>
<!-- Node120&#45;&gt;Node124 -->
<g id="edge4" class="edge">
<title>Node120&#45;&gt;Node124</title>
<path fill="none" stroke="#191970" d="M69.4138,-488.6289C82.1271,-549.5525 124.1629,-737.5643 167.0635,-780.5 170.6013,-784.0408 174.6918,-787.0365 179.0844,-789.5711"/>
<polygon fill="#191970" stroke="#191970" points="72.7743,-487.5943 67.3288,-478.506 65.9182,-489.0065 72.7743,-487.5943"/>
</g>
<!-- Node125 -->
<g id="node6" class="node">
<title>Node125</title>
<g id="a_node6"><a xlink:href="a00327.html#ad75f2ed511a4eae172f9f2acd73f2de9" target="_top" xlink:title="CO_Security_DB\\get\l_all_login_objects">
<polygon fill="#ffffff" stroke="#000000" points="182.9106,-742.5 182.9106,-770.5 291.728,-770.5 291.728,-742.5 182.9106,-742.5"/>
<text text-anchor="start" x="190.9106" y="-758.5" font-family="Helvetica,sans-Serif" font-size="10.00" fill="#000000">CO_Security_DB\get</text>
<text text-anchor="middle" x="237.3193" y="-748.5" font-family="Helvetica,sans-Serif" font-size="10.00" fill="#000000">_all_login_objects</text>
</a>
</g>
</g>
<!-- Node120&#45;&gt;Node125 -->
<g id="edge5" class="edge">
<title>Node120&#45;&gt;Node125</title>
<path fill="none" stroke="#191970" d="M67.3224,-488.4583C72.871,-536.5017 94.0753,-664.1267 167.0635,-733.5 171.6217,-737.8325 177.009,-741.3491 182.7408,-744.2034"/>
<polygon fill="#191970" stroke="#191970" points="70.8026,-488.0858 66.2711,-478.509 63.8413,-488.8214 70.8026,-488.0858"/>
</g>
<!-- Node126 -->
<g id="node7" class="node">
<title>Node126</title>
<g id="a_node7"><a xlink:href="a00327.html#af39966b2bf3f43bc640b013ec5a472be" target="_top" xlink:title="CO_Security_DB\\get\l_all_login_objects_with\l_access">
<polygon fill="#ffffff" stroke="#000000" points="177.896,-685.5 177.896,-723.5 296.7427,-723.5 296.7427,-685.5 177.896,-685.5"/>
<text text-anchor="start" x="185.896" y="-711.5" font-family="Helvetica,sans-Serif" font-size="10.00" fill="#000000">CO_Security_DB\get</text>
<text text-anchor="start" x="185.896" y="-701.5" font-family="Helvetica,sans-Serif" font-size="10.00" fill="#000000">_all_login_objects_with</text>
<text text-anchor="middle" x="237.3193" y="-691.5" font-family="Helvetica,sans-Serif" font-size="10.00" fill="#000000">_access</text>
</a>
</g>
</g>
<!-- Node120&#45;&gt;Node126 -->
<g id="edge6" class="edge">
<title>Node120&#45;&gt;Node126</title>
<path fill="none" stroke="#191970" d="M69.9373,-488.6114C80.1417,-528.8066 109.0779,-622.803 167.0635,-676.5 170.628,-679.8009 174.6298,-682.7325 178.8679,-685.3327"/>
<polygon fill="#191970" stroke="#191970" points="73.3103,-487.6695 67.5472,-478.7792 66.5084,-489.323 73.3103,-487.6695"/>
</g>
<!-- Node127 -->
<g id="node8" class="node">
<title>Node127</title>
<g id="a_node8"><a xlink:href="a00307.html#a6ccca3e1b18f58a3d4a4ad6018f067b1" target="_top" xlink:title="A_CO_DB\\get_all_readable\l_records">
<polygon fill="#ffffff" stroke="#000000" points="167.6128,-638.5 167.6128,-666.5 307.0259,-666.5 307.0259,-638.5 167.6128,-638.5"/>
<text text-anchor="start" x="175.6128" y="-654.5" font-family="Helvetica,sans-Serif" font-size="10.00" fill="#000000">A_CO_DB\get_all_readable</text>
<text text-anchor="middle" x="237.3193" y="-644.5" font-family="Helvetica,sans-Serif" font-size="10.00" fill="#000000">_records</text>
</a>
</g>
</g>
<!-- Node120&#45;&gt;Node127 -->
<g id="edge7" class="edge">
<title>Node120&#45;&gt;Node127</title>
<path fill="none" stroke="#191970" d="M72.3755,-488.0633C85.5579,-521.2934 117.6137,-591.0536 167.0635,-629.5 171.5216,-632.9661 176.5227,-635.9202 181.7484,-638.4359"/>
<polygon fill="#191970" stroke="#191970" points="75.6112,-486.7259 68.7606,-478.6439 69.076,-489.234 75.6112,-486.7259"/>
</g>
<!-- Node128 -->
<g id="node9" class="node">
<title>Node128</title>
<g id="a_node9"><a xlink:href="a00327.html#a89e505e3f61a75590a72969b16e97bea" target="_top" xlink:title="CO_Security_DB\\get\l_all_tokens">
<polygon fill="#ffffff" stroke="#000000" points="182.9106,-591.5 182.9106,-619.5 291.728,-619.5 291.728,-591.5 182.9106,-591.5"/>
<text text-anchor="start" x="190.9106" y="-607.5" font-family="Helvetica,sans-Serif" font-size="10.00" fill="#000000">CO_Security_DB\get</text>
<text text-anchor="middle" x="237.3193" y="-597.5" font-family="Helvetica,sans-Serif" font-size="10.00" fill="#000000">_all_tokens</text>
</a>
</g>
</g>
<!-- Node120&#45;&gt;Node128 -->
<g id="edge8" class="edge">
<title>Node120&#45;&gt;Node128</title>
<path fill="none" stroke="#191970" d="M76.7952,-486.9748C93.5872,-511.6884 127.4866,-556.7065 167.0635,-582.5 172.3321,-585.9337 178.1577,-588.8956 184.1341,-591.4404"/>
<polygon fill="#191970" stroke="#191970" points="79.6683,-484.9744 71.2209,-478.5797 73.8367,-488.8465 79.6683,-484.9744"/>
</g>
<!-- Node129 -->
<g id="node10" class="node">
<title>Node129</title>
<g id="a_node10"><a xlink:href="a00307.html#a2b39eabcd72a9d79267e51a5f2b16648" target="_top" xlink:title="A_CO_DB\\get_all_writeable\l_records">
<polygon fill="#ffffff" stroke="#000000" points="167.0635,-544.5 167.0635,-572.5 307.5752,-572.5 307.5752,-544.5 167.0635,-544.5"/>
<text text-anchor="start" x="175.0635" y="-560.5" font-family="Helvetica,sans-Serif" font-size="10.00" fill="#000000">A_CO_DB\get_all_writeable</text>
<text text-anchor="middle" x="237.3193" y="-550.5" font-family="Helvetica,sans-Serif" font-size="10.00" fill="#000000">_records</text>
</a>
</g>
</g>
<!-- Node120&#45;&gt;Node129 -->
<g id="edge9" class="edge">
<title>Node120&#45;&gt;Node129</title>
<path fill="none" stroke="#191970" d="M85.6691,-484.8538C105.5165,-499.4271 137.1332,-521.175 167.0635,-535.5 173.8936,-538.769 181.3072,-541.7529 188.6725,-544.4094"/>
<polygon fill="#191970" stroke="#191970" points="87.5373,-481.8812 77.4265,-478.7153 83.3562,-487.4953 87.5373,-481.8812"/>
</g>
<!-- Node130 -->
<g id="node11" class="node">
<title>Node130</title>
<g id="a_node11"><a xlink:href="a00327.html#a4e2e3180a3be3bbe410fa3066572a8a0" target="_top" xlink:title="CO_Security_DB\\get\l_credentials_by_api_key">
<polygon fill="#ffffff" stroke="#000000" points="174.2827,-497.5 174.2827,-525.5 300.356,-525.5 300.356,-497.5 174.2827,-497.5"/>
<text text-anchor="start" x="182.2827" y="-513.5" font-family="Helvetica,sans-Serif" font-size="10.00" fill="#000000">CO_Security_DB\get</text>
<text text-anchor="middle" x="237.3193" y="-503.5" font-family="Helvetica,sans-Serif" font-size="10.00" fill="#000000">_credentials_by_api_key</text>
</a>
</g>
</g>
<!-- Node120&#45;&gt;Node130 -->
<g id="edge10" class="edge">
<title>Node120&#45;&gt;Node130</title>
<path fill="none" stroke="#191970" d="M112.2828,-480.9301C133.1475,-486.0312 157.9319,-492.0907 179.9104,-497.4642"/>
<polygon fill="#191970" stroke="#191970" points="112.9296,-477.4852 102.3845,-478.5101 111.2671,-484.2849 112.9296,-477.4852"/>
</g>
<!-- Node131 -->
<g id="node12" class="node">
<title>Node131</title>
<g id="a_node12"><a xlink:href="a00307.html#a4b86c0613b521ffdbbd62f8928ad07f8" target="_top" xlink:title="A_CO_DB\\get_db_backup">
<polygon fill="#ffffff" stroke="#000000" points="170.3911,-460.5 170.3911,-478.5 304.2476,-478.5 304.2476,-460.5 170.3911,-460.5"/>
<text text-anchor="middle" x="237.3193" y="-466.5" font-family="Helvetica,sans-Serif" font-size="10.00" fill="#000000">A_CO_DB\get_db_backup</text>
</a>
</g>
</g>
<!-- Node120&#45;&gt;Node131 -->
<g id="edge11" class="edge">
<title>Node120&#45;&gt;Node131</title>
<path fill="none" stroke="#191970" d="M141.6693,-469.5C151.1585,-469.5 160.8086,-469.5 170.1483,-469.5"/>
<polygon fill="#191970" stroke="#191970" points="141.458,-466.0001 131.458,-469.5 141.458,-473.0001 141.458,-466.0001"/>
</g>
<!-- Node132 -->
<g id="node13" class="node">
<title>Node132</title>
<g id="a_node13"><a xlink:href="a00327.html#ab7c6d41fc8b4b571f313be2c8b03b17d" target="_top" xlink:title="CO_Security_DB\\get\l_initial_record_by_id">
<polygon fill="#ffffff" stroke="#000000" points="182.9106,-413.5 182.9106,-441.5 291.728,-441.5 291.728,-413.5 182.9106,-413.5"/>
<text text-anchor="start" x="190.9106" y="-429.5" font-family="Helvetica,sans-Serif" font-size="10.00" fill="#000000">CO_Security_DB\get</text>
<text text-anchor="middle" x="237.3193" y="-419.5" font-family="Helvetica,sans-Serif" font-size="10.00" fill="#000000">_initial_record_by_id</text>
</a>
</g>
</g>
<!-- Node120&#45;&gt;Node132 -->
<g id="edge12" class="edge">
<title>Node120&#45;&gt;Node132</title>
<path fill="none" stroke="#191970" d="M112.3897,-458.0438C134.1869,-452.7146 160.2441,-446.344 182.9075,-440.803"/>
<polygon fill="#191970" stroke="#191970" points="111.2671,-454.7151 102.3845,-460.4899 112.9296,-461.5148 111.2671,-454.7151"/>
</g>
<!-- Node133 -->
<g id="node14" class="node">
<title>Node133</title>
<g id="a_node14"><a xlink:href="a00327.html#a5d73fc994a204fe7362e8ca77df1b344" target="_top" xlink:title="CO_Security_DB\\get\l_initial_record_by_login_id">
<polygon fill="#ffffff" stroke="#000000" points="170.1128,-366.5 170.1128,-394.5 304.5259,-394.5 304.5259,-366.5 170.1128,-366.5"/>
<text text-anchor="start" x="178.1128" y="-382.5" font-family="Helvetica,sans-Serif" font-size="10.00" fill="#000000">CO_Security_DB\get</text>
<text text-anchor="middle" x="237.3193" y="-372.5" font-family="Helvetica,sans-Serif" font-size="10.00" fill="#000000">_initial_record_by_login_id</text>
</a>
</g>
</g>
<!-- Node120&#45;&gt;Node133 -->
<g id="edge13" class="edge">
<title>Node120&#45;&gt;Node133</title>
<path fill="none" stroke="#191970" d="M85.7466,-454.4847C105.6514,-440.2104 137.309,-418.8479 167.0635,-404.5 174.6099,-400.861 182.8535,-397.5227 190.9536,-394.567"/>
<polygon fill="#191970" stroke="#191970" points="83.5095,-451.7838 77.4773,-460.4937 87.6245,-457.4466 83.5095,-451.7838"/>
</g>
<!-- Node134 -->
<g id="node15" class="node">
<title>Node134</title>
<g id="a_node15"><a xlink:href="a00307.html#aaca8bf49257aa5ade3c354ef76119fa4" target="_top" xlink:title="A_CO_DB\\get_multiple\l_records_by_id">
<polygon fill="#ffffff" stroke="#000000" points="177.6274,-319.5 177.6274,-347.5 297.0112,-347.5 297.0112,-319.5 177.6274,-319.5"/>
<text text-anchor="start" x="185.6274" y="-335.5" font-family="Helvetica,sans-Serif" font-size="10.00" fill="#000000">A_CO_DB\get_multiple</text>
<text text-anchor="middle" x="237.3193" y="-325.5" font-family="Helvetica,sans-Serif" font-size="10.00" fill="#000000">_records_by_id</text>
</a>
</g>
</g>
<!-- Node120&#45;&gt;Node134 -->
<g id="edge14" class="edge">
<title>Node120&#45;&gt;Node134</title>
<path fill="none" stroke="#191970" d="M77.1288,-451.8881C94.1051,-427.4051 127.9824,-383.2043 167.0635,-357.5 172.8786,-353.6753 179.3665,-350.3962 185.9846,-347.6029"/>
<polygon fill="#191970" stroke="#191970" points="74.1902,-449.9855 71.4744,-460.2264 79.9837,-453.9143 74.1902,-449.9855"/>
</g>
<!-- Node136 -->
<g id="node17" class="node">
<title>Node136</title>
<g id="a_node17"><a xlink:href="a00327.html#af7f9180938518c8325b3d4ba52112e02" target="_top" xlink:title="CO_Security_DB\\get\l_multiple_records_by\l_login_id">
<polygon fill="#ffffff" stroke="#000000" points="181.7949,-262.5 181.7949,-300.5 292.8438,-300.5 292.8438,-262.5 181.7949,-262.5"/>
<text text-anchor="start" x="189.7949" y="-288.5" font-family="Helvetica,sans-Serif" font-size="10.00" fill="#000000">CO_Security_DB\get</text>
<text text-anchor="start" x="189.7949" y="-278.5" font-family="Helvetica,sans-Serif" font-size="10.00" fill="#000000">_multiple_records_by</text>
<text text-anchor="middle" x="237.3193" y="-268.5" font-family="Helvetica,sans-Serif" font-size="10.00" fill="#000000">_login_id</text>
</a>
</g>
</g>
<!-- Node120&#45;&gt;Node136 -->
<g id="edge16" class="edge">
<title>Node120&#45;&gt;Node136</title>
<path fill="none" stroke="#191970" d="M72.8936,-450.948C86.7075,-418.3163 119.475,-350.3387 167.0635,-310.5 171.5154,-306.7731 176.5124,-303.4706 181.7356,-300.5567"/>
<polygon fill="#191970" stroke="#191970" points="69.6469,-449.6406 69.0799,-460.2203 76.1207,-452.3034 69.6469,-449.6406"/>
</g>
<!-- Node138 -->
<g id="node19" class="node">
<title>Node138</title>
<g id="a_node19"><a xlink:href="a00327.html#a178b936fc390b03173e55cb28d0362f7" target="_top" xlink:title="CO_Security_DB\\get\l_security_ids_for_id">
<polygon fill="#ffffff" stroke="#000000" points="182.9106,-215.5 182.9106,-243.5 291.728,-243.5 291.728,-215.5 182.9106,-215.5"/>
<text text-anchor="start" x="190.9106" y="-231.5" font-family="Helvetica,sans-Serif" font-size="10.00" fill="#000000">CO_Security_DB\get</text>
<text text-anchor="middle" x="237.3193" y="-221.5" font-family="Helvetica,sans-Serif" font-size="10.00" fill="#000000">_security_ids_for_id</text>
</a>
</g>
</g>
<!-- Node120&#45;&gt;Node138 -->
<g id="edge18" class="edge">
<title>Node120&#45;&gt;Node138</title>
<path fill="none" stroke="#191970" d="M69.2854,-450.1826C78.4176,-408.2902 105.7028,-308.4443 167.0635,-253.5 171.6726,-249.3729 177.0232,-245.9497 182.6752,-243.1115"/>
<polygon fill="#191970" stroke="#191970" points="65.8189,-449.6626 67.219,-460.1645 72.6735,-451.0817 65.8189,-449.6626"/>
</g>
<!-- Node139 -->
<g id="node20" class="node">
<title>Node139</title>
<g id="a_node20"><a xlink:href="a00307.html#af62a0d273b69bdf1f5012f88e619cec7" target="_top" xlink:title="A_CO_DB\\get_single\l_raw_row_by_id">
<polygon fill="#ffffff" stroke="#000000" points="181.7925,-168.5 181.7925,-196.5 292.8462,-196.5 292.8462,-168.5 181.7925,-168.5"/>
<text text-anchor="start" x="189.7925" y="-184.5" font-family="Helvetica,sans-Serif" font-size="10.00" fill="#000000">A_CO_DB\get_single</text>
<text text-anchor="middle" x="237.3193" y="-174.5" font-family="Helvetica,sans-Serif" font-size="10.00" fill="#000000">_raw_row_by_id</text>
</a>
</g>
</g>
<!-- Node120&#45;&gt;Node139 -->
<g id="edge19" class="edge">
<title>Node120&#45;&gt;Node139</title>
<path fill="none" stroke="#191970" d="M67.4375,-450.3428C73.2237,-402.3595 94.8792,-275.9056 167.0635,-206.5 171.3374,-202.3906 176.3438,-198.9831 181.6814,-196.158"/>
<polygon fill="#191970" stroke="#191970" points="63.9568,-449.9755 66.334,-460.3002 70.9142,-450.7466 63.9568,-449.9755"/>
</g>
<!-- Node140 -->
<g id="node21" class="node">
<title>Node140</title>
<g id="a_node21"><a xlink:href="a00327.html#a3cd67075c3669e321c903e1b935d37a4" target="_top" xlink:title="CO_Security_DB\\i_have\l_all_ids">
<polygon fill="#ffffff" stroke="#000000" points="175.1274,-121.5 175.1274,-149.5 299.5112,-149.5 299.5112,-121.5 175.1274,-121.5"/>
<text text-anchor="start" x="183.1274" y="-137.5" font-family="Helvetica,sans-Serif" font-size="10.00" fill="#000000">CO_Security_DB\i_have</text>
<text text-anchor="middle" x="237.3193" y="-127.5" font-family="Helvetica,sans-Serif" font-size="10.00" fill="#000000">_all_ids</text>
</a>
</g>
</g>
<!-- Node120&#45;&gt;Node140 -->
<g id="edge20" class="edge">
<title>Node120&#45;&gt;Node140</title>
<path fill="none" stroke="#191970" d="M69.4496,-450.4319C82.2627,-389.7466 124.5472,-202.5584 167.0635,-159.5 170.9576,-155.5562 175.5257,-152.2601 180.4316,-149.5055"/>
<polygon fill="#191970" stroke="#191970" points="66.022,-449.7238 67.4066,-460.2278 72.8746,-451.153 66.022,-449.7238"/>
</g>
<!-- Node141 -->
<g id="node22" class="node">
<title>Node141</title>
<g id="a_node22"><a xlink:href="a00315.html#aad50ae8e57d81015ec1e8601dd2eaba4" target="_top" xlink:title="CO_Main_Data_DB\\item\l_exists">
<polygon fill="#ffffff" stroke="#000000" points="174.2974,-74.5 174.2974,-102.5 300.3413,-102.5 300.3413,-74.5 174.2974,-74.5"/>
<text text-anchor="start" x="182.2974" y="-90.5" font-family="Helvetica,sans-Serif" font-size="10.00" fill="#000000">CO_Main_Data_DB\item</text>
<text text-anchor="middle" x="237.3193" y="-80.5" font-family="Helvetica,sans-Serif" font-size="10.00" fill="#000000">_exists</text>
</a>
</g>
</g>
<!-- Node120&#45;&gt;Node141 -->
<g id="edge21" class="edge">
<title>Node120&#45;&gt;Node141</title>
<path fill="none" stroke="#191970" d="M68.6112,-450.2166C79.6359,-383.3956 119.0471,-163.0852 167.0635,-112.5 170.7904,-108.5737 175.1855,-105.2897 179.9291,-102.543"/>
<polygon fill="#191970" stroke="#191970" points="65.1367,-449.7779 66.9867,-460.21 72.046,-450.9012 65.1367,-449.7779"/>
</g>
<!-- Node142 -->
<g id="node23" class="node">
<title>Node142</title>
<g id="a_node23"><a xlink:href="a00307.html#afacdcd578ddc750ca33d2418b54ab6b9" target="_top" xlink:title="A_CO_DB\\lock_record">
<polygon fill="#ffffff" stroke="#000000" points="178.7432,-37.5 178.7432,-55.5 295.8955,-55.5 295.8955,-37.5 178.7432,-37.5"/>
<text text-anchor="middle" x="237.3193" y="-43.5" font-family="Helvetica,sans-Serif" font-size="10.00" fill="#000000">A_CO_DB\lock_record</text>
</a>
</g>
</g>
<!-- Node120&#45;&gt;Node142 -->
<g id="edge22" class="edge">
<title>Node120&#45;&gt;Node142</title>
<path fill="none" stroke="#191970" d="M67.771,-450.4296C76.6333,-378.1178 111.5027,-122.0646 167.0635,-65.5 171.1364,-61.3535 176.014,-58.0836 181.2756,-55.5093"/>
<polygon fill="#191970" stroke="#191970" points="64.2912,-450.0526 66.5728,-460.3989 71.2412,-450.888 64.2912,-450.0526"/>
</g>
<!-- Node143 -->
<g id="node24" class="node">
<title>Node143</title>
<g id="a_node24"><a xlink:href="a00307.html#acac7eadbd231d714f3eed150eec35838" target="_top" xlink:title="A_CO_DB\\write_record">
<polygon fill="#ffffff" stroke="#000000" points="177.0781,-.5 177.0781,-18.5 297.5605,-18.5 297.5605,-.5 177.0781,-.5"/>
<text text-anchor="middle" x="237.3193" y="-6.5" font-family="Helvetica,sans-Serif" font-size="10.00" fill="#000000">A_CO_DB\write_record</text>
</a>
</g>
</g>
<!-- Node120&#45;&gt;Node143 -->
<g id="edge23" class="edge">
<title>Node120&#45;&gt;Node143</title>
<path fill="none" stroke="#191970" d="M67.3637,-450.1902C75.0262,-373.4168 106.9377,-90.9447 167.0635,-28.5 171.0073,-24.4041 175.7354,-21.1611 180.8503,-18.5977"/>
<polygon fill="#191970" stroke="#191970" points="63.8621,-450.0373 66.3748,-460.3298 70.829,-450.7168 63.8621,-450.0373"/>
</g>
<!-- Node135 -->
<g id="node16" class="node">
<title>Node135</title>
<g id="a_node16"><a xlink:href="a00307.html#a631d8d027d72c940a7cec689cbb4e568" target="_top" xlink:title="A_CO_DB\\get_single\l_record_by_id">
<polygon fill="#ffffff" stroke="#000000" points="356.9248,-319.5 356.9248,-347.5 467.9785,-347.5 467.9785,-319.5 356.9248,-319.5"/>
<text text-anchor="start" x="364.9248" y="-335.5" font-family="Helvetica,sans-Serif" font-size="10.00" fill="#000000">A_CO_DB\get_single</text>
<text text-anchor="middle" x="412.4517" y="-325.5" font-family="Helvetica,sans-Serif" font-size="10.00" fill="#000000">_record_by_id</text>
</a>
</g>
</g>
<!-- Node134&#45;&gt;Node135 -->
<g id="edge15" class="edge">
<title>Node134&#45;&gt;Node135</title>
<path fill="none" stroke="#191970" d="M307.2198,-333.5C323.6886,-333.5 341.0272,-333.5 356.7727,-333.5"/>
<polygon fill="#191970" stroke="#191970" points="307.1002,-330.0001 297.1001,-333.5 307.1001,-337.0001 307.1002,-330.0001"/>
</g>
<!-- Node137 -->
<g id="node18" class="node">
<title>Node137</title>
<g id="a_node18"><a xlink:href="a00327.html#ab01692597b11329b0d63096b10e1f473" target="_top" xlink:title="CO_Security_DB\\get\l_single_record_by_login_id">
<polygon fill="#ffffff" stroke="#000000" points="343.5752,-267.5 343.5752,-295.5 481.3281,-295.5 481.3281,-267.5 343.5752,-267.5"/>
<text text-anchor="start" x="351.5752" y="-283.5" font-family="Helvetica,sans-Serif" font-size="10.00" fill="#000000">CO_Security_DB\get</text>
<text text-anchor="middle" x="412.4517" y="-273.5" font-family="Helvetica,sans-Serif" font-size="10.00" fill="#000000">_single_record_by_login_id</text>
</a>
</g>
</g>
<!-- Node136&#45;&gt;Node137 -->
<g id="edge17" class="edge">
<title>Node136&#45;&gt;Node137</title>
<path fill="none" stroke="#191970" d="M303.4776,-281.5C316.4849,-281.5 330.1636,-281.5 343.2671,-281.5"/>
<polygon fill="#191970" stroke="#191970" points="303.2138,-278.0001 293.2138,-281.5 303.2138,-285.0001 303.2138,-278.0001"/>
</g>
</g>
</svg>
        <g id="navigator" transform="translate(0 0)" fill="#404254">
                <rect fill="#f2f5e9" fill-opacity="0.5" stroke="#606060" stroke-width=".5" x="0" y="0" width="60" height="60"/>
                <use id="zoomplus" xlink:href="#zoomPlus" x="17" y="9" onmousedown="handleZoom(evt,'in')"/>
                <use id="zoomminus" xlink:href="#zoomMin" x="42" y="9" onmousedown="handleZoom(evt,'out')"/>
                <use id="reset" xlink:href="#resetDef" x="30" y="36" onmousedown="handleReset()"/>
                <g id="arrowUp" xlink:href="#dirArrow" transform="translate(30 24)" onmousedown="handlePan(0,-1)">
                  <use xlink:href="#rim" fill="#404040">
                        <set attributeName="fill" to="#808080" begin="arrowUp.mouseover" end="arrowUp.mouseout"/>
                  </use>
                  <path fill="none" stroke="white" stroke-width="1.5" d="M0,-3.0v7 M-2.5,-0.5L0,-3.0L2.5,-0.5"/>
                </g>
                <g id="arrowRight" xlink:href="#dirArrow" transform="rotate(90) translate(36 -43)" onmousedown="handlePan(1,0)">
                  <use xlink:href="#rim" fill="#404040">
                        <set attributeName="fill" to="#808080" begin="arrowRight.mouseover" end="arrowRight.mouseout"/>
                  </use>
                  <path fill="none" stroke="white" stroke-width="1.5" d="M0,-3.0v7 M-2.5,-0.5L0,-3.0L2.5,-0.5"/>
                </g>
                <g id="arrowDown" xlink:href="#dirArrow" transform="rotate(180) translate(-30 -48)" onmousedown="handlePan(0,1)">
                  <use xlink:href="#rim" fill="#404040">
                        <set attributeName="fill" to="#808080" begin="arrowDown.mouseover" end="arrowDown.mouseout"/>
                  </use>
                  <path fill="none" stroke="white" stroke-width="1.5" d="M0,-3.0v7 M-2.5,-0.5L0,-3.0L2.5,-0.5"/>
                </g>
                <g id="arrowLeft" xlink:href="#dirArrow" transform="rotate(270) translate(-36 17)" onmousedown="handlePan(-1,0)">
                  <use xlink:href="#rim" fill="#404040">
                        <set attributeName="fill" to="#808080" begin="arrowLeft.mouseover" end="arrowLeft.mouseout"/>
                  </use>
                  <path fill="none" stroke="white" stroke-width="1.5" d="M0,-3.0v7 M-2.5,-0.5L0,-3.0L2.5,-0.5"/>
                </g>
        </g>
        <svg viewBox="0 0 15 15" width="100%" height="30px" preserveAspectRatio="xMaxYMin meet">
         <g id="arrow_out" transform="scale(0.3 0.3)">
          <a xlink:href="a00307_a2396849660aa4ff018ab7509a4badeb5_icgraph_org.svg" target="_base">
           <rect id="button" ry="5" rx="5" y="6" x="6" height="38" width="38"
                fill="#f2f5e9" fill-opacity="0.5" stroke="#606060" stroke-width="1.0"/>
           <path id="arrow"
             d="M 11.500037,31.436501 C 11.940474,20.09759 22.043105,11.32322 32.158766,21.979434 L 37.068811,17.246167 C 37.068811,17.246167 37.088388,32 37.088388,32 L 22.160133,31.978069 C 22.160133,31.978069 26.997745,27.140456 26.997745,27.140456 C 18.528582,18.264221 13.291696,25.230495 11.500037,31.436501 z"
             style="fill:#404040;"/>
          </a>
         </g>
        </svg>
</svg>
