<?xml version="1.0" encoding="UTF-8" standalone="no"?>
<!DOCTYPE svg PUBLIC "-//W3C//DTD SVG 1.1//EN"
 "http://www.w3.org/Graphics/SVG/1.1/DTD/svg11.dtd">
<!-- Generated by graphviz version 2.40.1 (20161225.0304)
 -->
<!-- Title: A_CO_DB_Table_Base\_build_parameter_array Pages: 1 -->
<svg width="300pt" height="74pt"
 viewBox="0.00 0.00 300.02 74.00" xmlns="http://www.w3.org/2000/svg" xmlns:xlink="http://www.w3.org/1999/xlink">
<g id="graph0" class="graph" transform="scale(1 1) rotate(0) translate(4 70)">
<title>A_CO_DB_Table_Base\_build_parameter_array</title>
<polygon fill="#ffffff" stroke="transparent" points="-4,4 -4,-70 296.0186,-70 296.0186,4 -4,4"/>
<!-- Node1 -->
<g id="node1" class="node">
<title>Node1</title>
<g id="a_node1"><a xlink:title=" ">
<polygon fill="#bfbfbf" stroke="#000000" points="0,-16.5 0,-44.5 124.9502,-44.5 124.9502,-16.5 0,-16.5"/>
<text text-anchor="start" x="8" y="-32.5" font-family="Helvetica,sans-Serif" font-size="10.00" fill="#000000">A_CO_DB_Table_Base</text>
<text text-anchor="middle" x="62.4751" y="-22.5" font-family="Helvetica,sans-Serif" font-size="10.00" fill="#000000">\_build_parameter_array</text>
</a>
</g>
</g>
<!-- Node2 -->
<g id="node2" class="node">
<title>Node2</title>
<g id="a_node2"><a xlink:href="a00311.html#afb32d1e32b8e1c1de2e008c9b88f7846" target="_top" xlink:title=" ">
<polygon fill="#ffffff" stroke="#000000" points="166.231,-37.5 166.231,-65.5 286.7378,-65.5 286.7378,-37.5 166.231,-37.5"/>
<text text-anchor="start" x="174.231" y="-53.5" font-family="Helvetica,sans-Serif" font-size="10.00" fill="#000000">A_CO_DB_Table_Base</text>
<text text-anchor="middle" x="226.4844" y="-43.5" font-family="Helvetica,sans-Serif" font-size="10.00" fill="#000000">\_badger_serialize</text>
</a>
</g>
</g>
<!-- Node1&#45;&gt;Node2 -->
<g id="edge1" class="edge">
<title>Node1&#45;&gt;Node2</title>
<path fill="none" stroke="#191970" d="M125.4163,-38.5591C135.4435,-39.843 145.8732,-41.1784 156.0597,-42.4827"/>
<polygon fill="#191970" stroke="#191970" points="155.7776,-45.9751 166.1412,-43.7736 156.6667,-39.0318 155.7776,-45.9751"/>
</g>
<!-- Node3 -->
<g id="node3" class="node">
<title>Node3</title>
<g id="a_node3"><a xlink:href="a00311.html#a78affe18a811930d4012fd265e95cdca" target="_top" xlink:title=" ">
<polygon fill="#ffffff" stroke="#000000" points="160.9502,-.5 160.9502,-18.5 292.0186,-18.5 292.0186,-.5 160.9502,-.5"/>
<text text-anchor="middle" x="226.4844" y="-6.5" font-family="Helvetica,sans-Serif" font-size="10.00" fill="#000000">A_CO_DB_Table_Base\id</text>
</a>
</g>
</g>
<!-- Node1&#45;&gt;Node3 -->
<g id="edge2" class="edge">
<title>Node1&#45;&gt;Node3</title>
<path fill="none" stroke="#191970" d="M125.4163,-22.4409C133.6368,-21.3883 142.1278,-20.3011 150.5336,-19.2249"/>
<polygon fill="#191970" stroke="#191970" points="151.2461,-22.6623 160.7205,-17.9205 150.357,-15.719 151.2461,-22.6623"/>
</g>
</g>
</svg>
