<?xml version="1.0" encoding="UTF-8" standalone="no"?>
<!DOCTYPE svg PUBLIC "-//W3C//DTD SVG 1.1//EN"
 "http://www.w3.org/Graphics/SVG/1.1/DTD/svg11.dtd">
<!-- Generated by graphviz version 2.40.1 (20161225.0304)
 -->
<!-- Title: CO_Security_DB\count_all_login_objects_with_access Pages: 1 -->
<svg width="467pt" height="47pt"
 viewBox="0.00 0.00 467.07 47.00" xmlns="http://www.w3.org/2000/svg" xmlns:xlink="http://www.w3.org/1999/xlink">
<g id="graph0" class="graph" transform="scale(1 1) rotate(0) translate(4 43)">
<title>CO_Security_DB\count_all_login_objects_with_access</title>
<polygon fill="#ffffff" stroke="transparent" points="-4,4 -4,-43 463.0674,-43 463.0674,4 -4,4"/>
<!-- Node1 -->
<g id="node1" class="node">
<title>Node1</title>
<g id="a_node1"><a xlink:title=" ">
<polygon fill="#bfbfbf" stroke="#000000" points="0,-.5 0,-38.5 119.3789,-38.5 119.3789,-.5 0,-.5"/>
<text text-anchor="start" x="8" y="-26.5" font-family="Helvetica,sans-Serif" font-size="10.00" fill="#000000">CO_Security_DB\count</text>
<text text-anchor="start" x="8" y="-16.5" font-family="Helvetica,sans-Serif" font-size="10.00" fill="#000000">_all_login_objects_with</text>
<text text-anchor="middle" x="59.6895" y="-6.5" font-family="Helvetica,sans-Serif" font-size="10.00" fill="#000000">_access</text>
</a>
</g>
</g>
<!-- Node2 -->
<g id="node2" class="node">
<title>Node2</title>
<g id="a_node2"><a xlink:href="a00304.html#a2396849660aa4ff018ab7509a4badeb5" target="_top" xlink:title=" ">
<polygon fill="#ffffff" stroke="#000000" points="155.3789,-10.5 155.3789,-28.5 286.4424,-28.5 286.4424,-10.5 155.3789,-10.5"/>
<text text-anchor="middle" x="220.9106" y="-16.5" font-family="Helvetica,sans-Serif" font-size="10.00" fill="#000000">A_CO_DB\execute_query</text>
</a>
</g>
</g>
<!-- Node1&#45;&gt;Node2 -->
<g id="edge1" class="edge">
<title>Node1&#45;&gt;Node2</title>
<path fill="none" stroke="#191970" d="M119.7223,-19.5C127.9328,-19.5 136.4486,-19.5 144.8968,-19.5"/>
<polygon fill="#191970" stroke="#191970" points="145.1433,-23.0001 155.1433,-19.5 145.1432,-16.0001 145.1433,-23.0001"/>
</g>
<!-- Node3 -->
<g id="node3" class="node">
<title>Node3</title>
<g id="a_node3"><a xlink:href="a00304.html#ae41efbdfe739934823b5f4c785b22611" target="_top" xlink:title=" ">
<polygon fill="#ffffff" stroke="#000000" points="322.4424,-10.5 322.4424,-28.5 459.0674,-28.5 459.0674,-10.5 322.4424,-10.5"/>
<text text-anchor="middle" x="390.7549" y="-16.5" font-family="Helvetica,sans-Serif" font-size="10.00" fill="#000000">A_CO_DB\_execute_query</text>
</a>
</g>
</g>
<!-- Node2&#45;&gt;Node3 -->
<g id="edge2" class="edge">
<title>Node2&#45;&gt;Node3</title>
<path fill="none" stroke="#191970" d="M286.5769,-19.5C294.8724,-19.5 303.4268,-19.5 311.9001,-19.5"/>
<polygon fill="#191970" stroke="#191970" points="312.1728,-23.0001 322.1728,-19.5 312.1728,-16.0001 312.1728,-23.0001"/>
</g>
</g>
</svg>
