<?xml version="1.0" encoding="UTF-8" standalone="no"?>
<!DOCTYPE svg PUBLIC "-//W3C//DTD SVG 1.1//EN"
 "http://www.w3.org/Graphics/SVG/1.1/DTD/svg11.dtd">
<!-- Generated by graphviz version 2.47.1 (20210417.1919)
 -->
<!-- Title: A_CO_DB_Table_Base\update_db Pages: 1 -->
<svg width="503pt" height="674pt"
 viewBox="0.00 0.00 503.00 673.50" xmlns="http://www.w3.org/2000/svg" xmlns:xlink="http://www.w3.org/1999/xlink">
<g id="graph0" class="graph" transform="scale(1 1) rotate(0) translate(4 669.5)">
<title>A_CO_DB_Table_Base\update_db</title>
<polygon fill="white" stroke="transparent" points="-4,4 -4,-669.5 499,-669.5 499,4 -4,4"/>
<!-- Node1 -->
<g id="node1" class="node">
<title>Node1</title>
<g id="a_node1"><a xlink:title=" ">
<polygon fill="#bfbfbf" stroke="black" points="376,-322.5 376,-352.5 495,-352.5 495,-322.5 376,-322.5"/>
<text text-anchor="start" x="384" y="-340.5" font-family="Helvetica,sans-Serif" font-size="10.00">A_CO_DB_Table_Base</text>
<text text-anchor="middle" x="435.5" y="-329.5" font-family="Helvetica,sans-Serif" font-size="10.00">\update_db</text>
</a>
</g>
</g>
<!-- Node2 -->
<g id="node2" class="node">
<title>Node2</title>
<g id="a_node2"><a xlink:href="a00340.html#a0d11bc2cb9f23f091615dd5918dd2abb" target="_top" xlink:title=" ">
<polygon fill="white" stroke="black" points="196,-646 196,-665 329,-665 329,-646 196,-646"/>
<text text-anchor="middle" x="262.5" y="-653" font-family="Helvetica,sans-Serif" font-size="10.00">CO_Security_Login\add_id</text>
</a>
</g>
</g>
<!-- Node1&#45;&gt;Node2 -->
<g id="edge1" class="edge">
<title>Node1&#45;&gt;Node2</title>
<path fill="none" stroke="midnightblue" d="M434.33,-362.56C432.53,-419.93 419.78,-561.57 340,-636.5 335.91,-640.34 331.17,-643.44 326.09,-645.93"/>
<polygon fill="midnightblue" stroke="midnightblue" points="437.83,-362.64 434.56,-352.56 430.84,-362.48 437.83,-362.64"/>
</g>
<!-- Node3 -->
<g id="node3" class="node">
<title>Node3</title>
<g id="a_node3"><a xlink:href="a00340.html#a59e2e5be376349924698305603bfb51f" target="_top" xlink:title=" ">
<polygon fill="white" stroke="black" points="200,-596.5 200,-626.5 325,-626.5 325,-596.5 200,-596.5"/>
<text text-anchor="start" x="208" y="-614.5" font-family="Helvetica,sans-Serif" font-size="10.00">CO_Security_Login\clear</text>
<text text-anchor="middle" x="262.5" y="-603.5" font-family="Helvetica,sans-Serif" font-size="10.00">_api_key</text>
</a>
</g>
</g>
<!-- Node1&#45;&gt;Node3 -->
<g id="edge2" class="edge">
<title>Node1&#45;&gt;Node3</title>
<path fill="none" stroke="midnightblue" d="M432.18,-362.6C426.22,-412.64 405.85,-525.33 340,-587.5 335.65,-591.61 330.6,-595.01 325.21,-597.84"/>
<polygon fill="midnightblue" stroke="midnightblue" points="435.66,-362.97 433.28,-352.64 428.71,-362.2 435.66,-362.97"/>
</g>
<!-- Node4 -->
<g id="node4" class="node">
<title>Node4</title>
<g id="a_node4"><a xlink:href="a00308.html#ab976e4ab55890095fc60406326b5de80" target="_top" xlink:title=" ">
<polygon fill="white" stroke="black" points="203,-547.5 203,-577.5 322,-577.5 322,-547.5 203,-547.5"/>
<text text-anchor="start" x="211" y="-565.5" font-family="Helvetica,sans-Serif" font-size="10.00">A_CO_DB_Table_Base</text>
<text text-anchor="middle" x="262.5" y="-554.5" font-family="Helvetica,sans-Serif" font-size="10.00">\clear_batch_mode</text>
</a>
</g>
</g>
<!-- Node1&#45;&gt;Node4 -->
<g id="edge3" class="edge">
<title>Node1&#45;&gt;Node4</title>
<path fill="none" stroke="midnightblue" d="M429.38,-362.77C419.52,-405 393.92,-489.95 340,-537.5 334.76,-542.12 328.65,-545.89 322.21,-548.96"/>
<polygon fill="midnightblue" stroke="midnightblue" points="432.85,-363.28 431.6,-352.76 426.01,-361.76 432.85,-363.28"/>
</g>
<!-- Node5 -->
<g id="node5" class="node">
<title>Node5</title>
<g id="a_node5"><a xlink:href="a00340.html#a1a141bb2d1d8b67737119e0729c7d159" target="_top" xlink:title=" ">
<polygon fill="white" stroke="black" points="194.5,-509 194.5,-528 330.5,-528 330.5,-509 194.5,-509"/>
<text text-anchor="middle" x="262.5" y="-516" font-family="Helvetica,sans-Serif" font-size="10.00">CO_Security_Login\set_ids</text>
</a>
</g>
</g>
<!-- Node1&#45;&gt;Node5 -->
<g id="edge4" class="edge">
<title>Node1&#45;&gt;Node5</title>
<path fill="none" stroke="midnightblue" d="M426.9,-362.44C414.63,-398.39 386.96,-464.31 340,-499.5 334.85,-503.36 329.02,-506.44 322.92,-508.9"/>
<polygon fill="midnightblue" stroke="midnightblue" points="430.3,-363.32 430.09,-352.73 423.65,-361.14 430.3,-363.32"/>
</g>
<!-- Node7 -->
<g id="node7" class="node">
<title>Node7</title>
<g id="a_node7"><a xlink:href="a00308.html#a1ed093545fa1cbc3f63a672cdf424734" target="_top" xlink:title=" ">
<polygon fill="white" stroke="black" points="203,-459.5 203,-489.5 322,-489.5 322,-459.5 203,-459.5"/>
<text text-anchor="start" x="211" y="-477.5" font-family="Helvetica,sans-Serif" font-size="10.00">A_CO_DB_Table_Base</text>
<text text-anchor="middle" x="262.5" y="-466.5" font-family="Helvetica,sans-Serif" font-size="10.00">\set_lang</text>
</a>
</g>
</g>
<!-- Node1&#45;&gt;Node7 -->
<g id="edge6" class="edge">
<title>Node1&#45;&gt;Node7</title>
<path fill="none" stroke="midnightblue" d="M420.03,-361.52C403.61,-386.84 374.58,-426.2 340,-449.5 334.32,-453.33 328.01,-456.6 321.53,-459.4"/>
<polygon fill="midnightblue" stroke="midnightblue" points="423.1,-363.21 425.49,-352.89 417.19,-359.47 423.1,-363.21"/>
</g>
<!-- Node8 -->
<g id="node8" class="node">
<title>Node8</title>
<g id="a_node8"><a xlink:href="a00340.html#a061f896c69dc8a8dd3d9ee793b91ddc7" target="_top" xlink:title=" ">
<polygon fill="white" stroke="black" points="192,-421 192,-440 333,-440 333,-421 192,-421"/>
<text text-anchor="middle" x="262.5" y="-428" font-family="Helvetica,sans-Serif" font-size="10.00">CO_Security_Login\set_lang</text>
</a>
</g>
</g>
<!-- Node1&#45;&gt;Node8 -->
<g id="edge7" class="edge">
<title>Node1&#45;&gt;Node8</title>
<path fill="none" stroke="midnightblue" d="M411.86,-359.76C393.8,-376.33 367.12,-398.27 340,-411.5 332.13,-415.34 323.41,-418.45 314.76,-420.95"/>
<polygon fill="midnightblue" stroke="midnightblue" points="414.62,-361.97 419.52,-352.58 409.83,-356.87 414.62,-361.97"/>
</g>
<!-- Node9 -->
<g id="node9" class="node">
<title>Node9</title>
<g id="a_node9"><a xlink:href="a00308.html#a92a9b9a122e9471b82dd79432bf3c929" target="_top" xlink:title=" ">
<polygon fill="white" stroke="black" points="203,-371.5 203,-401.5 322,-401.5 322,-371.5 203,-371.5"/>
<text text-anchor="start" x="211" y="-389.5" font-family="Helvetica,sans-Serif" font-size="10.00">A_CO_DB_Table_Base</text>
<text text-anchor="middle" x="262.5" y="-378.5" font-family="Helvetica,sans-Serif" font-size="10.00">\set_name</text>
</a>
</g>
</g>
<!-- Node1&#45;&gt;Node9 -->
<g id="edge8" class="edge">
<title>Node1&#45;&gt;Node9</title>
<path fill="none" stroke="midnightblue" d="M372.05,-355.39C353.66,-360.66 333.73,-366.38 316.03,-371.45"/>
<polygon fill="midnightblue" stroke="midnightblue" points="373.15,-358.72 381.8,-352.6 371.22,-351.99 373.15,-358.72"/>
</g>
<!-- Node10 -->
<g id="node10" class="node">
<title>Node10</title>
<g id="a_node10"><a xlink:href="a00316.html#a6349c04b5a027e23f0b8bd8810579844" target="_top" xlink:title=" ">
<polygon fill="white" stroke="black" points="197,-322.5 197,-352.5 328,-352.5 328,-322.5 197,-322.5"/>
<text text-anchor="start" x="205" y="-340.5" font-family="Helvetica,sans-Serif" font-size="10.00">CO_Main_DB_Record\set</text>
<text text-anchor="middle" x="262.5" y="-329.5" font-family="Helvetica,sans-Serif" font-size="10.00">_owner_id</text>
</a>
</g>
</g>
<!-- Node1&#45;&gt;Node10 -->
<g id="edge9" class="edge">
<title>Node1&#45;&gt;Node10</title>
<path fill="none" stroke="midnightblue" d="M365.41,-337.5C353.06,-337.5 340.23,-337.5 328.02,-337.5"/>
<polygon fill="midnightblue" stroke="midnightblue" points="365.65,-341 375.65,-337.5 365.65,-334 365.65,-341"/>
</g>
<!-- Node11 -->
<g id="node11" class="node">
<title>Node11</title>
<g id="a_node11"><a xlink:href="a00340.html#ac4f0c16cb8cf1e2151451bf4d5cb2238" target="_top" xlink:title=" ">
<polygon fill="white" stroke="black" points="197,-273.5 197,-303.5 328,-303.5 328,-273.5 197,-273.5"/>
<text text-anchor="start" x="205" y="-291.5" font-family="Helvetica,sans-Serif" font-size="10.00">CO_Security_Login\set</text>
<text text-anchor="middle" x="262.5" y="-280.5" font-family="Helvetica,sans-Serif" font-size="10.00">_password_from_cleartext</text>
</a>
</g>
</g>
<!-- Node1&#45;&gt;Node11 -->
<g id="edge10" class="edge">
<title>Node1&#45;&gt;Node11</title>
<path fill="none" stroke="midnightblue" d="M372.05,-319.61C353.66,-314.34 333.73,-308.62 316.03,-303.55"/>
<polygon fill="midnightblue" stroke="midnightblue" points="371.22,-323.01 381.8,-322.4 373.15,-316.28 371.22,-323.01"/>
</g>
<!-- Node12 -->
<g id="node12" class="node">
<title>Node12</title>
<g id="a_node12"><a xlink:href="a00316.html#a7860101403a734329dd8c1079f5d367e" target="_top" xlink:title=" ">
<polygon fill="white" stroke="black" points="197,-224.5 197,-254.5 328,-254.5 328,-224.5 197,-224.5"/>
<text text-anchor="start" x="205" y="-242.5" font-family="Helvetica,sans-Serif" font-size="10.00">CO_Main_DB_Record\set</text>
<text text-anchor="middle" x="262.5" y="-231.5" font-family="Helvetica,sans-Serif" font-size="10.00">_payload</text>
</a>
</g>
</g>
<!-- Node1&#45;&gt;Node12 -->
<g id="edge11" class="edge">
<title>Node1&#45;&gt;Node12</title>
<path fill="none" stroke="midnightblue" d="M410.87,-315.52C392.65,-299.55 366.22,-278.38 340,-264.5 332.96,-260.77 325.26,-257.47 317.55,-254.58"/>
<polygon fill="midnightblue" stroke="midnightblue" points="408.84,-318.4 418.63,-322.45 413.5,-313.18 408.84,-318.4"/>
</g>
<!-- Node13 -->
<g id="node13" class="node">
<title>Node13</title>
<g id="a_node13"><a xlink:href="a00340.html#a8d18fed2a089c920e67802253be3cd68" target="_top" xlink:title=" ">
<polygon fill="white" stroke="black" points="203.5,-175.5 203.5,-205.5 321.5,-205.5 321.5,-175.5 203.5,-175.5"/>
<text text-anchor="start" x="211.5" y="-193.5" font-family="Helvetica,sans-Serif" font-size="10.00">CO_Security_Login\set</text>
<text text-anchor="middle" x="262.5" y="-182.5" font-family="Helvetica,sans-Serif" font-size="10.00">_personal_ids</text>
</a>
</g>
</g>
<!-- Node1&#45;&gt;Node13 -->
<g id="edge12" class="edge">
<title>Node1&#45;&gt;Node13</title>
<path fill="none" stroke="midnightblue" d="M421.77,-313.44C406.05,-285.96 376.83,-241.45 340,-215.5 334.4,-211.56 328.15,-208.21 321.69,-205.37"/>
<polygon fill="midnightblue" stroke="midnightblue" points="418.83,-315.36 426.75,-322.39 424.95,-311.95 418.83,-315.36"/>
</g>
<!-- Node14 -->
<g id="node14" class="node">
<title>Node14</title>
<g id="a_node14"><a xlink:href="a00308.html#a3d4d1ab7910b9ccfdf8654d767e01d9b" target="_top" xlink:title=" ">
<polygon fill="white" stroke="black" points="203,-126.5 203,-156.5 322,-156.5 322,-126.5 203,-126.5"/>
<text text-anchor="start" x="211" y="-144.5" font-family="Helvetica,sans-Serif" font-size="10.00">A_CO_DB_Table_Base</text>
<text text-anchor="middle" x="262.5" y="-133.5" font-family="Helvetica,sans-Serif" font-size="10.00">\set_read_security_id</text>
</a>
</g>
</g>
<!-- Node1&#45;&gt;Node14 -->
<g id="edge13" class="edge">
<title>Node1&#45;&gt;Node14</title>
<path fill="none" stroke="midnightblue" d="M427.22,-312.5C415.14,-275.35 387.47,-205.75 340,-166.5 334.72,-162.14 328.66,-158.53 322.32,-155.55"/>
<polygon fill="midnightblue" stroke="midnightblue" points="424.02,-313.99 430.34,-322.49 430.7,-311.9 424.02,-313.99"/>
</g>
<!-- Node15 -->
<g id="node15" class="node">
<title>Node15</title>
<g id="a_node15"><a xlink:href="a00316.html#a1f9581fbd4aa2611da866405d446295c" target="_top" xlink:title=" ">
<polygon fill="white" stroke="black" points="188,-88 188,-107 337,-107 337,-88 188,-88"/>
<text text-anchor="middle" x="262.5" y="-95" font-family="Helvetica,sans-Serif" font-size="10.00">CO_Main_DB_Record\set_tag</text>
</a>
</g>
</g>
<!-- Node1&#45;&gt;Node15 -->
<g id="edge14" class="edge">
<title>Node1&#45;&gt;Node15</title>
<path fill="none" stroke="midnightblue" d="M430.98,-312.29C423.21,-266.43 400.25,-169.32 340,-117.5 335,-113.2 329.19,-109.81 323.05,-107.14"/>
<polygon fill="midnightblue" stroke="midnightblue" points="427.54,-312.96 432.57,-322.28 434.45,-311.86 427.54,-312.96"/>
</g>
<!-- Node16 -->
<g id="node16" class="node">
<title>Node16</title>
<g id="a_node16"><a xlink:href="a00316.html#a84074211704eba98c263bd7122cd13f7" target="_top" xlink:title=" ">
<polygon fill="white" stroke="black" points="185,-50 185,-69 340,-69 340,-50 185,-50"/>
<text text-anchor="middle" x="262.5" y="-57" font-family="Helvetica,sans-Serif" font-size="10.00">CO_Main_DB_Record\set_tags</text>
</a>
</g>
</g>
<!-- Node1&#45;&gt;Node16 -->
<g id="edge15" class="edge">
<title>Node1&#45;&gt;Node16</title>
<path fill="none" stroke="midnightblue" d="M432.9,-312.24C428.2,-260.35 409.96,-141.38 340,-78.5 335.73,-74.66 330.79,-71.56 325.54,-69.08"/>
<polygon fill="midnightblue" stroke="midnightblue" points="429.41,-312.56 433.71,-322.25 436.39,-312 429.41,-312.56"/>
</g>
<!-- Node18 -->
<g id="node18" class="node">
<title>Node18</title>
<g id="a_node18"><a xlink:href="a00308.html#a55eae92ef3e2f47689019e174f29daf1" target="_top" xlink:title=" ">
<polygon fill="white" stroke="black" points="203,-0.5 203,-30.5 322,-30.5 322,-0.5 203,-0.5"/>
<text text-anchor="start" x="211" y="-18.5" font-family="Helvetica,sans-Serif" font-size="10.00">A_CO_DB_Table_Base</text>
<text text-anchor="middle" x="262.5" y="-7.5" font-family="Helvetica,sans-Serif" font-size="10.00">\set_write_security_id</text>
</a>
</g>
</g>
<!-- Node1&#45;&gt;Node18 -->
<g id="edge17" class="edge">
<title>Node1&#45;&gt;Node18</title>
<path fill="none" stroke="midnightblue" d="M433.86,-312.24C431.05,-255.6 416.28,-117.38 340,-40.5 334.88,-35.34 328.69,-31.25 322.06,-28"/>
<polygon fill="midnightblue" stroke="midnightblue" points="430.37,-312.59 434.28,-322.44 437.37,-312.31 430.37,-312.59"/>
</g>
<!-- Node6 -->
<g id="node6" class="node">
<title>Node6</title>
<g id="a_node6"><a xlink:href="a00340.html#a985325996e8392412a6782569b294176" target="_top" xlink:title=" ">
<polygon fill="white" stroke="black" points="0,-509 0,-528 149,-528 149,-509 0,-509"/>
<text text-anchor="middle" x="74.5" y="-516" font-family="Helvetica,sans-Serif" font-size="10.00">CO_Security_Login\remove_id</text>
</a>
</g>
</g>
<!-- Node5&#45;&gt;Node6 -->
<g id="edge5" class="edge">
<title>Node5&#45;&gt;Node6</title>
<path fill="none" stroke="midnightblue" d="M184.25,-518.5C172.64,-518.5 160.69,-518.5 149.16,-518.5"/>
<polygon fill="midnightblue" stroke="midnightblue" points="184.35,-522 194.35,-518.5 184.35,-515 184.35,-522"/>
</g>
<!-- Node17 -->
<g id="node17" class="node">
<title>Node17</title>
<g id="a_node17"><a xlink:href="a00260.html#a887a876b0603db0289a8bdc7ab4e66b2" target="_top" xlink:title=" ">
<polygon fill="white" stroke="black" points="11,-44.5 11,-74.5 138,-74.5 138,-44.5 11,-44.5"/>
<text text-anchor="start" x="19" y="-62.5" font-family="Helvetica,sans-Serif" font-size="10.00">CO_Place\set_tags_from</text>
<text text-anchor="middle" x="74.5" y="-51.5" font-family="Helvetica,sans-Serif" font-size="10.00">_address_elements</text>
</a>
</g>
</g>
<!-- Node16&#45;&gt;Node17 -->
<g id="edge16" class="edge">
<title>Node16&#45;&gt;Node17</title>
<path fill="none" stroke="midnightblue" d="M174.52,-59.5C162.26,-59.5 149.86,-59.5 138.17,-59.5"/>
<polygon fill="midnightblue" stroke="midnightblue" points="174.77,-63 184.77,-59.5 174.77,-56 174.77,-63"/>
</g>
</g>
</svg>
