<?xml version="1.0" encoding="UTF-8" standalone="no"?>
<!DOCTYPE svg PUBLIC "-//W3C//DTD SVG 1.1//EN"
 "http://www.w3.org/Graphics/SVG/1.1/DTD/svg11.dtd">
<!-- Generated by graphviz version 2.40.1 (20161225.0304)
 -->
<!-- Title: CO_Security_Login\remove_personal_token_from_this_login Pages: 1 -->
<svg width="651pt" height="100pt"
 viewBox="0.00 0.00 651.40 100.00" xmlns="http://www.w3.org/2000/svg" xmlns:xlink="http://www.w3.org/1999/xlink">
<g id="graph0" class="graph" transform="scale(1 1) rotate(0) translate(4 96)">
<title>CO_Security_Login\remove_personal_token_from_this_login</title>
<polygon fill="#ffffff" stroke="transparent" points="-4,4 -4,-96 647.4014,-96 647.4014,4 -4,4"/>
<!-- Node1 -->
<g id="node1" class="node">
<title>Node1</title>
<g id="a_node1"><a xlink:title=" ">
<polygon fill="#bfbfbf" stroke="#000000" points="0,-41.5 0,-69.5 163.3193,-69.5 163.3193,-41.5 0,-41.5"/>
<text text-anchor="start" x="8" y="-57.5" font-family="Helvetica,sans-Serif" font-size="10.00" fill="#000000">CO_Security_Login\remove</text>
<text text-anchor="middle" x="81.6597" y="-47.5" font-family="Helvetica,sans-Serif" font-size="10.00" fill="#000000">_personal_token_from_this_login</text>
</a>
</g>
</g>
<!-- Node2 -->
<g id="node2" class="node">
<title>Node2</title>
<g id="a_node2"><a xlink:href="a00308.html#a8780b40e55827b90bb441671faec2a05" target="_top" xlink:title=" ">
<polygon fill="#ffffff" stroke="#000000" points="355.8262,-63.5 355.8262,-91.5 476.333,-91.5 476.333,-63.5 355.8262,-63.5"/>
<text text-anchor="start" x="363.8262" y="-79.5" font-family="Helvetica,sans-Serif" font-size="10.00" fill="#000000">A_CO_DB_Table_Base</text>
<text text-anchor="middle" x="416.0796" y="-69.5" font-family="Helvetica,sans-Serif" font-size="10.00" fill="#000000">\get_access_object</text>
</a>
</g>
</g>
<!-- Node1&#45;&gt;Node2 -->
<g id="edge1" class="edge">
<title>Node1&#45;&gt;Node2</title>
<path fill="none" stroke="#191970" d="M163.468,-60.8818C219.2377,-64.5506 292.3335,-69.3593 345.5393,-72.8595"/>
<polygon fill="#191970" stroke="#191970" points="345.3604,-76.3552 355.5686,-73.5193 345.82,-69.3703 345.3604,-76.3552"/>
</g>
<!-- Node3 -->
<g id="node3" class="node">
<title>Node3</title>
<g id="a_node3"><a xlink:href="a00308.html#aa5e1bc5570c817cfe3ddeb67003d4f45" target="_top" xlink:title=" ">
<polygon fill="#ffffff" stroke="#000000" points="199.3193,-20.5 199.3193,-48.5 319.8262,-48.5 319.8262,-20.5 199.3193,-20.5"/>
<text text-anchor="start" x="207.3193" y="-36.5" font-family="Helvetica,sans-Serif" font-size="10.00" fill="#000000">A_CO_DB_Table_Base</text>
<text text-anchor="middle" x="259.5728" y="-26.5" font-family="Helvetica,sans-Serif" font-size="10.00" fill="#000000">\reload_from_db</text>
</a>
</g>
</g>
<!-- Node1&#45;&gt;Node3 -->
<g id="edge2" class="edge">
<title>Node1&#45;&gt;Node3</title>
<path fill="none" stroke="#191970" d="M163.3263,-45.8605C171.8987,-44.8486 180.5621,-43.826 188.9951,-42.8306"/>
<polygon fill="#191970" stroke="#191970" points="189.6248,-46.2807 199.1456,-41.6325 188.8042,-39.329 189.6248,-46.2807"/>
</g>
<!-- Node3&#45;&gt;Node2 -->
<g id="edge3" class="edge">
<title>Node3&#45;&gt;Node2</title>
<path fill="none" stroke="#191970" d="M310.8189,-48.5798C324.9434,-52.4605 340.4059,-56.7088 355.0257,-60.7255"/>
<polygon fill="#191970" stroke="#191970" points="354.4157,-64.1876 364.9857,-63.462 356.2703,-57.4377 354.4157,-64.1876"/>
</g>
<!-- Node4 -->
<g id="node4" class="node">
<title>Node4</title>
<g id="a_node4"><a xlink:href="a00308.html#a91b894b2b9aa29d47c43e519f5ad0bf6" target="_top" xlink:title=" ">
<polygon fill="#ffffff" stroke="#000000" points="355.8262,-16.5 355.8262,-44.5 476.333,-44.5 476.333,-16.5 355.8262,-16.5"/>
<text text-anchor="start" x="363.8262" y="-32.5" font-family="Helvetica,sans-Serif" font-size="10.00" fill="#000000">A_CO_DB_Table_Base</text>
<text text-anchor="middle" x="416.0796" y="-22.5" font-family="Helvetica,sans-Serif" font-size="10.00" fill="#000000">\load_from_db</text>
</a>
</g>
</g>
<!-- Node3&#45;&gt;Node4 -->
<g id="edge4" class="edge">
<title>Node3&#45;&gt;Node4</title>
<path fill="none" stroke="#191970" d="M320.0824,-32.9535C328.3992,-32.7409 336.9983,-32.5212 345.4765,-32.3045"/>
<polygon fill="#191970" stroke="#191970" points="345.8236,-35.7968 355.7309,-32.0424 345.6447,-28.7991 345.8236,-35.7968"/>
</g>
<!-- Node5 -->
<g id="node5" class="node">
<title>Node5</title>
<g id="a_node5"><a xlink:href="a00308.html#aecf243af90c7a16d03c7e4630ccc4e8e" target="_top" xlink:title=" ">
<polygon fill="#ffffff" stroke="#000000" points="517.6138,-37.5 517.6138,-65.5 638.1206,-65.5 638.1206,-37.5 517.6138,-37.5"/>
<text text-anchor="start" x="525.6138" y="-53.5" font-family="Helvetica,sans-Serif" font-size="10.00" fill="#000000">A_CO_DB_Table_Base</text>
<text text-anchor="middle" x="577.8672" y="-43.5" font-family="Helvetica,sans-Serif" font-size="10.00" fill="#000000">\_badger_unserialize</text>
</a>
</g>
</g>
<!-- Node4&#45;&gt;Node5 -->
<g id="edge5" class="edge">
<title>Node4&#45;&gt;Node5</title>
<path fill="none" stroke="#191970" d="M476.7836,-38.3794C486.7363,-39.6712 497.1246,-41.0196 507.2918,-42.3393"/>
<polygon fill="#191970" stroke="#191970" points="506.9937,-45.8299 517.361,-43.6463 507.8948,-38.8881 506.9937,-45.8299"/>
</g>
<!-- Node6 -->
<g id="node6" class="node">
<title>Node6</title>
<g id="a_node6"><a xlink:href="a00308.html#a78affe18a811930d4012fd265e95cdca" target="_top" xlink:title=" ">
<polygon fill="#ffffff" stroke="#000000" points="512.333,-.5 512.333,-18.5 643.4014,-18.5 643.4014,-.5 512.333,-.5"/>
<text text-anchor="middle" x="577.8672" y="-6.5" font-family="Helvetica,sans-Serif" font-size="10.00" fill="#000000">A_CO_DB_Table_Base\id</text>
</a>
</g>
</g>
<!-- Node4&#45;&gt;Node6 -->
<g id="edge6" class="edge">
<title>Node4&#45;&gt;Node6</title>
<path fill="none" stroke="#191970" d="M476.7836,-22.6206C485.0971,-21.5415 493.7146,-20.423 502.2533,-19.3147"/>
<polygon fill="#191970" stroke="#191970" points="502.7515,-22.7795 512.2178,-18.0213 501.8504,-15.8377 502.7515,-22.7795"/>
</g>
</g>
</svg>
