<?xml version="1.0" encoding="UTF-8" standalone="no"?>
<!DOCTYPE svg PUBLIC "-//W3C//DTD SVG 1.1//EN"
 "http://www.w3.org/Graphics/SVG/1.1/DTD/svg11.dtd">
<!-- Generated by graphviz version 2.40.1 (20161225.0304)
 -->
<!-- Title: CO_Access\check_login_exists Pages: 1 -->
<svg width="291pt" height="37pt"
 viewBox="0.00 0.00 291.09 37.00" xmlns="http://www.w3.org/2000/svg" xmlns:xlink="http://www.w3.org/1999/xlink">
<g id="graph0" class="graph" transform="scale(1 1) rotate(0) translate(4 33)">
<title>CO_Access\check_login_exists</title>
<polygon fill="#ffffff" stroke="transparent" points="-4,4 -4,-33 287.0928,-33 287.0928,4 -4,4"/>
<!-- Node1 -->
<g id="node1" class="node">
<title>Node1</title>
<g id="a_node1"><a xlink:title=" ">
<polygon fill="#bfbfbf" stroke="#000000" points="158.709,-.5 158.709,-28.5 283.0928,-28.5 283.0928,-.5 158.709,-.5"/>
<text text-anchor="start" x="166.709" y="-16.5" font-family="Helvetica,sans-Serif" font-size="10.00" fill="#000000">CO_Access\check_login</text>
<text text-anchor="middle" x="220.9009" y="-6.5" font-family="Helvetica,sans-Serif" font-size="10.00" fill="#000000">_exists</text>
</a>
</g>
</g>
<!-- Node2 -->
<g id="node2" class="node">
<title>Node2</title>
<g id="a_node2"><a xlink:href="a00355.html#a96c5de557dbba65d1fc15f58cfd01255" target="_top" xlink:title=" ">
<polygon fill="#ffffff" stroke="#000000" points="0,-.5 0,-28.5 122.709,-28.5 122.709,-.5 0,-.5"/>
<text text-anchor="start" x="8" y="-16.5" font-family="Helvetica,sans-Serif" font-size="10.00" fill="#000000">CO_Access\check_user</text>
<text text-anchor="middle" x="61.3545" y="-6.5" font-family="Helvetica,sans-Serif" font-size="10.00" fill="#000000">_exists</text>
</a>
</g>
</g>
<!-- Node1&#45;&gt;Node2 -->
<g id="edge1" class="edge">
<title>Node1&#45;&gt;Node2</title>
<path fill="none" stroke="#191970" d="M148.0535,-14.5C139.5878,-14.5 131.0174,-14.5 122.7273,-14.5"/>
<polygon fill="#191970" stroke="#191970" points="148.3019,-18.0001 158.3018,-14.5 148.3018,-11.0001 148.3019,-18.0001"/>
</g>
</g>
</svg>
