<?xml version="1.0" encoding="UTF-8" standalone="no"?>
<!DOCTYPE svg PUBLIC "-//W3C//DTD SVG 1.1//EN"
 "http://www.w3.org/Graphics/SVG/1.1/DTD/svg11.dtd">
<!-- Generated by graphviz version 2.47.1 (20210417.1919)
 -->
<!-- Title: Graphical Class Hierarchy Pages: 1 -->
<svg width="284pt" height="142pt"
 viewBox="0.00 0.00 284.00 142.00" xmlns="http://www.w3.org/2000/svg" xmlns:xlink="http://www.w3.org/1999/xlink">
<g id="graph0" class="graph" transform="scale(1 1) rotate(0) translate(4 138)">
<title>Graphical Class Hierarchy</title>
<polygon fill="white" stroke="transparent" points="-4,4 -4,-138 280,-138 280,4 -4,4"/>
<!-- Node0 -->
<g id="node1" class="node">
<title>Node0</title>
<g id="a_node1"><a xlink:href="a00196.html" target="_top" xlink:title=" ">
<polygon fill="white" stroke="black" points="0,-57.5 0,-76.5 109,-76.5 109,-57.5 0,-57.5"/>
<text text-anchor="middle" x="54.5" y="-64.5" font-family="Helvetica,sans-Serif" font-size="10.00">A_CO_Basalt_Plugin</text>
</a>
</g>
</g>
<!-- Node1 -->
<g id="node2" class="node">
<title>Node1</title>
<g id="a_node2"><a xlink:href="a00200.html" target="_top" xlink:title=" ">
<polygon fill="white" stroke="black" points="178,-114.5 178,-133.5 243,-133.5 243,-114.5 178,-114.5"/>
<text text-anchor="middle" x="210.5" y="-121.5" font-family="Helvetica,sans-Serif" font-size="10.00">CO_Basalt</text>
</a>
</g>
</g>
<!-- Node0&#45;&gt;Node1 -->
<g id="edge1" class="edge">
<title>Node0&#45;&gt;Node1</title>
<path fill="none" stroke="midnightblue" d="M85.72,-80.85C102.9,-88.48 124.94,-97.81 145,-105 155.55,-108.78 167.26,-112.4 177.77,-115.44"/>
<polygon fill="midnightblue" stroke="midnightblue" points="86.76,-77.49 76.21,-76.6 83.9,-83.88 86.76,-77.49"/>
</g>
<!-- Node2 -->
<g id="node3" class="node">
<title>Node2</title>
<g id="a_node3"><a xlink:href="a00204.html" target="_top" xlink:title=" ">
<polygon fill="white" stroke="black" points="145,-76.5 145,-95.5 276,-95.5 276,-76.5 145,-76.5"/>
<text text-anchor="middle" x="210.5" y="-83.5" font-family="Helvetica,sans-Serif" font-size="10.00">CO_people_Basalt_Plugin</text>
</a>
</g>
</g>
<!-- Node0&#45;&gt;Node2 -->
<g id="edge2" class="edge">
<title>Node0&#45;&gt;Node2</title>
<path fill="none" stroke="midnightblue" d="M119.45,-74.89C127.83,-75.92 136.43,-76.98 144.82,-78.02"/>
<polygon fill="midnightblue" stroke="midnightblue" points="119.72,-71.4 109.36,-73.65 118.86,-78.34 119.72,-71.4"/>
</g>
<!-- Node3 -->
<g id="node4" class="node">
<title>Node3</title>
<g id="a_node4"><a xlink:href="a00208.html" target="_top" xlink:title=" ">
<polygon fill="white" stroke="black" points="145,-38.5 145,-57.5 276,-57.5 276,-38.5 145,-38.5"/>
<text text-anchor="middle" x="210.5" y="-45.5" font-family="Helvetica,sans-Serif" font-size="10.00">CO_places_Basalt_Plugin</text>
</a>
</g>
</g>
<!-- Node0&#45;&gt;Node3 -->
<g id="edge3" class="edge">
<title>Node0&#45;&gt;Node3</title>
<path fill="none" stroke="midnightblue" d="M119.45,-59.11C127.83,-58.08 136.43,-57.02 144.82,-55.98"/>
<polygon fill="midnightblue" stroke="midnightblue" points="118.86,-55.66 109.36,-60.35 119.72,-62.6 118.86,-55.66"/>
</g>
<!-- Node4 -->
<g id="node5" class="node">
<title>Node4</title>
<g id="a_node5"><a xlink:href="a00212.html" target="_top" xlink:title=" ">
<polygon fill="white" stroke="black" points="146.5,-0.5 146.5,-19.5 274.5,-19.5 274.5,-0.5 146.5,-0.5"/>
<text text-anchor="middle" x="210.5" y="-7.5" font-family="Helvetica,sans-Serif" font-size="10.00">CO_things_Basalt_Plugin</text>
</a>
</g>
</g>
<!-- Node0&#45;&gt;Node4 -->
<g id="edge4" class="edge">
<title>Node0&#45;&gt;Node4</title>
<path fill="none" stroke="midnightblue" d="M85.72,-53.15C102.9,-45.52 124.94,-36.19 145,-29 154.45,-25.61 164.83,-22.36 174.45,-19.53"/>
<polygon fill="midnightblue" stroke="midnightblue" points="83.9,-50.12 76.21,-57.4 86.76,-56.51 83.9,-50.12"/>
</g>
</g>
</svg>
