<?xml version="1.0" encoding="UTF-8" standalone="no"?>
<!DOCTYPE svg PUBLIC "-//W3C//DTD SVG 1.1//EN"
 "http://www.w3.org/Graphics/SVG/1.1/DTD/svg11.dtd">
<!-- Generated by graphviz version 2.40.1 (20161225.0304)
 -->
<!-- Title: Graphical Class Hierarchy Pages: 1 -->
<svg width="287pt" height="138pt"
 viewBox="0.00 0.00 287.25 138.00" xmlns="http://www.w3.org/2000/svg" xmlns:xlink="http://www.w3.org/1999/xlink">
<g id="graph0" class="graph" transform="scale(1 1) rotate(0) translate(4 134)">
<title>Graphical Class Hierarchy</title>
<polygon fill="#ffffff" stroke="transparent" points="-4,4 -4,-134 283.25,-134 283.25,4 -4,4"/>
<!-- Node0 -->
<g id="node1" class="node">
<title>Node0</title>
<g id="a_node1"><a xlink:href="a00199.html" target="_top" xlink:title="A_CO_Basalt_Plugin">
<polygon fill="#ffffff" stroke="#000000" points="0,-55.5 0,-73.5 109.9453,-73.5 109.9453,-55.5 0,-55.5"/>
<text text-anchor="middle" x="54.9727" y="-61.5" font-family="Helvetica,sans-Serif" font-size="10.00" fill="#000000">A_CO_Basalt_Plugin</text>
</a>
</g>
</g>
<!-- Node1 -->
<g id="node2" class="node">
<title>Node1</title>
<g id="a_node2"><a xlink:href="a00203.html" target="_top" xlink:title="CO_Basalt">
<polygon fill="#ffffff" stroke="#000000" points="180.4204,-111.5 180.4204,-129.5 244.7749,-129.5 244.7749,-111.5 180.4204,-111.5"/>
<text text-anchor="middle" x="212.5977" y="-117.5" font-family="Helvetica,sans-Serif" font-size="10.00" fill="#000000">CO_Basalt</text>
</a>
</g>
</g>
<!-- Node0&#45;&gt;Node1 -->
<g id="edge1" class="edge">
<title>Node0&#45;&gt;Node1</title>
<path fill="none" stroke="#191970" d="M83.7751,-77.6786C101.4841,-85.4923 124.7662,-95.2522 145.9453,-102.5 156.9456,-106.2644 169.179,-109.7604 180.1317,-112.6509"/>
<polygon fill="#191970" stroke="#191970" points="85.1172,-74.4449 74.5589,-73.5662 82.2648,-80.8374 85.1172,-74.4449"/>
</g>
<!-- Node2 -->
<g id="node3" class="node">
<title>Node2</title>
<g id="a_node3"><a xlink:href="a00207.html" target="_top" xlink:title="CO_people_Basalt_Plugin">
<polygon fill="#ffffff" stroke="#000000" points="145.9453,-74.5 145.9453,-92.5 279.25,-92.5 279.25,-74.5 145.9453,-74.5"/>
<text text-anchor="middle" x="212.5977" y="-80.5" font-family="Helvetica,sans-Serif" font-size="10.00" fill="#000000">CO_people_Basalt_Plugin</text>
</a>
</g>
</g>
<!-- Node0&#45;&gt;Node2 -->
<g id="edge2" class="edge">
<title>Node0&#45;&gt;Node2</title>
<path fill="none" stroke="#191970" d="M120.2707,-72.371C128.716,-73.389 137.3748,-74.4327 145.8433,-75.4535"/>
<polygon fill="#191970" stroke="#191970" points="120.4493,-68.8672 110.1022,-71.1453 119.6115,-75.8169 120.4493,-68.8672"/>
</g>
<!-- Node3 -->
<g id="node4" class="node">
<title>Node3</title>
<g id="a_node4"><a xlink:href="a00211.html" target="_top" xlink:title="CO_places_Basalt_Plugin">
<polygon fill="#ffffff" stroke="#000000" points="146.5068,-37.5 146.5068,-55.5 278.6885,-55.5 278.6885,-37.5 146.5068,-37.5"/>
<text text-anchor="middle" x="212.5977" y="-43.5" font-family="Helvetica,sans-Serif" font-size="10.00" fill="#000000">CO_places_Basalt_Plugin</text>
</a>
</g>
</g>
<!-- Node0&#45;&gt;Node3 -->
<g id="edge3" class="edge">
<title>Node0&#45;&gt;Node3</title>
<path fill="none" stroke="#191970" d="M120.1465,-57.0575C128.8138,-56.0677 137.7082,-55.052 146.3928,-54.0603"/>
<polygon fill="#191970" stroke="#191970" points="119.6405,-53.5924 110.1022,-58.2045 120.4348,-60.5472 119.6405,-53.5924"/>
</g>
<!-- Node4 -->
<g id="node5" class="node">
<title>Node4</title>
<g id="a_node5"><a xlink:href="a00215.html" target="_top" xlink:title="CO_things_Basalt_Plugin">
<polygon fill="#ffffff" stroke="#000000" points="147.6177,-.5 147.6177,-18.5 277.5776,-18.5 277.5776,-.5 147.6177,-.5"/>
<text text-anchor="middle" x="212.5977" y="-6.5" font-family="Helvetica,sans-Serif" font-size="10.00" fill="#000000">CO_things_Basalt_Plugin</text>
</a>
</g>
</g>
<!-- Node0&#45;&gt;Node4 -->
<g id="edge4" class="edge">
<title>Node0&#45;&gt;Node4</title>
<path fill="none" stroke="#191970" d="M85.7526,-51.4391C103.2443,-44.2397 125.6429,-35.3919 145.9453,-28.5 156.4278,-24.9416 167.9841,-21.487 178.4887,-18.5211"/>
<polygon fill="#191970" stroke="#191970" points="83.9656,-48.3914 76.0737,-55.4602 86.6513,-54.8557 83.9656,-48.3914"/>
</g>
</g>
</svg>
