<?xml version="1.0" encoding="UTF-8" standalone="no"?>
<!DOCTYPE svg PUBLIC "-//W3C//DTD SVG 1.1//EN"
 "http://www.w3.org/Graphics/SVG/1.1/DTD/svg11.dtd">
<!-- Generated by graphviz version 2.40.1 (20161225.0304)
 -->
<!-- Title: Graphical Class Hierarchy Pages: 1 -->
<svg width="913pt" height="201pt"
 viewBox="0.00 0.00 913.02 201.44" xmlns="http://www.w3.org/2000/svg" xmlns:xlink="http://www.w3.org/1999/xlink">
<g id="graph0" class="graph" transform="scale(1 1) rotate(0) translate(4 197.4426)">
<title>Graphical Class Hierarchy</title>
<polygon fill="#ffffff" stroke="transparent" points="-4,4 -4,-197.4426 909.0234,-197.4426 909.0234,4 -4,4"/>
<!-- Node26 -->
<g id="node1" class="node">
<title>Node26</title>
<g id="a_node1"><a xlink:href="a00311.html" target="_top" xlink:title="A_CO_DB_Table_Base">
<polygon fill="#ffffff" stroke="#000000" points="0,-37.5 0,-55.5 120.5068,-55.5 120.5068,-37.5 0,-37.5"/>
<text text-anchor="middle" x="60.2534" y="-43.5" font-family="Helvetica,sans-Serif" font-size="10.00" fill="#000000">A_CO_DB_Table_Base</text>
</a>
</g>
</g>
<!-- Node27 -->
<g id="node2" class="node">
<title>Node27</title>
<g id="a_node2"><a xlink:href="a00319.html" target="_top" xlink:title="CO_Main_DB_Record">
<polygon fill="#ffffff" stroke="#000000" points="156.5068,-74.5 156.5068,-92.5 271.9941,-92.5 271.9941,-74.5 156.5068,-74.5"/>
<text text-anchor="middle" x="214.2505" y="-80.5" font-family="Helvetica,sans-Serif" font-size="10.00" fill="#000000">CO_Main_DB_Record</text>
</a>
</g>
</g>
<!-- Node26&#45;&gt;Node27 -->
<g id="edge1" class="edge">
<title>Node26&#45;&gt;Node27</title>
<path fill="none" stroke="#191970" d="M107.8038,-57.9247C129.9615,-63.2484 155.9498,-69.4924 176.7009,-74.4782"/>
<polygon fill="#191970" stroke="#191970" points="108.4663,-54.4843 97.9253,-55.5512 106.8309,-61.2906 108.4663,-54.4843"/>
</g>
<!-- Node1 -->
<g id="node11" class="node">
<title>Node1</title>
<g id="a_node11"><a xlink:href="a00259.html" target="_top" xlink:title="CO_Owner">
<polygon fill="#ffffff" stroke="#000000" points="181.2432,-.5 181.2432,-18.5 247.2578,-18.5 247.2578,-.5 181.2432,-.5"/>
<text text-anchor="middle" x="214.2505" y="-6.5" font-family="Helvetica,sans-Serif" font-size="10.00" fill="#000000">CO_Owner</text>
</a>
</g>
</g>
<!-- Node26&#45;&gt;Node1 -->
<g id="edge10" class="edge">
<title>Node26&#45;&gt;Node1</title>
<path fill="none" stroke="#191970" d="M107.8104,-35.0737C131.5815,-29.3624 159.76,-22.5921 181.1507,-17.4527"/>
<polygon fill="#191970" stroke="#191970" points="106.8309,-31.7094 97.9253,-37.4488 108.4663,-38.5157 106.8309,-31.7094"/>
</g>
<!-- Node31 -->
<g id="node12" class="node">
<title>Node31</title>
<g id="a_node12"><a xlink:href="a00331.html" target="_top" xlink:title="CO_Security_Node">
<polygon fill="#ffffff" stroke="#000000" points="163.1743,-37.5 163.1743,-55.5 265.3267,-55.5 265.3267,-37.5 163.1743,-37.5"/>
<text text-anchor="middle" x="214.2505" y="-43.5" font-family="Helvetica,sans-Serif" font-size="10.00" fill="#000000">CO_Security_Node</text>
</a>
</g>
</g>
<!-- Node26&#45;&gt;Node31 -->
<g id="edge11" class="edge">
<title>Node26&#45;&gt;Node31</title>
<path fill="none" stroke="#191970" d="M130.9451,-46.5C141.739,-46.5 152.6994,-46.5 162.97,-46.5"/>
<polygon fill="#191970" stroke="#191970" points="130.6752,-43.0001 120.6751,-46.5 130.6751,-50.0001 130.6752,-43.0001"/>
</g>
<!-- Node28 -->
<g id="node3" class="node">
<title>Node28</title>
<g id="a_node3"><a xlink:href="a00335.html" target="_top" xlink:title="CO_LL_Location">
<polygon fill="#ffffff" stroke="#000000" points="313.8242,-74.5 313.8242,-92.5 404.8779,-92.5 404.8779,-74.5 313.8242,-74.5"/>
<text text-anchor="middle" x="359.3511" y="-80.5" font-family="Helvetica,sans-Serif" font-size="10.00" fill="#000000">CO_LL_Location</text>
</a>
</g>
</g>
<!-- Node27&#45;&gt;Node28 -->
<g id="edge2" class="edge">
<title>Node27&#45;&gt;Node28</title>
<path fill="none" stroke="#191970" d="M282.1068,-83.5C292.7065,-83.5 303.4404,-83.5 313.3983,-83.5"/>
<polygon fill="#191970" stroke="#191970" points="282.015,-80.0001 272.015,-83.5 282.015,-87.0001 282.015,-80.0001"/>
</g>
<!-- Node4 -->
<g id="node4" class="node">
<title>Node4</title>
<g id="a_node4"><a xlink:href="a00251.html" target="_top" xlink:title="CO_Collection">
<polygon fill="#ffffff" stroke="#000000" points="460.0454,-111.5 460.0454,-129.5 540.5181,-129.5 540.5181,-111.5 460.0454,-111.5"/>
<text text-anchor="middle" x="500.2817" y="-117.5" font-family="Helvetica,sans-Serif" font-size="10.00" fill="#000000">CO_Collection</text>
</a>
</g>
</g>
<!-- Node28&#45;&gt;Node4 -->
<g id="edge3" class="edge">
<title>Node28&#45;&gt;Node4</title>
<path fill="none" stroke="#191970" d="M403.653,-95.131C423.6697,-100.3862 446.9693,-106.5033 465.6737,-111.414"/>
<polygon fill="#191970" stroke="#191970" points="404.3876,-91.7054 393.8266,-92.5512 402.61,-98.4759 404.3876,-91.7054"/>
</g>
<!-- Node29 -->
<g id="node6" class="node">
<title>Node29</title>
<g id="a_node6"><a xlink:href="a00263.html" target="_top" xlink:title="CO_Place">
<polygon fill="#ffffff" stroke="#000000" points="469.4937,-37.5 469.4937,-55.5 531.0698,-55.5 531.0698,-37.5 469.4937,-37.5"/>
<text text-anchor="middle" x="500.2817" y="-43.5" font-family="Helvetica,sans-Serif" font-size="10.00" fill="#000000">CO_Place</text>
</a>
</g>
</g>
<!-- Node28&#45;&gt;Node29 -->
<g id="edge5" class="edge">
<title>Node28&#45;&gt;Node29</title>
<path fill="none" stroke="#191970" d="M403.6059,-71.8813C424.8552,-66.3025 449.8129,-59.7501 469.047,-54.7004"/>
<polygon fill="#191970" stroke="#191970" points="402.61,-68.5241 393.8266,-74.4488 404.3876,-75.2946 402.61,-68.5241"/>
</g>
<!-- Node8 -->
<g id="node10" class="node">
<title>Node8</title>
<g id="a_node10"><a xlink:href="a00279.html" target="_top" xlink:title="CO_User_Collection">
<polygon fill="#ffffff" stroke="#000000" points="446.708,-74.5 446.708,-92.5 553.8555,-92.5 553.8555,-74.5 446.708,-74.5"/>
<text text-anchor="middle" x="500.2817" y="-80.5" font-family="Helvetica,sans-Serif" font-size="10.00" fill="#000000">CO_User_Collection</text>
</a>
</g>
</g>
<!-- Node28&#45;&gt;Node8 -->
<g id="edge9" class="edge">
<title>Node28&#45;&gt;Node8</title>
<path fill="none" stroke="#191970" d="M415.2064,-83.5C425.4844,-83.5 436.1963,-83.5 446.4144,-83.5"/>
<polygon fill="#191970" stroke="#191970" points="415.1073,-80.0001 405.1072,-83.5 415.1072,-87.0001 415.1073,-80.0001"/>
</g>
<!-- Node5 -->
<g id="node5" class="node">
<title>Node5</title>
<g id="a_node5"><a xlink:href="a00255.html" target="_top" xlink:title="CO_KeyValue_CO_Collection">
<polygon fill="#ffffff" stroke="#000000" points="589.8555,-111.5 589.8555,-129.5 738.5215,-129.5 738.5215,-111.5 589.8555,-111.5"/>
<text text-anchor="middle" x="664.1885" y="-117.5" font-family="Helvetica,sans-Serif" font-size="10.00" fill="#000000">CO_KeyValue_CO_Collection</text>
</a>
</g>
</g>
<!-- Node4&#45;&gt;Node5 -->
<g id="edge4" class="edge">
<title>Node4&#45;&gt;Node5</title>
<path fill="none" stroke="#191970" d="M550.8239,-120.5C563.1056,-120.5 576.4964,-120.5 589.6317,-120.5"/>
<polygon fill="#191970" stroke="#191970" points="550.7981,-117.0001 540.798,-120.5 550.798,-124.0001 550.7981,-117.0001"/>
</g>
<!-- Node6 -->
<g id="node7" class="node">
<title>Node6</title>
<g id="a_node7"><a xlink:href="a00267.html" target="_top" xlink:title="CO_Place_Collection">
<polygon fill="#ffffff" stroke="#000000" points="608.6641,-149.5 608.6641,-167.5 719.7129,-167.5 719.7129,-149.5 608.6641,-149.5"/>
<text text-anchor="middle" x="664.1885" y="-155.5" font-family="Helvetica,sans-Serif" font-size="10.00" fill="#000000">CO_Place_Collection</text>
</a>
</g>
</g>
<!-- Node29&#45;&gt;Node6 -->
<g id="edge6" class="edge">
<title>Node29&#45;&gt;Node6</title>
<path fill="none" stroke="#191970" d="M540.557,-56.8166C545.372,-59.1559 549.9547,-62.0133 553.8555,-65.5 581.124,-89.8743 561.5116,-116.385 589.8555,-139.5 595.3264,-143.9617 601.7181,-147.3903 608.4148,-150.0224"/>
<polygon fill="#191970" stroke="#191970" points="541.7087,-53.5056 531.1297,-52.9276 539.0392,-59.9767 541.7087,-53.5056"/>
</g>
<!-- Node30 -->
<g id="node8" class="node">
<title>Node30</title>
<g id="a_node8"><a xlink:href="a00271.html" target="_top" xlink:title="CO_US_Place">
<polygon fill="#ffffff" stroke="#000000" points="623.6738,-56.5 623.6738,-74.5 704.7031,-74.5 704.7031,-56.5 623.6738,-56.5"/>
<text text-anchor="middle" x="664.1885" y="-62.5" font-family="Helvetica,sans-Serif" font-size="10.00" fill="#000000">CO_US_Place</text>
</a>
</g>
</g>
<!-- Node29&#45;&gt;Node30 -->
<g id="edge7" class="edge">
<title>Node29&#45;&gt;Node30</title>
<path fill="none" stroke="#191970" d="M541.0835,-51.2297C566.2627,-54.1485 598.4407,-57.8785 623.5834,-60.7931"/>
<polygon fill="#191970" stroke="#191970" points="541.4479,-47.7486 531.1113,-50.0738 540.6418,-54.702 541.4479,-47.7486"/>
</g>
<!-- Node7 -->
<g id="node9" class="node">
<title>Node7</title>
<g id="a_node9"><a xlink:href="a00275.html" target="_top" xlink:title="CO_US_Place_Collection">
<polygon fill="#ffffff" stroke="#000000" points="774.5215,-121.5 774.5215,-139.5 905.0234,-139.5 905.0234,-121.5 774.5215,-121.5"/>
<text text-anchor="middle" x="839.7725" y="-127.5" font-family="Helvetica,sans-Serif" font-size="10.00" fill="#000000">CO_US_Place_Collection</text>
</a>
</g>
</g>
<!-- Node30&#45;&gt;Node7 -->
<g id="edge8" class="edge">
<title>Node30&#45;&gt;Node7</title>
<path fill="none" stroke="#191970" d="M698.2174,-78.0973C732.5766,-90.8168 784.8013,-110.1501 815.2832,-121.4342"/>
<polygon fill="#191970" stroke="#191970" points="699.1958,-74.7274 688.6027,-74.538 696.7656,-81.292 699.1958,-74.7274"/>
</g>
<!-- Node32 -->
<g id="node13" class="node">
<title>Node32</title>
<g id="a_node13"><a xlink:href="a00339.html" target="_top" xlink:title="CO_Security_ID">
<polygon fill="#ffffff" stroke="#000000" points="315.228,-37.5 315.228,-55.5 403.4741,-55.5 403.4741,-37.5 315.228,-37.5"/>
<text text-anchor="middle" x="359.3511" y="-43.5" font-family="Helvetica,sans-Serif" font-size="10.00" fill="#000000">CO_Security_ID</text>
</a>
</g>
</g>
<!-- Node31&#45;&gt;Node32 -->
<g id="edge12" class="edge">
<title>Node31&#45;&gt;Node32</title>
<path fill="none" stroke="#191970" d="M275.4142,-46.5C288.6722,-46.5 302.4504,-46.5 314.9181,-46.5"/>
<polygon fill="#191970" stroke="#191970" points="275.4076,-43.0001 265.4075,-46.5 275.4075,-50.0001 275.4076,-43.0001"/>
</g>
<!-- Node33 -->
<g id="node14" class="node">
<title>Node33</title>
<g id="a_node14"><a xlink:href="a00343.html" target="_top" xlink:title="CO_Security_Login">
<polygon fill="#ffffff" stroke="#000000" points="307.9941,-.5 307.9941,-18.5 410.708,-18.5 410.708,-.5 307.9941,-.5"/>
<text text-anchor="middle" x="359.3511" y="-6.5" font-family="Helvetica,sans-Serif" font-size="10.00" fill="#000000">CO_Security_Login</text>
</a>
</g>
</g>
<!-- Node31&#45;&gt;Node33 -->
<g id="edge13" class="edge">
<title>Node31&#45;&gt;Node33</title>
<path fill="none" stroke="#191970" d="M259.619,-34.9312C280.3723,-29.6392 304.5946,-23.4627 323.9708,-18.5218"/>
<polygon fill="#191970" stroke="#191970" points="258.5712,-31.5863 249.7461,-37.4488 260.3009,-38.3693 258.5712,-31.5863"/>
</g>
<!-- Node34 -->
<g id="node15" class="node">
<title>Node34</title>
<g id="a_node15"><a xlink:href="a00231.html" target="_top" xlink:title="CO_Cobra_Login">
<polygon fill="#ffffff" stroke="#000000" points="453.3682,-.5 453.3682,-18.5 547.1953,-18.5 547.1953,-.5 453.3682,-.5"/>
<text text-anchor="middle" x="500.2817" y="-6.5" font-family="Helvetica,sans-Serif" font-size="10.00" fill="#000000">CO_Cobra_Login</text>
</a>
</g>
</g>
<!-- Node33&#45;&gt;Node34 -->
<g id="edge14" class="edge">
<title>Node33&#45;&gt;Node34</title>
<path fill="none" stroke="#191970" d="M421.2236,-9.5C431.9789,-9.5 443.0054,-9.5 453.2804,-9.5"/>
<polygon fill="#191970" stroke="#191970" points="421.0282,-6.0001 411.0282,-9.5 421.0282,-13.0001 421.0282,-6.0001"/>
</g>
<!-- Node35 -->
<g id="node16" class="node">
<title>Node35</title>
<g id="a_node16"><a xlink:href="a00235.html" target="_top" xlink:title="CO_Login_Manager">
<polygon fill="#ffffff" stroke="#000000" points="611.1592,-.5 611.1592,-18.5 717.2178,-18.5 717.2178,-.5 611.1592,-.5"/>
<text text-anchor="middle" x="664.1885" y="-6.5" font-family="Helvetica,sans-Serif" font-size="10.00" fill="#000000">CO_Login_Manager</text>
</a>
</g>
</g>
<!-- Node34&#45;&gt;Node35 -->
<g id="edge15" class="edge">
<title>Node34&#45;&gt;Node35</title>
<path fill="none" stroke="#191970" d="M557.3228,-9.5C574.8037,-9.5 593.9557,-9.5 611.1575,-9.5"/>
<polygon fill="#191970" stroke="#191970" points="557.2509,-6.0001 547.2508,-9.5 557.2508,-13.0001 557.2509,-6.0001"/>
</g>
<!-- Node3 -->
<g id="node17" class="node">
<title>Node3</title>
<g id="a_node17"><a xlink:href="a00283.html" target="_top" xlink:title="tCO_Collection">
<polygon fill="#ffffff" stroke="#000000" points="317.7256,-111.5 317.7256,-129.5 400.9766,-129.5 400.9766,-111.5 317.7256,-111.5"/>
<text text-anchor="middle" x="359.3511" y="-117.5" font-family="Helvetica,sans-Serif" font-size="10.00" fill="#000000">tCO_Collection</text>
</a>
</g>
</g>
<!-- Node3&#45;&gt;Node4 -->
<g id="edge16" class="edge">
<title>Node3&#45;&gt;Node4</title>
<path fill="none" stroke="#191970" d="M411.4943,-120.5C427.4299,-120.5 444.7089,-120.5 459.7521,-120.5"/>
<polygon fill="#191970" stroke="#191970" points="411.2534,-117.0001 401.2534,-120.5 411.2533,-124.0001 411.2534,-117.0001"/>
</g>
<!-- Node3&#45;&gt;Node6 -->
<g id="edge17" class="edge">
<title>Node3&#45;&gt;Node6</title>
<path fill="none" stroke="#191970" d="M405.9076,-131.7727C419.039,-134.6391 433.3795,-137.4767 446.708,-139.5 501.4165,-147.8049 564.46,-152.8169 608.5371,-155.5907"/>
<polygon fill="#191970" stroke="#191970" points="406.6612,-128.3548 396.1384,-129.5881 405.1335,-135.1861 406.6612,-128.3548"/>
</g>
<!-- Node3&#45;&gt;Node7 -->
<g id="edge18" class="edge">
<title>Node3&#45;&gt;Node7</title>
<path fill="none" stroke="#191970" d="M385.1339,-134.4367C402.1428,-143.0144 425.1795,-153.484 446.708,-159.5 571.855,-194.4712 611.6358,-205.5142 738.5215,-177.5 771.4494,-170.2301 806.3914,-151.1299 825.3976,-139.6397"/>
<polygon fill="#191970" stroke="#191970" points="386.3638,-131.1327 375.8728,-129.6529 383.1512,-137.352 386.3638,-131.1327"/>
</g>
<!-- Node3&#45;&gt;Node8 -->
<g id="edge19" class="edge">
<title>Node3&#45;&gt;Node8</title>
<path fill="none" stroke="#191970" d="M403.653,-108.869C423.6697,-103.6138 446.9693,-97.4967 465.6737,-92.586"/>
<polygon fill="#191970" stroke="#191970" points="402.61,-105.5241 393.8266,-111.4488 404.3876,-112.2946 402.61,-105.5241"/>
</g>
<!-- Node0 -->
<g id="node18" class="node">
<title>Node0</title>
<g id="a_node18"><a xlink:href="a00287.html" target="_top" xlink:title="tCO_Owner">
<polygon fill="#ffffff" stroke="#000000" points="25.8569,-.5 25.8569,-18.5 94.6499,-18.5 94.6499,-.5 25.8569,-.5"/>
<text text-anchor="middle" x="60.2534" y="-6.5" font-family="Helvetica,sans-Serif" font-size="10.00" fill="#000000">tCO_Owner</text>
</a>
</g>
</g>
<!-- Node0&#45;&gt;Node1 -->
<g id="edge20" class="edge">
<title>Node0&#45;&gt;Node1</title>
<path fill="none" stroke="#191970" d="M104.8871,-9.5C129.2323,-9.5 158.8545,-9.5 181.1263,-9.5"/>
<polygon fill="#191970" stroke="#191970" points="104.8134,-6.0001 94.8134,-9.5 104.8133,-13.0001 104.8134,-6.0001"/>
</g>
</g>
</svg>
