<?xml version="1.0" encoding="UTF-8" standalone="no"?>
<!DOCTYPE svg PUBLIC "-//W3C//DTD SVG 1.1//EN"
 "http://www.w3.org/Graphics/SVG/1.1/DTD/svg11.dtd">
<!-- Generated by graphviz version 2.47.1 (20210417.1919)
 -->
<!-- Title: Graphical Class Hierarchy Pages: 1 -->
<svg width="906pt" height="199pt"
 viewBox="0.00 0.00 906.00 199.50" xmlns="http://www.w3.org/2000/svg" xmlns:xlink="http://www.w3.org/1999/xlink">
<g id="graph0" class="graph" transform="scale(1 1) rotate(0) translate(4 195.5)">
<title>Graphical Class Hierarchy</title>
<polygon fill="white" stroke="transparent" points="-4,4 -4,-195.5 902,-195.5 902,4 -4,4"/>
<!-- Node0 -->
<g id="node1" class="node">
<title>Node0</title>
<g id="a_node1"><a xlink:href="a00308.html" target="_top" xlink:title=" ">
<polygon fill="white" stroke="black" points="0,-38.5 0,-57.5 119,-57.5 119,-38.5 0,-38.5"/>
<text text-anchor="middle" x="59.5" y="-45.5" font-family="Helvetica,sans-Serif" font-size="10.00">A_CO_DB_Table_Base</text>
</a>
</g>
</g>
<!-- Node1 -->
<g id="node2" class="node">
<title>Node1</title>
<g id="a_node2"><a xlink:href="a00316.html" target="_top" xlink:title=" ">
<polygon fill="white" stroke="black" points="155,-76.5 155,-95.5 269,-95.5 269,-76.5 155,-76.5"/>
<text text-anchor="middle" x="212" y="-83.5" font-family="Helvetica,sans-Serif" font-size="10.00">CO_Main_DB_Record</text>
</a>
</g>
</g>
<!-- Node0&#45;&gt;Node1 -->
<g id="edge1" class="edge">
<title>Node0&#45;&gt;Node1</title>
<path fill="none" stroke="midnightblue" d="M108.18,-60.04C129.21,-65.35 153.57,-71.5 173.3,-76.48"/>
<polygon fill="midnightblue" stroke="midnightblue" points="109.03,-56.64 98.48,-57.59 107.32,-63.43 109.03,-56.64"/>
</g>
<!-- Node10 -->
<g id="node11" class="node">
<title>Node10</title>
<g id="a_node11"><a xlink:href="a00256.html" target="_top" xlink:title=" ">
<polygon fill="white" stroke="black" points="179.5,-0.5 179.5,-19.5 244.5,-19.5 244.5,-0.5 179.5,-0.5"/>
<text text-anchor="middle" x="212" y="-7.5" font-family="Helvetica,sans-Serif" font-size="10.00">CO_Owner</text>
</a>
</g>
</g>
<!-- Node0&#45;&gt;Node10 -->
<g id="edge10" class="edge">
<title>Node0&#45;&gt;Node10</title>
<path fill="none" stroke="midnightblue" d="M108.44,-35.9C131.54,-30.06 158.61,-23.23 179.14,-18.04"/>
<polygon fill="midnightblue" stroke="midnightblue" points="107.32,-32.57 98.48,-38.41 109.03,-39.36 107.32,-32.57"/>
</g>
<!-- Node11 -->
<g id="node12" class="node">
<title>Node11</title>
<g id="a_node12"><a xlink:href="a00328.html" target="_top" xlink:title=" ">
<polygon fill="white" stroke="black" points="161.5,-38.5 161.5,-57.5 262.5,-57.5 262.5,-38.5 161.5,-38.5"/>
<text text-anchor="middle" x="212" y="-45.5" font-family="Helvetica,sans-Serif" font-size="10.00">CO_Security_Node</text>
</a>
</g>
</g>
<!-- Node0&#45;&gt;Node11 -->
<g id="edge11" class="edge">
<title>Node0&#45;&gt;Node11</title>
<path fill="none" stroke="midnightblue" d="M129.3,-48C140.01,-48 150.9,-48 161.08,-48"/>
<polygon fill="midnightblue" stroke="midnightblue" points="129.12,-44.5 119.12,-48 129.12,-51.5 129.12,-44.5"/>
</g>
<!-- Node2 -->
<g id="node3" class="node">
<title>Node2</title>
<g id="a_node3"><a xlink:href="a00332.html" target="_top" xlink:title=" ">
<polygon fill="white" stroke="black" points="311,-76.5 311,-95.5 400,-95.5 400,-76.5 311,-76.5"/>
<text text-anchor="middle" x="355.5" y="-83.5" font-family="Helvetica,sans-Serif" font-size="10.00">CO_LL_Location</text>
</a>
</g>
</g>
<!-- Node1&#45;&gt;Node2 -->
<g id="edge2" class="edge">
<title>Node1&#45;&gt;Node2</title>
<path fill="none" stroke="midnightblue" d="M279.4,-86C289.98,-86 300.68,-86 310.57,-86"/>
<polygon fill="midnightblue" stroke="midnightblue" points="279.33,-82.5 269.33,-86 279.33,-89.5 279.33,-82.5"/>
</g>
<!-- Node3 -->
<g id="node4" class="node">
<title>Node3</title>
<g id="a_node4"><a xlink:href="a00248.html" target="_top" xlink:title=" ">
<polygon fill="white" stroke="black" points="455.5,-114.5 455.5,-133.5 535.5,-133.5 535.5,-114.5 455.5,-114.5"/>
<text text-anchor="middle" x="495.5" y="-121.5" font-family="Helvetica,sans-Serif" font-size="10.00">CO_Collection</text>
</a>
</g>
</g>
<!-- Node2&#45;&gt;Node3 -->
<g id="edge3" class="edge">
<title>Node2&#45;&gt;Node3</title>
<path fill="none" stroke="midnightblue" d="M400.97,-98.25C419.99,-103.48 441.88,-109.51 459.69,-114.41"/>
<polygon fill="midnightblue" stroke="midnightblue" points="401.89,-94.87 391.32,-95.59 400.04,-101.62 401.89,-94.87"/>
</g>
<!-- Node5 -->
<g id="node6" class="node">
<title>Node5</title>
<g id="a_node6"><a xlink:href="a00260.html" target="_top" xlink:title=" ">
<polygon fill="white" stroke="black" points="464.5,-38.5 464.5,-57.5 526.5,-57.5 526.5,-38.5 464.5,-38.5"/>
<text text-anchor="middle" x="495.5" y="-45.5" font-family="Helvetica,sans-Serif" font-size="10.00">CO_Place</text>
</a>
</g>
</g>
<!-- Node2&#45;&gt;Node5 -->
<g id="edge5" class="edge">
<title>Node2&#45;&gt;Node5</title>
<path fill="none" stroke="midnightblue" d="M401.17,-73.7C421.85,-68 445.88,-61.39 464.38,-56.3"/>
<polygon fill="midnightblue" stroke="midnightblue" points="400.04,-70.38 391.32,-76.41 401.89,-77.13 400.04,-70.38"/>
</g>
<!-- Node9 -->
<g id="node10" class="node">
<title>Node9</title>
<g id="a_node10"><a xlink:href="a00276.html" target="_top" xlink:title=" ">
<polygon fill="white" stroke="black" points="442,-76.5 442,-95.5 549,-95.5 549,-76.5 442,-76.5"/>
<text text-anchor="middle" x="495.5" y="-83.5" font-family="Helvetica,sans-Serif" font-size="10.00">CO_User_Collection</text>
</a>
</g>
</g>
<!-- Node2&#45;&gt;Node9 -->
<g id="edge9" class="edge">
<title>Node2&#45;&gt;Node9</title>
<path fill="none" stroke="midnightblue" d="M410.35,-86C420.73,-86 431.59,-86 441.93,-86"/>
<polygon fill="midnightblue" stroke="midnightblue" points="410.16,-82.5 400.16,-86 410.16,-89.5 410.16,-82.5"/>
</g>
<!-- Node4 -->
<g id="node5" class="node">
<title>Node4</title>
<g id="a_node5"><a xlink:href="a00252.html" target="_top" xlink:title=" ">
<polygon fill="white" stroke="black" points="585,-114.5 585,-133.5 732,-133.5 732,-114.5 585,-114.5"/>
<text text-anchor="middle" x="658.5" y="-121.5" font-family="Helvetica,sans-Serif" font-size="10.00">CO_KeyValue_CO_Collection</text>
</a>
</g>
</g>
<!-- Node3&#45;&gt;Node4 -->
<g id="edge4" class="edge">
<title>Node3&#45;&gt;Node4</title>
<path fill="none" stroke="midnightblue" d="M545.93,-124C558.25,-124 571.71,-124 584.89,-124"/>
<polygon fill="midnightblue" stroke="midnightblue" points="545.89,-120.5 535.89,-124 545.88,-127.5 545.89,-120.5"/>
</g>
<!-- Node6 -->
<g id="node7" class="node">
<title>Node6</title>
<g id="a_node7"><a xlink:href="a00264.html" target="_top" xlink:title=" ">
<polygon fill="white" stroke="black" points="603.5,-152.5 603.5,-171.5 713.5,-171.5 713.5,-152.5 603.5,-152.5"/>
<text text-anchor="middle" x="658.5" y="-159.5" font-family="Helvetica,sans-Serif" font-size="10.00">CO_Place_Collection</text>
</a>
</g>
</g>
<!-- Node5&#45;&gt;Node6 -->
<g id="edge6" class="edge">
<title>Node5&#45;&gt;Node6</title>
<path fill="none" stroke="midnightblue" d="M536.01,-58.37C540.72,-60.7 545.2,-63.54 549,-67 576.66,-92.14 556.23,-119.14 585,-143 590.41,-147.49 596.76,-150.92 603.42,-153.56"/>
<polygon fill="midnightblue" stroke="midnightblue" points="537.35,-55.14 526.77,-54.49 534.64,-61.59 537.35,-55.14"/>
</g>
<!-- Node7 -->
<g id="node8" class="node">
<title>Node7</title>
<g id="a_node8"><a xlink:href="a00268.html" target="_top" xlink:title=" ">
<polygon fill="white" stroke="black" points="618,-57.5 618,-76.5 699,-76.5 699,-57.5 618,-57.5"/>
<text text-anchor="middle" x="658.5" y="-64.5" font-family="Helvetica,sans-Serif" font-size="10.00">CO_US_Place</text>
</a>
</g>
</g>
<!-- Node5&#45;&gt;Node7 -->
<g id="edge7" class="edge">
<title>Node5&#45;&gt;Node7</title>
<path fill="none" stroke="midnightblue" d="M536.95,-52.77C561.72,-55.7 593.3,-59.42 617.91,-62.33"/>
<polygon fill="midnightblue" stroke="midnightblue" points="537.12,-49.27 526.78,-51.57 536.3,-56.22 537.12,-49.27"/>
</g>
<!-- Node8 -->
<g id="node9" class="node">
<title>Node8</title>
<g id="a_node9"><a xlink:href="a00272.html" target="_top" xlink:title=" ">
<polygon fill="white" stroke="black" points="768,-123.5 768,-142.5 898,-142.5 898,-123.5 768,-123.5"/>
<text text-anchor="middle" x="833" y="-130.5" font-family="Helvetica,sans-Serif" font-size="10.00">CO_US_Place_Collection</text>
</a>
</g>
</g>
<!-- Node7&#45;&gt;Node8 -->
<g id="edge8" class="edge">
<title>Node7&#45;&gt;Node8</title>
<path fill="none" stroke="midnightblue" d="M693.98,-80.19C727.45,-93 777.43,-112.12 807.17,-123.5"/>
<polygon fill="midnightblue" stroke="midnightblue" points="695.17,-76.9 684.58,-76.6 692.67,-83.44 695.17,-76.9"/>
</g>
<!-- Node12 -->
<g id="node13" class="node">
<title>Node12</title>
<g id="a_node13"><a xlink:href="a00336.html" target="_top" xlink:title=" ">
<polygon fill="white" stroke="black" points="311,-38.5 311,-57.5 400,-57.5 400,-38.5 311,-38.5"/>
<text text-anchor="middle" x="355.5" y="-45.5" font-family="Helvetica,sans-Serif" font-size="10.00">CO_Security_ID</text>
</a>
</g>
</g>
<!-- Node11&#45;&gt;Node12 -->
<g id="edge12" class="edge">
<title>Node11&#45;&gt;Node12</title>
<path fill="none" stroke="midnightblue" d="M272.92,-48C285.6,-48 298.76,-48 310.71,-48"/>
<polygon fill="midnightblue" stroke="midnightblue" points="272.89,-44.5 262.89,-48 272.89,-51.5 272.89,-44.5"/>
</g>
<!-- Node13 -->
<g id="node14" class="node">
<title>Node13</title>
<g id="a_node14"><a xlink:href="a00340.html" target="_top" xlink:title=" ">
<polygon fill="white" stroke="black" points="305,-0.5 305,-19.5 406,-19.5 406,-0.5 305,-0.5"/>
<text text-anchor="middle" x="355.5" y="-7.5" font-family="Helvetica,sans-Serif" font-size="10.00">CO_Security_Login</text>
</a>
</g>
</g>
<!-- Node11&#45;&gt;Node13 -->
<g id="edge13" class="edge">
<title>Node11&#45;&gt;Node13</title>
<path fill="none" stroke="midnightblue" d="M258.6,-35.75C278.11,-30.52 300.54,-24.49 318.8,-19.59"/>
<polygon fill="midnightblue" stroke="midnightblue" points="257.46,-32.44 248.71,-38.41 259.27,-39.2 257.46,-32.44"/>
</g>
<!-- Node14 -->
<g id="node15" class="node">
<title>Node14</title>
<g id="a_node15"><a xlink:href="a00228.html" target="_top" xlink:title=" ">
<polygon fill="white" stroke="black" points="449.5,-0.5 449.5,-19.5 541.5,-19.5 541.5,-0.5 449.5,-0.5"/>
<text text-anchor="middle" x="495.5" y="-7.5" font-family="Helvetica,sans-Serif" font-size="10.00">CO_Cobra_Login</text>
</a>
</g>
</g>
<!-- Node13&#45;&gt;Node14 -->
<g id="edge14" class="edge">
<title>Node13&#45;&gt;Node14</title>
<path fill="none" stroke="midnightblue" d="M416.36,-10C427.42,-10 438.8,-10 449.34,-10"/>
<polygon fill="midnightblue" stroke="midnightblue" points="416.32,-6.5 406.32,-10 416.32,-13.5 416.32,-6.5"/>
</g>
<!-- Node15 -->
<g id="node16" class="node">
<title>Node15</title>
<g id="a_node16"><a xlink:href="a00232.html" target="_top" xlink:title=" ">
<polygon fill="white" stroke="black" points="607,-0.5 607,-19.5 710,-19.5 710,-0.5 607,-0.5"/>
<text text-anchor="middle" x="658.5" y="-7.5" font-family="Helvetica,sans-Serif" font-size="10.00">CO_Login_Manager</text>
</a>
</g>
</g>
<!-- Node14&#45;&gt;Node15 -->
<g id="edge15" class="edge">
<title>Node14&#45;&gt;Node15</title>
<path fill="none" stroke="midnightblue" d="M552.03,-10C569.84,-10 589.46,-10 606.91,-10"/>
<polygon fill="midnightblue" stroke="midnightblue" points="551.78,-6.5 541.78,-10 551.78,-13.5 551.78,-6.5"/>
</g>
<!-- Node42 -->
<g id="node17" class="node">
<title>Node42</title>
<g id="a_node17"><a xlink:href="a00280.html" target="_top" xlink:title=" ">
<polygon fill="white" stroke="black" points="314,-133.5 314,-152.5 397,-152.5 397,-133.5 314,-133.5"/>
<text text-anchor="middle" x="355.5" y="-140.5" font-family="Helvetica,sans-Serif" font-size="10.00">tCO_Collection</text>
</a>
</g>
</g>
<!-- Node42&#45;&gt;Node3 -->
<g id="edge16" class="edge">
<title>Node42&#45;&gt;Node3</title>
<path fill="none" stroke="midnightblue" d="M407.29,-136.01C423.06,-133.84 440.2,-131.48 455.08,-129.43"/>
<polygon fill="midnightblue" stroke="midnightblue" points="406.59,-132.57 397.16,-137.4 407.54,-139.51 406.59,-132.57"/>
</g>
<!-- Node42&#45;&gt;Node6 -->
<g id="edge17" class="edge">
<title>Node42&#45;&gt;Node6</title>
<path fill="none" stroke="midnightblue" d="M407.2,-146.2C461.59,-149.63 547.64,-155.07 603.33,-158.58"/>
<polygon fill="midnightblue" stroke="midnightblue" points="407.29,-142.7 397.09,-145.56 406.85,-149.69 407.29,-142.7"/>
</g>
<!-- Node42&#45;&gt;Node8 -->
<g id="edge18" class="edge">
<title>Node42&#45;&gt;Node8</title>
<path fill="none" stroke="midnightblue" d="M396.22,-155.33C465.3,-174.94 611.73,-208.37 732,-181 764.48,-173.61 798.73,-154.29 817.53,-142.53"/>
<polygon fill="midnightblue" stroke="midnightblue" points="397.17,-151.96 386.6,-152.54 395.23,-158.69 397.17,-151.96"/>
</g>
<!-- Node42&#45;&gt;Node9 -->
<g id="edge19" class="edge">
<title>Node42&#45;&gt;Node9</title>
<path fill="none" stroke="midnightblue" d="M386.59,-129C402.87,-121.58 423.41,-112.49 442,-105 450,-101.78 458.79,-98.5 466.84,-95.59"/>
<polygon fill="midnightblue" stroke="midnightblue" points="384.69,-126.02 377.06,-133.37 387.61,-132.38 384.69,-126.02"/>
</g>
<!-- Node43 -->
<g id="node18" class="node">
<title>Node43</title>
<g id="a_node18"><a xlink:href="a00284.html" target="_top" xlink:title=" ">
<polygon fill="white" stroke="black" points="25.5,-0.5 25.5,-19.5 93.5,-19.5 93.5,-0.5 25.5,-0.5"/>
<text text-anchor="middle" x="59.5" y="-7.5" font-family="Helvetica,sans-Serif" font-size="10.00">tCO_Owner</text>
</a>
</g>
</g>
<!-- Node43&#45;&gt;Node10 -->
<g id="edge20" class="edge">
<title>Node43&#45;&gt;Node10</title>
<path fill="none" stroke="midnightblue" d="M103.84,-10C127.94,-10 157.41,-10 179.34,-10"/>
<polygon fill="midnightblue" stroke="midnightblue" points="103.53,-6.5 93.53,-10 103.53,-13.5 103.53,-6.5"/>
</g>
</g>
</svg>
